solid v3d.csg
  facet normal -1.0 -0.0 -0.0
    outer loop
      vertex -0.07106677442789078 0.05639068371500524 -0.10621216893196106
      vertex -0.07106677442789078 0.0443093301441988 -0.10621216893196106
      vertex -0.07106677442789078 0.04185819755505397 -0.09998702014535957
    endloop
  endfacet
  facet normal -1.0 -0.0 -0.0
    outer loop
      vertex -0.07106677442789078 0.04898801743334173 -0.10304115617380627
      vertex -0.07106677442789078 0.04185819755505397 -0.09998702014535957
      vertex -0.07106677442789078 0.03957470455259987 -0.09418762611975953
    endloop
  endfacet
  facet normal -1.0 -0.0 -0.0
    outer loop
      vertex -0.07106677442789078 0.0674448144965267 -0.10621216893196106
      vertex -0.07106677442789078 0.05639068371500524 -0.10621216893196106
      vertex -0.07106677442789078 0.04898801743334173 -0.10304115617380627
    endloop
  endfacet
  facet normal -1.0 -0.0 -0.0
    outer loop
      vertex -0.07106677442789078 0.0674448144965267 -0.10621216893196106
      vertex -0.07106677442789078 0.04898801743334173 -0.10304115617380627
      vertex -0.07106677442789078 0.03957470455259987 -0.09418762611975953
    endloop
  endfacet
  facet normal -1.0 -0.0 -0.0
    outer loop
      vertex -0.07106677442789078 0.0674448144965267 -0.10621216893196106
      vertex -0.07106677442789078 0.03957470455259987 -0.09418762611975953
      vertex -0.07106677442789078 0.03475047734332131 -0.08193552181045823
    endloop
  endfacet
  facet normal -1.0 -0.0 -0.0
    outer loop
      vertex -0.07106677442789078 -0.039849506763976805 -0.040474300358050774
      vertex -0.07106677442789078 0.01084368095500425 -0.10621216893196106
      vertex -0.07106677442789078 -0.08321252465248108 -0.10621216893196106
    endloop
  endfacet
  facet normal -1.0 -0.0 -0.0
    outer loop
      vertex -0.07106677442789078 -0.039849506763976805 -0.040474300358050774
      vertex -0.07106677442789078 -0.08321252465248108 -0.10621216893196106
      vertex -0.07106677442789078 -0.08321252465248108 -0.026377243347232616
    endloop
  endfacet
  facet normal -1.0 -0.0 -0.0
    outer loop
      vertex -0.07106677442789078 -0.04501506502055159 -0.03377571214410731
      vertex -0.07106677442789078 -0.039849506763976805 -0.040474300358050774
      vertex -0.07106677442789078 -0.08321252465248108 -0.026377243347232616
    endloop
  endfacet
  facet normal -1.0 -0.0 -0.0
    outer loop
      vertex -0.07106677442789078 -0.04501506502055159 -0.03377571214410731
      vertex -0.07106677442789078 -0.08321252465248108 -0.026377243347232616
      vertex -0.07106677442789078 -0.08321252465248108 -0.023382126663646693
    endloop
  endfacet
  facet normal -1.0 -0.0 -0.0
    outer loop
      vertex -0.07106677442789078 -0.06475084488428409 -0.021660837175045206
      vertex -0.07106677442789078 -0.06298694382586059 -0.021834398404173835
      vertex -0.07106677442789078 -0.060340732404910204 -0.022375242229891838
    endloop
  endfacet
  facet normal -1.0 -0.0 -0.0
    outer loop
      vertex -0.07106677442789078 -0.06475084488428409 -0.021660837175045206
      vertex -0.07106677442789078 -0.060340732404910204 -0.022375242229891838
      vertex -0.07106677442789078 -0.047826847484091314 -0.030129451288087195
    endloop
  endfacet
  facet normal -1.0 -0.0 -0.0
    outer loop
      vertex -0.07106677442789078 -0.06475084488428409 -0.021660837175045206
      vertex -0.07106677442789078 -0.047826847484091314 -0.030129451288087195
      vertex -0.07106677442789078 -0.04501506502055159 -0.03377571214410731
    endloop
  endfacet
  facet normal -1.0 -0.0 -0.0
    outer loop
      vertex -0.07106677442789078 -0.06475084488428409 -0.021660837175045206
      vertex -0.07106677442789078 -0.04501506502055159 -0.03377571214410731
      vertex -0.07106677442789078 -0.08321252465248108 -0.023382126663646693
    endloop
  endfacet
  facet normal -1.0 -0.0 -0.0
    outer loop
      vertex -0.07106677442789078 -0.06475084488428409 -0.021660837175045206
      vertex -0.07106677442789078 -0.08321252465248108 -0.023382126663646693
      vertex -0.07106677442789078 -0.08321252465248108 -0.022061909195569312
    endloop
  endfacet
  facet normal -1.0 -0.0 -0.0
    outer loop
      vertex -0.07106677442789078 -0.06298694382586059 -0.021834398404173835
      vertex -0.07106677442789078 -0.060878795522969806 -0.022041832267251267
      vertex -0.07106677442789078 -0.060340732404910204 -0.022375242229891838
    endloop
  endfacet
  facet normal -1.0 -0.0 -0.0
    outer loop
      vertex -0.07106677442789078 -0.04376362281239506 -0.035398556299493386
      vertex -0.07106677442789078 -0.0375252796210435 -0.03651280157001006
      vertex -0.07106677442789078 0.02590631512724892 -0.0758180892312937
    endloop
  endfacet
  facet normal -1.0 -0.0 -0.0
    outer loop
      vertex -0.07106677442789078 -0.04376362281239506 -0.035398556299493386
      vertex -0.07106677442789078 0.02590631512724892 -0.0758180892312937
      vertex -0.07106677442789078 0.03779388128386573 -0.08966486392419029
    endloop
  endfacet
  facet normal -1.0 -0.0 -0.0
    outer loop
      vertex -0.07106677442789078 -0.04376362281239506 -0.035398556299493386
      vertex -0.07106677442789078 0.03779388128386573 -0.08966486392419029
      vertex -0.07106677442789078 0.0443093301441988 -0.10621216893196106
    endloop
  endfacet
  facet normal -1.0 -0.0 -0.0
    outer loop
      vertex -0.07106677442789078 -0.04376362281239506 -0.035398556299493386
      vertex -0.07106677442789078 0.0443093301441988 -0.10621216893196106
      vertex -0.07106677442789078 0.01084368095500425 -0.10621216893196106
    endloop
  endfacet
  facet normal -1.0 -0.0 -0.0
    outer loop
      vertex -0.07106677442789078 0.02590631512724892 -0.0758180892312937
      vertex -0.07106677442789078 0.02956546717310758 -0.0780854770264385
      vertex -0.07106677442789078 0.03475047734332135 -0.08193552181045834
    endloop
  endfacet
  facet normal -1.0 -0.0 -0.0
    outer loop
      vertex -0.07106677442789078 0.02590631512724892 -0.0758180892312937
      vertex -0.07106677442789078 0.03475047734332135 -0.08193552181045834
      vertex -0.07106677442789078 0.03779388128386573 -0.08966486392419029
    endloop
  endfacet
  facet normal -1.0 -0.0 -0.0
    outer loop
      vertex -0.07106677442789078 -0.05375347346974509 -0.022742937154959817
      vertex -0.07106677442789078 -0.049002777973469136 -0.028604529154736536
      vertex -0.07106677442789078 -0.047826847484091294 -0.030129451288087205
    endloop
  endfacet
  facet normal -1.0 -0.0 -0.0
    outer loop
      vertex -0.07106677442789078 -0.05375347346974509 -0.022742937154959817
      vertex -0.07106677442789078 -0.047826847484091294 -0.030129451288087205
      vertex -0.07106677442789078 -0.060878795522969806 -0.022041832267251264
    endloop
  endfacet
  facet normal -1.0 -0.0 -0.0
    outer loop
      vertex -0.07106677442789078 -0.030047321255370314 -0.03784845744633684
      vertex -0.07106677442789078 -0.020505615673178733 -0.04044476970253194
      vertex -0.07106677442789078 -0.014348744978151359 -0.042417348681568476
    endloop
  endfacet
  facet normal -1.0 -0.0 -0.0
    outer loop
      vertex -0.07106677442789078 -0.030047321255370314 -0.03784845744633684
      vertex -0.07106677442789078 -0.014348744978151359 -0.042417348681568476
      vertex -0.07106677442789078 0.004748219204415108 -0.05389915922133934
    endloop
  endfacet
  facet normal -1.0 -0.0 -0.0
    outer loop
      vertex -0.07106677442789078 -0.030047321255370314 -0.03784845744633684
      vertex -0.07106677442789078 0.004748219204415108 -0.05389915922133934
      vertex -0.07106677442789078 0.013708673687851454 -0.06524355482569161
    endloop
  endfacet
  facet normal -1.0 -0.0 -0.0
    outer loop
      vertex -0.07106677442789078 -0.030047321255370314 -0.03784845744633684
      vertex -0.07106677442789078 0.013708673687851454 -0.06524355482569161
      vertex -0.07106677442789078 0.017337098679703185 -0.07050818777226323
    endloop
  endfacet
  facet normal -1.0 -0.0 -0.0
    outer loop
      vertex -0.07106677442789078 -0.030047321255370314 -0.03784845744633684
      vertex -0.07106677442789078 0.017337098679703185 -0.07050818777226323
      vertex -0.07106677442789078 -0.03752527962104352 -0.036512801570010044
    endloop
  endfacet
  facet normal -0.0 -1.0 -0.0
    outer loop
      vertex -0.04594093899243748 -0.08321252465248108 -0.06816522904497682
      vertex -0.049466871783356875 -0.08321252465248108 -0.06138430314995844
      vertex -0.07106677442789078 -0.08321252465248108 -0.026377243347232612
    endloop
  endfacet
  facet normal -0.0 -1.0 -0.0
    outer loop
      vertex -0.04594093899243748 -0.08321252465248108 -0.06816522904497682
      vertex -0.07106677442789078 -0.08321252465248108 -0.026377243347232612
      vertex -0.07106677442789078 -0.08321252465248108 -0.10621216893196106
    endloop
  endfacet
  facet normal -0.0 -1.0 -0.0
    outer loop
      vertex -0.04594093899243748 -0.08321252465248108 -0.06816522904497682
      vertex -0.07106677442789078 -0.08321252465248108 -0.10621216893196106
      vertex -0.03680091685143118 -0.08321252465248108 -0.10621216893196106
    endloop
  endfacet
  facet normal -0.0 -1.0 -0.0
    outer loop
      vertex -0.05247216656093282 -0.08321252465248108 -0.05651360832624615
      vertex -0.06930156296074194 -0.08321252465248108 -0.02533245594779723
      vertex -0.07106677442789078 -0.08321252465248108 -0.023382126663646696
    endloop
  endfacet
  facet normal -0.0 -1.0 -0.0
    outer loop
      vertex -0.05247216656093282 -0.08321252465248108 -0.05651360832624615
      vertex -0.07106677442789078 -0.08321252465248108 -0.023382126663646696
      vertex -0.07106677442789078 -0.08321252465248108 -0.026377243347232612
    endloop
  endfacet
  facet normal -0.0 -1.0 -0.0
    outer loop
      vertex -0.03790548234213113 -0.08321252465248108 -0.09883193645272689
      vertex -0.04515924602909094 -0.08321252465248108 -0.06967255362779241
      vertex -0.0451773318757373 -0.08321252465248108 -0.06963376618912992
    endloop
  endfacet
  facet normal -0.0 -1.0 -0.0
    outer loop
      vertex -0.03790548234213113 -0.08321252465248108 -0.09883193645272689
      vertex -0.0451773318757373 -0.08321252465248108 -0.06963376618912992
      vertex -0.04594093899243748 -0.08321252465248108 -0.06816522904497682
    endloop
  endfacet
  facet normal -0.0 -1.0 -0.0
    outer loop
      vertex -0.03790548234213113 -0.08321252465248108 -0.09883193645272689
      vertex -0.04594093899243748 -0.08321252465248108 -0.06816522904497682
      vertex -0.03680091685143118 -0.08321252465248108 -0.10621216893196106
    endloop
  endfacet
  facet normal -0.0 -1.0 -0.0
    outer loop
      vertex -0.03790548234213113 -0.08321252465248108 -0.09883193645272689
      vertex -0.03680091685143118 -0.08321252465248108 -0.10621216893196106
      vertex -0.03628026113064264 -0.08321252465248108 -0.10621216893196106
    endloop
  endfacet
  facet normal -0.0 -1.0 -0.0
    outer loop
      vertex -0.03790548234213106 -0.08321252465248108 -0.09883193645272724
      vertex -0.03628026113064264 -0.08321252465248108 -0.10621216893196106
      vertex -0.0360695565723507 -0.08321252465248108 -0.10621216893196106
    endloop
  endfacet
  facet normal 0.0 -1.0 -0.0
    outer loop
      vertex -0.06930156296074204 -0.08321252465248108 -0.02533245594779713
      vertex -0.07106677442789078 -0.08321252465248108 -0.022061909195569305
      vertex -0.07106677442789078 -0.08321252465248108 -0.023382126663646696
    endloop
  endfacet
  facet normal -0.0 -1.0 -0.0
    outer loop
      vertex -0.045159246029090924 -0.08321252465248108 -0.06967255362779246
      vertex -0.045161156375503435 -0.08321252465248108 -0.0696648742319954
      vertex -0.0451773318757373 -0.08321252465248108 -0.06963376618912992
    endloop
  endfacet
  facet normal -0.0 -1.0 -0.0
    outer loop
      vertex -0.04536921289408828 -0.08321252465248108 -0.06882850845879758
      vertex -0.047085092235846476 -0.08321252465248108 -0.0652444640233088
      vertex -0.049466871783356695 -0.08321252465248108 -0.06138430314995878
    endloop
  endfacet
  facet normal -0.0 -1.0 -0.0
    outer loop
      vertex -0.04536921289408828 -0.08321252465248108 -0.06882850845879758
      vertex -0.049466871783356695 -0.08321252465248108 -0.06138430314995878
      vertex -0.045161156375503456 -0.08321252465248108 -0.06966487423199536
    endloop
  endfacet
  facet normal -0.0 -0.0 -1.0
    outer loop
      vertex -0.06772714424068296 0.043194702794434076 -0.10621216893196106
      vertex -0.07106677442789078 0.044309330144198786 -0.10621216893196106
      vertex -0.07106677442789078 0.056390683715005184 -0.10621216893196106
    endloop
  endfacet
  facet normal -0.0 -0.0 -1.0
    outer loop
      vertex -0.06669237133156626 0.04284933934978831 -0.10621216893196106
      vertex -0.06772714424068296 0.043194702794434076 -0.10621216893196106
      vertex -0.06879860804117222 0.04742840984454313 -0.10621216893196106
    endloop
  endfacet
  facet normal -0.0 -0.0 -1.0
    outer loop
      vertex -0.0564652664007036 0.043878514361868196 -0.10621216893196106
      vertex -0.05398985959780768 0.03860977802249295 -0.10621216893196106
      vertex -0.06669237133156626 0.04284933934978831 -0.10621216893196106
    endloop
  endfacet
  facet normal -0.0 -0.0 -1.0
    outer loop
      vertex -0.0564652664007036 0.043878514361868196 -0.10621216893196106
      vertex -0.06669237133156626 0.04284933934978831 -0.10621216893196106
      vertex -0.06879860804117222 0.04742840984454313 -0.10621216893196106
    endloop
  endfacet
  facet normal -0.0 -0.0 -1.0
    outer loop
      vertex -0.0564652664007036 0.043878514361868196 -0.10621216893196106
      vertex -0.06879860804117222 0.04742840984454313 -0.10621216893196106
      vertex -0.07106677442789078 0.056390683715005184 -0.10621216893196106
    endloop
  endfacet
  facet normal -0.0 -0.0 -1.0
    outer loop
      vertex -0.0564652664007036 0.043878514361868196 -0.10621216893196106
      vertex -0.07106677442789078 0.056390683715005184 -0.10621216893196106
      vertex -0.07106677442789078 0.06744481449652671 -0.10621216893196106
    endloop
  endfacet
  facet normal -0.0 -0.0 -1.0
    outer loop
      vertex -0.04521705307613091 -0.005526810588214456 -0.10621216893196106
      vertex -0.044019825580996624 -0.012809162887782485 -0.10621216893196106
      vertex -0.039236924398389675 -0.056317079179955834 -0.10621216893196106
    endloop
  endfacet
  facet normal -0.0 -0.0 -1.0
    outer loop
      vertex -0.04521705307613091 -0.005526810588214456 -0.10621216893196106
      vertex -0.039236924398389675 -0.056317079179955834 -0.10621216893196106
      vertex -0.036800916851431165 -0.08321252465248108 -0.10621216893196106
    endloop
  endfacet
  facet normal -0.0 -0.0 -1.0
    outer loop
      vertex -0.04521705307613091 -0.005526810588214456 -0.10621216893196106
      vertex -0.036800916851431165 -0.08321252465248108 -0.10621216893196106
      vertex -0.07106677442789078 -0.08321252465248108 -0.10621216893196106
    endloop
  endfacet
  facet normal -0.0 -0.0 -1.0
    outer loop
      vertex -0.04521705307613091 -0.005526810588214456 -0.10621216893196106
      vertex -0.07106677442789078 -0.08321252465248108 -0.10621216893196106
      vertex -0.07106677442789078 0.010843680955004271 -0.10621216893196106
    endloop
  endfacet
  facet normal -0.0 -0.0 -1.0
    outer loop
      vertex -0.037465925898493936 -0.07587030004141856 -0.10621216893196106
      vertex -0.036568892145880966 -0.08058697719271332 -0.10621216893196106
      vertex -0.036280261130642644 -0.08321252465248108 -0.10621216893196106
    endloop
  endfacet
  facet normal -0.0 -0.0 -1.0
    outer loop
      vertex -0.037465925898493936 -0.07587030004141856 -0.10621216893196106
      vertex -0.036280261130642644 -0.08321252465248108 -0.10621216893196106
      vertex -0.036800916851431165 -0.08321252465248108 -0.10621216893196106
    endloop
  endfacet
  facet normal -0.0 0.0 -1.0
    outer loop
      vertex -0.03656889214588095 -0.08058697719271342 -0.10621216893196106
      vertex -0.036069556572350704 -0.08321252465248108 -0.10621216893196106
      vertex -0.036280261130642644 -0.08321252465248108 -0.10621216893196106
    endloop
  endfacet
  facet normal -0.0 -0.0 -1.0
    outer loop
      vertex -0.051751316848513015 0.0338451908376085 -0.10621216893196106
      vertex -0.051656776193599666 0.033643967433234084 -0.10621216893196106
      vertex -0.04521705307613091 -0.005526810588214456 -0.10621216893196106
    endloop
  endfacet
  facet normal -0.0 -0.0 -1.0
    outer loop
      vertex -0.051751316848513015 0.0338451908376085 -0.10621216893196106
      vertex -0.04521705307613091 -0.005526810588214456 -0.10621216893196106
      vertex -0.07106677442789078 0.010843680955004271 -0.10621216893196106
    endloop
  endfacet
  facet normal -0.0 -0.0 -1.0
    outer loop
      vertex -0.051751316848513015 0.0338451908376085 -0.10621216893196106
      vertex -0.07106677442789078 0.010843680955004271 -0.10621216893196106
      vertex -0.07106677442789078 0.044309330144198786 -0.10621216893196106
    endloop
  endfacet
  facet normal -0.0 -0.0 -1.0
    outer loop
      vertex -0.051751316848513015 0.0338451908376085 -0.10621216893196106
      vertex -0.07106677442789078 0.044309330144198786 -0.10621216893196106
      vertex -0.05837917848522162 0.04007474707729744 -0.10621216893196106
    endloop
  endfacet
  facet normal -0.0 -0.0 -1.0
    outer loop
      vertex -0.051751316848513015 0.0338451908376085 -0.10621216893196106
      vertex -0.05837917848522162 0.04007474707729744 -0.10621216893196106
      vertex -0.05398985959780766 0.03860977802249294 -0.10621216893196106
    endloop
  endfacet
  facet normal -0.0 -0.0 -1.0
    outer loop
      vertex -0.0469176079276444 0.017229501223042395 -0.10621216893196106
      vertex -0.04495117960148213 -0.00714403397923382 -0.10621216893196106
      vertex -0.051656776193599666 0.033643967433234084 -0.10621216893196106
    endloop
  endfacet
  facet normal -0.0 -0.0 -1.0
    outer loop
      vertex -0.0469176079276444 0.017229501223042395 -0.10621216893196106
      vertex -0.051656776193599666 0.033643967433234084 -0.10621216893196106
      vertex -0.05025771826485429 0.03066616704040638 -0.10621216893196106
    endloop
  endfacet
  facet normal 0.7462611943342978 0.3506153882453344 0.565829549737658
    outer loop
      vertex -0.05646526640070346 0.043878514361867925 -0.10621216893196106
      vertex -0.06446218352745862 0.036039580740304195 -0.09080781317641613
      vertex -0.053989859597807666 0.03860977802249295 -0.10621216893196106
    endloop
  endfacet
  facet normal 0.7462611943342982 0.35061538824533417 0.5658295497376579
    outer loop
      vertex -0.07106677442789078 0.01733709867970318 -0.07050818777226323
      vertex -0.05025259694081807 -0.0018546438503790341 -0.08606745415625028
      vertex -0.0502577182648543 0.03066616704040638 -0.10621216893196106
    endloop
  endfacet
  facet normal 0.7462611943342982 0.35061538824533417 0.5658295497376579
    outer loop
      vertex -0.07106677442789078 0.01733709867970318 -0.07050818777226323
      vertex -0.0502577182648543 0.03066616704040638 -0.10621216893196106
      vertex -0.053989859597807666 0.03860977802249295 -0.10621216893196106
    endloop
  endfacet
  facet normal 0.7462611943342982 0.35061538824533417 0.5658295497376579
    outer loop
      vertex -0.07106677442789078 0.01733709867970318 -0.07050818777226323
      vertex -0.053989859597807666 0.03860977802249295 -0.10621216893196106
      vertex -0.06446218352745862 0.036039580740304195 -0.09080781317641613
    endloop
  endfacet
  facet normal 0.7462611943342982 0.35061538824533417 0.5658295497376579
    outer loop
      vertex -0.07106677442789078 0.01733709867970318 -0.07050818777226323
      vertex -0.06446218352745862 0.036039580740304195 -0.09080781317641613
      vertex -0.07106677442789078 0.02956546717310772 -0.0780854770264386
    endloop
  endfacet
  facet normal 0.8863120647084809 0.045347169981653994 0.4608628409048016
    outer loop
      vertex -0.07106677442789078 -0.06087879552296988 -0.02204183226725124
      vertex -0.05721886190669511 -0.04482516294223391 -0.05025317323477063
      vertex -0.058039275491626796 -0.042209755020166995 -0.04893273457764735
    endloop
  endfacet
  facet normal 0.8863120647084809 0.045347169981653994 0.4608628409048016
    outer loop
      vertex -0.07106677442789078 -0.06087879552296988 -0.02204183226725124
      vertex -0.058039275491626796 -0.042209755020166995 -0.04893273457764735
      vertex -0.07106677442789078 -0.0537534734697451 -0.0227429371549598
    endloop
  endfacet
  facet normal 0.9642938307995399 0.15853106800258215 0.21214454591129364
    outer loop
      vertex -0.05333873913353315 -0.012644127779822156 -0.0639767788206882
      vertex -0.04982334666166788 -0.012706384304989663 -0.07990931984131483
      vertex -0.05025259694081807 -0.0018546438503790341 -0.08606745415625028
    endloop
  endfacet
  facet normal 0.9040450311010122 0.07076310154509668 0.4215390435075834
    outer loop
      vertex -0.05115255146508328 -0.03373734730650146 -0.0651244553429183
      vertex -0.05333873913353315 -0.012644127779822156 -0.0639767788206882
      vertex -0.058039275491626796 -0.042209755020166995 -0.04893273457764735
    endloop
  endfacet
  facet normal 0.9040450311010122 0.07076310154509668 0.4215390435075834
    outer loop
      vertex -0.05115255146508328 -0.03373734730650146 -0.0651244553429183
      vertex -0.058039275491626796 -0.042209755020166995 -0.04893273457764735
      vertex -0.05721886190669511 -0.04482516294223391 -0.05025317323477063
    endloop
  endfacet
  facet normal 0.7045115764821586 0.36568705402578816 0.6082239859793133
    outer loop
      vertex -0.07106677442789078 -0.014348744978151369 -0.04241734868156847
      vertex -0.05333873913353315 -0.012644127779822156 -0.0639767788206882
      vertex -0.07106677442789078 0.004748219204415063 -0.05389915922133931
    endloop
  endfacet
  facet normal 0.4482867735549715 0.7078644004966188 0.5458634986562448
    outer loop
      vertex -0.07106677442789078 -0.04900277797346935 -0.028604529154736248
      vertex -0.06957271065890669 -0.046728831053198625 -0.032780326044568736
      vertex -0.07106677442789078 -0.04782684748409126 -0.030129451288087243
    endloop
  endfacet
  facet normal 0.7638162045999075 0.5314405107363003 0.36627283429014057
    outer loop
      vertex -0.05333873913353315 -0.012644127779822156 -0.0639767788206882
      vertex -0.05025259694081807 -0.0018546438503790341 -0.08606745415625028
      vertex -0.07106677442789078 0.017337098679703185 -0.07050818777226323
    endloop
  endfacet
  facet normal 0.7638162045999075 0.5314405107363003 0.36627283429014057
    outer loop
      vertex -0.05333873913353315 -0.012644127779822156 -0.0639767788206882
      vertex -0.07106677442789078 0.017337098679703185 -0.07050818777226323
      vertex -0.07106677442789078 0.013708673687851454 -0.06524355482569162
    endloop
  endfacet
  facet normal 0.7465934090477583 0.5220698445199331 0.41236071467754976
    outer loop
      vertex -0.05333873913353315 -0.012644127779822156 -0.0639767788206882
      vertex -0.07106677442789078 0.013708673687851454 -0.06524355482569162
      vertex -0.07106677442789078 0.004748219204415063 -0.05389915922133931
    endloop
  endfacet
  facet normal 0.7293583392948046 0.17962246947756128 0.6601304275367916
    outer loop
      vertex -0.058451382297471204 -0.041523174765303844 -0.04866422961672456
      vertex -0.07106677442789078 -0.02050561567317814 -0.040444769702532114
      vertex -0.07106677442789078 -0.03004732125537011 -0.03784845744633691
    endloop
  endfacet
  facet normal 0.7293583392948046 0.17962246947756128 0.6601304275367916
    outer loop
      vertex -0.058451382297471204 -0.041523174765303844 -0.04866422961672456
      vertex -0.07106677442789078 -0.03004732125537011 -0.03784845744633691
      vertex -0.06855713040485172 -0.041082198085248385 -0.0376186815969422
    endloop
  endfacet
  facet normal 0.7293583392948046 0.17962246947756128 0.6601304275367916
    outer loop
      vertex -0.058451382297471204 -0.041523174765303844 -0.04866422961672456
      vertex -0.06855713040485172 -0.041082198085248385 -0.0376186815969422
      vertex -0.06492916473203252 -0.043316199121979725 -0.04101923721666895
    endloop
  endfacet
  facet normal 0.9710208651230141 0.1067460186542732 0.21383116470059918
    outer loop
      vertex -0.04982334666166788 -0.012706384304989663 -0.07990931984131484
      vertex -0.05333873913353315 -0.012644127779822156 -0.0639767788206882
      vertex -0.05018598610464591 -0.022408121449663528 -0.07341937586230896
    endloop
  endfacet
  facet normal 0.9685876098759216 0.08772811478280046 0.2326839484612233
    outer loop
      vertex -0.05018598610464591 -0.022408121449663525 -0.07341937586230896
      vertex -0.05333873913353315 -0.012644127779822156 -0.0639767788206882
      vertex -0.05118280880569365 -0.033445412292413434 -0.06510857123564573
    endloop
  endfacet
  facet normal 0.9685876098759216 0.08772811478280046 0.2326839484612233
    outer loop
      vertex -0.05018598610464591 -0.022408121449663525 -0.07341937586230896
      vertex -0.05118280880569365 -0.033445412292413434 -0.06510857123564573
      vertex -0.05110286654342812 -0.033154984517444086 -0.06555084396908964
    endloop
  endfacet
  facet normal 0.563997490073468 0.1451960327199398 0.8129113993992325
    outer loop
      vertex -0.06855713040485173 -0.04108219808524834 -0.0376186815969422
      vertex -0.07106677442789078 -0.030047321255370123 -0.03784845744633691
      vertex -0.07106677442789078 -0.03752527962104352 -0.036512801570010064
    endloop
  endfacet
  facet normal 0.7485190713339879 0.20232228311194259 0.6314941754328978
    outer loop
      vertex -0.05333873913353315 -0.012644127779822156 -0.0639767788206882
      vertex -0.07106677442789078 -0.014348744978151369 -0.04241734868156847
      vertex -0.07106677442789078 -0.020505615673178143 -0.040444769702532114
    endloop
  endfacet
  facet normal 0.7485190713339879 0.20232228311194259 0.6314941754328978
    outer loop
      vertex -0.05333873913353315 -0.012644127779822156 -0.0639767788206882
      vertex -0.07106677442789078 -0.020505615673178143 -0.040444769702532114
      vertex -0.0584513822974712 -0.041523174765303865 -0.048664229616724564
    endloop
  endfacet
  facet normal 0.7485190713339879 0.20232228311194259 0.6314941754328978
    outer loop
      vertex -0.05333873913353315 -0.012644127779822156 -0.0639767788206882
      vertex -0.0584513822974712 -0.041523174765303865 -0.048664229616724564
      vertex -0.057897269649477855 -0.04131656082378606 -0.04938722359960342
    endloop
  endfacet
  facet normal 0.7293583392948058 0.1796224694775569 0.6601304275367915
    outer loop
      vertex -0.058039275491626796 -0.042209755020166995 -0.04893273457764735
      vertex -0.058451382297471204 -0.041523174765303844 -0.04866422961672456
      vertex -0.06492916473203252 -0.043316199121979725 -0.04101923721666895
    endloop
  endfacet
  facet normal 0.7293583392948058 0.1796224694775569 0.6601304275367915
    outer loop
      vertex -0.058039275491626796 -0.042209755020166995 -0.04893273457764735
      vertex -0.06492916473203252 -0.043316199121979725 -0.04101923721666895
      vertex -0.06463426575084562 -0.04349778976784452 -0.0412956511847613
    endloop
  endfacet
  facet normal 0.5000384853218167 0.6727822420892758 0.5452756806665693
    outer loop
      vertex -0.07106677442789078 -0.0537534734697451 -0.0227429371549598
      vertex -0.058039275491626796 -0.042209755020166995 -0.04893273457764735
      vertex -0.06463426575084562 -0.04349778976784452 -0.0412956511847613
    endloop
  endfacet
  facet normal 0.5000384853218167 0.6727822420892758 0.5452756806665693
    outer loop
      vertex -0.07106677442789078 -0.0537534734697451 -0.0227429371549598
      vertex -0.06463426575084562 -0.04349778976784452 -0.0412956511847613
      vertex -0.06957271065890672 -0.04672883105319866 -0.032780326044568674
    endloop
  endfacet
  facet normal 0.5000384853218167 0.6727822420892758 0.5452756806665693
    outer loop
      vertex -0.07106677442789078 -0.0537534734697451 -0.0227429371549598
      vertex -0.06957271065890672 -0.04672883105319866 -0.032780326044568674
      vertex -0.07106677442789078 -0.049002777973469344 -0.028604529154736262
    endloop
  endfacet
  facet normal 0.9685876098759212 0.08772811478280422 0.23268394846122403
    outer loop
      vertex -0.05118280880569365 -0.033445412292413434 -0.06510857123564573
      vertex -0.051152551465083275 -0.033737347306501506 -0.0651244553429183
      vertex -0.05110286654342812 -0.033154984517444086 -0.06555084396908964
    endloop
  endfacet
  facet normal 0.7485190713339878 0.2023222831119425 0.631494175432898
    outer loop
      vertex -0.0584513822974712 -0.041523174765303865 -0.048664229616724564
      vertex -0.058039275491626796 -0.042209755020166995 -0.04893273457764735
      vertex -0.057897269649477855 -0.04131656082378606 -0.04938722359960342
    endloop
  endfacet
  facet normal 0.6933470289526165 0.42959277234991156 0.5785498659470045
    outer loop
      vertex -0.07106677442789078 0.03475047734332132 -0.08193552181045828
      vertex -0.06446218352745864 0.036039580740304195 -0.09080781317641612
      vertex -0.056465266400703464 0.04387851436186793 -0.10621216893196106
    endloop
  endfacet
  facet normal 0.6933470289526165 0.42959277234991156 0.5785498659470045
    outer loop
      vertex -0.07106677442789078 0.03475047734332132 -0.08193552181045828
      vertex -0.056465266400703464 0.04387851436186793 -0.10621216893196106
      vertex -0.07106677442789078 0.06744481449652663 -0.10621216893196106
    endloop
  endfacet
  facet normal 0.6933470289526166 0.4295927723499113 0.5785498659470045
    outer loop
      vertex -0.07106677442789078 0.029565467173107728 -0.07808547702643862
      vertex -0.06446218352745864 0.036039580740304195 -0.09080781317641612
      vertex -0.07106677442789078 0.03475047734332132 -0.08193552181045828
    endloop
  endfacet
  facet normal 0.886312064708481 0.04534716998165355 0.4608628409048016
    outer loop
      vertex -0.07106677442789078 -0.06475084488428363 -0.02166083717504523
      vertex -0.04644289380654598 -0.07917802210340597 -0.06759687049759577
      vertex -0.05721886190669511 -0.04482516294223391 -0.05025317323477063
    endloop
  endfacet
  facet normal 0.886312064708481 0.04534716998165355 0.4608628409048016
    outer loop
      vertex -0.07106677442789078 -0.06475084488428363 -0.02166083717504523
      vertex -0.05721886190669511 -0.04482516294223391 -0.05025317323477063
      vertex -0.07106677442789078 -0.06087879552296988 -0.022041832267251236
    endloop
  endfacet
  facet normal 0.8967258589290824 0.10758214803195289 0.42931202563255827
    outer loop
      vertex -0.04536921289408829 -0.08321252465248108 -0.06882850845879757
      vertex -0.04644289380654598 -0.07917802210340597 -0.06759687049759577
      vertex -0.047085092235846504 -0.08321252465248108 -0.06524446402330875
    endloop
  endfacet
  facet normal 0.9543077175865976 0.18149349756093378 0.2373960625152789
    outer loop
      vertex -0.04644289380654598 -0.07917802210340597 -0.06759687049759577
      vertex -0.04536921289408829 -0.08321252465248108 -0.06882850845879757
      vertex -0.04516115637550347 -0.08321252465248108 -0.06966487423199531
    endloop
  endfacet
  facet normal 0.8389026025764824 0.16827385935267353 0.5176160079141304
    outer loop
      vertex -0.04644289380654598 -0.07917802210340597 -0.06759687049759577
      vertex -0.04946687178335666 -0.08321252465248108 -0.06138430314995883
      vertex -0.047085092235846504 -0.08321252465248108 -0.06524446402330875
    endloop
  endfacet
  facet normal 0.96429383079954 0.15853106800258157 0.2121445459112936
    outer loop
      vertex -0.04982334666166788 -0.012706384304989663 -0.07990931984131483
      vertex -0.044019825580996624 -0.012809162887782513 -0.10621216893196106
      vertex -0.04495117960148212 -0.007144033979233889 -0.10621216893196106
    endloop
  endfacet
  facet normal 0.96429383079954 0.15853106800258157 0.2121445459112936
    outer loop
      vertex -0.04982334666166788 -0.012706384304989663 -0.07990931984131483
      vertex -0.04495117960148212 -0.007144033979233889 -0.10621216893196106
      vertex -0.05025259694081807 -0.0018546438503790341 -0.08606745415625028
    endloop
  endfacet
  facet normal 0.9043828469086462 0.2248130999768728 0.3626992366909543
    outer loop
      vertex -0.0502577182648543 0.030666167040406367 -0.10621216893196106
      vertex -0.05025259694081807 -0.0018546438503790341 -0.08606745415625028
      vertex -0.04691760792764439 0.017229501223042315 -0.10621216893196106
    endloop
  endfacet
  facet normal 0.9689736997437622 0.07817566531359983 0.23447501904821644
    outer loop
      vertex -0.05025259694081807 -0.0018546438503790341 -0.08606745415625028
      vertex -0.04495117960148212 -0.007144033979233889 -0.10621216893196106
      vertex -0.04691760792764439 0.01722950122304231 -0.10621216893196106
    endloop
  endfacet
  facet normal 0.9040450311010121 0.07076310154509687 0.4215390435075835
    outer loop
      vertex -0.04644289380654598 -0.07917802210340597 -0.06759687049759577
      vertex -0.05115255146508328 -0.03373734730650146 -0.0651244553429183
      vertex -0.05721886190669511 -0.04482516294223391 -0.05025317323477063
    endloop
  endfacet
  facet normal 0.9543077175865109 0.1814934975606028 0.23739606251588025
    outer loop
      vertex -0.04644289380654598 -0.07917802210340597 -0.06759687049759577
      vertex -0.04516115637550347 -0.08321252465248108 -0.06966487423199531
      vertex -0.045159246029090945 -0.08321252465248108 -0.06967255362779243
    endloop
  endfacet
  facet normal 0.448286773554971 0.7078644004966191 0.5458634986562447
    outer loop
      vertex -0.06786428562147506 -0.044128628884436694 -0.037555246704528145
      vertex -0.07106677442789078 -0.04376362281239505 -0.035398556299493386
      vertex -0.07106677442789078 -0.04782684748409126 -0.030129451288087243
    endloop
  endfacet
  facet normal 0.448286773554971 0.7078644004966191 0.5458634986562447
    outer loop
      vertex -0.06786428562147506 -0.044128628884436694 -0.037555246704528145
      vertex -0.07106677442789078 -0.04782684748409126 -0.030129451288087243
      vertex -0.06957271065890669 -0.046728831053198625 -0.032780326044568736
    endloop
  endfacet
  facet normal 0.7293583392948051 0.17962246947756116 0.6601304275367913
    outer loop
      vertex -0.06855713040485172 -0.041082198085248385 -0.0376186815969422
      vertex -0.06786428562147506 -0.044128628884436694 -0.037555246704528145
      vertex -0.06492916473203252 -0.043316199121979725 -0.04101923721666895
    endloop
  endfacet
  facet normal 0.971020865123014 0.1067460186542734 0.2138311647005996
    outer loop
      vertex -0.04628562971575269 -0.01276903618976258 -0.09594304034656824
      vertex -0.04982334666166788 -0.012706384304989663 -0.07990931984131484
      vertex -0.05018598610464591 -0.022408121449663528 -0.07341937586230896
    endloop
  endfacet
  facet normal 0.971020865123014 0.1067460186542734 0.2138311647005996
    outer loop
      vertex -0.04628562971575269 -0.01276903618976258 -0.09594304034656824
      vertex -0.05018598610464591 -0.022408121449663528 -0.07341937586230896
      vertex -0.04908406523175816 -0.025820741572128214 -0.07671966442887089
    endloop
  endfacet
  facet normal 0.9685876098759219 0.08772811478280029 0.23268394846122262
    outer loop
      vertex -0.04908406523175816 -0.02582074157212822 -0.0767196644288709
      vertex -0.05018598610464591 -0.022408121449663525 -0.07341937586230896
      vertex -0.05110286654342811 -0.03315498451744407 -0.06555084396908965
    endloop
  endfacet
  facet normal 0.5639974900734678 0.14519603271993967 0.8129113993992328
    outer loop
      vertex -0.07106677442789078 -0.04376362281239505 -0.035398556299493386
      vertex -0.06786428562147506 -0.044128628884436694 -0.037555246704528145
      vertex -0.06855713040485173 -0.04108219808524834 -0.0376186815969422
    endloop
  endfacet
  facet normal 0.5639974900734678 0.14519603271993967 0.8129113993992328
    outer loop
      vertex -0.07106677442789078 -0.04376362281239505 -0.035398556299493386
      vertex -0.06855713040485173 -0.04108219808524834 -0.0376186815969422
      vertex -0.07106677442789078 -0.03752527962104352 -0.036512801570010064
    endloop
  endfacet
  facet normal 0.7293583392948048 0.1796224694775617 0.6601304275367914
    outer loop
      vertex -0.06786428562147506 -0.044128628884436694 -0.037555246704528145
      vertex -0.06463426575084562 -0.04349778976784452 -0.0412956511847613
      vertex -0.06492916473203252 -0.043316199121979725 -0.04101923721666895
    endloop
  endfacet
  facet normal 0.8799579553879611 -0.010317855768330454 0.47493951046610466
    outer loop
      vertex -0.06373603084243365 -0.06904594111552739 -0.03533639411909289
      vertex -0.07106677442789078 -0.06475084488428363 -0.021660837175045224
      vertex -0.07106677442789078 -0.08321252465248108 -0.02206190919556932
    endloop
  endfacet
  facet normal 0.8799579553879611 -0.010317855768330454 0.47493951046610466
    outer loop
      vertex -0.06373603084243365 -0.06904594111552739 -0.03533639411909289
      vertex -0.07106677442789078 -0.08321252465248108 -0.02206190919556932
      vertex -0.06930156296074204 -0.08321252465248108 -0.025332455947797143
    endloop
  endfacet
  facet normal 0.5000384853218168 0.6727822420892758 0.5452756806665693
    outer loop
      vertex -0.06463426575084562 -0.04349778976784452 -0.0412956511847613
      vertex -0.06786428562147506 -0.044128628884436694 -0.037555246704528145
      vertex -0.06957271065890672 -0.04672883105319866 -0.032780326044568674
    endloop
  endfacet
  facet normal 0.9710208651230141 0.1067460186542732 0.21383116470059946
    outer loop
      vertex -0.044019825580996624 -0.012809162887782511 -0.10621216893196106
      vertex -0.04628562971575269 -0.01276903618976258 -0.09594304034656824
      vertex -0.04908406523175816 -0.025820741572128214 -0.07671966442887089
    endloop
  endfacet
  facet normal 0.9710208651230141 0.1067460186542732 0.21383116470059946
    outer loop
      vertex -0.044019825580996624 -0.012809162887782511 -0.10621216893196106
      vertex -0.04908406523175816 -0.025820741572128214 -0.07671966442887089
      vertex -0.03923692439838969 -0.05631707917995578 -0.10621216893196106
    endloop
  endfacet
  facet normal 0.9543077175865967 0.18149349756093455 0.2373960625152814
    outer loop
      vertex -0.036568892145880966 -0.08058697719271339 -0.10621216893196106
      vertex -0.037905482342131244 -0.08321252465248108 -0.09883193645272645
      vertex -0.0360695565723507 -0.08321252465248108 -0.10621216893196106
    endloop
  endfacet
  facet normal 0.9685876098759217 0.08772811478280033 0.23268394846122306
    outer loop
      vertex -0.04644289380654598 -0.07917802210340597 -0.06759687049759577
      vertex -0.03746592589849396 -0.07587030004141852 -0.10621216893196106
      vertex -0.03923692439838969 -0.05631707917995578 -0.10621216893196106
    endloop
  endfacet
  facet normal 0.9685876098759217 0.08772811478280033 0.23268394846122306
    outer loop
      vertex -0.04644289380654598 -0.07917802210340597 -0.06759687049759577
      vertex -0.03923692439838969 -0.05631707917995578 -0.10621216893196106
      vertex -0.04908406523175816 -0.02582074157212822 -0.0767196644288709
    endloop
  endfacet
  facet normal 0.9685876098759217 0.08772811478280033 0.23268394846122306
    outer loop
      vertex -0.04644289380654598 -0.07917802210340597 -0.06759687049759577
      vertex -0.04908406523175816 -0.02582074157212822 -0.0767196644288709
      vertex -0.05110286654342811 -0.03315498451744407 -0.06555084396908965
    endloop
  endfacet
  facet normal 0.9685876098759217 0.08772811478280033 0.23268394846122306
    outer loop
      vertex -0.04644289380654598 -0.07917802210340597 -0.06759687049759577
      vertex -0.05110286654342811 -0.03315498451744407 -0.06555084396908965
      vertex -0.051152551465083275 -0.033737347306501506 -0.0651244553429183
    endloop
  endfacet
  facet normal 0.954307717586597 0.1814934975609334 0.23739606251528123
    outer loop
      vertex -0.03746592589849396 -0.07587030004141852 -0.10621216893196106
      vertex -0.04644289380654598 -0.07917802210340597 -0.06759687049759577
      vertex -0.045159246029090945 -0.08321252465248108 -0.06967255362779243
    endloop
  endfacet
  facet normal 0.954307717586597 0.1814934975609334 0.23739606251528123
    outer loop
      vertex -0.03746592589849396 -0.07587030004141852 -0.10621216893196106
      vertex -0.045159246029090945 -0.08321252465248108 -0.06967255362779243
      vertex -0.037905482342131244 -0.08321252465248108 -0.09883193645272645
    endloop
  endfacet
  facet normal 0.954307717586597 0.1814934975609334 0.23739606251528123
    outer loop
      vertex -0.03746592589849396 -0.07587030004141852 -0.10621216893196106
      vertex -0.037905482342131244 -0.08321252465248108 -0.09883193645272645
      vertex -0.036568892145880966 -0.08058697719271339 -0.10621216893196106
    endloop
  endfacet
  facet normal 0.8389026025764833 0.16827385935267114 0.5176160079141298
    outer loop
      vertex -0.04644289380654598 -0.07917802210340597 -0.06759687049759577
      vertex -0.052472166560932884 -0.08321252465248108 -0.05651360832624609
      vertex -0.04946687178335666 -0.08321252465248108 -0.06138430314995884
    endloop
  endfacet
  facet normal 0.8799579553879608 -0.01031785576833041 0.4749395104661051
    outer loop
      vertex -0.04644289380654598 -0.07917802210340597 -0.06759687049759577
      vertex -0.06373603084243365 -0.06904594111552739 -0.03533639411909289
      vertex -0.06930156296074204 -0.08321252465248108 -0.025332455947797143
    endloop
  endfacet
  facet normal 0.8799579553879608 -0.01031785576833041 0.4749395104661051
    outer loop
      vertex -0.04644289380654598 -0.07917802210340597 -0.06759687049759577
      vertex -0.06930156296074204 -0.08321252465248108 -0.025332455947797143
      vertex -0.052472166560932884 -0.08321252465248108 -0.05651360832624609
    endloop
  endfacet
endsolid v3d.csg
