solid v3d.csg
  facet normal 0.0 1.0 -0.0
    outer loop
      vertex 0.005514769979945759 0.08321252465248108 0.10602908766313798
      vertex 0.0047530832045367035 0.08321252465248108 0.10621216893196106
      vertex 0.0060009713552984 0.08321252465248108 0.10621216893196106
    endloop
  endfacet
  facet normal 0.0 1.0 -0.0
    outer loop
      vertex -0.025557936851948865 0.08321252465248108 0.10575622062409609
      vertex -0.03145940946684349 0.08321252465248108 0.10621216893196106
      vertex -0.022681521234558365 0.08321252465248108 0.10621216893196106
    endloop
  endfacet
  facet normal 0.0 1.0 -0.0
    outer loop
      vertex 0.005515877759643413 0.08321252465248108 0.10602882139396339
      vertex 0.005514769979953539 0.08321252465248108 0.10602908766314091
      vertex 0.0060009713552984 0.08321252465248108 0.10621216893196106
    endloop
  endfacet
  facet normal 0.0 1.0 -0.0
    outer loop
      vertex 0.005515877759643413 0.08321252465248108 0.10602882139396339
      vertex 0.0060009713552984 0.08321252465248108 0.10621216893196106
      vertex 0.006002788858016528 0.08321252465248108 0.10621216893196106
    endloop
  endfacet
  facet normal 0.0 1.0 -0.0
    outer loop
      vertex 0.013050771308636001 0.08321252465248108 0.1044243290489931
      vertex 0.012383639239916776 0.08321252465248108 0.1043780660882656
      vertex 0.005515877759635716 0.08321252465248108 0.10602882139396048
    endloop
  endfacet
  facet normal 0.0 1.0 -0.0
    outer loop
      vertex 0.013050771308636001 0.08321252465248108 0.1044243290489931
      vertex 0.005515877759635716 0.08321252465248108 0.10602882139396048
      vertex 0.006002788858016528 0.08321252465248108 0.10621216893196106
    endloop
  endfacet
  facet normal 0.0 1.0 -0.0
    outer loop
      vertex 0.013050771308636001 0.08321252465248108 0.1044243290489931
      vertex 0.006002788858016528 0.08321252465248108 0.10621216893196106
      vertex 0.0192356261271431 0.08321252465248108 0.10621216893196106
    endloop
  endfacet
  facet normal 0.0 1.0 -0.0
    outer loop
      vertex 0.02488833932590098 0.08321252465248108 0.10524521740074513
      vertex 0.013050771308636062 0.08321252465248108 0.10442432904899311
      vertex 0.0192356261271431 0.08321252465248108 0.10621216893196106
    endloop
  endfacet
  facet normal 0.0 1.0 -0.0
    outer loop
      vertex 0.02488833932590098 0.08321252465248108 0.10524521740074513
      vertex 0.0192356261271431 0.08321252465248108 0.10621216893196106
      vertex 0.027334249412046693 0.08321252465248108 0.10621216893196106
    endloop
  endfacet
  facet normal -0.0 -0.0 1.0
    outer loop
      vertex 0.005469450257360129 0.08294084263578087 0.10621216893196106
      vertex 0.0060009713552982985 0.08321252465248108 0.10621216893196106
      vertex 0.004753083204536622 0.08321252465248108 0.10621216893196106
    endloop
  endfacet
  facet normal -0.0 -0.0 1.0
    outer loop
      vertex -0.025035411787951142 0.08257385401935785 0.10621216893196106
      vertex -0.022681521234558275 0.08321252465248108 0.10621216893196106
      vertex -0.031459409466843447 0.08321252465248108 0.10621216893196106
    endloop
  endfacet
  facet normal -0.0 0.0 1.0
    outer loop
      vertex 0.005469450257368363 0.08294084263578508 0.10621216893196106
      vertex 0.0054704936145440084 0.08294044694285016 0.10621216893196106
      vertex 0.006002788858016514 0.08321252465248108 0.10621216893196106
    endloop
  endfacet
  facet normal -0.0 0.0 1.0
    outer loop
      vertex 0.005469450257368363 0.08294084263578508 0.10621216893196106
      vertex 0.006002788858016514 0.08321252465248108 0.10621216893196106
      vertex 0.0060009713552982985 0.08321252465248108 0.10621216893196106
    endloop
  endfacet
  facet normal -0.0 -0.0 1.0
    outer loop
      vertex 0.005470493614535769 0.08294044694284594 0.10621216893196106
      vertex 0.011089968005694695 0.08080926275539894 0.10621216893196106
      vertex 0.01511579119132448 0.08115801287543503 0.10621216893196106
    endloop
  endfacet
  facet normal -0.0 -0.0 1.0
    outer loop
      vertex 0.005470493614535769 0.08294044694284594 0.10621216893196106
      vertex 0.01511579119132448 0.08115801287543503 0.10621216893196106
      vertex 0.019235626127143066 0.08321252465248108 0.10621216893196106
    endloop
  endfacet
  facet normal -0.0 -0.0 1.0
    outer loop
      vertex 0.005470493614535769 0.08294044694284594 0.10621216893196106
      vertex 0.019235626127143066 0.08321252465248108 0.10621216893196106
      vertex 0.006002788858016514 0.08321252465248108 0.10621216893196106
    endloop
  endfacet
  facet normal -0.0 -0.0 1.0
    outer loop
      vertex 0.015115791191324564 0.08115801287543506 0.10621216893196106
      vertex 0.025103756031578557 0.0820232530452936 0.10621216893196106
      vertex 0.027334249412046714 0.08321252465248108 0.10621216893196106
    endloop
  endfacet
  facet normal -0.0 -0.0 1.0
    outer loop
      vertex 0.015115791191324564 0.08115801287543506 0.10621216893196106
      vertex 0.027334249412046714 0.08321252465248108 0.10621216893196106
      vertex 0.019235626127143066 0.08321252465248108 0.10621216893196106
    endloop
  endfacet
  facet normal -0.1989626985076694 -0.5246218490383311 -0.8277594820442403
    outer loop
      vertex 0.004753083204536721 0.08321252465248108 0.10621216893196106
      vertex 0.005514769979945725 0.08321252465248108 0.106029087663138
      vertex 0.005469450257360132 0.08294084263578086 0.10621216893196106
    endloop
  endfacet
  facet normal -0.19896269850367962 -0.5246218490392591 -0.8277594820446111
    outer loop
      vertex 0.0054694502573601304 0.08294084263578085 0.10621216893196106
      vertex 0.005514769979945727 0.08321252465248108 0.10602908766313798
      vertex 0.0055158777596356874 0.08321252465248108 0.10602882139396047
    endloop
  endfacet
  facet normal -0.19896269850367962 -0.5246218490392591 -0.8277594820446111
    outer loop
      vertex 0.0054694502573601304 0.08294084263578085 0.10621216893196106
      vertex 0.0055158777596356874 0.08321252465248108 0.10602882139396047
      vertex 0.0054704936145357624 0.08294044694284593 0.10621216893196106
    endloop
  endfacet
  facet normal -0.19896269850766907 -0.5246218490383406 -0.8277594820442342
    outer loop
      vertex 0.01238363923991689 0.08321252465248108 0.10437806608826558
      vertex 0.01108996800569467 0.08080926275539893 0.10621216893196106
      vertex 0.0054704936145357624 0.08294044694284593 0.10621216893196106
    endloop
  endfacet
  facet normal -0.19896269850766907 -0.5246218490383406 -0.8277594820442342
    outer loop
      vertex 0.01238363923991689 0.08321252465248108 0.10437806608826558
      vertex 0.0054704936145357624 0.08294044694284593 0.10621216893196106
      vertex 0.005515877759635687 0.08321252465248108 0.10602882139396047
    endloop
  endfacet
  facet normal 0.13560308952925829 -0.499780035122134 -0.8554716351834457
    outer loop
      vertex -0.025035411787951198 0.08257385401935785 0.10621216893196106
      vertex -0.02555793685194893 0.08321252465248108 0.10575622062409609
      vertex -0.022681521234558372 0.08321252465248108 0.10621216893196106
    endloop
  endfacet
  facet normal -0.060891897090005316 -0.6124743886479425 -0.7881416751568905
    outer loop
      vertex -0.025557936851948928 0.08321252465248108 0.10575622062409609
      vertex -0.02503541178795119 0.08257385401935785 0.10621216893196106
      vertex -0.0314594094668435 0.08321252465248108 0.10621216893196106
    endloop
  endfacet
  facet normal 0.054057757893138644 -0.6240197854750955 -0.779536443116794
    outer loop
      vertex 0.011089968005694673 0.08080926275539893 0.10621216893196106
      vertex 0.01238363923991689 0.08321252465248108 0.10437806608826558
      vertex 0.013050771308635856 0.08321252465248108 0.10442432904899307
    endloop
  endfacet
  facet normal 0.054057757893138644 -0.6240197854750955 -0.779536443116794
    outer loop
      vertex 0.011089968005694673 0.08080926275539893 0.10621216893196106
      vertex 0.013050771308635856 0.08321252465248108 0.10442432904899307
      vertex 0.015115791191324468 0.08115801287543503 0.10621216893196106
    endloop
  endfacet
  facet normal 0.054057757893132614 -0.6240197854750965 -0.7795364431167937
    outer loop
      vertex 0.02488833932590079 0.08321252465248108 0.1052452174007451
      vertex 0.02510375603157837 0.08202325304529358 0.10621216893196106
      vertex 0.015115791191324467 0.08115801287543503 0.10621216893196106
    endloop
  endfacet
  facet normal 0.054057757893132614 -0.6240197854750965 -0.7795364431167937
    outer loop
      vertex 0.02488833932590079 0.08321252465248108 0.1052452174007451
      vertex 0.015115791191324467 0.08115801287543503 0.10621216893196106
      vertex 0.013050771308635856 0.08321252465248108 0.10442432904899307
    endloop
  endfacet
  facet normal 0.30266991862843307 -0.5676611178535603 -0.7656054960844416
    outer loop
      vertex 0.02510375603157837 0.08202325304529355 0.10621216893196106
      vertex 0.024888339325900788 0.08321252465248108 0.10524521740074509
      vertex 0.027334249412046582 0.08321252465248108 0.10621216893196106
    endloop
  endfacet
endsolid v3d.csg
