solid v3d.csg
  facet normal -1.0 -0.0 0.0
    outer loop
      vertex -0.07106677442789078 0.080825793868124 0.10076292876418509
      vertex -0.07106677442789078 0.06013706620015231 0.10433826358292608
      vertex -0.07106677442789078 0.05543590010055412 0.10621216893196106
    endloop
  endfacet
  facet normal -1.0 -0.0 0.0
    outer loop
      vertex -0.07106677442789078 0.080825793868124 0.10076292876418509
      vertex -0.07106677442789078 0.05543590010055412 0.10621216893196106
      vertex -0.07106677442789078 0.08321252465248108 0.10621216893196106
    endloop
  endfacet
  facet normal -1.0 -0.0 0.0
    outer loop
      vertex -0.07106677442789078 0.080825793868124 0.10076292876418509
      vertex -0.07106677442789078 0.08321252465248108 0.10621216893196106
      vertex -0.07106677442789078 0.08321252465248108 0.10122923404609216
    endloop
  endfacet
  facet normal -1.0 -0.0 -0.0
    outer loop
      vertex -0.07106677442789078 0.06013706620015231 0.10433826358292608
      vertex -0.07106677442789078 0.059825634384493266 0.10439208385800822
      vertex -0.07106677442789078 0.05509812257555243 0.10621216893196106
    endloop
  endfacet
  facet normal -1.0 -0.0 -0.0
    outer loop
      vertex -0.07106677442789078 0.06013706620015231 0.10433826358292608
      vertex -0.07106677442789078 0.05509812257555243 0.10621216893196106
      vertex -0.07106677442789078 0.05543590010055412 0.10621216893196106
    endloop
  endfacet
  facet normal -1.0 -0.0 -0.0
    outer loop
      vertex -0.07106677442789078 0.07296139643848652 0.09922642951404276
      vertex -0.07106677442789078 0.06013706620015227 0.1043382635829261
      vertex -0.07106677442789078 0.08082579386812401 0.10076292876418509
    endloop
  endfacet
  facet normal -1.0 -0.0 -0.0
    outer loop
      vertex -0.07106677442789078 0.06499384045188891 0.10240233214451926
      vertex -0.07106677442789078 0.05982563438449324 0.10439208385800823
      vertex -0.07106677442789078 0.06013706620015227 0.1043382635829261
    endloop
  endfacet
  facet normal 0.0 1.0 -0.0
    outer loop
      vertex -0.015733948476944606 0.08321252465248108 0.08751700382630023
      vertex -0.029075050949618847 0.08321252465248108 0.08626502876552915
      vertex -0.03889773729032482 0.08321252465248108 0.08699882968257634
    endloop
  endfacet
  facet normal 0.0 1.0 -0.0
    outer loop
      vertex -0.015733948476944606 0.08321252465248108 0.08751700382630023
      vertex -0.03889773729032482 0.08321252465248108 0.08699882968257634
      vertex -0.06377509740979632 0.08321252465248108 0.09732408203949695
    endloop
  endfacet
  facet normal 0.0 1.0 -0.0
    outer loop
      vertex -0.015733948476944606 0.08321252465248108 0.08751700382630023
      vertex -0.06377509740979632 0.08321252465248108 0.09732408203949695
      vertex -0.07106677442789078 0.08321252465248108 0.10122923404609216
    endloop
  endfacet
  facet normal 0.0 1.0 -0.0
    outer loop
      vertex -0.015733948476944606 0.08321252465248108 0.08751700382630023
      vertex -0.07106677442789078 0.08321252465248108 0.10122923404609216
      vertex -0.07106677442789078 0.08321252465248108 0.10621216893196106
    endloop
  endfacet
  facet normal 0.0 1.0 -0.0
    outer loop
      vertex -0.015733948476944606 0.08321252465248108 0.08751700382630023
      vertex -0.07106677442789078 0.08321252465248108 0.10621216893196106
      vertex 0.010680143792766009 0.08321252465248108 0.10621216893196106
    endloop
  endfacet
  facet normal -0.0 1.0 -0.0
    outer loop
      vertex -0.029075050949618847 0.08321252465248108 0.08626502876552915
      vertex -0.03564438783187669 0.08321252465248108 0.0856485395391525
      vertex -0.03889773729032482 0.08321252465248108 0.08699882968257634
    endloop
  endfacet
  facet normal 0.0 1.0 -0.0
    outer loop
      vertex 0.02016525806903656 0.08321252465248108 0.090885909161455
      vertex -0.015733948476944606 0.08321252465248108 0.08751700382630023
      vertex 0.010680143792766009 0.08321252465248108 0.10621216893196106
    endloop
  endfacet
  facet normal 0.0 1.0 -0.0
    outer loop
      vertex 0.02016525806903656 0.08321252465248108 0.090885909161455
      vertex 0.010680143792766009 0.08321252465248108 0.10621216893196106
      vertex 0.04651059737475316 0.08321252465248108 0.10621216893196106
    endloop
  endfacet
  facet normal -0.0 1.0 -0.0
    outer loop
      vertex -0.0637750974097963 0.08321252465248108 0.09732408203949694
      vertex -0.03564438783187669 0.08321252465248108 0.0856485395391525
      vertex -0.04103076961483776 0.08321252465248108 0.08514306289853217
    endloop
  endfacet
  facet normal -0.0 1.0 -0.0
    outer loop
      vertex -0.05272112783571218 0.08321252465248108 0.09140398555744542
      vertex -0.04103076961483776 0.08321252465248108 0.08514306289853217
      vertex -0.04110592430844086 0.08321252465248108 0.08513601012292508
    endloop
  endfacet
  facet normal 0.0 1.0 -0.0
    outer loop
      vertex 0.031357827495331565 0.08321252465248108 0.09193625847226886
      vertex 0.02016525806903656 0.08321252465248108 0.090885909161455
      vertex 0.04651059737475316 0.08321252465248108 0.10621216893196106
    endloop
  endfacet
  facet normal 0.0 1.0 -0.0
    outer loop
      vertex 0.031357827495331565 0.08321252465248108 0.09193625847226886
      vertex 0.04651059737475316 0.08321252465248108 0.10621216893196106
      vertex 0.050823827085634876 0.08321252465248108 0.10621216893196106
    endloop
  endfacet
  facet normal 0.0 1.0 -0.0
    outer loop
      vertex 0.03776150696304193 0.08321252465248108 0.09253720183562031
      vertex 0.031357827495331565 0.08321252465248108 0.09193625847226886
      vertex 0.050823827085634876 0.08321252465248108 0.10621216893196106
    endloop
  endfacet
  facet normal 0.0 1.0 -0.0
    outer loop
      vertex 0.03776150696304193 0.08321252465248108 0.09253720183562031
      vertex 0.050823827085634876 0.08321252465248108 0.10621216893196106
      vertex 0.05535221514895841 0.08321252465248108 0.10621216893196106
    endloop
  endfacet
  facet normal -0.0 1.0 -0.0
    outer loop
      vertex 0.037906220929288664 0.08321252465248108 0.09255078229323671
      vertex 0.03776150696304193 0.08321252465248108 0.09253720183562031
      vertex 0.05355170650525992 0.08321252465248108 0.10481245857357044
    endloop
  endfacet
  facet normal -0.0 1.0 -0.0
    outer loop
      vertex -0.001847259246434231 0.08321252465248108 0.0842309845307897
      vertex -0.02907505094961889 0.08321252465248108 0.08626502876552915
      vertex 0.03551807826796974 0.08321252465248108 0.0923266707507567
    endloop
  endfacet
  facet normal -0.0 1.0 -0.0
    outer loop
      vertex -0.001847259246434231 0.08321252465248108 0.0842309845307897
      vertex -0.016820048500967435 0.08321252465248108 0.08098693505323132
      vertex -0.03682549234038777 0.08321252465248108 0.08289087222334793
    endloop
  endfacet
  facet normal -0.0 1.0 -0.0
    outer loop
      vertex -0.001847259246434231 0.08321252465248108 0.0842309845307897
      vertex -0.03682549234038777 0.08321252465248108 0.08289087222334793
      vertex -0.04103076961483776 0.08321252465248108 0.08514306289853217
    endloop
  endfacet
  facet normal -0.0 1.0 -0.0
    outer loop
      vertex -0.001847259246434231 0.08321252465248108 0.0842309845307897
      vertex -0.04103076961483776 0.08321252465248108 0.08514306289853217
      vertex -0.02907505094961889 0.08321252465248108 0.08626502876552915
    endloop
  endfacet
  facet normal -0.0 1.0 -0.0
    outer loop
      vertex -0.023412379507449 0.08321252465248108 0.08161433348246387
      vertex -0.016820048500967435 0.08321252465248108 0.08098693505323132
      vertex -0.017588495820238605 0.08321252465248108 0.0808204409496789
    endloop
  endfacet
  facet normal -0.0 1.0 -0.0
    outer loop
      vertex 0.03430763024459483 0.08321252465248108 0.08985216778352934
      vertex -0.0014439064600065606 0.08321252465248108 0.07861966400660306
      vertex -0.017588495820238616 0.08321252465248108 0.0808204409496789
    endloop
  endfacet
  facet normal -0.0 1.0 -0.0
    outer loop
      vertex 0.03430763024459483 0.08321252465248108 0.08985216778352934
      vertex -0.017588495820238616 0.08321252465248108 0.0808204409496789
      vertex 0.03551807826796974 0.08321252465248108 0.0923266707507567
    endloop
  endfacet
  facet normal -0.0 1.0 -0.0
    outer loop
      vertex 0.03430763024459483 0.08321252465248108 0.08985216778352934
      vertex 0.03551807826796974 0.08321252465248108 0.0923266707507567
      vertex 0.03776150696304192 0.08321252465248108 0.09253720183562031
    endloop
  endfacet
  facet normal 0.0 1.0 -0.0
    outer loop
      vertex 0.017395539996158223 0.08321252465248108 0.08453868659918537
      vertex 0.03430763024459483 0.08321252465248108 0.08985216778352934
      vertex 0.03248535765340767 0.08321252465248108 0.08843553819353936
    endloop
  endfacet
  facet normal -0.0 1.0 -0.0
    outer loop
      vertex 0.03273882992991142 0.08321252465248108 0.08850099583307179
      vertex 0.03248535765340768 0.08321252465248108 0.08843553819353937
      vertex 0.03776150696304192 0.08321252465248108 0.09253720183562031
    endloop
  endfacet
  facet normal -0.0 1.0 -0.0
    outer loop
      vertex 0.03273882992991142 0.08321252465248108 0.08850099583307179
      vertex 0.03776150696304192 0.08321252465248108 0.09253720183562031
      vertex 0.037906220929288664 0.08321252465248108 0.09255078229323671
    endloop
  endfacet
  facet normal -0.0 1.0 -0.0
    outer loop
      vertex -0.03697113924726551 0.08321252465248108 0.08290473357838424
      vertex -0.04110592430844084 0.08321252465248108 0.08513601012292508
      vertex -0.04103076961483776 0.08321252465248108 0.08514306289853217
    endloop
  endfacet
  facet normal -0.0 1.0 -0.0
    outer loop
      vertex -0.03697113924726551 0.08321252465248108 0.08290473357838424
      vertex -0.04103076961483776 0.08321252465248108 0.08514306289853217
      vertex -0.03682549234038776 0.08321252465248108 0.08289087222334793
    endloop
  endfacet
  facet normal -0.0 -0.0 1.0
    outer loop
      vertex -0.07106677442789078 0.055435900100554096 0.10621216893196106
      vertex -0.04500138528791867 0.019344267028758473 0.10621216893196106
      vertex -0.042441050215171056 0.018553087839776522 0.10621216893196106
    endloop
  endfacet
  facet normal -0.0 -0.0 1.0
    outer loop
      vertex -0.07106677442789078 0.055435900100554096 0.10621216893196106
      vertex -0.042441050215171056 0.018553087839776522 0.10621216893196106
      vertex -0.04120533695190189 0.01833411489000046 0.10621216893196106
    endloop
  endfacet
  facet normal -0.0 -0.0 1.0
    outer loop
      vertex -0.07106677442789078 0.055435900100554096 0.10621216893196106
      vertex -0.04120533695190189 0.01833411489000046 0.10621216893196106
      vertex 0.010680143792766023 0.08321252465248108 0.10621216893196106
    endloop
  endfacet
  facet normal -0.0 -0.0 1.0
    outer loop
      vertex -0.07106677442789078 0.055435900100554096 0.10621216893196106
      vertex 0.010680143792766023 0.08321252465248108 0.10621216893196106
      vertex -0.07106677442789078 0.08321252465248108 0.10621216893196106
    endloop
  endfacet
  facet normal -0.0 -0.0 1.0
    outer loop
      vertex -0.055057723343703506 0.03326884959325685 0.10621216893196106
      vertex -0.07106677442789078 0.055435900100554096 0.10621216893196106
      vertex -0.07106677442789078 0.055098122575552425 0.10621216893196106
    endloop
  endfacet
  facet normal -0.0 0.0 1.0
    outer loop
      vertex -0.041205336951901914 0.018334114890000433 0.10621216893196106
      vertex -0.006520581083097057 0.012187848170517577 0.10621216893196106
      vertex 0.009344261113459054 0.018352293344300663 0.10621216893196106
    endloop
  endfacet
  facet normal -0.0 0.0 1.0
    outer loop
      vertex -0.041205336951901914 0.018334114890000433 0.10621216893196106
      vertex 0.009344261113459054 0.018352293344300663 0.10621216893196106
      vertex 0.04651059737475316 0.08321252465248108 0.10621216893196106
    endloop
  endfacet
  facet normal -0.0 0.0 1.0
    outer loop
      vertex -0.041205336951901914 0.018334114890000433 0.10621216893196106
      vertex 0.04651059737475316 0.08321252465248108 0.10621216893196106
      vertex 0.010680143792766023 0.08321252465248108 0.10621216893196106
    endloop
  endfacet
  facet normal -0.0 0.0 1.0
    outer loop
      vertex 0.009344261113459054 0.01835229334430066 0.10621216893196106
      vertex 0.024330260415903363 0.02417525520737691 0.10621216893196106
      vertex 0.03231124972340574 0.028430381703894524 0.10621216893196106
    endloop
  endfacet
  facet normal -0.0 0.0 1.0
    outer loop
      vertex 0.009344261113459054 0.01835229334430066 0.10621216893196106
      vertex 0.03231124972340574 0.028430381703894524 0.10621216893196106
      vertex 0.050823827085634876 0.08321252465248108 0.10621216893196106
    endloop
  endfacet
  facet normal -0.0 0.0 1.0
    outer loop
      vertex 0.009344261113459054 0.01835229334430066 0.10621216893196106
      vertex 0.050823827085634876 0.08321252465248108 0.10621216893196106
      vertex 0.04651059737475316 0.08321252465248108 0.10621216893196106
    endloop
  endfacet
  facet normal -0.0 -0.0 1.0
    outer loop
      vertex 0.03231124972340574 0.028430381703894534 0.10621216893196106
      vertex 0.03246930863450742 0.028514652041158023 0.10621216893196106
      vertex 0.05867145177610018 0.06695801550081937 0.10621216893196106
    endloop
  endfacet
  facet normal -0.0 -0.0 1.0
    outer loop
      vertex 0.03231124972340574 0.028430381703894534 0.10621216893196106
      vertex 0.05867145177610018 0.06695801550081937 0.10621216893196106
      vertex 0.05535221514895841 0.08321252465248108 0.10621216893196106
    endloop
  endfacet
  facet normal -0.0 -0.0 1.0
    outer loop
      vertex 0.03231124972340574 0.028430381703894534 0.10621216893196106
      vertex 0.05535221514895841 0.08321252465248108 0.10621216893196106
      vertex 0.050823827085634876 0.08321252465248108 0.10621216893196106
    endloop
  endfacet
  facet normal -0.4652675838781206 0.16973022061002443 -0.8687449151528246
    outer loop
      vertex -0.06377509740979623 0.08321252465248108 0.09732408203949691
      vertex -0.07106677442789078 0.08082579386812397 0.10076292876418509
      vertex -0.07106677442789078 0.08321252465248108 0.10122923404609216
    endloop
  endfacet
  facet normal -0.4652675838781219 0.16973022061002502 -0.8687449151528239
    outer loop
      vertex -0.052721127835714685 0.08321252465248108 0.09140398555744676
      vertex -0.045188867782608506 0.0771382271583478 0.08618322603336631
      vertex -0.048474237965669006 0.07233884170252929 0.08700507314010139
    endloop
  endfacet
  facet normal -0.4652675838781219 0.16973022061002502 -0.8687449151528239
    outer loop
      vertex -0.052721127835714685 0.08321252465248108 0.09140398555744676
      vertex -0.048474237965669006 0.07233884170252929 0.08700507314010139
      vertex -0.07106677442789078 0.07296139643848652 0.09922642951404276
    endloop
  endfacet
  facet normal -0.4652675838781219 0.16973022061002502 -0.8687449151528239
    outer loop
      vertex -0.052721127835714685 0.08321252465248108 0.09140398555744676
      vertex -0.07106677442789078 0.07296139643848652 0.09922642951404276
      vertex -0.07106677442789078 0.08082579386812397 0.10076292876418509
    endloop
  endfacet
  facet normal -0.4652675838781219 0.16973022061002502 -0.8687449151528239
    outer loop
      vertex -0.052721127835714685 0.08321252465248108 0.09140398555744676
      vertex -0.07106677442789078 0.08082579386812397 0.10076292876418509
      vertex -0.06377509740979623 0.08321252465248108 0.09732408203949691
    endloop
  endfacet
  facet normal -0.465267583878121 0.16973022061002427 -0.8687449151528245
    outer loop
      vertex -0.045188867782608506 0.0771382271583478 0.08618322603336631
      vertex -0.03891074399073702 0.07207531226322317 0.08183173334077765
      vertex -0.048474237965669006 0.07233884170252929 0.08700507314010139
    endloop
  endfacet
  facet normal -0.468376075039867 0.16519160712339734 -0.8679490683595656
    outer loop
      vertex -0.0451888677826085 0.0771382271583478 0.08618322603336631
      vertex -0.052721127835714685 0.08321252465248108 0.09140398555744676
      vertex -0.04110592430844083 0.08321252465248108 0.08513601012292507
    endloop
  endfacet
  facet normal -0.4683760750398666 0.16519160712339706 -0.867949068359566
    outer loop
      vertex -0.03891074399073702 0.07207531226322317 0.08183173334077765
      vertex -0.0451888677826085 0.0771382271583478 0.08618322603336631
      vertex -0.04110592430844083 0.08321252465248108 0.08513601012292507
    endloop
  endfacet
  facet normal -0.4683760750398666 0.16519160712339706 -0.867949068359566
    outer loop
      vertex -0.03891074399073702 0.07207531226322317 0.08183173334077765
      vertex -0.04110592430844083 0.08321252465248108 0.08513601012292507
      vertex -0.036971139247265486 0.08321252465248108 0.08290473357838422
    endloop
  endfacet
  facet normal -0.09414987863698103 0.1117067435127682 -0.9892711477681002
    outer loop
      vertex -0.03891074399073702 0.07207531226322317 0.08183173334077765
      vertex -0.036971139247265486 0.08321252465248108 0.08290473357838422
      vertex -0.03682549234038774 0.08321252465248108 0.08289087222334791
    endloop
  endfacet
  facet normal -0.07722351570503554 -0.4357895470220319 -0.896729613277317
    outer loop
      vertex -0.04244105021517093 0.01855308783977649 0.10621216893196106
      vertex -0.04099175356654965 0.02045222501483573 0.10516442399541989
      vertex -0.04120533695190189 0.018334114890000454 0.10621216893196106
    endloop
  endfacet
  facet normal -0.07722351570503662 -0.4357895470220312 -0.8967296132773172
    outer loop
      vertex -0.04099175356654965 0.02045222501483573 0.10516442399541989
      vertex -0.030683121416098802 0.0339605061245425 0.09771196962827894
      vertex -0.006182315687673499 0.016358802733293355 0.10415605255603484
    endloop
  endfacet
  facet normal -0.07722351570503662 -0.4357895470220312 -0.8967296132773172
    outer loop
      vertex -0.04099175356654965 0.02045222501483573 0.10516442399541989
      vertex -0.006182315687673499 0.016358802733293355 0.10415605255603484
      vertex -0.006520581083096939 0.012187848170517592 0.10621216893196106
    endloop
  endfacet
  facet normal -0.07722351570503662 -0.4357895470220312 -0.8967296132773172
    outer loop
      vertex -0.04099175356654965 0.02045222501483573 0.10516442399541989
      vertex -0.006520581083096939 0.012187848170517592 0.10621216893196106
      vertex -0.04120533695190189 0.018334114890000454 0.10621216893196106
    endloop
  endfacet
  facet normal -0.07722351570503663 -0.4357895470220307 -0.8967296132773175
    outer loop
      vertex -0.030683121416098802 0.0339605061245425 0.09771196962827894
      vertex -0.015782964434151385 0.05348545435757292 0.0869401486581861
      vertex -0.00414571378757999 0.04147096053211076 0.09177674750538722
    endloop
  endfacet
  facet normal -0.07722351570503663 -0.4357895470220307 -0.8967296132773175
    outer loop
      vertex -0.030683121416098802 0.0339605061245425 0.09771196962827894
      vertex -0.00414571378757999 0.04147096053211076 0.09177674750538722
      vertex -0.006182315687673499 0.016358802733293355 0.10415605255603484
    endloop
  endfacet
  facet normal -0.07722351570503688 -0.435789547022031 -0.8967296132773173
    outer loop
      vertex -0.015782964434151385 0.05348545435757292 0.0869401486581861
      vertex -0.0016716946933605925 0.0719766562640416 0.0767386406141668
      vertex -0.00414571378757999 0.04147096053211076 0.09177674750538722
    endloop
  endfacet
  facet normal -0.12498024927381528 -0.4044486003584565 -0.905980831452598
    outer loop
      vertex -0.040991753566549646 0.02045222501483574 0.10516442399541989
      vertex -0.042441050215170924 0.018553087839776498 0.10621216893196106
      vertex -0.04500138528791867 0.01934426702875849 0.10621216893196106
    endloop
  endfacet
  facet normal -0.12498024927381528 -0.4044486003584565 -0.905980831452598
    outer loop
      vertex -0.040991753566549646 0.02045222501483574 0.10516442399541989
      vertex -0.04500138528791867 0.01934426702875849 0.10621216893196106
      vertex -0.042303764223484364 0.04269950524315696 0.09541376964988645
    endloop
  endfacet
  facet normal -0.12498024927381528 -0.4044486003584565 -0.905980831452598
    outer loop
      vertex -0.040991753566549646 0.02045222501483574 0.10516442399541989
      vertex -0.042303764223484364 0.04269950524315696 0.09541376964988645
      vertex -0.040395080100609826 0.04463254153056785 0.09428751884752534
    endloop
  endfacet
  facet normal -0.12498024927381528 -0.4044486003584565 -0.905980831452598
    outer loop
      vertex -0.040991753566549646 0.02045222501483574 0.10516442399541989
      vertex -0.040395080100609826 0.04463254153056785 0.09428751884752534
      vertex -0.03795169802236059 0.04194761865387664 0.09514905892788877
    endloop
  endfacet
  facet normal -0.12498024927381632 -0.4044486003584561 -0.9059808314525979
    outer loop
      vertex -0.030683121416098788 0.033960506124542524 0.09771196962827894
      vertex -0.040991753566549646 0.02045222501483574 0.10516442399541989
      vertex -0.03795169802236059 0.04194761865387664 0.09514905892788877
    endloop
  endfacet
  facet normal -0.12498024927381222 -0.4044486003584558 -0.9059808314525987
    outer loop
      vertex -0.042303764223484364 0.04269950524315696 0.09541376964988645
      vertex -0.04189066792538817 0.04627597585080544 0.09376017240170326
      vertex -0.040395080100609826 0.04463254153056785 0.09428751884752534
    endloop
  endfacet
  facet normal -0.12498024927381604 -0.40444860035845653 -0.9059808314525978
    outer loop
      vertex -0.024659843841667056 0.04185332114497742 0.09335754116396394
      vertex -0.030683121416098788 0.033960506124542524 0.09771196962827894
      vertex -0.04149563074089101 0.045841887222898295 0.09389946308845581
    endloop
  endfacet
  facet normal -0.12498024927381605 -0.4044486003584566 -0.9059808314525978
    outer loop
      vertex -0.015782964434151378 0.05348545435757292 0.0869401486581861
      vertex -0.024659843841667056 0.04185332114497742 0.09335754116396394
      vertex -0.04149563074089101 0.045841887222898295 0.09389946308845581
    endloop
  endfacet
  facet normal -0.12498024927381605 -0.4044486003584566 -0.9059808314525978
    outer loop
      vertex -0.015782964434151378 0.05348545435757292 0.0869401486581861
      vertex -0.04149563074089101 0.045841887222898295 0.09389946308845581
      vertex -0.04189066792538817 0.04627597585080544 0.09376017240170326
    endloop
  endfacet
  facet normal -0.12498024927381605 -0.4044486003584566 -0.9059808314525978
    outer loop
      vertex -0.015782964434151378 0.05348545435757292 0.0869401486581861
      vertex -0.04189066792538817 0.04627597585080544 0.09376017240170326
      vertex -0.03891074399073702 0.07207531226322317 0.08183173334077765
    endloop
  endfacet
  facet normal -0.12498024927381605 -0.4044486003584566 -0.9059808314525978
    outer loop
      vertex -0.015782964434151378 0.05348545435757292 0.0869401486581861
      vertex -0.03891074399073702 0.07207531226322317 0.08183173334077765
      vertex -0.02906488731312478 0.07204922800901539 0.08048513985952213
    endloop
  endfacet
  facet normal -0.12498024927381576 -0.4044486003584567 -0.9059808314525978
    outer loop
      vertex -0.0016716946933605925 0.0719766562640416 0.0767386406141668
      vertex -0.015782964434151378 0.05348545435757292 0.0869401486581861
      vertex -0.02906488731312478 0.07204922800901539 0.08048513985952213
    endloop
  endfacet
  facet normal -0.45623240477327 -0.32949119107535324 -0.8266120903050863
    outer loop
      vertex -0.05505772334370425 0.03326884959325788 0.10621216893196106
      vertex -0.06753570847375327 0.0579963591816285 0.10324265584017199
      vertex -0.042303764223484364 0.04269950524315696 0.09541376964988643
    endloop
  endfacet
  facet normal -0.45623240477327 -0.32949119107535324 -0.8266120903050863
    outer loop
      vertex -0.05505772334370425 0.03326884959325788 0.10621216893196106
      vertex -0.042303764223484364 0.04269950524315696 0.09541376964988643
      vertex -0.04500138528791867 0.019344267028758487 0.10621216893196106
    endloop
  endfacet
  facet normal -0.4562324047732693 -0.32949119107535263 -0.826612090305087
    outer loop
      vertex -0.06753570847375327 0.0579963591816285 0.10324265584017199
      vertex -0.07106677442789078 0.06499384045188877 0.10240233214451931
      vertex -0.07106677442789078 0.07296139643848652 0.09922642951404276
    endloop
  endfacet
  facet normal -0.4562324047732693 -0.32949119107535263 -0.826612090305087
    outer loop
      vertex -0.06753570847375327 0.0579963591816285 0.10324265584017199
      vertex -0.07106677442789078 0.07296139643848652 0.09922642951404276
      vertex -0.048474237965669006 0.07233884170252929 0.08700507314010139
    endloop
  endfacet
  facet normal -0.4562324047732693 -0.32949119107535263 -0.826612090305087
    outer loop
      vertex -0.06753570847375327 0.0579963591816285 0.10324265584017199
      vertex -0.048474237965669006 0.07233884170252929 0.08700507314010139
      vertex -0.041890667925388175 0.04627597585080541 0.09376017240170326
    endloop
  endfacet
  facet normal -0.4562324047732693 -0.32949119107535263 -0.826612090305087
    outer loop
      vertex -0.06753570847375327 0.0579963591816285 0.10324265584017199
      vertex -0.041890667925388175 0.04627597585080541 0.09376017240170326
      vertex -0.042303764223484364 0.04269950524315696 0.09541376964988643
    endloop
  endfacet
  facet normal -0.45623240477326926 -0.32949119107535285 -0.826612090305087
    outer loop
      vertex -0.048474237965669006 0.07233884170252929 0.08700507314010139
      vertex -0.03891074399073702 0.07207531226322317 0.08183173334077765
      vertex -0.041890667925388175 0.04627597585080541 0.09376017240170326
    endloop
  endfacet
  facet normal -0.4399526531510974 -0.3226504384562867 -0.8380562973626987
    outer loop
      vertex -0.0675357084737533 0.05799635918162855 0.10324265584017199
      vertex -0.05505772334370426 0.033268849593257904 0.10621216893196106
      vertex -0.07106677442789078 0.05509812257555245 0.10621216893196106
    endloop
  endfacet
  facet normal -0.4399526531510974 -0.3226504384562867 -0.8380562973626987
    outer loop
      vertex -0.0675357084737533 0.05799635918162855 0.10324265584017199
      vertex -0.07106677442789078 0.05509812257555245 0.10621216893196106
      vertex -0.07106677442789078 0.05982563438449329 0.10439208385800822
    endloop
  endfacet
  facet normal -0.4399526531510977 -0.3226504384562877 -0.8380562973626983
    outer loop
      vertex -0.07106677442789078 0.06499384045188876 0.10240233214451931
      vertex -0.0675357084737533 0.05799635918162855 0.10324265584017199
      vertex -0.07106677442789078 0.05982563438449329 0.10439208385800822
    endloop
  endfacet
  facet normal 0.1735825343151527 -0.44673274517877776 -0.8776667694323184
    outer loop
      vertex -0.006520581083096939 0.012187848170517601 0.10621216893196106
      vertex -0.0061823156876735 0.01635880273329334 0.10415605255603486
      vertex 0.007821894758003815 0.02168019414309584 0.10421717660611854
    endloop
  endfacet
  facet normal 0.1735825343151527 -0.44673274517877776 -0.8776667694323184
    outer loop
      vertex -0.006520581083096939 0.012187848170517601 0.10621216893196106
      vertex 0.007821894758003815 0.02168019414309584 0.10421717660611854
      vertex 0.009344261113459014 0.018352293344300625 0.10621216893196106
    endloop
  endfacet
  facet normal 0.17358253431515291 -0.44673274517877765 -0.8776667694323181
    outer loop
      vertex 0.022627259943664886 0.027306012422789322 0.10428179744901618
      vertex 0.0243302604159033 0.024175255207376897 0.10621216893196106
      vertex 0.009344261113459014 0.018352293344300625 0.10621216893196106
    endloop
  endfacet
  facet normal 0.17358253431515291 -0.44673274517877765 -0.8776667694323181
    outer loop
      vertex 0.022627259943664886 0.027306012422789322 0.10428179744901618
      vertex 0.009344261113459014 0.018352293344300625 0.10621216893196106
      vertex 0.007821894758003815 0.02168019414309584 0.10421717660611854
    endloop
  endfacet
  facet normal 0.17358253431515305 -0.44673274517877837 -0.8776667694323178
    outer loop
      vertex 0.01556221977514266 0.04029422108470857 0.0962734895891543
      vertex 0.022627259943664886 0.027306012422789322 0.10428179744901618
      vertex -0.0061823156876735 0.01635880273329334 0.10415605255603486
    endloop
  endfacet
  facet normal 0.17358253431515305 -0.44673274517877837 -0.8776667694323178
    outer loop
      vertex 0.01556221977514266 0.04029422108470857 0.0962734895891543
      vertex -0.0061823156876735 0.01635880273329334 0.10415605255603486
      vertex -0.004176553639795277 0.041090692186447834 0.09196420482744531
    endloop
  endfacet
  facet normal 0.17358253431515305 -0.44673274517877837 -0.8776667694323178
    outer loop
      vertex 0.01556221977514266 0.04029422108470857 0.0962734895891543
      vertex -0.004176553639795277 0.041090692186447834 0.09196420482744531
      vertex -0.0037455533828803637 0.04144706738613478 0.09186805175736998
    endloop
  endfacet
  facet normal 0.17358253431513815 -0.446732745178781 -0.8776667694323196
    outer loop
      vertex -0.004176553639795277 0.041090692186447834 0.09196420482744531
      vertex -0.004145713787579991 0.04147096053211073 0.09177674750538724
      vertex -0.0037455533828803637 0.04144706738613478 0.09186805175736998
    endloop
  endfacet
  facet normal 0.17358253431515297 -0.44673274517877803 -0.877666769432318
    outer loop
      vertex -0.0016716946933605925 0.0719766562640416 0.0767386406141668
      vertex 0.01556221977514266 0.04029422108470857 0.0962734895891543
      vertex -0.004145713787579991 0.04147096053211073 0.09177674750538724
    endloop
  endfacet
  facet normal 0.2240720062276157 -0.4202733543354726 -0.8792963343837741
    outer loop
      vertex 0.024330260415903304 0.024175255207376897 0.10621216893196106
      vertex 0.0226272599436649 0.027306012422789298 0.1042817974490162
      vertex 0.03037750418686393 0.03245143815768292 0.10379746407913057
    endloop
  endfacet
  facet normal 0.2240720062276157 -0.4202733543354726 -0.8792963343837741
    outer loop
      vertex 0.024330260415903304 0.024175255207376897 0.10621216893196106
      vertex 0.03037750418686393 0.03245143815768292 0.10379746407913057
      vertex 0.032311249723405724 0.02843038170389455 0.10621216893196106
    endloop
  endfacet
  facet normal 0.2240720062276179 -0.4202733543354725 -0.8792963343837735
    outer loop
      vertex 0.03037750418686393 0.03245143815768292 0.10379746407913057
      vertex 0.032710759452761744 0.034000497943993756 0.10365165275367108
      vertex 0.032469308634507386 0.028514652041158026 0.10621216893196106
    endloop
  endfacet
  facet normal 0.2240720062276179 -0.4202733543354725 -0.8792963343837735
    outer loop
      vertex 0.03037750418686393 0.03245143815768292 0.10379746407913057
      vertex 0.032469308634507386 0.028514652041158026 0.10621216893196106
      vertex 0.032311249723405724 0.02843038170389455 0.10621216893196106
    endloop
  endfacet
  facet normal 0.2240720062276165 -0.4202733543354727 -0.8792963343837737
    outer loop
      vertex 0.0226272599436649 0.027306012422789298 0.1042817974490162
      vertex 0.01556221977514265 0.04029422108470859 0.09627348958915428
      vertex 0.03309099459633472 0.04263957160530807 0.09961936889680961
    endloop
  endfacet
  facet normal 0.2240720062276165 -0.4202733543354727 -0.8792963343837737
    outer loop
      vertex 0.0226272599436649 0.027306012422789298 0.1042817974490162
      vertex 0.03309099459633472 0.04263957160530807 0.09961936889680961
      vertex 0.032710759452761744 0.034000497943993756 0.10365165275367108
    endloop
  endfacet
  facet normal 0.2240720062276167 -0.42027335433547225 -0.879296334383774
    outer loop
      vertex 0.01556221977514265 0.04029422108470859 0.09627348958915428
      vertex -0.0016716946933605925 0.0719766562640416 0.0767386406141668
      vertex 0.034235432158990164 0.0686415879146125 0.08748293914516125
    endloop
  endfacet
  facet normal 0.2240720062276167 -0.42027335433547225 -0.879296334383774
    outer loop
      vertex 0.01556221977514265 0.04029422108470859 0.09627348958915428
      vertex 0.034235432158990164 0.0686415879146125 0.08748293914516125
      vertex 0.03309099459633472 0.04263957160530807 0.09961936889680961
    endloop
  endfacet
  facet normal 0.5479626064736989 -0.37347914851752645 -0.748498702423173
    outer loop
      vertex 0.032469308634507386 0.028514652041158016 0.10621216893196106
      vertex 0.032710759452761744 0.03400049794399379 0.10365165275367107
      vertex 0.04665867195926218 0.06778566194363198 0.09700485460281999
    endloop
  endfacet
  facet normal 0.5479626064736989 -0.37347914851752645 -0.748498702423173
    outer loop
      vertex 0.032469308634507386 0.028514652041158016 0.10621216893196106
      vertex 0.04665867195926218 0.06778566194363198 0.09700485460281999
      vertex 0.058671451776100156 0.06695801550081942 0.10621216893196106
    endloop
  endfacet
  facet normal 0.5479626064737002 -0.3734791485175269 -0.7484987024231718
    outer loop
      vertex 0.032710759452761744 0.03400049794399379 0.10365165275367107
      vertex 0.03309099459633472 0.042639571605308076 0.09961936889680961
      vertex 0.043530225642101586 0.06020782032467462 0.09849569785167524
    endloop
  endfacet
  facet normal 0.5479626064737001 -0.3734791485175268 -0.748498702423172
    outer loop
      vertex 0.03309099459633472 0.042639571605308076 0.09961936889680961
      vertex 0.034235432158990164 0.0686415879146125 0.08748293914516125
      vertex 0.04665867195926218 0.06778566194363198 0.09700485460281999
    endloop
  endfacet
  facet normal 0.5479626064737001 -0.3734791485175268 -0.748498702423172
    outer loop
      vertex 0.03309099459633472 0.042639571605308076 0.09961936889680961
      vertex 0.04665867195926218 0.06778566194363198 0.09700485460281999
      vertex 0.043530225642101586 0.06020782032467462 0.09849569785167524
    endloop
  endfacet
  facet normal 0.6089890624839975 0.12435803399938211 -0.7833692623243974
    outer loop
      vertex 0.042548458566758034 0.07491239250748818 0.09494093803562095
      vertex 0.053551706505256966 0.08321252465248108 0.10481245857356815
      vertex 0.055352215148958404 0.08321252465248108 0.10621216893196106
    endloop
  endfacet
  facet normal 0.6089890624839975 0.12435803399938211 -0.7833692623243974
    outer loop
      vertex 0.042548458566758034 0.07491239250748818 0.09494093803562095
      vertex 0.055352215148958404 0.08321252465248108 0.10621216893196106
      vertex 0.05867145177610016 0.06695801550081942 0.10621216893196106
    endloop
  endfacet
  facet normal 0.6089890624839975 0.12435803399938211 -0.7833692623243974
    outer loop
      vertex 0.042548458566758034 0.07491239250748818 0.09494093803562095
      vertex 0.05867145177610016 0.06695801550081942 0.10621216893196106
      vertex 0.04665867195926218 0.06778566194363198 0.09700485460281998
    endloop
  endfacet
  facet normal 0.6089890624839974 0.12435803399938286 -0.7833692623243973
    outer loop
      vertex 0.034235432158990164 0.0686415879146125 0.08748293914516125
      vertex 0.042548458566758034 0.07491239250748818 0.09494093803562095
      vertex 0.04665867195926218 0.06778566194363198 0.09700485460281998
    endloop
  endfacet
  facet normal 0.6125752728317433 0.11752988245440897 -0.7816253973901872
    outer loop
      vertex 0.053551706505256966 0.08321252465248108 0.10481245857356815
      vertex 0.04254845856675803 0.07491239250748817 0.09494093803562094
      vertex 0.037906220929288637 0.08321252465248108 0.0925507822932367
    endloop
  endfacet
  facet normal 0.612575272831743 0.11752988245440892 -0.7816253973901874
    outer loop
      vertex 0.04254845856675803 0.07491239250748817 0.09494093803562094
      vertex 0.034235432158990164 0.0686415879146125 0.08748293914516125
      vertex 0.03273882992991143 0.08321252465248108 0.0885009958330718
    endloop
  endfacet
  facet normal 0.612575272831743 0.11752988245440892 -0.7816253973901874
    outer loop
      vertex 0.04254845856675803 0.07491239250748817 0.09494093803562094
      vertex 0.03273882992991143 0.08321252465248108 0.0885009958330718
      vertex 0.037906220929288637 0.08321252465248108 0.0925507822932367
    endloop
  endfacet
  facet normal 0.24895878589223022 0.09292781801472307 -0.9640456128037144
    outer loop
      vertex 0.034235432158990164 0.0686415879146125 0.08748293914516125
      vertex 0.032485357653407675 0.08321252465248108 0.08843553819353939
      vertex 0.03273882992991143 0.08321252465248108 0.0885009958330718
    endloop
  endfacet
  facet normal -0.09414987863694285 0.11170674351276175 -0.9892711477681045
    outer loop
      vertex -0.023412379507448518 0.08321252465248108 0.08161433348246383
      vertex -0.03891074399073702 0.07207531226322317 0.08183173334077765
      vertex -0.03682549234038774 0.08321252465248108 0.08289087222334791
    endloop
  endfacet
  facet normal -0.13318744315902428 0.16626945599905035 -0.9770443045156866
    outer loop
      vertex -0.03891074399073702 0.07207531226322317 0.08183173334077765
      vertex -0.023412379507448518 0.08321252465248108 0.08161433348246383
      vertex -0.01758849582023862 0.08321252465248108 0.08082044094967891
    endloop
  endfacet
  facet normal -0.13318744315902428 0.16626945599905035 -0.9770443045156866
    outer loop
      vertex -0.03891074399073702 0.07207531226322317 0.08183173334077765
      vertex -0.01758849582023862 0.08321252465248108 0.08082044094967891
      vertex -0.029064887313124767 0.07204922800901539 0.08048513985952213
    endloop
  endfacet
  facet normal -0.13318744315902456 0.1662694559990503 -0.9770443045156866
    outer loop
      vertex -0.0014439064600065494 0.08321252465248108 0.07861966400660306
      vertex -0.0016716946933605925 0.0719766562640416 0.0767386406141668
      vertex -0.029064887313124767 0.07204922800901539 0.08048513985952213
    endloop
  endfacet
  facet normal -0.13318744315902456 0.1662694559990503 -0.9770443045156866
    outer loop
      vertex -0.0014439064600065494 0.08321252465248108 0.07861966400660306
      vertex -0.029064887313124767 0.07204922800901539 0.08048513985952213
      vertex -0.017588495820238623 0.08321252465248108 0.08082044094967891
    endloop
  endfacet
  facet normal 0.2962607082851714 0.15185659643238722 -0.9429576697001514
    outer loop
      vertex 7.642321199480412E-4 0.08321252465248108 0.07931342229577121
      vertex 0.00212662442463166 0.07162386686032415 0.07787519143560966
      vertex -0.0016716946933605925 0.0719766562640416 0.0767386406141668
    endloop
  endfacet
  facet normal 0.2962607082851714 0.15185659643238722 -0.9429576697001514
    outer loop
      vertex 7.642321199480412E-4 0.08321252465248108 0.07931342229577121
      vertex -0.0016716946933605925 0.0719766562640416 0.0767386406141668
      vertex -0.0014439064600065494 0.08321252465248108 0.07861966400660306
    endloop
  endfacet
  facet normal 0.29626070828517254 0.15185659643238736 -0.9429576697001509
    outer loop
      vertex 7.642321199480412E-4 0.08321252465248108 0.07931342229577121
      vertex 0.01739553999615838 0.08321252465248108 0.08453868659918541
      vertex 0.034235432158990164 0.0686415879146125 0.08748293914516125
    endloop
  endfacet
  facet normal 0.29626070828517254 0.15185659643238736 -0.9429576697001509
    outer loop
      vertex 7.642321199480412E-4 0.08321252465248108 0.07931342229577121
      vertex 0.034235432158990164 0.0686415879146125 0.08748293914516125
      vertex 0.00212662442463166 0.07162386686032415 0.07787519143560966
    endloop
  endfacet
  facet normal 0.2489587858922419 0.09292781801472431 -0.9640456128037113
    outer loop
      vertex 0.034235432158990164 0.0686415879146125 0.08748293914516125
      vertex 0.01739553999615838 0.08321252465248108 0.08453868659918541
      vertex 0.032485357653407675 0.08321252465248108 0.08843553819353939
    endloop
  endfacet
endsolid v3d.csg
