solid v3d.csg
  facet normal 1.0 -0.0 -0.0
    outer loop
      vertex 0.07106677442789078 -0.01640242294184638 0.09585748583679482
      vertex 0.07106677442789078 0.043646499396238166 0.10621216893196106
      vertex 0.07106677442789078 -0.0413671749976808 0.10621216893196106
    endloop
  endfacet
  facet normal 1.0 -0.0 -0.0
    outer loop
      vertex 0.07106677442789078 -0.03782470705098356 0.0955513034483338
      vertex 0.07106677442789078 -0.030171861224483613 0.0934831189994947
      vertex 0.07106677442789078 -0.01640242294184638 0.09585748583679482
    endloop
  endfacet
  facet normal 1.0 -0.0 -0.0
    outer loop
      vertex 0.07106677442789078 -0.03782470705098356 0.0955513034483338
      vertex 0.07106677442789078 -0.01640242294184638 0.09585748583679482
      vertex 0.07106677442789078 -0.0413671749976808 0.10621216893196106
    endloop
  endfacet
  facet normal 1.0 -0.0 -0.0
    outer loop
      vertex 0.07106677442789078 -0.03782470705098356 0.0955513034483338
      vertex 0.07106677442789078 -0.0413671749976808 0.10621216893196106
      vertex 0.07106677442789078 -0.05229592610123363 0.10621216893196106
    endloop
  endfacet
  facet normal 1.0 -0.0 -0.0
    outer loop
      vertex 0.07106677442789078 -0.007572096406729321 0.09738016483481547
      vertex 0.07106677442789078 0.0315880746385772 0.08051113038111886
      vertex 0.07106677442789078 0.05496985024700211 0.07647039487536765
    endloop
  endfacet
  facet normal 1.0 -0.0 -0.0
    outer loop
      vertex 0.07106677442789078 -0.007572096406729321 0.09738016483481547
      vertex 0.07106677442789078 0.05496985024700211 0.07647039487536765
      vertex 0.07106677442789078 0.06307113632410577 0.10621216893196106
    endloop
  endfacet
  facet normal 1.0 -0.0 -0.0
    outer loop
      vertex 0.07106677442789078 -0.007572096406729321 0.09738016483481547
      vertex 0.07106677442789078 0.06307113632410577 0.10621216893196106
      vertex 0.07106677442789078 0.043646499396238166 0.10621216893196106
    endloop
  endfacet
  facet normal 1.0 -0.0 -0.0
    outer loop
      vertex 0.07106677442789078 -0.008630404815354847 0.0926338694143398
      vertex 0.07106677442789078 0.0036279776889938803 0.09255550675081167
      vertex 0.07106677442789078 -0.007572096406729321 0.09738016483481547
    endloop
  endfacet
  facet normal 1.0 -0.0 -0.0
    outer loop
      vertex 0.07106677442789078 -0.008630404815354847 0.0926338694143398
      vertex 0.07106677442789078 -0.007572096406729321 0.09738016483481547
      vertex 0.07106677442789078 -0.016402422941846212 0.09585748583679485
    endloop
  endfacet
  facet normal 1.0 -0.0 0.0
    outer loop
      vertex 0.07106677442789078 -0.008630404815354847 0.0926338694143398
      vertex 0.07106677442789078 0.0011871335317227873 0.08856182823679189
      vertex 0.07106677442789078 0.01904846866818831 0.08591281886980136
    endloop
  endfacet
  facet normal 1.0 -0.0 0.0
    outer loop
      vertex 0.07106677442789078 -0.008630404815354847 0.0926338694143398
      vertex 0.07106677442789078 0.01904846866818831 0.08591281886980136
      vertex 0.07106677442789078 0.0036279776889938803 0.09255550675081167
    endloop
  endfacet
  facet normal 1.0 -0.0 -0.0
    outer loop
      vertex 0.07106677442789078 -0.029217490863625108 0.09322520005228091
      vertex 0.07106677442789078 -0.026215868119650515 0.09274628585618379
      vertex 0.07106677442789078 -0.008630404815354861 0.0926338694143398
    endloop
  endfacet
  facet normal 1.0 -0.0 -0.0
    outer loop
      vertex 0.07106677442789078 -0.029217490863625108 0.09322520005228091
      vertex 0.07106677442789078 -0.008630404815354861 0.0926338694143398
      vertex 0.07106677442789078 -0.016402422941846212 0.09585748583679485
    endloop
  endfacet
  facet normal 1.0 -0.0 -0.0
    outer loop
      vertex 0.07106677442789078 -0.029217490863625108 0.09322520005228091
      vertex 0.07106677442789078 -0.016402422941846212 0.09585748583679485
      vertex 0.07106677442789078 -0.030171861224483544 0.09348311899949471
    endloop
  endfacet
  facet normal 1.0 -0.0 0.0
    outer loop
      vertex 0.07106677442789078 -0.026215868119650515 0.09274628585618379
      vertex 0.07106677442789078 -0.015512621074036895 0.09103856393650926
      vertex 0.07106677442789078 0.0011871335317227873 0.08856182823679189
    endloop
  endfacet
  facet normal 1.0 -0.0 0.0
    outer loop
      vertex 0.07106677442789078 -0.026215868119650515 0.09274628585618379
      vertex 0.07106677442789078 0.0011871335317227873 0.08856182823679189
      vertex 0.07106677442789078 -0.008630404815354861 0.0926338694143398
    endloop
  endfacet
  facet normal 1.0 -0.0 -0.0
    outer loop
      vertex 0.07106677442789078 0.01904846866818831 0.08591281886980136
      vertex 0.07106677442789078 0.012518873901364847 0.08688122115147931
      vertex 0.07106677442789078 0.02978317669698542 0.08082304489603788
    endloop
  endfacet
  facet normal 1.0 -0.0 -0.0
    outer loop
      vertex 0.07106677442789078 0.01904846866818831 0.08591281886980136
      vertex 0.07106677442789078 0.02978317669698542 0.08082304489603788
      vertex 0.07106677442789078 0.0315880746385772 0.08051113038111886
    endloop
  endfacet
  facet normal 1.0 0.0 -0.0
    outer loop
      vertex 0.07106677442789078 0.031588074638577254 0.08051113038111886
      vertex 0.07106677442789078 0.053499489458816225 0.07107234598193397
      vertex 0.07106677442789078 0.05496985024700211 0.07647039487536765
    endloop
  endfacet
  facet normal 1.0 0.0 -0.0
    outer loop
      vertex 0.07106677442789078 0.05262118351910777 0.07145069400142262
      vertex 0.07106677442789078 0.05346898805904978 0.07096036799083115
      vertex 0.07106677442789078 0.053499489458816225 0.07107234598193397
    endloop
  endfacet
  facet normal 1.0 -0.0 -0.0
    outer loop
      vertex 0.07106677442789078 0.03561296639599161 0.07877732698047309
      vertex 0.07106677442789078 0.031588074638577254 0.08051113038111886
      vertex 0.07106677442789078 0.02978317669698534 0.08082304489603791
    endloop
  endfacet
  facet normal 1.0 -0.0 -0.0
    outer loop
      vertex 0.07106677442789078 0.059697304370022485 0.09382601854444941
      vertex 0.07106677442789078 0.08321252465248108 0.05774298196440398
      vertex 0.07106677442789078 0.08321252465248108 0.10621216893196106
    endloop
  endfacet
  facet normal 1.0 -0.0 -0.0
    outer loop
      vertex 0.07106677442789078 0.059697304370022485 0.09382601854444941
      vertex 0.07106677442789078 0.08321252465248108 0.10621216893196106
      vertex 0.07106677442789078 0.06307113632410577 0.10621216893196106
    endloop
  endfacet
  facet normal 1.0 -0.0 -0.0
    outer loop
      vertex 0.07106677442789078 0.08273242896036753 0.05847966697999696
      vertex 0.07106677442789078 0.059697304370022485 0.09382601854444941
      vertex 0.07106677442789078 0.057982551420793935 0.08753074711551279
    endloop
  endfacet
  facet normal 1.0 -0.0 -0.0
    outer loop
      vertex 0.07106677442789078 0.08273242896036753 0.05847966697999696
      vertex 0.07106677442789078 0.057982551420793935 0.08753074711551279
      vertex 0.07106677442789078 0.07934467776235364 0.059939009218664144
    endloop
  endfacet
  facet normal 1.0 0.0 0.0
    outer loop
      vertex 0.07106677442789078 0.08273242896036753 0.05847966697999696
      vertex 0.07106677442789078 0.07934467776235364 0.059939009218664144
      vertex 0.07106677442789078 0.08321252465248108 0.05494322294199963
    endloop
  endfacet
  facet normal 1.0 0.0 0.0
    outer loop
      vertex 0.07106677442789078 0.08273242896036753 0.05847966697999696
      vertex 0.07106677442789078 0.08321252465248108 0.05494322294199963
      vertex 0.07106677442789078 0.08321252465248108 0.05774298196440398
    endloop
  endfacet
  facet normal 1.0 -0.0 -0.0
    outer loop
      vertex 0.07106677442789078 0.07118175638028225 0.07048239725249086
      vertex 0.07106677442789078 0.057982551420793935 0.08753074711551279
      vertex 0.07106677442789078 0.056142793761489646 0.08077655326269212
    endloop
  endfacet
  facet normal 1.0 -0.0 -0.0
    outer loop
      vertex 0.07106677442789078 0.07118175638028225 0.07048239725249086
      vertex 0.07106677442789078 0.056142793761489646 0.08077655326269212
      vertex 0.07106677442789078 0.06327376741353823 0.07165305653724162
    endloop
  endfacet
  facet normal 1.0 -0.0 -0.0
    outer loop
      vertex 0.07106677442789078 0.07934467776235363 0.059939009218664144
      vertex 0.07106677442789078 0.07118175638028225 0.07048239725249086
      vertex 0.07106677442789078 0.06327376741353823 0.07165305653724162
    endloop
  endfacet
  facet normal 1.0 -0.0 -0.0
    outer loop
      vertex 0.07106677442789078 0.07934467776235363 0.059939009218664144
      vertex 0.07106677442789078 0.06327376741353823 0.07165305653724162
      vertex 0.07106677442789078 0.06891942817663527 0.06442989599866314
    endloop
  endfacet
  facet normal 1.0 0.0 0.0
    outer loop
      vertex 0.07106677442789078 0.07934467776235363 0.059939009218664144
      vertex 0.07106677442789078 0.06897293910708384 0.06440684508480625
      vertex 0.07106677442789078 0.07717850578066886 0.05724801721917226
    endloop
  endfacet
  facet normal 1.0 0.0 0.0
    outer loop
      vertex 0.07106677442789078 0.07934467776235363 0.059939009218664144
      vertex 0.07106677442789078 0.07717850578066886 0.05724801721917226
      vertex 0.07106677442789078 0.08321252465248108 0.053758254824821536
    endloop
  endfacet
  facet normal 1.0 0.0 0.0
    outer loop
      vertex 0.07106677442789078 0.07934467776235363 0.059939009218664144
      vertex 0.07106677442789078 0.08321252465248108 0.053758254824821536
      vertex 0.07106677442789078 0.08321252465248108 0.05494322294199963
    endloop
  endfacet
  facet normal 1.0 0.0 0.0
    outer loop
      vertex 0.07106677442789078 0.07717850578066886 0.05724801721917226
      vertex 0.07106677442789078 0.08321252465248108 0.05198372479920487
      vertex 0.07106677442789078 0.08321252465248108 0.053758254824821536
    endloop
  endfacet
  facet normal 1.0 -0.0 -0.0
    outer loop
      vertex 0.07106677442789078 0.07717850578066894 0.057248017219172186
      vertex 0.07106677442789078 0.06897293910708384 0.06440684508480625
      vertex 0.07106677442789078 0.06891942817663527 0.06442989599866314
    endloop
  endfacet
  facet normal 1.0 -0.0 -0.0
    outer loop
      vertex 0.07106677442789078 0.07717850578066894 0.057248017219172186
      vertex 0.07106677442789078 0.06891942817663527 0.06442989599866314
      vertex 0.07106677442789078 0.07235026635421818 0.060040419553222056
    endloop
  endfacet
  facet normal 1.0 0.0 0.0
    outer loop
      vertex 0.07106677442789078 0.07717850578066894 0.057248017219172186
      vertex 0.07106677442789078 0.07235026635421818 0.060040419553222056
      vertex 0.07106677442789078 0.07657709072578026 0.05463254396782813
    endloop
  endfacet
  facet normal 1.0 0.0 0.0
    outer loop
      vertex 0.07106677442789078 0.07717850578066894 0.057248017219172186
      vertex 0.07106677442789078 0.07657709072578026 0.05463254396782813
      vertex 0.07106677442789078 0.08321252465248108 0.050813410886142364
    endloop
  endfacet
  facet normal 1.0 0.0 0.0
    outer loop
      vertex 0.07106677442789078 0.07717850578066894 0.057248017219172186
      vertex 0.07106677442789078 0.08321252465248108 0.050813410886142364
      vertex 0.07106677442789078 0.08321252465248108 0.05198372479920487
    endloop
  endfacet
  facet normal 1.0 -0.0 -0.0
    outer loop
      vertex 0.07106677442789078 0.06886135708332325 0.0645041932062434
      vertex 0.07106677442789078 0.056142793761489646 0.08077655326269212
      vertex 0.07106677442789078 0.055003576763971725 0.07659421304915873
    endloop
  endfacet
  facet normal 1.0 -0.0 -0.0
    outer loop
      vertex 0.07106677442789078 0.06891942817663527 0.06442989599866315
      vertex 0.07106677442789078 0.06886135708332325 0.0645041932062434
      vertex 0.07106677442789078 0.055003576763971725 0.07659421304915873
    endloop
  endfacet
  facet normal 1.0 -0.0 -0.0
    outer loop
      vertex 0.07106677442789078 0.06891942817663527 0.06442989599866315
      vertex 0.07106677442789078 0.055003576763971725 0.07659421304915873
      vertex 0.07106677442789078 0.053499489458816225 0.07107234598193396
    endloop
  endfacet
  facet normal 1.0 -0.0 -0.0
    outer loop
      vertex 0.07106677442789078 0.07235026635421814 0.06004041955322212
      vertex 0.07106677442789078 0.06891942817663527 0.06442989599866315
      vertex 0.07106677442789078 0.053499489458816225 0.07107234598193396
    endloop
  endfacet
  facet normal 1.0 -0.0 -0.0
    outer loop
      vertex 0.07106677442789078 0.07235026635421814 0.06004041955322212
      vertex 0.07106677442789078 0.053499489458816225 0.07107234598193396
      vertex 0.07106677442789078 0.05346898805904978 0.07096036799083114
    endloop
  endfacet
  facet normal 1.0 -0.0 -0.0
    outer loop
      vertex 0.07106677442789078 0.06913876514984411 0.058913794537605146
      vertex 0.07106677442789078 0.07657709072578045 0.05463254396782788
      vertex 0.07106677442789078 0.07235026635421814 0.06004041955322212
    endloop
  endfacet
  facet normal 1.0 -0.0 -0.0
    outer loop
      vertex 0.07106677442789078 0.06913876514984411 0.058913794537605146
      vertex 0.07106677442789078 0.07235026635421814 0.06004041955322212
      vertex 0.07106677442789078 0.05747239717352696 0.06864500456991637
    endloop
  endfacet
  facet normal 1.0 -0.0 -0.0
    outer loop
      vertex 0.07106677442789078 -0.03782686063540856 0.09555188545533078
      vertex 0.07106677442789078 -0.03782470705098372 0.09555130344833393
      vertex 0.07106677442789078 -0.05229592610123363 0.10621216893196106
    endloop
  endfacet
  facet normal 1.0 -0.0 -0.0
    outer loop
      vertex 0.07106677442789078 -0.03782686063540856 0.09555188545533078
      vertex 0.07106677442789078 -0.05229592610123363 0.10621216893196106
      vertex 0.07106677442789078 -0.05229736678974851 0.10621216893196106
    endloop
  endfacet
  facet normal 1.0 -0.0 -0.0
    outer loop
      vertex 0.07106677442789078 -0.08321252465248108 0.10122923404609217
      vertex 0.07106677442789078 -0.07686982876340631 0.10246843228914097
      vertex 0.07106677442789078 -0.0632822792845643 0.10621216893196106
    endloop
  endfacet
  facet normal 1.0 -0.0 -0.0
    outer loop
      vertex 0.07106677442789078 -0.08321252465248108 0.10122923404609217
      vertex 0.07106677442789078 -0.0632822792845643 0.10621216893196106
      vertex 0.07106677442789078 -0.08321252465248108 0.10621216893196106
    endloop
  endfacet
  facet normal 1.0 -0.0 0.0
    outer loop
      vertex 0.07106677442789078 -0.07020991551498545 0.1043034181565294
      vertex 0.07106677442789078 -0.06906347314080981 0.1039935916758299
      vertex 0.07106677442789078 -0.057707936671167026 0.10621216893196106
    endloop
  endfacet
  facet normal 1.0 -0.0 0.0
    outer loop
      vertex 0.07106677442789078 -0.07020991551498545 0.1043034181565294
      vertex 0.07106677442789078 -0.057707936671167026 0.10621216893196106
      vertex 0.07106677442789078 -0.0632822792845643 0.10621216893196106
    endloop
  endfacet
  facet normal 1.0 -0.0 -0.0
    outer loop
      vertex 0.07106677442789078 -0.06981269506673206 0.10419606918172138
      vertex 0.07106677442789078 -0.07020991551498545 0.1043034181565294
      vertex 0.07106677442789078 -0.07101061014491297 0.1040828051732658
    endloop
  endfacet
  facet normal 1.0 -0.0 0.0
    outer loop
      vertex 0.07106677442789078 -0.06841790599387744 0.1041197187499068
      vertex 0.07106677442789078 -0.05742376278207292 0.10621216893196106
      vertex 0.07106677442789078 -0.057707936671167026 0.10621216893196106
    endloop
  endfacet
  facet normal 1.0 -0.0 -0.0
    outer loop
      vertex 0.07106677442789078 -0.06841790599387744 0.1041197187499068
      vertex 0.07106677442789078 -0.06906347314080975 0.10399359167582992
      vertex 0.07106677442789078 -0.06506725709100988 0.1029136127927093
    endloop
  endfacet
  facet normal 1.0 -0.0 -0.0
    outer loop
      vertex 0.07106677442789078 -0.06841790599387744 0.1041197187499068
      vertex 0.07106677442789078 -0.06506725709100988 0.1029136127927093
      vertex 0.07106677442789078 -0.04156105010583432 0.09830282712147613
    endloop
  endfacet
  facet normal 1.0 -0.0 -0.0
    outer loop
      vertex 0.07106677442789078 -0.06841790599387744 0.1041197187499068
      vertex 0.07106677442789078 -0.04156105010583432 0.09830282712147613
      vertex 0.07106677442789078 -0.05229736678974851 0.10621216893196106
    endloop
  endfacet
  facet normal 1.0 -0.0 -0.0
    outer loop
      vertex 0.07106677442789078 -0.06841790599387744 0.1041197187499068
      vertex 0.07106677442789078 -0.05229736678974851 0.10621216893196106
      vertex 0.07106677442789078 -0.05742376278207292 0.10621216893196106
    endloop
  endfacet
  facet normal 1.0 0.0 0.0
    outer loop
      vertex 0.07106677442789078 -0.0650672570910099 0.1029136127927093
      vertex 0.07106677442789078 -0.03782686063540852 0.09555188545533075
      vertex 0.07106677442789078 -0.04156105010583432 0.09830282712147613
    endloop
  endfacet
  facet normal 0.0 -1.0 -0.0
    outer loop
      vertex 0.06949768232643531 -0.08321252465248108 0.10206958163051283
      vertex 0.07106677442789078 -0.08321252465248108 0.10122923404609215
      vertex 0.07106677442789078 -0.08321252465248108 0.10621216893196106
    endloop
  endfacet
  facet normal 0.0 -1.0 -0.0
    outer loop
      vertex 0.06949768232643531 -0.08321252465248108 0.10206958163051283
      vertex 0.07106677442789078 -0.08321252465248108 0.10621216893196106
      vertex 0.0646782705206797 -0.08321252465248108 0.10621216893196106
    endloop
  endfacet
  facet normal -0.0 1.0 -0.0
    outer loop
      vertex 0.05311567248792836 0.08321252465248108 0.06528332000100771
      vertex 0.05192481295961336 0.08321252465248108 0.06648464114777147
      vertex 0.038385871841387115 0.08321252465248108 0.10621216893196106
    endloop
  endfacet
  facet normal -0.0 1.0 -0.0
    outer loop
      vertex 0.05311567248792836 0.08321252465248108 0.06528332000100771
      vertex 0.038385871841387115 0.08321252465248108 0.10621216893196106
      vertex 0.07106677442789078 0.08321252465248108 0.10621216893196106
    endloop
  endfacet
  facet normal -0.0 1.0 -0.0
    outer loop
      vertex 0.05311567248792836 0.08321252465248108 0.06528332000100771
      vertex 0.07106677442789078 0.08321252465248108 0.10621216893196106
      vertex 0.07106677442789078 0.08321252465248108 0.05774298196440398
    endloop
  endfacet
  facet normal -0.0 1.0 -0.0
    outer loop
      vertex 0.0696302671167989 0.08321252465248108 0.054796239893256875
      vertex 0.057895289642713316 0.08321252465248108 0.06327564776154496
      vertex 0.07106677442789078 0.08321252465248108 0.05774298196440398
    endloop
  endfacet
  facet normal -0.0 1.0 -0.0
    outer loop
      vertex 0.0696302671167989 0.08321252465248108 0.054796239893256875
      vertex 0.07106677442789078 0.08321252465248108 0.05774298196440398
      vertex 0.07106677442789078 0.08321252465248108 0.054943222941999645
    endloop
  endfacet
  facet normal 0.0 1.0 0.0
    outer loop
      vertex 0.0696302671167989 0.08321252465248108 0.054796239893256875
      vertex 0.06582807558214847 0.08321252465248108 0.05440720065944882
      vertex 0.062261521776845054 0.08321252465248108 0.056057125059748865
    endloop
  endfacet
  facet normal 0.0 1.0 0.0
    outer loop
      vertex 0.0696302671167989 0.08321252465248108 0.054796239893256875
      vertex 0.062261521776845054 0.08321252465248108 0.056057125059748865
      vertex 0.05311567248792832 0.08321252465248108 0.06528332000100773
    endloop
  endfacet
  facet normal 0.0 1.0 0.0
    outer loop
      vertex 0.0696302671167989 0.08321252465248108 0.054796239893256875
      vertex 0.05311567248792832 0.08321252465248108 0.06528332000100773
      vertex 0.057895289642713316 0.08321252465248108 0.06327564776154496
    endloop
  endfacet
  facet normal -0.0 1.0 -0.0
    outer loop
      vertex 0.062261521776845116 0.08321252465248108 0.05605712505974884
      vertex 0.06582807558214847 0.08321252465248108 0.05440720065944882
      vertex 0.06407490021394004 0.08321252465248108 0.05422781621872214
    endloop
  endfacet
  facet normal -0.0 1.0 -0.0
    outer loop
      vertex 0.0696302671167989 0.08321252465248108 0.05479623989325688
      vertex 0.07106677442789078 0.08321252465248108 0.054943222941999645
      vertex 0.07106677442789078 0.08321252465248108 0.05375825482482154
    endloop
  endfacet
  facet normal -0.0 1.0 -0.0
    outer loop
      vertex 0.06582807558214845 0.08321252465248108 0.05440720065944882
      vertex 0.0696302671167989 0.08321252465248108 0.05479623989325688
      vertex 0.07106677442789078 0.08321252465248108 0.05375825482482154
    endloop
  endfacet
  facet normal -0.0 1.0 -0.0
    outer loop
      vertex 0.06582807558214845 0.08321252465248108 0.05440720065944882
      vertex 0.07106677442789078 0.08321252465248108 0.05375825482482154
      vertex 0.07106677442789078 0.08321252465248108 0.051983724799204885
    endloop
  endfacet
  facet normal -0.0 1.0 -0.0
    outer loop
      vertex 0.06585830270545295 0.08321252465248108 0.05242874665988249
      vertex 0.06407490021394 0.08321252465248108 0.05422781621872214
      vertex 0.06582807558214845 0.08321252465248108 0.05440720065944882
    endloop
  endfacet
  facet normal -0.0 1.0 -0.0
    outer loop
      vertex 0.06585830270545295 0.08321252465248108 0.05242874665988249
      vertex 0.06582807558214845 0.08321252465248108 0.05440720065944882
      vertex 0.07106677442789078 0.08321252465248108 0.051983724799204885
    endloop
  endfacet
  facet normal -0.0 1.0 -0.0
    outer loop
      vertex 0.06585830270545295 0.08321252465248108 0.05242874665988249
      vertex 0.07106677442789078 0.08321252465248108 0.051983724799204885
      vertex 0.07106677442789078 0.08321252465248108 0.05081341088614236
    endloop
  endfacet
  facet normal 0.0 1.0 0.0
    outer loop
      vertex 0.05142514887746485 0.08321252465248108 0.06795081331980296
      vertex 0.040850810499270286 0.08321252465248108 0.07559157174852682
      vertex 0.03792342560510122 0.08321252465248108 0.10621216893196106
    endloop
  endfacet
  facet normal 0.0 1.0 0.0
    outer loop
      vertex 0.05142514887746485 0.08321252465248108 0.06795081331980296
      vertex 0.03792342560510122 0.08321252465248108 0.10621216893196106
      vertex 0.038385871841387115 0.08321252465248108 0.10621216893196106
    endloop
  endfacet
  facet normal -0.0 1.0 -0.0
    outer loop
      vertex 0.04806355886962767 0.08321252465248108 0.07037981608741453
      vertex 0.05142514887746485 0.08321252465248108 0.06795081331980296
      vertex 0.05192481295961336 0.08321252465248108 0.06648464114777144
    endloop
  endfacet
  facet normal 0.0 1.0 -0.0
    outer loop
      vertex 0.038564300477191685 0.08321252465248108 0.09950858467067888
      vertex 0.03641393981454318 0.08321252465248108 0.10569840990711467
      vertex 0.03666994816701154 0.08321252465248108 0.10621216893196106
    endloop
  endfacet
  facet normal 0.0 1.0 -0.0
    outer loop
      vertex 0.038564300477191685 0.08321252465248108 0.09950858467067888
      vertex 0.03666994816701154 0.08321252465248108 0.10621216893196106
      vertex 0.03792342560510122 0.08321252465248108 0.10621216893196106
    endloop
  endfacet
  facet normal -0.0 0.0 1.0
    outer loop
      vertex 0.061072207370194226 -0.03319486757138567 0.10621216893196106
      vertex 0.07106677442789078 -0.041367174997680764 0.10621216893196106
      vertex 0.07106677442789078 0.04364649939623823 0.10621216893196106
    endloop
  endfacet
  facet normal -0.0 0.0 1.0
    outer loop
      vertex 0.061072207370194226 -0.03319486757138567 0.10621216893196106
      vertex 0.059463786687828826 -0.045560910360280635 0.10621216893196106
      vertex 0.06336788951182631 -0.05623113881142128 0.10621216893196106
    endloop
  endfacet
  facet normal -0.0 0.0 1.0
    outer loop
      vertex 0.061072207370194226 -0.03319486757138567 0.10621216893196106
      vertex 0.06336788951182631 -0.05623113881142128 0.10621216893196106
      vertex 0.07106677442789078 -0.052295926101233625 0.10621216893196106
    endloop
  endfacet
  facet normal -0.0 0.0 1.0
    outer loop
      vertex 0.061072207370194226 -0.03319486757138567 0.10621216893196106
      vertex 0.07106677442789078 -0.052295926101233625 0.10621216893196106
      vertex 0.07106677442789078 -0.041367174997680764 0.10621216893196106
    endloop
  endfacet
  facet normal -0.0 0.0 1.0
    outer loop
      vertex 0.040472970915680404 0.04779877463240945 0.10621216893196106
      vertex 0.03989358556586911 0.04566345587115702 0.10621216893196106
      vertex 0.04001424842769576 0.04265839063595191 0.10621216893196106
    endloop
  endfacet
  facet normal -0.0 0.0 1.0
    outer loop
      vertex 0.040472970915680404 0.04779877463240945 0.10621216893196106
      vertex 0.04001424842769576 0.04265839063595191 0.10621216893196106
      vertex 0.05793903991217958 -0.008126268120396315 0.10621216893196106
    endloop
  endfacet
  facet normal -0.0 0.0 1.0
    outer loop
      vertex 0.040472970915680404 0.04779877463240945 0.10621216893196106
      vertex 0.05793903991217958 -0.008126268120396315 0.10621216893196106
      vertex 0.06327765184119441 -0.01623871860119709 0.10621216893196106
    endloop
  endfacet
  facet normal -0.0 0.0 1.0
    outer loop
      vertex 0.040472970915680404 0.04779877463240945 0.10621216893196106
      vertex 0.06327765184119441 -0.01623871860119709 0.10621216893196106
      vertex 0.07106677442789078 0.04364649939623823 0.10621216893196106
    endloop
  endfacet
  facet normal -0.0 0.0 1.0
    outer loop
      vertex 0.040472970915680404 0.04779877463240945 0.10621216893196106
      vertex 0.07106677442789078 0.04364649939623823 0.10621216893196106
      vertex 0.07106677442789078 0.06307113632410577 0.10621216893196106
    endloop
  endfacet
  facet normal -0.0 -0.0 1.0
    outer loop
      vertex 0.040472970915680404 0.04779877463240945 0.10621216893196106
      vertex 0.03982091580727353 0.047473270108118006 0.10621216893196106
      vertex 0.03989358556586911 0.04566345587115702 0.10621216893196106
    endloop
  endfacet
  facet normal -0.0 -0.0 1.0
    outer loop
      vertex 0.05251003113849945 0.007255241795366359 0.10621216893196106
      vertex 0.05224626737304603 0.0013515078836466834 0.10621216893196106
      vertex 0.05229126310082694 4.559832808903406E-4 0.10621216893196106
    endloop
  endfacet
  facet normal -0.0 -0.0 1.0
    outer loop
      vertex 0.05251003113849945 0.007255241795366359 0.10621216893196106
      vertex 0.05229126310082694 4.559832808903406E-4 0.10621216893196106
      vertex 0.05793903991217958 -0.008126268120396315 0.10621216893196106
    endloop
  endfacet
  facet normal -0.0 -0.0 1.0
    outer loop
      vertex 0.05241861922996322 0.005209200393763537 0.10621216893196106
      vertex 0.05251003113849945 0.007255241795366359 0.10621216893196106
      vertex 0.04966798249554852 0.015307356132436521 0.10621216893196106
    endloop
  endfacet
  facet normal -0.0 -0.0 1.0
    outer loop
      vertex 0.058866657383502066 -0.009535857523276547 0.10621216893196106
      vertex 0.05899283654215979 -0.03149461806964423 0.10621216893196106
      vertex 0.06107220737019426 -0.03319486757138543 0.10621216893196106
    endloop
  endfacet
  facet normal -0.0 -0.0 1.0
    outer loop
      vertex 0.058866657383502066 -0.009535857523276547 0.10621216893196106
      vertex 0.06107220737019426 -0.03319486757138543 0.10621216893196106
      vertex 0.06327765184119441 -0.01623871860119709 0.10621216893196106
    endloop
  endfacet
  facet normal -0.0 -0.0 1.0
    outer loop
      vertex 0.058866657383502066 -0.009535857523276547 0.10621216893196106
      vertex 0.0522912631008289 4.55983280887369E-4 0.10621216893196106
      vertex 0.052741839487110906 -0.008511584513580507 0.10621216893196106
    endloop
  endfacet
  facet normal -0.0 -0.0 1.0
    outer loop
      vertex 0.058866657383502066 -0.009535857523276547 0.10621216893196106
      vertex 0.052741839487110906 -0.008511584513580507 0.10621216893196106
      vertex 0.05650106485647301 -0.02945715870456962 0.10621216893196106
    endloop
  endfacet
  facet normal -0.0 -0.0 1.0
    outer loop
      vertex 0.058866657383502066 -0.009535857523276547 0.10621216893196106
      vertex 0.05650106485647301 -0.02945715870456962 0.10621216893196106
      vertex 0.05899283654215979 -0.03149461806964423 0.10621216893196106
    endloop
  endfacet
  facet normal -0.0 -0.0 1.0
    outer loop
      vertex 0.05899283654215982 -0.03149461806964425 0.10621216893196106
      vertex 0.05906315815151309 -0.043732577154569026 0.10621216893196106
      vertex 0.059321510012194135 -0.04517205671048434 0.10621216893196106
    endloop
  endfacet
  facet normal -0.0 -0.0 1.0
    outer loop
      vertex 0.05899283654215982 -0.03149461806964425 0.10621216893196106
      vertex 0.059321510012194135 -0.04517205671048434 0.10621216893196106
      vertex 0.05946378668782884 -0.045560910360280545 0.10621216893196106
    endloop
  endfacet
  facet normal -0.0 -0.0 1.0
    outer loop
      vertex 0.05899283654215982 -0.03149461806964425 0.10621216893196106
      vertex 0.05946378668782884 -0.045560910360280545 0.10621216893196106
      vertex 0.06107220737019426 -0.03319486757138543 0.10621216893196106
    endloop
  endfacet
  facet normal -0.0 -0.0 1.0
    outer loop
      vertex 0.05899283654215982 -0.03149461806964425 0.10621216893196106
      vertex 0.056501064856473014 -0.029457158704569626 0.10621216893196106
      vertex 0.05906315815151309 -0.043732577154569026 0.10621216893196106
    endloop
  endfacet
  facet normal -0.0 -0.0 1.0
    outer loop
      vertex 0.03930508399203078 0.060319876194960084 0.10621216893196106
      vertex 0.05625861861630996 0.05567893641502302 0.10621216893196106
      vertex 0.07106677442789078 0.06307113632410577 0.10621216893196106
    endloop
  endfacet
  facet normal -0.0 -0.0 1.0
    outer loop
      vertex 0.03930508399203078 0.060319876194960084 0.10621216893196106
      vertex 0.07106677442789078 0.06307113632410577 0.10621216893196106
      vertex 0.07106677442789078 0.08321252465248108 0.10621216893196106
    endloop
  endfacet
  facet normal -0.0 -0.0 1.0
    outer loop
      vertex 0.03930508399203078 0.060319876194960084 0.10621216893196106
      vertex 0.07106677442789078 0.08321252465248108 0.10621216893196106
      vertex 0.03838587184138712 0.08321252465248108 0.10621216893196106
    endloop
  endfacet
  facet normal 0.0 -0.0 1.0
    outer loop
      vertex 0.03930508399203078 0.060319876194960084 0.10621216893196106
      vertex 0.039820915807273566 0.047473270108118026 0.10621216893196106
      vertex 0.05625861861630996 0.05567893641502302 0.10621216893196106
    endloop
  endfacet
  facet normal -0.0 -0.0 1.0
    outer loop
      vertex 0.038443524973111994 0.08177669411420067 0.10621216893196106
      vertex 0.03838587184138712 0.08321252465248108 0.10621216893196106
      vertex 0.03792342560510122 0.08321252465248108 0.10621216893196106
    endloop
  endfacet
  facet normal -0.0 -0.0 1.0
    outer loop
      vertex 0.03645714087406004 0.08164589496383494 0.10621216893196106
      vertex 0.03923783368768664 0.06199472087029838 0.10621216893196106
      vertex 0.038443524973111994 0.08177669411420067 0.10621216893196106
    endloop
  endfacet
  facet normal -0.0 -0.0 1.0
    outer loop
      vertex 0.03645714087406004 0.08164589496383494 0.10621216893196106
      vertex 0.038443524973111994 0.08177669411420067 0.10621216893196106
      vertex 0.03792342560510122 0.08321252465248108 0.10621216893196106
    endloop
  endfacet
  facet normal -0.0 -0.0 1.0
    outer loop
      vertex 0.03645714087406004 0.08164589496383494 0.10621216893196106
      vertex 0.03792342560510122 0.08321252465248108 0.10621216893196106
      vertex 0.03666994816701154 0.08321252465248108 0.10621216893196106
    endloop
  endfacet
  facet normal -0.0 0.0 1.0
    outer loop
      vertex 0.06336788951182641 -0.056231138811421236 0.10621216893196106
      vertex 0.06336833357107029 -0.05623235246121269 0.10621216893196106
      vertex 0.07106677442789078 -0.0522973667897485 0.10621216893196106
    endloop
  endfacet
  facet normal -0.0 0.0 1.0
    outer loop
      vertex 0.06336788951182641 -0.056231138811421236 0.10621216893196106
      vertex 0.07106677442789078 -0.0522973667897485 0.10621216893196106
      vertex 0.07106677442789078 -0.052295926101233625 0.10621216893196106
    endloop
  endfacet
  facet normal -0.0 0.0 1.0
    outer loop
      vertex 0.0646782705206797 -0.08321252465248108 0.10621216893196106
      vertex 0.07106677442789078 -0.08321252465248108 0.10621216893196106
      vertex 0.07106677442789078 -0.06328227928456436 0.10621216893196106
    endloop
  endfacet
  facet normal -0.0 0.0 1.0
    outer loop
      vertex 0.06749282343060652 -0.06750491648671697 0.10621216893196106
      vertex 0.0686763683283202 -0.07073964031703249 0.10621216893196106
      vertex 0.07106677442789078 -0.06328227928456436 0.10621216893196106
    endloop
  endfacet
  facet normal -0.0 0.0 1.0
    outer loop
      vertex 0.06749282343060652 -0.06750491648671697 0.10621216893196106
      vertex 0.07106677442789078 -0.06328227928456436 0.10621216893196106
      vertex 0.07106677442789078 -0.05770793667116709 0.10621216893196106
    endloop
  endfacet
  facet normal 0.0 -0.0 1.0
    outer loop
      vertex 0.06833093097727276 -0.06979553212690572 0.10621216893196106
      vertex 0.06789781098577573 -0.073168509281547 0.10621216893196106
      vertex 0.0686763683283202 -0.07073964031703249 0.10621216893196106
    endloop
  endfacet
  facet normal -0.0 0.0 1.0
    outer loop
      vertex 0.0680478882204905 -0.06598336273655418 0.10621216893196106
      vertex 0.07106677442789078 -0.05770793667116709 0.10621216893196106
      vertex 0.07106677442789078 -0.05742376278207292 0.10621216893196106
    endloop
  endfacet
  facet normal -0.0 0.0 1.0
    outer loop
      vertex 0.0633683335710703 -0.056232352461212685 0.10621216893196106
      vertex 0.06749282343060652 -0.06750491648671696 0.10621216893196106
      vertex 0.0680478882204905 -0.06598336273655418 0.10621216893196106
    endloop
  endfacet
  facet normal -0.0 0.0 1.0
    outer loop
      vertex 0.0633683335710703 -0.056232352461212685 0.10621216893196106
      vertex 0.0680478882204905 -0.06598336273655418 0.10621216893196106
      vertex 0.07106677442789078 -0.05742376278207292 0.10621216893196106
    endloop
  endfacet
  facet normal -0.0 0.0 1.0
    outer loop
      vertex 0.0633683335710703 -0.056232352461212685 0.10621216893196106
      vertex 0.07106677442789078 -0.05742376278207292 0.10621216893196106
      vertex 0.07106677442789078 -0.0522973667897485 0.10621216893196106
    endloop
  endfacet
  facet normal -0.580564504437495 -0.21242127398358265 -0.7860165765086877
    outer loop
      vertex 0.059463786687828826 -0.04556091036028048 0.10621216893196106
      vertex 0.07106677442789078 -0.030171861224483502 0.09348311899949471
      vertex 0.07106677442789078 -0.03782470705098377 0.09555130344833396
    endloop
  endfacet
  facet normal -0.580564504437495 -0.21242127398358265 -0.7860165765086877
    outer loop
      vertex 0.059463786687828826 -0.04556091036028048 0.10621216893196106
      vertex 0.07106677442789078 -0.03782470705098377 0.09555130344833396
      vertex 0.06336788951182643 -0.05623113881142125 0.10621216893196106
    endloop
  endfacet
  facet normal -0.580564504437493 -0.21242127398358515 -0.7860165765086885
    outer loop
      vertex 0.059321510012194115 -0.045172056710484236 0.10621216893196106
      vertex 0.07106677442789078 -0.029217490863624976 0.09322520005228088
      vertex 0.07106677442789078 -0.0301718612244835 0.09348311899949471
    endloop
  endfacet
  facet normal -0.580564504437493 -0.21242127398358515 -0.7860165765086885
    outer loop
      vertex 0.059321510012194115 -0.045172056710484236 0.10621216893196106
      vertex 0.07106677442789078 -0.0301718612244835 0.09348311899949471
      vertex 0.059463786687828826 -0.04556091036028049 0.10621216893196106
    endloop
  endfacet
  facet normal -0.5805645044438752 -0.21242127397913438 -0.7860165765051772
    outer loop
      vertex 0.07106677442789078 -0.037826860635408556 0.09555188545533076
      vertex 0.0633683335710703 -0.0562323524612127 0.10621216893196106
      vertex 0.06336788951182643 -0.05623113881142125 0.10621216893196106
    endloop
  endfacet
  facet normal -0.5805645044438752 -0.21242127397913438 -0.7860165765051772
    outer loop
      vertex 0.07106677442789078 -0.037826860635408556 0.09555188545533076
      vertex 0.06336788951182643 -0.05623113881142125 0.10621216893196106
      vertex 0.07106677442789078 -0.03782470705098378 0.09555130344833396
    endloop
  endfacet
  facet normal -0.5805645044374952 -0.21242127398358593 -0.7860165765086866
    outer loop
      vertex 0.07106677442789078 -0.06981269506673198 0.10419606918172138
      vertex 0.06833093097727279 -0.06979553212690577 0.10621216893196106
      vertex 0.06749282343060652 -0.06750491648671698 0.10621216893196106
    endloop
  endfacet
  facet normal -0.5805645044374952 -0.21242127398358593 -0.7860165765086866
    outer loop
      vertex 0.07106677442789078 -0.06981269506673198 0.10419606918172138
      vertex 0.06749282343060652 -0.06750491648671698 0.10621216893196106
      vertex 0.07106677442789078 -0.06906347314080978 0.1039935916758299
    endloop
  endfacet
  facet normal -0.5805645044374956 -0.21242127398358238 -0.7860165765086872
    outer loop
      vertex 0.07106677442789078 -0.06906347314080978 0.1039935916758299
      vertex 0.06749282343060652 -0.06750491648671698 0.10621216893196106
      vertex 0.0633683335710703 -0.056232352461212706 0.10621216893196106
    endloop
  endfacet
  facet normal -0.5805645044374956 -0.21242127398358238 -0.7860165765086872
    outer loop
      vertex 0.07106677442789078 -0.06906347314080978 0.1039935916758299
      vertex 0.0633683335710703 -0.056232352461212706 0.10621216893196106
      vertex 0.06574581230768461 -0.050548257945631704 0.10291999617083433
    endloop
  endfacet
  facet normal -0.5805645044374956 -0.21242127398358238 -0.7860165765086872
    outer loop
      vertex 0.07106677442789078 -0.06906347314080978 0.1039935916758299
      vertex 0.06574581230768461 -0.050548257945631704 0.10291999617083433
      vertex 0.07106677442789078 -0.0650672570910101 0.10291361279270936
    endloop
  endfacet
  facet normal -0.5805645044374953 -0.21242127398358226 -0.7860165765086876
    outer loop
      vertex 0.07106677442789078 -0.0650672570910101 0.10291361279270936
      vertex 0.06574581230768461 -0.050548257945631704 0.10291999617083433
      vertex 0.07106677442789078 -0.037826860635408556 0.09555188545533076
    endloop
  endfacet
  facet normal -0.5152413685604887 -0.3390681672607809 -0.7871207722289698
    outer loop
      vertex 0.055112987776954406 0.046403206002319494 0.084572402223134
      vertex 0.05024705575999115 0.043856072319384126 0.08885482182163877
      vertex 0.049726976599820394 0.04737076130271227 0.08768123717438486
    endloop
  endfacet
  facet normal -0.5152413685604887 -0.3390681672607809 -0.7871207722289698
    outer loop
      vertex 0.055112987776954406 0.046403206002319494 0.084572402223134
      vertex 0.049726976599820394 0.04737076130271227 0.08768123717438486
      vertex 0.053044925258566696 0.04832366655182468 0.0850988580581794
    endloop
  endfacet
  facet normal -0.515241368560491 -0.3390681672607783 -0.7871207722289695
    outer loop
      vertex 0.05511298777695438 0.04640320600231952 0.084572402223134
      vertex 0.053044925258566696 0.04832366655182468 0.0850988580581794
      vertex 0.06575525931486656 0.05197403769554117 0.07520632969115335
    endloop
  endfacet
  facet normal -0.5152413685604884 -0.33906816726078 -0.7871207722289704
    outer loop
      vertex 0.0479557612216851 0.05934061445850794 0.08368440105028961
      vertex 0.04733211955839778 0.06355517764689012 0.08227712243296992
      vertex 0.05112291045679161 0.061808849939552615 0.08054797462837417
    endloop
  endfacet
  facet normal -0.5152413685604884 -0.33906816726078 -0.7871207722289704
    outer loop
      vertex 0.0479557612216851 0.05934061445850794 0.08368440105028961
      vertex 0.05112291045679161 0.061808849939552615 0.08054797462837417
      vertex 0.04863673580185855 0.05962285775922614 0.08311705991396685
    endloop
  endfacet
  facet normal -0.5152413685604919 -0.3390681672607749 -0.7871207722289705
    outer loop
      vertex 0.05112291045679161 0.061808849939552615 0.08054797462837417
      vertex 0.052443316671186166 0.06120057002674739 0.07994567880990464
      vertex 0.04863673580185855 0.05962285775922614 0.08311705991396685
    endloop
  endfacet
  facet normal -0.5152413685603561 -0.3390681672610463 -0.7871207722289424
    outer loop
      vertex 0.047958104967388615 0.05932477545199756 0.08368968982973966
      vertex 0.0479557612216851 0.05934061445850794 0.08368440105028961
      vertex 0.05122438741872588 0.06069536083748701 0.08096120674196301
    endloop
  endfacet
  facet normal -0.5152413685604899 -0.3390681672607809 -0.787120772228969
    outer loop
      vertex 0.06575525931486624 0.05197403769554108 0.0752063296911536
      vertex 0.049726976599820394 0.04737076130271227 0.08768123717438486
      vertex 0.047958104967388615 0.05932477545199756 0.08368968982973966
    endloop
  endfacet
  facet normal -0.5152413685604899 -0.3390681672607809 -0.787120772228969
    outer loop
      vertex 0.06575525931486624 0.05197403769554108 0.0752063296911536
      vertex 0.047958104967388615 0.05932477545199756 0.08368968982973966
      vertex 0.05122438741872588 0.06069536083748701 0.08096120674196301
    endloop
  endfacet
  facet normal -0.5152413685604899 -0.3390681672607809 -0.787120772228969
    outer loop
      vertex 0.06575525931486624 0.05197403769554108 0.0752063296911536
      vertex 0.05122438741872588 0.06069536083748701 0.08096120674196301
      vertex 0.052443316671186166 0.06120057002674739 0.07994567880990464
    endloop
  endfacet
  facet normal -0.5152413685604899 -0.3390681672607809 -0.787120772228969
    outer loop
      vertex 0.06575525931486624 0.05197403769554108 0.0752063296911536
      vertex 0.052443316671186166 0.06120057002674739 0.07994567880990464
      vertex 0.06889915992764536 0.05361975225108644 0.07243943908253413
    endloop
  endfacet
  facet normal -0.6124078396562505 -0.50637625326007 -0.6070747302119054
    outer loop
      vertex 0.05138294240163646 0.0817558946996957 0.06824628356581199
      vertex 0.05192481295961338 0.08321252465248108 0.06648464114777142
      vertex 0.053115672487928284 0.08321252465248108 0.06528332000100778
    endloop
  endfacet
  facet normal -0.6124078396562525 -0.5063762532600686 -0.6070747302119045
    outer loop
      vertex 0.059024699137236326 0.07094723299843685 0.06955317025031423
      vertex 0.050789925641634745 0.0801617760261378 0.07017420429088025
      vertex 0.05138294240163646 0.0817558946996957 0.06824628356581199
    endloop
  endfacet
  facet normal -0.6124078396562525 -0.5063762532600686 -0.6070747302119045
    outer loop
      vertex 0.059024699137236326 0.07094723299843685 0.06955317025031423
      vertex 0.05138294240163646 0.0817558946996957 0.06824628356581199
      vertex 0.05311567248792829 0.08321252465248108 0.06528332000100778
    endloop
  endfacet
  facet normal -0.6124078396562525 -0.5063762532600686 -0.6070747302119045
    outer loop
      vertex 0.059024699137236326 0.07094723299843685 0.06955317025031423
      vertex 0.05311567248792829 0.08321252465248108 0.06528332000100778
      vertex 0.06226152177684508 0.08321252465248108 0.05605712505974886
    endloop
  endfacet
  facet normal -0.6124078396562525 -0.5063762532600686 -0.6070747302119045
    outer loop
      vertex 0.059024699137236326 0.07094723299843685 0.06955317025031423
      vertex 0.06226152177684508 0.08321252465248108 0.05605712505974886
      vertex 0.061889172002914446 0.07790410354656359 0.060860633039685086
    endloop
  endfacet
  facet normal -0.6124078396562531 -0.5063762532600675 -0.607074730211905
    outer loop
      vertex 0.06407490021394004 0.08321252465248108 0.05422781621872213
      vertex 0.061889172002914446 0.07790410354656359 0.060860633039685086
      vertex 0.06226152177684508 0.08321252465248108 0.05605712505974886
    endloop
  endfacet
  facet normal -0.6124078396562518 -0.5063762532600687 -0.6070747302119052
    outer loop
      vertex 0.061228241222865624 0.06848151449722654 0.0693869878233505
      vertex 0.059024699137236326 0.07094723299843685 0.06955317025031423
      vertex 0.06188917200291451 0.07790410354656374 0.0608606330396849
    endloop
  endfacet
  facet normal -0.6124078396562529 -0.5063762532600682 -0.6070747302119046
    outer loop
      vertex 0.062405119606028486 0.0671646116697453 0.06929823231138155
      vertex 0.061228241222865624 0.06848151449722654 0.0693869878233505
      vertex 0.06188917200291451 0.07790410354656374 0.0608606330396849
    endloop
  endfacet
  facet normal -0.6124078396562529 -0.5063762532600682 -0.6070747302119046
    outer loop
      vertex 0.062405119606028486 0.0671646116697453 0.06929823231138155
      vertex 0.06188917200291451 0.07790410354656374 0.0608606330396849
      vertex 0.06407490021394004 0.08321252465248108 0.054227816218722136
    endloop
  endfacet
  facet normal -0.6124078396562529 -0.5063762532600682 -0.6070747302119046
    outer loop
      vertex 0.062405119606028486 0.0671646116697453 0.06929823231138155
      vertex 0.06407490021394004 0.08321252465248108 0.054227816218722136
      vertex 0.06585830270545309 0.08321252465248108 0.05242874665988239
    endloop
  endfacet
  facet normal -0.6124078396562529 -0.5063762532600682 -0.6070747302119046
    outer loop
      vertex 0.062405119606028486 0.0671646116697453 0.06929823231138155
      vertex 0.06585830270545309 0.08321252465248108 0.05242874665988239
      vertex 0.06832447422730806 0.07654870717578853 0.05549936722694978
    endloop
  endfacet
  facet normal -0.6124078396562528 -0.5063762532600663 -0.6070747302119063
    outer loop
      vertex 0.05023084434838526 0.080787376552416 0.07021636799031133
      vertex 0.04806355886962754 0.08321252465248108 0.07037981608741467
      vertex 0.05192481295961338 0.08321252465248108 0.06648464114777143
    endloop
  endfacet
  facet normal -0.6124078396562528 -0.5063762532600663 -0.6070747302119063
    outer loop
      vertex 0.05023084434838526 0.080787376552416 0.07021636799031133
      vertex 0.05192481295961338 0.08321252465248108 0.06648464114777143
      vertex 0.051382942401636544 0.08175589469969592 0.06824628356581172
    endloop
  endfacet
  facet normal -0.6124078396562491 -0.5063762532600703 -0.6070747302119066
    outer loop
      vertex 0.050789925641634745 0.0801617760261378 0.07017420429088025
      vertex 0.05023084434838526 0.080787376552416 0.07021636799031133
      vertex 0.051382942401636544 0.08175589469969592 0.06824628356581172
    endloop
  endfacet
  facet normal -0.6124078396562525 -0.5063762532600682 -0.6070747302119048
    outer loop
      vertex 0.07106677442789078 0.05747239717352704 0.06864500456991633
      vertex 0.062405119606028486 0.0671646116697453 0.06929823231138155
      vertex 0.06832447422730806 0.07654870717578853 0.05549936722694978
    endloop
  endfacet
  facet normal -0.6124078396562525 -0.5063762532600682 -0.6070747302119048
    outer loop
      vertex 0.07106677442789078 0.05747239717352704 0.06864500456991633
      vertex 0.06832447422730806 0.07654870717578853 0.05549936722694978
      vertex 0.07106677442789078 0.06913876514984403 0.05891379453760524
    endloop
  endfacet
  facet normal -0.5303027567945975 -0.42445320141707177 -0.7339063059702163
    outer loop
      vertex 0.050789925641634745 0.0801617760261378 0.07017420429088025
      vertex 0.05902469913723633 0.07094723299843683 0.06955317025031423
      vertex 0.051122910456791605 0.061808849939552615 0.08054797462837415
    endloop
  endfacet
  facet normal -0.5303027567945975 -0.42445320141707177 -0.7339063059702163
    outer loop
      vertex 0.050789925641634745 0.0801617760261378 0.07017420429088025
      vertex 0.051122910456791605 0.061808849939552615 0.08054797462837415
      vertex 0.04733211955839778 0.06355517764689012 0.08227712243296992
    endloop
  endfacet
  facet normal -0.5303027567945975 -0.4244532014170719 -0.7339063059702162
    outer loop
      vertex 0.05902469913723633 0.07094723299843683 0.06955317025031423
      vertex 0.06122824122286562 0.06848151449722654 0.0693869878233505
      vertex 0.05414229168373138 0.06221773105588122 0.0781297680087451
    endloop
  endfacet
  facet normal -0.5303027567945975 -0.4244532014170719 -0.7339063059702162
    outer loop
      vertex 0.05902469913723633 0.07094723299843683 0.06955317025031423
      vertex 0.05414229168373138 0.06221773105588122 0.0781297680087451
      vertex 0.05244331667118615 0.06120057002674739 0.07994567880990464
    endloop
  endfacet
  facet normal -0.5303027567945975 -0.4244532014170719 -0.7339063059702162
    outer loop
      vertex 0.05902469913723633 0.07094723299843683 0.06955317025031423
      vertex 0.05244331667118615 0.06120057002674739 0.07994567880990464
      vertex 0.051122910456791605 0.061808849939552615 0.08054797462837415
    endloop
  endfacet
  facet normal -0.5303027567945978 -0.4244532014170714 -0.7339063059702163
    outer loop
      vertex 0.06122824122286562 0.06848151449722654 0.0693869878233505
      vertex 0.06240511960602848 0.0671646116697453 0.06929823231138155
      vertex 0.05414229168373138 0.06221773105588122 0.0781297680087451
    endloop
  endfacet
  facet normal -0.5303027567945973 -0.4244532014170734 -0.7339063059702154
    outer loop
      vertex 0.04806355886962754 0.08321252465248108 0.07037981608741466
      vertex 0.05023084434838524 0.08078737655241602 0.07021636799031133
      vertex 0.04246101685116464 0.07832888390629279 0.07725251957246092
    endloop
  endfacet
  facet normal -0.5303027567945973 -0.4244532014170734 -0.7339063059702154
    outer loop
      vertex 0.04806355886962754 0.08321252465248108 0.07037981608741466
      vertex 0.04246101685116464 0.07832888390629279 0.07725251957246092
      vertex 0.04085081049927027 0.08321252465248108 0.07559157174852685
    endloop
  endfacet
  facet normal -0.5303027567945945 -0.42445320141707366 -0.7339063059702173
    outer loop
      vertex 0.05023084434838524 0.08078737655241602 0.07021636799031133
      vertex 0.050789925641634745 0.0801617760261378 0.07017420429088025
      vertex 0.04733211955839778 0.06355517764689012 0.08227712243296992
    endloop
  endfacet
  facet normal -0.5303027567945945 -0.42445320141707366 -0.7339063059702173
    outer loop
      vertex 0.05023084434838524 0.08078737655241602 0.07021636799031133
      vertex 0.04733211955839778 0.06355517764689012 0.08227712243296992
      vertex 0.04246101685116464 0.07832888390629279 0.07725251957246092
    endloop
  endfacet
  facet normal -0.5303027567945974 -0.4244532014170698 -0.7339063059702176
    outer loop
      vertex 0.06240511960602848 0.0671646116697453 0.06929823231138155
      vertex 0.07106677442789078 0.057472397173527034 0.06864500456991633
      vertex 0.07106677442789078 0.05373260524736707 0.070807905532586
    endloop
  endfacet
  facet normal -0.5303027567945974 -0.4244532014170698 -0.7339063059702176
    outer loop
      vertex 0.06240511960602848 0.0671646116697453 0.06929823231138155
      vertex 0.07106677442789078 0.05373260524736707 0.070807905532586
      vertex 0.06889915992764535 0.05361975225108645 0.07243943908253413
    endloop
  endfacet
  facet normal -0.5303027567945974 -0.4244532014170698 -0.7339063059702176
    outer loop
      vertex 0.06240511960602848 0.0671646116697453 0.06929823231138155
      vertex 0.06889915992764535 0.05361975225108645 0.07243943908253413
      vertex 0.05244331667118615 0.06120057002674739 0.07994567880990464
    endloop
  endfacet
  facet normal -0.4652675838781206 0.16973022061002446 -0.8687449151528246
    outer loop
      vertex 0.06949768232643526 -0.08321252465248108 0.10206958163051287
      vertex 0.07106677442789078 -0.07686982876340664 0.10246843228914089
      vertex 0.07106677442789078 -0.08321252465248108 0.10122923404609216
    endloop
  endfacet
  facet normal -0.6380689721933103 0.2045286471228831 -0.7423180041129649
    outer loop
      vertex 0.0678978109857758 -0.0731685092815468 0.10621216893196106
      vertex 0.07106677442789078 -0.07101061014491311 0.10408280517326579
      vertex 0.07106677442789078 -0.07686982876340663 0.10246843228914089
    endloop
  endfacet
  facet normal -0.6380689721933103 0.2045286471228831 -0.7423180041129649
    outer loop
      vertex 0.0678978109857758 -0.0731685092815468 0.10621216893196106
      vertex 0.07106677442789078 -0.07686982876340663 0.10246843228914089
      vertex 0.06949768232643525 -0.08321252465248108 0.10206958163051287
    endloop
  endfacet
  facet normal -0.6380689721933103 0.2045286471228831 -0.7423180041129649
    outer loop
      vertex 0.0678978109857758 -0.0731685092815468 0.10621216893196106
      vertex 0.06949768232643525 -0.08321252465248108 0.10206958163051287
      vertex 0.0646782705206797 -0.08321252465248108 0.10621216893196106
    endloop
  endfacet
  facet normal -0.5912193252486856 0.07591777156635365 -0.8029297611951421
    outer loop
      vertex 0.07106677442789078 -0.07101061014491311 0.10408280517326579
      vertex 0.0678978109857758 -0.0731685092815468 0.10621216893196106
      vertex 0.06833093097727279 -0.06979553212690577 0.10621216893196106
    endloop
  endfacet
  facet normal -0.5912193252486856 0.07591777156635365 -0.8029297611951421
    outer loop
      vertex 0.07106677442789078 -0.07101061014491311 0.10408280517326579
      vertex 0.06833093097727279 -0.06979553212690577 0.10621216893196106
      vertex 0.07106677442789078 -0.06981269506673198 0.10419606918172138
    endloop
  endfacet
  facet normal -0.9364422715475341 -0.3392064875523086 -0.08952558774629817
    outer loop
      vertex 0.04097281567103824 0.08212363519136837 0.07844112097426065
      vertex 0.040632389385367056 0.08321252465248108 0.07787626788073324
      vertex 0.04085081049927027 0.08321252465248108 0.07559157174852685
    endloop
  endfacet
  facet normal -0.9364422715475341 -0.3392064875523086 -0.08952558774629817
    outer loop
      vertex 0.04097281567103824 0.08212363519136837 0.07844112097426065
      vertex 0.04085081049927027 0.08321252465248108 0.07559157174852685
      vertex 0.04733211955839778 0.06355517764689012 0.08227712243296992
    endloop
  endfacet
  facet normal -0.25957947116440555 -0.48174066285745354 -0.8369853235867812
    outer loop
      vertex 0.07106677442789078 0.08321252465248108 0.050813410886142316
      vertex 0.07106677442789078 0.07657709072578038 0.05463254396782795
      vertex 0.06832447422730806 0.07654870717578852 0.05549936722694978
    endloop
  endfacet
  facet normal -0.25957947116440555 -0.48174066285745354 -0.8369853235867812
    outer loop
      vertex 0.07106677442789078 0.08321252465248108 0.050813410886142316
      vertex 0.06832447422730806 0.07654870717578852 0.05549936722694978
      vertex 0.06585830270545309 0.08321252465248108 0.05242874665988239
    endloop
  endfacet
  facet normal -0.2595794711644054 -0.48174066285745387 -0.8369853235867812
    outer loop
      vertex 0.07106677442789078 0.06913876514984403 0.05891379453760523
      vertex 0.06832447422730806 0.07654870717578852 0.05549936722694978
      vertex 0.07106677442789078 0.07657709072578038 0.05463254396782795
    endloop
  endfacet
  facet normal -0.9364422715475323 -0.33920648755231203 -0.08952558774630243
    outer loop
      vertex 0.04097281567103824 0.08212363519136837 0.07844112097426065
      vertex 0.04059989406640996 0.08321252465248108 0.07821617059530774
      vertex 0.040632389385367056 0.08321252465248108 0.07787626788073324
    endloop
  endfacet
  facet normal -0.8161044138748631 -0.28804961589793576 -0.5010000044261654
    outer loop
      vertex 0.050247055759991166 0.04385607231938402 0.08885482182163881
      vertex 0.04905525443361189 0.047338533242756796 0.08879396911072522
      vertex 0.049726976599820394 0.04737076130271227 0.08768123717438486
    endloop
  endfacet
  facet normal -0.8161044138748644 -0.2880496158979333 -0.5010000044261647
    outer loop
      vertex 0.046126334218736985 0.055896880989327616 0.08864442007836587
      vertex 0.04539677893133842 0.05802865221962487 0.0886071693923523
      vertex 0.04733211955839778 0.06355517764689012 0.08227712243296992
    endloop
  endfacet
  facet normal -0.8161044138748644 -0.2880496158979333 -0.5010000044261647
    outer loop
      vertex 0.046126334218736985 0.055896880989327616 0.08864442007836587
      vertex 0.04733211955839778 0.06355517764689012 0.08227712243296992
      vertex 0.0479557612216851 0.059340614458507926 0.08368440105028961
    endloop
  endfacet
  facet normal -0.8161044138746005 -0.28804961589834893 -0.501000004426356
    outer loop
      vertex 0.04613389783762437 0.055874779984209075 0.08864480627252712
      vertex 0.046126334218736985 0.055896880989327616 0.08864442007836587
      vertex 0.0479557612216851 0.059340614458507926 0.08368440105028961
    endloop
  endfacet
  facet normal -0.8161044138746005 -0.28804961589834893 -0.501000004426356
    outer loop
      vertex 0.04613389783762437 0.055874779984209075 0.08864480627252712
      vertex 0.0479557612216851 0.059340614458507926 0.08368440105028961
      vertex 0.047958104967388615 0.059324775451997554 0.08368968982973966
    endloop
  endfacet
  facet normal -0.8161044138748716 -0.2880496158979253 -0.5010000044261577
    outer loop
      vertex 0.04613389783762438 0.055874779984209096 0.08864480627252709
      vertex 0.047958104967388615 0.059324775451997554 0.08368968982973966
      vertex 0.04801323564652213 0.058952202956436786 0.08381409496568576
    endloop
  endfacet
  facet normal -0.8161044138748716 -0.2880496158979253 -0.5010000044261577
    outer loop
      vertex 0.04613389783762438 0.055874779984209096 0.08864480627252709
      vertex 0.04801323564652213 0.058952202956436786 0.08381409496568576
      vertex 0.0467609647605171 0.0540424812554036 0.08867682395981911
    endloop
  endfacet
  facet normal -0.8161044138748654 -0.28804961589793443 -0.5010000044261628
    outer loop
      vertex 0.04676096476051709 0.05404248125540355 0.08867682395981917
      vertex 0.04801323564652213 0.058952202956436786 0.08381409496568576
      vertex 0.049726976599820394 0.04737076130271227 0.08768123717438486
    endloop
  endfacet
  facet normal -0.8161044138748654 -0.28804961589793443 -0.5010000044261628
    outer loop
      vertex 0.04676096476051709 0.05404248125540355 0.08867682395981917
      vertex 0.049726976599820394 0.04737076130271227 0.08768123717438486
      vertex 0.0490552544336119 0.047338533242756796 0.08879396911072521
    endloop
  endfacet
  facet normal -0.9364422715475338 -0.33920648755230903 -0.08952558774629955
    outer loop
      vertex 0.04017803971905203 0.08321252465248108 0.08262878885615112
      vertex 0.04059989406640996 0.08321252465248108 0.07821617059530774
      vertex 0.04733211955839778 0.06355517764689012 0.08227712243296992
    endloop
  endfacet
  facet normal -0.9458602725952344 -0.03797927780149764 -0.3223444108151182
    outer loop
      vertex 0.04575938907180409 0.06325197882431795 0.08692773373188806
      vertex 0.04733211955839778 0.06355517764689012 0.08227712243296992
      vertex 0.045396778931338415 0.058028652219624846 0.08860716939235232
    endloop
  endfacet
  facet normal -0.9364422715475338 -0.33920648755230903 -0.08952558774629939
    outer loop
      vertex 0.0398666582961853 0.08321252465248108 0.08588585462122994
      vertex 0.04017803971905203 0.08321252465248108 0.08262878885615112
      vertex 0.04733211955839778 0.06355517764689012 0.08227712243296992
    endloop
  endfacet
  facet normal -0.9364422715475338 -0.33920648755230903 -0.08952558774629939
    outer loop
      vertex 0.0398666582961853 0.08321252465248108 0.08588585462122994
      vertex 0.04733211955839778 0.06355517764689012 0.08227712243296992
      vertex 0.04547298678377837 0.06772333140801147 0.08593089036591119
    endloop
  endfacet
  facet normal -0.9362936841891775 -0.13248801861284865 -0.3252707516385363
    outer loop
      vertex 0.045472986783778375 0.06772333140801147 0.08593089036591119
      vertex 0.04733211955839778 0.06355517764689012 0.08227712243296992
      vertex 0.045759389071804095 0.06325197882431795 0.08692773373188806
    endloop
  endfacet
  facet normal -0.9458602725952348 -0.03797927780149738 -0.3223444108151173
    outer loop
      vertex 0.04152670176727749 0.046977326394279414 0.101265287473696
      vertex 0.04001424842769577 0.042658390635951914 0.10621216893196106
      vertex 0.03982091580727354 0.04747327010811801 0.10621216893196106
    endloop
  endfacet
  facet normal -0.9458602725952345 -0.03797927780149696 -0.32234441081511744
    outer loop
      vertex 0.04575938907180409 0.06325197882431795 0.08692773373188806
      vertex 0.045396778931338415 0.058028652219624846 0.08860716939235232
      vertex 0.041795057237345404 0.04774363766173287 0.10038755943782146
    endloop
  endfacet
  facet normal -0.9458602725952345 -0.03797927780149696 -0.32234441081511744
    outer loop
      vertex 0.04575938907180409 0.06325197882431795 0.08692773373188806
      vertex 0.041795057237345404 0.04774363766173287 0.10038755943782146
      vertex 0.04146473999524347 0.04699534128715525 0.10144498032402033
    endloop
  endfacet
  facet normal -0.9458602725952345 -0.03797927780149696 -0.32234441081511744
    outer loop
      vertex 0.04575938907180409 0.06325197882431795 0.08692773373188806
      vertex 0.04146473999524347 0.04699534128715525 0.10144498032402033
      vertex 0.03982091580727354 0.047473270108118006 0.10621216893196106
    endloop
  endfacet
  facet normal -0.9458602725952345 -0.03797927780149696 -0.32234441081511744
    outer loop
      vertex 0.04575938907180409 0.06325197882431795 0.08692773373188806
      vertex 0.03982091580727354 0.047473270108118006 0.10621216893196106
      vertex 0.03923783368768703 0.061994720870295526 0.10621216893196106
    endloop
  endfacet
  facet normal -0.9458602725952516 -0.03797927780143527 -0.3223444108150751
    outer loop
      vertex 0.041795057237345404 0.04774363766173287 0.10038755943782146
      vertex 0.0417176958065976 0.04752272568988687 0.10064059060072464
      vertex 0.04148313075634557 0.04698999431949626 0.10139164601524274
    endloop
  endfacet
  facet normal -0.9458602725952516 -0.03797927780143527 -0.3223444108150751
    outer loop
      vertex 0.041795057237345404 0.04774363766173287 0.10038755943782146
      vertex 0.04148313075634557 0.04698999431949626 0.10139164601524274
      vertex 0.04146473999524347 0.04699534128715525 0.10144498032402033
    endloop
  endfacet
  facet normal -0.9458602725952479 -0.037979277801450446 -0.322344410815084
    outer loop
      vertex 0.0417176958065976 0.04752272568988687 0.10064059060072464
      vertex 0.04152670176727749 0.046977326394279414 0.101265287473696
      vertex 0.04148313075634557 0.04698999431949626 0.10139164601524274
    endloop
  endfacet
  facet normal -0.9364422715475339 -0.33920648755230887 -0.08952558774629918
    outer loop
      vertex 0.0398666582961853 0.08321252465248108 0.08588585462122994
      vertex 0.04547298678377837 0.06772333140801147 0.08593089036591119
      vertex 0.038564300477191664 0.08321252465248108 0.09950858467067891
    endloop
  endfacet
  facet normal -0.9362936841891772 -0.13248801861285026 -0.32527075163853625
    outer loop
      vertex 0.045472986783778375 0.06772333140801147 0.08593089036591119
      vertex 0.045759389071804095 0.06325197882431795 0.08692773373188806
      vertex 0.03923783368768703 0.061994720870295526 0.10621216893196106
    endloop
  endfacet
  facet normal -0.9362936841891772 -0.13248801861285026 -0.32527075163853625
    outer loop
      vertex 0.045472986783778375 0.06772333140801147 0.08593089036591119
      vertex 0.03923783368768703 0.061994720870295526 0.10621216893196106
      vertex 0.03645714087406004 0.08164589496383495 0.10621216893196106
    endloop
  endfacet
  facet normal -0.9362936841891772 -0.13248801861285026 -0.32527075163853625
    outer loop
      vertex 0.045472986783778375 0.06772333140801147 0.08593089036591119
      vertex 0.03645714087406004 0.08164589496383495 0.10621216893196106
      vertex 0.036413939814543175 0.08321252465248108 0.10569840990711465
    endloop
  endfacet
  facet normal -0.9362936841891772 -0.13248801861285026 -0.32527075163853625
    outer loop
      vertex 0.045472986783778375 0.06772333140801147 0.08593089036591119
      vertex 0.036413939814543175 0.08321252465248108 0.10569840990711465
      vertex 0.038564300477191664 0.08321252465248108 0.09950858467067891
    endloop
  endfacet
  facet normal -0.8884909048543804 0.1206905152151767 0.4427388751037565
    outer loop
      vertex 0.036669948167011544 0.08321252465248108 0.10621216893196106
      vertex 0.036413939814543175 0.08321252465248108 0.10569840990711465
      vertex 0.03645714087406004 0.08164589496383494 0.10621216893196106
    endloop
  endfacet
  facet normal -0.5152413685604897 -0.33906816726078054 -0.7871207722289693
    outer loop
      vertex 0.055112987776954406 0.046403206002319494 0.084572402223134
      vertex 0.0696168561171681 0.032934509231820994 0.08088022848537454
      vertex 0.0556743714298662 0.007178335438538852 0.1011018311882026
    endloop
  endfacet
  facet normal -0.5152413685604897 -0.33906816726078054 -0.7871207722289693
    outer loop
      vertex 0.055112987776954406 0.046403206002319494 0.084572402223134
      vertex 0.0556743714298662 0.007178335438538852 0.1011018311882026
      vertex 0.05024705575999115 0.043856072319384126 0.08885482182163877
    endloop
  endfacet
  facet normal -0.5152413685604892 -0.3390681672607823 -0.7871207722289689
    outer loop
      vertex 0.07106677442789078 0.03561296639599107 0.07877732698047331
      vertex 0.0696168561171681 0.032934509231820994 0.08088022848537454
      vertex 0.05511298777695438 0.04640320600231952 0.084572402223134
    endloop
  endfacet
  facet normal -0.5152413685604892 -0.3390681672607823 -0.7871207722289689
    outer loop
      vertex 0.07106677442789078 0.03561296639599107 0.07877732698047331
      vertex 0.05511298777695438 0.04640320600231952 0.084572402223134
      vertex 0.06575525931486656 0.05197403769554117 0.07520632969115335
    endloop
  endfacet
  facet normal -0.5152413685604892 -0.3390681672607823 -0.7871207722289689
    outer loop
      vertex 0.07106677442789078 0.03561296639599107 0.07877732698047331
      vertex 0.06575525931486656 0.05197403769554117 0.07520632969115335
      vertex 0.0698923699398187 0.05316220388982014 0.07198639195910146
    endloop
  endfacet
  facet normal -0.5152413685604892 -0.3390681672607823 -0.7871207722289689
    outer loop
      vertex 0.07106677442789078 0.03561296639599107 0.07877732698047331
      vertex 0.0698923699398187 0.05316220388982014 0.07198639195910146
      vertex 0.07106677442789078 0.052621183519107856 0.0714506940014226
    endloop
  endfacet
  facet normal -0.5152413685604894 -0.33906816726078226 -0.7871207722289688
    outer loop
      vertex 0.06575525931486624 0.05197403769554108 0.0752063296911536
      vertex 0.06889915992764536 0.05361975225108644 0.07243943908253413
      vertex 0.0698923699398187 0.05316220388982014 0.07198639195910146
    endloop
  endfacet
  facet normal -0.6533331505841516 -0.11106606091481151 -0.7488792455801228
    outer loop
      vertex 0.07106677442789078 -0.01551262107403533 0.09103856393650903
      vertex 0.0556743714298662 0.007178335438538852 0.1011018311882026
      vertex 0.07106677442789078 0.012518873901364951 0.08688122115147928
    endloop
  endfacet
  facet normal -0.6035023283288342 -0.26401692407003324 -0.7523828835814079
    outer loop
      vertex 0.0556743714298662 0.007178335438538852 0.1011018311882026
      vertex 0.06961685611716809 0.032934509231820994 0.08088022848537454
      vertex 0.07106677442789078 0.029783176696985533 0.08082304489603785
    endloop
  endfacet
  facet normal -0.6035023283288342 -0.26401692407003324 -0.7523828835814079
    outer loop
      vertex 0.0556743714298662 0.007178335438538852 0.1011018311882026
      vertex 0.07106677442789078 0.029783176696985533 0.08082304489603785
      vertex 0.07106677442789078 0.012518873901364951 0.08688122115147928
    endloop
  endfacet
  facet normal -0.6035023283288333 -0.2640169240700327 -0.7523828835814088
    outer loop
      vertex 0.06961685611716809 0.032934509231820994 0.08088022848537454
      vertex 0.07106677442789078 0.0356129663959911 0.0787773269804733
      vertex 0.07106677442789078 0.029783176696985533 0.08082304489603785
    endloop
  endfacet
  facet normal -0.5303027567945989 -0.4244532014170665 -0.7339063059702183
    outer loop
      vertex 0.07106677442789078 0.052621183519107856 0.07145069400142258
      vertex 0.06989236993981872 0.05316220388982013 0.07198639195910145
      vertex 0.07106677442789078 0.053468988059049774 0.07096036799083115
    endloop
  endfacet
  facet normal -0.5303027567945977 -0.4244532014170693 -0.7339063059702177
    outer loop
      vertex 0.07106677442789078 0.05373260524736707 0.070807905532586
      vertex 0.07106677442789078 0.053468988059049774 0.07096036799083115
      vertex 0.06989236993981872 0.05316220388982013 0.07198639195910145
    endloop
  endfacet
  facet normal -0.5303027567945977 -0.4244532014170693 -0.7339063059702177
    outer loop
      vertex 0.07106677442789078 0.05373260524736707 0.070807905532586
      vertex 0.06989236993981872 0.05316220388982013 0.07198639195910145
      vertex 0.06889915992764535 0.05361975225108645 0.07243943908253413
    endloop
  endfacet
  facet normal -0.6597309890613886 -0.1184058001189036 -0.742115279838843
    outer loop
      vertex 0.052741839487108554 -0.008511584513567455 0.10621216893196106
      vertex 0.0556743714298662 0.007178335438538852 0.1011018311882026
      vertex 0.06626170562803191 -0.008429152223101704 0.09418002869038533
    endloop
  endfacet
  facet normal -0.6597309890613886 -0.1184058001189036 -0.742115279838843
    outer loop
      vertex 0.052741839487108554 -0.008511584513567455 0.10621216893196106
      vertex 0.06626170562803191 -0.008429152223101704 0.09418002869038533
      vertex 0.05650106485647299 -0.029457158704569608 0.10621216893196106
    endloop
  endfacet
  facet normal -0.6597309890613882 -0.11840580011890407 -0.7421152798388433
    outer loop
      vertex 0.07106677442789078 -0.029217490863624976 0.09322520005228088
      vertex 0.05932151001219411 -0.045172056710484236 0.10621216893196106
      vertex 0.05650106485647299 -0.02945715870456961 0.10621216893196106
    endloop
  endfacet
  facet normal -0.6597309890613882 -0.11840580011890407 -0.7421152798388433
    outer loop
      vertex 0.07106677442789078 -0.029217490863624976 0.09322520005228088
      vertex 0.05650106485647299 -0.02945715870456961 0.10621216893196106
      vertex 0.06626170562803191 -0.008429152223101704 0.09418002869038533
    endloop
  endfacet
  facet normal -0.6597309890613882 -0.11840580011890407 -0.7421152798388433
    outer loop
      vertex 0.07106677442789078 -0.029217490863624976 0.09322520005228088
      vertex 0.06626170562803191 -0.008429152223101704 0.09418002869038533
      vertex 0.07106677442789078 -0.015512621074035336 0.09103856393650903
    endloop
  endfacet
  facet normal -0.8077490035153058 -0.04058543357223704 -0.5881278516630413
    outer loop
      vertex 0.05229126310082694 4.559832808903527E-4 0.10621216893196106
      vertex 0.0556743714298662 0.007178335438538852 0.1011018311882026
      vertex 0.052741839487108554 -0.008511584513567455 0.10621216893196106
    endloop
  endfacet
  facet normal -0.8161044138748634 -0.28804961589793426 -0.5010000044261658
    outer loop
      vertex 0.050247055759991166 0.04385607231938402 0.08885482182163881
      vertex 0.0556743714298662 0.007178335438538852 0.1011018311882026
      vertex 0.04966798249554855 0.01530735613243646 0.10621216893196106
    endloop
  endfacet
  facet normal -0.8161044138748634 -0.28804961589793426 -0.5010000044261658
    outer loop
      vertex 0.050247055759991166 0.04385607231938402 0.08885482182163881
      vertex 0.04966798249554855 0.01530735613243646 0.10621216893196106
      vertex 0.04001424842769577 0.04265839063595192 0.10621216893196106
    endloop
  endfacet
  facet normal -0.8161044138748634 -0.28804961589793426 -0.5010000044261658
    outer loop
      vertex 0.050247055759991166 0.04385607231938402 0.08885482182163881
      vertex 0.04001424842769577 0.04265839063595192 0.10621216893196106
      vertex 0.04152670176727749 0.046977326394279414 0.10126528747369601
    endloop
  endfacet
  facet normal -0.8161044138748634 -0.28804961589793426 -0.5010000044261658
    outer loop
      vertex 0.050247055759991166 0.04385607231938402 0.08885482182163881
      vertex 0.04152670176727749 0.046977326394279414 0.10126528747369601
      vertex 0.04905525443361189 0.047338533242756796 0.08879396911072522
    endloop
  endfacet
  facet normal -0.8161044138748645 -0.2880496158979333 -0.5010000044261647
    outer loop
      vertex 0.046126334218736985 0.055896880989327616 0.08864442007836587
      vertex 0.041795057237345376 0.04774363766173279 0.10038755943782156
      vertex 0.04539677893133842 0.05802865221962487 0.0886071693923523
    endloop
  endfacet
  facet normal -0.8161044138748449 -0.28804961589796446 -0.5010000044261789
    outer loop
      vertex 0.04613389783762437 0.055874779984209075 0.08864480627252712
      vertex 0.041717695806597614 0.047522725689886906 0.10064059060072461
      vertex 0.041795057237345376 0.04774363766173279 0.10038755943782156
    endloop
  endfacet
  facet normal -0.8161044138748449 -0.28804961589796446 -0.5010000044261789
    outer loop
      vertex 0.04613389783762437 0.055874779984209075 0.08864480627252712
      vertex 0.041795057237345376 0.04774363766173279 0.10038755943782156
      vertex 0.046126334218736985 0.055896880989327616 0.08864442007836587
    endloop
  endfacet
  facet normal -0.8161044138748628 -0.28804961589793554 -0.5010000044261661
    outer loop
      vertex 0.04152670176727749 0.046977326394279414 0.10126528747369601
      vertex 0.041717695806597614 0.047522725689886906 0.10064059060072461
      vertex 0.04613389783762438 0.055874779984209096 0.08864480627252709
    endloop
  endfacet
  facet normal -0.8161044138748628 -0.28804961589793554 -0.5010000044261661
    outer loop
      vertex 0.04152670176727749 0.046977326394279414 0.10126528747369601
      vertex 0.04613389783762438 0.055874779984209096 0.08864480627252709
      vertex 0.0467609647605171 0.0540424812554036 0.08867682395981911
    endloop
  endfacet
  facet normal -0.8161044138748628 -0.28804961589793554 -0.5010000044261661
    outer loop
      vertex 0.04152670176727749 0.046977326394279414 0.10126528747369601
      vertex 0.0467609647605171 0.0540424812554036 0.08867682395981911
      vertex 0.04500145187904753 0.047144038854528426 0.09550923889487245
    endloop
  endfacet
  facet normal -0.816104413874863 -0.2880496158979351 -0.5010000044261661
    outer loop
      vertex 0.04676096476051709 0.05404248125540355 0.08867682395981917
      vertex 0.0490552544336119 0.047338533242756796 0.08879396911072521
      vertex 0.04500145187904753 0.047144038854528426 0.09550923889487245
    endloop
  endfacet
  facet normal -0.8493376983932106 0.0379462409416892 -0.5264841468520387
    outer loop
      vertex 0.052418619229963236 0.005209200393763562 0.10621216893196106
      vertex 0.0556743714298662 0.007178335438538852 0.1011018311882026
      vertex 0.05224626737304604 0.0013515078836465752 0.10621216893196106
    endloop
  endfacet
  facet normal -0.7845045710453024 -0.21369120731317087 -0.5821414312055667
    outer loop
      vertex 0.04966798249554856 0.015307356132436462 0.10621216893196106
      vertex 0.0556743714298662 0.007178335438538852 0.1011018311882026
      vertex 0.052418619229963236 0.005209200393763563 0.10621216893196106
    endloop
  endfacet
  facet normal -0.8077490035153024 -0.04058543357224206 -0.5881278516630456
    outer loop
      vertex 0.05224626737304604 0.0013515078836465744 0.10621216893196106
      vertex 0.0556743714298662 0.007178335438538852 0.1011018311882026
      vertex 0.05229126310082694 4.559832808903536E-4 0.10621216893196106
    endloop
  endfacet
endsolid v3d.csg
