solid v3d.csg
  facet normal 1.0 -0.0 -0.0
    outer loop
      vertex 0.07106677442789078 0.08321252465248108 0.058180140151391634
      vertex 0.07106677442789078 0.08321252465248108 0.10621216893196106
      vertex 0.07106677442789078 0.018013126819441724 0.10621216893196106
    endloop
  endfacet
  facet normal 1.0 -0.0 -0.0
    outer loop
      vertex 0.07106677442789078 0.08321252465248108 0.058178957411308144
      vertex 0.07106677442789078 0.08321252465248108 0.058180140151391634
      vertex 0.07106677442789078 0.018013126819441724 0.10621216893196106
    endloop
  endfacet
  facet normal 1.0 -0.0 -0.0
    outer loop
      vertex 0.07106677442789078 0.08321252465248108 0.058178957411308144
      vertex 0.07106677442789078 0.018013126819441724 0.10621216893196106
      vertex 0.07106677442789078 0.018011173821046084 0.10621216893196106
    endloop
  endfacet
  facet normal 1.0 -0.0 -0.0
    outer loop
      vertex 0.07106677442789078 -0.05074493684409873 0.10440142367952976
      vertex 0.07106677442789078 -0.02320451077615378 0.07523123208708046
      vertex 0.07106677442789078 -0.010467992624677895 0.06667224900456163
    endloop
  endfacet
  facet normal 1.0 -0.0 -0.0
    outer loop
      vertex 0.07106677442789078 -0.05074493684409873 0.10440142367952976
      vertex 0.07106677442789078 -0.010467992624677895 0.06667224900456163
      vertex 0.07106677442789078 0.00880096689478218 0.05399294445771441
    endloop
  endfacet
  facet normal 1.0 -0.0 -0.0
    outer loop
      vertex 0.07106677442789078 -0.05074493684409873 0.10440142367952976
      vertex 0.07106677442789078 0.00880096689478218 0.05399294445771441
      vertex 0.07106677442789078 0.06013706620015216 0.03353015096161875
    endloop
  endfacet
  facet normal 1.0 -0.0 -0.0
    outer loop
      vertex 0.07106677442789078 -0.05074493684409873 0.10440142367952976
      vertex 0.07106677442789078 0.06013706620015216 0.03353015096161875
      vertex 0.07106677442789078 0.08082579386812401 0.029954816142877722
    endloop
  endfacet
  facet normal 1.0 -0.0 -0.0
    outer loop
      vertex 0.07106677442789078 -0.05074493684409873 0.10440142367952976
      vertex 0.07106677442789078 0.08082579386812401 0.029954816142877722
      vertex 0.07106677442789078 0.08321252465248108 0.030421121424784783
    endloop
  endfacet
  facet normal 1.0 -0.0 -0.0
    outer loop
      vertex 0.07106677442789078 -0.05074493684409873 0.10440142367952976
      vertex 0.07106677442789078 0.08321252465248108 0.030421121424784783
      vertex 0.07106677442789078 0.08321252465248108 0.058178957411308144
    endloop
  endfacet
  facet normal 1.0 -0.0 -0.0
    outer loop
      vertex 0.07106677442789078 -0.05074493684409873 0.10440142367952976
      vertex 0.07106677442789078 0.08321252465248108 0.058178957411308144
      vertex 0.07106677442789078 0.018011173821046084 0.10621216893196106
    endloop
  endfacet
  facet normal 1.0 -0.0 -0.0
    outer loop
      vertex 0.07106677442789078 -0.05074493684409873 0.10440142367952976
      vertex 0.07106677442789078 0.018011173821046084 0.10621216893196106
      vertex 0.07106677442789078 -0.05155994763319472 0.10621216893196106
    endloop
  endfacet
  facet normal 1.0 -0.0 -0.0
    outer loop
      vertex 0.07106677442789078 0.008800966894782275 0.05399294445771437
      vertex 0.07106677442789078 0.011601331444277767 0.052150256743860944
      vertex 0.07106677442789078 0.05982563438449329 0.03358397123670085
    endloop
  endfacet
  facet normal 1.0 -0.0 -0.0
    outer loop
      vertex 0.07106677442789078 0.008800966894782275 0.05399294445771437
      vertex 0.07106677442789078 0.05982563438449329 0.03358397123670085
      vertex 0.07106677442789078 0.06013706620015216 0.03353015096161875
    endloop
  endfacet
  facet normal 1.0 -0.0 -0.0
    outer loop
      vertex 0.07106677442789078 -0.02775677660764157 0.0782903700536304
      vertex 0.07106677442789078 -0.023204510776153812 0.07523123208708048
      vertex 0.07106677442789078 -0.03803457727313261 0.09093890051524416
    endloop
  endfacet
  facet normal 1.0 -0.0 -0.0
    outer loop
      vertex 0.07106677442789078 0.07296139643848655 0.028418316892735364
      vertex 0.07106677442789078 0.08082579386812407 0.029954816142877712
      vertex 0.07106677442789078 0.060137066200152266 0.03353015096161873
    endloop
  endfacet
  facet normal 1.0 -0.0 -0.0
    outer loop
      vertex 0.07106677442789078 0.06499384045188902 0.03159421952321184
      vertex 0.07106677442789078 0.060137066200152266 0.03353015096161873
      vertex 0.07106677442789078 0.059825634384493225 0.03358397123670086
    endloop
  endfacet
  facet normal -0.0 1.0 -0.0
    outer loop
      vertex 0.04819887533096158 0.08321252465248108 0.04956913205017551
      vertex 0.03592249229096395 0.08321252465248108 0.060121454727493494
      vertex 0.01621423658476454 0.08321252465248108 0.08624973815434218
    endloop
  endfacet
  facet normal -0.0 1.0 -0.0
    outer loop
      vertex 0.04819887533096158 0.08321252465248108 0.04956913205017551
      vertex 0.01621423658476454 0.08321252465248108 0.08624973815434218
      vertex 0.010186592902761162 0.08321252465248108 0.09951835938074752
    endloop
  endfacet
  facet normal -0.0 1.0 -0.0
    outer loop
      vertex 0.04819887533096158 0.08321252465248108 0.04956913205017551
      vertex 0.010186592902761162 0.08321252465248108 0.09951835938074752
      vertex 0.014251201665418302 0.08321252465248108 0.10621216893196106
    endloop
  endfacet
  facet normal -0.0 1.0 -0.0
    outer loop
      vertex 0.04819887533096158 0.08321252465248108 0.04956913205017551
      vertex 0.014251201665418302 0.08321252465248108 0.10621216893196106
      vertex 0.07106677442789078 0.08321252465248108 0.10621216893196106
    endloop
  endfacet
  facet normal -0.0 1.0 -0.0
    outer loop
      vertex 0.04819887533096158 0.08321252465248108 0.04956913205017551
      vertex 0.07106677442789078 0.08321252465248108 0.10621216893196106
      vertex 0.07106677442789078 0.08321252465248108 0.05818014015139162
    endloop
  endfacet
  facet normal -0.0 1.0 0.0
    outer loop
      vertex 0.01621423658476454 0.08321252465248108 0.08624973815434218
      vertex 0.01614790373413295 0.08321252465248108 0.08633767914453686
      vertex 0.010178994027282647 0.08321252465248108 0.09950584515656834
    endloop
  endfacet
  facet normal -0.0 1.0 0.0
    outer loop
      vertex 0.01621423658476454 0.08321252465248108 0.08624973815434218
      vertex 0.010178994027282647 0.08321252465248108 0.09950584515656834
      vertex 0.010186592902761162 0.08321252465248108 0.09951835938074752
    endloop
  endfacet
  facet normal -0.0 1.0 -0.0
    outer loop
      vertex 0.04819887533096158 0.08321252465248108 0.04956913205017551
      vertex 0.047650859106966176 0.08321252465248108 0.04936277412790114
      vertex 0.03952389768416268 0.08321252465248108 0.05534687993755517
    endloop
  endfacet
  facet normal -0.0 1.0 -0.0
    outer loop
      vertex 0.04819887533096158 0.08321252465248108 0.04956913205017551
      vertex 0.03952389768416268 0.08321252465248108 0.05534687993755517
      vertex 0.03592249229096395 0.08321252465248108 0.060121454727493494
    endloop
  endfacet
  facet normal -0.0 1.0 -0.0
    outer loop
      vertex 0.016939115818218647 0.08321252465248108 0.08459216571148748
      vertex 0.016147903734132954 0.08321252465248108 0.08633767914453684
      vertex 0.021227711915993402 0.08321252465248108 0.07960310709979093
    endloop
  endfacet
  facet normal 0.0 1.0 -0.0
    outer loop
      vertex 0.010186592902761166 0.08321252465248108 0.09951835938074753
      vertex 0.008183415443993473 0.08321252465248108 0.10392794368132911
      vertex 0.007885032736807775 0.08321252465248108 0.10621216893196106
    endloop
  endfacet
  facet normal 0.0 1.0 -0.0
    outer loop
      vertex 0.010186592902761166 0.08321252465248108 0.09951835938074753
      vertex 0.007885032736807775 0.08321252465248108 0.10621216893196106
      vertex 0.014251201665418302 0.08321252465248108 0.10621216893196106
    endloop
  endfacet
  facet normal -0.0 1.0 -0.0
    outer loop
      vertex 0.010186592902761166 0.08321252465248108 0.09951835938074753
      vertex 0.010178994027282654 0.08321252465248108 0.09950584515656835
      vertex 0.008187012471335567 0.08321252465248108 0.10390040716368197
    endloop
  endfacet
  facet normal -0.0 1.0 -0.0
    outer loop
      vertex 0.010186592902761166 0.08321252465248108 0.09951835938074753
      vertex 0.008187012471335567 0.08321252465248108 0.10390040716368197
      vertex 0.008183415443993473 0.08321252465248108 0.10392794368132911
    endloop
  endfacet
  facet normal 0.0 1.0 0.0
    outer loop
      vertex 0.008109574793714264 0.08321252465248108 0.10449321999871933
      vertex 0.00782791050468187 0.08321252465248108 0.10621216893196106
      vertex 0.007885032736807775 0.08321252465248108 0.10621216893196106
    endloop
  endfacet
  facet normal 0.0 1.0 -0.0
    outer loop
      vertex 0.04819979491101733 0.08321252465248108 0.04956834161333069
      vertex 0.048198875330961566 0.08321252465248108 0.04956913205017551
      vertex 0.07106677442789078 0.08321252465248108 0.05818014015139162
    endloop
  endfacet
  facet normal 0.0 1.0 -0.0
    outer loop
      vertex 0.04819979491101733 0.08321252465248108 0.04956834161333069
      vertex 0.07106677442789078 0.08321252465248108 0.05818014015139162
      vertex 0.07106677442789078 0.08321252465248108 0.05817895741130813
    endloop
  endfacet
  facet normal -0.0 1.0 -0.0
    outer loop
      vertex 0.04819979491101733 0.08321252465248108 0.04956834161333069
      vertex 0.04765187952586835 0.08321252465248108 0.04936202276532379
      vertex 0.04765085910696619 0.08321252465248108 0.04936277412790115
    endloop
  endfacet
  facet normal -0.0 1.0 -0.0
    outer loop
      vertex 0.04819979491101733 0.08321252465248108 0.04956834161333069
      vertex 0.04765085910696619 0.08321252465248108 0.04936277412790115
      vertex 0.048198875330961566 0.08321252465248108 0.04956913205017551
    endloop
  endfacet
  facet normal -0.0 1.0 -0.0
    outer loop
      vertex 0.0694976823264352 0.08321252465248108 0.031261469009205525
      vertex 0.04819979491101732 0.08321252465248108 0.04956834161333068
      vertex 0.07106677442789078 0.08321252465248108 0.05817895741130813
    endloop
  endfacet
  facet normal -0.0 1.0 -0.0
    outer loop
      vertex 0.0694976823264352 0.08321252465248108 0.031261469009205525
      vertex 0.07106677442789078 0.08321252465248108 0.05817895741130813
      vertex 0.07106677442789078 0.08321252465248108 0.030421121424784783
    endloop
  endfacet
  facet normal -0.0 1.0 0.0
    outer loop
      vertex 0.05314776220815534 0.08321252465248108 0.045315252788543786
      vertex 0.04765187952586835 0.08321252465248108 0.04936202276532378
      vertex 0.04819979491101732 0.08321252465248108 0.04956834161333068
    endloop
  endfacet
  facet normal -0.0 -0.0 1.0
    outer loop
      vertex 0.00825151258328924 0.06620881291540417 0.10621216893196106
      vertex 0.01150828220639811 0.01612864923142027 0.10621216893196106
      vertex 0.01164153441138143 0.015454802503322197 0.10621216893196106
    endloop
  endfacet
  facet normal -0.0 -0.0 1.0
    outer loop
      vertex 0.00825151258328924 0.06620881291540417 0.10621216893196106
      vertex 0.01164153441138143 0.015454802503322197 0.10621216893196106
      vertex 0.0181986084948606 0.0010072470749688837 0.10621216893196106
    endloop
  endfacet
  facet normal -0.0 -0.0 1.0
    outer loop
      vertex 0.00825151258328924 0.06620881291540417 0.10621216893196106
      vertex 0.0181986084948606 0.0010072470749688837 0.10621216893196106
      vertex 0.0220174987604393 -0.007057949724292446 0.10621216893196106
    endloop
  endfacet
  facet normal -0.0 -0.0 1.0
    outer loop
      vertex 0.00825151258328924 0.06620881291540417 0.10621216893196106
      vertex 0.0220174987604393 -0.007057949724292446 0.10621216893196106
      vertex 0.07106677442789078 0.018013126819441727 0.10621216893196106
    endloop
  endfacet
  facet normal -0.0 -0.0 1.0
    outer loop
      vertex 0.00825151258328924 0.06620881291540417 0.10621216893196106
      vertex 0.07106677442789078 0.018013126819441727 0.10621216893196106
      vertex 0.07106677442789078 0.08321252465248108 0.10621216893196106
    endloop
  endfacet
  facet normal -0.0 -0.0 1.0
    outer loop
      vertex 0.00825151258328924 0.06620881291540417 0.10621216893196106
      vertex 0.07106677442789078 0.08321252465248108 0.10621216893196106
      vertex 0.014251201665418316 0.08321252465248108 0.10621216893196106
    endloop
  endfacet
  facet normal -0.0 -0.0 1.0
    outer loop
      vertex 0.011440253323833877 0.016472666352471434 0.10621216893196106
      vertex 0.011508282206398109 0.016128649231420294 0.10621216893196106
      vertex 0.008715743205017527 0.05907022216022596 0.10621216893196106
    endloop
  endfacet
  facet normal -0.0 -0.0 1.0
    outer loop
      vertex 0.01819860849485984 0.0010072470749705638 0.10621216893196106
      vertex 0.011790408334924249 0.015126780547974684 0.10621216893196106
      vertex 0.012200545106213174 0.013674686639785816 0.10621216893196106
    endloop
  endfacet
  facet normal -0.0 -0.0 1.0
    outer loop
      vertex 0.00747511629895952 0.07814765339308993 0.10621216893196106
      vertex 0.008251512583289248 0.0662088129154042 0.10621216893196106
      vertex 0.014251201665418316 0.08321252465248108 0.10621216893196106
    endloop
  endfacet
  facet normal -0.0 -0.0 1.0
    outer loop
      vertex 0.00747511629895952 0.07814765339308993 0.10621216893196106
      vertex 0.014251201665418316 0.08321252465248108 0.10621216893196106
      vertex 0.007885032736807771 0.08321252465248108 0.10621216893196106
    endloop
  endfacet
  facet normal -0.0 0.0 1.0
    outer loop
      vertex 0.007434135659661015 0.07877782296645511 0.10621216893196106
      vertex 0.007475116298959516 0.07814765339308989 0.10621216893196106
      vertex 0.007885032736807771 0.08321252465248108 0.10621216893196106
    endloop
  endfacet
  facet normal -0.0 0.0 1.0
    outer loop
      vertex 0.007434135659661015 0.07877782296645511 0.10621216893196106
      vertex 0.007885032736807771 0.08321252465248108 0.10621216893196106
      vertex 0.00782791050468187 0.08321252465248108 0.10621216893196106
    endloop
  endfacet
  facet normal -0.0 0.0 1.0
    outer loop
      vertex 0.022017498760439333 -0.007057949724292434 0.10621216893196106
      vertex 0.022018243158839913 -0.007059521835345715 0.10621216893196106
      vertex 0.07106677442789078 0.01801117382104607 0.10621216893196106
    endloop
  endfacet
  facet normal -0.0 0.0 1.0
    outer loop
      vertex 0.022017498760439333 -0.007057949724292434 0.10621216893196106
      vertex 0.07106677442789078 0.01801117382104607 0.10621216893196106
      vertex 0.07106677442789078 0.018013126819441727 0.10621216893196106
    endloop
  endfacet
  facet normal -0.0 0.0 1.0
    outer loop
      vertex 0.022018243158839924 -0.007059521835345714 0.10621216893196106
      vertex 0.029593454720218224 -0.02305777467576805 0.10621216893196106
      vertex 0.03177409690434347 -0.02573436953379753 0.10621216893196106
    endloop
  endfacet
  facet normal -0.0 0.0 1.0
    outer loop
      vertex 0.022018243158839924 -0.007059521835345714 0.10621216893196106
      vertex 0.03177409690434347 -0.02573436953379753 0.10621216893196106
      vertex 0.05373724259882329 -0.044651910841737544 0.10621216893196106
    endloop
  endfacet
  facet normal -0.0 0.0 1.0
    outer loop
      vertex 0.022018243158839924 -0.007059521835345714 0.10621216893196106
      vertex 0.05373724259882329 -0.044651910841737544 0.10621216893196106
      vertex 0.07106677442789078 -0.0515599476331947 0.10621216893196106
    endloop
  endfacet
  facet normal -0.0 0.0 1.0
    outer loop
      vertex 0.022018243158839924 -0.007059521835345714 0.10621216893196106
      vertex 0.07106677442789078 -0.0515599476331947 0.10621216893196106
      vertex 0.07106677442789078 0.01801117382104607 0.10621216893196106
    endloop
  endfacet
  facet normal -0.0 -0.0 1.0
    outer loop
      vertex 0.03431122397313341 -0.027919676083004174 0.10621216893196106
      vertex 0.03177409690434347 -0.02573436953379753 0.10621216893196106
      vertex 0.031923071811670665 -0.025917226434315276 0.10621216893196106
    endloop
  endfacet
  facet normal -0.8195326253020866 -0.1135095364473916 -0.5616777200503579
    outer loop
      vertex 0.03817680781939714 0.07301808406009513 0.05537488531217605
      vertex 0.011903589606596654 0.015603818807107928 0.10531246540506345
      vertex 0.017196769057790107 0.08048668502226519 0.08447710572897904
    endloop
  endfacet
  facet normal -0.8031533996645976 -0.1368115222196683 -0.579851036038685
    outer loop
      vertex 0.011903589606596654 0.015603818807107928 0.10531246540506345
      vertex 0.03817680781939714 0.07301808406009513 0.05537488531217605
      vertex 0.03757059068694762 0.0667527711522568 0.057692812268291704
    endloop
  endfacet
  facet normal -0.8031533996645976 -0.1368115222196683 -0.579851036038685
    outer loop
      vertex 0.011903589606596654 0.015603818807107928 0.10531246540506345
      vertex 0.03757059068694762 0.0667527711522568 0.057692812268291704
      vertex 0.02343744315919383 0.017032006693584865 0.08899992017726535
    endloop
  endfacet
  facet normal -0.8031533996653416 -0.13681152221891985 -0.5798510360378312
    outer loop
      vertex 0.03757059068694762 0.0667527711522568 0.057692812268291704
      vertex 0.037570245029598104 0.06674919874999752 0.05769413392095562
      vertex 0.02343823551632849 0.017032104807788963 0.08899879953172077
    endloop
  endfacet
  facet normal -0.8031533996653416 -0.13681152221891985 -0.5798510360378312
    outer loop
      vertex 0.03757059068694762 0.0667527711522568 0.057692812268291704
      vertex 0.02343823551632849 0.017032104807788963 0.08899879953172077
      vertex 0.02343744315919383 0.017032006693584865 0.08899992017726535
    endloop
  endfacet
  facet normal -0.8031533996645978 -0.1368115222196688 -0.5798510360386846
    outer loop
      vertex 0.037570245029598104 0.06674919874999752 0.05769413392095562
      vertex 0.03287277045262016 0.018200343024886934 0.07565535996491235
      vertex 0.02343823551632849 0.017032104807788963 0.08899879953172077
    endloop
  endfacet
  facet normal -0.7940840061858319 0.10328454792602036 -0.598968190540681
    outer loop
      vertex 0.017196769057790107 0.08048668502226519 0.08447710572897904
      vertex 0.021227711915993097 0.08321252465248108 0.07960310709979133
      vertex 0.03952389768416269 0.08321252465248108 0.055346879937555174
    endloop
  endfacet
  facet normal -0.7940840061858319 0.10328454792602036 -0.598968190540681
    outer loop
      vertex 0.017196769057790107 0.08048668502226519 0.08447710572897904
      vertex 0.03952389768416269 0.08321252465248108 0.055346879937555174
      vertex 0.03817680781939714 0.07301808406009513 0.05537488531217605
    endloop
  endfacet
  facet normal -0.9086594895218324 -0.06850297940874521 -0.4118801693624592
    outer loop
      vertex 0.016939115818218622 0.08321252465248108 0.08459216571148756
      vertex 0.017196769057790107 0.08048668502226519 0.08447710572897904
      vertex 0.016147903734132957 0.08321252465248108 0.08633767914453684
    endloop
  endfacet
  facet normal -0.7575965660308102 -0.044120964368723925 -0.651230207869305
    outer loop
      vertex 0.0212277119159931 0.08321252465248108 0.07960310709979133
      vertex 0.017196769057790107 0.08048668502226519 0.08447710572897904
      vertex 0.01693911581821862 0.08321252465248108 0.08459216571148756
    endloop
  endfacet
  facet normal -0.8637843642150361 -0.3920315859936801 -0.3165245768039279
    outer loop
      vertex 0.011903589606596654 0.015603818807107928 0.10531246540506345
      vertex 0.011790408334924283 0.015126780547974608 0.10621216893196106
      vertex 0.011641534411381431 0.01545480250332219 0.10621216893196106
    endloop
  endfacet
  facet normal -0.9301999071839218 -0.2627303815780828 -0.25632182753495325
    outer loop
      vertex 0.011790408334924283 0.01512678054797461 0.10621216893196106
      vertex 0.011903589606596654 0.015603818807107928 0.10531246540506345
      vertex 0.012200545106213212 0.013674686639785726 0.10621216893196106
    endloop
  endfacet
  facet normal -0.7683836084937294 -0.36383150414577614 -0.5265104621839696
    outer loop
      vertex 0.011903589606596654 0.015603818807107928 0.10531246540506345
      vertex 0.018198608494859964 0.0010072470749702845 0.10621216893196106
      vertex 0.012200545106213212 0.013674686639785726 0.10621216893196106
    endloop
  endfacet
  facet normal -0.636468786445043 -0.21270412204150868 -0.7413935799207633
    outer loop
      vertex 0.037570590686947604 0.06675277115225675 0.05769281226829173
      vertex 0.03817680781939714 0.07301808406009513 0.05537488531217605
      vertex 0.03985358976292173 0.07302132353622384 0.05393447842496235
    endloop
  endfacet
  facet normal -0.63646878644396 -0.21270412204232084 -0.7413935799214602
    outer loop
      vertex 0.0375702450295981 0.06674919874999748 0.05769413392095564
      vertex 0.037570590686947604 0.06675277115225675 0.05769281226829173
      vertex 0.03985358976292173 0.07302132353622384 0.05393447842496235
    endloop
  endfacet
  facet normal -0.63646878644396 -0.21270412204232084 -0.7413935799214602
    outer loop
      vertex 0.0375702450295981 0.06674919874999748 0.05769413392095564
      vertex 0.03985358976292173 0.07302132353622384 0.05393447842496235
      vertex 0.039854529613025186 0.07302132535197692 0.05393367106502673
    endloop
  endfacet
  facet normal -0.6364687864450437 -0.2127041220415088 -0.7413935799207628
    outer loop
      vertex 0.06322052565665914 0.0670117321633747 0.03559865674723895
      vertex 0.03287277045262016 0.018200343024886934 0.07565535996491235
      vertex 0.0375702450295981 0.06674919874999748 0.05769413392095564
    endloop
  endfacet
  facet normal -0.6364687864450437 -0.2127041220415088 -0.7413935799207628
    outer loop
      vertex 0.06322052565665914 0.0670117321633747 0.03559865674723895
      vertex 0.0375702450295981 0.06674919874999748 0.05769413392095564
      vertex 0.039854529613025186 0.07302132535197692 0.05393367106502673
    endloop
  endfacet
  facet normal -0.6364687864450437 -0.2127041220415088 -0.7413935799207628
    outer loop
      vertex 0.06322052565665914 0.0670117321633747 0.03559865674723895
      vertex 0.039854529613025186 0.07302132535197692 0.05393367106502673
      vertex 0.061663586146874366 0.07306345958314742 0.03519902559946465
    endloop
  endfacet
  facet normal -0.6364687864450432 -0.2127041220415096 -0.7413935799207629
    outer loop
      vertex 0.06698949447834934 0.07307374902654828 0.030623907725043864
      vertex 0.06322052565665914 0.0670117321633747 0.03559865674723895
      vertex 0.061663586146874366 0.07306345958314742 0.03519902559946465
    endloop
  endfacet
  facet normal -0.6380689721933096 0.20452864712288418 -0.7423180041129652
    outer loop
      vertex 0.03817680781939714 0.07301808406009513 0.05537488531217605
      vertex 0.04196108252439808 0.07559497813535658 0.05283206727183974
      vertex 0.03985358976292174 0.07302132353622384 0.05393447842496234
    endloop
  endfacet
  facet normal -0.6380689721940114 0.2045286471238265 -0.7423180041121025
    outer loop
      vertex 0.04196108252439808 0.07559497813535658 0.05283206727183974
      vertex 0.041963192913295214 0.07559641520033454 0.05283064921015604
      vertex 0.0398545296130252 0.07302132535197692 0.05393367106502672
    endloop
  endfacet
  facet normal -0.6380689721940114 0.2045286471238265 -0.7423180041121025
    outer loop
      vertex 0.04196108252439808 0.07559497813535658 0.05283206727183974
      vertex 0.0398545296130252 0.07302132535197692 0.05393367106502672
      vertex 0.03985358976292174 0.07302132353622384 0.05393447842496234
    endloop
  endfacet
  facet normal -0.6380689721933094 0.20452864712288163 -0.7423180041129661
    outer loop
      vertex 0.041963192913295214 0.07559641520033454 0.05283064921015604
      vertex 0.05314776220815551 0.08321252465248108 0.045315252788543654
      vertex 0.06949768232643526 0.08321252465248108 0.031261469009205504
    endloop
  endfacet
  facet normal -0.6380689721933094 0.20452864712288163 -0.7423180041129661
    outer loop
      vertex 0.041963192913295214 0.07559641520033454 0.05283064921015604
      vertex 0.06949768232643526 0.08321252465248108 0.031261469009205504
      vertex 0.06871696356066781 0.08005664763190148 0.03106301654510811
    endloop
  endfacet
  facet normal -0.6380689721933094 0.20452864712288163 -0.7423180041129661
    outer loop
      vertex 0.041963192913295214 0.07559641520033454 0.05283064921015604
      vertex 0.06871696356066781 0.08005664763190148 0.03106301654510811
      vertex 0.061663586146874345 0.07306345958314742 0.035199025599464674
    endloop
  endfacet
  facet normal -0.6380689721933094 0.20452864712288163 -0.7423180041129661
    outer loop
      vertex 0.041963192913295214 0.07559641520033454 0.05283064921015604
      vertex 0.061663586146874345 0.07306345958314742 0.035199025599464674
      vertex 0.0398545296130252 0.07302132535197692 0.05393367106502672
    endloop
  endfacet
  facet normal -0.6380689721933098 0.20452864712288274 -0.7423180041129656
    outer loop
      vertex 0.06871696356066781 0.08005664763190148 0.03106301654510811
      vertex 0.06698949447834934 0.07307374902654828 0.030623907725043864
      vertex 0.061663586146874345 0.07306345958314742 0.035199025599464674
    endloop
  endfacet
  facet normal -0.5912193252486848 0.07591777156635274 -0.8029297611951427
    outer loop
      vertex 0.041961082524398105 0.07559497813535661 0.05283206727183972
      vertex 0.03817680781939714 0.07301808406009513 0.05537488531217605
      vertex 0.03952389768416269 0.08321252465248108 0.055346879937555174
    endloop
  endfacet
  facet normal -0.5912193252486848 0.07591777156635274 -0.8029297611951427
    outer loop
      vertex 0.041961082524398105 0.07559497813535661 0.05283206727183972
      vertex 0.03952389768416269 0.08321252465248108 0.055346879937555174
      vertex 0.047650859106966176 0.08321252465248108 0.04936277412790115
    endloop
  endfacet
  facet normal -0.5912193252493154 0.07591777156706676 -0.802929761194611
    outer loop
      vertex 0.04196319291329524 0.07559641520033457 0.05283064921015602
      vertex 0.041961082524398105 0.07559497813535661 0.05283206727183972
      vertex 0.047650859106966176 0.08321252465248108 0.04936277412790116
    endloop
  endfacet
  facet normal -0.5912193252493154 0.07591777156706676 -0.802929761194611
    outer loop
      vertex 0.04196319291329524 0.07559641520033457 0.05283064921015602
      vertex 0.047650859106966176 0.08321252465248108 0.04936277412790116
      vertex 0.04765187952586833 0.08321252465248108 0.049362022765323796
    endloop
  endfacet
  facet normal -0.5912193252486847 0.07591777156635204 -0.8029297611951429
    outer loop
      vertex 0.0531477622081555 0.08321252465248108 0.045315252788543654
      vertex 0.04196319291329524 0.07559641520033457 0.05283064921015602
      vertex 0.04765187952586833 0.08321252465248108 0.049362022765323796
    endloop
  endfacet
  facet normal -0.9088664935533073 -0.05910461487993325 -0.4128781192991595
    outer loop
      vertex 0.017196769057790107 0.08048668502226519 0.08447710572897904
      vertex 0.008715743205017152 0.05907022216023174 0.10621216893196106
      vertex 0.008251512583289239 0.0662088129154042 0.10621216893196106
    endloop
  endfacet
  facet normal -0.9088664935533073 -0.05910461487993325 -0.4128781192991595
    outer loop
      vertex 0.017196769057790107 0.08048668502226519 0.08447710572897904
      vertex 0.008251512583289239 0.0662088129154042 0.10621216893196106
      vertex 0.010046091344354479 0.08197792577112337 0.10000438089838651
    endloop
  endfacet
  facet normal -0.908866493553307 -0.05910461487993369 -0.4128781192991599
    outer loop
      vertex 0.007475116298959517 0.07814765339308986 0.10621216893196106
      vertex 0.008068438912644638 0.08239035603457978 0.10429873658426914
      vertex 0.010046091344354479 0.08197792577112337 0.10000438089838651
    endloop
  endfacet
  facet normal -0.908866493553307 -0.05910461487993369 -0.4128781192991599
    outer loop
      vertex 0.007475116298959517 0.07814765339308986 0.10621216893196106
      vertex 0.010046091344354479 0.08197792577112337 0.10000438089838651
      vertex 0.008251512583289239 0.0662088129154042 0.10621216893196106
    endloop
  endfacet
  facet normal -0.9088664935533075 -0.05910461487993309 -0.41287811929915874
    outer loop
      vertex 0.007434135659661015 0.07877782296645508 0.10621216893196106
      vertex 0.008068438912644638 0.08239035603457978 0.10429873658426914
      vertex 0.007475116298959517 0.07814765339308986 0.10621216893196106
    endloop
  endfacet
  facet normal -0.9349085094836047 -0.18487679045051017 -0.30293010951020166
    outer loop
      vertex 0.011440253323833884 0.016472666352471424 0.10621216893196106
      vertex 0.011903589606596654 0.015603818807107928 0.10531246540506345
      vertex 0.011812637288918645 0.015552099251653238 0.1056247283271063
    endloop
  endfacet
  facet normal -0.9349085094836047 -0.18487679045051017 -0.30293010951020166
    outer loop
      vertex 0.011440253323833884 0.016472666352471424 0.10621216893196106
      vertex 0.011812637288918645 0.015552099251653238 0.1056247283271063
      vertex 0.011508282206398122 0.01612864923142024 0.10621216893196106
    endloop
  endfacet
  facet normal -0.9086594895218325 -0.06850297940874424 -0.411880169362459
    outer loop
      vertex 0.017196769057790107 0.08048668502226519 0.08447710572897904
      vertex 0.010046091344354477 0.08197792577112337 0.10000438089838651
      vertex 0.01017899402728265 0.08321252465248108 0.09950584515656835
    endloop
  endfacet
  facet normal -0.9086594895218325 -0.06850297940874424 -0.411880169362459
    outer loop
      vertex 0.017196769057790107 0.08048668502226519 0.08447710572897904
      vertex 0.01017899402728265 0.08321252465248108 0.09950584515656835
      vertex 0.016147903734132957 0.08321252465248108 0.08633767914453684
    endloop
  endfacet
  facet normal -0.9086594895218325 -0.06850297940874413 -0.411880169362459
    outer loop
      vertex 0.01017899402728265 0.08321252465248108 0.09950584515656835
      vertex 0.010046091344354477 0.08197792577112337 0.10000438089838651
      vertex 0.008068438912644638 0.08239035603457978 0.10429873658426914
    endloop
  endfacet
  facet normal -0.9086594895218325 -0.06850297940874413 -0.411880169362459
    outer loop
      vertex 0.01017899402728265 0.08321252465248108 0.09950584515656835
      vertex 0.008068438912644638 0.08239035603457978 0.10429873658426914
      vertex 0.00818701247133557 0.08321252465248108 0.10390040716368196
    endloop
  endfacet
  facet normal -0.9092784432469401 -0.05815681844818177 -0.41210495885685033
    outer loop
      vertex 0.008715743205017158 0.05907022216023175 0.10621216893196106
      vertex 0.017196769057790107 0.08048668502226519 0.08447710572897904
      vertex 0.011903589606596654 0.015603818807107928 0.10531246540506345
    endloop
  endfacet
  facet normal -0.9092784432469401 -0.05815681844818177 -0.41210495885685033
    outer loop
      vertex 0.008715743205017158 0.05907022216023175 0.10621216893196106
      vertex 0.011903589606596654 0.015603818807107928 0.10531246540506345
      vertex 0.011440253323833883 0.01647266635247142 0.10621216893196106
    endloop
  endfacet
  facet normal -0.7493292472749574 -0.35236212313631543 -0.5606662227718145
    outer loop
      vertex 0.011961143362434869 0.01549075072160257 0.1053066048738971
      vertex 0.011903589606596654 0.015603818807107928 0.10531246540506345
      vertex 0.012033633074560885 0.015619921535030994 0.10512854249126258
    endloop
  endfacet
  facet normal -0.7683836084936204 -0.3638315041457343 -0.5265104621841576
    outer loop
      vertex 0.011903589606596654 0.015603818807107928 0.10531246540506345
      vertex 0.011961143362434876 0.015490750721602557 0.1053066048738971
      vertex 0.011955593360443838 0.015483235130260491 0.10531989794205479
    endloop
  endfacet
  facet normal -0.9883982011020315 0.0799942681702036 -0.12911201771400602
    outer loop
      vertex 0.008068438912644638 0.08239035603457978 0.10429873658426914
      vertex 0.00818341544399348 0.08321252465248108 0.10392794368132907
      vertex 0.00818701247133557 0.08321252465248108 0.10390040716368196
    endloop
  endfacet
  facet normal -0.9349085094836049 -0.18487679045051525 -0.30293010951019783
    outer loop
      vertex 0.011812637288918645 0.015552099251653238 0.1056247283271063
      vertex 0.011641534411381431 0.015454802503322188 0.10621216893196106
      vertex 0.011508282206398122 0.01612864923142024 0.10621216893196106
    endloop
  endfacet
  facet normal -0.7493292472749694 -0.35236212313629967 -0.5606662227718082
    outer loop
      vertex 0.022083723330563288 -0.004395714039941402 0.10427585206683757
      vertex 0.011961143362434869 0.01549075072160257 0.1053066048738971
      vertex 0.012033633074560885 0.015619921535030994 0.10512854249126258
    endloop
  endfacet
  facet normal -0.7493292472749694 -0.35236212313629967 -0.5606662227718082
    outer loop
      vertex 0.022083723330563288 -0.004395714039941402 0.10427585206683757
      vertex 0.012033633074560885 0.015619921535030994 0.10512854249126258
      vertex 0.023437443159193834 0.017032006693584865 0.08899992017726535
    endloop
  endfacet
  facet normal -0.749329247275855 -0.35236212313567544 -0.5606662227710169
    outer loop
      vertex 0.022084464970871753 -0.004397171040420179 0.10427577654776711
      vertex 0.022083723330563288 -0.004395714039941402 0.10427585206683757
      vertex 0.023437443159193834 0.017032006693584865 0.08899992017726535
    endloop
  endfacet
  facet normal -0.749329247275855 -0.35236212313567544 -0.5606662227710169
    outer loop
      vertex 0.022084464970871753 -0.004397171040420179 0.10427577654776711
      vertex 0.023437443159193834 0.017032006693584865 0.08899992017726535
      vertex 0.02343823551632849 0.01703210480778896 0.08899879953172077
    endloop
  endfacet
  facet normal -0.7493292472749674 -0.3523621231362982 -0.5606662227718118
    outer loop
      vertex 0.032495311010293904 -0.02484995319207428 0.1032156704470708
      vertex 0.022084464970871753 -0.004397171040420179 0.10427577654776711
      vertex 0.02343823551632849 0.01703210480778896 0.08899879953172077
    endloop
  endfacet
  facet normal -0.7493292472749674 -0.3523621231362982 -0.5606662227718118
    outer loop
      vertex 0.032495311010293904 -0.02484995319207428 0.1032156704470708
      vertex 0.02343823551632849 0.01703210480778896 0.08899879953172077
      vertex 0.032511342021144356 0.018155588883930648 0.07616653496884099
    endloop
  endfacet
  facet normal -0.74932924727497 -0.3523621231362966 -0.5606662227718097
    outer loop
      vertex 0.032495311010293904 -0.02484995319207428 0.1032156704470708
      vertex 0.032511342021144356 0.018155588883930648 0.07616653496884099
      vertex 0.03287277045262016 0.018200343024886934 0.07565535996491235
    endloop
  endfacet
  facet normal -0.7683836084937294 -0.363831504145776 -0.5265104621839698
    outer loop
      vertex 0.011961143362434876 0.015490750721602557 0.1053066048738971
      vertex 0.02208372333056329 -0.00439571403994141 0.10427585206683757
      vertex 0.022017498760439336 -0.007057949724292442 0.10621216893196106
    endloop
  endfacet
  facet normal -0.7683836084937294 -0.363831504145776 -0.5265104621839698
    outer loop
      vertex 0.011961143362434876 0.015490750721602557 0.1053066048738971
      vertex 0.022017498760439336 -0.007057949724292442 0.10621216893196106
      vertex 0.01819860849485997 0.0010072470749702698 0.10621216893196106
    endloop
  endfacet
  facet normal -0.7683836084937294 -0.363831504145776 -0.5265104621839698
    outer loop
      vertex 0.011961143362434876 0.015490750721602557 0.1053066048738971
      vertex 0.01819860849485997 0.0010072470749702698 0.10621216893196106
      vertex 0.011955593360443838 0.015483235130260491 0.10531989794205479
    endloop
  endfacet
  facet normal -0.768383608494464 -0.36383150414524473 -0.5265104621832647
    outer loop
      vertex 0.02208372333056329 -0.00439571403994141 0.10427585206683757
      vertex 0.022084464970871753 -0.004397171040420179 0.10427577654776711
      vertex 0.022018243158839913 -0.007059521835345708 0.10621216893196106
    endloop
  endfacet
  facet normal -0.768383608494464 -0.36383150414524473 -0.5265104621832647
    outer loop
      vertex 0.02208372333056329 -0.00439571403994141 0.10427585206683757
      vertex 0.022018243158839913 -0.007059521835345708 0.10621216893196106
      vertex 0.02201749876043934 -0.007057949724292446 0.10621216893196106
    endloop
  endfacet
  facet normal -0.7683836084937298 -0.36383150414577586 -0.5265104621839695
    outer loop
      vertex 0.022084464970871753 -0.004397171040420179 0.10427577654776711
      vertex 0.032495311010293904 -0.02484995319207428 0.1032156704470708
      vertex 0.029593454720218224 -0.023057774675768035 0.10621216893196106
    endloop
  endfacet
  facet normal -0.7683836084937298 -0.36383150414577586 -0.5265104621839695
    outer loop
      vertex 0.022084464970871753 -0.004397171040420179 0.10427577654776711
      vertex 0.029593454720218224 -0.023057774675768035 0.10621216893196106
      vertex 0.022018243158839913 -0.007059521835345708 0.10621216893196106
    endloop
  endfacet
  facet normal -0.9883982011020342 0.07999426817021746 -0.12911201771397618
    outer loop
      vertex 0.008068438912644638 0.08239035603457978 0.10429873658426914
      vertex 0.00810957479371427 0.08321252465248108 0.10449321999871929
      vertex 0.00818341544399348 0.08321252465248108 0.10392794368132907
    endloop
  endfacet
  facet normal -0.983072728595309 0.0872909473407541 -0.16108476279439893
    outer loop
      vertex 0.008068438912644638 0.08239035603457978 0.10429873658426914
      vertex 0.007434135659661015 0.07877782296645507 0.10621216893196106
      vertex 0.007827910504681873 0.08321252465248108 0.10621216893196106
    endloop
  endfacet
  facet normal -0.983072728595309 0.0872909473407541 -0.16108476279439893
    outer loop
      vertex 0.008068438912644638 0.08239035603457978 0.10429873658426914
      vertex 0.007827910504681873 0.08321252465248108 0.10621216893196106
      vertex 0.00810957479371427 0.08321252465248108 0.10449321999871929
    endloop
  endfacet
  facet normal -0.492189320276036 -0.615339978409771 -0.6157161553645286
    outer loop
      vertex 0.05377915381489373 -0.04450192630190486 0.10584182305353806
      vertex 0.032495311010293904 -0.02484995319207428 0.1032156704470708
      vertex 0.05750304895292402 -0.02372615388799204 0.08210194772618706
    endloop
  endfacet
  facet normal -0.465267583878121 0.16973022061002532 -0.8687449151528244
    outer loop
      vertex 0.07106677442789078 0.08082579386812402 0.02995481614287772
      vertex 0.0687169635606678 0.08005664763190147 0.031063016545108107
      vertex 0.06949768232643525 0.08321252465248108 0.0312614690092055
    endloop
  endfacet
  facet normal -0.465267583878121 0.16973022061002532 -0.8687449151528244
    outer loop
      vertex 0.07106677442789078 0.08082579386812402 0.02995481614287772
      vertex 0.06949768232643525 0.08321252465248108 0.0312614690092055
      vertex 0.07106677442789078 0.08321252465248108 0.03042112142478478
    endloop
  endfacet
  facet normal -0.46526758387812156 0.1697302206100247 -0.8687449151528241
    outer loop
      vertex 0.07106677442789078 0.07296139643848652 0.028418316892735378
      vertex 0.06698949447834934 0.07307374902654828 0.030623907725043864
      vertex 0.0687169635606678 0.08005664763190147 0.031063016545108107
    endloop
  endfacet
  facet normal -0.46526758387812156 0.1697302206100247 -0.8687449151528241
    outer loop
      vertex 0.07106677442789078 0.07296139643848652 0.028418316892735378
      vertex 0.0687169635606678 0.08005664763190147 0.031063016545108107
      vertex 0.07106677442789078 0.08082579386812402 0.02995481614287772
    endloop
  endfacet
  facet normal -0.30458901464400256 -0.692577325073755 -0.6538823907644844
    outer loop
      vertex 0.05750304895292402 -0.02372615388799204 0.08210194772618706
      vertex 0.07106677442789078 -0.03803457727313257 0.09093890051524413
      vertex 0.07106677442789078 -0.050744936844098726 0.10440142367952976
    endloop
  endfacet
  facet normal -0.30458901464400256 -0.692577325073755 -0.6538823907644844
    outer loop
      vertex 0.05750304895292402 -0.02372615388799204 0.08210194772618706
      vertex 0.07106677442789078 -0.050744936844098726 0.10440142367952976
      vertex 0.05377915381489373 -0.04450192630190486 0.10584182305353806
    endloop
  endfacet
  facet normal -0.37763823141448005 -0.7186210754260252 -0.5839290334686971
    outer loop
      vertex 0.07106677442789078 -0.03803457727313257 0.09093890051524413
      vertex 0.05750304895292402 -0.02372615388799204 0.08210194772618706
      vertex 0.07106677442789078 -0.027756776607641503 0.07829037005363035
    endloop
  endfacet
  facet normal -0.3705789936898505 -0.5180507871990796 -0.7709050468885463
    outer loop
      vertex 0.05750304895292402 -0.02372615388799204 0.08210194772618706
      vertex 0.07106677442789078 -0.02320451077615373 0.07523123208708041
      vertex 0.07106677442789078 -0.027756776607641503 0.07829037005363035
    endloop
  endfacet
  facet normal -0.5683668405950798 -0.28117872700199736 -0.7732384224762135
    outer loop
      vertex 0.03287277045262016 0.018200343024886934 0.07565535996491235
      vertex 0.06322052565665914 0.0670117321633747 0.03559865674723895
      vertex 0.06591386642101521 0.06249510784153128 0.03526133917979897
    endloop
  endfacet
  facet normal -0.5683668405950798 -0.28117872700199736 -0.7732384224762135
    outer loop
      vertex 0.03287277045262016 0.018200343024886934 0.07565535996491235
      vertex 0.06591386642101521 0.06249510784153128 0.03526133917979897
      vertex 0.060620010544816694 0.01043082649664484 0.058085115102926466
    endloop
  endfacet
  facet normal -0.5683668405950799 -0.2811787270019977 -0.7732384224762134
    outer loop
      vertex 0.06322052565665914 0.0670117321633747 0.03559865674723895
      vertex 0.06698949447834934 0.07307374902654828 0.030623907725043864
      vertex 0.06591386642101521 0.06249510784153128 0.03526133917979897
    endloop
  endfacet
  facet normal -0.7263847118983674 -0.5917911483381448 -0.34949747791499997
    outer loop
      vertex 0.032495311010293904 -0.02484995319207428 0.1032156704470708
      vertex 0.031923071811670686 -0.025917226434315294 0.10621216893196106
      vertex 0.029593454720218224 -0.023057774675768035 0.10621216893196106
    endloop
  endfacet
  facet normal -0.5684031329136934 -0.43789066172501634 -0.6965412025630111
    outer loop
      vertex 0.032495311010293904 -0.02484995319207428 0.1032156704470708
      vertex 0.05876721128662836 0.008106598913152761 0.0610582263129011
      vertex 0.060252335996184236 0.006401693645526418 0.060918123413746465
    endloop
  endfacet
  facet normal -0.5684031329136934 -0.43789066172501634 -0.6965412025630111
    outer loop
      vertex 0.032495311010293904 -0.02484995319207428 0.1032156704470708
      vertex 0.060252335996184236 0.006401693645526418 0.060918123413746465
      vertex 0.05750304895292402 -0.02372615388799204 0.08210194772618706
    endloop
  endfacet
  facet normal -0.5684031329136939 -0.4378906617250165 -0.6965412025630106
    outer loop
      vertex 0.05876721128662836 0.008106598913152761 0.0610582263129011
      vertex 0.060620010544816694 0.01043082649664484 0.058085115102926466
      vertex 0.060252335996184236 0.006401693645526418 0.060918123413746465
    endloop
  endfacet
  facet normal -0.5650145813715179 -0.44133636670951154 -0.6971231844209572
    outer loop
      vertex 0.05876721128662833 0.00810659891315272 0.06105822631290115
      vertex 0.032495311010293904 -0.02484995319207428 0.1032156704470708
      vertex 0.03287277045262016 0.018200343024886934 0.07565535996491235
    endloop
  endfacet
  facet normal -0.5650145813715179 -0.44133636670951154 -0.6971231844209572
    outer loop
      vertex 0.05876721128662833 0.00810659891315272 0.06105822631290115
      vertex 0.03287277045262016 0.018200343024886934 0.07565535996491235
      vertex 0.05531153025855858 0.011917256324868694 0.061446577293928696
    endloop
  endfacet
  facet normal -0.5650145813715178 -0.4413363667095119 -0.6971231844209572
    outer loop
      vertex 0.060620010544816694 0.01043082649664484 0.058085115102926466
      vertex 0.05876721128662833 0.00810659891315272 0.06105822631290115
      vertex 0.05531153025855858 0.011917256324868694 0.061446577293928696
    endloop
  endfacet
  facet normal -0.6099140812187882 -0.7081063870229624 -0.35579510703258443
    outer loop
      vertex 0.03431122397313301 -0.027919676083003827 0.10621216893196106
      vertex 0.032495311010293904 -0.02484995319207428 0.1032156704470708
      vertex 0.05377915381489373 -0.04450192630190486 0.10584182305353806
    endloop
  endfacet
  facet normal -0.6099140812187882 -0.7081063870229624 -0.35579510703258443
    outer loop
      vertex 0.03431122397313301 -0.027919676083003827 0.10621216893196106
      vertex 0.05377915381489373 -0.04450192630190486 0.10584182305353806
      vertex 0.053737242598823294 -0.044651910841737544 0.10621216893196106
    endloop
  endfacet
  facet normal -0.5974568539920113 -0.7125362069283306 -0.36788240163693037
    outer loop
      vertex 0.032495311010293904 -0.02484995319207428 0.1032156704470708
      vertex 0.034311223973133 -0.027919676083003827 0.10621216893196106
      vertex 0.031923071811670686 -0.025917226434315294 0.10621216893196106
    endloop
  endfacet
  facet normal -0.341633417910922 -0.8570231121064433 -0.3857434290845252
    outer loop
      vertex 0.053737242598823294 -0.044651910841737544 0.10621216893196106
      vertex 0.05377915381489373 -0.04450192630190486 0.10584182305353806
      vertex 0.07106677442789078 -0.050744936844098726 0.10440142367952976
    endloop
  endfacet
  facet normal -0.341633417910922 -0.8570231121064433 -0.3857434290845252
    outer loop
      vertex 0.053737242598823294 -0.044651910841737544 0.10621216893196106
      vertex 0.07106677442789078 -0.050744936844098726 0.10440142367952976
      vertex 0.07106677442789078 -0.051559947633194714 0.10621216893196106
    endloop
  endfacet
  facet normal -0.37057899368985026 -0.5180507871990799 -0.7709050468885461
    outer loop
      vertex 0.05750304895292402 -0.02372615388799204 0.08210194772618706
      vertex 0.07106677442789078 -0.010467992624680778 0.06667224900456355
      vertex 0.07106677442789078 -0.02320451077615373 0.07523123208708041
    endloop
  endfacet
  facet normal -0.38171658223815413 -0.5080651504676043 -0.7721154406724121
    outer loop
      vertex 0.07106677442789078 -0.010467992624680778 0.06667224900456355
      vertex 0.05750304895292402 -0.02372615388799204 0.08210194772618706
      vertex 0.06025233599618424 0.006401693645526507 0.0609181234137464
    endloop
  endfacet
  facet normal -0.38171658223815413 -0.5080651504676043 -0.7721154406724121
    outer loop
      vertex 0.07106677442789078 -0.010467992624680778 0.06667224900456355
      vertex 0.06025233599618424 0.006401693645526507 0.0609181234137464
      vertex 0.07106677442789078 0.008800966894782311 0.05399294445771435
    endloop
  endfacet
  facet normal -0.38171658223815347 -0.508065150467605 -0.7721154406724119
    outer loop
      vertex 0.07106677442789078 0.008800966894782311 0.05399294445771435
      vertex 0.06025233599618424 0.006401693645526507 0.0609181234137464
      vertex 0.060620010544816694 0.01043082649664484 0.058085115102926466
    endloop
  endfacet
  facet normal -0.38171658223815347 -0.508065150467605 -0.7721154406724119
    outer loop
      vertex 0.07106677442789078 0.008800966894782311 0.05399294445771435
      vertex 0.060620010544816694 0.01043082649664484 0.058085115102926466
      vertex 0.07106677442789078 0.011601331444277791 0.05215025674386093
    endloop
  endfacet
  facet normal -0.4399526531510971 -0.32265043845628677 -0.8380562973626989
    outer loop
      vertex 0.07106677442789078 0.011601331444277791 0.05215025674386093
      vertex 0.060620010544816694 0.01043082649664484 0.058085115102926466
      vertex 0.06591386642101521 0.06249510784153125 0.035261339179798984
    endloop
  endfacet
  facet normal -0.4399526531510971 -0.32265043845628677 -0.8380562973626989
    outer loop
      vertex 0.07106677442789078 0.011601331444277791 0.05215025674386093
      vertex 0.06591386642101521 0.06249510784153125 0.035261339179798984
      vertex 0.07106677442789078 0.059825634384493225 0.033583971236700864
    endloop
  endfacet
  facet normal -0.43995265315109633 -0.32265043845628677 -0.8380562973626993
    outer loop
      vertex 0.06698949447834934 0.07307374902654828 0.030623907725043864
      vertex 0.07106677442789078 0.06499384045188877 0.03159421952321194
      vertex 0.07106677442789078 0.059825634384493225 0.033583971236700864
    endloop
  endfacet
  facet normal -0.43995265315109633 -0.32265043845628677 -0.8380562973626993
    outer loop
      vertex 0.06698949447834934 0.07307374902654828 0.030623907725043864
      vertex 0.07106677442789078 0.059825634384493225 0.033583971236700864
      vertex 0.06591386642101521 0.06249510784153125 0.035261339179798984
    endloop
  endfacet
  facet normal -0.4562324047732693 -0.3294911910753528 -0.826612090305087
    outer loop
      vertex 0.07106677442789078 0.06499384045188876 0.03159421952321194
      vertex 0.06698949447834934 0.07307374902654828 0.030623907725043864
      vertex 0.07106677442789078 0.07296139643848652 0.028418316892735378
    endloop
  endfacet
endsolid v3d.csg
