solid v3d.csg
  facet normal 1.0 -0.0 -0.0
    outer loop
      vertex 0.07106677442789078 -0.06080331295339296 -0.0691542104479381
      vertex 0.07106677442789078 -0.06344704619189259 -0.07477327314071862
      vertex 0.07106677442789078 -0.0017858362974922035 -0.10621216893196106
    endloop
  endfacet
  facet normal 1.0 -0.0 -0.0
    outer loop
      vertex 0.07106677442789078 -0.06080331295339296 -0.0691542104479381
      vertex 0.07106677442789078 -0.0017858362974922035 -0.10621216893196106
      vertex 0.07106677442789078 0.037268669291473926 -0.10621216893196106
    endloop
  endfacet
  facet normal 1.0 -0.0 -0.0
    outer loop
      vertex 0.07106677442789078 -0.0626411247678532 -0.07518418430690715
      vertex 0.07106677442789078 -0.06821231812272166 -0.10621216893196106
      vertex 0.07106677442789078 -0.0017858362974922035 -0.10621216893196106
    endloop
  endfacet
  facet normal 1.0 -0.0 -0.0
    outer loop
      vertex 0.07106677442789078 -0.06761644265130859 -0.10289352357399753
      vertex 0.07106677442789078 -0.0626411247678532 -0.07518418430690715
      vertex 0.07106677442789078 -0.06344704619189259 -0.07477327314071862
    endloop
  endfacet
  facet normal 1.0 -0.0 -0.0
    outer loop
      vertex 0.07106677442789078 -0.06761644265130859 -0.10289352357399753
      vertex 0.07106677442789078 -0.06344704619189259 -0.07477327314071862
      vertex 0.07106677442789078 -0.06475322397226457 -0.07754945900128313
    endloop
  endfacet
  facet normal 1.0 -0.0 -0.0
    outer loop
      vertex 0.07106677442789078 -0.06475322397226457 -0.07754945900128311
      vertex 0.07106677442789078 -0.06080331295339296 -0.0691542104479381
      vertex 0.07106677442789078 -0.06097547914925955 -0.06908915488780018
    endloop
  endfacet
  facet normal 1.0 -0.0 -0.0
    outer loop
      vertex 0.07106677442789078 -0.06475322397226457 -0.07754945900128311
      vertex 0.07106677442789078 -0.06097547914925955 -0.06908915488780018
      vertex 0.07106677442789078 -0.06463466141430584 -0.07649999074138202
    endloop
  endfacet
  facet normal 1.0 -0.0 0.0
    outer loop
      vertex 0.07106677442789078 -0.03414629200353185 -0.015257995222494465
      vertex 0.07106677442789078 -0.03655056152026244 -0.017606751426496425
      vertex 0.07106677442789078 -0.06080331295339297 -0.0691542104479381
    endloop
  endfacet
  facet normal 1.0 -0.0 0.0
    outer loop
      vertex 0.07106677442789078 -0.03414629200353185 -0.015257995222494465
      vertex 0.07106677442789078 -0.06080331295339297 -0.0691542104479381
      vertex 0.07106677442789078 0.037268669291473926 -0.10621216893196106
    endloop
  endfacet
  facet normal 1.0 -0.0 0.0
    outer loop
      vertex 0.07106677442789078 -0.03414629200353185 -0.015257995222494465
      vertex 0.07106677442789078 0.037268669291473926 -0.10621216893196106
      vertex 0.07106677442789078 0.08321252465248108 -0.10621216893196106
    endloop
  endfacet
  facet normal 1.0 -0.0 0.0
    outer loop
      vertex 0.07106677442789078 -0.03414629200353185 -0.015257995222494465
      vertex 0.07106677442789078 0.08321252465248108 -0.10621216893196106
      vertex 0.07106677442789078 0.08321252465248108 -0.08345343519177899
    endloop
  endfacet
  facet normal 1.0 -0.0 -0.0
    outer loop
      vertex 0.07106677442789078 -0.03414629200353185 -0.015257995222494465
      vertex 0.07106677442789078 -0.03428020899943711 -0.015180178074065881
      vertex 0.07106677442789078 -0.03629714006404936 -0.01706812255523967
    endloop
  endfacet
  facet normal 1.0 -0.0 -0.0
    outer loop
      vertex 0.07106677442789078 -0.03414629200353185 -0.015257995222494465
      vertex 0.07106677442789078 -0.03629714006404936 -0.01706812255523967
      vertex 0.07106677442789078 -0.03655056152026244 -0.017606751426496425
    endloop
  endfacet
  facet normal 1.0 -0.0 -0.0
    outer loop
      vertex 0.07106677442789078 -0.056672378794547694 -0.060374210378236134
      vertex 0.07106677442789078 -0.06097547914925954 -0.06908915488780018
      vertex 0.07106677442789078 -0.06080331295339297 -0.0691542104479381
    endloop
  endfacet
  facet normal 1.0 0.0 0.0
    outer loop
      vertex 0.07106677442789078 0.04047868023985215 -0.058621442126954
      vertex 0.07106677442789078 0.08321252465248108 -0.08345343519177899
      vertex 0.07106677442789078 0.08321252465248108 -0.06740262143467635
    endloop
  endfacet
  facet normal 1.0 -0.0 0.0
    outer loop
      vertex 0.07106677442789078 0.0018304513692954947 0.014741848374391759
      vertex 0.07106677442789078 -0.006893871661888037 0.011365181133601791
      vertex 0.07106677442789078 -0.03414629200353186 -0.015257995222494478
    endloop
  endfacet
  facet normal 1.0 -0.0 0.0
    outer loop
      vertex 0.07106677442789078 0.0018304513692954947 0.014741848374391759
      vertex 0.07106677442789078 -0.03414629200353186 -0.015257995222494478
      vertex 0.07106677442789078 0.04047868023985215 -0.058621442126954
    endloop
  endfacet
  facet normal 1.0 -0.0 0.0
    outer loop
      vertex 0.07106677442789078 0.0018304513692954947 0.014741848374391759
      vertex 0.07106677442789078 0.04047868023985215 -0.058621442126954
      vertex 0.07106677442789078 0.08321252465248108 -0.06740262143467635
    endloop
  endfacet
  facet normal 1.0 -0.0 0.0
    outer loop
      vertex 0.07106677442789078 0.0018304513692954947 0.014741848374391759
      vertex 0.07106677442789078 0.08321252465248108 -0.06740262143467635
      vertex 0.07106677442789078 0.08321252465248108 -0.01166555390923539
    endloop
  endfacet
  facet normal 1.0 -0.0 -0.0
    outer loop
      vertex 0.07106677442789078 -0.029174246008195195 -0.010400751141967948
      vertex 0.07106677442789078 -0.03428020899943711 -0.015180178074065897
      vertex 0.07106677442789078 -0.03414629200353186 -0.015257995222494478
    endloop
  endfacet
  facet normal 1.0 0.0 0.0
    outer loop
      vertex 0.07106677442789078 0.008048297250117936 0.01272423993940984
      vertex 0.07106677442789078 0.08321252465248108 -0.01166555390923539
      vertex 0.07106677442789078 0.08321252465248108 0.007569458609297899
    endloop
  endfacet
  facet normal 1.0 0.0 0.0
    outer loop
      vertex 0.07106677442789078 0.05713306906693672 0.01664033451846641
      vertex 0.07106677442789078 0.030307196192400514 0.021973616265662795
      vertex 0.07106677442789078 0.00502199509754849 0.015977105381293145
    endloop
  endfacet
  facet normal 1.0 0.0 0.0
    outer loop
      vertex 0.07106677442789078 0.05713306906693672 0.01664033451846641
      vertex 0.07106677442789078 0.00502199509754849 0.015977105381293145
      vertex 0.07106677442789078 0.0018304513692954938 0.014741848374391762
    endloop
  endfacet
  facet normal 1.0 0.0 0.0
    outer loop
      vertex 0.07106677442789078 0.05713306906693672 0.01664033451846641
      vertex 0.07106677442789078 0.0018304513692954938 0.014741848374391762
      vertex 0.07106677442789078 0.008048297250117936 0.01272423993940984
    endloop
  endfacet
  facet normal 1.0 0.0 0.0
    outer loop
      vertex 0.07106677442789078 0.05713306906693672 0.01664033451846641
      vertex 0.07106677442789078 0.008048297250117936 0.01272423993940984
      vertex 0.07106677442789078 0.08321252465248108 0.007569458609297899
    endloop
  endfacet
  facet normal 1.0 0.0 0.0
    outer loop
      vertex 0.07106677442789078 0.05713306906693672 0.01664033451846641
      vertex 0.07106677442789078 0.08321252465248108 0.007569458609297899
      vertex 0.07106677442789078 0.08321252465248108 0.0097700543360622
    endloop
  endfacet
  facet normal 1.0 0.0 0.0
    outer loop
      vertex 0.07106677442789078 0.07436407218393289 0.012101059576574522
      vertex 0.07106677442789078 0.08321252465248108 0.0097700543360622
      vertex 0.07106677442789078 0.08321252465248108 0.010401108282056423
    endloop
  endfacet
  facet normal -0.0 1.0 -0.0
    outer loop
      vertex 0.05724723745427693 0.08321252465248108 -0.10621216893196106
      vertex 0.07106677442789078 0.08321252465248108 -0.08345343519177897
      vertex 0.07106677442789078 0.08321252465248108 -0.10621216893196106
    endloop
  endfacet
  facet normal -0.0 1.0 -0.0
    outer loop
      vertex 0.06459127634709058 0.08321252465248108 -0.0941176229237832
      vertex 0.05724723745427693 0.08321252465248108 -0.10621216893196106
      vertex 0.056038212651539986 0.08321252465248108 -0.10621216893196106
    endloop
  endfacet
  facet normal 0.0 1.0 -0.0
    outer loop
      vertex 0.06459127634709058 0.08321252465248108 -0.0941176229237832
      vertex 0.056038212651539986 0.08321252465248108 -0.10621216893196106
      vertex 0.045512082398398115 0.08321252465248108 -0.10621216893196106
    endloop
  endfacet
  facet normal 0.0 1.0 -0.0
    outer loop
      vertex 0.06459127634709058 0.08321252465248108 -0.0941176229237832
      vertex 0.045512082398398115 0.08321252465248108 -0.10621216893196106
      vertex 0.07106677442789078 0.08321252465248108 -0.06740262143467635
    endloop
  endfacet
  facet normal 0.0 1.0 -0.0
    outer loop
      vertex 0.06459127634709058 0.08321252465248108 -0.0941176229237832
      vertex 0.07106677442789078 0.08321252465248108 -0.06740262143467635
      vertex 0.07106677442789078 0.08321252465248108 -0.08345343519177897
    endloop
  endfacet
  facet normal -0.0 1.0 -0.0
    outer loop
      vertex 0.045512082398398115 0.08321252465248108 -0.10621216893196106
      vertex 0.006751799821324081 0.08321252465248108 -0.10621216893196106
      vertex 0.007876300701474773 0.08321252465248108 -0.09763904015942963
    endloop
  endfacet
  facet normal -0.0 1.0 -0.0
    outer loop
      vertex 0.045512082398398115 0.08321252465248108 -0.10621216893196106
      vertex 0.007876300701474773 0.08321252465248108 -0.09763904015942963
      vertex 0.030628846765786477 0.08321252465248108 -0.032292225446113
    endloop
  endfacet
  facet normal -0.0 1.0 -0.0
    outer loop
      vertex 0.045512082398398115 0.08321252465248108 -0.10621216893196106
      vertex 0.030628846765786477 0.08321252465248108 -0.032292225446113
      vertex 0.030809898711820334 0.08321252465248108 -0.031961294810633395
    endloop
  endfacet
  facet normal -0.0 1.0 -0.0
    outer loop
      vertex 0.045512082398398115 0.08321252465248108 -0.10621216893196106
      vertex 0.030809898711820334 0.08321252465248108 -0.031961294810633395
      vertex 0.07106677442789078 0.08321252465248108 -0.01166555390923539
    endloop
  endfacet
  facet normal -0.0 1.0 -0.0
    outer loop
      vertex 0.045512082398398115 0.08321252465248108 -0.10621216893196106
      vertex 0.07106677442789078 0.08321252465248108 -0.01166555390923539
      vertex 0.07106677442789078 0.08321252465248108 -0.06740262143467635
    endloop
  endfacet
  facet normal -0.0 1.0 -0.0
    outer loop
      vertex 0.006751799821324081 0.08321252465248108 -0.10621216893196106
      vertex 0.005967821588855239 0.08321252465248108 -0.10621216893196106
      vertex 0.0065108473949394615 0.08321252465248108 -0.10156071222064156
    endloop
  endfacet
  facet normal -0.0 1.0 -0.0
    outer loop
      vertex 0.006751799821324081 0.08321252465248108 -0.10621216893196106
      vertex 0.0065108473949394615 0.08321252465248108 -0.10156071222064156
      vertex 0.007876300701474773 0.08321252465248108 -0.09763904015942963
    endloop
  endfacet
  facet normal 0.0 1.0 -0.0
    outer loop
      vertex 0.030809898711820334 0.08321252465248108 -0.031961294810633395
      vertex 0.039938976653931084 0.08321252465248108 -0.015274970079494745
      vertex 0.07106677442789078 0.08321252465248108 0.0075694586092978945
    endloop
  endfacet
  facet normal 0.0 1.0 -0.0
    outer loop
      vertex 0.030809898711820334 0.08321252465248108 -0.031961294810633395
      vertex 0.07106677442789078 0.08321252465248108 0.0075694586092978945
      vertex 0.07106677442789078 0.08321252465248108 -0.01166555390923539
    endloop
  endfacet
  facet normal 0.0 1.0 -0.0
    outer loop
      vertex 0.039938976653931084 0.08321252465248108 -0.015274970079494745
      vertex 0.04046200374113172 0.08321252465248108 -0.014318969936265219
      vertex 0.042165087411737426 0.08321252465248108 -0.012754594782050429
    endloop
  endfacet
  facet normal 0.0 1.0 -0.0
    outer loop
      vertex 0.039938976653931084 0.08321252465248108 -0.015274970079494745
      vertex 0.042165087411737426 0.08321252465248108 -0.012754594782050429
      vertex 0.06452293973036496 0.08321252465248108 0.005514465593843167
    endloop
  endfacet
  facet normal 0.0 1.0 -0.0
    outer loop
      vertex 0.039938976653931084 0.08321252465248108 -0.015274970079494745
      vertex 0.06452293973036496 0.08321252465248108 0.005514465593843167
      vertex 0.07106677442789078 0.08321252465248108 0.0097700543360622
    endloop
  endfacet
  facet normal 0.0 1.0 -0.0
    outer loop
      vertex 0.039938976653931084 0.08321252465248108 -0.015274970079494745
      vertex 0.07106677442789078 0.08321252465248108 0.0097700543360622
      vertex 0.07106677442789078 0.08321252465248108 0.0075694586092978945
    endloop
  endfacet
  facet normal 0.0 1.0 -0.0
    outer loop
      vertex 0.06452293973036495 0.08321252465248108 0.005514465593843157
      vertex 0.06813109872959583 0.08321252465248108 0.008462766426291774
      vertex 0.07106677442789078 0.08321252465248108 0.010401108282056424
    endloop
  endfacet
  facet normal 0.0 1.0 -0.0
    outer loop
      vertex 0.06452293973036495 0.08321252465248108 0.005514465593843157
      vertex 0.07106677442789078 0.08321252465248108 0.010401108282056424
      vertex 0.07106677442789078 0.08321252465248108 0.0097700543360622
    endloop
  endfacet
  facet normal -0.0 1.0 0.0
    outer loop
      vertex 0.037702782000424435 0.08321252465248108 -0.016916094506839487
      vertex 0.03993897665393106 0.08321252465248108 -0.015274970079494778
      vertex 0.030628846765786477 0.08321252465248108 -0.032292225446113
    endloop
  endfacet
  facet normal -0.0 1.0 0.0
    outer loop
      vertex 0.037702782000424435 0.08321252465248108 -0.016916094506839487
      vertex 0.030628846765786477 0.08321252465248108 -0.032292225446113
      vertex 0.03210332502143761 0.08321252465248108 -0.02805742653180681
    endloop
  endfacet
  facet normal 0.0 1.0 -0.0
    outer loop
      vertex 0.037702782000424435 0.08321252465248108 -0.016916094506839487
      vertex 0.03776125032504963 0.08321252465248108 -0.01679975911574042
      vertex 0.04046200374113172 0.08321252465248108 -0.014318969936265209
    endloop
  endfacet
  facet normal 0.0 1.0 -0.0
    outer loop
      vertex 0.037702782000424435 0.08321252465248108 -0.016916094506839487
      vertex 0.04046200374113172 0.08321252465248108 -0.014318969936265209
      vertex 0.03993897665393106 0.08321252465248108 -0.015274970079494778
    endloop
  endfacet
  facet normal -0.0 1.0 0.0
    outer loop
      vertex 0.03493262387158781 0.08321252465248108 -0.02242792388437593
      vertex 0.03210332502143761 0.08321252465248108 -0.02805742653180681
      vertex 0.03244753344317063 0.08321252465248108 -0.027068837215509064
    endloop
  endfacet
  facet normal -0.0 1.0 -0.0
    outer loop
      vertex 0.011526489758021178 0.08321252465248108 -0.08213680325728198
      vertex 0.02261781858255842 0.08321252465248108 -0.04693495481520195
      vertex 0.030628846765786484 0.08321252465248108 -0.03229222544611299
    endloop
  endfacet
  facet normal -0.0 1.0 -0.0
    outer loop
      vertex 0.011526489758021178 0.08321252465248108 -0.08213680325728198
      vertex 0.030628846765786484 0.08321252465248108 -0.03229222544611299
      vertex 0.010798988129906487 0.08321252465248108 -0.0892448888714452
    endloop
  endfacet
  facet normal -0.0 1.0 0.0
    outer loop
      vertex 0.01991497806623429 0.08321252465248108 -0.05551327610780189
      vertex 0.011526489758021178 0.08321252465248108 -0.08213680325728198
      vertex 0.012232920998309993 0.08321252465248108 -0.07523458676395918
    endloop
  endfacet
  facet normal -0.0 1.0 -0.0
    outer loop
      vertex 0.008756546821720477 0.08321252465248108 -0.09092809535396508
      vertex 0.011526489758021174 0.08321252465248108 -0.08213680325728201
      vertex 0.010798988129906487 0.08321252465248108 -0.0892448888714452
    endloop
  endfacet
  facet normal -0.0 1.0 -0.0
    outer loop
      vertex 0.008756546821720477 0.08321252465248108 -0.09092809535396508
      vertex 0.010798988129906487 0.08321252465248108 -0.0892448888714452
      vertex 0.00787630070147478 0.08321252465248108 -0.0976390401594296
    endloop
  endfacet
  facet normal -0.0 1.0 -0.0
    outer loop
      vertex 0.008756546821720477 0.08321252465248108 -0.09092809535396508
      vertex 0.009868232460005092 0.08321252465248108 -0.08245266923396892
      vertex 0.011803939598944112 0.08321252465248108 -0.07633586411295619
    endloop
  endfacet
  facet normal -0.0 1.0 -0.0
    outer loop
      vertex 0.008756546821720477 0.08321252465248108 -0.09092809535396508
      vertex 0.011803939598944112 0.08321252465248108 -0.07633586411295619
      vertex 0.012232920998309993 0.08321252465248108 -0.07523458676395917
    endloop
  endfacet
  facet normal -0.0 1.0 -0.0
    outer loop
      vertex 0.008756546821720477 0.08321252465248108 -0.09092809535396508
      vertex 0.012232920998309993 0.08321252465248108 -0.07523458676395917
      vertex 0.011526489758021174 0.08321252465248108 -0.08213680325728201
    endloop
  endfacet
  facet normal -0.0 1.0 -0.0
    outer loop
      vertex 0.008082994940637567 0.08321252465248108 -0.08809399264546218
      vertex 0.009868232460005092 0.08321252465248108 -0.08245266923396892
      vertex 0.00787630070147478 0.08321252465248108 -0.0976390401594296
    endloop
  endfacet
  facet normal -0.0 1.0 -0.0
    outer loop
      vertex 0.008082994940637567 0.08321252465248108 -0.08809399264546218
      vertex 0.00787630070147478 0.08321252465248108 -0.0976390401594296
      vertex 0.006510847394939459 0.08321252465248108 -0.10156071222064156
    endloop
  endfacet
  facet normal -0.0 1.0 -0.0
    outer loop
      vertex 0.022621246898551176 0.08321252465248108 -0.04692407396747868
      vertex 0.0321033250214376 0.08321252465248108 -0.028057426531806855
      vertex 0.030628846765786484 0.08321252465248108 -0.03229222544611299
    endloop
  endfacet
  facet normal -0.0 1.0 -0.0
    outer loop
      vertex 0.022621246898551176 0.08321252465248108 -0.04692407396747868
      vertex 0.030628846765786484 0.08321252465248108 -0.03229222544611299
      vertex 0.02261781858255843 0.08321252465248108 -0.04693495481520193
    endloop
  endfacet
  facet normal -0.0 1.0 -0.0
    outer loop
      vertex 0.023773051782491762 0.08321252465248108 -0.043268455997734115
      vertex 0.03244753344317061 0.08321252465248108 -0.02706883721550913
      vertex 0.0321033250214376 0.08321252465248108 -0.028057426531806855
    endloop
  endfacet
  facet normal -0.0 1.0 -0.0
    outer loop
      vertex 0.023773051782491762 0.08321252465248108 -0.043268455997734115
      vertex 0.0321033250214376 0.08321252465248108 -0.028057426531806855
      vertex 0.022621246898551165 0.08321252465248108 -0.0469240739674787
    endloop
  endfacet
  facet normal -0.0 0.0 -1.0
    outer loop
      vertex 0.05411635465321038 -8.84729639957782E-4 -0.10621216893196106
      vertex 0.07106677442789078 0.03726866929147396 -0.10621216893196106
      vertex 0.07106677442789078 -0.0017858362974921688 -0.10621216893196106
    endloop
  endfacet
  facet normal -0.0 0.0 -1.0
    outer loop
      vertex 0.047062527773196174 -0.05608849011228227 -0.10621216893196106
      vertex 0.03444805179462023 -0.045155763351402194 -0.10621216893196106
      vertex 0.05411635465321038 -8.84729639957782E-4 -0.10621216893196106
    endloop
  endfacet
  facet normal -0.0 0.0 -1.0
    outer loop
      vertex 0.047062527773196174 -0.05608849011228227 -0.10621216893196106
      vertex 0.05411635465321038 -8.84729639957782E-4 -0.10621216893196106
      vertex 0.07106677442789078 -0.0017858362974921688 -0.10621216893196106
    endloop
  endfacet
  facet normal -0.0 0.0 -1.0
    outer loop
      vertex 0.047062527773196174 -0.05608849011228227 -0.10621216893196106
      vertex 0.07106677442789078 -0.0017858362974921688 -0.10621216893196106
      vertex 0.07106677442789078 -0.06821231812272166 -0.10621216893196106
    endloop
  endfacet
  facet normal -0.0 0.0 -1.0
    outer loop
      vertex 0.034448051794620224 -0.04515576335140219 -0.10621216893196106
      vertex 0.03357268385485685 -0.04439709858269351 -0.10621216893196106
      vertex 0.022491138447777614 -0.03372658954914164 -0.10621216893196106
    endloop
  endfacet
  facet normal -0.0 0.0 -1.0
    outer loop
      vertex 0.034448051794620224 -0.04515576335140219 -0.10621216893196106
      vertex 0.022491138447777614 -0.03372658954914164 -0.10621216893196106
      vertex 0.01792396122087954 -0.02823352604734286 -0.10621216893196106
    endloop
  endfacet
  facet normal -0.0 0.0 -1.0
    outer loop
      vertex 0.034448051794620224 -0.04515576335140219 -0.10621216893196106
      vertex 0.01792396122087954 -0.02823352604734286 -0.10621216893196106
      vertex 0.05724723745427693 0.08321252465248108 -0.10621216893196106
    endloop
  endfacet
  facet normal -0.0 0.0 -1.0
    outer loop
      vertex 0.034448051794620224 -0.04515576335140219 -0.10621216893196106
      vertex 0.05724723745427693 0.08321252465248108 -0.10621216893196106
      vertex 0.07106677442789078 0.08321252465248108 -0.10621216893196106
    endloop
  endfacet
  facet normal -0.0 0.0 -1.0
    outer loop
      vertex 0.034448051794620224 -0.04515576335140219 -0.10621216893196106
      vertex 0.07106677442789078 0.08321252465248108 -0.10621216893196106
      vertex 0.07106677442789078 0.03726866929147396 -0.10621216893196106
    endloop
  endfacet
  facet normal -0.0 -0.0 -1.0
    outer loop
      vertex 0.05578661301473342 0.07907297065457392 -0.10621216893196106
      vertex 0.05603821265153999 0.08321252465248108 -0.10621216893196106
      vertex 0.05724723745427693 0.08321252465248108 -0.10621216893196106
    endloop
  endfacet
  facet normal -0.0 -0.0 -1.0
    outer loop
      vertex 0.05578661301473342 0.07907297065457392 -0.10621216893196106
      vertex 0.03821313197309312 0.029267988803247824 -0.10621216893196106
      vertex 0.045512082398398115 0.08321252465248108 -0.10621216893196106
    endloop
  endfacet
  facet normal -0.0 -0.0 -1.0
    outer loop
      vertex 0.05578661301473342 0.07907297065457392 -0.10621216893196106
      vertex 0.045512082398398115 0.08321252465248108 -0.10621216893196106
      vertex 0.05603821265153999 0.08321252465248108 -0.10621216893196106
    endloop
  endfacet
  facet normal -0.0 -0.0 -1.0
    outer loop
      vertex 0.03821313197309312 0.029267988803247824 -0.10621216893196106
      vertex 0.03606438721594516 0.02317823382645598 -0.10621216893196106
      vertex 0.005386995658526193 8.126570856053868E-4 -0.10621216893196106
    endloop
  endfacet
  facet normal -0.0 -0.0 -1.0
    outer loop
      vertex 0.03821313197309312 0.029267988803247824 -0.10621216893196106
      vertex 0.005386995658526193 8.126570856053868E-4 -0.10621216893196106
      vertex -2.7924712381640715E-4 0.01777804750419892 -0.10621216893196106
    endloop
  endfacet
  facet normal -0.0 -0.0 -1.0
    outer loop
      vertex 0.03821313197309312 0.029267988803247824 -0.10621216893196106
      vertex -2.7924712381640715E-4 0.01777804750419892 -0.10621216893196106
      vertex 1.742045984653648E-4 0.04588193331038866 -0.10621216893196106
    endloop
  endfacet
  facet normal -0.0 -0.0 -1.0
    outer loop
      vertex 0.03821313197309312 0.029267988803247824 -0.10621216893196106
      vertex 1.742045984653648E-4 0.04588193331038866 -0.10621216893196106
      vertex 0.006751799821324074 0.08321252465248108 -0.10621216893196106
    endloop
  endfacet
  facet normal -0.0 -0.0 -1.0
    outer loop
      vertex 0.03821313197309312 0.029267988803247824 -0.10621216893196106
      vertex 0.006751799821324074 0.08321252465248108 -0.10621216893196106
      vertex 0.045512082398398115 0.08321252465248108 -0.10621216893196106
    endloop
  endfacet
  facet normal -0.0 0.0 -1.0
    outer loop
      vertex 0.0032575431755593963 0.0071884856794587355 -0.10621216893196106
      vertex 0.005386995658526193 8.126570856053868E-4 -0.10621216893196106
      vertex 0.004548690976675817 2.014849245353667E-4 -0.10621216893196106
    endloop
  endfacet
  facet normal -0.0 -0.0 -1.0
    outer loop
      vertex -1.343099946270985E-4 0.02676091453867934 -0.10621216893196106
      vertex -2.6266990719657474E-4 0.043402488606651406 -0.10621216893196106
      vertex 1.742045984653648E-4 0.04588193331038866 -0.10621216893196106
    endloop
  endfacet
  facet normal -0.0 -0.0 -1.0
    outer loop
      vertex -2.6266990719657447E-4 0.04340248860665141 -0.10621216893196106
      vertex -3.0670602554568223E-4 0.049111672342469374 -0.10621216893196106
      vertex 0.0019274768869911967 0.06707047634661854 -0.10621216893196106
    endloop
  endfacet
  facet normal -0.0 -0.0 -1.0
    outer loop
      vertex -2.6266990719657447E-4 0.04340248860665141 -0.10621216893196106
      vertex 0.0019274768869911967 0.06707047634661854 -0.10621216893196106
      vertex 0.00596782158885524 0.08321252465248108 -0.10621216893196106
    endloop
  endfacet
  facet normal -0.0 -0.0 -1.0
    outer loop
      vertex -2.6266990719657447E-4 0.04340248860665141 -0.10621216893196106
      vertex 0.00596782158885524 0.08321252465248108 -0.10621216893196106
      vertex 0.006751799821324074 0.08321252465248108 -0.10621216893196106
    endloop
  endfacet
  facet normal -0.0 0.0 -1.0
    outer loop
      vertex -3.094187344932699E-4 0.049463368958433396 -0.10621216893196106
      vertex 9.00275383726896E-4 0.05881362756025649 -0.10621216893196106
      vertex -3.0670602554568223E-4 0.04911167234246937 -0.10621216893196106
    endloop
  endfacet
  facet normal -0.0 0.0 -1.0
    outer loop
      vertex 0.031032044319532645 0.01950936742282691 -0.10621216893196106
      vertex 0.03606438721594516 0.02317823382645598 -0.10621216893196106
      vertex 0.03427068805673126 0.018094713159167122 -0.10621216893196106
    endloop
  endfacet
  facet normal -0.0 -0.0 -1.0
    outer loop
      vertex 0.015830232279860797 -0.025715343490109156 -0.10621216893196106
      vertex 0.010422148184478295 -0.014263175648944014 -0.10621216893196106
      vertex 0.0053869956585261974 8.126570856053818E-4 -0.10621216893196106
    endloop
  endfacet
  facet normal -0.0 -0.0 -1.0
    outer loop
      vertex 0.015830232279860797 -0.025715343490109156 -0.10621216893196106
      vertex 0.0053869956585261974 8.126570856053818E-4 -0.10621216893196106
      vertex 0.031032044319532645 0.01950936742282691 -0.10621216893196106
    endloop
  endfacet
  facet normal -0.0 -0.0 -1.0
    outer loop
      vertex 0.015830232279860797 -0.025715343490109156 -0.10621216893196106
      vertex 0.031032044319532645 0.01950936742282691 -0.10621216893196106
      vertex 0.03427068805673126 0.018094713159167122 -0.10621216893196106
    endloop
  endfacet
  facet normal -0.0 -0.0 -1.0
    outer loop
      vertex 0.015830232279860797 -0.025715343490109156 -0.10621216893196106
      vertex 0.03427068805673126 0.018094713159167122 -0.10621216893196106
      vertex 0.017923961220879536 -0.02823352604734288 -0.10621216893196106
    endloop
  endfacet
  facet normal -0.0 -0.0 -1.0
    outer loop
      vertex 0.010422148184478295 -0.014263175648944014 -0.10621216893196106
      vertex 0.005164083246683446 -0.0031286886244567976 -0.10621216893196106
      vertex 0.004548690976675819 2.0148492453536226E-4 -0.10621216893196106
    endloop
  endfacet
  facet normal -0.0 -0.0 -1.0
    outer loop
      vertex 0.010422148184478295 -0.014263175648944014 -0.10621216893196106
      vertex 0.004548690976675819 2.0148492453536226E-4 -0.10621216893196106
      vertex 0.0053869956585261974 8.126570856053818E-4 -0.10621216893196106
    endloop
  endfacet
  facet normal -0.0 -0.0 -1.0
    outer loop
      vertex 0.005892306513843598 -0.007069443132191081 -0.10621216893196106
      vertex 0.005164083246683448 -0.0031286886244568032 -0.10621216893196106
      vertex 0.00970289899454652 -0.012740092372603401 -0.10621216893196106
    endloop
  endfacet
  facet normal -0.6501257825843487 -0.750132720485459 0.12098499277254382
    outer loop
      vertex 0.047062527773196174 -0.056088490112282265 -0.10621216893196106
      vertex 0.04639248974688908 -0.053368742777067185 -0.0929496771582877
      vertex 0.03444805179462024 -0.045155763351402194 -0.10621216893196106
    endloop
  endfacet
  facet normal -0.6501257825843467 -0.7501327204854598 0.12098499277254958
    outer loop
      vertex 0.025688194452580138 -0.036537229485117693 -0.09984745271183718
      vertex 0.0335726838548568 -0.044397098582693466 -0.10621216893196106
      vertex 0.03444805179462024 -0.045155763351402194 -0.10621216893196106
    endloop
  endfacet
  facet normal -0.6501257825843467 -0.7501327204854598 0.12098499277254958
    outer loop
      vertex 0.025688194452580138 -0.036537229485117693 -0.09984745271183718
      vertex 0.03444805179462024 -0.045155763351402194 -0.10621216893196106
      vertex 0.04639248974688908 -0.053368742777067185 -0.0929496771582877
    endloop
  endfacet
  facet normal -0.6501257825843467 -0.7501327204854598 0.12098499277254958
    outer loop
      vertex 0.025688194452580138 -0.036537229485117693 -0.09984745271183718
      vertex 0.04639248974688908 -0.053368742777067185 -0.0929496771582877
      vertex 0.046199606202456674 -0.05258581033833952 -0.08913180963305066
    endloop
  endfacet
  facet normal -0.6501257825843467 -0.7501327204854598 0.12098499277254958
    outer loop
      vertex 0.025688194452580138 -0.036537229485117693 -0.09984745271183718
      vertex 0.046199606202456674 -0.05258581033833952 -0.08913180963305066
      vertex 0.04257576590535941 -0.04914598309962111 -0.08727724114214201
    endloop
  endfacet
  facet normal -0.6501257825843487 -0.750132720485459 0.12098499277254401
    outer loop
      vertex 0.021980439363937333 -0.03284105232566994 -0.09685438521578378
      vertex 0.025688194452580138 -0.036537229485117693 -0.09984745271183718
      vertex 0.04257576590535941 -0.04914598309962111 -0.08727724114214201
    endloop
  endfacet
  facet normal -0.6501257825843487 -0.750132720485459 0.12098499277254401
    outer loop
      vertex 0.021980439363937333 -0.03284105232566994 -0.09685438521578378
      vertex 0.04257576590535941 -0.04914598309962111 -0.08727724114214201
      vertex 0.041716912884057746 -0.048330741318934604 -0.08683770694056486
    endloop
  endfacet
  facet normal -0.6501257825843487 -0.750132720485459 0.12098499277254401
    outer loop
      vertex 0.021980439363937333 -0.03284105232566994 -0.09685438521578378
      vertex 0.041716912884057746 -0.048330741318934604 -0.08683770694056486
      vertex 0.02219927965185985 -0.03296131898924282 -0.09642410247803265
    endloop
  endfacet
  facet normal -0.6501257825843494 -0.7501327204854585 0.12098499277254353
    outer loop
      vertex 0.046199606202456674 -0.05258581033833952 -0.08913180963305066
      vertex 0.04597796993746783 -0.05168616790399483 -0.08474482109545534
      vertex 0.04257576590535942 -0.049145983099621114 -0.08727724114214203
    endloop
  endfacet
  facet normal -0.6501257825843486 -0.7501327204854594 0.12098499277254182
    outer loop
      vertex 0.04597796993746783 -0.05168616790399483 -0.08474482109545534
      vertex 0.041716912884057746 -0.048330741318934604 -0.08683770694056486
      vertex 0.04257576590535942 -0.049145983099621114 -0.08727724114214203
    endloop
  endfacet
  facet normal -0.6501257825843474 -0.7501327204854593 0.1209849927725485
    outer loop
      vertex 0.02173183099990439 -0.03259322027236067 -0.09665369730737439
      vertex 0.021980439363937333 -0.03284105232566994 -0.09685438521578378
      vertex 0.02219927965185985 -0.03296131898924282 -0.09642410247803265
    endloop
  endfacet
  facet normal -0.4451494363213682 -0.8813616341683097 0.15825185357187738
    outer loop
      vertex 0.07106677442789078 -0.06761644265130853 -0.1028935235739972
      vertex 0.05104634817483715 -0.05490436261213326 -0.08841117708758103
      vertex 0.04639248974688908 -0.053368742777067185 -0.0929496771582877
    endloop
  endfacet
  facet normal -0.4451494363213682 -0.8813616341683097 0.15825185357187738
    outer loop
      vertex 0.07106677442789078 -0.06761644265130853 -0.1028935235739972
      vertex 0.04639248974688908 -0.053368742777067185 -0.0929496771582877
      vertex 0.047062527773196174 -0.056088490112282265 -0.10621216893196106
    endloop
  endfacet
  facet normal -0.4451494363213682 -0.8813616341683097 0.15825185357187738
    outer loop
      vertex 0.07106677442789078 -0.06761644265130853 -0.1028935235739972
      vertex 0.047062527773196174 -0.056088490112282265 -0.10621216893196106
      vertex 0.07106677442789078 -0.06821231812272166 -0.10621216893196106
    endloop
  endfacet
  facet normal -0.4451494363213681 -0.8813616341683097 0.1582518535718776
    outer loop
      vertex 0.05104634817483715 -0.05490436261213326 -0.08841117708758103
      vertex 0.04917114749782626 -0.05371369360267387 -0.08705469718087117
      vertex 0.046199606202456674 -0.05258581033833952 -0.08913180963305063
    endloop
  endfacet
  facet normal -0.4451494363213681 -0.8813616341683097 0.1582518535718776
    outer loop
      vertex 0.05104634817483715 -0.05490436261213326 -0.08841117708758103
      vertex 0.046199606202456674 -0.05258581033833952 -0.08913180963305063
      vertex 0.04639248974688908 -0.053368742777067185 -0.0929496771582877
    endloop
  endfacet
  facet normal -0.4451494363213682 -0.8813616341683096 0.15825185357187788
    outer loop
      vertex 0.04917114749782626 -0.05371369360267387 -0.08705469718087117
      vertex 0.04597796993746783 -0.05168616790399483 -0.08474482109545534
      vertex 0.046199606202456674 -0.05258581033833952 -0.08913180963305063
    endloop
  endfacet
  facet normal -0.48174082022874576 -0.870774469885497 0.0983748175142754
    outer loop
      vertex 0.051046348174837136 -0.05490436261213325 -0.08841117708758102
      vertex 0.07106677442789078 -0.06761644265130855 -0.1028935235739972
      vertex 0.07106677442789078 -0.06475322397226459 -0.07754945900128314
    endloop
  endfacet
  facet normal -0.48174082022874576 -0.870774469885497 0.0983748175142754
    outer loop
      vertex 0.051046348174837136 -0.05490436261213325 -0.08841117708758102
      vertex 0.07106677442789078 -0.06475322397226459 -0.07754945900128314
      vertex 0.0547752730665204 -0.05653923107680988 -0.08462185757829215
    endloop
  endfacet
  facet normal -0.48174082022874554 -0.8707744698854972 0.09837481751427522
    outer loop
      vertex 0.07106677442789078 -0.06463466141430584 -0.07649999074138204
      vertex 0.05880112702387168 -0.05830428182721428 -0.08053079986453576
      vertex 0.0547752730665204 -0.05653923107680988 -0.08462185757829215
    endloop
  endfacet
  facet normal -0.48174082022874554 -0.8707744698854972 0.09837481751427522
    outer loop
      vertex 0.07106677442789078 -0.06463466141430584 -0.07649999074138204
      vertex 0.0547752730665204 -0.05653923107680988 -0.08462185757829215
      vertex 0.07106677442789078 -0.06475322397226457 -0.07754945900128314
    endloop
  endfacet
  facet normal -0.4817408202287467 -0.8707744698854964 0.09837481751427626
    outer loop
      vertex 0.04917114749782625 -0.05371369360267386 -0.08705469718087117
      vertex 0.051046348174837136 -0.05490436261213325 -0.08841117708758102
      vertex 0.054775273066520434 -0.056539231076809894 -0.0846218575782921
    endloop
  endfacet
  facet normal -0.48174082022874587 -0.8707744698854971 0.09837481751427392
    outer loop
      vertex 0.04597796993746783 -0.05168616790399483 -0.08474482109545534
      vertex 0.04917114749782625 -0.05371369360267386 -0.08705469718087117
      vertex 0.054775273066520434 -0.056539231076809894 -0.0846218575782921
    endloop
  endfacet
  facet normal -0.48174082022874587 -0.8707744698854971 0.09837481751427392
    outer loop
      vertex 0.04597796993746783 -0.05168616790399483 -0.08474482109545534
      vertex 0.054775273066520434 -0.056539231076809894 -0.0846218575782921
      vertex 0.05880112702387168 -0.05830428182721428 -0.08053079986453576
    endloop
  endfacet
  facet normal -0.5196766717178245 -0.7660677196162131 0.3782544194511146
    outer loop
      vertex 0.07106677442789078 -0.061873185481175465 -0.07090725351986323
      vertex 0.06629832614917712 -0.05993701245827693 -0.07353726027497204
      vertex 0.058801127023871684 -0.05830428182721428 -0.08053079986453576
    endloop
  endfacet
  facet normal -0.5196766717178245 -0.7660677196162131 0.3782544194511146
    outer loop
      vertex 0.07106677442789078 -0.061873185481175465 -0.07090725351986323
      vertex 0.058801127023871684 -0.05830428182721428 -0.08053079986453576
      vertex 0.07106677442789078 -0.06463466141430584 -0.07649999074138204
    endloop
  endfacet
  facet normal -0.5196766717178247 -0.7660677196162128 0.37825441945111493
    outer loop
      vertex 0.04597796993746783 -0.05168616790399483 -0.08474482109545534
      vertex 0.058801127023871684 -0.05830428182721428 -0.08053079986453576
      vertex 0.06629832614917716 -0.059937012458276935 -0.073537260274972
    endloop
  endfacet
  facet normal -0.5196766717178248 -0.766067719616213 0.37825441945111427
    outer loop
      vertex 0.07106677442789078 -0.061873185481175465 -0.07090725351986323
      vertex 0.07106677442789078 -0.06097547914925955 -0.06908915488780021
      vertex 0.06629832614917712 -0.05993701245827693 -0.07353726027497204
    endloop
  endfacet
  facet normal -0.5196766717178242 -0.7660677196162139 0.3782544194511131
    outer loop
      vertex 0.07106677442789078 -0.05667237879454759 -0.06037421037823593
      vertex 0.05535298778728353 -0.03598588003057603 -0.0400673211563448
      vertex 0.0470889008619048 -0.03685140056555035 -0.05317410927496221
    endloop
  endfacet
  facet normal -0.5196766717178242 -0.7660677196162139 0.3782544194511131
    outer loop
      vertex 0.07106677442789078 -0.05667237879454759 -0.06037421037823593
      vertex 0.0470889008619048 -0.03685140056555035 -0.05317410927496221
      vertex 0.04597796993746783 -0.05168616790399483 -0.08474482109545534
    endloop
  endfacet
  facet normal -0.5196766717178242 -0.7660677196162139 0.3782544194511131
    outer loop
      vertex 0.07106677442789078 -0.05667237879454759 -0.06037421037823593
      vertex 0.04597796993746783 -0.05168616790399483 -0.08474482109545534
      vertex 0.06629832614917716 -0.059937012458276935 -0.073537260274972
    endloop
  endfacet
  facet normal -0.5196766717178242 -0.7660677196162139 0.3782544194511131
    outer loop
      vertex 0.07106677442789078 -0.05667237879454759 -0.06037421037823593
      vertex 0.06629832614917716 -0.059937012458276935 -0.073537260274972
      vertex 0.07106677442789078 -0.06097547914925955 -0.06908915488780021
    endloop
  endfacet
  facet normal -0.5196766717178247 -0.7660677196162132 0.37825441945111415
    outer loop
      vertex 0.05535298778728353 -0.03598588003057603 -0.0400673211563448
      vertex 0.04788950706485906 -0.02616054077464014 -0.03042228271294789
      vertex 0.0470889008619048 -0.03685140056555035 -0.05317410927496221
    endloop
  endfacet
  facet normal -0.53966925970859 -0.7617739271934292 0.35840978498623965
    outer loop
      vertex 0.055352987787283536 -0.03598588003057604 -0.04006732115634481
      vertex 0.07106677442789078 -0.05667237879454759 -0.06037421037823593
      vertex 0.07106677442789078 -0.036297140064049355 -0.017068122555239672
    endloop
  endfacet
  facet normal -0.53966925970859 -0.7617739271934292 0.35840978498623965
    outer loop
      vertex 0.055352987787283536 -0.03598588003057604 -0.04006732115634481
      vertex 0.07106677442789078 -0.036297140064049355 -0.017068122555239672
      vertex 0.06875705405271984 -0.035286981724544864 -0.01839892550652944
    endloop
  endfacet
  facet normal -0.53966925970859 -0.7617739271934292 0.35840978498623977
    outer loop
      vertex 0.04788950706485906 -0.02616054077464014 -0.03042228271294789
      vertex 0.055352987787283536 -0.03598588003057604 -0.04006732115634481
      vertex 0.06875705405271984 -0.035286981724544864 -0.01839892550652944
    endloop
  endfacet
  facet normal -0.5840486885413637 -0.5547096565103551 0.5926080714834022
    outer loop
      vertex 0.07106677442789078 -0.034423596169667475 -0.015314395361635704
      vertex 0.07088582155454691 -0.034359083662955196 -0.015432347818392355
      vertex 0.06875705405271981 -0.03528698172454486 -0.018398925506529454
    endloop
  endfacet
  facet normal -0.5840486885413637 -0.5547096565103551 0.5926080714834022
    outer loop
      vertex 0.07106677442789078 -0.034423596169667475 -0.015314395361635704
      vertex 0.06875705405271981 -0.03528698172454486 -0.018398925506529454
      vertex 0.07106677442789078 -0.036297140064049355 -0.017068122555239672
    endloop
  endfacet
  facet normal -0.5840486885413643 -0.5547096565103565 0.5926080714834001
    outer loop
      vertex 0.04788950706485906 -0.02616054077464014 -0.03042228271294789
      vertex 0.06875705405271981 -0.03528698172454486 -0.018398925506529454
      vertex 0.0708858215545469 -0.0343590836629552 -0.01543234781839236
    endloop
  endfacet
  facet normal -0.7688517729612395 -0.6392575485753811 0.014722017652246755
    outer loop
      vertex 0.022491138447777562 -0.033726589549141595 -0.10621216893196106
      vertex 0.02178176413767101 -0.032667752248039916 -0.09728227599681788
      vertex 0.017923961220879532 -0.028233526047342875 -0.10621216893196106
    endloop
  endfacet
  facet normal -0.7688517729612396 -0.639257548575381 0.014722017652246865
    outer loop
      vertex 0.02173183099990439 -0.03259322027236067 -0.09665369730737439
      vertex 0.015830232279860783 -0.025715343490109135 -0.10621216893196106
      vertex 0.017923961220879532 -0.028233526047342875 -0.10621216893196106
    endloop
  endfacet
  facet normal -0.7688517729612396 -0.639257548575381 0.014722017652246865
    outer loop
      vertex 0.02173183099990439 -0.03259322027236067 -0.09665369730737439
      vertex 0.017923961220879532 -0.028233526047342875 -0.10621216893196106
      vertex 0.02178176413767101 -0.032667752248039916 -0.09728227599681788
    endloop
  endfacet
  facet normal -0.7082261171042915 -0.6290421801583691 0.32050226619009153
    outer loop
      vertex 0.03594748310654636 -0.03438601598448412 -0.07295497453833422
      vertex 0.0431257758956093 -0.04676682639447182 -0.0813923487108664
      vertex 0.04549932506655551 -0.03649965756996925 -0.055996298095464796
    endloop
  endfacet
  facet normal -0.708226117104291 -0.6290421801583697 0.32050226619009176
    outer loop
      vertex 0.0431257758956093 -0.04676682639447182 -0.0813923487108664
      vertex 0.04597796993746783 -0.05168616790399483 -0.08474482109545534
      vertex 0.0470889008619048 -0.03685140056555035 -0.05317410927496221
    endloop
  endfacet
  facet normal -0.708226117104291 -0.6290421801583697 0.32050226619009176
    outer loop
      vertex 0.0431257758956093 -0.04676682639447182 -0.0813923487108664
      vertex 0.0470889008619048 -0.03685140056555035 -0.05317410927496221
      vertex 0.04549932506655551 -0.03649965756996925 -0.055996298095464796
    endloop
  endfacet
  facet normal -0.7082261171042912 -0.6290421801583692 0.32050226619009203
    outer loop
      vertex 0.02268188773425095 -0.01150608810939957 -0.05736257742296402
      vertex 0.033703885006459176 -0.030516354558063803 -0.0703178465721888
      vertex 0.04170142488960821 -0.035659254244084504 -0.06273922375659081
    endloop
  endfacet
  facet normal -0.7082261171042912 -0.6290421801583692 0.32050226619009203
    outer loop
      vertex 0.02268188773425095 -0.01150608810939957 -0.05736257742296402
      vertex 0.04170142488960821 -0.035659254244084504 -0.06273922375659081
      vertex 0.04549932506655554 -0.03649965756996926 -0.05599629809546476
    endloop
  endfacet
  facet normal -0.7082261171042912 -0.6290421801583692 0.32050226619009203
    outer loop
      vertex 0.02268188773425095 -0.01150608810939957 -0.05736257742296402
      vertex 0.04549932506655554 -0.03649965756996926 -0.05599629809546476
      vertex 0.04788950706485906 -0.02616054077464014 -0.03042228271294789
    endloop
  endfacet
  facet normal -0.7082261171042921 -0.6290421801583687 0.32050226619009137
    outer loop
      vertex 0.04549932506655554 -0.03649965756996926 -0.05599629809546476
      vertex 0.0470889008619048 -0.03685140056555035 -0.05317410927496221
      vertex 0.04788950706485906 -0.02616054077464014 -0.03042228271294789
    endloop
  endfacet
  facet normal -0.7082261171042911 -0.6290421801583697 0.32050226619009153
    outer loop
      vertex 0.033703885006459176 -0.030516354558063803 -0.0703178465721888
      vertex 0.03594748310654636 -0.03438601598448412 -0.07295497453833422
      vertex 0.04170142488960821 -0.035659254244084504 -0.06273922375659081
    endloop
  endfacet
  facet normal -0.6798835091007922 -0.6391685445136148 0.35947459681755034
    outer loop
      vertex 0.0431257758956093 -0.04676682639447183 -0.08139234871086641
      vertex 0.03594748310654636 -0.034386015984484125 -0.07295497453833422
      vertex 0.022199279651859853 -0.03296131898924283 -0.09642410247803264
    endloop
  endfacet
  facet normal -0.6798835091007922 -0.6391685445136148 0.35947459681755034
    outer loop
      vertex 0.0431257758956093 -0.04676682639447183 -0.08139234871086641
      vertex 0.022199279651859853 -0.03296131898924283 -0.09642410247803264
      vertex 0.0417169128840577 -0.04833074131893457 -0.08683770694056488
    endloop
  endfacet
  facet normal -0.6798835091007922 -0.6391685445136149 0.35947459681755023
    outer loop
      vertex 0.04597796993746783 -0.05168616790399483 -0.08474482109545534
      vertex 0.0431257758956093 -0.04676682639447183 -0.08139234871086641
      vertex 0.0417169128840577 -0.04833074131893457 -0.08683770694056488
    endloop
  endfacet
  facet normal -0.6798835091007923 -0.6391685445136146 0.3594745968175504
    outer loop
      vertex 0.033703885006459176 -0.030516354558063803 -0.0703178465721888
      vertex 0.02268188773425095 -0.01150608810939957 -0.05736257742296402
      vertex 0.02211882680773752 -0.024003594567636864 -0.08064886503723206
    endloop
  endfacet
  facet normal -0.6798835091007925 -0.6391685445136144 0.3594745968175506
    outer loop
      vertex 0.03594748310654636 -0.034386015984484125 -0.07295497453833422
      vertex 0.033703885006459176 -0.030516354558063803 -0.0703178465721888
      vertex 0.02211882680773752 -0.024003594567636864 -0.08064886503723206
    endloop
  endfacet
  facet normal -0.6798835091007925 -0.6391685445136144 0.3594745968175506
    outer loop
      vertex 0.03594748310654636 -0.034386015984484125 -0.07295497453833422
      vertex 0.02211882680773752 -0.024003594567636864 -0.08064886503723206
      vertex 0.02173183099990439 -0.03259322027236067 -0.09665369730737439
    endloop
  endfacet
  facet normal -0.6798835091007925 -0.6391685445136144 0.3594745968175506
    outer loop
      vertex 0.03594748310654636 -0.034386015984484125 -0.07295497453833422
      vertex 0.02173183099990439 -0.03259322027236067 -0.09665369730737439
      vertex 0.022199279651859853 -0.03296131898924283 -0.09642410247803264
    endloop
  endfacet
  facet normal -0.6933027114552303 -0.720009275441745 0.03029840864928653
    outer loop
      vertex 0.025688194452580138 -0.036537229485117693 -0.09984745271183716
      vertex 0.021980439363937326 -0.03284105232566993 -0.09685438521578377
      vertex 0.02178176413767101 -0.032667752248039916 -0.09728227599681788
    endloop
  endfacet
  facet normal -0.6933027114552303 -0.720009275441745 0.03029840864928653
    outer loop
      vertex 0.025688194452580138 -0.036537229485117693 -0.09984745271183716
      vertex 0.02178176413767101 -0.032667752248039916 -0.09728227599681788
      vertex 0.022085324674967197 -0.033120857492270415 -0.10110361976239957
    endloop
  endfacet
  facet normal -0.6933027114552311 -0.7200092754417441 0.03029840864928727
    outer loop
      vertex 0.021980439363937326 -0.03284105232566993 -0.09685438521578377
      vertex 0.02173183099990439 -0.03259322027236067 -0.09665369730737439
      vertex 0.02178176413767101 -0.032667752248039916 -0.09728227599681788
    endloop
  endfacet
  facet normal -0.8770319071885967 -0.414162835734956 0.24348342709332949
    outer loop
      vertex 0.02268188773425095 -0.01150608810939957 -0.05736257742296402
      vertex 0.02068264153864596 -0.02214291098408222 -0.08265702765468055
      vertex 0.02211882680773752 -0.02400359456763687 -0.08064886503723208
    endloop
  endfacet
  facet normal -0.8770319071885966 -0.41416283573495616 0.24348342709332946
    outer loop
      vertex 0.02068264153864595 -0.022142910984082213 -0.08265702765468057
      vertex 0.019259918704096317 -0.029712389332541226 -0.1006573079659069
      vertex 0.02173183099990439 -0.03259322027236067 -0.09665369730737439
    endloop
  endfacet
  facet normal -0.8770319071885966 -0.41416283573495616 0.24348342709332946
    outer loop
      vertex 0.02068264153864595 -0.022142910984082213 -0.08265702765468057
      vertex 0.02173183099990439 -0.03259322027236067 -0.09665369730737439
      vertex 0.02211882680773752 -0.02400359456763687 -0.08064886503723208
    endloop
  endfacet
  facet normal -0.6933027114552297 -0.7200092754417455 0.030298408649287716
    outer loop
      vertex 0.0335726838548568 -0.044397098582693466 -0.10621216893196106
      vertex 0.025688194452580138 -0.036537229485117693 -0.09984745271183716
      vertex 0.022085324674967197 -0.033120857492270415 -0.10110361976239957
    endloop
  endfacet
  facet normal -0.6933027114552297 -0.7200092754417455 0.030298408649287716
    outer loop
      vertex 0.0335726838548568 -0.044397098582693466 -0.10621216893196106
      vertex 0.022085324674967197 -0.033120857492270415 -0.10110361976239957
      vertex 0.022491138447777562 -0.033726589549141595 -0.10621216893196106
    endloop
  endfacet
  facet normal -0.5840486885413672 -0.5547096565103588 0.5926080714833953
    outer loop
      vertex 0.07106677442789078 -0.034423596169667475 -0.015314395361635704
      vertex 0.07106677442789078 -0.03428020899943711 -0.015180178074065891
      vertex 0.07088582155454691 -0.034359083662955196 -0.015432347818392355
    endloop
  endfacet
  facet normal -0.5840486885413679 -0.5547096565103327 0.5926080714834189
    outer loop
      vertex 0.07106677442789078 -0.029174246008195175 -0.010400751141967934
      vertex 0.04602538356085262 0.0025782053751299827 -0.005358633005471347
      vertex 0.04788950706485906 -0.02616054077464014 -0.03042228271294789
    endloop
  endfacet
  facet normal -0.5840486885413679 -0.5547096565103327 0.5926080714834189
    outer loop
      vertex 0.07106677442789078 -0.029174246008195175 -0.010400751141967934
      vertex 0.04788950706485906 -0.02616054077464014 -0.03042228271294789
      vertex 0.0708858215545469 -0.0343590836629552 -0.01543234781839236
    endloop
  endfacet
  facet normal -0.5840486885413679 -0.5547096565103327 0.5926080714834189
    outer loop
      vertex 0.07106677442789078 -0.029174246008195175 -0.010400751141967934
      vertex 0.0708858215545469 -0.0343590836629552 -0.01543234781839236
      vertex 0.07106677442789078 -0.03428020899943711 -0.01518017807406589
    endloop
  endfacet
  facet normal -0.5959052178360126 -0.5611750096957492 0.574438490918558
    outer loop
      vertex 0.04602538356085262 0.0025782053751299827 -0.005358633005471347
      vertex 0.07106677442789078 -0.02917424600819518 -0.010400751141967935
      vertex 0.07106677442789078 -0.006893871661888104 0.011365181133601762
    endloop
  endfacet
  facet normal -0.604757959021887 -0.28746278559857746 0.7427199727323804
    outer loop
      vertex 0.07106677442789078 -0.005235551292420868 0.012007018448233509
      vertex 0.04602538356085262 0.0025782053751299827 -0.005358633005471347
      vertex 0.07106677442789078 -0.006893871661888104 0.011365181133601764
    endloop
  endfacet
  facet normal -0.8581134048218999 0.20793314480119254 0.46947331314788554
    outer loop
      vertex 0.010643679729994915 0.030973757030551496 -0.04568461287851733
      vertex 0.026694290092308393 0.03923873394990096 -0.020007580920946566
      vertex 0.023803743844906394 0.0702290651455598 -0.03901682650778985
    endloop
  endfacet
  facet normal -0.8581134048218999 0.20793314480119254 0.46947331314788554
    outer loop
      vertex 0.010643679729994915 0.030973757030551496 -0.04568461287851733
      vertex 0.023803743844906394 0.0702290651455598 -0.03901682650778985
      vertex 0.018639072116549027 0.06040426000650084 -0.044105446766024146
    endloop
  endfacet
  facet normal -0.8581134048219001 0.20793314480119254 0.46947331314788515
    outer loop
      vertex 0.023803743844906394 0.0702290651455598 -0.03901682650778985
      vertex 0.023165924472280608 0.07706729982817251 -0.04321135033012524
      vertex 0.018639072116549027 0.06040426000650084 -0.044105446766024146
    endloop
  endfacet
  facet normal -0.6719332001890093 0.11574393043593958 0.7315115289939027
    outer loop
      vertex 0.026694290092308393 0.03923873394990096 -0.020007580920946566
      vertex 0.040462003741131715 0.08321252465248108 -0.014318969936265226
      vertex 0.03776125032504962 0.08321252465248108 -0.016799759115740436
    endloop
  endfacet
  facet normal -0.8774564422513734 0.18866101314329448 0.44099570754295103
    outer loop
      vertex 0.0349326238715879 0.08321252465248108 -0.022427923884375756
      vertex 0.03068539630625454 0.08099438621082847 -0.029929767749585924
      vertex 0.023803743844906394 0.07022906514555978 -0.03901682650778985
    endloop
  endfacet
  facet normal -0.8774564422513734 0.18866101314329448 0.44099570754295103
    outer loop
      vertex 0.0349326238715879 0.08321252465248108 -0.022427923884375756
      vertex 0.023803743844906394 0.07022906514555978 -0.03901682650778985
      vertex 0.026694290092308393 0.03923873394990096 -0.020007580920946566
    endloop
  endfacet
  facet normal -0.8774564422513734 0.18866101314329448 0.44099570754295103
    outer loop
      vertex 0.0349326238715879 0.08321252465248108 -0.022427923884375756
      vertex 0.026694290092308393 0.03923873394990096 -0.020007580920946566
      vertex 0.03776125032504962 0.08321252465248108 -0.016799759115740436
    endloop
  endfacet
  facet normal -0.8774564422513735 0.1886610131432948 0.44099570754295075
    outer loop
      vertex 0.03068539630625454 0.08099438621082847 -0.029929767749585924
      vertex 0.023165924472280608 0.07706729982817251 -0.04321135033012524
      vertex 0.023803743844906394 0.07022906514555978 -0.03901682650778985
    endloop
  endfacet
  facet normal -0.8779020149898867 0.09110217142870512 0.47009408253845475
    outer loop
      vertex 0.03244753344317065 0.08321252465248108 -0.027068837215509043
      vertex 0.03068539630625456 0.08099438621082848 -0.02992976774958589
      vertex 0.034932623871587895 0.08321252465248108 -0.022427923884375763
    endloop
  endfacet
  facet normal -0.8779020149898865 0.09110217142870222 0.47009408253845575
    outer loop
      vertex 0.023773051782491804 0.08321252465248108 -0.04326845599773398
      vertex 0.023165924472280608 0.07706729982817251 -0.04321135033012524
      vertex 0.03068539630625456 0.08099438621082848 -0.02992976774958589
    endloop
  endfacet
  facet normal -0.8779020149898865 0.09110217142870222 0.47009408253845575
    outer loop
      vertex 0.023773051782491804 0.08321252465248108 -0.04326845599773398
      vertex 0.03068539630625456 0.08099438621082848 -0.02992976774958589
      vertex 0.03244753344317065 0.08321252465248108 -0.027068837215509043
    endloop
  endfacet
  facet normal -0.9493196337743725 0.0965690849276609 0.2991097537137924
    outer loop
      vertex 0.02262124689855117 0.08321252465248108 -0.046924073967478705
      vertex 0.023165924472280608 0.07706729982817251 -0.04321135033012524
      vertex 0.023773051782491804 0.08321252465248108 -0.04326845599773398
    endloop
  endfacet
  facet normal -0.9493196337744016 0.0965690849276117 0.29910975371371573
    outer loop
      vertex 0.02261781858255843 0.08321252465248108 -0.04693495481520192
      vertex 0.023165924472280608 0.07706729982817251 -0.04321135033012524
      vertex 0.02262124689855117 0.08321252465248108 -0.0469240739674787
    endloop
  endfacet
  facet normal -0.6719332001890052 0.11574393043593507 0.731511528993907
    outer loop
      vertex 0.026694290092308393 0.03923873394990096 -0.020007580920946566
      vertex 0.027091668977498783 0.03969353563510955 -0.019714528080489728
      vertex 0.02694844780647483 0.04005050839649954 -0.019902566798665464
    endloop
  endfacet
  facet normal -0.6719332001890093 0.11574393043593952 0.7315115289939027
    outer loop
      vertex 0.027091668977498783 0.03969353563510955 -0.019714528080489728
      vertex 0.05887147270736648 0.0760656450515853 0.0037219505530856622
      vertex 0.04216508741173748 0.08321252465248108 -0.012754594782050373
    endloop
  endfacet
  facet normal -0.6719332001890093 0.11574393043593952 0.7315115289939027
    outer loop
      vertex 0.027091668977498783 0.03969353563510955 -0.019714528080489728
      vertex 0.04216508741173748 0.08321252465248108 -0.012754594782050373
      vertex 0.040462003741131715 0.08321252465248108 -0.014318969936265226
    endloop
  endfacet
  facet normal -0.6719332001890093 0.11574393043593952 0.7315115289939027
    outer loop
      vertex 0.027091668977498783 0.03969353563510955 -0.019714528080489728
      vertex 0.040462003741131715 0.08321252465248108 -0.014318969936265226
      vertex 0.02694844780647483 0.04005050839649954 -0.019902566798665464
    endloop
  endfacet
  facet normal -0.7147500379611967 0.19098746564786528 0.672797273478329
    outer loop
      vertex 0.026694290092308393 0.03923873394990096 -0.020007580920946566
      vertex 0.027133793207272532 0.03911460730416283 -0.01950543634499287
      vertex 0.027091668977498783 0.03969353563510955 -0.019714528080489725
    endloop
  endfacet
  facet normal -0.7147500379611968 0.1909874656478695 0.6727972734783275
    outer loop
      vertex 0.027133793207272532 0.03911460730416283 -0.01950543634499287
      vertex 0.056625864281308225 0.03078531057417422 0.014190078019396424
      vertex 0.05887147270736648 0.0760656450515853 0.0037219505530856622
    endloop
  endfacet
  facet normal -0.7147500379611968 0.1909874656478695 0.6727972734783275
    outer loop
      vertex 0.027133793207272532 0.03911460730416283 -0.01950543634499287
      vertex 0.05887147270736648 0.0760656450515853 0.0037219505530856622
      vertex 0.027091668977498783 0.03969353563510955 -0.019714528080489725
    endloop
  endfacet
  facet normal -0.7620494866793613 -0.1501423522539069 0.6298712994821924
    outer loop
      vertex 0.027516404519284148 0.038634900112668534 -0.019156881984804388
      vertex 0.027133793207272546 0.03911460730416283 -0.019505436344992848
      vertex 0.026694290092308393 0.03923873394990096 -0.020007580920946566
    endloop
  endfacet
  facet normal -0.7620494866793597 -0.15014235225390118 0.6298712994821958
    outer loop
      vertex 0.0526407904532095 0.020181320089268408 0.00684106633467753
      vertex 0.056625864281308225 0.03078531057417422 0.014190078019396424
      vertex 0.027133793207272546 0.03911460730416283 -0.019505436344992848
    endloop
  endfacet
  facet normal -0.7620494866793597 -0.15014235225390118 0.6298712994821958
    outer loop
      vertex 0.0526407904532095 0.020181320089268408 0.00684106633467753
      vertex 0.027133793207272546 0.03911460730416283 -0.019505436344992848
      vertex 0.02751640451928403 0.03863490011266868 -0.019156881984804492
    endloop
  endfacet
  facet normal -0.604757959021887 -0.2874627855985778 0.7427199727323804
    outer loop
      vertex 0.06160811279241059 0.02189672676113422 0.014806619104600542
      vertex 0.056625864281308225 0.03078531057417422 0.014190078019396424
      vertex 0.0526407904532095 0.020181320089268404 0.006841066334677527
    endloop
  endfacet
  facet normal -0.4697305633901938 -0.20371244492230203 0.8589845386273895
    outer loop
      vertex 0.056625864281308225 0.03078531057417422 0.014190078019396424
      vertex 0.06160811279241059 0.021896726761134216 0.014806619104600544
      vertex 0.07057159238954099 0.03032359084147236 0.021706716998564184
    endloop
  endfacet
  facet normal -0.5323497238747996 0.21564809675928143 0.8185961579768892
    outer loop
      vertex 0.05887147270736648 0.0760656450515853 0.0037219505530856622
      vertex 0.056625864281308225 0.03078531057417422 0.014190078019396424
      vertex 0.06828688870051551 0.052061106355521705 0.016168658356712502
    endloop
  endfacet
  facet normal -0.4628800715409097 0.1728474636331936 0.8694054253832639
    outer loop
      vertex 0.06828688870051551 0.05206110635552171 0.016168658356712506
      vertex 0.056625864281308225 0.03078531057417422 0.014190078019396424
      vertex 0.070571592389541 0.03032359084147236 0.02170671699856419
    endloop
  endfacet
  facet normal -0.9352067278072526 0.1944228513830173 0.29595292045213656
    outer loop
      vertex -4.2869601125516965E-4 0.0522708394817073 -0.09466402406383168
      vertex 0.010643679729994915 0.030973757030551496 -0.04568461287851733
      vertex 0.011151689799015853 0.05384606405020136 -0.05910500659538983
    endloop
  endfacet
  facet normal -0.9352067278072526 0.1944228513830173 0.29595292045213656
    outer loop
      vertex -4.2869601125516965E-4 0.0522708394817073 -0.09466402406383168
      vertex 0.011151689799015853 0.05384606405020136 -0.05910500659538983
      vertex 0.002136641683732862 0.061596350918114356 -0.09268388294380533
    endloop
  endfacet
  facet normal -0.9352067278072527 0.19442285138301715 0.29595292045213645
    outer loop
      vertex 0.011151689799015853 0.05384606405020136 -0.05910500659538983
      vertex 0.011734199387843083 0.0800725878339205 -0.0744934969081532
      vertex 0.007747916230495826 0.05677230706655625 -0.07178324084480861
    endloop
  endfacet
  facet normal -0.9352067278072528 0.19442285138301668 0.2959529204521364
    outer loop
      vertex 0.011734199387843083 0.0800725878339205 -0.0744934969081532
      vertex 0.01180393959894413 0.08321252465248108 -0.07633586411295613
      vertex 0.008082994940637567 0.08321252465248108 -0.08809399264546218
    endloop
  endfacet
  facet normal -0.9352067278072528 0.19442285138301668 0.2959529204521364
    outer loop
      vertex 0.011734199387843083 0.0800725878339205 -0.0744934969081532
      vertex 0.008082994940637567 0.08321252465248108 -0.08809399264546218
      vertex 0.002136641683732862 0.061596350918114356 -0.09268388294380533
    endloop
  endfacet
  facet normal -0.9352067278072528 0.19442285138301668 0.2959529204521364
    outer loop
      vertex 0.011734199387843083 0.0800725878339205 -0.0744934969081532
      vertex 0.002136641683732862 0.061596350918114356 -0.09268388294380533
      vertex 0.007747916230495826 0.05677230706655625 -0.07178324084480861
    endloop
  endfacet
  facet normal -0.9709798810115762 0.03816516204110441 0.2360963597286531
    outer loop
      vertex -4.2869601125516965E-4 0.0522708394817073 -0.09466402406383168
      vertex -2.492248934657937E-4 0.023009794488530133 -0.08919585263697627
      vertex 0.010643679729994915 0.030973757030551496 -0.04568461287851733
    endloop
  endfacet
  facet normal -0.8770319071885964 -0.4141628357349565 0.24348342709332965
    outer loop
      vertex 0.02268188773425095 -0.01150608810939957 -0.05736257742296402
      vertex 0.013170516956359494 -0.012410401405621545 -0.09316094249660452
      vertex 0.02068264153864596 -0.02214291098408222 -0.08265702765468055
    endloop
  endfacet
  facet normal -0.8770319071885962 -0.41416283573495644 0.24348342709333026
    outer loop
      vertex 0.02068264153864595 -0.022142910984082213 -0.08265702765468057
      vertex 0.013170516956359494 -0.012410401405621545 -0.09316094249660452
      vertex 0.0097028989945465 -0.012740092372603361 -0.10621216893196106
    endloop
  endfacet
  facet normal -0.8770319071885962 -0.41416283573495644 0.24348342709333026
    outer loop
      vertex 0.02068264153864595 -0.022142910984082213 -0.08265702765468057
      vertex 0.0097028989945465 -0.012740092372603361 -0.10621216893196106
      vertex 0.015830232279860783 -0.025715343490109135 -0.10621216893196106
    endloop
  endfacet
  facet normal -0.8770319071885962 -0.41416283573495644 0.24348342709333026
    outer loop
      vertex 0.02068264153864595 -0.022142910984082213 -0.08265702765468057
      vertex 0.015830232279860783 -0.025715343490109135 -0.10621216893196106
      vertex 0.019259918704096317 -0.029712389332541226 -0.1006573079659069
    endloop
  endfacet
  facet normal -0.943875951281762 -0.3152435732051026 0.09858842804725104
    outer loop
      vertex 0.00524896527957559 0.006379626004167962 -0.08973287566446964
      vertex 0.007566537748367352 0.005438293219526713 -0.07055464303118697
      vertex 0.002798486821058636 0.01615788857563997 -0.08192682010720331
    endloop
  endfacet
  facet normal -0.9774644555581171 -0.1806284451270485 0.10925476159627294
    outer loop
      vertex 0.007566537748367352 0.005438293219526713 -0.07055464303118697
      vertex 0.005248965279575588 0.006379626004167962 -0.08973287566446964
      vertex 0.0051737132555006796 -0.002049954402492997 -0.10434256550635457
    endloop
  endfacet
  facet normal -0.9774644555581171 -0.1806284451270485 0.10925476159627294
    outer loop
      vertex 0.007566537748367352 0.005438293219526713 -0.07055464303118697
      vertex 0.0051737132555006796 -0.002049954402492997 -0.10434256550635457
      vertex 0.006111850491945207 -0.005429288451596206 -0.10153635419138611
    endloop
  endfacet
  facet normal -0.9774644555581172 -0.18062844512704843 0.10925476159627295
    outer loop
      vertex 0.005892306513843596 -0.007069443132191067 -0.10621216893196106
      vertex 0.006111850491945207 -0.005429288451596206 -0.10153635419138611
      vertex 0.005173713255500677 -0.0020499544024929883 -0.10434256550635457
    endloop
  endfacet
  facet normal -0.9774644555581172 -0.18062844512704843 0.10925476159627295
    outer loop
      vertex 0.005892306513843596 -0.007069443132191067 -0.10621216893196106
      vertex 0.005173713255500677 -0.0020499544024929883 -0.10434256550635457
      vertex 0.005164083246683451 -0.0031286886244568215 -0.10621216893196106
    endloop
  endfacet
  facet normal -0.8080652044226687 -0.5430078746444906 0.22841425847661934
    outer loop
      vertex 0.007566537748367352 0.005438293219526713 -0.07055464303118697
      vertex 0.006111850491945206 -0.005429288451596209 -0.10153635419138612
      vertex 0.009498543120503519 -0.008778771516099154 -0.0975178975620982
    endloop
  endfacet
  facet normal -0.8080652044226687 -0.5430078746444907 0.2284142584766194
    outer loop
      vertex 0.009702898994546499 -0.012740092372603361 -0.10621216893196106
      vertex 0.010032600650102644 -0.012708745304145168 -0.10497125629101793
      vertex 0.009498543120503519 -0.008778771516099154 -0.0975178975620982
    endloop
  endfacet
  facet normal -0.8080652044226687 -0.5430078746444907 0.2284142584766194
    outer loop
      vertex 0.009702898994546499 -0.012740092372603361 -0.10621216893196106
      vertex 0.009498543120503519 -0.008778771516099154 -0.0975178975620982
      vertex 0.006111850491945206 -0.005429288451596209 -0.10153635419138612
    endloop
  endfacet
  facet normal -0.8080652044226687 -0.5430078746444907 0.2284142584766194
    outer loop
      vertex 0.009702898994546499 -0.012740092372603361 -0.10621216893196106
      vertex 0.006111850491945206 -0.005429288451596209 -0.10153635419138612
      vertex 0.005892306513843596 -0.007069443132191066 -0.10621216893196106
    endloop
  endfacet
  facet normal -0.8080652044226687 -0.5430078746444907 0.22841425847661945
    outer loop
      vertex 0.013170516956359497 -0.012410401405621545 -0.0931609424966045
      vertex 0.02268188773425095 -0.01150608810939957 -0.05736257742296402
      vertex 0.007566537748367352 0.005438293219526713 -0.07055464303118697
    endloop
  endfacet
  facet normal -0.8080652044226687 -0.5430078746444907 0.22841425847661945
    outer loop
      vertex 0.013170516956359497 -0.012410401405621545 -0.0931609424966045
      vertex 0.007566537748367352 0.005438293219526713 -0.07055464303118697
      vertex 0.009498543120503519 -0.008778771516099154 -0.0975178975620982
    endloop
  endfacet
  facet normal -0.8080652044226687 -0.5430078746444907 0.22841425847661948
    outer loop
      vertex 0.010032600650102644 -0.012708745304145168 -0.10497125629101793
      vertex 0.013170516956359497 -0.012410401405621545 -0.0931609424966045
      vertex 0.009498543120503519 -0.008778771516099154 -0.0975178975620982
    endloop
  endfacet
  facet normal -0.8086119871623351 -0.35758648145890143 0.46720291362021954
    outer loop
      vertex 0.02268188773425095 -0.01150608810939957 -0.05736257742296402
      vertex 0.008856728643180557 0.016144858955044278 -0.06012708179147689
      vertex 0.007566537748367352 0.005438293219526713 -0.07055464303118697
    endloop
  endfacet
  facet normal -0.953591727133745 -0.14310586335843803 0.26492174281194364
    outer loop
      vertex 0.007566537748367352 0.005438293219526713 -0.07055464303118697
      vertex 0.008856728643180555 0.016144858955044264 -0.060127081791476904
      vertex 0.0027984868210586293 0.016157888575639982 -0.08192682010720333
    endloop
  endfacet
  facet normal -0.8015595687358785 -0.19709951606128673 0.5644944982339146
    outer loop
      vertex 0.010643679729994915 0.030973757030551496 -0.04568461287851733
      vertex 0.04602538356085262 0.0025782053751299827 -0.005358633005471347
      vertex 0.026694290092308393 0.03923873394990096 -0.020007580920946566
    endloop
  endfacet
  facet normal -0.8122589642609358 -0.35699494290444084 0.46129164930486954
    outer loop
      vertex 0.010643679729994915 0.030973757030551496 -0.04568461287851733
      vertex 0.02268188773425095 -0.01150608810939957 -0.05736257742296402
      vertex 0.04602538356085262 0.0025782053751299827 -0.005358633005471347
    endloop
  endfacet
  facet normal -0.8086119871623351 -0.35758648145890143 0.46720291362021965
    outer loop
      vertex 0.02268188773425095 -0.01150608810939957 -0.05736257742296402
      vertex 0.010643679729994915 0.030973757030551496 -0.04568461287851733
      vertex 0.008856728643180557 0.016144858955044278 -0.06012708179147689
    endloop
  endfacet
  facet normal -0.9535917271337462 -0.14310586335843492 0.26492174281194075
    outer loop
      vertex 0.008856728643180555 0.016144858955044264 -0.060127081791476904
      vertex 0.010643679729994915 0.030973757030551496 -0.04568461287851733
      vertex 0.008758758215680486 0.016145069662628644 -0.0604796147118999
    endloop
  endfacet
  facet normal -0.999864752371674 0.016132658563248053 -0.003195980665238604
    outer loop
      vertex -2.492248934657937E-4 0.023009794488530133 -0.08919585263697627
      vertex -1.3430999462709875E-4 0.02676091453867938 -0.10621216893196106
      vertex -2.792471238164076E-4 0.017778047504198934 -0.10621216893196106
    endloop
  endfacet
  facet normal -0.9999345284988883 -0.007712702424005651 -0.008452983912486608
    outer loop
      vertex -1.3430999462709875E-4 0.02676091453867938 -0.10621216893196106
      vertex -2.492248934657937E-4 0.023009794488530133 -0.08919585263697627
      vertex -3.026485848794291E-4 0.03172001514916356 -0.09082357918430864
    endloop
  endfacet
  facet normal -0.9999345284988883 -0.007712702424005651 -0.008452983912486608
    outer loop
      vertex -1.3430999462709875E-4 0.02676091453867938 -0.10621216893196106
      vertex -3.026485848794291E-4 0.03172001514916356 -0.09082357918430864
      vertex -2.6266990719657447E-4 0.0434024886066514 -0.10621216893196106
    endloop
  endfacet
  facet normal -0.9999345284988883 -0.007712702424005645 -0.008452983912486613
    outer loop
      vertex -3.026485848794291E-4 0.03172001514916356 -0.09082357918430864
      vertex -4.2869601125516965E-4 0.0522708394817073 -0.09466402406383168
      vertex -3.067060255456829E-4 0.04911167234246938 -0.10621216893196106
    endloop
  endfacet
  facet normal -0.9999345284988883 -0.007712702424005645 -0.008452983912486613
    outer loop
      vertex -3.026485848794291E-4 0.03172001514916356 -0.09082357918430864
      vertex -3.067060255456829E-4 0.04911167234246938 -0.10621216893196106
      vertex -2.6266990719657447E-4 0.04340248860665139 -0.10621216893196106
    endloop
  endfacet
  facet normal -0.9999345284988883 -0.0077127024240055955 -0.008452983912486644
    outer loop
      vertex -4.2869601125516965E-4 0.0522708394817073 -0.09466402406383168
      vertex -3.0941873449326986E-4 0.04946336895843338 -0.10621216893196106
      vertex -3.067060255456829E-4 0.04911167234246938 -0.10621216893196106
    endloop
  endfacet
  facet normal -0.9913798948257306 0.12333360397165215 -0.04421228637705806
    outer loop
      vertex 3.207212236026087E-4 0.055960368216938366 -0.10117611215503419
      vertex -4.2869601125516965E-4 0.0522708394817073 -0.09466402406383168
      vertex 3.290408675891486E-4 0.05703035040486307 -0.09837786664954817
    endloop
  endfacet
  facet normal -0.9908843356112486 0.128196128435604 -0.04140031514827836
    outer loop
      vertex -4.2869601125516965E-4 0.0522708394817073 -0.09466402406383168
      vertex 3.207212236026086E-4 0.055960368216938366 -0.10117611215503419
      vertex 3.091319881232497E-4 0.05424441990982469 -0.10621216893196106
    endloop
  endfacet
  facet normal -0.9908843356112486 0.128196128435604 -0.04140031514827836
    outer loop
      vertex -4.2869601125516965E-4 0.0522708394817073 -0.09466402406383168
      vertex 3.091319881232497E-4 0.05424441990982469 -0.10621216893196106
      vertex -3.094187344932699E-4 0.049463368958433375 -0.10621216893196106
    endloop
  endfacet
  facet normal -0.9639125117656973 0.2412667052023727 0.11253020315602352
    outer loop
      vertex 3.2904086758914837E-4 0.05703035040486307 -0.09837786664954817
      vertex -4.2869601125516965E-4 0.0522708394817073 -0.09466402406383168
      vertex 2.802063962216426E-4 0.05484784036589395 -0.09411683419098452
    endloop
  endfacet
  facet normal -0.943875951281762 -0.31524357320510266 0.0985884280472511
    outer loop
      vertex 0.0032575431755594068 0.007188485679458712 -0.10621216893196106
      vertex 0.00524896527957559 0.006379626004167962 -0.08973287566446964
      vertex 0.002798486821058636 0.01615788857563997 -0.08192682010720331
    endloop
  endfacet
  facet normal -0.943875951281762 -0.31524357320510266 0.0985884280472511
    outer loop
      vertex 0.0032575431755594068 0.007188485679458712 -0.10621216893196106
      vertex 0.002798486821058636 0.01615788857563997 -0.08192682010720331
      vertex -2.492248934657937E-4 0.023009794488530133 -0.08919585263697627
    endloop
  endfacet
  facet normal -0.943875951281762 -0.31524357320510266 0.0985884280472511
    outer loop
      vertex 0.0032575431755594068 0.007188485679458712 -0.10621216893196106
      vertex -2.492248934657937E-4 0.023009794488530133 -0.08919585263697627
      vertex -2.792471238164076E-4 0.017778047504198934 -0.10621216893196106
    endloop
  endfacet
  facet normal -0.9774644555581172 -0.18062844512704848 0.10925476159627287
    outer loop
      vertex 0.005248965279575588 0.006379626004167962 -0.08973287566446964
      vertex 0.0032575431755594063 0.007188485679458712 -0.10621216893196106
      vertex 0.004548690976675818 2.0148492453538926E-4 -0.10621216893196106
    endloop
  endfacet
  facet normal -0.9774644555581172 -0.18062844512704848 0.10925476159627287
    outer loop
      vertex 0.005248965279575588 0.006379626004167962 -0.08973287566446964
      vertex 0.004548690976675818 2.0148492453538926E-4 -0.10621216893196106
      vertex 0.0051737132555006796 -0.002049954402492997 -0.10434256550635457
    endloop
  endfacet
  facet normal -0.9774644555581172 -0.18062844512704818 0.10925476159627309
    outer loop
      vertex 0.005164083246683451 -0.0031286886244568223 -0.10621216893196106
      vertex 0.005173713255500677 -0.0020499544024929883 -0.10434256550635457
      vertex 0.004548690976675815 2.0148492453539533E-4 -0.10621216893196106
    endloop
  endfacet
  facet normal -0.7603077382663403 -0.45425335062856964 0.46431243422402557
    outer loop
      vertex 0.04602538356085262 0.0025782053751299827 -0.005358633005471347
      vertex 0.02268188773425095 -0.01150608810939957 -0.05736257742296402
      vertex 0.04609114172217889 -0.02511506085670455 -0.0323442608138015
    endloop
  endfacet
  facet normal -0.76030773826634 -0.45425335062856975 0.4643124342240258
    outer loop
      vertex 0.04788950706485906 -0.02616054077464014 -0.03042228271294789
      vertex 0.04602538356085262 0.0025782053751299827 -0.005358633005471347
      vertex 0.04609114172217889 -0.02511506085670455 -0.0323442608138015
    endloop
  endfacet
  facet normal -0.604757959021887 -0.28746278559857774 0.7427199727323803
    outer loop
      vertex 0.07106677442789078 -0.005235551292420868 0.012007018448233509
      vertex 0.07106677442789078 0.00183045136929551 0.01474184837439176
      vertex 0.049308053349301044 0.011313149996821571 6.950512355282466E-4
    endloop
  endfacet
  facet normal -0.604757959021887 -0.28746278559857774 0.7427199727323803
    outer loop
      vertex 0.07106677442789078 -0.005235551292420868 0.012007018448233509
      vertex 0.049308053349301044 0.011313149996821571 6.950512355282466E-4
      vertex 0.04602538356085262 0.0025782053751299827 -0.005358633005471347
    endloop
  endfacet
  facet normal -0.6047579590218871 -0.2874627855985777 0.7427199727323804
    outer loop
      vertex 0.07106677442789078 0.005021995097548541 0.015977105381293155
      vertex 0.06160811279241059 0.02189672676113422 0.014806619104600542
      vertex 0.0526407904532095 0.020181320089268404 0.006841066334677527
    endloop
  endfacet
  facet normal -0.6047579590218871 -0.2874627855985777 0.7427199727323804
    outer loop
      vertex 0.07106677442789078 0.005021995097548541 0.015977105381293155
      vertex 0.0526407904532095 0.020181320089268404 0.006841066334677527
      vertex 0.049308053349301044 0.011313149996821571 6.950512355282466E-4
    endloop
  endfacet
  facet normal -0.6047579590218871 -0.2874627855985777 0.7427199727323804
    outer loop
      vertex 0.07106677442789078 0.005021995097548541 0.015977105381293155
      vertex 0.049308053349301044 0.011313149996821571 6.950512355282466E-4
      vertex 0.07106677442789078 0.0018304513692955111 0.014741848374391759
    endloop
  endfacet
  facet normal -0.9073605816274921 0.22753793080969648 0.3534448541872707
    outer loop
      vertex 0.011151689799015853 0.05384606405020133 -0.05910500659538981
      vertex 0.010643679729994915 0.030973757030551496 -0.04568461287851733
      vertex 0.018639072116549027 0.06040426000650085 -0.044105446766024146
    endloop
  endfacet
  facet normal -0.907360581627492 0.22753793080969673 0.35344485418727073
    outer loop
      vertex 0.023165924472280608 0.07706729982817251 -0.04321135033012524
      vertex 0.019914978066234323 0.08321252465248108 -0.055513276107801796
      vertex 0.012232920998309995 0.08321252465248108 -0.07523458676395915
    endloop
  endfacet
  facet normal -0.907360581627492 0.22753793080969673 0.35344485418727073
    outer loop
      vertex 0.023165924472280608 0.07706729982817251 -0.04321135033012524
      vertex 0.012232920998309995 0.08321252465248108 -0.07523458676395915
      vertex 0.011734199387843085 0.08007258783392052 -0.07449349690815321
    endloop
  endfacet
  facet normal -0.907360581627492 0.22753793080969673 0.35344485418727073
    outer loop
      vertex 0.023165924472280608 0.07706729982817251 -0.04321135033012524
      vertex 0.011734199387843085 0.08007258783392052 -0.07449349690815321
      vertex 0.011151689799015853 0.05384606405020133 -0.05910500659538981
    endloop
  endfacet
  facet normal -0.907360581627492 0.22753793080969673 0.35344485418727073
    outer loop
      vertex 0.023165924472280608 0.07706729982817251 -0.04321135033012524
      vertex 0.011151689799015853 0.05384606405020133 -0.05910500659538981
      vertex 0.018639072116549027 0.06040426000650085 -0.044105446766024146
    endloop
  endfacet
  facet normal -0.9073605816274928 0.2275379308096961 0.3534448541872693
    outer loop
      vertex 0.011803939598944132 0.08321252465248108 -0.07633586411295615
      vertex 0.011734199387843085 0.08007258783392052 -0.07449349690815321
      vertex 0.012232920998309995 0.08321252465248108 -0.07523458676395915
    endloop
  endfacet
  facet normal -0.9493196337743723 0.09656908492766118 0.2991097537137931
    outer loop
      vertex 0.019914978066234323 0.08321252465248108 -0.055513276107801796
      vertex 0.023165924472280608 0.07706729982817251 -0.04321135033012524
      vertex 0.02261781858255843 0.08321252465248108 -0.04693495481520192
    endloop
  endfacet
  facet normal -0.7620494866793598 -0.15014235225390116 0.6298712994821958
    outer loop
      vertex 0.04602538356085262 0.0025782053751299827 -0.005358633005471347
      vertex 0.049308053349301044 0.011313149996821575 6.950512355282483E-4
      vertex 0.027516404519284148 0.038634900112668534 -0.019156881984804388
    endloop
  endfacet
  facet normal -0.7620494866793598 -0.15014235225390116 0.6298712994821958
    outer loop
      vertex 0.04602538356085262 0.0025782053751299827 -0.005358633005471347
      vertex 0.027516404519284148 0.038634900112668534 -0.019156881984804388
      vertex 0.026694290092308393 0.03923873394990096 -0.020007580920946566
    endloop
  endfacet
  facet normal -0.7620494866793596 -0.15014235225390102 0.6298712994821959
    outer loop
      vertex 0.049308053349301044 0.011313149996821575 6.950512355282483E-4
      vertex 0.0526407904532095 0.020181320089268408 0.00684106633467753
      vertex 0.02751640451928403 0.03863490011266868 -0.019156881984804492
    endloop
  endfacet
  facet normal -0.9535917271337448 -0.14310586335843808 0.26492174281194375
    outer loop
      vertex 0.010643679729994915 0.030973757030551496 -0.04568461287851733
      vertex -2.492248934657937E-4 0.023009794488530133 -0.08919585263697627
      vertex 0.0027984868210586293 0.016157888575639982 -0.08192682010720333
    endloop
  endfacet
  facet normal -0.9535917271337448 -0.14310586335843808 0.26492174281194375
    outer loop
      vertex 0.010643679729994915 0.030973757030551496 -0.04568461287851733
      vertex 0.0027984868210586293 0.016157888575639982 -0.08192682010720333
      vertex 0.008758758215680486 0.016145069662628644 -0.0604796147118999
    endloop
  endfacet
  facet normal -0.9913798948257306 0.1233336039716522 -0.04421228637705799
    outer loop
      vertex 9.002753837267518E-4 0.05881362756025535 -0.10621216893196106
      vertex 3.207212236026087E-4 0.055960368216938366 -0.10117611215503419
      vertex 3.290408675891486E-4 0.05703035040486307 -0.09837786664954817
    endloop
  endfacet
  facet normal -0.9913798948257306 0.1233336039716522 -0.04421228637705799
    outer loop
      vertex 9.002753837267518E-4 0.05881362756025535 -0.10621216893196106
      vertex 3.290408675891486E-4 0.05703035040486307 -0.09837786664954817
      vertex 0.0019274768869911923 0.06707047634661853 -0.10621216893196106
    endloop
  endfacet
  facet normal -0.9908843356112486 0.12819612843560418 -0.04140031514827843
    outer loop
      vertex 3.207212236026086E-4 0.055960368216938366 -0.10117611215503419
      vertex 9.002753837267523E-4 0.05881362756025535 -0.10621216893196106
      vertex 3.091319881232497E-4 0.05424441990982469 -0.10621216893196106
    endloop
  endfacet
  facet normal -0.9639125117656973 0.24126670520237273 0.11253020315602374
    outer loop
      vertex 0.0019274768869911923 0.06707047634661853 -0.10621216893196106
      vertex 3.2904086758914837E-4 0.05703035040486307 -0.09837786664954817
      vertex 2.802063962216426E-4 0.05484784036589395 -0.09411683419098452
    endloop
  endfacet
  facet normal -0.9639125117656973 0.24126670520237273 0.11253020315602374
    outer loop
      vertex 0.0019274768869911923 0.06707047634661853 -0.10621216893196106
      vertex 2.802063962216426E-4 0.05484784036589395 -0.09411683419098452
      vertex 0.002136641683732873 0.06159635091811439 -0.09268388294380532
    endloop
  endfacet
  facet normal -0.9639125117656973 0.24126670520237273 0.11253020315602374
    outer loop
      vertex 0.0019274768869911923 0.06707047634661853 -0.10621216893196106
      vertex 0.002136641683732873 0.06159635091811439 -0.09268388294380532
      vertex 0.006510847394939455 0.08321252465248108 -0.1015607122206416
    endloop
  endfacet
  facet normal -0.9639125117656973 0.24126670520237273 0.11253020315602374
    outer loop
      vertex 0.0019274768869911923 0.06707047634661853 -0.10621216893196106
      vertex 0.006510847394939455 0.08321252465248108 -0.1015607122206416
      vertex 0.00596782158885524 0.08321252465248108 -0.10621216893196106
    endloop
  endfacet
  facet normal -0.9639125117656973 0.2412667052023728 0.1125302031560239
    outer loop
      vertex 0.002136641683732873 0.06159635091811439 -0.09268388294380532
      vertex 0.008082994940637567 0.08321252465248108 -0.08809399264546218
      vertex 0.006510847394939455 0.08321252465248108 -0.1015607122206416
    endloop
  endfacet
  facet normal -0.46973056339019365 -0.20371244492230225 0.8589845386273895
    outer loop
      vertex 0.06160811279241059 0.021896726761134216 0.014806619104600544
      vertex 0.07106677442789078 0.0050219950975485435 0.015977105381293155
      vertex 0.07106677442789078 0.03030719619240053 0.021973616265662792
    endloop
  endfacet
  facet normal -0.46973056339019365 -0.20371244492230225 0.8589845386273895
    outer loop
      vertex 0.06160811279241059 0.021896726761134216 0.014806619104600544
      vertex 0.07106677442789078 0.03030719619240053 0.021973616265662792
      vertex 0.07057159238954099 0.03032359084147236 0.021706716998564184
    endloop
  endfacet
  facet normal -0.5323497238748001 0.21564809675928118 0.818596157976889
    outer loop
      vertex 0.07106677442789078 0.07436407218393284 0.012101059576574529
      vertex 0.05887147270736648 0.0760656450515853 0.0037219505530856622
      vertex 0.06828688870051551 0.052061106355521705 0.016168658356712502
    endloop
  endfacet
  facet normal -0.5323497238748001 0.21564809675928118 0.818596157976889
    outer loop
      vertex 0.07106677442789078 0.07436407218393284 0.012101059576574529
      vertex 0.06828688870051551 0.052061106355521705 0.016168658356712502
      vertex 0.07106677442789078 0.05713306906693669 0.016640334518466412
    endloop
  endfacet
  facet normal -0.6050295107391127 0.2927225449676939 0.7404409515973752
    outer loop
      vertex 0.05887147270736648 0.0760656450515853 0.0037219505530856622
      vertex 0.06813109872959584 0.08321252465248108 0.008462766426291783
      vertex 0.06452293973036495 0.08321252465248108 0.005514465593843158
    endloop
  endfacet
  facet normal -0.5440520654334416 0.1583023359628865 0.8239828399465001
    outer loop
      vertex 0.06813109872959584 0.08321252465248108 0.008462766426291783
      vertex 0.05887147270736648 0.0760656450515853 0.0037219505530856622
      vertex 0.07106677442789078 0.07436407218393284 0.012101059576574529
    endloop
  endfacet
  facet normal -0.5440520654334416 0.1583023359628865 0.8239828399465001
    outer loop
      vertex 0.06813109872959584 0.08321252465248108 0.008462766426291783
      vertex 0.07106677442789078 0.07436407218393284 0.012101059576574529
      vertex 0.07106677442789078 0.08321252465248108 0.010401108282056424
    endloop
  endfacet
  facet normal -0.6050295107391125 0.2927225449676937 0.7404409515973754
    outer loop
      vertex 0.05887147270736648 0.0760656450515853 0.0037219505530856622
      vertex 0.06452293973036495 0.08321252465248108 0.0055144655938431575
      vertex 0.04216508741173748 0.08321252465248108 -0.01275459478205037
    endloop
  endfacet
  facet normal -0.46288007154090954 0.17284746363319364 0.869405425383264
    outer loop
      vertex 0.07106677442789078 0.05713306906693669 0.016640334518466415
      vertex 0.06828688870051551 0.05206110635552171 0.016168658356712506
      vertex 0.070571592389541 0.03032359084147236 0.02170671699856419
    endloop
  endfacet
  facet normal -0.46288007154090954 0.17284746363319364 0.869405425383264
    outer loop
      vertex 0.07106677442789078 0.05713306906693669 0.016640334518466415
      vertex 0.070571592389541 0.03032359084147236 0.02170671699856419
      vertex 0.07106677442789078 0.03030719619240053 0.021973616265662792
    endloop
  endfacet
endsolid v3d.csg
