solid v3d.csg
  facet normal 1.0 -0.0 -0.0
    outer loop
      vertex 0.07106677442789078 0.08124251787612129 0.043124701994828485
      vertex 0.07106677442789078 0.08148449918888843 0.10621216893196106
      vertex 0.07106677442789078 0.05640202787706641 0.10621216893196106
    endloop
  endfacet
  facet normal 1.0 -0.0 -0.0
    outer loop
      vertex 0.07106677442789078 0.08124251787612129 0.043124701994828485
      vertex 0.07106677442789078 0.08281411809603288 0.03913330420372876
      vertex 0.07106677442789078 0.08253320351630097 0.10621216893196106
    endloop
  endfacet
  facet normal 1.0 -0.0 -0.0
    outer loop
      vertex 0.07106677442789078 0.08124251787612129 0.043124701994828485
      vertex 0.07106677442789078 0.08253320351630097 0.10621216893196106
      vertex 0.07106677442789078 0.08148449918888843 0.10621216893196106
    endloop
  endfacet
  facet normal 1.0 -0.0 -0.0
    outer loop
      vertex 0.07106677442789078 0.08281411809603288 0.03913330420372876
      vertex 0.07106677442789078 0.0828148216887715 0.0391315172871407
      vertex 0.07106677442789078 0.08256365999393098 0.09910031158348515
    endloop
  endfacet
  facet normal 1.0 -0.0 -0.0
    outer loop
      vertex 0.07106677442789078 0.08281411809603288 0.03913330420372876
      vertex 0.07106677442789078 0.08256365999393098 0.09910031158348515
      vertex 0.07106677442789078 0.08253381936352881 0.10621216893196106
    endloop
  endfacet
  facet normal 1.0 -0.0 -0.0
    outer loop
      vertex 0.07106677442789078 0.08281411809603288 0.03913330420372876
      vertex 0.07106677442789078 0.08253381936352881 0.10621216893196106
      vertex 0.07106677442789078 0.08253320351630097 0.10621216893196106
    endloop
  endfacet
  facet normal 1.0 -0.0 -0.0
    outer loop
      vertex 0.07106677442789078 0.03823754852394567 0.02439039960771726
      vertex 0.07106677442789078 0.08286069238572366 -0.00993473466872701
      vertex 0.07106677442789078 0.08261728244361076 0.039633208300415335
    endloop
  endfacet
  facet normal 1.0 -0.0 -0.0
    outer loop
      vertex 0.07106677442789078 0.03823754852394567 0.02439039960771726
      vertex 0.07106677442789078 0.08261728244361076 0.039633208300415335
      vertex 0.07106677442789078 0.0571107265201733 0.10441228486296333
    endloop
  endfacet
  facet normal 1.0 -0.0 -0.0
    outer loop
      vertex 0.07106677442789078 0.08286069238572366 -0.00993473466872701
      vertex 0.07106677442789078 0.08302082936277352 -0.01005791566325502
      vertex 0.07106677442789078 0.08281481359721625 0.039131537837287816
    endloop
  endfacet
  facet normal 1.0 -0.0 -0.0
    outer loop
      vertex 0.07106677442789078 0.08286069238572366 -0.00993473466872701
      vertex 0.07106677442789078 0.08281481359721625 0.039131537837287816
      vertex 0.07106677442789078 0.08261728244361076 0.039633208300415335
    endloop
  endfacet
  facet normal 1.0 -0.0 -0.0
    outer loop
      vertex 0.07106677442789078 0.08292196339091437 0.013547865731179278
      vertex 0.07106677442789078 0.08302082936277352 -0.01005791566325502
      vertex 0.07106677442789078 0.08302167956189514 -0.010058569655701222
    endloop
  endfacet
  facet normal 1.0 -0.0 -0.0
    outer loop
      vertex 0.07106677442789078 0.08292196339091437 0.013547865731179278
      vertex 0.07106677442789078 0.08302167956189514 -0.010058569655701222
      vertex 0.07106677442789078 0.0829359754662814 0.010367114854669995
    endloop
  endfacet
  facet normal 1.0 -0.0 -0.0
    outer loop
      vertex 0.07106677442789078 0.08293597546628163 0.010367114854616308
      vertex 0.07106677442789078 0.08302167956189514 -0.010058569655701222
      vertex 0.07106677442789078 0.0830227078113869 -0.010059360608530181
    endloop
  endfacet
  facet normal 1.0 -0.0 -0.0
    outer loop
      vertex 0.07106677442789078 0.08293597546628163 0.010367114854616308
      vertex 0.07106677442789078 0.0830227078113869 -0.010059360608530181
      vertex 0.07106677442789078 0.08300518550320787 -0.005343611775817797
    endloop
  endfacet
  facet normal 1.0 -0.0 -0.0
    outer loop
      vertex 0.07106677442789078 -0.003666784745022041 0.07769976762689541
      vertex 0.07106677442789078 -9.151891375655686E-4 0.06829901227793558
      vertex 0.07106677442789078 0.013230818597431939 0.04362614340024708
    endloop
  endfacet
  facet normal 1.0 -0.0 -0.0
    outer loop
      vertex 0.07106677442789078 -0.003666784745022041 0.07769976762689541
      vertex 0.07106677442789078 0.013230818597431939 0.04362614340024708
      vertex 0.07106677442789078 0.03823754852394567 0.02439039960771726
    endloop
  endfacet
  facet normal 1.0 -0.0 -0.0
    outer loop
      vertex 0.07106677442789078 -0.003666784745022041 0.07769976762689541
      vertex 0.07106677442789078 0.03823754852394567 0.02439039960771726
      vertex 0.07106677442789078 0.04989083939780662 0.07380011244677907
    endloop
  endfacet
  facet normal 1.0 -0.0 -0.0
    outer loop
      vertex 0.07106677442789078 -0.003666784745022041 0.07769976762689541
      vertex 0.07106677442789078 0.04989083939780662 0.07380011244677907
      vertex 0.07106677442789078 0.04805934912159298 0.07482287737370397
    endloop
  endfacet
  facet normal 1.0 -0.0 -0.0
    outer loop
      vertex 0.07106677442789078 -0.003666784745022041 0.07769976762689541
      vertex 0.07106677442789078 0.04805934912159298 0.07482287737370397
      vertex 0.07106677442789078 -0.004238068727537028 0.09798578409024851
    endloop
  endfacet
  facet normal 1.0 -0.0 0.0
    outer loop
      vertex 0.07106677442789078 -0.004742888673923712 0.08137624891587747
      vertex 0.07106677442789078 -0.00366678474502204 0.07769976762689536
      vertex 0.07106677442789078 -0.004046190485783745 0.09117228101594475
    endloop
  endfacet
  facet normal 1.0 -0.0 -0.0
    outer loop
      vertex 0.07106677442789078 0.007574721463147556 0.05349126899383865
      vertex 0.07106677442789078 0.011958656684820218 0.04460471919506414
      vertex 0.07106677442789078 0.013230818597431939 0.04362614340024708
    endloop
  endfacet
  facet normal 1.0 -0.0 -0.0
    outer loop
      vertex 0.07106677442789078 -0.004238068727537056 0.09798578409024852
      vertex 0.07106677442789078 0.04805934912159298 0.07482287737370397
      vertex 0.07106677442789078 -0.004410930515568266 0.1041240221385969
    endloop
  endfacet
  facet normal 1.0 -0.0 -0.0
    outer loop
      vertex 0.07106677442789078 0.038004078459936814 0.08043807407829137
      vertex 0.07106677442789078 0.04989083939780662 0.07380011244677907
      vertex 0.07106677442789078 0.0571107265201733 0.10441228486296333
    endloop
  endfacet
  facet normal 1.0 -0.0 -0.0
    outer loop
      vertex 0.07106677442789078 0.038004078459936814 0.08043807407829137
      vertex 0.07106677442789078 0.0571107265201733 0.10441228486296333
      vertex 0.07106677442789078 0.05640202787706641 0.10621216893196106
    endloop
  endfacet
  facet normal 1.0 -0.0 -0.0
    outer loop
      vertex 0.07106677442789078 0.038004078459936814 0.08043807407829137
      vertex 0.07106677442789078 0.05640202787706641 0.10621216893196106
      vertex 0.07106677442789078 0.02848288402263817 0.10621216893196106
    endloop
  endfacet
  facet normal 1.0 -0.0 -0.0
    outer loop
      vertex 0.07106677442789078 0.009256235439748906 0.0964918232833245
      vertex 0.07106677442789078 0.038004078459936814 0.08043807407829137
      vertex 0.07106677442789078 0.02848288402263817 0.10621216893196106
    endloop
  endfacet
  facet normal 1.0 -0.0 -0.0
    outer loop
      vertex 0.07106677442789078 0.009256235439748906 0.0964918232833245
      vertex 0.07106677442789078 0.02848288402263817 0.10621216893196106
      vertex 0.07106677442789078 0.01076463269790237 0.10621216893196106
    endloop
  endfacet
  facet normal 1.0 -0.0 -0.0
    outer loop
      vertex 0.07106677442789078 0.006557481199566638 0.09799889717778959
      vertex 0.07106677442789078 0.009256235439748906 0.0964918232833245
      vertex 0.07106677442789078 0.01076463269790237 0.10621216893196106
    endloop
  endfacet
  facet normal 1.0 -0.0 -0.0
    outer loop
      vertex 0.07106677442789078 0.006557481199566638 0.09799889717778959
      vertex 0.07106677442789078 0.01076463269790237 0.10621216893196106
      vertex 0.07106677442789078 0.00851485644185073 0.10621216893196106
    endloop
  endfacet
  facet normal 1.0 -0.0 -0.0
    outer loop
      vertex 0.07106677442789078 -0.0044109305155682205 0.10412402213859687
      vertex 0.07106677442789078 0.006557481199566638 0.09799889717778959
      vertex 0.07106677442789078 0.00851485644185073 0.10621216893196106
    endloop
  endfacet
  facet normal 1.0 -0.0 -0.0
    outer loop
      vertex 0.07106677442789078 -0.0044109305155682205 0.10412402213859687
      vertex 0.07106677442789078 0.00851485644185073 0.10621216893196106
      vertex 0.07106677442789078 -0.004469735792510792 0.10621216893196106
    endloop
  endfacet
  facet normal 1.0 -0.0 -0.0
    outer loop
      vertex 0.07106677442789078 0.07141169719440824 -0.021842644555052335
      vertex 0.07106677442789078 0.08178132873410422 -0.013475408529524021
      vertex 0.07106677442789078 0.08167691912146705 -0.00902414942681004
    endloop
  endfacet
  facet normal 1.0 -0.0 -0.0
    outer loop
      vertex 0.07106677442789078 0.07141169719440824 -0.021842644555052335
      vertex 0.07106677442789078 0.08167691912146705 -0.00902414942681004
      vertex 0.07106677442789078 0.028719689127769718 0.0317117529128548
    endloop
  endfacet
  facet normal 1.0 -0.0 -0.0
    outer loop
      vertex 0.07106677442789078 0.08178132873411086 -0.013475408529806903
      vertex 0.07106677442789078 0.08303165211211601 -0.012466524966765594
      vertex 0.07106677442789078 0.08302270781138692 -0.010059360608530186
    endloop
  endfacet
  facet normal 1.0 -0.0 -0.0
    outer loop
      vertex 0.07106677442789078 0.08178132873411086 -0.013475408529806903
      vertex 0.07106677442789078 0.08302270781138692 -0.010059360608530186
      vertex 0.07106677442789078 0.08167691912146705 -0.00902414942681004
    endloop
  endfacet
  facet normal 1.0 -0.0 -0.0
    outer loop
      vertex 0.07106677442789078 0.01216202806705484 0.04419247087831457
      vertex 0.07106677442789078 0.04802648780816067 0.0045392508837259725
      vertex 0.07106677442789078 0.05222129750948714 0.00223048619789952
    endloop
  endfacet
  facet normal 1.0 -0.0 -0.0
    outer loop
      vertex 0.07106677442789078 0.01216202806705484 0.04419247087831457
      vertex 0.07106677442789078 0.05222129750948714 0.00223048619789952
      vertex 0.07106677442789078 0.028719689127769718 0.0317117529128548
    endloop
  endfacet
  facet normal 1.0 -0.0 -0.0
    outer loop
      vertex 0.07106677442789078 0.01216202806705484 0.04419247087831457
      vertex 0.07106677442789078 0.028719689127769718 0.0317117529128548
      vertex 0.07106677442789078 0.011958656684820192 0.04460471919506415
    endloop
  endfacet
  facet normal 1.0 0.0 0.0
    outer loop
      vertex 0.07106677442789078 0.051328670284203404 0.0027217757585894058
      vertex 0.07106677442789078 0.06356979881850165 -0.012005483888571075
      vertex 0.07106677442789078 0.05222129750948714 0.00223048619789952
    endloop
  endfacet
  facet normal 1.0 -0.0 -0.0
    outer loop
      vertex 0.07106677442789078 0.041962453805459723 0.007876810524312211
      vertex 0.07106677442789078 0.048026487808160635 0.004539250883726011
      vertex 0.07106677442789078 0.026730330882865548 0.02808515682219282
    endloop
  endfacet
  facet normal -0.0 1.0 -0.0
    outer loop
      vertex 0.013088624730319385 0.08321252465248108 -0.012320579256939242
      vertex 0.013088202319350614 0.08321252465248108 -0.012320579256939255
      vertex 0.013088190824175928 0.08321252465248108 -0.012320559844548058
    endloop
  endfacet
  facet normal -0.0 1.0 -0.0
    outer loop
      vertex 0.013088624730319385 0.08321252465248108 -0.012320579256939242
      vertex 0.013088190824175928 0.08321252465248108 -0.012320559844548058
      vertex 0.013087467552130014 0.08321252465248108 -0.012319338403935814
    endloop
  endfacet
  facet normal 0.0 0.0 1.0
    outer loop
      vertex -0.00428708181780986 0.08155195896926298 0.10621216893196106
      vertex 0.07106677442789078 0.0564020278770664 0.10621216893196106
      vertex 0.07106677442789078 0.08148449918888843 0.10621216893196106
    endloop
  endfacet
  facet normal -0.0 0.0 1.0
    outer loop
      vertex -0.007227656874476606 0.08253339858935967 0.10621216893196106
      vertex -0.00428708181780986 0.08155195896926298 0.10621216893196106
      vertex 0.07106677442789078 0.08148449918888843 0.10621216893196106
    endloop
  endfacet
  facet normal -0.0 0.0 1.0
    outer loop
      vertex -0.007227656874476606 0.08253339858935967 0.10621216893196106
      vertex 0.07106677442789078 0.08148449918888843 0.10621216893196106
      vertex 0.07106677442789078 0.08253320351630097 0.10621216893196106
    endloop
  endfacet
  facet normal -0.0 0.0 1.0
    outer loop
      vertex -0.0072286966680917275 0.08253374562850369 0.10621216893196106
      vertex -0.007227656874476606 0.08253339858935967 0.10621216893196106
      vertex 0.07106677442789078 0.08253320351630097 0.10621216893196106
    endloop
  endfacet
  facet normal -0.0 0.0 1.0
    outer loop
      vertex -0.0072286966680917275 0.08253374562850369 0.10621216893196106
      vertex 0.07106677442789078 0.08253320351630097 0.10621216893196106
      vertex 0.07106677442789078 0.08253381936352883 0.10621216893196106
    endloop
  endfacet
  facet normal -0.0 0.0 1.0
    outer loop
      vertex -0.05874045009351442 0.08254947520713549 0.10621216893196106
      vertex -0.04991782162669238 0.06986236455845109 0.10621216893196106
      vertex 0.06617949531123649 0.058033195001565084 0.10621216893196106
    endloop
  endfacet
  facet normal -0.0 0.0 1.0
    outer loop
      vertex -0.05874045009351442 0.08254947520713549 0.10621216893196106
      vertex 0.06617949531123649 0.058033195001565084 0.10621216893196106
      vertex -0.0069661444705000995 0.08244611680621748 0.10621216893196106
    endloop
  endfacet
  facet normal -0.0 0.0 1.0
    outer loop
      vertex -0.05084061358895563 0.08253370455683319 0.10621216893196106
      vertex -0.0069661444705000995 0.08244611680621748 0.10621216893196106
      vertex -0.00722869666809175 0.08253374562850369 0.10621216893196106
    endloop
  endfacet
  facet normal 0.0 -0.0 1.0
    outer loop
      vertex -0.050989809452154665 0.0825340024004384 0.10621216893196106
      vertex -0.05084061358895563 0.08253370455683319 0.10621216893196106
      vertex -0.048679819395086796 0.08253370659176844 0.10621216893196106
    endloop
  endfacet
  facet normal -0.0 -0.0 1.0
    outer loop
      vertex -0.05886680569613004 0.08254972745413089 0.10621216893196106
      vertex -0.06659748437776405 0.08253262446002585 0.10621216893196106
      vertex -0.05812320956488497 0.07069841252028988 0.10621216893196106
    endloop
  endfacet
  facet normal -0.0 -0.0 1.0
    outer loop
      vertex -0.05886680569613004 0.08254972745413089 0.10621216893196106
      vertex -0.05812320956488497 0.07069841252028988 0.10621216893196106
      vertex -0.04991782162669238 0.06986236455845109 0.10621216893196106
    endloop
  endfacet
  facet normal -0.0 -0.0 1.0
    outer loop
      vertex -0.05886680569613004 0.08254972745413089 0.10621216893196106
      vertex -0.04991782162669238 0.06986236455845109 0.10621216893196106
      vertex -0.058740450093514404 0.08254947520713547 0.10621216893196106
    endloop
  endfacet
  facet normal -0.0 -0.0 1.0
    outer loop
      vertex -0.02451869248486194 0.0672744442417689 0.10621216893196106
      vertex -9.549685123756198E-4 0.04206853095629116 0.10621216893196106
      vertex 0.03426671252079796 0.030001958076771 0.10621216893196106
    endloop
  endfacet
  facet normal -0.0 -0.0 1.0
    outer loop
      vertex -0.02451869248486194 0.0672744442417689 0.10621216893196106
      vertex 0.03426671252079796 0.030001958076771 0.10621216893196106
      vertex 0.07106677442789078 0.028482884022638162 0.10621216893196106
    endloop
  endfacet
  facet normal -0.0 -0.0 1.0
    outer loop
      vertex -0.02451869248486194 0.0672744442417689 0.10621216893196106
      vertex 0.07106677442789078 0.028482884022638162 0.10621216893196106
      vertex 0.07106677442789078 0.0564020278770664 0.10621216893196106
    endloop
  endfacet
  facet normal -0.0 -0.0 1.0
    outer loop
      vertex -0.02451869248486194 0.0672744442417689 0.10621216893196106
      vertex 0.07106677442789078 0.0564020278770664 0.10621216893196106
      vertex 0.06617949531123649 0.058033195001565084 0.10621216893196106
    endloop
  endfacet
  facet normal -0.0 -0.0 1.0
    outer loop
      vertex -9.549685123756198E-4 0.04206853095629116 0.10621216893196106
      vertex 0.009364485068747139 0.03102990003263043 0.10621216893196106
      vertex 0.03426671252079796 0.030001958076771 0.10621216893196106
    endloop
  endfacet
  facet normal -0.0 0.0 1.0
    outer loop
      vertex 0.012083846450760766 0.03091764719648964 0.10621216893196106
      vertex 0.02995910862607016 0.01808905127784045 0.10621216893196106
      vertex 0.033735446598164756 0.01572951515743346 0.10621216893196106
    endloop
  endfacet
  facet normal -0.0 0.0 1.0
    outer loop
      vertex 0.012083846450760766 0.03091764719648964 0.10621216893196106
      vertex 0.033735446598164756 0.01572951515743346 0.10621216893196106
      vertex 0.06428694434117647 0.009825127548423426 0.10621216893196106
    endloop
  endfacet
  facet normal -0.0 0.0 1.0
    outer loop
      vertex 0.012083846450760766 0.03091764719648964 0.10621216893196106
      vertex 0.06428694434117647 0.009825127548423426 0.10621216893196106
      vertex 0.07106677442789078 0.010764632697902371 0.10621216893196106
    endloop
  endfacet
  facet normal -0.0 0.0 1.0
    outer loop
      vertex 0.012083846450760766 0.03091764719648964 0.10621216893196106
      vertex 0.07106677442789078 0.010764632697902371 0.10621216893196106
      vertex 0.07106677442789078 0.028482884022638162 0.10621216893196106
    endloop
  endfacet
  facet normal -0.0 -0.0 1.0
    outer loop
      vertex -0.009207240739216723 0.04489567155054706 0.10621216893196106
      vertex -0.0017219653281042718 0.04288898086692784 0.10621216893196106
      vertex -0.02451869248486194 0.0672744442417689 0.10621216893196106
    endloop
  endfacet
  facet normal -0.0 -0.0 1.0
    outer loop
      vertex -0.009207240739216723 0.04489567155054706 0.10621216893196106
      vertex -0.02451869248486194 0.0672744442417689 0.10621216893196106
      vertex -0.027426610965612046 0.06757073240478292 0.10621216893196106
    endloop
  endfacet
  facet normal -0.0 -0.0 1.0
    outer loop
      vertex -0.009207240739216723 0.04489567155054706 0.10621216893196106
      vertex -0.027426610965612046 0.06757073240478292 0.10621216893196106
      vertex -0.01766622827394124 0.047793630608167575 0.10621216893196106
    endloop
  endfacet
  facet normal -0.0 -0.0 1.0
    outer loop
      vertex -0.010979237666001779 0.04550273882934045 0.10621216893196106
      vertex -0.01766622827394124 0.047793630608167575 0.10621216893196106
      vertex -0.017319934620717275 0.047091948609860615 0.10621216893196106
    endloop
  endfacet
  facet normal -0.0 0.0 1.0
    outer loop
      vertex 0.06428694434117647 0.009825127548423426 0.10621216893196106
      vertex 0.07106677442789078 0.008514856441850724 0.10621216893196106
      vertex 0.07106677442789078 0.010764632697902371 0.10621216893196106
    endloop
  endfacet
  facet normal -0.0 0.0 1.0
    outer loop
      vertex 0.03373544659816475 0.015729515157433465 0.10621216893196106
      vertex 0.04320883884475406 0.00981033860231896 0.10621216893196106
      vertex 0.05086741042546645 0.005838661378525284 0.10621216893196106
    endloop
  endfacet
  facet normal -0.0 0.0 1.0
    outer loop
      vertex 0.03373544659816475 0.015729515157433465 0.10621216893196106
      vertex 0.05086741042546645 0.005838661378525284 0.10621216893196106
      vertex 0.07106677442789078 -0.004469735792510789 0.10621216893196106
    endloop
  endfacet
  facet normal -0.0 0.0 1.0
    outer loop
      vertex 0.03373544659816475 0.015729515157433465 0.10621216893196106
      vertex 0.07106677442789078 -0.004469735792510789 0.10621216893196106
      vertex 0.07106677442789078 0.008514856441850724 0.10621216893196106
    endloop
  endfacet
  facet normal -0.0 -0.0 1.0
    outer loop
      vertex -0.039786457074539434 0.05529326606601241 0.10621216893196106
      vertex -0.021965619464341102 0.05650532767190778 0.10621216893196106
      vertex -0.027426610965612046 0.06757073240478292 0.10621216893196106
    endloop
  endfacet
  facet normal -0.0 -0.0 1.0
    outer loop
      vertex -0.039786457074539434 0.05529326606601241 0.10621216893196106
      vertex -0.027426610965612046 0.06757073240478292 0.10621216893196106
      vertex -0.049917821626692394 0.06986236455845109 0.10621216893196106
    endloop
  endfacet
  facet normal -0.0 -0.0 1.0
    outer loop
      vertex -0.04689872334357089 0.05502356696821984 0.10621216893196106
      vertex -0.046571968217130215 0.054831758155317864 0.10621216893196106
      vertex -0.039786457074539434 0.05529326606601241 0.10621216893196106
    endloop
  endfacet
  facet normal -0.0 -0.0 1.0
    outer loop
      vertex -0.04689872334357089 0.05502356696821984 0.10621216893196106
      vertex -0.039786457074539434 0.05529326606601241 0.10621216893196106
      vertex -0.049917821626692394 0.06986236455845109 0.10621216893196106
    endloop
  endfacet
  facet normal -0.0 -0.0 1.0
    outer loop
      vertex -0.04689872334357089 0.05502356696821984 0.10621216893196106
      vertex -0.049917821626692394 0.06986236455845109 0.10621216893196106
      vertex -0.058123209564884974 0.07069841252028988 0.10621216893196106
    endloop
  endfacet
  facet normal -0.0 -0.0 1.0
    outer loop
      vertex -0.047096885562964264 0.05513989034615088 0.10621216893196106
      vertex -0.04689872334357089 0.05502356696821984 0.10621216893196106
      vertex -0.047516153437133404 0.05588579987269032 0.10621216893196106
    endloop
  endfacet
  facet normal -0.0 0.0 1.0
    outer loop
      vertex -0.046571968217130215 0.054831758155317864 0.10621216893196106
      vertex -0.04535848813320958 0.054119432148646125 0.10621216893196106
      vertex -0.017319934620717264 0.0470919486098606 0.10621216893196106
    endloop
  endfacet
  facet normal -0.0 0.0 1.0
    outer loop
      vertex -0.046571968217130215 0.054831758155317864 0.10621216893196106
      vertex -0.017319934620717264 0.0470919486098606 0.10621216893196106
      vertex -0.021965619464341102 0.05650532767190778 0.10621216893196106
    endloop
  endfacet
  facet normal -9.417450976607692E-7 0.9999911973343725 0.004195861399197271
    outer loop
      vertex 0.07106677442789078 0.08255917382796268 0.10016949048413662
      vertex 0.03632912347638753 0.08269037497888289 0.06889278767456875
      vertex -0.00722869666809179 0.08253374562850369 0.10621216893196106
    endloop
  endfacet
  facet normal -9.417450976607692E-7 0.9999911973343725 0.004195861399197271
    outer loop
      vertex 0.07106677442789078 0.08255917382796268 0.10016949048413662
      vertex -0.00722869666809179 0.08253374562850369 0.10621216893196106
      vertex 0.07106677442789078 0.08253381936352883 0.10621216893196106
    endloop
  endfacet
  facet normal -9.417450975371833E-7 0.9999911973343725 0.004195861399197152
    outer loop
      vertex 0.03632912347638753 0.08269037497888289 0.06889278767456875
      vertex -0.009967542230839399 0.08286523354468045 0.027208706721012277
      vertex -0.048679819395213555 0.08253370659176845 0.10621216893196106
    endloop
  endfacet
  facet normal -9.417450975371833E-7 0.9999911973343725 0.004195861399197152
    outer loop
      vertex 0.03632912347638753 0.08269037497888289 0.06889278767456875
      vertex -0.048679819395213555 0.08253370659176845 0.10621216893196106
      vertex -0.007228696668091797 0.0825337456285037 0.10621216893196106
    endloop
  endfacet
  facet normal -0.3415037765979552 -0.5730514087797738 -0.7449746663241984
    outer loop
      vertex -0.026010094910029685 0.08283426156174652 0.034586596350182866
      vertex -0.026011537750790126 0.08283586729129411 0.034586022599114585
      vertex -0.009967542230839399 0.08286523354468045 0.027208706721012277
    endloop
  endfacet
  facet normal -0.6489640358608749 -0.6566339748667627 -0.38428830740713515
    outer loop
      vertex 0.013166122570699506 0.08303036230301106 -0.012140905440518343
      vertex 0.013088190824858254 0.08321252465248108 -0.01232055984570034
      vertex 0.013088202319331547 0.08321252465248108 -0.012320579256907068
    endloop
  endfacet
  facet normal -0.6489640358608749 -0.6566339748667627 -0.38428830740713515
    outer loop
      vertex 0.013166122570699506 0.08303036230301106 -0.012140905440518343
      vertex 0.013088202319331547 0.08321252465248108 -0.012320579256907068
      vertex 0.013357521478074112 0.08303172849109593 -0.012466463336700338
    endloop
  endfacet
  facet normal -0.6489683120036039 -0.6566320038167097 -0.3842844539905898
    outer loop
      vertex -0.009967542230839399 0.08286523354468045 0.027208706721012277
      vertex 0.013087467552130444 0.08321252465248108 -0.012319338403936536
      vertex 0.013088190824858254 0.08321252465248108 -0.012320559845700341
    endloop
  endfacet
  facet normal -0.6489683120036039 -0.6566320038167097 -0.3842844539905898
    outer loop
      vertex -0.009967542230839399 0.08286523354468045 0.027208706721012277
      vertex 0.013088190824858254 0.08321252465248108 -0.012320559845700341
      vertex 0.013166122570699506 0.08303036230301106 -0.012140905440518341
    endloop
  endfacet
  facet normal 0.025137437842924902 0.9994091084408158 0.023442337430959293
    outer loop
      vertex 0.02041245990003105 0.08303173511268959 -0.012466457993746655
      vertex 0.013088624730289142 0.08321252465248108 -0.012320579256907068
      vertex 0.013087467552130444 0.08321252465248108 -0.012319338403936533
    endloop
  endfacet
  facet normal 0.025137437842924902 0.9994091084408158 0.023442337430959293
    outer loop
      vertex 0.02041245990003105 0.08303173511268959 -0.012466457993746655
      vertex 0.013087467552130444 0.08321252465248108 -0.012319338403936533
      vertex -0.009967542230839399 0.08286523354468045 0.027208706721012277
    endloop
  endfacet
  facet normal -2.344337083712014E-4 0.9999930693786531 0.0037156742990677263
    outer loop
      vertex 0.07106677442789078 0.08303063856690014 -0.012193751276238838
      vertex -0.009967542230839399 0.08286523354468045 0.027208706721012277
      vertex 0.07106677442789078 0.0830227078113869 -0.010059360608530181
    endloop
  endfacet
  facet normal -0.0 0.6279629747771385 -0.7782432153954488
    outer loop
      vertex 0.01335752147807413 0.08303172849109591 -0.012466463336700347
      vertex 0.013088202319331547 0.08321252465248108 -0.012320579256907068
      vertex 0.013088624730289142 0.08321252465248108 -0.012320579256907068
    endloop
  endfacet
  facet normal -0.0 0.6279629747771385 -0.7782432153954488
    outer loop
      vertex 0.01335752147807413 0.08303172849109591 -0.012466463336700347
      vertex 0.013088624730289142 0.08321252465248108 -0.012320579256907068
      vertex 0.020412459900030763 0.0830317351126896 -0.01246645799374665
    endloop
  endfacet
  facet normal -0.5897462687069057 -0.683576081115747 -0.43002683622388055
    outer loop
      vertex -0.02601083198922053 0.08283425729117297 0.034587613981938846
      vertex -0.026011537750790126 0.08283586729129411 0.034586022599114585
      vertex -0.02601009491002968 0.0828342615617465 0.034586596350182866
    endloop
  endfacet
  facet normal -0.5664972000193375 -0.7456234361407605 -0.3508940208209537
    outer loop
      vertex -0.06331321693388826 0.08267460896803469 0.07262790494575913
      vertex -0.06334183488188216 0.08272386816912558 0.07256943479194433
      vertex -0.06328000625453706 0.08267483599341435 0.07257380589823914
    endloop
  endfacet
  facet normal -0.7128962391601055 -0.6678971171422651 -0.21375779074557597
    outer loop
      vertex -0.07004764332575304 0.08257911178785592 0.09538604406213778
      vertex -0.07005163703852049 0.08258422094848555 0.09538339952300133
      vertex -0.06334183488188216 0.08272386816912558 0.07256943479194433
    endloop
  endfacet
  facet normal -0.7128962391601055 -0.6678971171422651 -0.21375779074557597
    outer loop
      vertex -0.07004764332575304 0.08257911178785592 0.09538604406213778
      vertex -0.06334183488188216 0.08272386816912558 0.07256943479194433
      vertex -0.06331321693388826 0.08267460896803469 0.07262790494575913
    endloop
  endfacet
  facet normal -0.513434788882806 -0.692597926404255 -0.506648625681936
    outer loop
      vertex -0.06328000625453704 0.08267483599341434 0.07257380589823914
      vertex -0.06334183488188216 0.08272386816912558 0.07256943479194433
      vertex -0.026011537750790126 0.08283586729129411 0.034586022599114585
    endloop
  endfacet
  facet normal -0.513434788882806 -0.692597926404255 -0.506648625681936
    outer loop
      vertex -0.06328000625453704 0.08267483599341434 0.07257380589823914
      vertex -0.026011537750790126 0.08283586729129411 0.034586022599114585
      vertex -0.026012267491931237 0.08283425159675667 0.03458897079851619
    endloop
  endfacet
  facet normal -0.47926363915160997 -0.7142478293470715 -0.5100552935321349
    outer loop
      vertex -0.02601083198922053 0.08283425729117297 0.03458761398193885
      vertex -0.02601226749193124 0.08283425159675667 0.0345889707985162
      vertex -0.026011537750790126 0.08283586729129411 0.034586022599114585
    endloop
  endfacet
  facet normal 0.001996298116190231 0.9999859504821883 0.004910563314522217
    outer loop
      vertex -0.026011537750790126 0.08283586729129411 0.034586022599114585
      vertex -0.06334183488188216 0.08272386816912558 0.07256943479194433
      vertex -0.06182496918320398 0.08266484105078646 0.08397304967542997
    endloop
  endfacet
  facet normal -0.0022123149920868384 0.9999825902619545 0.0054703597110210365
    outer loop
      vertex -0.06334183488188216 0.08272386816912558 0.07256943479194433
      vertex -0.07005163703852049 0.08258422094848555 0.09538339952300133
      vertex -0.06182496918320398 0.08266484105078646 0.08397304967542996
    endloop
  endfacet
  facet normal -0.7128962391603926 -0.6678971171419321 -0.21375779074565834
    outer loop
      vertex -0.07083055964300848 0.08256800968408891 0.09803181037210976
      vertex -0.07005163703852049 0.08258422094848555 0.09538339952300133
      vertex -0.07004764332575306 0.08257911178785593 0.09538604406213778
    endloop
  endfacet
  facet normal 0.0019962981161907494 0.9999859504821882 0.004910563314522553
    outer loop
      vertex -0.026011537750790126 0.08283586729129411 0.034586022599114585
      vertex -0.06157068824879244 0.0826660553636994 0.08362239410039878
      vertex -0.0587404500935144 0.08254947520713547 0.10621216893196106
    endloop
  endfacet
  facet normal 0.0019962981161907494 0.9999859504821882 0.004910563314522553
    outer loop
      vertex -0.026011537750790126 0.08283586729129411 0.034586022599114585
      vertex -0.0587404500935144 0.08254947520713547 0.10621216893196106
      vertex -0.05098980945215002 0.08253400240043837 0.10621216893196106
    endloop
  endfacet
  facet normal 0.0019962981161835503 0.9999859504821882 0.004910563314523085
    outer loop
      vertex -0.06157068824879244 0.0826660553636994 0.08362239410039878
      vertex -0.06182496918320398 0.08266484105078646 0.08397304967542997
      vertex -0.058866805696124305 0.08254972745413089 0.10621216893196106
    endloop
  endfacet
  facet normal 0.0019962981161835503 0.9999859504821882 0.004910563314523085
    outer loop
      vertex -0.06157068824879244 0.0826660553636994 0.08362239410039878
      vertex -0.058866805696124305 0.08254972745413089 0.10621216893196106
      vertex -0.0587404500935144 0.08254947520713547 0.10621216893196106
    endloop
  endfacet
  facet normal 1.2805508996441146E-4 0.9999909219226387 0.004259069640786601
    outer loop
      vertex -0.048679819395213555 0.08253370659176845 0.10621216893196106
      vertex -0.009967542230839399 0.08286523354468045 0.027208706721012277
      vertex -0.026011537750790126 0.08283586729129411 0.034586022599114585
    endloop
  endfacet
  facet normal 1.2805508996441146E-4 0.9999909219226387 0.004259069640786601
    outer loop
      vertex -0.048679819395213555 0.08253370659176845 0.10621216893196106
      vertex -0.026011537750790126 0.08283586729129411 0.034586022599114585
      vertex -0.05098980945215002 0.08253400240043837 0.10621216893196106
    endloop
  endfacet
  facet normal -2.344337083730344E-4 0.9999930693786531 0.00371567429906374
    outer loop
      vertex 0.07106677442789078 0.0830227078113869 -0.010059360608530184
      vertex -0.009967542230839399 0.08286523354468045 0.027208706721012277
      vertex 0.07106677442789078 0.08300518550320787 -0.005343611775818463
    endloop
  endfacet
  facet normal 4.257272561677633E-5 0.9999902960207301 0.0044052300661513695
    outer loop
      vertex 0.07106677442789078 0.08300518550320787 -0.005343611775818468
      vertex -0.009967542230839399 0.08286523354468045 0.027208706721012277
      vertex 0.07106677442789078 0.08293597546628133 0.010367114854685635
    endloop
  endfacet
  facet normal -0.002212314992088238 0.9999825902619545 0.005470359711021193
    outer loop
      vertex -0.07005163703852049 0.08258422094848555 0.09538339952300133
      vertex -0.07083055964300733 0.08256800968408892 0.09803181037210583
      vertex -0.06611577502698866 0.08253369017139814 0.10621216893196106
    endloop
  endfacet
  facet normal -0.002212314992088238 0.9999825902619545 0.005470359711021193
    outer loop
      vertex -0.07005163703852049 0.08258422094848555 0.09538339952300133
      vertex -0.06611577502698866 0.08253369017139814 0.10621216893196106
      vertex -0.058866805696124305 0.08254972745413089 0.10621216893196106
    endloop
  endfacet
  facet normal -0.002212314992088238 0.9999825902619545 0.005470359711021193
    outer loop
      vertex -0.07005163703852049 0.08258422094848555 0.09538339952300133
      vertex -0.058866805696124305 0.08254972745413089 0.10621216893196106
      vertex -0.06182496918320398 0.08266484105078646 0.08397304967542996
    endloop
  endfacet
  facet normal 5.9804491565717705E-6 0.9999912295456133 0.004188173359216392
    outer loop
      vertex 0.07106677442789078 0.08281481359721626 0.039131537837287816
      vertex 0.036329123476387566 0.08269037497888289 0.06889278767456877
      vertex 0.07106677442789078 0.08255917382796268 0.10016949048413662
    endloop
  endfacet
  facet normal 5.980449156601853E-6 0.9999912295456133 0.004188173359216371
    outer loop
      vertex 0.07106677442789078 0.08292196339091436 0.013547865731182395
      vertex -0.009967542230839399 0.08286523354468045 0.027208706721012277
      vertex 0.036329123476387566 0.08269037497888289 0.06889278767456877
    endloop
  endfacet
  facet normal 5.980449156601853E-6 0.9999912295456133 0.004188173359216371
    outer loop
      vertex 0.07106677442789078 0.08292196339091436 0.013547865731182395
      vertex 0.036329123476387566 0.08269037497888289 0.06889278767456877
      vertex 0.07106677442789078 0.08281481359721626 0.0391315378372878
    endloop
  endfacet
  facet normal 4.2572725616815906E-5 0.9999902960207301 0.004405230066151555
    outer loop
      vertex -0.009967542230839399 0.08286523354468045 0.027208706721012277
      vertex 0.07106677442789078 0.08292196339091436 0.013547865731182397
      vertex 0.07106677442789078 0.08293597546628133 0.010367114854685633
    endloop
  endfacet
  facet normal -0.6489640358643542 -0.6566339748353054 -0.38428830745501047
    outer loop
      vertex 0.013166321327747187 0.08302989771633475 -0.01214044725010067
      vertex 0.013166122570699506 0.08303036230301106 -0.012140905440518343
      vertex 0.013357521478074112 0.08303172849109593 -0.012466463336700338
    endloop
  endfacet
  facet normal -0.6489640358643542 -0.6566339748353054 -0.38428830745501047
    outer loop
      vertex 0.013166321327747187 0.08302989771633475 -0.01214044725010067
      vertex 0.013357521478074112 0.08303172849109593 -0.012466463336700338
      vertex 0.013358214047157684 0.08303126356378668 -0.01246683848566457
    endloop
  endfacet
  facet normal -0.6489683120026258 -0.6566320038187958 -0.38428445398867705
    outer loop
      vertex -0.009967542230839399 0.08286523354468045 0.027208706721012277
      vertex 0.013166122570699506 0.08303036230301106 -0.012140905440518341
      vertex 0.013166321327747189 0.08302989771633475 -0.012140447250100665
    endloop
  endfacet
  facet normal 0.02513743784316842 0.9994091084408062 0.023442337431105274
    outer loop
      vertex 0.0204332707924716 0.08303122139390977 -0.01246687251245596
      vertex 0.02041245990003105 0.08303173511268959 -0.012466457993746655
      vertex -0.009967542230839399 0.08286523354468045 0.027208706721012277
    endloop
  endfacet
  facet normal -2.3443370837371454E-4 0.9999930693786531 0.003715674299062635
    outer loop
      vertex 0.07106677442789078 0.08303063856690014 -0.012193751276238838
      vertex 0.07106677442789078 0.083031652112116 -0.012466524966765603
      vertex 0.06801075603797516 0.08303093781502593 -0.012467101331725697
    endloop
  endfacet
  facet normal -2.3443370837371454E-4 0.9999930693786531 0.003715674299062635
    outer loop
      vertex 0.07106677442789078 0.08303063856690014 -0.012193751276238838
      vertex 0.06801075603797516 0.08303093781502593 -0.012467101331725697
      vertex -0.009967542230839399 0.08286523354468045 0.027208706721012277
    endloop
  endfacet
  facet normal -1.9166845119622482E-12 0.6279629748587079 -0.7782432153296307
    outer loop
      vertex 0.06801075603795051 0.08303093781502593 -0.0124671013317257
      vertex 0.07106677442789078 0.083031652112116 -0.012466524966765603
      vertex 0.07106677442789078 0.0830309196000598 -0.012467116029354863
    endloop
  endfacet
  facet normal 2.5427359569399807E-13 0.6279629747803626 -0.7782432153928474
    outer loop
      vertex 0.013358214047157669 0.08303126356378668 -0.012466838485664562
      vertex 0.01335752147807413 0.08303172849109591 -0.012466463336700347
      vertex 0.020412459900030763 0.0830317351126896 -0.01246645799374665
    endloop
  endfacet
  facet normal 2.5427359569399807E-13 0.6279629747803626 -0.7782432153928474
    outer loop
      vertex 0.013358214047157669 0.08303126356378668 -0.012466838485664562
      vertex 0.020412459900030763 0.0830317351126896 -0.01246645799374665
      vertex 0.020433270792471363 0.08303122139390978 -0.012466872512455957
    endloop
  endfacet
  facet normal -0.34150377659816333 -0.5730514087790655 -0.7449746663246477
    outer loop
      vertex -0.026010094910029685 0.08283426156174652 0.034586596350182866
      vertex -0.009967542230839399 0.08286523354468045 0.027208706721012277
      vertex 3.836425420900014E-5 0.05384507460769328 0.044944864346462055
    endloop
  endfacet
  facet normal -0.2333527334196372 -0.7603588975272322 -0.6061359985653021
    outer loop
      vertex 0.022545147799974075 0.08047381597037884 -0.014530438099200182
      vertex 0.07106677442789078 0.07141169719441037 -0.021842644555054993
      vertex 0.07106677442789078 0.06356978405632661 -0.012005465370365315
    endloop
  endfacet
  facet normal -0.2676033878554287 -0.7146012774113896 -0.6463230160920369
    outer loop
      vertex 0.07106677442789078 0.012162028067054817 0.04419247087831462
      vertex 0.027630307866346016 0.049220905730692266 0.02120307495772522
      vertex 0.07106677442789078 0.02673033088286542 0.028085156822192977
    endloop
  endfacet
  facet normal -0.3298060335615813 -0.4551998812898334 -0.8270556500623756
    outer loop
      vertex 0.07106677442789078 0.04196245380545974 0.007876810524312194
      vertex 0.027630307866346016 0.049220905730692266 0.02120307495772522
      vertex 0.07106677442789078 0.04802648780816066 0.004539250883725986
    endloop
  endfacet
  facet normal -0.648964035865565 -0.6566339748336828 -0.38428830745573866
    outer loop
      vertex 0.027630307866346016 0.049220905730692266 0.02120307495772522
      vertex 0.021374152819791506 0.06384441877569183 0.006780893066604609
      vertex 0.015095217897382659 0.0818651986247079 -0.013407734073897325
    endloop
  endfacet
  facet normal -0.648964035865565 -0.6566339748336828 -0.38428830745573866
    outer loop
      vertex 0.027630307866346016 0.049220905730692266 0.02120307495772522
      vertex 0.015095217897382659 0.0818651986247079 -0.013407734073897325
      vertex 0.015158153147467601 0.08182294967485859 -0.013441824671417635
    endloop
  endfacet
  facet normal -0.6489683120045184 -0.6566320038162806 -0.38428445398977845
    outer loop
      vertex 0.027630307866346016 0.049220905730692266 0.02120307495772522
      vertex 0.02322488740161165 0.058532766828946384 0.012731517766855244
      vertex 0.021374152819791506 0.06384441877569183 0.00678089306660461
    endloop
  endfacet
  facet normal -0.2284479543025685 -0.7486956923427506 -0.6223072331592981
    outer loop
      vertex 0.015158153147467601 0.08182294967485859 -0.013441824671417635
      vertex 0.06247734606314863 0.06600566973924757 -0.011782906894912848
      vertex 0.027630307866346016 0.049220905730692266 0.02120307495772522
    endloop
  endfacet
  facet normal -0.22844779634209525 -0.7486952781330098 -0.6223077894802345
    outer loop
      vertex 0.015158153147467601 0.08182294967485859 -0.013441824671417635
      vertex 0.022545147799974075 0.08047381597037884 -0.014530438099200182
      vertex 0.06314778857335465 0.06632861138580838 -0.012417554261697508
    endloop
  endfacet
  facet normal -0.22844779634209525 -0.7486952781330098 -0.6223077894802345
    outer loop
      vertex 0.015158153147467601 0.08182294967485859 -0.013441824671417635
      vertex 0.06314778857335465 0.06632861138580838 -0.012417554261697508
      vertex 0.06247734606314849 0.06600566973924761 -0.011782906894912853
    endloop
  endfacet
  facet normal 2.32150749893573E-12 0.6279629747502444 -0.7782432154171496
    outer loop
      vertex 0.015158153147467601 0.08182294967485859 -0.013441824671417635
      vertex 0.015293715398150345 0.08182812633233788 -0.013437647636313603
      vertex 0.022545147799974075 0.08047381597037884 -0.014530438099200182
    endloop
  endfacet
  facet normal 2.5925912683556154E-13 0.6279629747827951 -0.7782432153908847
    outer loop
      vertex 0.015158153147467601 0.08182294967485859 -0.013441824671417635
      vertex 0.015095217897382659 0.0818651986247079 -0.013407734073897325
      vertex 0.01529371539815029 0.08182812633233788 -0.013437647636313605
    endloop
  endfacet
  facet normal -0.3031420962251305 -0.7609828504206723 -0.573593907622686
    outer loop
      vertex 0.027630307866346016 0.049220905730692266 0.02120307495772522
      vertex 0.07106677442789078 0.04196245380545974 0.007876810524312194
      vertex 0.07106677442789078 0.026730330882865423 0.02808515682219298
    endloop
  endfacet
  facet normal -0.32980603356158134 -0.45519988128983346 -0.8270556500623756
    outer loop
      vertex 0.027630307866346016 0.049220905730692266 0.02120307495772522
      vertex 0.07106677442789078 0.051328670284203404 0.0027217757585894127
      vertex 0.07106677442789078 0.04802648780816066 0.004539250883725983
    endloop
  endfacet
  facet normal -0.6489683120045191 -0.6566320038162804 -0.38428445398977795
    outer loop
      vertex 0.027630307866346016 0.049220905730692266 0.02120307495772522
      vertex 0.02573330505955212 0.05133354892545504 0.020796775865185836
      vertex 0.02322488740161165 0.058532766828946384 0.012731517766855244
    endloop
  endfacet
  facet normal -0.2284479543025691 -0.7486956923427504 -0.6223072331592981
    outer loop
      vertex 0.06247734606314863 0.06600566973924757 -0.011782906894912848
      vertex 0.07106677442789078 0.06313450088448501 -0.011481778440975013
      vertex 0.07106677442789078 0.051328670284203404 0.0027217757585894127
    endloop
  endfacet
  facet normal -0.2284479543025691 -0.7486956923427504 -0.6223072331592981
    outer loop
      vertex 0.06247734606314863 0.06600566973924757 -0.011782906894912848
      vertex 0.07106677442789078 0.051328670284203404 0.0027217757585894127
      vertex 0.027630307866346016 0.049220905730692266 0.02120307495772522
    endloop
  endfacet
  facet normal -0.22844779634209553 -0.7486952781330104 -0.6223077894802336
    outer loop
      vertex 0.06314778857335465 0.06632861138580838 -0.012417554261697508
      vertex 0.07106677442789078 0.06356978405632661 -0.012005465370365315
      vertex 0.07106677442789078 0.06313450088448501 -0.011481778440975013
    endloop
  endfacet
  facet normal -0.22844779634209553 -0.7486952781330104 -0.6223077894802336
    outer loop
      vertex 0.06314778857335465 0.06632861138580838 -0.012417554261697508
      vertex 0.07106677442789078 0.06313450088448501 -0.011481778440975013
      vertex 0.06247734606314849 0.06600566973924761 -0.011782906894912853
    endloop
  endfacet
  facet normal -0.6489683120045171 -0.6566320038162795 -0.38428445398978245
    outer loop
      vertex 0.027630307866346016 0.049220905730692266 0.02120307495772522
      vertex 0.025943471442813126 0.05073036644334521 0.021472519045045442
      vertex 0.02573330505955212 0.05133354892545504 0.020796775865185836
    endloop
  endfacet
  facet normal -0.46896892258350775 -0.7920755071469501 -0.390748692421057
    outer loop
      vertex 0.02542301566029431 0.04959082863518753 0.023102363656344778
      vertex 0.027630307866346016 0.049220905730692266 0.02120307495772522
      vertex 0.026873896085820068 0.048060025750047364 0.024464092184049564
    endloop
  endfacet
  facet normal -0.5927162401705416 -0.5588353265735765 -0.579991841676675
    outer loop
      vertex 0.025943471442813136 0.0507303664433452 0.021472519045045442
      vertex 0.027630307866346016 0.049220905730692266 0.02120307495772522
      vertex 0.02542301566029432 0.049590828635187524 0.02310236365634477
    endloop
  endfacet
  facet normal -0.4689689225835053 -0.7920755071469501 -0.3907486924210599
    outer loop
      vertex 0.027630307866346016 0.049220905730692266 0.02120307495772522
      vertex 0.07106677442789078 0.012162028067054818 0.04419247087831463
      vertex 0.07106677442789078 0.011958656684820206 0.044604719195064146
    endloop
  endfacet
  facet normal -0.4689689225835053 -0.7920755071469501 -0.3907486924210599
    outer loop
      vertex 0.027630307866346016 0.049220905730692266 0.02120307495772522
      vertex 0.07106677442789078 0.011958656684820206 0.044604719195064146
      vertex 0.048448530016771074 0.025296942530853232 0.044713034813430974
    endloop
  endfacet
  facet normal -0.4689689225835053 -0.7920755071469501 -0.3907486924210599
    outer loop
      vertex 0.027630307866346016 0.049220905730692266 0.02120307495772522
      vertex 0.048448530016771074 0.025296942530853232 0.044713034813430974
      vertex 0.026873896085820068 0.048060025750047364 0.024464092184049564
    endloop
  endfacet
  facet normal -0.6489640358655663 -0.6566339748336911 -0.38428830745572196
    outer loop
      vertex 0.021374152819791506 0.06384441877569183 0.006780893066604609
      vertex 0.013166321327747187 0.08302989771633475 -0.01214044725010067
      vertex 0.013358214047157684 0.08303126356378668 -0.01246683848566457
    endloop
  endfacet
  facet normal -0.6489640358655663 -0.6566339748336911 -0.38428830745572196
    outer loop
      vertex 0.021374152819791506 0.06384441877569183 0.006780893066604609
      vertex 0.013358214047157684 0.08303126356378668 -0.01246683848566457
      vertex 0.015095217897382659 0.0818651986247079 -0.013407734073897325
    endloop
  endfacet
  facet normal -0.46896892258350703 -0.7920755071469504 -0.3907486924210572
    outer loop
      vertex 3.836425420900014E-5 0.05384507460769328 0.044944864346462055
      vertex 0.02542301566029431 0.04959082863518753 0.023102363656344778
      vertex 0.026873853436918366 0.04806007074828473 0.024464052155784587
    endloop
  endfacet
  facet normal -0.46896892258350703 -0.7920755071469504 -0.3907486924210572
    outer loop
      vertex 3.836425420900014E-5 0.05384507460769328 0.044944864346462055
      vertex 0.026873853436918366 0.04806007074828473 0.024464052155784587
      vertex 0.022147445122067413 0.04080704941668524 0.04483898704130096
    endloop
  endfacet
  facet normal -0.5927162401705419 -0.5588353265735756 -0.5799918416766755
    outer loop
      vertex 0.025943458732060873 0.05073033861315624 0.0214725588496778
      vertex 0.02542301566029432 0.049590828635187524 0.02310236365634477
      vertex 3.836425420900014E-5 0.05384507460769328 0.044944864346462055
    endloop
  endfacet
  facet normal -0.5927162401705419 -0.5588353265735756 -0.5799918416766755
    outer loop
      vertex 0.025943458732060873 0.05073033861315624 0.0214725588496778
      vertex 3.836425420900014E-5 0.05384507460769328 0.044944864346462055
      vertex -0.00996710651522076 0.08286396983743682 0.027209479056922434
    endloop
  endfacet
  facet normal -0.6489683120045183 -0.6566320038162804 -0.38428445398977906
    outer loop
      vertex 0.025943471442813126 0.05073036644334521 0.021472519045045442
      vertex -0.009967542230839399 0.08286523354468045 0.027208706721012277
      vertex 0.013166321327747189 0.08302989771633475 -0.012140447250100665
    endloop
  endfacet
  facet normal -0.6489683120045183 -0.6566320038162804 -0.38428445398977906
    outer loop
      vertex 0.025943471442813126 0.05073036644334521 0.021472519045045442
      vertex 0.013166321327747189 0.08302989771633475 -0.012140447250100665
      vertex 0.021374152819791506 0.06384441877569183 0.00678089306660461
    endloop
  endfacet
  facet normal -0.4689689226024397 -0.7920755071355727 -0.39074869242139787
    outer loop
      vertex 0.026873853436918366 0.04806007074828473 0.024464052155784587
      vertex 0.026873896085820075 0.04806002575004736 0.02446409218404957
      vertex 0.022147821961603257 0.04080682718929412 0.044838985236668974
    endloop
  endfacet
  facet normal -0.4689689226024397 -0.7920755071355727 -0.39074869242139787
    outer loop
      vertex 0.026873853436918366 0.04806007074828473 0.024464052155784587
      vertex 0.022147821961603257 0.04080682718929412 0.044838985236668974
      vertex 0.022147445122067413 0.04080704941668524 0.04483898704130096
    endloop
  endfacet
  facet normal -0.5927162401536901 -0.5588353265719622 -0.5799918416954514
    outer loop
      vertex -0.009967542230839399 0.08286523354468045 0.027208706721012277
      vertex 0.025943471442813136 0.0507303664433452 0.021472519045045442
      vertex 0.025943458732060873 0.05073033861315624 0.0214725588496778
    endloop
  endfacet
  facet normal -0.5927162401536901 -0.5588353265719622 -0.5799918416954514
    outer loop
      vertex -0.009967542230839399 0.08286523354468045 0.027208706721012277
      vertex 0.025943458732060873 0.05073033861315624 0.0214725588496778
      vertex -0.00996710651522076 0.08286396983743682 0.027209479056922434
    endloop
  endfacet
  facet normal -0.46896892258350664 -0.7920755071469509 -0.39074869242105675
    outer loop
      vertex 0.026873896085820075 0.04806002575004736 0.02446409218404957
      vertex 0.048448530016771074 0.025296942530853232 0.044713034813430974
      vertex 0.022147821961603257 0.04080682718929412 0.044838985236668974
    endloop
  endfacet
  facet normal 0.025137437842954045 0.9994091084408154 0.023442337430941797
    outer loop
      vertex 0.03644737051149605 0.08263591188034525 -0.012785847009354256
      vertex 0.0204332707924716 0.08303122139390977 -0.01246687251245596
      vertex -0.009967542230839399 0.08286523354468045 0.027208706721012277
    endloop
  endfacet
  facet normal -0.01491755318109969 0.9996231506658998 -0.023043941934244635
    outer loop
      vertex 0.062338429262396744 0.0830296119962668 -0.012468171132354655
      vertex 0.03644737051149605 0.08263591188034525 -0.012785847009354256
      vertex -0.009967542230839399 0.08286523354468045 0.027208706721012277
    endloop
  endfacet
  facet normal -2.344337083716463E-4 0.9999930693786532 0.0037156742990667193
    outer loop
      vertex 0.06801075603797516 0.08303093781502593 -0.012467101331725697
      vertex 0.062338429262396744 0.0830296119962668 -0.012468171132354655
      vertex -0.009967542230839399 0.08286523354468045 0.027208706721012277
    endloop
  endfacet
  facet normal -1.918196704318327E-12 0.6279629748620703 -0.7782432153269175
    outer loop
      vertex 0.062338429262396744 0.0830296119962668 -0.012468171132354655
      vertex 0.06801075603795051 0.08303093781502593 -0.0124671013317257
      vertex 0.07106677442789078 0.0830309196000598 -0.012467116029354863
    endloop
  endfacet
  facet normal -1.918196704318327E-12 0.6279629748620703 -0.7782432153269175
    outer loop
      vertex 0.062338429262396744 0.0830296119962668 -0.012468171132354655
      vertex 0.07106677442789078 0.0830309196000598 -0.012467116029354863
      vertex 0.07106677442789078 0.08290039463624303 -0.01257243637517723
    endloop
  endfacet
  facet normal -1.918196704318327E-12 0.6279629748620703 -0.7782432153269175
    outer loop
      vertex 0.062338429262396744 0.0830296119962668 -0.012468171132354655
      vertex 0.07106677442789078 0.08290039463624303 -0.01257243637517723
      vertex 0.03644737051149605 0.08263591188034525 -0.012785847009354256
    endloop
  endfacet
  facet normal 2.9772974903567335E-13 0.627962974686396 -0.7782432154686689
    outer loop
      vertex 0.07106677442789078 0.08270811997293624 -0.012727582436366142
      vertex 0.03644737051149605 0.08263591188034525 -0.012785847009354256
      vertex 0.07106677442789078 0.08290039463624303 -0.01257243637517723
    endloop
  endfacet
  facet normal 8.88210409146988E-14 0.6279629747470585 -0.7782432154197203
    outer loop
      vertex 0.03644737051149605 0.08263591188034525 -0.012785847009354256
      vertex 0.07106677442789078 0.08270811997293624 -0.012727582436366142
      vertex 0.07106677442789078 0.08178132873410401 -0.013475408529514567
    endloop
  endfacet
  facet normal -1.652097451457363E-13 0.62796297474615 -0.7782432154204534
    outer loop
      vertex 0.07106677442789078 0.07186292728420908 -0.021478547851256188
      vertex 0.03644737051149605 0.08263591188034525 -0.012785847009354256
      vertex 0.07106677442789078 0.07677187530468121 -0.017517527002337534
    endloop
  endfacet
  facet normal 2.1786651364163818E-12 0.6279629747507123 -0.7782432154167722
    outer loop
      vertex 0.07106677442789078 0.07141169719441037 -0.021842644555054993
      vertex 0.022545147799974075 0.08047381597037884 -0.014530438099200182
      vertex 0.03644737051149605 0.08263591188034525 -0.012785847009354256
    endloop
  endfacet
  facet normal 2.1786651364163818E-12 0.6279629747507123 -0.7782432154167722
    outer loop
      vertex 0.07106677442789078 0.07141169719441037 -0.021842644555054993
      vertex 0.03644737051149605 0.08263591188034525 -0.012785847009354256
      vertex 0.07106677442789078 0.07186292728420908 -0.021478547851256188
    endloop
  endfacet
  facet normal 2.3091449571069925E-12 0.6279629747502044 -0.7782432154171819
    outer loop
      vertex 0.015293715398150345 0.08182812633233788 -0.013437647636313603
      vertex 0.03644737051149605 0.08263591188034525 -0.012785847009354256
      vertex 0.022545147799974075 0.08047381597037884 -0.014530438099200182
    endloop
  endfacet
  facet normal 2.554606822689184E-13 0.627962974782778 -0.7782432153908984
    outer loop
      vertex 0.015095217897382659 0.0818651986247079 -0.013407734073897325
      vertex 0.013358214047157669 0.08303126356378668 -0.012466838485664562
      vertex 0.020433270792471363 0.08303122139390978 -0.012466872512455957
    endloop
  endfacet
  facet normal 2.554606822689184E-13 0.627962974782778 -0.7782432153908984
    outer loop
      vertex 0.015095217897382659 0.0818651986247079 -0.013407734073897325
      vertex 0.020433270792471363 0.08303122139390978 -0.012466872512455957
      vertex 0.03644737051149605 0.08263591188034525 -0.012785847009354256
    endloop
  endfacet
  facet normal 2.554606822689184E-13 0.627962974782778 -0.7782432153908984
    outer loop
      vertex 0.015095217897382659 0.0818651986247079 -0.013407734073897325
      vertex 0.03644737051149605 0.08263591188034525 -0.012785847009354256
      vertex 0.01529371539815029 0.08182812633233788 -0.013437647636313605
    endloop
  endfacet
  facet normal 8.882337304980499E-14 0.6279629747470585 -0.7782432154197203
    outer loop
      vertex 0.07106677442789078 0.07677187530468121 -0.017517527002337534
      vertex 0.03644737051149605 0.08263591188034525 -0.012785847009354256
      vertex 0.07106677442789078 0.08178132873410401 -0.013475408529514567
    endloop
  endfacet
  facet normal -0.09868520844268958 -0.9685454136539192 0.22843163380885215
    outer loop
      vertex -0.01409685757579382 0.05565581477583237 0.06145177755649911
      vertex -0.019969488514220757 0.060905117733682346 0.08117166670376719
      vertex -0.03589354649764687 0.06095645464534982 0.07450994991074822
    endloop
  endfacet
  facet normal -0.45098614605381376 -0.7742946485234629 -0.44393613655058
    outer loop
      vertex 0.07106677442789078 -9.151891375655955E-4 0.06829901227793563
      vertex 0.05969830372273551 0.0022460012291036172 0.07433440742910843
      vertex 0.05139638551410857 0.020388690399038265 0.05112445404166128
    endloop
  endfacet
  facet normal -0.45098614605381376 -0.7742946485234629 -0.44393613655058
    outer loop
      vertex 0.07106677442789078 -9.151891375655955E-4 0.06829901227793563
      vertex 0.05139638551410857 0.020388690399038265 0.05112445404166128
      vertex 0.07106677442789078 0.007574721463147596 0.05349126899383857
    endloop
  endfacet
  facet normal -0.45098614605385146 -0.7742946485234736 -0.4439361365505232
    outer loop
      vertex 0.05969830372273551 0.0022460012291036172 0.07433440742910843
      vertex 0.05962325406598268 0.002266870021230716 0.074374250460437
      vertex 0.0544543632418129 0.006741194120113894 0.07182129979918703
    endloop
  endfacet
  facet normal -0.45098614605385146 -0.7742946485234736 -0.4439361365505232
    outer loop
      vertex 0.05969830372273551 0.0022460012291036172 0.07433440742910843
      vertex 0.0544543632418129 0.006741194120113894 0.07182129979918703
      vertex 0.046831860019627025 0.023362179543037157 0.05057523321856083
    endloop
  endfacet
  facet normal -0.45098614605385146 -0.7742946485234736 -0.4439361365505232
    outer loop
      vertex 0.05969830372273551 0.0022460012291036172 0.07433440742910843
      vertex 0.046831860019627025 0.023362179543037157 0.05057523321856083
      vertex 0.05139638551410857 0.020388690399038265 0.05112445404166128
    endloop
  endfacet
  facet normal -0.45098614605381404 -0.7742946485234622 -0.4439361365505809
    outer loop
      vertex 0.0544543632418129 0.006741194120113894 0.07182129979918703
      vertex 0.004040368484079966 0.05038083738956241 0.046921481708391985
      vertex 0.006133743590770504 0.049874334536741075 0.04567828324408528
    endloop
  endfacet
  facet normal -0.45098614605381404 -0.7742946485234622 -0.4439361365505809
    outer loop
      vertex 0.0544543632418129 0.006741194120113894 0.07182129979918703
      vertex 0.006133743590770504 0.049874334536741075 0.04567828324408528
      vertex 0.046831860019627025 0.023362179543037157 0.05057523321856083
    endloop
  endfacet
  facet normal -0.46896892258350625 -0.7920755071469505 -0.39074869242105775
    outer loop
      vertex 0.07106677442789078 0.0075747214631475945 0.053491268993838575
      vertex 0.05139638551410857 0.020388690399038262 0.051124454041661285
      vertex 0.04899807419659662 0.024972868866146827 0.044710403122987824
    endloop
  endfacet
  facet normal -0.46896892258350625 -0.7920755071469505 -0.39074869242105775
    outer loop
      vertex 0.07106677442789078 0.0075747214631475945 0.053491268993838575
      vertex 0.04899807419659662 0.024972868866146827 0.044710403122987824
      vertex 0.07106677442789078 0.011958656684820207 0.044604719195064146
    endloop
  endfacet
  facet normal -0.46896892258350603 -0.7920755071469509 -0.3907486924210575
    outer loop
      vertex 0.05139638551410857 0.020388690399038262 0.051124454041661285
      vertex 0.04683186001962701 0.02336217954303716 0.05057523321856083
      vertex 0.04460378117519599 0.027564243127796165 0.0447314467794824
    endloop
  endfacet
  facet normal -0.46896892258350603 -0.7920755071469509 -0.3907486924210575
    outer loop
      vertex 0.05139638551410857 0.020388690399038262 0.051124454041661285
      vertex 0.04460378117519599 0.027564243127796165 0.0447314467794824
      vertex 0.04899807419659662 0.024972868866146827 0.044710403122987824
    endloop
  endfacet
  facet normal -0.46896892258350553 -0.7920755071469502 -0.39074869242105953
    outer loop
      vertex 0.04683186001962701 0.02336217954303716 0.05057523321856083
      vertex 0.006133743590770499 0.049874334536741075 0.04567828324408528
      vertex 0.007276296308068235 0.049576767796883636 0.04491020289918698
    endloop
  endfacet
  facet normal -0.46896892258350553 -0.7920755071469502 -0.39074869242105953
    outer loop
      vertex 0.04683186001962701 0.02336217954303716 0.05057523321856083
      vertex 0.007276296308068235 0.049576767796883636 0.04491020289918698
      vertex 0.04460378117519599 0.027564243127796165 0.0447314467794824
    endloop
  endfacet
  facet normal -0.4544183441630227 -0.8904353791216282 -0.02507596651495433
    outer loop
      vertex 0.05993150794031641 0.0020968152392539996 0.07482673866652655
      vertex 0.07106677442789078 -0.004046190485783508 0.09117228101593636
      vertex 0.07106677442789078 -0.00423806872753703 0.0979857840902485
    endloop
  endfacet
  facet normal -0.45441834416301474 -0.8904353791216321 -0.02507596651495898
    outer loop
      vertex 0.05962325406598268 0.002266870021230716 0.074374250460437
      vertex 0.05993150794031641 0.0020968152392539996 0.07482673866652655
      vertex 0.07106677442789078 -0.004238068727537028 0.0979857840902485
    endloop
  endfacet
  facet normal -0.45441834416301474 -0.8904353791216321 -0.02507596651495898
    outer loop
      vertex 0.05962325406598268 0.002266870021230716 0.074374250460437
      vertex 0.07106677442789078 -0.004238068727537028 0.0979857840902485
      vertex 0.07106677442789078 -0.004410930515568223 0.10412402213859684
    endloop
  endfacet
  facet normal -0.45441834416301474 -0.8904353791216321 -0.02507596651495898
    outer loop
      vertex 0.05962325406598268 0.002266870021230716 0.074374250460437
      vertex 0.07106677442789078 -0.004410930515568223 0.10412402213859684
      vertex 0.058140112627408605 0.0028718913063791856 0.07976723577878611
    endloop
  endfacet
  facet normal -0.4544183441630224 -0.8904353791216283 -0.02507596651495407
    outer loop
      vertex 0.05086741042546722 0.005838661378524887 0.10621216893196106
      vertex 0.058140112627408605 0.0028718913063791856 0.07976723577878611
      vertex 0.07106677442789078 -0.004410930515568221 0.10412402213859683
    endloop
  endfacet
  facet normal -0.4544183441630224 -0.8904353791216283 -0.02507596651495407
    outer loop
      vertex 0.05086741042546722 0.005838661378524887 0.10621216893196106
      vertex 0.07106677442789078 -0.004410930515568221 0.10412402213859683
      vertex 0.07106677442789078 -0.004469735792510792 0.10621216893196106
    endloop
  endfacet
  facet normal -0.3840934985422233 -0.8861160444891376 -0.25936564937655077
    outer loop
      vertex 0.07106677442789078 -0.004742888673923421 0.08137624891587651
      vertex 0.0597484940875572 0.0021901539144341085 0.07445088163772254
      vertex 0.05972867380058614 0.0022122081435126425 0.07440488571305333
    endloop
  endfacet
  facet normal -0.3840934985422233 -0.8861160444891376 -0.25936564937655077
    outer loop
      vertex 0.07106677442789078 -0.004742888673923421 0.08137624891587651
      vertex 0.05972867380058614 0.0022122081435126425 0.07440488571305333
      vertex 0.07106677442789078 -0.0036667847450220386 0.07769976762689537
    endloop
  endfacet
  facet normal -0.38409349854218905 -0.8861160444891281 -0.25936564937663414
    outer loop
      vertex 0.05962325406598268 0.002266870021230716 0.074374250460437
      vertex 0.05972867380058615 0.0022122081435126295 0.07440488571305337
      vertex 0.059730470042590036 0.0022102094472933455 0.07440905415985835
    endloop
  endfacet
  facet normal -0.38409349854220154 -0.8861160444891323 -0.25936564937660117
    outer loop
      vertex 0.0597484940875572 0.0021901539144341085 0.07445088163772254
      vertex 0.05962325406598268 0.002266870021230716 0.074374250460437
      vertex 0.059730470042590036 0.0022102094472933455 0.07440905415985835
    endloop
  endfacet
  facet normal -0.5475836134115919 -0.8346427719863704 0.05936016757062033
    outer loop
      vertex 0.07106677442789078 -0.004046190485783509 0.09117228101593636
      vertex 0.05993150794031638 0.002096815239254011 0.07482673866652652
      vertex 0.05974849408755722 0.0021901539144340973 0.07445088163772254
    endloop
  endfacet
  facet normal -0.5475836134115919 -0.8346427719863704 0.05936016757062033
    outer loop
      vertex 0.07106677442789078 -0.004046190485783509 0.09117228101593636
      vertex 0.05974849408755722 0.0021901539144340973 0.07445088163772254
      vertex 0.07106677442789078 -0.004742888673923424 0.0813762489158765
    endloop
  endfacet
  facet normal -0.5475836134116768 -0.8346427719863098 0.059360167570688085
    outer loop
      vertex 0.05993150794031638 0.002096815239254011 0.07482673866652652
      vertex 0.05962325406598268 0.002266870021230716 0.074374250460437
      vertex 0.059881230742767584 0.0021224570523748322 0.07472348397950483
    endloop
  endfacet
  facet normal -0.547583613411614 -0.8346427719863557 0.05936016757062268
    outer loop
      vertex 0.05962325406598268 0.002266870021230716 0.074374250460437
      vertex 0.05974849408755722 0.0021901539144340973 0.07445088163772254
      vertex 0.059881230742767584 0.0021224570523748322 0.07472348397950483
    endloop
  endfacet
  facet normal -0.4682493942124184 -0.7976843592157637 0.38005548000553757
    outer loop
      vertex -0.04709688556296426 0.055139890346150876 0.10621216893196106
      vertex -0.04717398514242177 0.054894641500141006 0.1056024342691444
      vertex -0.045358488133209585 0.054119432148646125 0.10621216893196106
    endloop
  endfacet
  facet normal -0.566497200019371 -0.7456234361407534 -0.35089402082091475
    outer loop
      vertex -0.046148376884826765 0.05544577659457316 0.10277553101552973
      vertex -0.04717398514242177 0.054894641500141006 0.1056024342691444
      vertex -0.04803658918368952 0.0563794155286522 0.10384002310727648
    endloop
  endfacet
  facet normal -0.7128962391601115 -0.6678971171422579 -0.21375779074557819
    outer loop
      vertex -0.048036589183689526 0.056379415528652214 0.10384002310727647
      vertex -0.04717398514242177 0.054894641500141006 0.1056024342691444
      vertex -0.04872924632268097 0.05669567483515019 0.10516191172405823
    endloop
  endfacet
  facet normal 0.06689836754691617 -0.9836009478744641 -0.16749263792780184
    outer loop
      vertex -0.04576469931791709 0.055206004693888595 0.10433683708195131
      vertex -0.04717398514242177 0.054894641500141006 0.1056024342691444
      vertex -0.04614837688482677 0.05544577659457316 0.10277553101552975
    endloop
  endfacet
  facet normal -0.21663315818764792 -0.8643322129324091 -0.4538721190610965
    outer loop
      vertex -0.04717398514242177 0.054894641500141006 0.1056024342691444
      vertex -0.04576469931791709 0.055206004693888595 0.10433683708195131
      vertex -0.0421760879721066 0.05332180666714561 0.10621216893196106
    endloop
  endfacet
  facet normal -0.21663315818764792 -0.8643322129324091 -0.4538721190610965
    outer loop
      vertex -0.04717398514242177 0.054894641500141006 0.1056024342691444
      vertex -0.0421760879721066 0.05332180666714561 0.10621216893196106
      vertex -0.045358488133209585 0.054119432148646125 0.10621216893196106
    endloop
  endfacet
  facet normal -0.7300609005749816 -0.5227840039637246 0.4401226722759273
    outer loop
      vertex -0.048729246322680976 0.056695674835150194 0.10516191172405823
      vertex -0.04717398514242177 0.054894641500141006 0.1056024342691444
      vertex -0.04751615343713345 0.05588579987269041 0.10621216893196106
    endloop
  endfacet
  facet normal -0.7300609005749816 -0.5227840039637246 0.4401226722759273
    outer loop
      vertex -0.048729246322680976 0.056695674835150194 0.10516191172405823
      vertex -0.04751615343713345 0.05588579987269041 0.10621216893196106
      vertex -0.04769808248399336 0.05613986136421323 0.10621216893196106
    endloop
  endfacet
  facet normal -0.833268581839189 -0.4683714773566247 0.29375436970108176
    outer loop
      vertex -0.04751615343713346 0.05588579987269041 0.10621216893196106
      vertex -0.04717398514242177 0.054894641500141006 0.1056024342691444
      vertex -0.04709688556296426 0.055139890346150876 0.10621216893196106
    endloop
  endfacet
  facet normal -0.384093498542243 -0.8861160444891308 -0.2593656493765445
    outer loop
      vertex 0.07106677442789078 -0.0036667847450220364 0.07769976762689537
      vertex 0.05972867380058614 0.0022122081435126425 0.07440488571305333
      vertex 0.05969830372273551 0.002246001229103617 0.07433440742910845
    endloop
  endfacet
  facet normal -0.384093498542243 -0.8861160444891308 -0.2593656493765445
    outer loop
      vertex 0.07106677442789078 -0.0036667847450220364 0.07769976762689537
      vertex 0.05969830372273551 0.002246001229103617 0.07433440742910845
      vertex 0.07106677442789078 -9.151891375655963E-4 0.06829901227793563
    endloop
  endfacet
  facet normal -0.3840934985422296 -0.8861160444891436 -0.25936564937652073
    outer loop
      vertex 0.05962325406598268 0.002266870021230716 0.074374250460437
      vertex 0.05969830372273551 0.002246001229103617 0.07433440742910845
      vertex 0.05972867380058615 0.0022122081435126295 0.07440488571305337
    endloop
  endfacet
  facet normal -0.460200957957273 -0.8874039302372273 -0.027006349155901766
    outer loop
      vertex 0.05962325406598268 0.002266870021230716 0.074374250460437
      vertex 0.0581401126274086 0.002871891306379187 0.07976723577878611
      vertex 0.05559160727291103 0.004340217560530046 0.07494711431203428
    endloop
  endfacet
  facet normal -0.46020095795727284 -0.8874039302372274 -0.027006349155901395
    outer loop
      vertex 0.03390182988629324 0.014756969624840886 0.10226623118955887
      vertex -0.008914998958573506 0.0375139106351412 0.08411297253223893
      vertex 0.05559160727291103 0.004340217560530046 0.07494711431203428
    endloop
  endfacet
  facet normal -0.46020095795727284 -0.8874039302372274 -0.027006349155901395
    outer loop
      vertex 0.03390182988629324 0.014756969624840886 0.10226623118955887
      vertex 0.05559160727291103 0.004340217560530046 0.07494711431203428
      vertex 0.05593428801308391 0.004142781393994354 0.07559524431852405
    endloop
  endfacet
  facet normal -0.46020095795727267 -0.8874039302372275 -0.027006349155901253
    outer loop
      vertex 0.0581401126274086 0.002871891306379187 0.07976723577878611
      vertex 0.05086741042546722 0.005838661378524887 0.10621216893196106
      vertex 0.043208838844754134 0.00981033860231892 0.10621216893196106
    endloop
  endfacet
  facet normal -0.46020095795727267 -0.8874039302372275 -0.027006349155901253
    outer loop
      vertex 0.0581401126274086 0.002871891306379187 0.07976723577878611
      vertex 0.043208838844754134 0.00981033860231892 0.10621216893196106
      vertex 0.03390182988629324 0.014756969624840886 0.10226623118955887
    endloop
  endfacet
  facet normal -0.46020095795727267 -0.8874039302372275 -0.027006349155901253
    outer loop
      vertex 0.0581401126274086 0.002871891306379187 0.07976723577878611
      vertex 0.03390182988629324 0.014756969624840886 0.10226623118955887
      vertex 0.05593428801308391 0.004142781393994354 0.07559524431852405
    endloop
  endfacet
  facet normal -0.5664972000193712 -0.7456234361407529 -0.3508940208209157
    outer loop
      vertex -0.04531601557985831 0.05589306582320241 0.10048127795762637
      vertex -0.046148376884826765 0.05544577659457316 0.10277553101552973
      vertex -0.04803658918368952 0.0563794155286522 0.10384002310727648
    endloop
  endfacet
  facet normal -0.5664972000193712 -0.7456234361407529 -0.3508940208209157
    outer loop
      vertex -0.04531601557985831 0.05589306582320241 0.10048127795762637
      vertex -0.04803658918368952 0.0563794155286522 0.10384002310727648
      vertex -0.048757591865169 0.05762045545512222 0.10236692176206529
    endloop
  endfacet
  facet normal -0.7128962391601125 -0.6678971171422563 -0.21375779074557924
    outer loop
      vertex -0.048757591865168995 0.05762045545512221 0.1023669217620653
      vertex -0.048036589183689526 0.056379415528652214 0.10384002310727647
      vertex -0.04872924632268097 0.05669567483515019 0.10516191172405823
    endloop
  endfacet
  facet normal -0.7128962391601125 -0.6678971171422563 -0.21375779074557924
    outer loop
      vertex -0.048757591865168995 0.05762045545512221 0.1023669217620653
      vertex -0.04872924632268097 0.05669567483515019 0.10516191172405823
      vertex -0.0500371139121641 0.058210219887991195 0.10479146258891116
    endloop
  endfacet
  facet normal 0.06689836754691636 -0.9836009478744641 -0.1674926379278019
    outer loop
      vertex -0.044638035683626794 0.05545492622659129 0.10332504635669393
      vertex -0.04576469931791709 0.055206004693888595 0.10433683708195131
      vertex -0.04614837688482677 0.05544577659457316 0.10277553101552975
    endloop
  endfacet
  facet normal 0.06689836754691636 -0.9836009478744641 -0.1674926379278019
    outer loop
      vertex -0.044638035683626794 0.05545492622659129 0.10332504635669393
      vertex -0.04614837688482677 0.05544577659457316 0.10277553101552975
      vertex -0.0453160155798583 0.055893065823202415 0.10048127795762636
    endloop
  endfacet
  facet normal -0.21663315818764722 -0.8643322129324097 -0.45387211906109565
    outer loop
      vertex -0.04576469931791709 0.055206004693888595 0.10433683708195131
      vertex -0.044638035683626794 0.05545492622659129 0.10332504635669393
      vertex -0.03930804831264903 0.052602971386058725 0.10621216893196106
    endloop
  endfacet
  facet normal -0.21663315818764722 -0.8643322129324097 -0.45387211906109565
    outer loop
      vertex -0.04576469931791709 0.055206004693888595 0.10433683708195131
      vertex -0.03930804831264903 0.052602971386058725 0.10621216893196106
      vertex -0.0421760879721066 0.05332180666714561 0.10621216893196106
    endloop
  endfacet
  facet normal -0.7300609005749884 -0.5227840039637209 0.44012267227592045
    outer loop
      vertex -0.0500371139121641 0.05821021988799119 0.10479146258891116
      vertex -0.048729246322680976 0.056695674835150194 0.10516191172405823
      vertex -0.04769808248399336 0.05613986136421323 0.10621216893196106
    endloop
  endfacet
  facet normal -0.7300609005749884 -0.5227840039637209 0.44012267227592045
    outer loop
      vertex -0.0500371139121641 0.05821021988799119 0.10479146258891116
      vertex -0.04769808248399336 0.05613986136421323 0.10621216893196106
      vertex -0.04862543586238066 0.05743489800925884 0.10621216893196106
    endloop
  endfacet
  facet normal -0.46055181000879863 -0.7769528445243118 -0.4292275709727884
    outer loop
      vertex 0.0544543632418129 0.00674119412011389 0.07182129979918703
      vertex 0.05962325406598268 0.002266870021230716 0.074374250460437
      vertex 0.05559160727291104 0.004340217560530039 0.07494711431203428
    endloop
  endfacet
  facet normal -0.46055181000879825 -0.7769528445243111 -0.42922757097278996
    outer loop
      vertex -0.008914998958573506 0.0375139106351412 0.08411297253223893
      vertex -0.0011526543768114739 0.05167262609920537 0.05015519095585111
      vertex 0.004040368484079964 0.05038083738956241 0.046921481708391985
    endloop
  endfacet
  facet normal -0.46055181000879825 -0.7769528445243111 -0.42922757097278996
    outer loop
      vertex -0.008914998958573506 0.0375139106351412 0.08411297253223893
      vertex 0.004040368484079964 0.05038083738956241 0.046921481708391985
      vertex 0.0544543632418129 0.00674119412011389 0.07182129979918703
    endloop
  endfacet
  facet normal -0.46055181000879825 -0.7769528445243111 -0.42922757097278996
    outer loop
      vertex -0.008914998958573506 0.0375139106351412 0.08411297253223893
      vertex 0.0544543632418129 0.00674119412011389 0.07182129979918703
      vertex 0.05559160727291104 0.004340217560530039 0.07494711431203428
    endloop
  endfacet
  facet normal -0.8869164439508124 -0.4377104389469858 -0.1476102743256129
    outer loop
      vertex -0.008914998958573506 0.0375139106351412 0.08411297253223893
      vertex -0.019969488514220757 0.060905117733682346 0.08117166670376719
      vertex -0.01409685757579382 0.05565581477583237 0.06145177755649911
    endloop
  endfacet
  facet normal -0.5664972000193708 -0.745623436140753 -0.3508940208209161
    outer loop
      vertex -0.04531601557985831 0.05589306582320241 0.10048127795762637
      vertex -0.048757591865169 0.05762045545512222 0.10236692176206529
      vertex -0.05409573896803081 0.06680884526031364 0.09146039966422098
    endloop
  endfacet
  facet normal -0.5664972000193708 -0.745623436140753 -0.3508940208209161
    outer loop
      vertex -0.04531601557985831 0.05589306582320241 0.10048127795762637
      vertex -0.05409573896803081 0.06680884526031364 0.09146039966422098
      vertex -0.03589354649764687 0.06095645464534982 0.07450994991074822
    endloop
  endfacet
  facet normal -0.7128962391601115 -0.6678971171422579 -0.2137577907455782
    outer loop
      vertex -0.05409573896803081 0.06680884526031364 0.09146039966422098
      vertex -0.048757591865168995 0.05762045545512221 0.1023669217620653
      vertex -0.0500371139121641 0.058210219887991195 0.10479146258891116
    endloop
  endfacet
  facet normal -0.7128962391601115 -0.6678971171422579 -0.2137577907455782
    outer loop
      vertex -0.05409573896803081 0.06680884526031364 0.09146039966422098
      vertex -0.0500371139121641 0.058210219887991195 0.10479146258891116
      vertex -0.06012601087308848 0.06989342780877872 0.10193381615450464
    endloop
  endfacet
  facet normal 0.06689836754691325 -0.9836009478744641 -0.1674926379278029
    outer loop
      vertex -0.019969488514220757 0.060905117733682346 0.08117166670376719
      vertex -0.044638035683626794 0.05545492622659129 0.10332504635669393
      vertex -0.0453160155798583 0.055893065823202415 0.10048127795762636
    endloop
  endfacet
  facet normal 0.06689836754691325 -0.9836009478744641 -0.1674926379278029
    outer loop
      vertex -0.019969488514220757 0.060905117733682346 0.08117166670376719
      vertex -0.0453160155798583 0.055893065823202415 0.10048127795762636
      vertex -0.03589354649764687 0.06095645464534982 0.07450994991074822
    endloop
  endfacet
  facet normal -0.21663315818764745 -0.8643322129324097 -0.45387211906109565
    outer loop
      vertex -0.044638035683626794 0.05545492622659129 0.10332504635669393
      vertex -0.019969488514220757 0.060905117733682346 0.08117166670376719
      vertex -0.017319934620717268 0.04709194860986061 0.10621216893196106
    endloop
  endfacet
  facet normal -0.21663315818764745 -0.8643322129324097 -0.45387211906109565
    outer loop
      vertex -0.044638035683626794 0.05545492622659129 0.10332504635669393
      vertex -0.017319934620717268 0.04709194860986061 0.10621216893196106
      vertex -0.03930804831264903 0.052602971386058725 0.10621216893196106
    endloop
  endfacet
  facet normal -0.7300609005749885 -0.5227840039637225 0.4401226722759183
    outer loop
      vertex -0.060126010873088484 0.06989342780877873 0.10193381615450464
      vertex -0.0500371139121641 0.05821021988799119 0.10479146258891116
      vertex -0.04862543586238066 0.05743489800925884 0.10621216893196106
    endloop
  endfacet
  facet normal -0.7300609005749885 -0.5227840039637225 0.4401226722759183
    outer loop
      vertex -0.060126010873088484 0.06989342780877873 0.10193381615450464
      vertex -0.04862543586238066 0.05743489800925884 0.10621216893196106
      vertex -0.058123209564884974 0.07069841252028988 0.10621216893196106
    endloop
  endfacet
  facet normal -0.6579869571583168 -0.6151184787621905 0.4343758986118222
    outer loop
      vertex -0.0017219653281043135 0.04288898086692788 0.10621216893196106
      vertex -0.010505781509408507 0.04819244520547272 0.10041677933202209
      vertex 0.005694576698758169 0.03247764283918286 0.10270318398715972
    endloop
  endfacet
  facet normal -0.6579869571583168 -0.6151184787621905 0.4343758986118222
    outer loop
      vertex -0.0017219653281043135 0.04288898086692788 0.10621216893196106
      vertex 0.005694576698758169 0.03247764283918286 0.10270318398715972
      vertex 0.009364485068747125 0.031029900032630436 0.10621216893196106
    endloop
  endfacet
  facet normal -0.23239460371261017 -0.8668688338692228 -0.441056881854793
    outer loop
      vertex -0.010505781509408507 0.04819244520547272 0.10041677933202209
      vertex -0.001721965328104317 0.04288898086692788 0.10621216893196106
      vertex -0.009207240739216973 0.04489567155054715 0.10621216893196106
    endloop
  endfacet
  facet normal -0.2938188037415276 -0.8576413775693573 -0.4220447583477762
    outer loop
      vertex -0.010979237666001687 0.045502738829340424 0.10621216893196106
      vertex -0.013771379663786991 0.05028632381831041 0.09843522932289256
      vertex -0.010505781509408507 0.04819244520547272 0.10041677933202209
    endloop
  endfacet
  facet normal -0.2938188037415276 -0.8576413775693573 -0.4220447583477762
    outer loop
      vertex -0.010979237666001687 0.045502738829340424 0.10621216893196106
      vertex -0.010505781509408507 0.04819244520547272 0.10041677933202209
      vertex -0.009207240739216973 0.04489567155054715 0.10621216893196106
    endloop
  endfacet
  facet normal -0.21663315818764828 -0.8643322129324097 -0.4538721190610953
    outer loop
      vertex -0.013771379663786994 0.05028632381831042 0.09843522932289255
      vertex -0.010979237666001687 0.045502738829340424 0.10621216893196106
      vertex -0.017319934620717268 0.04709194860986061 0.10621216893196106
    endloop
  endfacet
  facet normal -0.21663315818764828 -0.8643322129324097 -0.4538721190610953
    outer loop
      vertex -0.013771379663786994 0.05028632381831042 0.09843522932289255
      vertex -0.017319934620717268 0.04709194860986061 0.10621216893196106
      vertex -0.018473803005627797 0.05310751945236372 0.09530714679437058
    endloop
  endfacet
  facet normal -0.03869254907583701 -0.9373395572521115 -0.3462620987870744
    outer loop
      vertex 0.005694576698758169 0.03247764283918286 0.10270318398715972
      vertex 0.012083846450760733 0.03091764719648965 0.10621216893196106
      vertex 0.009364485068747125 0.031029900032630436 0.10621216893196106
    endloop
  endfacet
  facet normal -0.47755537298286155 -0.6654218083903273 0.573720038567372
    outer loop
      vertex 0.012083846450760737 0.03091764719648965 0.10621216893196106
      vertex 0.005694576698758169 0.03247764283918286 0.10270318398715972
      vertex 0.02995910862607007 0.018089051277840506 0.10621216893196106
    endloop
  endfacet
  facet normal -0.5208914796903591 -0.8336648280493176 0.18350754987054332
    outer loop
      vertex 0.005694576698758169 0.03247764283918286 0.10270318398715972
      vertex -0.008914998958573506 0.0375139106351412 0.08411297253223893
      vertex 0.03390182988629324 0.014756969624840886 0.10226623118955887
    endloop
  endfacet
  facet normal -0.5208914796903591 -0.8336648280493176 0.18350754987054332
    outer loop
      vertex 0.005694576698758169 0.03247764283918286 0.10270318398715972
      vertex 0.03390182988629324 0.014756969624840886 0.10226623118955887
      vertex 0.03373544659816474 0.015729515157433472 0.10621216893196106
    endloop
  endfacet
  facet normal -0.5208914796903591 -0.8336648280493176 0.18350754987054332
    outer loop
      vertex 0.005694576698758169 0.03247764283918286 0.10270318398715972
      vertex 0.03373544659816474 0.015729515157433472 0.10621216893196106
      vertex 0.02995910862607007 0.018089051277840506 0.10621216893196106
    endloop
  endfacet
  facet normal -0.5208914796903593 -0.8336648280493175 0.18350754987054327
    outer loop
      vertex 0.03390182988629324 0.014756969624840886 0.10226623118955887
      vertex 0.043208838844754134 0.00981033860231892 0.10621216893196106
      vertex 0.03373544659816474 0.015729515157433472 0.10621216893196106
    endloop
  endfacet
  facet normal -0.7872415239067773 -0.30462648651673624 0.5361468891538994
    outer loop
      vertex 0.005694576698758169 0.03247764283918286 0.10270318398715972
      vertex -0.010146619526596581 0.040120009417760547 0.0837852710371173
      vertex -0.008914998958573506 0.0375139106351412 0.08411297253223893
    endloop
  endfacet
  facet normal -0.5825006779488134 -0.6943084132813235 -0.42264498983892346
    outer loop
      vertex -0.0011526543768114728 0.05167262609920537 0.05015519095585111
      vertex -0.008914998958573506 0.0375139106351412 0.08411297253223893
      vertex -0.010234872787666757 0.042134844214000884 0.07834092809917353
    endloop
  endfacet
  facet normal -0.5825006779488134 -0.6943084132813235 -0.42264498983892346
    outer loop
      vertex -0.0011526543768114728 0.05167262609920537 0.05015519095585111
      vertex -0.010234872787666757 0.042134844214000884 0.07834092809917353
      vertex -0.002000760710741834 0.051933605279921004 0.05089534517782405
    endloop
  endfacet
  facet normal -0.29381880374152747 -0.8576413775693573 -0.4220447583477762
    outer loop
      vertex -0.013771379663786991 0.05028632381831041 0.09843522932289256
      vertex -0.019969488514220757 0.060905117733682346 0.08117166670376719
      vertex -0.010505781509408507 0.04819244520547272 0.10041677933202209
    endloop
  endfacet
  facet normal -0.6787962358533406 -0.7204452812775441 -0.14210653354528247
    outer loop
      vertex -0.019969488514220757 0.060905117733682346 0.08117166670376719
      vertex 0.005694576698758169 0.03247764283918286 0.10270318398715972
      vertex -0.010505781509408507 0.04819244520547272 0.10041677933202209
    endloop
  endfacet
  facet normal -0.7872415239067773 -0.30462648651673657 0.5361468891538993
    outer loop
      vertex 0.005694576698758169 0.03247764283918286 0.10270318398715972
      vertex -0.019969488514220757 0.060905117733682346 0.08117166670376719
      vertex -0.010146619526596581 0.040120009417760547 0.0837852710371173
    endloop
  endfacet
  facet normal -0.2166331581876482 -0.8643322129324096 -0.45387211906109554
    outer loop
      vertex -0.019969488514220757 0.060905117733682346 0.08117166670376719
      vertex -0.013771379663786994 0.05028632381831042 0.09843522932289255
      vertex -0.018473803005627797 0.05310751945236372 0.09530714679437058
    endloop
  endfacet
  facet normal -0.5825006779488134 -0.6943084132813234 -0.42264498983892357
    outer loop
      vertex -0.010234872787666757 0.042134844214000884 0.07834092809917353
      vertex -0.01409685757579382 0.05565581477583237 0.06145177755649911
      vertex -0.006297467035260411 0.05325578724164728 0.05464514069218156
    endloop
  endfacet
  facet normal -0.5825006779488134 -0.6943084132813234 -0.42264498983892357
    outer loop
      vertex -0.010234872787666757 0.042134844214000884 0.07834092809917353
      vertex -0.006297467035260411 0.05325578724164728 0.05464514069218156
      vertex -0.0033477613612855886 0.050330647073011776 0.055385108944000117
    endloop
  endfacet
  facet normal -0.5825006779488137 -0.6943084132813234 -0.42264498983892346
    outer loop
      vertex -0.006297467035260411 0.05325578724164728 0.05464514069218156
      vertex -0.002000760710741834 0.051933605279921004 0.05089534517782405
      vertex -0.0033477613612855886 0.050330647073011776 0.055385108944000117
    endloop
  endfacet
  facet normal -0.5897462687058189 -0.6835760811174336 -0.4300268362226896
    outer loop
      vertex -0.02601083198922053 0.08283425729117297 0.034587613981938846
      vertex -0.02601009491002968 0.0828342615617465 0.034586596350182866
      vertex 3.836425420900014E-5 0.05384507460769328 0.044944864346462055
    endloop
  endfacet
  facet normal -0.5897462687058189 -0.6835760811174336 -0.4300268362226896
    outer loop
      vertex -0.02601083198922053 0.08283425729117297 0.034587613981938846
      vertex 3.836425420900014E-5 0.05384507460769328 0.044944864346462055
      vertex -0.01409685757579382 0.05565581477583237 0.06145177755649911
    endloop
  endfacet
  facet normal -0.5664972000193631 -0.7456234361407452 -0.3508940208209449
    outer loop
      vertex -0.05409573896803081 0.06680884526031364 0.09146039966422098
      vertex -0.06331321693388826 0.08267460896803469 0.07262790494575913
      vertex -0.06328000625453706 0.08267483599341435 0.07257380589823914
    endloop
  endfacet
  facet normal -0.5664972000193631 -0.7456234361407452 -0.3508940208209449
    outer loop
      vertex -0.05409573896803081 0.06680884526031364 0.09146039966422098
      vertex -0.06328000625453706 0.08267483599341435 0.07257380589823914
      vertex -0.03589354649764687 0.06095645464534982 0.07450994991074822
    endloop
  endfacet
  facet normal -0.7128962391601203 -0.6678971171422458 -0.21375779074558693
    outer loop
      vertex -0.07004764332575304 0.08257911178785592 0.09538604406213778
      vertex -0.06331321693388826 0.08267460896803469 0.07262790494575913
      vertex -0.05409573896803081 0.06680884526031364 0.09146039966422098
    endloop
  endfacet
  facet normal -0.7128962391601203 -0.6678971171422458 -0.21375779074558693
    outer loop
      vertex -0.07004764332575304 0.08257911178785592 0.09538604406213778
      vertex -0.05409573896803081 0.06680884526031364 0.09146039966422098
      vertex -0.06012601087308848 0.06989342780877872 0.10193381615450464
    endloop
  endfacet
  facet normal -0.7128962391601203 -0.6678971171422458 -0.21375779074558693
    outer loop
      vertex -0.07004764332575304 0.08257911178785592 0.09538604406213778
      vertex -0.06012601087308848 0.06989342780877872 0.10193381615450464
      vertex -0.06018430887961752 0.0699609384330109 0.10191730343848267
    endloop
  endfacet
  facet normal -0.5134347888818201 -0.6925979264056918 -0.5066486256809711
    outer loop
      vertex -0.06328000625453704 0.08267483599341434 0.07257380589823914
      vertex -0.026012267491931237 0.08283425159675667 0.03458897079851619
      vertex -0.03589354649764687 0.06095645464534982 0.07450994991074822
    endloop
  endfacet
  facet normal -0.4792636391497733 -0.7142478293480585 -0.5100552935324782
    outer loop
      vertex -0.02601083198922053 0.08283425729117297 0.03458761398193885
      vertex -0.01409685757579382 0.05565581477583237 0.06145177755649911
      vertex -0.03589354649764687 0.06095645464534982 0.07450994991074822
    endloop
  endfacet
  facet normal -0.4792636391497733 -0.7142478293480585 -0.5100552935324782
    outer loop
      vertex -0.02601083198922053 0.08283425729117297 0.03458761398193885
      vertex -0.03589354649764687 0.06095645464534982 0.07450994991074822
      vertex -0.02601226749193124 0.08283425159675667 0.0345889707985162
    endloop
  endfacet
  facet normal -0.7300609005748422 -0.522784003963402 0.44012267227654195
    outer loop
      vertex -0.06018430887961748 0.06996093843301088 0.10191730343848268
      vertex -0.060126010873088484 0.06989342780877873 0.10193381615450464
      vertex -0.060123393704548514 0.06989447972573799 0.10193940690893753
    endloop
  endfacet
  facet normal -0.7128962391601125 -0.667897117142257 -0.21375779074557713
    outer loop
      vertex -0.0710667522379822 0.08256309394460004 0.09883488763216519
      vertex -0.07083055964300848 0.08256800968408891 0.09803181037210976
      vertex -0.07004764332575306 0.08257911178785593 0.09538604406213778
    endloop
  endfacet
  facet normal -0.7128962391601125 -0.667897117142257 -0.21375779074557713
    outer loop
      vertex -0.0710667522379822 0.08256309394460004 0.09883488763216519
      vertex -0.07004764332575306 0.08257911178785593 0.09538604406213778
      vertex -0.06018430887961752 0.0699609384330109 0.10191730343848267
    endloop
  endfacet
  facet normal -0.45098614605381415 -0.7742946485234631 -0.4439361365505795
    outer loop
      vertex 0.004040368484079966 0.05038083738956241 0.046921481708391985
      vertex 3.836425420900014E-5 0.05384507460769328 0.044944864346462055
      vertex 0.006133743590770504 0.049874334536741075 0.04567828324408528
    endloop
  endfacet
  facet normal -0.4689689225835049 -0.792075507146949 -0.39074869242106286
    outer loop
      vertex 0.006133743590770499 0.049874334536741075 0.04567828324408528
      vertex 3.836425420900014E-5 0.05384507460769328 0.044944864346462055
      vertex 0.007276296308068235 0.049576767796883636 0.04491020289918698
    endloop
  endfacet
  facet normal -0.4605518100087981 -0.7769528445243113 -0.4292275709727898
    outer loop
      vertex -0.0011526543768114739 0.05167262609920537 0.05015519095585111
      vertex 3.836425420900014E-5 0.05384507460769328 0.044944864346462055
      vertex 0.004040368484079964 0.05038083738956241 0.046921481708391985
    endloop
  endfacet
  facet normal -0.5825006779488133 -0.6943084132813236 -0.42264498983892324
    outer loop
      vertex 3.836425420900014E-5 0.05384507460769328 0.044944864346462055
      vertex -0.0011526543768114728 0.05167262609920537 0.05015519095585111
      vertex -0.01409685757579382 0.05565581477583237 0.06145177755649911
    endloop
  endfacet
  facet normal -0.7300609005749894 -0.5227840039637229 0.4401226722759161
    outer loop
      vertex -0.06659748437776405 0.08253262446002584 0.10621216893196106
      vertex -0.0710667522379822 0.08256309394460004 0.09883488763216519
      vertex -0.06018430887961748 0.06996093843301088 0.10191730343848268
    endloop
  endfacet
  facet normal -0.7300609005749894 -0.5227840039637229 0.4401226722759161
    outer loop
      vertex -0.06659748437776405 0.08253262446002584 0.10621216893196106
      vertex -0.06018430887961748 0.06996093843301088 0.10191730343848268
      vertex -0.060123393704548514 0.06989447972573799 0.10193940690893753
    endloop
  endfacet
  facet normal -0.7300609005749894 -0.5227840039637229 0.4401226722759161
    outer loop
      vertex -0.06659748437776405 0.08253262446002584 0.10621216893196106
      vertex -0.060123393704548514 0.06989447972573799 0.10193940690893753
      vertex -0.05812320956488497 0.07069841252028988 0.10621216893196106
    endloop
  endfacet
  facet normal -0.0022123149920830684 0.9999825902619545 0.005470359711018865
    outer loop
      vertex -0.07083055964300733 0.08256800968408892 0.09803181037210583
      vertex -0.0710667522379822 0.08256309394460004 0.09883488763216519
      vertex -0.06659748437776405 0.08253262446002584 0.10621216893196106
    endloop
  endfacet
  facet normal -0.0022123149920830684 0.9999825902619545 0.005470359711018865
    outer loop
      vertex -0.07083055964300733 0.08256800968408892 0.09803181037210583
      vertex -0.06659748437776405 0.08253262446002584 0.10621216893196106
      vertex -0.06611577502698866 0.08253369017139814 0.10621216893196106
    endloop
  endfacet
endsolid v3d.csg
