solid exported
	facet normal -0.34268257572274624 -0.7575088348355342 -0.5556518851242528
		outer loop
			vertex 0.0555555485188961 0.034390754997730255 -0.0025028104428201914
			vertex 0.041718896478414536 0.04118330031633377 -0.003229584777727723
			vertex 0.0555555485188961 0.03610598295927048 -0.004841145593672991
		endloop
	endfacet
	facet normal -0.4424448820173657 -0.8874844939038644 0.12889452842087967
		outer loop
			vertex 0.0555555485188961 0.03715156763792038 0.016506362706422806
			vertex 0.041718896478414536 0.04118330031633377 -0.003229584777727723
			vertex 0.0555555485188961 0.034390754997730255 -0.0025028104428201914
		endloop
	endfacet
	facet normal 1 0 0
		outer loop
			vertex 0.0555555485188961 0.034390754997730255 -0.0025028104428201914
			vertex 0.0555555485188961 0.03610172122716904 -0.004835349041968584
			vertex 0.0555555485188961 0.036115966737270355 -0.0046372381038963795
		endloop
	endfacet
	facet normal 1 0 0
		outer loop
			vertex 0.0555555485188961 0.034390754997730255 -0.0025028104428201914
			vertex 0.0555555485188961 0.036115966737270355 -0.0046372381038963795
			vertex 0.0555555485188961 0.03715156763792038 0.016506362706422806
		endloop
	endfacet
	facet normal 1 0 0
		outer loop
			vertex 0.0555555485188961 0.03610172122716904 -0.004835349041968584
			vertex 0.0555555485188961 0.03610598295927048 -0.004841145593672991
			vertex 0.0555555485188961 0.036115966737270355 -0.0046372381038963795
		endloop
	endfacet
	facet normal -0.7124730655978406 -0.3048765020590305 0.6320066845294164
		outer loop
			vertex 0.0555555485188961 0.039077647030353546 0.026693221181631088
			vertex 0.05212169513106346 0.04003862291574478 0.023285742849111557
			vertex 0.05245375260710716 0.039714179933071136 0.023503568023443222
		endloop
	endfacet
	facet normal -0.7124690556921434 -0.30490626915838803 0.6319968446986569
		outer loop
			vertex 0.0555555485188961 0.039077647030353546 0.026693221181631088
			vertex 0.05245375260710716 0.039714179933071136 0.023503568023443222
			vertex 0.0555555485188961 0.03865440934896469 0.026489030569791794
		endloop
	endfacet
	facet normal -0.7557484460431527 -0.4616650781475522 0.4644455209412342
		outer loop
			vertex 0.04628643020987511 0.041604168713092804 0.015346739441156387
			vertex 0.05245375260710716 0.039714179933071136 0.023503568023443222
			vertex 0.05212169513106346 0.04003862291574478 0.023285742849111557
		endloop
	endfacet
	facet normal -0.3426824696907846 -0.7575082888839675 -0.5556526948001855
		outer loop
			vertex 0.0555555485188961 0.03610598295927048 -0.004841145593672991
			vertex 0.041718896478414536 0.04118330031633377 -0.003229584777727723
			vertex 0.034789200872182846 0.04458516091108322 -0.00359357544220984
		endloop
	endfacet
	facet normal -0.34268209461089166 -0.7575070972122881 -0.5556545506932387
		outer loop
			vertex 0.0555555485188961 0.03610598295927048 -0.004841145593672991
			vertex 0.034789200872182846 0.04458516091108322 -0.00359357544220984
			vertex 0.0555555485188961 0.0380057618021965 -0.0074310568161308765
		endloop
	endfacet
	facet normal -0.4424456470893079 -0.8874841357661928 0.128894368127773
		outer loop
			vertex 0.04291408881545067 0.0424785390496254 0.009791243821382523
			vertex 0.034789200872182846 0.04458516091108322 -0.00359357544220984
			vertex 0.041718896478414536 0.04118330031633377 -0.003229584777727723
		endloop
	endfacet
	facet normal -0.4424457905032379 -0.8874840634022736 0.12889437409349774
		outer loop
			vertex 0.04291408881545067 0.0424785390496254 0.009791243821382523
			vertex 0.041718896478414536 0.04118330031633377 -0.003229584777727723
			vertex 0.04967501387000084 0.03886503726243973 0.00811869278550148
		endloop
	endfacet
	facet normal 1 0 0
		outer loop
			vertex 0.0555555485188961 0.03658289462327957 0.004895779769867659
			vertex 0.0555555485188961 0.03610598295927048 -0.004841145593672991
			vertex 0.0555555485188961 0.0380057618021965 -0.0074310568161308765
		endloop
	endfacet
	facet normal 1 0 0
		outer loop
			vertex 0.0555555485188961 0.03658289462327957 0.004895779769867659
			vertex 0.0555555485188961 0.0380057618021965 -0.0074310568161308765
			vertex 0.0555555485188961 0.038283251225948334 0.0014030819293111563
		endloop
	endfacet
	facet normal -0.4671600960371041 -0.6480360392218658 0.6015070544392976
		outer loop
			vertex 0.0555555485188961 0.03902997821569443 0.02517544850707054
			vertex 0.05528804287314415 0.039109326899051666 0.025053177028894424
			vertex 0.05245375260710716 0.039714179933071136 0.023503568023443222
		endloop
	endfacet
	facet normal -0.46721175596129993 -0.647832438534761 0.6016862194480309
		outer loop
			vertex 0.0555555485188961 0.03902997821569443 0.02517544850707054
			vertex 0.05245375260710716 0.039714179933071136 0.023503568023443222
			vertex 0.0555555485188961 0.03819384425878525 0.02427518740296364
		endloop
	endfacet
	facet normal -0.04271474972310486 -0.9546919216718124 -0.2945144900521447
		outer loop
			vertex 0.0555555485188961 0.03865440934896469 0.026489030569791794
			vertex 0.05245375260710716 0.039714179933071136 0.023503568023443222
			vertex 0.05528804287314415 0.039109326899051666 0.025053177028894424
		endloop
	endfacet
	facet normal -0.042672427171533495 -0.9546914299385907 -0.2945222191297277
		outer loop
			vertex 0.0555555485188961 0.03865440934896469 0.026489030569791794
			vertex 0.05528804287314415 0.039109326899051666 0.025053177028894424
			vertex 0.0555555485188961 0.039032720029354095 0.0252627395093441
		endloop
	endfacet
	facet normal 1 0 0
		outer loop
			vertex 0.0555555485188961 0.039032720029354095 0.0252627395093441
			vertex 0.0555555485188961 0.039077647030353546 0.026693221181631088
			vertex 0.0555555485188961 0.03865440934896469 0.026489030569791794
		endloop
	endfacet
	facet normal -0.45200091084203897 -0.8897229343521017 0.06393963313824019
		outer loop
			vertex 0.0555555485188961 0.03819384425878525 0.02427518740296364
			vertex 0.05245375260710716 0.039714179933071136 0.023503568023443222
			vertex 0.0555555485188961 0.038109563291072845 0.02310241386294365
		endloop
	endfacet
	facet normal -0.44244322233954975 -0.8874856507331528 0.12889226023523775
		outer loop
			vertex 0.0555555485188961 0.038109563291072845 0.02310241386294365
			vertex 0.05245375260710716 0.039714179933071136 0.023503568023443222
			vertex 0.04628643020987511 0.041604168713092804 0.015346739441156387
		endloop
	endfacet
	facet normal -0.4424472954027623 -0.8874827214609683 0.12889844800855646
		outer loop
			vertex 0.0555555485188961 0.038109563291072845 0.02310241386294365
			vertex 0.04628643020987511 0.041604168713092804 0.015346739441156387
			vertex 0.04291408881545067 0.0424785390496254 0.009791243821382523
		endloop
	endfacet
	facet normal -0.4424453335851469 -0.8874840326060011 0.12889615455132478
		outer loop
			vertex 0.0555555485188961 0.038109563291072845 0.02310241386294365
			vertex 0.04291408881545067 0.0424785390496254 0.009791243821382523
			vertex 0.04967501387000084 0.03886503726243973 0.00811869278550148
		endloop
	endfacet
	facet normal -0.4424453988774953 -0.8874839960659652 0.12889618201839792
		outer loop
			vertex 0.0555555485188961 0.038109563291072845 0.02310241386294365
			vertex 0.04967501387000084 0.03886503726243973 0.00811869278550148
			vertex 0.0555555485188961 0.03715156763792038 0.016506362706422806
		endloop
	endfacet
	facet normal 1 0 0
		outer loop
			vertex 0.0555555485188961 0.03715156763792038 0.016506362706422806
			vertex 0.0555555485188961 0.03658289462327957 0.004895779769867659
			vertex 0.0555555485188961 0.03677303344011307 0.004505250137299299
		endloop
	endfacet
	facet normal 1 0 0
		outer loop
			vertex 0.0555555485188961 0.03715156763792038 0.016506362706422806
			vertex 0.0555555485188961 0.03677303344011307 0.004505250137299299
			vertex 0.0555555485188961 0.038109563291072845 0.02310241386294365
		endloop
	endfacet
	facet normal 1 0 0
		outer loop
			vertex 0.0555555485188961 0.03677303344011307 0.004505250137299299
			vertex 0.0555555485188961 0.038283251225948334 0.0014030819293111563
			vertex 0.0555555485188961 0.03902997821569443 0.02517544850707054
		endloop
	endfacet
	facet normal 1 0 0
		outer loop
			vertex 0.0555555485188961 0.03677303344011307 0.004505250137299299
			vertex 0.0555555485188961 0.03902997821569443 0.02517544850707054
			vertex 0.0555555485188961 0.03819384425878525 0.02427518740296364
		endloop
	endfacet
	facet normal -0.755743877880977 -0.46167393163956394 0.46444415368253955
		outer loop
			vertex 0.019174333661794662 0.06962493807077408 -0.0009164477814920247
			vertex 0.03184890374541283 0.046028561890125275 -0.003748011076822877
			vertex 0.04628643020987511 0.041604168713092804 0.015346739441156387
		endloop
	endfacet
	facet normal -0.7557451010511067 -0.4616794597599463 0.46443666809697165
		outer loop
			vertex 0.019174333661794662 0.06962493807077408 -0.0009164477814920247
			vertex 0.04628643020987511 0.041604168713092804 0.015346739441156387
			vertex 0.04891785606741905 0.04089818149805069 0.01892687752842903
		endloop
	endfacet
	facet normal -0.41832801932197256 -0.7290338453694973 0.5417668507355533
		outer loop
			vertex -0.022405002266168594 0.06869206577539444 0.036741625517606735
			vertex -0.02198955789208412 0.06763044744729996 0.035633835941553116
			vertex -0.017856214195489883 0.06608191877603531 0.036741625517606735
		endloop
	endfacet
	facet normal -0.5165471617497405 -0.7762770301442847 -0.3613488648918891
		outer loop
			vertex 0.011907394975423813 0.06823573261499405 -0.01412208005785942
			vertex -0.02198955789208412 0.06763044744729996 0.035633835941553116
			vertex -0.04475462809205055 0.1021934226155281 -0.006074365694075823
		endloop
	endfacet
	facet normal -0.5165470753136738 -0.77627667667282 -0.3613497478049374
		outer loop
			vertex 0.011907394975423813 0.06823573261499405 -0.01412208005785942
			vertex -0.04475462809205055 0.1021934226155281 -0.006074365694075823
			vertex -0.0012093516997992992 0.0809951201081276 -0.022782381623983383
		endloop
	endfacet
	facet normal -0.7001216531534121 -0.6886767691888366 -0.18855762611297214
		outer loop
			vertex -0.02198955789208412 0.06763044744729996 0.035633835941553116
			vertex -0.0555555559694767 0.10202724486589432 0.03463682904839516
			vertex -0.04475462809205055 0.1021934226155281 -0.006074365694075823
		endloop
	endfacet
	facet normal -0.2188205500649686 -0.8822597690443724 -0.4168156268604088
		outer loop
			vertex 0.028764870017766953 0.05451882630586624 0.036741625517606735
			vertex -0.017856214195489883 0.06608191877603531 0.036741625517606735
			vertex -0.02198955789208412 0.06763044744729996 0.035633835941553116
		endloop
	endfacet
	facet normal -0.21882145924280794 -0.8822627203042497 -0.4168089026594728
		outer loop
			vertex 0.028764870017766953 0.05451882630586624 0.036741625517606735
			vertex -0.02198955789208412 0.06763044744729996 0.035633835941553116
			vertex 0.012595977634191513 0.07439718395471573 0.0031534915324300528
		endloop
	endfacet
	facet normal 0.43622416290461374 -0.8529062612558306 0.2868089768622487
		outer loop
			vertex 0.015196796506643295 0.073466457426548 -0.0035700167063623667
			vertex 0.012595977634191513 0.07439718395471573 0.0031534915324300528
			vertex -0.02198955789208412 0.06763044744729996 0.035633835941553116
		endloop
	endfacet
	facet normal 0.43622286483357847 -0.8529073960056985 0.28680757666973195
		outer loop
			vertex 0.015196796506643295 0.073466457426548 -0.0035700167063623667
			vertex -0.02198955789208412 0.06763044744729996 0.035633835941553116
			vertex 0.011907394975423813 0.06823573261499405 -0.01412208005785942
		endloop
	endfacet
	facet normal -0.5252869920147557 -0.7131154660186821 -0.46426275765459346
		outer loop
			vertex -0.01671237125992775 0.09789887815713882 -0.031206052750349045
			vertex -0.0012093516997992992 0.0809951201081276 -0.022782381623983383
			vertex -0.022823188453912735 0.09151697903871536 -0.014489304274320602
		endloop
	endfacet
	facet normal -0.6713482316062619 -0.6445259448258231 0.3658932335607273
		outer loop
			vertex -0.02198955789208412 0.06763044744729996 0.035633835941553116
			vertex -0.022405002266168594 0.06869206577539444 0.036741625517606735
			vertex -0.054408345371484756 0.10202724486589432 0.036741625517606735
		endloop
	endfacet
	facet normal -0.6713424326793984 -0.6445210970470627 0.3659124123958607
		outer loop
			vertex -0.02198955789208412 0.06763044744729996 0.035633835941553116
			vertex -0.054408345371484756 0.10202724486589432 0.036741625517606735
			vertex -0.0555555559694767 0.10202724486589432 0.03463682904839516
		endloop
	endfacet
	facet normal -0.5252855251791515 -0.713117288097918 -0.4642616185440425
		outer loop
			vertex -0.04475462809205055 0.1021934226155281 -0.006074365694075823
			vertex -0.020580921322107315 0.10211692005395889 -0.03330802544951439
			vertex -0.01671237125992775 0.09789887815713882 -0.031206052750349045
		endloop
	endfacet
	facet normal -0.5252863074106053 -0.7131160004102339 -0.4642627114100835
		outer loop
			vertex -0.04475462809205055 0.1021934226155281 -0.006074365694075823
			vertex -0.01671237125992775 0.09789887815713882 -0.031206052750349045
			vertex -0.022823188453912735 0.09151697903871536 -0.014489304274320602
		endloop
	endfacet
	facet normal 0.004913194055291629 0.9999867249329824 0.0015525726981450022
		outer loop
			vertex -0.04475462809205055 0.1021934226155281 -0.006074365694075823
			vertex -0.03962037339806557 0.10210172086954117 0.036741625517606735
			vertex -0.027737680822610855 0.10204333811998367 0.036741625517606735
		endloop
	endfacet
	facet normal 0.004913959557041113 0.9999867216439194 0.001552268442744758
		outer loop
			vertex -0.04475462809205055 0.1021934226155281 -0.006074365694075823
			vertex -0.027737680822610855 0.10204333811998367 0.036741625517606735
			vertex -0.014420393854379654 0.10207114368677139 -0.02332904562354088
		endloop
	endfacet
	facet normal 0.004914513076789056 0.9999867174126977 0.001553241576708829
		outer loop
			vertex -0.04475462809205055 0.1021934226155281 -0.006074365694075823
			vertex -0.014420393854379654 0.10207114368677139 -0.02332904562354088
			vertex -0.020580921322107315 0.10211692005395889 -0.03330802544951439
		endloop
	endfacet
	facet normal -0.005036265606873502 0.9999835485832739 0.0027456495661712004
		outer loop
			vertex -0.03962037339806557 0.10210172086954117 0.036741625517606735
			vertex -0.04475462809205055 0.1021934226155281 -0.006074365694075823
			vertex -0.0555555559694767 0.10202724486589432 0.03463682904839516
		endloop
	endfacet
	facet normal -0.005036172554553467 0.9999835509862103 0.002744944992265247
		outer loop
			vertex -0.03962037339806557 0.10210172086954117 0.036741625517606735
			vertex -0.0555555559694767 0.10202724486589432 0.03463682904839516
			vertex -0.054408345371484756 0.10202724486589432 0.036741625517606735
		endloop
	endfacet
	facet normal -0.5165467760104886 -0.7762766696405397 -0.36135019076370045
		outer loop
			vertex 0.024537529796361923 0.06846127659082413 -0.03266127035021782
			vertex 0.011907394975423813 0.06823573261499405 -0.01412208005785942
			vertex -0.0012093516997992992 0.0809951201081276 -0.022782381623983383
		endloop
	endfacet
	facet normal -0.8797713917647977 -0.4567346125893792 -0.13189310783759986
		outer loop
			vertex 0.024537529796361923 0.06846127659082413 -0.03266127035021782
			vertex 0.03184890374541283 0.046028561890125275 -0.003748011076822877
			vertex 0.02868899330496788 0.05191139131784439 -0.003042083466425538
		endloop
	endfacet
	facet normal 0.6509750873717459 0.6706100919442017 0.35568741923764613
		outer loop
			vertex 0.02312391623854637 0.06630665808916092 -0.026011791080236435
			vertex 0.03184890374541283 0.046028561890125275 -0.003748011076822877
			vertex 0.024537529796361923 0.06846127659082413 -0.03266127035021782
		endloop
	endfacet
	facet normal -0.3426855140492176 -0.7575080603573421 -0.5556511288159873
		outer loop
			vertex 0.03184890374541283 0.046028561890125275 -0.003748011076822877
			vertex 0.02312391623854637 0.06630665808916092 -0.026011791080236435
			vertex 0.02576356753706932 0.06357357650995255 -0.023913782089948654
		endloop
	endfacet
	facet normal -0.3426784675989796 -0.7575090540853453 -0.5556541197748294
		outer loop
			vertex 0.034789200872182846 0.04458516091108322 -0.00359357544220984
			vertex 0.03184890374541283 0.046028561890125275 -0.003748011076822877
			vertex 0.02576356753706932 0.06357357650995255 -0.023913782089948654
		endloop
	endfacet
	facet normal -0.34268234651268353 -0.757508762802441 -0.5556521246842095
		outer loop
			vertex 0.034789200872182846 0.04458516091108322 -0.00359357544220984
			vertex 0.02576356753706932 0.06357357650995255 -0.023913782089948654
			vertex 0.0482097826898098 0.04033311456441879 -0.006073605734854937
		endloop
	endfacet
	facet normal -0.442440166896196 -0.8874875362798147 0.12888976555510892
		outer loop
			vertex 0.03606471046805382 0.04473661631345749 0.0018277352210134268
			vertex 0.03184890374541283 0.046028561890125275 -0.003748011076822877
			vertex 0.034789200872182846 0.04458516091108322 -0.00359357544220984
		endloop
	endfacet
	facet normal -0.4424509432984083 -0.8874818187965899 0.12889214126487886
		outer loop
			vertex 0.03606471046805382 0.04473661631345749 0.0018277352210134268
			vertex 0.034789200872182846 0.04458516091108322 -0.00359357544220984
			vertex 0.03779330477118492 0.04380623251199722 0.0013553982134908438
		endloop
	endfacet
	facet normal 0.4362252979952443 -0.8529059141364804 0.2868082826906767
		outer loop
			vertex 0.024537529796361923 0.06846127659082413 -0.03266127035021782
			vertex 0.020777370780706406 0.07146940380334854 -0.01799667999148369
			vertex 0.015196796506643295 0.073466457426548 -0.0035700167063623667
		endloop
	endfacet
	facet normal 0.436222623786608 -0.8529074800180052 0.28680769345689383
		outer loop
			vertex 0.024537529796361923 0.06846127659082413 -0.03266127035021782
			vertex 0.015196796506643295 0.073466457426548 -0.0035700167063623667
			vertex 0.011907394975423813 0.06823573261499405 -0.01412208005785942
		endloop
	endfacet
	facet normal -0.8797719165085777 -0.45673376053705544 -0.1318925581998626
		outer loop
			vertex 0.024537529796361923 0.06846127659082413 -0.03266127035021782
			vertex 0.02868899330496788 0.05191139131784439 -0.003042083466425538
			vertex 0.019174333661794662 0.06962493807077408 -0.0009164477814920247
		endloop
	endfacet
	facet normal -0.8797689052930197 -0.45673977130156773 -0.1318918291286977
		outer loop
			vertex 0.024537529796361923 0.06846127659082413 -0.03266127035021782
			vertex 0.019174333661794662 0.06962493807077408 -0.0009164477814920247
			vertex 0.020777370780706406 0.07146940380334854 -0.01799667999148369
		endloop
	endfacet
	facet normal 0.6509682726777174 0.670616392598694 0.35568801209051626
		outer loop
			vertex 0.02213093265891075 0.0686144307255745 -0.028545554727315903
			vertex 0.02312391623854637 0.06630665808916092 -0.026011791080236435
			vertex 0.024537529796361923 0.06846127659082413 -0.03266127035021782
		endloop
	endfacet
	facet normal -0.34267777986880565 -0.7575111410945438 -0.5556516987302645
		outer loop
			vertex 0.02312391623854637 0.06630665808916092 -0.026011791080236435
			vertex 0.02213093265891075 0.0686144307255745 -0.028545554727315903
			vertex 0.023888137191534042 0.06898079067468643 -0.03012869879603386
		endloop
	endfacet
	facet normal -0.34268551053639607 -0.7575080595121487 -0.5556511321346773
		outer loop
			vertex 0.02312391623854637 0.06630665808916092 -0.026011791080236435
			vertex 0.023888137191534042 0.06898079067468643 -0.03012869879603386
			vertex 0.02576356753706932 0.06357357650995255 -0.023913782089948654
		endloop
	endfacet
	facet normal -0.3426794088443995 -0.7575073421375625 -0.5556558731460859
		outer loop
			vertex 0.023888137191534042 0.06898079067468643 -0.03012869879603386
			vertex 0.026316668838262558 0.06948713213205338 -0.03231668099761009
			vertex 0.0555555485188961 0.04100716859102249 -0.011522840708494186
		endloop
	endfacet
	facet normal -0.3426856588391408 -0.7575097082450138 -0.5556487929803664
		outer loop
			vertex 0.023888137191534042 0.06898079067468643 -0.03012869879603386
			vertex 0.0555555485188961 0.04100716859102249 -0.011522840708494186
			vertex 0.0555555485188961 0.0380057618021965 -0.0074310568161308765
		endloop
	endfacet
	facet normal -0.3426819013521448 -0.7575086359972408 -0.5556525720945408
		outer loop
			vertex 0.023888137191534042 0.06898079067468643 -0.03012869879603386
			vertex 0.0555555485188961 0.0380057618021965 -0.0074310568161308765
			vertex 0.0482097826898098 0.04033311456441879 -0.006073605734854937
		endloop
	endfacet
	facet normal -0.3426816729083628 -0.7575086007260976 -0.5556527610646016
		outer loop
			vertex 0.023888137191534042 0.06898079067468643 -0.03012869879603386
			vertex 0.0482097826898098 0.04033311456441879 -0.006073605734854937
			vertex 0.02576356753706932 0.06357357650995255 -0.023913782089948654
		endloop
	endfacet
	facet normal -0.44244880790315627 -0.8874817640428038 0.1288998482409869
		outer loop
			vertex 0.04628643020987511 0.041604168713092804 0.015346739441156387
			vertex 0.03606471046805382 0.04473661631345749 0.0018277352210134268
			vertex 0.03779330477118492 0.04380623251199722 0.0013553982134908438
		endloop
	endfacet
	facet normal 1 0 0
		outer loop
			vertex 0.0555555485188961 0.038327522575855255 0.0028122549410909414
			vertex 0.0555555485188961 0.0380057618021965 -0.0074310568161308765
			vertex 0.0555555485188961 0.04100716859102249 -0.011522840708494186
		endloop
	endfacet
	facet normal -0.5252861774251535 -0.7131158157112459 -0.4642631421818393
		outer loop
			vertex -0.020580921322107315 0.10211692005395889 -0.03330802544951439
			vertex -0.01753309741616249 0.10210726410150528 -0.036741625517606735
			vertex 0.022434886544942856 0.07266656309366226 -0.036741625517606735
		endloop
	endfacet
	facet normal -0.5252858109211994 -0.713115104713451 -0.46426464896046304
		outer loop
			vertex -0.020580921322107315 0.10211692005395889 -0.03330802544951439
			vertex 0.022434886544942856 0.07266656309366226 -0.036741625517606735
			vertex 0.024537529796361923 0.06846127659082413 -0.03266127035021782
		endloop
	endfacet
	facet normal -0.5252863173780519 -0.7131157535026799 -0.46426307938679523
		outer loop
			vertex -0.020580921322107315 0.10211692005395889 -0.03330802544951439
			vertex 0.024537529796361923 0.06846127659082413 -0.03266127035021782
			vertex -0.0012093516997992992 0.0809951201081276 -0.022782381623983383
		endloop
	endfacet
	facet normal 0.004916225511177042 0.9999867108237694 0.0015520639749084767
		outer loop
			vertex -0.014420393854379654 0.10207114368677139 -0.02332904562354088
			vertex -0.011446896940469742 0.10207734256982803 -0.036741625517606735
			vertex -0.01753309741616249 0.10210726410150528 -0.036741625517606735
		endloop
	endfacet
	facet normal 0.004916538005251134 0.9999867093999718 0.0015519914494992485
		outer loop
			vertex -0.014420393854379654 0.10207114368677139 -0.02332904562354088
			vertex -0.01753309741616249 0.10210726410150528 -0.036741625517606735
			vertex -0.020580921322107315 0.10211692005395889 -0.03330802544951439
		endloop
	endfacet
	facet normal 0.6509724603215197 0.6706109208696547 0.3556906643606229
		outer loop
			vertex 0.01891898736357689 0.07607949525117874 -0.036741625517606735
			vertex 0.02213093265891075 0.0686144307255745 -0.028545554727315903
			vertex 0.024537529796361923 0.06846127659082413 -0.03266127035021782
		endloop
	endfacet
	facet normal 0.6509714513515976 0.670611042724381 0.3556922811944522
		outer loop
			vertex 0.01891898736357689 0.07607949525117874 -0.036741625517606735
			vertex 0.024537529796361923 0.06846127659082413 -0.03266127035021782
			vertex 0.022434886544942856 0.07266656309366226 -0.036741625517606735
		endloop
	endfacet
	facet normal -0.34267265104772 -0.7575091475780587 -0.5556575794133385
		outer loop
			vertex 0.02213093265891075 0.0686144307255745 -0.028545554727315903
			vertex 0.01891898736357689 0.07607949525117874 -0.036741625517606735
			vertex 0.020094629377126694 0.07554767280817032 -0.036741625517606735
		endloop
	endfacet
	facet normal -0.342679600335273 -0.7575079891808728 -0.555654872957314
		outer loop
			vertex 0.02213093265891075 0.0686144307255745 -0.028545554727315903
			vertex 0.020094629377126694 0.07554767280817032 -0.036741625517606735
			vertex 0.026316668838262558 0.06948713213205338 -0.03231668099761009
		endloop
	endfacet
	facet normal -0.23176366232198953 -0.8814687380116059 -0.41145895145849737
		outer loop
			vertex 0.0555555485188961 0.0474967435002327 0.036741625517606735
			vertex 0.030238833278417587 0.05415324121713638 0.036741625517606735
			vertex 0.016229119151830673 0.07510799914598465 -0.00025847210781648755
		endloop
	endfacet
	facet normal -0.23176063817353662 -0.8814682149502823 -0.4114617754126842
		outer loop
			vertex 0.0555555485188961 0.0474967435002327 0.036741625517606735
			vertex 0.016229119151830673 0.07510799914598465 -0.00025847210781648755
			vertex 0.0555555485188961 0.04977766424417496 0.03185524418950081
		endloop
	endfacet
	facet normal -0.7124714422764777 -0.3048959990348082 0.6319991089495633
		outer loop
			vertex 0.0555555485188961 0.04977766424417496 0.03185524418950081
			vertex 0.016229119151830673 0.07510799914598465 -0.00025847210781648755
			vertex 0.05212169513106346 0.04003862291574478 0.023285742849111557
		endloop
	endfacet
	facet normal -0.7124712155633137 -0.3048962130221366 0.6319992612958454
		outer loop
			vertex 0.0555555485188961 0.04977766424417496 0.03185524418950081
			vertex 0.05212169513106346 0.04003862291574478 0.023285742849111557
			vertex 0.0555555485188961 0.039077647030353546 0.026693221181631088
		endloop
	endfacet
	facet normal -0.21882633429032328 -0.8822623984128808 -0.41680702461428243
		outer loop
			vertex 0.016229119151830673 0.07510799914598465 -0.00025847210781648755
			vertex 0.030238833278417587 0.05415324121713638 0.036741625517606735
			vertex 0.028764870017766953 0.05451882630586624 0.036741625517606735
		endloop
	endfacet
	facet normal -0.21882178926019652 -0.8822627149911733 -0.41680874064895806
		outer loop
			vertex 0.016229119151830673 0.07510799914598465 -0.00025847210781648755
			vertex 0.028764870017766953 0.05451882630586624 0.036741625517606735
			vertex 0.012595977634191513 0.07439718395471573 0.0031534915324300528
		endloop
	endfacet
	facet normal 0.43621826374046513 -0.852909277107229 0.28680898068867783
		outer loop
			vertex 0.016229119151830673 0.07510799914598465 -0.00025847210781648755
			vertex 0.012595977634191513 0.07439718395471573 0.0031534915324300528
			vertex 0.014813777059316635 0.07360351830720901 -0.00257983454503119
		endloop
	endfacet
	facet normal -0.7557451701247797 -0.4616799357914337 0.46443608249218304
		outer loop
			vertex 0.016229119151830673 0.07510799914598465 -0.00025847210781648755
			vertex 0.019174333661794662 0.06962493807077408 -0.0009164477814920247
			vertex 0.04891785606741905 0.04089818149805069 0.01892687752842903
		endloop
	endfacet
	facet normal -0.7557439436010945 -0.4616747580226403 0.46444322528701243
		outer loop
			vertex 0.016229119151830673 0.07510799914598465 -0.00025847210781648755
			vertex 0.04891785606741905 0.04089818149805069 0.01892687752842903
			vertex 0.05212169513106346 0.04003862291574478 0.023285742849111557
		endloop
	endfacet
	facet normal 0.4362295426292467 -0.8529064393443929 0.28680026475292525
		outer loop
			vertex 0.016229119151830673 0.07510799914598465 -0.00025847210781648755
			vertex 0.014813777059316635 0.07360351830720901 -0.00257983454503119
			vertex 0.015196796506643295 0.073466457426548 -0.0035700167063623667
		endloop
	endfacet
	facet normal 0.43621771806205145 -0.8529105605941939 0.2868059937930771
		outer loop
			vertex 0.020777370780706406 0.07146940380334854 -0.01799667999148369
			vertex 0.016229119151830673 0.07510799914598465 -0.00025847210781648755
			vertex 0.015196796506643295 0.073466457426548 -0.0035700167063623667
		endloop
	endfacet
	facet normal -0.8797693179513355 -0.45673898963262044 -0.1318917834469423
		outer loop
			vertex 0.019174333661794662 0.06962493807077408 -0.0009164477814920247
			vertex 0.016229119151830673 0.07510799914598465 -0.00025847210781648755
			vertex 0.020777370780706406 0.07146940380334854 -0.01799667999148369
		endloop
	endfacet
	facet normal -0.3426814262807192 -0.7575081871616303 -0.5556534769668167
		outer loop
			vertex 0.042457547038793564 0.0654311254620552 -0.036741625517606735
			vertex 0.0555555485188961 0.051618583500385284 -0.0259891115128994
			vertex 0.0555555485188961 0.04100716859102249 -0.011522840708494186
		endloop
	endfacet
	facet normal -0.3426822196056541 -0.7575081540426494 -0.555653032858672
		outer loop
			vertex 0.042457547038793564 0.0654311254620552 -0.036741625517606735
			vertex 0.0555555485188961 0.04100716859102249 -0.011522840708494186
			vertex 0.026316668838262558 0.06948713213205338 -0.03231668099761009
		endloop
	endfacet
	facet normal -0.34268213724082963 -0.7575089404190531 -0.5556520116055199
		outer loop
			vertex 0.042457547038793564 0.0654311254620552 -0.036741625517606735
			vertex 0.026316668838262558 0.06948713213205338 -0.03231668099761009
			vertex 0.031228091567754745 0.0705111101269722 -0.036741625517606735
		endloop
	endfacet
	facet normal 1 0 0
		outer loop
			vertex 0.0555555485188961 0.03878270834684372 0.0003771220217458904
			vertex 0.0555555485188961 0.04100716859102249 -0.011522840708494186
			vertex 0.0555555485188961 0.044189952313899994 -0.015861835330724716
		endloop
	endfacet
	facet normal 1 0 0
		outer loop
			vertex 0.0555555485188961 0.03878270834684372 0.0003771220217458904
			vertex 0.0555555485188961 0.044189952313899994 -0.015861835330724716
			vertex 0.0555555485188961 0.04721734672784805 -0.016948502510786057
		endloop
	endfacet
	facet normal 1 0 0
		outer loop
			vertex 0.0555555485188961 0.051618583500385284 -0.0259891115128994
			vertex 0.0555555485188961 0.04721734672784805 -0.016948502510786057
			vertex 0.0555555485188961 0.044189952313899994 -0.015861835330724716
		endloop
	endfacet
	facet normal -0.3426831041492578 -0.757508568258637 -0.5556519226506634
		outer loop
			vertex 0.0555555485188961 0.059505827724933624 -0.036741625517606735
			vertex 0.0555555485188961 0.051618583500385284 -0.0259891115128994
			vertex 0.042457547038793564 0.0654311254620552 -0.036741625517606735
		endloop
	endfacet
	facet normal -0.46716200415058395 -0.6480228347328395 0.6015197981303897
		outer loop
			vertex 0.0555555485188961 0.039052240550518036 0.02519943192601204
			vertex 0.05528804287314415 0.039109326899051666 0.025053177028894424
			vertex 0.0555555485188961 0.03902997821569443 0.02517544850707054
		endloop
	endfacet
	facet normal -0.042790601509354216 -0.9547284876886621 -0.2943849167640691
		outer loop
			vertex 0.0555555485188961 0.039032720029354095 0.0252627395093441
			vertex 0.05528804287314415 0.039109326899051666 0.025053177028894424
			vertex 0.0555555485188961 0.039052240550518036 0.02519943192601204
		endloop
	endfacet
	facet normal 1 0 0
		outer loop
			vertex 0.0555555485188961 0.039077647030353546 0.026693221181631088
			vertex 0.0555555485188961 0.039032720029354095 0.0252627395093441
			vertex 0.0555555485188961 0.039052240550518036 0.02519943192601204
		endloop
	endfacet
	facet normal 1 0 0
		outer loop
			vertex 0.0555555485188961 0.039077647030353546 0.026693221181631088
			vertex 0.0555555485188961 0.039052240550518036 0.02519943192601204
			vertex 0.0555555485188961 0.04154529422521591 0.02788368985056877
		endloop
	endfacet
	facet normal 1 0 0
		outer loop
			vertex 0.0555555485188961 0.03902997821569443 0.02517544850707054
			vertex 0.0555555485188961 0.038327522575855255 0.0028122549410909414
			vertex 0.0555555485188961 0.03878270834684372 0.0003771220217458904
		endloop
	endfacet
	facet normal 1 0 0
		outer loop
			vertex 0.0555555485188961 0.03902997821569443 0.02517544850707054
			vertex 0.0555555485188961 0.03878270834684372 0.0003771220217458904
			vertex 0.0555555485188961 0.04721734672784805 -0.016948502510786057
		endloop
	endfacet
	facet normal 1 0 0
		outer loop
			vertex 0.0555555485188961 0.03902997821569443 0.02517544850707054
			vertex 0.0555555485188961 0.04721734672784805 -0.016948502510786057
			vertex 0.0555555485188961 0.07765928655862808 -0.027875524014234543
		endloop
	endfacet
	facet normal 1 0 0
		outer loop
			vertex 0.0555555485188961 0.03902997821569443 0.02517544850707054
			vertex 0.0555555485188961 0.07765928655862808 -0.027875524014234543
			vertex 0.0555555485188961 0.04977766424417496 0.03185524418950081
		endloop
	endfacet
	facet normal 1 0 0
		outer loop
			vertex 0.0555555485188961 0.03902997821569443 0.02517544850707054
			vertex 0.0555555485188961 0.04977766424417496 0.03185524418950081
			vertex 0.0555555485188961 0.04154529422521591 0.02788368985056877
		endloop
	endfacet
	facet normal 1 0 0
		outer loop
			vertex 0.0555555485188961 0.059505827724933624 -0.036741625517606735
			vertex 0.0555555485188961 0.08179784566164017 -0.036741625517606735
			vertex 0.0555555485188961 0.07765928655862808 -0.027875524014234543
		endloop
	endfacet
	facet normal 1 0 0
		outer loop
			vertex 0.0555555485188961 0.059505827724933624 -0.036741625517606735
			vertex 0.0555555485188961 0.07765928655862808 -0.027875524014234543
			vertex 0.0555555485188961 0.04721734672784805 -0.016948502510786057
		endloop
	endfacet
	facet normal 1 0 0
		outer loop
			vertex 0.0555555485188961 0.059505827724933624 -0.036741625517606735
			vertex 0.0555555485188961 0.04721734672784805 -0.016948502510786057
			vertex 0.0555555485188961 0.051618583500385284 -0.0259891115128994
		endloop
	endfacet
	facet normal -0.34268229650052023 -0.7575087679795435 -0.5556521484699254
		outer loop
			vertex 0.020094629377126694 0.07554767280817032 -0.036741625517606735
			vertex 0.031228091567754745 0.0705111101269722 -0.036741625517606735
			vertex 0.026316668838262558 0.06948713213205338 -0.03231668099761009
		endloop
	endfacet
	facet normal 0 1 0
		outer loop
			vertex 0.028037365525960922 0.10202724486589432 0.036741625517606735
			vertex 0.013421114534139633 0.10202724486589432 -0.036741625517606735
			vertex -0.0012455317191779613 0.10202724486589432 -0.036741625517606735
		endloop
	endfacet
	facet normal 0 1 0
		outer loop
			vertex 0.028037365525960922 0.10202724486589432 0.036741625517606735
			vertex -0.0012455317191779613 0.10202724486589432 -0.036741625517606735
			vertex -0.024460170418024063 0.10202724486589432 0.036741625517606735
		endloop
	endfacet
	facet normal 0 1 0
		outer loop
			vertex 0.013421114534139633 0.10202724486589432 -0.036741625517606735
			vertex 0.028037365525960922 0.10202724486589432 0.036741625517606735
			vertex 0.04183041676878929 0.10202724486589432 0.036741625517606735
		endloop
	endfacet
	facet normal 0 1 0
		outer loop
			vertex 0.013421114534139633 0.10202724486589432 -0.036741625517606735
			vertex 0.04183041676878929 0.10202724486589432 0.036741625517606735
			vertex 0.03439575061202049 0.10202724486589432 -0.036741625517606735
		endloop
	endfacet
	facet normal 0 1 0
		outer loop
			vertex 0.0555555485188961 0.10202724486589432 0.036741625517606735
			vertex 0.0555555485188961 0.10202724486589432 -0.036741625517606735
			vertex 0.03439575061202049 0.10202724486589432 -0.036741625517606735
		endloop
	endfacet
	facet normal 0 1 0
		outer loop
			vertex 0.0555555485188961 0.10202724486589432 0.036741625517606735
			vertex 0.03439575061202049 0.10202724486589432 -0.036741625517606735
			vertex 0.04183041676878929 0.10202724486589432 0.036741625517606735
		endloop
	endfacet
	facet normal 0.004910817177085684 0.9999867384087597 0.0015514126671872597
		outer loop
			vertex -0.024460170418024063 0.10202724486589432 0.036741625517606735
			vertex -0.0012455317191779613 0.10202724486589432 -0.036741625517606735
			vertex -0.011446896940469742 0.10207734256982803 -0.036741625517606735
		endloop
	endfacet
	facet normal 0.00491014176523679 0.9999867419109557 0.0015512930597457839
		outer loop
			vertex -0.024460170418024063 0.10202724486589432 0.036741625517606735
			vertex -0.011446896940469742 0.10207734256982803 -0.036741625517606735
			vertex -0.027737680822610855 0.10204333811998367 0.036741625517606735
		endloop
	endfacet
	facet normal 1 0 0
		outer loop
			vertex 0.0555555485188961 0.047981150448322296 0.036741625517606735
			vertex 0.0555555485188961 0.0474967435002327 0.036741625517606735
			vertex 0.0555555485188961 0.047656185925006866 0.036400120705366135
		endloop
	endfacet
	facet normal 1 0 0
		outer loop
			vertex 0.0555555485188961 0.049772270023822784 0.036741625517606735
			vertex 0.0555555485188961 0.047981150448322296 0.036741625517606735
			vertex 0.0555555485188961 0.047656185925006866 0.036400120705366135
		endloop
	endfacet
	facet normal 1 0 0
		outer loop
			vertex 0.0555555485188961 0.049772270023822784 0.036741625517606735
			vertex 0.0555555485188961 0.047656185925006866 0.036400120705366135
			vertex 0.0555555485188961 0.048257894814014435 0.03511108085513115
		endloop
	endfacet
	facet normal 1 0 0
		outer loop
			vertex 0.0555555485188961 0.10202724486589432 0.036741625517606735
			vertex 0.0555555485188961 0.049772270023822784 0.036741625517606735
			vertex 0.0555555485188961 0.048257894814014435 0.03511108085513115
		endloop
	endfacet
	facet normal 1 0 0
		outer loop
			vertex 0.0555555485188961 0.10202724486589432 0.036741625517606735
			vertex 0.0555555485188961 0.048257894814014435 0.03511108085513115
			vertex 0.0555555485188961 0.07765928655862808 -0.027875524014234543
		endloop
	endfacet
	facet normal 1 0 0
		outer loop
			vertex 0.0555555485188961 0.10202724486589432 0.036741625517606735
			vertex 0.0555555485188961 0.07765928655862808 -0.027875524014234543
			vertex 0.0555555485188961 0.10202724486589432 -0.03662232682108879
		endloop
	endfacet
	facet normal 1 0 0
		outer loop
			vertex 0.0555555485188961 0.08179784566164017 -0.036741625517606735
			vertex 0.0555555485188961 0.10202724486589432 -0.036741625517606735
			vertex 0.0555555485188961 0.10202724486589432 -0.03662232682108879
		endloop
	endfacet
	facet normal 1 0 0
		outer loop
			vertex 0.0555555485188961 0.08179784566164017 -0.036741625517606735
			vertex 0.0555555485188961 0.10202724486589432 -0.03662232682108879
			vertex 0.0555555485188961 0.07765928655862808 -0.027875524014234543
		endloop
	endfacet
	facet normal 0 0 1
		outer loop
			vertex -0.022405002266168594 0.06869206577539444 0.036741625517606735
			vertex -0.017856214195489883 0.06608191877603531 0.036741625517606735
			vertex 0.028764870017766953 0.05451882630586624 0.036741625517606735
		endloop
	endfacet
	facet normal 0 0 1
		outer loop
			vertex -0.022405002266168594 0.06869206577539444 0.036741625517606735
			vertex 0.028764870017766953 0.05451882630586624 0.036741625517606735
			vertex -0.027737680822610855 0.10204333811998367 0.036741625517606735
		endloop
	endfacet
	facet normal 0 0 1
		outer loop
			vertex -0.022405002266168594 0.06869206577539444 0.036741625517606735
			vertex -0.027737680822610855 0.10204333811998367 0.036741625517606735
			vertex -0.03962037339806557 0.10210172086954117 0.036741625517606735
		endloop
	endfacet
	facet normal 0 0 1
		outer loop
			vertex -0.022405002266168594 0.06869206577539444 0.036741625517606735
			vertex -0.03962037339806557 0.10210172086954117 0.036741625517606735
			vertex -0.054408345371484756 0.10202724486589432 0.036741625517606735
		endloop
	endfacet
	facet normal 0 0 1
		outer loop
			vertex 0.02949213609099388 0.05433846265077591 0.036741625517606735
			vertex 0.029497411102056503 0.054348208010196686 0.036741625517606735
			vertex 0.02872687205672264 0.05455077439546585 0.036741625517606735
		endloop
	endfacet
	facet normal 0 0 1
		outer loop
			vertex 0.02949213609099388 0.05433846265077591 0.036741625517606735
			vertex 0.02872687205672264 0.05455077439546585 0.036741625517606735
			vertex 0.028764870017766953 0.05451882630586624 0.036741625517606735
		endloop
	endfacet
	facet normal 0 0 1
		outer loop
			vertex 0.030238833278417587 0.05415324121713638 0.036741625517606735
			vertex 0.029497411102056503 0.054348208010196686 0.036741625517606735
			vertex 0.02949213609099388 0.05433846265077591 0.036741625517606735
		endloop
	endfacet
	facet normal 0 0 1
		outer loop
			vertex -0.027737680822610855 0.10204333811998367 0.036741625517606735
			vertex -0.027718547731637955 0.10202724486589432 0.036741625517606735
			vertex -0.024460170418024063 0.10202724486589432 0.036741625517606735
		endloop
	endfacet
	facet normal 0 0 1
		outer loop
			vertex 0.029497411102056503 0.054348208010196686 0.036741625517606735
			vertex 0.03426074609160423 0.06312451511621475 0.036741625517606735
			vertex -0.020444724708795547 0.10202724486589432 0.036741625517606735
		endloop
	endfacet
	facet normal 0 0 1
		outer loop
			vertex 0.029497411102056503 0.054348208010196686 0.036741625517606735
			vertex -0.020444724708795547 0.10202724486589432 0.036741625517606735
			vertex -0.027718547731637955 0.10202724486589432 0.036741625517606735
		endloop
	endfacet
	facet normal 0 0 1
		outer loop
			vertex 0.029497411102056503 0.054348208010196686 0.036741625517606735
			vertex -0.027718547731637955 0.10202724486589432 0.036741625517606735
			vertex 0.02872687205672264 0.05455077439546585 0.036741625517606735
		endloop
	endfacet
	facet normal 0 0 1
		outer loop
			vertex 0.0555555485188961 0.0474967435002327 0.036741625517606735
			vertex 0.0555555485188961 0.047981150448322296 0.036741625517606735
			vertex 0.03426074609160423 0.06312451511621475 0.036741625517606735
		endloop
	endfacet
	facet normal 0 0 1
		outer loop
			vertex 0.0555555485188961 0.0474967435002327 0.036741625517606735
			vertex 0.03426074609160423 0.06312451511621475 0.036741625517606735
			vertex 0.029497411102056503 0.054348208010196686 0.036741625517606735
		endloop
	endfacet
	facet normal 0 0 1
		outer loop
			vertex 0.03426074609160423 0.06312451511621475 0.036741625517606735
			vertex 0.03504302725195885 0.06456581503152847 0.036741625517606735
			vertex -0.016900423914194107 0.10202724486589432 0.036741625517606735
		endloop
	endfacet
	facet normal 0 0 1
		outer loop
			vertex 0.03426074609160423 0.06312451511621475 0.036741625517606735
			vertex -0.016900423914194107 0.10202724486589432 0.036741625517606735
			vertex -0.020444724708795547 0.10202724486589432 0.036741625517606735
		endloop
	endfacet
	facet normal 0 0 1
		outer loop
			vertex 0.0555555485188961 0.047981150448322296 0.036741625517606735
			vertex 0.0555555485188961 0.049772270023822784 0.036741625517606735
			vertex 0.03504302725195885 0.06456581503152847 0.036741625517606735
		endloop
	endfacet
	facet normal 0 0 1
		outer loop
			vertex 0.0555555485188961 0.047981150448322296 0.036741625517606735
			vertex 0.03504302725195885 0.06456581503152847 0.036741625517606735
			vertex 0.03426074609160423 0.06312451511621475 0.036741625517606735
		endloop
	endfacet
	facet normal 0 0 1
		outer loop
			vertex 0.03504302725195885 0.06456581503152847 0.036741625517606735
			vertex 0.05537515506148338 0.10202724486589432 0.036741625517606735
			vertex -0.016900423914194107 0.10202724486589432 0.036741625517606735
		endloop
	endfacet
	facet normal 0 0 1
		outer loop
			vertex 0.0555555485188961 0.049772270023822784 0.036741625517606735
			vertex 0.0555555485188961 0.10202724486589432 0.036741625517606735
			vertex 0.05537515506148338 0.10202724486589432 0.036741625517606735
		endloop
	endfacet
	facet normal 0 0 1
		outer loop
			vertex 0.0555555485188961 0.049772270023822784 0.036741625517606735
			vertex 0.05537515506148338 0.10202724486589432 0.036741625517606735
			vertex 0.03504302725195885 0.06456581503152847 0.036741625517606735
		endloop
	endfacet
	facet normal 0 0 -1
		outer loop
			vertex 0.038719769567251205 0.04232140630483627 -0.036741625517606735
			vertex 0.008000638335943222 0.05187580734491348 -0.036741625517606735
			vertex -0.022351745516061783 0.10156149417161942 -0.036741625517606735
		endloop
	endfacet
	facet normal 0 0 -1
		outer loop
			vertex 0.038719769567251205 0.04232140630483627 -0.036741625517606735
			vertex -0.022351745516061783 0.10156149417161942 -0.036741625517606735
			vertex 0.023965593427419662 0.0707411840558052 -0.036741625517606735
		endloop
	endfacet
	facet normal 0 0 -1
		outer loop
			vertex 0.015393104404211044 0.07950211316347122 -0.036741625517606735
			vertex 0.020094629377126694 0.07554767280817032 -0.036741625517606735
			vertex 0.01891898736357689 0.07607949525117874 -0.036741625517606735
		endloop
	endfacet
	facet normal 0 0 -1
		outer loop
			vertex -0.011446896940469742 0.10207734256982803 -0.036741625517606735
			vertex 0.015393104404211044 0.07950211316347122 -0.036741625517606735
			vertex 0.022434886544942856 0.07266656309366226 -0.036741625517606735
		endloop
	endfacet
	facet normal 0 0 -1
		outer loop
			vertex -0.011446896940469742 0.10207734256982803 -0.036741625517606735
			vertex 0.022434886544942856 0.07266656309366226 -0.036741625517606735
			vertex -0.01753309741616249 0.10210726410150528 -0.036741625517606735
		endloop
	endfacet
	facet normal 0 0 -1
		outer loop
			vertex 0.031228091567754745 0.0705111101269722 -0.036741625517606735
			vertex 0.03317790850996971 0.07150835543870926 -0.036741625517606735
			vertex 0.042457547038793564 0.0654311254620552 -0.036741625517606735
		endloop
	endfacet
	facet normal 0 0 -1
		outer loop
			vertex 0.0555555485188961 0.08179784566164017 -0.036741625517606735
			vertex 0.0555555485188961 0.059505827724933624 -0.036741625517606735
			vertex 0.042457547038793564 0.0654311254620552 -0.036741625517606735
		endloop
	endfacet
	facet normal 0 0 -1
		outer loop
			vertex 0.0555555485188961 0.08179784566164017 -0.036741625517606735
			vertex 0.042457547038793564 0.0654311254620552 -0.036741625517606735
			vertex 0.03317790850996971 0.07150835543870926 -0.036741625517606735
		endloop
	endfacet
	facet normal 0 0 -1
		outer loop
			vertex 0.0555555485188961 0.08179784566164017 -0.036741625517606735
			vertex 0.03317790850996971 0.07150835543870926 -0.036741625517606735
			vertex 0.054063256829977036 0.08219022303819656 -0.036741625517606735
		endloop
	endfacet
	facet normal 0 0 -1
		outer loop
			vertex 0.020094629377126694 0.07554767280817032 -0.036741625517606735
			vertex 0.015393104404211044 0.07950211316347122 -0.036741625517606735
			vertex 0.00382476719096303 0.09073171764612198 -0.036741625517606735
		endloop
	endfacet
	facet normal 0 0 -1
		outer loop
			vertex 0.020094629377126694 0.07554767280817032 -0.036741625517606735
			vertex 0.00382476719096303 0.09073171764612198 -0.036741625517606735
			vertex 0.03317790850996971 0.07150835543870926 -0.036741625517606735
		endloop
	endfacet
	facet normal 0 0 -1
		outer loop
			vertex 0.020094629377126694 0.07554767280817032 -0.036741625517606735
			vertex 0.03317790850996971 0.07150835543870926 -0.036741625517606735
			vertex 0.031228091567754745 0.0705111101269722 -0.036741625517606735
		endloop
	endfacet
	facet normal 0 0 -1
		outer loop
			vertex 0.015393104404211044 0.07950211316347122 -0.036741625517606735
			vertex -0.004227850120514631 0.09600541740655899 -0.036741625517606735
			vertex 0.00382476719096303 0.09073171764612198 -0.036741625517606735
		endloop
	endfacet
	facet normal 0 0 -1
		outer loop
			vertex -0.004227850120514631 0.09600541740655899 -0.036741625517606735
			vertex -0.006841633003205061 0.0982038751244545 -0.036741625517606735
			vertex 0.054063256829977036 0.08219022303819656 -0.036741625517606735
		endloop
	endfacet
	facet normal 0 0 -1
		outer loop
			vertex -0.004227850120514631 0.09600541740655899 -0.036741625517606735
			vertex 0.054063256829977036 0.08219022303819656 -0.036741625517606735
			vertex 0.03317790850996971 0.07150835543870926 -0.036741625517606735
		endloop
	endfacet
	facet normal 0 0 -1
		outer loop
			vertex -0.0012455317191779613 0.10202724486589432 -0.036741625517606735
			vertex -0.011387292295694351 0.10202724486589432 -0.036741625517606735
			vertex -0.011446896940469742 0.10207734256982803 -0.036741625517606735
		endloop
	endfacet
	facet normal 0 0 -1
		outer loop
			vertex 0.0555555485188961 0.10202724486589432 -0.036741625517606735
			vertex 0.0555555485188961 0.08179784566164017 -0.036741625517606735
			vertex -0.006841633003205061 0.0982038751244545 -0.036741625517606735
		endloop
	endfacet
	facet normal 0 0 -1
		outer loop
			vertex 0.0555555485188961 0.10202724486589432 -0.036741625517606735
			vertex -0.006841633003205061 0.0982038751244545 -0.036741625517606735
			vertex -0.011387292295694351 0.10202724486589432 -0.036741625517606735
		endloop
	endfacet
endsolid exported
