solid exported
	facet normal 0.23391256917339762 -0.1356180252606135 -0.9627526479875879
		outer loop
			vertex 0.055555541068315506 0.07677928358316422 -0.00541066424921155
			vertex 0.03838484361767769 0.08673975616693497 -0.010985576547682285
			vertex 0.055555541068315506 0.08969099074602127 -0.007229470182210207
		endloop
	endfacet
	facet normal -0.0013444572445421357 0.7892934036880636 -0.6140147517195572
		outer loop
			vertex 0.055555541068315506 0.09062380343675613 -0.006030373740941286
			vertex 0.055555541068315506 0.08969099074602127 -0.007229470182210207
			vertex 0.03838484361767769 0.08673975616693497 -0.010985576547682285
		endloop
	endfacet
	facet normal -0.0013439055437245654 0.7892924804077031 -0.6140159397684603
		outer loop
			vertex 0.055555541068315506 0.09062380343675613 -0.006030373740941286
			vertex 0.03838484361767769 0.08673975616693497 -0.010985576547682285
			vertex 0.04577915742993355 0.09240875393152237 -0.0037144948728382587
		endloop
	endfacet
	facet normal -0.24636415875954476 -0.7428149003260807 -0.6225196584303637
		outer loop
			vertex -0.044972013682127 0.10041604191064835 0.006777382921427488
			vertex -0.04536391422152519 0.10053173452615738 0.00679442984983325
			vertex -0.034895312041044235 0.09887004643678665 0.004634238313883543
		endloop
	endfacet
	facet normal -0.24638039792985858 -0.7426393470525455 -0.6227226507244565
		outer loop
			vertex -0.044972013682127 0.10041604191064835 0.006777382921427488
			vertex -0.034895312041044235 0.09887004643678665 0.004634238313883543
			vertex -0.03453369066119194 0.09875864535570145 0.0046240161173045635
		endloop
	endfacet
	facet normal -0.2527552964354457 -0.766270005841228 -0.5907157000384486
		outer loop
			vertex 0.03838484361767769 0.08673975616693497 -0.010985576547682285
			vertex -0.03453369066119194 0.09875864535570145 0.0046240161173045635
			vertex -0.034895312041044235 0.09887004643678665 0.004634238313883543
		endloop
	endfacet
	facet normal -0.5080571264474535 -0.7748045985582057 -0.37623900690786194
		outer loop
			vertex -0.04536391422152519 0.10053173452615738 0.00679442984983325
			vertex -0.04529718682169914 0.10046521574258804 0.006841308902949095
			vertex -0.045307230204343796 0.10046926885843277 0.0068465243093669415
		endloop
	endfacet
	facet normal -0.23781866550397746 -0.7075416217974813 -0.6654525796494423
		outer loop
			vertex -0.04536391422152519 0.10053173452615738 0.00679442984983325
			vertex -0.044972013682127 0.10041604191064835 0.006777382921427488
			vertex -0.04529718682169914 0.10046521574258804 0.006841308902949095
		endloop
	endfacet
	facet normal 0.0005392042278016566 0.7883646068154722 -0.6152080590982917
		outer loop
			vertex 0.0388614721596241 0.0871051624417305 -0.010516905225813389
			vertex 0.03838484361767769 0.08673975616693497 -0.010985576547682285
			vertex 0.016075631603598595 0.09075713902711868 -0.0058570136316120625
		endloop
	endfacet
	facet normal -0.014891900006697902 0.7546681617268225 -0.6559376471815359
		outer loop
			vertex 0.03838484361767769 0.08673975616693497 -0.010985576547682285
			vertex -0.034895312041044235 0.09887004643678665 0.004634238313883543
			vertex 0.016075631603598595 0.09075713902711868 -0.0058570136316120625
		endloop
	endfacet
	facet normal -0.016715735279872662 0.9993211827072913 -0.032829224580453384
		outer loop
			vertex -0.04544020816683769 0.10053495317697525 0.006931252311915159
			vertex -0.04536391422152519 0.10053173452615738 0.00679442984983325
			vertex -0.045469384640455246 0.10053444653749466 0.006930686067789793
		endloop
	endfacet
	facet normal -0.6599950914065817 -0.6634840502103708 -0.35241366947900876
		outer loop
			vertex -0.04536391422152519 0.10053173452615738 0.00679442984983325
			vertex -0.04544020816683769 0.10053495317697525 0.006931252311915159
			vertex -0.04852752014994621 0.10235781222581863 0.00928125437349081
		endloop
	endfacet
	facet normal -0.6599966329863285 -0.663479828428322 -0.3524187306535141
		outer loop
			vertex -0.04536391422152519 0.10053173452615738 0.00679442984983325
			vertex -0.04852752014994621 0.10235781222581863 0.00928125437349081
			vertex -0.04835490509867668 0.1023596003651619 0.00895462092012167
		endloop
	endfacet
	facet normal 0.003137791816452341 0.9999696403476218 0.00713250626110851
		outer loop
			vertex -0.007424900773912668 0.10223207622766495 0.008827096782624722
			vertex -0.04835490509867668 0.1023596003651619 0.00895462092012167
			vertex -0.04852752014994621 0.10235781222581863 0.00928125437349081
		endloop
	endfacet
	facet normal 0.0031370086432954973 0.9999701468468264 0.007061486522579369
		outer loop
			vertex -0.007424900773912668 0.10223207622766495 0.008827096782624722
			vertex -0.04852752014994621 0.10235781222581863 0.00928125437349081
			vertex -0.008027474395930767 0.10223252326250076 0.009031481109559536
		endloop
	endfacet
	facet normal 0.0005395236257960985 0.7883682669985286 -0.6152033684107995
		outer loop
			vertex -0.038805168122053146 0.10063991695642471 0.00675926310941577
			vertex -0.04835490509867668 0.1023596003651619 0.00895462092012167
			vertex -0.007424900773912668 0.10223207622766495 0.008827096782624722
		endloop
	endfacet
	facet normal 0.0005390784951623317 0.7883715600091864 -0.6151991488640552
		outer loop
			vertex -0.038805168122053146 0.10063991695642471 0.00675926310941577
			vertex -0.007424900773912668 0.10223207622766495 0.008827096782624722
			vertex -0.0022525291424244642 0.10127709060907364 0.007607824634760618
		endloop
	endfacet
	facet normal -0.01670591402228376 0.7517526943762529 -0.6592334934867345
		outer loop
			vertex -0.04835490509867668 0.1023596003651619 0.00895462092012167
			vertex -0.041546862572431564 0.10059452801942825 0.006769306492060423
			vertex -0.04536391422152519 0.10053173452615738 0.00679442984983325
		endloop
	endfacet
	facet normal -0.014896331110923615 0.7546613910389693 -0.6559453362853964
		outer loop
			vertex -0.041546862572431564 0.10059452801942825 0.006769306492060423
			vertex -0.04835490509867668 0.1023596003651619 0.00895462092012167
			vertex -0.038805168122053146 0.10063991695642471 0.00675926310941577
		endloop
	endfacet
	facet normal 0.0005392990987809466 0.7883648314052822 -0.6152077712121354
		outer loop
			vertex 0.04577915742993355 0.09240875393152237 -0.0037144948728382587
			vertex 0.0388614721596241 0.0871051624417305 -0.010516905225813389
			vertex 0.016075631603598595 0.09075713902711868 -0.0058570136316120625
		endloop
	endfacet
	facet normal 0.0005393246361735637 0.7883646588854998 -0.6152079922670761
		outer loop
			vertex 0.04577915742993355 0.09240875393152237 -0.0037144948728382587
			vertex 0.016075631603598595 0.09075713902711868 -0.0058570136316120625
			vertex -0.038805168122053146 0.10063991695642471 0.00675926310941577
		endloop
	endfacet
	facet normal 0.0005393917259611463 0.7883649209351572 -0.6152076564018605
		outer loop
			vertex 0.04577915742993355 0.09240875393152237 -0.0037144948728382587
			vertex -0.038805168122053146 0.10063991695642471 0.00675926310941577
			vertex -0.0022525291424244642 0.10127709060907364 0.007607824634760618
		endloop
	endfacet
	facet normal -0.016705923659800996 0.7517537719546463 -0.6592322644308564
		outer loop
			vertex -0.041546862572431564 0.10059452801942825 0.006769306492060423
			vertex -0.034895312041044235 0.09887004643678665 0.004634238313883543
			vertex -0.04536391422152519 0.10053173452615738 0.00679442984983325
		endloop
	endfacet
	facet normal -0.014896344554563947 0.7546624805155883 -0.655944082541318
		outer loop
			vertex -0.034895312041044235 0.09887004643678665 0.004634238313883543
			vertex -0.041546862572431564 0.10059452801942825 0.006769306492060423
			vertex -0.038805168122053146 0.10063991695642471 0.00675926310941577
		endloop
	endfacet
	facet normal -0.014892843171201441 0.75466576871945 -0.6559403789563194
		outer loop
			vertex -0.034895312041044235 0.09887004643678665 0.004634238313883543
			vertex -0.038805168122053146 0.10063991695642471 0.00675926310941577
			vertex 0.016075631603598595 0.09075713902711868 -0.0058570136316120625
		endloop
	endfacet
	facet normal -0.507237488741501 -0.7748699080679401 -0.3772091668901989
		outer loop
			vertex -0.045469384640455246 0.10053444653749466 0.006930686067789793
			vertex -0.04536391422152519 0.10053173452615738 0.00679442984983325
			vertex -0.045307230204343796 0.10046926885843277 0.0068465243093669415
		endloop
	endfacet
	facet normal -0.24636623284904963 -0.7426336962422795 -0.6227349938114107
		outer loop
			vertex 0.055555541068315506 0.07100797444581985 0.0020768712274730206
			vertex 0.055555541068315506 0.07073647528886795 0.0024006436578929424
			vertex -0.044972013682127 0.10041604191064835 0.006777382921427488
		endloop
	endfacet
	facet normal -0.24637708715179057 -0.742680387209173 -0.6226750142581858
		outer loop
			vertex 0.055555541068315506 0.07100797444581985 0.0020768712274730206
			vertex -0.044972013682127 0.10041604191064835 0.006777382921427488
			vertex -0.03453369066119194 0.09875864535570145 0.0046240161173045635
		endloop
	endfacet
	facet normal -0.2527515294873725 -0.7663110619379111 -0.5906640506187801
		outer loop
			vertex 0.03838484361767769 0.08673975616693497 -0.010985576547682285
			vertex 0.055555541068315506 0.07677928358316422 -0.00541066424921155
			vertex 0.055555541068315506 0.07100797444581985 0.0020768712274730206
		endloop
	endfacet
	facet normal -0.2527510677881652 -0.7663108983140335 -0.5906644604655689
		outer loop
			vertex 0.03838484361767769 0.08673975616693497 -0.010985576547682285
			vertex 0.055555541068315506 0.07100797444581985 0.0020768712274730206
			vertex -0.03453369066119194 0.09875864535570145 0.0046240161173045635
		endloop
	endfacet
	facet normal -0.5080629873133867 -0.7747896229854141 -0.3762619314205429
		outer loop
			vertex -0.045307230204343796 0.10046926885843277 0.0068465243093669415
			vertex -0.04529718682169914 0.10046521574258804 0.006841308902949095
			vertex -0.012391696684062481 0.06765852123498917 0.02996409684419632
		endloop
	endfacet
	facet normal -0.5074028969139249 -0.774775178094368 -0.37718128746293544
		outer loop
			vertex -0.045307230204343796 0.10046926885843277 0.0068465243093669415
			vertex -0.012391696684062481 0.06765852123498917 0.02996409684419632
			vertex -0.020504990592598915 0.07312879711389542 0.029641903936862946
		endloop
	endfacet
	facet normal -0.23787285733069422 -0.7075744013407599 -0.6653983546061685
		outer loop
			vertex -0.044972013682127 0.10041604191064835 0.006777382921427488
			vertex 0.055555541068315506 0.07073647528886795 0.0024006436578929424
			vertex 0.055555541068315506 0.06523112207651138 0.008254951797425747
		endloop
	endfacet
	facet normal -0.2378727914411317 -0.7075742220805837 -0.6653985687834478
		outer loop
			vertex -0.044972013682127 0.10041604191064835 0.006777382921427488
			vertex 0.055555541068315506 0.06523112207651138 0.008254951797425747
			vertex -0.012391696684062481 0.06765852123498917 0.02996409684419632
		endloop
	endfacet
	facet normal -0.2378181533991158 -0.7075511035464874 -0.6654426810657568
		outer loop
			vertex -0.044972013682127 0.10041604191064835 0.006777382921427488
			vertex -0.012391696684062481 0.06765852123498917 0.02996409684419632
			vertex -0.04529718682169914 0.10046521574258804 0.006841308902949095
		endloop
	endfacet
	facet normal 1 0 0
		outer loop
			vertex 0.055555541068315506 0.07073647528886795 0.0024006436578929424
			vertex 0.055555541068315506 0.06636086851358414 0.007619387935847044
			vertex 0.055555541068315506 0.06523112207651138 0.008254951797425747
		endloop
	endfacet
	facet normal 1 0 0
		outer loop
			vertex 0.055555541068315506 0.07677928358316422 -0.00541066424921155
			vertex 0.055555541068315506 0.07735360413789749 -0.005491547752171755
			vertex 0.055555541068315506 0.07100797444581985 0.0020768712274730206
		endloop
	endfacet
	facet normal -0.016715050182413975 0.9993200667037941 -0.03286352659901161
		outer loop
			vertex -0.0555555634200573 0.10096234828233719 0.025072433054447174
			vertex -0.04544020816683769 0.10053495317697525 0.006931252311915159
			vertex -0.045469384640455246 0.10053444653749466 0.006930686067789793
		endloop
	endfacet
	facet normal -0.01665026743694497 0.9993223302314034 -0.032827563040171315
		outer loop
			vertex -0.0555555634200573 0.10096234828233719 0.025072433054447174
			vertex -0.045469384640455246 0.10053444653749466 0.006930686067789793
			vertex -0.0555555634200573 0.10079456120729446 0.019964732229709625
		endloop
	endfacet
	facet normal -0.6599857545981613 -0.6635165666914354 -0.3523699326751723
		outer loop
			vertex -0.04544020816683769 0.10053495317697525 0.006931252311915159
			vertex -0.0555555634200573 0.10096234828233719 0.025072433054447174
			vertex -0.0555555634200573 0.10228575021028519 0.022580452263355255
		endloop
	endfacet
	facet normal -0.659981877661368 -0.6635220814480409 -0.3523668097160041
		outer loop
			vertex -0.04544020816683769 0.10053495317697525 0.006931252311915159
			vertex -0.0555555634200573 0.10228575021028519 0.022580452263355255
			vertex -0.04852752014994621 0.10235781222581863 0.00928125437349081
		endloop
	endfacet
	facet normal 0.003144613742108624 0.9999699909800595 0.007080151393346269
		outer loop
			vertex -0.04852752014994621 0.10235781222581863 0.00928125437349081
			vertex -0.0555555634200573 0.10228575021028519 0.022580452263355255
			vertex -0.0555555634200573 0.1022675409913063 0.025152243673801422
		endloop
	endfacet
	facet normal 0.003137102907151929 0.9999700381129015 0.007076825688985203
		outer loop
			vertex -0.04852752014994621 0.10235781222581863 0.00928125437349081
			vertex -0.0555555634200573 0.1022675409913063 0.025152243673801422
			vertex -0.008027474395930767 0.10223252326250076 0.009031481109559536
		endloop
	endfacet
	facet normal -0.5074036314159834 -0.7747733708155701 -0.37718401172498295
		outer loop
			vertex -0.0555555634200573 0.09676099568605423 0.0282500758767128
			vertex -0.0555555634200573 0.10079456120729446 0.019964732229709625
			vertex -0.045469384640455246 0.10053444653749466 0.006930686067789793
		endloop
	endfacet
	facet normal -0.5072151807095455 -0.7749269205586233 -0.37712203363276475
		outer loop
			vertex -0.0555555634200573 0.09676099568605423 0.0282500758767128
			vertex -0.045469384640455246 0.10053444653749466 0.006930686067789793
			vertex -0.045307230204343796 0.10046926885843277 0.0068465243093669415
		endloop
	endfacet
	facet normal -0.5074002650226546 -0.7747753861561992 -0.3771844006072522
		outer loop
			vertex -0.0555555634200573 0.09676099568605423 0.0282500758767128
			vertex -0.045307230204343796 0.10046926885843277 0.0068465243093669415
			vertex -0.020504990592598915 0.07312879711389542 0.029641903936862946
		endloop
	endfacet
	facet normal 1 0 0
		outer loop
			vertex 0.055555541068315506 0.07735360413789749 -0.005491547752171755
			vertex 0.055555541068315506 0.08969099074602127 -0.007229470182210207
			vertex 0.055555541068315506 0.09062380343675613 -0.006030373740941286
		endloop
	endfacet
	facet normal 1 0 0
		outer loop
			vertex 0.055555541068315506 0.07735360413789749 -0.005491547752171755
			vertex 0.055555541068315506 0.09062380343675613 -0.006030373740941286
			vertex 0.055555541068315506 0.06636086851358414 0.007619387935847044
		endloop
	endfacet
	facet normal -0.0013414599512958562 0.7892975038680788 -0.614009487608147
		outer loop
			vertex 0.055555541068315506 0.09182808548212051 -0.004482292104512453
			vertex 0.055555541068315506 0.09062380343675613 -0.006030373740941286
			vertex 0.04577915742993355 0.09240875393152237 -0.0037144948728382587
		endloop
	endfacet
	facet normal -0.0013417807963010493 0.78929550263412 -0.6140120594465933
		outer loop
			vertex 0.055555541068315506 0.09182808548212051 -0.004482292104512453
			vertex 0.04577915742993355 0.09240875393152237 -0.0037144948728382587
			vertex 0.048320282250642776 0.09435693174600601 -0.001215719268657267
		endloop
	endfacet
	facet normal 0.0031375887227122145 0.9999701329482119 0.007063196765109198
		outer loop
			vertex 0.026225706562399864 0.10212723165750504 0.008722282014787197
			vertex -0.007424900773912668 0.10223207622766495 0.008827096782624722
			vertex -0.008027474395930767 0.10223252326250076 0.009031481109559536
		endloop
	endfacet
	facet normal 0.003137388348832936 0.9999702904981786 0.0070409456280539845
		outer loop
			vertex 0.026225706562399864 0.10212723165750504 0.008722282014787197
			vertex -0.008027474395930767 0.10223252326250076 0.009031481109559536
			vertex 0.02608948014676571 0.10212696343660355 0.008821076713502407
		endloop
	endfacet
	facet normal 0.0005406510924329437 0.7883682158950418 -0.6152034329088756
		outer loop
			vertex 0.048320282250642776 0.09435693174600601 -0.001215719268657267
			vertex 0.04577915742993355 0.09240875393152237 -0.0037144948728382587
			vertex -0.007424900773912668 0.10223207622766495 0.008827096782624722
		endloop
	endfacet
	facet normal 0.0005400598442044746 0.7883666273461255 -0.6152054691095162
		outer loop
			vertex 0.048320282250642776 0.09435693174600601 -0.001215719268657267
			vertex -0.007424900773912668 0.10223207622766495 0.008827096782624722
			vertex 0.026225706562399864 0.10212723165750504 0.008722282014787197
		endloop
	endfacet
	facet normal 0.0031437789337618234 0.999969973720339 0.00708295925162987
		outer loop
			vertex -0.0555555634200573 0.1022522822022438 0.02730647474527359
			vertex -0.05286217853426933 0.10226554423570633 0.02423868328332901
			vertex -0.0555555634200573 0.1022675409913063 0.025152243673801422
		endloop
	endfacet
	facet normal -0.5074005777737272 -0.7747754011288227 -0.3771839491290155
		outer loop
			vertex -0.012932340614497662 0.06471309810876846 0.03674162179231644
			vertex -0.0555555634200573 0.09262705594301224 0.03674162179231644
			vertex -0.0555555634200573 0.09676099568605423 0.0282500758767128
		endloop
	endfacet
	facet normal -0.507401031089111 -0.7747756869107745 -0.37718275228547343
		outer loop
			vertex -0.012932340614497662 0.06471309810876846 0.03674162179231644
			vertex -0.0555555634200573 0.09676099568605423 0.0282500758767128
			vertex -0.012391696684062481 0.06765852123498917 0.02996409684419632
		endloop
	endfacet
	facet normal -0.507399574936029 -0.7747765206909547 -0.3771829984778685
		outer loop
			vertex -0.012932340614497662 0.06471309810876846 0.03674162179231644
			vertex -0.012391696684062481 0.06765852123498917 0.02996409684419632
			vertex -0.006969282869249582 0.062252409756183624 0.033774442970752716
		endloop
	endfacet
	facet normal -0.23786372742376338 -0.7075722811785946 -0.6654038729101248
		outer loop
			vertex -0.006969282869249582 0.062252409756183624 0.033774442970752716
			vertex -0.012391696684062481 0.06765852123498917 0.02996409684419632
			vertex -0.010223369114100933 0.06758109480142593 0.029271312057971954
		endloop
	endfacet
	facet normal 0.003136841419272142 0.9999700386288001 0.007076868702097727
		outer loop
			vertex -0.008027474395930767 0.10223252326250076 0.009031481109559536
			vertex -0.05286217853426933 0.10226554423570633 0.02423868328332901
			vertex -0.0555555634200573 0.1022522822022438 0.02730647474527359
		endloop
	endfacet
	facet normal 0.003137399964966595 0.9999700265950705 0.007078321334464824
		outer loop
			vertex -0.008027474395930767 0.10223252326250076 0.009031481109559536
			vertex -0.0555555634200573 0.1022522822022438 0.02730647474527359
			vertex -0.0555555634200573 0.10218549519777298 0.03674162179231644
		endloop
	endfacet
	facet normal 0.003137319502630481 0.9999700278243874 0.007078183328551924
		outer loop
			vertex -0.008027474395930767 0.10223252326250076 0.009031481109559536
			vertex -0.0555555634200573 0.10218549519777298 0.03674162179231644
			vertex -0.012401561252772808 0.10205010324716568 0.03674162179231644
		endloop
	endfacet
	facet normal 0.0031376174727093696 0.999970026556613 0.007078230355225419
		outer loop
			vertex -0.008027474395930767 0.10223252326250076 0.009031481109559536
			vertex -0.012401561252772808 0.10205010324716568 0.03674162179231644
			vertex 0.02608948014676571 0.10212696343660355 0.008821076713502407
		endloop
	endfacet
	facet normal -0.5074005518329306 -0.7747738448226138 -0.37718718082461644
		outer loop
			vertex -0.012932340614497662 0.06471309810876846 0.03674162179231644
			vertex -0.006969282869249582 0.062252409756183624 0.033774442970752716
			vertex -0.0027467410545796156 0.058042533695697784 0.03674162179231644
		endloop
	endfacet
	facet normal -0.23787238903614671 -0.7075755919818685 -0.66539725590488
		outer loop
			vertex 0.055555541068315506 0.06523112207651138 0.008254951797425747
			vertex 0.055555541068315506 0.06218404322862625 0.011495179496705532
			vertex 0.002094258787110448 0.056415118277072906 0.03674162179231644
		endloop
	endfacet
	facet normal -0.23786961587405317 -0.7075801049999738 -0.6653934481584235
		outer loop
			vertex 0.055555541068315506 0.06523112207651138 0.008254951797425747
			vertex 0.002094258787110448 0.056415118277072906 0.03674162179231644
			vertex -0.0027467410545796156 0.058042533695697784 0.03674162179231644
		endloop
	endfacet
	facet normal -0.23787375546820405 -0.7075725410676179 -0.6654000117121786
		outer loop
			vertex 0.055555541068315506 0.06523112207651138 0.008254951797425747
			vertex -0.0027467410545796156 0.058042533695697784 0.03674162179231644
			vertex -0.006969282869249582 0.062252409756183624 0.033774442970752716
		endloop
	endfacet
	facet normal -0.23787321647172605 -0.7075738233873514 -0.6653988408033191
		outer loop
			vertex 0.055555541068315506 0.06523112207651138 0.008254951797425747
			vertex -0.006969282869249582 0.062252409756183624 0.033774442970752716
			vertex -0.010223369114100933 0.06758109480142593 0.029271312057971954
		endloop
	endfacet
	facet normal 1 0 0
		outer loop
			vertex 0.055555541068315506 0.06523112207651138 0.008254951797425747
			vertex 0.055555541068315506 0.09062380343675613 -0.006030373740941286
			vertex 0.055555541068315506 0.09182808548212051 -0.004482292104512453
		endloop
	endfacet
	facet normal 1 0 0
		outer loop
			vertex 0.055555541068315506 0.06523112207651138 0.008254951797425747
			vertex 0.055555541068315506 0.09182808548212051 -0.004482292104512453
			vertex 0.055555541068315506 0.0708983913064003 0.011825895868241787
		endloop
	endfacet
	facet normal 1 0 0
		outer loop
			vertex 0.055555541068315506 0.06523112207651138 0.008254951797425747
			vertex 0.055555541068315506 0.0708983913064003 0.011825895868241787
			vertex 0.055555541068315506 0.06218404322862625 0.011495179496705532
		endloop
	endfacet
	facet normal -0.0013440514761012647 0.7892930583149923 -0.6140151965720357
		outer loop
			vertex 0.055555541068315506 0.09990397840738297 0.005898959469050169
			vertex 0.055555541068315506 0.09182808548212051 -0.004482292104512453
			vertex 0.048320282250642776 0.09435693174600601 -0.001215719268657267
		endloop
	endfacet
	facet normal 0.0031373147300887477 0.999970107455897 0.0070669265544586355
		outer loop
			vertex 0.055555541068315506 0.10203579813241959 0.008639342151582241
			vertex 0.055555541068315506 0.10203585773706436 0.008630908094346523
			vertex 0.026225706562399864 0.10212723165750504 0.008722282014787197
		endloop
	endfacet
	facet normal 0.0031372412633789027 0.999970292387632 0.007040742819424933
		outer loop
			vertex 0.055555541068315506 0.10203579813241959 0.008639342151582241
			vertex 0.026225706562399864 0.10212723165750504 0.008722282014787197
			vertex 0.02608948014676571 0.10212696343660355 0.008821076713502407
		endloop
	endfacet
	facet normal 0.000534052711709745 0.7883679114132172 -0.6152038288580971
		outer loop
			vertex 0.055555541068315506 0.10203585773706436 0.008630908094346523
			vertex 0.055555541068315506 0.09990397840738297 0.005898959469050169
			vertex 0.048320282250642776 0.09435693174600601 -0.001215719268657267
		endloop
	endfacet
	facet normal 0.0005394602281634962 0.7883659815185327 -0.6152062972426265
		outer loop
			vertex 0.055555541068315506 0.10203585773706436 0.008630908094346523
			vertex 0.048320282250642776 0.09435693174600601 -0.001215719268657267
			vertex 0.026225706562399864 0.10212723165750504 0.008722282014787197
		endloop
	endfacet
	facet normal 1 0 0
		outer loop
			vertex 0.055555541068315506 0.10203579813241959 0.008639342151582241
			vertex 0.055555541068315506 0.09990397840738297 0.005898959469050169
			vertex 0.055555541068315506 0.10203585773706436 0.008630639873445034
		endloop
	endfacet
	facet normal 0.0031318348029884826 0.9999701338533069 0.007065621852772147
		outer loop
			vertex -0.005114028695970774 0.10202724486589432 0.03674162179231644
			vertex 0.055555541068315506 0.10202724486589432 0.00984985288232565
			vertex 0.055555541068315506 0.10203579813241959 0.008639342151582241
		endloop
	endfacet
	facet normal 0.0031374689143996107 0.99997003017353 0.0070777852157763695
		outer loop
			vertex -0.005114028695970774 0.10202724486589432 0.03674162179231644
			vertex 0.055555541068315506 0.10203579813241959 0.008639342151582241
			vertex 0.02608948014676571 0.10212696343660355 0.008821076713502407
		endloop
	endfacet
	facet normal 0.0031365481065077183 0.9999700403452282 0.007076756173441816
		outer loop
			vertex -0.005114028695970774 0.10202724486589432 0.03674162179231644
			vertex 0.02608948014676571 0.10212696343660355 0.008821076713502407
			vertex -0.012401561252772808 0.10205010324716568 0.03674162179231644
		endloop
	endfacet
	facet normal 0 1 0
		outer loop
			vertex 0.0057282946072518826 0.10202724486589432 0.03674162179231644
			vertex 0.055555541068315506 0.10202724486589432 0.01300725992769003
			vertex 0.055555541068315506 0.10202724486589432 0.00984985288232565
		endloop
	endfacet
	facet normal 0 1 0
		outer loop
			vertex 0.0057282946072518826 0.10202724486589432 0.03674162179231644
			vertex 0.055555541068315506 0.10202724486589432 0.00984985288232565
			vertex -0.005114028695970774 0.10202724486589432 0.03674162179231644
		endloop
	endfacet
	facet normal 1 0 0
		outer loop
			vertex 0.055555541068315506 0.10202724486589432 0.01300725992769003
			vertex 0.055555541068315506 0.10200489312410355 0.013006395660340786
			vertex 0.055555541068315506 0.10202724486589432 0.00984985288232565
		endloop
	endfacet
	facet normal 1 0 0
		outer loop
			vertex 0.055555541068315506 0.10200489312410355 0.013006395660340786
			vertex 0.055555541068315506 0.0708983913064003 0.011825895868241787
			vertex 0.055555541068315506 0.09182808548212051 -0.004482292104512453
		endloop
	endfacet
	facet normal 1 0 0
		outer loop
			vertex 0.055555541068315506 0.10200489312410355 0.013006395660340786
			vertex 0.055555541068315506 0.09182808548212051 -0.004482292104512453
			vertex 0.055555541068315506 0.10203579813241959 0.008639342151582241
		endloop
	endfacet
	facet normal -0.23787301201650707 -0.7075743984463515 -0.6653983023854798
		outer loop
			vertex 0.002094258787110448 0.056415118277072906 0.03674162179231644
			vertex 0.055555541068315506 0.06218404322862625 0.011495179496705532
			vertex 0.055555541068315506 0.0384424552321434 0.03674162179231644
		endloop
	endfacet
	facet normal 1 0 0
		outer loop
			vertex 0.055555541068315506 0.04204092174768448 0.03674162179231644
			vertex 0.055555541068315506 0.0384424552321434 0.03674162179231644
			vertex 0.055555541068315506 0.05522436648607254 0.018895991146564484
		endloop
	endfacet
	facet normal 1 0 0
		outer loop
			vertex 0.055555541068315506 0.063143290579319 0.03674162179231644
			vertex 0.055555541068315506 0.04204092174768448 0.03674162179231644
			vertex 0.055555541068315506 0.05522436648607254 0.018895991146564484
		endloop
	endfacet
	facet normal 1 0 0
		outer loop
			vertex 0.055555541068315506 0.063143290579319 0.03674162179231644
			vertex 0.055555541068315506 0.05522436648607254 0.018895991146564484
			vertex 0.055555541068315506 0.06218404322862625 0.011495179496705532
		endloop
	endfacet
	facet normal 1 0 0
		outer loop
			vertex 0.055555541068315506 0.063143290579319 0.03674162179231644
			vertex 0.055555541068315506 0.06218404322862625 0.011495179496705532
			vertex 0.055555541068315506 0.08113468438386917 0.012214369140565395
		endloop
	endfacet
	facet normal 1 0 0
		outer loop
			vertex 0.055555541068315506 0.08688465505838394 0.03674162179231644
			vertex 0.055555541068315506 0.063143290579319 0.03674162179231644
			vertex 0.055555541068315506 0.08113468438386917 0.012214369140565395
		endloop
	endfacet
	facet normal 1 0 0
		outer loop
			vertex 0.055555541068315506 0.08688465505838394 0.03674162179231644
			vertex 0.055555541068315506 0.08113468438386917 0.012214369140565395
			vertex 0.055555541068315506 0.0980343297123909 0.012855715118348598
		endloop
	endfacet
	facet normal 0 1 0
		outer loop
			vertex 0.02344970963895321 0.10202724486589432 0.03674162179231644
			vertex 0.01891394518315792 0.10202724486589432 0.030460841953754425
			vertex 0.0057282946072518826 0.10202724486589432 0.03674162179231644
		endloop
	endfacet
	facet normal 0 1 0
		outer loop
			vertex 0.052104491740465164 0.10202724486589432 0.03674162179231644
			vertex 0.055555541068315506 0.10202724486589432 0.03674162179231644
			vertex 0.055555541068315506 0.10202724486589432 0.01635003834962845
		endloop
	endfacet
	facet normal 0 1 0
		outer loop
			vertex 0.052104491740465164 0.10202724486589432 0.03674162179231644
			vertex 0.055555541068315506 0.10202724486589432 0.01635003834962845
			vertex 0.04965012148022652 0.10202724486589432 0.032828159630298615
		endloop
	endfacet
	facet normal 0 1 0
		outer loop
			vertex 0.04965012148022652 0.10202724486589432 0.032828159630298615
			vertex 0.055555541068315506 0.10202724486589432 0.01635003834962845
			vertex 0.055555541068315506 0.10202724486589432 0.01300725992769003
		endloop
	endfacet
	facet normal 0 1 0
		outer loop
			vertex 0.04965012148022652 0.10202724486589432 0.032828159630298615
			vertex 0.055555541068315506 0.10202724486589432 0.01300725992769003
			vertex 0.04143695905804634 0.10202724486589432 0.019732393324375153
		endloop
	endfacet
	facet normal 1 0 0
		outer loop
			vertex 0.055555541068315506 0.10202724486589432 0.03674162179231644
			vertex 0.055555541068315506 0.08688465505838394 0.03674162179231644
			vertex 0.055555541068315506 0.0980343297123909 0.012855715118348598
		endloop
	endfacet
	facet normal 1 0 0
		outer loop
			vertex 0.055555541068315506 0.10202724486589432 0.03674162179231644
			vertex 0.055555541068315506 0.0980343297123909 0.012855715118348598
			vertex 0.055555541068315506 0.10202724486589432 0.01300725992769003
		endloop
	endfacet
	facet normal 0 1 0
		outer loop
			vertex 0.052104491740465164 0.10202724486589432 0.03674162179231644
			vertex 0.04965012148022652 0.10202724486589432 0.032828159630298615
			vertex 0.04824759438633919 0.10202724486589432 0.03674162179231644
		endloop
	endfacet
	facet normal 0 1 0
		outer loop
			vertex 0.02344970963895321 0.10202724486589432 0.03674162179231644
			vertex 0.04824759438633919 0.10202724486589432 0.03674162179231644
			vertex 0.04965012148022652 0.10202724486589432 0.032828159630298615
		endloop
	endfacet
	facet normal 0 1 0
		outer loop
			vertex 0.02344970963895321 0.10202724486589432 0.03674162179231644
			vertex 0.04965012148022652 0.10202724486589432 0.032828159630298615
			vertex 0.04143695905804634 0.10202724486589432 0.019732393324375153
		endloop
	endfacet
	facet normal 0 1 0
		outer loop
			vertex 0.02344970963895321 0.10202724486589432 0.03674162179231644
			vertex 0.04143695905804634 0.10202724486589432 0.019732393324375153
			vertex 0.01891394518315792 0.10202724486589432 0.030460841953754425
		endloop
	endfacet
	facet normal -1 0 0
		outer loop
			vertex -0.0555555634200573 0.10098863393068314 0.025871701538562775
			vertex -0.0555555634200573 0.1022675409913063 0.025152243673801422
			vertex -0.0555555634200573 0.10228575021028519 0.022580452263355255
		endloop
	endfacet
	facet normal -1 0 0
		outer loop
			vertex -0.0555555634200573 0.10098863393068314 0.025871701538562775
			vertex -0.0555555634200573 0.10228575021028519 0.022580452263355255
			vertex -0.0555555634200573 0.10096234828233719 0.025072433054447174
		endloop
	endfacet
	facet normal -1 0 0
		outer loop
			vertex -0.0555555634200573 0.09676099568605423 0.0282500758767128
			vertex -0.0555555634200573 0.10098863393068314 0.025871701538562775
			vertex -0.0555555634200573 0.10079456120729446 0.019964732229709625
		endloop
	endfacet
	facet normal -1 0 0
		outer loop
			vertex -0.0555555634200573 0.10109419375658035 0.02908528596162796
			vertex -0.0555555634200573 0.1022522822022438 0.02730647474527359
			vertex -0.0555555634200573 0.1022675409913063 0.025152243673801422
		endloop
	endfacet
	facet normal -1 0 0
		outer loop
			vertex -0.0555555634200573 0.10109419375658035 0.02908528596162796
			vertex -0.0555555634200573 0.1022675409913063 0.025152243673801422
			vertex -0.0555555634200573 0.10098863393068314 0.025871701538562775
		endloop
	endfacet
	facet normal -1 0 0
		outer loop
			vertex -0.0555555634200573 0.0940747931599617 0.03376782685518265
			vertex -0.0555555634200573 0.09729356318712234 0.03492317348718643
			vertex -0.0555555634200573 0.10109419375658035 0.02908528596162796
		endloop
	endfacet
	facet normal -1 0 0
		outer loop
			vertex -0.0555555634200573 0.0940747931599617 0.03376782685518265
			vertex -0.0555555634200573 0.10109419375658035 0.02908528596162796
			vertex -0.0555555634200573 0.10098863393068314 0.025871701538562775
		endloop
	endfacet
	facet normal -1 0 0
		outer loop
			vertex -0.0555555634200573 0.0940747931599617 0.03376782685518265
			vertex -0.0555555634200573 0.10098863393068314 0.025871701538562775
			vertex -0.0555555634200573 0.09676099568605423 0.0282500758767128
		endloop
	endfacet
	facet normal -1 0 0
		outer loop
			vertex -0.0555555634200573 0.09262705594301224 0.03674162179231644
			vertex -0.0555555634200573 0.09610966593027115 0.03674162179231644
			vertex -0.0555555634200573 0.09729356318712234 0.03492317348718643
		endloop
	endfacet
	facet normal -1 0 0
		outer loop
			vertex -0.0555555634200573 0.09262705594301224 0.03674162179231644
			vertex -0.0555555634200573 0.09729356318712234 0.03492317348718643
			vertex -0.0555555634200573 0.0940747931599617 0.03376782685518265
		endloop
	endfacet
	facet normal -1 0 0
		outer loop
			vertex -0.0555555634200573 0.10202724486589432 0.03662235289812088
			vertex -0.0555555634200573 0.1021859422326088 0.036679305136203766
			vertex -0.0555555634200573 0.1022522822022438 0.02730647474527359
		endloop
	endfacet
	facet normal -1 0 0
		outer loop
			vertex -0.0555555634200573 0.10202724486589432 0.03662235289812088
			vertex -0.0555555634200573 0.1022522822022438 0.02730647474527359
			vertex -0.0555555634200573 0.10202724486589432 0.02765212208032608
		endloop
	endfacet
	facet normal -1 0 0
		outer loop
			vertex -0.0555555634200573 0.10202724486589432 0.03674162179231644
			vertex -0.0555555634200573 0.10218549519777298 0.03674162179231644
			vertex -0.0555555634200573 0.1021859422326088 0.036679305136203766
		endloop
	endfacet
	facet normal -1 0 0
		outer loop
			vertex -0.0555555634200573 0.10202724486589432 0.03674162179231644
			vertex -0.0555555634200573 0.1021859422326088 0.036679305136203766
			vertex -0.0555555634200573 0.10202724486589432 0.03662235289812088
		endloop
	endfacet
	facet normal -1 0 0
		outer loop
			vertex -0.0555555634200573 0.10133365541696548 0.036373354494571686
			vertex -0.0555555634200573 0.10202724486589432 0.03662235289812088
			vertex -0.0555555634200573 0.10202724486589432 0.02765212208032608
		endloop
	endfacet
	facet normal -1 0 0
		outer loop
			vertex -0.0555555634200573 0.10133365541696548 0.036373354494571686
			vertex -0.0555555634200573 0.10202724486589432 0.02765212208032608
			vertex -0.0555555634200573 0.10109419375658035 0.02908528596162796
		endloop
	endfacet
	facet normal -1 0 0
		outer loop
			vertex -0.0555555634200573 0.10134575515985489 0.03674162179231644
			vertex -0.0555555634200573 0.10202724486589432 0.03674162179231644
			vertex -0.0555555634200573 0.10202724486589432 0.03662235289812088
		endloop
	endfacet
	facet normal -1 0 0
		outer loop
			vertex -0.0555555634200573 0.10134575515985489 0.03674162179231644
			vertex -0.0555555634200573 0.10202724486589432 0.03662235289812088
			vertex -0.0555555634200573 0.10133365541696548 0.036373354494571686
		endloop
	endfacet
	facet normal -1 0 0
		outer loop
			vertex -0.0555555634200573 0.09729356318712234 0.03492317348718643
			vertex -0.0555555634200573 0.10133365541696548 0.036373354494571686
			vertex -0.0555555634200573 0.10109419375658035 0.02908528596162796
		endloop
	endfacet
	facet normal -1 0 0
		outer loop
			vertex -0.0555555634200573 0.09610966593027115 0.03674162179231644
			vertex -0.0555555634200573 0.10134575515985489 0.03674162179231644
			vertex -0.0555555634200573 0.10133365541696548 0.036373354494571686
		endloop
	endfacet
	facet normal -1 0 0
		outer loop
			vertex -0.0555555634200573 0.09610966593027115 0.03674162179231644
			vertex -0.0555555634200573 0.10133365541696548 0.036373354494571686
			vertex -0.0555555634200573 0.09729356318712234 0.03492317348718643
		endloop
	endfacet
	facet normal 0 0 1
		outer loop
			vertex -0.0555555634200573 0.09610966593027115 0.03674162179231644
			vertex -0.0555555634200573 0.09262705594301224 0.03674162179231644
			vertex -0.012932340614497662 0.06471309810876846 0.03674162179231644
		endloop
	endfacet
	facet normal 0 0 1
		outer loop
			vertex -0.0555555634200573 0.10218549519777298 0.03674162179231644
			vertex -0.0555555634200573 0.10202724486589432 0.03674162179231644
			vertex -0.01237697433680296 0.10202724486589432 0.03674162179231644
		endloop
	endfacet
	facet normal 0 0 1
		outer loop
			vertex -0.0555555634200573 0.10218549519777298 0.03674162179231644
			vertex -0.01237697433680296 0.10202724486589432 0.03674162179231644
			vertex -0.012401561252772808 0.10205010324716568 0.03674162179231644
		endloop
	endfacet
	facet normal 0 0 1
		outer loop
			vertex -0.0555555634200573 0.10202724486589432 0.03674162179231644
			vertex -0.0555555634200573 0.10134575515985489 0.03674162179231644
			vertex -0.014671544544398785 0.10202724486589432 0.03674162179231644
		endloop
	endfacet
	facet normal 0 0 1
		outer loop
			vertex -0.0555555634200573 0.10134575515985489 0.03674162179231644
			vertex -0.0555555634200573 0.09610966593027115 0.03674162179231644
			vertex -0.012932340614497662 0.06471309810876846 0.03674162179231644
		endloop
	endfacet
	facet normal 0 0 1
		outer loop
			vertex -0.0555555634200573 0.10134575515985489 0.03674162179231644
			vertex -0.012932340614497662 0.06471309810876846 0.03674162179231644
			vertex -0.0027467410545796156 0.058042533695697784 0.03674162179231644
		endloop
	endfacet
	facet normal 0 0 1
		outer loop
			vertex -0.0555555634200573 0.10134575515985489 0.03674162179231644
			vertex -0.0027467410545796156 0.058042533695697784 0.03674162179231644
			vertex 0.002094258787110448 0.056415118277072906 0.03674162179231644
		endloop
	endfacet
	facet normal 0 0 1
		outer loop
			vertex -0.0555555634200573 0.10134575515985489 0.03674162179231644
			vertex 0.002094258787110448 0.056415118277072906 0.03674162179231644
			vertex 0.004471471067517996 0.08625269681215286 0.03674162179231644
		endloop
	endfacet
	facet normal 0 0 1
		outer loop
			vertex -0.0555555634200573 0.10134575515985489 0.03674162179231644
			vertex 0.004471471067517996 0.08625269681215286 0.03674162179231644
			vertex -0.029839644208550453 0.10177440196275711 0.03674162179231644
		endloop
	endfacet
	facet normal 0 0 1
		outer loop
			vertex 0.004471471067517996 0.08625269681215286 0.03674162179231644
			vertex 0.004480620380491018 0.08636752516031265 0.03674162179231644
			vertex -0.01237697433680296 0.10202724486589432 0.03674162179231644
		endloop
	endfacet
	facet normal 0 0 1
		outer loop
			vertex 0.004471471067517996 0.08625269681215286 0.03674162179231644
			vertex -0.01237697433680296 0.10202724486589432 0.03674162179231644
			vertex -0.014671544544398785 0.10202724486589432 0.03674162179231644
		endloop
	endfacet
	facet normal 0 0 1
		outer loop
			vertex 0.004471471067517996 0.08625269681215286 0.03674162179231644
			vertex -0.014671544544398785 0.10202724486589432 0.03674162179231644
			vertex -0.029839644208550453 0.10177440196275711 0.03674162179231644
		endloop
	endfacet
	facet normal 0 0 1
		outer loop
			vertex 0.005725582595914602 0.10199321061372757 0.03674162179231644
			vertex 0.0057282946072518826 0.10202724486589432 0.03674162179231644
			vertex -0.005114028695970774 0.10202724486589432 0.03674162179231644
		endloop
	endfacet
	facet normal 0 0 1
		outer loop
			vertex 0.004480620380491018 0.08636752516031265 0.03674162179231644
			vertex 0.005725582595914602 0.10199321061372757 0.03674162179231644
			vertex -0.012401561252772808 0.10205010324716568 0.03674162179231644
		endloop
	endfacet
	facet normal 0 0 1
		outer loop
			vertex 0.055555541068315506 0.0384424552321434 0.03674162179231644
			vertex 0.055555541068315506 0.04204092174768448 0.03674162179231644
			vertex 0.03382169082760811 0.04574895650148392 0.03674162179231644
		endloop
	endfacet
	facet normal 0 0 1
		outer loop
			vertex 0.0262176301330328 0.04830528050661087 0.03674162179231644
			vertex 0.038466740399599075 0.07087392359972 0.03674162179231644
			vertex 0.004471471067517996 0.08625269681215286 0.03674162179231644
		endloop
	endfacet
	facet normal 0 0 1
		outer loop
			vertex 0.0262176301330328 0.04830528050661087 0.03674162179231644
			vertex 0.004471471067517996 0.08625269681215286 0.03674162179231644
			vertex 0.002094258787110448 0.056415118277072906 0.03674162179231644
		endloop
	endfacet
	facet normal 0 0 1
		outer loop
			vertex 0.055555541068315506 0.04204092174768448 0.03674162179231644
			vertex 0.055555541068315506 0.063143290579319 0.03674162179231644
			vertex 0.038466740399599075 0.07087392359972 0.03674162179231644
		endloop
	endfacet
	facet normal 0 0 1
		outer loop
			vertex 0.055555541068315506 0.04204092174768448 0.03674162179231644
			vertex 0.038466740399599075 0.07087392359972 0.03674162179231644
			vertex 0.0262176301330328 0.04830528050661087 0.03674162179231644
		endloop
	endfacet
	facet normal 0 0 1
		outer loop
			vertex 0.055555541068315506 0.04204092174768448 0.03674162179231644
			vertex 0.0262176301330328 0.04830528050661087 0.03674162179231644
			vertex 0.03382169082760811 0.04574895650148392 0.03674162179231644
		endloop
	endfacet
	facet normal 0 0 1
		outer loop
			vertex 0.038466740399599075 0.07087392359972 0.03674162179231644
			vertex 0.0482054241001606 0.08881721645593643 0.03674162179231644
			vertex 0.01915656588971615 0.09645501524209976 0.03674162179231644
		endloop
	endfacet
	facet normal 0 0 1
		outer loop
			vertex 0.038466740399599075 0.07087392359972 0.03674162179231644
			vertex 0.01915656588971615 0.09645501524209976 0.03674162179231644
			vertex 0.004695048090070486 0.08905858546495438 0.03674162179231644
		endloop
	endfacet
	facet normal 0 0 1
		outer loop
			vertex 0.038466740399599075 0.07087392359972 0.03674162179231644
			vertex 0.004695048090070486 0.08905858546495438 0.03674162179231644
			vertex 0.004471471067517996 0.08625269681215286 0.03674162179231644
		endloop
	endfacet
	facet normal 0 0 1
		outer loop
			vertex 0.055555541068315506 0.063143290579319 0.03674162179231644
			vertex 0.055555541068315506 0.08688465505838394 0.03674162179231644
			vertex 0.0482054241001606 0.08881721645593643 0.03674162179231644
		endloop
	endfacet
	facet normal 0 0 1
		outer loop
			vertex 0.055555541068315506 0.063143290579319 0.03674162179231644
			vertex 0.0482054241001606 0.08881721645593643 0.03674162179231644
			vertex 0.038466740399599075 0.07087392359972 0.03674162179231644
		endloop
	endfacet
	facet normal 0 0 1
		outer loop
			vertex 0.01915656588971615 0.09645501524209976 0.03674162179231644
			vertex 0.005568971391767263 0.10002756863832474 0.03674162179231644
			vertex 0.004695048090070486 0.08905858546495438 0.03674162179231644
		endloop
	endfacet
	facet normal 0 0 1
		outer loop
			vertex 0.0057282946072518826 0.10202724486589432 0.03674162179231644
			vertex 0.005568971391767263 0.10002756863832474 0.03674162179231644
			vertex 0.023741593584418297 0.09524945169687271 0.03674162179231644
		endloop
	endfacet
	facet normal 0 0 1
		outer loop
			vertex 0.0057282946072518826 0.10202724486589432 0.03674162179231644
			vertex 0.023741593584418297 0.09524945169687271 0.03674162179231644
			vertex 0.02344970963895321 0.10202724486589432 0.03674162179231644
		endloop
	endfacet
	facet normal 0 0 1
		outer loop
			vertex 0.052155751734972 0.09609553962945938 0.03674162179231644
			vertex 0.055375177413225174 0.10202724486589432 0.03674162179231644
			vertex 0.052104491740465164 0.10202724486589432 0.03674162179231644
		endloop
	endfacet
	facet normal 0 0 1
		outer loop
			vertex 0.055555541068315506 0.08688465505838394 0.03674162179231644
			vertex 0.055555541068315506 0.10202724486589432 0.03674162179231644
			vertex 0.055375177413225174 0.10202724486589432 0.03674162179231644
		endloop
	endfacet
	facet normal 0 0 1
		outer loop
			vertex 0.055555541068315506 0.08688465505838394 0.03674162179231644
			vertex 0.055375177413225174 0.10202724486589432 0.03674162179231644
			vertex 0.052155751734972 0.09609553962945938 0.03674162179231644
		endloop
	endfacet
	facet normal 0 0 1
		outer loop
			vertex 0.055555541068315506 0.08688465505838394 0.03674162179231644
			vertex 0.052155751734972 0.09609553962945938 0.03674162179231644
			vertex 0.05222778394818306 0.08775962144136429 0.03674162179231644
		endloop
	endfacet
	facet normal 0 0 1
		outer loop
			vertex 0.0482054241001606 0.08881721645593643 0.03674162179231644
			vertex 0.052155751734972 0.09609553962945938 0.03674162179231644
			vertex 0.052104491740465164 0.10202724486589432 0.03674162179231644
		endloop
	endfacet
	facet normal 0 0 1
		outer loop
			vertex 0.0482054241001606 0.08881721645593643 0.03674162179231644
			vertex 0.052104491740465164 0.10202724486589432 0.03674162179231644
			vertex 0.02344970963895321 0.10202724486589432 0.03674162179231644
		endloop
	endfacet
	facet normal 0 0 1
		outer loop
			vertex 0.0482054241001606 0.08881721645593643 0.03674162179231644
			vertex 0.02344970963895321 0.10202724486589432 0.03674162179231644
			vertex 0.023741593584418297 0.09524945169687271 0.03674162179231644
		endloop
	endfacet
	facet normal 0 0 1
		outer loop
			vertex 0.052155751734972 0.09609553962945938 0.03674162179231644
			vertex 0.0482054241001606 0.08881721645593643 0.03674162179231644
			vertex 0.05222778394818306 0.08775962144136429 0.03674162179231644
		endloop
	endfacet
endsolid exported
