solid exported
	facet normal -0.5074006831015517 -0.7747755619591628 -0.3771834770757361
		outer loop
			vertex -0.012932340614497662 0.06471309810876846 -0.03674163296818733
			vertex -0.0555555634200573 0.08230183273553848 -0.015532510355114937
			vertex -0.0555555634200573 0.09262705594301224 -0.03674163296818733
		endloop
	endfacet
	facet normal 0 1 0
		outer loop
			vertex -0.0555555634200573 0.10202724486589432 -0.014383422210812569
			vertex -0.0555555634200573 0.10202724486589432 -0.007550092879682779
			vertex -0.04722348973155022 0.10202724486589432 -0.011518942192196846
		endloop
	endfacet
	facet normal 0 1 0
		outer loop
			vertex -0.0555555634200573 0.10202724486589432 -0.014383422210812569
			vertex -0.04722348973155022 0.10202724486589432 -0.011518942192196846
			vertex -0.023850956931710243 0.10202724486589432 -0.02843649871647358
		endloop
	endfacet
	facet normal 0.003137210152573992 0.9999700313096191 0.007077739405925705
		outer loop
			vertex -0.0555555634200573 0.10218549519777298 -0.03674163296818733
			vertex -0.0555555634200573 0.10202724486589432 -0.014383422210812569
			vertex -0.023850956931710243 0.10202724486589432 -0.02843649871647358
		endloop
	endfacet
	facet normal 0.003137319521758674 0.9999700339211907 0.00707732194203227
		outer loop
			vertex -0.0555555634200573 0.10218549519777298 -0.03674163296818733
			vertex -0.023850956931710243 0.10202724486589432 -0.02843649871647358
			vertex -0.012401561252772808 0.10205010324716568 -0.03674163296818733
		endloop
	endfacet
	facet normal -0.5074007568068123 -0.7747753600711103 -0.37718379262443874
		outer loop
			vertex -0.0555555634200573 0.07884407788515091 -0.008429916575551033
			vertex -0.0555555634200573 0.08230183273553848 -0.015532510355114937
			vertex -0.012932340614497662 0.06471309810876846 -0.03674163296818733
		endloop
	endfacet
	facet normal -0.5074011145982852 -0.7747747041355885 -0.3771846586700336
		outer loop
			vertex -0.0555555634200573 0.07884407788515091 -0.008429916575551033
			vertex -0.012932340614497662 0.06471309810876846 -0.03674163296818733
			vertex -0.0027467410545796156 0.058042533695697784 -0.03674163296818733
		endloop
	endfacet
	facet normal -0.507400309373633 -0.7747766635256209 -0.37718171708560927
		outer loop
			vertex -0.0555555634200573 0.07884407788515091 -0.008429916575551033
			vertex -0.0027467410545796156 0.058042533695697784 -0.03674163296818733
			vertex -0.0008010367746464908 0.05610267072916031 -0.03537436202168465
		endloop
	endfacet
	facet normal -0.23786829825815659 -0.7075761855469113 -0.6653980871107548
		outer loop
			vertex 0.002094258787110448 0.056415118277072906 -0.03674163296818733
			vertex -0.0008010367746464908 0.05610267072916031 -0.03537436202168465
			vertex -0.0027467410545796156 0.058042533695697784 -0.03674163296818733
		endloop
	endfacet
	facet normal 0.003136548117554149 0.9999700438669659 0.007076258517365792
		outer loop
			vertex -0.005114028695970774 0.10202724486589432 -0.03674163296818733
			vertex -0.012401561252772808 0.10205010324716568 -0.03674163296818733
			vertex -0.023850956931710243 0.10202724486589432 -0.02843649871647358
		endloop
	endfacet
	facet normal 0 1 0
		outer loop
			vertex -0.04722348973155022 0.10202724486589432 -0.011518942192196846
			vertex 0.0057282946072518826 0.10202724486589432 -0.03674163296818733
			vertex -0.005114028695970774 0.10202724486589432 -0.03674163296818733
		endloop
	endfacet
	facet normal 0 1 0
		outer loop
			vertex -0.04722348973155022 0.10202724486589432 -0.011518942192196846
			vertex -0.005114028695970774 0.10202724486589432 -0.03674163296818733
			vertex -0.023850956931710243 0.10202724486589432 -0.02843649871647358
		endloop
	endfacet
	facet normal -0.545146857674683 -0.8258221711010482 -0.14433518380966626
		outer loop
			vertex 0.0479954369366169 -0.002863472793251276 0.036741625517606735
			vertex 0.055555541068315506 -0.006089112255722284 0.026643170043826103
			vertex 0.055555541068315506 -0.007854095660150051 0.036741625517606735
		endloop
	endfacet
	facet normal 1 0 0
		outer loop
			vertex 0.055555541068315506 -0.005594498012214899 0.036741625517606735
			vertex 0.055555541068315506 -0.007854095660150051 0.036741625517606735
			vertex 0.055555541068315506 -0.006089112255722284 0.026643170043826103
		endloop
	endfacet
	facet normal -0.5074009544864063 -0.7747751146952394 -0.3771840307267296
		outer loop
			vertex 0.055555541068315506 -0.00008467448787996545 0.004227546509355307
			vertex 0.055555541068315506 -0.003340131137520075 0.010914592072367668
			vertex 0.04121561720967293 0.0061680166982114315 0.010674430057406425
		endloop
	endfacet
	facet normal -0.5074008301553176 -0.7747755240248019 -0.3771833571749802
		outer loop
			vertex 0.055555541068315506 -0.00008467448787996545 0.004227546509355307
			vertex 0.04121561720967293 0.0061680166982114315 0.010674430057406425
			vertex 0.05330975726246834 0.0021543591283261776 0.0026494390331208706
		endloop
	endfacet
	facet normal -0.5451474576711397 -0.8258218981989188 -0.14433447907491664
		outer loop
			vertex 0.025819679722189903 0.011775352992117405 0.036741625517606735
			vertex 0.04121561720967293 0.0061680166982114315 0.010674430057406425
			vertex 0.055555541068315506 -0.003340131137520075 0.010914592072367668
		endloop
	endfacet
	facet normal -0.5451472107760887 -0.825822135095225 -0.14433405616767947
		outer loop
			vertex 0.025819679722189903 0.011775352992117405 0.036741625517606735
			vertex 0.055555541068315506 -0.003340131137520075 0.010914592072367668
			vertex 0.055555541068315506 -0.006089112255722284 0.026643170043826103
		endloop
	endfacet
	facet normal -0.5451475118818035 -0.8258216230445675 -0.14433584863475601
		outer loop
			vertex 0.025819679722189903 0.011775352992117405 0.036741625517606735
			vertex 0.055555541068315506 -0.006089112255722284 0.026643170043826103
			vertex 0.0479954369366169 -0.002863472793251276 0.036741625517606735
		endloop
	endfacet
	facet normal -0.23786715720824259 -0.7075715096587416 -0.6654034672594656
		outer loop
			vertex 0.055555541068315506 0.0014540641568601131 0.002591294702142477
			vertex 0.055555541068315506 -0.00008467448787996545 0.004227546509355307
			vertex 0.05330975726246834 0.0021543591283261776 0.0026494390331208706
		endloop
	endfacet
	facet normal 1 0 0
		outer loop
			vertex 0.055555541068315506 0.0025267689488828182 0.036741625517606735
			vertex 0.055555541068315506 -0.005594498012214899 0.036741625517606735
			vertex 0.055555541068315506 -0.006089112255722284 0.026643170043826103
		endloop
	endfacet
	facet normal 1 0 0
		outer loop
			vertex 0.055555541068315506 0.0025267689488828182 0.036741625517606735
			vertex 0.055555541068315506 -0.006089112255722284 0.026643170043826103
			vertex 0.055555541068315506 -0.003340131137520075 0.010914592072367668
		endloop
	endfacet
	facet normal 1 0 0
		outer loop
			vertex 0.055555541068315506 0.0025267689488828182 0.036741625517606735
			vertex 0.055555541068315506 -0.003340131137520075 0.010914592072367668
			vertex 0.055555541068315506 -0.00008467448787996545 0.004227546509355307
		endloop
	endfacet
	facet normal 1 0 0
		outer loop
			vertex 0.055555541068315506 0.0025267689488828182 0.036741625517606735
			vertex 0.055555541068315506 -0.00008467448787996545 0.004227546509355307
			vertex 0.055555541068315506 0.0014540641568601131 0.002591294702142477
		endloop
	endfacet
	facet normal -0.5074014031820794 -0.7747761672201481 -0.3771812651186617
		outer loop
			vertex 0.04121561720967293 0.0061680166982114315 0.010674430057406425
			vertex -0.0555555634200573 0.07033256441354752 0.00905364565551281
			vertex -0.0555555634200573 0.07229042798280716 0.005031955894082785
		endloop
	endfacet
	facet normal -0.507400564066035 -0.774775204276179 -0.3771843719247591
		outer loop
			vertex 0.04121561720967293 0.0061680166982114315 0.010674430057406425
			vertex -0.0555555634200573 0.07229042798280716 0.005031955894082785
			vertex -0.0410010926425457 0.07279912382364273 -0.015592100098729134
		endloop
	endfacet
	facet normal -0.5074009171033583 -0.7747753415327429 -0.37718361506763887
		outer loop
			vertex 0.04121561720967293 0.0061680166982114315 0.010674430057406425
			vertex -0.0410010926425457 0.07279912382364273 -0.015592100098729134
			vertex -0.0008010367746464908 0.05610267072916031 -0.03537436202168465
		endloop
	endfacet
	facet normal -0.5074009305924656 -0.7747753396725947 -0.3771836007425505
		outer loop
			vertex 0.04121561720967293 0.0061680166982114315 0.010674430057406425
			vertex -0.0008010367746464908 0.05610267072916031 -0.03537436202168465
			vertex 0.05330975726246834 0.0021543591283261776 0.0026494390331208706
		endloop
	endfacet
	facet normal -0.34268136421754336 -0.7575081601138387 -0.5556535521158401
		outer loop
			vertex -0.0555555634200573 0.059505827724933624 0.036741625517606735
			vertex -0.0555555634200573 0.06736622005701065 0.02602575533092022
			vertex -0.026734361425042152 0.046467699110507965 0.036741625517606735
		endloop
	endfacet
	facet normal -0.5451473933514575 -0.8258219492156896 -0.14433443011184352
		outer loop
			vertex -0.0555555634200573 0.07033256441354752 0.00905364565551281
			vertex 0.04121561720967293 0.0061680166982114315 0.010674430057406425
			vertex 0.025819679722189903 0.011775352992117405 0.036741625517606735
		endloop
	endfacet
	facet normal -0.5451474351697904 -0.8258219447439981 -0.14433429775019008
		outer loop
			vertex -0.0555555634200573 0.07033256441354752 0.00905364565551281
			vertex 0.025819679722189903 0.011775352992117405 0.036741625517606735
			vertex -0.026734361425042152 0.046467699110507965 0.036741625517606735
		endloop
	endfacet
	facet normal -0.5451467807192866 -0.8258222167270878 -0.14433521341431924
		outer loop
			vertex -0.0555555634200573 0.07033256441354752 0.00905364565551281
			vertex -0.026734361425042152 0.046467699110507965 0.036741625517606735
			vertex -0.0555555634200573 0.06736622005701065 0.02602575533092022
		endloop
	endfacet
	facet normal -0.2378731115534414 -0.707574694527802 -0.6653979519533945
		outer loop
			vertex 0.002094258787110448 0.056415118277072906 -0.03674163296818733
			vertex 0.055555541068315506 0.0384424552321434 -0.03674163296818733
			vertex 0.055555541068315506 0.0014540641568601131 0.002591294702142477
		endloop
	endfacet
	facet normal -0.23786739932308149 -0.707572369172288 -0.6654024667246049
		outer loop
			vertex 0.002094258787110448 0.056415118277072906 -0.03674163296818733
			vertex 0.055555541068315506 0.0014540641568601131 0.002591294702142477
			vertex 0.05330975726246834 0.0021543591283261776 0.0026494390331208706
		endloop
	endfacet
	facet normal -0.23786980526788654 -0.7075732983842863 -0.6654006185414916
		outer loop
			vertex 0.002094258787110448 0.056415118277072906 -0.03674163296818733
			vertex 0.05330975726246834 0.0021543591283261776 0.0026494390331208706
			vertex -0.0008010367746464908 0.05610267072916031 -0.03537436202168465
		endloop
	endfacet
	facet normal 1 0 0
		outer loop
			vertex 0.055555541068315506 0.0019243001006543636 0.0175617765635252
			vertex 0.055555541068315506 0.0014540641568601131 0.002591294702142477
			vertex 0.055555541068315506 0.005873495247215033 -0.0021082782186567783
		endloop
	endfacet
	facet normal 1 0 0
		outer loop
			vertex 0.055555541068315506 0.0019243001006543636 0.0175617765635252
			vertex 0.055555541068315506 0.005873495247215033 -0.0021082782186567783
			vertex 0.055555541068315506 0.02027418650686741 -0.007277342025190592
		endloop
	endfacet
	facet normal 1 0 0
		outer loop
			vertex 0.055555541068315506 0.0384424552321434 -0.03674163296818733
			vertex 0.055555541068315506 0.04204092174768448 -0.03674163296818733
			vertex 0.055555541068315506 0.02027418650686741 -0.007277342025190592
		endloop
	endfacet
	facet normal 1 0 0
		outer loop
			vertex 0.055555541068315506 0.0384424552321434 -0.03674163296818733
			vertex 0.055555541068315506 0.02027418650686741 -0.007277342025190592
			vertex 0.055555541068315506 0.005873495247215033 -0.0021082782186567783
		endloop
	endfacet
	facet normal 1 0 0
		outer loop
			vertex 0.055555541068315506 0.009241350926458836 0.036741625517606735
			vertex 0.055555541068315506 0.0025267689488828182 0.036741625517606735
			vertex 0.055555541068315506 0.0019243001006543636 0.0175617765635252
		endloop
	endfacet
	facet normal 1 0 0
		outer loop
			vertex 0.055555541068315506 0.009241350926458836 0.036741625517606735
			vertex 0.055555541068315506 0.0019243001006543636 0.0175617765635252
			vertex 0.055555541068315506 0.02027418650686741 -0.007277342025190592
		endloop
	endfacet
	facet normal 1 0 0
		outer loop
			vertex 0.055555541068315506 0.009241350926458836 0.036741625517606735
			vertex 0.055555541068315506 0.02027418650686741 -0.007277342025190592
			vertex 0.055555541068315506 0.04912740737199783 -0.01763412542641163
		endloop
	endfacet
	facet normal 1 0 0
		outer loop
			vertex 0.055555541068315506 0.04204092174768448 -0.03674163296818733
			vertex 0.055555541068315506 0.063143290579319 -0.03674163296818733
			vertex 0.055555541068315506 0.04912740737199783 -0.01763412542641163
		endloop
	endfacet
	facet normal 1 0 0
		outer loop
			vertex 0.055555541068315506 0.04204092174768448 -0.03674163296818733
			vertex 0.055555541068315506 0.04912740737199783 -0.01763412542641163
			vertex 0.055555541068315506 0.02027418650686741 -0.007277342025190592
		endloop
	endfacet
	facet normal 1 0 0
		outer loop
			vertex 0.055555541068315506 0.05258358269929886 0.036741625517606735
			vertex 0.055555541068315506 0.009241350926458836 0.036741625517606735
			vertex 0.055555541068315506 0.04912740737199783 -0.01763412542641163
		endloop
	endfacet
	facet normal 1 0 0
		outer loop
			vertex 0.055555541068315506 0.05258358269929886 0.036741625517606735
			vertex 0.055555541068315506 0.04912740737199783 -0.01763412542641163
			vertex 0.055555541068315506 0.08376992493867874 -0.03006892092525959
		endloop
	endfacet
	facet normal 1 0 0
		outer loop
			vertex 0.055555541068315506 0.063143290579319 -0.03674163296818733
			vertex 0.055555541068315506 0.08688465505838394 -0.03674163296818733
			vertex 0.055555541068315506 0.08376992493867874 -0.03006892092525959
		endloop
	endfacet
	facet normal 1 0 0
		outer loop
			vertex 0.055555541068315506 0.063143290579319 -0.03674163296818733
			vertex 0.055555541068315506 0.08376992493867874 -0.03006892092525959
			vertex 0.055555541068315506 0.04912740737199783 -0.01763412542641163
		endloop
	endfacet
	facet normal 0 1 0
		outer loop
			vertex -0.0555555634200573 0.10202724486589432 -0.007550092879682779
			vertex -0.0555555634200573 0.10202724486589432 -0.006595777813345194
			vertex -0.044578682631254196 0.10202724486589432 -0.012778760865330696
		endloop
	endfacet
	facet normal -0.507400406086538 -0.7747753601405388 -0.37718426428247864
		outer loop
			vertex -0.0555555634200573 0.07229042798280716 0.005031955894082785
			vertex -0.0555555634200573 0.07884407788515091 -0.008429916575551033
			vertex -0.0410010926425457 0.07279912382364273 -0.015592100098729134
		endloop
	endfacet
	facet normal 0 1 0
		outer loop
			vertex 0.052580732852220535 0.10202724486589432 0.036741625517606735
			vertex 0.05431859567761421 0.10202724486589432 0.0060030496679246426
			vertex 0.04002298787236214 0.10202724486589432 -0.013792337849736214
		endloop
	endfacet
	facet normal 0 1 0
		outer loop
			vertex 0.052580732852220535 0.10202724486589432 0.036741625517606735
			vertex 0.04002298787236214 0.10202724486589432 -0.013792337849736214
			vertex 0.021912535652518272 0.10202724486589432 0.036741625517606735
		endloop
	endfacet
	facet normal 0 1 0
		outer loop
			vertex 0.055555541068315506 0.10202724486589432 0.036741625517606735
			vertex 0.055555541068315506 0.10202724486589432 0.007715878542512655
			vertex 0.05431859567761421 0.10202724486589432 0.0060030496679246426
		endloop
	endfacet
	facet normal 0 1 0
		outer loop
			vertex 0.055555541068315506 0.10202724486589432 0.036741625517606735
			vertex 0.05431859567761421 0.10202724486589432 0.0060030496679246426
			vertex 0.052580732852220535 0.10202724486589432 0.036741625517606735
		endloop
	endfacet
	facet normal 0 1 0
		outer loop
			vertex -0.0555555634200573 0.10202724486589432 -0.006595777813345194
			vertex -0.0555555634200573 0.10202724486589432 0.036741625517606735
			vertex 0.021912535652518272 0.10202724486589432 0.036741625517606735
		endloop
	endfacet
	facet normal 0 1 0
		outer loop
			vertex -0.0555555634200573 0.10202724486589432 -0.006595777813345194
			vertex 0.021912535652518272 0.10202724486589432 0.036741625517606735
			vertex 0.04002298787236214 0.10202724486589432 -0.013792337849736214
		endloop
	endfacet
	facet normal 0 1 0
		outer loop
			vertex -0.0555555634200573 0.10202724486589432 -0.006595777813345194
			vertex 0.04002298787236214 0.10202724486589432 -0.013792337849736214
			vertex 0.02344970963895321 0.10202724486589432 -0.03674163296818733
		endloop
	endfacet
	facet normal 0 1 0
		outer loop
			vertex -0.0555555634200573 0.10202724486589432 -0.006595777813345194
			vertex 0.02344970963895321 0.10202724486589432 -0.03674163296818733
			vertex 0.0057282946072518826 0.10202724486589432 -0.03674163296818733
		endloop
	endfacet
	facet normal 0 1 0
		outer loop
			vertex -0.0555555634200573 0.10202724486589432 -0.006595777813345194
			vertex 0.0057282946072518826 0.10202724486589432 -0.03674163296818733
			vertex -0.044578682631254196 0.10202724486589432 -0.012778760865330696
		endloop
	endfacet
	facet normal 1 0 0
		outer loop
			vertex 0.055555541068315506 0.10202724486589432 0.036741625517606735
			vertex 0.055555541068315506 0.05258358269929886 0.036741625517606735
			vertex 0.055555541068315506 0.06710443645715714 0.005633530672639608
		endloop
	endfacet
	facet normal 1 0 0
		outer loop
			vertex 0.055555541068315506 0.10202724486589432 0.036741625517606735
			vertex 0.055555541068315506 0.06710443645715714 0.005633530672639608
			vertex 0.055555541068315506 0.10202724486589432 0.007715878542512655
		endloop
	endfacet
	facet normal 0 1 0
		outer loop
			vertex 0.052104491740465164 0.10202724486589432 -0.03674163296818733
			vertex 0.055555541068315506 0.10202724486589432 -0.031238960102200508
			vertex 0.055555541068315506 0.10202724486589432 -0.03674163296818733
		endloop
	endfacet
	facet normal 1 0 0
		outer loop
			vertex 0.055555541068315506 0.08758396655321121 -0.0314379520714283
			vertex 0.055555541068315506 0.10202724486589432 -0.03662233427166939
			vertex 0.055555541068315506 0.10202724486589432 -0.031238960102200508
		endloop
	endfacet
	facet normal 1 0 0
		outer loop
			vertex 0.055555541068315506 0.08688465505838394 -0.03674163296818733
			vertex 0.055555541068315506 0.10202724486589432 -0.03674163296818733
			vertex 0.055555541068315506 0.10202724486589432 -0.03662233427166939
		endloop
	endfacet
	facet normal 1 0 0
		outer loop
			vertex 0.055555541068315506 0.08688465505838394 -0.03674163296818733
			vertex 0.055555541068315506 0.10202724486589432 -0.03662233427166939
			vertex 0.055555541068315506 0.08758396655321121 -0.0314379520714283
		endloop
	endfacet
	facet normal 1 0 0
		outer loop
			vertex 0.055555541068315506 0.08688465505838394 -0.03674163296818733
			vertex 0.055555541068315506 0.08758396655321121 -0.0314379520714283
			vertex 0.055555541068315506 0.08442927151918411 -0.031481433659791946
		endloop
	endfacet
	facet normal 0 1 0
		outer loop
			vertex 0.05431859567761421 0.10202724486589432 0.0060030496679246426
			vertex 0.055555541068315506 0.10202724486589432 -0.01587568409740925
			vertex 0.055555541068315506 0.10202724486589432 -0.031238960102200508
		endloop
	endfacet
	facet normal 0 1 0
		outer loop
			vertex 0.05431859567761421 0.10202724486589432 0.0060030496679246426
			vertex 0.055555541068315506 0.10202724486589432 -0.031238960102200508
			vertex 0.052104491740465164 0.10202724486589432 -0.03674163296818733
		endloop
	endfacet
	facet normal 0 1 0
		outer loop
			vertex 0.05431859567761421 0.10202724486589432 0.0060030496679246426
			vertex 0.052104491740465164 0.10202724486589432 -0.03674163296818733
			vertex 0.04824759438633919 0.10202724486589432 -0.03674163296818733
		endloop
	endfacet
	facet normal 0 1 0
		outer loop
			vertex 0.05431859567761421 0.10202724486589432 0.0060030496679246426
			vertex 0.04824759438633919 0.10202724486589432 -0.03674163296818733
			vertex 0.04002298787236214 0.10202724486589432 -0.013792337849736214
		endloop
	endfacet
	facet normal 0 1 0
		outer loop
			vertex 0.055555541068315506 0.10202724486589432 0.007715878542512655
			vertex 0.055555541068315506 0.10202724486589432 -0.01587568409740925
			vertex 0.05431859567761421 0.10202724486589432 0.0060030496679246426
		endloop
	endfacet
	facet normal 0 1 0
		outer loop
			vertex 0.02344970963895321 0.10202724486589432 -0.03674163296818733
			vertex 0.04002298787236214 0.10202724486589432 -0.013792337849736214
			vertex 0.04824759438633919 0.10202724486589432 -0.03674163296818733
		endloop
	endfacet
	facet normal 1 0 0
		outer loop
			vertex 0.055555541068315506 0.06710443645715714 0.005633530672639608
			vertex 0.055555541068315506 0.08376992493867874 -0.03006892092525959
			vertex 0.055555541068315506 0.08758396655321121 -0.0314379520714283
		endloop
	endfacet
	facet normal 1 0 0
		outer loop
			vertex 0.055555541068315506 0.06710443645715714 0.005633530672639608
			vertex 0.055555541068315506 0.08758396655321121 -0.0314379520714283
			vertex 0.055555541068315506 0.10202724486589432 -0.031238960102200508
		endloop
	endfacet
	facet normal 1 0 0
		outer loop
			vertex 0.055555541068315506 0.06710443645715714 0.005633530672639608
			vertex 0.055555541068315506 0.10202724486589432 -0.031238960102200508
			vertex 0.055555541068315506 0.10202724486589432 0.007715878542512655
		endloop
	endfacet
	facet normal 1 0 0
		outer loop
			vertex 0.055555541068315506 0.08758396655321121 -0.0314379520714283
			vertex 0.055555541068315506 0.08376992493867874 -0.03006892092525959
			vertex 0.055555541068315506 0.08442927151918411 -0.031481433659791946
		endloop
	endfacet
	facet normal -1 0 0
		outer loop
			vertex -0.0555555634200573 0.09610966593027115 -0.03674163296818733
			vertex -0.0555555634200573 0.09262705594301224 -0.03674163296818733
			vertex -0.0555555634200573 0.08230183273553848 -0.015532510355114937
		endloop
	endfacet
	facet normal -1 0 0
		outer loop
			vertex -0.0555555634200573 0.10218549519777298 -0.03674163296818733
			vertex -0.0555555634200573 0.10202724486589432 -0.03674163296818733
			vertex -0.0555555634200573 0.10202724486589432 -0.014383422210812569
		endloop
	endfacet
	facet normal -1 0 0
		outer loop
			vertex -0.0555555634200573 0.10202724486589432 -0.03674163296818733
			vertex -0.0555555634200573 0.10134575515985489 -0.03674163296818733
			vertex -0.0555555634200573 0.10202724486589432 -0.015998976305127144
		endloop
	endfacet
	facet normal -1 0 0
		outer loop
			vertex -0.0555555634200573 0.10134575515985489 -0.03674163296818733
			vertex -0.0555555634200573 0.09610966593027115 -0.03674163296818733
			vertex -0.0555555634200573 0.08230183273553848 -0.015532510355114937
		endloop
	endfacet
	facet normal -1 0 0
		outer loop
			vertex -0.0555555634200573 0.10134575515985489 -0.03674163296818733
			vertex -0.0555555634200573 0.08230183273553848 -0.015532510355114937
			vertex -0.0555555634200573 0.07884407788515091 -0.008429916575551033
		endloop
	endfacet
	facet normal -1 0 0
		outer loop
			vertex -0.0555555634200573 0.10134575515985489 -0.03674163296818733
			vertex -0.0555555634200573 0.07884407788515091 -0.008429916575551033
			vertex -0.0555555634200573 0.09226671606302261 -0.007920505478978157
		endloop
	endfacet
	facet normal -1 0 0
		outer loop
			vertex -0.0555555634200573 0.10134575515985489 -0.03674163296818733
			vertex -0.0555555634200573 0.09226671606302261 -0.007920505478978157
			vertex -0.0555555634200573 0.10186285525560379 -0.021002696827054024
		endloop
	endfacet
	facet normal -1 0 0
		outer loop
			vertex -0.0555555634200573 0.09226671606302261 -0.007920505478978157
			vertex -0.0555555634200573 0.10202724486589432 -0.007550092879682779
			vertex -0.0555555634200573 0.10202724486589432 -0.015998976305127144
		endloop
	endfacet
	facet normal -1 0 0
		outer loop
			vertex -0.0555555634200573 0.09226671606302261 -0.007920505478978157
			vertex -0.0555555634200573 0.10202724486589432 -0.015998976305127144
			vertex -0.0555555634200573 0.10186285525560379 -0.021002696827054024
		endloop
	endfacet
	facet normal -1 0 0
		outer loop
			vertex -0.0555555634200573 0.06766963750123978 0.02428978495299816
			vertex -0.0555555634200573 0.06843743473291397 0.024565381929278374
			vertex -0.0555555634200573 0.07558316737413406 0.014823807403445244
		endloop
	endfacet
	facet normal -1 0 0
		outer loop
			vertex -0.0555555634200573 0.06766963750123978 0.02428978495299816
			vertex -0.0555555634200573 0.07558316737413406 0.014823807403445244
			vertex -0.0555555634200573 0.07229042798280716 0.005031955894082785
		endloop
	endfacet
	facet normal -1 0 0
		outer loop
			vertex -0.0555555634200573 0.06766963750123978 0.02428978495299816
			vertex -0.0555555634200573 0.07229042798280716 0.005031955894082785
			vertex -0.0555555634200573 0.07033256441354752 0.00905364565551281
		endloop
	endfacet
	facet normal -1 0 0
		outer loop
			vertex -0.0555555634200573 0.06736622005701065 0.02602575533092022
			vertex -0.0555555634200573 0.06843743473291397 0.024565381929278374
			vertex -0.0555555634200573 0.06766963750123978 0.02428978495299816
		endloop
	endfacet
	facet normal -1 0 0
		outer loop
			vertex -0.0555555634200573 0.06843743473291397 0.024565381929278374
			vertex -0.0555555634200573 0.08028952032327652 0.02881966345012188
			vertex -0.0555555634200573 0.07558316737413406 0.014823807403445244
		endloop
	endfacet
	facet normal -1 0 0
		outer loop
			vertex -0.0555555634200573 0.059505827724933624 0.036741625517606735
			vertex -0.0555555634200573 0.08179784566164017 0.036741625517606735
			vertex -0.0555555634200573 0.08246956020593643 0.03530263528227806
		endloop
	endfacet
	facet normal -1 0 0
		outer loop
			vertex -0.0555555634200573 0.059505827724933624 0.036741625517606735
			vertex -0.0555555634200573 0.08246956020593643 0.03530263528227806
			vertex -0.0555555634200573 0.08028952032327652 0.02881966345012188
		endloop
	endfacet
	facet normal -1 0 0
		outer loop
			vertex -0.0555555634200573 0.059505827724933624 0.036741625517606735
			vertex -0.0555555634200573 0.08028952032327652 0.02881966345012188
			vertex -0.0555555634200573 0.06843743473291397 0.024565381929278374
		endloop
	endfacet
	facet normal -1 0 0
		outer loop
			vertex -0.0555555634200573 0.09226671606302261 -0.007920505478978157
			vertex -0.0555555634200573 0.07884407788515091 -0.008429916575551033
			vertex -0.0555555634200573 0.07229042798280716 0.005031955894082785
		endloop
	endfacet
	facet normal -1 0 0
		outer loop
			vertex -0.0555555634200573 0.09226671606302261 -0.007920505478978157
			vertex -0.0555555634200573 0.07229042798280716 0.005031955894082785
			vertex -0.0555555634200573 0.07558316737413406 0.014823807403445244
		endloop
	endfacet
	facet normal -1 0 0
		outer loop
			vertex -0.0555555634200573 0.08028952032327652 0.02881966345012188
			vertex -0.0555555634200573 0.08474860340356827 0.030420226976275444
			vertex -0.0555555634200573 0.10202724486589432 -0.006595777813345194
		endloop
	endfacet
	facet normal -1 0 0
		outer loop
			vertex -0.0555555634200573 0.08028952032327652 0.02881966345012188
			vertex -0.0555555634200573 0.10202724486589432 -0.006595777813345194
			vertex -0.0555555634200573 0.10202724486589432 -0.007550092879682779
		endloop
	endfacet
	facet normal -1 0 0
		outer loop
			vertex -0.0555555634200573 0.08028952032327652 0.02881966345012188
			vertex -0.0555555634200573 0.10202724486589432 -0.007550092879682779
			vertex -0.0555555634200573 0.09226671606302261 -0.007920505478978157
		endloop
	endfacet
	facet normal -1 0 0
		outer loop
			vertex -0.0555555634200573 0.08028952032327652 0.02881966345012188
			vertex -0.0555555634200573 0.09226671606302261 -0.007920505478978157
			vertex -0.0555555634200573 0.07558316737413406 0.014823807403445244
		endloop
	endfacet
	facet normal -1 0 0
		outer loop
			vertex -0.0555555634200573 0.08246956020593643 0.03530263528227806
			vertex -0.0555555634200573 0.08474860340356827 0.030420226976275444
			vertex -0.0555555634200573 0.08028952032327652 0.02881966345012188
		endloop
	endfacet
	facet normal -1 0 0
		outer loop
			vertex -0.0555555634200573 0.08474860340356827 0.030420226976275444
			vertex -0.0555555634200573 0.10202724486589432 0.036622341722249985
			vertex -0.0555555634200573 0.10202724486589432 -0.006595777813345194
		endloop
	endfacet
	facet normal -1 0 0
		outer loop
			vertex -0.0555555634200573 0.08179784566164017 0.036741625517606735
			vertex -0.0555555634200573 0.10202724486589432 0.036741625517606735
			vertex -0.0555555634200573 0.10202724486589432 0.036622341722249985
		endloop
	endfacet
	facet normal -1 0 0
		outer loop
			vertex -0.0555555634200573 0.08179784566164017 0.036741625517606735
			vertex -0.0555555634200573 0.10202724486589432 0.036622341722249985
			vertex -0.0555555634200573 0.08474860340356827 0.030420226976275444
		endloop
	endfacet
	facet normal 0 0 1
		outer loop
			vertex 0.055555541068315506 -0.007854095660150051 0.036741625517606735
			vertex 0.055555541068315506 -0.005594498012214899 0.036741625517606735
			vertex 0.0479954369366169 -0.002863472793251276 0.036741625517606735
		endloop
	endfacet
	facet normal 0 0 1
		outer loop
			vertex 0.055555541068315506 -0.005594498012214899 0.036741625517606735
			vertex 0.055555541068315506 0.0025267689488828182 0.036741625517606735
			vertex 0.025819679722189903 0.011775352992117405 0.036741625517606735
		endloop
	endfacet
	facet normal 0 0 1
		outer loop
			vertex 0.055555541068315506 -0.005594498012214899 0.036741625517606735
			vertex 0.025819679722189903 0.011775352992117405 0.036741625517606735
			vertex 0.0479954369366169 -0.002863472793251276 0.036741625517606735
		endloop
	endfacet
	facet normal 0 0 1
		outer loop
			vertex 0.01151584554463625 0.02121768333017826 0.036741625517606735
			vertex 0.01497854758054018 0.02759760059416294 0.036741625517606735
			vertex -0.026734361425042152 0.046467699110507965 0.036741625517606735
		endloop
	endfacet
	facet normal 0 0 1
		outer loop
			vertex 0.055555541068315506 0.0025267689488828182 0.036741625517606735
			vertex 0.055555541068315506 0.009241350926458836 0.036741625517606735
			vertex 0.01497854758054018 0.02759760059416294 0.036741625517606735
		endloop
	endfacet
	facet normal 0 0 1
		outer loop
			vertex 0.055555541068315506 0.0025267689488828182 0.036741625517606735
			vertex 0.01497854758054018 0.02759760059416294 0.036741625517606735
			vertex 0.01151584554463625 0.02121768333017826 0.036741625517606735
		endloop
	endfacet
	facet normal 0 0 1
		outer loop
			vertex 0.055555541068315506 0.0025267689488828182 0.036741625517606735
			vertex 0.01151584554463625 0.02121768333017826 0.036741625517606735
			vertex 0.025819679722189903 0.011775352992117405 0.036741625517606735
		endloop
	endfacet
	facet normal 0 0 1
		outer loop
			vertex -0.0555555634200573 0.08179784566164017 0.036741625517606735
			vertex -0.0555555634200573 0.059505827724933624 0.036741625517606735
			vertex 0.01497854758054018 0.02759760059416294 0.036741625517606735
		endloop
	endfacet
	facet normal 0 0 1
		outer loop
			vertex -0.0555555634200573 0.08179784566164017 0.036741625517606735
			vertex 0.01497854758054018 0.02759760059416294 0.036741625517606735
			vertex 0.031913477927446365 0.05879975110292435 0.036741625517606735
		endloop
	endfacet
	facet normal 0 0 1
		outer loop
			vertex 0.055555541068315506 0.009241350926458836 0.036741625517606735
			vertex 0.055555541068315506 0.05258358269929886 0.036741625517606735
			vertex 0.031913477927446365 0.05879975110292435 0.036741625517606735
		endloop
	endfacet
	facet normal 0 0 1
		outer loop
			vertex 0.055555541068315506 0.009241350926458836 0.036741625517606735
			vertex 0.031913477927446365 0.05879975110292435 0.036741625517606735
			vertex 0.01497854758054018 0.02759760059416294 0.036741625517606735
		endloop
	endfacet
	facet normal 0 0 1
		outer loop
			vertex -0.0555555634200573 0.10202724486589432 0.036741625517606735
			vertex -0.0555555634200573 0.08179784566164017 0.036741625517606735
			vertex 0.031913477927446365 0.05879975110292435 0.036741625517606735
		endloop
	endfacet
	facet normal 0 0 1
		outer loop
			vertex -0.0555555634200573 0.10202724486589432 0.036741625517606735
			vertex 0.031913477927446365 0.05879975110292435 0.036741625517606735
			vertex 0.055375177413225174 0.10202724486589432 0.036741625517606735
		endloop
	endfacet
	facet normal 0 0 1
		outer loop
			vertex 0.055555541068315506 0.05258358269929886 0.036741625517606735
			vertex 0.055555541068315506 0.10202724486589432 0.036741625517606735
			vertex 0.055375177413225174 0.10202724486589432 0.036741625517606735
		endloop
	endfacet
	facet normal 0 0 1
		outer loop
			vertex 0.055555541068315506 0.05258358269929886 0.036741625517606735
			vertex 0.055375177413225174 0.10202724486589432 0.036741625517606735
			vertex 0.031913477927446365 0.05879975110292435 0.036741625517606735
		endloop
	endfacet
	facet normal 0 0 -1
		outer loop
			vertex -0.04736025258898735 0.08725995570421219 -0.03674163296818733
			vertex -0.04990397021174431 0.09194666892290115 -0.03674163296818733
			vertex -0.012932340614497662 0.06471309810876846 -0.03674163296818733
		endloop
	endfacet
	facet normal 0 0 -1
		outer loop
			vertex -0.0555555634200573 0.09262705594301224 -0.03674163296818733
			vertex -0.0555555634200573 0.09610966593027115 -0.03674163296818733
			vertex -0.04990397021174431 0.09194666892290115 -0.03674163296818733
		endloop
	endfacet
	facet normal 0 0 -1
		outer loop
			vertex -0.0555555634200573 0.09262705594301224 -0.03674163296818733
			vertex -0.04990397021174431 0.09194666892290115 -0.03674163296818733
			vertex -0.04736025258898735 0.08725995570421219 -0.03674163296818733
		endloop
	endfacet
	facet normal 0 0 -1
		outer loop
			vertex -0.055375199764966965 0.10202724486589432 -0.03674163296818733
			vertex -0.055460911244153976 0.1021851971745491 -0.03674163296818733
			vertex -0.012401561252772808 0.10205010324716568 -0.03674163296818733
		endloop
	endfacet
	facet normal 0 0 -1
		outer loop
			vertex -0.055375199764966965 0.10202724486589432 -0.03674163296818733
			vertex -0.012401561252772808 0.10205010324716568 -0.03674163296818733
			vertex -0.01237697433680296 0.10202724486589432 -0.03674163296818733
		endloop
	endfacet
	facet normal 0 0 -1
		outer loop
			vertex -0.0555555634200573 0.10202724486589432 -0.03674163296818733
			vertex -0.0555555634200573 0.10218549519777298 -0.03674163296818733
			vertex -0.055460911244153976 0.1021851971745491 -0.03674163296818733
		endloop
	endfacet
	facet normal 0 0 -1
		outer loop
			vertex -0.0555555634200573 0.10202724486589432 -0.03674163296818733
			vertex -0.055460911244153976 0.1021851971745491 -0.03674163296818733
			vertex -0.055375199764966965 0.10202724486589432 -0.03674163296818733
		endloop
	endfacet
	facet normal 0 0 -1
		outer loop
			vertex -0.05501024052500725 0.10135484486818314 -0.03674163296818733
			vertex -0.055375199764966965 0.10202724486589432 -0.03674163296818733
			vertex -0.014671544544398785 0.10202724486589432 -0.03674163296818733
		endloop
	endfacet
	facet normal 0 0 -1
		outer loop
			vertex -0.0555555634200573 0.10134575515985489 -0.03674163296818733
			vertex -0.0555555634200573 0.10202724486589432 -0.03674163296818733
			vertex -0.055375199764966965 0.10202724486589432 -0.03674163296818733
		endloop
	endfacet
	facet normal 0 0 -1
		outer loop
			vertex -0.0555555634200573 0.10134575515985489 -0.03674163296818733
			vertex -0.055375199764966965 0.10202724486589432 -0.03674163296818733
			vertex -0.05501024052500725 0.10135484486818314 -0.03674163296818733
		endloop
	endfacet
	facet normal 0 0 -1
		outer loop
			vertex -0.04990397021174431 0.09194666892290115 -0.03674163296818733
			vertex -0.05501024052500725 0.10135484486818314 -0.03674163296818733
			vertex -0.029839644208550453 0.10177440196275711 -0.03674163296818733
		endloop
	endfacet
	facet normal 0 0 -1
		outer loop
			vertex -0.04990397021174431 0.09194666892290115 -0.03674163296818733
			vertex -0.029839644208550453 0.10177440196275711 -0.03674163296818733
			vertex 0.004471471067517996 0.08625269681215286 -0.03674163296818733
		endloop
	endfacet
	facet normal 0 0 -1
		outer loop
			vertex -0.04990397021174431 0.09194666892290115 -0.03674163296818733
			vertex 0.004471471067517996 0.08625269681215286 -0.03674163296818733
			vertex 0.002094258787110448 0.056415118277072906 -0.03674163296818733
		endloop
	endfacet
	facet normal 0 0 -1
		outer loop
			vertex -0.04990397021174431 0.09194666892290115 -0.03674163296818733
			vertex 0.002094258787110448 0.056415118277072906 -0.03674163296818733
			vertex -0.0027467410545796156 0.058042533695697784 -0.03674163296818733
		endloop
	endfacet
	facet normal 0 0 -1
		outer loop
			vertex -0.04990397021174431 0.09194666892290115 -0.03674163296818733
			vertex -0.0027467410545796156 0.058042533695697784 -0.03674163296818733
			vertex -0.012932340614497662 0.06471309810876846 -0.03674163296818733
		endloop
	endfacet
	facet normal 0 0 -1
		outer loop
			vertex -0.0555555634200573 0.09610966593027115 -0.03674163296818733
			vertex -0.0555555634200573 0.10134575515985489 -0.03674163296818733
			vertex -0.05501024052500725 0.10135484486818314 -0.03674163296818733
		endloop
	endfacet
	facet normal 0 0 -1
		outer loop
			vertex -0.0555555634200573 0.09610966593027115 -0.03674163296818733
			vertex -0.05501024052500725 0.10135484486818314 -0.03674163296818733
			vertex -0.04990397021174431 0.09194666892290115 -0.03674163296818733
		endloop
	endfacet
	facet normal 0 0 -1
		outer loop
			vertex -0.029839644208550453 0.10177440196275711 -0.03674163296818733
			vertex -0.014671544544398785 0.10202724486589432 -0.03674163296818733
			vertex -0.01237697433680296 0.10202724486589432 -0.03674163296818733
		endloop
	endfacet
	facet normal 0 0 -1
		outer loop
			vertex -0.029839644208550453 0.10177440196275711 -0.03674163296818733
			vertex -0.01237697433680296 0.10202724486589432 -0.03674163296818733
			vertex 0.004480620380491018 0.08636752516031265 -0.03674163296818733
		endloop
	endfacet
	facet normal 0 0 -1
		outer loop
			vertex -0.029839644208550453 0.10177440196275711 -0.03674163296818733
			vertex 0.004480620380491018 0.08636752516031265 -0.03674163296818733
			vertex 0.004471471067517996 0.08625269681215286 -0.03674163296818733
		endloop
	endfacet
	facet normal 0 0 -1
		outer loop
			vertex 0.0057282946072518826 0.10202724486589432 -0.03674163296818733
			vertex 0.005725582595914602 0.10199321061372757 -0.03674163296818733
			vertex -0.005114028695970774 0.10202724486589432 -0.03674163296818733
		endloop
	endfacet
	facet normal 0 0 -1
		outer loop
			vertex 0.005725582595914602 0.10199321061372757 -0.03674163296818733
			vertex 0.004480620380491018 0.08636752516031265 -0.03674163296818733
			vertex -0.012401561252772808 0.10205010324716568 -0.03674163296818733
		endloop
	endfacet
	facet normal 0 0 -1
		outer loop
			vertex 0.055555541068315506 0.04204092174768448 -0.03674163296818733
			vertex 0.055555541068315506 0.0384424552321434 -0.03674163296818733
			vertex 0.03382169082760811 0.04574895650148392 -0.03674163296818733
		endloop
	endfacet
	facet normal 0 0 -1
		outer loop
			vertex 0.055555541068315506 0.063143290579319 -0.03674163296818733
			vertex 0.055555541068315506 0.04204092174768448 -0.03674163296818733
			vertex 0.03382169082760811 0.04574895650148392 -0.03674163296818733
		endloop
	endfacet
	facet normal 0 0 -1
		outer loop
			vertex 0.055555541068315506 0.063143290579319 -0.03674163296818733
			vertex 0.03382169082760811 0.04574895650148392 -0.03674163296818733
			vertex 0.002094258787110448 0.056415118277072906 -0.03674163296818733
		endloop
	endfacet
	facet normal 0 0 -1
		outer loop
			vertex 0.055555541068315506 0.063143290579319 -0.03674163296818733
			vertex 0.002094258787110448 0.056415118277072906 -0.03674163296818733
			vertex 0.004471471067517996 0.08625269681215286 -0.03674163296818733
		endloop
	endfacet
	facet normal 0 0 -1
		outer loop
			vertex 0.055555541068315506 0.08688465505838394 -0.03674163296818733
			vertex 0.055555541068315506 0.063143290579319 -0.03674163296818733
			vertex 0.004471471067517996 0.08625269681215286 -0.03674163296818733
		endloop
	endfacet
	facet normal 0 0 -1
		outer loop
			vertex 0.055555541068315506 0.08688465505838394 -0.03674163296818733
			vertex 0.004471471067517996 0.08625269681215286 -0.03674163296818733
			vertex 0.004695048090070486 0.08905858546495438 -0.03674163296818733
		endloop
	endfacet
	facet normal 0 0 -1
		outer loop
			vertex 0.055555541068315506 0.08688465505838394 -0.03674163296818733
			vertex 0.004695048090070486 0.08905858546495438 -0.03674163296818733
			vertex 0.01915656588971615 0.09645501524209976 -0.03674163296818733
		endloop
	endfacet
	facet normal 0 0 -1
		outer loop
			vertex 0.004695048090070486 0.08905858546495438 -0.03674163296818733
			vertex 0.005568971391767263 0.10002756863832474 -0.03674163296818733
			vertex 0.01915656588971615 0.09645501524209976 -0.03674163296818733
		endloop
	endfacet
	facet normal 0 0 -1
		outer loop
			vertex 0.023741593584418297 0.09524945169687271 -0.03674163296818733
			vertex 0.005568971391767263 0.10002756863832474 -0.03674163296818733
			vertex 0.0057282946072518826 0.10202724486589432 -0.03674163296818733
		endloop
	endfacet
	facet normal 0 0 -1
		outer loop
			vertex 0.023741593584418297 0.09524945169687271 -0.03674163296818733
			vertex 0.0057282946072518826 0.10202724486589432 -0.03674163296818733
			vertex 0.02344970963895321 0.10202724486589432 -0.03674163296818733
		endloop
	endfacet
	facet normal 0 0 -1
		outer loop
			vertex 0.055555541068315506 0.10202724486589432 -0.03674163296818733
			vertex 0.055555541068315506 0.08688465505838394 -0.03674163296818733
			vertex 0.05222778394818306 0.08775962144136429 -0.03674163296818733
		endloop
	endfacet
	facet normal 0 0 -1
		outer loop
			vertex 0.055555541068315506 0.10202724486589432 -0.03674163296818733
			vertex 0.05222778394818306 0.08775962144136429 -0.03674163296818733
			vertex 0.052104491740465164 0.10202724486589432 -0.03674163296818733
		endloop
	endfacet
	facet normal 0 0 -1
		outer loop
			vertex 0.05222778394818306 0.08775962144136429 -0.03674163296818733
			vertex 0.023741593584418297 0.09524945169687271 -0.03674163296818733
			vertex 0.02344970963895321 0.10202724486589432 -0.03674163296818733
		endloop
	endfacet
	facet normal 0 0 -1
		outer loop
			vertex 0.05222778394818306 0.08775962144136429 -0.03674163296818733
			vertex 0.02344970963895321 0.10202724486589432 -0.03674163296818733
			vertex 0.052104491740465164 0.10202724486589432 -0.03674163296818733
		endloop
	endfacet
endsolid exported
