solid exported
	facet normal -0.20642921865036146 -0.9373143963591285 0.28076449217328775
		outer loop
			vertex -0.0555555634200573 0.0432673916220665 0.036741625517606735
			vertex -0.0555555634200573 0.04319220036268234 0.036490604281425476
			vertex -0.05550224706530571 0.043255649507045746 0.036741625517606735
		endloop
	endfacet
	facet normal -0.1803062345840553 -0.9639163391275534 0.1958442057683992
		outer loop
			vertex -0.045340340584516525 0.04086672514677048 0.036741625517606735
			vertex -0.0555555634200573 0.04177580028772354 0.031811196357011795
			vertex -0.0555555634200573 0.04174443334341049 0.031656812876462936
		endloop
	endfacet
	facet normal -0.18022324616418914 -0.9639675099205106 0.1956686519596145
		outer loop
			vertex -0.045340340584516525 0.04086672514677048 0.036741625517606735
			vertex -0.0555555634200573 0.04174443334341049 0.031656812876462936
			vertex -0.040743421763181686 0.04000728577375412 0.036741625517606735
		endloop
	endfacet
	facet normal -0.3669438007613016 -0.6798580049055583 0.6349372726881642
		outer loop
			vertex -0.045816194266080856 0.04112377017736435 0.036741625517606735
			vertex -0.0555555634200573 0.0417977049946785 0.03183465078473091
			vertex -0.0555555634200573 0.04177580028772354 0.031811196357011795
		endloop
	endfacet
	facet normal -0.3670650763261694 -0.6795278926028925 0.6352204915746464
		outer loop
			vertex -0.045816194266080856 0.04112377017736435 0.036741625517606735
			vertex -0.0555555634200573 0.04177580028772354 0.031811196357011795
			vertex -0.045340340584516525 0.04086672514677048 0.036741625517606735
		endloop
	endfacet
	facet normal -0.45796072831657997 -0.6439886355178295 0.6128218408670107
		outer loop
			vertex 0.055555541068315506 0.0095887565985322 0.005946436896920204
			vertex 0.04447488859295845 0.009528541006147861 -0.0023973940405994654
			vertex 0.055555541068315506 -0.0029994011856615543 -0.007281927391886711
		endloop
	endfacet
	facet normal -0.46721491139160254 -0.6478314919068154 0.6016847884624698
		outer loop
			vertex 0.055555541068315506 -0.016267022117972374 -0.021567119285464287
			vertex 0.055555541068315506 -0.0029994011856615543 -0.007281927391886711
			vertex 0.04447488859295845 0.009528541006147861 -0.0023973940405994654
		endloop
	endfacet
	facet normal -0.46721366274859905 -0.6478315942178087 0.6016856478878742
		outer loop
			vertex 0.055555541068315506 -0.016267022117972374 -0.021567119285464287
			vertex 0.04447488859295845 0.009528541006147861 -0.0023973940405994654
			vertex 0.004431416746228933 0.00879135075956583 -0.03428519517183304
		endloop
	endfacet
	facet normal -0.4520022464998465 -0.8897220063517335 0.06394310418284616
		outer loop
			vertex 0.055555541068315506 -0.017357593402266502 -0.036741629242897034
			vertex 0.055555541068315506 -0.016267022117972374 -0.021567119285464287
			vertex 0.004431416746228933 0.00879135075956583 -0.03428519517183304
		endloop
	endfacet
	facet normal -0.4520020751795844 -0.889721910478166 0.06394564917515304
		outer loop
			vertex 0.055555541068315506 -0.017357593402266502 -0.036741629242897034
			vertex 0.004431416746228933 0.00879135075956583 -0.03428519517183304
			vertex 0.006373485084623098 0.007628181483596563 -0.036741629242897034
		endloop
	endfacet
	facet normal 1 0 0
		outer loop
			vertex 0.055555541068315506 0.002929472830146551 -0.0010515284957364202
			vertex 0.055555541068315506 0.007049837615340948 -0.0025305210147053003
			vertex 0.055555541068315506 0.0095887565985322 0.005946436896920204
		endloop
	endfacet
	facet normal 1 0 0
		outer loop
			vertex 0.055555541068315506 -0.017357593402266502 -0.036741629242897034
			vertex 0.055555541068315506 -0.003196632955223322 -0.036741629242897034
			vertex 0.055555541068315506 0.007049837615340948 -0.0025305210147053003
		endloop
	endfacet
	facet normal 1 0 0
		outer loop
			vertex 0.055555541068315506 -0.017357593402266502 -0.036741629242897034
			vertex 0.055555541068315506 0.007049837615340948 -0.0025305210147053003
			vertex 0.055555541068315506 0.002929472830146551 -0.0010515284957364202
		endloop
	endfacet
	facet normal 1 0 0
		outer loop
			vertex 0.055555541068315506 -0.017357593402266502 -0.036741629242897034
			vertex 0.055555541068315506 0.002929472830146551 -0.0010515284957364202
			vertex 0.055555541068315506 -0.0029994011856615543 -0.007281927391886711
		endloop
	endfacet
	facet normal 1 0 0
		outer loop
			vertex 0.055555541068315506 -0.017357593402266502 -0.036741629242897034
			vertex 0.055555541068315506 -0.0029994011856615543 -0.007281927391886711
			vertex 0.055555541068315506 -0.016267022117972374 -0.021567119285464287
		endloop
	endfacet
	facet normal -0.33939324537536547 -0.9395183025526832 0.046017215931670324
		outer loop
			vertex -0.0555555634200573 0.03903099149465561 -0.018605424091219902
			vertex -0.018776992335915565 0.02608841098845005 -0.011594844982028008
			vertex -0.0555555634200573 0.04141279309988022 0.030023032799363136
		endloop
	endfacet
	facet normal -0.4672138188527144 -0.6478312900459029 0.601685854171863
		outer loop
			vertex -0.023247042670845985 0.02647150494158268 -0.036741629242897034
			vertex -0.0054429867304861546 0.013631277717649937 -0.036741629242897034
			vertex 0.004431416746228933 0.00879135075956583 -0.03428519517183304
		endloop
	endfacet
	facet normal -0.46721377232933264 -0.6478311984991066 0.6016859888654594
		outer loop
			vertex -0.023247042670845985 0.02647150494158268 -0.036741629242897034
			vertex 0.004431416746228933 0.00879135075956583 -0.03428519517183304
			vertex 0.02733435295522213 0.009212994016706944 -0.016046909615397453
		endloop
	endfacet
	facet normal -0.4520032159711331 -0.8897214126876093 0.0639445115464816
		outer loop
			vertex 0.006373485084623098 0.007628181483596563 -0.036741629242897034
			vertex 0.004431416746228933 0.00879135075956583 -0.03428519517183304
			vertex -0.0054429867304861546 0.013631277717649937 -0.036741629242897034
		endloop
	endfacet
	facet normal 1 0 0
		outer loop
			vertex 0.055555541068315506 -0.003196632955223322 -0.036741629242897034
			vertex 0.055555541068315506 -0.001995301339775324 -0.036741629242897034
			vertex 0.055555541068315506 -0.0017604590393602848 -0.03194645792245865
		endloop
	endfacet
	facet normal -0.23176327231874155 -0.8814690580856653 -0.41145848544133684
		outer loop
			vertex -0.018776992335915565 0.02608841098845005 -0.011594844982028008
			vertex -0.0555555634200573 0.03903099149465561 -0.018605424091219902
			vertex -0.0555555634200573 0.03990419954061508 -0.020476100966334343
		endloop
	endfacet
	facet normal -0.23176250157166076 -0.8814683123571192 -0.41146051715266463
		outer loop
			vertex -0.018776992335915565 0.02608841098845005 -0.011594844982028008
			vertex -0.0555555634200573 0.03990419954061508 -0.020476100966334343
			vertex -0.026180097833275795 0.030856797471642494 -0.017640186473727226
		endloop
	endfacet
	facet normal -0.712471146707019 -0.30490786153789584 0.6319937191795285
		outer loop
			vertex -0.04542938992381096 0.03624378889799118 -0.036741629242897034
			vertex -0.04490349814295769 0.03501494973897934 -0.036741629242897034
			vertex -0.018776992335915565 0.02608841098845005 -0.011594844982028008
		endloop
	endfacet
	facet normal -0.7124717142122847 -0.30489206849231715 0.6320006985897126
		outer loop
			vertex -0.04542938992381096 0.03624378889799118 -0.036741629242897034
			vertex -0.018776992335915565 0.02608841098845005 -0.011594844982028008
			vertex -0.026180097833275795 0.030856797471642494 -0.017640186473727226
		endloop
	endfacet
	facet normal -0.46721354194528836 -0.6478342552226117 0.6016828765912341
		outer loop
			vertex -0.03025154210627079 0.03152310103178024 -0.036741629242897034
			vertex -0.023247042670845985 0.02647150494158268 -0.036741629242897034
			vertex 0.02733435295522213 0.009212994016706944 -0.016046909615397453
		endloop
	endfacet
	facet normal -0.4672135413817045 -0.6478327768088461 0.601684468838698
		outer loop
			vertex -0.03025154210627079 0.03152310103178024 -0.036741629242897034
			vertex 0.02733435295522213 0.009212994016706944 -0.016046909615397453
			vertex 0.037792254239320755 0.009405517019331455 -0.007718963548541069
		endloop
	endfacet
	facet normal -0.46721374715358566 -0.6478307355324351 0.6016865068872739
		outer loop
			vertex -0.03025154210627079 0.03152310103178024 -0.036741629242897034
			vertex 0.037792254239320755 0.009405517019331455 -0.007718963548541069
			vertex 0.021637221798300743 0.01612941361963749 -0.013023896142840385
		endloop
	endfacet
	facet normal -0.04270573261316803 -0.9546895152632456 -0.29452359811804874
		outer loop
			vertex -0.018776992335915565 0.02608841098845005 -0.011594844982028008
			vertex -0.04490349814295769 0.03501494973897934 -0.036741629242897034
			vertex -0.04090310260653496 0.03483600169420242 -0.036741629242897034
		endloop
	endfacet
	facet normal -0.042709420766383795 -0.9546902703640184 -0.2945206156622617
		outer loop
			vertex -0.018776992335915565 0.02608841098845005 -0.011594844982028008
			vertex -0.04090310260653496 0.03483600169420242 -0.036741629242897034
			vertex -0.015162955038249493 0.02746359445154667 -0.01657659374177456
		endloop
	endfacet
	facet normal 1 0 0
		outer loop
			vertex 0.055555541068315506 -0.001995301339775324 -0.036741629242897034
			vertex 0.055555541068315506 0.00483495881780982 -0.036741629242897034
			vertex 0.055555541068315506 0.005682834889739752 -0.009749410673975945
		endloop
	endfacet
	facet normal 1 0 0
		outer loop
			vertex 0.055555541068315506 -0.001995301339775324 -0.036741629242897034
			vertex 0.055555541068315506 0.005682834889739752 -0.009749410673975945
			vertex 0.055555541068315506 0.005198487546294928 -0.008711835369467735
		endloop
	endfacet
	facet normal 1 0 0
		outer loop
			vertex 0.055555541068315506 -0.001995301339775324 -0.036741629242897034
			vertex 0.055555541068315506 0.005198487546294928 -0.008711835369467735
			vertex 0.055555541068315506 -0.0017604590393602848 -0.03194645792245865
		endloop
	endfacet
	facet normal -0.18019202974515683 -0.9639652830277706 0.19570836858323332
		outer loop
			vertex -0.0555555634200573 0.04150467365980148 0.030475592240691185
			vertex -0.0555555634200573 0.04141279309988022 0.030023032799363136
			vertex -0.018776992335915565 0.02608841098845005 -0.011594844982028008
		endloop
	endfacet
	facet normal -0.18022808409676408 -0.9639649650906225 0.1956767328545856
		outer loop
			vertex -0.0555555634200573 0.04150467365980148 0.030475592240691185
			vertex -0.018776992335915565 0.02608841098845005 -0.011594844982028008
			vertex -0.011233280412852764 0.026712695136666298 -0.0015712884487584233
		endloop
	endfacet
	facet normal -0.46721390123996537 -0.6478338222146136 0.6016830638159401
		outer loop
			vertex 0.037792254239320755 0.009405517019331455 -0.007718963548541069
			vertex 0.043921638280153275 0.00951834861189127 -0.0028379394207149744
			vertex 0.021637221798300743 0.01612941361963749 -0.013023896142840385
		endloop
	endfacet
	facet normal 1 0 0
		outer loop
			vertex 0.055555541068315506 0.005682834889739752 -0.009749410673975945
			vertex 0.055555541068315506 0.0057759820483624935 -0.006783707067370415
			vertex 0.055555541068315506 0.005198487546294928 -0.008711835369467735
		endloop
	endfacet
	facet normal -0.1593357051199354 -0.9706080121108205 0.18036690356108756
		outer loop
			vertex -0.018776992335915565 0.02608841098845005 -0.011594844982028008
			vertex -0.004357019905000925 0.024368593469262123 -0.008111124858260155
			vertex -0.011233280412852764 0.026712695136666298 -0.0015712884487584233
		endloop
	endfacet
	facet normal -0.04270924491049248 -0.9546903138820927 -0.2945205000995463
		outer loop
			vertex -0.004357019905000925 0.024368593469262123 -0.008111124858260155
			vertex -0.018776992335915565 0.02608841098845005 -0.011594844982028008
			vertex -0.015162955038249493 0.02746359445154667 -0.01657659374177456
		endloop
	endfacet
	facet normal -0.5585501419152396 -0.007064544753387615 0.8294406736915507
		outer loop
			vertex -0.04858021065592766 0.0444432869553566 0.036741625517606735
			vertex -0.0555555634200573 0.04222642630338669 0.032025501132011414
			vertex -0.0555555634200573 0.04197186976671219 0.03202333301305771
		endloop
	endfacet
	facet normal -0.5585511142322498 -0.007060614329094744 0.8294400523939077
		outer loop
			vertex -0.04858021065592766 0.0444432869553566 0.036741625517606735
			vertex -0.0555555634200573 0.04197186976671219 0.03202333301305771
			vertex -0.04855675622820854 0.04258785396814346 0.036741625517606735
		endloop
	endfacet
	facet normal 0 1 0
		outer loop
			vertex -0.04930807277560234 0.10202724486589432 0.036741625517606735
			vertex -0.0555555634200573 0.10202724486589432 0.03253450617194176
			vertex -0.0555555634200573 0.10202724486589432 0.036741625517606735
		endloop
	endfacet
	facet normal 0.16551183173982364 -0.9639180310907877 0.20848947909232207
		outer loop
			vertex -0.05550224706530571 0.043255649507045746 0.036741625517606735
			vertex -0.0555555634200573 0.04319220036268234 0.036490604281425476
			vertex -0.0555555634200573 0.04222642630338669 0.032025501132011414
		endloop
	endfacet
	facet normal 0.16538619432908278 -0.9639383301550648 0.20849532940382193
		outer loop
			vertex -0.05550224706530571 0.043255649507045746 0.036741625517606735
			vertex -0.0555555634200573 0.04222642630338669 0.032025501132011414
			vertex -0.04858021065592766 0.0444432869553566 0.036741625517606735
		endloop
	endfacet
	facet normal -0.23175875144174193 -0.881469964733196 -0.41145908958658745
		outer loop
			vertex -0.0555555634200573 0.03990419954061508 -0.020476100966334343
			vertex -0.0555555634200573 0.0474967435002327 -0.036741629242897034
			vertex -0.04957170411944389 0.04592344909906387 -0.036741629242897034
		endloop
	endfacet
	facet normal -0.23176262047420096 -0.8814685307619871 -0.41145998229139547
		outer loop
			vertex -0.0555555634200573 0.03990419954061508 -0.020476100966334343
			vertex -0.04957170411944389 0.04592344909906387 -0.036741629242897034
			vertex -0.026180097833275795 0.030856797471642494 -0.017640186473727226
		endloop
	endfacet
	facet normal -0.7124714338380931 -0.3048950555148026 0.6319995736448858
		outer loop
			vertex -0.04957170411944389 0.04592344909906387 -0.036741629242897034
			vertex -0.04542938992381096 0.03624378889799118 -0.036741629242897034
			vertex -0.026180097833275795 0.030856797471642494 -0.017640186473727226
		endloop
	endfacet
	facet normal -0.4672139298912288 -0.6478306712894008 0.6016864341601182
		outer loop
			vertex -0.01016444992274046 0.02936560846865177 -0.02346680872142315
			vertex -0.034444522112607956 0.03454706817865372 -0.036741629242897034
			vertex -0.03025154210627079 0.03152310103178024 -0.036741629242897034
		endloop
	endfacet
	facet normal -0.467213658273455 -0.6478313516000032 0.601685912587995
		outer loop
			vertex -0.01016444992274046 0.02936560846865177 -0.02346680872142315
			vertex -0.03025154210627079 0.03152310103178024 -0.036741629242897034
			vertex 0.021637221798300743 0.01612941361963749 -0.013023896142840385
		endloop
	endfacet
	facet normal -0.04270938687913687 -0.9546902597344268 -0.2945206550322424
		outer loop
			vertex -0.015162955038249493 0.02746359445154667 -0.01657659374177456
			vertex -0.04090310260653496 0.03483600169420242 -0.036741629242897034
			vertex -0.034444522112607956 0.03454706817865372 -0.036741629242897034
		endloop
	endfacet
	facet normal -0.0427088013696612 -0.9546901275383001 -0.2945211684522379
		outer loop
			vertex -0.015162955038249493 0.02746359445154667 -0.01657659374177456
			vertex -0.034444522112607956 0.03454706817865372 -0.036741629242897034
			vertex -0.01016444992274046 0.02936560846865177 -0.02346680872142315
		endloop
	endfacet
	facet normal 1 0 0
		outer loop
			vertex 0.055555541068315506 0.00483495881780982 -0.036741629242897034
			vertex 0.055555541068315506 0.018282482400536537 -0.036741629242897034
			vertex 0.055555541068315506 0.005682834889739752 -0.009749410673975945
		endloop
	endfacet
	facet normal 0 1 0
		outer loop
			vertex 0.04427163675427437 0.10202724486589432 0.036741625517606735
			vertex 0.048426199704408646 0.10202724486589432 -0.036741629242897034
			vertex -0.004422465804964304 0.10202724486589432 -0.036741629242897034
		endloop
	endfacet
	facet normal 0 1 0
		outer loop
			vertex 0.04427163675427437 0.10202724486589432 0.036741625517606735
			vertex -0.004422465804964304 0.10202724486589432 -0.036741629242897034
			vertex -0.03075752593576908 0.10202724486589432 0.036741625517606735
		endloop
	endfacet
	facet normal 0 1 0
		outer loop
			vertex 0.055555541068315506 0.10202724486589432 0.036741625517606735
			vertex 0.055555541068315506 0.10202724486589432 -0.036741629242897034
			vertex 0.048426199704408646 0.10202724486589432 -0.036741629242897034
		endloop
	endfacet
	facet normal 0 1 0
		outer loop
			vertex 0.055555541068315506 0.10202724486589432 0.036741625517606735
			vertex 0.048426199704408646 0.10202724486589432 -0.036741629242897034
			vertex 0.04427163675427437 0.10202724486589432 0.036741625517606735
		endloop
	endfacet
	facet normal 0 1 0
		outer loop
			vertex -0.0555555634200573 0.10202724486589432 -0.036741629242897034
			vertex -0.0555555634200573 0.10202724486589432 0.03253450617194176
			vertex -0.04930807277560234 0.10202724486589432 0.036741625517606735
		endloop
	endfacet
	facet normal 0 1 0
		outer loop
			vertex -0.0555555634200573 0.10202724486589432 -0.036741629242897034
			vertex -0.04930807277560234 0.10202724486589432 0.036741625517606735
			vertex -0.03075752593576908 0.10202724486589432 0.036741625517606735
		endloop
	endfacet
	facet normal 0 1 0
		outer loop
			vertex -0.0555555634200573 0.10202724486589432 -0.036741629242897034
			vertex -0.03075752593576908 0.10202724486589432 0.036741625517606735
			vertex -0.004422465804964304 0.10202724486589432 -0.036741629242897034
		endloop
	endfacet
	facet normal 0.11578143584060165 -0.9856193773115036 0.12308168906369839
		outer loop
			vertex 0.05415697768330574 0.026189232245087624 0.036741625517606735
			vertex 0.04318039491772652 0.024899804964661598 0.036741625517606735
			vertex 0.04122297838330269 0.02354046143591404 0.027697527781128883
		endloop
	endfacet
	facet normal -0.18022141039464187 -0.9639690450446596 0.1956627798817474
		outer loop
			vertex -0.040743421763181686 0.04000728577375412 0.036741625517606735
			vertex -0.0555555634200573 0.04174443334341049 0.031656812876462936
			vertex -0.0555555634200573 0.04150467365980148 0.030475592240691185
		endloop
	endfacet
	facet normal -0.18022729114461422 -0.9639649239066073 0.1956776660848225
		outer loop
			vertex -0.040743421763181686 0.04000728577375412 0.036741625517606735
			vertex -0.0555555634200573 0.04150467365980148 0.030475592240691185
			vertex -0.023223618045449257 0.030714312568306923 0.007098214700818062
		endloop
	endfacet
	facet normal -0.1802271919699541 -0.9639649301530326 0.1956777266570844
		outer loop
			vertex -0.040743421763181686 0.04000728577375412 0.036741625517606735
			vertex -0.023223618045449257 0.030714312568306923 0.007098214700818062
			vertex 0.0007497270707972348 0.02770441211760044 0.014351008459925652
		endloop
	endfacet
	facet normal -0.1802275859894165 -0.9639649972245395 0.1956770333338106
		outer loop
			vertex -0.040743421763181686 0.04000728577375412 0.036741625517606735
			vertex 0.0007497270707972348 0.02770441211760044 0.014351008459925652
			vertex 0.01760079525411129 0.02909896709024906 0.036741625517606735
		endloop
	endfacet
	facet normal -0.1593355219641519 -0.9706076455588102 0.18036903787289688
		outer loop
			vertex 0.04122297838330269 0.02354046143591404 0.027697527781128883
			vertex 0.04318039491772652 0.024899804964661598 0.036741625517606735
			vertex 0.01760079525411129 0.02909896709024906 0.036741625517606735
		endloop
	endfacet
	facet normal -0.15933600397476094 -0.9706077845140559 0.18036786431643306
		outer loop
			vertex 0.04122297838330269 0.02354046143591404 0.027697527781128883
			vertex 0.01760079525411129 0.02909896709024906 0.036741625517606735
			vertex 0.0007497270707972348 0.02770441211760044 0.014351008459925652
		endloop
	endfacet
	facet normal -0.3608513818307834 -0.6917025860049284 0.6255667931923088
		outer loop
			vertex -0.04855675622820854 0.04258785396814346 0.036741625517606735
			vertex -0.0555555634200573 0.04197186976671219 0.03202333301305771
			vertex -0.0555555634200573 0.041905976831912994 0.03195047378540039
		endloop
	endfacet
	facet normal -0.36079813250576515 -0.691789514195842 0.6255013793981861
		outer loop
			vertex -0.04855675622820854 0.04258785396814346 0.036741625517606735
			vertex -0.0555555634200573 0.041905976831912994 0.03195047378540039
			vertex -0.047680389136075974 0.042130790650844574 0.036741625517606735
		endloop
	endfacet
	facet normal -0.3670631692988514 -0.6795259012924516 0.6352237237516907
		outer loop
			vertex -0.047680389136075974 0.042130790650844574 0.036741625517606735
			vertex -0.0555555634200573 0.041905976831912994 0.03195047378540039
			vertex -0.0555555634200573 0.0417977049946785 0.03183465078473091
		endloop
	endfacet
	facet normal -0.36706823141236317 -0.6795161885559674 0.6352311886062985
		outer loop
			vertex -0.047680389136075974 0.042130790650844574 0.036741625517606735
			vertex -0.0555555634200573 0.0417977049946785 0.03183465078473091
			vertex -0.045816194266080856 0.04112377017736435 0.036741625517606735
		endloop
	endfacet
	facet normal -0.45795965750644446 -0.6439893760533476 0.6128218628826816
		outer loop
			vertex 0.055555541068315506 0.024459371343255043 0.02157333679497242
			vertex 0.03555997088551521 0.01960783638060093 0.0015324371634051204
			vertex 0.04447488859295845 0.009528541006147861 -0.0023973940405994654
		endloop
	endfacet
	facet normal -0.45796075520258955 -0.6439885827837044 0.6128218761912059
		outer loop
			vertex 0.055555541068315506 0.024459371343255043 0.02157333679497242
			vertex 0.04447488859295845 0.009528541006147861 -0.0023973940405994654
			vertex 0.055555541068315506 0.0095887565985322 0.005946436896920204
		endloop
	endfacet
	facet normal 0.11578835579972178 -0.9856187123107825 0.1230805045652334
		outer loop
			vertex 0.055555541068315506 0.024459371343255043 0.02157333679497242
			vertex 0.055555541068315506 0.026353532448410988 0.036741625517606735
			vertex 0.05415697768330574 0.026189232245087624 0.036741625517606735
		endloop
	endfacet
	facet normal 0.11578259124655184 -0.9856194454330693 0.12308005666411953
		outer loop
			vertex 0.055555541068315506 0.024459371343255043 0.02157333679497242
			vertex 0.05415697768330574 0.026189232245087624 0.036741625517606735
			vertex 0.04122297838330269 0.02354046143591404 0.027697527781128883
		endloop
	endfacet
	facet normal 0.11578249446430708 -0.985619485843962 0.1230798240992693
		outer loop
			vertex 0.055555541068315506 0.024459371343255043 0.02157333679497242
			vertex 0.04122297838330269 0.02354046143591404 0.027697527781128883
			vertex 0.03555997088551521 0.01960783638060093 0.0015324371634051204
		endloop
	endfacet
	facet normal -0.18022730330714135 -0.9639648258458474 0.19567813795777167
		outer loop
			vertex -0.023223618045449257 0.030714312568306923 0.007098214700818062
			vertex -0.011233280412852764 0.026712695136666298 -0.0015712884487584233
			vertex 0.0007497270707972348 0.02770441211760044 0.014351008459925652
		endloop
	endfacet
	facet normal -0.15933620804554993 -0.9706076336464178 0.18036849589927417
		outer loop
			vertex -0.004357019905000925 0.024368593469262123 -0.008111124858260155
			vertex 0.03555997088551521 0.01960783638060093 0.0015324371634051204
			vertex 0.04122297838330269 0.02354046143591404 0.027697527781128883
		endloop
	endfacet
	facet normal -0.15933618974485014 -0.9706076410111697 0.1803684724344189
		outer loop
			vertex -0.004357019905000925 0.024368593469262123 -0.008111124858260155
			vertex 0.04122297838330269 0.02354046143591404 0.027697527781128883
			vertex 0.0007497270707972348 0.02770441211760044 0.014351008459925652
		endloop
	endfacet
	facet normal -0.15933451562434 -0.9706079772840237 0.18036814176393048
		outer loop
			vertex -0.004357019905000925 0.024368593469262123 -0.008111124858260155
			vertex 0.0007497270707972348 0.02770441211760044 0.014351008459925652
			vertex -0.011233280412852764 0.026712695136666298 -0.0015712884487584233
		endloop
	endfacet
	facet normal -0.0427091506471729 -0.954690284314061 -0.2945206096138854
		outer loop
			vertex 0.03555997088551521 0.01960783638060093 0.0015324371634051204
			vertex -0.004357019905000925 0.024368593469262123 -0.008111124858260155
			vertex -0.015162955038249493 0.02746359445154667 -0.01657659374177456
		endloop
	endfacet
	facet normal -0.042708489441152575 -0.9546898064920755 -0.29452225435402773
		outer loop
			vertex 0.03555997088551521 0.01960783638060093 0.0015324371634051204
			vertex -0.015162955038249493 0.02746359445154667 -0.01657659374177456
			vertex -0.010593454353511333 0.02920236624777317 -0.02287541888654232
		endloop
	endfacet
	facet normal 1 0 0
		outer loop
			vertex 0.055555541068315506 0.03889355808496475 0.036741625517606735
			vertex 0.055555541068315506 0.026353532448410988 0.036741625517606735
			vertex 0.055555541068315506 0.024459371343255043 0.02157333679497242
		endloop
	endfacet
	facet normal -0.4672136116459216 -0.6478321601376023 0.6016850782462717
		outer loop
			vertex 0.04447488859295845 0.009528541006147861 -0.0023973940405994654
			vertex 0.03555997088551521 0.01960783638060093 0.0015324371634051204
			vertex -0.01016444992274046 0.02936560846865177 -0.02346680872142315
		endloop
	endfacet
	facet normal -0.4672136504047761 -0.6478311939774146 0.6016860884092645
		outer loop
			vertex 0.04447488859295845 0.009528541006147861 -0.0023973940405994654
			vertex -0.01016444992274046 0.02936560846865177 -0.02346680872142315
			vertex 0.021637221798300743 0.01612941361963749 -0.013023896142840385
		endloop
	endfacet
	facet normal -0.467222231072474 -0.6477760731541449 0.6017387687698507
		outer loop
			vertex 0.04447488859295845 0.009528541006147861 -0.0023973940405994654
			vertex 0.021637221798300743 0.01612941361963749 -0.013023896142840385
			vertex 0.043921638280153275 0.00951834861189127 -0.0028379394207149744
		endloop
	endfacet
	facet normal -0.042714864442376876 -0.954692868726363 -0.2945114034442416
		outer loop
			vertex 0.03555997088551521 0.01960783638060093 0.0015324371634051204
			vertex -0.010593454353511333 0.02920236624777317 -0.02287541888654232
			vertex -0.01016444992274046 0.02936560846865177 -0.02346680872142315
		endloop
	endfacet
	facet normal 1 0 0
		outer loop
			vertex 0.055555541068315506 0.024659300222992897 0.02178344316780567
			vertex 0.055555541068315506 0.0095887565985322 0.005946436896920204
			vertex 0.055555541068315506 0.007049837615340948 -0.0025305210147053003
		endloop
	endfacet
	facet normal 1 0 0
		outer loop
			vertex 0.055555541068315506 0.024659300222992897 0.02178344316780567
			vertex 0.055555541068315506 0.007049837615340948 -0.0025305210147053003
			vertex 0.055555541068315506 0.02107616700232029 -0.007565220817923546
		endloop
	endfacet
	facet normal 1 0 0
		outer loop
			vertex 0.055555541068315506 0.02107616700232029 -0.007565220817923546
			vertex 0.055555541068315506 0.007049837615340948 -0.0025305210147053003
			vertex 0.055555541068315506 0.0057759820483624935 -0.006783707067370415
		endloop
	endfacet
	facet normal 1 0 0
		outer loop
			vertex 0.055555541068315506 0.02107616700232029 -0.007565220817923546
			vertex 0.055555541068315506 0.0057759820483624935 -0.006783707067370415
			vertex 0.055555541068315506 0.005682834889739752 -0.009749410673975945
		endloop
	endfacet
	facet normal 1 0 0
		outer loop
			vertex 0.055555541068315506 0.02107616700232029 -0.007565220817923546
			vertex 0.055555541068315506 0.005682834889739752 -0.009749410673975945
			vertex 0.055555541068315506 0.017673367634415627 -0.035436779260635376
		endloop
	endfacet
	facet normal 1 0 0
		outer loop
			vertex 0.055555541068315506 0.02638603188097477 0.023597991093993187
			vertex 0.055555541068315506 0.024659300222992897 0.02178344316780567
			vertex 0.055555541068315506 0.02107616700232029 -0.007565220817923546
		endloop
	endfacet
	facet normal 1 0 0
		outer loop
			vertex 0.055555541068315506 0.02638603188097477 0.023597991093993187
			vertex 0.055555541068315506 0.02107616700232029 -0.007565220817923546
			vertex 0.055555541068315506 0.02327052690088749 -0.008352881297469139
		endloop
	endfacet
	facet normal 1 0 0
		outer loop
			vertex 0.055555541068315506 0.018282482400536537 -0.036741629242897034
			vertex 0.055555541068315506 0.020502367988228798 -0.036741629242897034
			vertex 0.055555541068315506 0.02327052690088749 -0.008352881297469139
		endloop
	endfacet
	facet normal 1 0 0
		outer loop
			vertex 0.055555541068315506 0.018282482400536537 -0.036741629242897034
			vertex 0.055555541068315506 0.02327052690088749 -0.008352881297469139
			vertex 0.055555541068315506 0.02107616700232029 -0.007565220817923546
		endloop
	endfacet
	facet normal 1 0 0
		outer loop
			vertex 0.055555541068315506 0.018282482400536537 -0.036741629242897034
			vertex 0.055555541068315506 0.02107616700232029 -0.007565220817923546
			vertex 0.055555541068315506 0.017673367634415627 -0.035436779260635376
		endloop
	endfacet
	facet normal 1 0 0
		outer loop
			vertex 0.055555541068315506 0.10202724486589432 0.036741625517606735
			vertex 0.055555541068315506 0.03889355808496475 0.036741625517606735
			vertex 0.055555541068315506 0.02638603188097477 0.023597991093993187
		endloop
	endfacet
	facet normal 1 0 0
		outer loop
			vertex 0.055555541068315506 0.10202724486589432 0.036741625517606735
			vertex 0.055555541068315506 0.02638603188097477 0.023597991093993187
			vertex 0.055555541068315506 0.02327052690088749 -0.008352881297469139
		endloop
	endfacet
	facet normal 1 0 0
		outer loop
			vertex 0.055555541068315506 0.10202724486589432 0.036741625517606735
			vertex 0.055555541068315506 0.02327052690088749 -0.008352881297469139
			vertex 0.055555541068315506 0.10202724486589432 -0.03662233054637909
		endloop
	endfacet
	facet normal 1 0 0
		outer loop
			vertex 0.055555541068315506 0.020502367988228798 -0.036741629242897034
			vertex 0.055555541068315506 0.10202724486589432 -0.036741629242897034
			vertex 0.055555541068315506 0.10202724486589432 -0.03662233054637909
		endloop
	endfacet
	facet normal 1 0 0
		outer loop
			vertex 0.055555541068315506 0.020502367988228798 -0.036741629242897034
			vertex 0.055555541068315506 0.10202724486589432 -0.03662233054637909
			vertex 0.055555541068315506 0.02327052690088749 -0.008352881297469139
		endloop
	endfacet
	facet normal -1 0 0
		outer loop
			vertex -0.0555555634200573 0.0417977049946785 0.03183465078473091
			vertex -0.0555555634200573 0.04174443334341049 0.031656812876462936
			vertex -0.0555555634200573 0.04177580028772354 0.031811196357011795
		endloop
	endfacet
	facet normal -1 0 0
		outer loop
			vertex -0.0555555634200573 0.03903099149465561 -0.018605424091219902
			vertex -0.0555555634200573 0.040657080709934235 0.01459372229874134
			vertex -0.0555555634200573 0.041009776294231415 0.014720318838953972
		endloop
	endfacet
	facet normal -1 0 0
		outer loop
			vertex -0.0555555634200573 0.03903099149465561 -0.018605424091219902
			vertex -0.0555555634200573 0.041009776294231415 0.014720318838953972
			vertex -0.0555555634200573 0.03990419954061508 -0.020476100966334343
		endloop
	endfacet
	facet normal -1 0 0
		outer loop
			vertex -0.0555555634200573 0.041009776294231415 0.014720318838953972
			vertex -0.0555555634200573 0.040657080709934235 0.01459372229874134
			vertex -0.0555555634200573 0.04141279309988022 0.030023032799363136
		endloop
	endfacet
	facet normal -1 0 0
		outer loop
			vertex -0.0555555634200573 0.041009776294231415 0.014720318838953972
			vertex -0.0555555634200573 0.04141279309988022 0.030023032799363136
			vertex -0.0555555634200573 0.04150467365980148 0.030475592240691185
		endloop
	endfacet
	facet normal -1 0 0
		outer loop
			vertex -0.0555555634200573 0.09036222845315933 0.03243521600961685
			vertex -0.0555555634200573 0.10202724486589432 0.03662233054637909
			vertex -0.0555555634200573 0.10202724486589432 0.03253450617194176
		endloop
	endfacet
	facet normal -1 0 0
		outer loop
			vertex -0.0555555634200573 0.0432673916220665 0.036741625517606735
			vertex -0.0555555634200573 0.10202724486589432 0.036741625517606735
			vertex -0.0555555634200573 0.10202724486589432 0.03662233054637909
		endloop
	endfacet
	facet normal -1 0 0
		outer loop
			vertex -0.0555555634200573 0.0432673916220665 0.036741625517606735
			vertex -0.0555555634200573 0.10202724486589432 0.03662233054637909
			vertex -0.0555555634200573 0.09036222845315933 0.03243521600961685
		endloop
	endfacet
	facet normal -1 0 0
		outer loop
			vertex -0.0555555634200573 0.0432673916220665 0.036741625517606735
			vertex -0.0555555634200573 0.09036222845315933 0.03243521600961685
			vertex -0.0555555634200573 0.04222642630338669 0.032025501132011414
		endloop
	endfacet
	facet normal -1 0 0
		outer loop
			vertex -0.0555555634200573 0.0432673916220665 0.036741625517606735
			vertex -0.0555555634200573 0.04222642630338669 0.032025501132011414
			vertex -0.0555555634200573 0.04319220036268234 0.036490604281425476
		endloop
	endfacet
	facet normal -1 0 0
		outer loop
			vertex -0.0555555634200573 0.04179596155881882 0.031828783452510834
			vertex -0.0555555634200573 0.0417977049946785 0.03183465078473091
			vertex -0.0555555634200573 0.04197186976671219 0.03202333301305771
		endloop
	endfacet
	facet normal -1 0 0
		outer loop
			vertex -0.0555555634200573 0.04068613797426224 0.0044170040637254715
			vertex -0.0555555634200573 0.041009776294231415 0.014720318838953972
			vertex -0.0555555634200573 0.052785374224185944 0.01894713006913662
		endloop
	endfacet
	facet normal -1 0 0
		outer loop
			vertex -0.0555555634200573 0.052785374224185944 0.01894713006913662
			vertex -0.0555555634200573 0.041009776294231415 0.014720318838953972
			vertex -0.0555555634200573 0.04150467365980148 0.030475592240691185
		endloop
	endfacet
	facet normal -1 0 0
		outer loop
			vertex -0.0555555634200573 0.052785374224185944 0.01894713006913662
			vertex -0.0555555634200573 0.04150467365980148 0.030475592240691185
			vertex -0.0555555634200573 0.04174443334341049 0.031656812876462936
		endloop
	endfacet
	facet normal -1 0 0
		outer loop
			vertex -0.0555555634200573 0.052785374224185944 0.01894713006913662
			vertex -0.0555555634200573 0.04174443334341049 0.031656812876462936
			vertex -0.0555555634200573 0.04179596155881882 0.031828783452510834
		endloop
	endfacet
	facet normal -1 0 0
		outer loop
			vertex -0.0555555634200573 0.052785374224185944 0.01894713006913662
			vertex -0.0555555634200573 0.04179596155881882 0.031828783452510834
			vertex -0.0555555634200573 0.04197186976671219 0.03202333301305771
		endloop
	endfacet
	facet normal -1 0 0
		outer loop
			vertex -0.0555555634200573 0.052785374224185944 0.01894713006913662
			vertex -0.0555555634200573 0.04197186976671219 0.03202333301305771
			vertex -0.0555555634200573 0.06382883340120316 0.0322093740105629
		endloop
	endfacet
	facet normal -1 0 0
		outer loop
			vertex -0.0555555634200573 0.047981150448322296 -0.036741629242897034
			vertex -0.0555555634200573 0.0474967435002327 -0.036741629242897034
			vertex -0.0555555634200573 0.03990419954061508 -0.020476100966334343
		endloop
	endfacet
	facet normal -1 0 0
		outer loop
			vertex -0.0555555634200573 0.047981150448322296 -0.036741629242897034
			vertex -0.0555555634200573 0.03990419954061508 -0.020476100966334343
			vertex -0.0555555634200573 0.04068613797426224 0.0044170040637254715
		endloop
	endfacet
	facet normal -1 0 0
		outer loop
			vertex -0.0555555634200573 0.047981150448322296 -0.036741629242897034
			vertex -0.0555555634200573 0.04068613797426224 0.0044170040637254715
			vertex -0.0555555634200573 0.052785374224185944 0.01894713006913662
		endloop
	endfacet
	facet normal -1 0 0
		outer loop
			vertex -0.0555555634200573 0.047981150448322296 -0.036741629242897034
			vertex -0.0555555634200573 0.052785374224185944 0.01894713006913662
			vertex -0.0555555634200573 0.09036222845315933 0.03243521600961685
		endloop
	endfacet
	facet normal -1 0 0
		outer loop
			vertex -0.0555555634200573 0.047981150448322296 -0.036741629242897034
			vertex -0.0555555634200573 0.09036222845315933 0.03243521600961685
			vertex -0.0555555634200573 0.10202724486589432 0.03253450617194176
		endloop
	endfacet
	facet normal -1 0 0
		outer loop
			vertex -0.0555555634200573 0.047981150448322296 -0.036741629242897034
			vertex -0.0555555634200573 0.10202724486589432 0.03253450617194176
			vertex -0.0555555634200573 0.10202724486589432 0.020053153857588768
		endloop
	endfacet
	facet normal -1 0 0
		outer loop
			vertex -0.0555555634200573 0.09036222845315933 0.03243521600961685
			vertex -0.0555555634200573 0.052785374224185944 0.01894713006913662
			vertex -0.0555555634200573 0.06382883340120316 0.0322093740105629
		endloop
	endfacet
	facet normal -1 0 0
		outer loop
			vertex -0.0555555634200573 0.049772270023822784 -0.036741629242897034
			vertex -0.0555555634200573 0.047981150448322296 -0.036741629242897034
			vertex -0.0555555634200573 0.10202724486589432 0.020053153857588768
		endloop
	endfacet
	facet normal -1 0 0
		outer loop
			vertex -0.0555555634200573 0.049772270023822784 -0.036741629242897034
			vertex -0.0555555634200573 0.10202724486589432 0.020053153857588768
			vertex -0.0555555634200573 0.10202724486589432 0.01952100358903408
		endloop
	endfacet
	facet normal -1 0 0
		outer loop
			vertex -0.0555555634200573 0.10202724486589432 -0.036741629242897034
			vertex -0.0555555634200573 0.049772270023822784 -0.036741629242897034
			vertex -0.0555555634200573 0.10202724486589432 0.01952100358903408
		endloop
	endfacet
	facet normal 0 0 1
		outer loop
			vertex -0.045340340584516525 0.04086672514677048 0.036741625517606735
			vertex -0.040743421763181686 0.04000728577375412 0.036741625517606735
			vertex -0.045816194266080856 0.04112377017736435 0.036741625517606735
		endloop
	endfacet
	facet normal 0 0 1
		outer loop
			vertex -0.0555555634200573 0.10202724486589432 0.036741625517606735
			vertex -0.0555555634200573 0.0432673916220665 0.036741625517606735
			vertex -0.05550224706530571 0.043255649507045746 0.036741625517606735
		endloop
	endfacet
	facet normal 0 0 1
		outer loop
			vertex -0.0555555634200573 0.10202724486589432 0.036741625517606735
			vertex -0.05550224706530571 0.043255649507045746 0.036741625517606735
			vertex -0.04858021065592766 0.0444432869553566 0.036741625517606735
		endloop
	endfacet
	facet normal 0 0 1
		outer loop
			vertex -0.0555555634200573 0.10202724486589432 0.036741625517606735
			vertex -0.04858021065592766 0.0444432869553566 0.036741625517606735
			vertex -0.04930807277560234 0.10202724486589432 0.036741625517606735
		endloop
	endfacet
	facet normal 0 0 1
		outer loop
			vertex -0.045816194266080856 0.04112377017736435 0.036741625517606735
			vertex -0.045700859278440475 0.04109839349985123 0.036741625517606735
			vertex -0.047680389136075974 0.042130790650844574 0.036741625517606735
		endloop
	endfacet
	facet normal 0 0 1
		outer loop
			vertex -0.045700859278440475 0.04109839349985123 0.036741625517606735
			vertex -0.040743421763181686 0.04000728577375412 0.036741625517606735
			vertex 0.01595993898808956 0.02940576709806919 0.036741625517606735
		endloop
	endfacet
	facet normal 0 0 1
		outer loop
			vertex -0.045700859278440475 0.04109839349985123 0.036741625517606735
			vertex 0.01595993898808956 0.02940576709806919 0.036741625517606735
			vertex 0.021005919203162193 0.03870288282632828 0.036741625517606735
		endloop
	endfacet
	facet normal 0 0 1
		outer loop
			vertex -0.045700859278440475 0.04109839349985123 0.036741625517606735
			vertex 0.021005919203162193 0.03870288282632828 0.036741625517606735
			vertex -0.04884089156985283 0.06506822258234024 0.036741625517606735
		endloop
	endfacet
	facet normal 0 0 1
		outer loop
			vertex -0.045700859278440475 0.04109839349985123 0.036741625517606735
			vertex -0.04884089156985283 0.06506822258234024 0.036741625517606735
			vertex -0.04855675622820854 0.04258785396814346 0.036741625517606735
		endloop
	endfacet
	facet normal 0 0 1
		outer loop
			vertex 0.05415697768330574 0.026189232245087624 0.036741625517606735
			vertex 0.021005919203162193 0.03870288282632828 0.036741625517606735
			vertex 0.01595993898808956 0.02940576709806919 0.036741625517606735
		endloop
	endfacet
	facet normal 0 0 1
		outer loop
			vertex 0.05415697768330574 0.026189232245087624 0.036741625517606735
			vertex 0.01595993898808956 0.02940576709806919 0.036741625517606735
			vertex 0.01760079525411129 0.02909896709024906 0.036741625517606735
		endloop
	endfacet
	facet normal 0 0 1
		outer loop
			vertex 0.05415697768330574 0.026189232245087624 0.036741625517606735
			vertex 0.01760079525411129 0.02909896709024906 0.036741625517606735
			vertex 0.04318039491772652 0.024899804964661598 0.036741625517606735
		endloop
	endfacet
	facet normal 0 0 1
		outer loop
			vertex 0.021005919203162193 0.03870288282632828 0.036741625517606735
			vertex 0.0307020153850317 0.05656764656305313 0.036741625517606735
			vertex -0.03322378918528557 0.10202724486589432 0.036741625517606735
		endloop
	endfacet
	facet normal 0 0 1
		outer loop
			vertex 0.021005919203162193 0.03870288282632828 0.036741625517606735
			vertex -0.03322378918528557 0.10202724486589432 0.036741625517606735
			vertex -0.04930807277560234 0.10202724486589432 0.036741625517606735
		endloop
	endfacet
	facet normal 0 0 1
		outer loop
			vertex 0.021005919203162193 0.03870288282632828 0.036741625517606735
			vertex -0.04930807277560234 0.10202724486589432 0.036741625517606735
			vertex -0.04884089156985283 0.06506822258234024 0.036741625517606735
		endloop
	endfacet
	facet normal 0 0 1
		outer loop
			vertex 0.055555541068315506 0.026353532448410988 0.036741625517606735
			vertex 0.055555541068315506 0.03889355808496475 0.036741625517606735
			vertex 0.0307020153850317 0.05656764656305313 0.036741625517606735
		endloop
	endfacet
	facet normal 0 0 1
		outer loop
			vertex 0.055555541068315506 0.026353532448410988 0.036741625517606735
			vertex 0.0307020153850317 0.05656764656305313 0.036741625517606735
			vertex 0.021005919203162193 0.03870288282632828 0.036741625517606735
		endloop
	endfacet
	facet normal 0 0 1
		outer loop
			vertex 0.055555541068315506 0.026353532448410988 0.036741625517606735
			vertex 0.021005919203162193 0.03870288282632828 0.036741625517606735
			vertex 0.05415697768330574 0.026189232245087624 0.036741625517606735
		endloop
	endfacet
	facet normal 0 0 1
		outer loop
			vertex 0.0307020153850317 0.05656764656305313 0.036741625517606735
			vertex 0.055375177413225174 0.10202724486589432 0.036741625517606735
			vertex -0.03322378918528557 0.10202724486589432 0.036741625517606735
		endloop
	endfacet
	facet normal 0 0 1
		outer loop
			vertex 0.055555541068315506 0.03889355808496475 0.036741625517606735
			vertex 0.055555541068315506 0.10202724486589432 0.036741625517606735
			vertex 0.055375177413225174 0.10202724486589432 0.036741625517606735
		endloop
	endfacet
	facet normal 0 0 1
		outer loop
			vertex 0.055555541068315506 0.03889355808496475 0.036741625517606735
			vertex 0.055375177413225174 0.10202724486589432 0.036741625517606735
			vertex 0.0307020153850317 0.05656764656305313 0.036741625517606735
		endloop
	endfacet
	facet normal 0 0 -1
		outer loop
			vertex 0.055555541068315506 -0.003196632955223322 -0.036741629242897034
			vertex 0.055555541068315506 -0.017357593402266502 -0.036741629242897034
			vertex 0.006373485084623098 0.007628181483596563 -0.036741629242897034
		endloop
	endfacet
	facet normal 0 0 -1
		outer loop
			vertex 0.055555541068315506 -0.001995301339775324 -0.036741629242897034
			vertex 0.055555541068315506 -0.003196632955223322 -0.036741629242897034
			vertex 0.006373485084623098 0.007628181483596563 -0.036741629242897034
		endloop
	endfacet
	facet normal 0 0 -1
		outer loop
			vertex 0.055555541068315506 -0.001995301339775324 -0.036741629242897034
			vertex 0.006373485084623098 0.007628181483596563 -0.036741629242897034
			vertex -0.0054429867304861546 0.013631277717649937 -0.036741629242897034
		endloop
	endfacet
	facet normal 0 0 -1
		outer loop
			vertex 0.055555541068315506 -0.001995301339775324 -0.036741629242897034
			vertex -0.0054429867304861546 0.013631277717649937 -0.036741629242897034
			vertex -0.008656035177409649 0.015948528423905373 -0.036741629242897034
		endloop
	endfacet
	facet normal 0 0 -1
		outer loop
			vertex 0.055555541068315506 -0.001995301339775324 -0.036741629242897034
			vertex -0.008656035177409649 0.015948528423905373 -0.036741629242897034
			vertex -0.012201826088130474 0.022481495514512062 -0.036741629242897034
		endloop
	endfacet
	facet normal 0 0 -1
		outer loop
			vertex -0.023247042670845985 0.02647150494158268 -0.036741629242897034
			vertex -0.012201826088130474 0.022481495514512062 -0.036741629242897034
			vertex -0.008656035177409649 0.015948528423905373 -0.036741629242897034
		endloop
	endfacet
	facet normal 0 0 -1
		outer loop
			vertex -0.04542938992381096 0.03624378889799118 -0.036741629242897034
			vertex -0.04090310260653496 0.03483600169420242 -0.036741629242897034
			vertex -0.04490349814295769 0.03501494973897934 -0.036741629242897034
		endloop
	endfacet
	facet normal 0 0 -1
		outer loop
			vertex 0.055555541068315506 0.00483495881780982 -0.036741629242897034
			vertex 0.055555541068315506 -0.001995301339775324 -0.036741629242897034
			vertex -0.012201826088130474 0.022481495514512062 -0.036741629242897034
		endloop
	endfacet
	facet normal 0 0 -1
		outer loop
			vertex 0.055555541068315506 0.00483495881780982 -0.036741629242897034
			vertex -0.012201826088130474 0.022481495514512062 -0.036741629242897034
			vertex -0.01444001030176878 0.026605332270264626 -0.036741629242897034
		endloop
	endfacet
	facet normal 0 0 -1
		outer loop
			vertex -0.03025154210627079 0.03152310103178024 -0.036741629242897034
			vertex -0.01444001030176878 0.026605332270264626 -0.036741629242897034
			vertex -0.012201826088130474 0.022481495514512062 -0.036741629242897034
		endloop
	endfacet
	facet normal 0 0 -1
		outer loop
			vertex -0.03025154210627079 0.03152310103178024 -0.036741629242897034
			vertex -0.012201826088130474 0.022481495514512062 -0.036741629242897034
			vertex -0.023247042670845985 0.02647150494158268 -0.036741629242897034
		endloop
	endfacet
	facet normal 0 0 -1
		outer loop
			vertex -0.04090310260653496 0.03483600169420242 -0.036741629242897034
			vertex -0.04542938992381096 0.03624378889799118 -0.036741629242897034
			vertex -0.04928283020853996 0.04524839669466019 -0.036741629242897034
		endloop
	endfacet
	facet normal 0 0 -1
		outer loop
			vertex -0.04090310260653496 0.03483600169420242 -0.036741629242897034
			vertex -0.04928283020853996 0.04524839669466019 -0.036741629242897034
			vertex -0.034444522112607956 0.03454706817865372 -0.036741629242897034
		endloop
	endfacet
	facet normal 0 0 -1
		outer loop
			vertex 0.055555541068315506 0.018282482400536537 -0.036741629242897034
			vertex 0.055555541068315506 0.00483495881780982 -0.036741629242897034
			vertex -0.01444001030176878 0.026605332270264626 -0.036741629242897034
		endloop
	endfacet
	facet normal 0 0 -1
		outer loop
			vertex 0.055555541068315506 0.018282482400536537 -0.036741629242897034
			vertex -0.01444001030176878 0.026605332270264626 -0.036741629242897034
			vertex -0.02082223631441593 0.03836435824632645 -0.036741629242897034
		endloop
	endfacet
	facet normal 0 0 -1
		outer loop
			vertex -0.04957170411944389 0.04592344909906387 -0.036741629242897034
			vertex -0.02082223631441593 0.03836435824632645 -0.036741629242897034
			vertex -0.01444001030176878 0.026605332270264626 -0.036741629242897034
		endloop
	endfacet
	facet normal 0 0 -1
		outer loop
			vertex -0.04957170411944389 0.04592344909906387 -0.036741629242897034
			vertex -0.01444001030176878 0.026605332270264626 -0.036741629242897034
			vertex -0.03025154210627079 0.03152310103178024 -0.036741629242897034
		endloop
	endfacet
	facet normal 0 0 -1
		outer loop
			vertex -0.04957170411944389 0.04592344909906387 -0.036741629242897034
			vertex -0.03025154210627079 0.03152310103178024 -0.036741629242897034
			vertex -0.04928283020853996 0.04524839669466019 -0.036741629242897034
		endloop
	endfacet
	facet normal 0 0 -1
		outer loop
			vertex -0.0555555634200573 0.0474967435002327 -0.036741629242897034
			vertex -0.0555555634200573 0.047981150448322296 -0.036741629242897034
			vertex -0.0544748418033123 0.04721260815858841 -0.036741629242897034
		endloop
	endfacet
	facet normal 0 0 -1
		outer loop
			vertex -0.0555555634200573 0.047981150448322296 -0.036741629242897034
			vertex -0.0555555634200573 0.049772270023822784 -0.036741629242897034
			vertex -0.05059010908007622 0.04619119316339493 -0.036741629242897034
		endloop
	endfacet
	facet normal 0 0 -1
		outer loop
			vertex -0.0555555634200573 0.047981150448322296 -0.036741629242897034
			vertex -0.05059010908007622 0.04619119316339493 -0.036741629242897034
			vertex -0.0544748418033123 0.04721260815858841 -0.036741629242897034
		endloop
	endfacet
	facet normal 0 0 -1
		outer loop
			vertex 0.055555541068315506 0.020502367988228798 -0.036741629242897034
			vertex 0.055555541068315506 0.018282482400536537 -0.036741629242897034
			vertex 0.049782801419496536 0.019800299778580666 -0.036741629242897034
		endloop
	endfacet
	facet normal 0 0 -1
		outer loop
			vertex 0.055555541068315506 0.10202724486589432 -0.036741629242897034
			vertex 0.055555541068315506 0.020502367988228798 -0.036741629242897034
			vertex 0.049782801419496536 0.019800299778580666 -0.036741629242897034
		endloop
	endfacet
	facet normal 0 0 -1
		outer loop
			vertex 0.055555541068315506 0.10202724486589432 -0.036741629242897034
			vertex 0.049782801419496536 0.019800299778580666 -0.036741629242897034
			vertex -0.02082223631441593 0.03836435824632645 -0.036741629242897034
		endloop
	endfacet
	facet normal 0 0 -1
		outer loop
			vertex 0.055555541068315506 0.10202724486589432 -0.036741629242897034
			vertex -0.02082223631441593 0.03836435824632645 -0.036741629242897034
			vertex -0.055375199764966965 0.10202724486589432 -0.036741629242897034
		endloop
	endfacet
	facet normal 0 0 -1
		outer loop
			vertex -0.0555555634200573 0.049772270023822784 -0.036741629242897034
			vertex -0.0555555634200573 0.10202724486589432 -0.036741629242897034
			vertex -0.055375199764966965 0.10202724486589432 -0.036741629242897034
		endloop
	endfacet
	facet normal 0 0 -1
		outer loop
			vertex -0.0555555634200573 0.049772270023822784 -0.036741629242897034
			vertex -0.055375199764966965 0.10202724486589432 -0.036741629242897034
			vertex -0.02082223631441593 0.03836435824632645 -0.036741629242897034
		endloop
	endfacet
	facet normal 0 0 -1
		outer loop
			vertex -0.0555555634200573 0.049772270023822784 -0.036741629242897034
			vertex -0.02082223631441593 0.03836435824632645 -0.036741629242897034
			vertex -0.05059010908007622 0.04619119316339493 -0.036741629242897034
		endloop
	endfacet
endsolid exported
