solid exported
	facet normal -0.23314239663534414 -0.37813263946711323 0.895913126291139
		outer loop
			vertex 0.02648412249982357 0.07754526287317276 -0.007755042985081673
			vertex 0.010136266238987446 0.07992688566446304 -0.011004028841853142
			vertex 0.030531814321875572 0.07467348128557205 -0.007913792505860329
		endloop
	endfacet
	facet normal -0.4971488659020425 -0.39059322795624135 0.7747773456981281
		outer loop
			vertex 0.010136266238987446 0.07992688566446304 -0.011004028841853142
			vertex 0.02860741876065731 0.09509146958589554 0.00849330984055996
			vertex 0.007795800920575857 0.09080440551042557 -0.007022077217698097
		endloop
	endfacet
	facet normal -0.21762465988769414 -0.659735198808882 0.7192975565517864
		outer loop
			vertex 0.02860741876065731 0.09509146958589554 0.00849330984055996
			vertex 0.010136266238987446 0.07992688566446304 -0.011004028841853142
			vertex 0.0256913211196661 0.08214668184518814 -0.004261838272213936
		endloop
	endfacet
	facet normal -0.238972453540618 -0.6129242144491537 0.7531374866454765
		outer loop
			vertex 0.0256913211196661 0.08214668184518814 -0.004261838272213936
			vertex 0.010136266238987446 0.07992688566446304 -0.011004028841853142
			vertex 0.02648412249982357 0.07754526287317276 -0.007755042985081673
		endloop
	endfacet
	facet normal -0.2676956811061741 -0.952011094208764 0.14837081525870788
		outer loop
			vertex 0.030531814321875572 0.07467348128557205 -0.007913792505860329
			vertex 0.010136266238987446 0.07992688566446304 -0.011004028841853142
			vertex 0.01142351794987917 0.07891944795846939 -0.01514567993581295
		endloop
	endfacet
	facet normal -0.15376747850077963 -0.9700241005979895 0.18817227961252417
		outer loop
			vertex -0.031199881806969643 0.08148673921823502 -0.036741625517606735
			vertex -0.03015250898897648 0.08132071048021317 -0.036741625517606735
			vertex 0.01142351794987917 0.07891944795846939 -0.01514567993581295
		endloop
	endfacet
	facet normal -0.15376334712117545 -0.9700263900219137 0.18816385344466974
		outer loop
			vertex -0.031199881806969643 0.08148673921823502 -0.036741625517606735
			vertex 0.01142351794987917 0.07891944795846939 -0.01514567993581295
			vertex 0.010136266238987446 0.07992688566446304 -0.011004028841853142
		endloop
	endfacet
	facet normal -0.5080475562038871 -0.3660862266990836 0.7796592558653334
		outer loop
			vertex -0.032020192593336105 0.08256036788225174 -0.036741625517606735
			vertex -0.031763117760419846 0.08220360428094864 -0.036741625517606735
			vertex -0.026256391778588295 0.08378986269235611 -0.032408468425273895
		endloop
	endfacet
	facet normal -0.4971459482344901 -0.39060415512203345 0.7747737089985902
		outer loop
			vertex -0.031763117760419846 0.08220360428094864 -0.036741625517606735
			vertex -0.031199881806969643 0.08148673921823502 -0.036741625517606735
			vertex 0.010136266238987446 0.07992688566446304 -0.011004028841853142
		endloop
	endfacet
	facet normal -0.4971481666739482 -0.3905920425836145 0.7747783919567531
		outer loop
			vertex -0.031763117760419846 0.08220360428094864 -0.036741625517606735
			vertex 0.010136266238987446 0.07992688566446304 -0.011004028841853142
			vertex -0.018077263608574867 0.08547470718622208 -0.026310818269848824
		endloop
	endfacet
	facet normal -0.49715115203637905 -0.390584909922116 0.7747800721301714
		outer loop
			vertex -0.031763117760419846 0.08220360428094864 -0.036741625517606735
			vertex -0.018077263608574867 0.08547470718622208 -0.026310818269848824
			vertex -0.026256391778588295 0.08378986269235611 -0.032408468425273895
		endloop
	endfacet
	facet normal -0.4971480983522497 -0.39059324074090307 0.7747778317635714
		outer loop
			vertex 0.010136266238987446 0.07992688566446304 -0.011004028841853142
			vertex 0.007795800920575857 0.09080440551042557 -0.007022077217698097
			vertex -0.018077263608574867 0.08547470718622208 -0.026310818269848824
		endloop
	endfacet
	facet normal 0 1 0
		outer loop
			vertex -0.0460481159389019 0.10202724486589432 -0.036741625517606735
			vertex 0.03705551102757454 0.10202724486589432 0.017410730943083763
			vertex 0.040117133408784866 0.10202724486589432 -0.036741625517606735
		endloop
	endfacet
	facet normal 0 1 0
		outer loop
			vertex 0.040117133408784866 0.10202724486589432 -0.036741625517606735
			vertex 0.03705551102757454 0.10202724486589432 0.017410730943083763
			vertex 0.055555541068315506 0.10202724486589432 0.020598625764250755
		endloop
	endfacet
	facet normal 0 1 0
		outer loop
			vertex 0.040117133408784866 0.10202724486589432 -0.036741625517606735
			vertex 0.055555541068315506 0.10202724486589432 0.020598625764250755
			vertex 0.055555541068315506 0.10202724486589432 -0.036741625517606735
		endloop
	endfacet
	facet normal -0.21763616603247735 -0.6596905430345603 0.7193350308899539
		outer loop
			vertex 0.055555541068315506 0.10205105692148209 0.023029787465929985
			vertex 0.03705551102757454 0.10202724486589432 0.017410730943083763
			vertex 0.055555541068315506 0.10202724486589432 0.0230079498142004
		endloop
	endfacet
	facet normal 0.001687691813078834 0.9999506130807921 -0.009794033678326142
		outer loop
			vertex 0.055555541068315506 0.10205105692148209 0.023029787465929985
			vertex 0.055555541068315506 0.10202724486589432 0.020598625764250755
			vertex 0.03705551102757454 0.10202724486589432 0.017410730943083763
		endloop
	endfacet
	facet normal 1 0 0
		outer loop
			vertex 0.055555541068315506 0.10205105692148209 0.023029787465929985
			vertex 0.055555541068315506 0.10202724486589432 0.0230079498142004
			vertex 0.055555541068315506 0.10202724486589432 0.020598625764250755
		endloop
	endfacet
	facet normal -0.23314288805707878 -0.3781333094116938 0.8959127156491109
		outer loop
			vertex 0.055555541068315506 0.07331002503633499 -0.001977348467335105
			vertex 0.02648412249982357 0.07754526287317276 -0.007755042985081673
			vertex 0.030531814321875572 0.07467348128557205 -0.007913792505860329
		endloop
	endfacet
	facet normal -0.23314276468387937 -0.37813617938169414 0.8959115364354745
		outer loop
			vertex 0.055555541068315506 0.07331002503633499 -0.001977348467335105
			vertex 0.030531814321875572 0.07467348128557205 -0.007913792505860329
			vertex 0.055555541068315506 0.06822798401117325 -0.00412231869995594
		endloop
	endfacet
	facet normal -0.5080429847527728 -0.36609903326794757 0.7796562213461573
		outer loop
			vertex 0.03705551102757454 0.10202724486589432 0.017410730943083763
			vertex 0.006186952348798513 0.10202724486589432 -0.002703973790630698
			vertex 0.007229616399854422 0.09343571215867996 -0.0060588289052248
		endloop
	endfacet
	facet normal -0.4971487559131119 -0.3905924464495218 0.7747778102595755
		outer loop
			vertex 0.02860741876065731 0.09509146958589554 0.00849330984055996
			vertex 0.03705551102757454 0.10202724486589432 0.017410730943083763
			vertex 0.007229616399854422 0.09343571215867996 -0.0060588289052248
		endloop
	endfacet
	facet normal -0.4971475433350608 -0.39059658842731954 0.7747765002017376
		outer loop
			vertex 0.02860741876065731 0.09509146958589554 0.00849330984055996
			vertex 0.007229616399854422 0.09343571215867996 -0.0060588289052248
			vertex 0.007795800920575857 0.09080440551042557 -0.007022077217698097
		endloop
	endfacet
	facet normal -0.21762503750782583 -0.6597343196207837 0.7192982486870236
		outer loop
			vertex 0.055555541068315506 0.10202724486589432 0.0230079498142004
			vertex 0.03705551102757454 0.10202724486589432 0.017410730943083763
			vertex 0.02860741876065731 0.09509146958589554 0.00849330984055996
		endloop
	endfacet
	facet normal -0.21762442833309892 -0.6597352624691154 0.7192975682202044
		outer loop
			vertex 0.055555541068315506 0.10202724486589432 0.0230079498142004
			vertex 0.02860741876065731 0.09509146958589554 0.00849330984055996
			vertex 0.0256913211196661 0.08214668184518814 -0.004261838272213936
		endloop
	endfacet
	facet normal -0.2176251448822529 -0.659734654099056 0.7192979094198575
		outer loop
			vertex 0.055555541068315506 0.10202724486589432 0.0230079498142004
			vertex 0.0256913211196661 0.08214668184518814 -0.004261838272213936
			vertex 0.055555541068315506 0.08640844374895096 0.008682502433657646
		endloop
	endfacet
	facet normal -0.2389726108172495 -0.6129242077813831 0.7531374421675976
		outer loop
			vertex 0.055555541068315506 0.08640844374895096 0.008682502433657646
			vertex 0.0256913211196661 0.08214668184518814 -0.004261838272213936
			vertex 0.02648412249982357 0.07754526287317276 -0.007755042985081673
		endloop
	endfacet
	facet normal -0.23897277881958517 -0.6129239487804394 0.7531375996420832
		outer loop
			vertex 0.055555541068315506 0.08640844374895096 0.008682502433657646
			vertex 0.02648412249982357 0.07754526287317276 -0.007755042985081673
			vertex 0.055555541068315506 0.07331002503633499 -0.001977348467335105
		endloop
	endfacet
	facet normal 1 0 0
		outer loop
			vertex 0.055555541068315506 0.07331002503633499 -0.001977348467335105
			vertex 0.055555541068315506 0.07604450732469559 -0.0008232387481257319
			vertex 0.055555541068315506 0.08640844374895096 0.008682502433657646
		endloop
	endfacet
	facet normal 1 0 0
		outer loop
			vertex 0.055555541068315506 0.10202724486589432 0.010143151506781578
			vertex 0.055555541068315506 0.10202724486589432 0.0230079498142004
			vertex 0.055555541068315506 0.07604450732469559 -0.0008232387481257319
		endloop
	endfacet
	facet normal -0.26769558010435124 -0.9520111049186589 0.14837092877025904
		outer loop
			vertex 0.01813577674329281 0.07366640120744705 -0.036741625517606735
			vertex 0.04912816360592842 0.06495166569948196 -0.036741625517606735
			vertex 0.055555541068315506 0.06413523107767105 -0.03038373775780201
		endloop
	endfacet
	facet normal -0.2676951986068045 -0.9520117015050051 0.14836778909321444
		outer loop
			vertex 0.01813577674329281 0.07366640120744705 -0.036741625517606735
			vertex 0.055555541068315506 0.06413523107767105 -0.03038373775780201
			vertex 0.055555541068315506 0.06822798401117325 -0.00412231869995594
		endloop
	endfacet
	facet normal -0.26769476785462315 -0.9520119049237181 0.148367261034141
		outer loop
			vertex 0.01813577674329281 0.07366640120744705 -0.036741625517606735
			vertex 0.055555541068315506 0.06822798401117325 -0.00412231869995594
			vertex 0.030531814321875572 0.07467348128557205 -0.007913792505860329
		endloop
	endfacet
	facet normal -0.26769449383651894 -0.952011999820836 0.14836714652086075
		outer loop
			vertex 0.01813577674329281 0.07366640120744705 -0.036741625517606735
			vertex 0.030531814321875572 0.07467348128557205 -0.007913792505860329
			vertex 0.01142351794987917 0.07891944795846939 -0.01514567993581295
		endloop
	endfacet
	facet normal -0.15376169259108668 -0.9700272463425745 0.18816079093309146
		outer loop
			vertex -0.03015250898897648 0.08132071048021317 -0.036741625517606735
			vertex 0.01813577674329281 0.07366640120744705 -0.036741625517606735
			vertex 0.01142351794987917 0.07891944795846939 -0.01514567993581295
		endloop
	endfacet
	facet normal -0.7061554375338587 -0.09080555257592968 0.7022099754793751
		outer loop
			vertex 0.0506356842815876 0.05322853475809097 -0.036741625517606735
			vertex 0.055555541068315506 0.05416778475046158 -0.03167266771197319
			vertex 0.055555541068315506 0.06413523107767105 -0.03038373775780201
		endloop
	endfacet
	facet normal -0.706153990899751 -0.09080694797343167 0.7022112497931838
		outer loop
			vertex 0.0506356842815876 0.05322853475809097 -0.036741625517606735
			vertex 0.055555541068315506 0.06413523107767105 -0.03038373775780201
			vertex 0.04912816360592842 0.06495166569948196 -0.036741625517606735
		endloop
	endfacet
	facet normal -0.24083179650379002 -0.8853040763836103 0.39778981652541084
		outer loop
			vertex 0.055555541068315506 0.05189017206430435 -0.036741625517606735
			vertex 0.055555541068315506 0.05416778475046158 -0.03167266771197319
			vertex 0.0506356842815876 0.05322853475809097 -0.036741625517606735
		endloop
	endfacet
	facet normal 1 0 0
		outer loop
			vertex 0.055555541068315506 0.05189017206430435 -0.036741625517606735
			vertex 0.055555541068315506 0.06314436346292496 -0.036741625517606735
			vertex 0.055555541068315506 0.06413523107767105 -0.03038373775780201
		endloop
	endfacet
	facet normal 1 0 0
		outer loop
			vertex 0.055555541068315506 0.05189017206430435 -0.036741625517606735
			vertex 0.055555541068315506 0.06413523107767105 -0.03038373775780201
			vertex 0.055555541068315506 0.05416778475046158 -0.03167266771197319
		endloop
	endfacet
	facet normal -0.508043260303832 -0.3660975284556961 0.7796567483953971
		outer loop
			vertex -0.03672797605395317 0.08909348398447037 -0.036741625517606735
			vertex -0.032020192593336105 0.08256036788225174 -0.036741625517606735
			vertex -0.026256391778588295 0.08378986269235611 -0.032408468425273895
		endloop
	endfacet
	facet normal -0.5080432610558088 -0.3660975315140831 0.7796567464692871
		outer loop
			vertex -0.03672797605395317 0.08909348398447037 -0.036741625517606735
			vertex -0.026256391778588295 0.08378986269235611 -0.032408468425273895
			vertex -0.019462058320641518 0.08574701100587845 -0.02706211246550083
		endloop
	endfacet
	facet normal -0.49714692223524276 -0.3905956574158009 0.7747773680999878
		outer loop
			vertex -0.019462058320641518 0.08574701100587845 -0.02706211246550083
			vertex -0.026256391778588295 0.08378986269235611 -0.032408468425273895
			vertex -0.018077263608574867 0.08547470718622208 -0.026310818269848824
		endloop
	endfacet
	facet normal -0.5080431469001793 -0.3660987117443848 0.779656266662986
		outer loop
			vertex 0.006186952348798513 0.10202724486589432 -0.002703973790630698
			vertex -0.0460481159389019 0.10202724486589432 -0.036741625517606735
			vertex -0.03672797605395317 0.08909348398447037 -0.036741625517606735
		endloop
	endfacet
	facet normal -0.5080432080413384 -0.366098574108485 0.7796562914507903
		outer loop
			vertex 0.006186952348798513 0.10202724486589432 -0.002703973790630698
			vertex -0.03672797605395317 0.08909348398447037 -0.036741625517606735
			vertex -0.019462058320641518 0.08574701100587845 -0.02706211246550083
		endloop
	endfacet
	facet normal -0.5080428947696607 -0.36609904338812604 0.7796562752292593
		outer loop
			vertex 0.006186952348798513 0.10202724486589432 -0.002703973790630698
			vertex -0.019462058320641518 0.08574701100587845 -0.02706211246550083
			vertex 0.007229616399854422 0.09343571215867996 -0.0060588289052248
		endloop
	endfacet
	facet normal -0.4971468810730194 -0.3905963792772054 0.7747770305932582
		outer loop
			vertex 0.007229616399854422 0.09343571215867996 -0.0060588289052248
			vertex -0.019462058320641518 0.08574701100587845 -0.02706211246550083
			vertex -0.018077263608574867 0.08547470718622208 -0.026310818269848824
		endloop
	endfacet
	facet normal -0.49714677578673194 -0.3905966012073807 0.7747769862677256
		outer loop
			vertex 0.007229616399854422 0.09343571215867996 -0.0060588289052248
			vertex -0.018077263608574867 0.08547470718622208 -0.026310818269848824
			vertex 0.007795800920575857 0.09080440551042557 -0.007022077217698097
		endloop
	endfacet
	facet normal 1 0 0
		outer loop
			vertex 0.055555541068315506 0.0652218833565712 -0.023411167785525322
			vertex 0.055555541068315506 0.10202724486589432 -0.03662233054637909
			vertex 0.055555541068315506 0.10202724486589432 0.010143151506781578
		endloop
	endfacet
	facet normal 1 0 0
		outer loop
			vertex 0.055555541068315506 0.0652218833565712 -0.023411167785525322
			vertex 0.055555541068315506 0.10202724486589432 0.010143151506781578
			vertex 0.055555541068315506 0.06822798401117325 -0.00412231869995594
		endloop
	endfacet
	facet normal 1 0 0
		outer loop
			vertex 0.055555541068315506 0.06314436346292496 -0.036741625517606735
			vertex 0.055555541068315506 0.10202724486589432 -0.036741625517606735
			vertex 0.055555541068315506 0.10202724486589432 -0.03662233054637909
		endloop
	endfacet
	facet normal 1 0 0
		outer loop
			vertex 0.055555541068315506 0.06314436346292496 -0.036741625517606735
			vertex 0.055555541068315506 0.10202724486589432 -0.03662233054637909
			vertex 0.055555541068315506 0.0652218833565712 -0.023411167785525322
		endloop
	endfacet
	facet normal 0 0 -1
		outer loop
			vertex -0.032020192593336105 0.08256036788225174 -0.036741625517606735
			vertex -0.03015250898897648 0.08132071048021317 -0.036741625517606735
			vertex -0.031199881806969643 0.08148673921823502 -0.036741625517606735
		endloop
	endfacet
	facet normal 0 0 -1
		outer loop
			vertex -0.032020192593336105 0.08256036788225174 -0.036741625517606735
			vertex -0.031199881806969643 0.08148673921823502 -0.036741625517606735
			vertex -0.031763117760419846 0.08220360428094864 -0.036741625517606735
		endloop
	endfacet
	facet normal 0 0 -1
		outer loop
			vertex 0.055555541068315506 0.06314436346292496 -0.036741625517606735
			vertex 0.055555541068315506 0.05189017206430435 -0.036741625517606735
			vertex 0.0506356842815876 0.05322853475809097 -0.036741625517606735
		endloop
	endfacet
	facet normal 0 0 -1
		outer loop
			vertex 0.055555541068315506 0.06314436346292496 -0.036741625517606735
			vertex 0.0506356842815876 0.05322853475809097 -0.036741625517606735
			vertex 0.04912816360592842 0.06495166569948196 -0.036741625517606735
		endloop
	endfacet
	facet normal 0 0 -1
		outer loop
			vertex -0.03015250898897648 0.08132071048021317 -0.036741625517606735
			vertex -0.032020192593336105 0.08256036788225174 -0.036741625517606735
			vertex -0.03672797605395317 0.08909348398447037 -0.036741625517606735
		endloop
	endfacet
	facet normal 0 0 -1
		outer loop
			vertex -0.03015250898897648 0.08132071048021317 -0.036741625517606735
			vertex -0.03672797605395317 0.08909348398447037 -0.036741625517606735
			vertex 0.01813577674329281 0.07366640120744705 -0.036741625517606735
		endloop
	endfacet
	facet normal 0 0 -1
		outer loop
			vertex 0.055555541068315506 0.10202724486589432 -0.036741625517606735
			vertex 0.055555541068315506 0.06314436346292496 -0.036741625517606735
			vertex -0.03672797605395317 0.08909348398447037 -0.036741625517606735
		endloop
	endfacet
	facet normal 0 0 -1
		outer loop
			vertex 0.055555541068315506 0.10202724486589432 -0.036741625517606735
			vertex -0.03672797605395317 0.08909348398447037 -0.036741625517606735
			vertex -0.0460481159389019 0.10202724486589432 -0.036741625517606735
		endloop
	endfacet
endsolid exported
