solid exported
	facet normal -0.9873274441422921 0.1542720633312859 -0.03721086560343312
		outer loop
			vertex 0.02316283993422985 0.06738034635782242 0.036741629242897034
			vertex 0.031187502667307854 0.1023595854640007 -0.03115924634039402
			vertex 0.03139789402484894 0.1023595854640007 -0.036741625517606735
		endloop
	endfacet
	facet normal -0.9873275052869823 0.15427161938471193 -0.037211083781618665
		outer loop
			vertex 0.02316283993422985 0.06738034635782242 0.036741629242897034
			vertex 0.03139789402484894 0.1023595854640007 -0.036741625517606735
			vertex 0.022379381582140923 0.04464174062013626 -0.036741625517606735
		endloop
	endfacet
	facet normal -0.9873274803980541 0.1542717675492642 -0.037211129894910565
		outer loop
			vertex 0.02316283993422985 0.06738034635782242 0.036741629242897034
			vertex 0.022379381582140923 0.04464174062013626 -0.036741625517606735
			vertex 0.02176394872367382 0.05842754989862442 0.036741629242897034
		endloop
	endfacet
	facet normal -0.9855149808776671 0.16681692844690327 -0.03053415872809196
		outer loop
			vertex 0.031187502667307854 0.1023595854640007 -0.03115924634039402
			vertex 0.02316283993422985 0.06738034635782242 0.036741629242897034
			vertex 0.02414977364242077 0.07321091741323471 0.036741629242897034
		endloop
	endfacet
	facet normal -0.9855148639867835 0.16681768030396382 -0.030533823853496473
		outer loop
			vertex 0.031187502667307854 0.1023595854640007 -0.03115924634039402
			vertex 0.02414977364242077 0.07321091741323471 0.036741629242897034
			vertex 0.030012084171175957 0.1023595854640007 0.006778759881854057
		endloop
	endfacet
	facet normal -0.5824122205854471 -0.8072940771292615 0.09524850835967374
		outer loop
			vertex 0.0555555522441864 -0.04192527383565903 -0.036741625517606735
			vertex 0.0555555522441864 -0.03800184279680252 -0.003487953683361411
			vertex 0.029300985857844353 -0.020771021023392677 -0.01798308826982975
		endloop
	endfacet
	facet normal -0.5824134479477701 -0.8072934745161893 0.09524611096086429
		outer loop
			vertex 0.0555555522441864 -0.04192527383565903 -0.036741625517606735
			vertex 0.029300985857844353 -0.020771021023392677 -0.01798308826982975
			vertex 0.05091531574726105 -0.038577623665332794 -0.036741625517606735
		endloop
	endfacet
	facet normal -0.9723778056645849 0.23087121719375178 0.03434944136958254
		outer loop
			vertex 0.03107052855193615 0.1023595854640007 0.036741629242897034
			vertex 0.030012084171175957 0.1023595854640007 0.006778759881854057
			vertex 0.02414977364242077 0.07321091741323471 0.036741629242897034
		endloop
	endfacet
	facet normal -0.923617040195012 -0.3780719013711182 0.06319177521666508
		outer loop
			vertex 0.02176394872367382 0.05842754989862442 0.036741629242897034
			vertex 0.0218654852360487 0.05615340918302536 0.024619674310088158
			vertex 0.022924644872546196 0.05559200793504715 0.036741629242897034
		endloop
	endfacet
	facet normal -0.9236180928251795 -0.3780691404275878 0.0631929083230307
		outer loop
			vertex 0.022379381582140923 0.04464174062013626 -0.036741625517606735
			vertex 0.023617861792445183 0.04161614924669266 -0.036741625517606735
			vertex 0.024844763800501823 0.04097481817007065 -0.022646350786089897
		endloop
	endfacet
	facet normal -0.9236174909141727 -0.37807069612901234 0.0631923983239488
		outer loop
			vertex 0.022379381582140923 0.04464174062013626 -0.036741625517606735
			vertex 0.024844763800501823 0.04097481817007065 -0.022646350786089897
			vertex 0.02219305746257305 0.048815302550792694 -0.014495132490992546
		endloop
	endfacet
	facet normal -0.9943498464344267 -0.06545090689842081 0.08357369013036552
		outer loop
			vertex 0.024844763800501823 0.04097481817007065 -0.022646350786089897
			vertex 0.023617861792445183 0.04161614924669266 -0.036741625517606735
			vertex 0.02527427487075329 0.01645142398774624 -0.036741625517606735
		endloop
	endfacet
	facet normal -0.9943497367636545 -0.06545142275661849 0.08357459097827208
		outer loop
			vertex 0.024844763800501823 0.04097481817007065 -0.022646350786089897
			vertex 0.02527427487075329 0.01645142398774624 -0.036741625517606735
			vertex 0.026347531005740166 0.006530469749122858 -0.03174188360571861
		endloop
	endfacet
	facet normal -0.9029943922361823 -0.2672344182374053 -0.33643259844926354
		outer loop
			vertex 0.028240708634257317 0.006427741143852472 -0.036741625517606735
			vertex 0.026347531005740166 0.006530469749122858 -0.03174188360571861
			vertex 0.02527427487075329 0.01645142398774624 -0.036741625517606735
		endloop
	endfacet
	facet normal -0.6179225842197901 -0.7539622784295774 0.22296314183384
		outer loop
			vertex 0.0555555522441864 -0.02610510028898716 0.036741629242897034
			vertex 0.031449079513549805 -0.006348231341689825 0.036741629242897034
			vertex 0.029300985857844353 -0.020771021023392677 -0.01798308826982975
		endloop
	endfacet
	facet normal -0.6179220373973465 -0.7539628197707771 0.22296282672681347
		outer loop
			vertex 0.0555555522441864 -0.02610510028898716 0.036741629242897034
			vertex 0.029300985857844353 -0.020771021023392677 -0.01798308826982975
			vertex 0.0555555522441864 -0.03800184279680252 -0.003487953683361411
		endloop
	endfacet
	facet normal -0.7187109488507016 -0.667570202699998 -0.19443404143618395
		outer loop
			vertex 0.05091531574726105 -0.038577623665332794 -0.036741625517606735
			vertex 0.029300985857844353 -0.020771021023392677 -0.01798308826982975
			vertex 0.03718501329421997 -0.02379547990858555 -0.036741625517606735
		endloop
	endfacet
	facet normal -0.9236179615393345 -0.37806957590894863 0.06319222178363489
		outer loop
			vertex 0.024844763800501823 0.04097481817007065 -0.022646350786089897
			vertex 0.030014051124453545 0.03827270120382309 0.036741629242897034
			vertex 0.022924644872546196 0.05559200793504715 0.036741629242897034
		endloop
	endfacet
	facet normal -0.9236182827321897 -0.37806882391140323 0.063192026309411
		outer loop
			vertex 0.024844763800501823 0.04097481817007065 -0.022646350786089897
			vertex 0.022924644872546196 0.05559200793504715 0.036741629242897034
			vertex 0.0218654852360487 0.05615340918302536 0.024619674310088158
		endloop
	endfacet
	facet normal -0.9236173143425941 -0.378071059472035 0.06319280525713938
		outer loop
			vertex 0.024844763800501823 0.04097481817007065 -0.022646350786089897
			vertex 0.0218654852360487 0.05615340918302536 0.024619674310088158
			vertex 0.02219305746257305 0.048815302550792694 -0.014495132490992546
		endloop
	endfacet
	facet normal -0.9943499291431146 -0.06545082022196608 0.08357277394794875
		outer loop
			vertex 0.029300985857844353 -0.020771021023392677 -0.01798308826982975
			vertex 0.032437652349472046 0.0014525712467730045 0.036741629242897034
			vertex 0.030014051124453545 0.03827270120382309 0.036741629242897034
		endloop
	endfacet
	facet normal -0.9943499141218566 -0.06545091630727749 0.08357287742081362
		outer loop
			vertex 0.029300985857844353 -0.020771021023392677 -0.01798308826982975
			vertex 0.030014051124453545 0.03827270120382309 0.036741629242897034
			vertex 0.024844763800501823 0.04097481817007065 -0.022646350786089897
		endloop
	endfacet
	facet normal -0.9943499283268308 -0.06545093096363555 0.08357269693159491
		outer loop
			vertex 0.029300985857844353 -0.020771021023392677 -0.01798308826982975
			vertex 0.024844763800501823 0.04097481817007065 -0.022646350786089897
			vertex 0.026347531005740166 0.006530469749122858 -0.03174188360571861
		endloop
	endfacet
	facet normal -0.9920488398242949 0.12571944025463727 0.00580704273546184
		outer loop
			vertex 0.031449079513549805 -0.006348231341689825 0.036741629242897034
			vertex 0.032437652349472046 0.0014525712467730045 0.036741629242897034
			vertex 0.029300985857844353 -0.020771021023392677 -0.01798308826982975
		endloop
	endfacet
	facet normal -0.9029944351649778 -0.2672333974093977 -0.3364332940868273
		outer loop
			vertex 0.03718501329421997 -0.02379547990858555 -0.036741625517606735
			vertex 0.029300985857844353 -0.020771021023392677 -0.01798308826982975
			vertex 0.026347531005740166 0.006530469749122858 -0.03174188360571861
		endloop
	endfacet
	facet normal -0.9029946095840669 -0.26723355794575065 -0.336432698425367
		outer loop
			vertex 0.03718501329421997 -0.02379547990858555 -0.036741625517606735
			vertex 0.026347531005740166 0.006530469749122858 -0.03174188360571861
			vertex 0.028240708634257317 0.006427741143852472 -0.036741625517606735
		endloop
	endfacet
	facet normal 1 0 0
		outer loop
			vertex 0.0555555522441864 -0.024124840274453163 0.036741629242897034
			vertex 0.0555555522441864 -0.02610510028898716 0.036741629242897034
			vertex 0.0555555522441864 -0.03342262655496597 0.01199694536626339
		endloop
	endfacet
	facet normal 1 0 0
		outer loop
			vertex 0.0555555522441864 -0.024124840274453163 0.036741629242897034
			vertex 0.0555555522441864 -0.03342262655496597 0.01199694536626339
			vertex 0.0555555522441864 -0.028552928939461708 0.010248979553580284
		endloop
	endfacet
	facet normal 1 0 0
		outer loop
			vertex 0.0555555522441864 -0.04192527383565903 -0.036741625517606735
			vertex 0.0555555522441864 -0.03640713542699814 -0.036741625517606735
			vertex 0.0555555522441864 -0.028552928939461708 0.010248979553580284
		endloop
	endfacet
	facet normal 1 0 0
		outer loop
			vertex 0.0555555522441864 -0.04192527383565903 -0.036741625517606735
			vertex 0.0555555522441864 -0.028552928939461708 0.010248979553580284
			vertex 0.0555555522441864 -0.03342262655496597 0.01199694536626339
		endloop
	endfacet
	facet normal 1 0 0
		outer loop
			vertex 0.0555555522441864 -0.04192527383565903 -0.036741625517606735
			vertex 0.0555555522441864 -0.03342262655496597 0.01199694536626339
			vertex 0.0555555522441864 -0.03800184279680252 -0.003487953683361411
		endloop
	endfacet
	facet normal 1 0 0
		outer loop
			vertex 0.0555555522441864 0.09628800302743912 -0.03456225246191025
			vertex 0.0555555522441864 0.1023595854640007 -0.036741625517606735
			vertex 0.0555555522441864 0.1023595854640007 -0.033719368278980255
		endloop
	endfacet
	facet normal 1 0 0
		outer loop
			vertex 0.0555555522441864 0.08058924973011017 -0.036741625517606735
			vertex 0.0555555522441864 0.1023595854640007 -0.036741625517606735
			vertex 0.0555555522441864 0.09628800302743912 -0.03456225246191025
		endloop
	endfacet
	facet normal 1 0 0
		outer loop
			vertex 0.0555555522441864 0.1023595854640007 0.036741629242897034
			vertex 0.0555555522441864 -0.024124840274453163 0.036741629242897034
			vertex 0.0555555522441864 -0.028552928939461708 0.010248979553580284
		endloop
	endfacet
	facet normal 1 0 0
		outer loop
			vertex 0.0555555522441864 0.1023595854640007 0.036741629242897034
			vertex 0.0555555522441864 -0.028552928939461708 0.010248979553580284
			vertex 0.0555555522441864 0.09628800302743912 -0.03456225246191025
		endloop
	endfacet
	facet normal 1 0 0
		outer loop
			vertex 0.0555555522441864 0.1023595854640007 0.036741629242897034
			vertex 0.0555555522441864 0.09628800302743912 -0.03456225246191025
			vertex 0.0555555522441864 0.1023595854640007 -0.033719368278980255
		endloop
	endfacet
	facet normal 1 0 0
		outer loop
			vertex 0.0555555522441864 -0.03640713542699814 -0.036741625517606735
			vertex 0.0555555522441864 0.08058924973011017 -0.036741625517606735
			vertex 0.0555555522441864 0.09628800302743912 -0.03456225246191025
		endloop
	endfacet
	facet normal 1 0 0
		outer loop
			vertex 0.0555555522441864 -0.03640713542699814 -0.036741625517606735
			vertex 0.0555555522441864 0.09628800302743912 -0.03456225246191025
			vertex 0.0555555522441864 -0.028552928939461708 0.010248979553580284
		endloop
	endfacet
	facet normal 0 1 0
		outer loop
			vertex 0.03085431270301342 0.1023595854640007 -0.0204054806381464
			vertex 0.03353123366832733 0.1023595854640007 -0.02217586152255535
			vertex 0.03201723098754883 0.1023595854640007 -0.036741625517606735
		endloop
	endfacet
	facet normal 0 1 0
		outer loop
			vertex 0.03085431270301342 0.1023595854640007 -0.0204054806381464
			vertex 0.03201723098754883 0.1023595854640007 -0.036741625517606735
			vertex 0.03139789402484894 0.1023595854640007 -0.036741625517606735
		endloop
	endfacet
	facet normal 0 1 0
		outer loop
			vertex 0.03085431270301342 0.1023595854640007 -0.0204054806381464
			vertex 0.03139789402484894 0.1023595854640007 -0.036741625517606735
			vertex 0.031187502667307854 0.1023595854640007 -0.03115924634039402
		endloop
	endfacet
	facet normal 0 1 0
		outer loop
			vertex 0.03107052855193615 0.1023595854640007 0.036741629242897034
			vertex 0.03800366818904877 0.1023595854640007 0.036741629242897034
			vertex 0.03716205060482025 0.1023595854640007 0.012754810974001884
		endloop
	endfacet
	facet normal 0 1 0
		outer loop
			vertex 0.03107052855193615 0.1023595854640007 0.036741629242897034
			vertex 0.03716205060482025 0.1023595854640007 0.012754810974001884
			vertex 0.03353123366832733 0.1023595854640007 -0.02217586152255535
		endloop
	endfacet
	facet normal 0 1 0
		outer loop
			vertex 0.03107052855193615 0.1023595854640007 0.036741629242897034
			vertex 0.03353123366832733 0.1023595854640007 -0.02217586152255535
			vertex 0.03085431270301342 0.1023595854640007 -0.0204054806381464
		endloop
	endfacet
	facet normal 0 1 0
		outer loop
			vertex 0.03107052855193615 0.1023595854640007 0.036741629242897034
			vertex 0.03085431270301342 0.1023595854640007 -0.0204054806381464
			vertex 0.030012084171175957 0.1023595854640007 0.006778759881854057
		endloop
	endfacet
	facet normal 0 1 0
		outer loop
			vertex 0.03800366818904877 0.1023595854640007 0.036741629242897034
			vertex 0.03965531289577484 0.1023595854640007 0.036741629242897034
			vertex 0.03716205060482025 0.1023595854640007 0.012754810974001884
		endloop
	endfacet
	facet normal 0 1 0
		outer loop
			vertex 0.03367696702480316 0.1023595854640007 -0.036741625517606735
			vertex 0.03201723098754883 0.1023595854640007 -0.036741625517606735
			vertex 0.03237384557723999 0.1023595854640007 -0.03331070765852928
		endloop
	endfacet
	facet normal 0 1 0
		outer loop
			vertex 0.05087508261203766 0.1023595854640007 -0.03364619240164757
			vertex 0.0555555522441864 0.1023595854640007 -0.036741625517606735
			vertex 0.03367696702480316 0.1023595854640007 -0.036741625517606735
		endloop
	endfacet
	facet normal 0 1 0
		outer loop
			vertex 0.05087508261203766 0.1023595854640007 -0.03364619240164757
			vertex 0.03367696702480316 0.1023595854640007 -0.036741625517606735
			vertex 0.032391518354415894 0.1023595854640007 -0.03335721790790558
		endloop
	endfacet
	facet normal 0 1 0
		outer loop
			vertex 0.0555555522441864 0.1023595854640007 -0.033719368278980255
			vertex 0.0555555522441864 0.1023595854640007 -0.036741625517606735
			vertex 0.05087508261203766 0.1023595854640007 -0.03364619240164757
		endloop
	endfacet
	facet normal 0 1 0
		outer loop
			vertex 0.03353123366832733 0.1023595854640007 -0.02217586152255535
			vertex 0.05087508261203766 0.1023595854640007 -0.03364619240164757
			vertex 0.032391518354415894 0.1023595854640007 -0.03335721790790558
		endloop
	endfacet
	facet normal 0 1 0
		outer loop
			vertex 0.03353123366832733 0.1023595854640007 -0.02217586152255535
			vertex 0.032391518354415894 0.1023595854640007 -0.03335721790790558
			vertex 0.03237384557723999 0.1023595854640007 -0.03331070765852928
		endloop
	endfacet
	facet normal 0 1 0
		outer loop
			vertex 0.03965531289577484 0.1023595854640007 0.036741629242897034
			vertex 0.0555555522441864 0.1023595854640007 0.036741629242897034
			vertex 0.0555555522441864 0.1023595854640007 -0.033719368278980255
		endloop
	endfacet
	facet normal 0 1 0
		outer loop
			vertex 0.03965531289577484 0.1023595854640007 0.036741629242897034
			vertex 0.0555555522441864 0.1023595854640007 -0.033719368278980255
			vertex 0.05087508261203766 0.1023595854640007 -0.03364619240164757
		endloop
	endfacet
	facet normal 0 1 0
		outer loop
			vertex 0.03965531289577484 0.1023595854640007 0.036741629242897034
			vertex 0.05087508261203766 0.1023595854640007 -0.03364619240164757
			vertex 0.03353123366832733 0.1023595854640007 -0.02217586152255535
		endloop
	endfacet
	facet normal 0 0 1
		outer loop
			vertex 0.03800366818904877 0.1023595854640007 0.036741629242897034
			vertex 0.03107052855193615 0.1023595854640007 0.036741629242897034
			vertex 0.02414977364242077 0.07321091741323471 0.036741629242897034
		endloop
	endfacet
	facet normal 0 0 1
		outer loop
			vertex 0.03800366818904877 0.1023595854640007 0.036741629242897034
			vertex 0.02414977364242077 0.07321091741323471 0.036741629242897034
			vertex 0.02316283993422985 0.06738034635782242 0.036741629242897034
		endloop
	endfacet
	facet normal 0 0 1
		outer loop
			vertex 0.03800366818904877 0.1023595854640007 0.036741629242897034
			vertex 0.02316283993422985 0.06738034635782242 0.036741629242897034
			vertex 0.02176394872367382 0.05842754989862442 0.036741629242897034
		endloop
	endfacet
	facet normal 0 0 1
		outer loop
			vertex 0.03800366818904877 0.1023595854640007 0.036741629242897034
			vertex 0.02176394872367382 0.05842754989862442 0.036741629242897034
			vertex 0.022924644872546196 0.05559200793504715 0.036741629242897034
		endloop
	endfacet
	facet normal 0 0 1
		outer loop
			vertex 0.03800366818904877 0.1023595854640007 0.036741629242897034
			vertex 0.022924644872546196 0.05559200793504715 0.036741629242897034
			vertex 0.03657492995262146 0.09374894201755524 0.036741629242897034
		endloop
	endfacet
	facet normal 0 0 1
		outer loop
			vertex 0.03965531289577484 0.1023595854640007 0.036741629242897034
			vertex 0.03800366818904877 0.1023595854640007 0.036741629242897034
			vertex 0.03657492995262146 0.09374894201755524 0.036741629242897034
		endloop
	endfacet
	facet normal 0 0 1
		outer loop
			vertex 0.031449079513549805 -0.006348231341689825 0.036741629242897034
			vertex 0.033036768436431885 -0.007649475242942572 0.036741629242897034
			vertex 0.032437652349472046 0.0014525712467730045 0.036741629242897034
		endloop
	endfacet
	facet normal 0 0 1
		outer loop
			vertex 0.0555555522441864 -0.02610510028898716 0.036741629242897034
			vertex 0.0555555522441864 -0.024124840274453163 0.036741629242897034
			vertex 0.030014051124453545 0.03827270120382309 0.036741629242897034
		endloop
	endfacet
	facet normal 0 0 1
		outer loop
			vertex 0.0555555522441864 -0.02610510028898716 0.036741629242897034
			vertex 0.030014051124453545 0.03827270120382309 0.036741629242897034
			vertex 0.033036768436431885 -0.007649475242942572 0.036741629242897034
		endloop
	endfacet
	facet normal 0 0 1
		outer loop
			vertex 0.026040760800242424 0.04797937721014023 0.036741629242897034
			vertex 0.0555555522441864 0.1023595854640007 0.036741629242897034
			vertex 0.03965531289577484 0.1023595854640007 0.036741629242897034
		endloop
	endfacet
	facet normal 0 0 1
		outer loop
			vertex 0.026040760800242424 0.04797937721014023 0.036741629242897034
			vertex 0.03965531289577484 0.1023595854640007 0.036741629242897034
			vertex 0.022924644872546196 0.05559200793504715 0.036741629242897034
		endloop
	endfacet
	facet normal 0 0 1
		outer loop
			vertex 0.0555555522441864 -0.024124840274453163 0.036741629242897034
			vertex 0.0555555522441864 0.1023595854640007 0.036741629242897034
			vertex 0.026040760800242424 0.04797937721014023 0.036741629242897034
		endloop
	endfacet
	facet normal 0 0 -1
		outer loop
			vertex 0.03091759793460369 0.0992857962846756 -0.036741625517606735
			vertex 0.03139789402484894 0.1023595854640007 -0.036741625517606735
			vertex 0.03201723098754883 0.1023595854640007 -0.036741625517606735
		endloop
	endfacet
	facet normal 0 0 -1
		outer loop
			vertex 0.028940526768565178 0.08663259446620941 -0.036741625517606735
			vertex 0.03091759793460369 0.0992857962846756 -0.036741625517606735
			vertex 0.03201723098754883 0.1023595854640007 -0.036741625517606735
		endloop
	endfacet
	facet normal 0 0 -1
		outer loop
			vertex 0.028940526768565178 0.08663259446620941 -0.036741625517606735
			vertex 0.03201723098754883 0.1023595854640007 -0.036741625517606735
			vertex 0.03367696702480316 0.1023595854640007 -0.036741625517606735
		endloop
	endfacet
	facet normal 0 0 -1
		outer loop
			vertex 0.028940526768565178 0.08663259446620941 -0.036741625517606735
			vertex 0.03367696702480316 0.1023595854640007 -0.036741625517606735
			vertex 0.03346872329711914 0.09868446737527847 -0.036741625517606735
		endloop
	endfacet
	facet normal 0 0 -1
		outer loop
			vertex 0.023617861792445183 0.04161614924669266 -0.036741625517606735
			vertex 0.029430119320750237 0.027416890487074852 -0.036741625517606735
			vertex 0.028240708634257317 0.006427741143852472 -0.036741625517606735
		endloop
	endfacet
	facet normal 0 0 -1
		outer loop
			vertex 0.023617861792445183 0.04161614924669266 -0.036741625517606735
			vertex 0.028240708634257317 0.006427741143852472 -0.036741625517606735
			vertex 0.02527427487075329 0.01645142398774624 -0.036741625517606735
		endloop
	endfacet
	facet normal 0 0 -1
		outer loop
			vertex 0.022379381582140923 0.04464174062013626 -0.036741625517606735
			vertex 0.028940526768565178 0.08663259446620941 -0.036741625517606735
			vertex 0.03346872329711914 0.09868446737527847 -0.036741625517606735
		endloop
	endfacet
	facet normal 0 0 -1
		outer loop
			vertex 0.022379381582140923 0.04464174062013626 -0.036741625517606735
			vertex 0.03346872329711914 0.09868446737527847 -0.036741625517606735
			vertex 0.029430119320750237 0.027416890487074852 -0.036741625517606735
		endloop
	endfacet
	facet normal 0 0 -1
		outer loop
			vertex 0.0555555522441864 -0.03640713542699814 -0.036741625517606735
			vertex 0.0555555522441864 -0.04192527383565903 -0.036741625517606735
			vertex 0.05091531574726105 -0.038577623665332794 -0.036741625517606735
		endloop
	endfacet
	facet normal 0 0 -1
		outer loop
			vertex 0.0555555522441864 -0.03640713542699814 -0.036741625517606735
			vertex 0.05091531574726105 -0.038577623665332794 -0.036741625517606735
			vertex 0.03718501329421997 -0.02379547990858555 -0.036741625517606735
		endloop
	endfacet
	facet normal 0 0 -1
		outer loop
			vertex 0.0555555522441864 -0.03640713542699814 -0.036741625517606735
			vertex 0.03718501329421997 -0.02379547990858555 -0.036741625517606735
			vertex 0.028240708634257317 0.006427741143852472 -0.036741625517606735
		endloop
	endfacet
	facet normal 0 0 -1
		outer loop
			vertex 0.0555555522441864 -0.03640713542699814 -0.036741625517606735
			vertex 0.028240708634257317 0.006427741143852472 -0.036741625517606735
			vertex 0.029430119320750237 0.027416890487074852 -0.036741625517606735
		endloop
	endfacet
	facet normal 0 0 -1
		outer loop
			vertex 0.0555555522441864 0.1023595854640007 -0.036741625517606735
			vertex 0.0555555522441864 0.08058924973011017 -0.036741625517606735
			vertex 0.032294854521751404 0.07796966284513474 -0.036741625517606735
		endloop
	endfacet
	facet normal 0 0 -1
		outer loop
			vertex 0.0555555522441864 0.1023595854640007 -0.036741625517606735
			vertex 0.032294854521751404 0.07796966284513474 -0.036741625517606735
			vertex 0.03367696702480316 0.1023595854640007 -0.036741625517606735
		endloop
	endfacet
	facet normal 0 0 -1
		outer loop
			vertex 0.0555555522441864 0.08058924973011017 -0.036741625517606735
			vertex 0.0555555522441864 -0.03640713542699814 -0.036741625517606735
			vertex 0.029430119320750237 0.027416890487074852 -0.036741625517606735
		endloop
	endfacet
	facet normal 0 0 -1
		outer loop
			vertex 0.0555555522441864 0.08058924973011017 -0.036741625517606735
			vertex 0.029430119320750237 0.027416890487074852 -0.036741625517606735
			vertex 0.032294854521751404 0.07796966284513474 -0.036741625517606735
		endloop
	endfacet
endsolid exported
