solid exported
	facet normal -0.9859217508465037 0.16358986183522412 0.03459274942089732
		outer loop
			vertex 0.052145376801490784 -0.02411685697734356 -0.0037048046942800283
			vertex 0.0555555522441864 -0.010346613824367523 0.028368216007947922
			vertex 0.0555555522441864 -0.004413811024278402 0.0003118629683740437
		endloop
	endfacet
	facet normal -0.9859217517569906 0.16359001345732516 0.03459200643876499
		outer loop
			vertex 0.052145376801490784 -0.02411685697734356 -0.0037048046942800283
			vertex 0.0555555522441864 -0.004413811024278402 0.0003118629683740437
			vertex 0.053021401166915894 -0.018286092206835747 -0.006311285775154829
		endloop
	endfacet
	facet normal -0.9723791784360971 0.23086250575362957 0.03436912540487742
		outer loop
			vertex 0.039728254079818726 -0.07264532148838043 0.00862852856516838
			vertex 0.05529746413230896 -0.011254005134105682 0.036741625517606735
			vertex 0.0555555522441864 -0.010166953317821026 0.036741625517606735
		endloop
	endfacet
	facet normal -0.9723778390716489 0.23087110262176117 0.03434926573542667
		outer loop
			vertex 0.039728254079818726 -0.07264532148838043 0.00862852856516838
			vertex 0.0555555522441864 -0.010166953317821026 0.036741625517606735
			vertex 0.0555555522441864 -0.009616252034902573 0.033040206879377365
		endloop
	endfacet
	facet normal -0.9723778352991043 0.23087112901258539 0.03434919515042795
		outer loop
			vertex 0.039728254079818726 -0.07264532148838043 0.00862852856516838
			vertex 0.0555555522441864 -0.009616252034902573 0.033040206879377365
			vertex 0.048751264810562134 -0.03281937167048454 -0.003624636447057128
		endloop
	endfacet
	facet normal -0.9480288217683608 0.1024835510955889 0.3012282769783268
		outer loop
			vertex 0.05454719066619873 -0.018194444477558136 0.036741625517606735
			vertex 0.05529746413230896 -0.011254005134105682 0.036741625517606735
			vertex 0.039728254079818726 -0.07264532148838043 0.00862852856516838
		endloop
	endfacet
	facet normal -0.9480284059915439 0.10248259427231562 0.3012299110386429
		outer loop
			vertex 0.05454719066619873 -0.018194444477558136 0.036741625517606735
			vertex 0.039728254079818726 -0.07264532148838043 0.00862852856516838
			vertex 0.04309886693954468 -0.08432983607053757 0.023211728781461716
		endloop
	endfacet
	facet normal -0.9303310042151312 0.3623203703533431 -0.05664072583470322
		outer loop
			vertex 0.048751264810562134 -0.03281937167048454 -0.003624636447057128
			vertex 0.0555555522441864 -0.009616252034902573 0.033040206879377365
			vertex 0.0555555522441864 -0.010346613824367523 0.028368216007947922
		endloop
	endfacet
	facet normal -0.9303306419201097 0.3623211977193859 -0.05664138405535492
		outer loop
			vertex 0.048751264810562134 -0.03281937167048454 -0.003624636447057128
			vertex 0.0555555522441864 -0.010346613824367523 0.028368216007947922
			vertex 0.052145376801490784 -0.02411685697734356 -0.0037048046942800283
		endloop
	endfacet
	facet normal 1 0 0
		outer loop
			vertex 0.0555555522441864 -0.010166953317821026 0.036741625517606735
			vertex 0.0555555522441864 -0.012117256410419941 0.036741625517606735
			vertex 0.0555555522441864 -0.010346613824367523 0.028368216007947922
		endloop
	endfacet
	facet normal 1 0 0
		outer loop
			vertex 0.0555555522441864 -0.010166953317821026 0.036741625517606735
			vertex 0.0555555522441864 -0.010346613824367523 0.028368216007947922
			vertex 0.0555555522441864 -0.009616252034902573 0.033040206879377365
		endloop
	endfacet
	facet normal -0.9480287077810937 0.10248285926420023 0.30122887109296786
		outer loop
			vertex 0.05454719066619873 -0.018194444477558136 0.036741625517606735
			vertex 0.04309886693954468 -0.08432983607053757 0.023211728781461716
			vertex 0.04622600972652435 -0.09517042338848114 0.036741625517606735
		endloop
	endfacet
	facet normal 1 0 0
		outer loop
			vertex 0.0555555522441864 -0.012117256410419941 0.036741625517606735
			vertex 0.0555555522441864 -0.07155484706163406 0.036741625517606735
			vertex 0.0555555522441864 -0.041044339537620544 0.014732714742422104
		endloop
	endfacet
	facet normal 1 0 0
		outer loop
			vertex 0.0555555522441864 -0.012117256410419941 0.036741625517606735
			vertex 0.0555555522441864 -0.041044339537620544 0.014732714742422104
			vertex 0.0555555522441864 -0.0047049857676029205 0.001688849413767457
		endloop
	endfacet
	facet normal 1 0 0
		outer loop
			vertex 0.0555555522441864 -0.0047049857676029205 0.001688849413767457
			vertex 0.0555555522441864 -0.041044339537620544 0.014732714742422104
			vertex 0.0555555522441864 -0.016052182763814926 -0.003295484697446227
		endloop
	endfacet
	facet normal 1 0 0
		outer loop
			vertex 0.0555555522441864 -0.0047049857676029205 0.001688849413767457
			vertex 0.0555555522441864 -0.016052182763814926 -0.003295484697446227
			vertex 0.0555555522441864 -0.004413811024278402 0.0003118629683740437
		endloop
	endfacet
	facet normal -0.9859217822750971 0.16358967887477235 0.03459271890362521
		outer loop
			vertex 0.0555555522441864 -0.0014188638888299465 -0.013851303607225418
			vertex 0.053021401166915894 -0.018286092206835747 -0.006311285775154829
			vertex 0.0555555522441864 -0.004413811024278402 0.0003118629683740437
		endloop
	endfacet
	facet normal 1 0 0
		outer loop
			vertex 0.0555555522441864 -0.004413811024278402 0.0003118629683740437
			vertex 0.0555555522441864 -0.016052182763814926 -0.003295484697446227
			vertex 0.0555555522441864 -0.0014188638888299465 -0.013851303607225418
		endloop
	endfacet
	facet normal -0.9859216249625316 0.16359050390983662 0.03459330082208221
		outer loop
			vertex 0.0555555522441864 0.0034215287305414677 -0.036741625517606735
			vertex 0.04863269627094269 -0.038300901651382446 -0.036741625517606735
			vertex 0.052145376801490784 -0.02411685697734356 -0.0037048046942800283
		endloop
	endfacet
	facet normal -0.9859217518475161 0.16358985615055158 0.03459274777416053
		outer loop
			vertex 0.0555555522441864 0.0034215287305414677 -0.036741625517606735
			vertex 0.052145376801490784 -0.02411685697734356 -0.0037048046942800283
			vertex 0.0555555522441864 -0.0014188638888299465 -0.013851303607225418
		endloop
	endfacet
	facet normal -0.9723779596843556 0.23087059385586356 0.03434927091993141
		outer loop
			vertex 0.03107052855193615 -0.1023595854640007 -0.036741625517606735
			vertex 0.03219255805015564 -0.1023595854640007 -0.004978600423783064
			vertex 0.039728254079818726 -0.07264532148838043 0.00862852856516838
		endloop
	endfacet
	facet normal -0.9723778607529107 0.23087105863047955 0.03434894764668665
		outer loop
			vertex 0.03107052855193615 -0.1023595854640007 -0.036741625517606735
			vertex 0.039728254079818726 -0.07264532148838043 0.00862852856516838
			vertex 0.048751264810562134 -0.03281937167048454 -0.003624636447057128
		endloop
	endfacet
	facet normal -0.9723779078444965 0.23087076473167162 0.03434958992729383
		outer loop
			vertex 0.03107052855193615 -0.1023595854640007 -0.036741625517606735
			vertex 0.048751264810562134 -0.03281937167048454 -0.003624636447057128
			vertex 0.042605385184288025 -0.05377725511789322 -0.036741625517606735
		endloop
	endfacet
	facet normal -0.9480286244747108 0.1024824261993795 0.3012292806100977
		outer loop
			vertex 0.039728254079818726 -0.07264532148838043 0.00862852856516838
			vertex 0.03219255805015564 -0.1023595854640007 -0.004978600423783064
			vertex 0.03997783362865448 -0.1023595854640007 0.019523214548826218
		endloop
	endfacet
	facet normal -0.9480283760326996 0.10248268294114897 0.30122997515849287
		outer loop
			vertex 0.039728254079818726 -0.07264532148838043 0.00862852856516838
			vertex 0.03997783362865448 -0.1023595854640007 0.019523214548826218
			vertex 0.04309886693954468 -0.08432983607053757 0.023211728781461716
		endloop
	endfacet
	facet normal -0.9303306520468728 0.3623212035444959 -0.056641180461822295
		outer loop
			vertex 0.042605385184288025 -0.05377725511789322 -0.036741625517606735
			vertex 0.048751264810562134 -0.03281937167048454 -0.003624636447057128
			vertex 0.052145376801490784 -0.02411685697734356 -0.0037048046942800283
		endloop
	endfacet
	facet normal -0.9303311180183786 0.36232017277363326 -0.05664012047973071
		outer loop
			vertex 0.042605385184288025 -0.05377725511789322 -0.036741625517606735
			vertex 0.052145376801490784 -0.02411685697734356 -0.0037048046942800283
			vertex 0.04863269627094269 -0.038300901651382446 -0.036741625517606735
		endloop
	endfacet
	facet normal -0.948028674311826 0.10248278856240713 0.30122900048141954
		outer loop
			vertex 0.03997783362865448 -0.1023595854640007 0.019523214548826218
			vertex 0.04544885456562042 -0.1023595854640007 0.036741625517606735
			vertex 0.04622600972652435 -0.09517042338848114 0.036741625517606735
		endloop
	endfacet
	facet normal -0.9480286778220781 0.10248294793358347 0.30122893521334426
		outer loop
			vertex 0.03997783362865448 -0.1023595854640007 0.019523214548826218
			vertex 0.04622600972652435 -0.09517042338848114 0.036741625517606735
			vertex 0.04309886693954468 -0.08432983607053757 0.023211728781461716
		endloop
	endfacet
	facet normal 1 0 0
		outer loop
			vertex 0.0555555522441864 -0.07155484706163406 0.036741625517606735
			vertex 0.0555555522441864 -0.07926430553197861 0.036741625517606735
			vertex 0.0555555522441864 -0.0765751525759697 0.02748638018965721
		endloop
	endfacet
	facet normal 1 0 0
		outer loop
			vertex 0.0555555522441864 -0.07155484706163406 0.036741625517606735
			vertex 0.0555555522441864 -0.0765751525759697 0.02748638018965721
			vertex 0.0555555522441864 -0.041044339537620544 0.014732714742422104
		endloop
	endfacet
	facet normal 1 0 0
		outer loop
			vertex 0.0555555522441864 -0.0579134039580822 -0.036741625517606735
			vertex 0.0555555522441864 -0.003944561816751957 -0.036741625517606735
			vertex 0.0555555522441864 0.0009117378504015505 -0.02487276867032051
		endloop
	endfacet
	facet normal 1 0 0
		outer loop
			vertex 0.0555555522441864 -0.0579134039580822 -0.036741625517606735
			vertex 0.0555555522441864 0.0009117378504015505 -0.02487276867032051
			vertex 0.0555555522441864 -0.0014188638888299465 -0.013851303607225418
		endloop
	endfacet
	facet normal 1 0 0
		outer loop
			vertex 0.0555555522441864 -0.0579134039580822 -0.036741625517606735
			vertex 0.0555555522441864 -0.0014188638888299465 -0.013851303607225418
			vertex 0.0555555522441864 -0.041044339537620544 0.014732714742422104
		endloop
	endfacet
	facet normal 1 0 0
		outer loop
			vertex 0.0555555522441864 -0.0579134039580822 -0.036741625517606735
			vertex 0.0555555522441864 -0.041044339537620544 0.014732714742422104
			vertex 0.0555555522441864 -0.0765751525759697 0.02748638018965721
		endloop
	endfacet
	facet normal 1 0 0
		outer loop
			vertex 0.0555555522441864 -0.003944561816751957 -0.036741625517606735
			vertex 0.0555555522441864 0.0034215287305414677 -0.036741625517606735
			vertex 0.0555555522441864 0.0009117378504015505 -0.02487276867032051
		endloop
	endfacet
	facet normal 1 0 0
		outer loop
			vertex 0.0555555522441864 -0.07926430553197861 0.036741625517606735
			vertex 0.0555555522441864 -0.1023595854640007 0.036741625517606735
			vertex 0.0555555522441864 -0.0765751525759697 0.02748638018965721
		endloop
	endfacet
	facet normal 1 0 0
		outer loop
			vertex 0.0555555522441864 -0.1023595854640007 0.036741625517606735
			vertex 0.0555555522441864 -0.1023595854640007 -0.036741625517606735
			vertex 0.0555555522441864 -0.0579134039580822 -0.036741625517606735
		endloop
	endfacet
	facet normal 1 0 0
		outer loop
			vertex 0.0555555522441864 -0.1023595854640007 0.036741625517606735
			vertex 0.0555555522441864 -0.0579134039580822 -0.036741625517606735
			vertex 0.0555555522441864 -0.0765751525759697 0.02748638018965721
		endloop
	endfacet
	facet normal 0 -1 0
		outer loop
			vertex 0.03107052855193615 -0.1023595854640007 -0.036741625517606735
			vertex 0.03800368309020996 -0.1023595854640007 -0.036741625517606735
			vertex 0.03997783362865448 -0.1023595854640007 0.019523214548826218
		endloop
	endfacet
	facet normal 0 -1 0
		outer loop
			vertex 0.03107052855193615 -0.1023595854640007 -0.036741625517606735
			vertex 0.03997783362865448 -0.1023595854640007 0.019523214548826218
			vertex 0.03219255805015564 -0.1023595854640007 -0.004978600423783064
		endloop
	endfacet
	facet normal 0 -1 0
		outer loop
			vertex 0.04276001453399658 -0.1023595854640007 0.028279300779104233
			vertex 0.04668353497982025 -0.1023595854640007 0.030874114483594894
			vertex 0.04729342460632324 -0.1023595854640007 0.036741625517606735
		endloop
	endfacet
	facet normal 0 -1 0
		outer loop
			vertex 0.04276001453399658 -0.1023595854640007 0.028279300779104233
			vertex 0.04729342460632324 -0.1023595854640007 0.036741625517606735
			vertex 0.04544885456562042 -0.1023595854640007 0.036741625517606735
		endloop
	endfacet
	facet normal 0 -1 0
		outer loop
			vertex 0.03800368309020996 -0.1023595854640007 -0.036741625517606735
			vertex 0.03965531289577484 -0.1023595854640007 -0.036741625517606735
			vertex 0.04668353497982025 -0.1023595854640007 0.030874114483594894
		endloop
	endfacet
	facet normal 0 -1 0
		outer loop
			vertex 0.03800368309020996 -0.1023595854640007 -0.036741625517606735
			vertex 0.04668353497982025 -0.1023595854640007 0.030874114483594894
			vertex 0.04276001453399658 -0.1023595854640007 0.028279300779104233
		endloop
	endfacet
	facet normal 0 -1 0
		outer loop
			vertex 0.03800368309020996 -0.1023595854640007 -0.036741625517606735
			vertex 0.04276001453399658 -0.1023595854640007 0.028279300779104233
			vertex 0.03997783362865448 -0.1023595854640007 0.019523214548826218
		endloop
	endfacet
	facet normal 0 -1 0
		outer loop
			vertex 0.04668353497982025 -0.1023595854640007 0.030874114483594894
			vertex 0.0555555522441864 -0.1023595854640007 0.036741625517606735
			vertex 0.04729342460632324 -0.1023595854640007 0.036741625517606735
		endloop
	endfacet
	facet normal 0 -1 0
		outer loop
			vertex 0.03965531289577484 -0.1023595854640007 -0.036741625517606735
			vertex 0.0555555522441864 -0.1023595854640007 -0.036741625517606735
			vertex 0.0555555522441864 -0.1023595854640007 0.036741625517606735
		endloop
	endfacet
	facet normal 0 -1 0
		outer loop
			vertex 0.03965531289577484 -0.1023595854640007 -0.036741625517606735
			vertex 0.0555555522441864 -0.1023595854640007 0.036741625517606735
			vertex 0.04668353497982025 -0.1023595854640007 0.030874114483594894
		endloop
	endfacet
	facet normal 0 0 1
		outer loop
			vertex 0.05454719066619873 -0.018194444477558136 0.036741625517606735
			vertex 0.0555555522441864 -0.012117256410419941 0.036741625517606735
			vertex 0.0555555522441864 -0.010166953317821026 0.036741625517606735
		endloop
	endfacet
	facet normal 0 0 1
		outer loop
			vertex 0.05454719066619873 -0.018194444477558136 0.036741625517606735
			vertex 0.0555555522441864 -0.010166953317821026 0.036741625517606735
			vertex 0.05529746413230896 -0.011254005134105682 0.036741625517606735
		endloop
	endfacet
	facet normal 0 0 1
		outer loop
			vertex 0.04622600972652435 -0.09517042338848114 0.036741625517606735
			vertex 0.0555555522441864 -0.07155484706163406 0.036741625517606735
			vertex 0.0555555522441864 -0.012117256410419941 0.036741625517606735
		endloop
	endfacet
	facet normal 0 0 1
		outer loop
			vertex 0.04622600972652435 -0.09517042338848114 0.036741625517606735
			vertex 0.0555555522441864 -0.012117256410419941 0.036741625517606735
			vertex 0.05454719066619873 -0.018194444477558136 0.036741625517606735
		endloop
	endfacet
	facet normal 0 0 1
		outer loop
			vertex 0.04544885456562042 -0.1023595854640007 0.036741625517606735
			vertex 0.04729342460632324 -0.1023595854640007 0.036741625517606735
			vertex 0.0555555522441864 -0.07926430553197861 0.036741625517606735
		endloop
	endfacet
	facet normal 0 0 1
		outer loop
			vertex 0.04544885456562042 -0.1023595854640007 0.036741625517606735
			vertex 0.0555555522441864 -0.07926430553197861 0.036741625517606735
			vertex 0.0555555522441864 -0.07155484706163406 0.036741625517606735
		endloop
	endfacet
	facet normal 0 0 1
		outer loop
			vertex 0.04544885456562042 -0.1023595854640007 0.036741625517606735
			vertex 0.0555555522441864 -0.07155484706163406 0.036741625517606735
			vertex 0.04622600972652435 -0.09517042338848114 0.036741625517606735
		endloop
	endfacet
	facet normal 0 0 1
		outer loop
			vertex 0.04729342460632324 -0.1023595854640007 0.036741625517606735
			vertex 0.0555555522441864 -0.1023595854640007 0.036741625517606735
			vertex 0.0555555522441864 -0.07926430553197861 0.036741625517606735
		endloop
	endfacet
	facet normal 0 0 -1
		outer loop
			vertex 0.04863269627094269 -0.038300901651382446 -0.036741625517606735
			vertex 0.04211319983005524 -0.07759241759777069 -0.036741625517606735
			vertex 0.03852197527885437 -0.07097568362951279 -0.036741625517606735
		endloop
	endfacet
	facet normal 0 0 -1
		outer loop
			vertex 0.04863269627094269 -0.038300901651382446 -0.036741625517606735
			vertex 0.03852197527885437 -0.07097568362951279 -0.036741625517606735
			vertex 0.042605385184288025 -0.05377725511789322 -0.036741625517606735
		endloop
	endfacet
	facet normal 0 0 -1
		outer loop
			vertex 0.03800368309020996 -0.1023595854640007 -0.036741625517606735
			vertex 0.03107052855193615 -0.1023595854640007 -0.036741625517606735
			vertex 0.03852197527885437 -0.07097568362951279 -0.036741625517606735
		endloop
	endfacet
	facet normal 0 0 -1
		outer loop
			vertex 0.03800368309020996 -0.1023595854640007 -0.036741625517606735
			vertex 0.03852197527885437 -0.07097568362951279 -0.036741625517606735
			vertex 0.04211319983005524 -0.07759241759777069 -0.036741625517606735
		endloop
	endfacet
	facet normal 0 0 -1
		outer loop
			vertex 0.0555555522441864 -0.003944561816751957 -0.036741625517606735
			vertex 0.0555555522441864 -0.0579134039580822 -0.036741625517606735
			vertex 0.0459720641374588 -0.0847022756934166 -0.036741625517606735
		endloop
	endfacet
	facet normal 0 0 -1
		outer loop
			vertex 0.0555555522441864 -0.003944561816751957 -0.036741625517606735
			vertex 0.0459720641374588 -0.0847022756934166 -0.036741625517606735
			vertex 0.04211319983005524 -0.07759241759777069 -0.036741625517606735
		endloop
	endfacet
	facet normal 0 0 -1
		outer loop
			vertex 0.0555555522441864 -0.003944561816751957 -0.036741625517606735
			vertex 0.04211319983005524 -0.07759241759777069 -0.036741625517606735
			vertex 0.05448281764984131 -0.0030436331871896982 -0.036741625517606735
		endloop
	endfacet
	facet normal 0 0 -1
		outer loop
			vertex 0.03965531289577484 -0.1023595854640007 -0.036741625517606735
			vertex 0.03800368309020996 -0.1023595854640007 -0.036741625517606735
			vertex 0.04211319983005524 -0.07759241759777069 -0.036741625517606735
		endloop
	endfacet
	facet normal 0 0 -1
		outer loop
			vertex 0.03965531289577484 -0.1023595854640007 -0.036741625517606735
			vertex 0.04211319983005524 -0.07759241759777069 -0.036741625517606735
			vertex 0.0459720641374588 -0.0847022756934166 -0.036741625517606735
		endloop
	endfacet
	facet normal 0 0 -1
		outer loop
			vertex 0.0555555522441864 0.0034215287305414677 -0.036741625517606735
			vertex 0.0555555522441864 -0.003944561816751957 -0.036741625517606735
			vertex 0.05448281764984131 -0.0030436331871896982 -0.036741625517606735
		endloop
	endfacet
	facet normal 0 0 -1
		outer loop
			vertex 0.0555555522441864 -0.0579134039580822 -0.036741625517606735
			vertex 0.0555555522441864 -0.1023595854640007 -0.036741625517606735
			vertex 0.0459720641374588 -0.0847022756934166 -0.036741625517606735
		endloop
	endfacet
	facet normal 0 0 -1
		outer loop
			vertex 0.0555555522441864 -0.1023595854640007 -0.036741625517606735
			vertex 0.03965531289577484 -0.1023595854640007 -0.036741625517606735
			vertex 0.0459720641374588 -0.0847022756934166 -0.036741625517606735
		endloop
	endfacet
endsolid exported
