solid exported
	facet normal -0.46512037983798277 0.4055794715243461 -0.7868724957306633
		outer loop
			vertex 0.037128008902072906 -0.1023595854640007 0.02105492725968361
			vertex 0.04771237075328827 -0.09686682373285294 0.017629656940698624
			vertex 0.05020495504140854 -0.1023595854640007 0.013325143605470657
		endloop
	endfacet
	facet normal -0.5026629017305938 -0.008142714736612901 -0.8644441586479127
		outer loop
			vertex 0.020414680242538452 -0.03031785972416401 0.036741625517606735
			vertex 0.04439768195152283 -0.08956246078014374 0.023353885859251022
			vertex 0.02138122171163559 -0.08998402208089828 0.036741625517606735
		endloop
	endfacet
	facet normal -0.502662883533564 -0.008143738135511416 -0.864444159588636
		outer loop
			vertex 0.02138122171163559 -0.08998402208089828 0.036741625517606735
			vertex 0.04439768195152283 -0.08956246078014374 0.023353885859251022
			vertex 0.04623956233263016 -0.09411239624023438 0.022325720638036728
		endloop
	endfacet
	facet normal -0.5026627534118344 -0.00814265478026798 -0.8644442454580645
		outer loop
			vertex 0.02138122171163559 -0.08998402208089828 0.036741625517606735
			vertex 0.04623956233263016 -0.09411239624023438 0.022325720638036728
			vertex 0.021568603813648224 -0.10155150294303894 0.036741625517606735
		endloop
	endfacet
	facet normal -0.5181475568134202 0.6568533918710995 -0.5477834708675642
		outer loop
			vertex 0.020544201135635376 -0.1023595854640007 0.036741625517606735
			vertex 0.021568603813648224 -0.10155150294303894 0.036741625517606735
			vertex 0.04623956233263016 -0.09411239624023438 0.022325720638036728
		endloop
	endfacet
	facet normal -0.5181462829331104 0.6568589347553476 -0.5477780292369084
		outer loop
			vertex 0.020544201135635376 -0.1023595854640007 0.036741625517606735
			vertex 0.04623956233263016 -0.09411239624023438 0.022325720638036728
			vertex 0.04771237075328827 -0.09686682373285294 0.017629656940698624
		endloop
	endfacet
	facet normal -0.5181468393694852 0.6568574898949868 -0.5477792354774597
		outer loop
			vertex 0.020544201135635376 -0.1023595854640007 0.036741625517606735
			vertex 0.04771237075328827 -0.09686682373285294 0.017629656940698624
			vertex 0.037128008902072906 -0.1023595854640007 0.02105492725968361
		endloop
	endfacet
	facet normal -0.6893892502696478 -0.3506765217968209 -0.6338520637129271
		outer loop
			vertex -0.018345482647418976 0.1023595854640007 0.036741625517606735
			vertex -0.005917028523981571 0.1023595854640007 0.023224208503961563
			vertex -0.012807228602468967 0.09147202223539352 0.036741625517606735
		endloop
	endfacet
	facet normal -0.7488013254892198 -0.3530753709723935 -0.5609227730786959
		outer loop
			vertex 0.019355259835720062 0.0177031010389328 0.036741625517606735
			vertex 0.020715631544589996 0.015785975381731987 0.03613234683871269
			vertex 0.020155921578407288 0.016005059704184532 0.036741625517606735
		endloop
	endfacet
	facet normal -0.7091746065785256 0.12022019594352153 -0.6947074793547964
		outer loop
			vertex 0.020155921578407288 0.016005059704184532 0.036741625517606735
			vertex 0.020715631544589996 0.015785975381731987 0.03613234683871269
			vertex 0.01970716565847397 0.013357864692807198 0.036741625517606735
		endloop
	endfacet
	facet normal -0.4651208056315105 0.40557919340335313 -0.7868723873964445
		outer loop
			vertex 0.0555555522441864 -0.1023595854640007 0.01016240194439888
			vertex 0.05020495504140854 -0.1023595854640007 0.013325143605470657
			vertex 0.04771237075328827 -0.09686682373285294 0.017629656940698624
		endloop
	endfacet
	facet normal -0.4651197981773503 0.4055805152756991 -0.7868723015662449
		outer loop
			vertex 0.0555555522441864 -0.1023595854640007 0.01016240194439888
			vertex 0.04771237075328827 -0.09686682373285294 0.017629656940698624
			vertex 0.0555555522441864 -0.09279660880565643 0.015091482549905777
		endloop
	endfacet
	facet normal -0.5026610914375195 -0.00814273965186079 -0.8644452110722829
		outer loop
			vertex 0.020414680242538452 -0.03031785972416401 0.036741625517606735
			vertex 0.01970716565847397 0.013357864692807198 0.036741625517606735
			vertex 0.020715631544589996 0.015785975381731987 0.03613234683871269
		endloop
	endfacet
	facet normal -0.5026628999261571 -0.008142713952416322 -0.8644441597045558
		outer loop
			vertex 0.020414680242538452 -0.03031785972416401 0.036741625517606735
			vertex 0.020715631544589996 0.015785975381731987 0.03613234683871269
			vertex 0.0555555522441864 -0.07193845510482788 0.016699720174074173
		endloop
	endfacet
	facet normal -0.5026631446340796 -0.008142990336758832 -0.8644440148066004
		outer loop
			vertex 0.020414680242538452 -0.03031785972416401 0.036741625517606735
			vertex 0.0555555522441864 -0.07193845510482788 0.016699720174074173
			vertex 0.0555555522441864 -0.08935809880495071 0.016863811761140823
		endloop
	endfacet
	facet normal -0.5026625782418606 -0.008142540907374061 -0.8644443483896561
		outer loop
			vertex 0.020414680242538452 -0.03031785972416401 0.036741625517606735
			vertex 0.0555555522441864 -0.08935809880495071 0.016863811761140823
			vertex 0.04439768195152283 -0.08956246078014374 0.023353885859251022
		endloop
	endfacet
	facet normal -0.3286738182543945 0.07796467272350457 -0.9412199695082942
		outer loop
			vertex 0.0555555522441864 -0.0324295349419117 0.019972387701272964
			vertex 0.0555555522441864 -0.07193845510482788 0.016699720174074173
			vertex 0.020715631544589996 0.015785975381731987 0.03613234683871269
		endloop
	endfacet
	facet normal 1 0 0
		outer loop
			vertex 0.0555555522441864 -0.07196180522441864 0.02583044394850731
			vertex 0.0555555522441864 -0.051289405673742294 0.018410149961709976
			vertex 0.0555555522441864 -0.0324295349419117 0.019972387701272964
		endloop
	endfacet
	facet normal 1 0 0
		outer loop
			vertex 0.0555555522441864 -0.07196180522441864 0.02583044394850731
			vertex 0.0555555522441864 -0.0324295349419117 0.019972387701272964
			vertex 0.0555555522441864 -0.05534360557794571 0.03439602628350258
		endloop
	endfacet
	facet normal 1 0 0
		outer loop
			vertex 0.0555555522441864 -0.051289405673742294 0.018410149961709976
			vertex 0.0555555522441864 -0.07196180522441864 0.02583044394850731
			vertex 0.0555555522441864 -0.08935809880495071 0.016863811761140823
		endloop
	endfacet
	facet normal 1 0 0
		outer loop
			vertex 0.0555555522441864 -0.051289405673742294 0.018410149961709976
			vertex 0.0555555522441864 -0.08935809880495071 0.016863811761140823
			vertex 0.0555555522441864 -0.07193845510482788 0.016699720174074173
		endloop
	endfacet
	facet normal -0.5026619887942423 -0.008145049206905449 -0.8644446675148355
		outer loop
			vertex 0.0555555522441864 -0.08935809880495071 0.016863811761140823
			vertex 0.0555555522441864 -0.09130331873893738 0.016882140189409256
			vertex 0.04623956233263016 -0.09411239624023438 0.022325720638036728
		endloop
	endfacet
	facet normal -0.5026625600450322 -0.008143564305984471 -0.8644443493304637
		outer loop
			vertex 0.0555555522441864 -0.08935809880495071 0.016863811761140823
			vertex 0.04623956233263016 -0.09411239624023438 0.022325720638036728
			vertex 0.04439768195152283 -0.08956246078014374 0.023353885859251022
		endloop
	endfacet
	facet normal -0.5181457998437553 0.656859706223521 -0.547777561099599
		outer loop
			vertex 0.04623956233263016 -0.09411239624023438 0.022325720638036728
			vertex 0.0555555522441864 -0.09130331873893738 0.016882140189409256
			vertex 0.0555555522441864 -0.09279660880565643 0.015091482549905777
		endloop
	endfacet
	facet normal -0.5181460888327143 0.6568590716648196 -0.5477780486647785
		outer loop
			vertex 0.04623956233263016 -0.09411239624023438 0.022325720638036728
			vertex 0.0555555522441864 -0.09279660880565643 0.015091482549905777
			vertex 0.04771237075328827 -0.09686682373285294 0.017629656940698624
		endloop
	endfacet
	facet normal 1 0 0
		outer loop
			vertex 0.0555555522441864 -0.1023595854640007 0.016986284404993057
			vertex 0.0555555522441864 -0.1023595854640007 0.01016240194439888
			vertex 0.0555555522441864 -0.09279660880565643 0.015091482549905777
		endloop
	endfacet
	facet normal 1 0 0
		outer loop
			vertex 0.0555555522441864 -0.1023595854640007 0.016986284404993057
			vertex 0.0555555522441864 -0.09279660880565643 0.015091482549905777
			vertex 0.0555555522441864 -0.09130331873893738 0.016882140189409256
		endloop
	endfacet
	facet normal 1 0 0
		outer loop
			vertex 0.0555555522441864 -0.05906992405653 0.036741625517606735
			vertex 0.0555555522441864 -0.1023595854640007 0.036741625517606735
			vertex 0.0555555522441864 -0.07196180522441864 0.02583044394850731
		endloop
	endfacet
	facet normal 1 0 0
		outer loop
			vertex 0.0555555522441864 -0.05906992405653 0.036741625517606735
			vertex 0.0555555522441864 -0.07196180522441864 0.02583044394850731
			vertex 0.0555555522441864 -0.05534360557794571 0.03439602628350258
		endloop
	endfacet
	facet normal 1 0 0
		outer loop
			vertex 0.0555555522441864 -0.1023595854640007 0.036741625517606735
			vertex 0.0555555522441864 -0.1023595854640007 0.016986284404993057
			vertex 0.0555555522441864 -0.08935809880495071 0.016863811761140823
		endloop
	endfacet
	facet normal 1 0 0
		outer loop
			vertex 0.0555555522441864 -0.1023595854640007 0.036741625517606735
			vertex 0.0555555522441864 -0.08935809880495071 0.016863811761140823
			vertex 0.0555555522441864 -0.07196180522441864 0.02583044394850731
		endloop
	endfacet
	facet normal -0.6414908077448938 -0.22180776247815062 -0.7343642557227579
		outer loop
			vertex 0.007974348030984402 0.05061786621809006 0.036741625517606735
			vertex 0.02660423517227173 0.03474085405468941 0.02526332065463066
			vertex 0.020715631544589996 0.015785975381731987 0.03613234683871269
		endloop
	endfacet
	facet normal -0.6414907178988839 -0.22180772805837434 -0.7343643446022939
		outer loop
			vertex 0.007974348030984402 0.05061786621809006 0.036741625517606735
			vertex 0.020715631544589996 0.015785975381731987 0.03613234683871269
			vertex 0.019355259835720062 0.0177031010389328 0.036741625517606735
		endloop
	endfacet
	facet normal -0.3286730879600097 0.07796526933371994 -0.9412201751070534
		outer loop
			vertex 0.0555555522441864 -0.031678128987550735 0.020034629851579666
			vertex 0.0555555522441864 -0.0324295349419117 0.019972387701272964
			vertex 0.020715631544589996 0.015785975381731987 0.03613234683871269
		endloop
	endfacet
	facet normal 1 0 0
		outer loop
			vertex 0.0555555522441864 -0.03331277146935463 0.020528364926576614
			vertex 0.0555555522441864 -0.0324295349419117 0.019972387701272964
			vertex 0.0555555522441864 -0.031678128987550735 0.020034629851579666
		endloop
	endfacet
	facet normal -0.32867354554025463 0.07796488992405085 -0.9412200467484365
		outer loop
			vertex 0.0555555522441864 -0.01519155316054821 0.021400276571512222
			vertex 0.0555555522441864 -0.031678128987550735 0.020034629851579666
			vertex 0.020715631544589996 0.015785975381731987 0.03613234683871269
		endloop
	endfacet
	facet normal -0.3286740782805719 0.07796422834922948 -0.9412199155162017
		outer loop
			vertex 0.0555555522441864 -0.01519155316054821 0.021400276571512222
			vertex 0.020715631544589996 0.015785975381731987 0.03613234683871269
			vertex 0.02616117149591446 0.018932059407234192 0.034491363912820816
		endloop
	endfacet
	facet normal 0.03148189414300954 -0.5045336640363548 -0.8628178673365655
		outer loop
			vertex 0.02616117149591446 0.018932059407234192 0.034491363912820816
			vertex 0.020715631544589996 0.015785975381731987 0.03613234683871269
			vertex 0.02660423517227173 0.03474085405468941 0.02526332065463066
		endloop
	endfacet
	facet normal 1 0 0
		outer loop
			vertex 0.0555555522441864 -0.04904729872941971 0.03043271228671074
			vertex 0.0555555522441864 -0.03331277146935463 0.020528364926576614
			vertex 0.0555555522441864 -0.031678128987550735 0.020034629851579666
		endloop
	endfacet
	facet normal 1 0 0
		outer loop
			vertex 0.0555555522441864 -0.04904729872941971 0.03043271228671074
			vertex 0.0555555522441864 -0.031678128987550735 0.020034629851579666
			vertex 0.0555555522441864 -0.01519155316054821 0.021400276571512222
		endloop
	endfacet
	facet normal 1 0 0
		outer loop
			vertex 0.0555555522441864 -0.04904729872941971 0.03043271228671074
			vertex 0.0555555522441864 -0.01519155316054821 0.021400276571512222
			vertex 0.0555555522441864 -0.039071790874004364 0.03461194410920143
		endloop
	endfacet
	facet normal 1 0 0
		outer loop
			vertex 0.0555555522441864 -0.04292122274637222 0.036741625517606735
			vertex 0.0555555522441864 -0.05906992405653 0.036741625517606735
			vertex 0.0555555522441864 -0.04904729872941971 0.03043271228671074
		endloop
	endfacet
	facet normal 1 0 0
		outer loop
			vertex 0.0555555522441864 -0.04292122274637222 0.036741625517606735
			vertex 0.0555555522441864 -0.04904729872941971 0.03043271228671074
			vertex 0.0555555522441864 -0.039071790874004364 0.03461194410920143
		endloop
	endfacet
	facet normal -0.33483770884104436 -0.6431228391443307 -0.6886775170636948
		outer loop
			vertex 0.019962579011917114 0.1023595854640007 0.010641444474458694
			vertex -0.004690566100180149 0.0872461348772049 0.036741625517606735
			vertex -0.012807228602468967 0.09147202223539352 0.036741625517606735
		endloop
	endfacet
	facet normal -0.3348376018048071 -0.6431229771384368 -0.688677440239042
		outer loop
			vertex 0.019962579011917114 0.1023595854640007 0.010641444474458694
			vertex -0.012807228602468967 0.09147202223539352 0.036741625517606735
			vertex -0.005917028523981571 0.1023595854640007 0.023224208503961563
		endloop
	endfacet
	facet normal -0.6414907604541235 -0.22180757291460632 -0.7343643542886066
		outer loop
			vertex -0.004690566100180149 0.0872461348772049 0.036741625517606735
			vertex 0.019962579011917114 0.1023595854640007 0.010641444474458694
			vertex 0.047610990703105927 0.1023595854640007 -0.013510327786207199
		endloop
	endfacet
	facet normal -0.6414907654118481 -0.22180755717014175 -0.7343643547133369
		outer loop
			vertex -0.004690566100180149 0.0872461348772049 0.036741625517606735
			vertex 0.047610990703105927 0.1023595854640007 -0.013510327786207199
			vertex 0.02660423517227173 0.03474085405468941 0.02526332065463066
		endloop
	endfacet
	facet normal -0.6414906920700492 -0.2218074953697478 -0.7343644374459379
		outer loop
			vertex -0.004690566100180149 0.0872461348772049 0.036741625517606735
			vertex 0.02660423517227173 0.03474085405468941 0.02526332065463066
			vertex 0.007974348030984402 0.05061786621809006 0.036741625517606735
		endloop
	endfacet
	facet normal -0.32867359193973267 0.07796469753102275 -0.9412200464823995
		outer loop
			vertex 0.0555555522441864 -0.01519155316054821 0.021400276571512222
			vertex 0.02616117149591446 0.018932059407234192 0.034491363912820816
			vertex 0.0555555522441864 0.03591422364115715 0.025633554905653
		endloop
	endfacet
	facet normal 0.03148153207338214 -0.5045338103726551 -0.8628177949771102
		outer loop
			vertex 0.047610990703105927 0.1023595854640007 -0.013510327786207199
			vertex 0.0555555522441864 0.1023595854640007 -0.01322045549750328
			vertex 0.0555555522441864 0.03591422364115715 0.025633554905653
		endloop
	endfacet
	facet normal 0.031482189892481714 -0.5045337413556891 -0.862817811332847
		outer loop
			vertex 0.047610990703105927 0.1023595854640007 -0.013510327786207199
			vertex 0.0555555522441864 0.03591422364115715 0.025633554905653
			vertex 0.02616117149591446 0.018932059407234192 0.034491363912820816
		endloop
	endfacet
	facet normal 0.03148174810394444 -0.5045336633038622 -0.8628178730934501
		outer loop
			vertex 0.047610990703105927 0.1023595854640007 -0.013510327786207199
			vertex 0.02616117149591446 0.018932059407234192 0.034491363912820816
			vertex 0.02660423517227173 0.03474085405468941 0.02526332065463066
		endloop
	endfacet
	facet normal 1 0 0
		outer loop
			vertex 0.0555555522441864 0.1023595854640007 -0.01322045549750328
			vertex 0.0555555522441864 0.1023595854640007 -0.006664004642516375
			vertex 0.0555555522441864 0.06517849862575531 0.028057631105184555
		endloop
	endfacet
	facet normal 1 0 0
		outer loop
			vertex 0.0555555522441864 0.1023595854640007 -0.01322045549750328
			vertex 0.0555555522441864 0.06517849862575531 0.028057631105184555
			vertex 0.0555555522441864 0.03591422364115715 0.025633554905653
		endloop
	endfacet
	facet normal 1 0 0
		outer loop
			vertex 0.0555555522441864 0.0558793842792511 0.036741625517606735
			vertex 0.0555555522441864 -0.04292122274637222 0.036741625517606735
			vertex 0.0555555522441864 -0.01519155316054821 0.021400276571512222
		endloop
	endfacet
	facet normal 1 0 0
		outer loop
			vertex 0.0555555522441864 0.0558793842792511 0.036741625517606735
			vertex 0.0555555522441864 -0.01519155316054821 0.021400276571512222
			vertex 0.0555555522441864 0.06517849862575531 0.028057631105184555
		endloop
	endfacet
	facet normal 1 0 0
		outer loop
			vertex 0.0555555522441864 0.0749933272600174 0.018892038613557816
			vertex 0.0555555522441864 0.1023595854640007 -0.006664004642516375
			vertex 0.0555555522441864 0.1023595854640007 0.004720288794487715
		endloop
	endfacet
	facet normal 1 0 0
		outer loop
			vertex 0.0555555522441864 0.06517849862575531 0.028057631105184555
			vertex 0.0555555522441864 0.0749933272600174 0.018892038613557816
			vertex 0.0555555522441864 0.1023595854640007 0.004720288794487715
		endloop
	endfacet
	facet normal 1 0 0
		outer loop
			vertex 0.0555555522441864 0.06517849862575531 0.028057631105184555
			vertex 0.0555555522441864 0.1023595854640007 0.004720288794487715
			vertex 0.0555555522441864 0.1023595854640007 0.03113747015595436
		endloop
	endfacet
	facet normal 1 0 0
		outer loop
			vertex 0.0555555522441864 0.1023595854640007 0.036741625517606735
			vertex 0.0555555522441864 0.0558793842792511 0.036741625517606735
			vertex 0.0555555522441864 0.06517849862575531 0.028057631105184555
		endloop
	endfacet
	facet normal 1 0 0
		outer loop
			vertex 0.0555555522441864 0.1023595854640007 0.036741625517606735
			vertex 0.0555555522441864 0.06517849862575531 0.028057631105184555
			vertex 0.0555555522441864 0.1023595854640007 0.03113747015595436
		endloop
	endfacet
	facet normal 0 1 0
		outer loop
			vertex 0.0555555522441864 0.1023595854640007 -0.006664004642516375
			vertex 0.0555555522441864 0.1023595854640007 -0.01322045549750328
			vertex 0.047610990703105927 0.1023595854640007 -0.013510327786207199
		endloop
	endfacet
	facet normal 0 1 0
		outer loop
			vertex 0.0555555522441864 0.1023595854640007 -0.006664004642516375
			vertex 0.047610990703105927 0.1023595854640007 -0.013510327786207199
			vertex 0.019962579011917114 0.1023595854640007 0.010641444474458694
		endloop
	endfacet
	facet normal 0 1 0
		outer loop
			vertex 0.0555555522441864 0.1023595854640007 0.004720288794487715
			vertex 0.0555555522441864 0.1023595854640007 -0.006664004642516375
			vertex 0.004544517956674099 0.1023595854640007 0.01813775673508644
		endloop
	endfacet
	facet normal 0 1 0
		outer loop
			vertex -0.018345482647418976 0.1023595854640007 0.036741625517606735
			vertex 0.03950699418783188 0.1023595854640007 0.036741625517606735
			vertex 0.0555555522441864 0.1023595854640007 0.03113747015595436
		endloop
	endfacet
	facet normal 0 1 0
		outer loop
			vertex -0.018345482647418976 0.1023595854640007 0.036741625517606735
			vertex 0.0555555522441864 0.1023595854640007 0.03113747015595436
			vertex 0.0555555522441864 0.1023595854640007 0.004720288794487715
		endloop
	endfacet
	facet normal 0 1 0
		outer loop
			vertex -0.018345482647418976 0.1023595854640007 0.036741625517606735
			vertex 0.0555555522441864 0.1023595854640007 0.004720288794487715
			vertex 0.004544517956674099 0.1023595854640007 0.01813775673508644
		endloop
	endfacet
	facet normal 0 1 0
		outer loop
			vertex -0.018345482647418976 0.1023595854640007 0.036741625517606735
			vertex 0.004544517956674099 0.1023595854640007 0.01813775673508644
			vertex -0.005917028523981571 0.1023595854640007 0.023224208503961563
		endloop
	endfacet
	facet normal 0 1 0
		outer loop
			vertex 0.03950699418783188 0.1023595854640007 0.036741625517606735
			vertex 0.0555555522441864 0.1023595854640007 0.036741625517606735
			vertex 0.0555555522441864 0.1023595854640007 0.03113747015595436
		endloop
	endfacet
	facet normal 0 -1 0
		outer loop
			vertex 0.03495059162378311 -0.1023595854640007 0.02311454340815544
			vertex 0.039660170674324036 -0.1023595854640007 0.02622922882437706
			vertex 0.021581701934337616 -0.1023595854640007 0.036741625517606735
		endloop
	endfacet
	facet normal 0 -1 0
		outer loop
			vertex 0.03495059162378311 -0.1023595854640007 0.02311454340815544
			vertex 0.021581701934337616 -0.1023595854640007 0.036741625517606735
			vertex 0.020544201135635376 -0.1023595854640007 0.036741625517606735
		endloop
	endfacet
	facet normal 0 -1 0
		outer loop
			vertex 0.039660170674324036 -0.1023595854640007 0.02622922882437706
			vertex 0.03495059162378311 -0.1023595854640007 0.02311454340815544
			vertex 0.037128008902072906 -0.1023595854640007 0.02105492725968361
		endloop
	endfacet
	facet normal 0 -1 0
		outer loop
			vertex 0.039660170674324036 -0.1023595854640007 0.02622922882437706
			vertex 0.037128008902072906 -0.1023595854640007 0.02105492725968361
			vertex 0.05020495504140854 -0.1023595854640007 0.013325143605470657
		endloop
	endfacet
	facet normal 0 -1 0
		outer loop
			vertex 0.039660170674324036 -0.1023595854640007 0.02622922882437706
			vertex 0.05020495504140854 -0.1023595854640007 0.013325143605470657
			vertex 0.04957813397049904 -0.1023595854640007 0.020462069660425186
		endloop
	endfacet
	facet normal 0 -1 0
		outer loop
			vertex 0.039660170674324036 -0.1023595854640007 0.02622922882437706
			vertex 0.048554956912994385 -0.1023595854640007 0.03211178258061409
			vertex 0.048148319125175476 -0.1023595854640007 0.036741625517606735
		endloop
	endfacet
	facet normal 0 -1 0
		outer loop
			vertex 0.039660170674324036 -0.1023595854640007 0.02622922882437706
			vertex 0.048148319125175476 -0.1023595854640007 0.036741625517606735
			vertex 0.021581701934337616 -0.1023595854640007 0.036741625517606735
		endloop
	endfacet
	facet normal 0 -1 0
		outer loop
			vertex 0.048554956912994385 -0.1023595854640007 0.03211178258061409
			vertex 0.039660170674324036 -0.1023595854640007 0.02622922882437706
			vertex 0.04957813397049904 -0.1023595854640007 0.020462069660425186
		endloop
	endfacet
	facet normal 0 -1 0
		outer loop
			vertex 0.0555555522441864 -0.1023595854640007 0.01016240194439888
			vertex 0.0555555522441864 -0.1023595854640007 0.016986284404993057
			vertex 0.04957813397049904 -0.1023595854640007 0.020462069660425186
		endloop
	endfacet
	facet normal 0 -1 0
		outer loop
			vertex 0.0555555522441864 -0.1023595854640007 0.01016240194439888
			vertex 0.04957813397049904 -0.1023595854640007 0.020462069660425186
			vertex 0.05020495504140854 -0.1023595854640007 0.013325143605470657
		endloop
	endfacet
	facet normal 0 -1 0
		outer loop
			vertex 0.048554956912994385 -0.1023595854640007 0.03211178258061409
			vertex 0.0555555522441864 -0.1023595854640007 0.036741625517606735
			vertex 0.048148319125175476 -0.1023595854640007 0.036741625517606735
		endloop
	endfacet
	facet normal 0 -1 0
		outer loop
			vertex 0.0555555522441864 -0.1023595854640007 0.016986284404993057
			vertex 0.0555555522441864 -0.1023595854640007 0.036741625517606735
			vertex 0.048554956912994385 -0.1023595854640007 0.03211178258061409
		endloop
	endfacet
	facet normal 0 -1 0
		outer loop
			vertex 0.0555555522441864 -0.1023595854640007 0.016986284404993057
			vertex 0.048554956912994385 -0.1023595854640007 0.03211178258061409
			vertex 0.04957813397049904 -0.1023595854640007 0.020462069660425186
		endloop
	endfacet
	facet normal 0 0 1
		outer loop
			vertex 0.03664534538984299 -0.07247912138700485 0.036741625517606735
			vertex 0.020414680242538452 -0.03031785972416401 0.036741625517606735
			vertex 0.02138122171163559 -0.08998402208089828 0.036741625517606735
		endloop
	endfacet
	facet normal 0 0 1
		outer loop
			vertex 0.020544201135635376 -0.1023595854640007 0.036741625517606735
			vertex 0.021581701934337616 -0.1023595854640007 0.036741625517606735
			vertex 0.021568603813648224 -0.10155150294303894 0.036741625517606735
		endloop
	endfacet
	facet normal 0 0 1
		outer loop
			vertex 0.021581701934337616 -0.1023595854640007 0.036741625517606735
			vertex 0.048148319125175476 -0.1023595854640007 0.036741625517606735
			vertex 0.03664534538984299 -0.07247912138700485 0.036741625517606735
		endloop
	endfacet
	facet normal 0 0 1
		outer loop
			vertex 0.021581701934337616 -0.1023595854640007 0.036741625517606735
			vertex 0.03664534538984299 -0.07247912138700485 0.036741625517606735
			vertex 0.02138122171163559 -0.08998402208089828 0.036741625517606735
		endloop
	endfacet
	facet normal 0 0 1
		outer loop
			vertex 0.05302247777581215 -0.053697820752859116 0.036741625517606735
			vertex 0.020155921578407288 0.016005059704184532 0.036741625517606735
			vertex 0.01970716565847397 0.013357864692807198 0.036741625517606735
		endloop
	endfacet
	facet normal 0 0 1
		outer loop
			vertex 0.05302247777581215 -0.053697820752859116 0.036741625517606735
			vertex 0.01970716565847397 0.013357864692807198 0.036741625517606735
			vertex 0.020414680242538452 -0.03031785972416401 0.036741625517606735
		endloop
	endfacet
	facet normal 0 0 1
		outer loop
			vertex 0.05302247777581215 -0.053697820752859116 0.036741625517606735
			vertex 0.020414680242538452 -0.03031785972416401 0.036741625517606735
			vertex 0.03664534538984299 -0.07247912138700485 0.036741625517606735
		endloop
	endfacet
	facet normal 0 0 1
		outer loop
			vertex 0.048148319125175476 -0.1023595854640007 0.036741625517606735
			vertex 0.0555555522441864 -0.1023595854640007 0.036741625517606735
			vertex 0.0555555522441864 -0.05906992405653 0.036741625517606735
		endloop
	endfacet
	facet normal 0 0 1
		outer loop
			vertex 0.048148319125175476 -0.1023595854640007 0.036741625517606735
			vertex 0.0555555522441864 -0.05906992405653 0.036741625517606735
			vertex 0.05302247777581215 -0.053697820752859116 0.036741625517606735
		endloop
	endfacet
	facet normal 0 0 1
		outer loop
			vertex 0.048148319125175476 -0.1023595854640007 0.036741625517606735
			vertex 0.05302247777581215 -0.053697820752859116 0.036741625517606735
			vertex 0.03664534538984299 -0.07247912138700485 0.036741625517606735
		endloop
	endfacet
	facet normal 0 0 1
		outer loop
			vertex 0.015562213025987148 0.0286729633808136 0.036741625517606735
			vertex 0.01740764081478119 0.03207311034202576 0.036741625517606735
			vertex 0.007974348030984402 0.05061786621809006 0.036741625517606735
		endloop
	endfacet
	facet normal 0 0 1
		outer loop
			vertex 0.021108508110046387 0.024797653779387474 0.036741625517606735
			vertex 0.01740764081478119 0.03207311034202576 0.036741625517606735
			vertex 0.015562213025987148 0.0286729633808136 0.036741625517606735
		endloop
	endfacet
	facet normal 0 0 1
		outer loop
			vertex 0.021108508110046387 0.024797653779387474 0.036741625517606735
			vertex 0.015562213025987148 0.0286729633808136 0.036741625517606735
			vertex 0.019355259835720062 0.0177031010389328 0.036741625517606735
		endloop
	endfacet
	facet normal 0 0 1
		outer loop
			vertex 0.021108508110046387 0.024797653779387474 0.036741625517606735
			vertex 0.019355259835720062 0.0177031010389328 0.036741625517606735
			vertex 0.01940205693244934 0.01760384440422058 0.036741625517606735
		endloop
	endfacet
	facet normal 0 0 1
		outer loop
			vertex 0.05153002589941025 -0.03500751033425331 0.036741625517606735
			vertex 0.021108508110046387 0.024797653779387474 0.036741625517606735
			vertex 0.01940205693244934 0.01760384440422058 0.036741625517606735
		endloop
	endfacet
	facet normal 0 0 1
		outer loop
			vertex 0.05153002589941025 -0.03500751033425331 0.036741625517606735
			vertex 0.01940205693244934 0.01760384440422058 0.036741625517606735
			vertex 0.04499024152755737 -0.03666317090392113 0.036741625517606735
		endloop
	endfacet
	facet normal 0 0 1
		outer loop
			vertex 0.0555555522441864 -0.05906992405653 0.036741625517606735
			vertex 0.0555555522441864 -0.04292122274637222 0.036741625517606735
			vertex 0.05153002589941025 -0.03500751033425331 0.036741625517606735
		endloop
	endfacet
	facet normal 0 0 1
		outer loop
			vertex 0.0555555522441864 -0.05906992405653 0.036741625517606735
			vertex 0.05153002589941025 -0.03500751033425331 0.036741625517606735
			vertex 0.04499024152755737 -0.03666317090392113 0.036741625517606735
		endloop
	endfacet
	facet normal 0 0 1
		outer loop
			vertex 0.01740764081478119 0.03207311034202576 0.036741625517606735
			vertex 0.02704741060733795 0.04983411356806755 0.036741625517606735
			vertex 0.031457558274269104 0.06842584162950516 0.036741625517606735
		endloop
	endfacet
	facet normal 0 0 1
		outer loop
			vertex 0.01740764081478119 0.03207311034202576 0.036741625517606735
			vertex 0.031457558274269104 0.06842584162950516 0.036741625517606735
			vertex -0.004690566100180149 0.0872461348772049 0.036741625517606735
		endloop
	endfacet
	facet normal 0 0 1
		outer loop
			vertex 0.01740764081478119 0.03207311034202576 0.036741625517606735
			vertex -0.004690566100180149 0.0872461348772049 0.036741625517606735
			vertex 0.007974348030984402 0.05061786621809006 0.036741625517606735
		endloop
	endfacet
	facet normal 0 0 1
		outer loop
			vertex 0.02704741060733795 0.04983411356806755 0.036741625517606735
			vertex 0.01740764081478119 0.03207311034202576 0.036741625517606735
			vertex 0.021108508110046387 0.024797653779387474 0.036741625517606735
		endloop
	endfacet
	facet normal 0 0 1
		outer loop
			vertex 0.02704741060733795 0.04983411356806755 0.036741625517606735
			vertex 0.03588651865720749 0.06611993908882141 0.036741625517606735
			vertex 0.031457558274269104 0.06842584162950516 0.036741625517606735
		endloop
	endfacet
	facet normal 0 0 1
		outer loop
			vertex 0.0555555522441864 -0.04292122274637222 0.036741625517606735
			vertex 0.0555555522441864 0.0558793842792511 0.036741625517606735
			vertex 0.03588651865720749 0.06611993908882141 0.036741625517606735
		endloop
	endfacet
	facet normal 0 0 1
		outer loop
			vertex 0.0555555522441864 -0.04292122274637222 0.036741625517606735
			vertex 0.03588651865720749 0.06611993908882141 0.036741625517606735
			vertex 0.02704741060733795 0.04983411356806755 0.036741625517606735
		endloop
	endfacet
	facet normal 0 0 1
		outer loop
			vertex 0.0555555522441864 -0.04292122274637222 0.036741625517606735
			vertex 0.02704741060733795 0.04983411356806755 0.036741625517606735
			vertex 0.021108508110046387 0.024797653779387474 0.036741625517606735
		endloop
	endfacet
	facet normal 0 0 1
		outer loop
			vertex 0.03950699418783188 0.1023595854640007 0.036741625517606735
			vertex -0.018345482647418976 0.1023595854640007 0.036741625517606735
			vertex -0.012807228602468967 0.09147202223539352 0.036741625517606735
		endloop
	endfacet
	facet normal 0 0 1
		outer loop
			vertex 0.03950699418783188 0.1023595854640007 0.036741625517606735
			vertex -0.012807228602468967 0.09147202223539352 0.036741625517606735
			vertex 0.031457558274269104 0.06842584162950516 0.036741625517606735
		endloop
	endfacet
	facet normal 0 0 1
		outer loop
			vertex 0.03588651865720749 0.06611993908882141 0.036741625517606735
			vertex 0.0555555522441864 0.1023595854640007 0.036741625517606735
			vertex 0.03950699418783188 0.1023595854640007 0.036741625517606735
		endloop
	endfacet
	facet normal 0 0 1
		outer loop
			vertex 0.03588651865720749 0.06611993908882141 0.036741625517606735
			vertex 0.03950699418783188 0.1023595854640007 0.036741625517606735
			vertex 0.031457558274269104 0.06842584162950516 0.036741625517606735
		endloop
	endfacet
	facet normal 0 0 1
		outer loop
			vertex 0.0555555522441864 0.0558793842792511 0.036741625517606735
			vertex 0.0555555522441864 0.1023595854640007 0.036741625517606735
			vertex 0.03588651865720749 0.06611993908882141 0.036741625517606735
		endloop
	endfacet
endsolid exported
