solid exported
	facet normal -0.9914466708636992 -0.00403353669990414 0.13045010316200806
		outer loop
			vertex -0.036027856171131134 0.039374493062496185 -0.036741629242897034
			vertex -0.028303973376750946 0.04386839270591736 0.022100364789366722
			vertex -0.036259301006793976 0.0962638258934021 -0.036741629242897034
		endloop
	endfacet
	facet normal -0.9370861482342393 0.33523432001471803 0.0974038062489716
		outer loop
			vertex -0.028303973376750946 0.04386839270591736 0.022100364789366722
			vertex -0.036027856171131134 0.039374493062496185 -0.036741629242897034
			vertex -0.042520396411418915 0.021225785836577415 -0.036741629242897034
		endloop
	endfacet
	facet normal -0.9370861331913694 0.33523436854645094 0.09740378393938179
		outer loop
			vertex -0.028303973376750946 0.04386839270591736 0.022100364789366722
			vertex -0.042520396411418915 0.021225785836577415 -0.036741629242897034
			vertex -0.053561531007289886 -0.01645064726471901 -0.013293452560901642
		endloop
	endfacet
	facet normal -0.23511103471703165 0.39475377678071255 -0.8881960690476233
		outer loop
			vertex -0.055555559694767 -0.010067845694720745 0.02860047109425068
			vertex -0.04625014215707779 0.009637752547860146 0.034895312041044235
			vertex -0.04625014215707779 -0.007766901981085539 0.027159910649061203
		endloop
	endfacet
	facet normal -0.23511099520584072 0.3947535463140909 -0.8881961819360452
		outer loop
			vertex -0.055555559694767 -0.010067845694720745 0.02860047109425068
			vertex -0.04625014215707779 -0.007766901981085539 0.027159910649061203
			vertex -0.049246691167354584 -0.015389371663331985 0.024565353989601135
		endloop
	endfacet
	facet normal -0.2351103163637757 0.3947542501611088 -0.8881960488085198
		outer loop
			vertex -0.055555559694767 -0.010067845694720745 0.02860047109425068
			vertex -0.049246691167354584 -0.015389371663331985 0.024565353989601135
			vertex -0.055555559694767 -0.014554375782608986 0.026606455445289612
		endloop
	endfacet
	facet normal 0.8372116233090229 -0.23807513148479265 -0.49233822679614225
		outer loop
			vertex -0.055555559694767 -0.010067845694720745 0.02860047109425068
			vertex -0.055555559694767 0.008380264043807983 0.019679700955748558
			vertex -0.04625014215707779 0.009637752547860146 0.034895312041044235
		endloop
	endfacet
	facet normal -0.8187810337387034 0.23316648610906524 -0.524624635854371
		outer loop
			vertex -0.04625014215707779 0.009637752547860146 0.034895312041044235
			vertex -0.028303973376750946 0.04386839270591736 0.022100364789366722
			vertex -0.04625014215707779 -0.007766901981085539 0.027159910649061203
		endloop
	endfacet
	facet normal -0.9214281725841024 0.3462048692389993 0.17638682287384572
		outer loop
			vertex -0.055555559694767 -0.02237863838672638 -0.012074851430952549
			vertex -0.053561531007289886 -0.01645064726471901 -0.013293452560901642
			vertex -0.055555559694767 -0.02176803909242153 -0.013273310847580433
		endloop
	endfacet
	facet normal -0.11912607875851168 0.7340904543806911 -0.668520891331581
		outer loop
			vertex -0.05392106622457504 -0.025478700175881386 0.014319400303065777
			vertex -0.055555559694767 -0.027543984353542328 0.012342805974185467
			vertex -0.055555559694767 -0.014554375782608986 0.026606455445289612
		endloop
	endfacet
	facet normal -0.11912699784893288 0.7340903104379719 -0.6685208856158366
		outer loop
			vertex -0.05392106622457504 -0.025478700175881386 0.014319400303065777
			vertex -0.055555559694767 -0.014554375782608986 0.026606455445289612
			vertex -0.049246691167354584 -0.015389371663331985 0.024565353989601135
		endloop
	endfacet
	facet normal 0.41032371549796254 0.4398252705622167 -0.7988668098468105
		outer loop
			vertex -0.055555559694767 -0.02920723892748356 0.011427082121372223
			vertex -0.055555559694767 -0.027543984353542328 0.012342805974185467
			vertex -0.05392106622457504 -0.025478700175881386 0.014319400303065777
		endloop
	endfacet
	facet normal -0.7216724591050849 0.2682107956928726 -0.6381628560508795
		outer loop
			vertex -0.055555559694767 -0.02176803909242153 -0.013273310847580433
			vertex -0.053561531007289886 -0.01645064726471901 -0.013293452560901642
			vertex -0.055555559694767 -0.02200186811387539 -0.013371585868299007
		endloop
	endfacet
	facet normal -0.852702380193564 0.4736136597321695 -0.22042856468101324
		outer loop
			vertex -0.03893587738275528 0.03154084086418152 0.036741629242897034
			vertex -0.02641906589269638 0.05407632887363434 0.036741629242897034
			vertex -0.028303973376750946 0.04386839270591736 0.022100364789366722
		endloop
	endfacet
	facet normal -0.8527026686290399 0.4736126454939952 -0.2204296280927161
		outer loop
			vertex -0.03893587738275528 0.03154084086418152 0.036741629242897034
			vertex -0.028303973376750946 0.04386839270591736 0.022100364789366722
			vertex -0.04073704034090042 0.027730107307434082 0.0355214886367321
		endloop
	endfacet
	facet normal -0.847108235458274 0.2738922532616297 -0.4554016590022891
		outer loop
			vertex -0.028303973376750946 0.04386839270591736 0.022100364789366722
			vertex -0.04625014215707779 0.009637752547860146 0.034895312041044235
			vertex -0.04073704034090042 0.027730107307434082 0.0355214886367321
		endloop
	endfacet
	facet normal -0.8527024211944452 0.47361275777203776 -0.22043034401982037
		outer loop
			vertex -0.03893587738275528 0.03154084086418152 0.036741629242897034
			vertex -0.04073704034090042 0.027730107307434082 0.0355214886367321
			vertex -0.04186735302209854 0.026262950152158737 0.036741629242897034
		endloop
	endfacet
	facet normal -0.1302631463571632 0.988561994927456 -0.07600457148212217
		outer loop
			vertex -0.055555559694767 0.010058022104203701 0.036741629242897034
			vertex -0.05525898188352585 0.010097102262079716 0.036741629242897034
			vertex -0.055555559694767 0.009905766695737839 0.034761302173137665
		endloop
	endfacet
	facet normal 0.030091309764030186 0.9944727236529561 -0.10059082953707237
		outer loop
			vertex -0.04949582368135452 0.009199146181344986 0.02958817221224308
			vertex -0.055555559694767 0.008380264043807983 0.019679700955748558
			vertex -0.055555559694767 0.009905766695737839 0.034761302173137665
		endloop
	endfacet
	facet normal 0.030091434743244685 0.994472734529221 -0.10059068462371028
		outer loop
			vertex -0.04949582368135452 0.009199146181344986 0.02958817221224308
			vertex -0.055555559694767 0.009905766695737839 0.034761302173137665
			vertex -0.05525898188352585 0.010097102262079716 0.036741629242897034
		endloop
	endfacet
	facet normal 0.030091254304913 0.9944727254008309 -0.10059082884737074
		outer loop
			vertex -0.04949582368135452 0.009199146181344986 0.02958817221224308
			vertex -0.05525898188352585 0.010097102262079716 0.036741629242897034
			vertex -0.05258946865797043 0.010016326792538166 0.036741629242897034
		endloop
	endfacet
	facet normal 0.03009153138992928 0.9944727290947736 -0.10059070943880412
		outer loop
			vertex -0.04949582368135452 0.009199146181344986 0.02958817221224308
			vertex -0.05258946865797043 0.010016326792538166 0.036741629242897034
			vertex -0.05081648379564285 0.009910446591675282 0.036225248128175735
		endloop
	endfacet
	facet normal -0.84710737735677 0.2738921991728887 -0.45540328771318056
		outer loop
			vertex -0.04625014215707779 0.009637752547860146 0.034895312041044235
			vertex -0.04581593722105026 0.014050573110580444 0.036741629242897034
			vertex -0.04186735302209854 0.026262950152158737 0.036741629242897034
		endloop
	endfacet
	facet normal -0.8471081903816596 0.2738922426487956 -0.45540174923371046
		outer loop
			vertex -0.04625014215707779 0.009637752547860146 0.034895312041044235
			vertex -0.04186735302209854 0.026262950152158737 0.036741629242897034
			vertex -0.04073704034090042 0.027730107307434082 0.0355214886367321
		endloop
	endfacet
	facet normal 0.030091383282969758 0.9944727305792554 -0.10059073906854907
		outer loop
			vertex -0.04625014215707779 0.009637752547860146 0.034895312041044235
			vertex -0.04949582368135452 0.009199146181344986 0.02958817221224308
			vertex -0.05081648379564285 0.009910446591675282 0.036225248128175735
		endloop
	endfacet
	facet normal 0.03009190203061346 0.9944728442132129 -0.1005894604551745
		outer loop
			vertex -0.05091922730207443 0.009965786710381508 0.036741629242897034
			vertex -0.05081648379564285 0.009910446591675282 0.036225248128175735
			vertex -0.05258946865797043 0.010016326792538166 0.036741629242897034
		endloop
	endfacet
	facet normal 0.03009121016021302 0.994472647600888 -0.10059161120478095
		outer loop
			vertex -0.04959169775247574 0.009925618767738342 0.036741629242897034
			vertex -0.04929875582456589 0.009819810278713703 0.03578321263194084
			vertex -0.05081648379564285 0.009910446591675282 0.036225248128175735
		endloop
	endfacet
	facet normal 0.030090425311609766 0.9944728590163701 -0.10058975586198271
		outer loop
			vertex -0.04959169775247574 0.009925618767738342 0.036741629242897034
			vertex -0.05081648379564285 0.009910446591675282 0.036225248128175735
			vertex -0.05091922730207443 0.009965786710381508 0.036741629242897034
		endloop
	endfacet
	facet normal -0.847108625525705 0.2738915211768707 -0.455401373721436
		outer loop
			vertex -0.04581593722105026 0.014050573110580444 0.036741629242897034
			vertex -0.04625014215707779 0.009637752547860146 0.034895312041044235
			vertex -0.04717329889535904 0.009852441027760506 0.036741629242897034
		endloop
	endfacet
	facet normal 0.030091265446045894 0.9944727085195493 -0.10059099240810522
		outer loop
			vertex -0.04717329889535904 0.009852441027760506 0.036741629242897034
			vertex -0.04625014215707779 0.009637752547860146 0.034895312041044235
			vertex -0.04929875582456589 0.009819810278713703 0.03578321263194084
		endloop
	endfacet
	facet normal 0.030091504807444575 0.9944726477927099 -0.10059152116645036
		outer loop
			vertex -0.04717329889535904 0.009852441027760506 0.036741629242897034
			vertex -0.04929875582456589 0.009819810278713703 0.03578321263194084
			vertex -0.04959169775247574 0.009925618767738342 0.036741629242897034
		endloop
	endfacet
	facet normal -0.6136945365465111 -0.7307411102391099 0.2989923838820581
		outer loop
			vertex -0.055555559694767 -0.03401121124625206 0.036741629242897034
			vertex -0.055555559694767 -0.035503089427948 0.03309546038508415
			vertex -0.054853715002536774 -0.0346006378531456 0.036741629242897034
		endloop
	endfacet
	facet normal -0.9335304628373432 0.052901371100714516 -0.3545734337064194
		outer loop
			vertex -0.04678354412317276 -0.05400436744093895 -0.036741629242897034
			vertex -0.053561531007289886 -0.01645064726471901 -0.013293452560901642
			vertex -0.042520396411418915 0.021225785836577415 -0.036741629242897034
		endloop
	endfacet
	facet normal -0.921427816749329 0.3462050562192553 0.17638831471723831
		outer loop
			vertex -0.055555559694767 -0.023868678137660027 -0.00915028527379036
			vertex -0.053561531007289886 -0.01645064726471901 -0.013293452560901642
			vertex -0.055555559694767 -0.02237863838672638 -0.012074851430952549
		endloop
	endfacet
	facet normal -0.7216712580053487 0.26821038579373085 -0.638164386597494
		outer loop
			vertex -0.055555559694767 -0.07760720700025558 -0.036741629242897034
			vertex -0.055555559694767 -0.02200186811387539 -0.013371585868299007
			vertex -0.053561531007289886 -0.01645064726471901 -0.013293452560901642
		endloop
	endfacet
	facet normal -0.7216721556830729 0.2682100757973877 -0.6381635017395669
		outer loop
			vertex -0.055555559694767 -0.07760720700025558 -0.036741629242897034
			vertex -0.053561531007289886 -0.01645064726471901 -0.013293452560901642
			vertex -0.04678354412317276 -0.05400436744093895 -0.036741629242897034
		endloop
	endfacet
	facet normal -0.940487100606859 0.28747508009189565 0.18122387237409457
		outer loop
			vertex -0.028303973376750946 0.04386839270591736 0.022100364789366722
			vertex -0.03481576591730118 0.02831721492111683 0.012975293211638927
			vertex -0.03391291946172714 0.025223826989531517 0.022567778825759888
		endloop
	endfacet
	facet normal -0.8187777314237502 0.23316501895776312 -0.5246304417959403
		outer loop
			vertex -0.028303973376750946 0.04386839270591736 0.022100364789366722
			vertex -0.03391291946172714 0.025223826989531517 0.022567778825759888
			vertex -0.034910090267658234 0.024861078709363937 0.023962819948792458
		endloop
	endfacet
	facet normal -0.23511150493772284 0.39475368047632026 -0.8881959873790911
		outer loop
			vertex -0.04625014215707779 -0.007766901981085539 0.027159910649061203
			vertex -0.04625014215707779 -0.015785975381731987 0.02359587885439396
			vertex -0.049246691167354584 -0.015389371663331985 0.024565353989601135
		endloop
	endfacet
	facet normal -0.94048722329975 0.2874753014162561 0.18122288455258392
		outer loop
			vertex -0.03481576591730118 0.02831721492111683 0.012975293211638927
			vertex -0.053561531007289886 -0.01645064726471901 -0.013293452560901642
			vertex -0.04625014215707779 -0.015785975381731987 0.02359587885439396
		endloop
	endfacet
	facet normal -0.9404869498559347 0.28747549739099826 0.18122399275614326
		outer loop
			vertex -0.03481576591730118 0.02831721492111683 0.012975293211638927
			vertex -0.04625014215707779 -0.015785975381731987 0.02359587885439396
			vertex -0.03391291946172714 0.025223826989531517 0.022567778825759888
		endloop
	endfacet
	facet normal -0.818780845816174 0.23316656536143887 -0.5246248939214578
		outer loop
			vertex -0.03391291946172714 0.025223826989531517 0.022567778825759888
			vertex -0.04625014215707779 -0.015785975381731987 0.02359587885439396
			vertex -0.04625014215707779 -0.007766901981085539 0.027159910649061203
		endloop
	endfacet
	facet normal -0.8187777635176533 0.23316462294322599 -0.5246305677110067
		outer loop
			vertex -0.03391291946172714 0.025223826989531517 0.022567778825759888
			vertex -0.04625014215707779 -0.007766901981085539 0.027159910649061203
			vertex -0.034910090267658234 0.024861078709363937 0.023962819948792458
		endloop
	endfacet
	facet normal -0.921428376426334 0.34620409100252447 0.17638728550960198
		outer loop
			vertex -0.055555559694767 -0.033225495368242264 0.009214782156050205
			vertex -0.04625014215707779 -0.015785975381731987 0.02359587885439396
			vertex -0.053561531007289886 -0.01645064726471901 -0.013293452560901642
		endloop
	endfacet
	facet normal -0.9214279686566728 0.3462048642659502 0.17638789792906032
		outer loop
			vertex -0.055555559694767 -0.033225495368242264 0.009214782156050205
			vertex -0.053561531007289886 -0.01645064726471901 -0.013293452560901642
			vertex -0.055555559694767 -0.023868678137660027 -0.00915028527379036
		endloop
	endfacet
	facet normal -0.11912745609775047 0.7340903716072187 -0.6685207367892594
		outer loop
			vertex -0.04625014215707779 -0.015785975381731987 0.02359587885439396
			vertex -0.05392106622457504 -0.025478700175881386 0.014319400303065777
			vertex -0.049246691167354584 -0.015389371663331985 0.024565353989601135
		endloop
	endfacet
	facet normal 0.41032323822014805 0.4398258113696152 -0.7988667572440297
		outer loop
			vertex -0.04625014215707779 -0.015785975381731987 0.02359587885439396
			vertex -0.055555559694767 -0.033225495368242264 0.009214782156050205
			vertex -0.055555559694767 -0.02920723892748356 0.011427082121372223
		endloop
	endfacet
	facet normal 0.41032463563384175 0.4398247310143067 -0.7988666342889456
		outer loop
			vertex -0.04625014215707779 -0.015785975381731987 0.02359587885439396
			vertex -0.055555559694767 -0.02920723892748356 0.011427082121372223
			vertex -0.05392106622457504 -0.025478700175881386 0.014319400303065777
		endloop
	endfacet
	facet normal -0.6136948255280241 -0.7307408691958464 0.2989923798477601
		outer loop
			vertex -0.054853715002536774 -0.0346006378531456 0.036741629242897034
			vertex -0.055555559694767 -0.035503089427948 0.03309546038508415
			vertex -0.055555559694767 -0.03845855966210365 0.025872256606817245
		endloop
	endfacet
	facet normal -0.6137004530589681 -0.7307366125192454 0.2989912323783351
		outer loop
			vertex -0.054853715002536774 -0.0346006378531456 0.036741629242897034
			vertex -0.055555559694767 -0.03845855966210365 0.025872256606817245
			vertex -0.0492427721619606 -0.03931292146444321 0.036741629242897034
		endloop
	endfacet
	facet normal -0.36802320797332055 0.8855902706494603 0.2833527676308136
		outer loop
			vertex -0.055555559694767 -0.04193631559610367 0.036741629242897034
			vertex -0.0492427721619606 -0.03931292146444321 0.036741629242897034
			vertex -0.055555559694767 -0.03845855966210365 0.025872256606817245
		endloop
	endfacet
	facet normal -0.9441600401691536 0.17214993436761516 0.28093810465119917
		outer loop
			vertex -0.03514785319566727 0.1023595854640007 -0.036741629242897034
			vertex -0.036259301006793976 0.0962638258934021 -0.036741629242897034
			vertex -0.03227335959672928 0.07001154869794846 -0.0072593544609844685
		endloop
	endfacet
	facet normal -0.9441603577692363 0.1721492920533231 0.28093743086781314
		outer loop
			vertex -0.03514785319566727 0.1023595854640007 -0.036741629242897034
			vertex -0.03227335959672928 0.07001154869794846 -0.0072593544609844685
			vertex -0.022922910749912262 0.07834970951080322 0.019055809825658798
		endloop
	endfacet
	facet normal -0.9441604066962245 0.17214912413477249 0.2809373693314055
		outer loop
			vertex -0.03514785319566727 0.1023595854640007 -0.036741629242897034
			vertex -0.022922910749912262 0.07834970951080322 0.019055809825658798
			vertex -0.01917598396539688 0.1023595854640007 0.016935838386416435
		endloop
	endfacet
	facet normal -0.7735139349436004 0.17451039633774015 0.6092801605321746
		outer loop
			vertex -0.0064209336414933205 0.09294335544109344 0.03582581877708435
			vertex -0.004960828460752964 0.0962178111076355 0.036741629242897034
			vertex -0.003575199283659458 0.1023595854640007 0.036741629242897034
		endloop
	endfacet
	facet normal -0.7735108346221836 0.17450903874262266 0.6092844853754432
		outer loop
			vertex -0.0064209336414933205 0.09294335544109344 0.03582581877708435
			vertex -0.003575199283659458 0.1023595854640007 0.036741629242897034
			vertex -0.0047653475776314735 0.1023595854640007 0.035230688750743866
		endloop
	endfacet
	facet normal -0.7735098132546888 0.17450894285150367 0.6092858095044944
		outer loop
			vertex -0.0064209336414933205 0.09294335544109344 0.03582581877708435
			vertex -0.0047653475776314735 0.1023595854640007 0.035230688750743866
			vertex -0.008799397386610508 0.09401800483465195 0.03249847888946533
		endloop
	endfacet
	facet normal 0.6958895900309463 -0.46367987445693004 0.5483964373609362
		outer loop
			vertex -0.0027793357148766518 0.09949178993701935 0.036741629242897034
			vertex -0.004960828460752964 0.0962178111076355 0.036741629242897034
			vertex -0.0064209336414933205 0.09294335544109344 0.03582581877708435
		endloop
	endfacet
	facet normal -0.7735104373194384 0.17450905070093828 0.6092849863416534
		outer loop
			vertex -0.0047653475776314735 0.1023595854640007 0.035230688750743866
			vertex -0.01917598396539688 0.1023595854640007 0.016935838386416435
			vertex -0.019708536565303802 0.09894702583551407 0.01723715476691723
		endloop
	endfacet
	facet normal -0.7735104147790848 0.1745095398924811 0.6092848748449305
		outer loop
			vertex -0.0047653475776314735 0.1023595854640007 0.035230688750743866
			vertex -0.019708536565303802 0.09894702583551407 0.01723715476691723
			vertex -0.008799397386610508 0.09401800483465195 0.03249847888946533
		endloop
	endfacet
	facet normal -0.676940900519898 0.14032628810548609 0.7225368849199644
		outer loop
			vertex -0.0005516119999811053 0.1023595854640007 0.036741629242897034
			vertex -0.0007339053554460406 0.1023595854640007 0.03657083958387375
			vertex -0.008461588062345982 0.08596494048833847 0.03251487389206886
		endloop
	endfacet
	facet normal -0.6769309652266058 0.1403187156764319 0.7225476637207352
		outer loop
			vertex -0.0005516119999811053 0.1023595854640007 0.036741629242897034
			vertex -0.008461588062345982 0.08596494048833847 0.03251487389206886
			vertex -0.0034182602539658546 0.08853019028902054 0.036741629242897034
		endloop
	endfacet
	facet normal -0.7735102050719425 0.174509807358674 0.6092850644691693
		outer loop
			vertex -0.009593144990503788 0.08582936227321625 0.03383614867925644
			vertex -0.0064209336414933205 0.09294335544109344 0.03582581877708435
			vertex -0.013778829015791416 0.09626784175634384 0.02553250454366207
		endloop
	endfacet
	facet normal -0.7735103412079498 0.1745096509279317 0.609284936443839
		outer loop
			vertex -0.009593144990503788 0.08582936227321625 0.03383614867925644
			vertex -0.013778829015791416 0.09626784175634384 0.02553250454366207
			vertex -0.017976336181163788 0.08112534880638123 0.024540679529309273
		endloop
	endfacet
	facet normal 0.6958959986957582 -0.4636819275919369 0.5483865689674203
		outer loop
			vertex -0.008461588062345982 0.08596494048833847 0.03251487389206886
			vertex -0.0007339053554460406 0.1023595854640007 0.03657083958387375
			vertex -0.0008684926433488727 0.1023595854640007 0.036741629242897034
		endloop
	endfacet
	facet normal 0.6958940562858319 -0.4636817107288103 0.5483892172186242
		outer loop
			vertex -0.008461588062345982 0.08596494048833847 0.03251487389206886
			vertex -0.0008684926433488727 0.1023595854640007 0.036741629242897034
			vertex -0.0027793357148766518 0.09949178993701935 0.036741629242897034
		endloop
	endfacet
	facet normal 0.695895068941492 -0.4636817295942633 0.5483879162266331
		outer loop
			vertex -0.008461588062345982 0.08596494048833847 0.03251487389206886
			vertex -0.0027793357148766518 0.09949178993701935 0.036741629242897034
			vertex -0.0064209336414933205 0.09294335544109344 0.03582581877708435
		endloop
	endfacet
	facet normal 0.6958917432146688 -0.4636824645569365 0.5483915150584067
		outer loop
			vertex -0.008461588062345982 0.08596494048833847 0.03251487389206886
			vertex -0.0064209336414933205 0.09294335544109344 0.03582581877708435
			vertex -0.009593144990503788 0.08582936227321625 0.03383614867925644
		endloop
	endfacet
	facet normal -0.7735102210499175 0.1745096610377747 0.6092850860933567
		outer loop
			vertex -0.013778829015791416 0.09626784175634384 0.02553250454366207
			vertex -0.019708536565303802 0.09894702583551407 0.01723715476691723
			vertex -0.022922910749912262 0.07834970951080322 0.019055809825658798
		endloop
	endfacet
	facet normal -0.7735101450766152 0.17450957889985505 0.6092852060699891
		outer loop
			vertex -0.013778829015791416 0.09626784175634384 0.02553250454366207
			vertex -0.022922910749912262 0.07834970951080322 0.019055809825658798
			vertex -0.017976336181163788 0.08112534880638123 0.024540679529309273
		endloop
	endfacet
	facet normal -0.944160399426547 0.1721487689132454 0.28093761143064744
		outer loop
			vertex -0.03227335959672928 0.07001154869794846 -0.0072593544609844685
			vertex -0.028303973376750946 0.04386839270591736 0.022100364789366722
			vertex -0.022922910749912262 0.07834970951080322 0.019055809825658798
		endloop
	endfacet
	facet normal -0.6169689824225946 0.6602507132735155 -0.4282735928705416
		outer loop
			vertex -0.020965494215488434 0.06022290885448456 0.036741629242897034
			vertex -0.028303973376750946 0.04386839270591736 0.022100364789366722
			vertex -0.025205962359905243 0.05626041814684868 0.036741629242897034
		endloop
	endfacet
	facet normal -0.8527019501465323 0.4736142248518503 -0.22042901404824636
		outer loop
			vertex -0.02641906589269638 0.05407632887363434 0.036741629242897034
			vertex -0.025205962359905243 0.05626041814684868 0.036741629242897034
			vertex -0.028303973376750946 0.04386839270591736 0.022100364789366722
		endloop
	endfacet
	facet normal -0.6169700228176143 0.6602503456745107 -0.42827266079113857
		outer loop
			vertex -0.0064802030101418495 0.07375866919755936 0.036741629242897034
			vertex -0.028303973376750946 0.04386839270591736 0.022100364789366722
			vertex -0.020965494215488434 0.06022290885448456 0.036741629242897034
		endloop
	endfacet
	facet normal -0.6769310346452929 0.14031907395900226 0.7225475291061076
		outer loop
			vertex -0.0034182602539658546 0.08853019028902054 0.036741629242897034
			vertex -0.008461588062345982 0.08596494048833847 0.03251487389206886
			vertex -0.028303973376750946 0.04386839270591736 0.022100364789366722
		endloop
	endfacet
	facet normal -0.6769308376880887 0.14031889214776594 0.722547748936585
		outer loop
			vertex -0.0034182602539658546 0.08853019028902054 0.036741629242897034
			vertex -0.028303973376750946 0.04386839270591736 0.022100364789366722
			vertex -0.0064802030101418495 0.07375866919755936 0.036741629242897034
		endloop
	endfacet
	facet normal -0.7735103088974853 0.1745093314981047 0.6092850689532785
		outer loop
			vertex -0.028303973376750946 0.04386839270591736 0.022100364789366722
			vertex -0.009593144990503788 0.08582936227321625 0.03383614867925644
			vertex -0.017976336181163788 0.08112534880638123 0.024540679529309273
		endloop
	endfacet
	facet normal 0.6958920748628453 -0.4636815157603645 0.5483918964438251
		outer loop
			vertex -0.028303973376750946 0.04386839270591736 0.022100364789366722
			vertex -0.008461588062345982 0.08596494048833847 0.03251487389206886
			vertex -0.009593144990503788 0.08582936227321625 0.03383614867925644
		endloop
	endfacet
	facet normal -0.7735101127662037 0.17450925947008072 0.6092853385792397
		outer loop
			vertex -0.028303973376750946 0.04386839270591736 0.022100364789366722
			vertex -0.017976336181163788 0.08112534880638123 0.024540679529309273
			vertex -0.022922910749912262 0.07834970951080322 0.019055809825658798
		endloop
	endfacet
	facet normal 1 0 0
		outer loop
			vertex 0.0555555522441864 -0.10149729996919632 0.036741629242897034
			vertex 0.0555555522441864 -0.1023595854640007 0.036741629242897034
			vertex 0.0555555522441864 -0.1009589284658432 0.036238864064216614
		endloop
	endfacet
	facet normal 1 0 0
		outer loop
			vertex 0.0555555522441864 -0.1023595854640007 0.036741629242897034
			vertex 0.0555555522441864 -0.1023595854640007 -0.036741629242897034
			vertex 0.0555555522441864 -0.02280895784497261 -0.036741629242897034
		endloop
	endfacet
	facet normal 1 0 0
		outer loop
			vertex 0.0555555522441864 -0.1023595854640007 0.036741629242897034
			vertex 0.0555555522441864 -0.02280895784497261 -0.036741629242897034
			vertex 0.0555555522441864 -0.1009589284658432 0.036238864064216614
		endloop
	endfacet
	facet normal 1 0 0
		outer loop
			vertex 0.0555555522441864 0.0954350009560585 -0.03425607085227966
			vertex 0.0555555522441864 0.1023595854640007 -0.036741629242897034
			vertex 0.0555555522441864 0.1023595854640007 -0.02765868976712227
		endloop
	endfacet
	facet normal 1 0 0
		outer loop
			vertex 0.0555555522441864 0.09282615780830383 -0.036741629242897034
			vertex 0.0555555522441864 0.1023595854640007 -0.036741629242897034
			vertex 0.0555555522441864 0.0954350009560585 -0.03425607085227966
		endloop
	endfacet
	facet normal 1 0 0
		outer loop
			vertex 0.0555555522441864 0.1023595854640007 0.036741629242897034
			vertex 0.0555555522441864 0.058287184685468674 0.036741629242897034
			vertex 0.0555555522441864 0.019730117172002792 -0.007082059048116207
		endloop
	endfacet
	facet normal 1 0 0
		outer loop
			vertex 0.0555555522441864 0.1023595854640007 0.036741629242897034
			vertex 0.0555555522441864 0.019730117172002792 -0.007082059048116207
			vertex 0.0555555522441864 0.0954350009560585 -0.03425607085227966
		endloop
	endfacet
	facet normal 1 0 0
		outer loop
			vertex 0.0555555522441864 0.1023595854640007 0.036741629242897034
			vertex 0.0555555522441864 0.0954350009560585 -0.03425607085227966
			vertex 0.0555555522441864 0.1023595854640007 -0.02765868976712227
		endloop
	endfacet
	facet normal 1 0 0
		outer loop
			vertex 0.0555555522441864 -0.00525154173374176 -0.036741629242897034
			vertex 0.0555555522441864 0.09282615780830383 -0.036741629242897034
			vertex 0.0555555522441864 0.0954350009560585 -0.03425607085227966
		endloop
	endfacet
	facet normal 1 0 0
		outer loop
			vertex 0.0555555522441864 -0.00525154173374176 -0.036741629242897034
			vertex 0.0555555522441864 0.0954350009560585 -0.03425607085227966
			vertex 0.0555555522441864 0.019730117172002792 -0.007082059048116207
		endloop
	endfacet
	facet normal 1 0 0
		outer loop
			vertex 0.0555555522441864 -0.00525154173374176 -0.036741629242897034
			vertex 0.0555555522441864 0.019730117172002792 -0.007082059048116207
			vertex 0.0555555522441864 -0.005525981076061726 -0.03578795865178108
		endloop
	endfacet
	facet normal 1 0 0
		outer loop
			vertex 0.0555555522441864 0.058287184685468674 0.036741629242897034
			vertex 0.0555555522441864 -0.02639791928231716 0.036741629242897034
			vertex 0.0555555522441864 -0.017647635191679 0.0063345590606331825
		endloop
	endfacet
	facet normal 1 0 0
		outer loop
			vertex 0.0555555522441864 0.058287184685468674 0.036741629242897034
			vertex 0.0555555522441864 -0.017647635191679 0.0063345590606331825
			vertex 0.0555555522441864 0.019730117172002792 -0.007082059048116207
		endloop
	endfacet
	facet normal 1 0 0
		outer loop
			vertex 0.0555555522441864 0.019730117172002792 -0.007082059048116207
			vertex 0.0555555522441864 -0.017647635191679 0.0063345590606331825
			vertex 0.0555555522441864 -0.005525981076061726 -0.03578795865178108
		endloop
	endfacet
	facet normal 1 0 0
		outer loop
			vertex 0.0555555522441864 -0.07667949050664902 0.036741629242897034
			vertex 0.0555555522441864 -0.10149729996919632 0.036741629242897034
			vertex 0.0555555522441864 -0.1009589284658432 0.036238864064216614
		endloop
	endfacet
	facet normal 1 0 0
		outer loop
			vertex 0.0555555522441864 -0.07667949050664902 0.036741629242897034
			vertex 0.0555555522441864 -0.1009589284658432 0.036238864064216614
			vertex 0.0555555522441864 -0.017647635191679 0.0063345590606331825
		endloop
	endfacet
	facet normal 1 0 0
		outer loop
			vertex 0.0555555522441864 -0.07667949050664902 0.036741629242897034
			vertex 0.0555555522441864 -0.017647635191679 0.0063345590606331825
			vertex 0.0555555522441864 -0.02052919939160347 0.016347937285900116
		endloop
	endfacet
	facet normal 1 0 0
		outer loop
			vertex 0.0555555522441864 -0.02280895784497261 -0.036741629242897034
			vertex 0.0555555522441864 -0.00525154173374176 -0.036741629242897034
			vertex 0.0555555522441864 -0.017647635191679 0.0063345590606331825
		endloop
	endfacet
	facet normal 1 0 0
		outer loop
			vertex 0.0555555522441864 -0.02280895784497261 -0.036741629242897034
			vertex 0.0555555522441864 -0.017647635191679 0.0063345590606331825
			vertex 0.0555555522441864 -0.1009589284658432 0.036238864064216614
		endloop
	endfacet
	facet normal 1 0 0
		outer loop
			vertex 0.0555555522441864 -0.02639791928231716 0.036741629242897034
			vertex 0.0555555522441864 -0.07667949050664902 0.036741629242897034
			vertex 0.0555555522441864 -0.02052919939160347 0.016347937285900116
		endloop
	endfacet
	facet normal -1 0 0
		outer loop
			vertex -0.055555559694767 -0.030270228162407875 0.015085569582879543
			vertex -0.055555559694767 -0.0314374715089798 0.019102860242128372
			vertex -0.055555559694767 -0.016664212569594383 0.025668753311038017
		endloop
	endfacet
	facet normal -1 0 0
		outer loop
			vertex -0.055555559694767 -0.02920723892748356 0.011427082121372223
			vertex -0.055555559694767 -0.030270228162407875 0.015085569582879543
			vertex -0.055555559694767 -0.016664212569594383 0.025668753311038017
		endloop
	endfacet
	facet normal -1 0 0
		outer loop
			vertex -0.055555559694767 -0.02920723892748356 0.011427082121372223
			vertex -0.055555559694767 -0.016664212569594383 0.025668753311038017
			vertex -0.055555559694767 -0.014554375782608986 0.026606455445289612
		endloop
	endfacet
	facet normal -1 0 0
		outer loop
			vertex -0.055555559694767 -0.02920723892748356 0.011427082121372223
			vertex -0.055555559694767 -0.014554375782608986 0.026606455445289612
			vertex -0.055555559694767 -0.027543984353542328 0.012342805974185467
		endloop
	endfacet
	facet normal -1 0 0
		outer loop
			vertex -0.055555559694767 -0.02200186811387539 -0.013371585868299007
			vertex -0.055555559694767 -0.02237863838672638 -0.012074851430952549
			vertex -0.055555559694767 -0.02176803909242153 -0.013273310847580433
		endloop
	endfacet
	facet normal -1 0 0
		outer loop
			vertex -0.055555559694767 0.008249761536717415 0.036741629242897034
			vertex -0.055555559694767 0.010058022104203701 0.036741629242897034
			vertex -0.055555559694767 0.009905766695737839 0.034761302173137665
		endloop
	endfacet
	facet normal -1 0 0
		outer loop
			vertex -0.055555559694767 0.008249761536717415 0.036741629242897034
			vertex -0.055555559694767 0.009905766695737839 0.034761302173137665
			vertex -0.055555559694767 0.008380264043807983 0.019679700955748558
		endloop
	endfacet
	facet normal -1 0 0
		outer loop
			vertex -0.055555559694767 0.008249761536717415 0.036741629242897034
			vertex -0.055555559694767 0.008380264043807983 0.019679700955748558
			vertex -0.055555559694767 -0.003621412208303809 0.025483233854174614
		endloop
	endfacet
	facet normal -1 0 0
		outer loop
			vertex -0.055555559694767 0.008249761536717415 0.036741629242897034
			vertex -0.055555559694767 -0.003621412208303809 0.025483233854174614
			vertex -0.055555559694767 -0.00011098924005636945 0.03302573785185814
		endloop
	endfacet
	facet normal -1 0 0
		outer loop
			vertex -0.055555559694767 -0.003621412208303809 0.025483233854174614
			vertex -0.055555559694767 -0.010067845694720745 0.02860047109425068
			vertex -0.055555559694767 -0.00011098924005636945 0.03302573785185814
		endloop
	endfacet
	facet normal -1 0 0
		outer loop
			vertex -0.055555559694767 0.0016184545820578933 0.036741629242897034
			vertex -0.055555559694767 0.008249761536717415 0.036741629242897034
			vertex -0.055555559694767 -0.00011098924005636945 0.03302573785185814
		endloop
	endfacet
	facet normal -1 0 0
		outer loop
			vertex -0.055555559694767 -0.00005375180262490176 0.036741629242897034
			vertex -0.055555559694767 0.0016184545820578933 0.036741629242897034
			vertex -0.055555559694767 -0.00011098924005636945 0.03302573785185814
		endloop
	endfacet
	facet normal -1 0 0
		outer loop
			vertex -0.055555559694767 -0.00005375180262490176 0.036741629242897034
			vertex -0.055555559694767 -0.00011098924005636945 0.03302573785185814
			vertex -0.055555559694767 -0.0032252406235784292 0.031641628593206406
		endloop
	endfacet
	facet normal -1 0 0
		outer loop
			vertex -0.055555559694767 -0.016072655096650124 0.036741629242897034
			vertex -0.055555559694767 -0.00005375180262490176 0.036741629242897034
			vertex -0.055555559694767 -0.0032252406235784292 0.031641628593206406
		endloop
	endfacet
	facet normal -1 0 0
		outer loop
			vertex -0.055555559694767 -0.016072655096650124 0.036741629242897034
			vertex -0.055555559694767 -0.0032252406235784292 0.031641628593206406
			vertex -0.055555559694767 -0.0314374715089798 0.019102860242128372
		endloop
	endfacet
	facet normal -1 0 0
		outer loop
			vertex -0.055555559694767 -0.016072655096650124 0.036741629242897034
			vertex -0.055555559694767 -0.0314374715089798 0.019102860242128372
			vertex -0.055555559694767 -0.033514559268951416 0.026251548901200294
		endloop
	endfacet
	facet normal -1 0 0
		outer loop
			vertex -0.055555559694767 -0.03401121124625206 0.036741629242897034
			vertex -0.055555559694767 -0.016072655096650124 0.036741629242897034
			vertex -0.055555559694767 -0.033514559268951416 0.026251548901200294
		endloop
	endfacet
	facet normal -1 0 0
		outer loop
			vertex -0.055555559694767 -0.03401121124625206 0.036741629242897034
			vertex -0.055555559694767 -0.033514559268951416 0.026251548901200294
			vertex -0.055555559694767 -0.035503089427948 0.03309546038508415
		endloop
	endfacet
	facet normal -1 0 0
		outer loop
			vertex -0.055555559694767 -0.07760720700025558 -0.036741629242897034
			vertex -0.055555559694767 -0.1023595854640007 -0.036741629242897034
			vertex -0.055555559694767 -0.026646772399544716 -0.009564769454300404
		endloop
	endfacet
	facet normal -1 0 0
		outer loop
			vertex -0.055555559694767 -0.07760720700025558 -0.036741629242897034
			vertex -0.055555559694767 -0.026646772399544716 -0.009564769454300404
			vertex -0.055555559694767 -0.023868678137660027 -0.00915028527379036
		endloop
	endfacet
	facet normal -1 0 0
		outer loop
			vertex -0.055555559694767 -0.07760720700025558 -0.036741629242897034
			vertex -0.055555559694767 -0.023868678137660027 -0.00915028527379036
			vertex -0.055555559694767 -0.02237863838672638 -0.012074851430952549
		endloop
	endfacet
	facet normal -1 0 0
		outer loop
			vertex -0.055555559694767 -0.07760720700025558 -0.036741629242897034
			vertex -0.055555559694767 -0.02237863838672638 -0.012074851430952549
			vertex -0.055555559694767 -0.02200186811387539 -0.013371585868299007
		endloop
	endfacet
	facet normal -1 0 0
		outer loop
			vertex -0.055555559694767 -0.1023595854640007 -0.036741629242897034
			vertex -0.055555559694767 -0.1023595854640007 -0.02086089737713337
			vertex -0.055555559694767 -0.026646772399544716 -0.009564769454300404
		endloop
	endfacet
	facet normal -1 0 0
		outer loop
			vertex -0.055555559694767 -0.03700309246778488 0.016629250720143318
			vertex -0.055555559694767 -0.0314374715089798 0.019102860242128372
			vertex -0.055555559694767 -0.02920723892748356 0.011427082121372223
		endloop
	endfacet
	facet normal -1 0 0
		outer loop
			vertex -0.055555559694767 -0.03700309246778488 0.016629250720143318
			vertex -0.055555559694767 -0.02920723892748356 0.011427082121372223
			vertex -0.055555559694767 -0.033225495368242264 0.009214782156050205
		endloop
	endfacet
	facet normal -1 0 0
		outer loop
			vertex -0.055555559694767 -0.025568664073944092 -0.00917778629809618
			vertex -0.055555559694767 -0.024119660258293152 -0.008657670579850674
			vertex -0.055555559694767 -0.023868678137660027 -0.00915028527379036
		endloop
	endfacet
	facet normal -1 0 0
		outer loop
			vertex -0.055555559694767 -0.025568664073944092 -0.00917778629809618
			vertex -0.055555559694767 -0.023868678137660027 -0.00915028527379036
			vertex -0.055555559694767 -0.02543836645781994 -0.009384478442370892
		endloop
	endfacet
	facet normal -1 0 0
		outer loop
			vertex -0.055555559694767 -0.04077928885817528 0.014950941316783428
			vertex -0.055555559694767 -0.03700309246778488 0.016629250720143318
			vertex -0.055555559694767 -0.024119660258293152 -0.008657670579850674
		endloop
	endfacet
	facet normal -1 0 0
		outer loop
			vertex -0.055555559694767 -0.04077928885817528 0.014950941316783428
			vertex -0.055555559694767 -0.024119660258293152 -0.008657670579850674
			vertex -0.055555559694767 -0.025568664073944092 -0.00917778629809618
		endloop
	endfacet
	facet normal -1 0 0
		outer loop
			vertex -0.055555559694767 -0.026646772399544716 -0.009564769454300404
			vertex -0.055555559694767 -0.025568664073944092 -0.00917778629809618
			vertex -0.055555559694767 -0.02543836645781994 -0.009384478442370892
		endloop
	endfacet
	facet normal -1 0 0
		outer loop
			vertex -0.055555559694767 -0.1023595854640007 -0.02086089737713337
			vertex -0.055555559694767 -0.1023595854640007 -0.012418074533343315
			vertex -0.055555559694767 -0.04077928885817528 0.014950941316783428
		endloop
	endfacet
	facet normal -1 0 0
		outer loop
			vertex -0.055555559694767 -0.1023595854640007 -0.02086089737713337
			vertex -0.055555559694767 -0.04077928885817528 0.014950941316783428
			vertex -0.055555559694767 -0.025568664073944092 -0.00917778629809618
		endloop
	endfacet
	facet normal -1 0 0
		outer loop
			vertex -0.055555559694767 -0.1023595854640007 -0.02086089737713337
			vertex -0.055555559694767 -0.025568664073944092 -0.00917778629809618
			vertex -0.055555559694767 -0.026646772399544716 -0.009564769454300404
		endloop
	endfacet
	facet normal -1 0 0
		outer loop
			vertex -0.055555559694767 -0.1023595854640007 -0.012418074533343315
			vertex -0.055555559694767 -0.1023595854640007 0.036741629242897034
			vertex -0.055555559694767 -0.04193631559610367 0.036741629242897034
		endloop
	endfacet
	facet normal -1 0 0
		outer loop
			vertex -0.055555559694767 -0.1023595854640007 -0.012418074533343315
			vertex -0.055555559694767 -0.04193631559610367 0.036741629242897034
			vertex -0.055555559694767 -0.03845855966210365 0.025872256606817245
		endloop
	endfacet
	facet normal -1 0 0
		outer loop
			vertex -0.055555559694767 -0.1023595854640007 -0.012418074533343315
			vertex -0.055555559694767 -0.03845855966210365 0.025872256606817245
			vertex -0.055555559694767 -0.04340456426143646 0.013784151524305344
		endloop
	endfacet
	facet normal -1 0 0
		outer loop
			vertex -0.055555559694767 -0.035503089427948 0.03309546038508415
			vertex -0.055555559694767 -0.0314374715089798 0.019102860242128372
			vertex -0.055555559694767 -0.04340456426143646 0.013784151524305344
		endloop
	endfacet
	facet normal 0 1 0
		outer loop
			vertex -0.003575199283659458 0.1023595854640007 0.036741629242897034
			vertex -0.0015277721686288714 0.1023595854640007 0.036741629242897034
			vertex -0.0023431191220879555 0.1023595854640007 0.03578886389732361
		endloop
	endfacet
	facet normal 0 1 0
		outer loop
			vertex -0.003575199283659458 0.1023595854640007 0.036741629242897034
			vertex -0.0023431191220879555 0.1023595854640007 0.03578886389732361
			vertex -0.0047653475776314735 0.1023595854640007 0.035230688750743866
		endloop
	endfacet
	facet normal 0 1 0
		outer loop
			vertex -0.0023431191220879555 0.1023595854640007 0.03578886389732361
			vertex -0.019548512995243073 0.1023595854640007 0.01568382978439331
			vertex -0.01917598396539688 0.1023595854640007 0.016935838386416435
		endloop
	endfacet
	facet normal 0 1 0
		outer loop
			vertex -0.0023431191220879555 0.1023595854640007 0.03578886389732361
			vertex -0.01917598396539688 0.1023595854640007 0.016935838386416435
			vertex -0.0047653475776314735 0.1023595854640007 0.035230688750743866
		endloop
	endfacet
	facet normal 0 1 0
		outer loop
			vertex -0.0015277721686288714 0.1023595854640007 0.036741629242897034
			vertex -0.0008684926433488727 0.1023595854640007 0.036741629242897034
			vertex -0.0007339053554460406 0.1023595854640007 0.03657083958387375
		endloop
	endfacet
	facet normal 0 1 0
		outer loop
			vertex -0.0015277721686288714 0.1023595854640007 0.036741629242897034
			vertex -0.0007339053554460406 0.1023595854640007 0.03657083958387375
			vertex -0.005475432612001896 0.1023595854640007 0.03212866559624672
		endloop
	endfacet
	facet normal 0 1 0
		outer loop
			vertex -0.02023359388113022 0.1023595854640007 0.013381472788751125
			vertex -0.0028666937723755836 0.1023595854640007 0.0018958840519189835
			vertex -0.03076948970556259 0.1023595854640007 -0.036741629242897034
		endloop
	endfacet
	facet normal 0 1 0
		outer loop
			vertex -0.02023359388113022 0.1023595854640007 0.013381472788751125
			vertex -0.03076948970556259 0.1023595854640007 -0.036741629242897034
			vertex -0.03514785319566727 0.1023595854640007 -0.036741629242897034
		endloop
	endfacet
	facet normal 0 1 0
		outer loop
			vertex -0.0005516119999811053 0.1023595854640007 0.036741629242897034
			vertex 0.02229781448841095 0.1023595854640007 0.036741629242897034
			vertex -0.0028666937723755836 0.1023595854640007 0.0018958840519189835
		endloop
	endfacet
	facet normal 0 1 0
		outer loop
			vertex -0.0005516119999811053 0.1023595854640007 0.036741629242897034
			vertex -0.0028666937723755836 0.1023595854640007 0.0018958840519189835
			vertex -0.02023359388113022 0.1023595854640007 0.013381472788751125
		endloop
	endfacet
	facet normal 0 1 0
		outer loop
			vertex -0.0005516119999811053 0.1023595854640007 0.036741629242897034
			vertex -0.02023359388113022 0.1023595854640007 0.013381472788751125
			vertex -0.019548512995243073 0.1023595854640007 0.01568382978439331
		endloop
	endfacet
	facet normal 0 1 0
		outer loop
			vertex -0.0005516119999811053 0.1023595854640007 0.036741629242897034
			vertex -0.019548512995243073 0.1023595854640007 0.01568382978439331
			vertex -0.005475432612001896 0.1023595854640007 0.03212866559624672
		endloop
	endfacet
	facet normal 0 1 0
		outer loop
			vertex -0.0028666937723755836 0.1023595854640007 0.0018958840519189835
			vertex -0.0009250276489183307 0.1023595854640007 0.0006117676384747028
			vertex -0.028317518532276154 0.1023595854640007 -0.036741629242897034
		endloop
	endfacet
	facet normal 0 1 0
		outer loop
			vertex -0.0028666937723755836 0.1023595854640007 0.0018958840519189835
			vertex -0.028317518532276154 0.1023595854640007 -0.036741629242897034
			vertex -0.03076948970556259 0.1023595854640007 -0.036741629242897034
		endloop
	endfacet
	facet normal 0 1 0
		outer loop
			vertex 0.02229781448841095 0.1023595854640007 0.036741629242897034
			vertex 0.025570198893547058 0.1023595854640007 0.036741629242897034
			vertex -0.0009250276489183307 0.1023595854640007 0.0006117676384747028
		endloop
	endfacet
	facet normal 0 1 0
		outer loop
			vertex 0.02229781448841095 0.1023595854640007 0.036741629242897034
			vertex -0.0009250276489183307 0.1023595854640007 0.0006117676384747028
			vertex -0.0028666937723755836 0.1023595854640007 0.0018958840519189835
		endloop
	endfacet
	facet normal 0 1 0
		outer loop
			vertex 0.0493619330227375 0.1023595854640007 -0.03264547884464264
			vertex 0.0555555522441864 0.1023595854640007 -0.036741629242897034
			vertex 0.04427449405193329 0.1023595854640007 -0.036741629242897034
		endloop
	endfacet
	facet normal 0 1 0
		outer loop
			vertex 0.0555555522441864 0.1023595854640007 -0.02765868976712227
			vertex 0.0555555522441864 0.1023595854640007 -0.036741629242897034
			vertex 0.0493619330227375 0.1023595854640007 -0.03264547884464264
		endloop
	endfacet
	facet normal 0 1 0
		outer loop
			vertex -0.0009250276489183307 0.1023595854640007 0.0006117676384747028
			vertex 0.0493619330227375 0.1023595854640007 -0.03264547884464264
			vertex 0.04427449405193329 0.1023595854640007 -0.036741629242897034
		endloop
	endfacet
	facet normal 0 1 0
		outer loop
			vertex -0.0009250276489183307 0.1023595854640007 0.0006117676384747028
			vertex 0.04427449405193329 0.1023595854640007 -0.036741629242897034
			vertex -0.028317518532276154 0.1023595854640007 -0.036741629242897034
		endloop
	endfacet
	facet normal 0 1 0
		outer loop
			vertex 0.025570198893547058 0.1023595854640007 0.036741629242897034
			vertex 0.0555555522441864 0.1023595854640007 0.036741629242897034
			vertex 0.0555555522441864 0.1023595854640007 -0.02765868976712227
		endloop
	endfacet
	facet normal 0 1 0
		outer loop
			vertex 0.025570198893547058 0.1023595854640007 0.036741629242897034
			vertex 0.0555555522441864 0.1023595854640007 -0.02765868976712227
			vertex 0.0493619330227375 0.1023595854640007 -0.03264547884464264
		endloop
	endfacet
	facet normal 0 1 0
		outer loop
			vertex 0.025570198893547058 0.1023595854640007 0.036741629242897034
			vertex 0.0493619330227375 0.1023595854640007 -0.03264547884464264
			vertex -0.0009250276489183307 0.1023595854640007 0.0006117676384747028
		endloop
	endfacet
	facet normal 0 -1 0
		outer loop
			vertex -0.055555559694767 -0.1023595854640007 -0.02086089737713337
			vertex -0.055555559694767 -0.1023595854640007 -0.036741629242897034
			vertex -0.05073470622301102 -0.1023595854640007 -0.033553361892700195
		endloop
	endfacet
	facet normal 0 -1 0
		outer loop
			vertex -0.055555559694767 -0.1023595854640007 -0.036741629242897034
			vertex -0.0495237335562706 -0.1023595854640007 -0.036741629242897034
			vertex -0.05073470622301102 -0.1023595854640007 -0.033553361892700195
		endloop
	endfacet
	facet normal 0 -1 0
		outer loop
			vertex -0.055555559694767 -0.1023595854640007 -0.012418074533343315
			vertex -0.055555559694767 -0.1023595854640007 -0.02086089737713337
			vertex -0.05073470622301102 -0.1023595854640007 -0.033553361892700195
		endloop
	endfacet
	facet normal 0 -1 0
		outer loop
			vertex -0.055555559694767 -0.1023595854640007 -0.012418074533343315
			vertex -0.05073470622301102 -0.1023595854640007 -0.033553361892700195
			vertex -0.03353508561849594 -0.1023595854640007 -0.022178402170538902
		endloop
	endfacet
	facet normal 0 -1 0
		outer loop
			vertex -0.055555559694767 -0.1023595854640007 -0.012418074533343315
			vertex -0.03353508561849594 -0.1023595854640007 -0.022178402170538902
			vertex -0.03303522616624832 -0.1023595854640007 -0.018379345536231995
		endloop
	endfacet
	facet normal 0 -1 0
		outer loop
			vertex -0.0495237335562706 -0.1023595854640007 -0.036741629242897034
			vertex -0.0354512557387352 -0.1023595854640007 -0.036741629242897034
			vertex -0.03353508561849594 -0.1023595854640007 -0.022178402170538902
		endloop
	endfacet
	facet normal 0 -1 0
		outer loop
			vertex -0.0495237335562706 -0.1023595854640007 -0.036741629242897034
			vertex -0.03353508561849594 -0.1023595854640007 -0.022178402170538902
			vertex -0.05073470622301102 -0.1023595854640007 -0.033553361892700195
		endloop
	endfacet
	facet normal 0 -1 0
		outer loop
			vertex -0.055555559694767 -0.1023595854640007 0.036741629242897034
			vertex -0.055555559694767 -0.1023595854640007 -0.012418074533343315
			vertex -0.03303522616624832 -0.1023595854640007 -0.018379345536231995
		endloop
	endfacet
	facet normal 0 -1 0
		outer loop
			vertex -0.055555559694767 -0.1023595854640007 0.036741629242897034
			vertex -0.03303522616624832 -0.1023595854640007 -0.018379345536231995
			vertex -0.025782637298107147 -0.1023595854640007 0.036741629242897034
		endloop
	endfacet
	facet normal 0 -1 0
		outer loop
			vertex -0.03353508561849594 -0.1023595854640007 -0.022178402170538902
			vertex -0.004413590766489506 -0.1023595854640007 -0.002918925601989031
			vertex -0.027028687298297882 -0.1023595854640007 0.027271391823887825
		endloop
	endfacet
	facet normal 0 -1 0
		outer loop
			vertex -0.0354512557387352 -0.1023595854640007 -0.036741629242897034
			vertex -0.021954111754894257 -0.1023595854640007 -0.036741629242897034
			vertex -0.0009080179734155536 -0.1023595854640007 -0.00759873166680336
		endloop
	endfacet
	facet normal 0 -1 0
		outer loop
			vertex -0.0354512557387352 -0.1023595854640007 -0.036741629242897034
			vertex -0.0009080179734155536 -0.1023595854640007 -0.00759873166680336
			vertex -0.004413590766489506 -0.1023595854640007 -0.002918925601989031
		endloop
	endfacet
	facet normal 0 -1 0
		outer loop
			vertex -0.0354512557387352 -0.1023595854640007 -0.036741629242897034
			vertex -0.004413590766489506 -0.1023595854640007 -0.002918925601989031
			vertex -0.03353508561849594 -0.1023595854640007 -0.022178402170538902
		endloop
	endfacet
	facet normal 0 -1 0
		outer loop
			vertex -0.004413590766489506 -0.1023595854640007 -0.002918925601989031
			vertex 0.008766449056565762 -0.1023595854640007 0.005797690711915493
			vertex 0.020829588174819946 -0.1023595854640007 0.022501731291413307
		endloop
	endfacet
	facet normal 0 -1 0
		outer loop
			vertex -0.004413590766489506 -0.1023595854640007 -0.002918925601989031
			vertex 0.020829588174819946 -0.1023595854640007 0.022501731291413307
			vertex 0.018435485661029816 -0.1023595854640007 0.036741629242897034
		endloop
	endfacet
	facet normal 0 -1 0
		outer loop
			vertex -0.004413590766489506 -0.1023595854640007 -0.002918925601989031
			vertex 0.018435485661029816 -0.1023595854640007 0.036741629242897034
			vertex -0.025782637298107147 -0.1023595854640007 0.036741629242897034
		endloop
	endfacet
	facet normal 0 -1 0
		outer loop
			vertex -0.004413590766489506 -0.1023595854640007 -0.002918925601989031
			vertex -0.025782637298107147 -0.1023595854640007 0.036741629242897034
			vertex -0.027028687298297882 -0.1023595854640007 0.027271391823887825
		endloop
	endfacet
	facet normal 0 -1 0
		outer loop
			vertex -0.0009080179734155536 -0.1023595854640007 -0.00759873166680336
			vertex 0.008766449056565762 -0.1023595854640007 0.005797690711915493
			vertex -0.004413590766489506 -0.1023595854640007 -0.002918925601989031
		endloop
	endfacet
	facet normal 0 -1 0
		outer loop
			vertex 0.020829588174819946 -0.1023595854640007 0.022501731291413307
			vertex 0.03111319988965988 -0.1023595854640007 0.036741629242897034
			vertex 0.018435485661029816 -0.1023595854640007 0.036741629242897034
		endloop
	endfacet
	facet normal 0 -1 0
		outer loop
			vertex -0.021954111754894257 -0.1023595854640007 -0.036741629242897034
			vertex -0.007845633663237095 -0.1023595854640007 -0.036741629242897034
			vertex 0.006385586224496365 -0.1023595854640007 -0.017335424199700356
		endloop
	endfacet
	facet normal 0 -1 0
		outer loop
			vertex -0.021954111754894257 -0.1023595854640007 -0.036741629242897034
			vertex 0.006385586224496365 -0.1023595854640007 -0.017335424199700356
			vertex -0.0009080179734155536 -0.1023595854640007 -0.00759873166680336
		endloop
	endfacet
	facet normal 0 -1 0
		outer loop
			vertex 0.008766449056565762 -0.1023595854640007 0.005797690711915493
			vertex 0.037083178758621216 -0.1023595854640007 0.024524936452507973
			vertex 0.04604208469390869 -0.1023595854640007 0.036741629242897034
		endloop
	endfacet
	facet normal 0 -1 0
		outer loop
			vertex 0.008766449056565762 -0.1023595854640007 0.005797690711915493
			vertex 0.04604208469390869 -0.1023595854640007 0.036741629242897034
			vertex 0.03111319988965988 -0.1023595854640007 0.036741629242897034
		endloop
	endfacet
	facet normal 0 -1 0
		outer loop
			vertex 0.006385586224496365 -0.1023595854640007 -0.017335424199700356
			vertex 0.037083178758621216 -0.1023595854640007 0.024524936452507973
			vertex 0.008766449056565762 -0.1023595854640007 0.005797690711915493
		endloop
	endfacet
	facet normal 0 -1 0
		outer loop
			vertex 0.006385586224496365 -0.1023595854640007 -0.017335424199700356
			vertex 0.008766449056565762 -0.1023595854640007 0.005797690711915493
			vertex -0.0009080179734155536 -0.1023595854640007 -0.00759873166680336
		endloop
	endfacet
	facet normal 0 -1 0
		outer loop
			vertex -0.007845633663237095 -0.1023595854640007 -0.036741629242897034
			vertex 0.008616610430181026 -0.1023595854640007 -0.036741629242897034
			vertex 0.0076007237657904625 -0.1023595854640007 -0.018957585096359253
		endloop
	endfacet
	facet normal 0 -1 0
		outer loop
			vertex -0.007845633663237095 -0.1023595854640007 -0.036741629242897034
			vertex 0.0076007237657904625 -0.1023595854640007 -0.018957585096359253
			vertex 0.006385586224496365 -0.1023595854640007 -0.017335424199700356
		endloop
	endfacet
	facet normal 0 -1 0
		outer loop
			vertex 0.0076007237657904625 -0.1023595854640007 -0.018957585096359253
			vertex 0.007426938973367214 -0.1023595854640007 -0.015915393829345703
			vertex 0.006385586224496365 -0.1023595854640007 -0.017335424199700356
		endloop
	endfacet
	facet normal 0 -1 0
		outer loop
			vertex 0.008616610430181026 -0.1023595854640007 -0.036741629242897034
			vertex 0.020922474563121796 -0.1023595854640007 -0.036741629242897034
			vertex 0.0076007237657904625 -0.1023595854640007 -0.018957585096359253
		endloop
	endfacet
	facet normal 0 -1 0
		outer loop
			vertex 0.020922474563121796 -0.1023595854640007 -0.036741629242897034
			vertex 0.041694387793540955 -0.1023595854640007 -0.036741629242897034
			vertex 0.036395758390426636 -0.1023595854640007 0.023587549105286598
		endloop
	endfacet
	facet normal 0 -1 0
		outer loop
			vertex 0.020922474563121796 -0.1023595854640007 -0.036741629242897034
			vertex 0.036395758390426636 -0.1023595854640007 0.023587549105286598
			vertex 0.007426938973367214 -0.1023595854640007 -0.015915393829345703
		endloop
	endfacet
	facet normal 0 -1 0
		outer loop
			vertex 0.020922474563121796 -0.1023595854640007 -0.036741629242897034
			vertex 0.007426938973367214 -0.1023595854640007 -0.015915393829345703
			vertex 0.0076007237657904625 -0.1023595854640007 -0.018957585096359253
		endloop
	endfacet
	facet normal 0 -1 0
		outer loop
			vertex 0.037083178758621216 -0.1023595854640007 0.024524936452507973
			vertex 0.0555555522441864 -0.1023595854640007 0.036741629242897034
			vertex 0.04604208469390869 -0.1023595854640007 0.036741629242897034
		endloop
	endfacet
	facet normal 0 -1 0
		outer loop
			vertex 0.041694387793540955 -0.1023595854640007 -0.036741629242897034
			vertex 0.0555555522441864 -0.1023595854640007 -0.036741629242897034
			vertex 0.0555555522441864 -0.1023595854640007 0.036741629242897034
		endloop
	endfacet
	facet normal 0 -1 0
		outer loop
			vertex 0.041694387793540955 -0.1023595854640007 -0.036741629242897034
			vertex 0.0555555522441864 -0.1023595854640007 0.036741629242897034
			vertex 0.037083178758621216 -0.1023595854640007 0.024524936452507973
		endloop
	endfacet
	facet normal 0 -1 0
		outer loop
			vertex 0.041694387793540955 -0.1023595854640007 -0.036741629242897034
			vertex 0.037083178758621216 -0.1023595854640007 0.024524936452507973
			vertex 0.036395758390426636 -0.1023595854640007 0.023587549105286598
		endloop
	endfacet
	facet normal 0 0 1
		outer loop
			vertex -0.04352080076932907 0.015417523682117462 0.036741629242897034
			vertex -0.035183824598789215 0.02038293518126011 0.036741629242897034
			vertex -0.02638208121061325 0.044986579567193985 0.036741629242897034
		endloop
	endfacet
	facet normal 0 0 1
		outer loop
			vertex -0.04352080076932907 0.015417523682117462 0.036741629242897034
			vertex -0.02638208121061325 0.044986579567193985 0.036741629242897034
			vertex -0.02641906589269638 0.05407632887363434 0.036741629242897034
		endloop
	endfacet
	facet normal 0 0 1
		outer loop
			vertex -0.04352080076932907 0.015417523682117462 0.036741629242897034
			vertex -0.02641906589269638 0.05407632887363434 0.036741629242897034
			vertex -0.03893587738275528 0.03154084086418152 0.036741629242897034
		endloop
	endfacet
	facet normal 0 0 1
		outer loop
			vertex -0.055555559694767 0.010058022104203701 0.036741629242897034
			vertex -0.055555559694767 0.008249761536717415 0.036741629242897034
			vertex -0.05258946865797043 0.010016326792538166 0.036741629242897034
		endloop
	endfacet
	facet normal 0 0 1
		outer loop
			vertex -0.055555559694767 0.010058022104203701 0.036741629242897034
			vertex -0.05258946865797043 0.010016326792538166 0.036741629242897034
			vertex -0.05525898188352585 0.010097102262079716 0.036741629242897034
		endloop
	endfacet
	facet normal 0 0 1
		outer loop
			vertex -0.04581593722105026 0.014050573110580444 0.036741629242897034
			vertex -0.04352080076932907 0.015417523682117462 0.036741629242897034
			vertex -0.03893587738275528 0.03154084086418152 0.036741629242897034
		endloop
	endfacet
	facet normal 0 0 1
		outer loop
			vertex -0.04581593722105026 0.014050573110580444 0.036741629242897034
			vertex -0.03893587738275528 0.03154084086418152 0.036741629242897034
			vertex -0.04186735302209854 0.026262950152158737 0.036741629242897034
		endloop
	endfacet
	facet normal 0 0 1
		outer loop
			vertex -0.055555559694767 0.008249761536717415 0.036741629242897034
			vertex -0.055555559694767 0.0016184545820578933 0.036741629242897034
			vertex -0.05091922730207443 0.009965786710381508 0.036741629242897034
		endloop
	endfacet
	facet normal 0 0 1
		outer loop
			vertex -0.055555559694767 0.008249761536717415 0.036741629242897034
			vertex -0.05091922730207443 0.009965786710381508 0.036741629242897034
			vertex -0.05258946865797043 0.010016326792538166 0.036741629242897034
		endloop
	endfacet
	facet normal 0 0 1
		outer loop
			vertex -0.055555559694767 0.0016184545820578933 0.036741629242897034
			vertex -0.055555559694767 -0.00005375180262490176 0.036741629242897034
			vertex -0.04959169775247574 0.009925618767738342 0.036741629242897034
		endloop
	endfacet
	facet normal 0 0 1
		outer loop
			vertex -0.055555559694767 0.0016184545820578933 0.036741629242897034
			vertex -0.04959169775247574 0.009925618767738342 0.036741629242897034
			vertex -0.05091922730207443 0.009965786710381508 0.036741629242897034
		endloop
	endfacet
	facet normal 0 0 1
		outer loop
			vertex -0.055555559694767 -0.00005375180262490176 0.036741629242897034
			vertex -0.055555559694767 -0.016072655096650124 0.036741629242897034
			vertex -0.04717329889535904 0.009852441027760506 0.036741629242897034
		endloop
	endfacet
	facet normal 0 0 1
		outer loop
			vertex -0.055555559694767 -0.00005375180262490176 0.036741629242897034
			vertex -0.04717329889535904 0.009852441027760506 0.036741629242897034
			vertex -0.04959169775247574 0.009925618767738342 0.036741629242897034
		endloop
	endfacet
	facet normal 0 0 1
		outer loop
			vertex -0.055555559694767 -0.016072655096650124 0.036741629242897034
			vertex -0.055555559694767 -0.03401121124625206 0.036741629242897034
			vertex -0.054853715002536774 -0.0346006378531456 0.036741629242897034
		endloop
	endfacet
	facet normal 0 0 1
		outer loop
			vertex -0.055555559694767 -0.016072655096650124 0.036741629242897034
			vertex -0.054853715002536774 -0.0346006378531456 0.036741629242897034
			vertex -0.035183824598789215 0.02038293518126011 0.036741629242897034
		endloop
	endfacet
	facet normal 0 0 1
		outer loop
			vertex -0.055555559694767 -0.016072655096650124 0.036741629242897034
			vertex -0.035183824598789215 0.02038293518126011 0.036741629242897034
			vertex -0.04581593722105026 0.014050573110580444 0.036741629242897034
		endloop
	endfacet
	facet normal 0 0 1
		outer loop
			vertex -0.02636577934026718 0.04097947105765343 0.036741629242897034
			vertex -0.02638208121061325 0.044986579567193985 0.036741629242897034
			vertex -0.035019777715206146 0.02084149792790413 0.036741629242897034
		endloop
	endfacet
	facet normal 0 0 1
		outer loop
			vertex -0.02636577934026718 0.04097947105765343 0.036741629242897034
			vertex -0.035019777715206146 0.02084149792790413 0.036741629242897034
			vertex -0.03257889300584793 0.02065304107964039 0.036741629242897034
		endloop
	endfacet
	facet normal 0 0 1
		outer loop
			vertex -0.02628111094236374 0.020166805014014244 0.036741629242897034
			vertex -0.02636577934026718 0.04097947105765343 0.036741629242897034
			vertex -0.03257889300584793 0.02065304107964039 0.036741629242897034
		endloop
	endfacet
	facet normal 0 0 1
		outer loop
			vertex -0.034483425319194794 0.020800083875656128 0.036741629242897034
			vertex -0.035019777715206146 0.02084149792790413 0.036741629242897034
			vertex -0.035183824598789215 0.02038293518126011 0.036741629242897034
		endloop
	endfacet
	facet normal 0 0 1
		outer loop
			vertex -0.055555559694767 -0.04193631559610367 0.036741629242897034
			vertex -0.055555559694767 -0.1023595854640007 0.036741629242897034
			vertex -0.03007439523935318 -0.055411241948604584 0.036741629242897034
		endloop
	endfacet
	facet normal 0 0 1
		outer loop
			vertex -0.055555559694767 -0.04193631559610367 0.036741629242897034
			vertex -0.03007439523935318 -0.055411241948604584 0.036741629242897034
			vertex -0.0492427721619606 -0.03931292146444321 0.036741629242897034
		endloop
	endfacet
	facet normal 0 0 1
		outer loop
			vertex -0.055555559694767 -0.1023595854640007 0.036741629242897034
			vertex -0.025782637298107147 -0.1023595854640007 0.036741629242897034
			vertex -0.025959573686122894 -0.058867014944553375 0.036741629242897034
		endloop
	endfacet
	facet normal 0 0 1
		outer loop
			vertex -0.055555559694767 -0.1023595854640007 0.036741629242897034
			vertex -0.025959573686122894 -0.058867014944553375 0.036741629242897034
			vertex -0.03007439523935318 -0.055411241948604584 0.036741629242897034
		endloop
	endfacet
	facet normal 0 0 1
		outer loop
			vertex -0.03007439523935318 -0.055411241948604584 0.036741629242897034
			vertex -0.026004157960414886 -0.047911930829286575 0.036741629242897034
			vertex -0.02628111094236374 0.020166805014014244 0.036741629242897034
		endloop
	endfacet
	facet normal 0 0 1
		outer loop
			vertex -0.03007439523935318 -0.055411241948604584 0.036741629242897034
			vertex -0.02628111094236374 0.020166805014014244 0.036741629242897034
			vertex -0.034483425319194794 0.020800083875656128 0.036741629242897034
		endloop
	endfacet
	facet normal 0 0 1
		outer loop
			vertex -0.03007439523935318 -0.055411241948604584 0.036741629242897034
			vertex -0.034483425319194794 0.020800083875656128 0.036741629242897034
			vertex -0.035183824598789215 0.02038293518126011 0.036741629242897034
		endloop
	endfacet
	facet normal 0 0 1
		outer loop
			vertex -0.03007439523935318 -0.055411241948604584 0.036741629242897034
			vertex -0.035183824598789215 0.02038293518126011 0.036741629242897034
			vertex -0.054853715002536774 -0.0346006378531456 0.036741629242897034
		endloop
	endfacet
	facet normal 0 0 1
		outer loop
			vertex -0.025959573686122894 -0.058867014944553375 0.036741629242897034
			vertex -0.026004157960414886 -0.047911930829286575 0.036741629242897034
			vertex -0.03007439523935318 -0.055411241948604584 0.036741629242897034
		endloop
	endfacet
	facet normal 0 0 1
		outer loop
			vertex -0.0015277721686288714 0.1023595854640007 0.036741629242897034
			vertex -0.003575199283659458 0.1023595854640007 0.036741629242897034
			vertex -0.004960828460752964 0.0962178111076355 0.036741629242897034
		endloop
	endfacet
	facet normal 0 0 1
		outer loop
			vertex -0.0015277721686288714 0.1023595854640007 0.036741629242897034
			vertex -0.004960828460752964 0.0962178111076355 0.036741629242897034
			vertex -0.0027793357148766518 0.09949178993701935 0.036741629242897034
		endloop
	endfacet
	facet normal 0 0 1
		outer loop
			vertex -0.0008684926433488727 0.1023595854640007 0.036741629242897034
			vertex -0.0015277721686288714 0.1023595854640007 0.036741629242897034
			vertex -0.0027793357148766518 0.09949178993701935 0.036741629242897034
		endloop
	endfacet
	facet normal 0 0 1
		outer loop
			vertex 0.022368572652339935 0.10071635991334915 0.036741629242897034
			vertex 0.02229781448841095 0.1023595854640007 0.036741629242897034
			vertex -0.0005516119999811053 0.1023595854640007 0.036741629242897034
		endloop
	endfacet
	facet normal 0 0 1
		outer loop
			vertex 0.022368572652339935 0.10071635991334915 0.036741629242897034
			vertex -0.0005516119999811053 0.1023595854640007 0.036741629242897034
			vertex -0.0034182602539658546 0.08853019028902054 0.036741629242897034
		endloop
	endfacet
	facet normal 0 0 1
		outer loop
			vertex 0.022368572652339935 0.10071635991334915 0.036741629242897034
			vertex -0.0034182602539658546 0.08853019028902054 0.036741629242897034
			vertex 0.016827955842018127 0.09553893655538559 0.036741629242897034
		endloop
	endfacet
	facet normal 0 0 1
		outer loop
			vertex 0.022506870329380035 0.09750483930110931 0.036741629242897034
			vertex 0.022368572652339935 0.10071635991334915 0.036741629242897034
			vertex 0.016827955842018127 0.09553893655538559 0.036741629242897034
		endloop
	endfacet
	facet normal 0 0 1
		outer loop
			vertex -0.02641906589269638 0.05407632887363434 0.036741629242897034
			vertex -0.02639733999967575 0.04873695969581604 0.036741629242897034
			vertex -0.02159438282251358 0.05677381530404091 0.036741629242897034
		endloop
	endfacet
	facet normal 0 0 1
		outer loop
			vertex -0.02641906589269638 0.05407632887363434 0.036741629242897034
			vertex -0.02159438282251358 0.05677381530404091 0.036741629242897034
			vertex -0.020965494215488434 0.06022290885448456 0.036741629242897034
		endloop
	endfacet
	facet normal 0 0 1
		outer loop
			vertex -0.02641906589269638 0.05407632887363434 0.036741629242897034
			vertex -0.020965494215488434 0.06022290885448456 0.036741629242897034
			vertex -0.025205962359905243 0.05626041814684868 0.036741629242897034
		endloop
	endfacet
	facet normal 0 0 1
		outer loop
			vertex -0.02639733999967575 0.04873695969581604 0.036741629242897034
			vertex -0.026324503123760223 0.03083118610084057 0.036741629242897034
			vertex -0.02159438282251358 0.05677381530404091 0.036741629242897034
		endloop
	endfacet
	facet normal 0 0 1
		outer loop
			vertex 0.016827955842018127 0.09553893655538559 0.036741629242897034
			vertex -0.0034182602539658546 0.08853019028902054 0.036741629242897034
			vertex -0.0064802030101418495 0.07375866919755936 0.036741629242897034
		endloop
	endfacet
	facet normal 0 0 1
		outer loop
			vertex -0.026004157960414886 -0.047911930829286575 0.036741629242897034
			vertex 0.024742476642131805 0.04558733478188515 0.036741629242897034
			vertex 0.022506870329380035 0.09750483930110931 0.036741629242897034
		endloop
	endfacet
	facet normal 0 0 1
		outer loop
			vertex -0.026004157960414886 -0.047911930829286575 0.036741629242897034
			vertex 0.022506870329380035 0.09750483930110931 0.036741629242897034
			vertex 0.016827955842018127 0.09553893655538559 0.036741629242897034
		endloop
	endfacet
	facet normal 0 0 1
		outer loop
			vertex -0.026004157960414886 -0.047911930829286575 0.036741629242897034
			vertex 0.016827955842018127 0.09553893655538559 0.036741629242897034
			vertex -0.020965494215488434 0.06022290885448456 0.036741629242897034
		endloop
	endfacet
	facet normal 0 0 1
		outer loop
			vertex -0.026004157960414886 -0.047911930829286575 0.036741629242897034
			vertex -0.020965494215488434 0.06022290885448456 0.036741629242897034
			vertex -0.026324503123760223 0.03083118610084057 0.036741629242897034
		endloop
	endfacet
	facet normal 0 0 1
		outer loop
			vertex -0.025782637298107147 -0.1023595854640007 0.036741629242897034
			vertex 0.018435485661029816 -0.1023595854640007 0.036741629242897034
			vertex 0.03021881729364395 -0.08158928900957108 0.036741629242897034
		endloop
	endfacet
	facet normal 0 0 1
		outer loop
			vertex -0.025782637298107147 -0.1023595854640007 0.036741629242897034
			vertex 0.03021881729364395 -0.08158928900957108 0.036741629242897034
			vertex 0.024742476642131805 0.04558733478188515 0.036741629242897034
		endloop
	endfacet
	facet normal 0 0 1
		outer loop
			vertex -0.025782637298107147 -0.1023595854640007 0.036741629242897034
			vertex 0.024742476642131805 0.04558733478188515 0.036741629242897034
			vertex -0.026004157960414886 -0.047911930829286575 0.036741629242897034
		endloop
	endfacet
	facet normal 0 0 1
		outer loop
			vertex 0.018435485661029816 -0.1023595854640007 0.036741629242897034
			vertex 0.03111319988965988 -0.1023595854640007 0.036741629242897034
			vertex 0.03021881729364395 -0.08158928900957108 0.036741629242897034
		endloop
	endfacet
	facet normal 0 0 1
		outer loop
			vertex 0.024742476642131805 0.04558733478188515 0.036741629242897034
			vertex 0.03023536503314972 0.05570783466100693 0.036741629242897034
			vertex 0.025570198893547058 0.1023595854640007 0.036741629242897034
		endloop
	endfacet
	facet normal 0 0 1
		outer loop
			vertex 0.024742476642131805 0.04558733478188515 0.036741629242897034
			vertex 0.025570198893547058 0.1023595854640007 0.036741629242897034
			vertex 0.02229781448841095 0.1023595854640007 0.036741629242897034
		endloop
	endfacet
	facet normal 0 0 1
		outer loop
			vertex 0.03111319988965988 -0.1023595854640007 0.036741629242897034
			vertex 0.04604208469390869 -0.1023595854640007 0.036741629242897034
			vertex 0.03023536503314972 0.05570783466100693 0.036741629242897034
		endloop
	endfacet
	facet normal 0 0 1
		outer loop
			vertex 0.03111319988965988 -0.1023595854640007 0.036741629242897034
			vertex 0.03023536503314972 0.05570783466100693 0.036741629242897034
			vertex 0.024742476642131805 0.04558733478188515 0.036741629242897034
		endloop
	endfacet
	facet normal 0 0 1
		outer loop
			vertex 0.04604208469390869 -0.1023595854640007 0.036741629242897034
			vertex 0.0555555522441864 -0.1023595854640007 0.036741629242897034
			vertex 0.0555555522441864 -0.10149729996919632 0.036741629242897034
		endloop
	endfacet
	facet normal 0 0 1
		outer loop
			vertex 0.04604208469390869 -0.1023595854640007 0.036741629242897034
			vertex 0.0555555522441864 -0.10149729996919632 0.036741629242897034
			vertex 0.04542860388755798 -0.09622477740049362 0.036741629242897034
		endloop
	endfacet
	facet normal 0 0 1
		outer loop
			vertex 0.03657253831624985 0.06738390773534775 0.036741629242897034
			vertex 0.0555555522441864 0.1023595854640007 0.036741629242897034
			vertex 0.025570198893547058 0.1023595854640007 0.036741629242897034
		endloop
	endfacet
	facet normal 0 0 1
		outer loop
			vertex 0.03657253831624985 0.06738390773534775 0.036741629242897034
			vertex 0.025570198893547058 0.1023595854640007 0.036741629242897034
			vertex 0.028690025210380554 0.07116123288869858 0.036741629242897034
		endloop
	endfacet
	facet normal 0 0 1
		outer loop
			vertex 0.0555555522441864 0.058287184685468674 0.036741629242897034
			vertex 0.0555555522441864 0.1023595854640007 0.036741629242897034
			vertex 0.03657253831624985 0.06738390773534775 0.036741629242897034
		endloop
	endfacet
	facet normal 0 0 1
		outer loop
			vertex 0.03023536503314972 0.05570783466100693 0.036741629242897034
			vertex 0.03657253831624985 0.06738390773534775 0.036741629242897034
			vertex 0.028690025210380554 0.07116123288869858 0.036741629242897034
		endloop
	endfacet
	facet normal 0 0 1
		outer loop
			vertex 0.0555555522441864 -0.02639791928231716 0.036741629242897034
			vertex 0.0555555522441864 0.058287184685468674 0.036741629242897034
			vertex 0.03657253831624985 0.06738390773534775 0.036741629242897034
		endloop
	endfacet
	facet normal 0 0 1
		outer loop
			vertex 0.0555555522441864 -0.02639791928231716 0.036741629242897034
			vertex 0.03657253831624985 0.06738390773534775 0.036741629242897034
			vertex 0.03023536503314972 0.05570783466100693 0.036741629242897034
		endloop
	endfacet
	facet normal 0 0 1
		outer loop
			vertex 0.0555555522441864 -0.02639791928231716 0.036741629242897034
			vertex 0.03023536503314972 0.05570783466100693 0.036741629242897034
			vertex 0.03803247958421707 -0.02226339839398861 0.036741629242897034
		endloop
	endfacet
	facet normal 0 0 1
		outer loop
			vertex 0.0555555522441864 -0.10149729996919632 0.036741629242897034
			vertex 0.0555555522441864 -0.07667949050664902 0.036741629242897034
			vertex 0.043367475271224976 -0.07561339437961578 0.036741629242897034
		endloop
	endfacet
	facet normal 0 0 1
		outer loop
			vertex 0.0555555522441864 -0.10149729996919632 0.036741629242897034
			vertex 0.043367475271224976 -0.07561339437961578 0.036741629242897034
			vertex 0.04542860388755798 -0.09622477740049362 0.036741629242897034
		endloop
	endfacet
	facet normal 0 0 1
		outer loop
			vertex 0.0555555522441864 -0.07667949050664902 0.036741629242897034
			vertex 0.0555555522441864 -0.02639791928231716 0.036741629242897034
			vertex 0.03803247958421707 -0.02226339839398861 0.036741629242897034
		endloop
	endfacet
	facet normal 0 0 1
		outer loop
			vertex 0.0555555522441864 -0.07667949050664902 0.036741629242897034
			vertex 0.03803247958421707 -0.02226339839398861 0.036741629242897034
			vertex 0.043367475271224976 -0.07561339437961578 0.036741629242897034
		endloop
	endfacet
	facet normal 0 0 -1
		outer loop
			vertex -0.0495237335562706 -0.1023595854640007 -0.036741629242897034
			vertex -0.055555559694767 -0.1023595854640007 -0.036741629242897034
			vertex -0.055555559694767 -0.07760720700025558 -0.036741629242897034
		endloop
	endfacet
	facet normal 0 0 -1
		outer loop
			vertex -0.0495237335562706 -0.1023595854640007 -0.036741629242897034
			vertex -0.055555559694767 -0.07760720700025558 -0.036741629242897034
			vertex -0.04678354412317276 -0.05400436744093895 -0.036741629242897034
		endloop
	endfacet
	facet normal 0 0 -1
		outer loop
			vertex -0.0354512557387352 -0.1023595854640007 -0.036741629242897034
			vertex -0.0495237335562706 -0.1023595854640007 -0.036741629242897034
			vertex -0.042520396411418915 0.021225785836577415 -0.036741629242897034
		endloop
	endfacet
	facet normal 0 0 -1
		outer loop
			vertex -0.0354512557387352 -0.1023595854640007 -0.036741629242897034
			vertex -0.042520396411418915 0.021225785836577415 -0.036741629242897034
			vertex -0.036027856171131134 0.039374493062496185 -0.036741629242897034
		endloop
	endfacet
	facet normal 0 0 -1
		outer loop
			vertex -0.021954111754894257 -0.1023595854640007 -0.036741629242897034
			vertex -0.0354512557387352 -0.1023595854640007 -0.036741629242897034
			vertex -0.03594187647104263 0.018237432464957237 -0.036741629242897034
		endloop
	endfacet
	facet normal 0 0 -1
		outer loop
			vertex -0.021954111754894257 -0.1023595854640007 -0.036741629242897034
			vertex -0.03594187647104263 0.018237432464957237 -0.036741629242897034
			vertex -0.026263244450092316 -0.002288850024342537 -0.036741629242897034
		endloop
	endfacet
	facet normal 0 0 -1
		outer loop
			vertex -0.03448183089494705 0.06353181600570679 -0.036741629242897034
			vertex -0.03613855689764023 0.06658429652452469 -0.036741629242897034
			vertex -0.036259301006793976 0.0962638258934021 -0.036741629242897034
		endloop
	endfacet
	facet normal 0 0 -1
		outer loop
			vertex -0.03448183089494705 0.06353181600570679 -0.036741629242897034
			vertex -0.036259301006793976 0.0962638258934021 -0.036741629242897034
			vertex -0.03514785319566727 0.1023595854640007 -0.036741629242897034
		endloop
	endfacet
	facet normal 0 0 -1
		outer loop
			vertex -0.03448183089494705 0.06353181600570679 -0.036741629242897034
			vertex -0.03514785319566727 0.1023595854640007 -0.036741629242897034
			vertex -0.03076948970556259 0.1023595854640007 -0.036741629242897034
		endloop
	endfacet
	facet normal 0 0 -1
		outer loop
			vertex -0.03448183089494705 0.06353181600570679 -0.036741629242897034
			vertex -0.03076948970556259 0.1023595854640007 -0.036741629242897034
			vertex -0.029176615178585052 0.06536835432052612 -0.036741629242897034
		endloop
	endfacet
	facet normal 0 0 -1
		outer loop
			vertex -0.03612381964921951 0.06296339631080627 -0.036741629242897034
			vertex -0.03613855689764023 0.06658429652452469 -0.036741629242897034
			vertex -0.03448183089494705 0.06353181600570679 -0.036741629242897034
		endloop
	endfacet
	facet normal 0 0 -1
		outer loop
			vertex -0.028633542358875275 0.05275651812553406 -0.036741629242897034
			vertex -0.03448183089494705 0.06353181600570679 -0.036741629242897034
			vertex -0.029176615178585052 0.06536835432052612 -0.036741629242897034
		endloop
	endfacet
	facet normal 0 0 -1
		outer loop
			vertex -0.03594187647104263 0.018237432464957237 -0.036741629242897034
			vertex -0.03612381964921951 0.06296339631080627 -0.036741629242897034
			vertex -0.03448183089494705 0.06353181600570679 -0.036741629242897034
		endloop
	endfacet
	facet normal 0 0 -1
		outer loop
			vertex -0.03594187647104263 0.018237432464957237 -0.036741629242897034
			vertex -0.03448183089494705 0.06353181600570679 -0.036741629242897034
			vertex -0.028633542358875275 0.05275651812553406 -0.036741629242897034
		endloop
	endfacet
	facet normal 0 0 -1
		outer loop
			vertex -0.03594187647104263 0.018237432464957237 -0.036741629242897034
			vertex -0.028633542358875275 0.05275651812553406 -0.036741629242897034
			vertex -0.02667289227247238 0.007224513217806816 -0.036741629242897034
		endloop
	endfacet
	facet normal 0 0 -1
		outer loop
			vertex -0.03594187647104263 0.018237432464957237 -0.036741629242897034
			vertex -0.02667289227247238 0.007224513217806816 -0.036741629242897034
			vertex -0.02950233966112137 0.004580555018037558 -0.036741629242897034
		endloop
	endfacet
	facet normal 0 0 -1
		outer loop
			vertex -0.02667289227247238 0.007224513217806816 -0.036741629242897034
			vertex -0.026263244450092316 -0.002288850024342537 -0.036741629242897034
			vertex -0.02950233966112137 0.004580555018037558 -0.036741629242897034
		endloop
	endfacet
	facet normal 0 0 -1
		outer loop
			vertex -0.007845633663237095 -0.1023595854640007 -0.036741629242897034
			vertex -0.021954111754894257 -0.1023595854640007 -0.036741629242897034
			vertex -0.026263244450092316 -0.002288850024342537 -0.036741629242897034
		endloop
	endfacet
	facet normal 0 0 -1
		outer loop
			vertex -0.007845633663237095 -0.1023595854640007 -0.036741629242897034
			vertex -0.026263244450092316 -0.002288850024342537 -0.036741629242897034
			vertex -0.015588887967169285 -0.024926846846938133 -0.036741629242897034
		endloop
	endfacet
	facet normal 0 0 -1
		outer loop
			vertex -0.02216549962759018 0.04083932191133499 -0.036741629242897034
			vertex -0.028633542358875275 0.05275651812553406 -0.036741629242897034
			vertex -0.03076948970556259 0.1023595854640007 -0.036741629242897034
		endloop
	endfacet
	facet normal 0 0 -1
		outer loop
			vertex -0.02216549962759018 0.04083932191133499 -0.036741629242897034
			vertex -0.03076948970556259 0.1023595854640007 -0.036741629242897034
			vertex -0.028317518532276154 0.1023595854640007 -0.036741629242897034
		endloop
	endfacet
	facet normal 0 0 -1
		outer loop
			vertex -0.026263244450092316 -0.002288850024342537 -0.036741629242897034
			vertex -0.028633542358875275 0.05275651812553406 -0.036741629242897034
			vertex -0.02216549962759018 0.04083932191133499 -0.036741629242897034
		endloop
	endfacet
	facet normal 0 0 -1
		outer loop
			vertex -0.026263244450092316 -0.002288850024342537 -0.036741629242897034
			vertex -0.02216549962759018 0.04083932191133499 -0.036741629242897034
			vertex -0.015588887967169285 -0.024926846846938133 -0.036741629242897034
		endloop
	endfacet
	facet normal 0 0 -1
		outer loop
			vertex 0.008616610430181026 -0.1023595854640007 -0.036741629242897034
			vertex -0.007845633663237095 -0.1023595854640007 -0.036741629242897034
			vertex -0.015588887967169285 -0.024926846846938133 -0.036741629242897034
		endloop
	endfacet
	facet normal 0 0 -1
		outer loop
			vertex 0.008616610430181026 -0.1023595854640007 -0.036741629242897034
			vertex -0.015588887967169285 -0.024926846846938133 -0.036741629242897034
			vertex -0.0026539573445916176 -0.05235905945301056 -0.036741629242897034
		endloop
	endfacet
	facet normal 0 0 -1
		outer loop
			vertex -0.015588887967169285 -0.024926846846938133 -0.036741629242897034
			vertex -0.02097245305776596 0.02890879474580288 -0.036741629242897034
			vertex -0.0026539573445916176 -0.05235905945301056 -0.036741629242897034
		endloop
	endfacet
	facet normal 0 0 -1
		outer loop
			vertex 0.020922474563121796 -0.1023595854640007 -0.036741629242897034
			vertex 0.008616610430181026 -0.1023595854640007 -0.036741629242897034
			vertex -0.0026539573445916176 -0.05235905945301056 -0.036741629242897034
		endloop
	endfacet
	facet normal 0 0 -1
		outer loop
			vertex 0.007875173352658749 -0.01450979895889759 -0.036741629242897034
			vertex -0.02216549962759018 0.04083932191133499 -0.036741629242897034
			vertex -0.02523011714220047 0.0714854747056961 -0.036741629242897034
		endloop
	endfacet
	facet normal 0 0 -1
		outer loop
			vertex 0.041694387793540955 -0.1023595854640007 -0.036741629242897034
			vertex 0.020922474563121796 -0.1023595854640007 -0.036741629242897034
			vertex -0.0026539573445916176 -0.05235905945301056 -0.036741629242897034
		endloop
	endfacet
	facet normal 0 0 -1
		outer loop
			vertex 0.041694387793540955 -0.1023595854640007 -0.036741629242897034
			vertex -0.0026539573445916176 -0.05235905945301056 -0.036741629242897034
			vertex -0.02097245305776596 0.02890879474580288 -0.036741629242897034
		endloop
	endfacet
	facet normal 0 0 -1
		outer loop
			vertex 0.041694387793540955 -0.1023595854640007 -0.036741629242897034
			vertex -0.02097245305776596 0.02890879474580288 -0.036741629242897034
			vertex -0.02216549962759018 0.04083932191133499 -0.036741629242897034
		endloop
	endfacet
	facet normal 0 0 -1
		outer loop
			vertex 0.041694387793540955 -0.1023595854640007 -0.036741629242897034
			vertex -0.02216549962759018 0.04083932191133499 -0.036741629242897034
			vertex 0.007875173352658749 -0.01450979895889759 -0.036741629242897034
		endloop
	endfacet
	facet normal 0 0 -1
		outer loop
			vertex 0.0555555522441864 -0.02280895784497261 -0.036741629242897034
			vertex 0.0555555522441864 -0.1023595854640007 -0.036741629242897034
			vertex 0.007875173352658749 -0.01450979895889759 -0.036741629242897034
		endloop
	endfacet
	facet normal 0 0 -1
		outer loop
			vertex 0.0555555522441864 -0.02280895784497261 -0.036741629242897034
			vertex 0.007875173352658749 -0.01450979895889759 -0.036741629242897034
			vertex -0.00008121215796563774 0.006157962139695883 -0.036741629242897034
		endloop
	endfacet
	facet normal 0 0 -1
		outer loop
			vertex 0.0555555522441864 -0.1023595854640007 -0.036741629242897034
			vertex 0.041694387793540955 -0.1023595854640007 -0.036741629242897034
			vertex 0.007875173352658749 -0.01450979895889759 -0.036741629242897034
		endloop
	endfacet
	facet normal 0 0 -1
		outer loop
			vertex 0.0555555522441864 0.1023595854640007 -0.036741629242897034
			vertex 0.0555555522441864 0.09282615780830383 -0.036741629242897034
			vertex 0.04427449405193329 0.1023595854640007 -0.036741629242897034
		endloop
	endfacet
	facet normal 0 0 -1
		outer loop
			vertex 0.0555555522441864 0.09282615780830383 -0.036741629242897034
			vertex 0.0555555522441864 -0.00525154173374176 -0.036741629242897034
			vertex 0.05097806826233864 -0.004171498119831085 -0.036741629242897034
		endloop
	endfacet
	facet normal 0 0 -1
		outer loop
			vertex 0.0555555522441864 0.09282615780830383 -0.036741629242897034
			vertex 0.05097806826233864 -0.004171498119831085 -0.036741629242897034
			vertex -0.006755189038813114 0.023494461551308632 -0.036741629242897034
		endloop
	endfacet
	facet normal 0 0 -1
		outer loop
			vertex 0.0555555522441864 0.09282615780830383 -0.036741629242897034
			vertex -0.006755189038813114 0.023494461551308632 -0.036741629242897034
			vertex -0.02523011714220047 0.0714854747056961 -0.036741629242897034
		endloop
	endfacet
	facet normal 0 0 -1
		outer loop
			vertex 0.0555555522441864 0.09282615780830383 -0.036741629242897034
			vertex -0.02523011714220047 0.0714854747056961 -0.036741629242897034
			vertex -0.028317518532276154 0.1023595854640007 -0.036741629242897034
		endloop
	endfacet
	facet normal 0 0 -1
		outer loop
			vertex 0.0555555522441864 0.09282615780830383 -0.036741629242897034
			vertex -0.028317518532276154 0.1023595854640007 -0.036741629242897034
			vertex 0.04427449405193329 0.1023595854640007 -0.036741629242897034
		endloop
	endfacet
	facet normal 0 0 -1
		outer loop
			vertex 0.05097806826233864 -0.004171498119831085 -0.036741629242897034
			vertex -0.0008085899753496051 0.008047417737543583 -0.036741629242897034
			vertex -0.006755189038813114 0.023494461551308632 -0.036741629242897034
		endloop
	endfacet
	facet normal 0 0 -1
		outer loop
			vertex 0.0555555522441864 -0.00525154173374176 -0.036741629242897034
			vertex 0.0555555522441864 -0.02280895784497261 -0.036741629242897034
			vertex -0.00008121215796563774 0.006157962139695883 -0.036741629242897034
		endloop
	endfacet
	facet normal 0 0 -1
		outer loop
			vertex 0.0555555522441864 -0.00525154173374176 -0.036741629242897034
			vertex -0.00008121215796563774 0.006157962139695883 -0.036741629242897034
			vertex -0.0008085899753496051 0.008047417737543583 -0.036741629242897034
		endloop
	endfacet
endsolid exported
