solid exported
	facet normal -0.18950282572346744 -0.820856759681435 -0.5387790448116149
		outer loop
			vertex 0.03225242346525192 -0.06900731474161148 0.036741625517606735
			vertex 0.030360311269760132 -0.06857050210237503 0.036741625517606735
			vertex 0.03226667642593384 -0.06899651139974594 0.0367201529443264
		endloop
	endfacet
	facet normal -0.1895087787254242 -0.8208594946038159 -0.5387727841166128
		outer loop
			vertex 0.04548732936382294 -0.07195094972848892 0.0365712009370327
			vertex 0.04561637341976166 -0.07209260016679764 0.036741625517606735
			vertex 0.03225242346525192 -0.06900731474161148 0.036741625517606735
		endloop
	endfacet
	facet normal -0.18950773044793082 -0.8208543020635521 -0.5387810639621937
		outer loop
			vertex 0.04548732936382294 -0.07195094972848892 0.0365712009370327
			vertex 0.03225242346525192 -0.06900731474161148 0.036741625517606735
			vertex 0.03226667642593384 -0.06899651139974594 0.0367201529443264
		endloop
	endfacet
	facet normal 0.46034356145135896 0.822186879405997 0.3348022412752154
		outer loop
			vertex 0.04513290524482727 -0.0718219056725502 0.036741625517606735
			vertex 0.04561637341976166 -0.07209260016679764 0.036741625517606735
			vertex 0.04548732936382294 -0.07195094972848892 0.0365712009370327
		endloop
	endfacet
	facet normal -0.18247394168241182 -0.8216753836162626 -0.5399563172757139
		outer loop
			vertex -0.055555559694767 -0.049178726971149445 0.036741625517606735
			vertex -0.055555559694767 -0.045971550047397614 0.03186112269759178
			vertex -0.030792273581027985 -0.054678045213222504 0.036741625517606735
		endloop
	endfacet
	facet normal -0.18247317487829462 -0.8216742850298062 -0.5399582481734972
		outer loop
			vertex -0.020143412053585052 -0.057042889297008514 0.036741625517606735
			vertex -0.030792273581027985 -0.054678045213222504 0.036741625517606735
			vertex -0.055555559694767 -0.045971550047397614 0.03186112269759178
		endloop
	endfacet
	facet normal -0.18247394987890328 -0.8216756995570181 -0.5399558337244599
		outer loop
			vertex -0.020143412053585052 -0.057042889297008514 0.036741625517606735
			vertex -0.055555559694767 -0.045971550047397614 0.03186112269759178
			vertex -0.055555559694767 -0.032813794910907745 0.011838359758257866
		endloop
	endfacet
	facet normal -0.18247393852912583 -0.8216756946250409 -0.5399558450652476
		outer loop
			vertex -0.020143412053585052 -0.057042889297008514 0.036741625517606735
			vertex -0.055555559694767 -0.032813794910907745 0.011838359758257866
			vertex -0.013677888549864292 -0.045668862760066986 0.01724827103316784
		endloop
	endfacet
	facet normal -0.18247415370844527 -0.8216754179466929 -0.5399561933810136
		outer loop
			vertex -0.006846972741186619 -0.04776572436094284 0.018130717799067497
			vertex -0.005126015283167362 -0.06037788838148117 0.036741625517606735
			vertex -0.020143412053585052 -0.057042889297008514 0.036741625517606735
		endloop
	endfacet
	facet normal -0.18247312715953296 -0.8216759527011643 -0.5399557265343659
		outer loop
			vertex -0.006846972741186619 -0.04776572436094284 0.018130717799067497
			vertex -0.020143412053585052 -0.057042889297008514 0.036741625517606735
			vertex -0.013677888549864292 -0.045668862760066986 0.01724827103316784
		endloop
	endfacet
	facet normal -0.1895099969379177 -0.8208686493571796 -0.5387584074175642
		outer loop
			vertex 0.03523966670036316 -0.060701631009578705 0.0230360459536314
			vertex 0.04548732936382294 -0.07195094972848892 0.0365712009370327
			vertex 0.030360311269760132 -0.06857050210237503 0.036741625517606735
		endloop
	endfacet
	facet normal -0.1895112027644336 -0.8208682425226078 -0.5387586031281757
		outer loop
			vertex 0.03523966670036316 -0.060701631009578705 0.0230360459536314
			vertex 0.030360311269760132 -0.06857050210237503 0.036741625517606735
			vertex -0.005126015283167362 -0.06037788838148117 0.036741625517606735
		endloop
	endfacet
	facet normal -0.18951117402486653 -0.8208683056909969 -0.538758516992269
		outer loop
			vertex 0.03523966670036316 -0.060701631009578705 0.0230360459536314
			vertex -0.005126015283167362 -0.06037788838148117 0.036741625517606735
			vertex -0.006846972741186619 -0.04776572436094284 0.018130717799067497
		endloop
	endfacet
	facet normal 0.4603560123857036 0.8221615533311886 0.3348473115979599
		outer loop
			vertex 0.0442960262298584 -0.07135330885648727 0.036741625517606735
			vertex 0.04513290524482727 -0.0718219056725502 0.036741625517606735
			vertex 0.04548732936382294 -0.07195094972848892 0.0365712009370327
		endloop
	endfacet
	facet normal 0.46035884380087394 0.8221840850994284 0.3347880899069417
		outer loop
			vertex 0.0442960262298584 -0.07135330885648727 0.036741625517606735
			vertex 0.04548732936382294 -0.07195094972848892 0.0365712009370327
			vertex 0.03523966670036316 -0.060701631009578705 0.0230360459536314
		endloop
	endfacet
	facet normal 0.4603571001845058 0.8221844703286232 0.3347895414438065
		outer loop
			vertex 0.0442960262298584 -0.07135330885648727 0.036741625517606735
			vertex 0.03523966670036316 -0.060701631009578705 0.0230360459536314
			vertex 0.034476689994335175 -0.06045074015855789 0.023469043895602226
		endloop
	endfacet
	facet normal 0.46036758590828314 0.8221824209727191 0.33478015545790374
		outer loop
			vertex 0.029864393174648285 -0.05893398076295853 0.026086581870913506
			vertex 0.041673749685287476 -0.0698850080370903 0.036741625517606735
			vertex 0.0442960262298584 -0.07135330885648727 0.036741625517606735
		endloop
	endfacet
	facet normal 0.4603676750888621 0.8221824204631448 0.33478003407407797
		outer loop
			vertex 0.029864393174648285 -0.05893398076295853 0.026086581870913506
			vertex 0.0442960262298584 -0.07135330885648727 0.036741625517606735
			vertex 0.034476689994335175 -0.06045074015855789 0.023469043895602226
		endloop
	endfacet
	facet normal 0.1620171009926222 -0.59282696447336 -0.7888641512828732
		outer loop
			vertex 0.05470208078622818 -0.06632442027330399 0.036741625517606735
			vertex 0.041673749685287476 -0.0698850080370903 0.036741625517606735
			vertex 0.029864393174648285 -0.05893398076295853 0.026086581870913506
		endloop
	endfacet
	facet normal 0.15579226562204906 -0.9406697557179419 -0.3014451536347809
		outer loop
			vertex -0.0076274508610367775 -0.0088029270991683 -0.03674163296818733
			vertex -0.00966880563646555 -0.010119727812707424 -0.033687520772218704
			vertex -0.010968142189085484 -0.009356207214295864 -0.03674163296818733
		endloop
	endfacet
	facet normal 0.3237504524908726 -0.8762829851001833 -0.35681055833014125
		outer loop
			vertex -0.01218565646559 -0.013630515895783901 -0.027349160984158516
			vertex -0.01218565646559 -0.009806028567254543 -0.03674163296818733
			vertex -0.010968142189085484 -0.009356207214295864 -0.03674163296818733
		endloop
	endfacet
	facet normal 0.32376042355606743 -0.8762803210801775 -0.3568080534775204
		outer loop
			vertex -0.01218565646559 -0.013630515895783901 -0.027349160984158516
			vertex -0.010968142189085484 -0.009356207214295864 -0.03674163296818733
			vertex -0.00966880563646555 -0.010119727812707424 -0.033687520772218704
		endloop
	endfacet
	facet normal -0.18246196074737828 -0.8216769503516294 -0.5399579818292053
		outer loop
			vertex -0.013394900597631931 -0.010252824984490871 -0.03674163296818733
			vertex -0.01192102674394846 -0.010580114088952541 -0.03674163296818733
			vertex -0.008400009013712406 -0.03638414293527603 0.0013356334529817104
		endloop
	endfacet
	facet normal -0.18247568092523014 -0.8216756656192323 -0.5399553003722304
		outer loop
			vertex -0.013394900597631931 -0.010252824984490871 -0.03674163296818733
			vertex -0.008400009013712406 -0.03638414293527603 0.0013356334529817104
			vertex -0.013677888549864292 -0.045668862760066986 0.01724827103316784
		endloop
	endfacet
	facet normal -0.18247377286159783 -0.8216759663094392 -0.5399554876164364
		outer loop
			vertex -0.013394900597631931 -0.010252824984490871 -0.03674163296818733
			vertex -0.013677888549864292 -0.045668862760066986 0.01724827103316784
			vertex -0.035041965544223785 -0.03911080211400986 0.014488382264971733
		endloop
	endfacet
	facet normal -0.18952262718603538 -0.820871366126099 -0.5387498251125238
		outer loop
			vertex -0.01192102674394846 -0.010580114088952541 -0.03674163296818733
			vertex -0.010018945671617985 -0.011019266210496426 -0.03674163296818733
			vertex 0.00017700261378195137 -0.022211795672774315 -0.023274781182408333
		endloop
	endfacet
	facet normal -0.18951040398274158 -0.8208685676273807 -0.5387583887640829
		outer loop
			vertex -0.01192102674394846 -0.010580114088952541 -0.03674163296818733
			vertex 0.00017700261378195137 -0.022211795672774315 -0.023274781182408333
			vertex -0.008400009013712406 -0.03638414293527603 0.0013356334529817104
		endloop
	endfacet
	facet normal 0.46034557121412395 0.8221870900931827 0.3347989604936775
		outer loop
			vertex -0.010018945671617985 -0.011019266210496426 -0.03674163296818733
			vertex -0.010068447329103947 -0.010991550050675869 -0.03674163296818733
			vertex -0.00019644283747766167 -0.02195257507264614 -0.023397864773869514
		endloop
	endfacet
	facet normal 0.46036346148243745 0.8221835999607876 0.33478293159512784
		outer loop
			vertex -0.010018945671617985 -0.011019266210496426 -0.03674163296818733
			vertex -0.00019644283747766167 -0.02195257507264614 -0.023397864773869514
			vertex 0.00017700261378195137 -0.022211795672774315 -0.023274781182408333
		endloop
	endfacet
	facet normal 0.4603749893873357 0.8221783808823075 0.33477989658334895
		outer loop
			vertex -0.010068447329103947 -0.010991550050675869 -0.03674163296818733
			vertex -0.01218565646559 -0.009806028567254543 -0.03674163296818733
			vertex -0.01218565646559 -0.013630515895783901 -0.027349160984158516
		endloop
	endfacet
	facet normal 0.4603672985836804 0.8221828786082764 0.3347794266650398
		outer loop
			vertex -0.010068447329103947 -0.010991550050675869 -0.03674163296818733
			vertex -0.01218565646559 -0.013630515895783901 -0.027349160984158516
			vertex -0.00019644283747766167 -0.02195257507264614 -0.023397864773869514
		endloop
	endfacet
	facet normal -0.1824760132710847 -0.8216746052705225 -0.5399568016371517
		outer loop
			vertex -0.055555559694767 -0.03182756155729294 0.010337544605135918
			vertex -0.014670916832983494 -0.00996944960206747 -0.03674163296818733
			vertex -0.013394900597631931 -0.010252824984490871 -0.03674163296818733
		endloop
	endfacet
	facet normal -0.18247390705003003 -0.8216759173663302 -0.5399555167475343
		outer loop
			vertex -0.055555559694767 -0.03182756155729294 0.010337544605135918
			vertex -0.013394900597631931 -0.010252824984490871 -0.03674163296818733
			vertex -0.035041965544223785 -0.03911080211400986 0.014488382264971733
		endloop
	endfacet
	facet normal -0.1824757151987193 -0.8216784582292233 -0.5399510391181431
		outer loop
			vertex -0.055555559694767 -0.03182756155729294 0.010337544605135918
			vertex -0.035041965544223785 -0.03911080211400986 0.014488382264971733
			vertex -0.055555559694767 -0.032813794910907745 0.011838359758257866
		endloop
	endfacet
	facet normal -0.18247428412673733 -0.8216755883759448 -0.5399558899572071
		outer loop
			vertex -0.055555559694767 -0.008989310823380947 -0.024416478350758553
			vertex -0.020358197391033173 -0.008706442080438137 -0.03674163296818733
			vertex -0.014670916832983494 -0.00996944960206747 -0.03674163296818733
		endloop
	endfacet
	facet normal -0.18247424924031797 -0.8216756767907522 -0.5399557672019456
		outer loop
			vertex -0.055555559694767 -0.008989310823380947 -0.024416478350758553
			vertex -0.014670916832983494 -0.00996944960206747 -0.03674163296818733
			vertex -0.055555559694767 -0.03182756155729294 0.010337544605135918
		endloop
	endfacet
	facet normal -0.2276010420678119 -0.7101320217922699 -0.6662659208415732
		outer loop
			vertex -0.055555559694767 0.0025744973681867123 -0.03674163296818733
			vertex -0.020358197391033173 -0.008706442080438137 -0.03674163296818733
			vertex -0.055555559694767 -0.008989310823380947 -0.024416478350758553
		endloop
	endfacet
	facet normal 0.527431607967311 0.051682184660894755 -0.8480240861589333
		outer loop
			vertex 0.0555555522441864 -0.051064930856227875 0.02838168852031231
			vertex 0.0555555522441864 -0.054674066603183746 0.028161732479929924
			vertex -0.01218565646559 -0.01994018815457821 -0.011853324249386787
		endloop
	endfacet
	facet normal 0.5274322833942269 0.05168436989520836 -0.8480235328940392
		outer loop
			vertex 0.0555555522441864 -0.051064930856227875 0.02838168852031231
			vertex -0.01218565646559 -0.01994018815457821 -0.011853324249386787
			vertex 0.0008903212146833539 -0.01845734380185604 -0.003630282822996378
		endloop
	endfacet
	facet normal 0.1557901875272732 -0.9406697225456558 -0.30144633113722946
		outer loop
			vertex 0.0555555522441864 0.0016612051986157894 -0.03674163296818733
			vertex 0.0555555522441864 -0.004615104291588068 -0.017156274989247322
			vertex 0.00266463216394186 -0.017367204651236534 -0.004697578493505716
		endloop
	endfacet
	facet normal 0.1557902072182652 -0.940669728556103 -0.30144630220501567
		outer loop
			vertex 0.0555555522441864 0.0016612051986157894 -0.03674163296818733
			vertex 0.00266463216394186 -0.017367204651236534 -0.004697578493505716
			vertex -0.00966880563646555 -0.010119727812707424 -0.033687520772218704
		endloop
	endfacet
	facet normal 0.15579018660251945 -0.9406696669875555 -0.30144650498533526
		outer loop
			vertex 0.0555555522441864 0.0016612051986157894 -0.03674163296818733
			vertex -0.00966880563646555 -0.010119727812707424 -0.033687520772218704
			vertex -0.0076274508610367775 -0.0088029270991683 -0.03674163296818733
		endloop
	endfacet
	facet normal 0.3237600732489161 -0.8762803804733821 -0.35680822547592933
		outer loop
			vertex -0.01218565646559 -0.01994018815457821 -0.011853324249386787
			vertex -0.01218565646559 -0.013630515895783901 -0.027349160984158516
			vertex -0.00966880563646555 -0.010119727812707424 -0.033687520772218704
		endloop
	endfacet
	facet normal 0.32375737090260837 -0.8762811171516011 -0.3568088683171608
		outer loop
			vertex -0.01218565646559 -0.01994018815457821 -0.011853324249386787
			vertex -0.00966880563646555 -0.010119727812707424 -0.033687520772218704
			vertex 0.00266463216394186 -0.017367204651236534 -0.004697578493505716
		endloop
	endfacet
	facet normal 0.3237576246348366 -0.8762807561375726 -0.35680952469598193
		outer loop
			vertex -0.01218565646559 -0.01994018815457821 -0.011853324249386787
			vertex 0.00266463216394186 -0.017367204651236534 -0.004697578493505716
			vertex 0.0008903212146833539 -0.01845734380185604 -0.003630282822996378
		endloop
	endfacet
	facet normal -0.18951173805360638 -0.8208685389154601 -0.5387579632438849
		outer loop
			vertex 0.00017700261378195137 -0.022211795672774315 -0.023274781182408333
			vertex 0.024952717125415802 -0.049409203231334686 0.00944901816546917
			vertex -0.005104728974401951 -0.030939137563109398 -0.008119644597172737
		endloop
	endfacet
	facet normal 0.4603674959790561 0.8221823969457128 0.3347803381302078
		outer loop
			vertex -0.01218565646559 -0.013630515895783901 -0.027349160984158516
			vertex -0.01218565646559 -0.01994018815457821 -0.011853324249386787
			vertex 0.024952717125415802 -0.049409203231334686 0.00944901816546917
		endloop
	endfacet
	facet normal 0.46036618350933833 0.822182537023291 0.33478179893027504
		outer loop
			vertex -0.01218565646559 -0.013630515895783901 -0.027349160984158516
			vertex 0.024952717125415802 -0.049409203231334686 0.00944901816546917
			vertex 0.00017700261378195137 -0.022211795672774315 -0.023274781182408333
		endloop
	endfacet
	facet normal 1 0 0
		outer loop
			vertex 0.0555555522441864 0.0016612051986157894 -0.03674163296818733
			vertex 0.0555555522441864 0.007791826035827398 -0.03674163296818733
			vertex 0.0555555522441864 0.00007037209434201941 -0.03177740052342415
		endloop
	endfacet
	facet normal 1 0 0
		outer loop
			vertex 0.0555555522441864 0.007791826035827398 -0.03674163296818733
			vertex 0.0555555522441864 0.009734787978231907 -0.03674163296818733
			vertex 0.0555555522441864 -0.0005042763077653944 -0.029984192922711372
		endloop
	endfacet
	facet normal 1 0 0
		outer loop
			vertex 0.0555555522441864 0.007791826035827398 -0.03674163296818733
			vertex 0.0555555522441864 -0.0005042763077653944 -0.029984192922711372
			vertex 0.0555555522441864 0.00007037209434201941 -0.03177740052342415
		endloop
	endfacet
	facet normal 1 0 0
		outer loop
			vertex 0.0555555522441864 0.009734787978231907 -0.03674163296818733
			vertex 0.0555555522441864 0.015362420119345188 -0.03674163296818733
			vertex 0.0555555522441864 -0.004615104291588068 -0.017156274989247322
		endloop
	endfacet
	facet normal 1 0 0
		outer loop
			vertex 0.0555555522441864 0.009734787978231907 -0.03674163296818733
			vertex 0.0555555522441864 -0.004615104291588068 -0.017156274989247322
			vertex 0.0555555522441864 -0.0005042763077653944 -0.029984192922711372
		endloop
	endfacet
	facet normal -0.18247336403146808 -0.8216764025667996 -0.5399549619032331
		outer loop
			vertex -0.008400009013712406 -0.03638414293527603 0.0013356334529817104
			vertex -0.006846972741186619 -0.04776572436094284 0.018130717799067497
			vertex -0.013677888549864292 -0.045668862760066986 0.01724827103316784
		endloop
	endfacet
	facet normal -0.1895115683184963 -0.8208690854209116 -0.5387571902756382
		outer loop
			vertex 0.024952717125415802 -0.049409203231334686 0.00944901816546917
			vertex 0.03523966670036316 -0.060701631009578705 0.0230360459536314
			vertex -0.006846972741186619 -0.04776572436094284 0.018130717799067497
		endloop
	endfacet
	facet normal -0.18951154533136844 -0.8208691545822294 -0.5387570929849304
		outer loop
			vertex 0.024952717125415802 -0.049409203231334686 0.00944901816546917
			vertex -0.006846972741186619 -0.04776572436094284 0.018130717799067497
			vertex -0.008400009013712406 -0.03638414293527603 0.0013356334529817104
		endloop
	endfacet
	facet normal -0.18951048023266592 -0.8208678750134949 -0.5387594172288905
		outer loop
			vertex 0.024952717125415802 -0.049409203231334686 0.00944901816546917
			vertex -0.008400009013712406 -0.03638414293527603 0.0013356334529817104
			vertex -0.005104728974401951 -0.030939137563109398 -0.008119644597172737
		endloop
	endfacet
	facet normal 0.46035700470803503 0.8221846299553731 0.33478928071458963
		outer loop
			vertex 0.034476689994335175 -0.06045074015855789 0.023469043895602226
			vertex 0.03523966670036316 -0.060701631009578705 0.0230360459536314
			vertex 0.024952717125415802 -0.049409203231334686 0.00944901816546917
		endloop
	endfacet
	facet normal 0.4603765578700176 0.8221804352052628 0.3347726944203172
		outer loop
			vertex 0.034476689994335175 -0.06045074015855789 0.023469043895602226
			vertex 0.024952717125415802 -0.049409203231334686 0.00944901816546917
			vertex 0.023479007184505463 -0.0482398197054863 0.008603719994425774
		endloop
	endfacet
	facet normal 0.4603676947035849 0.8221823876691914 0.334780087639475
		outer loop
			vertex -0.01218565646559 -0.01994018815457821 -0.011853324249386787
			vertex 0.029864393174648285 -0.05893398076295853 0.026086581870913506
			vertex 0.034476689994335175 -0.06045074015855789 0.023469043895602226
		endloop
	endfacet
	facet normal 0.4603663847631297 0.8221824073347435 0.3347818406804228
		outer loop
			vertex -0.01218565646559 -0.01994018815457821 -0.011853324249386787
			vertex 0.034476689994335175 -0.06045074015855789 0.023469043895602226
			vertex 0.023479007184505463 -0.0482398197054863 0.008603719994425774
		endloop
	endfacet
	facet normal 0.1620155988374563 -0.5928272172244764 -0.7888642698533278
		outer loop
			vertex 0.0555555522441864 -0.054674066603183746 0.028161732479929924
			vertex 0.0555555522441864 -0.06609117239713669 0.036741625517606735
			vertex 0.05470208078622818 -0.06632442027330399 0.036741625517606735
		endloop
	endfacet
	facet normal 0.16201699698561473 -0.5928271470269534 -0.7888640354558234
		outer loop
			vertex 0.0555555522441864 -0.054674066603183746 0.028161732479929924
			vertex 0.05470208078622818 -0.06632442027330399 0.036741625517606735
			vertex 0.029864393174648285 -0.05893398076295853 0.026086581870913506
		endloop
	endfacet
	facet normal 0.1620170337816001 -0.5928275028988363 -0.7888637604626936
		outer loop
			vertex 0.0555555522441864 -0.054674066603183746 0.028161732479929924
			vertex 0.029864393174648285 -0.05893398076295853 0.026086581870913506
			vertex -0.01218565646559 -0.01994018815457821 -0.011853324249386787
		endloop
	endfacet
	facet normal 1 0 0
		outer loop
			vertex 0.0555555522441864 -0.059592269361019135 0.036741625517606735
			vertex 0.0555555522441864 -0.06609117239713669 0.036741625517606735
			vertex 0.0555555522441864 -0.054674066603183746 0.028161732479929924
		endloop
	endfacet
	facet normal 1 0 0
		outer loop
			vertex 0.0555555522441864 -0.059592269361019135 0.036741625517606735
			vertex 0.0555555522441864 -0.054674066603183746 0.028161732479929924
			vertex 0.0555555522441864 -0.051064930856227875 0.02838168852031231
		endloop
	endfacet
	facet normal 0.5274321866084933 0.05168413445400343 -0.8480236074397483
		outer loop
			vertex 0.0555555522441864 -0.05008230358362198 0.028441576287150383
			vertex 0.0555555522441864 -0.051064930856227875 0.02838168852031231
			vertex 0.0008903212146833539 -0.01845734380185604 -0.003630282822996378
		endloop
	endfacet
	facet normal 0.5274298253959713 0.05167819669378921 -0.8480254378668445
		outer loop
			vertex 0.0555555522441864 -0.05008230358362198 0.028441576287150383
			vertex 0.0008903212146833539 -0.01845734380185604 -0.003630282822996378
			vertex 0.003932653926312923 -0.018112337216734886 -0.0017170780338346958
		endloop
	endfacet
	facet normal 0.15578943298970768 -0.9406691308303045 -0.30144856753964666
		outer loop
			vertex 0.0555555522441864 -0.005255317781120539 -0.015158506110310555
			vertex 0.003932653926312923 -0.018112337216734886 -0.0017170780338346958
			vertex 0.00266463216394186 -0.017367204651236534 -0.004697578493505716
		endloop
	endfacet
	facet normal 0.15578889252019476 -0.9406685573969361 -0.3014506362443086
		outer loop
			vertex 0.0555555522441864 -0.005255317781120539 -0.015158506110310555
			vertex 0.00266463216394186 -0.017367204651236534 -0.004697578493505716
			vertex 0.0555555522441864 -0.004615104291588068 -0.017156274989247322
		endloop
	endfacet
	facet normal 0.32375656075037024 -0.8762805251208844 -0.356811057374851
		outer loop
			vertex 0.00266463216394186 -0.017367204651236534 -0.004697578493505716
			vertex 0.003932653926312923 -0.018112337216734886 -0.0017170780338346958
			vertex 0.0008903212146833539 -0.01845734380185604 -0.003630282822996378
		endloop
	endfacet
	facet normal -0.013000629958467158 -0.6971698197618762 -0.716788131900826
		outer loop
			vertex 0.0555555522441864 -0.05008230358362198 0.028441576287150383
			vertex 0.003932653926312923 -0.018112337216734886 -0.0017170780338346958
			vertex 0.0555555522441864 -0.005255317781120539 -0.015158506110310555
		endloop
	endfacet
	facet normal 1 0 0
		outer loop
			vertex 0.0555555522441864 -0.03303002566099167 0.01185603253543377
			vertex 0.0555555522441864 -0.011427453719079494 0.004101855214685202
			vertex 0.0555555522441864 -0.019818415865302086 0.030286042019724846
		endloop
	endfacet
	facet normal 1 0 0
		outer loop
			vertex 0.0555555522441864 -0.03303002566099167 0.01185603253543377
			vertex 0.0555555522441864 -0.019818415865302086 0.030286042019724846
			vertex 0.0555555522441864 -0.05008230358362198 0.028441576287150383
		endloop
	endfacet
	facet normal 1 0 0
		outer loop
			vertex 0.0555555522441864 -0.011427453719079494 0.004101855214685202
			vertex 0.0555555522441864 -0.03303002566099167 0.01185603253543377
			vertex 0.0555555522441864 -0.005255317781120539 -0.015158506110310555
		endloop
	endfacet
	facet normal 1 0 0
		outer loop
			vertex 0.0555555522441864 0.015362420119345188 -0.03674163296818733
			vertex 0.0555555522441864 0.026308516040444374 -0.03674163296818733
			vertex 0.0555555522441864 -0.008128679357469082 -0.006192075554281473
		endloop
	endfacet
	facet normal 1 0 0
		outer loop
			vertex 0.0555555522441864 0.015362420119345188 -0.03674163296818733
			vertex 0.0555555522441864 -0.008128679357469082 -0.006192075554281473
			vertex 0.0555555522441864 -0.004615104291588068 -0.017156274989247322
		endloop
	endfacet
	facet normal 1 0 0
		outer loop
			vertex 0.0555555522441864 -0.011427453719079494 0.004101855214685202
			vertex 0.0555555522441864 0.013581075705587864 -0.004874872509390116
			vertex 0.0555555522441864 -0.003301492426544428 0.031292688101530075
		endloop
	endfacet
	facet normal 1 0 0
		outer loop
			vertex 0.0555555522441864 -0.011427453719079494 0.004101855214685202
			vertex 0.0555555522441864 -0.003301492426544428 0.031292688101530075
			vertex 0.0555555522441864 -0.019818415865302086 0.030286042019724846
		endloop
	endfacet
	facet normal 1 0 0
		outer loop
			vertex 0.0555555522441864 0.026308516040444374 -0.03674163296818733
			vertex 0.0555555522441864 0.028456086292862892 -0.03674163296818733
			vertex 0.0555555522441864 0.013581075705587864 -0.004874872509390116
		endloop
	endfacet
	facet normal 1 0 0
		outer loop
			vertex 0.0555555522441864 0.026308516040444374 -0.03674163296818733
			vertex 0.0555555522441864 0.013581075705587864 -0.004874872509390116
			vertex 0.0555555522441864 -0.011427453719079494 0.004101855214685202
		endloop
	endfacet
	facet normal 1 0 0
		outer loop
			vertex 0.0555555522441864 0.026308516040444374 -0.03674163296818733
			vertex 0.0555555522441864 -0.011427453719079494 0.004101855214685202
			vertex 0.0555555522441864 -0.008128679357469082 -0.006192075554281473
		endloop
	endfacet
	facet normal 1 0 0
		outer loop
			vertex 0.0555555522441864 -0.005845001433044672 0.036741625517606735
			vertex 0.0555555522441864 -0.059592269361019135 0.036741625517606735
			vertex 0.0555555522441864 -0.051064930856227875 0.02838168852031231
		endloop
	endfacet
	facet normal 1 0 0
		outer loop
			vertex 0.0555555522441864 -0.005845001433044672 0.036741625517606735
			vertex 0.0555555522441864 -0.051064930856227875 0.02838168852031231
			vertex 0.0555555522441864 -0.003301492426544428 0.031292688101530075
		endloop
	endfacet
	facet normal 0 1 0
		outer loop
			vertex -0.055555559694767 0.10202724486589432 -0.03674163296818733
			vertex -0.055555559694767 0.10202724486589432 0.036741625517606735
			vertex 0.0555555522441864 0.10202724486589432 0.036741625517606735
		endloop
	endfacet
	facet normal 0 1 0
		outer loop
			vertex -0.055555559694767 0.10202724486589432 -0.03674163296818733
			vertex 0.0555555522441864 0.10202724486589432 0.036741625517606735
			vertex 0.0555555522441864 0.10202724486589432 -0.03674163296818733
		endloop
	endfacet
	facet normal 1 0 0
		outer loop
			vertex 0.0555555522441864 0.0041451542638242245 0.036741625517606735
			vertex 0.0555555522441864 -0.005845001433044672 0.036741625517606735
			vertex 0.0555555522441864 0.013581075705587864 -0.004874872509390116
		endloop
	endfacet
	facet normal 1 0 0
		outer loop
			vertex 0.0555555522441864 0.0041451542638242245 0.036741625517606735
			vertex 0.0555555522441864 0.013581075705587864 -0.004874872509390116
			vertex 0.0555555522441864 0.02751057781279087 -0.009874822571873665
		endloop
	endfacet
	facet normal 1 0 0
		outer loop
			vertex 0.0555555522441864 0.028456086292862892 -0.03674163296818733
			vertex 0.0555555522441864 0.04097691923379898 -0.03674163296818733
			vertex 0.0555555522441864 0.02751057781279087 -0.009874822571873665
		endloop
	endfacet
	facet normal 1 0 0
		outer loop
			vertex 0.0555555522441864 0.028456086292862892 -0.03674163296818733
			vertex 0.0555555522441864 0.02751057781279087 -0.009874822571873665
			vertex 0.0555555522441864 0.013581075705587864 -0.004874872509390116
		endloop
	endfacet
	facet normal 1 0 0
		outer loop
			vertex 0.0555555522441864 0.06165311485528946 0.036741625517606735
			vertex 0.0555555522441864 0.0041451542638242245 0.036741625517606735
			vertex 0.0555555522441864 0.02751057781279087 -0.009874822571873665
		endloop
	endfacet
	facet normal 1 0 0
		outer loop
			vertex 0.0555555522441864 0.06165311485528946 0.036741625517606735
			vertex 0.0555555522441864 0.02751057781279087 -0.009874822571873665
			vertex 0.0555555522441864 0.05789167433977127 -0.020780013874173164
		endloop
	endfacet
	facet normal 1 0 0
		outer loop
			vertex 0.0555555522441864 0.04097691923379898 -0.03674163296818733
			vertex 0.0555555522441864 0.05684790760278702 -0.03674163296818733
			vertex 0.0555555522441864 0.05789167433977127 -0.020780013874173164
		endloop
	endfacet
	facet normal 1 0 0
		outer loop
			vertex 0.0555555522441864 0.04097691923379898 -0.03674163296818733
			vertex 0.0555555522441864 0.05789167433977127 -0.020780013874173164
			vertex 0.0555555522441864 0.02751057781279087 -0.009874822571873665
		endloop
	endfacet
	facet normal 1 0 0
		outer loop
			vertex 0.0555555522441864 0.08994657546281815 0.036741625517606735
			vertex 0.0555555522441864 0.06165311485528946 0.036741625517606735
			vertex 0.0555555522441864 0.05789167433977127 -0.020780013874173164
		endloop
	endfacet
	facet normal 1 0 0
		outer loop
			vertex 0.0555555522441864 0.08994657546281815 0.036741625517606735
			vertex 0.0555555522441864 0.05789167433977127 -0.020780013874173164
			vertex 0.0555555522441864 0.07281557470560074 -0.026136891916394234
		endloop
	endfacet
	facet normal 1 0 0
		outer loop
			vertex 0.0555555522441864 0.05684790760278702 -0.03674163296818733
			vertex 0.0555555522441864 0.06992635875940323 -0.03674163296818733
			vertex 0.0555555522441864 0.07281557470560074 -0.026136891916394234
		endloop
	endfacet
	facet normal 1 0 0
		outer loop
			vertex 0.0555555522441864 0.05684790760278702 -0.03674163296818733
			vertex 0.0555555522441864 0.07281557470560074 -0.026136891916394234
			vertex 0.0555555522441864 0.05789167433977127 -0.020780013874173164
		endloop
	endfacet
	facet normal 1 0 0
		outer loop
			vertex 0.0555555522441864 0.06992635875940323 -0.03674163296818733
			vertex 0.0555555522441864 0.07112226635217667 -0.03674163296818733
			vertex 0.0555555522441864 0.07014060765504837 -0.03595517948269844
		endloop
	endfacet
	facet normal 1 0 0
		outer loop
			vertex 0.0555555522441864 0.10202724486589432 0.036741625517606735
			vertex 0.0555555522441864 0.08994657546281815 0.036741625517606735
			vertex 0.0555555522441864 0.07281557470560074 -0.026136891916394234
		endloop
	endfacet
	facet normal 1 0 0
		outer loop
			vertex 0.0555555522441864 0.10202724486589432 0.036741625517606735
			vertex 0.0555555522441864 0.07281557470560074 -0.026136891916394234
			vertex 0.0555555522441864 0.10202724486589432 -0.03662233427166939
		endloop
	endfacet
	facet normal 1 0 0
		outer loop
			vertex 0.0555555522441864 0.07112226635217667 -0.03674163296818733
			vertex 0.0555555522441864 0.10202724486589432 -0.03674163296818733
			vertex 0.0555555522441864 0.10202724486589432 -0.03662233427166939
		endloop
	endfacet
	facet normal 1 0 0
		outer loop
			vertex 0.0555555522441864 0.07112226635217667 -0.03674163296818733
			vertex 0.0555555522441864 0.10202724486589432 -0.03662233427166939
			vertex 0.0555555522441864 0.07281557470560074 -0.026136891916394234
		endloop
	endfacet
	facet normal 1 0 0
		outer loop
			vertex 0.0555555522441864 0.07112226635217667 -0.03674163296818733
			vertex 0.0555555522441864 0.07281557470560074 -0.026136891916394234
			vertex 0.0555555522441864 0.07014060765504837 -0.03595517948269844
		endloop
	endfacet
	facet normal -1 0 0
		outer loop
			vertex -0.055555559694767 -0.049178726971149445 0.036741625517606735
			vertex -0.055555559694767 -0.04573250561952591 0.036741625517606735
			vertex -0.055555559694767 -0.045971550047397614 0.03186112269759178
		endloop
	endfacet
	facet normal -1 0 0
		outer loop
			vertex -0.055555559694767 -0.04573250561952591 0.036741625517606735
			vertex -0.055555559694767 -0.041023142635822296 0.036741625517606735
			vertex -0.055555559694767 -0.032400794327259064 0.024986980482935905
		endloop
	endfacet
	facet normal -1 0 0
		outer loop
			vertex -0.055555559694767 -0.04573250561952591 0.036741625517606735
			vertex -0.055555559694767 -0.032400794327259064 0.024986980482935905
			vertex -0.055555559694767 -0.032813794910907745 0.011838359758257866
		endloop
	endfacet
	facet normal -1 0 0
		outer loop
			vertex -0.055555559694767 -0.04573250561952591 0.036741625517606735
			vertex -0.055555559694767 -0.032813794910907745 0.011838359758257866
			vertex -0.055555559694767 -0.045971550047397614 0.03186112269759178
		endloop
	endfacet
	facet normal -1 0 0
		outer loop
			vertex -0.055555559694767 -0.041023142635822296 0.036741625517606735
			vertex -0.055555559694767 -0.03203155845403671 0.036741625517606735
			vertex -0.055555559694767 -0.032400794327259064 0.024986980482935905
		endloop
	endfacet
	facet normal -1 0 0
		outer loop
			vertex -0.055555559694767 -0.032813794910907745 0.011838359758257866
			vertex -0.055555559694767 -0.03276868909597397 0.013274399563670158
			vertex -0.055555559694767 -0.03182756155729294 0.010337544605135918
		endloop
	endfacet
	facet normal -1 0 0
		outer loop
			vertex -0.055555559694767 0.012878798879683018 -0.03674163296818733
			vertex -0.055555559694767 0.0025744973681867123 -0.03674163296818733
			vertex -0.055555559694767 -0.008989310823380947 -0.024416478350758553
		endloop
	endfacet
	facet normal -1 0 0
		outer loop
			vertex -0.055555559694767 0.012878798879683018 -0.03674163296818733
			vertex -0.055555559694767 -0.008989310823380947 -0.024416478350758553
			vertex -0.055555559694767 -0.02025633119046688 -0.007270934525877237
		endloop
	endfacet
	facet normal -1 0 0
		outer loop
			vertex -0.055555559694767 0.012878798879683018 -0.03674163296818733
			vertex -0.055555559694767 -0.02025633119046688 -0.007270934525877237
			vertex -0.055555559694767 -0.011139235459268093 -0.003998386207967997
		endloop
	endfacet
	facet normal -1 0 0
		outer loop
			vertex -0.055555559694767 -0.011139235459268093 -0.003998386207967997
			vertex -0.055555559694767 -0.02025633119046688 -0.007270934525877237
			vertex -0.055555559694767 -0.03182756155729294 0.010337544605135918
		endloop
	endfacet
	facet normal -1 0 0
		outer loop
			vertex -0.055555559694767 -0.011139235459268093 -0.003998386207967997
			vertex -0.055555559694767 -0.03182756155729294 0.010337544605135918
			vertex -0.055555559694767 -0.03276868909597397 0.013274399563670158
		endloop
	endfacet
	facet normal -1 0 0
		outer loop
			vertex -0.055555559694767 -0.011139235459268093 -0.003998386207967997
			vertex -0.055555559694767 -0.03276868909597397 0.013274399563670158
			vertex -0.055555559694767 -0.032400794327259064 0.024986980482935905
		endloop
	endfacet
	facet normal -1 0 0
		outer loop
			vertex -0.055555559694767 0.01527013722807169 -0.03674163296818733
			vertex -0.055555559694767 0.014283576048910618 -0.03674163296818733
			vertex -0.055555559694767 0.01521239522844553 -0.03668500855565071
		endloop
	endfacet
	facet normal -1 0 0
		outer loop
			vertex -0.055555559694767 0.013952010311186314 -0.035449374467134476
			vertex -0.055555559694767 0.01521239522844553 -0.03668500855565071
			vertex -0.055555559694767 0.014473476447165012 -0.036730069667100906
		endloop
	endfacet
	facet normal -1 0 0
		outer loop
			vertex -0.055555559694767 0.014283576048910618 -0.03674163296818733
			vertex -0.055555559694767 0.012878798879683018 -0.03674163296818733
			vertex -0.055555559694767 0.006756195332854986 -0.02839483506977558
		endloop
	endfacet
	facet normal -1 0 0
		outer loop
			vertex -0.055555559694767 0.014283576048910618 -0.03674163296818733
			vertex -0.055555559694767 0.006756195332854986 -0.02839483506977558
			vertex -0.055555559694767 0.013952010311186314 -0.035449374467134476
		endloop
	endfacet
	facet normal -1 0 0
		outer loop
			vertex -0.055555559694767 0.014283576048910618 -0.03674163296818733
			vertex -0.055555559694767 0.013952010311186314 -0.035449374467134476
			vertex -0.055555559694767 0.014473476447165012 -0.036730069667100906
		endloop
	endfacet
	facet normal -1 0 0
		outer loop
			vertex -0.055555559694767 0.057670362293720245 -0.03674163296818733
			vertex -0.055555559694767 0.01527013722807169 -0.03674163296818733
			vertex -0.055555559694767 0.01521239522844553 -0.03668500855565071
		endloop
	endfacet
	facet normal -1 0 0
		outer loop
			vertex -0.055555559694767 0.057670362293720245 -0.03674163296818733
			vertex -0.055555559694767 0.01521239522844553 -0.03668500855565071
			vertex -0.055555559694767 0.056470222771167755 -0.03417052701115608
		endloop
	endfacet
	facet normal -1 0 0
		outer loop
			vertex -0.055555559694767 0.01521239522844553 -0.03668500855565071
			vertex -0.055555559694767 0.006756195332854986 -0.02839483506977558
			vertex -0.055555559694767 -0.011139235459268093 -0.003998386207967997
		endloop
	endfacet
	facet normal -1 0 0
		outer loop
			vertex -0.055555559694767 0.01521239522844553 -0.03668500855565071
			vertex -0.055555559694767 -0.011139235459268093 -0.003998386207967997
			vertex -0.055555559694767 0.03470494598150253 0.012457219883799553
		endloop
	endfacet
	facet normal -1 0 0
		outer loop
			vertex -0.055555559694767 0.01521239522844553 -0.03668500855565071
			vertex -0.055555559694767 0.03470494598150253 0.012457219883799553
			vertex -0.055555559694767 0.056470222771167755 -0.03417052701115608
		endloop
	endfacet
	facet normal -1 0 0
		outer loop
			vertex -0.055555559694767 -0.03203155845403671 0.036741625517606735
			vertex -0.055555559694767 0.023369276896119118 0.036741625517606735
			vertex -0.055555559694767 0.03470494598150253 0.012457219883799553
		endloop
	endfacet
	facet normal -1 0 0
		outer loop
			vertex -0.055555559694767 -0.03203155845403671 0.036741625517606735
			vertex -0.055555559694767 0.03470494598150253 0.012457219883799553
			vertex -0.055555559694767 -0.011139235459268093 -0.003998386207967997
		endloop
	endfacet
	facet normal -1 0 0
		outer loop
			vertex -0.055555559694767 -0.03203155845403671 0.036741625517606735
			vertex -0.055555559694767 -0.011139235459268093 -0.003998386207967997
			vertex -0.055555559694767 -0.032400794327259064 0.024986980482935905
		endloop
	endfacet
	facet normal -1 0 0
		outer loop
			vertex -0.055555559694767 0.06926686316728592 -0.03674163296818733
			vertex -0.055555559694767 0.057670362293720245 -0.03674163296818733
			vertex -0.055555559694767 0.03470494598150253 0.012457219883799553
		endloop
	endfacet
	facet normal -1 0 0
		outer loop
			vertex -0.055555559694767 0.06926686316728592 -0.03674163296818733
			vertex -0.055555559694767 0.03470494598150253 0.012457219883799553
			vertex -0.055555559694767 0.07339216023683548 0.02634386532008648
		endloop
	endfacet
	facet normal -1 0 0
		outer loop
			vertex -0.055555559694767 0.023369276896119118 0.036741625517606735
			vertex -0.055555559694767 0.07407207041978836 0.036741625517606735
			vertex -0.055555559694767 0.07339216023683548 0.02634386532008648
		endloop
	endfacet
	facet normal -1 0 0
		outer loop
			vertex -0.055555559694767 0.023369276896119118 0.036741625517606735
			vertex -0.055555559694767 0.07339216023683548 0.02634386532008648
			vertex -0.055555559694767 0.03470494598150253 0.012457219883799553
		endloop
	endfacet
	facet normal -1 0 0
		outer loop
			vertex -0.055555559694767 0.09316075593233109 -0.03674163296818733
			vertex -0.055555559694767 0.06926686316728592 -0.03674163296818733
			vertex -0.055555559694767 0.07339216023683548 0.02634386532008648
		endloop
	endfacet
	facet normal -1 0 0
		outer loop
			vertex -0.055555559694767 0.09316075593233109 -0.03674163296818733
			vertex -0.055555559694767 0.07339216023683548 0.02634386532008648
			vertex -0.055555559694767 0.10202724486589432 0.036622341722249985
		endloop
	endfacet
	facet normal -1 0 0
		outer loop
			vertex -0.055555559694767 0.09316075593233109 -0.03674163296818733
			vertex -0.055555559694767 0.10202724486589432 0.036622341722249985
			vertex -0.055555559694767 0.10202724486589432 -0.0041976445354521275
		endloop
	endfacet
	facet normal -1 0 0
		outer loop
			vertex -0.055555559694767 0.07407207041978836 0.036741625517606735
			vertex -0.055555559694767 0.10202724486589432 0.036741625517606735
			vertex -0.055555559694767 0.10202724486589432 0.036622341722249985
		endloop
	endfacet
	facet normal -1 0 0
		outer loop
			vertex -0.055555559694767 0.07407207041978836 0.036741625517606735
			vertex -0.055555559694767 0.10202724486589432 0.036622341722249985
			vertex -0.055555559694767 0.07339216023683548 0.02634386532008648
		endloop
	endfacet
	facet normal -1 0 0
		outer loop
			vertex -0.055555559694767 0.10202724486589432 -0.03674163296818733
			vertex -0.055555559694767 0.09316075593233109 -0.03674163296818733
			vertex -0.055555559694767 0.09374386817216873 -0.03460125997662544
		endloop
	endfacet
	facet normal -1 0 0
		outer loop
			vertex -0.055555559694767 0.10202724486589432 -0.03674163296818733
			vertex -0.055555559694767 0.09374386817216873 -0.03460125997662544
			vertex -0.055555559694767 0.10202724486589432 -0.03408600762486458
		endloop
	endfacet
	facet normal -1 0 0
		outer loop
			vertex -0.055555559694767 0.09374386817216873 -0.03460125997662544
			vertex -0.055555559694767 0.10202724486589432 -0.0041976445354521275
			vertex -0.055555559694767 0.10202724486589432 -0.03408600762486458
		endloop
	endfacet
	facet normal 0 0 1
		outer loop
			vertex 0.03225242346525192 -0.06900731474161148 0.036741625517606735
			vertex 0.03224075585603714 -0.06898436695337296 0.036741625517606735
			vertex 0.030360311269760132 -0.06857050210237503 0.036741625517606735
		endloop
	endfacet
	facet normal 0 0 1
		outer loop
			vertex 0.04513290524482727 -0.0718219056725502 0.036741625517606735
			vertex 0.03224075585603714 -0.06898436695337296 0.036741625517606735
			vertex 0.03225242346525192 -0.06900731474161148 0.036741625517606735
		endloop
	endfacet
	facet normal 0 0 1
		outer loop
			vertex 0.04513290524482727 -0.0718219056725502 0.036741625517606735
			vertex 0.03225242346525192 -0.06900731474161148 0.036741625517606735
			vertex 0.04561637341976166 -0.07209260016679764 0.036741625517606735
		endloop
	endfacet
	facet normal 0 0 1
		outer loop
			vertex -0.055555559694767 -0.04573250561952591 0.036741625517606735
			vertex -0.055555559694767 -0.049178726971149445 0.036741625517606735
			vertex -0.030792273581027985 -0.054678045213222504 0.036741625517606735
		endloop
	endfacet
	facet normal 0 0 1
		outer loop
			vertex -0.055555559694767 -0.041023142635822296 0.036741625517606735
			vertex -0.055555559694767 -0.04573250561952591 0.036741625517606735
			vertex -0.030792273581027985 -0.054678045213222504 0.036741625517606735
		endloop
	endfacet
	facet normal 0 0 1
		outer loop
			vertex -0.055555559694767 -0.041023142635822296 0.036741625517606735
			vertex -0.030792273581027985 -0.054678045213222504 0.036741625517606735
			vertex -0.029796473681926727 -0.0548991784453392 0.036741625517606735
		endloop
	endfacet
	facet normal 0 0 1
		outer loop
			vertex -0.055555559694767 -0.041023142635822296 0.036741625517606735
			vertex -0.029796473681926727 -0.0548991784453392 0.036741625517606735
			vertex -0.028827719390392303 -0.05311428755521774 0.036741625517606735
		endloop
	endfacet
	facet normal 0 0 1
		outer loop
			vertex -0.028827719390392303 -0.05311428755521774 0.036741625517606735
			vertex -0.029796473681926727 -0.0548991784453392 0.036741625517606735
			vertex -0.020143412053585052 -0.057042889297008514 0.036741625517606735
		endloop
	endfacet
	facet normal 0 0 1
		outer loop
			vertex 0.0442960262298584 -0.07135330885648727 0.036741625517606735
			vertex -0.005126015283167362 -0.06037788838148117 0.036741625517606735
			vertex 0.030360311269760132 -0.06857050210237503 0.036741625517606735
		endloop
	endfacet
	facet normal 0 0 1
		outer loop
			vertex 0.0442960262298584 -0.07135330885648727 0.036741625517606735
			vertex 0.030360311269760132 -0.06857050210237503 0.036741625517606735
			vertex 0.04513290524482727 -0.0718219056725502 0.036741625517606735
		endloop
	endfacet
	facet normal 0 0 1
		outer loop
			vertex 0.05470208078622818 -0.06632442027330399 0.036741625517606735
			vertex 0.011089316569268703 -0.05275977402925491 0.036741625517606735
			vertex 0.041673749685287476 -0.0698850080370903 0.036741625517606735
		endloop
	endfacet
	facet normal 0 0 1
		outer loop
			vertex -0.055555559694767 -0.03203155845403671 0.036741625517606735
			vertex -0.055555559694767 -0.041023142635822296 0.036741625517606735
			vertex -0.028827719390392303 -0.05311428755521774 0.036741625517606735
		endloop
	endfacet
	facet normal 0 0 1
		outer loop
			vertex -0.055555559694767 -0.03203155845403671 0.036741625517606735
			vertex -0.028827719390392303 -0.05311428755521774 0.036741625517606735
			vertex -0.022897981107234955 -0.042188890278339386 0.036741625517606735
		endloop
	endfacet
	facet normal 0 0 1
		outer loop
			vertex 0.011089316569268703 -0.05275977402925491 0.036741625517606735
			vertex -0.022897981107234955 -0.042188890278339386 0.036741625517606735
			vertex -0.028827719390392303 -0.05311428755521774 0.036741625517606735
		endloop
	endfacet
	facet normal 0 0 1
		outer loop
			vertex 0.011089316569268703 -0.05275977402925491 0.036741625517606735
			vertex -0.028827719390392303 -0.05311428755521774 0.036741625517606735
			vertex -0.020143412053585052 -0.057042889297008514 0.036741625517606735
		endloop
	endfacet
	facet normal 0 0 1
		outer loop
			vertex 0.011089316569268703 -0.05275977402925491 0.036741625517606735
			vertex -0.020143412053585052 -0.057042889297008514 0.036741625517606735
			vertex 0.0442960262298584 -0.07135330885648727 0.036741625517606735
		endloop
	endfacet
	facet normal 0 0 1
		outer loop
			vertex 0.0555555522441864 -0.06609117239713669 0.036741625517606735
			vertex 0.0555555522441864 -0.059592269361019135 0.036741625517606735
			vertex 0.03311695158481598 -0.05961091071367264 0.036741625517606735
		endloop
	endfacet
	facet normal 0 0 1
		outer loop
			vertex 0.0555555522441864 -0.06609117239713669 0.036741625517606735
			vertex 0.03311695158481598 -0.05961091071367264 0.036741625517606735
			vertex 0.05470208078622818 -0.06632442027330399 0.036741625517606735
		endloop
	endfacet
	facet normal 0 0 1
		outer loop
			vertex -0.055555559694767 0.023369276896119118 0.036741625517606735
			vertex -0.055555559694767 -0.03203155845403671 0.036741625517606735
			vertex -0.022897981107234955 -0.042188890278339386 0.036741625517606735
		endloop
	endfacet
	facet normal 0 0 1
		outer loop
			vertex -0.055555559694767 0.023369276896119118 0.036741625517606735
			vertex -0.022897981107234955 -0.042188890278339386 0.036741625517606735
			vertex 0.00416173692792654 0.007667893078178167 0.036741625517606735
		endloop
	endfacet
	facet normal 0 0 1
		outer loop
			vertex 0.0555555522441864 -0.059592269361019135 0.036741625517606735
			vertex 0.0555555522441864 -0.005845001433044672 0.036741625517606735
			vertex 0.00416173692792654 0.007667893078178167 0.036741625517606735
		endloop
	endfacet
	facet normal 0 0 1
		outer loop
			vertex 0.0555555522441864 -0.059592269361019135 0.036741625517606735
			vertex 0.00416173692792654 0.007667893078178167 0.036741625517606735
			vertex -0.022897981107234955 -0.042188890278339386 0.036741625517606735
		endloop
	endfacet
	facet normal 0 0 1
		outer loop
			vertex 0.0555555522441864 -0.059592269361019135 0.036741625517606735
			vertex -0.022897981107234955 -0.042188890278339386 0.036741625517606735
			vertex 0.03311695158481598 -0.05961091071367264 0.036741625517606735
		endloop
	endfacet
	facet normal 0 0 1
		outer loop
			vertex 0.0555555522441864 -0.005845001433044672 0.036741625517606735
			vertex 0.0555555522441864 0.0041451542638242245 0.036741625517606735
			vertex 0.030181966722011566 0.0008264420903287828 0.036741625517606735
		endloop
	endfacet
	facet normal 0 0 1
		outer loop
			vertex -0.055555559694767 0.07407207041978836 0.036741625517606735
			vertex -0.055555559694767 0.023369276896119118 0.036741625517606735
			vertex 0.00416173692792654 0.007667893078178167 0.036741625517606735
		endloop
	endfacet
	facet normal 0 0 1
		outer loop
			vertex -0.055555559694767 0.07407207041978836 0.036741625517606735
			vertex 0.00416173692792654 0.007667893078178167 0.036741625517606735
			vertex 0.03472576290369034 0.06398127228021622 0.036741625517606735
		endloop
	endfacet
	facet normal 0 0 1
		outer loop
			vertex 0.0555555522441864 0.0041451542638242245 0.036741625517606735
			vertex 0.0555555522441864 0.06165311485528946 0.036741625517606735
			vertex 0.03472576290369034 0.06398127228021622 0.036741625517606735
		endloop
	endfacet
	facet normal 0 0 1
		outer loop
			vertex 0.0555555522441864 0.0041451542638242245 0.036741625517606735
			vertex 0.03472576290369034 0.06398127228021622 0.036741625517606735
			vertex 0.00416173692792654 0.007667893078178167 0.036741625517606735
		endloop
	endfacet
	facet normal 0 0 1
		outer loop
			vertex 0.0555555522441864 0.0041451542638242245 0.036741625517606735
			vertex 0.00416173692792654 0.007667893078178167 0.036741625517606735
			vertex 0.030181966722011566 0.0008264420903287828 0.036741625517606735
		endloop
	endfacet
	facet normal 0 0 1
		outer loop
			vertex -0.055555559694767 0.10202724486589432 0.036741625517606735
			vertex -0.055555559694767 0.07407207041978836 0.036741625517606735
			vertex 0.03472576290369034 0.06398127228021622 0.036741625517606735
		endloop
	endfacet
	facet normal 0 0 1
		outer loop
			vertex -0.055555559694767 0.10202724486589432 0.036741625517606735
			vertex 0.03472576290369034 0.06398127228021622 0.036741625517606735
			vertex 0.04950510710477829 0.09121180325746536 0.036741625517606735
		endloop
	endfacet
	facet normal 0 0 1
		outer loop
			vertex -0.055555559694767 0.10202724486589432 0.036741625517606735
			vertex 0.04950510710477829 0.09121180325746536 0.036741625517606735
			vertex -0.0022162729874253273 0.10202724486589432 0.036741625517606735
		endloop
	endfacet
	facet normal 0 0 1
		outer loop
			vertex 0.0555555522441864 0.06165311485528946 0.036741625517606735
			vertex 0.0555555522441864 0.08994657546281815 0.036741625517606735
			vertex 0.04950510710477829 0.09121180325746536 0.036741625517606735
		endloop
	endfacet
	facet normal 0 0 1
		outer loop
			vertex 0.0555555522441864 0.06165311485528946 0.036741625517606735
			vertex 0.04950510710477829 0.09121180325746536 0.036741625517606735
			vertex 0.03472576290369034 0.06398127228021622 0.036741625517606735
		endloop
	endfacet
	facet normal 0 0 1
		outer loop
			vertex 0.04950510710477829 0.09121180325746536 0.036741625517606735
			vertex 0.05537516996264458 0.10202724486589432 0.036741625517606735
			vertex -0.0022162729874253273 0.10202724486589432 0.036741625517606735
		endloop
	endfacet
	facet normal 0 0 1
		outer loop
			vertex 0.0555555522441864 0.08994657546281815 0.036741625517606735
			vertex 0.0555555522441864 0.10202724486589432 0.036741625517606735
			vertex 0.05537516996264458 0.10202724486589432 0.036741625517606735
		endloop
	endfacet
	facet normal 0 0 1
		outer loop
			vertex 0.0555555522441864 0.08994657546281815 0.036741625517606735
			vertex 0.05537516996264458 0.10202724486589432 0.036741625517606735
			vertex 0.04950510710477829 0.09121180325746536 0.036741625517606735
		endloop
	endfacet
	facet normal 0 0 -1
		outer loop
			vertex -0.01192102674394846 -0.010580114088952541 -0.03674163296818733
			vertex -0.010068447329103947 -0.010991550050675869 -0.03674163296818733
			vertex -0.010018945671617985 -0.011019266210496426 -0.03674163296818733
		endloop
	endfacet
	facet normal 0 0 -1
		outer loop
			vertex -0.013394900597631931 -0.010252824984490871 -0.03674163296818733
			vertex -0.01218565646559 -0.009806028567254543 -0.03674163296818733
			vertex -0.010068447329103947 -0.010991550050675869 -0.03674163296818733
		endloop
	endfacet
	facet normal 0 0 -1
		outer loop
			vertex -0.014670916832983494 -0.00996944960206747 -0.03674163296818733
			vertex -0.010968142189085484 -0.009356207214295864 -0.03674163296818733
			vertex -0.013394900597631931 -0.010252824984490871 -0.03674163296818733
		endloop
	endfacet
	facet normal 0 0 -1
		outer loop
			vertex -0.055555559694767 0.0025744973681867123 -0.03674163296818733
			vertex -0.055555559694767 0.012878798879683018 -0.03674163296818733
			vertex -0.0076274508610367775 -0.0088029270991683 -0.03674163296818733
		endloop
	endfacet
	facet normal 0 0 -1
		outer loop
			vertex -0.055555559694767 0.0025744973681867123 -0.03674163296818733
			vertex -0.0076274508610367775 -0.0088029270991683 -0.03674163296818733
			vertex -0.014670916832983494 -0.00996944960206747 -0.03674163296818733
		endloop
	endfacet
	facet normal 0 0 -1
		outer loop
			vertex -0.055555559694767 0.0025744973681867123 -0.03674163296818733
			vertex -0.014670916832983494 -0.00996944960206747 -0.03674163296818733
			vertex -0.020358197391033173 -0.008706442080438137 -0.03674163296818733
		endloop
	endfacet
	facet normal 0 0 -1
		outer loop
			vertex 0.0555555522441864 0.007791826035827398 -0.03674163296818733
			vertex 0.0555555522441864 0.0016612051986157894 -0.03674163296818733
			vertex 0.04275628924369812 -0.0004585595161188394 -0.03674163296818733
		endloop
	endfacet
	facet normal 0 0 -1
		outer loop
			vertex 0.0555555522441864 0.009734787978231907 -0.03674163296818733
			vertex 0.0555555522441864 0.007791826035827398 -0.03674163296818733
			vertex 0.04275628924369812 -0.0004585595161188394 -0.03674163296818733
		endloop
	endfacet
	facet normal 0 0 -1
		outer loop
			vertex 0.0555555522441864 0.009734787978231907 -0.03674163296818733
			vertex 0.04275628924369812 -0.0004585595161188394 -0.03674163296818733
			vertex 0.03852365165948868 -0.0011595548130571842 -0.03674163296818733
		endloop
	endfacet
	facet normal 0 0 -1
		outer loop
			vertex 0.0555555522441864 0.015362420119345188 -0.03674163296818733
			vertex 0.0555555522441864 0.009734787978231907 -0.03674163296818733
			vertex 0.03852365165948868 -0.0011595548130571842 -0.03674163296818733
		endloop
	endfacet
	facet normal 0 0 -1
		outer loop
			vertex 0.0555555522441864 0.015362420119345188 -0.03674163296818733
			vertex 0.03852365165948868 -0.0011595548130571842 -0.03674163296818733
			vertex 0.00375466700643301 -0.006917870137840509 -0.03674163296818733
		endloop
	endfacet
	facet normal 0 0 -1
		outer loop
			vertex 0.0555555522441864 0.015362420119345188 -0.03674163296818733
			vertex 0.00375466700643301 -0.006917870137840509 -0.03674163296818733
			vertex 0.0020779436454176903 -0.0038285464979708195 -0.03674163296818733
		endloop
	endfacet
	facet normal 0 0 -1
		outer loop
			vertex 0.0555555522441864 0.015362420119345188 -0.03674163296818733
			vertex 0.0020779436454176903 -0.0038285464979708195 -0.03674163296818733
			vertex 0.036103256046772 0.015346252359449863 -0.03674163296818733
		endloop
	endfacet
	facet normal 0 0 -1
		outer loop
			vertex 0.0020779436454176903 -0.0038285464979708195 -0.03674163296818733
			vertex 0.00375466700643301 -0.006917870137840509 -0.03674163296818733
			vertex -0.006383390165865421 -0.008596903644502163 -0.03674163296818733
		endloop
	endfacet
	facet normal 0 0 -1
		outer loop
			vertex 0.0020779436454176903 -0.0038285464979708195 -0.03674163296818733
			vertex -0.008138061501085758 0.014994152821600437 -0.03674163296818733
			vertex 0.02534237504005432 0.009282016195356846 -0.03674163296818733
		endloop
	endfacet
	facet normal 0 0 -1
		outer loop
			vertex -0.055555559694767 0.014283576048910618 -0.03674163296818733
			vertex -0.055555559694767 0.01527013722807169 -0.03674163296818733
			vertex -0.009977557696402073 0.015307986177504063 -0.03674163296818733
		endloop
	endfacet
	facet normal 0 0 -1
		outer loop
			vertex -0.055555559694767 0.014283576048910618 -0.03674163296818733
			vertex -0.009977557696402073 0.015307986177504063 -0.03674163296818733
			vertex -0.008138061501085758 0.014994152821600437 -0.03674163296818733
		endloop
	endfacet
	facet normal 0 0 -1
		outer loop
			vertex -0.055555559694767 0.014283576048910618 -0.03674163296818733
			vertex -0.008138061501085758 0.014994152821600437 -0.03674163296818733
			vertex 0.0020779436454176903 -0.0038285464979708195 -0.03674163296818733
		endloop
	endfacet
	facet normal 0 0 -1
		outer loop
			vertex -0.055555559694767 0.014283576048910618 -0.03674163296818733
			vertex 0.0020779436454176903 -0.0038285464979708195 -0.03674163296818733
			vertex -0.006383390165865421 -0.008596903644502163 -0.03674163296818733
		endloop
	endfacet
	facet normal 0 0 -1
		outer loop
			vertex -0.055555559694767 0.014283576048910618 -0.03674163296818733
			vertex -0.006383390165865421 -0.008596903644502163 -0.03674163296818733
			vertex -0.0076274508610367775 -0.0088029270991683 -0.03674163296818733
		endloop
	endfacet
	facet normal 0 0 -1
		outer loop
			vertex -0.055555559694767 0.014283576048910618 -0.03674163296818733
			vertex -0.0076274508610367775 -0.0088029270991683 -0.03674163296818733
			vertex -0.05541151016950607 0.012813651002943516 -0.03674163296818733
		endloop
	endfacet
	facet normal 0 0 -1
		outer loop
			vertex -0.008138061501085758 0.014994152821600437 -0.03674163296818733
			vertex -0.00830914918333292 0.01530937198549509 -0.03674163296818733
			vertex 0.036103256046772 0.015346252359449863 -0.03674163296818733
		endloop
	endfacet
	facet normal 0 0 -1
		outer loop
			vertex -0.008138061501085758 0.014994152821600437 -0.03674163296818733
			vertex 0.036103256046772 0.015346252359449863 -0.03674163296818733
			vertex 0.02534237504005432 0.009282016195356846 -0.03674163296818733
		endloop
	endfacet
	facet normal 0 0 -1
		outer loop
			vertex -0.009977557696402073 0.015307986177504063 -0.03674163296818733
			vertex -0.00830914918333292 0.01530937198549509 -0.03674163296818733
			vertex -0.008138061501085758 0.014994152821600437 -0.03674163296818733
		endloop
	endfacet
	facet normal 0 0 -1
		outer loop
			vertex -0.055555559694767 0.012878798879683018 -0.03674163296818733
			vertex -0.055555559694767 0.014283576048910618 -0.03674163296818733
			vertex -0.05541151016950607 0.012813651002943516 -0.03674163296818733
		endloop
	endfacet
	facet normal 0 0 -1
		outer loop
			vertex 0.0555555522441864 0.026308516040444374 -0.03674163296818733
			vertex 0.0555555522441864 0.015362420119345188 -0.03674163296818733
			vertex 0.036103256046772 0.015346252359449863 -0.03674163296818733
		endloop
	endfacet
	facet normal 0 0 -1
		outer loop
			vertex 0.0555555522441864 0.028456086292862892 -0.03674163296818733
			vertex 0.0555555522441864 0.026308516040444374 -0.03674163296818733
			vertex 0.036103256046772 0.015346252359449863 -0.03674163296818733
		endloop
	endfacet
	facet normal 0 0 -1
		outer loop
			vertex 0.0555555522441864 0.028456086292862892 -0.03674163296818733
			vertex 0.036103256046772 0.015346252359449863 -0.03674163296818733
			vertex -0.00830914918333292 0.01530937198549509 -0.03674163296818733
		endloop
	endfacet
	facet normal 0 0 -1
		outer loop
			vertex 0.0555555522441864 0.028456086292862892 -0.03674163296818733
			vertex -0.00830914918333292 0.01530937198549509 -0.03674163296818733
			vertex -0.027263082563877106 0.050231464207172394 -0.03674163296818733
		endloop
	endfacet
	facet normal 0 0 -1
		outer loop
			vertex -0.055555559694767 0.01527013722807169 -0.03674163296818733
			vertex -0.055555559694767 0.057670362293720245 -0.03674163296818733
			vertex -0.027263082563877106 0.050231464207172394 -0.03674163296818733
		endloop
	endfacet
	facet normal 0 0 -1
		outer loop
			vertex -0.055555559694767 0.01527013722807169 -0.03674163296818733
			vertex -0.027263082563877106 0.050231464207172394 -0.03674163296818733
			vertex -0.00830914918333292 0.01530937198549509 -0.03674163296818733
		endloop
	endfacet
	facet normal 0 0 -1
		outer loop
			vertex 0.0555555522441864 0.04097691923379898 -0.03674163296818733
			vertex 0.0555555522441864 0.028456086292862892 -0.03674163296818733
			vertex 0.023754455149173737 0.03681749850511551 -0.03674163296818733
		endloop
	endfacet
	facet normal 0 0 -1
		outer loop
			vertex 0.0555555522441864 0.05684790760278702 -0.03674163296818733
			vertex 0.0555555522441864 0.04097691923379898 -0.03674163296818733
			vertex 0.023754455149173737 0.03681749850511551 -0.03674163296818733
		endloop
	endfacet
	facet normal 0 0 -1
		outer loop
			vertex 0.0555555522441864 0.05684790760278702 -0.03674163296818733
			vertex 0.023754455149173737 0.03681749850511551 -0.03674163296818733
			vertex -0.027263082563877106 0.050231464207172394 -0.03674163296818733
		endloop
	endfacet
	facet normal 0 0 -1
		outer loop
			vertex 0.0555555522441864 0.05684790760278702 -0.03674163296818733
			vertex -0.027263082563877106 0.050231464207172394 -0.03674163296818733
			vertex -0.036434583365917206 0.0671297088265419 -0.03674163296818733
		endloop
	endfacet
	facet normal 0 0 -1
		outer loop
			vertex -0.055555559694767 0.057670362293720245 -0.03674163296818733
			vertex -0.055555559694767 0.06926686316728592 -0.03674163296818733
			vertex -0.036434583365917206 0.0671297088265419 -0.03674163296818733
		endloop
	endfacet
	facet normal 0 0 -1
		outer loop
			vertex -0.055555559694767 0.057670362293720245 -0.03674163296818733
			vertex -0.036434583365917206 0.0671297088265419 -0.03674163296818733
			vertex -0.027263082563877106 0.050231464207172394 -0.03674163296818733
		endloop
	endfacet
	facet normal 0 0 -1
		outer loop
			vertex 0.0555555522441864 0.06992635875940323 -0.03674163296818733
			vertex 0.0555555522441864 0.05684790760278702 -0.03674163296818733
			vertex -0.036434583365917206 0.0671297088265419 -0.03674163296818733
		endloop
	endfacet
	facet normal 0 0 -1
		outer loop
			vertex 0.0555555522441864 0.06992635875940323 -0.03674163296818733
			vertex -0.036434583365917206 0.0671297088265419 -0.03674163296818733
			vertex -0.04992372542619705 0.09198305755853653 -0.03674163296818733
		endloop
	endfacet
	facet normal 0 0 -1
		outer loop
			vertex -0.055555559694767 0.06926686316728592 -0.03674163296818733
			vertex -0.055555559694767 0.09316075593233109 -0.03674163296818733
			vertex -0.04992372542619705 0.09198305755853653 -0.03674163296818733
		endloop
	endfacet
	facet normal 0 0 -1
		outer loop
			vertex -0.055555559694767 0.06926686316728592 -0.03674163296818733
			vertex -0.04992372542619705 0.09198305755853653 -0.03674163296818733
			vertex -0.036434583365917206 0.0671297088265419 -0.03674163296818733
		endloop
	endfacet
	facet normal 0 0 -1
		outer loop
			vertex -0.048490069806575775 0.0916832759976387 -0.03674163296818733
			vertex -0.04992372542619705 0.09198305755853653 -0.03674163296818733
			vertex -0.05537518113851547 0.10202724486589432 -0.03674163296818733
		endloop
	endfacet
	facet normal 0 0 -1
		outer loop
			vertex -0.048490069806575775 0.0916832759976387 -0.03674163296818733
			vertex -0.05537518113851547 0.10202724486589432 -0.03674163296818733
			vertex -0.046230800449848175 0.10202724486589432 -0.03674163296818733
		endloop
	endfacet
	facet normal 0 0 -1
		outer loop
			vertex -0.055555559694767 0.09316075593233109 -0.03674163296818733
			vertex -0.055555559694767 0.10202724486589432 -0.03674163296818733
			vertex -0.05537518113851547 0.10202724486589432 -0.03674163296818733
		endloop
	endfacet
	facet normal 0 0 -1
		outer loop
			vertex -0.055555559694767 0.09316075593233109 -0.03674163296818733
			vertex -0.05537518113851547 0.10202724486589432 -0.03674163296818733
			vertex -0.04992372542619705 0.09198305755853653 -0.03674163296818733
		endloop
	endfacet
	facet normal 0 0 -1
		outer loop
			vertex 0.0555555522441864 0.07112226635217667 -0.03674163296818733
			vertex 0.0555555522441864 0.06992635875940323 -0.03674163296818733
			vertex -0.048490069806575775 0.0916832759976387 -0.03674163296818733
		endloop
	endfacet
	facet normal 0 0 -1
		outer loop
			vertex 0.0555555522441864 0.07112226635217667 -0.03674163296818733
			vertex -0.048490069806575775 0.0916832759976387 -0.03674163296818733
			vertex -0.046230800449848175 0.10202724486589432 -0.03674163296818733
		endloop
	endfacet
	facet normal 0 0 -1
		outer loop
			vertex 0.0555555522441864 0.07112226635217667 -0.03674163296818733
			vertex -0.046230800449848175 0.10202724486589432 -0.03674163296818733
			vertex 0.01078025158494711 0.10202724486589432 -0.03674163296818733
		endloop
	endfacet
	facet normal 0 0 -1
		outer loop
			vertex 0.0555555522441864 0.10202724486589432 -0.03674163296818733
			vertex 0.0555555522441864 0.07112226635217667 -0.03674163296818733
			vertex 0.01078025158494711 0.10202724486589432 -0.03674163296818733
		endloop
	endfacet
endsolid exported
