solid exported
	facet normal 1 0 0
		outer loop
			vertex 0.0555555522441864 0.09863409399986267 0.014347044751048088
			vertex 0.0555555522441864 0.1023595854640007 0.013979962095618248
			vertex 0.0555555522441864 0.1023595854640007 0.01700766198337078
		endloop
	endfacet
	facet normal 1 0 0
		outer loop
			vertex 0.0555555522441864 0.1023595854640007 0.036741629242897034
			vertex 0.0555555522441864 0.06969461590051651 0.036741629242897034
			vertex 0.0555555522441864 0.05387183278799057 0.018757564947009087
		endloop
	endfacet
	facet normal 1 0 0
		outer loop
			vertex 0.0555555522441864 0.1023595854640007 0.036741629242897034
			vertex 0.0555555522441864 0.05387183278799057 0.018757564947009087
			vertex 0.0555555522441864 0.09863409399986267 0.014347044751048088
		endloop
	endfacet
	facet normal 1 0 0
		outer loop
			vertex 0.0555555522441864 0.1023595854640007 0.036741629242897034
			vertex 0.0555555522441864 0.09863409399986267 0.014347044751048088
			vertex 0.0555555522441864 0.1023595854640007 0.01700766198337078
		endloop
	endfacet
	facet normal 1 0 0
		outer loop
			vertex 0.0555555522441864 0.06969461590051651 0.036741629242897034
			vertex 0.0555555522441864 0.008706999011337757 0.036741629242897034
			vertex 0.0555555522441864 0.026981819421052933 0.02140708826482296
		endloop
	endfacet
	facet normal 1 0 0
		outer loop
			vertex 0.0555555522441864 0.06969461590051651 0.036741629242897034
			vertex 0.0555555522441864 0.026981819421052933 0.02140708826482296
			vertex 0.0555555522441864 0.05387183278799057 0.018757564947009087
		endloop
	endfacet
	facet normal 1 0 0
		outer loop
			vertex 0.0555555522441864 0.008706999011337757 0.036741629242897034
			vertex 0.0555555522441864 -0.07376064360141754 0.036741629242897034
			vertex 0.0555555522441864 -0.07215891033411026 0.031175633892416954
		endloop
	endfacet
	facet normal 1 0 0
		outer loop
			vertex 0.0555555522441864 0.008706999011337757 0.036741629242897034
			vertex 0.0555555522441864 -0.07215891033411026 0.031175633892416954
			vertex 0.0555555522441864 0.026981819421052933 0.02140708826482296
		endloop
	endfacet
	facet normal 1 0 0
		outer loop
			vertex 0.0555555522441864 -0.09358282387256622 0.036741629242897034
			vertex 0.0555555522441864 -0.1023595854640007 0.036741629242897034
			vertex 0.0555555522441864 -0.09400681406259537 0.03374343365430832
		endloop
	endfacet
	facet normal 1 0 0
		outer loop
			vertex 0.0555555522441864 -0.1023595854640007 0.036741629242897034
			vertex 0.0555555522441864 -0.1023595854640007 0.03415137529373169
			vertex 0.0555555522441864 -0.09406470507383347 0.03333406150341034
		endloop
	endfacet
	facet normal 1 0 0
		outer loop
			vertex 0.0555555522441864 -0.1023595854640007 0.036741629242897034
			vertex 0.0555555522441864 -0.09406470507383347 0.03333406150341034
			vertex 0.0555555522441864 -0.09400681406259537 0.03374343365430832
		endloop
	endfacet
	facet normal 1 0 0
		outer loop
			vertex 0.0555555522441864 -0.07376064360141754 0.036741629242897034
			vertex 0.0555555522441864 -0.09358282387256622 0.036741629242897034
			vertex 0.0555555522441864 -0.09400681406259537 0.03374343365430832
		endloop
	endfacet
	facet normal 1 0 0
		outer loop
			vertex 0.0555555522441864 -0.07376064360141754 0.036741629242897034
			vertex 0.0555555522441864 -0.09400681406259537 0.03374343365430832
			vertex 0.0555555522441864 -0.09241292625665665 0.03317131847143173
		endloop
	endfacet
	facet normal 1 0 0
		outer loop
			vertex 0.0555555522441864 -0.07376064360141754 0.036741629242897034
			vertex 0.0555555522441864 -0.09241292625665665 0.03317131847143173
			vertex 0.0555555522441864 -0.07215891033411026 0.031175633892416954
		endloop
	endfacet
	facet normal 1 0 0
		outer loop
			vertex 0.0555555522441864 -0.09406470507383347 0.03333406150341034
			vertex 0.0555555522441864 -0.09241292625665665 0.03317131847143173
			vertex 0.0555555522441864 -0.09400681406259537 0.03374343365430832
		endloop
	endfacet
	facet normal 1 0 0
		outer loop
			vertex 0.0555555522441864 0.08325394243001938 -0.029883718118071556
			vertex 0.0555555522441864 0.1023595854640007 -0.036741625517606735
			vertex 0.0555555522441864 0.1023595854640007 -0.011680884286761284
		endloop
	endfacet
	facet normal 1 0 0
		outer loop
			vertex 0.0555555522441864 0.07605589926242828 -0.036741625517606735
			vertex 0.0555555522441864 0.1023595854640007 -0.036741625517606735
			vertex 0.0555555522441864 0.08325394243001938 -0.029883718118071556
		endloop
	endfacet
	facet normal 1 0 0
		outer loop
			vertex 0.0555555522441864 0.06420499831438065 -0.023046167567372322
			vertex 0.0555555522441864 0.08325394243001938 -0.029883718118071556
			vertex 0.0555555522441864 0.1023595854640007 -0.011680884286761284
		endloop
	endfacet
	facet normal 1 0 0
		outer loop
			vertex 0.0555555522441864 0.06420499831438065 -0.023046167567372322
			vertex 0.0555555522441864 0.1023595854640007 -0.011680884286761284
			vertex 0.0555555522441864 0.1023595854640007 0.013979962095618248
		endloop
	endfacet
	facet normal 1 0 0
		outer loop
			vertex 0.0555555522441864 0.06420499831438065 -0.023046167567372322
			vertex 0.0555555522441864 0.1023595854640007 0.013979962095618248
			vertex 0.0555555522441864 0.07741899788379669 0.016437416896224022
		endloop
	endfacet
	facet normal 1 0 0
		outer loop
			vertex 0.0555555522441864 0.059621524065732956 -0.036741625517606735
			vertex 0.0555555522441864 0.07605589926242828 -0.036741625517606735
			vertex 0.0555555522441864 0.08325394243001938 -0.029883718118071556
		endloop
	endfacet
	facet normal 1 0 0
		outer loop
			vertex 0.0555555522441864 0.059621524065732956 -0.036741625517606735
			vertex 0.0555555522441864 0.08325394243001938 -0.029883718118071556
			vertex 0.0555555522441864 0.06420499831438065 -0.023046167567372322
		endloop
	endfacet
	facet normal 1 0 0
		outer loop
			vertex 0.0555555522441864 0.02839963510632515 -0.010193953290581703
			vertex 0.0555555522441864 0.06420499831438065 -0.023046167567372322
			vertex 0.0555555522441864 0.07741899788379669 0.016437416896224022
		endloop
	endfacet
	facet normal 1 0 0
		outer loop
			vertex 0.0555555522441864 0.02839963510632515 -0.010193953290581703
			vertex 0.0555555522441864 0.07741899788379669 0.016437416896224022
			vertex 0.0555555522441864 0.05387183278799057 0.018757564947009087
		endloop
	endfacet
	facet normal 1 0 0
		outer loop
			vertex 0.0555555522441864 0.00504238810390234 -0.036741625517606735
			vertex 0.0555555522441864 0.059621524065732956 -0.036741625517606735
			vertex 0.0555555522441864 0.06420499831438065 -0.023046167567372322
		endloop
	endfacet
	facet normal 1 0 0
		outer loop
			vertex 0.0555555522441864 0.00504238810390234 -0.036741625517606735
			vertex 0.0555555522441864 0.06420499831438065 -0.023046167567372322
			vertex 0.0555555522441864 0.02839963510632515 -0.010193953290581703
		endloop
	endfacet
	facet normal 1 0 0
		outer loop
			vertex 0.0555555522441864 -0.07046623528003693 0.025293616577982903
			vertex 0.0555555522441864 0.02839963510632515 -0.010193953290581703
			vertex 0.0555555522441864 0.05387183278799057 0.018757564947009087
		endloop
	endfacet
	facet normal 1 0 0
		outer loop
			vertex 0.0555555522441864 -0.07046623528003693 0.025293616577982903
			vertex 0.0555555522441864 0.05387183278799057 0.018757564947009087
			vertex 0.0555555522441864 -0.07215891033411026 0.031175633892416954
		endloop
	endfacet
	facet normal 1 0 0
		outer loop
			vertex 0.0555555522441864 -0.05261427164077759 -0.036741625517606735
			vertex 0.0555555522441864 0.00504238810390234 -0.036741625517606735
			vertex 0.0555555522441864 0.02839963510632515 -0.010193953290581703
		endloop
	endfacet
	facet normal 1 0 0
		outer loop
			vertex 0.0555555522441864 -0.05261427164077759 -0.036741625517606735
			vertex 0.0555555522441864 0.02839963510632515 -0.010193953290581703
			vertex 0.0555555522441864 -0.07046623528003693 0.025293616577982903
		endloop
	endfacet
	facet normal 1 0 0
		outer loop
			vertex 0.0555555522441864 -0.1023595854640007 -0.030944524332880974
			vertex 0.0555555522441864 -0.1023595854640007 -0.036741625517606735
			vertex 0.0555555522441864 -0.08639832586050034 -0.036741625517606735
		endloop
	endfacet
	facet normal 1 0 0
		outer loop
			vertex 0.0555555522441864 -0.1023595854640007 0.014657778665423393
			vertex 0.0555555522441864 -0.1023595854640007 -0.025323299691081047
			vertex 0.0555555522441864 -0.09706876426935196 0.012090800330042839
		endloop
	endfacet
	facet normal 1 0 0
		outer loop
			vertex 0.0555555522441864 -0.1023595854640007 -0.025323299691081047
			vertex 0.0555555522441864 -0.1023595854640007 -0.030944524332880974
			vertex 0.0555555522441864 -0.08639832586050034 -0.036741625517606735
		endloop
	endfacet
	facet normal 1 0 0
		outer loop
			vertex 0.0555555522441864 -0.1023595854640007 -0.025323299691081047
			vertex 0.0555555522441864 -0.08639832586050034 -0.036741625517606735
			vertex 0.0555555522441864 -0.05261427164077759 -0.036741625517606735
		endloop
	endfacet
	facet normal 1 0 0
		outer loop
			vertex 0.0555555522441864 -0.1023595854640007 -0.025323299691081047
			vertex 0.0555555522441864 -0.05261427164077759 -0.036741625517606735
			vertex 0.0555555522441864 -0.06173332408070564 -0.0050530824810266495
		endloop
	endfacet
	facet normal 1 0 0
		outer loop
			vertex 0.0555555522441864 -0.1023595854640007 -0.025323299691081047
			vertex 0.0555555522441864 -0.06173332408070564 -0.0050530824810266495
			vertex 0.0555555522441864 -0.09706876426935196 0.012090800330042839
		endloop
	endfacet
	facet normal 1 0 0
		outer loop
			vertex 0.0555555522441864 -0.09241292625665665 0.03317131847143173
			vertex 0.0555555522441864 -0.07046623528003693 0.025293616577982903
			vertex 0.0555555522441864 -0.07215891033411026 0.031175633892416954
		endloop
	endfacet
	facet normal 1 0 0
		outer loop
			vertex 0.0555555522441864 -0.1023595854640007 0.03415137529373169
			vertex 0.0555555522441864 -0.1023595854640007 0.014657778665423393
			vertex 0.0555555522441864 -0.06173332408070564 -0.0050530824810266495
		endloop
	endfacet
	facet normal 1 0 0
		outer loop
			vertex 0.0555555522441864 -0.1023595854640007 0.03415137529373169
			vertex 0.0555555522441864 -0.06173332408070564 -0.0050530824810266495
			vertex 0.0555555522441864 -0.07046623528003693 0.025293616577982903
		endloop
	endfacet
	facet normal 1 0 0
		outer loop
			vertex 0.0555555522441864 -0.1023595854640007 0.03415137529373169
			vertex 0.0555555522441864 -0.07046623528003693 0.025293616577982903
			vertex 0.0555555522441864 -0.09241292625665665 0.03317131847143173
		endloop
	endfacet
	facet normal -1 0 0
		outer loop
			vertex -0.0555555522441864 0.010716160759329796 0.00384653196670115
			vertex -0.0555555522441864 0.1023595854640007 0.036741629242897034
			vertex -0.0555555522441864 0.1023595854640007 0.009310966357588768
		endloop
	endfacet
	facet normal -1 0 0
		outer loop
			vertex -0.0555555522441864 -0.015151490457355976 0.036741629242897034
			vertex -0.0555555522441864 0.1023595854640007 0.036741629242897034
			vertex -0.0555555522441864 0.010716160759329796 0.00384653196670115
		endloop
	endfacet
	facet normal -1 0 0
		outer loop
			vertex -0.0555555522441864 -0.015151490457355976 0.036741629242897034
			vertex -0.0555555522441864 0.010716160759329796 0.00384653196670115
			vertex -0.0555555522441864 -0.02554078958928585 0.0016846341313794255
		endloop
	endfacet
	facet normal -1 0 0
		outer loop
			vertex -0.0555555522441864 -0.1023595854640007 -0.0028958560433238745
			vertex -0.0555555522441864 -0.1023595854640007 0.036741629242897034
			vertex -0.0555555522441864 -0.057836540043354034 0.036741629242897034
		endloop
	endfacet
	facet normal -1 0 0
		outer loop
			vertex -0.0555555522441864 -0.1023595854640007 -0.0028958560433238745
			vertex -0.0555555522441864 -0.057836540043354034 0.036741629242897034
			vertex -0.0555555522441864 -0.07369333505630493 -0.0011865663109347224
		endloop
	endfacet
	facet normal -1 0 0
		outer loop
			vertex -0.0555555522441864 -0.057836540043354034 0.036741629242897034
			vertex -0.0555555522441864 -0.015151490457355976 0.036741629242897034
			vertex -0.0555555522441864 -0.02554078958928585 0.0016846341313794255
		endloop
	endfacet
	facet normal -1 0 0
		outer loop
			vertex -0.0555555522441864 -0.057836540043354034 0.036741629242897034
			vertex -0.0555555522441864 -0.02554078958928585 0.0016846341313794255
			vertex -0.0555555522441864 -0.07369333505630493 -0.0011865663109347224
		endloop
	endfacet
	facet normal -1 0 0
		outer loop
			vertex -0.0555555522441864 -0.044076107442379 -0.015820970758795738
			vertex -0.0555555522441864 0.010716160759329796 0.00384653196670115
			vertex -0.0555555522441864 0.1023595854640007 0.009310966357588768
		endloop
	endfacet
	facet normal -1 0 0
		outer loop
			vertex -0.0555555522441864 -0.044076107442379 -0.015820970758795738
			vertex -0.0555555522441864 0.1023595854640007 0.009310966357588768
			vertex -0.0555555522441864 0.1023595854640007 0.004147505387663841
		endloop
	endfacet
	facet normal -1 0 0
		outer loop
			vertex -0.0555555522441864 -0.1023595854640007 -0.023768706247210503
			vertex -0.0555555522441864 -0.1023595854640007 -0.0028958560433238745
			vertex -0.0555555522441864 0.010716160759329796 0.00384653196670115
		endloop
	endfacet
	facet normal -1 0 0
		outer loop
			vertex -0.0555555522441864 -0.1023595854640007 -0.023768706247210503
			vertex -0.0555555522441864 0.010716160759329796 0.00384653196670115
			vertex -0.0555555522441864 -0.044076107442379 -0.015820970758795738
		endloop
	endfacet
	facet normal -1 0 0
		outer loop
			vertex -0.0555555522441864 -0.10149729996919632 -0.036741625517606735
			vertex -0.0555555522441864 -0.1023595854640007 -0.036741625517606735
			vertex -0.0555555522441864 -0.10173671692609787 -0.036518048495054245
		endloop
	endfacet
	facet normal -1 0 0
		outer loop
			vertex -0.0555555522441864 -0.1023595854640007 -0.036741625517606735
			vertex -0.0555555522441864 -0.1023595854640007 -0.0359363779425621
			vertex -0.0555555522441864 -0.10173671692609787 -0.036518048495054245
		endloop
	endfacet
	facet normal -1 0 0
		outer loop
			vertex -0.0555555522441864 0.1023595854640007 -0.036741625517606735
			vertex -0.0555555522441864 0.058287180960178375 -0.036741625517606735
			vertex -0.0555555522441864 0.09315845370292664 0.0028928054962307215
		endloop
	endfacet
	facet normal -1 0 0
		outer loop
			vertex -0.0555555522441864 0.1023595854640007 -0.036741625517606735
			vertex -0.0555555522441864 0.09315845370292664 0.0028928054962307215
			vertex -0.0555555522441864 0.1023595854640007 0.004147505387663841
		endloop
	endfacet
	facet normal -1 0 0
		outer loop
			vertex -0.0555555522441864 0.058287180960178375 -0.036741625517606735
			vertex -0.0555555522441864 -0.02639791928231716 -0.036741625517606735
			vertex -0.0555555522441864 -0.032858483493328094 -0.014291295781731606
		endloop
	endfacet
	facet normal -1 0 0
		outer loop
			vertex -0.0555555522441864 0.058287180960178375 -0.036741625517606735
			vertex -0.0555555522441864 -0.032858483493328094 -0.014291295781731606
			vertex -0.0555555522441864 0.09315845370292664 0.0028928054962307215
		endloop
	endfacet
	facet normal -1 0 0
		outer loop
			vertex -0.0555555522441864 -0.07667948305606842 -0.036741625517606735
			vertex -0.0555555522441864 -0.10149729996919632 -0.036741625517606735
			vertex -0.0555555522441864 -0.10173671692609787 -0.036518048495054245
		endloop
	endfacet
	facet normal -1 0 0
		outer loop
			vertex -0.0555555522441864 -0.07667948305606842 -0.036741625517606735
			vertex -0.0555555522441864 -0.10173671692609787 -0.036518048495054245
			vertex -0.0555555522441864 -0.08944393694400787 -0.03210559859871864
		endloop
	endfacet
	facet normal -1 0 0
		outer loop
			vertex -0.0555555522441864 -0.1023595854640007 -0.0359363779425621
			vertex -0.0555555522441864 -0.1023595854640007 -0.027414659038186073
			vertex -0.0555555522441864 -0.08944393694400787 -0.03210559859871864
		endloop
	endfacet
	facet normal -1 0 0
		outer loop
			vertex -0.0555555522441864 -0.1023595854640007 -0.0359363779425621
			vertex -0.0555555522441864 -0.08944393694400787 -0.03210559859871864
			vertex -0.0555555522441864 -0.10173671692609787 -0.036518048495054245
		endloop
	endfacet
	facet normal -1 0 0
		outer loop
			vertex -0.0555555522441864 -0.02639791928231716 -0.036741625517606735
			vertex -0.0555555522441864 -0.07667948305606842 -0.036741625517606735
			vertex -0.0555555522441864 -0.08944393694400787 -0.03210559859871864
		endloop
	endfacet
	facet normal -1 0 0
		outer loop
			vertex -0.0555555522441864 -0.02639791928231716 -0.036741625517606735
			vertex -0.0555555522441864 -0.08944393694400787 -0.03210559859871864
			vertex -0.0555555522441864 -0.044076107442379 -0.015820970758795738
		endloop
	endfacet
	facet normal -1 0 0
		outer loop
			vertex -0.0555555522441864 -0.02639791928231716 -0.036741625517606735
			vertex -0.0555555522441864 -0.044076107442379 -0.015820970758795738
			vertex -0.0555555522441864 -0.032858483493328094 -0.014291295781731606
		endloop
	endfacet
	facet normal -1 0 0
		outer loop
			vertex -0.0555555522441864 -0.1023595854640007 -0.027414659038186073
			vertex -0.0555555522441864 -0.1023595854640007 -0.023768706247210503
			vertex -0.0555555522441864 -0.044076107442379 -0.015820970758795738
		endloop
	endfacet
	facet normal -1 0 0
		outer loop
			vertex -0.0555555522441864 -0.1023595854640007 -0.027414659038186073
			vertex -0.0555555522441864 -0.044076107442379 -0.015820970758795738
			vertex -0.0555555522441864 -0.08944393694400787 -0.03210559859871864
		endloop
	endfacet
	facet normal 0 1 0
		outer loop
			vertex -0.0555555522441864 0.1023595854640007 0.009310966357588768
			vertex -0.0555555522441864 0.1023595854640007 0.036741629242897034
			vertex -0.042149025946855545 0.1023595854640007 0.027875227853655815
		endloop
	endfacet
	facet normal 0 1 0
		outer loop
			vertex -0.0555555522441864 0.1023595854640007 0.036741629242897034
			vertex -0.03574598953127861 0.1023595854640007 0.036741629242897034
			vertex -0.042149025946855545 0.1023595854640007 0.027875227853655815
		endloop
	endfacet
	facet normal 0 1 0
		outer loop
			vertex -0.0555555522441864 0.1023595854640007 0.004147505387663841
			vertex -0.0555555522441864 0.1023595854640007 0.009310966357588768
			vertex -0.042149025946855545 0.1023595854640007 0.027875227853655815
		endloop
	endfacet
	facet normal 0 1 0
		outer loop
			vertex -0.0555555522441864 0.1023595854640007 0.004147505387663841
			vertex -0.042149025946855545 0.1023595854640007 0.027875227853655815
			vertex -0.039459578692913055 0.1023595854640007 0.026096565648913383
		endloop
	endfacet
	facet normal 0 1 0
		outer loop
			vertex -0.03574598953127861 0.1023595854640007 0.036741629242897034
			vertex -0.03165319934487343 0.1023595854640007 0.036741629242897034
			vertex -0.039459578692913055 0.1023595854640007 0.026096565648913383
		endloop
	endfacet
	facet normal 0 1 0
		outer loop
			vertex -0.03574598953127861 0.1023595854640007 0.036741629242897034
			vertex -0.039459578692913055 0.1023595854640007 0.026096565648913383
			vertex -0.042149025946855545 0.1023595854640007 0.027875227853655815
		endloop
	endfacet
	facet normal 0 1 0
		outer loop
			vertex 0.0555555522441864 0.1023595854640007 0.01700766198337078
			vertex 0.0555555522441864 0.1023595854640007 0.013979962095618248
			vertex 0.05300850048661232 0.1023595854640007 0.015564730390906334
		endloop
	endfacet
	facet normal 0 1 0
		outer loop
			vertex 0.018972745165228844 0.1023595854640007 0.036741629242897034
			vertex 0.0555555522441864 0.1023595854640007 0.036741629242897034
			vertex 0.0555555522441864 0.1023595854640007 0.01700766198337078
		endloop
	endfacet
	facet normal 0 1 0
		outer loop
			vertex 0.018972745165228844 0.1023595854640007 0.036741629242897034
			vertex 0.0555555522441864 0.1023595854640007 0.01700766198337078
			vertex 0.05300850048661232 0.1023595854640007 0.015564730390906334
		endloop
	endfacet
	facet normal 0 1 0
		outer loop
			vertex 0.03846672922372818 0.1023595854640007 -0.025439945980906487
			vertex 0.0555555522441864 0.1023595854640007 -0.036741625517606735
			vertex 0.02442997507750988 0.1023595854640007 -0.036741625517606735
		endloop
	endfacet
	facet normal 0 1 0
		outer loop
			vertex 0.0555555522441864 0.1023595854640007 -0.011680884286761284
			vertex 0.0555555522441864 0.1023595854640007 -0.036741625517606735
			vertex 0.03846672922372818 0.1023595854640007 -0.025439945980906487
		endloop
	endfacet
	facet normal 0 1 0
		outer loop
			vertex 0.022673901170492172 0.1023595854640007 -0.01499536819756031
			vertex 0.03846672922372818 0.1023595854640007 -0.025439945980906487
			vertex 0.02442997507750988 0.1023595854640007 -0.036741625517606735
		endloop
	endfacet
	facet normal 0 1 0
		outer loop
			vertex 0.022673901170492172 0.1023595854640007 -0.01499536819756031
			vertex 0.02442997507750988 0.1023595854640007 -0.036741625517606735
			vertex 0.015925288200378418 0.1023595854640007 -0.036741625517606735
		endloop
	endfacet
	facet normal 0 1 0
		outer loop
			vertex 0.03553222492337227 0.1023595854640007 0.026438383385539055
			vertex 0.0555555522441864 0.1023595854640007 0.013979962095618248
			vertex 0.0555555522441864 0.1023595854640007 -0.011680884286761284
		endloop
	endfacet
	facet normal 0 1 0
		outer loop
			vertex 0.03553222492337227 0.1023595854640007 0.026438383385539055
			vertex 0.0555555522441864 0.1023595854640007 -0.011680884286761284
			vertex 0.03846672922372818 0.1023595854640007 -0.025439945980906487
		endloop
	endfacet
	facet normal 0 1 0
		outer loop
			vertex 0.03553222492337227 0.1023595854640007 0.026438383385539055
			vertex 0.03846672922372818 0.1023595854640007 -0.025439945980906487
			vertex 0.022673901170492172 0.1023595854640007 -0.01499536819756031
		endloop
	endfacet
	facet normal 0 1 0
		outer loop
			vertex -0.0555555522441864 0.1023595854640007 -0.036741625517606735
			vertex -0.0555555522441864 0.1023595854640007 0.004147505387663841
			vertex -0.04431808367371559 0.1023595854640007 0.019471338018774986
		endloop
	endfacet
	facet normal 0 1 0
		outer loop
			vertex -0.0555555522441864 0.1023595854640007 -0.036741625517606735
			vertex -0.04431808367371559 0.1023595854640007 0.019471338018774986
			vertex -0.03616026043891907 0.1023595854640007 0.02391456626355648
		endloop
	endfacet
	facet normal 0 1 0
		outer loop
			vertex -0.0555555522441864 0.1023595854640007 -0.036741625517606735
			vertex -0.03616026043891907 0.1023595854640007 0.02391456626355648
			vertex 0.022673901170492172 0.1023595854640007 -0.01499536819756031
		endloop
	endfacet
	facet normal 0 1 0
		outer loop
			vertex -0.0555555522441864 0.1023595854640007 -0.036741625517606735
			vertex 0.022673901170492172 0.1023595854640007 -0.01499536819756031
			vertex 0.015925288200378418 0.1023595854640007 -0.036741625517606735
		endloop
	endfacet
	facet normal 0 1 0
		outer loop
			vertex -0.012609620578587055 0.1023595854640007 0.036741629242897034
			vertex 0.018972745165228844 0.1023595854640007 0.036741629242897034
			vertex 0.03553222492337227 0.1023595854640007 0.026438383385539055
		endloop
	endfacet
	facet normal 0 1 0
		outer loop
			vertex -0.012609620578587055 0.1023595854640007 0.036741629242897034
			vertex 0.03553222492337227 0.1023595854640007 0.026438383385539055
			vertex 0.022673901170492172 0.1023595854640007 -0.01499536819756031
		endloop
	endfacet
	facet normal 0 1 0
		outer loop
			vertex -0.012609620578587055 0.1023595854640007 0.036741629242897034
			vertex 0.022673901170492172 0.1023595854640007 -0.01499536819756031
			vertex -0.03616026043891907 0.1023595854640007 0.02391456626355648
		endloop
	endfacet
	facet normal 0 1 0
		outer loop
			vertex -0.04431808367371559 0.1023595854640007 0.019471338018774986
			vertex -0.039459578692913055 0.1023595854640007 0.026096565648913383
			vertex -0.03616026043891907 0.1023595854640007 0.02391456626355648
		endloop
	endfacet
	facet normal 0 1 0
		outer loop
			vertex -0.03165319934487343 0.1023595854640007 0.036741629242897034
			vertex -0.012609620578587055 0.1023595854640007 0.036741629242897034
			vertex -0.03616026043891907 0.1023595854640007 0.02391456626355648
		endloop
	endfacet
	facet normal 0 1 0
		outer loop
			vertex -0.03165319934487343 0.1023595854640007 0.036741629242897034
			vertex -0.03616026043891907 0.1023595854640007 0.02391456626355648
			vertex -0.039459578692913055 0.1023595854640007 0.026096565648913383
		endloop
	endfacet
	facet normal 0 -1 0
		outer loop
			vertex -0.0555555522441864 -0.1023595854640007 0.036741629242897034
			vertex -0.0555555522441864 -0.1023595854640007 -0.0028958560433238745
			vertex -0.02693060226738453 -0.1023595854640007 0.036741629242897034
		endloop
	endfacet
	facet normal 0 -1 0
		outer loop
			vertex -0.0555555522441864 -0.1023595854640007 -0.0028958560433238745
			vertex -0.0555555522441864 -0.1023595854640007 -0.023768706247210503
			vertex -0.011181311681866646 -0.1023595854640007 0.036741629242897034
		endloop
	endfacet
	facet normal 0 -1 0
		outer loop
			vertex -0.0555555522441864 -0.1023595854640007 -0.0028958560433238745
			vertex -0.011181311681866646 -0.1023595854640007 0.036741629242897034
			vertex -0.02693060226738453 -0.1023595854640007 0.036741629242897034
		endloop
	endfacet
	facet normal 0 -1 0
		outer loop
			vertex -0.0555555522441864 -0.1023595854640007 -0.0359363779425621
			vertex -0.0555555522441864 -0.1023595854640007 -0.036741625517606735
			vertex -0.05485384911298752 -0.1023595854640007 -0.03627755492925644
		endloop
	endfacet
	facet normal 0 -1 0
		outer loop
			vertex -0.0555555522441864 -0.1023595854640007 -0.036741625517606735
			vertex -0.053899362683296204 -0.1023595854640007 -0.036741625517606735
			vertex -0.05485384911298752 -0.1023595854640007 -0.03627755492925644
		endloop
	endfacet
	facet normal 0 -1 0
		outer loop
			vertex 0.053537510335445404 -0.1023595854640007 0.035406991839408875
			vertex 0.0555555522441864 -0.1023595854640007 0.036741629242897034
			vertex 0.05139246955513954 -0.1023595854640007 0.036741629242897034
		endloop
	endfacet
	facet normal 0 -1 0
		outer loop
			vertex 0.0555555522441864 -0.1023595854640007 0.03415137529373169
			vertex 0.0555555522441864 -0.1023595854640007 0.036741629242897034
			vertex 0.053537510335445404 -0.1023595854640007 0.035406991839408875
		endloop
	endfacet
	facet normal 0 -1 0
		outer loop
			vertex -0.0555555522441864 -0.1023595854640007 -0.027414659038186073
			vertex -0.0555555522441864 -0.1023595854640007 -0.0359363779425621
			vertex -0.05485384911298752 -0.1023595854640007 -0.03627755492925644
		endloop
	endfacet
	facet normal 0 -1 0
		outer loop
			vertex -0.0555555522441864 -0.1023595854640007 -0.027414659038186073
			vertex -0.05485384911298752 -0.1023595854640007 -0.03627755492925644
			vertex -0.042099013924598694 -0.1023595854640007 -0.02784215472638607
		endloop
	endfacet
	facet normal 0 -1 0
		outer loop
			vertex -0.053899362683296204 -0.1023595854640007 -0.036741625517606735
			vertex 0.0555555522441864 -0.1023595854640007 -0.036741625517606735
			vertex 0.0555555522441864 -0.1023595854640007 -0.030944524332880974
		endloop
	endfacet
	facet normal 0 -1 0
		outer loop
			vertex -0.053899362683296204 -0.1023595854640007 -0.036741625517606735
			vertex 0.0555555522441864 -0.1023595854640007 -0.030944524332880974
			vertex -0.042099013924598694 -0.1023595854640007 -0.02784215472638607
		endloop
	endfacet
	facet normal 0 -1 0
		outer loop
			vertex -0.053899362683296204 -0.1023595854640007 -0.036741625517606735
			vertex -0.042099013924598694 -0.1023595854640007 -0.02784215472638607
			vertex -0.05485384911298752 -0.1023595854640007 -0.03627755492925644
		endloop
	endfacet
	facet normal 0 -1 0
		outer loop
			vertex -0.023741209879517555 -0.1023595854640007 -0.015701232478022575
			vertex 0.03509124740958214 -0.1023595854640007 0.02320757322013378
			vertex 0.0026968931779265404 -0.1023595854640007 0.036741629242897034
		endloop
	endfacet
	facet normal 0 -1 0
		outer loop
			vertex -0.023741209879517555 -0.1023595854640007 -0.015701232478022575
			vertex 0.0026968931779265404 -0.1023595854640007 0.036741629242897034
			vertex -0.011181311681866646 -0.1023595854640007 0.036741629242897034
		endloop
	endfacet
	facet normal 0 -1 0
		outer loop
			vertex -0.023741209879517555 -0.1023595854640007 -0.015701232478022575
			vertex -0.011181311681866646 -0.1023595854640007 0.036741629242897034
			vertex -0.04752317816019058 -0.1023595854640007 -0.01281546987593174
		endloop
	endfacet
	facet normal 0 -1 0
		outer loop
			vertex 0.0555555522441864 -0.1023595854640007 -0.025323299691081047
			vertex 0.0555555522441864 -0.1023595854640007 0.014657778665423393
			vertex 0.03509124740958214 -0.1023595854640007 0.02320757322013378
		endloop
	endfacet
	facet normal 0 -1 0
		outer loop
			vertex 0.0555555522441864 -0.1023595854640007 -0.025323299691081047
			vertex 0.03509124740958214 -0.1023595854640007 0.02320757322013378
			vertex -0.023741209879517555 -0.1023595854640007 -0.015701232478022575
		endloop
	endfacet
	facet normal 0 -1 0
		outer loop
			vertex -0.0555555522441864 -0.1023595854640007 -0.023768706247210503
			vertex -0.0555555522441864 -0.1023595854640007 -0.027414659038186073
			vertex -0.042099013924598694 -0.1023595854640007 -0.02784215472638607
		endloop
	endfacet
	facet normal 0 -1 0
		outer loop
			vertex -0.0555555522441864 -0.1023595854640007 -0.023768706247210503
			vertex -0.042099013924598694 -0.1023595854640007 -0.02784215472638607
			vertex -0.023741209879517555 -0.1023595854640007 -0.015701232478022575
		endloop
	endfacet
	facet normal 0 -1 0
		outer loop
			vertex -0.0555555522441864 -0.1023595854640007 -0.023768706247210503
			vertex -0.023741209879517555 -0.1023595854640007 -0.015701232478022575
			vertex -0.04752317816019058 -0.1023595854640007 -0.01281546987593174
		endloop
	endfacet
	facet normal 0 -1 0
		outer loop
			vertex 0.0555555522441864 -0.1023595854640007 -0.030944524332880974
			vertex 0.0555555522441864 -0.1023595854640007 -0.025323299691081047
			vertex -0.023741209879517555 -0.1023595854640007 -0.015701232478022575
		endloop
	endfacet
	facet normal 0 -1 0
		outer loop
			vertex 0.0555555522441864 -0.1023595854640007 -0.030944524332880974
			vertex -0.023741209879517555 -0.1023595854640007 -0.015701232478022575
			vertex -0.042099013924598694 -0.1023595854640007 -0.02784215472638607
		endloop
	endfacet
	facet normal 0 -1 0
		outer loop
			vertex 0.03509124740958214 -0.1023595854640007 0.02320757322013378
			vertex 0.053537510335445404 -0.1023595854640007 0.035406991839408875
			vertex 0.05139246955513954 -0.1023595854640007 0.036741629242897034
		endloop
	endfacet
	facet normal 0 -1 0
		outer loop
			vertex 0.03509124740958214 -0.1023595854640007 0.02320757322013378
			vertex 0.05139246955513954 -0.1023595854640007 0.036741629242897034
			vertex 0.0026968931779265404 -0.1023595854640007 0.036741629242897034
		endloop
	endfacet
	facet normal 0 -1 0
		outer loop
			vertex 0.0555555522441864 -0.1023595854640007 0.014657778665423393
			vertex 0.0555555522441864 -0.1023595854640007 0.03415137529373169
			vertex 0.053537510335445404 -0.1023595854640007 0.035406991839408875
		endloop
	endfacet
	facet normal 0 -1 0
		outer loop
			vertex 0.0555555522441864 -0.1023595854640007 0.014657778665423393
			vertex 0.053537510335445404 -0.1023595854640007 0.035406991839408875
			vertex 0.03509124740958214 -0.1023595854640007 0.02320757322013378
		endloop
	endfacet
	facet normal 0 0 1
		outer loop
			vertex -0.0555555522441864 0.1023595854640007 0.036741629242897034
			vertex -0.0555555522441864 -0.015151490457355976 0.036741629242897034
			vertex -0.032440364360809326 0.025593308731913567 0.036741629242897034
		endloop
	endfacet
	facet normal 0 0 1
		outer loop
			vertex -0.0555555522441864 0.1023595854640007 0.036741629242897034
			vertex -0.032440364360809326 0.025593308731913567 0.036741629242897034
			vertex -0.03574598953127861 0.1023595854640007 0.036741629242897034
		endloop
	endfacet
	facet normal 0 0 1
		outer loop
			vertex -0.0555555522441864 -0.057836540043354034 0.036741629242897034
			vertex -0.0555555522441864 -0.1023595854640007 0.036741629242897034
			vertex -0.038366831839084625 -0.07068983465433121 0.036741629242897034
		endloop
	endfacet
	facet normal 0 0 1
		outer loop
			vertex -0.0555555522441864 -0.1023595854640007 0.036741629242897034
			vertex -0.02693060226738453 -0.1023595854640007 0.036741629242897034
			vertex -0.027959205210208893 -0.07847239822149277 0.036741629242897034
		endloop
	endfacet
	facet normal 0 0 1
		outer loop
			vertex -0.0555555522441864 -0.1023595854640007 0.036741629242897034
			vertex -0.027959205210208893 -0.07847239822149277 0.036741629242897034
			vertex -0.038366831839084625 -0.07068983465433121 0.036741629242897034
		endloop
	endfacet
	facet normal 0 0 1
		outer loop
			vertex -0.0555555522441864 -0.015151490457355976 0.036741629242897034
			vertex -0.0555555522441864 -0.057836540043354034 0.036741629242897034
			vertex -0.038366831839084625 -0.07068983465433121 0.036741629242897034
		endloop
	endfacet
	facet normal 0 0 1
		outer loop
			vertex -0.0555555522441864 -0.015151490457355976 0.036741629242897034
			vertex -0.038366831839084625 -0.07068983465433121 0.036741629242897034
			vertex -0.029034724459052086 -0.053495682775974274 0.036741629242897034
		endloop
	endfacet
	facet normal 0 0 1
		outer loop
			vertex -0.0555555522441864 -0.015151490457355976 0.036741629242897034
			vertex -0.029034724459052086 -0.053495682775974274 0.036741629242897034
			vertex -0.032440364360809326 0.025593308731913567 0.036741629242897034
		endloop
	endfacet
	facet normal 0 0 1
		outer loop
			vertex -0.027959205210208893 -0.07847239822149277 0.036741629242897034
			vertex -0.029034724459052086 -0.053495682775974274 0.036741629242897034
			vertex -0.038366831839084625 -0.07068983465433121 0.036741629242897034
		endloop
	endfacet
	facet normal 0 0 1
		outer loop
			vertex -0.029034724459052086 -0.053495682775974274 0.036741629242897034
			vertex -0.01808512583374977 -0.03332134708762169 0.036741629242897034
			vertex -0.03165319934487343 0.1023595854640007 0.036741629242897034
		endloop
	endfacet
	facet normal 0 0 1
		outer loop
			vertex -0.029034724459052086 -0.053495682775974274 0.036741629242897034
			vertex -0.03165319934487343 0.1023595854640007 0.036741629242897034
			vertex -0.03574598953127861 0.1023595854640007 0.036741629242897034
		endloop
	endfacet
	facet normal 0 0 1
		outer loop
			vertex -0.02693060226738453 -0.1023595854640007 0.036741629242897034
			vertex -0.011181311681866646 -0.1023595854640007 0.036741629242897034
			vertex -0.01808512583374977 -0.03332134708762169 0.036741629242897034
		endloop
	endfacet
	facet normal 0 0 1
		outer loop
			vertex -0.02693060226738453 -0.1023595854640007 0.036741629242897034
			vertex -0.01808512583374977 -0.03332134708762169 0.036741629242897034
			vertex -0.029034724459052086 -0.053495682775974274 0.036741629242897034
		endloop
	endfacet
	facet normal 0 0 1
		outer loop
			vertex 0.0414859876036644 0.07643680274486542 0.036741629242897034
			vertex 0.0555555522441864 0.1023595854640007 0.036741629242897034
			vertex 0.018972745165228844 0.1023595854640007 0.036741629242897034
		endloop
	endfacet
	facet normal 0 0 1
		outer loop
			vertex 0.0414859876036644 0.07643680274486542 0.036741629242897034
			vertex 0.018972745165228844 0.1023595854640007 0.036741629242897034
			vertex 0.021566268056631088 0.08598238974809647 0.036741629242897034
		endloop
	endfacet
	facet normal 0 0 1
		outer loop
			vertex 0.0555555522441864 0.06969461590051651 0.036741629242897034
			vertex 0.0555555522441864 0.1023595854640007 0.036741629242897034
			vertex 0.0414859876036644 0.07643680274486542 0.036741629242897034
		endloop
	endfacet
	facet normal 0 0 1
		outer loop
			vertex 0.027235811576247215 0.05018123239278793 0.036741629242897034
			vertex 0.0414859876036644 0.07643680274486542 0.036741629242897034
			vertex 0.021566268056631088 0.08598238974809647 0.036741629242897034
		endloop
	endfacet
	facet normal 0 0 1
		outer loop
			vertex 0.0555555522441864 0.008706999011337757 0.036741629242897034
			vertex 0.0555555522441864 0.06969461590051651 0.036741629242897034
			vertex 0.0414859876036644 0.07643680274486542 0.036741629242897034
		endloop
	endfacet
	facet normal 0 0 1
		outer loop
			vertex 0.0555555522441864 0.008706999011337757 0.036741629242897034
			vertex 0.0414859876036644 0.07643680274486542 0.036741629242897034
			vertex 0.027235811576247215 0.05018123239278793 0.036741629242897034
		endloop
	endfacet
	facet normal 0 0 1
		outer loop
			vertex 0.0555555522441864 0.008706999011337757 0.036741629242897034
			vertex 0.027235811576247215 0.05018123239278793 0.036741629242897034
			vertex 0.0282334852963686 0.04388127103447914 0.036741629242897034
		endloop
	endfacet
	facet normal 0 0 1
		outer loop
			vertex 0.0555555522441864 -0.07376064360141754 0.036741629242897034
			vertex 0.0555555522441864 0.008706999011337757 0.036741629242897034
			vertex 0.0282334852963686 0.04388127103447914 0.036741629242897034
		endloop
	endfacet
	facet normal 0 0 1
		outer loop
			vertex 0.0555555522441864 -0.07376064360141754 0.036741629242897034
			vertex 0.0282334852963686 0.04388127103447914 0.036741629242897034
			vertex 0.04652610048651695 -0.07163017243146896 0.036741629242897034
		endloop
	endfacet
	facet normal 0 0 1
		outer loop
			vertex 0.05139246955513954 -0.1023595854640007 0.036741629242897034
			vertex 0.0555555522441864 -0.1023595854640007 0.036741629242897034
			vertex 0.0555555522441864 -0.09358282387256622 0.036741629242897034
		endloop
	endfacet
	facet normal 0 0 1
		outer loop
			vertex 0.05139246955513954 -0.1023595854640007 0.036741629242897034
			vertex 0.0555555522441864 -0.09358282387256622 0.036741629242897034
			vertex 0.050017617642879486 -0.09367785602807999 0.036741629242897034
		endloop
	endfacet
	facet normal 0 0 1
		outer loop
			vertex 0.0555555522441864 -0.09358282387256622 0.036741629242897034
			vertex 0.0555555522441864 -0.07376064360141754 0.036741629242897034
			vertex 0.04652610048651695 -0.07163017243146896 0.036741629242897034
		endloop
	endfacet
	facet normal 0 0 1
		outer loop
			vertex 0.0555555522441864 -0.09358282387256622 0.036741629242897034
			vertex 0.04652610048651695 -0.07163017243146896 0.036741629242897034
			vertex 0.050017617642879486 -0.09367785602807999 0.036741629242897034
		endloop
	endfacet
	facet normal 0 0 1
		outer loop
			vertex 0.021566268056631088 0.08598238974809647 0.036741629242897034
			vertex 0.018972745165228844 0.1023595854640007 0.036741629242897034
			vertex -0.012609620578587055 0.1023595854640007 0.036741629242897034
		endloop
	endfacet
	facet normal 0 0 1
		outer loop
			vertex -0.01808512583374977 -0.03332134708762169 0.036741629242897034
			vertex 0.027235811576247215 0.05018123239278793 0.036741629242897034
			vertex 0.021566268056631088 0.08598238974809647 0.036741629242897034
		endloop
	endfacet
	facet normal 0 0 1
		outer loop
			vertex -0.01808512583374977 -0.03332134708762169 0.036741629242897034
			vertex 0.021566268056631088 0.08598238974809647 0.036741629242897034
			vertex -0.012609620578587055 0.1023595854640007 0.036741629242897034
		endloop
	endfacet
	facet normal 0 0 1
		outer loop
			vertex -0.01808512583374977 -0.03332134708762169 0.036741629242897034
			vertex -0.012609620578587055 0.1023595854640007 0.036741629242897034
			vertex -0.03165319934487343 0.1023595854640007 0.036741629242897034
		endloop
	endfacet
	facet normal 0 0 1
		outer loop
			vertex 0.04652610048651695 -0.07163017243146896 0.036741629242897034
			vertex 0.027235811576247215 0.05018123239278793 0.036741629242897034
			vertex -0.01808512583374977 -0.03332134708762169 0.036741629242897034
		endloop
	endfacet
	facet normal 0 0 1
		outer loop
			vertex 0.04652610048651695 -0.07163017243146896 0.036741629242897034
			vertex -0.01808512583374977 -0.03332134708762169 0.036741629242897034
			vertex -0.01572299562394619 -0.05694267898797989 0.036741629242897034
		endloop
	endfacet
	facet normal 0 0 1
		outer loop
			vertex -0.011181311681866646 -0.1023595854640007 0.036741629242897034
			vertex 0.0026968931779265404 -0.1023595854640007 0.036741629242897034
			vertex -0.006263588555157185 -0.09464360773563385 0.036741629242897034
		endloop
	endfacet
	facet normal 0 0 1
		outer loop
			vertex -0.011181311681866646 -0.1023595854640007 0.036741629242897034
			vertex -0.006263588555157185 -0.09464360773563385 0.036741629242897034
			vertex -0.01194316241890192 -0.09474106878042221 0.036741629242897034
		endloop
	endfacet
	facet normal 0 0 1
		outer loop
			vertex -0.006263588555157185 -0.09464360773563385 0.036741629242897034
			vertex -0.012488984502851963 -0.08928284049034119 0.036741629242897034
			vertex -0.01194316241890192 -0.09474106878042221 0.036741629242897034
		endloop
	endfacet
	facet normal 0 0 1
		outer loop
			vertex 0.0026968931779265404 -0.1023595854640007 0.036741629242897034
			vertex 0.05139246955513954 -0.1023595854640007 0.036741629242897034
			vertex 0.04652610048651695 -0.07163017243146896 0.036741629242897034
		endloop
	endfacet
	facet normal 0 0 1
		outer loop
			vertex 0.0026968931779265404 -0.1023595854640007 0.036741629242897034
			vertex 0.04652610048651695 -0.07163017243146896 0.036741629242897034
			vertex -0.01572299562394619 -0.05694267898797989 0.036741629242897034
		endloop
	endfacet
	facet normal 0 0 1
		outer loop
			vertex 0.0026968931779265404 -0.1023595854640007 0.036741629242897034
			vertex -0.01572299562394619 -0.05694267898797989 0.036741629242897034
			vertex -0.012488984502851963 -0.08928284049034119 0.036741629242897034
		endloop
	endfacet
	facet normal 0 0 -1
		outer loop
			vertex -0.053899362683296204 -0.1023595854640007 -0.036741625517606735
			vertex -0.0555555522441864 -0.1023595854640007 -0.036741625517606735
			vertex -0.0555555522441864 -0.10149729996919632 -0.036741625517606735
		endloop
	endfacet
	facet normal 0 0 -1
		outer loop
			vertex 0.0555555522441864 0.1023595854640007 -0.036741625517606735
			vertex 0.0555555522441864 0.07605589926242828 -0.036741625517606735
			vertex 0.02442997507750988 0.1023595854640007 -0.036741625517606735
		endloop
	endfacet
	facet normal 0 0 -1
		outer loop
			vertex 0.0555555522441864 0.07605589926242828 -0.036741625517606735
			vertex 0.0555555522441864 0.059621524065732956 -0.036741625517606735
			vertex 0.015925288200378418 0.1023595854640007 -0.036741625517606735
		endloop
	endfacet
	facet normal 0 0 -1
		outer loop
			vertex 0.0555555522441864 0.07605589926242828 -0.036741625517606735
			vertex 0.015925288200378418 0.1023595854640007 -0.036741625517606735
			vertex 0.02442997507750988 0.1023595854640007 -0.036741625517606735
		endloop
	endfacet
	facet normal 0 0 -1
		outer loop
			vertex 0.0555555522441864 0.059621524065732956 -0.036741625517606735
			vertex 0.0555555522441864 0.00504238810390234 -0.036741625517606735
			vertex -0.023227091878652573 0.04279528185725212 -0.036741625517606735
		endloop
	endfacet
	facet normal 0 0 -1
		outer loop
			vertex 0.0555555522441864 0.059621524065732956 -0.036741625517606735
			vertex -0.023227091878652573 0.04279528185725212 -0.036741625517606735
			vertex -0.0555555522441864 0.1023595854640007 -0.036741625517606735
		endloop
	endfacet
	facet normal 0 0 -1
		outer loop
			vertex 0.0555555522441864 0.059621524065732956 -0.036741625517606735
			vertex -0.0555555522441864 0.1023595854640007 -0.036741625517606735
			vertex 0.015925288200378418 0.1023595854640007 -0.036741625517606735
		endloop
	endfacet
	facet normal 0 0 -1
		outer loop
			vertex -0.0555555522441864 0.058287180960178375 -0.036741625517606735
			vertex -0.0555555522441864 0.1023595854640007 -0.036741625517606735
			vertex -0.023227091878652573 0.04279528185725212 -0.036741625517606735
		endloop
	endfacet
	facet normal 0 0 -1
		outer loop
			vertex 0.0555555522441864 0.00504238810390234 -0.036741625517606735
			vertex 0.0555555522441864 -0.05261427164077759 -0.036741625517606735
			vertex 0.02459101751446724 -0.045308273285627365 -0.036741625517606735
		endloop
	endfacet
	facet normal 0 0 -1
		outer loop
			vertex 0.0555555522441864 0.00504238810390234 -0.036741625517606735
			vertex 0.02459101751446724 -0.045308273285627365 -0.036741625517606735
			vertex -0.023227091878652573 0.04279528185725212 -0.036741625517606735
		endloop
	endfacet
	facet normal 0 0 -1
		outer loop
			vertex -0.0555555522441864 -0.02639791928231716 -0.036741625517606735
			vertex -0.0555555522441864 0.058287180960178375 -0.036741625517606735
			vertex -0.023227091878652573 0.04279528185725212 -0.036741625517606735
		endloop
	endfacet
	facet normal 0 0 -1
		outer loop
			vertex -0.0555555522441864 -0.02639791928231716 -0.036741625517606735
			vertex -0.023227091878652573 0.04279528185725212 -0.036741625517606735
			vertex 0.02459101751446724 -0.045308273285627365 -0.036741625517606735
		endloop
	endfacet
	facet normal 0 0 -1
		outer loop
			vertex 0.0555555522441864 -0.08639832586050034 -0.036741625517606735
			vertex 0.0555555522441864 -0.1023595854640007 -0.036741625517606735
			vertex 0.0464608334004879 -0.08560281991958618 -0.036741625517606735
		endloop
	endfacet
	facet normal 0 0 -1
		outer loop
			vertex 0.0555555522441864 -0.1023595854640007 -0.036741625517606735
			vertex -0.053899362683296204 -0.1023595854640007 -0.036741625517606735
			vertex -0.0555555522441864 -0.10149729996919632 -0.036741625517606735
		endloop
	endfacet
	facet normal 0 0 -1
		outer loop
			vertex 0.0555555522441864 -0.1023595854640007 -0.036741625517606735
			vertex -0.0555555522441864 -0.10149729996919632 -0.036741625517606735
			vertex -0.0555555522441864 -0.07667948305606842 -0.036741625517606735
		endloop
	endfacet
	facet normal 0 0 -1
		outer loop
			vertex 0.0555555522441864 -0.1023595854640007 -0.036741625517606735
			vertex -0.0555555522441864 -0.07667948305606842 -0.036741625517606735
			vertex 0.0464608334004879 -0.08560281991958618 -0.036741625517606735
		endloop
	endfacet
	facet normal 0 0 -1
		outer loop
			vertex 0.0555555522441864 -0.05261427164077759 -0.036741625517606735
			vertex 0.0555555522441864 -0.08639832586050034 -0.036741625517606735
			vertex 0.0464608334004879 -0.08560281991958618 -0.036741625517606735
		endloop
	endfacet
	facet normal 0 0 -1
		outer loop
			vertex 0.0555555522441864 -0.05261427164077759 -0.036741625517606735
			vertex 0.0464608334004879 -0.08560281991958618 -0.036741625517606735
			vertex 0.02459101751446724 -0.045308273285627365 -0.036741625517606735
		endloop
	endfacet
	facet normal 0 0 -1
		outer loop
			vertex -0.0555555522441864 -0.07667948305606842 -0.036741625517606735
			vertex -0.0555555522441864 -0.02639791928231716 -0.036741625517606735
			vertex 0.02459101751446724 -0.045308273285627365 -0.036741625517606735
		endloop
	endfacet
	facet normal 0 0 -1
		outer loop
			vertex -0.0555555522441864 -0.07667948305606842 -0.036741625517606735
			vertex 0.02459101751446724 -0.045308273285627365 -0.036741625517606735
			vertex 0.0464608334004879 -0.08560281991958618 -0.036741625517606735
		endloop
	endfacet
endsolid exported
