solid exported
	facet normal 1 0 0
		outer loop
			vertex 0.0555555522441864 -0.1023595854640007 -0.016475781798362732
			vertex 0.0555555522441864 -0.1023595854640007 -0.036741629242897034
			vertex 0.0555555522441864 -0.08065823465585709 -0.036741629242897034
		endloop
	endfacet
	facet normal 1 0 0
		outer loop
			vertex 0.0555555522441864 0.1023595854640007 0.036741629242897034
			vertex 0.0555555522441864 0.07605590671300888 0.036741629242897034
			vertex 0.0555555522441864 0.02723226509988308 -0.009774929843842983
		endloop
	endfacet
	facet normal 1 0 0
		outer loop
			vertex 0.0555555522441864 0.1023595854640007 0.036741629242897034
			vertex 0.0555555522441864 0.02723226509988308 -0.009774929843842983
			vertex 0.0555555522441864 0.1023595854640007 -0.036741629242897034
		endloop
	endfacet
	facet normal 1 0 0
		outer loop
			vertex 0.0555555522441864 -0.0010718991979956627 -0.036741629242897034
			vertex 0.0555555522441864 0.1023595854640007 -0.036741629242897034
			vertex 0.0555555522441864 0.02723226509988308 -0.009774929843842983
		endloop
	endfacet
	facet normal 1 0 0
		outer loop
			vertex 0.0555555522441864 0.07605590671300888 0.036741629242897034
			vertex 0.0555555522441864 0.059621524065732956 0.036741629242897034
			vertex 0.0555555522441864 0.05192827805876732 0.013754110783338547
		endloop
	endfacet
	facet normal 1 0 0
		outer loop
			vertex 0.0555555522441864 0.059621524065732956 0.036741629242897034
			vertex 0.0555555522441864 0.0050423904322087765 0.036741629242897034
			vertex 0.0555555522441864 -0.02073531784117222 0.0074428715743124485
		endloop
	endfacet
	facet normal 1 0 0
		outer loop
			vertex 0.0555555522441864 0.059621524065732956 0.036741629242897034
			vertex 0.0555555522441864 -0.02073531784117222 0.0074428715743124485
			vertex 0.0555555522441864 0.02723226509988308 -0.009774929843842983
		endloop
	endfacet
	facet normal 1 0 0
		outer loop
			vertex 0.0555555522441864 0.059621524065732956 0.036741629242897034
			vertex 0.0555555522441864 0.02723226509988308 -0.009774929843842983
			vertex 0.0555555522441864 0.05192827805876732 0.013754110783338547
		endloop
	endfacet
	facet normal 1 0 0
		outer loop
			vertex 0.0555555522441864 -0.03146789222955704 -0.036741629242897034
			vertex 0.0555555522441864 -0.0010718991979956627 -0.036741629242897034
			vertex 0.0555555522441864 0.02723226509988308 -0.009774929843842983
		endloop
	endfacet
	facet normal 1 0 0
		outer loop
			vertex 0.0555555522441864 -0.03146789222955704 -0.036741629242897034
			vertex 0.0555555522441864 0.02723226509988308 -0.009774929843842983
			vertex 0.0555555522441864 -0.02073531784117222 0.0074428715743124485
		endloop
	endfacet
	facet normal 1 0 0
		outer loop
			vertex 0.0555555522441864 -0.03146789222955704 -0.036741629242897034
			vertex 0.0555555522441864 -0.02073531784117222 0.0074428715743124485
			vertex 0.0555555522441864 -0.03840390592813492 -0.012639118358492851
		endloop
	endfacet
	facet normal 1 0 0
		outer loop
			vertex 0.0555555522441864 0.0050423904322087765 0.036741629242897034
			vertex 0.0555555522441864 -0.05261427164077759 0.036741629242897034
			vertex 0.0555555522441864 -0.04688394069671631 0.016828831285238266
		endloop
	endfacet
	facet normal 1 0 0
		outer loop
			vertex 0.0555555522441864 0.0050423904322087765 0.036741629242897034
			vertex 0.0555555522441864 -0.04688394069671631 0.016828831285238266
			vertex 0.0555555522441864 -0.02073531784117222 0.0074428715743124485
		endloop
	endfacet
	facet normal 1 0 0
		outer loop
			vertex 0.0555555522441864 -0.02073531784117222 0.0074428715743124485
			vertex 0.0555555522441864 -0.04688394069671631 0.016828831285238266
			vertex 0.0555555522441864 -0.03840390592813492 -0.012639118358492851
		endloop
	endfacet
	facet normal 1 0 0
		outer loop
			vertex 0.0555555522441864 -0.08639834076166153 0.036741629242897034
			vertex 0.0555555522441864 -0.1023595854640007 0.036741629242897034
			vertex 0.0555555522441864 -0.04688394069671631 0.016828831285238266
		endloop
	endfacet
	facet normal 1 0 0
		outer loop
			vertex 0.0555555522441864 -0.08639834076166153 0.036741629242897034
			vertex 0.0555555522441864 -0.04688394069671631 0.016828831285238266
			vertex 0.0555555522441864 -0.048671089112758636 0.023039156571030617
		endloop
	endfacet
	facet normal 1 0 0
		outer loop
			vertex 0.0555555522441864 -0.1023595854640007 0.036741629242897034
			vertex 0.0555555522441864 -0.1023595854640007 -0.016475781798362732
			vertex 0.0555555522441864 -0.08065823465585709 -0.036741629242897034
		endloop
	endfacet
	facet normal 1 0 0
		outer loop
			vertex 0.0555555522441864 -0.1023595854640007 0.036741629242897034
			vertex 0.0555555522441864 -0.08065823465585709 -0.036741629242897034
			vertex 0.0555555522441864 -0.03146789222955704 -0.036741629242897034
		endloop
	endfacet
	facet normal 1 0 0
		outer loop
			vertex 0.0555555522441864 -0.1023595854640007 0.036741629242897034
			vertex 0.0555555522441864 -0.03146789222955704 -0.036741629242897034
			vertex 0.0555555522441864 -0.04688394069671631 0.016828831285238266
		endloop
	endfacet
	facet normal 1 0 0
		outer loop
			vertex 0.0555555522441864 -0.05261427164077759 0.036741629242897034
			vertex 0.0555555522441864 -0.08639834076166153 0.036741629242897034
			vertex 0.0555555522441864 -0.048671089112758636 0.023039156571030617
		endloop
	endfacet
	facet normal -1 0 0
		outer loop
			vertex -0.0555555522441864 -0.02280895970761776 -0.036741629242897034
			vertex -0.0555555522441864 -0.1023595854640007 -0.036741629242897034
			vertex -0.0555555522441864 -0.044896263629198074 -0.01611536182463169
		endloop
	endfacet
	facet normal -1 0 0
		outer loop
			vertex -0.0555555522441864 -0.1023595854640007 -0.036741629242897034
			vertex -0.0555555522441864 -0.1023595854640007 0.036741629242897034
			vertex -0.0555555522441864 -0.10149729996919632 0.036741629242897034
		endloop
	endfacet
	facet normal -1 0 0
		outer loop
			vertex -0.0555555522441864 -0.1023595854640007 -0.036741629242897034
			vertex -0.0555555522441864 -0.10149729996919632 0.036741629242897034
			vertex -0.0555555522441864 -0.044896263629198074 -0.01611536182463169
		endloop
	endfacet
	facet normal -1 0 0
		outer loop
			vertex -0.0555555522441864 0.1023595854640007 -0.036741629242897034
			vertex -0.0555555522441864 0.09282615780830383 -0.036741629242897034
			vertex -0.0555555522441864 0.1023595854640007 -0.02765868604183197
		endloop
	endfacet
	facet normal -1 0 0
		outer loop
			vertex -0.0555555522441864 0.09282615780830383 -0.036741629242897034
			vertex -0.0555555522441864 -0.005251543130725622 -0.036741629242897034
			vertex -0.0555555522441864 -0.0055259820073843 -0.035787954926490784
		endloop
	endfacet
	facet normal -1 0 0
		outer loop
			vertex -0.0555555522441864 0.09282615780830383 -0.036741629242897034
			vertex -0.0555555522441864 -0.0055259820073843 -0.035787954926490784
			vertex -0.0555555522441864 0.03794420510530472 0.013619944453239441
		endloop
	endfacet
	facet normal -1 0 0
		outer loop
			vertex -0.0555555522441864 0.09282615780830383 -0.036741629242897034
			vertex -0.0555555522441864 0.03794420510530472 0.013619944453239441
			vertex -0.0555555522441864 0.1023595854640007 0.036741629242897034
		endloop
	endfacet
	facet normal -1 0 0
		outer loop
			vertex -0.0555555522441864 0.09282615780830383 -0.036741629242897034
			vertex -0.0555555522441864 0.1023595854640007 0.036741629242897034
			vertex -0.0555555522441864 0.1023595854640007 -0.02765868604183197
		endloop
	endfacet
	facet normal -1 0 0
		outer loop
			vertex -0.0555555522441864 0.058287184685468674 0.036741629242897034
			vertex -0.0555555522441864 0.1023595854640007 0.036741629242897034
			vertex -0.0555555522441864 0.03794420510530472 0.013619944453239441
		endloop
	endfacet
	facet normal -1 0 0
		outer loop
			vertex -0.0555555522441864 -0.0055259820073843 -0.035787954926490784
			vertex -0.0555555522441864 -0.014343161135911942 -0.005148429423570633
			vertex -0.0555555522441864 0.03794420510530472 0.013619944453239441
		endloop
	endfacet
	facet normal -1 0 0
		outer loop
			vertex -0.0555555522441864 -0.02639792114496231 0.036741629242897034
			vertex -0.0555555522441864 0.058287184685468674 0.036741629242897034
			vertex -0.0555555522441864 0.03794420510530472 0.013619944453239441
		endloop
	endfacet
	facet normal -1 0 0
		outer loop
			vertex -0.0555555522441864 -0.02639792114496231 0.036741629242897034
			vertex -0.0555555522441864 0.03794420510530472 0.013619944453239441
			vertex -0.0555555522441864 -0.014343161135911942 -0.005148429423570633
		endloop
	endfacet
	facet normal -1 0 0
		outer loop
			vertex -0.0555555522441864 -0.005251543130725622 -0.036741629242897034
			vertex -0.0555555522441864 -0.02280895970761776 -0.036741629242897034
			vertex -0.0555555522441864 -0.044896263629198074 -0.01611536182463169
		endloop
	endfacet
	facet normal -1 0 0
		outer loop
			vertex -0.0555555522441864 -0.005251543130725622 -0.036741629242897034
			vertex -0.0555555522441864 -0.044896263629198074 -0.01611536182463169
			vertex -0.0555555522441864 -0.014343161135911942 -0.005148429423570633
		endloop
	endfacet
	facet normal -1 0 0
		outer loop
			vertex -0.0555555522441864 -0.10149729996919632 0.036741629242897034
			vertex -0.0555555522441864 -0.07667949050664902 0.036741629242897034
			vertex -0.0555555522441864 -0.02052920125424862 0.016347937285900116
		endloop
	endfacet
	facet normal -1 0 0
		outer loop
			vertex -0.0555555522441864 -0.10149729996919632 0.036741629242897034
			vertex -0.0555555522441864 -0.02052920125424862 0.016347937285900116
			vertex -0.0555555522441864 -0.014343161135911942 -0.005148429423570633
		endloop
	endfacet
	facet normal -1 0 0
		outer loop
			vertex -0.0555555522441864 -0.10149729996919632 0.036741629242897034
			vertex -0.0555555522441864 -0.014343161135911942 -0.005148429423570633
			vertex -0.0555555522441864 -0.044896263629198074 -0.01611536182463169
		endloop
	endfacet
	facet normal -1 0 0
		outer loop
			vertex -0.0555555522441864 -0.07667949050664902 0.036741629242897034
			vertex -0.0555555522441864 -0.02639792114496231 0.036741629242897034
			vertex -0.0555555522441864 -0.02052920125424862 0.016347937285900116
		endloop
	endfacet
	facet normal 0 1 0
		outer loop
			vertex -0.0555555522441864 0.1023595854640007 -0.036741629242897034
			vertex -0.0555555522441864 0.1023595854640007 -0.02765868604183197
			vertex -0.011641224846243858 0.1023595854640007 0.007698915898799896
		endloop
	endfacet
	facet normal 0 1 0
		outer loop
			vertex -0.0555555522441864 0.1023595854640007 -0.036741629242897034
			vertex -0.011641224846243858 0.1023595854640007 0.007698915898799896
			vertex 0.0555555522441864 0.1023595854640007 -0.036741629242897034
		endloop
	endfacet
	facet normal 0 1 0
		outer loop
			vertex 0.02442997694015503 0.1023595854640007 0.036741629242897034
			vertex 0.0555555522441864 0.1023595854640007 0.036741629242897034
			vertex 0.0555555522441864 0.1023595854640007 -0.036741629242897034
		endloop
	endfacet
	facet normal 0 1 0
		outer loop
			vertex 0.02442997694015503 0.1023595854640007 0.036741629242897034
			vertex 0.0555555522441864 0.1023595854640007 -0.036741629242897034
			vertex -0.011641224846243858 0.1023595854640007 0.007698915898799896
		endloop
	endfacet
	facet normal 0 1 0
		outer loop
			vertex 0.015925288200378418 0.1023595854640007 0.036741629242897034
			vertex 0.02442997694015503 0.1023595854640007 0.036741629242897034
			vertex 0.013092422857880592 0.1023595854640007 0.02761320024728775
		endloop
	endfacet
	facet normal 0 1 0
		outer loop
			vertex -0.0555555522441864 0.1023595854640007 -0.02765868604183197
			vertex -0.0555555522441864 0.1023595854640007 0.036741629242897034
			vertex -0.011641224846243858 0.1023595854640007 0.007698915898799896
		endloop
	endfacet
	facet normal 0 1 0
		outer loop
			vertex -0.0555555522441864 0.1023595854640007 0.036741629242897034
			vertex 0.015925288200378418 0.1023595854640007 0.036741629242897034
			vertex 0.013092422857880592 0.1023595854640007 0.02761320024728775
		endloop
	endfacet
	facet normal 0 1 0
		outer loop
			vertex -0.0555555522441864 0.1023595854640007 0.036741629242897034
			vertex 0.013092422857880592 0.1023595854640007 0.02761320024728775
			vertex -0.011641224846243858 0.1023595854640007 0.007698915898799896
		endloop
	endfacet
	facet normal 0 -1 0
		outer loop
			vertex -0.0555555522441864 -0.1023595854640007 0.036741629242897034
			vertex -0.0555555522441864 -0.1023595854640007 -0.036741629242897034
			vertex 0.009180877357721329 -0.1023595854640007 0.006071766838431358
		endloop
	endfacet
	facet normal 0 -1 0
		outer loop
			vertex -0.0555555522441864 -0.1023595854640007 0.036741629242897034
			vertex 0.009180877357721329 -0.1023595854640007 0.006071766838431358
			vertex -0.0538993664085865 -0.1023595854640007 0.036741629242897034
		endloop
	endfacet
	facet normal 0 -1 0
		outer loop
			vertex -0.0555555522441864 -0.1023595854640007 -0.036741629242897034
			vertex 0.0555555522441864 -0.1023595854640007 -0.036741629242897034
			vertex 0.0555555522441864 -0.1023595854640007 -0.016475781798362732
		endloop
	endfacet
	facet normal 0 -1 0
		outer loop
			vertex -0.0555555522441864 -0.1023595854640007 -0.036741629242897034
			vertex 0.0555555522441864 -0.1023595854640007 -0.016475781798362732
			vertex 0.009180877357721329 -0.1023595854640007 0.006071766838431358
		endloop
	endfacet
	facet normal 0 -1 0
		outer loop
			vertex 0.009180877357721329 -0.1023595854640007 0.006071766838431358
			vertex 0.0555555522441864 -0.1023595854640007 0.036741629242897034
			vertex -0.0538993664085865 -0.1023595854640007 0.036741629242897034
		endloop
	endfacet
	facet normal 0 -1 0
		outer loop
			vertex 0.0555555522441864 -0.1023595854640007 -0.016475781798362732
			vertex 0.0555555522441864 -0.1023595854640007 0.036741629242897034
			vertex 0.009180877357721329 -0.1023595854640007 0.006071766838431358
		endloop
	endfacet
	facet normal 0 0 1
		outer loop
			vertex -0.0555555522441864 -0.10149729996919632 0.036741629242897034
			vertex -0.0555555522441864 -0.1023595854640007 0.036741629242897034
			vertex -0.05519066005945206 -0.10168728232383728 0.036741629242897034
		endloop
	endfacet
	facet normal 0 0 1
		outer loop
			vertex -0.0555555522441864 -0.1023595854640007 0.036741629242897034
			vertex -0.0538993664085865 -0.1023595854640007 0.036741629242897034
			vertex -0.05519066005945206 -0.10168728232383728 0.036741629242897034
		endloop
	endfacet
	facet normal 0 0 1
		outer loop
			vertex 0.045768339186906815 0.08432691544294357 0.036741629242897034
			vertex 0.0555555522441864 0.1023595854640007 0.036741629242897034
			vertex 0.02442997694015503 0.1023595854640007 0.036741629242897034
		endloop
	endfacet
	facet normal 0 0 1
		outer loop
			vertex 0.0555555522441864 0.07605590671300888 0.036741629242897034
			vertex 0.0555555522441864 0.1023595854640007 0.036741629242897034
			vertex 0.045768339186906815 0.08432691544294357 0.036741629242897034
		endloop
	endfacet
	facet normal 0 0 1
		outer loop
			vertex 0.04092370346188545 0.07540079951286316 0.036741629242897034
			vertex 0.045768339186906815 0.08432691544294357 0.036741629242897034
			vertex 0.02442997694015503 0.1023595854640007 0.036741629242897034
		endloop
	endfacet
	facet normal 0 0 1
		outer loop
			vertex 0.04092370346188545 0.07540079951286316 0.036741629242897034
			vertex 0.02442997694015503 0.1023595854640007 0.036741629242897034
			vertex 0.015925288200378418 0.1023595854640007 0.036741629242897034
		endloop
	endfacet
	facet normal 0 0 1
		outer loop
			vertex 0.0555555522441864 0.059621524065732956 0.036741629242897034
			vertex 0.0555555522441864 0.07605590671300888 0.036741629242897034
			vertex 0.045768339186906815 0.08432691544294357 0.036741629242897034
		endloop
	endfacet
	facet normal 0 0 1
		outer loop
			vertex 0.0555555522441864 0.059621524065732956 0.036741629242897034
			vertex 0.045768339186906815 0.08432691544294357 0.036741629242897034
			vertex 0.04092370346188545 0.07540079951286316 0.036741629242897034
		endloop
	endfacet
	facet normal 0 0 1
		outer loop
			vertex -0.0555555522441864 0.1023595854640007 0.036741629242897034
			vertex -0.0555555522441864 0.058287184685468674 0.036741629242897034
			vertex 0.013638763688504696 0.025129050016403198 0.036741629242897034
		endloop
	endfacet
	facet normal 0 0 1
		outer loop
			vertex -0.0555555522441864 0.1023595854640007 0.036741629242897034
			vertex 0.013638763688504696 0.025129050016403198 0.036741629242897034
			vertex 0.04092370346188545 0.07540079951286316 0.036741629242897034
		endloop
	endfacet
	facet normal 0 0 1
		outer loop
			vertex -0.0555555522441864 0.1023595854640007 0.036741629242897034
			vertex 0.04092370346188545 0.07540079951286316 0.036741629242897034
			vertex 0.015925288200378418 0.1023595854640007 0.036741629242897034
		endloop
	endfacet
	facet normal 0 0 1
		outer loop
			vertex 0.0555555522441864 0.0050423904322087765 0.036741629242897034
			vertex 0.0555555522441864 0.059621524065732956 0.036741629242897034
			vertex 0.04092370346188545 0.07540079951286316 0.036741629242897034
		endloop
	endfacet
	facet normal 0 0 1
		outer loop
			vertex 0.0555555522441864 0.0050423904322087765 0.036741629242897034
			vertex 0.04092370346188545 0.07540079951286316 0.036741629242897034
			vertex 0.013638763688504696 0.025129050016403198 0.036741629242897034
		endloop
	endfacet
	facet normal 0 0 1
		outer loop
			vertex -0.0555555522441864 0.058287184685468674 0.036741629242897034
			vertex -0.0555555522441864 -0.02639792114496231 0.036741629242897034
			vertex -0.019007757306098938 -0.03502126783132553 0.036741629242897034
		endloop
	endfacet
	facet normal 0 0 1
		outer loop
			vertex -0.0555555522441864 0.058287184685468674 0.036741629242897034
			vertex -0.019007757306098938 -0.03502126783132553 0.036741629242897034
			vertex 0.013638763688504696 0.025129050016403198 0.036741629242897034
		endloop
	endfacet
	facet normal 0 0 1
		outer loop
			vertex 0.0555555522441864 -0.05261427164077759 0.036741629242897034
			vertex 0.0555555522441864 0.0050423904322087765 0.036741629242897034
			vertex 0.013638763688504696 0.025129050016403198 0.036741629242897034
		endloop
	endfacet
	facet normal 0 0 1
		outer loop
			vertex 0.0555555522441864 -0.05261427164077759 0.036741629242897034
			vertex 0.013638763688504696 0.025129050016403198 0.036741629242897034
			vertex -0.019007757306098938 -0.03502126783132553 0.036741629242897034
		endloop
	endfacet
	facet normal 0 0 1
		outer loop
			vertex -0.0555555522441864 -0.07667949050664902 0.036741629242897034
			vertex -0.0555555522441864 -0.10149729996919632 0.036741629242897034
			vertex -0.05519066005945206 -0.10168728232383728 0.036741629242897034
		endloop
	endfacet
	facet normal 0 0 1
		outer loop
			vertex -0.0555555522441864 -0.07667949050664902 0.036741629242897034
			vertex -0.05519066005945206 -0.10168728232383728 0.036741629242897034
			vertex -0.0422494076192379 -0.07784337550401688 0.036741629242897034
		endloop
	endfacet
	facet normal 0 0 1
		outer loop
			vertex -0.0538993664085865 -0.1023595854640007 0.036741629242897034
			vertex 0.0555555522441864 -0.1023595854640007 0.036741629242897034
			vertex 0.0555555522441864 -0.08639834076166153 0.036741629242897034
		endloop
	endfacet
	facet normal 0 0 1
		outer loop
			vertex -0.0538993664085865 -0.1023595854640007 0.036741629242897034
			vertex 0.0555555522441864 -0.08639834076166153 0.036741629242897034
			vertex -0.0422494076192379 -0.07784337550401688 0.036741629242897034
		endloop
	endfacet
	facet normal 0 0 1
		outer loop
			vertex -0.0538993664085865 -0.1023595854640007 0.036741629242897034
			vertex -0.0422494076192379 -0.07784337550401688 0.036741629242897034
			vertex -0.05519066005945206 -0.10168728232383728 0.036741629242897034
		endloop
	endfacet
	facet normal 0 0 1
		outer loop
			vertex -0.0555555522441864 -0.02639792114496231 0.036741629242897034
			vertex -0.0555555522441864 -0.07667949050664902 0.036741629242897034
			vertex -0.0422494076192379 -0.07784337550401688 0.036741629242897034
		endloop
	endfacet
	facet normal 0 0 1
		outer loop
			vertex -0.0555555522441864 -0.02639792114496231 0.036741629242897034
			vertex -0.0422494076192379 -0.07784337550401688 0.036741629242897034
			vertex -0.019007757306098938 -0.03502126783132553 0.036741629242897034
		endloop
	endfacet
	facet normal 0 0 1
		outer loop
			vertex 0.0555555522441864 -0.08639834076166153 0.036741629242897034
			vertex 0.0555555522441864 -0.05261427164077759 0.036741629242897034
			vertex -0.019007757306098938 -0.03502126783132553 0.036741629242897034
		endloop
	endfacet
	facet normal 0 0 1
		outer loop
			vertex 0.0555555522441864 -0.08639834076166153 0.036741629242897034
			vertex -0.019007757306098938 -0.03502126783132553 0.036741629242897034
			vertex -0.0422494076192379 -0.07784337550401688 0.036741629242897034
		endloop
	endfacet
	facet normal 0 0 -1
		outer loop
			vertex 0.0555555522441864 -0.08065823465585709 -0.036741629242897034
			vertex 0.0555555522441864 -0.1023595854640007 -0.036741629242897034
			vertex 0.039137884974479675 -0.07211048901081085 -0.036741629242897034
		endloop
	endfacet
	facet normal 0 0 -1
		outer loop
			vertex 0.0555555522441864 -0.1023595854640007 -0.036741629242897034
			vertex -0.0555555522441864 -0.1023595854640007 -0.036741629242897034
			vertex -0.0555555522441864 -0.02280895970761776 -0.036741629242897034
		endloop
	endfacet
	facet normal 0 0 -1
		outer loop
			vertex 0.0555555522441864 -0.1023595854640007 -0.036741629242897034
			vertex -0.0555555522441864 -0.02280895970761776 -0.036741629242897034
			vertex 0.039137884974479675 -0.07211048901081085 -0.036741629242897034
		endloop
	endfacet
	facet normal 0 0 -1
		outer loop
			vertex 0.0555555522441864 0.1023595854640007 -0.036741629242897034
			vertex 0.0555555522441864 -0.0010718991979956627 -0.036741629242897034
			vertex -0.04599718004465103 0.08474854379892349 -0.036741629242897034
		endloop
	endfacet
	facet normal 0 0 -1
		outer loop
			vertex 0.0555555522441864 0.1023595854640007 -0.036741629242897034
			vertex -0.04599718004465103 0.08474854379892349 -0.036741629242897034
			vertex -0.0555555522441864 0.1023595854640007 -0.036741629242897034
		endloop
	endfacet
	facet normal 0 0 -1
		outer loop
			vertex -0.0555555522441864 0.09282615780830383 -0.036741629242897034
			vertex -0.0555555522441864 0.1023595854640007 -0.036741629242897034
			vertex -0.04599718004465103 0.08474854379892349 -0.036741629242897034
		endloop
	endfacet
	facet normal 0 0 -1
		outer loop
			vertex 0.0555555522441864 -0.0010718991979956627 -0.036741629242897034
			vertex 0.0555555522441864 -0.03146789222955704 -0.036741629242897034
			vertex 0.011428214609622955 -0.021056171506643295 -0.036741629242897034
		endloop
	endfacet
	facet normal 0 0 -1
		outer loop
			vertex 0.0555555522441864 -0.0010718991979956627 -0.036741629242897034
			vertex 0.011428214609622955 -0.021056171506643295 -0.036741629242897034
			vertex -0.04599718004465103 0.08474854379892349 -0.036741629242897034
		endloop
	endfacet
	facet normal 0 0 -1
		outer loop
			vertex -0.0555555522441864 -0.005251543130725622 -0.036741629242897034
			vertex -0.0555555522441864 0.09282615780830383 -0.036741629242897034
			vertex -0.04599718004465103 0.08474854379892349 -0.036741629242897034
		endloop
	endfacet
	facet normal 0 0 -1
		outer loop
			vertex -0.0555555522441864 -0.005251543130725622 -0.036741629242897034
			vertex -0.04599718004465103 0.08474854379892349 -0.036741629242897034
			vertex 0.011428214609622955 -0.021056171506643295 -0.036741629242897034
		endloop
	endfacet
	facet normal 0 0 -1
		outer loop
			vertex 0.0555555522441864 -0.03146789222955704 -0.036741629242897034
			vertex 0.0555555522441864 -0.08065823465585709 -0.036741629242897034
			vertex 0.039137884974479675 -0.07211048901081085 -0.036741629242897034
		endloop
	endfacet
	facet normal 0 0 -1
		outer loop
			vertex 0.0555555522441864 -0.03146789222955704 -0.036741629242897034
			vertex 0.039137884974479675 -0.07211048901081085 -0.036741629242897034
			vertex 0.011428214609622955 -0.021056171506643295 -0.036741629242897034
		endloop
	endfacet
	facet normal 0 0 -1
		outer loop
			vertex -0.0555555522441864 -0.02280895970761776 -0.036741629242897034
			vertex -0.0555555522441864 -0.005251543130725622 -0.036741629242897034
			vertex 0.011428214609622955 -0.021056171506643295 -0.036741629242897034
		endloop
	endfacet
	facet normal 0 0 -1
		outer loop
			vertex -0.0555555522441864 -0.02280895970761776 -0.036741629242897034
			vertex 0.011428214609622955 -0.021056171506643295 -0.036741629242897034
			vertex 0.039137884974479675 -0.07211048901081085 -0.036741629242897034
		endloop
	endfacet
endsolid exported
