solid exported
	facet normal -0.32177473442737753 0.9295123580517645 -0.18018822523472278
		outer loop
			vertex -0.0555555522441864 -0.07826685160398483 -0.01991482451558113
			vertex -0.0555555522441864 -0.06728386133909225 0.036741625517606735
			vertex -0.042912356555461884 -0.06290709227323532 0.036741625517606735
		endloop
	endfacet
	facet normal -0.3217749275348287 0.9295123024769645 -0.18018816707522206
		outer loop
			vertex -0.0555555522441864 -0.07826685160398483 -0.01991482451558113
			vertex -0.042912356555461884 -0.06290709227323532 0.036741625517606735
			vertex -0.017201542854309082 -0.0628165528178215 -0.008704964071512222
		endloop
	endfacet
	facet normal -0.32177428044568857 0.9295121405572256 -0.18019015788989143
		outer loop
			vertex -0.0555555522441864 -0.07826685160398483 -0.01991482451558113
			vertex -0.017201542854309082 -0.0628165528178215 -0.008704964071512222
			vertex -0.02071170136332512 -0.06499915570020676 -0.013695675879716873
		endloop
	endfacet
	facet normal -0.32177446737748394 0.9295122384062627 -0.18018931931975246
		outer loop
			vertex -0.0555555522441864 -0.07826685160398483 -0.01991482451558113
			vertex -0.02071170136332512 -0.06499915570020676 -0.013695675879716873
			vertex -0.043242935091257095 -0.07500558346509933 -0.025078821927309036
		endloop
	endfacet
	facet normal -0.5202631338692165 0.7826127735856976 0.34182381157122993
		outer loop
			vertex -0.03731297701597214 -0.06596948951482773 -0.036741625517606735
			vertex -0.04417814686894417 -0.07053329795598984 -0.036741625517606735
			vertex -0.043242935091257095 -0.07500558346509933 -0.025078821927309036
		endloop
	endfacet
	facet normal -0.5202636632271891 0.7826125984910466 0.34182340675927675
		outer loop
			vertex -0.03731297701597214 -0.06596948951482773 -0.036741625517606735
			vertex -0.043242935091257095 -0.07500558346509933 -0.025078821927309036
			vertex -0.02071170136332512 -0.06499915570020676 -0.013695675879716873
		endloop
	endfacet
	facet normal -0.12245686834462971 0.9901889894203248 -0.06730587363656959
		outer loop
			vertex -0.042912356555461884 -0.06290709227323532 0.036741625517606735
			vertex -0.0007658866816200316 -0.05769483000040054 0.036741625517606735
			vertex -0.013289091177284718 -0.061960987746715546 -0.003236312186345458
		endloop
	endfacet
	facet normal -0.12245590237056561 0.990189157806015 -0.06730515387416648
		outer loop
			vertex -0.042912356555461884 -0.06290709227323532 0.036741625517606735
			vertex -0.013289091177284718 -0.061960987746715546 -0.003236312186345458
			vertex -0.017201542854309082 -0.0628165528178215 -0.008704964071512222
		endloop
	endfacet
	facet normal 0.14735776874078077 0.977569249728308 -0.15047940050841357
		outer loop
			vertex 0.015503617003560066 -0.060147278010845184 0.036741625517606735
			vertex -0.013289091177284718 -0.061960987746715546 -0.003236312186345458
			vertex -0.0007658866816200316 -0.05769483000040054 0.036741625517606735
		endloop
	endfacet
	facet normal 0.14736407876835383 0.9775695849273651 -0.1504710434392398
		outer loop
			vertex 0.021045245230197906 -0.06098262220621109 0.036741625517606735
			vertex 0.022550135850906372 -0.06120947748422623 0.036741625517606735
			vertex 0.021690456196665764 -0.0612453892827034 0.035666387528181076
		endloop
	endfacet
	facet normal 0.10942491511579729 0.9866711614694121 -0.12044171651260083
		outer loop
			vertex 0.021690456196665764 -0.0612453892827034 0.035666387528181076
			vertex 0.022550135850906372 -0.06120947748422623 0.036741625517606735
			vertex 0.03357749059796333 -0.06243244558572769 0.036741625517606735
		endloop
	endfacet
	facet normal 0.10942602392160838 0.9866692898296158 -0.1204560409270928
		outer loop
			vertex 0.021690456196665764 -0.0612453892827034 0.035666387528181076
			vertex 0.03357749059796333 -0.06243244558572769 0.036741625517606735
			vertex 0.02942441776394844 -0.06371551007032394 0.022459115833044052
		endloop
	endfacet
	facet normal 0.449119906275898 0.8687694217009275 -0.20864084380620349
		outer loop
			vertex 0.02942441776394844 -0.06371551007032394 0.022459115833044052
			vertex 0.03357749059796333 -0.06243244558572769 0.036741625517606735
			vertex 0.03477693721652031 -0.06305251270532608 0.036741625517606735
		endloop
	endfacet
	facet normal 0.44912297217834557 0.8687675813226644 -0.2086419073543394
		outer loop
			vertex 0.02942441776394844 -0.06371551007032394 0.022459115833044052
			vertex 0.03477693721652031 -0.06305251270532608 0.036741625517606735
			vertex 0.03090737573802471 -0.06499912589788437 0.020306464284658432
		endloop
	endfacet
	facet normal 0.4491249346793849 0.8687665365767118 -0.20864203309434864
		outer loop
			vertex 0.03477693721652031 -0.06305251270532608 0.036741625517606735
			vertex 0.0555555522441864 -0.0737944021821022 0.036741625517606735
			vertex 0.0555555522441864 -0.07967624813318253 0.012250151485204697
		endloop
	endfacet
	facet normal 0.4491248929086642 0.8687665478262399 -0.20864207616839564
		outer loop
			vertex 0.03477693721652031 -0.06305251270532608 0.036741625517606735
			vertex 0.0555555522441864 -0.07967624813318253 0.012250151485204697
			vertex 0.04414389282464981 -0.07645636051893234 0.0010926241520792246
		endloop
	endfacet
	facet normal 0.4491246269722885 0.868766658529201 -0.20864218766828957
		outer loop
			vertex 0.03477693721652031 -0.06305251270532608 0.036741625517606735
			vertex 0.04414389282464981 -0.07645636051893234 0.0010926241520792246
			vertex 0.03090737573802471 -0.06499912589788437 0.020306464284658432
		endloop
	endfacet
	facet normal 1 0 0
		outer loop
			vertex 0.0555555522441864 -0.0737944021821022 0.036741625517606735
			vertex 0.0555555522441864 -0.08926554769277573 0.036741625517606735
			vertex 0.0555555522441864 -0.08712438493967056 0.03127298876643181
		endloop
	endfacet
	facet normal 1 0 0
		outer loop
			vertex 0.0555555522441864 -0.0737944021821022 0.036741625517606735
			vertex 0.0555555522441864 -0.08712438493967056 0.03127298876643181
			vertex 0.0555555522441864 -0.0760614201426506 0.027301978319883347
		endloop
	endfacet
	facet normal 1 0 0
		outer loop
			vertex 0.0555555522441864 -0.0760614201426506 0.027301978319883347
			vertex 0.0555555522441864 -0.08712438493967056 0.03127298876643181
			vertex 0.0555555522441864 -0.07967624813318253 0.012250151485204697
		endloop
	endfacet
	facet normal 0.20789756226610254 0.8752736996385352 0.436662975674471
		outer loop
			vertex 0.0038392674177885056 -0.023488005623221397 -0.036741625517606735
			vertex 0.004154203925281763 -0.03356597572565079 -0.016690675169229507
			vertex 0.025073161348700523 -0.028531542047858238 -0.036741625517606735
		endloop
	endfacet
	facet normal 0.14735857442722605 0.9775688153615899 -0.15048143332422576
		outer loop
			vertex 0.012713521718978882 -0.06032303720712662 0.03286765143275261
			vertex 0.015503617003560066 -0.060147278010845184 0.036741625517606735
			vertex 0.021045245230197906 -0.06098262220621109 0.036741625517606735
		endloop
	endfacet
	facet normal 0.1473561132524124 0.9775700330637526 -0.15047593276958254
		outer loop
			vertex 0.012713521718978882 -0.06032303720712662 0.03286765143275261
			vertex 0.021045245230197906 -0.06098262220621109 0.036741625517606735
			vertex 0.021690456196665764 -0.0612453892827034 0.035666387528181076
		endloop
	endfacet
	facet normal 0.14735750609940992 0.9775690874430897 -0.15048071195953092
		outer loop
			vertex 0.012713521718978882 -0.06032303720712662 0.03286765143275261
			vertex 0.021690456196665764 -0.0612453892827034 0.035666387528181076
			vertex 0.018805332481861115 -0.061365969479084015 0.03205781802535057
		endloop
	endfacet
	facet normal 0.10942476097828462 0.9866693365355049 -0.1204568056418224
		outer loop
			vertex 0.018805332481861115 -0.061365969479084015 0.03205781802535057
			vertex 0.021690456196665764 -0.0612453892827034 0.035666387528181076
			vertex 0.02448129467666149 -0.06213674694299698 0.030900459736585617
		endloop
	endfacet
	facet normal -0.321773472314235 0.9295122968745441 -0.18019079464237286
		outer loop
			vertex -0.017201542854309082 -0.0628165528178215 -0.008704964071512222
			vertex -0.015785975381731987 -0.06281157582998276 -0.01120712235569954
			vertex -0.02071170136332512 -0.06499915570020676 -0.013695675879716873
		endloop
	endfacet
	facet normal -0.5202654672631071 0.7826105735014527 0.3418252972166169
		outer loop
			vertex -0.015785975381731987 -0.06281157582998276 -0.01120712235569954
			vertex -0.027888646349310875 -0.06451079994440079 -0.02573726698756218
			vertex -0.02897910587489605 -0.06548238545656204 -0.02517252042889595
		endloop
	endfacet
	facet normal -0.5202629722542302 0.7826135066279929 0.34182237923317815
		outer loop
			vertex -0.015785975381731987 -0.06281157582998276 -0.01120712235569954
			vertex -0.02897910587489605 -0.06548238545656204 -0.02517252042889595
			vertex -0.02071170136332512 -0.06499915570020676 -0.013695675879716873
		endloop
	endfacet
	facet normal 0.5859159118743504 0.391436408057356 0.7095633041946316
		outer loop
			vertex 0.020285408943891525 -0.029683774337172508 -0.032152529805898666
			vertex 0.004154203925281763 -0.03356597572565079 -0.016690675169229507
			vertex 0.011933417990803719 -0.04096687585115433 -0.019031528383493423
		endloop
	endfacet
	facet normal 0.5717419072114964 0.3692356636606175 0.7326501322044949
		outer loop
			vertex 0.004154203925281763 -0.03356597572565079 -0.016690675169229507
			vertex 0.00918741337954998 -0.04450773447751999 -0.01510411873459816
			vertex 0.011933417990803719 -0.04096687585115433 -0.019031528383493423
		endloop
	endfacet
	facet normal 0.03671681758040205 0.15992455722517518 0.9864461522572325
		outer loop
			vertex 0.004154203925281763 -0.03356597572565079 -0.016690675169229507
			vertex -0.015785975381731987 -0.06281157582998276 -0.01120712235569954
			vertex 0.00918741337954998 -0.04450773447751999 -0.01510411873459816
		endloop
	endfacet
	facet normal -0.5023115466262144 0.477634604739433 0.7207969856217394
		outer loop
			vertex -0.015785975381731987 -0.06281157582998276 -0.01120712235569954
			vertex 0.004154203925281763 -0.03356597572565079 -0.016690675169229507
			vertex -0.018606334924697876 -0.027243604883551598 -0.036741625517606735
		endloop
	endfacet
	facet normal -0.5023115887589733 0.47763458819168475 0.7207969672254426
		outer loop
			vertex -0.015785975381731987 -0.06281157582998276 -0.01120712235569954
			vertex -0.018606334924697876 -0.027243604883551598 -0.036741625517606735
			vertex -0.02491268329322338 -0.03387577086687088 -0.036741625517606735
		endloop
	endfacet
	facet normal -0.5023109924728653 0.4776349382595613 0.720797150795361
		outer loop
			vertex -0.015785975381731987 -0.06281157582998276 -0.01120712235569954
			vertex -0.02491268329322338 -0.03387577086687088 -0.036741625517606735
			vertex -0.02746179699897766 -0.04105208069086075 -0.03376268967986107
		endloop
	endfacet
	facet normal -0.7618017034622456 0.22205611239159 0.6085632650362282
		outer loop
			vertex -0.027888646349310875 -0.06451079994440079 -0.02573726698756218
			vertex -0.015785975381731987 -0.06281157582998276 -0.01120712235569954
			vertex -0.02746179699897766 -0.04105208069086075 -0.03376268967986107
		endloop
	endfacet
	facet normal -0.14770289812925344 0.8827567284030491 0.44600943077850375
		outer loop
			vertex -0.018606334924697876 -0.027243604883551598 -0.036741625517606735
			vertex 0.004154203925281763 -0.03356597572565079 -0.016690675169229507
			vertex 0.0038392674177885056 -0.023488005623221397 -0.036741625517606735
		endloop
	endfacet
	facet normal 0.5859175778588094 0.3914346822413791 0.7095628805783578
		outer loop
			vertex 0.025073161348700523 -0.028531542047858238 -0.036741625517606735
			vertex 0.020285408943891525 -0.029683774337172508 -0.032152529805898666
			vertex 0.011933417990803719 -0.04096687585115433 -0.019031528383493423
		endloop
	endfacet
	facet normal 0.5859162885254474 0.39143629432582916 0.7095630559189419
		outer loop
			vertex 0.025073161348700523 -0.028531542047858238 -0.036741625517606735
			vertex 0.011933417990803719 -0.04096687585115433 -0.019031528383493423
			vertex 0.023041857406497 -0.051535092294216156 -0.022374194115400314
		endloop
	endfacet
	facet normal 0.5859157654713599 0.39143652930842066 0.7095633581964957
		outer loop
			vertex 0.025073161348700523 -0.028531542047858238 -0.036741625517606735
			vertex 0.023041857406497 -0.051535092294216156 -0.022374194115400314
			vertex 0.03868432343006134 -0.04890520125627518 -0.036741625517606735
		endloop
	endfacet
	facet normal 0.5717422863326147 0.36923591299665154 0.7326497106890058
		outer loop
			vertex 0.00918741337954998 -0.04450773447751999 -0.01510411873459816
			vertex 0.013222015462815762 -0.053278617560863495 -0.01383233442902565
			vertex 0.023041857406497 -0.051535092294216156 -0.022374194115400314
		endloop
	endfacet
	facet normal 0.5717421917908732 0.3692353640952343 0.7326500610984948
		outer loop
			vertex 0.00918741337954998 -0.04450773447751999 -0.01510411873459816
			vertex 0.023041857406497 -0.051535092294216156 -0.022374194115400314
			vertex 0.011933417990803719 -0.04096687585115433 -0.019031528383493423
		endloop
	endfacet
	facet normal 0.036716509955179125 0.15992496529531752 0.986446097550192
		outer loop
			vertex -0.015785975381731987 -0.06281157582998276 -0.01120712235569954
			vertex 0.013222015462815762 -0.053278617560863495 -0.01383233442902565
			vertex 0.00918741337954998 -0.04450773447751999 -0.01510411873459816
		endloop
	endfacet
	facet normal -0.12245334157846455 0.990189347940362 -0.06730701569456943
		outer loop
			vertex -0.013289091177284718 -0.061960987746715546 -0.003236312186345458
			vertex -0.015785975381731987 -0.06281157582998276 -0.01120712235569954
			vertex -0.017201542854309082 -0.0628165528178215 -0.008704964071512222
		endloop
	endfacet
	facet normal 0.5859155535242458 0.39143708159851565 0.709563228534296
		outer loop
			vertex 0.03868432343006134 -0.04890520125627518 -0.036741625517606735
			vertex 0.023041857406497 -0.051535092294216156 -0.022374194115400314
			vertex 0.029901161789894104 -0.05806080251932144 -0.02443823590874672
		endloop
	endfacet
	facet normal 0.5859162681088033 0.3914362325621959 0.7095631068502418
		outer loop
			vertex 0.03868432343006134 -0.04890520125627518 -0.036741625517606735
			vertex 0.029901161789894104 -0.05806080251932144 -0.02443823590874672
			vertex 0.044179946184158325 -0.05713125318288803 -0.036741625517606735
		endloop
	endfacet
	facet normal 0.5717419714714378 0.3692353488474321 0.7326502407148099
		outer loop
			vertex 0.013222015462815762 -0.053278617560863495 -0.01383233442902565
			vertex 0.01586279459297657 -0.05901942402124405 -0.012999925762414932
			vertex 0.029901161789894104 -0.05806080251932144 -0.02443823590874672
		endloop
	endfacet
	facet normal 0.571741937286999 0.36923686436589237 0.7326495036103914
		outer loop
			vertex 0.013222015462815762 -0.053278617560863495 -0.01383233442902565
			vertex 0.029901161789894104 -0.05806080251932144 -0.02443823590874672
			vertex 0.023041857406497 -0.051535092294216156 -0.022374194115400314
		endloop
	endfacet
	facet normal 0.03671710643278834 0.15992322198116604 0.9864463579771412
		outer loop
			vertex -0.015785975381731987 -0.06281157582998276 -0.01120712235569954
			vertex 0.01586279459297657 -0.05901942402124405 -0.012999925762414932
			vertex 0.013222015462815762 -0.053278617560863495 -0.01383233442902565
		endloop
	endfacet
	facet normal 0.14735853255433423 0.9775690754461751 -0.15047978473783
		outer loop
			vertex -0.015785975381731987 -0.06281157582998276 -0.01120712235569954
			vertex -0.013289091177284718 -0.061960987746715546 -0.003236312186345458
			vertex 0.012713521718978882 -0.06032303720712662 0.03286765143275261
		endloop
	endfacet
	facet normal 0.14735772901711744 0.9775692748183425 -0.15047927641392234
		outer loop
			vertex -0.015785975381731987 -0.06281157582998276 -0.01120712235569954
			vertex 0.012713521718978882 -0.06032303720712662 0.03286765143275261
			vertex 0.018805332481861115 -0.061365969479084015 0.03205781802535057
		endloop
	endfacet
	facet normal 0.5859160029205318 0.3914370723803535 0.709562862534339
		outer loop
			vertex 0.044179946184158325 -0.05713125318288803 -0.036741625517606735
			vertex 0.029901161789894104 -0.05806080251932144 -0.02443823590874672
			vertex 0.03830650821328163 -0.06605737656354904 -0.026967499405145645
		endloop
	endfacet
	facet normal 0.5859155535317955 0.39143751003785515 0.7095629921753909
		outer loop
			vertex 0.044179946184158325 -0.05713125318288803 -0.036741625517606735
			vertex 0.03830650821328163 -0.06605737656354904 -0.026967499405145645
			vertex 0.04700186103582382 -0.06135518103837967 -0.036741625517606735
		endloop
	endfacet
	facet normal 0.10942513083199444 0.9866695033922921 -0.12045510291394428
		outer loop
			vertex -0.0028710318729281425 -0.0622718408703804 0.004946183878928423
			vertex 0.018805332481861115 -0.061365969479084015 0.03205781802535057
			vertex 0.02448129467666149 -0.06213674694299698 0.030900459736585617
		endloop
	endfacet
	facet normal 0.10942601715359215 0.9866692911971706 -0.12045603587357025
		outer loop
			vertex -0.0028710318729281425 -0.0622718408703804 0.004946183878928423
			vertex 0.02448129467666149 -0.06213674694299698 0.030900459736585617
			vertex 0.02942441776394844 -0.06371551007032394 0.022459115833044052
		endloop
	endfacet
	facet normal 0.10942583574021943 0.9866693527785549 -0.12045569625427603
		outer loop
			vertex -0.0028710318729281425 -0.0622718408703804 0.004946183878928423
			vertex 0.02942441776394844 -0.06371551007032394 0.022459115833044052
			vertex 0.01964261755347252 -0.06673752516508102 -0.011180732399225235
		endloop
	endfacet
	facet normal 0.44912355261885284 0.868767402844407 -0.20864140106413387
		outer loop
			vertex 0.01964261755347252 -0.06673752516508102 -0.011180732399225235
			vertex 0.02942441776394844 -0.06371551007032394 0.022459115833044052
			vertex 0.03090737573802471 -0.06499912589788437 0.020306464284658432
		endloop
	endfacet
	facet normal 0.4491269636986447 0.8687653732577857 -0.2086425093481599
		outer loop
			vertex 0.01964261755347252 -0.06673752516508102 -0.011180732399225235
			vertex 0.03090737573802471 -0.06499912589788437 0.020306464284658432
			vertex 0.02310480736196041 -0.06892425566911697 -0.012833286076784134
		endloop
	endfacet
	facet normal 0.5717425816369939 0.36923650175429484 0.7326491835219064
		outer loop
			vertex 0.01586279459297657 -0.05901942402124405 -0.012999925762414932
			vertex 0.019441673532128334 -0.0667996034026146 -0.011871788650751114
			vertex 0.025305602699518204 -0.06959549337625504 -0.015038806945085526
		endloop
	endfacet
	facet normal 0.5717410839873757 0.36923477113005915 0.732651224437299
		outer loop
			vertex 0.01586279459297657 -0.05901942402124405 -0.012999925762414932
			vertex 0.025305602699518204 -0.06959549337625504 -0.015038806945085526
			vertex 0.0293207298964262 -0.07060474902391434 -0.017663467675447464
		endloop
	endfacet
	facet normal 0.5717417909362584 0.3692360799374611 0.7326500131504924
		outer loop
			vertex 0.01586279459297657 -0.05901942402124405 -0.012999925762414932
			vertex 0.0293207298964262 -0.07060474902391434 -0.017663467675447464
			vertex 0.03830650821328163 -0.06605737656354904 -0.026967499405145645
		endloop
	endfacet
	facet normal 0.5717417909408268 0.36923596548706467 0.7326500708268656
		outer loop
			vertex 0.01586279459297657 -0.05901942402124405 -0.012999925762414932
			vertex 0.03830650821328163 -0.06605737656354904 -0.026967499405145645
			vertex 0.029901161789894104 -0.05806080251932144 -0.02443823590874672
		endloop
	endfacet
	facet normal 0.10942067278173746 0.9866691150541176 -0.12046233339229476
		outer loop
			vertex 0.019441673532128334 -0.0667996034026146 -0.011871788650751114
			vertex -0.003693358739838004 -0.06230621784925461 0.003917661029845476
			vertex -0.0028710318729281425 -0.0622718408703804 0.004946183878928423
		endloop
	endfacet
	facet normal 0.10942799420256426 0.9866694770579596 -0.12045271739141612
		outer loop
			vertex 0.019441673532128334 -0.0667996034026146 -0.011871788650751114
			vertex -0.0028710318729281425 -0.0622718408703804 0.004946183878928423
			vertex 0.01964261755347252 -0.06673752516508102 -0.011180732399225235
		endloop
	endfacet
	facet normal 0.5392266386329541 0.7847470251006462 0.30562516058775613
		outer loop
			vertex 0.025305602699518204 -0.06959549337625504 -0.015038806945085526
			vertex 0.019441673532128334 -0.0667996034026146 -0.011871788650751114
			vertex 0.02309849113225937 -0.06892741471529007 -0.012860123068094254
		endloop
	endfacet
	facet normal 0.44912520609849077 0.8687673724450693 -0.2086379683132454
		outer loop
			vertex 0.02309849113225937 -0.06892741471529007 -0.012860123068094254
			vertex 0.019441673532128334 -0.0667996034026146 -0.011871788650751114
			vertex 0.01964261755347252 -0.06673752516508102 -0.011180732399225235
		endloop
	endfacet
	facet normal 0.4494143633310143 0.8687621617555057 -0.20803614189289335
		outer loop
			vertex 0.02309849113225937 -0.06892741471529007 -0.012860123068094254
			vertex 0.01964261755347252 -0.06673752516508102 -0.011180732399225235
			vertex 0.02310480736196041 -0.06892425566911697 -0.012833286076784134
		endloop
	endfacet
	facet normal 0.10942547626140786 0.9866694306398007 -0.12045538504315896
		outer loop
			vertex 0.019441673532128334 -0.0667996034026146 -0.011871788650751114
			vertex -0.015785975381731987 -0.06281157582998276 -0.01120712235569954
			vertex -0.003693358739838004 -0.06230621784925461 0.003917661029845476
		endloop
	endfacet
	facet normal 0.036716778121878825 0.15992577232248148 0.9864459567312375
		outer loop
			vertex -0.015785975381731987 -0.06281157582998276 -0.01120712235569954
			vertex 0.019441673532128334 -0.0667996034026146 -0.011871788650751114
			vertex 0.01586279459297657 -0.05901942402124405 -0.012999925762414932
		endloop
	endfacet
	facet normal 0.5717410143441565 0.3692361180879632 0.7326505999561094
		outer loop
			vertex 0.025305602699518204 -0.06959549337625504 -0.015038806945085526
			vertex 0.028399815782904625 -0.07107078284025192 -0.016709942370653152
			vertex 0.0293207298964262 -0.07060474902391434 -0.017663467675447464
		endloop
	endfacet
	facet normal 0.5392219678222976 0.7847527625153539 0.3056186694925068
		outer loop
			vertex 0.028399815782904625 -0.07107078284025192 -0.016709942370653152
			vertex 0.025305602699518204 -0.06959549337625504 -0.015038806945085526
			vertex 0.02309849113225937 -0.06892741471529007 -0.012860123068094254
		endloop
	endfacet
	facet normal 0.53922898657705 0.7847417981742146 0.30563443888637265
		outer loop
			vertex 0.028399815782904625 -0.07107078284025192 -0.016709942370653152
			vertex 0.02309849113225937 -0.06892741471529007 -0.012860123068094254
			vertex 0.02840616926550865 -0.07201584428548813 -0.01429462805390358
		endloop
	endfacet
	facet normal 0.4491272026027047 0.8687653673160206 -0.20864201981990368
		outer loop
			vertex 0.02840616926550865 -0.07201584428548813 -0.01429462805390358
			vertex 0.02309849113225937 -0.06892741471529007 -0.012860123068094254
			vertex 0.03090737573802471 -0.06499912589788437 0.020306464284658432
		endloop
	endfacet
	facet normal 0.4491247314722506 0.8687666263968215 -0.20864209651713322
		outer loop
			vertex 0.02840616926550865 -0.07201584428548813 -0.01429462805390358
			vertex 0.03090737573802471 -0.06499912589788437 0.020306464284658432
			vertex 0.04414389282464981 -0.07645636051893234 0.0010926241520792246
		endloop
	endfacet
	facet normal -0.5202571883100241 0.7826197112316344 0.34181697676309386
		outer loop
			vertex -0.027888646349310875 -0.06451079994440079 -0.02573726698756218
			vertex -0.03705456852912903 -0.06579770892858505 -0.036741625517606735
			vertex -0.03731297701597214 -0.06596948951482773 -0.036741625517606735
		endloop
	endfacet
	facet normal -0.5202654745567726 0.7826105742451372 0.3418252844128313
		outer loop
			vertex -0.027888646349310875 -0.06451079994440079 -0.02573726698756218
			vertex -0.03731297701597214 -0.06596948951482773 -0.036741625517606735
			vertex -0.02897910587489605 -0.06548238545656204 -0.02517252042889595
		endloop
	endfacet
	facet normal -0.5023136148615244 0.4776350738561146 0.7207952334381883
		outer loop
			vertex -0.02491268329322338 -0.03387577086687088 -0.036741625517606735
			vertex -0.02900383248925209 -0.038178302347660065 -0.036741625517606735
			vertex -0.02746179699897766 -0.04105208069086075 -0.03376268967986107
		endloop
	endfacet
	facet normal -0.7618016684825254 0.22205612514343703 0.608563304170998
		outer loop
			vertex -0.03705456852912903 -0.06579770892858505 -0.036741625517606735
			vertex -0.027888646349310875 -0.06451079994440079 -0.02573726698756218
			vertex -0.02746179699897766 -0.04105208069086075 -0.03376268967986107
		endloop
	endfacet
	facet normal -0.7618024341569458 0.22205655628274915 0.6085621883788037
		outer loop
			vertex -0.03705456852912903 -0.06579770892858505 -0.036741625517606735
			vertex -0.02746179699897766 -0.04105208069086075 -0.03376268967986107
			vertex -0.02900383248925209 -0.038178302347660065 -0.036741625517606735
		endloop
	endfacet
	facet normal -0.32177417602747554 0.9295125067852282 -0.18018845515648424
		outer loop
			vertex -0.0555555522441864 -0.08047377318143845 -0.03129935637116432
			vertex -0.0555555522441864 -0.07826685160398483 -0.01991482451558113
			vertex -0.043242935091257095 -0.07500558346509933 -0.025078821927309036
		endloop
	endfacet
	facet normal -0.5202632653367695 0.7826127413942412 0.34182368517777245
		outer loop
			vertex -0.04417814686894417 -0.07053329795598984 -0.036741625517606735
			vertex -0.0555555522441864 -0.07809673994779587 -0.036741625517606735
			vertex -0.0555555522441864 -0.08047377318143845 -0.03129935637116432
		endloop
	endfacet
	facet normal -0.5202632021381571 0.7826127326647626 0.34182380135377355
		outer loop
			vertex -0.04417814686894417 -0.07053329795598984 -0.036741625517606735
			vertex -0.0555555522441864 -0.08047377318143845 -0.03129935637116432
			vertex -0.043242935091257095 -0.07500558346509933 -0.025078821927309036
		endloop
	endfacet
	facet normal 0.5859161367200629 0.39143654137257194 0.7095630449856556
		outer loop
			vertex 0.04700186103582382 -0.06135518103837967 -0.036741625517606735
			vertex 0.03830650821328163 -0.06605737656354904 -0.026967499405145645
			vertex 0.0555555522441864 -0.08246755599975586 -0.03215794637799263
		endloop
	endfacet
	facet normal 0.5859158687207494 0.3914364873129639 0.7095632961063427
		outer loop
			vertex 0.04700186103582382 -0.06135518103837967 -0.036741625517606735
			vertex 0.0555555522441864 -0.08246755599975586 -0.03215794637799263
			vertex 0.0555555522441864 -0.07415864616632462 -0.036741625517606735
		endloop
	endfacet
	facet normal 0.5392272790921248 0.7847440999275336 0.30563154142174037
		outer loop
			vertex 0.0555555522441864 -0.08405514061450958 -0.03128214552998543
			vertex 0.028402118012309074 -0.07141339033842087 -0.015834350138902664
			vertex 0.02840616926550865 -0.07201584428548813 -0.01429462805390358
		endloop
	endfacet
	facet normal 0.5392267336261857 0.784745086598736 0.30562997039226514
		outer loop
			vertex 0.0555555522441864 -0.08405514061450958 -0.03128214552998543
			vertex 0.02840616926550865 -0.07201584428548813 -0.01429462805390358
			vertex 0.0555555522441864 -0.08781340718269348 -0.021632302552461624
		endloop
	endfacet
	facet normal 0.44912451537178394 0.8687668260413544 -0.20864173039469192
		outer loop
			vertex 0.0555555522441864 -0.08781340718269348 -0.021632302552461624
			vertex 0.02840616926550865 -0.07201584428548813 -0.01429462805390358
			vertex 0.0555555522441864 -0.07967624813318253 0.012250151485204697
		endloop
	endfacet
	facet normal 1 0 0
		outer loop
			vertex 0.0555555522441864 -0.08926554769277573 0.036741625517606735
			vertex 0.0555555522441864 -0.1023595854640007 0.036741625517606735
			vertex 0.0555555522441864 -0.08712438493967056 0.03127298876643181
		endloop
	endfacet
	facet normal 1 0 0
		outer loop
			vertex 0.0555555522441864 -0.1023595854640007 0.036741625517606735
			vertex 0.0555555522441864 -0.1023595854640007 0.01571693643927574
			vertex 0.0555555522441864 -0.08781340718269348 -0.021632302552461624
		endloop
	endfacet
	facet normal 1 0 0
		outer loop
			vertex 0.0555555522441864 -0.1023595854640007 0.036741625517606735
			vertex 0.0555555522441864 -0.08781340718269348 -0.021632302552461624
			vertex 0.0555555522441864 -0.07967624813318253 0.012250151485204697
		endloop
	endfacet
	facet normal 1 0 0
		outer loop
			vertex 0.0555555522441864 -0.1023595854640007 0.036741625517606735
			vertex 0.0555555522441864 -0.07967624813318253 0.012250151485204697
			vertex 0.0555555522441864 -0.08712438493967056 0.03127298876643181
		endloop
	endfacet
	facet normal 1 0 0
		outer loop
			vertex 0.0555555522441864 -0.1023595854640007 0.01571693643927574
			vertex 0.0555555522441864 -0.1023595854640007 -0.021184343844652176
			vertex 0.0555555522441864 -0.08405514061450958 -0.03128214552998543
		endloop
	endfacet
	facet normal 0.5717419105213922 0.3692343917164878 0.7326507706452671
		outer loop
			vertex 0.028399815782904625 -0.07107078284025192 -0.016709942370653152
			vertex 0.0555555522441864 -0.08401846140623093 -0.03137633576989174
			vertex 0.0555555522441864 -0.08246755599975586 -0.03215794637799263
		endloop
	endfacet
	facet normal 0.571742017876362 0.3692355573228362 0.7326500994357132
		outer loop
			vertex 0.028399815782904625 -0.07107078284025192 -0.016709942370653152
			vertex 0.0555555522441864 -0.08246755599975586 -0.03215794637799263
			vertex 0.03830650821328163 -0.06605737656354904 -0.026967499405145645
		endloop
	endfacet
	facet normal 0.5392190055342567 0.7847623770303059 0.3055992075716023
		outer loop
			vertex 0.0555555522441864 -0.08405514061450958 -0.03128214552998543
			vertex 0.0555555522441864 -0.08401846140623093 -0.03137633576989174
			vertex 0.028399815782904625 -0.07107078284025192 -0.016709942370653152
		endloop
	endfacet
	facet normal 0.5392297789568854 0.7847390664654674 0.30564005471962535
		outer loop
			vertex 0.0555555522441864 -0.08405514061450958 -0.03128214552998543
			vertex 0.028399815782904625 -0.07107078284025192 -0.016709942370653152
			vertex 0.028402118012309074 -0.07141339033842087 -0.015834350138902664
		endloop
	endfacet
	facet normal 1 0 0
		outer loop
			vertex 0.0555555522441864 -0.1023595854640007 -0.021184343844652176
			vertex 0.0555555522441864 -0.1023595854640007 -0.022132907062768936
			vertex 0.0555555522441864 -0.08401846140623093 -0.03137633576989174
		endloop
	endfacet
	facet normal 1 0 0
		outer loop
			vertex 0.0555555522441864 -0.1023595854640007 -0.021184343844652176
			vertex 0.0555555522441864 -0.08401846140623093 -0.03137633576989174
			vertex 0.0555555522441864 -0.08405514061450958 -0.03128214552998543
		endloop
	endfacet
	facet normal 1 0 0
		outer loop
			vertex 0.0555555522441864 -0.0747273787856102 -0.036741625517606735
			vertex 0.0555555522441864 -0.07415864616632462 -0.036741625517606735
			vertex 0.0555555522441864 -0.07447952777147293 -0.03656461462378502
		endloop
	endfacet
	facet normal 1 0 0
		outer loop
			vertex 0.0555555522441864 -0.1023595854640007 -0.022132907062768936
			vertex 0.0555555522441864 -0.1023595854640007 -0.036741625517606735
			vertex 0.0555555522441864 -0.0747273787856102 -0.036741625517606735
		endloop
	endfacet
	facet normal 1 0 0
		outer loop
			vertex 0.0555555522441864 -0.1023595854640007 -0.022132907062768936
			vertex 0.0555555522441864 -0.0747273787856102 -0.036741625517606735
			vertex 0.0555555522441864 -0.07447952777147293 -0.03656461462378502
		endloop
	endfacet
	facet normal 1 0 0
		outer loop
			vertex 0.0555555522441864 -0.1023595854640007 -0.022132907062768936
			vertex 0.0555555522441864 -0.07447952777147293 -0.03656461462378502
			vertex 0.0555555522441864 -0.08246755599975586 -0.03215794637799263
		endloop
	endfacet
	facet normal 0 1 0
		outer loop
			vertex -0.04454706236720085 0.10202724486589432 -0.036741625517606735
			vertex -0.0555555522441864 0.10202724486589432 -0.036741625517606735
			vertex -0.0555555522441864 0.10202724486589432 -0.015709970146417618
		endloop
	endfacet
	facet normal 0 1 0
		outer loop
			vertex -0.04454706236720085 0.10202724486589432 -0.036741625517606735
			vertex -0.0555555522441864 0.10202724486589432 -0.015709970146417618
			vertex -0.043653640896081924 0.10202724486589432 -0.03550448641180992
		endloop
	endfacet
	facet normal 0 1 0
		outer loop
			vertex -0.043653640896081924 0.10202724486589432 -0.03550448641180992
			vertex -0.0555555522441864 0.10202724486589432 -0.015709970146417618
			vertex -0.0555555522441864 0.10202724486589432 -0.014755386859178543
		endloop
	endfacet
	facet normal 0 1 0
		outer loop
			vertex -0.043653640896081924 0.10202724486589432 -0.03550448641180992
			vertex -0.0555555522441864 0.10202724486589432 -0.014755386859178543
			vertex -0.030419277027249336 0.10202724486589432 -0.017178628593683243
		endloop
	endfacet
	facet normal 0.02621691471488267 0.961893744316806 0.27216373385708076
		outer loop
			vertex -0.0555555522441864 0.10202724486589432 -0.014755386859178543
			vertex -0.0555555522441864 0.10202289372682571 -0.014740008860826492
			vertex -0.029965486377477646 0.10184077173471451 -0.01656137779355049
		endloop
	endfacet
	facet normal 0.02616584042244 0.9621057850738978 0.2714181407392037
		outer loop
			vertex -0.0555555522441864 0.10202724486589432 -0.014755386859178543
			vertex -0.029965486377477646 0.10184077173471451 -0.01656137779355049
			vertex -0.030419277027249336 0.10202724486589432 -0.017178628593683243
		endloop
	endfacet
	facet normal 0.04008909676957117 -0.7675373104868197 0.639749436366191
		outer loop
			vertex -0.0555555522441864 0.10202289372682571 -0.014740008860826492
			vertex -0.0555555522441864 0.10183460265398026 -0.014965910464525223
			vertex -0.035071663558483124 0.09535909444093704 -0.024018477648496628
		endloop
	endfacet
	facet normal 0.04006952185305782 -0.7675604813636817 0.6397228625484794
		outer loop
			vertex -0.0555555522441864 0.10202289372682571 -0.014740008860826492
			vertex -0.035071663558483124 0.09535909444093704 -0.024018477648496628
			vertex -0.029965486377477646 0.10184077173471451 -0.01656137779355049
		endloop
	endfacet
	facet normal 0.10901940012894973 -0.6751131818960852 0.7296142556348988
		outer loop
			vertex -0.0555555522441864 0.10183460265398026 -0.014965910464525223
			vertex -0.0555555522441864 0.07830096036195755 -0.036741625517606735
			vertex -0.04360846430063248 0.080230213701725 -0.036741625517606735
		endloop
	endfacet
	facet normal 0.10902182603887096 -0.6751122987138226 0.7296147103591653
		outer loop
			vertex -0.0555555522441864 0.10183460265398026 -0.014965910464525223
			vertex -0.04360846430063248 0.080230213701725 -0.036741625517606735
			vertex -0.035071663558483124 0.09535909444093704 -0.024018477648496628
		endloop
	endfacet
	facet normal 0 1 0
		outer loop
			vertex -0.04454706236720085 0.10202724486589432 -0.036741625517606735
			vertex -0.043653640896081924 0.10202724486589432 -0.03550448641180992
			vertex -0.042909782379865646 0.10202724486589432 -0.036741625517606735
		endloop
	endfacet
	facet normal 0 1 0
		outer loop
			vertex 0.0555555522441864 0.10202724486589432 -0.036741625517606735
			vertex -0.042909782379865646 0.10202724486589432 -0.036741625517606735
			vertex -0.043653640896081924 0.10202724486589432 -0.03550448641180992
		endloop
	endfacet
	facet normal 0 1 0
		outer loop
			vertex 0.0555555522441864 0.10202724486589432 -0.036741625517606735
			vertex -0.043653640896081924 0.10202724486589432 -0.03550448641180992
			vertex -0.030419277027249336 0.10202724486589432 -0.017178628593683243
		endloop
	endfacet
	facet normal 0 1 0
		outer loop
			vertex 0.0555555522441864 0.10202724486589432 -0.036741625517606735
			vertex -0.030419277027249336 0.10202724486589432 -0.017178628593683243
			vertex 0.0555555522441864 0.10202724486589432 -0.025466937571763992
		endloop
	endfacet
	facet normal 0.1090204927780042 -0.675113097456915 0.7296141705014859
		outer loop
			vertex -0.00942133367061615 0.08575091511011124 -0.036741625517606735
			vertex -0.04046338051557541 0.08580390363931656 -0.03205422684550285
			vertex -0.04360846430063248 0.080230213701725 -0.036741625517606735
		endloop
	endfacet
	facet normal -0.061552299202276416 -0.4063892095846959 0.9116244428469652
		outer loop
			vertex 0.0555555522441864 0.0782388225197792 -0.036741625517606735
			vertex 0.0555555522441864 0.09613517671823502 -0.02876368537545204
			vertex 0.0003316654765512794 0.08660311251878738 -0.036741625517606735
		endloop
	endfacet
	facet normal 0.026165250893655175 0.9621066517774791 0.27141512531765943
		outer loop
			vertex -0.024553699418902397 0.10180223733186722 -0.01694655790925026
			vertex 0.0555555522441864 0.10123208910226822 -0.022648286074399948
			vertex 0.0555555522441864 0.10202724486589432 -0.025466937571763992
		endloop
	endfacet
	facet normal 0.026167702750150772 0.9621001301479871 0.27143800563297393
		outer loop
			vertex -0.024553699418902397 0.10180223733186722 -0.01694655790925026
			vertex 0.0555555522441864 0.10202724486589432 -0.025466937571763992
			vertex -0.004767394624650478 0.10202724486589432 -0.019651565700769424
		endloop
	endfacet
	facet normal 0.040067139480923844 -0.7675552094224237 0.63972933715933
		outer loop
			vertex -0.005351221654564142 0.08630646020174026 -0.036741625517606735
			vertex 0.0003316654765512794 0.08660311251878738 -0.036741625517606735
			vertex 0.0555555522441864 0.09613517671823502 -0.02876368537545204
		endloop
	endfacet
	facet normal 0.04006812899710617 -0.7675582904197734 0.6397255785464157
		outer loop
			vertex -0.005351221654564142 0.08630646020174026 -0.036741625517606735
			vertex 0.0555555522441864 0.09613517671823502 -0.02876368537545204
			vertex 0.0555555522441864 0.10123208910226822 -0.022648286074399948
		endloop
	endfacet
	facet normal 0.04006909807047533 -0.7675601175698966 0.6397233255837287
		outer loop
			vertex -0.005351221654564142 0.08630646020174026 -0.036741625517606735
			vertex 0.0555555522441864 0.10123208910226822 -0.022648286074399948
			vertex -0.024553699418902397 0.10180223733186722 -0.01694655790925026
		endloop
	endfacet
	facet normal 1 0 0
		outer loop
			vertex 0.0555555522441864 0.09613517671823502 -0.02876368537545204
			vertex 0.0555555522441864 0.10202724486589432 -0.0261370949447155
			vertex 0.0555555522441864 0.10202724486589432 -0.025466937571763992
		endloop
	endfacet
	facet normal 1 0 0
		outer loop
			vertex 0.0555555522441864 0.09613517671823502 -0.02876368537545204
			vertex 0.0555555522441864 0.10202724486589432 -0.025466937571763992
			vertex 0.0555555522441864 0.10123208910226822 -0.022648286074399948
		endloop
	endfacet
	facet normal 1 0 0
		outer loop
			vertex 0.0555555522441864 0.08899775892496109 -0.03194544091820717
			vertex 0.0555555522441864 0.09653360396623611 -0.03465041145682335
			vertex 0.0555555522441864 0.10202724486589432 -0.028647873550653458
		endloop
	endfacet
	facet normal 1 0 0
		outer loop
			vertex 0.0555555522441864 0.08899775892496109 -0.03194544091820717
			vertex 0.0555555522441864 0.10202724486589432 -0.028647873550653458
			vertex 0.0555555522441864 0.10202724486589432 -0.0261370949447155
		endloop
	endfacet
	facet normal 1 0 0
		outer loop
			vertex 0.0555555522441864 0.0782388225197792 -0.036741625517606735
			vertex 0.0555555522441864 0.09461969882249832 -0.036741625517606735
			vertex 0.0555555522441864 0.09653360396623611 -0.03465041145682335
		endloop
	endfacet
	facet normal 1 0 0
		outer loop
			vertex 0.0555555522441864 0.0782388225197792 -0.036741625517606735
			vertex 0.0555555522441864 0.09653360396623611 -0.03465041145682335
			vertex 0.0555555522441864 0.08899775892496109 -0.03194544091820717
		endloop
	endfacet
	facet normal 1 0 0
		outer loop
			vertex 0.0555555522441864 0.09653360396623611 -0.03465041145682335
			vertex 0.0555555522441864 0.10202724486589432 -0.03662232682108879
			vertex 0.0555555522441864 0.10202724486589432 -0.028647873550653458
		endloop
	endfacet
	facet normal 1 0 0
		outer loop
			vertex 0.0555555522441864 0.09461969882249832 -0.036741625517606735
			vertex 0.0555555522441864 0.10202724486589432 -0.036741625517606735
			vertex 0.0555555522441864 0.10202724486589432 -0.03662232682108879
		endloop
	endfacet
	facet normal 1 0 0
		outer loop
			vertex 0.0555555522441864 0.09461969882249832 -0.036741625517606735
			vertex 0.0555555522441864 0.10202724486589432 -0.03662232682108879
			vertex 0.0555555522441864 0.09653360396623611 -0.03465041145682335
		endloop
	endfacet
	facet normal 0.02617224681556217 0.9620908462413251 0.271470471829399
		outer loop
			vertex -0.029965486377477646 0.10184077173471451 -0.01656137779355049
			vertex -0.024553699418902397 0.10180223733186722 -0.01694655790925026
			vertex -0.004767394624650478 0.10202724486589432 -0.019651565700769424
		endloop
	endfacet
	facet normal 0.026165728167468223 0.9621057664337022 0.271418217635598
		outer loop
			vertex -0.029965486377477646 0.10184077173471451 -0.01656137779355049
			vertex -0.004767394624650478 0.10202724486589432 -0.019651565700769424
			vertex -0.030419277027249336 0.10202724486589432 -0.017178628593683243
		endloop
	endfacet
	facet normal 0.04008047584522667 -0.7675451057391716 0.6397406240906263
		outer loop
			vertex -0.035071663558483124 0.09535909444093704 -0.024018477648496628
			vertex -0.00628206180408597 0.08625785261392593 -0.036741625517606735
			vertex -0.005351221654564142 0.08630646020174026 -0.036741625517606735
		endloop
	endfacet
	facet normal 0.040068098917259404 -0.7675606379984018 0.6397227637380455
		outer loop
			vertex -0.035071663558483124 0.09535909444093704 -0.024018477648496628
			vertex -0.005351221654564142 0.08630646020174026 -0.036741625517606735
			vertex -0.024553699418902397 0.10180223733186722 -0.01694655790925026
		endloop
	endfacet
	facet normal 0.04006653706516558 -0.7675595839089913 0.6397241262896548
		outer loop
			vertex -0.035071663558483124 0.09535909444093704 -0.024018477648496628
			vertex -0.024553699418902397 0.10180223733186722 -0.01694655790925026
			vertex -0.029965486377477646 0.10184077173471451 -0.01656137779355049
		endloop
	endfacet
	facet normal 0.10901903288445149 -0.675113559906563 0.7296139607348715
		outer loop
			vertex -0.00942133367061615 0.08575091511011124 -0.036741625517606735
			vertex -0.00628206180408597 0.08625785261392593 -0.036741625517606735
			vertex -0.035071663558483124 0.09535909444093704 -0.024018477648496628
		endloop
	endfacet
	facet normal 0.10902073156221384 -0.675111370990204 0.7296157323203544
		outer loop
			vertex -0.00942133367061615 0.08575091511011124 -0.036741625517606735
			vertex -0.035071663558483124 0.09535909444093704 -0.024018477648496628
			vertex -0.04046338051557541 0.08580390363931656 -0.03205422684550285
		endloop
	endfacet
	facet normal -1 0 0
		outer loop
			vertex -0.0555555522441864 -0.07305774837732315 0.036741625517606735
			vertex -0.0555555522441864 -0.06728386133909225 0.036741625517606735
			vertex -0.0555555522441864 -0.0691581591963768 0.027072932571172714
		endloop
	endfacet
	facet normal -1 0 0
		outer loop
			vertex -0.0555555522441864 -0.10044991970062256 0.036741625517606735
			vertex -0.0555555522441864 -0.07305774837732315 0.036741625517606735
			vertex -0.0555555522441864 -0.0691581591963768 0.027072932571172714
		endloop
	endfacet
	facet normal -1 0 0
		outer loop
			vertex -0.0555555522441864 -0.10044991970062256 0.036741625517606735
			vertex -0.0555555522441864 -0.0691581591963768 0.027072932571172714
			vertex -0.0555555522441864 -0.07826685160398483 -0.01991482451558113
		endloop
	endfacet
	facet normal -1 0 0
		outer loop
			vertex -0.0555555522441864 -0.07809673994779587 -0.036741625517606735
			vertex -0.0555555522441864 -0.08152876794338226 -0.036741625517606735
			vertex -0.0555555522441864 -0.08047377318143845 -0.03129935637116432
		endloop
	endfacet
	facet normal -1 0 0
		outer loop
			vertex -0.0555555522441864 -0.08152876794338226 -0.036741625517606735
			vertex -0.0555555522441864 -0.1023595854640007 -0.036741625517606735
			vertex -0.0555555522441864 -0.07997091114521027 -0.028705287724733353
		endloop
	endfacet
	facet normal -1 0 0
		outer loop
			vertex -0.0555555522441864 -0.1023595854640007 -0.036741625517606735
			vertex -0.0555555522441864 -0.1023595854640007 0.036741625517606735
			vertex -0.0555555522441864 -0.10044991970062256 0.036741625517606735
		endloop
	endfacet
	facet normal -1 0 0
		outer loop
			vertex -0.0555555522441864 -0.1023595854640007 -0.036741625517606735
			vertex -0.0555555522441864 -0.10044991970062256 0.036741625517606735
			vertex -0.0555555522441864 -0.07826685160398483 -0.01991482451558113
		endloop
	endfacet
	facet normal -1 0 0
		outer loop
			vertex -0.0555555522441864 -0.1023595854640007 -0.036741625517606735
			vertex -0.0555555522441864 -0.07826685160398483 -0.01991482451558113
			vertex -0.0555555522441864 -0.07997091114521027 -0.028705287724733353
		endloop
	endfacet
	facet normal -1 0 0
		outer loop
			vertex -0.0555555522441864 0.08368561416864395 -0.036741625517606735
			vertex -0.0555555522441864 0.07830096036195755 -0.036741625517606735
			vertex -0.0555555522441864 0.10183460265398026 -0.014965910464525223
		endloop
	endfacet
	facet normal -1 0 0
		outer loop
			vertex -0.0555555522441864 0.08445663005113602 -0.036741625517606735
			vertex -0.0555555522441864 0.08368561416864395 -0.036741625517606735
			vertex -0.0555555522441864 0.09154952317476273 -0.027306299656629562
		endloop
	endfacet
	facet normal -1 0 0
		outer loop
			vertex -0.0555555522441864 0.10202724486589432 -0.036741625517606735
			vertex -0.0555555522441864 0.08445663005113602 -0.036741625517606735
			vertex -0.0555555522441864 0.09154952317476273 -0.027306299656629562
		endloop
	endfacet
	facet normal -1 0 0
		outer loop
			vertex -0.0555555522441864 0.10202724486589432 -0.036741625517606735
			vertex -0.0555555522441864 0.09154952317476273 -0.027306299656629562
			vertex -0.0555555522441864 0.10202289372682571 -0.014740008860826492
		endloop
	endfacet
	facet normal -1 0 0
		outer loop
			vertex -0.0555555522441864 0.10202724486589432 -0.036741625517606735
			vertex -0.0555555522441864 0.10202289372682571 -0.014740008860826492
			vertex -0.0555555522441864 0.10202724486589432 -0.014755386859178543
		endloop
	endfacet
	facet normal 0 -1 0
		outer loop
			vertex -0.0555555522441864 -0.1023595854640007 0.036741625517606735
			vertex -0.0555555522441864 -0.1023595854640007 -0.036741625517606735
			vertex -0.017634835094213486 -0.1023595854640007 -0.011662784963846207
		endloop
	endfacet
	facet normal 0 -1 0
		outer loop
			vertex -0.0555555522441864 -0.1023595854640007 0.036741625517606735
			vertex -0.017634835094213486 -0.1023595854640007 -0.011662784963846207
			vertex 0.002261865185573697 -0.1023595854640007 0.01588853821158409
		endloop
	endfacet
	facet normal 0 -1 0
		outer loop
			vertex -0.0555555522441864 -0.1023595854640007 0.036741625517606735
			vertex 0.002261865185573697 -0.1023595854640007 0.01588853821158409
			vertex -0.0012440970167517662 -0.1023595854640007 0.036741625517606735
		endloop
	endfacet
	facet normal 0 -1 0
		outer loop
			vertex -0.0555555522441864 -0.1023595854640007 -0.036741625517606735
			vertex -0.03574598953127861 -0.1023595854640007 -0.036741625517606735
			vertex -0.017634835094213486 -0.1023595854640007 -0.011662784963846207
		endloop
	endfacet
	facet normal 0 -1 0
		outer loop
			vertex 0.002261865185573697 -0.1023595854640007 0.01588853821158409
			vertex 0.01732131466269493 -0.1023595854640007 0.036741625517606735
			vertex -0.0012440970167517662 -0.1023595854640007 0.036741625517606735
		endloop
	endfacet
	facet normal 0 -1 0
		outer loop
			vertex -0.006207931321114302 -0.1023595854640007 -0.0020435189362615347
			vertex 0.02223450504243374 -0.1023595854640007 0.036741625517606735
			vertex 0.01732131466269493 -0.1023595854640007 0.036741625517606735
		endloop
	endfacet
	facet normal 0 -1 0
		outer loop
			vertex -0.006207931321114302 -0.1023595854640007 -0.0020435189362615347
			vertex 0.01732131466269493 -0.1023595854640007 0.036741625517606735
			vertex -0.008795198053121567 -0.1023595854640007 0.0005776251782663167
		endloop
	endfacet
	facet normal 0 -1 0
		outer loop
			vertex -0.017634835094213486 -0.1023595854640007 -0.011662784963846207
			vertex -0.009144175797700882 -0.1023595854640007 -0.006047490518540144
			vertex -0.006207931321114302 -0.1023595854640007 -0.0020435189362615347
		endloop
	endfacet
	facet normal 0 -1 0
		outer loop
			vertex -0.017634835094213486 -0.1023595854640007 -0.011662784963846207
			vertex -0.006207931321114302 -0.1023595854640007 -0.0020435189362615347
			vertex -0.008795198053121567 -0.1023595854640007 0.0005776251782663167
		endloop
	endfacet
	facet normal 0 -1 0
		outer loop
			vertex -0.03574598953127861 -0.1023595854640007 -0.036741625517606735
			vertex -0.03165319934487343 -0.1023595854640007 -0.036741625517606735
			vertex -0.009144175797700882 -0.1023595854640007 -0.006047490518540144
		endloop
	endfacet
	facet normal 0 -1 0
		outer loop
			vertex -0.03574598953127861 -0.1023595854640007 -0.036741625517606735
			vertex -0.009144175797700882 -0.1023595854640007 -0.006047490518540144
			vertex -0.017634835094213486 -0.1023595854640007 -0.011662784963846207
		endloop
	endfacet
	facet normal 0 -1 0
		outer loop
			vertex 0.04688795283436775 -0.1023595854640007 0.031009312719106674
			vertex 0.0555555522441864 -0.1023595854640007 0.036741625517606735
			vertex 0.0436389185488224 -0.1023595854640007 0.036741625517606735
		endloop
	endfacet
	facet normal 0 -1 0
		outer loop
			vertex 0.0555555522441864 -0.1023595854640007 0.01571693643927574
			vertex 0.0555555522441864 -0.1023595854640007 0.036741625517606735
			vertex 0.04688795283436775 -0.1023595854640007 0.031009312719106674
		endloop
	endfacet
	facet normal 0 -1 0
		outer loop
			vertex 0.01660301722586155 -0.1023595854640007 0.01098039373755455
			vertex 0.04688795283436775 -0.1023595854640007 0.031009312719106674
			vertex 0.0436389185488224 -0.1023595854640007 0.036741625517606735
		endloop
	endfacet
	facet normal 0 -1 0
		outer loop
			vertex 0.01660301722586155 -0.1023595854640007 0.01098039373755455
			vertex 0.0436389185488224 -0.1023595854640007 0.036741625517606735
			vertex 0.02223450504243374 -0.1023595854640007 0.036741625517606735
		endloop
	endfacet
	facet normal 0 -1 0
		outer loop
			vertex 0.01660301722586155 -0.1023595854640007 0.01098039373755455
			vertex 0.02223450504243374 -0.1023595854640007 0.036741625517606735
			vertex 0.00834408588707447 -0.1023595854640007 0.01780014857649803
		endloop
	endfacet
	facet normal 0 -1 0
		outer loop
			vertex 0.0555555522441864 -0.1023595854640007 -0.021184343844652176
			vertex 0.0555555522441864 -0.1023595854640007 0.01571693643927574
			vertex 0.04688795283436775 -0.1023595854640007 0.031009312719106674
		endloop
	endfacet
	facet normal 0 -1 0
		outer loop
			vertex 0.0555555522441864 -0.1023595854640007 -0.021184343844652176
			vertex 0.04688795283436775 -0.1023595854640007 0.031009312719106674
			vertex 0.01660301722586155 -0.1023595854640007 0.01098039373755455
		endloop
	endfacet
	facet normal 0 -1 0
		outer loop
			vertex 0.014719369821250439 -0.1023595854640007 0.009734641760587692
			vertex 0.01660301722586155 -0.1023595854640007 0.01098039373755455
			vertex 0.00834408588707447 -0.1023595854640007 0.01780014857649803
		endloop
	endfacet
	facet normal 0 -1 0
		outer loop
			vertex 0.014719369821250439 -0.1023595854640007 0.009734641760587692
			vertex 0.00834408588707447 -0.1023595854640007 0.01780014857649803
			vertex 0.006902684923261404 -0.1023595854640007 0.015834596008062363
		endloop
	endfacet
	facet normal 0 -1 0
		outer loop
			vertex 0.0555555522441864 -0.1023595854640007 -0.022132907062768936
			vertex 0.0555555522441864 -0.1023595854640007 -0.021184343844652176
			vertex 0.01660301722586155 -0.1023595854640007 0.01098039373755455
		endloop
	endfacet
	facet normal 0 -1 0
		outer loop
			vertex 0.0555555522441864 -0.1023595854640007 -0.022132907062768936
			vertex 0.01660301722586155 -0.1023595854640007 0.01098039373755455
			vertex 0.014719369821250439 -0.1023595854640007 0.009734641760587692
		endloop
	endfacet
	facet normal 0 -1 0
		outer loop
			vertex 0.018972743302583694 -0.1023595854640007 -0.036741625517606735
			vertex 0.0555555522441864 -0.1023595854640007 -0.036741625517606735
			vertex 0.0555555522441864 -0.1023595854640007 -0.022132907062768936
		endloop
	endfacet
	facet normal 0 -1 0
		outer loop
			vertex 0.018972743302583694 -0.1023595854640007 -0.036741625517606735
			vertex 0.0555555522441864 -0.1023595854640007 -0.022132907062768936
			vertex 0.03856123238801956 -0.1023595854640007 -0.008870963007211685
		endloop
	endfacet
	facet normal 0 -1 0
		outer loop
			vertex 0.018972743302583694 -0.1023595854640007 -0.036741625517606735
			vertex 0.03856123238801956 -0.1023595854640007 -0.008870963007211685
			vertex 0.004230868071317673 -0.1023595854640007 -0.02756929025053978
		endloop
	endfacet
	facet normal 0 -1 0
		outer loop
			vertex -0.009144175797700882 -0.1023595854640007 -0.006047490518540144
			vertex 0.014719369821250439 -0.1023595854640007 0.009734641760587692
			vertex 0.006902684923261404 -0.1023595854640007 0.015834596008062363
		endloop
	endfacet
	facet normal 0 -1 0
		outer loop
			vertex 0.03856123238801956 -0.1023595854640007 -0.008870963007211685
			vertex 0.014719369821250439 -0.1023595854640007 0.009734641760587692
			vertex -0.009144175797700882 -0.1023595854640007 -0.006047490518540144
		endloop
	endfacet
	facet normal 0 -1 0
		outer loop
			vertex 0.03856123238801956 -0.1023595854640007 -0.008870963007211685
			vertex -0.009144175797700882 -0.1023595854640007 -0.006047490518540144
			vertex -0.015791213139891624 -0.1023595854640007 -0.015111628919839859
		endloop
	endfacet
	facet normal 0 -1 0
		outer loop
			vertex 0.03856123238801956 -0.1023595854640007 -0.008870963007211685
			vertex -0.015791213139891624 -0.1023595854640007 -0.015111628919839859
			vertex 0.004230868071317673 -0.1023595854640007 -0.02756929025053978
		endloop
	endfacet
	facet normal 0 -1 0
		outer loop
			vertex -0.012609641067683697 -0.1023595854640007 -0.036741625517606735
			vertex 0.018972743302583694 -0.1023595854640007 -0.036741625517606735
			vertex 0.004230868071317673 -0.1023595854640007 -0.02756929025053978
		endloop
	endfacet
	facet normal 0 -1 0
		outer loop
			vertex -0.03165319934487343 -0.1023595854640007 -0.036741625517606735
			vertex -0.012609641067683697 -0.1023595854640007 -0.036741625517606735
			vertex 0.004230868071317673 -0.1023595854640007 -0.02756929025053978
		endloop
	endfacet
	facet normal 0 -1 0
		outer loop
			vertex -0.03165319934487343 -0.1023595854640007 -0.036741625517606735
			vertex 0.004230868071317673 -0.1023595854640007 -0.02756929025053978
			vertex -0.015791213139891624 -0.1023595854640007 -0.015111628919839859
		endloop
	endfacet
	facet normal 0 0 1
		outer loop
			vertex -0.0555555522441864 -0.06728386133909225 0.036741625517606735
			vertex -0.0555555522441864 -0.07305774837732315 0.036741625517606735
			vertex -0.04039992764592171 -0.0744357630610466 0.036741625517606735
		endloop
	endfacet
	facet normal 0 0 1
		outer loop
			vertex -0.0555555522441864 -0.06728386133909225 0.036741625517606735
			vertex -0.04039992764592171 -0.0744357630610466 0.036741625517606735
			vertex -0.033511772751808167 -0.06174451857805252 0.036741625517606735
		endloop
	endfacet
	facet normal 0 0 1
		outer loop
			vertex -0.0555555522441864 -0.06728386133909225 0.036741625517606735
			vertex -0.033511772751808167 -0.06174451857805252 0.036741625517606735
			vertex -0.042912356555461884 -0.06290709227323532 0.036741625517606735
		endloop
	endfacet
	facet normal 0 0 1
		outer loop
			vertex -0.033511772751808167 -0.06174451857805252 0.036741625517606735
			vertex -0.04039992764592171 -0.0744357630610466 0.036741625517606735
			vertex 0.01634104736149311 -0.07959487289190292 0.036741625517606735
		endloop
	endfacet
	facet normal 0 0 1
		outer loop
			vertex -0.033511772751808167 -0.06174451857805252 0.036741625517606735
			vertex 0.01634104736149311 -0.07959487289190292 0.036741625517606735
			vertex 0.015503617003560066 -0.060147278010845184 0.036741625517606735
		endloop
	endfacet
	facet normal 0 0 1
		outer loop
			vertex -0.033511772751808167 -0.06174451857805252 0.036741625517606735
			vertex 0.015503617003560066 -0.060147278010845184 0.036741625517606735
			vertex -0.0007658866816200316 -0.05769483000040054 0.036741625517606735
		endloop
	endfacet
	facet normal 0 0 1
		outer loop
			vertex -0.0555555522441864 -0.07305774837732315 0.036741625517606735
			vertex -0.0555555522441864 -0.10044991970062256 0.036741625517606735
			vertex -0.054459188133478165 -0.10033956170082092 0.036741625517606735
		endloop
	endfacet
	facet normal 0 0 1
		outer loop
			vertex -0.0555555522441864 -0.07305774837732315 0.036741625517606735
			vertex -0.054459188133478165 -0.10033956170082092 0.036741625517606735
			vertex -0.04039992764592171 -0.0744357630610466 0.036741625517606735
		endloop
	endfacet
	facet normal 0 0 1
		outer loop
			vertex -0.04039992764592171 -0.0744357630610466 0.036741625517606735
			vertex -0.054459188133478165 -0.10033956170082092 0.036741625517606735
			vertex 0.016924917697906494 -0.09315408021211624 0.036741625517606735
		endloop
	endfacet
	facet normal 0 0 1
		outer loop
			vertex -0.04039992764592171 -0.0744357630610466 0.036741625517606735
			vertex 0.016924917697906494 -0.09315408021211624 0.036741625517606735
			vertex 0.01634104736149311 -0.07959487289190292 0.036741625517606735
		endloop
	endfacet
	facet normal 0 0 1
		outer loop
			vertex 0.03357749059796333 -0.06243244558572769 0.036741625517606735
			vertex 0.022550135850906372 -0.06120947748422623 0.036741625517606735
			vertex 0.03477693721652031 -0.06305251270532608 0.036741625517606735
		endloop
	endfacet
	facet normal 0 0 1
		outer loop
			vertex 0.0555555522441864 -0.08926554769277573 0.036741625517606735
			vertex 0.0555555522441864 -0.0737944021821022 0.036741625517606735
			vertex 0.03477693721652031 -0.06305251270532608 0.036741625517606735
		endloop
	endfacet
	facet normal 0 0 1
		outer loop
			vertex 0.0555555522441864 -0.08926554769277573 0.036741625517606735
			vertex 0.03477693721652031 -0.06305251270532608 0.036741625517606735
			vertex 0.021045245230197906 -0.06098262220621109 0.036741625517606735
		endloop
	endfacet
	facet normal 0 0 1
		outer loop
			vertex 0.0555555522441864 -0.08926554769277573 0.036741625517606735
			vertex 0.021045245230197906 -0.06098262220621109 0.036741625517606735
			vertex 0.028863634914159775 -0.09195234626531601 0.036741625517606735
		endloop
	endfacet
	facet normal 0 0 1
		outer loop
			vertex 0.015503617003560066 -0.060147278010845184 0.036741625517606735
			vertex 0.01562417671084404 -0.06294705718755722 0.036741625517606735
			vertex 0.021918607875704765 -0.06444212049245834 0.036741625517606735
		endloop
	endfacet
	facet normal 0 0 1
		outer loop
			vertex 0.015503617003560066 -0.060147278010845184 0.036741625517606735
			vertex 0.021918607875704765 -0.06444212049245834 0.036741625517606735
			vertex 0.021045245230197906 -0.06098262220621109 0.036741625517606735
		endloop
	endfacet
	facet normal 0 0 1
		outer loop
			vertex 0.01562417671084404 -0.06294705718755722 0.036741625517606735
			vertex 0.016518868505954742 -0.08372440934181213 0.036741625517606735
			vertex 0.02854044735431671 -0.09198486804962158 0.036741625517606735
		endloop
	endfacet
	facet normal 0 0 1
		outer loop
			vertex 0.01562417671084404 -0.06294705718755722 0.036741625517606735
			vertex 0.02854044735431671 -0.09198486804962158 0.036741625517606735
			vertex 0.028863634914159775 -0.09195234626531601 0.036741625517606735
		endloop
	endfacet
	facet normal 0 0 1
		outer loop
			vertex 0.01562417671084404 -0.06294705718755722 0.036741625517606735
			vertex 0.028863634914159775 -0.09195234626531601 0.036741625517606735
			vertex 0.021918607875704765 -0.06444212049245834 0.036741625517606735
		endloop
	endfacet
	facet normal 0 0 1
		outer loop
			vertex 0.016518868505954742 -0.08372440934181213 0.036741625517606735
			vertex 0.016924917697906494 -0.09315408021211624 0.036741625517606735
			vertex 0.02854044735431671 -0.09198486804962158 0.036741625517606735
		endloop
	endfacet
	facet normal 0 0 1
		outer loop
			vertex -0.0555555522441864 -0.10044991970062256 0.036741625517606735
			vertex -0.0555555522441864 -0.1023595854640007 0.036741625517606735
			vertex -0.054459188133478165 -0.10033956170082092 0.036741625517606735
		endloop
	endfacet
	facet normal 0 0 1
		outer loop
			vertex -0.0555555522441864 -0.1023595854640007 0.036741625517606735
			vertex -0.0012440970167517662 -0.1023595854640007 0.036741625517606735
			vertex 0.003194232936948538 -0.0945362001657486 0.036741625517606735
		endloop
	endfacet
	facet normal 0 0 1
		outer loop
			vertex -0.0555555522441864 -0.1023595854640007 0.036741625517606735
			vertex 0.003194232936948538 -0.0945362001657486 0.036741625517606735
			vertex -0.054459188133478165 -0.10033956170082092 0.036741625517606735
		endloop
	endfacet
	facet normal 0 0 1
		outer loop
			vertex -0.0012440970167517662 -0.1023595854640007 0.036741625517606735
			vertex 0.01732131466269493 -0.1023595854640007 0.036741625517606735
			vertex 0.016924917697906494 -0.09315408021211624 0.036741625517606735
		endloop
	endfacet
	facet normal 0 0 1
		outer loop
			vertex -0.0012440970167517662 -0.1023595854640007 0.036741625517606735
			vertex 0.016924917697906494 -0.09315408021211624 0.036741625517606735
			vertex 0.003194232936948538 -0.0945362001657486 0.036741625517606735
		endloop
	endfacet
	facet normal 0 0 1
		outer loop
			vertex 0.021571867167949677 -0.09573318064212799 0.036741625517606735
			vertex 0.02127021923661232 -0.09271668642759323 0.036741625517606735
			vertex 0.019029609858989716 -0.09294223040342331 0.036741625517606735
		endloop
	endfacet
	facet normal 0 0 1
		outer loop
			vertex 0.01732131466269493 -0.1023595854640007 0.036741625517606735
			vertex 0.02223450504243374 -0.1023595854640007 0.036741625517606735
			vertex 0.021571867167949677 -0.09573318064212799 0.036741625517606735
		endloop
	endfacet
	facet normal 0 0 1
		outer loop
			vertex 0.01732131466269493 -0.1023595854640007 0.036741625517606735
			vertex 0.021571867167949677 -0.09573318064212799 0.036741625517606735
			vertex 0.019029609858989716 -0.09294223040342331 0.036741625517606735
		endloop
	endfacet
	facet normal 0 0 1
		outer loop
			vertex 0.01732131466269493 -0.1023595854640007 0.036741625517606735
			vertex 0.019029609858989716 -0.09294223040342331 0.036741625517606735
			vertex 0.016924917697906494 -0.09315408021211624 0.036741625517606735
		endloop
	endfacet
	facet normal 0 0 1
		outer loop
			vertex 0.0436389185488224 -0.1023595854640007 0.036741625517606735
			vertex 0.0555555522441864 -0.1023595854640007 0.036741625517606735
			vertex 0.0555555522441864 -0.08926554769277573 0.036741625517606735
		endloop
	endfacet
	facet normal 0 0 1
		outer loop
			vertex 0.0436389185488224 -0.1023595854640007 0.036741625517606735
			vertex 0.0555555522441864 -0.08926554769277573 0.036741625517606735
			vertex 0.02854044735431671 -0.09198486804962158 0.036741625517606735
		endloop
	endfacet
	facet normal 0 0 1
		outer loop
			vertex 0.02223450504243374 -0.1023595854640007 0.036741625517606735
			vertex 0.0436389185488224 -0.1023595854640007 0.036741625517606735
			vertex 0.02854044735431671 -0.09198486804962158 0.036741625517606735
		endloop
	endfacet
	facet normal 0 0 1
		outer loop
			vertex 0.02223450504243374 -0.1023595854640007 0.036741625517606735
			vertex 0.02854044735431671 -0.09198486804962158 0.036741625517606735
			vertex 0.02127021923661232 -0.09271668642759323 0.036741625517606735
		endloop
	endfacet
	facet normal 0 0 -1
		outer loop
			vertex -0.03731297701597214 -0.06596948951482773 -0.036741625517606735
			vertex -0.03714693337678909 -0.06982553750276566 -0.036741625517606735
			vertex -0.04417814686894417 -0.07053329795598984 -0.036741625517606735
		endloop
	endfacet
	facet normal 0 0 -1
		outer loop
			vertex 0.016418255865573883 -0.03025018237531185 -0.036741625517606735
			vertex 0.014066541567444801 -0.025917207822203636 -0.036741625517606735
			vertex 0.02060132846236229 -0.027469372376799583 -0.036741625517606735
		endloop
	endfacet
	facet normal 0 0 -1
		outer loop
			vertex 0.014066541567444801 -0.025917207822203636 -0.036741625517606735
			vertex 0.016418255865573883 -0.03025018237531185 -0.036741625517606735
			vertex -0.006640640087425709 -0.0455792173743248 -0.036741625517606735
		endloop
	endfacet
	facet normal 0 0 -1
		outer loop
			vertex 0.014066541567444801 -0.025917207822203636 -0.036741625517606735
			vertex -0.006640640087425709 -0.0455792173743248 -0.036741625517606735
			vertex -0.02491268329322338 -0.03387577086687088 -0.036741625517606735
		endloop
	endfacet
	facet normal 0 0 -1
		outer loop
			vertex 0.014066541567444801 -0.025917207822203636 -0.036741625517606735
			vertex -0.02491268329322338 -0.03387577086687088 -0.036741625517606735
			vertex -0.018606334924697876 -0.027243604883551598 -0.036741625517606735
		endloop
	endfacet
	facet normal 0 0 -1
		outer loop
			vertex 0.014066541567444801 -0.025917207822203636 -0.036741625517606735
			vertex -0.018606334924697876 -0.027243604883551598 -0.036741625517606735
			vertex 0.0038392674177885056 -0.023488005623221397 -0.036741625517606735
		endloop
	endfacet
	facet normal 0 0 -1
		outer loop
			vertex 0.03868432343006134 -0.04890520125627518 -0.036741625517606735
			vertex 0.028463585302233696 -0.05244336277246475 -0.036741625517606735
			vertex 0.016418255865573883 -0.03025018237531185 -0.036741625517606735
		endloop
	endfacet
	facet normal 0 0 -1
		outer loop
			vertex 0.03868432343006134 -0.04890520125627518 -0.036741625517606735
			vertex 0.016418255865573883 -0.03025018237531185 -0.036741625517606735
			vertex 0.02060132846236229 -0.027469372376799583 -0.036741625517606735
		endloop
	endfacet
	facet normal 0 0 -1
		outer loop
			vertex 0.03868432343006134 -0.04890520125627518 -0.036741625517606735
			vertex 0.02060132846236229 -0.027469372376799583 -0.036741625517606735
			vertex 0.025073161348700523 -0.028531542047858238 -0.036741625517606735
		endloop
	endfacet
	facet normal 0 0 -1
		outer loop
			vertex 0.016418255865573883 -0.03025018237531185 -0.036741625517606735
			vertex 0.028463585302233696 -0.05244336277246475 -0.036741625517606735
			vertex 0.012632331810891628 -0.05792377144098282 -0.036741625517606735
		endloop
	endfacet
	facet normal 0 0 -1
		outer loop
			vertex 0.016418255865573883 -0.03025018237531185 -0.036741625517606735
			vertex 0.012632331810891628 -0.05792377144098282 -0.036741625517606735
			vertex -0.006640640087425709 -0.0455792173743248 -0.036741625517606735
		endloop
	endfacet
	facet normal 0 0 -1
		outer loop
			vertex 0.044179946184158325 -0.05713125318288803 -0.036741625517606735
			vertex 0.03183643892407417 -0.05865775793790817 -0.036741625517606735
			vertex 0.028463585302233696 -0.05244336277246475 -0.036741625517606735
		endloop
	endfacet
	facet normal 0 0 -1
		outer loop
			vertex 0.044179946184158325 -0.05713125318288803 -0.036741625517606735
			vertex 0.028463585302233696 -0.05244336277246475 -0.036741625517606735
			vertex 0.03868432343006134 -0.04890520125627518 -0.036741625517606735
		endloop
	endfacet
	facet normal 0 0 -1
		outer loop
			vertex 0.028463585302233696 -0.05244336277246475 -0.036741625517606735
			vertex 0.03183643892407417 -0.05865775793790817 -0.036741625517606735
			vertex 0.016700690612196922 -0.060529597103595734 -0.036741625517606735
		endloop
	endfacet
	facet normal 0 0 -1
		outer loop
			vertex 0.028463585302233696 -0.05244336277246475 -0.036741625517606735
			vertex 0.016700690612196922 -0.060529597103595734 -0.036741625517606735
			vertex 0.012632331810891628 -0.05792377144098282 -0.036741625517606735
		endloop
	endfacet
	facet normal 0 0 -1
		outer loop
			vertex 0.04700186103582382 -0.06135518103837967 -0.036741625517606735
			vertex 0.034010227769613266 -0.06266290694475174 -0.036741625517606735
			vertex 0.03183643892407417 -0.05865775793790817 -0.036741625517606735
		endloop
	endfacet
	facet normal 0 0 -1
		outer loop
			vertex 0.04700186103582382 -0.06135518103837967 -0.036741625517606735
			vertex 0.03183643892407417 -0.05865775793790817 -0.036741625517606735
			vertex 0.044179946184158325 -0.05713125318288803 -0.036741625517606735
		endloop
	endfacet
	facet normal 0 0 -1
		outer loop
			vertex 0.03183643892407417 -0.05865775793790817 -0.036741625517606735
			vertex 0.034010227769613266 -0.06266290694475174 -0.036741625517606735
			vertex 0.021929824724793434 -0.06387891620397568 -0.036741625517606735
		endloop
	endfacet
	facet normal 0 0 -1
		outer loop
			vertex 0.03183643892407417 -0.05865775793790817 -0.036741625517606735
			vertex 0.021929824724793434 -0.06387891620397568 -0.036741625517606735
			vertex 0.016700690612196922 -0.060529597103595734 -0.036741625517606735
		endloop
	endfacet
	facet normal 0 0 -1
		outer loop
			vertex -0.02900383248925209 -0.038178302347660065 -0.036741625517606735
			vertex -0.02491268329322338 -0.03387577086687088 -0.036741625517606735
			vertex -0.006640640087425709 -0.0455792173743248 -0.036741625517606735
		endloop
	endfacet
	facet normal 0 0 -1
		outer loop
			vertex -0.02900383248925209 -0.038178302347660065 -0.036741625517606735
			vertex -0.006640640087425709 -0.0455792173743248 -0.036741625517606735
			vertex -0.03705456852912903 -0.06579770892858505 -0.036741625517606735
		endloop
	endfacet
	facet normal 0 0 -1
		outer loop
			vertex 0.021929824724793434 -0.06387891620397568 -0.036741625517606735
			vertex -0.03714693337678909 -0.06982553750276566 -0.036741625517606735
			vertex -0.03731297701597214 -0.06596948951482773 -0.036741625517606735
		endloop
	endfacet
	facet normal 0 0 -1
		outer loop
			vertex 0.021929824724793434 -0.06387891620397568 -0.036741625517606735
			vertex -0.03731297701597214 -0.06596948951482773 -0.036741625517606735
			vertex -0.006640640087425709 -0.0455792173743248 -0.036741625517606735
		endloop
	endfacet
	facet normal 0 0 -1
		outer loop
			vertex -0.0555555522441864 -0.08152876794338226 -0.036741625517606735
			vertex -0.0555555522441864 -0.07809673994779587 -0.036741625517606735
			vertex -0.04417814686894417 -0.07053329795598984 -0.036741625517606735
		endloop
	endfacet
	facet normal 0 0 -1
		outer loop
			vertex -0.0555555522441864 -0.08152876794338226 -0.036741625517606735
			vertex -0.04417814686894417 -0.07053329795598984 -0.036741625517606735
			vertex -0.03714693337678909 -0.06982553750276566 -0.036741625517606735
		endloop
	endfacet
	facet normal 0 0 -1
		outer loop
			vertex -0.0555555522441864 -0.08152876794338226 -0.036741625517606735
			vertex -0.03714693337678909 -0.06982553750276566 -0.036741625517606735
			vertex -0.037003979086875916 -0.0731453225016594 -0.036741625517606735
		endloop
	endfacet
	facet normal 0 0 -1
		outer loop
			vertex -0.0555555522441864 -0.08152876794338226 -0.036741625517606735
			vertex -0.037003979086875916 -0.0731453225016594 -0.036741625517606735
			vertex -0.03801228106021881 -0.07545571774244308 -0.036741625517606735
		endloop
	endfacet
	facet normal 0 0 -1
		outer loop
			vertex -0.037003979086875916 -0.0731453225016594 -0.036741625517606735
			vertex -0.03692076355218887 -0.0750778540968895 -0.036741625517606735
			vertex -0.03801228106021881 -0.07545571774244308 -0.036741625517606735
		endloop
	endfacet
	facet normal 0 0 -1
		outer loop
			vertex -0.03574598953127861 -0.1023595854640007 -0.036741625517606735
			vertex -0.0555555522441864 -0.1023595854640007 -0.036741625517606735
			vertex -0.0555555522441864 -0.08152876794338226 -0.036741625517606735
		endloop
	endfacet
	facet normal 0 0 -1
		outer loop
			vertex -0.03574598953127861 -0.1023595854640007 -0.036741625517606735
			vertex -0.0555555522441864 -0.08152876794338226 -0.036741625517606735
			vertex -0.03692076355218887 -0.0750778540968895 -0.036741625517606735
		endloop
	endfacet
	facet normal 0 0 -1
		outer loop
			vertex -0.037003979086875916 -0.0731453225016594 -0.036741625517606735
			vertex -0.03714693337678909 -0.06982553750276566 -0.036741625517606735
			vertex -0.0354820154607296 -0.06965795904397964 -0.036741625517606735
		endloop
	endfacet
	facet normal 0 0 -1
		outer loop
			vertex -0.03165319934487343 -0.1023595854640007 -0.036741625517606735
			vertex -0.03574598953127861 -0.1023595854640007 -0.036741625517606735
			vertex -0.037003979086875916 -0.0731453225016594 -0.036741625517606735
		endloop
	endfacet
	facet normal 0 0 -1
		outer loop
			vertex -0.03165319934487343 -0.1023595854640007 -0.036741625517606735
			vertex -0.037003979086875916 -0.0731453225016594 -0.036741625517606735
			vertex -0.0354820154607296 -0.06965795904397964 -0.036741625517606735
		endloop
	endfacet
	facet normal 0 0 -1
		outer loop
			vertex -0.03165319934487343 -0.1023595854640007 -0.036741625517606735
			vertex -0.0354820154607296 -0.06965795904397964 -0.036741625517606735
			vertex -0.034928929060697556 -0.06960228830575943 -0.036741625517606735
		endloop
	endfacet
	facet normal 0 0 -1
		outer loop
			vertex 0.0555555522441864 -0.07415864616632462 -0.036741625517606735
			vertex 0.0555555522441864 -0.0747273787856102 -0.036741625517606735
			vertex 0.039633043110370636 -0.06209693104028702 -0.036741625517606735
		endloop
	endfacet
	facet normal 0 0 -1
		outer loop
			vertex 0.0555555522441864 -0.07415864616632462 -0.036741625517606735
			vertex 0.039633043110370636 -0.06209693104028702 -0.036741625517606735
			vertex 0.04700186103582382 -0.06135518103837967 -0.036741625517606735
		endloop
	endfacet
	facet normal 0 0 -1
		outer loop
			vertex 0.0555555522441864 -0.0747273787856102 -0.036741625517606735
			vertex 0.0555555522441864 -0.1023595854640007 -0.036741625517606735
			vertex 0.034010227769613266 -0.06266290694475174 -0.036741625517606735
		endloop
	endfacet
	facet normal 0 0 -1
		outer loop
			vertex 0.0555555522441864 -0.0747273787856102 -0.036741625517606735
			vertex 0.034010227769613266 -0.06266290694475174 -0.036741625517606735
			vertex 0.039633043110370636 -0.06209693104028702 -0.036741625517606735
		endloop
	endfacet
	facet normal 0 0 -1
		outer loop
			vertex 0.0555555522441864 -0.1023595854640007 -0.036741625517606735
			vertex 0.018972743302583694 -0.1023595854640007 -0.036741625517606735
			vertex 0.013020885176956654 -0.06477568298578262 -0.036741625517606735
		endloop
	endfacet
	facet normal 0 0 -1
		outer loop
			vertex 0.0555555522441864 -0.1023595854640007 -0.036741625517606735
			vertex 0.013020885176956654 -0.06477568298578262 -0.036741625517606735
			vertex 0.034010227769613266 -0.06266290694475174 -0.036741625517606735
		endloop
	endfacet
	facet normal 0 0 -1
		outer loop
			vertex 0.00465924059972167 -0.06561736017465591 -0.036741625517606735
			vertex 0.013020885176956654 -0.06477568298578262 -0.036741625517606735
			vertex 0.014903736300766468 -0.0766652300953865 -0.036741625517606735
		endloop
	endfacet
	facet normal 0 0 -1
		outer loop
			vertex 0.018972743302583694 -0.1023595854640007 -0.036741625517606735
			vertex -0.012609641067683697 -0.1023595854640007 -0.036741625517606735
			vertex -0.03261170536279678 -0.09277452528476715 -0.036741625517606735
		endloop
	endfacet
	facet normal 0 0 -1
		outer loop
			vertex 0.018972743302583694 -0.1023595854640007 -0.036741625517606735
			vertex -0.03261170536279678 -0.09277452528476715 -0.036741625517606735
			vertex -0.034928929060697556 -0.06960228830575943 -0.036741625517606735
		endloop
	endfacet
	facet normal 0 0 -1
		outer loop
			vertex 0.018972743302583694 -0.1023595854640007 -0.036741625517606735
			vertex -0.034928929060697556 -0.06960228830575943 -0.036741625517606735
			vertex 0.00465924059972167 -0.06561736017465591 -0.036741625517606735
		endloop
	endfacet
	facet normal 0 0 -1
		outer loop
			vertex 0.018972743302583694 -0.1023595854640007 -0.036741625517606735
			vertex 0.00465924059972167 -0.06561736017465591 -0.036741625517606735
			vertex 0.014903736300766468 -0.0766652300953865 -0.036741625517606735
		endloop
	endfacet
	facet normal 0 0 -1
		outer loop
			vertex -0.012609641067683697 -0.1023595854640007 -0.036741625517606735
			vertex -0.03165319934487343 -0.1023595854640007 -0.036741625517606735
			vertex -0.03261170536279678 -0.09277452528476715 -0.036741625517606735
		endloop
	endfacet
	facet normal 0 0 -1
		outer loop
			vertex -0.043613944202661514 0.08035749942064285 -0.036741625517606735
			vertex -0.04569953307509422 0.08420015126466751 -0.036741625517606735
			vertex -0.04378372058272362 0.08430013805627823 -0.036741625517606735
		endloop
	endfacet
	facet normal 0 0 -1
		outer loop
			vertex -0.0555555522441864 0.07830096036195755 -0.036741625517606735
			vertex -0.0555555522441864 0.08368561416864395 -0.036741625517606735
			vertex -0.04569953307509422 0.08420015126466751 -0.036741625517606735
		endloop
	endfacet
	facet normal 0 0 -1
		outer loop
			vertex -0.0555555522441864 0.07830096036195755 -0.036741625517606735
			vertex -0.04569953307509422 0.08420015126466751 -0.036741625517606735
			vertex -0.043613944202661514 0.08035749942064285 -0.036741625517606735
		endloop
	endfacet
	facet normal 0 0 -1
		outer loop
			vertex -0.0555555522441864 0.07830096036195755 -0.036741625517606735
			vertex -0.043613944202661514 0.08035749942064285 -0.036741625517606735
			vertex -0.04360846430063248 0.080230213701725 -0.036741625517606735
		endloop
	endfacet
	facet normal 0 0 -1
		outer loop
			vertex -0.0555555522441864 0.08368561416864395 -0.036741625517606735
			vertex -0.0555555522441864 0.08445663005113602 -0.036741625517606735
			vertex -0.052345048636198044 0.08385322242975235 -0.036741625517606735
		endloop
	endfacet
	facet normal 0 0 -1
		outer loop
			vertex -0.04569953307509422 0.08420015126466751 -0.036741625517606735
			vertex -0.05537516996264458 0.10202724486589432 -0.036741625517606735
			vertex -0.04454706236720085 0.10202724486589432 -0.036741625517606735
		endloop
	endfacet
	facet normal 0 0 -1
		outer loop
			vertex -0.04569953307509422 0.08420015126466751 -0.036741625517606735
			vertex -0.04454706236720085 0.10202724486589432 -0.036741625517606735
			vertex -0.04378372058272362 0.08430013805627823 -0.036741625517606735
		endloop
	endfacet
	facet normal 0 0 -1
		outer loop
			vertex -0.0555555522441864 0.08445663005113602 -0.036741625517606735
			vertex -0.0555555522441864 0.10202724486589432 -0.036741625517606735
			vertex -0.05537516996264458 0.10202724486589432 -0.036741625517606735
		endloop
	endfacet
	facet normal 0 0 -1
		outer loop
			vertex -0.0555555522441864 0.08445663005113602 -0.036741625517606735
			vertex -0.05537516996264458 0.10202724486589432 -0.036741625517606735
			vertex -0.04569953307509422 0.08420015126466751 -0.036741625517606735
		endloop
	endfacet
	facet normal 0 0 -1
		outer loop
			vertex -0.0555555522441864 0.08445663005113602 -0.036741625517606735
			vertex -0.04569953307509422 0.08420015126466751 -0.036741625517606735
			vertex -0.052345048636198044 0.08385322242975235 -0.036741625517606735
		endloop
	endfacet
	facet normal 0 0 -1
		outer loop
			vertex -0.04354999214410782 0.0802396610379219 -0.036741625517606735
			vertex -0.043613944202661514 0.08035749942064285 -0.036741625517606735
			vertex -0.043645039200782776 0.08107966929674149 -0.036741625517606735
		endloop
	endfacet
	facet normal 0 0 -1
		outer loop
			vertex -0.04354999214410782 0.0802396610379219 -0.036741625517606735
			vertex -0.043645039200782776 0.08107966929674149 -0.036741625517606735
			vertex -0.00942133367061615 0.08575091511011124 -0.036741625517606735
		endloop
	endfacet
	facet normal 0 0 -1
		outer loop
			vertex -0.043613944202661514 0.08035749942064285 -0.036741625517606735
			vertex -0.04354999214410782 0.0802396610379219 -0.036741625517606735
			vertex -0.04360846430063248 0.080230213701725 -0.036741625517606735
		endloop
	endfacet
	facet normal 0 0 -1
		outer loop
			vertex -0.005351221654564142 0.08630646020174026 -0.036741625517606735
			vertex -0.0013318067649379373 0.08685506135225296 -0.036741625517606735
			vertex 0.0003316654765512794 0.08660311251878738 -0.036741625517606735
		endloop
	endfacet
	facet normal 0 0 -1
		outer loop
			vertex 0.0555555522441864 0.09461969882249832 -0.036741625517606735
			vertex 0.0555555522441864 0.0782388225197792 -0.036741625517606735
			vertex -0.0013318067649379373 0.08685506135225296 -0.036741625517606735
		endloop
	endfacet
	facet normal 0 0 -1
		outer loop
			vertex 0.04053371399641037 0.09256935864686966 -0.036741625517606735
			vertex -0.003234890289604664 0.08659530431032181 -0.036741625517606735
			vertex 0.03137264773249626 0.10144025832414627 -0.036741625517606735
		endloop
	endfacet
	facet normal 0 0 -1
		outer loop
			vertex 0.0555555522441864 0.10202724486589432 -0.036741625517606735
			vertex 0.0555555522441864 0.09461969882249832 -0.036741625517606735
			vertex 0.04053371399641037 0.09256935864686966 -0.036741625517606735
		endloop
	endfacet
	facet normal 0 0 -1
		outer loop
			vertex 0.0555555522441864 0.10202724486589432 -0.036741625517606735
			vertex 0.04053371399641037 0.09256935864686966 -0.036741625517606735
			vertex 0.03137264773249626 0.10144025832414627 -0.036741625517606735
		endloop
	endfacet
	facet normal 0 0 -1
		outer loop
			vertex 0.0555555522441864 0.10202724486589432 -0.036741625517606735
			vertex 0.03137264773249626 0.10144025832414627 -0.036741625517606735
			vertex 0.032741058617830276 0.10202724486589432 -0.036741625517606735
		endloop
	endfacet
	facet normal 0 0 -1
		outer loop
			vertex -0.00942133367061615 0.08575091511011124 -0.036741625517606735
			vertex -0.043645039200782776 0.08107966929674149 -0.036741625517606735
			vertex -0.04378372058272362 0.08430013805627823 -0.036741625517606735
		endloop
	endfacet
	facet normal 0 0 -1
		outer loop
			vertex -0.00942133367061615 0.08575091511011124 -0.036741625517606735
			vertex -0.04378372058272362 0.08430013805627823 -0.036741625517606735
			vertex -0.00628206180408597 0.08625785261392593 -0.036741625517606735
		endloop
	endfacet
	facet normal 0 0 -1
		outer loop
			vertex -0.00377878756262362 0.08652106672525406 -0.036741625517606735
			vertex -0.005351221654564142 0.08630646020174026 -0.036741625517606735
			vertex -0.04378372058272362 0.08430013805627823 -0.036741625517606735
		endloop
	endfacet
	facet normal 0 0 -1
		outer loop
			vertex -0.00377878756262362 0.08652106672525406 -0.036741625517606735
			vertex -0.04378372058272362 0.08430013805627823 -0.036741625517606735
			vertex -0.04454706236720085 0.10202724486589432 -0.036741625517606735
		endloop
	endfacet
	facet normal 0 0 -1
		outer loop
			vertex -0.00377878756262362 0.08652106672525406 -0.036741625517606735
			vertex -0.04454706236720085 0.10202724486589432 -0.036741625517606735
			vertex -0.012582064606249332 0.10202724486589432 -0.036741625517606735
		endloop
	endfacet
	facet normal 0 0 -1
		outer loop
			vertex -0.003234890289604664 0.08659530431032181 -0.036741625517606735
			vertex -0.00377878756262362 0.08652106672525406 -0.036741625517606735
			vertex -0.012582064606249332 0.10202724486589432 -0.036741625517606735
		endloop
	endfacet
	facet normal 0 0 -1
		outer loop
			vertex -0.003234890289604664 0.08659530431032181 -0.036741625517606735
			vertex -0.012582064606249332 0.10202724486589432 -0.036741625517606735
			vertex 0.032741058617830276 0.10202724486589432 -0.036741625517606735
		endloop
	endfacet
endsolid exported
