solid exported
	facet normal 0.5036127055199385 0.5959333888683154 -0.6254899190800866
		outer loop
			vertex 0.055555559694767 -0.017842154949903488 0.036741629242897034
			vertex 0.055555559694767 -0.024089351296424866 0.030789634212851524
			vertex 0.04815737158060074 -0.014044664800167084 0.03440302982926369
		endloop
	endfacet
	facet normal 0.5036128179057094 0.5959340534969153 -0.6254891953693577
		outer loop
			vertex 0.055555559694767 -0.017842154949903488 0.036741629242897034
			vertex 0.04815737158060074 -0.014044664800167084 0.03440302982926369
			vertex 0.045774079859256744 -0.009576007723808289 0.036741629242897034
		endloop
	endfacet
	facet normal -0.41687249870999465 0.236956164428138 -0.877535808932485
		outer loop
			vertex 0.044222764670848846 -0.012473147362470627 0.03669628128409386
			vertex 0.04420968145132065 -0.012328224256634712 0.036741629242897034
			vertex 0.045774079859256744 -0.009576007723808289 0.036741629242897034
		endloop
	endfacet
	facet normal -0.4168401327036928 0.2369391461640042 -0.8775557787301276
		outer loop
			vertex 0.044222764670848846 -0.012473147362470627 0.03669628128409386
			vertex 0.045774079859256744 -0.009576007723808289 0.036741629242897034
			vertex 0.04815737158060074 -0.014044664800167084 0.03440302982926369
		endloop
	endfacet
	facet normal -0.9220687562218497 0.037299230819551596 -0.38522457888842043
		outer loop
			vertex 0.04420968145132065 -0.012328224256634712 0.036741629242897034
			vertex 0.044222764670848846 -0.012473147362470627 0.03669628128409386
			vertex 0.0441928431391716 -0.012744481675326824 0.036741629242897034
		endloop
	endfacet
	facet normal 1 0 0
		outer loop
			vertex 0.055555559694767 -0.017842154949903488 0.036741629242897034
			vertex 0.055555559694767 -0.04676365479826927 0.036741629242897034
			vertex 0.055555559694767 -0.0417434461414814 0.03252913057804108
		endloop
	endfacet
	facet normal 1 0 0
		outer loop
			vertex 0.055555559694767 -0.017842154949903488 0.036741629242897034
			vertex 0.055555559694767 -0.0417434461414814 0.03252913057804108
			vertex 0.055555559694767 -0.024089351296424866 0.030789634212851524
		endloop
	endfacet
	facet normal 0.22113110487203574 0.9372092891971098 0.2697031380995061
		outer loop
			vertex 0.055555559694767 -0.07883062213659286 0.036741629242897034
			vertex 0.055555559694767 -0.07866529375314713 0.036167118698358536
			vertex 0.0546235516667366 -0.07861071825027466 0.036741629242897034
		endloop
	endfacet
	facet normal 0.899168674766478 -0.3679476123151874 0.2368760201249768
		outer loop
			vertex 0.055555559694767 -0.06623096764087677 0.036741629242897034
			vertex 0.053470127284526825 -0.07132722437381744 0.036741629242897034
			vertex 0.055555559694767 -0.06732045859098434 0.03504928573966026
		endloop
	endfacet
	facet normal 0.6876629600259088 0.680095325430196 0.25414563096067816
		outer loop
			vertex 0.055555559694767 -0.06314709037542343 0.036741629242897034
			vertex 0.055555559694767 -0.0625990480184555 0.035275064408779144
			vertex 0.05398707836866379 -0.06156115606427193 0.036741629242897034
		endloop
	endfacet
	facet normal 1 0 0
		outer loop
			vertex 0.055555559694767 -0.06314709037542343 0.036741629242897034
			vertex 0.055555559694767 -0.06623096764087677 0.036741629242897034
			vertex 0.055555559694767 -0.06732045859098434 0.03504928573966026
		endloop
	endfacet
	facet normal 1 0 0
		outer loop
			vertex 0.055555559694767 -0.06314709037542343 0.036741629242897034
			vertex 0.055555559694767 -0.06732045859098434 0.03504928573966026
			vertex 0.055555559694767 -0.06318632513284683 0.034641943871974945
		endloop
	endfacet
	facet normal 1 0 0
		outer loop
			vertex 0.055555559694767 -0.06314709037542343 0.036741629242897034
			vertex 0.055555559694767 -0.06318632513284683 0.034641943871974945
			vertex 0.055555559694767 -0.0625990480184555 0.035275064408779144
		endloop
	endfacet
	facet normal 0.6876641345754263 0.6800930725878023 0.2541484814763065
		outer loop
			vertex 0.05398707836866379 -0.06156115606427193 0.036741629242897034
			vertex 0.055555559694767 -0.0625990480184555 0.035275064408779144
			vertex 0.055555559694767 -0.062330957502126694 0.03455766290426254
		endloop
	endfacet
	facet normal 0.6876640649661241 0.6800931751653803 0.2541483953278827
		outer loop
			vertex 0.05398707836866379 -0.06156115606427193 0.036741629242897034
			vertex 0.055555559694767 -0.062330957502126694 0.03455766290426254
			vertex 0.051530130207538605 -0.059076856821775436 0.036741629242897034
		endloop
	endfacet
	facet normal -0.5903519232822957 -0.6307240399266869 0.5036584081850057
		outer loop
			vertex 0.055555559694767 -0.059561826288700104 0.036741629242897034
			vertex 0.05091980844736099 -0.055222805589437485 0.036741629242897034
			vertex 0.055555559694767 -0.06138059124350548 0.03446401655673981
		endloop
	endfacet
	facet normal 1 0 0
		outer loop
			vertex 0.055555559694767 -0.05200270563364029 0.036741629242897034
			vertex 0.055555559694767 -0.059561826288700104 0.036741629242897034
			vertex 0.055555559694767 -0.06138059124350548 0.03446401655673981
		endloop
	endfacet
	facet normal 1 0 0
		outer loop
			vertex 0.055555559694767 -0.05200270563364029 0.036741629242897034
			vertex 0.055555559694767 -0.06138059124350548 0.03446401655673981
			vertex 0.055555559694767 -0.053056877106428146 0.03364386782050133
		endloop
	endfacet
	facet normal 1 0 0
		outer loop
			vertex 0.055555559694767 -0.0625990480184555 0.035275064408779144
			vertex 0.055555559694767 -0.06318632513284683 0.034641943871974945
			vertex 0.055555559694767 -0.062330957502126694 0.03455766290426254
		endloop
	endfacet
	facet normal 1 0 0
		outer loop
			vertex 0.055555559694767 -0.04676365479826927 0.036741629242897034
			vertex 0.055555559694767 -0.05200270563364029 0.036741629242897034
			vertex 0.055555559694767 -0.053056877106428146 0.03364386782050133
		endloop
	endfacet
	facet normal 1 0 0
		outer loop
			vertex 0.055555559694767 -0.04676365479826927 0.036741629242897034
			vertex 0.055555559694767 -0.053056877106428146 0.03364386782050133
			vertex 0.055555559694767 -0.04488876089453697 0.03283904492855072
		endloop
	endfacet
	facet normal 1 0 0
		outer loop
			vertex 0.055555559694767 -0.04676365479826927 0.036741629242897034
			vertex 0.055555559694767 -0.04488876089453697 0.03283904492855072
			vertex 0.055555559694767 -0.044048603624105453 0.03446340560913086
		endloop
	endfacet
	facet normal 1 0 0
		outer loop
			vertex 0.055555559694767 -0.04488876089453697 0.03283904492855072
			vertex 0.055555559694767 -0.0417434461414814 0.03252913057804108
			vertex 0.055555559694767 -0.044048603624105453 0.03446340560913086
		endloop
	endfacet
	facet normal 1 0 0
		outer loop
			vertex 0.055555559694767 -0.07883062213659286 0.036741629242897034
			vertex 0.055555559694767 -0.08449598401784897 0.036741629242897034
			vertex 0.055555559694767 -0.07866529375314713 0.036167118698358536
		endloop
	endfacet
	facet normal 0.22113205282673068 0.9372086042582334 0.2697047409983184
		outer loop
			vertex 0.0546235516667366 -0.07861071825027466 0.036741629242897034
			vertex 0.055555559694767 -0.07866529375314713 0.036167118698358536
			vertex 0.055555559694767 -0.07846919447183609 0.035485684871673584
		endloop
	endfacet
	facet normal 0.22113090113743317 0.9372091056798981 0.2697039428574091
		outer loop
			vertex 0.0546235516667366 -0.07861071825027466 0.036741629242897034
			vertex 0.055555559694767 -0.07846919447183609 0.035485684871673584
			vertex 0.05189985781908035 -0.07710202038288116 0.033732134848833084
		endloop
	endfacet
	facet normal 0.22113231509502815 0.9372091359508522 0.2697026783533496
		outer loop
			vertex 0.0546235516667366 -0.07861071825027466 0.036741629242897034
			vertex 0.05189985781908035 -0.07710202038288116 0.033732134848833084
			vertex 0.051380567252635956 -0.07784554362297058 0.036741629242897034
		endloop
	endfacet
	facet normal 0.5036126868990807 0.5959333826709073 -0.6254899399772138
		outer loop
			vertex 0.055555559694767 -0.02791626565158367 0.027143554762005806
			vertex 0.04815737158060074 -0.014044664800167084 0.03440302982926369
			vertex 0.055555559694767 -0.024089351296424866 0.030789634212851524
		endloop
	endfacet
	facet normal 0.9180485915465768 0.1464262882086573 0.3684374108051218
		outer loop
			vertex 0.023970656096935272 0.1023595854640007 -0.036741629242897034
			vertex 0.017714552581310272 0.1023595854640007 -0.021153073757886887
			vertex 0.03511687368154526 0.028248587623238564 -0.03506148234009743
		endloop
	endfacet
	facet normal 0.918048382018991 0.14642626870769254 0.3684379406421871
		outer loop
			vertex 0.023970656096935272 0.1023595854640007 -0.036741629242897034
			vertex 0.03511687368154526 0.028248587623238564 -0.03506148234009743
			vertex 0.03480573743581772 0.03442690521478653 -0.036741629242897034
		endloop
	endfacet
	facet normal 0.8162614991643997 -0.2844226802937953 -0.5028129909980252
		outer loop
			vertex 0.03396407514810562 0.016655446961522102 -0.02758162096142769
			vertex 0.04098520427942276 -0.03212018683552742 0.011406977660953999
			vertex 0.03916602581739426 -0.03310049697756767 0.00900826696306467
		endloop
	endfacet
	facet normal 0.8162590521792558 -0.28442492402224906 -0.5028156941965525
		outer loop
			vertex 0.03396407514810562 0.016655446961522102 -0.02758162096142769
			vertex 0.03916602581739426 -0.03310049697756767 0.00900826696306467
			vertex 0.03206325322389603 -0.029838629066944122 -0.004367327783256769
		endloop
	endfacet
	facet normal 0.45909612658333954 -0.5134323347443327 -0.7249951614977564
		outer loop
			vertex 0.03511687368154526 0.028248587623238564 -0.03506148234009743
			vertex 0.04107416421175003 -0.03212938830256462 0.01146982703357935
			vertex 0.04098520427942276 -0.03212018683552742 0.011406977660953999
		endloop
	endfacet
	facet normal 0.4591618953994715 -0.5134074473664862 -0.7249711351507684
		outer loop
			vertex 0.03511687368154526 0.028248587623238564 -0.03506148234009743
			vertex 0.04098520427942276 -0.03212018683552742 0.011406977660953999
			vertex 0.03396407514810562 0.016655446961522102 -0.02758162096142769
		endloop
	endfacet
	facet normal 0.888680372229731 0.10191299457143985 -0.4470580919199527
		outer loop
			vertex 0.03206325322389603 -0.029838629066944122 -0.004367327783256769
			vertex 0.03916602581739426 -0.03310049697756767 0.00900826696306467
			vertex 0.033752016723155975 -0.04193501174449921 -0.00376787013374269
		endloop
	endfacet
	facet normal 0.9696813041383012 0.20184232414255723 0.13776009795791513
		outer loop
			vertex 0.04107416421175003 -0.03212938830256462 0.01146982703357935
			vertex 0.03511687368154526 0.028248587623238564 -0.03506148234009743
			vertex 0.03453870862722397 0.030710801482200623 -0.03459939733147621
		endloop
	endfacet
	facet normal 0.9696537843640382 0.2019093934380218 0.1378554870507137
		outer loop
			vertex 0.04107416421175003 -0.03212938830256462 0.01146982703357935
			vertex 0.03453870862722397 0.030710801482200623 -0.03459939733147621
			vertex 0.04105905443429947 -0.03208039328455925 0.011504346504807472
		endloop
	endfacet
	facet normal 0.9398941014386534 0.2551143888761338 0.22697076170551814
		outer loop
			vertex 0.016003288328647614 0.03784787282347679 0.036741629242897034
			vertex 0.02014092355966568 0.022603970021009445 0.036741629242897034
			vertex 0.022494517266750336 0.01629011519253254 0.03409206494688988
		endloop
	endfacet
	facet normal 0.9190462460704251 0.20008366464136626 0.33958875824670826
		outer loop
			vertex 0.022494517266750336 0.01629011519253254 0.03409206494688988
			vertex 0.02014092355966568 0.022603970021009445 0.036741629242897034
			vertex 0.022947005927562714 0.009714764542877674 0.036741629242897034
		endloop
	endfacet
	facet normal 0.9190464171368079 0.2000835233941185 0.33958837850284534
		outer loop
			vertex 0.022494517266750336 0.01629011519253254 0.03409206494688988
			vertex 0.022947005927562714 0.009714764542877674 0.036741629242897034
			vertex 0.025943271815776825 0.002891280921176076 0.03265303000807762
		endloop
	endfacet
	facet normal 0.9696815459988921 0.20184179674071207 0.13775916825271367
		outer loop
			vertex 0.03453870862722397 0.030710801482200623 -0.03459939733147621
			vertex 0.017714552581310272 0.1023595854640007 -0.021153073757886887
			vertex 0.013943352736532688 0.1023595854640007 0.005392258521169424
		endloop
	endfacet
	facet normal 0.969681543444826 0.20184173763416025 0.137759272832296
		outer loop
			vertex 0.03453870862722397 0.030710801482200623 -0.03459939733147621
			vertex 0.013943352736532688 0.1023595854640007 0.005392258521169424
			vertex 0.04051288217306137 -0.03030850738286972 0.012752750888466835
		endloop
	endfacet
	facet normal 0.9696822668532667 0.2018399216715793 0.1377568414632133
		outer loop
			vertex 0.03453870862722397 0.030710801482200623 -0.03459939733147621
			vertex 0.04051288217306137 -0.03030850738286972 0.012752750888466835
			vertex 0.04105905443429947 -0.03208039328455925 0.011504346504807472
		endloop
	endfacet
	facet normal 0.8965747580295381 0.2014407767247093 0.3944303699473729
		outer loop
			vertex 0.00015182131028268486 0.1023595854640007 0.036741629242897034
			vertex 0.008124166168272495 0.06687618792057037 0.036741629242897034
			vertex 0.03895846754312515 -0.02703896164894104 0.014616264961659908
		endloop
	endfacet
	facet normal 0.8965741287721395 0.20144030198296045 0.3944320427570416
		outer loop
			vertex 0.00015182131028268486 0.1023595854640007 0.036741629242897034
			vertex 0.03895846754312515 -0.02703896164894104 0.014616264961659908
			vertex 0.04051288217306137 -0.03030850738286972 0.012752750888466835
		endloop
	endfacet
	facet normal 0.8965748051472928 0.20144083497446036 0.3944302330956467
		outer loop
			vertex 0.00015182131028268486 0.1023595854640007 0.036741629242897034
			vertex 0.04051288217306137 -0.03030850738286972 0.012752750888466835
			vertex 0.013943352736532688 0.1023595854640007 0.005392258521169424
		endloop
	endfacet
	facet normal 0.9398935015425216 0.25511421147339397 0.22697344528038194
		outer loop
			vertex 0.03895846754312515 -0.02703896164894104 0.014616264961659908
			vertex 0.008124166168272495 0.06687618792057037 0.036741629242897034
			vertex 0.016003288328647614 0.03784787282347679 0.036741629242897034
		endloop
	endfacet
	facet normal 0.9398933006036032 0.25511363617056676 0.22697492399006647
		outer loop
			vertex 0.03895846754312515 -0.02703896164894104 0.014616264961659908
			vertex 0.016003288328647614 0.03784787282347679 0.036741629242897034
			vertex 0.022494517266750336 0.01629011519253254 0.03409206494688988
		endloop
	endfacet
	facet normal 0.9398933987166269 0.2551140805998741 0.22697401817958998
		outer loop
			vertex 0.03895846754312515 -0.02703896164894104 0.014616264961659908
			vertex 0.022494517266750336 0.01629011519253254 0.03409206494688988
			vertex 0.03617491573095322 -0.020409395918250084 0.01869138516485691
		endloop
	endfacet
	facet normal 0.9190448397435088 0.20008260050043666 0.3395931912123845
		outer loop
			vertex 0.03617491573095322 -0.020409395918250084 0.01869138516485691
			vertex 0.022494517266750336 0.01629011519253254 0.03409206494688988
			vertex 0.025943271815776825 0.002891280921176076 0.03265303000807762
		endloop
	endfacet
	facet normal 0.8162587949828393 -0.28442519746121314 -0.502815957048216
		outer loop
			vertex 0.028863005340099335 0.01820945180952549 -0.036741629242897034
			vertex 0.03338275104761124 0.0024360939860343933 -0.020481957122683525
			vertex 0.03206325322389603 -0.029838629066944122 -0.004367327783256769
		endloop
	endfacet
	facet normal 0.8162592456721146 -0.2844248187965527 -0.502815439607157
		outer loop
			vertex 0.028863005340099335 0.01820945180952549 -0.036741629242897034
			vertex 0.03206325322389603 -0.029838629066944122 -0.004367327783256769
			vertex 0.014871709980070591 -0.021943598985671997 -0.036741629242897034
		endloop
	endfacet
	facet normal 0.8886801216449205 0.10191255362320623 -0.44705869056217523
		outer loop
			vertex 0.02586234360933304 -0.05480930209159851 -0.022386176511645317
			vertex 0.017952941358089447 -0.04881201684474945 -0.036741629242897034
			vertex 0.014871709980070591 -0.021943598985671997 -0.036741629242897034
		endloop
	endfacet
	facet normal 0.8886805267183705 0.1019130946710335 -0.4470577620018835
		outer loop
			vertex 0.02586234360933304 -0.05480930209159851 -0.022386176511645317
			vertex 0.014871709980070591 -0.021943598985671997 -0.036741629242897034
			vertex 0.03206325322389603 -0.029838629066944122 -0.004367327783256769
		endloop
	endfacet
	facet normal 0.8886805640235891 0.1019130407632282 -0.4470577001340079
		outer loop
			vertex 0.02586234360933304 -0.05480930209159851 -0.022386176511645317
			vertex 0.03206325322389603 -0.029838629066944122 -0.004367327783256769
			vertex 0.033752016723155975 -0.04193501174449921 -0.00376787013374269
		endloop
	endfacet
	facet normal 0.974859721001645 -0.011421097233514605 -0.22252658921256482
		outer loop
			vertex 0.03480573743581772 0.03442690521478653 -0.036741629242897034
			vertex 0.03511687368154526 0.028248587623238564 -0.03506148234009743
			vertex 0.03475738316774368 0.030299575999379158 -0.036741629242897034
		endloop
	endfacet
	facet normal 0.8162608224035354 -0.2844235913184288 -0.5028135743102324
		outer loop
			vertex 0.03231453150510788 0.02811482921242714 -0.036741629242897034
			vertex 0.03396407514810562 0.016655446961522102 -0.02758162096142769
			vertex 0.03338275104761124 0.0024360939860343933 -0.020481957122683525
		endloop
	endfacet
	facet normal 0.8162588163285804 -0.28442517103403825 -0.502815937344992
		outer loop
			vertex 0.03231453150510788 0.02811482921242714 -0.036741629242897034
			vertex 0.03338275104761124 0.0024360939860343933 -0.020481957122683525
			vertex 0.028863005340099335 0.01820945180952549 -0.036741629242897034
		endloop
	endfacet
	facet normal 0.45916319310432424 -0.5134071719555542 -0.7249705082848827
		outer loop
			vertex 0.03475738316774368 0.030299575999379158 -0.036741629242897034
			vertex 0.03511687368154526 0.028248587623238564 -0.03506148234009743
			vertex 0.03396407514810562 0.016655446961522102 -0.02758162096142769
		endloop
	endfacet
	facet normal 0.45916222190403116 -0.5134074135715601 -0.7249709522911346
		outer loop
			vertex 0.03475738316774368 0.030299575999379158 -0.036741629242897034
			vertex 0.03396407514810562 0.016655446961522102 -0.02758162096142769
			vertex 0.03231453150510788 0.02811482921242714 -0.036741629242897034
		endloop
	endfacet
	facet normal 0.692294035024709 0.30241702553434885 -0.6551892182691684
		outer loop
			vertex 0.04940732568502426 -0.06314390152692795 0.008142239414155483
			vertex 0.04733147472143173 -0.06745611131191254 0.00395843293517828
			vertex 0.03443101793527603 -0.06130649521946907 -0.00683411443606019
		endloop
	endfacet
	facet normal 0.6922940797786413 0.3024167539308981 -0.6551892963452187
		outer loop
			vertex 0.04940732568502426 -0.06314390152692795 0.008142239414155483
			vertex 0.03443101793527603 -0.06130649521946907 -0.00683411443606019
			vertex 0.0412650927901268 -0.03406447172164917 0.012961132451891899
		endloop
	endfacet
	facet normal 0.8162617917717185 -0.2844182405642454 -0.5028150273489874
		outer loop
			vertex 0.04098520427942276 -0.03212018683552742 0.011406977660953999
			vertex 0.0412650927901268 -0.03406447172164917 0.012961132451891899
			vertex 0.03916602581739426 -0.03310049697756767 0.00900826696306467
		endloop
	endfacet
	facet normal 0.4590960861522396 -0.5134324316685059 -0.7249951184598834
		outer loop
			vertex 0.04107416421175003 -0.03212938830256462 0.01146982703357935
			vertex 0.0412650927901268 -0.03406447172164917 0.012961132451891899
			vertex 0.04098520427942276 -0.03212018683552742 0.011406977660953999
		endloop
	endfacet
	facet normal 0.888680623533495 0.1019126581769055 -0.4470576690533735
		outer loop
			vertex 0.0412650927901268 -0.03406447172164917 0.012961132451891899
			vertex 0.03443101793527603 -0.06130649521946907 -0.00683411443606019
			vertex 0.02586234360933304 -0.05480930209159851 -0.022386176511645317
		endloop
	endfacet
	facet normal 0.8886806150489281 0.10191268341247904 -0.4470576801665827
		outer loop
			vertex 0.0412650927901268 -0.03406447172164917 0.012961132451891899
			vertex 0.02586234360933304 -0.05480930209159851 -0.022386176511645317
			vertex 0.03916602581739426 -0.03310049697756767 0.00900826696306467
		endloop
	endfacet
	facet normal -0.41683528799541747 0.23694079260438555 -0.8775576354187702
		outer loop
			vertex 0.055555559694767 -0.037613414227962494 0.024525325745344162
			vertex 0.055555559694767 -0.047518178820610046 0.021851036697626114
			vertex 0.054470472037792206 -0.03884289786219597 0.02470877580344677
		endloop
	endfacet
	facet normal 1 0 0
		outer loop
			vertex 0.055555559694767 -0.037613414227962494 0.024525325745344162
			vertex 0.055555559694767 -0.039235539734363556 0.02567407116293907
			vertex 0.055555559694767 -0.047518178820610046 0.021851036697626114
		endloop
	endfacet
	facet normal -0.41683745188933996 0.23694022590622593 -0.8775567605858376
		outer loop
			vertex 0.0540444478392601 -0.025082942098379135 0.028626326471567154
			vertex 0.055555559694767 -0.02791626565158367 0.027143554762005806
			vertex 0.055555559694767 -0.037613414227962494 0.024525325745344162
		endloop
	endfacet
	facet normal -0.41683527368295786 0.2369407783856472 -0.8775576460561765
		outer loop
			vertex 0.0540444478392601 -0.025082942098379135 0.028626326471567154
			vertex 0.055555559694767 -0.037613414227962494 0.024525325745344162
			vertex 0.054470472037792206 -0.03884289786219597 0.02470877580344677
		endloop
	endfacet
	facet normal -0.41684136436930397 0.23693983839286872 -0.8775550067848161
		outer loop
			vertex 0.0540444478392601 -0.025082942098379135 0.028626326471567154
			vertex 0.054470472037792206 -0.03884289786219597 0.02470877580344677
			vertex 0.05305894464254379 -0.027557579800486565 0.028426291421055794
		endloop
	endfacet
	facet normal 0.9696537728001068 0.20191129981807532 0.13785277617913466
		outer loop
			vertex 0.0412650927901268 -0.03406447172164917 0.012961132451891899
			vertex 0.04107416421175003 -0.03212938830256462 0.01146982703357935
			vertex 0.04105905443429947 -0.03208039328455925 0.011504346504807472
		endloop
	endfacet
	facet normal 1 0 0
		outer loop
			vertex 0.055555559694767 -0.02791626565158367 0.027143554762005806
			vertex 0.055555559694767 -0.024268653243780136 0.030618805438280106
			vertex 0.055555559694767 -0.024672172963619232 0.030847059562802315
		endloop
	endfacet
	facet normal 1 0 0
		outer loop
			vertex 0.055555559694767 -0.02791626565158367 0.027143554762005806
			vertex 0.055555559694767 -0.024672172963619232 0.030847059562802315
			vertex 0.055555559694767 -0.02743782289326191 0.031119566410779953
		endloop
	endfacet
	facet normal 1 0 0
		outer loop
			vertex 0.055555559694767 -0.02791626565158367 0.027143554762005806
			vertex 0.055555559694767 -0.02743782289326191 0.031119566410779953
			vertex 0.055555559694767 -0.039235539734363556 0.02567407116293907
		endloop
	endfacet
	facet normal 1 0 0
		outer loop
			vertex 0.055555559694767 -0.02791626565158367 0.027143554762005806
			vertex 0.055555559694767 -0.039235539734363556 0.02567407116293907
			vertex 0.055555559694767 -0.037613414227962494 0.024525325745344162
		endloop
	endfacet
	facet normal -0.4168412399602277 0.23693979458108846 -0.8775550777086822
		outer loop
			vertex 0.052352674305438995 -0.02191084995865822 0.030286388471722603
			vertex 0.0540444478392601 -0.025082942098379135 0.028626326471567154
			vertex 0.05305894464254379 -0.027557579800486565 0.028426291421055794
		endloop
	endfacet
	facet normal 0.9696822551516056 0.2018418281423164 0.13775413045082968
		outer loop
			vertex 0.0412650927901268 -0.03406447172164917 0.012961132451891899
			vertex 0.04105905443429947 -0.03208039328455925 0.011504346504807472
			vertex 0.04051288217306137 -0.03030850738286972 0.012752750888466835
		endloop
	endfacet
	facet normal 0.8965716428620523 0.20144073210531005 0.39443747370719884
		outer loop
			vertex 0.0412650927901268 -0.03406447172164917 0.012961132451891899
			vertex 0.04051288217306137 -0.03030850738286972 0.012752750888466835
			vertex 0.03961982578039169 -0.02843007817864418 0.013823381625115871
		endloop
	endfacet
	facet normal 1 0 0
		outer loop
			vertex 0.055555559694767 -0.024268653243780136 0.030618805438280106
			vertex 0.055555559694767 -0.024089351296424866 0.030789634212851524
			vertex 0.055555559694767 -0.024672172963619232 0.030847059562802315
		endloop
	endfacet
	facet normal 0.483891242833014 -0.7773100264784317 0.40204276867719074
		outer loop
			vertex 0.04252839833498001 -0.05097980797290802 0.036741629242897034
			vertex 0.04442227631807327 -0.05101362615823746 0.034396808594465256
			vertex 0.04389248043298721 -0.05013063922524452 0.036741629242897034
		endloop
	endfacet
	facet normal 0.981695278126965 0.0538327231472669 0.18269214220039873
		outer loop
			vertex 0.051380567252635956 -0.07784554362297058 0.036741629242897034
			vertex 0.05189985781908035 -0.07710202038288116 0.033732134848833084
			vertex 0.051312290132045746 -0.07660043984651566 0.036741629242897034
		endloop
	endfacet
	facet normal -0.35184997861846884 -0.40859945646785245 -0.8421686747441742
		outer loop
			vertex 0.055555559694767 -0.07667749375104904 0.029259534552693367
			vertex 0.05441483110189438 -0.07652406394481659 0.02966167964041233
			vertex 0.052685223519802094 -0.07105036079883575 0.02772858738899231
		endloop
	endfacet
	facet normal -0.35185023103717583 -0.40859954486401534 -0.8421685263983721
		outer loop
			vertex 0.055555559694767 -0.07667749375104904 0.029259534552693367
			vertex 0.052685223519802094 -0.07105036079883575 0.02772858738899231
			vertex 0.053240008652210236 -0.05661720409989357 0.020494189113378525
		endloop
	endfacet
	facet normal -0.35184949119426745 -0.4085995858386391 -0.8421688156176454
		outer loop
			vertex 0.055555559694767 -0.07667749375104904 0.029259534552693367
			vertex 0.053240008652210236 -0.05661720409989357 0.020494189113378525
			vertex 0.055555559694767 -0.0564417839050293 0.019441666081547737
		endloop
	endfacet
	facet normal -0.029846924516629805 -0.34122728414672304 -0.9395068395976425
		outer loop
			vertex 0.052685223519802094 -0.07105036079883575 0.02772858738899231
			vertex 0.05441483110189438 -0.07652406394481659 0.02966167964041233
			vertex 0.05262085050344467 -0.07606969028711319 0.029553644359111786
		endloop
	endfacet
	facet normal -0.4168387326452469 0.23693994438279273 -0.8775562282398681
		outer loop
			vertex 0.052742309868335724 -0.05229984596371651 0.021896280348300934
			vertex 0.055555559694767 -0.05106765404343605 0.020892679691314697
			vertex 0.055555559694767 -0.0564417839050293 0.019441666081547737
		endloop
	endfacet
	facet normal -0.4168390376285569 0.23693969179863378 -0.8775561515705234
		outer loop
			vertex 0.052742309868335724 -0.05229984596371651 0.021896280348300934
			vertex 0.055555559694767 -0.0564417839050293 0.019441666081547737
			vertex 0.053240008652210236 -0.05661720409989357 0.020494189113378525
		endloop
	endfacet
	facet normal 0.8991684290949399 -0.36794609525908745 0.23687930914820018
		outer loop
			vertex 0.055555559694767 -0.06732045859098434 0.03504928573966026
			vertex 0.053470127284526825 -0.07132722437381744 0.036741629242897034
			vertex 0.051312290132045746 -0.07660043984651566 0.036741629242897034
		endloop
	endfacet
	facet normal 0.8991689233080141 -0.36794688787945357 0.23687620196408837
		outer loop
			vertex 0.055555559694767 -0.06732045859098434 0.03504928573966026
			vertex 0.051312290132045746 -0.07660043984651566 0.036741629242897034
			vertex 0.05189985781908035 -0.07710202038288116 0.033732134848833084
		endloop
	endfacet
	facet normal 0.8991685735782609 -0.3679469276237903 0.23687746777912283
		outer loop
			vertex 0.055555559694767 -0.06732045859098434 0.03504928573966026
			vertex 0.05189985781908035 -0.07710202038288116 0.033732134848833084
			vertex 0.055555559694767 -0.0682397335767746 0.03362135589122772
		endloop
	endfacet
	facet normal -0.375261105862141 0.16619433630018965 0.9118983194462322
		outer loop
			vertex 0.055555559694767 -0.0682397335767746 0.03362135589122772
			vertex 0.05189985781908035 -0.07710202038288116 0.033732134848833084
			vertex 0.055555559694767 -0.07846919447183609 0.035485684871673584
		endloop
	endfacet
	facet normal 1 0 0
		outer loop
			vertex 0.055555559694767 -0.07846919447183609 0.035485684871673584
			vertex 0.055555559694767 -0.07667749375104904 0.029259534552693367
			vertex 0.055555559694767 -0.0723876878619194 0.02717822603881359
		endloop
	endfacet
	facet normal 1 0 0
		outer loop
			vertex 0.055555559694767 -0.07846919447183609 0.035485684871673584
			vertex 0.055555559694767 -0.0723876878619194 0.02717822603881359
			vertex 0.055555559694767 -0.0682397335767746 0.03362135589122772
		endloop
	endfacet
	facet normal 0.687664259390007 0.6800924294263025 0.25414986483298185
		outer loop
			vertex 0.0502820685505867 -0.05781489983201027 0.036741629242897034
			vertex 0.051530130207538605 -0.059076856821775436 0.036741629242897034
			vertex 0.055555559694767 -0.062330957502126694 0.03455766290426254
		endloop
	endfacet
	facet normal 0.68766413797386 0.6800934517195126 0.25414745773449526
		outer loop
			vertex 0.0502820685505867 -0.05781489983201027 0.036741629242897034
			vertex 0.055555559694767 -0.062330957502126694 0.03455766290426254
			vertex 0.055555559694767 -0.062004152685403824 0.03368313983082771
		endloop
	endfacet
	facet normal 0.6876643400981989 0.6800927662457387 0.2541487451425403
		outer loop
			vertex 0.0502820685505867 -0.05781489983201027 0.036741629242897034
			vertex 0.055555559694767 -0.062004152685403824 0.03368313983082771
			vertex 0.05076446384191513 -0.05727448686957359 0.03399026021361351
		endloop
	endfacet
	facet normal -0.5903525349162877 -0.6307250554833723 0.5036564194998514
		outer loop
			vertex 0.05009771138429642 -0.054453346878290176 0.036741629242897034
			vertex 0.05076446384191513 -0.05727448686957359 0.03399026021361351
			vertex 0.055555559694767 -0.062004152685403824 0.03368313983082771
		endloop
	endfacet
	facet normal -0.5903506269275016 -0.6307247414943558 0.5036590491127746
		outer loop
			vertex 0.05009771138429642 -0.054453346878290176 0.036741629242897034
			vertex 0.055555559694767 -0.062004152685403824 0.03368313983082771
			vertex 0.055555559694767 -0.06138059124350548 0.03446401655673981
		endloop
	endfacet
	facet normal -0.5903359102171393 -0.6307205454694664 0.5036815527997829
		outer loop
			vertex 0.05009771138429642 -0.054453346878290176 0.036741629242897034
			vertex 0.055555559694767 -0.06138059124350548 0.03446401655673981
			vertex 0.05091980844736099 -0.055222805589437485 0.036741629242897034
		endloop
	endfacet
	facet normal 1 0 0
		outer loop
			vertex 0.055555559694767 -0.05707243084907532 0.020485958084464073
			vertex 0.055555559694767 -0.05514132231473923 0.019792789593338966
			vertex 0.055555559694767 -0.05106765404343605 0.020892679691314697
		endloop
	endfacet
	facet normal 1 0 0
		outer loop
			vertex 0.055555559694767 -0.05707243084907532 0.020485958084464073
			vertex 0.055555559694767 -0.05106765404343605 0.020892679691314697
			vertex 0.055555559694767 -0.04488876089453697 0.03283904492855072
		endloop
	endfacet
	facet normal 1 0 0
		outer loop
			vertex 0.055555559694767 -0.05707243084907532 0.020485958084464073
			vertex 0.055555559694767 -0.04488876089453697 0.03283904492855072
			vertex 0.055555559694767 -0.06138059124350548 0.03446401655673981
		endloop
	endfacet
	facet normal 1 0 0
		outer loop
			vertex 0.055555559694767 -0.05707243084907532 0.020485958084464073
			vertex 0.055555559694767 -0.06138059124350548 0.03446401655673981
			vertex 0.055555559694767 -0.062004152685403824 0.03368313983082771
		endloop
	endfacet
	facet normal 1 0 0
		outer loop
			vertex 0.055555559694767 -0.05514132231473923 0.019792789593338966
			vertex 0.055555559694767 -0.05707243084907532 0.020485958084464073
			vertex 0.055555559694767 -0.05673542618751526 0.019584134221076965
		endloop
	endfacet
	facet normal 1 0 0
		outer loop
			vertex 0.055555559694767 -0.05514132231473923 0.019792789593338966
			vertex 0.055555559694767 -0.05673542618751526 0.019584134221076965
			vertex 0.055555559694767 -0.0564417839050293 0.019441666081547737
		endloop
	endfacet
	facet normal 1 0 0
		outer loop
			vertex 0.055555559694767 -0.06292145699262619 0.022585446015000343
			vertex 0.055555559694767 -0.05707243084907532 0.020485958084464073
			vertex 0.055555559694767 -0.062330957502126694 0.03455766290426254
		endloop
	endfacet
	facet normal 1 0 0
		outer loop
			vertex 0.055555559694767 -0.06292145699262619 0.022585446015000343
			vertex 0.055555559694767 -0.062330957502126694 0.03455766290426254
			vertex 0.055555559694767 -0.06732045859098434 0.03504928573966026
		endloop
	endfacet
	facet normal 1 0 0
		outer loop
			vertex 0.055555559694767 -0.06292145699262619 0.022585446015000343
			vertex 0.055555559694767 -0.06732045859098434 0.03504928573966026
			vertex 0.055555559694767 -0.0723876878619194 0.02717822603881359
		endloop
	endfacet
	facet normal 1 0 0
		outer loop
			vertex 0.055555559694767 -0.05707243084907532 0.020485958084464073
			vertex 0.055555559694767 -0.06292145699262619 0.022585446015000343
			vertex 0.055555559694767 -0.05673542618751526 0.019584134221076965
		endloop
	endfacet
	facet normal -0.35185020733304256 -0.4085995495898186 -0.8421685340088957
		outer loop
			vertex 0.052685223519802094 -0.07105036079883575 0.02772858738899231
			vertex 0.04824415594339371 -0.05699567869305611 0.022765036672353745
			vertex 0.053240008652210236 -0.05661720409989357 0.020494189113378525
		endloop
	endfacet
	facet normal 0.7149871673470832 0.6629934913482127 -0.2218850624961072
		outer loop
			vertex 0.04824415594339371 -0.05699567869305611 0.022765036672353745
			vertex 0.04940732568502426 -0.06314390152692795 0.008142239414155483
			vertex 0.0482136532664299 -0.061166875064373016 0.010203194804489613
		endloop
	endfacet
	facet normal 0.7149860026999022 0.6629946225639195 -0.2218854352915972
		outer loop
			vertex 0.04824415594339371 -0.05699567869305611 0.022765036672353745
			vertex 0.0482136532664299 -0.061166875064373016 0.010203194804489613
			vertex 0.04687877744436264 -0.055564675480127335 0.022641193121671677
		endloop
	endfacet
	facet normal 0.9189203095898861 0.20105715642626015 0.33935451149647966
		outer loop
			vertex 0.04940732568502426 -0.06314390152692795 0.008142239414155483
			vertex 0.04898186773061752 -0.06162438169121742 0.008394045755267143
			vertex 0.0482136532664299 -0.061166875064373016 0.010203194804489613
		endloop
	endfacet
	facet normal -0.02984678021509 -0.3412273114587451 -0.9395068342622256
		outer loop
			vertex 0.04837747663259506 -0.07499494403600693 0.029298104345798492
			vertex 0.04824415594339371 -0.05699567869305611 0.022765036672353745
			vertex 0.052685223519802094 -0.07105036079883575 0.02772858738899231
		endloop
	endfacet
	facet normal -0.029846805864303334 -0.3412272867016235 -0.9395068424391313
		outer loop
			vertex 0.04837747663259506 -0.07499494403600693 0.029298104345798492
			vertex 0.052685223519802094 -0.07105036079883575 0.02772858738899231
			vertex 0.05262085050344467 -0.07606969028711319 0.029553644359111786
		endloop
	endfacet
	facet normal 0.9991501183035576 0.0104000180415814 0.039885846095098994
		outer loop
			vertex 0.04937797039747238 -0.06985838711261749 0.01062836218625307
			vertex 0.04940732568502426 -0.06314390152692795 0.008142239414155483
			vertex 0.04924110323190689 -0.0708901509642601 0.0143259447067976
		endloop
	endfacet
	facet normal 0.9973168656274407 0.03139120781374601 0.06613366470302093
		outer loop
			vertex 0.04824415594339371 -0.05699567869305611 0.022765036672353745
			vertex 0.04837747663259506 -0.07499494403600693 0.029298104345798492
			vertex 0.04924110323190689 -0.0708901509642601 0.0143259447067976
		endloop
	endfacet
	facet normal 0.9973169109389095 0.03139179553054608 0.06613270241446322
		outer loop
			vertex 0.04824415594339371 -0.05699567869305611 0.022765036672353745
			vertex 0.04924110323190689 -0.0708901509642601 0.0143259447067976
			vertex 0.04940732568502426 -0.06314390152692795 0.008142239414155483
		endloop
	endfacet
	facet normal 0.9344717973679908 -0.12721089588658904 -0.33253548365786206
		outer loop
			vertex 0.04940732568502426 -0.06314390152692795 0.008142239414155483
			vertex 0.04937797039747238 -0.06985838711261749 0.01062836218625307
			vertex 0.04733147472143173 -0.06745611131191254 0.00395843293517828
		endloop
	endfacet
	facet normal 0.33860259272105386 0.904166550223112 0.260444108515084
		outer loop
			vertex 0.04410683363676071 -0.051570918411016464 0.036741629242897034
			vertex 0.04442227631807327 -0.05101362615823746 0.034396808594465256
			vertex 0.04252839833498001 -0.05097980797290802 0.036741629242897034
		endloop
	endfacet
	facet normal -0.15023128148647333 -0.9359414843746948 0.3185029040517922
		outer loop
			vertex 0.04389248043298721 -0.05013063922524452 0.036741629242897034
			vertex 0.04442227631807327 -0.05101362615823746 0.034396808594465256
			vertex 0.0458078607916832 -0.050438083708286285 0.036741629242897034
		endloop
	endfacet
	facet normal -0.5903510688896425 -0.6307243956539883 0.5036589641689778
		outer loop
			vertex 0.0458078607916832 -0.050438083708286285 0.036741629242897034
			vertex 0.04442227631807327 -0.05101362615823746 0.034396808594465256
			vertex 0.048959843814373016 -0.05338830500841141 0.036741629242897034
		endloop
	endfacet
	facet normal 0.3385256114780741 0.7064503524815228 -0.6215531432243974
		outer loop
			vertex 0.04711055010557175 -0.053792815655469894 0.0257879626005888
			vertex 0.04824415594339371 -0.05699567869305611 0.022765036672353745
			vertex 0.046681083738803864 -0.05473506078124046 0.02448311075568199
		endloop
	endfacet
	facet normal 0.7149867921107976 0.6629959354169747 -0.22187896864660667
		outer loop
			vertex 0.046681083738803864 -0.05473506078124046 0.02448311075568199
			vertex 0.04824415594339371 -0.05699567869305611 0.022765036672353745
			vertex 0.04687877744436264 -0.055564675480127335 0.022641193121671677
		endloop
	endfacet
	facet normal -0.4168400132266365 0.2369395412007413 -0.8775557288222782
		outer loop
			vertex 0.04824415594339371 -0.05699567869305611 0.022765036672353745
			vertex 0.048007331788539886 -0.05437374860048294 0.023585448041558266
			vertex 0.052742309868335724 -0.05229984596371651 0.021896280348300934
		endloop
	endfacet
	facet normal -0.41683994562618176 0.23693946678844605 -0.8775557810238441
		outer loop
			vertex 0.04824415594339371 -0.05699567869305611 0.022765036672353745
			vertex 0.052742309868335724 -0.05229984596371651 0.021896280348300934
			vertex 0.053240008652210236 -0.05661720409989357 0.020494189113378525
		endloop
	endfacet
	facet normal -0.9220571179566829 0.03726373124605723 -0.3852558702460456
		outer loop
			vertex 0.048007331788539886 -0.05437374860048294 0.023585448041558266
			vertex 0.04824415594339371 -0.05699567869305611 0.022765036672353745
			vertex 0.04711055010557175 -0.053792815655469894 0.0257879626005888
		endloop
	endfacet
	facet normal 0.6876644635200244 0.6800932478512072 0.25414712242894577
		outer loop
			vertex 0.04442227631807327 -0.05101362615823746 0.034396808594465256
			vertex 0.04410683363676071 -0.051570918411016464 0.036741629242897034
			vertex 0.0502820685505867 -0.05781489983201027 0.036741629242897034
		endloop
	endfacet
	facet normal 0.687663836784068 0.6800932710848703 0.2541487560553781
		outer loop
			vertex 0.04442227631807327 -0.05101362615823746 0.034396808594465256
			vertex 0.0502820685505867 -0.05781489983201027 0.036741629242897034
			vertex 0.05076446384191513 -0.05727448686957359 0.03399026021361351
		endloop
	endfacet
	facet normal -0.5903510546737328 -0.6307245800514076 0.5036587499136563
		outer loop
			vertex 0.048959843814373016 -0.05338830500841141 0.036741629242897034
			vertex 0.04442227631807327 -0.05101362615823746 0.034396808594465256
			vertex 0.05076446384191513 -0.05727448686957359 0.03399026021361351
		endloop
	endfacet
	facet normal -0.5903560882634082 -0.630723604902249 0.5036540710343151
		outer loop
			vertex 0.048959843814373016 -0.05338830500841141 0.036741629242897034
			vertex 0.05076446384191513 -0.05727448686957359 0.03399026021361351
			vertex 0.05009771138429642 -0.054453346878290176 0.036741629242897034
		endloop
	endfacet
	facet normal 0.3385321563362343 0.7064493517164192 -0.6215507160206563
		outer loop
			vertex 0.03552860766649246 -0.038605429232120514 0.036741629242897034
			vertex 0.04300294071435928 -0.042187146842479706 0.036741629242897034
			vertex 0.04711055010557175 -0.053792815655469894 0.0257879626005888
		endloop
	endfacet
	facet normal 0.33852907306059465 0.7064487251829205 -0.6215531074495253
		outer loop
			vertex 0.03552860766649246 -0.038605429232120514 0.036741629242897034
			vertex 0.04711055010557175 -0.053792815655469894 0.0257879626005888
			vertex 0.046681083738803864 -0.05473506078124046 0.02448311075568199
		endloop
	endfacet
	facet normal 0.7149848334278973 0.662995099523623 -0.2218877778872543
		outer loop
			vertex 0.0328429713845253 -0.0357091948390007 0.036741629242897034
			vertex 0.03552860766649246 -0.038605429232120514 0.036741629242897034
			vertex 0.046681083738803864 -0.05473506078124046 0.02448311075568199
		endloop
	endfacet
	facet normal 0.7149867305923898 0.6629942247254031 -0.22188427852727013
		outer loop
			vertex 0.0328429713845253 -0.0357091948390007 0.036741629242897034
			vertex 0.046681083738803864 -0.05473506078124046 0.02448311075568199
			vertex 0.0482136532664299 -0.061166875064373016 0.010203194804489613
		endloop
	endfacet
	facet normal -0.4168396358116401 0.23694003326417587 -0.8775557752377854
		outer loop
			vertex 0.055555559694767 -0.05106765404343605 0.020892679691314697
			vertex 0.048007331788539886 -0.05437374860048294 0.023585448041558266
			vertex 0.044222764670848846 -0.012473147362470627 0.03669628128409386
		endloop
	endfacet
	facet normal -0.41683977197841954 0.23693997341284304 -0.8775557267183096
		outer loop
			vertex 0.055555559694767 -0.05106765404343605 0.020892679691314697
			vertex 0.044222764670848846 -0.012473147362470627 0.03669628128409386
			vertex 0.04815737158060074 -0.014044664800167084 0.03440302982926369
		endloop
	endfacet
	facet normal -0.4168395993401042 0.2369400320570185 -0.8775557928877231
		outer loop
			vertex 0.055555559694767 -0.05106765404343605 0.020892679691314697
			vertex 0.04815737158060074 -0.014044664800167084 0.03440302982926369
			vertex 0.052352674305438995 -0.02191084995865822 0.030286388471722603
		endloop
	endfacet
	facet normal -0.4168418117846808 0.2369394969814507 -0.877554886442006
		outer loop
			vertex 0.055555559694767 -0.05106765404343605 0.020892679691314697
			vertex 0.052352674305438995 -0.02191084995865822 0.030286388471722603
			vertex 0.055555559694767 -0.047518178820610046 0.021851036697626114
		endloop
	endfacet
	facet normal 0.9189202936097476 0.2010620768269004 0.33935163953372766
		outer loop
			vertex 0.04898186773061752 -0.06162438169121742 0.008394045755267143
			vertex 0.0412650927901268 -0.03406447172164917 0.012961132451891899
			vertex 0.031480394303798676 -0.02948177047073841 0.036741629242897034
		endloop
	endfacet
	facet normal 0.9189204861516362 0.20106325945085768 0.3393504174593541
		outer loop
			vertex 0.04898186773061752 -0.06162438169121742 0.008394045755267143
			vertex 0.031480394303798676 -0.02948177047073841 0.036741629242897034
			vertex 0.03230834752321243 -0.033265769481658936 0.036741629242897034
		endloop
	endfacet
	facet normal 0.9189203463681189 0.2010621299146924 0.3393514652169099
		outer loop
			vertex 0.04898186773061752 -0.06162438169121742 0.008394045755267143
			vertex 0.03230834752321243 -0.033265769481658936 0.036741629242897034
			vertex 0.03397885710000992 -0.037590496242046356 0.034780457615852356
		endloop
	endfacet
	facet normal 0.9189200741429729 0.20105932826914175 0.3393538622927916
		outer loop
			vertex 0.04898186773061752 -0.06162438169121742 0.008394045755267143
			vertex 0.03397885710000992 -0.037590496242046356 0.034780457615852356
			vertex 0.0482136532664299 -0.061166875064373016 0.010203194804489613
		endloop
	endfacet
	facet normal 0.9398988049000611 0.2551361280706169 0.22692684438067426
		outer loop
			vertex 0.0412650927901268 -0.03406447172164917 0.012961132451891899
			vertex 0.03639734536409378 -0.020939167588949203 0.01836574077606201
			vertex 0.03617491573095322 -0.020409395918250084 0.01869138516485691
		endloop
	endfacet
	facet normal 0.9190452062916047 0.2000836344419216 0.3395915900326943
		outer loop
			vertex 0.031480394303798676 -0.02948177047073841 0.036741629242897034
			vertex 0.0412650927901268 -0.03406447172164917 0.012961132451891899
			vertex 0.03617491573095322 -0.020409395918250084 0.01869138516485691
		endloop
	endfacet
	facet normal 0.9190453410612505 0.20008326827668668 0.33959144104251127
		outer loop
			vertex 0.031480394303798676 -0.02948177047073841 0.036741629242897034
			vertex 0.03617491573095322 -0.020409395918250084 0.01869138516485691
			vertex 0.022947005927562714 0.009714764542877674 0.036741629242897034
		endloop
	endfacet
	facet normal 0.896580293646276 0.20144673676315863 0.3944147427424997
		outer loop
			vertex 0.03895846754312515 -0.02703896164894104 0.014616264961659908
			vertex 0.0412650927901268 -0.03406447172164917 0.012961132451891899
			vertex 0.03961982578039169 -0.02843007817864418 0.013823381625115871
		endloop
	endfacet
	facet normal 0.939893147252705 0.2551142587420411 0.22697485925516953
		outer loop
			vertex 0.0412650927901268 -0.03406447172164917 0.012961132451891899
			vertex 0.03895846754312515 -0.02703896164894104 0.014616264961659908
			vertex 0.03639734536409378 -0.020939167588949203 0.01836574077606201
		endloop
	endfacet
	facet normal 0.9189196130793017 0.20106051134504355 0.33935440983705567
		outer loop
			vertex 0.03230834752321243 -0.033265769481658936 0.036741629242897034
			vertex 0.0328429713845253 -0.0357091948390007 0.036741629242897034
			vertex 0.03397885710000992 -0.037590496242046356 0.034780457615852356
		endloop
	endfacet
	facet normal -0.9220361587794802 0.037282323948748565 -0.3853042307374288
		outer loop
			vertex 0.0441928431391716 -0.012744481675326824 0.036741629242897034
			vertex 0.044222764670848846 -0.012473147362470627 0.03669628128409386
			vertex 0.048007331788539886 -0.05437374860048294 0.023585448041558266
		endloop
	endfacet
	facet normal -0.9220569239491727 0.03726523844329604 -0.3852561887902052
		outer loop
			vertex 0.0441928431391716 -0.012744481675326824 0.036741629242897034
			vertex 0.048007331788539886 -0.05437374860048294 0.023585448041558266
			vertex 0.04711055010557175 -0.053792815655469894 0.0257879626005888
		endloop
	endfacet
	facet normal -0.9220583231582578 0.03726427034765907 -0.385252933603417
		outer loop
			vertex 0.0441928431391716 -0.012744481675326824 0.036741629242897034
			vertex 0.04711055010557175 -0.053792815655469894 0.0257879626005888
			vertex 0.04300294071435928 -0.042187146842479706 0.036741629242897034
		endloop
	endfacet
	facet normal 1 0 0
		outer loop
			vertex 0.055555559694767 -0.047518178820610046 0.021851036697626114
			vertex 0.055555559694767 -0.02743782289326191 0.031119566410779953
			vertex 0.055555559694767 -0.04488876089453697 0.03283904492855072
		endloop
	endfacet
	facet normal 1 0 0
		outer loop
			vertex 0.055555559694767 -0.047518178820610046 0.021851036697626114
			vertex 0.055555559694767 -0.04488876089453697 0.03283904492855072
			vertex 0.055555559694767 -0.05106765404343605 0.020892679691314697
		endloop
	endfacet
	facet normal 0.6922942604992177 0.3024165655425646 -0.6551891923446853
		outer loop
			vertex 0.04733147472143173 -0.06745611131191254 0.00395843293517828
			vertex 0.041606657207012177 -0.07934838533401489 -0.007579728960990906
			vertex 0.030535615980625153 -0.07683439552783966 -0.01811736635863781
		endloop
	endfacet
	facet normal 0.6922940351262316 0.3024170276467277 -0.6551892171868815
		outer loop
			vertex 0.04733147472143173 -0.06745611131191254 0.00395843293517828
			vertex 0.030535615980625153 -0.07683439552783966 -0.01811736635863781
			vertex 0.03443101793527603 -0.06130649521946907 -0.00683411443606019
		endloop
	endfacet
	facet normal 0.8886804337409246 0.10191329164303914 -0.4470579019238146
		outer loop
			vertex 0.017952941358089447 -0.04881201684474945 -0.036741629242897034
			vertex 0.03443101793527603 -0.06130649521946907 -0.00683411443606019
			vertex 0.030535615980625153 -0.07683439552783966 -0.01811736635863781
		endloop
	endfacet
	facet normal 0.888680963145796 0.10191439613021883 -0.4470565977632735
		outer loop
			vertex 0.017952941358089447 -0.04881201684474945 -0.036741629242897034
			vertex 0.030535615980625153 -0.07683439552783966 -0.01811736635863781
			vertex 0.01936151832342148 -0.06109463423490524 -0.036741629242897034
		endloop
	endfacet
	facet normal -0.3518499552333252 -0.4086001907326116 -0.8421683282667312
		outer loop
			vertex 0.055555559694767 -0.07667749375104904 0.029259534552693367
			vertex 0.055555559694767 -0.08013410866260529 0.030936602503061295
			vertex 0.05441483110189438 -0.07652406394481659 0.02966167964041233
		endloop
	endfacet
	facet normal -0.029847030062488823 -0.34122739149210435 -0.9395067972569134
		outer loop
			vertex 0.055555559694767 -0.09611718356609344 0.036741629242897034
			vertex 0.04852939397096634 -0.09550260752439499 0.036741629242897034
			vertex 0.04837747663259506 -0.07499494403600693 0.029298104345798492
		endloop
	endfacet
	facet normal -0.029846856259447573 -0.3412273408546658 -0.9395068211698527
		outer loop
			vertex 0.055555559694767 -0.09611718356609344 0.036741629242897034
			vertex 0.04837747663259506 -0.07499494403600693 0.029298104345798492
			vertex 0.05441483110189438 -0.07652406394481659 0.02966167964041233
		endloop
	endfacet
	facet normal -0.02984693260719126 -0.34122734400924737 -0.9395068175986466
		outer loop
			vertex 0.055555559694767 -0.09611718356609344 0.036741629242897034
			vertex 0.05441483110189438 -0.07652406394481659 0.02966167964041233
			vertex 0.055555559694767 -0.08013410866260529 0.030936602503061295
		endloop
	endfacet
	facet normal 0.999150176338873 0.010398562231124312 0.03988477184997259
		outer loop
			vertex 0.04867381602525711 -0.1023595854640007 0.036741629242897034
			vertex 0.04923584312200546 -0.1023595854640007 0.022662334144115448
			vertex 0.04937797039747238 -0.06985838711261749 0.01062836218625307
		endloop
	endfacet
	facet normal 0.9991501347026918 0.010399255850239243 0.03988563402221962
		outer loop
			vertex 0.04867381602525711 -0.1023595854640007 0.036741629242897034
			vertex 0.04937797039747238 -0.06985838711261749 0.01062836218625307
			vertex 0.04924110323190689 -0.0708901509642601 0.0143259447067976
		endloop
	endfacet
	facet normal 0.9991499994971466 0.010401292470053228 0.03988848981604371
		outer loop
			vertex 0.04867381602525711 -0.1023595854640007 0.036741629242897034
			vertex 0.04924110323190689 -0.0708901509642601 0.0143259447067976
			vertex 0.04863853007555008 -0.09897001087665558 0.036741629242897034
		endloop
	endfacet
	facet normal 0.9973171820164117 0.031390438671850304 0.06612925838713658
		outer loop
			vertex 0.04837747663259506 -0.07499494403600693 0.029298104345798492
			vertex 0.04852939397096634 -0.09550260752439499 0.036741629242897034
			vertex 0.04863853007555008 -0.09897001087665558 0.036741629242897034
		endloop
	endfacet
	facet normal 0.9973168334825553 0.031391857639898935 0.06613384100629154
		outer loop
			vertex 0.04837747663259506 -0.07499494403600693 0.029298104345798492
			vertex 0.04863853007555008 -0.09897001087665558 0.036741629242897034
			vertex 0.04924110323190689 -0.0708901509642601 0.0143259447067976
		endloop
	endfacet
	facet normal 0.9344715865891511 -0.12721189721843143 -0.33253569291677865
		outer loop
			vertex 0.04937797039747238 -0.06985838711261749 0.01062836218625307
			vertex 0.04923584312200546 -0.1023595854640007 0.022662334144115448
			vertex 0.044172503054142 -0.1023595854640007 0.008433643728494644
		endloop
	endfacet
	facet normal 0.9344717505976537 -0.12721195613074154 -0.33253520949268967
		outer loop
			vertex 0.04937797039747238 -0.06985838711261749 0.01062836218625307
			vertex 0.044172503054142 -0.1023595854640007 0.008433643728494644
			vertex 0.041606657207012177 -0.07934838533401489 -0.007579728960990906
		endloop
	endfacet
	facet normal 0.9344717192305135 -0.12721122380802527 -0.3325355777892536
		outer loop
			vertex 0.04937797039747238 -0.06985838711261749 0.01062836218625307
			vertex 0.041606657207012177 -0.07934838533401489 -0.007579728960990906
			vertex 0.04733147472143173 -0.06745611131191254 0.00395843293517828
		endloop
	endfacet
	facet normal 1 0 0
		outer loop
			vertex 0.055555559694767 -0.0920988991856575 0.036741629242897034
			vertex 0.055555559694767 -0.09611718356609344 0.036741629242897034
			vertex 0.055555559694767 -0.08013410866260529 0.030936602503061295
		endloop
	endfacet
	facet normal 1 0 0
		outer loop
			vertex 0.055555559694767 -0.08449598401784897 0.036741629242897034
			vertex 0.055555559694767 -0.0920988991856575 0.036741629242897034
			vertex 0.055555559694767 -0.07667749375104904 0.029259534552693367
		endloop
	endfacet
	facet normal 1 0 0
		outer loop
			vertex 0.055555559694767 -0.08449598401784897 0.036741629242897034
			vertex 0.055555559694767 -0.07667749375104904 0.029259534552693367
			vertex 0.055555559694767 -0.07866529375314713 0.036167118698358536
		endloop
	endfacet
	facet normal 0.6922933189046103 0.302417734359389 -0.6551896477699978
		outer loop
			vertex 0.041606657207012177 -0.07934838533401489 -0.007579728960990906
			vertex 0.030529312789440155 -0.1023595854640007 -0.029905732721090317
			vertex 0.024132229387760162 -0.1023595854640007 -0.03666508570313454
		endloop
	endfacet
	facet normal 0.6922942699695054 0.3024164760520654 -0.655189223644315
		outer loop
			vertex 0.041606657207012177 -0.07934838533401489 -0.007579728960990906
			vertex 0.024132229387760162 -0.1023595854640007 -0.03666508570313454
			vertex 0.030535615980625153 -0.07683439552783966 -0.01811736635863781
		endloop
	endfacet
	facet normal 0.8886805359885644 0.10191260500078232 -0.4470578552011276
		outer loop
			vertex 0.01936151832342148 -0.06109463423490524 -0.036741629242897034
			vertex 0.030535615980625153 -0.07683439552783966 -0.01811736635863781
			vertex 0.024132229387760162 -0.1023595854640007 -0.03666508570313454
		endloop
	endfacet
	facet normal 0.8886862517106964 0.10191328716953832 -0.4470463375520396
		outer loop
			vertex 0.01936151832342148 -0.06109463423490524 -0.036741629242897034
			vertex 0.024132229387760162 -0.1023595854640007 -0.03666508570313454
			vertex 0.02409372478723526 -0.1023595854640007 -0.036741629242897034
		endloop
	endfacet
	facet normal 0.9344719218746017 -0.12721167652482357 -0.33253483514322524
		outer loop
			vertex 0.030529312789440155 -0.1023595854640007 -0.029905732721090317
			vertex 0.041606657207012177 -0.07934838533401489 -0.007579728960990906
			vertex 0.044172503054142 -0.1023595854640007 0.008433643728494644
		endloop
	endfacet
	facet normal -1 0 0
		outer loop
			vertex -0.0555555522441864 -0.08065823465585709 -0.036741629242897034
			vertex -0.0555555522441864 -0.1023595854640007 -0.036741629242897034
			vertex -0.0555555522441864 -0.08668363094329834 -0.031114798039197922
		endloop
	endfacet
	facet normal -1 0 0
		outer loop
			vertex -0.0555555522441864 -0.1023595854640007 -0.036741629242897034
			vertex -0.0555555522441864 -0.1023595854640007 -0.01647578366100788
			vertex -0.0555555522441864 -0.08668363094329834 -0.031114798039197922
		endloop
	endfacet
	facet normal -1 0 0
		outer loop
			vertex -0.0555555522441864 0.1023595854640007 -0.036741629242897034
			vertex -0.0555555522441864 -0.0010719033889472485 -0.036741629242897034
			vertex -0.0555555522441864 0.06015556678175926 0.0215926356613636
		endloop
	endfacet
	facet normal -1 0 0
		outer loop
			vertex -0.0555555522441864 0.1023595854640007 -0.036741629242897034
			vertex -0.0555555522441864 0.06015556678175926 0.0215926356613636
			vertex -0.0555555522441864 0.1023595854640007 0.036741629242897034
		endloop
	endfacet
	facet normal -1 0 0
		outer loop
			vertex -0.0555555522441864 0.07605589926242828 0.036741629242897034
			vertex -0.0555555522441864 0.1023595854640007 0.036741629242897034
			vertex -0.0555555522441864 0.06015556678175926 0.0215926356613636
		endloop
	endfacet
	facet normal -1 0 0
		outer loop
			vertex -0.0555555522441864 0.05378648638725281 0.019306479021906853
			vertex -0.0555555522441864 0.06015556678175926 0.0215926356613636
			vertex -0.0555555522441864 0.05192827433347702 0.013754109852015972
		endloop
	endfacet
	facet normal -1 0 0
		outer loop
			vertex -0.0555555522441864 0.05962152034044266 0.036741629242897034
			vertex -0.0555555522441864 0.07605589926242828 0.036741629242897034
			vertex -0.0555555522441864 0.06015556678175926 0.0215926356613636
		endloop
	endfacet
	facet normal -1 0 0
		outer loop
			vertex -0.0555555522441864 0.05962152034044266 0.036741629242897034
			vertex -0.0555555522441864 0.06015556678175926 0.0215926356613636
			vertex -0.0555555522441864 0.05378648638725281 0.019306479021906853
		endloop
	endfacet
	facet normal -1 0 0
		outer loop
			vertex -0.0555555522441864 -0.0010719033889472485 -0.036741629242897034
			vertex -0.0555555522441864 -0.031467895954847336 -0.036741629242897034
			vertex -0.0555555522441864 -0.03810504078865051 -0.01367767434567213
		endloop
	endfacet
	facet normal -1 0 0
		outer loop
			vertex -0.0555555522441864 -0.0010719033889472485 -0.036741629242897034
			vertex -0.0555555522441864 -0.03810504078865051 -0.01367767434567213
			vertex -0.0555555522441864 0.05378648638725281 0.019306479021906853
		endloop
	endfacet
	facet normal -1 0 0
		outer loop
			vertex -0.0555555522441864 -0.0010719033889472485 -0.036741629242897034
			vertex -0.0555555522441864 0.05378648638725281 0.019306479021906853
			vertex -0.0555555522441864 0.05192827433347702 0.013754109852015972
		endloop
	endfacet
	facet normal -1 0 0
		outer loop
			vertex -0.0555555522441864 0.00504238810390234 0.036741629242897034
			vertex -0.0555555522441864 0.05962152034044266 0.036741629242897034
			vertex -0.0555555522441864 0.05378648638725281 0.019306479021906853
		endloop
	endfacet
	facet normal -1 0 0
		outer loop
			vertex -0.0555555522441864 0.00504238810390234 0.036741629242897034
			vertex -0.0555555522441864 0.05378648638725281 0.019306479021906853
			vertex -0.0555555522441864 -0.03810504078865051 -0.01367767434567213
		endloop
	endfacet
	facet normal -1 0 0
		outer loop
			vertex -0.0555555522441864 0.00504238810390234 0.036741629242897034
			vertex -0.0555555522441864 -0.03810504078865051 -0.01367767434567213
			vertex -0.0555555522441864 -0.03840390592813492 -0.012639117427170277
		endloop
	endfacet
	facet normal -1 0 0
		outer loop
			vertex -0.0555555522441864 -0.05261427164077759 0.036741629242897034
			vertex -0.0555555522441864 0.00504238810390234 0.036741629242897034
			vertex -0.0555555522441864 -0.03840390592813492 -0.012639117427170277
		endloop
	endfacet
	facet normal -1 0 0
		outer loop
			vertex -0.0555555522441864 -0.031467895954847336 -0.036741629242897034
			vertex -0.0555555522441864 -0.08065823465585709 -0.036741629242897034
			vertex -0.0555555522441864 -0.08668363094329834 -0.031114798039197922
		endloop
	endfacet
	facet normal -1 0 0
		outer loop
			vertex -0.0555555522441864 -0.031467895954847336 -0.036741629242897034
			vertex -0.0555555522441864 -0.08668363094329834 -0.031114798039197922
			vertex -0.0555555522441864 -0.03810504078865051 -0.01367767434567213
		endloop
	endfacet
	facet normal -1 0 0
		outer loop
			vertex -0.0555555522441864 -0.1023595854640007 -0.01647578366100788
			vertex -0.0555555522441864 -0.1023595854640007 0.036741629242897034
			vertex -0.0555555522441864 -0.08639834076166153 0.036741629242897034
		endloop
	endfacet
	facet normal -1 0 0
		outer loop
			vertex -0.0555555522441864 -0.1023595854640007 -0.01647578366100788
			vertex -0.0555555522441864 -0.08639834076166153 0.036741629242897034
			vertex -0.0555555522441864 -0.048671092838048935 0.023039156571030617
		endloop
	endfacet
	facet normal -1 0 0
		outer loop
			vertex -0.0555555522441864 -0.1023595854640007 -0.01647578366100788
			vertex -0.0555555522441864 -0.048671092838048935 0.023039156571030617
			vertex -0.0555555522441864 -0.03810504078865051 -0.01367767434567213
		endloop
	endfacet
	facet normal -1 0 0
		outer loop
			vertex -0.0555555522441864 -0.1023595854640007 -0.01647578366100788
			vertex -0.0555555522441864 -0.03810504078865051 -0.01367767434567213
			vertex -0.0555555522441864 -0.08668363094329834 -0.031114798039197922
		endloop
	endfacet
	facet normal -1 0 0
		outer loop
			vertex -0.0555555522441864 -0.08639834076166153 0.036741629242897034
			vertex -0.0555555522441864 -0.05261427164077759 0.036741629242897034
			vertex -0.0555555522441864 -0.048671092838048935 0.023039156571030617
		endloop
	endfacet
	facet normal 0 1 0
		outer loop
			vertex 0.012558513320982456 0.1023595854640007 -0.00830556359142065
			vertex 0.016234762966632843 0.1023595854640007 -0.010736847296357155
			vertex 0.017714552581310272 0.1023595854640007 -0.021153073757886887
		endloop
	endfacet
	facet normal 0 1 0
		outer loop
			vertex -0.005520096980035305 0.1023595854640007 0.036741629242897034
			vertex 0.00015182131028268486 0.1023595854640007 0.036741629242897034
			vertex 0.013943352736532688 0.1023595854640007 0.005392258521169424
		endloop
	endfacet
	facet normal 0 1 0
		outer loop
			vertex -0.005520096980035305 0.1023595854640007 0.036741629242897034
			vertex 0.013943352736532688 0.1023595854640007 0.005392258521169424
			vertex 0.016234762966632843 0.1023595854640007 -0.010736847296357155
		endloop
	endfacet
	facet normal 0 1 0
		outer loop
			vertex -0.005520096980035305 0.1023595854640007 0.036741629242897034
			vertex 0.016234762966632843 0.1023595854640007 -0.010736847296357155
			vertex 0.012558513320982456 0.1023595854640007 -0.00830556359142065
		endloop
	endfacet
	facet normal 0 1 0
		outer loop
			vertex -0.0555555522441864 0.1023595854640007 -0.036741629242897034
			vertex -0.0555555522441864 0.1023595854640007 0.036741629242897034
			vertex 0.012558513320982456 0.1023595854640007 -0.00830556359142065
		endloop
	endfacet
	facet normal 0 1 0
		outer loop
			vertex -0.0555555522441864 0.1023595854640007 -0.036741629242897034
			vertex 0.012558513320982456 0.1023595854640007 -0.00830556359142065
			vertex 0.023970656096935272 0.1023595854640007 -0.036741629242897034
		endloop
	endfacet
	facet normal 0 1 0
		outer loop
			vertex -0.0555555522441864 0.1023595854640007 0.036741629242897034
			vertex -0.005520096980035305 0.1023595854640007 0.036741629242897034
			vertex 0.012558513320982456 0.1023595854640007 -0.00830556359142065
		endloop
	endfacet
	facet normal 0 -1 0
		outer loop
			vertex -0.0555555522441864 -0.1023595854640007 -0.01647578366100788
			vertex -0.0555555522441864 -0.1023595854640007 -0.036741629242897034
			vertex -0.03789550065994263 -0.1023595854640007 -0.025062168017029762
		endloop
	endfacet
	facet normal 0 -1 0
		outer loop
			vertex -0.0555555522441864 -0.1023595854640007 -0.036741629242897034
			vertex -0.013873769901692867 -0.1023595854640007 -0.036741629242897034
			vertex -0.03789550065994263 -0.1023595854640007 -0.025062168017029762
		endloop
	endfacet
	facet normal 0 -1 0
		outer loop
			vertex -0.0555555522441864 -0.1023595854640007 0.036741629242897034
			vertex -0.0555555522441864 -0.1023595854640007 -0.01647578366100788
			vertex -0.03789550065994263 -0.1023595854640007 -0.025062168017029762
		endloop
	endfacet
	facet normal 0 -1 0
		outer loop
			vertex -0.0555555522441864 -0.1023595854640007 0.036741629242897034
			vertex -0.03789550065994263 -0.1023595854640007 -0.025062168017029762
			vertex 0.04885081201791763 -0.1023595854640007 0.0323074534535408
		endloop
	endfacet
	facet normal 0 -1 0
		outer loop
			vertex -0.0555555522441864 -0.1023595854640007 0.036741629242897034
			vertex 0.04885081201791763 -0.1023595854640007 0.0323074534535408
			vertex 0.04867381602525711 -0.1023595854640007 0.036741629242897034
		endloop
	endfacet
	facet normal 0 -1 0
		outer loop
			vertex -0.013873769901692867 -0.1023595854640007 -0.036741629242897034
			vertex -0.011296882294118404 -0.1023595854640007 -0.036741629242897034
			vertex 0.044172503054142 -0.1023595854640007 0.008433643728494644
		endloop
	endfacet
	facet normal 0 -1 0
		outer loop
			vertex -0.013873769901692867 -0.1023595854640007 -0.036741629242897034
			vertex 0.044172503054142 -0.1023595854640007 0.008433643728494644
			vertex 0.04923584312200546 -0.1023595854640007 0.022662334144115448
		endloop
	endfacet
	facet normal 0 -1 0
		outer loop
			vertex -0.013873769901692867 -0.1023595854640007 -0.036741629242897034
			vertex 0.04923584312200546 -0.1023595854640007 0.022662334144115448
			vertex 0.04885081201791763 -0.1023595854640007 0.0323074534535408
		endloop
	endfacet
	facet normal 0 -1 0
		outer loop
			vertex -0.013873769901692867 -0.1023595854640007 -0.036741629242897034
			vertex 0.04885081201791763 -0.1023595854640007 0.0323074534535408
			vertex -0.03789550065994263 -0.1023595854640007 -0.025062168017029762
		endloop
	endfacet
	facet normal 0 -1 0
		outer loop
			vertex 0.02405979484319687 -0.1023595854640007 -0.036741629242897034
			vertex 0.02409372478723526 -0.1023595854640007 -0.036741629242897034
			vertex 0.024132229387760162 -0.1023595854640007 -0.03666508570313454
		endloop
	endfacet
	facet normal 0 -1 0
		outer loop
			vertex -0.011296882294118404 -0.1023595854640007 -0.036741629242897034
			vertex 0.02405979484319687 -0.1023595854640007 -0.036741629242897034
			vertex 0.030529312789440155 -0.1023595854640007 -0.029905732721090317
		endloop
	endfacet
	facet normal 0 -1 0
		outer loop
			vertex -0.011296882294118404 -0.1023595854640007 -0.036741629242897034
			vertex 0.030529312789440155 -0.1023595854640007 -0.029905732721090317
			vertex 0.044172503054142 -0.1023595854640007 0.008433643728494644
		endloop
	endfacet
	facet normal 0 0 1
		outer loop
			vertex 0.055555559694767 -0.04676365479826927 0.036741629242897034
			vertex 0.055555559694767 -0.017842154949903488 0.036741629242897034
			vertex 0.045774079859256744 -0.009576007723808289 0.036741629242897034
		endloop
	endfacet
	facet normal 0 0 1
		outer loop
			vertex 0.055555559694767 -0.04676365479826927 0.036741629242897034
			vertex 0.045774079859256744 -0.009576007723808289 0.036741629242897034
			vertex 0.04420968145132065 -0.012328224256634712 0.036741629242897034
		endloop
	endfacet
	facet normal 0 0 1
		outer loop
			vertex 0.055555559694767 -0.04676365479826927 0.036741629242897034
			vertex 0.04420968145132065 -0.012328224256634712 0.036741629242897034
			vertex 0.0441928431391716 -0.012744481675326824 0.036741629242897034
		endloop
	endfacet
	facet normal 0 0 1
		outer loop
			vertex 0.055555559694767 -0.04676365479826927 0.036741629242897034
			vertex 0.0441928431391716 -0.012744481675326824 0.036741629242897034
			vertex 0.048050008714199066 -0.037101056426763535 0.036741629242897034
		endloop
	endfacet
	facet normal 0 0 1
		outer loop
			vertex 0.055555559694767 -0.06623096764087677 0.036741629242897034
			vertex 0.055555559694767 -0.06314709037542343 0.036741629242897034
			vertex 0.05398707836866379 -0.06156115606427193 0.036741629242897034
		endloop
	endfacet
	facet normal 0 0 1
		outer loop
			vertex 0.055555559694767 -0.06623096764087677 0.036741629242897034
			vertex 0.05398707836866379 -0.06156115606427193 0.036741629242897034
			vertex 0.0519886240363121 -0.06197204813361168 0.036741629242897034
		endloop
	endfacet
	facet normal 0 0 1
		outer loop
			vertex 0.055555559694767 -0.06623096764087677 0.036741629242897034
			vertex 0.0519886240363121 -0.06197204813361168 0.036741629242897034
			vertex 0.053470127284526825 -0.07132722437381744 0.036741629242897034
		endloop
	endfacet
	facet normal 0 0 1
		outer loop
			vertex 0.055555559694767 -0.059561826288700104 0.036741629242897034
			vertex 0.055555559694767 -0.05200270563364029 0.036741629242897034
			vertex 0.05027564615011215 -0.0511552132666111 0.036741629242897034
		endloop
	endfacet
	facet normal 0 0 1
		outer loop
			vertex 0.055555559694767 -0.059561826288700104 0.036741629242897034
			vertex 0.05027564615011215 -0.0511552132666111 0.036741629242897034
			vertex 0.05091980844736099 -0.055222805589437485 0.036741629242897034
		endloop
	endfacet
	facet normal 0 0 1
		outer loop
			vertex 0.051530130207538605 -0.059076856821775436 0.036741629242897034
			vertex 0.0519886240363121 -0.06197204813361168 0.036741629242897034
			vertex 0.05398707836866379 -0.06156115606427193 0.036741629242897034
		endloop
	endfacet
	facet normal 0 0 1
		outer loop
			vertex 0.055555559694767 -0.05200270563364029 0.036741629242897034
			vertex 0.055555559694767 -0.04676365479826927 0.036741629242897034
			vertex 0.053517021238803864 -0.04413926973938942 0.036741629242897034
		endloop
	endfacet
	facet normal 0 0 1
		outer loop
			vertex 0.055555559694767 -0.05200270563364029 0.036741629242897034
			vertex 0.053517021238803864 -0.04413926973938942 0.036741629242897034
			vertex 0.049663640558719635 -0.04653804004192352 0.036741629242897034
		endloop
	endfacet
	facet normal 0 0 1
		outer loop
			vertex 0.055555559694767 -0.05200270563364029 0.036741629242897034
			vertex 0.049663640558719635 -0.04653804004192352 0.036741629242897034
			vertex 0.04972677677869797 -0.0476892925798893 0.036741629242897034
		endloop
	endfacet
	facet normal 0 0 1
		outer loop
			vertex 0.055555559694767 -0.05200270563364029 0.036741629242897034
			vertex 0.04972677677869797 -0.0476892925798893 0.036741629242897034
			vertex 0.05027564615011215 -0.0511552132666111 0.036741629242897034
		endloop
	endfacet
	facet normal 0 0 1
		outer loop
			vertex 0.049663640558719635 -0.04653804004192352 0.036741629242897034
			vertex 0.049555160105228424 -0.04660557210445404 0.036741629242897034
			vertex 0.04972677677869797 -0.0476892925798893 0.036741629242897034
		endloop
	endfacet
	facet normal 0 0 1
		outer loop
			vertex 0.053517021238803864 -0.04413926973938942 0.036741629242897034
			vertex 0.048050008714199066 -0.037101056426763535 0.036741629242897034
			vertex 0.04933605343103409 -0.045221999287605286 0.036741629242897034
		endloop
	endfacet
	facet normal 0 0 1
		outer loop
			vertex 0.053517021238803864 -0.04413926973938942 0.036741629242897034
			vertex 0.04933605343103409 -0.045221999287605286 0.036741629242897034
			vertex 0.05071569234132767 -0.04588313028216362 0.036741629242897034
		endloop
	endfacet
	facet normal 0 0 1
		outer loop
			vertex 0.04933605343103409 -0.045221999287605286 0.036741629242897034
			vertex 0.049555160105228424 -0.04660557210445404 0.036741629242897034
			vertex 0.05071569234132767 -0.04588313028216362 0.036741629242897034
		endloop
	endfacet
	facet normal 0 0 1
		outer loop
			vertex 0.055555559694767 -0.08449598401784897 0.036741629242897034
			vertex 0.055555559694767 -0.07883062213659286 0.036741629242897034
			vertex 0.0546235516667366 -0.07861071825027466 0.036741629242897034
		endloop
	endfacet
	facet normal 0 0 1
		outer loop
			vertex 0.015588843263685703 0.02872202917933464 0.036741629242897034
			vertex 0.017516352236270905 0.03227340057492256 0.036741629242897034
			vertex 0.016003288328647614 0.03784787282347679 0.036741629242897034
		endloop
	endfacet
	facet normal 0 0 1
		outer loop
			vertex 0.017516352236270905 0.03227340057492256 0.036741629242897034
			vertex 0.015588843263685703 0.02872202917933464 0.036741629242897034
			vertex 0.015029528178274632 0.016405681148171425 0.036741629242897034
		endloop
	endfacet
	facet normal 0 0 1
		outer loop
			vertex 0.017516352236270905 0.03227340057492256 0.036741629242897034
			vertex 0.015029528178274632 0.016405681148171425 0.036741629242897034
			vertex 0.022947005927562714 0.009714764542877674 0.036741629242897034
		endloop
	endfacet
	facet normal 0 0 1
		outer loop
			vertex 0.017516352236270905 0.03227340057492256 0.036741629242897034
			vertex 0.022947005927562714 0.009714764542877674 0.036741629242897034
			vertex 0.02014092355966568 0.022603970021009445 0.036741629242897034
		endloop
	endfacet
	facet normal 0 0 1
		outer loop
			vertex 0.015775106847286224 0.03282332047820091 0.036741629242897034
			vertex 0.016003288328647614 0.03784787282347679 0.036741629242897034
			vertex 0.008124166168272495 0.06687618792057037 0.036741629242897034
		endloop
	endfacet
	facet normal 0 0 1
		outer loop
			vertex 0.007123702205717564 0.02308676205575466 0.036741629242897034
			vertex 0.010830246843397617 0.01995442435145378 0.036741629242897034
			vertex 0.015588843263685703 0.02872202917933464 0.036741629242897034
		endloop
	endfacet
	facet normal 0 0 1
		outer loop
			vertex 0.007123702205717564 0.02308676205575466 0.036741629242897034
			vertex 0.015588843263685703 0.02872202917933464 0.036741629242897034
			vertex 0.015775106847286224 0.03282332047820091 0.036741629242897034
		endloop
	endfacet
	facet normal 0 0 1
		outer loop
			vertex 0.007123702205717564 0.02308676205575466 0.036741629242897034
			vertex 0.015775106847286224 0.03282332047820091 0.036741629242897034
			vertex 0.00015182131028268486 0.1023595854640007 0.036741629242897034
		endloop
	endfacet
	facet normal 0 0 1
		outer loop
			vertex 0.007123702205717564 0.02308676205575466 0.036741629242897034
			vertex 0.00015182131028268486 0.1023595854640007 0.036741629242897034
			vertex -0.005520096980035305 0.1023595854640007 0.036741629242897034
		endloop
	endfacet
	facet normal 0 0 1
		outer loop
			vertex 0.015588843263685703 0.02872202917933464 0.036741629242897034
			vertex 0.010830246843397617 0.01995442435145378 0.036741629242897034
			vertex 0.015029528178274632 0.016405681148171425 0.036741629242897034
		endloop
	endfacet
	facet normal 0 0 1
		outer loop
			vertex -0.0555555522441864 0.1023595854640007 0.036741629242897034
			vertex -0.0555555522441864 0.07605589926242828 0.036741629242897034
			vertex 0.007123702205717564 0.02308676205575466 0.036741629242897034
		endloop
	endfacet
	facet normal 0 0 1
		outer loop
			vertex -0.0555555522441864 0.1023595854640007 0.036741629242897034
			vertex 0.007123702205717564 0.02308676205575466 0.036741629242897034
			vertex -0.005520096980035305 0.1023595854640007 0.036741629242897034
		endloop
	endfacet
	facet normal 0 0 1
		outer loop
			vertex 0.05091980844736099 -0.055222805589437485 0.036741629242897034
			vertex 0.04972677677869797 -0.0476892925798893 0.036741629242897034
			vertex 0.05009771138429642 -0.054453346878290176 0.036741629242897034
		endloop
	endfacet
	facet normal 0 0 1
		outer loop
			vertex 0.053470127284526825 -0.07132722437381744 0.036741629242897034
			vertex 0.051530130207538605 -0.059076856821775436 0.036741629242897034
			vertex 0.0502820685505867 -0.05781489983201027 0.036741629242897034
		endloop
	endfacet
	facet normal 0 0 1
		outer loop
			vertex 0.053470127284526825 -0.07132722437381744 0.036741629242897034
			vertex 0.0502820685505867 -0.05781489983201027 0.036741629242897034
			vertex 0.051312290132045746 -0.07660043984651566 0.036741629242897034
		endloop
	endfacet
	facet normal 0 0 1
		outer loop
			vertex 0.022374175488948822 -0.06352601200342178 0.036741629242897034
			vertex 0.01366604957729578 -0.06894690543413162 0.036741629242897034
			vertex 0.03433191031217575 -0.07382296025753021 0.036741629242897034
		endloop
	endfacet
	facet normal 0 0 1
		outer loop
			vertex 0.048959843814373016 -0.05338830500841141 0.036741629242897034
			vertex 0.05006194859743118 -0.053801029920578 0.036741629242897034
			vertex 0.049913667142391205 -0.05109710991382599 0.036741629242897034
		endloop
	endfacet
	facet normal 0 0 1
		outer loop
			vertex 0.048959843814373016 -0.05338830500841141 0.036741629242897034
			vertex 0.049913667142391205 -0.05109710991382599 0.036741629242897034
			vertex 0.0458078607916832 -0.050438083708286285 0.036741629242897034
		endloop
	endfacet
	facet normal 0 0 1
		outer loop
			vertex 0.04972677677869797 -0.0476892925798893 0.036741629242897034
			vertex 0.049555160105228424 -0.04660557210445404 0.036741629242897034
			vertex 0.04389248043298721 -0.05013063922524452 0.036741629242897034
		endloop
	endfacet
	facet normal 0 0 1
		outer loop
			vertex 0.04972677677869797 -0.0476892925798893 0.036741629242897034
			vertex 0.04389248043298721 -0.05013063922524452 0.036741629242897034
			vertex 0.049913667142391205 -0.05109710991382599 0.036741629242897034
		endloop
	endfacet
	facet normal 0 0 1
		outer loop
			vertex 0.05009771138429642 -0.054453346878290176 0.036741629242897034
			vertex 0.05006194859743118 -0.053801029920578 0.036741629242897034
			vertex 0.048959843814373016 -0.05338830500841141 0.036741629242897034
		endloop
	endfacet
	facet normal 0 0 1
		outer loop
			vertex 0.04252839833498001 -0.05097980797290802 0.036741629242897034
			vertex 0.022374175488948822 -0.06352601200342178 0.036741629242897034
			vertex 0.03433191031217575 -0.07382296025753021 0.036741629242897034
		endloop
	endfacet
	facet normal 0 0 1
		outer loop
			vertex 0.04252839833498001 -0.05097980797290802 0.036741629242897034
			vertex 0.03433191031217575 -0.07382296025753021 0.036741629242897034
			vertex 0.051380567252635956 -0.07784554362297058 0.036741629242897034
		endloop
	endfacet
	facet normal 0 0 1
		outer loop
			vertex 0.04252839833498001 -0.05097980797290802 0.036741629242897034
			vertex 0.051380567252635956 -0.07784554362297058 0.036741629242897034
			vertex 0.0502820685505867 -0.05781489983201027 0.036741629242897034
		endloop
	endfacet
	facet normal 0 0 1
		outer loop
			vertex 0.04252839833498001 -0.05097980797290802 0.036741629242897034
			vertex 0.0502820685505867 -0.05781489983201027 0.036741629242897034
			vertex 0.04410683363676071 -0.051570918411016464 0.036741629242897034
		endloop
	endfacet
	facet normal 0 0 1
		outer loop
			vertex 0.022947005927562714 0.009714764542877674 0.036741629242897034
			vertex 0.02289436012506485 0.009759251028299332 0.036741629242897034
			vertex 0.031480394303798676 -0.02948177047073841 0.036741629242897034
		endloop
	endfacet
	facet normal 0 0 1
		outer loop
			vertex 0.02289436012506485 0.009759251028299332 0.036741629242897034
			vertex 0.020503051578998566 0.011780099011957645 0.036741629242897034
			vertex 0.030638791620731354 -0.033332157880067825 0.036741629242897034
		endloop
	endfacet
	facet normal 0 0 1
		outer loop
			vertex 0.02289436012506485 0.009759251028299332 0.036741629242897034
			vertex 0.030638791620731354 -0.033332157880067825 0.036741629242897034
			vertex 0.03165046125650406 -0.034423165023326874 0.036741629242897034
		endloop
	endfacet
	facet normal 0 0 1
		outer loop
			vertex 0.02289436012506485 0.009759251028299332 0.036741629242897034
			vertex 0.03165046125650406 -0.034423165023326874 0.036741629242897034
			vertex 0.03230834752321243 -0.033265769481658936 0.036741629242897034
		endloop
	endfacet
	facet normal 0 0 1
		outer loop
			vertex -0.0555555522441864 0.07605589926242828 0.036741629242897034
			vertex -0.0555555522441864 0.05962152034044266 0.036741629242897034
			vertex -0.00009950912499334663 -0.0001833583228290081 0.036741629242897034
		endloop
	endfacet
	facet normal 0 0 1
		outer loop
			vertex -0.0555555522441864 0.07605589926242828 0.036741629242897034
			vertex -0.00009950912499334663 -0.0001833583228290081 0.036741629242897034
			vertex 0.010830246843397617 0.01995442435145378 0.036741629242897034
		endloop
	endfacet
	facet normal 0 0 1
		outer loop
			vertex 0.020503051578998566 0.011780099011957645 0.036741629242897034
			vertex 0.010830246843397617 0.01995442435145378 0.036741629242897034
			vertex -0.00009950912499334663 -0.0001833583228290081 0.036741629242897034
		endloop
	endfacet
	facet normal 0 0 1
		outer loop
			vertex 0.020503051578998566 0.011780099011957645 0.036741629242897034
			vertex -0.00009950912499334663 -0.0001833583228290081 0.036741629242897034
			vertex 0.030638791620731354 -0.033332157880067825 0.036741629242897034
		endloop
	endfacet
	facet normal 0 0 1
		outer loop
			vertex 0.04933605343103409 -0.045221999287605286 0.036741629242897034
			vertex 0.0441928431391716 -0.012744481675326824 0.036741629242897034
			vertex 0.04300294071435928 -0.042187146842479706 0.036741629242897034
		endloop
	endfacet
	facet normal 0 0 1
		outer loop
			vertex 0.03230834752321243 -0.033265769481658936 0.036741629242897034
			vertex 0.03165046125650406 -0.034423165023326874 0.036741629242897034
			vertex 0.0328429713845253 -0.0357091948390007 0.036741629242897034
		endloop
	endfacet
	facet normal 0 0 1
		outer loop
			vertex -0.0555555522441864 0.05962152034044266 0.036741629242897034
			vertex -0.0555555522441864 0.00504238810390234 0.036741629242897034
			vertex -0.009295008145272732 -0.01712580770254135 0.036741629242897034
		endloop
	endfacet
	facet normal 0 0 1
		outer loop
			vertex -0.0555555522441864 0.05962152034044266 0.036741629242897034
			vertex -0.009295008145272732 -0.01712580770254135 0.036741629242897034
			vertex -0.00009950912499334663 -0.0001833583228290081 0.036741629242897034
		endloop
	endfacet
	facet normal 0 0 1
		outer loop
			vertex -0.00009950912499334663 -0.0001833583228290081 0.036741629242897034
			vertex -0.009295008145272732 -0.01712580770254135 0.036741629242897034
			vertex 0.03552860766649246 -0.038605429232120514 0.036741629242897034
		endloop
	endfacet
	facet normal 0 0 1
		outer loop
			vertex -0.0555555522441864 0.00504238810390234 0.036741629242897034
			vertex -0.0555555522441864 -0.05261427164077759 0.036741629242897034
			vertex -0.03162135183811188 -0.058261480182409286 0.036741629242897034
		endloop
	endfacet
	facet normal 0 0 1
		outer loop
			vertex -0.0555555522441864 0.00504238810390234 0.036741629242897034
			vertex -0.03162135183811188 -0.058261480182409286 0.036741629242897034
			vertex -0.009295008145272732 -0.01712580770254135 0.036741629242897034
		endloop
	endfacet
	facet normal 0 0 1
		outer loop
			vertex 0.049555160105228424 -0.04660557210445404 0.036741629242897034
			vertex 0.04933605343103409 -0.045221999287605286 0.036741629242897034
			vertex -0.009295008145272732 -0.01712580770254135 0.036741629242897034
		endloop
	endfacet
	facet normal 0 0 1
		outer loop
			vertex 0.049555160105228424 -0.04660557210445404 0.036741629242897034
			vertex -0.009295008145272732 -0.01712580770254135 0.036741629242897034
			vertex -0.03162135183811188 -0.058261480182409286 0.036741629242897034
		endloop
	endfacet
	facet normal 0 0 1
		outer loop
			vertex 0.049555160105228424 -0.04660557210445404 0.036741629242897034
			vertex -0.03162135183811188 -0.058261480182409286 0.036741629242897034
			vertex 0.01366604957729578 -0.06894690543413162 0.036741629242897034
		endloop
	endfacet
	facet normal 0 0 1
		outer loop
			vertex -0.0555555522441864 -0.08639834076166153 0.036741629242897034
			vertex -0.0555555522441864 -0.1023595854640007 0.036741629242897034
			vertex -0.047285228967666626 -0.08712173253297806 0.036741629242897034
		endloop
	endfacet
	facet normal 0 0 1
		outer loop
			vertex -0.0555555522441864 -0.1023595854640007 0.036741629242897034
			vertex 0.04867381602525711 -0.1023595854640007 0.036741629242897034
			vertex 0.04863853007555008 -0.09897001087665558 0.036741629242897034
		endloop
	endfacet
	facet normal 0 0 1
		outer loop
			vertex -0.0555555522441864 -0.1023595854640007 0.036741629242897034
			vertex 0.04863853007555008 -0.09897001087665558 0.036741629242897034
			vertex 0.04852939397096634 -0.09550260752439499 0.036741629242897034
		endloop
	endfacet
	facet normal 0 0 1
		outer loop
			vertex -0.0555555522441864 -0.1023595854640007 0.036741629242897034
			vertex 0.04852939397096634 -0.09550260752439499 0.036741629242897034
			vertex -0.047285228967666626 -0.08712173253297806 0.036741629242897034
		endloop
	endfacet
	facet normal 0 0 1
		outer loop
			vertex -0.0555555522441864 -0.05261427164077759 0.036741629242897034
			vertex -0.0555555522441864 -0.08639834076166153 0.036741629242897034
			vertex -0.047285228967666626 -0.08712173253297806 0.036741629242897034
		endloop
	endfacet
	facet normal 0 0 1
		outer loop
			vertex -0.0555555522441864 -0.05261427164077759 0.036741629242897034
			vertex -0.047285228967666626 -0.08712173253297806 0.036741629242897034
			vertex -0.03162135183811188 -0.058261480182409286 0.036741629242897034
		endloop
	endfacet
	facet normal 0 0 1
		outer loop
			vertex 0.055555559694767 -0.09611718356609344 0.036741629242897034
			vertex 0.055555559694767 -0.0920988991856575 0.036741629242897034
			vertex 0.03433191031217575 -0.07382296025753021 0.036741629242897034
		endloop
	endfacet
	facet normal 0 0 1
		outer loop
			vertex 0.055555559694767 -0.09611718356609344 0.036741629242897034
			vertex 0.03433191031217575 -0.07382296025753021 0.036741629242897034
			vertex -0.03162135183811188 -0.058261480182409286 0.036741629242897034
		endloop
	endfacet
	facet normal 0 0 1
		outer loop
			vertex 0.055555559694767 -0.09611718356609344 0.036741629242897034
			vertex -0.03162135183811188 -0.058261480182409286 0.036741629242897034
			vertex -0.047285228967666626 -0.08712173253297806 0.036741629242897034
		endloop
	endfacet
	facet normal 0 0 1
		outer loop
			vertex 0.055555559694767 -0.0920988991856575 0.036741629242897034
			vertex 0.055555559694767 -0.08449598401784897 0.036741629242897034
			vertex 0.0546235516667366 -0.07861071825027466 0.036741629242897034
		endloop
	endfacet
	facet normal 0 0 1
		outer loop
			vertex 0.055555559694767 -0.0920988991856575 0.036741629242897034
			vertex 0.0546235516667366 -0.07861071825027466 0.036741629242897034
			vertex 0.03433191031217575 -0.07382296025753021 0.036741629242897034
		endloop
	endfacet
	facet normal 0 0 -1
		outer loop
			vertex -0.013873769901692867 -0.1023595854640007 -0.036741629242897034
			vertex -0.0555555522441864 -0.1023595854640007 -0.036741629242897034
			vertex -0.0555555522441864 -0.08065823465585709 -0.036741629242897034
		endloop
	endfacet
	facet normal 0 0 -1
		outer loop
			vertex 0.01566518098115921 -0.028862664476037025 -0.036741629242897034
			vertex 0.013713658787310123 -0.025267040356993675 -0.036741629242897034
			vertex 0.014871709980070591 -0.021943598985671997 -0.036741629242897034
		endloop
	endfacet
	facet normal 0 0 -1
		outer loop
			vertex 0.013713658787310123 -0.025267040356993675 -0.036741629242897034
			vertex 0.01566518098115921 -0.028862664476037025 -0.036741629242897034
			vertex 0.017952941358089447 -0.04881201684474945 -0.036741629242897034
		endloop
	endfacet
	facet normal 0 0 -1
		outer loop
			vertex 0.013713658787310123 -0.025267040356993675 -0.036741629242897034
			vertex 0.017952941358089447 -0.04881201684474945 -0.036741629242897034
			vertex 0.006454759277403355 -0.04609905183315277 -0.036741629242897034
		endloop
	endfacet
	facet normal 0 0 -1
		outer loop
			vertex 0.013713658787310123 -0.025267040356993675 -0.036741629242897034
			vertex -0.0025833463296294212 0.0047597563825547695 -0.036741629242897034
			vertex 0.028863005340099335 0.01820945180952549 -0.036741629242897034
		endloop
	endfacet
	facet normal 0 0 -1
		outer loop
			vertex -0.0025833463296294212 0.0047597563825547695 -0.036741629242897034
			vertex 0.013713658787310123 -0.025267040356993675 -0.036741629242897034
			vertex 0.006454759277403355 -0.04609905183315277 -0.036741629242897034
		endloop
	endfacet
	facet normal 0 0 -1
		outer loop
			vertex -0.0025833463296294212 0.0047597563825547695 -0.036741629242897034
			vertex 0.006454759277403355 -0.04609905183315277 -0.036741629242897034
			vertex -0.005655332468450069 -0.0432417094707489 -0.036741629242897034
		endloop
	endfacet
	facet normal 0 0 -1
		outer loop
			vertex -0.0025833463296294212 0.0047597563825547695 -0.036741629242897034
			vertex -0.005655332468450069 -0.0432417094707489 -0.036741629242897034
			vertex -0.04233674705028534 -0.012242883443832397 -0.036741629242897034
		endloop
	endfacet
	facet normal 0 0 -1
		outer loop
			vertex 0.03471411019563675 0.035001304000616074 -0.036741629242897034
			vertex 0.03480573743581772 0.03442690521478653 -0.036741629242897034
			vertex 0.03475738316774368 0.030299575999379158 -0.036741629242897034
		endloop
	endfacet
	facet normal 0 0 -1
		outer loop
			vertex 0.03471411019563675 0.035001304000616074 -0.036741629242897034
			vertex 0.03475738316774368 0.030299575999379158 -0.036741629242897034
			vertex 0.03231453150510788 0.02811482921242714 -0.036741629242897034
		endloop
	endfacet
	facet normal 0 0 -1
		outer loop
			vertex -0.0025833463296294212 0.0047597563825547695 -0.036741629242897034
			vertex -0.0555555522441864 0.1023595854640007 -0.036741629242897034
			vertex 0.023970656096935272 0.1023595854640007 -0.036741629242897034
		endloop
	endfacet
	facet normal 0 0 -1
		outer loop
			vertex -0.0025833463296294212 0.0047597563825547695 -0.036741629242897034
			vertex 0.023970656096935272 0.1023595854640007 -0.036741629242897034
			vertex 0.03471411019563675 0.035001304000616074 -0.036741629242897034
		endloop
	endfacet
	facet normal 0 0 -1
		outer loop
			vertex -0.0025833463296294212 0.0047597563825547695 -0.036741629242897034
			vertex 0.03471411019563675 0.035001304000616074 -0.036741629242897034
			vertex 0.028863005340099335 0.01820945180952549 -0.036741629242897034
		endloop
	endfacet
	facet normal 0 0 -1
		outer loop
			vertex -0.0555555522441864 -0.0010719033889472485 -0.036741629242897034
			vertex -0.0555555522441864 0.1023595854640007 -0.036741629242897034
			vertex -0.0025833463296294212 0.0047597563825547695 -0.036741629242897034
		endloop
	endfacet
	facet normal 0 0 -1
		outer loop
			vertex -0.0555555522441864 -0.0010719033889472485 -0.036741629242897034
			vertex -0.0025833463296294212 0.0047597563825547695 -0.036741629242897034
			vertex -0.04233674705028534 -0.012242883443832397 -0.036741629242897034
		endloop
	endfacet
	facet normal 0 0 -1
		outer loop
			vertex -0.0555555522441864 -0.031467895954847336 -0.036741629242897034
			vertex -0.0555555522441864 -0.0010719033889472485 -0.036741629242897034
			vertex -0.005655332468450069 -0.0432417094707489 -0.036741629242897034
		endloop
	endfacet
	facet normal 0 0 -1
		outer loop
			vertex -0.0013177908258512616 -0.04426513984799385 -0.036741629242897034
			vertex 0.017952941358089447 -0.04881201684474945 -0.036741629242897034
			vertex 0.01936151832342148 -0.06109463423490524 -0.036741629242897034
		endloop
	endfacet
	facet normal 0 0 -1
		outer loop
			vertex -0.0013177908258512616 -0.04426513984799385 -0.036741629242897034
			vertex 0.01936151832342148 -0.06109463423490524 -0.036741629242897034
			vertex 0.010968589223921299 -0.07239115983247757 -0.036741629242897034
		endloop
	endfacet
	facet normal 0 0 -1
		outer loop
			vertex -0.011296882294118404 -0.1023595854640007 -0.036741629242897034
			vertex -0.013873769901692867 -0.1023595854640007 -0.036741629242897034
			vertex -0.0555555522441864 -0.08065823465585709 -0.036741629242897034
		endloop
	endfacet
	facet normal 0 0 -1
		outer loop
			vertex -0.011296882294118404 -0.1023595854640007 -0.036741629242897034
			vertex -0.0555555522441864 -0.08065823465585709 -0.036741629242897034
			vertex -0.0555555522441864 -0.031467895954847336 -0.036741629242897034
		endloop
	endfacet
	facet normal 0 0 -1
		outer loop
			vertex -0.011296882294118404 -0.1023595854640007 -0.036741629242897034
			vertex -0.0555555522441864 -0.031467895954847336 -0.036741629242897034
			vertex -0.0013177908258512616 -0.04426513984799385 -0.036741629242897034
		endloop
	endfacet
	facet normal 0 0 -1
		outer loop
			vertex -0.011296882294118404 -0.1023595854640007 -0.036741629242897034
			vertex -0.0013177908258512616 -0.04426513984799385 -0.036741629242897034
			vertex 0.010968589223921299 -0.07239115983247757 -0.036741629242897034
		endloop
	endfacet
	facet normal 0 0 -1
		outer loop
			vertex 0.02409372478723526 -0.1023595854640007 -0.036741629242897034
			vertex 0.02405979484319687 -0.1023595854640007 -0.036741629242897034
			vertex 0.010968589223921299 -0.07239115983247757 -0.036741629242897034
		endloop
	endfacet
	facet normal 0 0 -1
		outer loop
			vertex 0.02409372478723526 -0.1023595854640007 -0.036741629242897034
			vertex 0.010968589223921299 -0.07239115983247757 -0.036741629242897034
			vertex 0.01936151832342148 -0.06109463423490524 -0.036741629242897034
		endloop
	endfacet
	facet normal 0 0 -1
		outer loop
			vertex 0.02405979484319687 -0.1023595854640007 -0.036741629242897034
			vertex -0.011296882294118404 -0.1023595854640007 -0.036741629242897034
			vertex 0.010968589223921299 -0.07239115983247757 -0.036741629242897034
		endloop
	endfacet
endsolid exported
