solid exported
	facet normal 0.17569509847417622 -0.8046714955906821 -0.5671287477777903
		outer loop
			vertex -0.018197260797023773 -0.011145851574838161 0.03674162179231644
			vertex -0.0252988338470459 -0.012696436606347561 0.03674162179231644
			vertex -0.020527832210063934 -0.006659901235252619 0.029654718935489655
		endloop
	endfacet
	facet normal 0.175690946939151 -0.8046727877830869 -0.5671282004670721
		outer loop
			vertex -0.018197260797023773 -0.011145851574838161 0.03674162179231644
			vertex -0.020527832210063934 -0.006659901235252619 0.029654718935489655
			vertex -0.018134653568267822 -0.009548044763505459 0.034493960440158844
		endloop
	endfacet
	facet normal -0.44500489397968185 0.8071432126549954 0.3879310229913366
		outer loop
			vertex -0.02040742337703705 -0.009999639354646206 0.03674162179231644
			vertex -0.020527832210063934 -0.006659901235252619 0.029654718935489655
			vertex -0.0252988338470459 -0.012696436606347561 0.03674162179231644
		endloop
	endfacet
	facet normal 0.18192907416013696 -0.8038303272965546 -0.5663555569547716
		outer loop
			vertex -0.018197260797023773 -0.011145851574838161 0.03674162179231644
			vertex -0.018134653568267822 -0.009548044763505459 0.034493960440158844
			vertex -0.01704224944114685 -0.010884440504014492 0.03674162179231644
		endloop
	endfacet
	facet normal 0 1 0
		outer loop
			vertex -0.0555555522441864 0.10202724486589432 0.03674162179231644
			vertex 0.055555559694767 0.10202724486589432 0.03674162179231644
			vertex 0.055555559694767 0.10202724486589432 0.00862229522317648
		endloop
	endfacet
	facet normal 0 1 0
		outer loop
			vertex -0.0555555522441864 0.10202724486589432 0.03674162179231644
			vertex 0.055555559694767 0.10202724486589432 0.00862229522317648
			vertex -0.0555555522441864 0.10202724486589432 0.00862229522317648
		endloop
	endfacet
	facet normal -0.30264316281380793 -0.9004419660852523 -0.3124282024955177
		outer loop
			vertex -0.02113555371761322 -0.006050860974937677 0.03674162179231644
			vertex -0.017890773713588715 -0.0033233673311769962 0.025737620890140533
			vertex -0.016233541071414948 -0.007698452565819025 0.03674162179231644
		endloop
	endfacet
	facet normal -0.29272894936543414 -0.9043839432988495 -0.31048260065039474
		outer loop
			vertex -0.02113555371761322 -0.006050860974937677 0.03674162179231644
			vertex -0.0555555522441864 0.0050901263020932674 0.03674162179231644
			vertex -0.0555555522441864 0.0066655962727963924 0.03215254098176956
		endloop
	endfacet
	facet normal -0.29272910415345954 -0.9043841218810956 -0.31048193453222517
		outer loop
			vertex -0.02113555371761322 -0.006050860974937677 0.03674162179231644
			vertex -0.0555555522441864 0.0066655962727963924 0.03215254098176956
			vertex -0.017890773713588715 -0.0033233673311769962 0.025737620890140533
		endloop
	endfacet
	facet normal 0.17569375590051214 -0.8046716669014509 -0.5671289206376378
		outer loop
			vertex -0.020527832210063934 -0.006659901235252619 0.029654718935489655
			vertex -0.017890773713588715 -0.0033233673311769962 0.025737620890140533
			vertex -0.018134653568267822 -0.009548044763505459 0.034493960440158844
		endloop
	endfacet
	facet normal -0.44500281728662694 0.8071441658605746 0.38793142193460217
		outer loop
			vertex -0.016233541071414948 -0.007698452565819025 0.03674162179231644
			vertex -0.017890773713588715 -0.0033233673311769962 0.025737620890140533
			vertex -0.020527832210063934 -0.006659901235252619 0.029654718935489655
		endloop
	endfacet
	facet normal -0.44500283501914717 0.8071441519029072 0.38793143063415003
		outer loop
			vertex -0.016233541071414948 -0.007698452565819025 0.03674162179231644
			vertex -0.020527832210063934 -0.006659901235252619 0.029654718935489655
			vertex -0.02040742337703705 -0.009999639354646206 0.03674162179231644
		endloop
	endfacet
	facet normal 0.18192609200020524 -0.8038302829810062 -0.5663565777954805
		outer loop
			vertex -0.017890773713588715 -0.0033233673311769962 0.025737620890140533
			vertex -0.010894312523305416 -0.00949301477521658 0.03674162179231644
			vertex -0.01704224944114685 -0.010884440504014492 0.03674162179231644
		endloop
	endfacet
	facet normal 0.18193194687752892 -0.8038291757862048 -0.5663562684920355
		outer loop
			vertex -0.017890773713588715 -0.0033233673311769962 0.025737620890140533
			vertex -0.01704224944114685 -0.010884440504014492 0.03674162179231644
			vertex -0.018134653568267822 -0.009548044763505459 0.034493960440158844
		endloop
	endfacet
	facet normal -0.2926247617776511 -0.6574920236483421 -0.6943162014769503
		outer loop
			vertex -0.0555555522441864 0.007327818777412176 0.03152544051408768
			vertex -0.017890773713588715 -0.0033233673311769962 0.025737620890140533
			vertex -0.0555555522441864 0.0066655962727963924 0.03215254098176956
		endloop
	endfacet
	facet normal 0.13364586414121737 -0.7219405950101749 -0.6789260344649495
		outer loop
			vertex 0.04668479412794113 0.019240761175751686 0.01445553358644247
			vertex -0.017890773713588715 -0.0033233673311769962 0.025737620890140533
			vertex 0.03058270364999771 0.021181920543313026 0.009221709333360195
		endloop
	endfacet
	facet normal 0.07436663584651187 -0.6543096167047376 -0.7525613124261514
		outer loop
			vertex -0.017890773713588715 -0.0033233673311769962 0.025737620890140533
			vertex -0.02270960807800293 0.029031673446297646 -0.002869450021535158
			vertex 0.03058270364999771 0.021181920543313026 0.009221709333360195
		endloop
	endfacet
	facet normal -0.29262324991744293 -0.6574801264003726 -0.6943281047144094
		outer loop
			vertex -0.0555555522441864 0.03748949617147446 0.0029644439928233624
			vertex -0.02270960807800293 0.029031673446297646 -0.002869450021535158
			vertex -0.017890773713588715 -0.0033233673311769962 0.025737620890140533
		endloop
	endfacet
	facet normal -0.2926232265667677 -0.6574801158936144 -0.6943281245046707
		outer loop
			vertex -0.0555555522441864 0.03748949617147446 0.0029644439928233624
			vertex -0.017890773713588715 -0.0033233673311769962 0.025737620890140533
			vertex -0.0555555522441864 0.007327818777412176 0.03152544051408768
		endloop
	endfacet
	facet normal 0.18192690547848495 -0.8038298897808831 -0.5663568745569137
		outer loop
			vertex -0.010894312523305416 -0.00949301477521658 0.03674162179231644
			vertex -0.017890773713588715 -0.0033233673311769962 0.025737620890140533
			vertex 0.04668479412794113 0.019240761175751686 0.01445553358644247
		endloop
	endfacet
	facet normal 0.1819270620717636 -0.8038300205778047 -0.5663566386154778
		outer loop
			vertex -0.010894312523305416 -0.00949301477521658 0.03674162179231644
			vertex 0.04668479412794113 0.019240761175751686 0.01445553358644247
			vertex 0.055555559694767 0.01846292056143284 0.018409021198749542
		endloop
	endfacet
	facet normal 0.18192744734779137 -0.8038304528616336 -0.5663559013145161
		outer loop
			vertex -0.010894312523305416 -0.00949301477521658 0.03674162179231644
			vertex 0.055555559694767 0.01846292056143284 0.018409021198749542
			vertex 0.055555559694767 0.005546295549720526 0.03674162179231644
		endloop
	endfacet
	facet normal 1 0 0
		outer loop
			vertex 0.055555559694767 0.023457566276192665 0.03674162179231644
			vertex 0.055555559694767 0.005546295549720526 0.03674162179231644
			vertex 0.055555559694767 0.01846292056143284 0.018409021198749542
		endloop
	endfacet
	facet normal 0.13364667162590596 -0.7219387520742837 -0.6789278352054386
		outer loop
			vertex 0.055555559694767 0.022340411320328712 0.012905723415315151
			vertex 0.04668479412794113 0.019240761175751686 0.01445553358644247
			vertex 0.03058270364999771 0.021181920543313026 0.009221709333360195
		endloop
	endfacet
	facet normal 0.13364640350017495 -0.7219412495364367 -0.6789252322967801
		outer loop
			vertex 0.055555559694767 0.022340411320328712 0.012905723415315151
			vertex 0.03058270364999771 0.021181920543313026 0.009221709333360195
			vertex 0.055555559694767 0.033806703984737396 0.0007129380246624351
		endloop
	endfacet
	facet normal 0.0743668330158284 -0.6543094480788815 -0.7525614395528818
		outer loop
			vertex -0.02270960807800293 0.029031673446297646 -0.002869450021535158
			vertex -0.025462865829467773 0.04751778393983841 -0.019214145839214325
			vertex 0.055555559694767 0.0525364950299263 -0.015571528114378452
		endloop
	endfacet
	facet normal 0.07436659326813874 -0.6543089136725636 -0.7525619278799062
		outer loop
			vertex -0.02270960807800293 0.029031673446297646 -0.002869450021535158
			vertex 0.055555559694767 0.0525364950299263 -0.015571528114378452
			vertex 0.055555559694767 0.033806703984737396 0.0007129380246624351
		endloop
	endfacet
	facet normal 0.07436660975072751 -0.654309694139582 -0.7525612476796487
		outer loop
			vertex -0.02270960807800293 0.029031673446297646 -0.002869450021535158
			vertex 0.055555559694767 0.033806703984737396 0.0007129380246624351
			vertex 0.03058270364999771 0.021181920543313026 0.009221709333360195
		endloop
	endfacet
	facet normal -0.39623688306533106 -0.5740688849820857 -0.7165481475756506
		outer loop
			vertex -0.0555555522441864 0.043167226016521454 -0.002304010558873415
			vertex -0.05455669388175011 0.0433279350399971 -0.0029851128347218037
			vertex -0.0555555522441864 0.04242666810750961 -0.0017107060411944985
		endloop
	endfacet
	facet normal -0.29262324661471656 -0.6574800866525675 -0.6943281437447247
		outer loop
			vertex -0.025462865829467773 0.04751778393983841 -0.019214145839214325
			vertex -0.02270960807800293 0.029031673446297646 -0.002869450021535158
			vertex -0.0555555522441864 0.03748949617147446 0.0029644439928233624
		endloop
	endfacet
	facet normal -0.29262364809870905 -0.6574795763550093 -0.6943284577557226
		outer loop
			vertex -0.025462865829467773 0.04751778393983841 -0.019214145839214325
			vertex -0.0555555522441864 0.03748949617147446 0.0029644439928233624
			vertex -0.0555555522441864 0.04242666810750961 -0.0017107060411944985
		endloop
	endfacet
	facet normal -0.29262235668414055 -0.6574818097786845 -0.6943268871207318
		outer loop
			vertex -0.025462865829467773 0.04751778393983841 -0.019214145839214325
			vertex -0.0555555522441864 0.04242666810750961 -0.0017107060411944985
			vertex -0.05455669388175011 0.0433279350399971 -0.0029851128347218037
		endloop
	endfacet
	facet normal 0.18192791065154237 -0.8038286737015821 -0.5663582776486276
		outer loop
			vertex 0.055555559694767 0.01846292056143284 0.018409021198749542
			vertex 0.04668479412794113 0.019240761175751686 0.01445553358644247
			vertex 0.055555559694767 0.022340411320328712 0.012905723415315151
		endloop
	endfacet
	facet normal 1 0 0
		outer loop
			vertex 0.055555559694767 0.023106807842850685 0.03545419126749039
			vertex 0.055555559694767 0.01846292056143284 0.018409021198749542
			vertex 0.055555559694767 0.022340411320328712 0.012905723415315151
		endloop
	endfacet
	facet normal 1 0 0
		outer loop
			vertex 0.055555559694767 0.023106807842850685 0.03545419126749039
			vertex 0.055555559694767 0.022340411320328712 0.012905723415315151
			vertex 0.055555559694767 0.033806703984737396 0.0007129380246624351
		endloop
	endfacet
	facet normal 1 0 0
		outer loop
			vertex 0.055555559694767 0.023106807842850685 0.03545419126749039
			vertex 0.055555559694767 0.033806703984737396 0.0007129380246624351
			vertex 0.055555559694767 0.0525364950299263 -0.015571528114378452
		endloop
	endfacet
	facet normal 1 0 0
		outer loop
			vertex 0.055555559694767 0.023106807842850685 0.03545419126749039
			vertex 0.055555559694767 0.0525364950299263 -0.015571528114378452
			vertex 0.055555559694767 0.04731596261262894 0.02277321368455887
		endloop
	endfacet
	facet normal 1 0 0
		outer loop
			vertex 0.055555559694767 0.04541424661874771 0.03674162179231644
			vertex 0.055555559694767 0.023457566276192665 0.03674162179231644
			vertex 0.055555559694767 0.023106807842850685 0.03545419126749039
		endloop
	endfacet
	facet normal 1 0 0
		outer loop
			vertex 0.055555559694767 0.04541424661874771 0.03674162179231644
			vertex 0.055555559694767 0.023106807842850685 0.03545419126749039
			vertex 0.055555559694767 0.04731596261262894 0.02277321368455887
		endloop
	endfacet
	facet normal -0.0005349596438624419 0.7888576273477842 -0.6145757541535493
		outer loop
			vertex 0.055555559694767 0.08285854011774063 -0.015957646071910858
			vertex 0.032624341547489166 0.06729809194803238 -0.03591077774763107
			vertex 0.007034451700747013 0.066633440554142 -0.03674163669347763
		endloop
	endfacet
	facet normal -0.0005338448260985128 0.7888563670145179 -0.6145773728590712
		outer loop
			vertex 0.055555559694767 0.08285854011774063 -0.015957646071910858
			vertex 0.007034451700747013 0.066633440554142 -0.03674163669347763
			vertex 0.055555559694767 0.0890035405755043 -0.008070074953138828
		endloop
	endfacet
	facet normal 0.0015983542530197778 0.7871038822922407 -0.6168183879750703
		outer loop
			vertex 0.055555559694767 0.0890035405755043 -0.008070074953138828
			vertex 0.007034451700747013 0.066633440554142 -0.03674163669347763
			vertex -0.028359368443489075 0.06696576625108719 -0.03640928119421005
		endloop
	endfacet
	facet normal 0.0015984313874353726 0.7871037709807839 -0.6168185298164521
		outer loop
			vertex 0.055555559694767 0.0890035405755043 -0.008070074953138828
			vertex -0.028359368443489075 0.06696576625108719 -0.03640928119421005
			vertex 0.055555559694767 0.09319693595170975 -0.0027190078981220722
		endloop
	endfacet
	facet normal 0.07433289615157611 -0.6543686645119045 -0.7525133031745193
		outer loop
			vertex -0.028350770473480225 0.06690806895494461 -0.03635825961828232
			vertex -0.028359368443489075 0.06696576625108719 -0.03640928119421005
			vertex -0.02787592262029648 0.06693003326654434 -0.0363304540514946
		endloop
	endfacet
	facet normal -0.012083801777354328 -0.9365147325694354 -0.35041994437389623
		outer loop
			vertex -0.02787592262029648 0.06693003326654434 -0.0363304540514946
			vertex -0.028359368443489075 0.06696576625108719 -0.03640928119421005
			vertex 0.007034451700747013 0.066633440554142 -0.03674163669347763
		endloop
	endfacet
	facet normal -0.3962359963297507 -0.5739761609465318 -0.7166229147031588
		outer loop
			vertex -0.0555555522441864 0.07416269928216934 -0.027136288583278656
			vertex -0.028359368443489075 0.06696576625108719 -0.03640928119421005
			vertex -0.028410784900188446 0.06691936403512955 -0.036343686282634735
		endloop
	endfacet
	facet normal -0.39623573329259887 -0.5740404128530638 -0.7165715931249024
		outer loop
			vertex -0.0555555522441864 0.07416269928216934 -0.027136288583278656
			vertex -0.028410784900188446 0.06691936403512955 -0.036343686282634735
			vertex -0.0555555522441864 0.07410816103219986 -0.027092598378658295
		endloop
	endfacet
	facet normal -0.02300657447762888 -0.8213368092111343 0.5699794236335889
		outer loop
			vertex -0.0555555522441864 0.0741003230214119 -0.027226172387599945
			vertex -0.028359368443489075 0.06696576625108719 -0.03640928119421005
			vertex -0.0555555522441864 0.07416269928216934 -0.027136288583278656
		endloop
	endfacet
	facet normal -0.00026912135586380857 0.7892933814171418 -0.6140161932919931
		outer loop
			vertex -0.0555555522441864 0.07416734844446182 -0.027140013873577118
			vertex -0.028359368443489075 0.06696576625108719 -0.03640928119421005
			vertex -0.0555555522441864 0.0741003230214119 -0.027226172387599945
		endloop
	endfacet
	facet normal -0.2923679479412593 -0.657575837110382 -0.694345016159256
		outer loop
			vertex -0.028359368443489075 0.06696576625108719 -0.03640928119421005
			vertex -0.028350770473480225 0.06690806895494461 -0.03635825961828232
			vertex -0.028410784900188446 0.06691936403512955 -0.036343686282634735
		endloop
	endfacet
	facet normal -0.00024332397754189036 0.7893350575941052 -0.613962627239112
		outer loop
			vertex -0.0555555522441864 0.08203906565904617 -0.017019979655742645
			vertex 0.055555559694767 0.09400344640016556 -0.0016821256140246987
			vertex 0.055555559694767 0.09319693595170975 -0.0027190078981220722
		endloop
	endfacet
	facet normal -0.00024222832497238156 0.7893309371489696 -0.6139679250457374
		outer loop
			vertex -0.0555555522441864 0.08203906565904617 -0.017019979655742645
			vertex 0.055555559694767 0.09319693595170975 -0.0027190078981220722
			vertex -0.028359368443489075 0.06696576625108719 -0.03640928119421005
		endloop
	endfacet
	facet normal -0.00024318029745786684 0.7893302897256913 -0.613968757010403
		outer loop
			vertex -0.0555555522441864 0.08203906565904617 -0.017019979655742645
			vertex -0.028359368443489075 0.06696576625108719 -0.03640928119421005
			vertex -0.0555555522441864 0.07416734844446182 -0.027140013873577118
		endloop
	endfacet
	facet normal 1 0 0
		outer loop
			vertex 0.055555559694767 0.09400344640016556 -0.0016821256140246987
			vertex 0.055555559694767 0.09398693591356277 -0.001673482940532267
			vertex 0.055555559694767 0.0890035405755043 -0.008070074953138828
		endloop
	endfacet
	facet normal 1 0 0
		outer loop
			vertex 0.055555559694767 0.09400344640016556 -0.0016821256140246987
			vertex 0.055555559694767 0.0890035405755043 -0.008070074953138828
			vertex 0.055555559694767 0.09319693595170975 -0.0027190078981220722
		endloop
	endfacet
	facet normal 0.07433340906126665 -0.6542578813693247 -0.752609572729083
		outer loop
			vertex -0.02831365168094635 0.06665880233049393 -0.0361379012465477
			vertex -0.028350770473480225 0.06690806895494461 -0.03635825961828232
			vertex -0.02787592262029648 0.06693003326654434 -0.0363304540514946
		endloop
	endfacet
	facet normal 0.07436546195515056 -0.6542884785014839 -0.7525798063783071
		outer loop
			vertex -0.02831365168094635 0.06665880233049393 -0.0361379012465477
			vertex -0.02787592262029648 0.06693003326654434 -0.0363304540514946
			vertex -0.025832727551460266 0.06677908450365067 -0.03599732369184494
		endloop
	endfacet
	facet normal -0.012082548479720059 -0.9365692706763803 -0.35027419723260855
		outer loop
			vertex -0.025832727551460266 0.06677908450365067 -0.03599732369184494
			vertex -0.02787592262029648 0.06693003326654434 -0.0363304540514946
			vertex 0.007034451700747013 0.066633440554142 -0.03674163669347763
		endloop
	endfacet
	facet normal -0.012081989802792218 -0.9365792329907437 -0.35024757794005545
		outer loop
			vertex -0.025832727551460266 0.06677908450365067 -0.03599732369184494
			vertex 0.007034451700747013 0.066633440554142 -0.03674163669347763
			vertex 0.00808101985603571 0.0665309801697731 -0.03650375455617905
		endloop
	endfacet
	facet normal 0.03930766681443218 -0.8432457740219835 -0.5360890522326228
		outer loop
			vertex 0.007034451700747013 0.066633440554142 -0.03674163669347763
			vertex 0.032624341547489166 0.06729809194803238 -0.03591077774763107
			vertex 0.033146463334560394 0.06722316890954971 -0.03575464338064194
		endloop
	endfacet
	facet normal 0.03930862725662412 -0.8432196507168941 -0.5361300704755138
		outer loop
			vertex 0.007034451700747013 0.066633440554142 -0.03674163669347763
			vertex 0.033146463334560394 0.06722316890954971 -0.03575464338064194
			vertex 0.00808101985603571 0.0665309801697731 -0.03650375455617905
		endloop
	endfacet
	facet normal 0.18538647474113615 -0.48668722208584786 -0.8536787468605591
		outer loop
			vertex 0.055555559694767 0.06993866711854935 -0.03243636339902878
			vertex 0.055555559694767 0.06991613656282425 -0.03242351859807968
			vertex 0.033146463334560394 0.06722316890954971 -0.03575464338064194
		endloop
	endfacet
	facet normal 0.1853923226068495 -0.48685151116360587 -0.8535837936583327
		outer loop
			vertex 0.055555559694767 0.06993866711854935 -0.03243636339902878
			vertex 0.033146463334560394 0.06722316890954971 -0.03575464338064194
			vertex 0.032624341547489166 0.06729809194803238 -0.03591077774763107
		endloop
	endfacet
	facet normal 0.0028656372947997613 0.7869550371530328 -0.6170036933620119
		outer loop
			vertex 0.055555559694767 0.06993866711854935 -0.03243636339902878
			vertex 0.032624341547489166 0.06729809194803238 -0.03591077774763107
			vertex 0.03647278994321823 0.06990955024957657 -0.03256212919950485
		endloop
	endfacet
	facet normal 0.0028655950852366392 0.7869592872403833 -0.6169982727616954
		outer loop
			vertex 0.055555559694767 0.06993866711854935 -0.03243636339902878
			vertex 0.03647278994321823 0.06990955024957657 -0.03256212919950485
			vertex 0.055555559694767 0.07074738293886185 -0.031404875218868256
		endloop
	endfacet
	facet normal 1 0 0
		outer loop
			vertex 0.055555559694767 0.07072512060403824 -0.031385503709316254
			vertex 0.055555559694767 0.06991613656282425 -0.03242351859807968
			vertex 0.055555559694767 0.06993866711854935 -0.03243636339902878
		endloop
	endfacet
	facet normal 1 0 0
		outer loop
			vertex 0.055555559694767 0.07072512060403824 -0.031385503709316254
			vertex 0.055555559694767 0.06993866711854935 -0.03243636339902878
			vertex 0.055555559694767 0.07074738293886185 -0.031404875218868256
		endloop
	endfacet
	facet normal 0.002865876816409581 0.7869569631074943 -0.617001235790256
		outer loop
			vertex 0.055555559694767 0.07074738293886185 -0.031404875218868256
			vertex 0.03647278994321823 0.06990955024957657 -0.03256212919950485
			vertex 0.055555559694767 0.08285854011774063 -0.015957646071910858
		endloop
	endfacet
	facet normal -0.3962356256791933 -0.5740560263296477 -0.7165591445074391
		outer loop
			vertex -0.0555555522441864 0.07410816103219986 -0.027092598378658295
			vertex -0.028410784900188446 0.06691936403512955 -0.036343686282634735
			vertex -0.028633467853069305 0.0667184367775917 -0.036059580743312836
		endloop
	endfacet
	facet normal -0.3962360277178336 -0.5741184352304621 -0.7165089201586522
		outer loop
			vertex -0.0555555522441864 0.07410816103219986 -0.027092598378658295
			vertex -0.028633467853069305 0.0667184367775917 -0.036059580743312836
			vertex -0.0555555522441864 0.07378948479890823 -0.02683725208044052
		endloop
	endfacet
	facet normal -0.2926338928959987 -0.6574241928470526 -0.6943765803855533
		outer loop
			vertex -0.028350770473480225 0.06690806895494461 -0.03635825961828232
			vertex -0.02831365168094635 0.06665880233049393 -0.0361379012465477
			vertex -0.028633467853069305 0.0667184367775917 -0.036059580743312836
		endloop
	endfacet
	facet normal -0.2923648786929724 -0.6576567878607662 -0.6942696357234003
		outer loop
			vertex -0.028350770473480225 0.06690806895494461 -0.03635825961828232
			vertex -0.028633467853069305 0.0667184367775917 -0.036059580743312836
			vertex -0.028410784900188446 0.06691936403512955 -0.036343686282634735
		endloop
	endfacet
	facet normal 1 0 0
		outer loop
			vertex 0.055555559694767 0.07437840849161148 -0.02669786661863327
			vertex 0.055555559694767 0.07442478090524673 -0.026714526116847992
			vertex 0.055555559694767 0.08285854011774063 -0.015957646071910858
		endloop
	endfacet
	facet normal 1 0 0
		outer loop
			vertex 0.055555559694767 0.07437840849161148 -0.02669786661863327
			vertex 0.055555559694767 0.08285854011774063 -0.015957646071910858
			vertex 0.055555559694767 0.09398693591356277 -0.001673482940532267
		endloop
	endfacet
	facet normal 1 0 0
		outer loop
			vertex 0.055555559694767 0.07437840849161148 -0.02669786661863327
			vertex 0.055555559694767 0.09398693591356277 -0.001673482940532267
			vertex 0.055555559694767 0.0939118042588234 -0.0016341140726581216
		endloop
	endfacet
	facet normal 1 0 0
		outer loop
			vertex 0.055555559694767 0.07442478090524673 -0.026714526116847992
			vertex 0.055555559694767 0.07437840849161148 -0.02669786661863327
			vertex 0.055555559694767 0.07072512060403824 -0.031385503709316254
		endloop
	endfacet
	facet normal 1 0 0
		outer loop
			vertex 0.055555559694767 0.07442478090524673 -0.026714526116847992
			vertex 0.055555559694767 0.07072512060403824 -0.031385503709316254
			vertex 0.055555559694767 0.07074738293886185 -0.031404875218868256
		endloop
	endfacet
	facet normal 0.07436684148375941 -0.6543098202349269 -0.7525611151473792
		outer loop
			vertex 0.055555559694767 0.0525364950299263 -0.015571528114378452
			vertex -0.025462865829467773 0.04751778393983841 -0.019214145839214325
			vertex -0.02831365168094635 0.06665880233049393 -0.0361379012465477
		endloop
	endfacet
	facet normal 0.07436544244706836 -0.6543135754059238 -0.7525579884694392
		outer loop
			vertex 0.055555559694767 0.0525364950299263 -0.015571528114378452
			vertex -0.02831365168094635 0.06665880233049393 -0.0361379012465477
			vertex -0.025832727551460266 0.06677908450365067 -0.03599732369184494
		endloop
	endfacet
	facet normal 0.07436697651177555 -0.6543095771475511 -0.7525613131549415
		outer loop
			vertex 0.055555559694767 0.0525364950299263 -0.015571528114378452
			vertex -0.025832727551460266 0.06677908450365067 -0.03599732369184494
			vertex 0.055555559694767 0.060765691101551056 -0.022726349532604218
		endloop
	endfacet
	facet normal -0.012083732427339747 -0.9365691282829073 -0.35027453712483864
		outer loop
			vertex 0.055555559694767 0.061883099377155304 -0.025714091956615448
			vertex 0.055555559694767 0.060765691101551056 -0.022726349532604218
			vertex -0.025832727551460266 0.06677908450365067 -0.03599732369184494
		endloop
	endfacet
	facet normal -0.012082425737841258 -0.9365658593022573 -0.3502833227227839
		outer loop
			vertex 0.055555559694767 0.061883099377155304 -0.025714091956615448
			vertex -0.025832727551460266 0.06677908450365067 -0.03599732369184494
			vertex 0.00808101985603571 0.0665309801697731 -0.03650375455617905
		endloop
	endfacet
	facet normal 0.03930733636628699 -0.8431888443451396 -0.5361786139708443
		outer loop
			vertex 0.033146463334560394 0.06722316890954971 -0.03575464338064194
			vertex 0.055555559694767 0.0640065148472786 -0.029053352773189545
			vertex 0.055555559694767 0.061883099377155304 -0.025714091956615448
		endloop
	endfacet
	facet normal 0.03930926401667891 -0.8431867328199091 -0.5361817931998013
		outer loop
			vertex 0.033146463334560394 0.06722316890954971 -0.03575464338064194
			vertex 0.055555559694767 0.061883099377155304 -0.025714091956615448
			vertex 0.00808101985603571 0.0665309801697731 -0.03650375455617905
		endloop
	endfacet
	facet normal 0.1853904114977328 -0.4868019774175965 -0.8536124589689512
		outer loop
			vertex 0.055555559694767 0.06991613656282425 -0.03242351859807968
			vertex 0.055555559694767 0.0640065148472786 -0.029053352773189545
			vertex 0.033146463334560394 0.06722316890954971 -0.03575464338064194
		endloop
	endfacet
	facet normal 1 0 0
		outer loop
			vertex 0.055555559694767 0.06991613656282425 -0.03242351859807968
			vertex 0.055555559694767 0.07072512060403824 -0.031385503709316254
			vertex 0.055555559694767 0.060765691101551056 -0.022726349532604218
		endloop
	endfacet
	facet normal 1 0 0
		outer loop
			vertex 0.055555559694767 0.06991613656282425 -0.03242351859807968
			vertex 0.055555559694767 0.060765691101551056 -0.022726349532604218
			vertex 0.055555559694767 0.061883099377155304 -0.025714091956615448
		endloop
	endfacet
	facet normal 1 0 0
		outer loop
			vertex 0.055555559694767 0.06991613656282425 -0.03242351859807968
			vertex 0.055555559694767 0.061883099377155304 -0.025714091956615448
			vertex 0.055555559694767 0.0640065148472786 -0.029053352773189545
		endloop
	endfacet
	facet normal -0.39623652638837886 -0.5740682224898501 -0.7165488755716636
		outer loop
			vertex -0.0555555522441864 0.07378948479890823 -0.02683725208044052
			vertex -0.028633467853069305 0.0667184367775917 -0.036059580743312836
			vertex -0.05455669388175011 0.0433279350399971 -0.0029851128347218037
		endloop
	endfacet
	facet normal -0.39623732402329714 -0.5740680263286326 -0.7165485916516794
		outer loop
			vertex -0.0555555522441864 0.07378948479890823 -0.02683725208044052
			vertex -0.05455669388175011 0.0433279350399971 -0.0029851128347218037
			vertex -0.0555555522441864 0.043167226016521454 -0.002304010558873415
		endloop
	endfacet
	facet normal -0.29262317431161045 -0.6574803075409279 -0.6943279650508711
		outer loop
			vertex -0.02831365168094635 0.06665880233049393 -0.0361379012465477
			vertex -0.025462865829467773 0.04751778393983841 -0.019214145839214325
			vertex -0.05455669388175011 0.0433279350399971 -0.0029851128347218037
		endloop
	endfacet
	facet normal -0.29263184533158193 -0.6574739354140896 -0.6943303445399335
		outer loop
			vertex -0.02831365168094635 0.06665880233049393 -0.0361379012465477
			vertex -0.05455669388175011 0.0433279350399971 -0.0029851128347218037
			vertex -0.028633467853069305 0.0667184367775917 -0.036059580743312836
		endloop
	endfacet
	facet normal 1 0 0
		outer loop
			vertex 0.055555559694767 0.04731596261262894 0.02277321368455887
			vertex 0.055555559694767 0.0525364950299263 -0.015571528114378452
			vertex 0.055555559694767 0.05897385627031326 -0.021168462932109833
		endloop
	endfacet
	facet normal 1 0 0
		outer loop
			vertex 0.055555559694767 0.04731596261262894 0.02277321368455887
			vertex 0.055555559694767 0.05897385627031326 -0.021168462932109833
			vertex 0.055555559694767 0.07437840849161148 -0.02669786661863327
		endloop
	endfacet
	facet normal 1 0 0
		outer loop
			vertex 0.055555559694767 0.04731596261262894 0.02277321368455887
			vertex 0.055555559694767 0.07437840849161148 -0.02669786661863327
			vertex 0.055555559694767 0.0939118042588234 -0.0016341140726581216
		endloop
	endfacet
	facet normal 1 0 0
		outer loop
			vertex 0.055555559694767 0.07437840849161148 -0.02669786661863327
			vertex 0.055555559694767 0.05897385627031326 -0.021168462932109833
			vertex 0.055555559694767 0.07072512060403824 -0.031385503709316254
		endloop
	endfacet
	facet normal -0.00024252947894699468 0.789331883731484 -0.613966707977199
		outer loop
			vertex -0.0555555522441864 0.08756536990404129 -0.00991519633680582
			vertex 0.055555559694767 0.09909576922655106 0.004864699672907591
			vertex 0.055555559694767 0.09400344640016556 -0.0016821256140246987
		endloop
	endfacet
	facet normal -0.00024265786465125215 0.7893327217079854 -0.613965630600138
		outer loop
			vertex -0.0555555522441864 0.08756536990404129 -0.00991519633680582
			vertex 0.055555559694767 0.09400344640016556 -0.0016821256140246987
			vertex -0.0555555522441864 0.08203906565904617 -0.017019979655742645
		endloop
	endfacet
	facet normal 0 0.7842802868250168 -0.6204066663871928
		outer loop
			vertex -0.0555555522441864 0.10202724486589432 0.00862229522317648
			vertex 0.055555559694767 0.10202724486589432 0.00862229522317648
			vertex 0.055555559694767 0.10150767117738724 0.007965481840074062
		endloop
	endfacet
	facet normal 4.864790341094583e-8 0.7842842911158371 -0.6204016043732696
		outer loop
			vertex -0.0555555522441864 0.10202724486589432 0.00862229522317648
			vertex 0.055555559694767 0.10150767117738724 0.007965481840074062
			vertex -0.0555555522441864 0.0994640663266182 0.005382038187235594
		endloop
	endfacet
	facet normal 1 0 0
		outer loop
			vertex 0.055555559694767 0.10202724486589432 0.00862229522317648
			vertex 0.055555559694767 0.10202724486589432 0.008633441291749477
			vertex 0.055555559694767 0.10150767117738724 0.007965481840074062
		endloop
	endfacet
	facet normal -0.002502117800835911 0.7974777333345696 -0.6033431894387041
		outer loop
			vertex -0.0555555522441864 0.08806515485048294 -0.009254389442503452
			vertex 0.055555559694767 0.09919709712266922 0.004998631309717894
			vertex 0.055555559694767 0.09909576922655106 0.004864699672907591
		endloop
	endfacet
	facet normal -0.002526632568569161 0.7975694106690154 -0.6032218922527123
		outer loop
			vertex -0.0555555522441864 0.08806515485048294 -0.009254389442503452
			vertex 0.055555559694767 0.09909576922655106 0.004864699672907591
			vertex -0.0555555522441864 0.08756536990404129 -0.00991519633680582
		endloop
	endfacet
	facet normal -0.0006813473834066145 0.790683335943865 -0.6122249570430989
		outer loop
			vertex -0.0555555522441864 0.09635437279939651 0.001450932933948934
			vertex 0.055555559694767 0.1008773222565651 0.007168627809733152
			vertex 0.055555559694767 0.09919709712266922 0.004998631309717894
		endloop
	endfacet
	facet normal -0.0006811027371495814 0.7906796748374376 -0.6122296855739893
		outer loop
			vertex -0.0555555522441864 0.09635437279939651 0.001450932933948934
			vertex 0.055555559694767 0.09919709712266922 0.004998631309717894
			vertex -0.0555555522441864 0.08806515485048294 -0.009254389442503452
		endloop
	endfacet
	facet normal 1.431171983161311e-7 0.784282314159659 -0.6204041035457051
		outer loop
			vertex -0.0555555522441864 0.0994640663266182 0.005382038187235594
			vertex 0.055555559694767 0.10150767117738724 0.007965481840074062
			vertex 0.055555559694767 0.1008773222565651 0.007168627809733152
		endloop
	endfacet
	facet normal 1.5868161696976588e-7 0.7842818431657589 -0.6204046989510112
		outer loop
			vertex -0.0555555522441864 0.0994640663266182 0.005382038187235594
			vertex 0.055555559694767 0.1008773222565651 0.007168627809733152
			vertex -0.0555555522441864 0.09635437279939651 0.001450932933948934
		endloop
	endfacet
	facet normal 1 0 0
		outer loop
			vertex 0.055555559694767 0.10150767117738724 0.007965481840074062
			vertex 0.055555559694767 0.10202724486589432 0.008633441291749477
			vertex 0.055555559694767 0.10202724486589432 0.008646911941468716
		endloop
	endfacet
	facet normal 1 0 0
		outer loop
			vertex 0.055555559694767 0.10150767117738724 0.007965481840074062
			vertex 0.055555559694767 0.10202724486589432 0.008646911941468716
			vertex 0.055555559694767 0.10116703063249588 0.007542736362665892
		endloop
	endfacet
	facet normal 1 0 0
		outer loop
			vertex 0.055555559694767 0.10150767117738724 0.007965481840074062
			vertex 0.055555559694767 0.10116703063249588 0.007542736362665892
			vertex 0.055555559694767 0.1008773222565651 0.007168627809733152
		endloop
	endfacet
	facet normal 1 0 0
		outer loop
			vertex 0.055555559694767 0.10116703063249588 0.007542736362665892
			vertex 0.055555559694767 0.09959996491670609 0.005531288217753172
			vertex 0.055555559694767 0.09919709712266922 0.004998631309717894
		endloop
	endfacet
	facet normal 1 0 0
		outer loop
			vertex 0.055555559694767 0.09398693591356277 -0.001673482940532267
			vertex 0.055555559694767 0.09400344640016556 -0.0016821256140246987
			vertex 0.055555559694767 0.09909576922655106 0.004864699672907591
		endloop
	endfacet
	facet normal 1 0 0
		outer loop
			vertex 0.055555559694767 0.09398693591356277 -0.001673482940532267
			vertex 0.055555559694767 0.09909576922655106 0.004864699672907591
			vertex 0.055555559694767 0.09959996491670609 0.005531288217753172
		endloop
	endfacet
	facet normal 1 0 0
		outer loop
			vertex 0.055555559694767 0.0939118042588234 -0.0016341140726581216
			vertex 0.055555559694767 0.09398693591356277 -0.001673482940532267
			vertex 0.055555559694767 0.10202724486589432 0.008646911941468716
		endloop
	endfacet
	facet normal 1 0 0
		outer loop
			vertex 0.055555559694767 0.0939118042588234 -0.0016341140726581216
			vertex 0.055555559694767 0.10202724486589432 0.008646911941468716
			vertex 0.055555559694767 0.10202724486589432 0.008778966031968594
		endloop
	endfacet
	facet normal 1 0 0
		outer loop
			vertex 0.055555559694767 0.10202724486589432 0.03674162179231644
			vertex 0.055555559694767 0.04541424661874771 0.03674162179231644
			vertex 0.055555559694767 0.04731596261262894 0.02277321368455887
		endloop
	endfacet
	facet normal 1 0 0
		outer loop
			vertex 0.055555559694767 0.10202724486589432 0.03674162179231644
			vertex 0.055555559694767 0.04731596261262894 0.02277321368455887
			vertex 0.055555559694767 0.0939118042588234 -0.0016341140726581216
		endloop
	endfacet
	facet normal 1 0 0
		outer loop
			vertex 0.055555559694767 0.10202724486589432 0.03674162179231644
			vertex 0.055555559694767 0.0939118042588234 -0.0016341140726581216
			vertex 0.055555559694767 0.10202724486589432 0.008778966031968594
		endloop
	endfacet
	facet normal -1 0 0
		outer loop
			vertex -0.0555555522441864 0.0050901263020932674 0.03674162179231644
			vertex -0.0555555522441864 0.0055179535411298275 0.03674162179231644
			vertex -0.0555555522441864 0.007327818777412176 0.03152544051408768
		endloop
	endfacet
	facet normal -1 0 0
		outer loop
			vertex -0.0555555522441864 0.0050901263020932674 0.03674162179231644
			vertex -0.0555555522441864 0.007327818777412176 0.03152544051408768
			vertex -0.0555555522441864 0.0066655962727963924 0.03215254098176956
		endloop
	endfacet
	facet normal -1 0 0
		outer loop
			vertex -0.0555555522441864 0.02945483662188053 0.010572708211839199
			vertex -0.0555555522441864 0.040657930076122284 0.01459402497857809
			vertex -0.0555555522441864 0.03748949617147446 0.0029644439928233624
		endloop
	endfacet
	facet normal -1 0 0
		outer loop
			vertex -0.0555555522441864 0.0055179535411298275 0.03674162179231644
			vertex -0.0555555522441864 0.044428952038288116 0.03674162179231644
			vertex -0.0555555522441864 0.043714217841625214 0.02581203728914261
		endloop
	endfacet
	facet normal -1 0 0
		outer loop
			vertex -0.0555555522441864 0.0055179535411298275 0.03674162179231644
			vertex -0.0555555522441864 0.043714217841625214 0.02581203728914261
			vertex -0.0555555522441864 0.040657930076122284 0.01459402497857809
		endloop
	endfacet
	facet normal -1 0 0
		outer loop
			vertex -0.0555555522441864 0.0055179535411298275 0.03674162179231644
			vertex -0.0555555522441864 0.040657930076122284 0.01459402497857809
			vertex -0.0555555522441864 0.02945483662188053 0.010572708211839199
		endloop
	endfacet
	facet normal -1 0 0
		outer loop
			vertex -0.0555555522441864 0.0055179535411298275 0.03674162179231644
			vertex -0.0555555522441864 0.02945483662188053 0.010572708211839199
			vertex -0.0555555522441864 0.007327818777412176 0.03152544051408768
		endloop
	endfacet
	facet normal -1 0 0
		outer loop
			vertex -0.0555555522441864 0.044428952038288116 0.03674162179231644
			vertex -0.0555555522441864 0.04669196158647537 0.03674162179231644
			vertex -0.0555555522441864 0.043714217841625214 0.02581203728914261
		endloop
	endfacet
	facet normal -1 0 0
		outer loop
			vertex -0.0555555522441864 0.03748949617147446 0.0029644439928233624
			vertex -0.0555555522441864 0.03828845173120499 0.005897022318094969
			vertex -0.0555555522441864 0.04233958572149277 0.0037749777548015118
		endloop
	endfacet
	facet normal -1 0 0
		outer loop
			vertex -0.0555555522441864 0.03748949617147446 0.0029644439928233624
			vertex -0.0555555522441864 0.04233958572149277 0.0037749777548015118
			vertex -0.0555555522441864 0.043167226016521454 -0.002304010558873415
		endloop
	endfacet
	facet normal -1 0 0
		outer loop
			vertex -0.0555555522441864 0.03748949617147446 0.0029644439928233624
			vertex -0.0555555522441864 0.043167226016521454 -0.002304010558873415
			vertex -0.0555555522441864 0.04242666810750961 -0.0017107060411944985
		endloop
	endfacet
	facet normal -1 0 0
		outer loop
			vertex -0.0555555522441864 0.03828845173120499 0.005897022318094969
			vertex -0.0555555522441864 0.040657930076122284 0.01459402497857809
			vertex -0.0555555522441864 0.04085689038038254 0.014665461145341396
		endloop
	endfacet
	facet normal -1 0 0
		outer loop
			vertex -0.0555555522441864 0.03828845173120499 0.005897022318094969
			vertex -0.0555555522441864 0.04085689038038254 0.014665461145341396
			vertex -0.0555555522441864 0.04233958572149277 0.0037749777548015118
		endloop
	endfacet
	facet normal -1 0 0
		outer loop
			vertex -0.0555555522441864 0.04085689038038254 0.014665461145341396
			vertex -0.0555555522441864 0.040657930076122284 0.01459402497857809
			vertex -0.0555555522441864 0.04079707711935043 0.015104777179658413
		endloop
	endfacet
	facet normal -1 0 0
		outer loop
			vertex -0.0555555522441864 0.07416269928216934 -0.027136288583278656
			vertex -0.0555555522441864 0.07416734844446182 -0.027140013873577118
			vertex -0.0555555522441864 0.0741003230214119 -0.027226172387599945
		endloop
	endfacet
	facet normal -1 0 0
		outer loop
			vertex -0.0555555522441864 0.07410816103219986 -0.027092598378658295
			vertex -0.0555555522441864 0.08197969943284988 -0.01698886603116989
			vertex -0.0555555522441864 0.08203906565904617 -0.017019979655742645
		endloop
	endfacet
	facet normal -1 0 0
		outer loop
			vertex -0.0555555522441864 0.07410816103219986 -0.027092598378658295
			vertex -0.0555555522441864 0.08203906565904617 -0.017019979655742645
			vertex -0.0555555522441864 0.07416734844446182 -0.027140013873577118
		endloop
	endfacet
	facet normal -1 0 0
		outer loop
			vertex -0.0555555522441864 0.07378948479890823 -0.02683725208044052
			vertex -0.0555555522441864 0.08161405473947525 -0.01679735630750656
			vertex -0.0555555522441864 0.08197969943284988 -0.01698886603116989
		endloop
	endfacet
	facet normal -1 0 0
		outer loop
			vertex -0.0555555522441864 0.07378948479890823 -0.02683725208044052
			vertex -0.0555555522441864 0.08197969943284988 -0.01698886603116989
			vertex -0.0555555522441864 0.07410816103219986 -0.027092598378658295
		endloop
	endfacet
	facet normal -1 0 0
		outer loop
			vertex -0.0555555522441864 0.043167226016521454 -0.002304010558873415
			vertex -0.0555555522441864 0.04233958572149277 0.0037749777548015118
			vertex -0.0555555522441864 0.08161405473947525 -0.01679735630750656
		endloop
	endfacet
	facet normal -1 0 0
		outer loop
			vertex -0.0555555522441864 0.043167226016521454 -0.002304010558873415
			vertex -0.0555555522441864 0.08161405473947525 -0.01679735630750656
			vertex -0.0555555522441864 0.07378948479890823 -0.02683725208044052
		endloop
	endfacet
	facet normal -1 0 0
		outer loop
			vertex -0.0555555522441864 0.10202724486589432 0.008677310310304165
			vertex -0.0555555522441864 0.10202724486589432 0.00862229522317648
			vertex -0.0555555522441864 0.0994640663266182 0.005382038187235594
		endloop
	endfacet
	facet normal -1 0 0
		outer loop
			vertex -0.0555555522441864 0.10202724486589432 0.008743799291551113
			vertex -0.0555555522441864 0.10202724486589432 0.008677310310304165
			vertex -0.0555555522441864 0.0994640663266182 0.005382038187235594
		endloop
	endfacet
	facet normal -1 0 0
		outer loop
			vertex -0.0555555522441864 0.10202724486589432 0.008743799291551113
			vertex -0.0555555522441864 0.0994640663266182 0.005382038187235594
			vertex -0.0555555522441864 0.09635437279939651 0.001450932933948934
		endloop
	endfacet
	facet normal -1 0 0
		outer loop
			vertex -0.0555555522441864 0.10202724486589432 0.008743799291551113
			vertex -0.0555555522441864 0.09635437279939651 0.001450932933948934
			vertex -0.0555555522441864 0.09778351336717606 0.0032965908758342266
		endloop
	endfacet
	facet normal -1 0 0
		outer loop
			vertex -0.0555555522441864 0.08806515485048294 -0.009254389442503452
			vertex -0.0555555522441864 0.09005267173051834 -0.006626539397984743
			vertex -0.0555555522441864 0.09778351336717606 0.0032965908758342266
		endloop
	endfacet
	facet normal -1 0 0
		outer loop
			vertex -0.0555555522441864 0.08756536990404129 -0.00991519633680582
			vertex -0.0555555522441864 0.08203906565904617 -0.017019979655742645
			vertex -0.0555555522441864 0.08197969943284988 -0.01698886603116989
		endloop
	endfacet
	facet normal -1 0 0
		outer loop
			vertex -0.0555555522441864 0.08756536990404129 -0.00991519633680582
			vertex -0.0555555522441864 0.08197969943284988 -0.01698886603116989
			vertex -0.0555555522441864 0.09005267173051834 -0.006626539397984743
		endloop
	endfacet
	facet normal -1 0 0
		outer loop
			vertex -0.0555555522441864 0.10202724486589432 0.009395248256623745
			vertex -0.0555555522441864 0.10202724486589432 0.008743799291551113
			vertex -0.0555555522441864 0.08197969943284988 -0.01698886603116989
		endloop
	endfacet
	facet normal -1 0 0
		outer loop
			vertex -0.0555555522441864 0.10202724486589432 0.009395248256623745
			vertex -0.0555555522441864 0.08197969943284988 -0.01698886603116989
			vertex -0.0555555522441864 0.08161405473947525 -0.01679735630750656
		endloop
	endfacet
	facet normal -1 0 0
		outer loop
			vertex -0.0555555522441864 0.04233958572149277 0.0037749777548015118
			vertex -0.0555555522441864 0.04085689038038254 0.014665461145341396
			vertex -0.0555555522441864 0.10202724486589432 0.03662235289812088
		endloop
	endfacet
	facet normal -1 0 0
		outer loop
			vertex -0.0555555522441864 0.04233958572149277 0.0037749777548015118
			vertex -0.0555555522441864 0.10202724486589432 0.03662235289812088
			vertex -0.0555555522441864 0.10202724486589432 0.009395248256623745
		endloop
	endfacet
	facet normal -1 0 0
		outer loop
			vertex -0.0555555522441864 0.04233958572149277 0.0037749777548015118
			vertex -0.0555555522441864 0.10202724486589432 0.009395248256623745
			vertex -0.0555555522441864 0.08161405473947525 -0.01679735630750656
		endloop
	endfacet
	facet normal -1 0 0
		outer loop
			vertex -0.0555555522441864 0.04669196158647537 0.03674162179231644
			vertex -0.0555555522441864 0.10202724486589432 0.03674162179231644
			vertex -0.0555555522441864 0.10202724486589432 0.03662235289812088
		endloop
	endfacet
	facet normal -1 0 0
		outer loop
			vertex -0.0555555522441864 0.04669196158647537 0.03674162179231644
			vertex -0.0555555522441864 0.10202724486589432 0.03662235289812088
			vertex -0.0555555522441864 0.04085689038038254 0.014665461145341396
		endloop
	endfacet
	facet normal -1 0 0
		outer loop
			vertex -0.0555555522441864 0.04669196158647537 0.03674162179231644
			vertex -0.0555555522441864 0.04085689038038254 0.014665461145341396
			vertex -0.0555555522441864 0.04079707711935043 0.015104777179658413
		endloop
	endfacet
	facet normal 0 0 1
		outer loop
			vertex -0.0252988338470459 -0.012696436606347561 0.03674162179231644
			vertex -0.018197260797023773 -0.011145851574838161 0.03674162179231644
			vertex -0.01704224944114685 -0.010884440504014492 0.03674162179231644
		endloop
	endfacet
	facet normal 0 0 1
		outer loop
			vertex -0.0252988338470459 -0.012696436606347561 0.03674162179231644
			vertex -0.01704224944114685 -0.010884440504014492 0.03674162179231644
			vertex -0.02040742337703705 -0.009999639354646206 0.03674162179231644
		endloop
	endfacet
	facet normal 0 0 1
		outer loop
			vertex -0.02040742337703705 -0.009999639354646206 0.03674162179231644
			vertex -0.01704224944114685 -0.010884440504014492 0.03674162179231644
			vertex -0.010894312523305416 -0.00949301477521658 0.03674162179231644
		endloop
	endfacet
	facet normal 0 0 1
		outer loop
			vertex -0.02040742337703705 -0.009999639354646206 0.03674162179231644
			vertex -0.010894312523305416 -0.00949301477521658 0.03674162179231644
			vertex -0.016233541071414948 -0.007698452565819025 0.03674162179231644
		endloop
	endfacet
	facet normal 0 0 1
		outer loop
			vertex -0.0555555522441864 0.0055179535411298275 0.03674162179231644
			vertex -0.0555555522441864 0.0050901263020932674 0.03674162179231644
			vertex -0.02113555371761322 -0.006050860974937677 0.03674162179231644
		endloop
	endfacet
	facet normal 0 0 1
		outer loop
			vertex -0.0555555522441864 0.044428952038288116 0.03674162179231644
			vertex -0.0555555522441864 0.0055179535411298275 0.03674162179231644
			vertex -0.010894312523305416 -0.00949301477521658 0.03674162179231644
		endloop
	endfacet
	facet normal 0 0 1
		outer loop
			vertex -0.0555555522441864 0.044428952038288116 0.03674162179231644
			vertex -0.010894312523305416 -0.00949301477521658 0.03674162179231644
			vertex -0.00434821005910635 -0.008011451922357082 0.03674162179231644
		endloop
	endfacet
	facet normal 0 0 1
		outer loop
			vertex -0.0555555522441864 0.044428952038288116 0.03674162179231644
			vertex -0.00434821005910635 -0.008011451922357082 0.03674162179231644
			vertex 0.01709645241498947 0.03149973601102829 0.03674162179231644
		endloop
	endfacet
	facet normal 0 0 1
		outer loop
			vertex -0.0555555522441864 0.044428952038288116 0.03674162179231644
			vertex 0.01709645241498947 0.03149973601102829 0.03674162179231644
			vertex -0.03230662643909454 0.041830383241176605 0.03674162179231644
		endloop
	endfacet
	facet normal 0 0 1
		outer loop
			vertex 0.055555559694767 0.005546295549720526 0.03674162179231644
			vertex 0.055555559694767 0.023457566276192665 0.03674162179231644
			vertex 0.01709645241498947 0.03149973601102829 0.03674162179231644
		endloop
	endfacet
	facet normal 0 0 1
		outer loop
			vertex 0.055555559694767 0.005546295549720526 0.03674162179231644
			vertex 0.01709645241498947 0.03149973601102829 0.03674162179231644
			vertex -0.00434821005910635 -0.008011451922357082 0.03674162179231644
		endloop
	endfacet
	facet normal 0 0 1
		outer loop
			vertex -0.0555555522441864 0.04669196158647537 0.03674162179231644
			vertex -0.0555555522441864 0.044428952038288116 0.03674162179231644
			vertex -0.03230662643909454 0.041830383241176605 0.03674162179231644
		endloop
	endfacet
	facet normal 0 0 1
		outer loop
			vertex -0.023660026490688324 0.04002230614423752 0.03674162179231644
			vertex 0.01709645241498947 0.03149973601102829 0.03674162179231644
			vertex 0.023462913930416107 0.04322979599237442 0.03674162179231644
		endloop
	endfacet
	facet normal 0 0 1
		outer loop
			vertex 0.055555559694767 0.023457566276192665 0.03674162179231644
			vertex 0.055555559694767 0.04541424661874771 0.03674162179231644
			vertex 0.023462913930416107 0.04322979599237442 0.03674162179231644
		endloop
	endfacet
	facet normal 0 0 1
		outer loop
			vertex 0.055555559694767 0.023457566276192665 0.03674162179231644
			vertex 0.023462913930416107 0.04322979599237442 0.03674162179231644
			vertex 0.01709645241498947 0.03149973601102829 0.03674162179231644
		endloop
	endfacet
	facet normal 0 0 1
		outer loop
			vertex -0.0555555522441864 0.10202724486589432 0.03674162179231644
			vertex -0.0555555522441864 0.04669196158647537 0.03674162179231644
			vertex -0.023660026490688324 0.04002230614423752 0.03674162179231644
		endloop
	endfacet
	facet normal 0 0 1
		outer loop
			vertex -0.0555555522441864 0.10202724486589432 0.03674162179231644
			vertex -0.023660026490688324 0.04002230614423752 0.03674162179231644
			vertex 0.023462913930416107 0.04322979599237442 0.03674162179231644
		endloop
	endfacet
	facet normal 0 0 1
		outer loop
			vertex -0.0555555522441864 0.10202724486589432 0.03674162179231644
			vertex 0.023462913930416107 0.04322979599237442 0.03674162179231644
			vertex 0.05537518113851547 0.10202724486589432 0.03674162179231644
		endloop
	endfacet
	facet normal 0 0 1
		outer loop
			vertex 0.055555559694767 0.04541424661874771 0.03674162179231644
			vertex 0.055555559694767 0.10202724486589432 0.03674162179231644
			vertex 0.05537518113851547 0.10202724486589432 0.03674162179231644
		endloop
	endfacet
	facet normal 0 0 1
		outer loop
			vertex 0.055555559694767 0.04541424661874771 0.03674162179231644
			vertex 0.05537518113851547 0.10202724486589432 0.03674162179231644
			vertex 0.023462913930416107 0.04322979599237442 0.03674162179231644
		endloop
	endfacet
endsolid exported
