solid exported
	facet normal 0.9180486913674721 0.14642673778804544 0.36843698340316355
		outer loop
			vertex 0.023970656096935272 -0.1023595854640007 0.036741625517606735
			vertex 0.0313846692442894 -0.1023595854640007 0.018267842009663582
			vertex 0.030296050012111664 -0.08074292540550232 0.012389356270432472
		endloop
	endfacet
	facet normal 0.9180487606155209 0.14642658952241214 0.36843686977980555
		outer loop
			vertex 0.023970656096935272 -0.1023595854640007 0.036741625517606735
			vertex 0.030296050012111664 -0.08074292540550232 0.012389356270432472
			vertex 0.018961630761623383 -0.0709545686841011 0.036741625517606735
		endloop
	endfacet
	facet normal 0.9748597490258474 -0.011420258289573113 -0.22252650949911898
		outer loop
			vertex 0.030296050012111664 -0.08074292540550232 0.012389356270432472
			vertex 0.0313846692442894 -0.1023595854640007 0.018267842009663582
			vertex 0.0221269354224205 -0.1023595854640007 -0.022289087995886803
		endloop
	endfacet
	facet normal 0.9748597767683798 -0.011420482181643682 -0.22252637647219256
		outer loop
			vertex 0.030296050012111664 -0.08074292540550232 0.012389356270432472
			vertex 0.0221269354224205 -0.1023595854640007 -0.022289087995886803
			vertex 0.020234666764736176 -0.09156370162963867 -0.03113294206559658
		endloop
	endfacet
	facet normal 0.6433291138306537 -0.241820989203688 -0.7263953885305273
		outer loop
			vertex 0.015582629479467869 -0.09221964329481125 -0.036741629242897034
			vertex 0.017522238194942474 -0.09213998913764954 -0.03505033999681473
			vertex 0.014297866262495518 -0.1023595854640007 -0.03450383245944977
		endloop
	endfacet
	facet normal 0.6433326301944517 -0.2418207639925606 -0.7263923492363774
		outer loop
			vertex 0.015582629479467869 -0.09221964329481125 -0.036741629242897034
			vertex 0.014297866262495518 -0.1023595854640007 -0.03450383245944977
			vertex 0.01177115086466074 -0.1023595854640007 -0.036741629242897034
		endloop
	endfacet
	facet normal 0.8162592104842717 -0.2844251484784174 -0.5028153102408713
		outer loop
			vertex 0.020072542130947113 -0.09155963361263275 -0.031238509342074394
			vertex 0.021627165377140045 -0.1023595854640007 -0.022605611011385918
			vertex 0.014297866262495518 -0.1023595854640007 -0.03450383245944977
		endloop
	endfacet
	facet normal 0.8162597196907645 -0.2844257784145864 -0.502814127271312
		outer loop
			vertex 0.020072542130947113 -0.09155963361263275 -0.031238509342074394
			vertex 0.014297866262495518 -0.1023595854640007 -0.03450383245944977
			vertex 0.017522238194942474 -0.09213998913764954 -0.03505033999681473
		endloop
	endfacet
	facet normal 0.459153197995664 -0.5134109219679853 -0.7249741829709095
		outer loop
			vertex 0.020234666764736176 -0.09156370162963867 -0.03113294206559658
			vertex 0.0221269354224205 -0.1023595854640007 -0.022289087995886803
			vertex 0.021627165377140045 -0.1023595854640007 -0.022605611011385918
		endloop
	endfacet
	facet normal 0.4591782596255418 -0.5134008087941925 -0.7249654718789907
		outer loop
			vertex 0.020234666764736176 -0.09156370162963867 -0.03113294206559658
			vertex 0.021627165377140045 -0.1023595854640007 -0.022605611011385918
			vertex 0.020072542130947113 -0.09155963361263275 -0.031238509342074394
		endloop
	endfacet
	facet normal 0.643332173499203 -0.24181960438292724 -0.7263931397506972
		outer loop
			vertex 0.017003975808620453 -0.08843836188316345 -0.036741629242897034
			vertex 0.018350042402744293 -0.08951626718044281 -0.0351906418800354
			vertex 0.017522238194942474 -0.09213998913764954 -0.03505033999681473
		endloop
	endfacet
	facet normal 0.6433291045425031 -0.24182105525439695 -0.7263953747678954
		outer loop
			vertex 0.017003975808620453 -0.08843836188316345 -0.036741629242897034
			vertex 0.017522238194942474 -0.09213998913764954 -0.03505033999681473
			vertex 0.015582629479467869 -0.09221964329481125 -0.036741629242897034
		endloop
	endfacet
	facet normal 0.8162596892172436 -0.28442386255903734 -0.5028152604744278
		outer loop
			vertex 0.01985848695039749 -0.09160834550857544 -0.031558454036712646
			vertex 0.017522238194942474 -0.09213998913764954 -0.03505033999681473
			vertex 0.018350042402744293 -0.08951626718044281 -0.0351906418800354
		endloop
	endfacet
	facet normal 0 1 0
		outer loop
			vertex -0.0555555522441864 0.10202724486589432 -0.036741629242897034
			vertex -0.0555555522441864 0.10202724486589432 0.019946778193116188
			vertex -0.0214703232049942 0.10202724486589432 -0.036741629242897034
		endloop
	endfacet
	facet normal 0 1 0
		outer loop
			vertex 0.055555559694767 0.10202724486589432 0.036741625517606735
			vertex 0.055555559694767 0.10202724486589432 -0.036741629242897034
			vertex -0.0214703232049942 0.10202724486589432 -0.036741629242897034
		endloop
	endfacet
	facet normal 0 1 0
		outer loop
			vertex 0.055555559694767 0.10202724486589432 0.036741625517606735
			vertex -0.0214703232049942 0.10202724486589432 -0.036741629242897034
			vertex -0.0555555522441864 0.10202724486589432 0.019946778193116188
		endloop
	endfacet
	facet normal 0 1 0
		outer loop
			vertex 0.055555559694767 0.10202724486589432 0.036741625517606735
			vertex -0.0555555522441864 0.10202724486589432 0.019946778193116188
			vertex -0.0555555522441864 0.10202724486589432 0.036741625517606735
		endloop
	endfacet
	facet normal 0.5337826490406767 -0.6345593235919718 0.5589369807282544
		outer loop
			vertex 0.055555559694767 -0.02045743726193905 0.027952322736382484
			vertex 0.03772307187318802 -0.047983475029468536 0.013732058927416801
			vertex 0.04802840203046799 -0.05378086119890213 -0.002691244939342141
		endloop
	endfacet
	facet normal 0.5337820200823027 -0.6345595243152875 0.5589373535000253
		outer loop
			vertex 0.055555559694767 -0.02045743726193905 0.027952322736382484
			vertex 0.04802840203046799 -0.05378086119890213 -0.002691244939342141
			vertex 0.055555559694767 -0.05088580399751663 -0.006592890247702599
		endloop
	endfacet
	facet normal 0.2887958834789534 -0.5804305458582228 0.7613785649204582
		outer loop
			vertex 0.019948400557041168 -0.026644593104720116 0.036741625517606735
			vertex 0.03772307187318802 -0.047983475029468536 0.013732058927416801
			vertex 0.055555559694767 -0.02045743726193905 0.027952322736382484
		endloop
	endfacet
	facet normal 0.28879588584017146 -0.5804303667245011 0.761378700585886
		outer loop
			vertex 0.019948400557041168 -0.026644593104720116 0.036741625517606735
			vertex 0.055555559694767 -0.02045743726193905 0.027952322736382484
			vertex 0.055555559694767 -0.008928081952035427 0.036741625517606735
		endloop
	endfacet
	facet normal 0.44358030971851564 -0.8714993246987763 0.20910627891003805
		outer loop
			vertex 0.055555559694767 -0.05088580399751663 -0.006592890247702599
			vertex 0.04802840203046799 -0.05378086119890213 -0.002691244939342141
			vertex 0.055555559694767 -0.05335252732038498 -0.016873536631464958
		endloop
	endfacet
	facet normal 1 0 0
		outer loop
			vertex 0.055555559694767 0.004798182751983404 0.036741625517606735
			vertex 0.055555559694767 -0.008928081952035427 0.036741625517606735
			vertex 0.055555559694767 -0.02045743726193905 0.027952322736382484
		endloop
	endfacet
	facet normal 1 0 0
		outer loop
			vertex 0.055555559694767 0.004798182751983404 0.036741625517606735
			vertex 0.055555559694767 -0.02045743726193905 0.027952322736382484
			vertex 0.055555559694767 -0.03424983471632004 0.0122938621789217
		endloop
	endfacet
	facet normal 1 0 0
		outer loop
			vertex 0.055555559694767 0.004798182751983404 0.036741625517606735
			vertex 0.055555559694767 -0.03424983471632004 0.0122938621789217
			vertex 0.055555559694767 -0.006973004434257746 0.0025029347743839025
		endloop
	endfacet
	facet normal 1 0 0
		outer loop
			vertex 0.055555559694767 -0.019148727878928185 -0.03291246294975281
			vertex 0.055555559694767 -0.006973004434257746 0.0025029347743839025
			vertex 0.055555559694767 -0.03424983471632004 0.0122938621789217
		endloop
	endfacet
	facet normal 1 0 0
		outer loop
			vertex 0.055555559694767 -0.019148727878928185 -0.03291246294975281
			vertex 0.055555559694767 -0.03424983471632004 0.0122938621789217
			vertex 0.055555559694767 -0.05088580399751663 -0.006592890247702599
		endloop
	endfacet
	facet normal 1 0 0
		outer loop
			vertex 0.055555559694767 -0.019148727878928185 -0.03291246294975281
			vertex 0.055555559694767 -0.05088580399751663 -0.006592890247702599
			vertex 0.055555559694767 -0.05335252732038498 -0.016873536631464958
		endloop
	endfacet
	facet normal 0.5337828226710459 -0.6345591389736807 0.5589370245084072
		outer loop
			vertex 0.03772307187318802 -0.047983475029468536 0.013732058927416801
			vertex 0.029300980269908905 -0.060983724892139435 0.0070159900933504105
			vertex 0.04802840203046799 -0.05378086119890213 -0.002691244939342141
		endloop
	endfacet
	facet normal 0.9180487603653572 0.1464264259331504 0.3684369354178196
		outer loop
			vertex 0.018961630761623383 -0.0709545686841011 0.036741625517606735
			vertex 0.030296050012111664 -0.08074292540550232 0.012389356270432472
			vertex 0.029300980269908905 -0.060983724892139435 0.0070159900933504105
		endloop
	endfacet
	facet normal 0.9180488042036941 0.14642625607439744 0.3684368936903615
		outer loop
			vertex 0.018961630761623383 -0.0709545686841011 0.036741625517606735
			vertex 0.029300980269908905 -0.060983724892139435 0.0070159900933504105
			vertex 0.015100413002073765 -0.04674588888883591 0.036741625517606735
		endloop
	endfacet
	facet normal 0.9748598298557447 -0.01142054897486809 -0.2225261404750938
		outer loop
			vertex 0.029300980269908905 -0.060983724892139435 0.0070159900933504105
			vertex 0.030296050012111664 -0.08074292540550232 0.012389356270432472
			vertex 0.02321270853281021 -0.08836089819669724 -0.018250925466418266
		endloop
	endfacet
	facet normal 0.28879591559357387 -0.580430231329267 0.7613787925175769
		outer loop
			vertex 0.0124864736571908 -0.03035729192197323 0.036741625517606735
			vertex 0.029300980269908905 -0.060983724892139435 0.0070159900933504105
			vertex 0.03772307187318802 -0.047983475029468536 0.013732058927416801
		endloop
	endfacet
	facet normal 0.2887948857078283 -0.5804312259826225 0.7613784248935036
		outer loop
			vertex 0.0124864736571908 -0.03035729192197323 0.036741625517606735
			vertex 0.03772307187318802 -0.047983475029468536 0.013732058927416801
			vertex 0.019948400557041168 -0.026644593104720116 0.036741625517606735
		endloop
	endfacet
	facet normal 0.9180488092422812 0.14642643954534576 0.3684368082194055
		outer loop
			vertex 0.015100413002073765 -0.04674588888883591 0.036741625517606735
			vertex 0.029300980269908905 -0.060983724892139435 0.0070159900933504105
			vertex 0.0124864736571908 -0.03035729192197323 0.036741625517606735
		endloop
	endfacet
	facet normal 0.9748596199416341 -0.011419609052505277 -0.2225271083179322
		outer loop
			vertex 0.029300980269908905 -0.060983724892139435 0.0070159900933504105
			vertex 0.02321270853281021 -0.08836089819669724 -0.018250925466418266
			vertex 0.020234666764736176 -0.09156370162963867 -0.03113294206559658
		endloop
	endfacet
	facet normal 0.9748598210167625 -0.011420846827455616 -0.2225261639109201
		outer loop
			vertex 0.029300980269908905 -0.060983724892139435 0.0070159900933504105
			vertex 0.020234666764736176 -0.09156370162963867 -0.03113294206559658
			vertex 0.01933089643716812 -0.08640744537115097 -0.03535688668489456
		endloop
	endfacet
	facet normal 0.39244846284617346 -0.8632685149283571 -0.31741404370800114
		outer loop
			vertex 0.02075093239545822 -0.08525273203849792 -0.036741629242897034
			vertex 0.01933089643716812 -0.08640744537115097 -0.03535688668489456
			vertex 0.019019119441509247 -0.08604002743959427 -0.036741629242897034
		endloop
	endfacet
	facet normal 0.5520566129214624 -0.7658866352650048 0.3296227511142589
		outer loop
			vertex 0.023482240736484528 -0.08401109278202057 -0.036741629242897034
			vertex 0.01933089643716812 -0.08640744537115097 -0.03535688668489456
			vertex 0.021868102252483368 -0.0851745754480362 -0.036741629242897034
		endloop
	endfacet
	facet normal 0.05555570928672644 -0.7941129907806397 -0.6052256777757176
		outer loop
			vertex 0.021868102252483368 -0.0851745754480362 -0.036741629242897034
			vertex 0.01933089643716812 -0.08640744537115097 -0.03535688668489456
			vertex 0.02075093239545822 -0.08525273203849792 -0.036741629242897034
		endloop
	endfacet
	facet normal 0.4435813703509914 -0.8714986448577303 0.20910686236629467
		outer loop
			vertex 0.055555559694767 -0.05335252732038498 -0.016873536631464958
			vertex 0.04802840203046799 -0.05378086119890213 -0.002691244939342141
			vertex 0.029300980269908905 -0.060983724892139435 0.0070159900933504105
		endloop
	endfacet
	facet normal 0.4435799321856316 -0.871499848336604 0.20910489738757143
		outer loop
			vertex 0.055555559694767 -0.05335252732038498 -0.016873536631464958
			vertex 0.029300980269908905 -0.060983724892139435 0.0070159900933504105
			vertex 0.055555559694767 -0.054626815021038055 -0.0221844669431448
		endloop
	endfacet
	facet normal 0.552057527243468 -0.7658794296620558 0.329637961761615
		outer loop
			vertex 0.01933089643716812 -0.08640744537115097 -0.03535688668489456
			vertex 0.023482240736484528 -0.08401109278202057 -0.036741629242897034
			vertex 0.055555559694767 -0.06089215725660324 -0.036741629242897034
		endloop
	endfacet
	facet normal 0.5520585581698889 -0.7658812116997632 0.32963209479158156
		outer loop
			vertex 0.01933089643716812 -0.08640744537115097 -0.03535688668489456
			vertex 0.055555559694767 -0.06089215725660324 -0.036741629242897034
			vertex 0.055555559694767 -0.054626815021038055 -0.0221844669431448
		endloop
	endfacet
	facet normal 0.55205833817042 -0.7658811617518735 0.3296325792911178
		outer loop
			vertex 0.01933089643716812 -0.08640744537115097 -0.03535688668489456
			vertex 0.055555559694767 -0.054626815021038055 -0.0221844669431448
			vertex 0.029300980269908905 -0.060983724892139435 0.0070159900933504105
		endloop
	endfacet
	facet normal 1 0 0
		outer loop
			vertex 0.055555559694767 -0.06089215725660324 -0.036741629242897034
			vertex 0.055555559694767 -0.05811961740255356 -0.036741629242897034
			vertex 0.055555559694767 -0.054626815021038055 -0.0221844669431448
		endloop
	endfacet
	facet normal 1 0 0
		outer loop
			vertex 0.055555559694767 -0.05811961740255356 -0.036741629242897034
			vertex 0.055555559694767 -0.020465170964598656 -0.036741629242897034
			vertex 0.055555559694767 -0.019148727878928185 -0.03291246294975281
		endloop
	endfacet
	facet normal 1 0 0
		outer loop
			vertex 0.055555559694767 -0.05811961740255356 -0.036741629242897034
			vertex 0.055555559694767 -0.019148727878928185 -0.03291246294975281
			vertex 0.055555559694767 -0.05335252732038498 -0.016873536631464958
		endloop
	endfacet
	facet normal 0.39243731157838413 -0.8632739747913996 -0.317412981664248
		outer loop
			vertex 0.019019119441509247 -0.08604002743959427 -0.036741629242897034
			vertex 0.01933089643716812 -0.08640744537115097 -0.03535688668489456
			vertex 0.017675958573818207 -0.08665061742067337 -0.036741629242897034
		endloop
	endfacet
	facet normal 0.6433311341522363 -0.24181724152191317 -0.7263948468519928
		outer loop
			vertex 0.017003975808620453 -0.08843836188316345 -0.036741629242897034
			vertex 0.017675958573818207 -0.08665061742067337 -0.036741629242897034
			vertex 0.01933089643716812 -0.08640744537115097 -0.03535688668489456
		endloop
	endfacet
	facet normal 0.6433321761309263 -0.2418195998933128 -0.7263931389145173
		outer loop
			vertex 0.017003975808620453 -0.08843836188316345 -0.036741629242897034
			vertex 0.01933089643716812 -0.08640744537115097 -0.03535688668489456
			vertex 0.018350042402744293 -0.08951626718044281 -0.0351906418800354
		endloop
	endfacet
	facet normal 0.8162650804494522 -0.2844188062542778 -0.5028093685361688
		outer loop
			vertex 0.01933089643716812 -0.08640744537115097 -0.03535688668489456
			vertex 0.020072542130947113 -0.09155963361263275 -0.031238509342074394
			vertex 0.01985848695039749 -0.09160834550857544 -0.031558454036712646
		endloop
	endfacet
	facet normal 0.8162598560553287 -0.2844235646301209 -0.5028151581601628
		outer loop
			vertex 0.01933089643716812 -0.08640744537115097 -0.03535688668489456
			vertex 0.01985848695039749 -0.09160834550857544 -0.031558454036712646
			vertex 0.018350042402744293 -0.08951626718044281 -0.0351906418800354
		endloop
	endfacet
	facet normal 0.4591784495544926 -0.5134002570652269 -0.7249657423010355
		outer loop
			vertex 0.01933089643716812 -0.08640744537115097 -0.03535688668489456
			vertex 0.020234666764736176 -0.09156370162963867 -0.03113294206559658
			vertex 0.020072542130947113 -0.09155963361263275 -0.031238509342074394
		endloop
	endfacet
	facet normal 1 0 0
		outer loop
			vertex 0.055555559694767 0.014181085862219334 0.036741625517606735
			vertex 0.055555559694767 0.004798182751983404 0.036741625517606735
			vertex 0.055555559694767 -0.003865084145218134 0.01154291070997715
		endloop
	endfacet
	facet normal 1 0 0
		outer loop
			vertex 0.055555559694767 0.005829805042594671 0.02508033625781536
			vertex 0.055555559694767 -0.003865084145218134 0.01154291070997715
			vertex 0.055555559694767 -0.006973004434257746 0.0025029347743839025
		endloop
	endfacet
	facet normal 1 0 0
		outer loop
			vertex 0.055555559694767 0.005829805042594671 0.02508033625781536
			vertex 0.055555559694767 -0.006973004434257746 0.0025029347743839025
			vertex 0.055555559694767 -0.005854329559952021 0.0021013931836932898
		endloop
	endfacet
	facet normal 1 0 0
		outer loop
			vertex 0.055555559694767 -0.005854329559952021 0.0021013931836932898
			vertex 0.055555559694767 -0.006973004434257746 0.0025029347743839025
			vertex 0.055555559694767 -0.009734741412103176 -0.005530087277293205
		endloop
	endfacet
	facet normal 1 0 0
		outer loop
			vertex 0.055555559694767 -0.020465170964598656 -0.036741629242897034
			vertex 0.055555559694767 -0.01688905619084835 -0.036741629242897034
			vertex 0.055555559694767 -0.0102648651227355 -0.023486508056521416
		endloop
	endfacet
	facet normal 1 0 0
		outer loop
			vertex 0.055555559694767 -0.020465170964598656 -0.036741629242897034
			vertex 0.055555559694767 -0.0102648651227355 -0.023486508056521416
			vertex 0.055555559694767 -0.013612157665193081 -0.01680830679833889
		endloop
	endfacet
	facet normal 1 0 0
		outer loop
			vertex 0.055555559694767 -0.01688905619084835 -0.036741629242897034
			vertex 0.055555559694767 -0.003621032927185297 -0.036741629242897034
			vertex 0.055555559694767 -0.0102648651227355 -0.023486508056521416
		endloop
	endfacet
	facet normal 1 0 0
		outer loop
			vertex 0.055555559694767 0.007616320159286261 0.027574917301535606
			vertex 0.055555559694767 0.005829805042594671 0.02508033625781536
			vertex 0.055555559694767 -0.005854329559952021 0.0021013931836932898
		endloop
	endfacet
	facet normal 1 0 0
		outer loop
			vertex 0.055555559694767 0.007616320159286261 0.027574917301535606
			vertex 0.055555559694767 -0.005854329559952021 0.0021013931836932898
			vertex 0.055555559694767 0.0008697001612745225 -0.00031217015930451453
		endloop
	endfacet
	facet normal 1 0 0
		outer loop
			vertex 0.055555559694767 0.0008697001612745225 -0.00031217015930451453
			vertex 0.055555559694767 -0.005854329559952021 0.0021013931836932898
			vertex 0.055555559694767 -0.009734741412103176 -0.005530087277293205
		endloop
	endfacet
	facet normal 1 0 0
		outer loop
			vertex 0.055555559694767 0.0008697001612745225 -0.00031217015930451453
			vertex 0.055555559694767 -0.009734741412103176 -0.005530087277293205
			vertex 0.055555559694767 -0.013612157665193081 -0.01680830679833889
		endloop
	endfacet
	facet normal 1 0 0
		outer loop
			vertex 0.055555559694767 0.0008697001612745225 -0.00031217015930451453
			vertex 0.055555559694767 -0.013612157665193081 -0.01680830679833889
			vertex 0.055555559694767 -0.0102648651227355 -0.023486508056521416
		endloop
	endfacet
	facet normal 1 0 0
		outer loop
			vertex 0.055555559694767 0.0008697001612745225 -0.00031217015930451453
			vertex 0.055555559694767 -0.0102648651227355 -0.023486508056521416
			vertex 0.055555559694767 0.0004504858225118369 -0.002044921973720193
		endloop
	endfacet
	facet normal 1 0 0
		outer loop
			vertex 0.055555559694767 -0.0102648651227355 -0.023486508056521416
			vertex 0.055555559694767 -0.006536415312439203 -0.030925175175070763
			vertex 0.055555559694767 0.0004504858225118369 -0.002044921973720193
		endloop
	endfacet
	facet normal 1 0 0
		outer loop
			vertex 0.055555559694767 0.019833916798233986 0.036741625517606735
			vertex 0.055555559694767 0.014181085862219334 0.036741625517606735
			vertex 0.055555559694767 0.007616320159286261 0.027574917301535606
		endloop
	endfacet
	facet normal 1 0 0
		outer loop
			vertex 0.055555559694767 0.019833916798233986 0.036741625517606735
			vertex 0.055555559694767 0.007616320159286261 0.027574917301535606
			vertex 0.055555559694767 0.0008697001612745225 -0.00031217015930451453
		endloop
	endfacet
	facet normal 1 0 0
		outer loop
			vertex 0.055555559694767 0.019833916798233986 0.036741625517606735
			vertex 0.055555559694767 0.0008697001612745225 -0.00031217015930451453
			vertex 0.055555559694767 0.0012484877370297909 -0.00044813580461777747
		endloop
	endfacet
	facet normal 1 0 0
		outer loop
			vertex 0.055555559694767 0.0012484877370297909 -0.00044813580461777747
			vertex 0.055555559694767 0.0008697001612745225 -0.00031217015930451453
			vertex 0.055555559694767 0.0004504858225118369 -0.002044921973720193
		endloop
	endfacet
	facet normal 1 0 0
		outer loop
			vertex 0.055555559694767 0.04409841448068619 0.036741625517606735
			vertex 0.055555559694767 0.019833916798233986 0.036741625517606735
			vertex 0.055555559694767 0.0012484877370297909 -0.00044813580461777747
		endloop
	endfacet
	facet normal 1 0 0
		outer loop
			vertex 0.055555559694767 0.04409841448068619 0.036741625517606735
			vertex 0.055555559694767 0.0012484877370297909 -0.00044813580461777747
			vertex 0.055555559694767 0.04153747111558914 -0.014909742400050163
		endloop
	endfacet
	facet normal 1 0 0
		outer loop
			vertex 0.055555559694767 -0.003621032927185297 -0.036741629242897034
			vertex 0.055555559694767 0.04045502096414566 -0.036741629242897034
			vertex 0.055555559694767 0.04153747111558914 -0.014909742400050163
		endloop
	endfacet
	facet normal 1 0 0
		outer loop
			vertex 0.055555559694767 -0.003621032927185297 -0.036741629242897034
			vertex 0.055555559694767 0.04153747111558914 -0.014909742400050163
			vertex 0.055555559694767 0.0012484877370297909 -0.00044813580461777747
		endloop
	endfacet
	facet normal 1 0 0
		outer loop
			vertex 0.055555559694767 -0.003621032927185297 -0.036741629242897034
			vertex 0.055555559694767 0.0012484877370297909 -0.00044813580461777747
			vertex 0.055555559694767 0.0004504858225118369 -0.002044921973720193
		endloop
	endfacet
	facet normal 1 0 0
		outer loop
			vertex 0.055555559694767 -0.003621032927185297 -0.036741629242897034
			vertex 0.055555559694767 0.0004504858225118369 -0.002044921973720193
			vertex 0.055555559694767 -0.006536415312439203 -0.030925175175070763
		endloop
	endfacet
	facet normal 1 0 0
		outer loop
			vertex 0.055555559694767 0.046425558626651764 0.036741625517606735
			vertex 0.055555559694767 0.04409841448068619 0.036741625517606735
			vertex 0.055555559694767 0.04153747111558914 -0.014909742400050163
		endloop
	endfacet
	facet normal 1 0 0
		outer loop
			vertex 0.055555559694767 0.046425558626651764 0.036741625517606735
			vertex 0.055555559694767 0.04153747111558914 -0.014909742400050163
			vertex 0.055555559694767 0.04301335662603378 -0.015439493581652641
		endloop
	endfacet
	facet normal 1 0 0
		outer loop
			vertex 0.055555559694767 0.04045502096414566 -0.036741629242897034
			vertex 0.055555559694767 0.04162035137414932 -0.036741629242897034
			vertex 0.055555559694767 0.04301335662603378 -0.015439493581652641
		endloop
	endfacet
	facet normal 1 0 0
		outer loop
			vertex 0.055555559694767 0.04045502096414566 -0.036741629242897034
			vertex 0.055555559694767 0.04301335662603378 -0.015439493581652641
			vertex 0.055555559694767 0.04153747111558914 -0.014909742400050163
		endloop
	endfacet
	facet normal 1 0 0
		outer loop
			vertex 0.055555559694767 0.08351827412843704 0.036741625517606735
			vertex 0.055555559694767 0.046425558626651764 0.036741625517606735
			vertex 0.055555559694767 0.04301335662603378 -0.015439493581652641
		endloop
	endfacet
	facet normal 1 0 0
		outer loop
			vertex 0.055555559694767 0.08351827412843704 0.036741625517606735
			vertex 0.055555559694767 0.04301335662603378 -0.015439493581652641
			vertex 0.055555559694767 0.0669599249958992 -0.024035034701228142
		endloop
	endfacet
	facet normal 1 0 0
		outer loop
			vertex 0.055555559694767 0.04162035137414932 -0.036741629242897034
			vertex 0.055555559694767 0.06349805742502213 -0.036741629242897034
			vertex 0.055555559694767 0.0669599249958992 -0.024035034701228142
		endloop
	endfacet
	facet normal 1 0 0
		outer loop
			vertex 0.055555559694767 0.04162035137414932 -0.036741629242897034
			vertex 0.055555559694767 0.0669599249958992 -0.024035034701228142
			vertex 0.055555559694767 0.04301335662603378 -0.015439493581652641
		endloop
	endfacet
	facet normal 1 0 0
		outer loop
			vertex 0.055555559694767 0.10202724486589432 0.036741625517606735
			vertex 0.055555559694767 0.08351827412843704 0.036741625517606735
			vertex 0.055555559694767 0.0669599249958992 -0.024035034701228142
		endloop
	endfacet
	facet normal 1 0 0
		outer loop
			vertex 0.055555559694767 0.10202724486589432 0.036741625517606735
			vertex 0.055555559694767 0.0669599249958992 -0.024035034701228142
			vertex 0.055555559694767 0.10202724486589432 -0.03662233054637909
		endloop
	endfacet
	facet normal 1 0 0
		outer loop
			vertex 0.055555559694767 0.06349805742502213 -0.036741629242897034
			vertex 0.055555559694767 0.10202724486589432 -0.036741629242897034
			vertex 0.055555559694767 0.10202724486589432 -0.03662233054637909
		endloop
	endfacet
	facet normal 1 0 0
		outer loop
			vertex 0.055555559694767 0.06349805742502213 -0.036741629242897034
			vertex 0.055555559694767 0.10202724486589432 -0.03662233054637909
			vertex 0.055555559694767 0.0669599249958992 -0.024035034701228142
		endloop
	endfacet
	facet normal -1 0 0
		outer loop
			vertex -0.0555555522441864 -0.07656233757734299 -0.036741629242897034
			vertex -0.0555555522441864 -0.1023595854640007 -0.036741629242897034
			vertex -0.0555555522441864 -0.07345487922430038 -0.026366380974650383
		endloop
	endfacet
	facet normal -1 0 0
		outer loop
			vertex -0.0555555522441864 -0.1023595854640007 -0.036741629242897034
			vertex -0.0555555522441864 -0.1023595854640007 0.036741625517606735
			vertex -0.0555555522441864 -0.054553546011447906 0.036741625517606735
		endloop
	endfacet
	facet normal -1 0 0
		outer loop
			vertex -0.0555555522441864 -0.1023595854640007 -0.036741629242897034
			vertex -0.0555555522441864 -0.054553546011447906 0.036741625517606735
			vertex -0.0555555522441864 -0.07345487922430038 -0.026366380974650383
		endloop
	endfacet
	facet normal -1 0 0
		outer loop
			vertex -0.0555555522441864 -0.0693603977560997 -0.036741629242897034
			vertex -0.0555555522441864 -0.07656233757734299 -0.036741629242897034
			vertex -0.0555555522441864 -0.07374744862318039 -0.02734324149787426
		endloop
	endfacet
	facet normal -1 0 0
		outer loop
			vertex -0.0555555522441864 -0.0423855260014534 -0.036741629242897034
			vertex -0.0555555522441864 -0.0693603977560997 -0.036741629242897034
			vertex -0.0555555522441864 -0.07374744862318039 -0.02734324149787426
		endloop
	endfacet
	facet normal -1 0 0
		outer loop
			vertex -0.0555555522441864 -0.0423855260014534 -0.036741629242897034
			vertex -0.0555555522441864 -0.07374744862318039 -0.02734324149787426
			vertex -0.0555555522441864 -0.07345487922430038 -0.026366380974650383
		endloop
	endfacet
	facet normal -1 0 0
		outer loop
			vertex -0.0555555522441864 -0.0423855260014534 -0.036741629242897034
			vertex -0.0555555522441864 -0.07345487922430038 -0.026366380974650383
			vertex -0.0555555522441864 -0.03394252806901932 -0.012183552607893944
		endloop
	endfacet
	facet normal -1 0 0
		outer loop
			vertex -0.0555555522441864 -0.054553546011447906 0.036741625517606735
			vertex -0.0555555522441864 -0.01712215505540371 0.036741625517606735
			vertex -0.0555555522441864 -0.03394252806901932 -0.012183552607893944
		endloop
	endfacet
	facet normal -1 0 0
		outer loop
			vertex -0.0555555522441864 -0.054553546011447906 0.036741625517606735
			vertex -0.0555555522441864 -0.03394252806901932 -0.012183552607893944
			vertex -0.0555555522441864 -0.07345487922430038 -0.026366380974650383
		endloop
	endfacet
	facet normal -1 0 0
		outer loop
			vertex -0.0555555522441864 -0.01712215505540371 0.036741625517606735
			vertex -0.0555555522441864 -0.013327634893357754 0.036741625517606735
			vertex -0.0555555522441864 -0.020625626668334007 0.026551077142357826
		endloop
	endfacet
	facet normal -1 0 0
		outer loop
			vertex -0.0555555522441864 -0.030169596895575523 -0.036741629242897034
			vertex -0.0555555522441864 -0.0423855260014534 -0.036741629242897034
			vertex -0.0555555522441864 -0.03394252806901932 -0.012183552607893944
		endloop
	endfacet
	facet normal -1 0 0
		outer loop
			vertex -0.0555555522441864 -0.030169596895575523 -0.036741629242897034
			vertex -0.0555555522441864 -0.03394252806901932 -0.012183552607893944
			vertex -0.0555555522441864 -0.014052263461053371 -0.005044011399149895
		endloop
	endfacet
	facet normal -1 0 0
		outer loop
			vertex -0.0555555522441864 -0.013327634893357754 0.036741625517606735
			vertex -0.0555555522441864 0.0071945576928555965 0.036741625517606735
			vertex -0.0555555522441864 -0.014052263461053371 -0.005044011399149895
		endloop
	endfacet
	facet normal -1 0 0
		outer loop
			vertex -0.0555555522441864 -0.013327634893357754 0.036741625517606735
			vertex -0.0555555522441864 -0.014052263461053371 -0.005044011399149895
			vertex -0.0555555522441864 -0.03394252806901932 -0.012183552607893944
		endloop
	endfacet
	facet normal -1 0 0
		outer loop
			vertex -0.0555555522441864 -0.013327634893357754 0.036741625517606735
			vertex -0.0555555522441864 -0.03394252806901932 -0.012183552607893944
			vertex -0.0555555522441864 -0.020625626668334007 0.026551077142357826
		endloop
	endfacet
	facet normal -1 0 0
		outer loop
			vertex -0.0555555522441864 -0.018153807148337364 -0.036741629242897034
			vertex -0.0555555522441864 -0.030169596895575523 -0.036741629242897034
			vertex -0.0555555522441864 -0.024118592962622643 -0.024841254577040672
		endloop
	endfacet
	facet normal -1 0 0
		outer loop
			vertex -0.0555555522441864 -0.022984227165579796 -0.027104435488581657
			vertex -0.0555555522441864 -0.024118592962622643 -0.024841254577040672
			vertex -0.0555555522441864 -0.020910164341330528 -0.01853129081428051
		endloop
	endfacet
	facet normal -1 0 0
		outer loop
			vertex -0.0555555522441864 0.037001170217990875 -0.036741629242897034
			vertex -0.0555555522441864 -0.018153807148337364 -0.036741629242897034
			vertex -0.0555555522441864 -0.022984227165579796 -0.027104435488581657
		endloop
	endfacet
	facet normal -1 0 0
		outer loop
			vertex -0.0555555522441864 0.037001170217990875 -0.036741629242897034
			vertex -0.0555555522441864 -0.022984227165579796 -0.027104435488581657
			vertex -0.0555555522441864 -0.020910164341330528 -0.01853129081428051
		endloop
	endfacet
	facet normal -1 0 0
		outer loop
			vertex -0.0555555522441864 0.037001170217990875 -0.036741629242897034
			vertex -0.0555555522441864 -0.020910164341330528 -0.01853129081428051
			vertex -0.0555555522441864 -0.014052263461053371 -0.005044011399149895
		endloop
	endfacet
	facet normal -1 0 0
		outer loop
			vertex -0.0555555522441864 0.037001170217990875 -0.036741629242897034
			vertex -0.0555555522441864 -0.014052263461053371 -0.005044011399149895
			vertex -0.0555555522441864 0.056331850588321686 0.02022012509405613
		endloop
	endfacet
	facet normal -1 0 0
		outer loop
			vertex -0.0555555522441864 0.0071945576928555965 0.036741625517606735
			vertex -0.0555555522441864 0.05884454399347305 0.036741625517606735
			vertex -0.0555555522441864 0.058106012642383575 0.025448104366660118
		endloop
	endfacet
	facet normal -1 0 0
		outer loop
			vertex -0.0555555522441864 0.0071945576928555965 0.036741625517606735
			vertex -0.0555555522441864 0.058106012642383575 0.025448104366660118
			vertex -0.0555555522441864 0.056331850588321686 0.02022012509405613
		endloop
	endfacet
	facet normal -1 0 0
		outer loop
			vertex -0.0555555522441864 0.0071945576928555965 0.036741625517606735
			vertex -0.0555555522441864 0.056331850588321686 0.02022012509405613
			vertex -0.0555555522441864 -0.014052263461053371 -0.005044011399149895
		endloop
	endfacet
	facet normal -1 0 0
		outer loop
			vertex -0.0555555522441864 0.05403933674097061 -0.036741629242897034
			vertex -0.0555555522441864 0.037001170217990875 -0.036741629242897034
			vertex -0.0555555522441864 0.056331850588321686 0.02022012509405613
		endloop
	endfacet
	facet normal -1 0 0
		outer loop
			vertex -0.0555555522441864 0.05403933674097061 -0.036741629242897034
			vertex -0.0555555522441864 0.056331850588321686 0.02022012509405613
			vertex -0.0555555522441864 0.0577986016869545 0.020746609196066856
		endloop
	endfacet
	facet normal -1 0 0
		outer loop
			vertex -0.0555555522441864 0.058106012642383575 0.025448104366660118
			vertex -0.0555555522441864 0.0577986016869545 0.020746609196066856
			vertex -0.0555555522441864 0.056331850588321686 0.02022012509405613
		endloop
	endfacet
	facet normal -1 0 0
		outer loop
			vertex -0.0555555522441864 0.05884454399347305 0.036741625517606735
			vertex -0.0555555522441864 0.06193862110376358 0.036741625517606735
			vertex -0.0555555522441864 0.058106012642383575 0.025448104366660118
		endloop
	endfacet
	facet normal -1 0 0
		outer loop
			vertex -0.0555555522441864 0.0867324247956276 -0.036741629242897034
			vertex -0.0555555522441864 0.05403933674097061 -0.036741629242897034
			vertex -0.0555555522441864 0.0577986016869545 0.020746609196066856
		endloop
	endfacet
	facet normal -1 0 0
		outer loop
			vertex -0.0555555522441864 0.0867324247956276 -0.036741629242897034
			vertex -0.0555555522441864 0.0577986016869545 0.020746609196066856
			vertex -0.0555555522441864 0.10202724486589432 0.03662233054637909
		endloop
	endfacet
	facet normal -1 0 0
		outer loop
			vertex -0.0555555522441864 0.0867324247956276 -0.036741629242897034
			vertex -0.0555555522441864 0.10202724486589432 0.03662233054637909
			vertex -0.0555555522441864 0.10202724486589432 0.019397130236029625
		endloop
	endfacet
	facet normal -1 0 0
		outer loop
			vertex -0.0555555522441864 0.06193862110376358 0.036741625517606735
			vertex -0.0555555522441864 0.10202724486589432 0.036741625517606735
			vertex -0.0555555522441864 0.10202724486589432 0.03662233054637909
		endloop
	endfacet
	facet normal -1 0 0
		outer loop
			vertex -0.0555555522441864 0.06193862110376358 0.036741625517606735
			vertex -0.0555555522441864 0.10202724486589432 0.03662233054637909
			vertex -0.0555555522441864 0.0577986016869545 0.020746609196066856
		endloop
	endfacet
	facet normal -1 0 0
		outer loop
			vertex -0.0555555522441864 0.06193862110376358 0.036741625517606735
			vertex -0.0555555522441864 0.0577986016869545 0.020746609196066856
			vertex -0.0555555522441864 0.058106012642383575 0.025448104366660118
		endloop
	endfacet
	facet normal -1 0 0
		outer loop
			vertex -0.0555555522441864 0.10202724486589432 -0.036741629242897034
			vertex -0.0555555522441864 0.0867324247956276 -0.036741629242897034
			vertex -0.0555555522441864 0.10202724486589432 0.019397130236029625
		endloop
	endfacet
	facet normal 0 -1 0
		outer loop
			vertex 0.0221269354224205 -0.1023595854640007 -0.022289087995886803
			vertex 0.02230636030435562 -0.1023595854640007 -0.021503029391169548
			vertex 0.021627165377140045 -0.1023595854640007 -0.022605611011385918
		endloop
	endfacet
	facet normal 0 -1 0
		outer loop
			vertex -0.0555555522441864 -0.1023595854640007 0.036741625517606735
			vertex -0.0555555522441864 -0.1023595854640007 -0.036741629242897034
			vertex 0.03059547394514084 -0.1023595854640007 0.02023429237306118
		endloop
	endfacet
	facet normal 0 -1 0
		outer loop
			vertex -0.0555555522441864 -0.1023595854640007 0.036741625517606735
			vertex 0.03059547394514084 -0.1023595854640007 0.02023429237306118
			vertex 0.023970656096935272 -0.1023595854640007 0.036741625517606735
		endloop
	endfacet
	facet normal 0 -1 0
		outer loop
			vertex -0.0555555522441864 -0.1023595854640007 -0.036741629242897034
			vertex 0.01177115086466074 -0.1023595854640007 -0.036741629242897034
			vertex 0.014297866262495518 -0.1023595854640007 -0.03450383245944977
		endloop
	endfacet
	facet normal 0 -1 0
		outer loop
			vertex -0.0555555522441864 -0.1023595854640007 -0.036741629242897034
			vertex 0.014297866262495518 -0.1023595854640007 -0.03450383245944977
			vertex 0.02230636030435562 -0.1023595854640007 -0.021503029391169548
		endloop
	endfacet
	facet normal 0 -1 0
		outer loop
			vertex -0.0555555522441864 -0.1023595854640007 -0.036741629242897034
			vertex 0.02230636030435562 -0.1023595854640007 -0.021503029391169548
			vertex 0.0313846692442894 -0.1023595854640007 0.018267842009663582
		endloop
	endfacet
	facet normal 0 -1 0
		outer loop
			vertex -0.0555555522441864 -0.1023595854640007 -0.036741629242897034
			vertex 0.0313846692442894 -0.1023595854640007 0.018267842009663582
			vertex 0.03059547394514084 -0.1023595854640007 0.02023429237306118
		endloop
	endfacet
	facet normal 0 0 1
		outer loop
			vertex -0.0555555522441864 -0.054553546011447906 0.036741625517606735
			vertex -0.0555555522441864 -0.1023595854640007 0.036741625517606735
			vertex -0.03237765282392502 -0.059654928743839264 0.036741625517606735
		endloop
	endfacet
	facet normal 0 0 1
		outer loop
			vertex -0.0555555522441864 -0.1023595854640007 0.036741625517606735
			vertex 0.023970656096935272 -0.1023595854640007 0.036741625517606735
			vertex 0.018961630761623383 -0.0709545686841011 0.036741625517606735
		endloop
	endfacet
	facet normal 0 0 1
		outer loop
			vertex -0.0555555522441864 -0.1023595854640007 0.036741625517606735
			vertex 0.018961630761623383 -0.0709545686841011 0.036741625517606735
			vertex -0.03237765282392502 -0.059654928743839264 0.036741625517606735
		endloop
	endfacet
	facet normal 0 0 1
		outer loop
			vertex 0.055555559694767 -0.008928081952035427 0.036741625517606735
			vertex 0.055555559694767 0.004798182751983404 0.036741625517606735
			vertex 0.014076435007154942 -0.0033849389292299747 0.036741625517606735
		endloop
	endfacet
	facet normal 0 0 1
		outer loop
			vertex 0.055555559694767 -0.008928081952035427 0.036741625517606735
			vertex 0.014076435007154942 -0.0033849389292299747 0.036741625517606735
			vertex 0.019948400557041168 -0.026644593104720116 0.036741625517606735
		endloop
	endfacet
	facet normal 0 0 1
		outer loop
			vertex -0.006909563206136227 -0.0652603879570961 0.036741625517606735
			vertex 0.018961630761623383 -0.0709545686841011 0.036741625517606735
			vertex 0.015100413002073765 -0.04674588888883591 0.036741625517606735
		endloop
	endfacet
	facet normal 0 0 1
		outer loop
			vertex -0.04209724813699722 -0.05751567333936691 0.036741625517606735
			vertex -0.03237765282392502 -0.059654928743839264 0.036741625517606735
			vertex -0.027191251516342163 -0.05009914189577103 0.036741625517606735
		endloop
	endfacet
	facet normal 0 0 1
		outer loop
			vertex -0.027191251516342163 -0.05009914189577103 0.036741625517606735
			vertex -0.03237765282392502 -0.059654928743839264 0.036741625517606735
			vertex -0.006909563206136227 -0.0652603879570961 0.036741625517606735
		endloop
	endfacet
	facet normal 0 0 1
		outer loop
			vertex -0.027191251516342163 -0.05009914189577103 0.036741625517606735
			vertex -0.006909563206136227 -0.0652603879570961 0.036741625517606735
			vertex 0.015100413002073765 -0.04674588888883591 0.036741625517606735
		endloop
	endfacet
	facet normal 0 0 1
		outer loop
			vertex -0.027191251516342163 -0.05009914189577103 0.036741625517606735
			vertex 0.015100413002073765 -0.04674588888883591 0.036741625517606735
			vertex 0.0124864736571908 -0.03035729192197323 0.036741625517606735
		endloop
	endfacet
	facet normal 0 0 1
		outer loop
			vertex -0.0555555522441864 -0.01712215505540371 0.036741625517606735
			vertex -0.0555555522441864 -0.054553546011447906 0.036741625517606735
			vertex -0.04209724813699722 -0.05751567333936691 0.036741625517606735
		endloop
	endfacet
	facet normal 0 0 1
		outer loop
			vertex -0.0555555522441864 -0.01712215505540371 0.036741625517606735
			vertex -0.04209724813699722 -0.05751567333936691 0.036741625517606735
			vertex -0.027191251516342163 -0.05009914189577103 0.036741625517606735
		endloop
	endfacet
	facet normal 0 0 1
		outer loop
			vertex -0.0555555522441864 -0.01712215505540371 0.036741625517606735
			vertex -0.027191251516342163 -0.05009914189577103 0.036741625517606735
			vertex -0.0037454580888152122 -0.006900897715240717 0.036741625517606735
		endloop
	endfacet
	facet normal 0 0 1
		outer loop
			vertex 0.014076435007154942 -0.0033849389292299747 0.036741625517606735
			vertex -0.0037454580888152122 -0.006900897715240717 0.036741625517606735
			vertex -0.027191251516342163 -0.05009914189577103 0.036741625517606735
		endloop
	endfacet
	facet normal 0 0 1
		outer loop
			vertex 0.014076435007154942 -0.0033849389292299747 0.036741625517606735
			vertex -0.027191251516342163 -0.05009914189577103 0.036741625517606735
			vertex 0.019948400557041168 -0.026644593104720116 0.036741625517606735
		endloop
	endfacet
	facet normal 0 0 1
		outer loop
			vertex 0.055555559694767 0.004798182751983404 0.036741625517606735
			vertex 0.055555559694767 0.014181085862219334 0.036741625517606735
			vertex 0.012342737056314945 0.003482514526695013 0.036741625517606735
		endloop
	endfacet
	facet normal 0 0 1
		outer loop
			vertex 0.055555559694767 0.004798182751983404 0.036741625517606735
			vertex 0.012342737056314945 0.003482514526695013 0.036741625517606735
			vertex 0.014076435007154942 -0.0033849389292299747 0.036741625517606735
		endloop
	endfacet
	facet normal 0 0 1
		outer loop
			vertex 0.012342737056314945 0.003482514526695013 0.036741625517606735
			vertex 0.01033777091652155 0.00298612704500556 0.036741625517606735
			vertex 0.012569294311106205 -0.003682276699692011 0.036741625517606735
		endloop
	endfacet
	facet normal 0 0 1
		outer loop
			vertex 0.012342737056314945 0.003482514526695013 0.036741625517606735
			vertex 0.012569294311106205 -0.003682276699692011 0.036741625517606735
			vertex 0.014076435007154942 -0.0033849389292299747 0.036741625517606735
		endloop
	endfacet
	facet normal 0 0 1
		outer loop
			vertex -0.0555555522441864 -0.013327634893357754 0.036741625517606735
			vertex -0.0555555522441864 -0.01712215505540371 0.036741625517606735
			vertex -0.0037454580888152122 -0.006900897715240717 0.036741625517606735
		endloop
	endfacet
	facet normal 0 0 1
		outer loop
			vertex -0.0555555522441864 -0.013327634893357754 0.036741625517606735
			vertex -0.0037454580888152122 -0.006900897715240717 0.036741625517606735
			vertex 0.00026755116414278746 0.0004929690039716661 0.036741625517606735
		endloop
	endfacet
	facet normal 0 0 1
		outer loop
			vertex 0.01033777091652155 0.00298612704500556 0.036741625517606735
			vertex 0.00026755116414278746 0.0004929690039716661 0.036741625517606735
			vertex -0.0037454580888152122 -0.006900897715240717 0.036741625517606735
		endloop
	endfacet
	facet normal 0 0 1
		outer loop
			vertex 0.01033777091652155 0.00298612704500556 0.036741625517606735
			vertex -0.0037454580888152122 -0.006900897715240717 0.036741625517606735
			vertex 0.012569294311106205 -0.003682276699692011 0.036741625517606735
		endloop
	endfacet
	facet normal 0 0 1
		outer loop
			vertex -0.0555555522441864 0.0071945576928555965 0.036741625517606735
			vertex -0.0555555522441864 -0.013327634893357754 0.036741625517606735
			vertex 0.00026755116414278746 0.0004929690039716661 0.036741625517606735
		endloop
	endfacet
	facet normal 0 0 1
		outer loop
			vertex -0.0555555522441864 0.0071945576928555965 0.036741625517606735
			vertex 0.00026755116414278746 0.0004929690039716661 0.036741625517606735
			vertex 0.005260885693132877 0.009693020023405552 0.036741625517606735
		endloop
	endfacet
	facet normal 0 0 1
		outer loop
			vertex 0.005260885693132877 0.009693020023405552 0.036741625517606735
			vertex 0.00026755116414278746 0.0004929690039716661 0.036741625517606735
			vertex 0.043827302753925323 0.011277415789663792 0.036741625517606735
		endloop
	endfacet
	facet normal 0 0 1
		outer loop
			vertex 0.055555559694767 0.014181085862219334 0.036741625517606735
			vertex 0.055555559694767 0.019833916798233986 0.036741625517606735
			vertex 0.008823276497423649 0.009839379228651524 0.036741625517606735
		endloop
	endfacet
	facet normal 0 0 1
		outer loop
			vertex 0.055555559694767 0.014181085862219334 0.036741625517606735
			vertex 0.008823276497423649 0.009839379228651524 0.036741625517606735
			vertex 0.043827302753925323 0.011277415789663792 0.036741625517606735
		endloop
	endfacet
	facet normal 0 0 1
		outer loop
			vertex -0.0555555522441864 0.05884454399347305 0.036741625517606735
			vertex -0.0555555522441864 0.0071945576928555965 0.036741625517606735
			vertex 0.005260885693132877 0.009693020023405552 0.036741625517606735
		endloop
	endfacet
	facet normal 0 0 1
		outer loop
			vertex -0.0555555522441864 0.05884454399347305 0.036741625517606735
			vertex 0.005260885693132877 0.009693020023405552 0.036741625517606735
			vertex 0.02644931524991989 0.04873213917016983 0.036741625517606735
		endloop
	endfacet
	facet normal 0 0 1
		outer loop
			vertex -0.0555555522441864 0.05884454399347305 0.036741625517606735
			vertex 0.02644931524991989 0.04873213917016983 0.036741625517606735
			vertex 0.006490268744528294 0.05190963298082352 0.036741625517606735
		endloop
	endfacet
	facet normal 0 0 1
		outer loop
			vertex 0.055555559694767 0.019833916798233986 0.036741625517606735
			vertex 0.055555559694767 0.04409841448068619 0.036741625517606735
			vertex 0.02644931524991989 0.04873213917016983 0.036741625517606735
		endloop
	endfacet
	facet normal 0 0 1
		outer loop
			vertex 0.055555559694767 0.019833916798233986 0.036741625517606735
			vertex 0.02644931524991989 0.04873213917016983 0.036741625517606735
			vertex 0.005260885693132877 0.009693020023405552 0.036741625517606735
		endloop
	endfacet
	facet normal 0 0 1
		outer loop
			vertex 0.055555559694767 0.019833916798233986 0.036741625517606735
			vertex 0.005260885693132877 0.009693020023405552 0.036741625517606735
			vertex 0.008823276497423649 0.009839379228651524 0.036741625517606735
		endloop
	endfacet
	facet normal 0 0 1
		outer loop
			vertex 0.02644931524991989 0.04873213917016983 0.036741625517606735
			vertex 0.02693372219800949 0.04962465912103653 0.036741625517606735
			vertex 0.006490268744528294 0.05190963298082352 0.036741625517606735
		endloop
	endfacet
	facet normal 0 0 1
		outer loop
			vertex 0.055555559694767 0.04409841448068619 0.036741625517606735
			vertex 0.055555559694767 0.046425558626651764 0.036741625517606735
			vertex 0.02693372219800949 0.04962465912103653 0.036741625517606735
		endloop
	endfacet
	facet normal 0 0 1
		outer loop
			vertex 0.055555559694767 0.04409841448068619 0.036741625517606735
			vertex 0.02693372219800949 0.04962465912103653 0.036741625517606735
			vertex 0.02644931524991989 0.04873213917016983 0.036741625517606735
		endloop
	endfacet
	facet normal 0 0 1
		outer loop
			vertex -0.0555555522441864 0.06193862110376358 0.036741625517606735
			vertex -0.0555555522441864 0.05884454399347305 0.036741625517606735
			vertex 0.02693372219800949 0.04962465912103653 0.036741625517606735
		endloop
	endfacet
	facet normal 0 0 1
		outer loop
			vertex -0.0555555522441864 0.06193862110376358 0.036741625517606735
			vertex 0.02693372219800949 0.04962465912103653 0.036741625517606735
			vertex 0.046371765434741974 0.08543870598077774 0.036741625517606735
		endloop
	endfacet
	facet normal 0 0 1
		outer loop
			vertex -0.0555555522441864 0.06193862110376358 0.036741625517606735
			vertex 0.046371765434741974 0.08543870598077774 0.036741625517606735
			vertex 0.014679216779768467 0.09206590801477432 0.036741625517606735
		endloop
	endfacet
	facet normal 0 0 1
		outer loop
			vertex 0.055555559694767 0.046425558626651764 0.036741625517606735
			vertex 0.055555559694767 0.08351827412843704 0.036741625517606735
			vertex 0.046371765434741974 0.08543870598077774 0.036741625517606735
		endloop
	endfacet
	facet normal 0 0 1
		outer loop
			vertex 0.055555559694767 0.046425558626651764 0.036741625517606735
			vertex 0.046371765434741974 0.08543870598077774 0.036741625517606735
			vertex 0.02693372219800949 0.04962465912103653 0.036741625517606735
		endloop
	endfacet
	facet normal 0 0 1
		outer loop
			vertex -0.0555555522441864 0.10202724486589432 0.036741625517606735
			vertex -0.0555555522441864 0.06193862110376358 0.036741625517606735
			vertex 0.014679216779768467 0.09206590801477432 0.036741625517606735
		endloop
	endfacet
	facet normal 0 0 1
		outer loop
			vertex -0.0555555522441864 0.10202724486589432 0.036741625517606735
			vertex 0.014679216779768467 0.09206590801477432 0.036741625517606735
			vertex -0.032957613468170166 0.10202724486589432 0.036741625517606735
		endloop
	endfacet
	facet normal 0 0 1
		outer loop
			vertex 0.046371765434741974 0.08543870598077774 0.036741625517606735
			vertex 0.05537518113851547 0.10202724486589432 0.036741625517606735
			vertex -0.032957613468170166 0.10202724486589432 0.036741625517606735
		endloop
	endfacet
	facet normal 0 0 1
		outer loop
			vertex 0.055555559694767 0.08351827412843704 0.036741625517606735
			vertex 0.055555559694767 0.10202724486589432 0.036741625517606735
			vertex 0.05537518113851547 0.10202724486589432 0.036741625517606735
		endloop
	endfacet
	facet normal 0 0 1
		outer loop
			vertex 0.055555559694767 0.08351827412843704 0.036741625517606735
			vertex 0.05537518113851547 0.10202724486589432 0.036741625517606735
			vertex 0.046371765434741974 0.08543870598077774 0.036741625517606735
		endloop
	endfacet
	facet normal 0 0 -1
		outer loop
			vertex 0.01177115086466074 -0.1023595854640007 -0.036741629242897034
			vertex -0.0555555522441864 -0.1023595854640007 -0.036741629242897034
			vertex -0.0555555522441864 -0.07656233757734299 -0.036741629242897034
		endloop
	endfacet
	facet normal 0 0 -1
		outer loop
			vertex 0.01177115086466074 -0.1023595854640007 -0.036741629242897034
			vertex -0.0555555522441864 -0.07656233757734299 -0.036741629242897034
			vertex 0.015582629479467869 -0.09221964329481125 -0.036741629242897034
		endloop
	endfacet
	facet normal 0 0 -1
		outer loop
			vertex -0.0555555522441864 -0.07656233757734299 -0.036741629242897034
			vertex -0.0555555522441864 -0.0693603977560997 -0.036741629242897034
			vertex -0.017910487949848175 -0.07925835996866226 -0.036741629242897034
		endloop
	endfacet
	facet normal 0 0 -1
		outer loop
			vertex -0.0555555522441864 -0.07656233757734299 -0.036741629242897034
			vertex -0.017910487949848175 -0.07925835996866226 -0.036741629242897034
			vertex -0.025156214833259583 -0.08325314521789551 -0.036741629242897034
		endloop
	endfacet
	facet normal 0 0 -1
		outer loop
			vertex 0.014938184060156345 -0.0878952145576477 -0.036741629242897034
			vertex 0.017003975808620453 -0.08843836188316345 -0.036741629242897034
			vertex 0.015582629479467869 -0.09221964329481125 -0.036741629242897034
		endloop
	endfacet
	facet normal 0 0 -1
		outer loop
			vertex 0.014938184060156345 -0.0878952145576477 -0.036741629242897034
			vertex 0.015582629479467869 -0.09221964329481125 -0.036741629242897034
			vertex 0.008738973177969456 -0.09071337431669235 -0.036741629242897034
		endloop
	endfacet
	facet normal 0 0 -1
		outer loop
			vertex -0.017910487949848175 -0.07925835996866226 -0.036741629242897034
			vertex 0.014938184060156345 -0.0878952145576477 -0.036741629242897034
			vertex 0.008738973177969456 -0.09071337431669235 -0.036741629242897034
		endloop
	endfacet
	facet normal 0 0 -1
		outer loop
			vertex -0.017910487949848175 -0.07925835996866226 -0.036741629242897034
			vertex 0.008738973177969456 -0.09071337431669235 -0.036741629242897034
			vertex -0.025156214833259583 -0.08325314521789551 -0.036741629242897034
		endloop
	endfacet
	facet normal 0 0 -1
		outer loop
			vertex 0.02075093239545822 -0.08525273203849792 -0.036741629242897034
			vertex 0.023482240736484528 -0.08401109278202057 -0.036741629242897034
			vertex 0.021868102252483368 -0.0851745754480362 -0.036741629242897034
		endloop
	endfacet
	facet normal 0 0 -1
		outer loop
			vertex 0.055555559694767 -0.05811961740255356 -0.036741629242897034
			vertex 0.055555559694767 -0.06089215725660324 -0.036741629242897034
			vertex 0.03937811404466629 -0.0725531056523323 -0.036741629242897034
		endloop
	endfacet
	facet normal 0 0 -1
		outer loop
			vertex 0.055555559694767 -0.05811961740255356 -0.036741629242897034
			vertex 0.03937811404466629 -0.0725531056523323 -0.036741629242897034
			vertex 0.0367417111992836 -0.06769559532403946 -0.036741629242897034
		endloop
	endfacet
	facet normal 0 0 -1
		outer loop
			vertex 0.0367417111992836 -0.06769559532403946 -0.036741629242897034
			vertex 0.03937811404466629 -0.0725531056523323 -0.036741629242897034
			vertex 0.023482240736484528 -0.08401109278202057 -0.036741629242897034
		endloop
	endfacet
	facet normal 0 0 -1
		outer loop
			vertex 0.0367417111992836 -0.06769559532403946 -0.036741629242897034
			vertex 0.023482240736484528 -0.08401109278202057 -0.036741629242897034
			vertex 0.019019119441509247 -0.08604002743959427 -0.036741629242897034
		endloop
	endfacet
	facet normal 0 0 -1
		outer loop
			vertex 0.0367417111992836 -0.06769559532403946 -0.036741629242897034
			vertex 0.019019119441509247 -0.08604002743959427 -0.036741629242897034
			vertex 0.01912900060415268 -0.07666019350290298 -0.036741629242897034
		endloop
	endfacet
	facet normal 0 0 -1
		outer loop
			vertex 0.055555559694767 -0.020465170964598656 -0.036741629242897034
			vertex 0.055555559694767 -0.05811961740255356 -0.036741629242897034
			vertex 0.0367417111992836 -0.06769559532403946 -0.036741629242897034
		endloop
	endfacet
	facet normal 0 0 -1
		outer loop
			vertex 0.055555559694767 -0.020465170964598656 -0.036741629242897034
			vertex 0.0367417111992836 -0.06769559532403946 -0.036741629242897034
			vertex 0.019603945314884186 -0.036119721829891205 -0.036741629242897034
		endloop
	endfacet
	facet normal 0 0 -1
		outer loop
			vertex 0.055555559694767 -0.020465170964598656 -0.036741629242897034
			vertex 0.019603945314884186 -0.036119721829891205 -0.036741629242897034
			vertex 0.019704483449459076 -0.027537992224097252 -0.036741629242897034
		endloop
	endfacet
	facet normal 0 0 -1
		outer loop
			vertex 0.019603945314884186 -0.036119721829891205 -0.036741629242897034
			vertex 0.0367417111992836 -0.06769559532403946 -0.036741629242897034
			vertex 0.01912900060415268 -0.07666019350290298 -0.036741629242897034
		endloop
	endfacet
	facet normal 0 0 -1
		outer loop
			vertex 0.017003975808620453 -0.08843836188316345 -0.036741629242897034
			vertex 0.014938184060156345 -0.0878952145576477 -0.036741629242897034
			vertex 0.017675958573818207 -0.08665061742067337 -0.036741629242897034
		endloop
	endfacet
	facet normal 0 0 -1
		outer loop
			vertex 0.019603945314884186 -0.036119721829891205 -0.036741629242897034
			vertex 0.01540642324835062 -0.028385912999510765 -0.036741629242897034
			vertex 0.019704483449459076 -0.027537992224097252 -0.036741629242897034
		endloop
	endfacet
	facet normal 0 0 -1
		outer loop
			vertex -0.0555555522441864 -0.0693603977560997 -0.036741629242897034
			vertex -0.0555555522441864 -0.0423855260014534 -0.036741629242897034
			vertex 0.01540642324835062 -0.028385912999510765 -0.036741629242897034
		endloop
	endfacet
	facet normal 0 0 -1
		outer loop
			vertex -0.0555555522441864 -0.0693603977560997 -0.036741629242897034
			vertex 0.01540642324835062 -0.028385912999510765 -0.036741629242897034
			vertex 0.019603945314884186 -0.036119721829891205 -0.036741629242897034
		endloop
	endfacet
	facet normal 0 0 -1
		outer loop
			vertex -0.0555555522441864 -0.0693603977560997 -0.036741629242897034
			vertex 0.019603945314884186 -0.036119721829891205 -0.036741629242897034
			vertex 0.019019119441509247 -0.08604002743959427 -0.036741629242897034
		endloop
	endfacet
	facet normal 0 0 -1
		outer loop
			vertex -0.0555555522441864 -0.0693603977560997 -0.036741629242897034
			vertex 0.019019119441509247 -0.08604002743959427 -0.036741629242897034
			vertex 0.014938184060156345 -0.0878952145576477 -0.036741629242897034
		endloop
	endfacet
	facet normal 0 0 -1
		outer loop
			vertex 0.022650934755802155 -0.02695671282708645 -0.036741629242897034
			vertex 0.01540642324835062 -0.028385912999510765 -0.036741629242897034
			vertex 0.014805653132498264 -0.02727901004254818 -0.036741629242897034
		endloop
	endfacet
	facet normal 0 0 -1
		outer loop
			vertex -0.0555555522441864 -0.0423855260014534 -0.036741629242897034
			vertex -0.0555555522441864 -0.030169596895575523 -0.036741629242897034
			vertex 0.014805653132498264 -0.02727901004254818 -0.036741629242897034
		endloop
	endfacet
	facet normal 0 0 -1
		outer loop
			vertex -0.0555555522441864 -0.0423855260014534 -0.036741629242897034
			vertex 0.014805653132498264 -0.02727901004254818 -0.036741629242897034
			vertex 0.01540642324835062 -0.028385912999510765 -0.036741629242897034
		endloop
	endfacet
	facet normal 0 0 -1
		outer loop
			vertex 0.055555559694767 -0.01688905619084835 -0.036741629242897034
			vertex 0.055555559694767 -0.020465170964598656 -0.036741629242897034
			vertex 0.022650934755802155 -0.02695671282708645 -0.036741629242897034
		endloop
	endfacet
	facet normal 0 0 -1
		outer loop
			vertex 0.055555559694767 -0.01688905619084835 -0.036741629242897034
			vertex 0.022650934755802155 -0.02695671282708645 -0.036741629242897034
			vertex 0.014805653132498264 -0.02727901004254818 -0.036741629242897034
		endloop
	endfacet
	facet normal 0 0 -1
		outer loop
			vertex 0.055555559694767 -0.01688905619084835 -0.036741629242897034
			vertex 0.014805653132498264 -0.02727901004254818 -0.036741629242897034
			vertex 0.013991170562803745 -0.02577834390103817 -0.036741629242897034
		endloop
	endfacet
	facet normal 0 0 -1
		outer loop
			vertex 0.013991170562803745 -0.02577834390103817 -0.036741629242897034
			vertex 0.014805653132498264 -0.02727901004254818 -0.036741629242897034
			vertex 0.005112440325319767 -0.027677228674292564 -0.036741629242897034
		endloop
	endfacet
	facet normal 0 0 -1
		outer loop
			vertex 0.055555559694767 -0.003621032927185297 -0.036741629242897034
			vertex 0.055555559694767 -0.01688905619084835 -0.036741629242897034
			vertex 0.013991170562803745 -0.02577834390103817 -0.036741629242897034
		endloop
	endfacet
	facet normal 0 0 -1
		outer loop
			vertex 0.055555559694767 -0.003621032927185297 -0.036741629242897034
			vertex 0.013991170562803745 -0.02577834390103817 -0.036741629242897034
			vertex 0.00551746878772974 -0.010165772400796413 -0.036741629242897034
		endloop
	endfacet
	facet normal 0 0 -1
		outer loop
			vertex -0.0555555522441864 -0.030169596895575523 -0.036741629242897034
			vertex -0.0555555522441864 -0.018153807148337364 -0.036741629242897034
			vertex 0.00551746878772974 -0.010165772400796413 -0.036741629242897034
		endloop
	endfacet
	facet normal 0 0 -1
		outer loop
			vertex -0.0555555522441864 -0.030169596895575523 -0.036741629242897034
			vertex 0.00551746878772974 -0.010165772400796413 -0.036741629242897034
			vertex 0.013991170562803745 -0.02577834390103817 -0.036741629242897034
		endloop
	endfacet
	facet normal 0 0 -1
		outer loop
			vertex -0.0555555522441864 -0.030169596895575523 -0.036741629242897034
			vertex 0.013991170562803745 -0.02577834390103817 -0.036741629242897034
			vertex 0.005112440325319767 -0.027677228674292564 -0.036741629242897034
		endloop
	endfacet
	facet normal 0 0 -1
		outer loop
			vertex 0.055555559694767 0.04045502096414566 -0.036741629242897034
			vertex 0.055555559694767 -0.003621032927185297 -0.036741629242897034
			vertex 0.00551746878772974 -0.010165772400796413 -0.036741629242897034
		endloop
	endfacet
	facet normal 0 0 -1
		outer loop
			vertex 0.055555559694767 0.04045502096414566 -0.036741629242897034
			vertex 0.00551746878772974 -0.010165772400796413 -0.036741629242897034
			vertex -0.026781350374221802 0.04934389144182205 -0.036741629242897034
		endloop
	endfacet
	facet normal 0 0 -1
		outer loop
			vertex 0.055555559694767 0.04045502096414566 -0.036741629242897034
			vertex -0.026781350374221802 0.04934389144182205 -0.036741629242897034
			vertex -0.02404552698135376 0.05051744729280472 -0.036741629242897034
		endloop
	endfacet
	facet normal 0 0 -1
		outer loop
			vertex 0.055555559694767 0.04045502096414566 -0.036741629242897034
			vertex -0.02404552698135376 0.05051744729280472 -0.036741629242897034
			vertex 0.030985631048679352 0.044366560876369476 -0.036741629242897034
		endloop
	endfacet
	facet normal 0 0 -1
		outer loop
			vertex -0.0555555522441864 -0.018153807148337364 -0.036741629242897034
			vertex -0.0555555522441864 0.037001170217990875 -0.036741629242897034
			vertex -0.026781350374221802 0.04934389144182205 -0.036741629242897034
		endloop
	endfacet
	facet normal 0 0 -1
		outer loop
			vertex -0.0555555522441864 -0.018153807148337364 -0.036741629242897034
			vertex -0.026781350374221802 0.04934389144182205 -0.036741629242897034
			vertex 0.00551746878772974 -0.010165772400796413 -0.036741629242897034
		endloop
	endfacet
	facet normal 0 0 -1
		outer loop
			vertex -0.026781350374221802 0.04934389144182205 -0.036741629242897034
			vertex -0.027636095881462097 0.05091876536607742 -0.036741629242897034
			vertex -0.02404552698135376 0.05051744729280472 -0.036741629242897034
		endloop
	endfacet
	facet normal 0 0 -1
		outer loop
			vertex -0.0555555522441864 0.037001170217990875 -0.036741629242897034
			vertex -0.0555555522441864 0.05403933674097061 -0.036741629242897034
			vertex -0.027636095881462097 0.05091876536607742 -0.036741629242897034
		endloop
	endfacet
	facet normal 0 0 -1
		outer loop
			vertex -0.0555555522441864 0.037001170217990875 -0.036741629242897034
			vertex -0.027636095881462097 0.05091876536607742 -0.036741629242897034
			vertex -0.026781350374221802 0.04934389144182205 -0.036741629242897034
		endloop
	endfacet
	facet normal 0 0 -1
		outer loop
			vertex 0.055555559694767 0.04162035137414932 -0.036741629242897034
			vertex 0.055555559694767 0.04045502096414566 -0.036741629242897034
			vertex 0.030985631048679352 0.044366560876369476 -0.036741629242897034
		endloop
	endfacet
	facet normal 0 0 -1
		outer loop
			vertex 0.055555559694767 0.06349805742502213 -0.036741629242897034
			vertex 0.055555559694767 0.04162035137414932 -0.036741629242897034
			vertex -0.02404552698135376 0.05051744729280472 -0.036741629242897034
		endloop
	endfacet
	facet normal 0 0 -1
		outer loop
			vertex 0.055555559694767 0.06349805742502213 -0.036741629242897034
			vertex -0.02404552698135376 0.05051744729280472 -0.036741629242897034
			vertex 0.02238570898771286 0.07043419033288956 -0.036741629242897034
		endloop
	endfacet
	facet normal 0 0 -1
		outer loop
			vertex -0.02404552698135376 0.05051744729280472 -0.036741629242897034
			vertex -0.027636095881462097 0.05091876536607742 -0.036741629242897034
			vertex -0.045988090336322784 0.08473179489374161 -0.036741629242897034
		endloop
	endfacet
	facet normal 0 0 -1
		outer loop
			vertex -0.02404552698135376 0.05051744729280472 -0.036741629242897034
			vertex -0.045988090336322784 0.08473179489374161 -0.036741629242897034
			vertex 0.02238570898771286 0.07043419033288956 -0.036741629242897034
		endloop
	endfacet
	facet normal 0 0 -1
		outer loop
			vertex -0.0555555522441864 0.05403933674097061 -0.036741629242897034
			vertex -0.0555555522441864 0.0867324247956276 -0.036741629242897034
			vertex -0.045988090336322784 0.08473179489374161 -0.036741629242897034
		endloop
	endfacet
	facet normal 0 0 -1
		outer loop
			vertex -0.0555555522441864 0.05403933674097061 -0.036741629242897034
			vertex -0.045988090336322784 0.08473179489374161 -0.036741629242897034
			vertex -0.027636095881462097 0.05091876536607742 -0.036741629242897034
		endloop
	endfacet
	facet normal 0 0 -1
		outer loop
			vertex 0.055555559694767 0.10202724486589432 -0.036741629242897034
			vertex 0.055555559694767 0.06349805742502213 -0.036741629242897034
			vertex -0.045988090336322784 0.08473179489374161 -0.036741629242897034
		endloop
	endfacet
	facet normal 0 0 -1
		outer loop
			vertex 0.055555559694767 0.10202724486589432 -0.036741629242897034
			vertex -0.045988090336322784 0.08473179489374161 -0.036741629242897034
			vertex -0.05537516996264458 0.10202724486589432 -0.036741629242897034
		endloop
	endfacet
	facet normal 0 0 -1
		outer loop
			vertex -0.0555555522441864 0.0867324247956276 -0.036741629242897034
			vertex -0.0555555522441864 0.10202724486589432 -0.036741629242897034
			vertex -0.05537516996264458 0.10202724486589432 -0.036741629242897034
		endloop
	endfacet
	facet normal 0 0 -1
		outer loop
			vertex -0.0555555522441864 0.0867324247956276 -0.036741629242897034
			vertex -0.05537516996264458 0.10202724486589432 -0.036741629242897034
			vertex -0.045988090336322784 0.08473179489374161 -0.036741629242897034
		endloop
	endfacet
endsolid exported
