solid exported
	facet normal 0.27789324783987074 -0.6497330455979481 -0.7075466855713642
		outer loop
			vertex -0.0555555522441864 -0.09491067379713058 -0.007045459467917681
			vertex -0.0555555522441864 -0.09080587327480316 -0.010814856737852097
			vertex -0.050558727234601974 -0.09120742231607437 -0.008483584970235825
		endloop
	endfacet
	facet normal 0.2778928697440296 -0.6497330131373824 -0.7075468638788852
		outer loop
			vertex -0.041427284479141235 -0.1023595854640007 0.005343753378838301
			vertex -0.0555555522441864 -0.1023595854640007 -0.00020520044199656695
			vertex -0.0555555522441864 -0.09491067379713058 -0.007045459467917681
		endloop
	endfacet
	facet normal 0.27789302895593115 -0.6497328525012773 -0.7075469488579903
		outer loop
			vertex -0.041427284479141235 -0.1023595854640007 0.005343753378838301
			vertex -0.0555555522441864 -0.09491067379713058 -0.007045459467917681
			vertex -0.050558727234601974 -0.09120742231607437 -0.008483584970235825
		endloop
	endfacet
	facet normal 0.2778926573881413 -0.6497330793743251 -0.7075468864580736
		outer loop
			vertex -0.041427284479141235 -0.1023595854640007 0.005343753378838301
			vertex -0.050558727234601974 -0.09120742231607437 -0.008483584970235825
			vertex -0.02339302748441696 -0.09339050203561783 0.004190582316368818
		endloop
	endfacet
	facet normal 0.6433314229128083 -0.24182180973920883 -0.7263930703327472
		outer loop
			vertex -0.009539431892335415 -0.1023595854640007 0.017867881804704666
			vertex -0.0212542787194252 -0.1023595854640007 0.00749260513111949
			vertex -0.021363265812397003 -0.0937369242310524 0.004525530617684126
		endloop
	endfacet
	facet normal 0.6433355757825774 -0.24181429493402518 -0.7263918940200668
		outer loop
			vertex -0.009539431892335415 -0.1023595854640007 0.017867881804704666
			vertex -0.021363265812397003 -0.0937369242310524 0.004525530617684126
			vertex -0.019853681325912476 -0.0936749279499054 0.00584186939522624
		endloop
	endfacet
	facet normal 0.10025794618968543 -0.32260301118745316 -0.9412096692016154
		outer loop
			vertex -0.041427284479141235 -0.1023595854640007 0.005343753378838301
			vertex -0.02339302748441696 -0.09339050203561783 0.004190582316368818
			vertex -0.021363265812397003 -0.0937369242310524 0.004525530617684126
		endloop
	endfacet
	facet normal 0.10025866808151845 -0.3226046309732851 -0.9412090371161501
		outer loop
			vertex -0.041427284479141235 -0.1023595854640007 0.005343753378838301
			vertex -0.021363265812397003 -0.0937369242310524 0.004525530617684126
			vertex -0.0212542787194252 -0.1023595854640007 0.00749260513111949
		endloop
	endfacet
	facet normal 0.6433313867158873 -0.24182029658437648 -0.7263936061296643
		outer loop
			vertex 0.015582629479467869 -0.09221964329481125 0.036741625517606735
			vertex 0.01177115086466074 -0.1023595854640007 0.036741625517606735
			vertex -0.009539431892335415 -0.1023595854640007 0.017867881804704666
		endloop
	endfacet
	facet normal 0.6433314603242982 -0.2418210950785086 -0.7263932751148217
		outer loop
			vertex 0.015582629479467869 -0.09221964329481125 0.036741625517606735
			vertex -0.009539431892335415 -0.1023595854640007 0.017867881804704666
			vertex -0.019853681325912476 -0.0936749279499054 0.00584186939522624
		endloop
	endfacet
	facet normal 0.17569425318477833 -0.8046721657633471 -0.5671280587694174
		outer loop
			vertex -0.02024386078119278 -0.0633833035826683 -0.036741625517606735
			vertex -0.021380305290222168 -0.09238950163125992 0.004061880987137556
			vertex -0.0555555522441864 -0.0867256224155426 -0.014561709016561508
		endloop
	endfacet
	facet normal 0.17569441306050518 -0.8046722487178295 -0.567127891540097
		outer loop
			vertex -0.02024386078119278 -0.0633833035826683 -0.036741625517606735
			vertex -0.0555555522441864 -0.0867256224155426 -0.014561709016561508
			vertex -0.0555555522441864 -0.0710933580994606 -0.036741625517606735
		endloop
	endfacet
	facet normal 0.27789276883469327 -0.6497330187978859 -0.7075468983135846
		outer loop
			vertex -0.0555555522441864 -0.09080587327480316 -0.010814856737852097
			vertex -0.0555555522441864 -0.0867256224155426 -0.014561709016561508
			vertex -0.021380305290222168 -0.09238950163125992 0.004061880987137556
		endloop
	endfacet
	facet normal 0.2778927371607486 -0.649733101943246 -0.7075468344021579
		outer loop
			vertex -0.0555555522441864 -0.09080587327480316 -0.010814856737852097
			vertex -0.021380305290222168 -0.09238950163125992 0.004061880987137556
			vertex -0.02339302748441696 -0.09339050203561783 0.004190582316368818
		endloop
	endfacet
	facet normal 0.6433352651073366 -0.24181650428358 -0.7263914336811402
		outer loop
			vertex -0.021380305290222168 -0.09238950163125992 0.004061880987137556
			vertex -0.019853681325912476 -0.0936749279499054 0.00584186939522624
			vertex -0.021363265812397003 -0.0937369242310524 0.004525530617684126
		endloop
	endfacet
	facet normal 0.10025785870795 -0.32260340294316303 -0.9412095442444196
		outer loop
			vertex -0.02339302748441696 -0.09339050203561783 0.004190582316368818
			vertex -0.021380305290222168 -0.09238950163125992 0.004061880987137556
			vertex -0.021363265812397003 -0.0937369242310524 0.004525530617684126
		endloop
	endfacet
	facet normal 0.6433345419775335 -0.2418176991443556 -0.7263916763558673
		outer loop
			vertex -0.021380305290222168 -0.09238950163125992 0.004061880987137556
			vertex -0.01902075856924057 -0.09364072233438492 0.006568166892975569
			vertex -0.019853681325912476 -0.0936749279499054 0.00584186939522624
		endloop
	endfacet
	facet normal 0.18192754942262976 -0.8038303333152635 -0.5663560381980128
		outer loop
			vertex 0.018671579658985138 -0.054575733840465546 -0.036741625517606735
			vertex 0.023667164146900177 -0.06068720668554306 -0.026462893933057785
			vertex -0.021380305290222168 -0.09238950163125992 0.004061880987137556
		endloop
	endfacet
	facet normal 0.1819275770760463 -0.8038303410990775 -0.5663560182674677
		outer loop
			vertex 0.018671579658985138 -0.054575733840465546 -0.036741625517606735
			vertex -0.021380305290222168 -0.09238950163125992 0.004061880987137556
			vertex -0.02024386078119278 -0.0633833035826683 -0.036741625517606735
		endloop
	endfacet
	facet normal 0.6434151210116351 -0.2416407414030481 -0.7263791944623471
		outer loop
			vertex -0.021380305290222168 -0.09238950163125992 0.004061880987137556
			vertex -0.01897556334733963 -0.09363885968923569 0.006607580464333296
			vertex -0.01902075856924057 -0.09364072233438492 0.006568166892975569
		endloop
	endfacet
	facet normal 0.39244223135347334 -0.8632699424309759 -0.3174178658259905
		outer loop
			vertex 0.015221797861158848 -0.08701124042272568 0.034688133746385574
			vertex -0.021380305290222168 -0.09238950163125992 0.004061880987137556
			vertex 0.023667164146900177 -0.06068720668554306 -0.026462893933057785
		endloop
	endfacet
	facet normal 0.6433312592054129 -0.2418230476814809 -0.7263928031989428
		outer loop
			vertex -0.021380305290222168 -0.09238950163125992 0.004061880987137556
			vertex 0.015221797861158848 -0.08701124042272568 0.034688133746385574
			vertex 0.017003975808620453 -0.08843836188316345 0.036741625517606735
		endloop
	endfacet
	facet normal 0.6433313763588349 -0.24182190920771382 -0.7263930784495288
		outer loop
			vertex -0.021380305290222168 -0.09238950163125992 0.004061880987137556
			vertex 0.017003975808620453 -0.08843836188316345 0.036741625517606735
			vertex 0.015582629479467869 -0.09221964329481125 0.036741625517606735
		endloop
	endfacet
	facet normal 0.6433301166838102 -0.24182966107293655 -0.7263916133828527
		outer loop
			vertex -0.021380305290222168 -0.09238950163125992 0.004061880987137556
			vertex 0.015582629479467869 -0.09221964329481125 0.036741625517606735
			vertex -0.01897556334733963 -0.09363885968923569 0.006607580464333296
		endloop
	endfacet
	facet normal 0 1 0
		outer loop
			vertex -0.0555555522441864 0.10202724486589432 -0.036741625517606735
			vertex -0.0555555522441864 0.10202724486589432 0.036741625517606735
			vertex -0.0214703232049942 0.10202724486589432 0.036741625517606735
		endloop
	endfacet
	facet normal 0 1 0
		outer loop
			vertex -0.0555555522441864 0.10202724486589432 -0.036741625517606735
			vertex -0.0214703232049942 0.10202724486589432 0.036741625517606735
			vertex 0.02271319180727005 0.10202724486589432 -0.036741625517606735
		endloop
	endfacet
	facet normal 0 1 0
		outer loop
			vertex 0.055555559694767 0.10202724486589432 0.036741625517606735
			vertex 0.055555559694767 0.10202724486589432 -0.036741625517606735
			vertex 0.02271319180727005 0.10202724486589432 -0.036741625517606735
		endloop
	endfacet
	facet normal 0 1 0
		outer loop
			vertex 0.055555559694767 0.10202724486589432 0.036741625517606735
			vertex 0.02271319180727005 0.10202724486589432 -0.036741625517606735
			vertex -0.0214703232049942 0.10202724486589432 0.036741625517606735
		endloop
	endfacet
	facet normal 0.18192697098808194 -0.8038305651730976 -0.5663558949287986
		outer loop
			vertex 0.03883615881204605 -0.05001198500394821 -0.036741625517606735
			vertex 0.023667164146900177 -0.06068720668554306 -0.026462893933057785
			vertex 0.018671579658985138 -0.054575733840465546 -0.036741625517606735
		endloop
	endfacet
	facet normal 0.39244172554321427 -0.8632702497462333 -0.31741765539386846
		outer loop
			vertex 0.04266396909952164 -0.048271842300891876 -0.036741625517606735
			vertex 0.055555559694767 -0.04412565380334854 -0.03207926079630852
			vertex 0.055555559694767 -0.05695130676031113 0.002802241360768676
		endloop
	endfacet
	facet normal 0.3924422650938513 -0.8632699629375336 -0.3174177683398283
		outer loop
			vertex 0.04266396909952164 -0.048271842300891876 -0.036741625517606735
			vertex 0.055555559694767 -0.05695130676031113 0.002802241360768676
			vertex 0.02075093239545822 -0.08525273203849792 0.036741625517606735
		endloop
	endfacet
	facet normal 0.39244831987670753 -0.8632682004385571 -0.3174150757880361
		outer loop
			vertex 0.04266396909952164 -0.048271842300891876 -0.036741625517606735
			vertex 0.02075093239545822 -0.08525273203849792 0.036741625517606735
			vertex 0.019019119441509247 -0.08604002743959427 0.036741625517606735
		endloop
	endfacet
	facet normal 0.3924413120652314 -0.8632701825190102 -0.3174183494351177
		outer loop
			vertex 0.04266396909952164 -0.048271842300891876 -0.036741625517606735
			vertex 0.019019119441509247 -0.08604002743959427 0.036741625517606735
			vertex 0.01648969203233719 -0.08305921405553818 0.02550755813717842
		endloop
	endfacet
	facet normal 0.3924428305121569 -0.8632698046414465 -0.3174174997915606
		outer loop
			vertex 0.04266396909952164 -0.048271842300891876 -0.036741625517606735
			vertex 0.01648969203233719 -0.08305921405553818 0.02550755813717842
			vertex 0.023667164146900177 -0.06068720668554306 -0.026462893933057785
		endloop
	endfacet
	facet normal 0.3924473142162225 -0.8632705030516037 -0.31741005674916006
		outer loop
			vertex 0.04266396909952164 -0.048271842300891876 -0.036741625517606735
			vertex 0.023667164146900177 -0.06068720668554306 -0.026462893933057785
			vertex 0.03883615881204605 -0.05001198500394821 -0.036741625517606735
		endloop
	endfacet
	facet normal 0.5520577128205171 -0.7658881611918145 0.32961736341036535
		outer loop
			vertex 0.055555559694767 -0.0654967799782753 0.02604306861758232
			vertex 0.023482240736484528 -0.08401109278202057 0.036741625517606735
			vertex 0.021868102252483368 -0.0851745754480362 0.036741625517606735
		endloop
	endfacet
	facet normal 0.5520584356571674 -0.7658809604173121 0.3296328838116984
		outer loop
			vertex 0.055555559694767 -0.0654967799782753 0.02604306861758232
			vertex 0.021868102252483368 -0.0851745754480362 0.036741625517606735
			vertex 0.055555559694767 -0.06880532950162888 0.01835586503148079
		endloop
	endfacet
	facet normal 0.0555557716276856 -0.7941138818819533 -0.6052245028427284
		outer loop
			vertex 0.055555559694767 -0.06880532950162888 0.01835586503148079
			vertex 0.021868102252483368 -0.0851745754480362 0.036741625517606735
			vertex 0.02075093239545822 -0.08525273203849792 0.036741625517606735
		endloop
	endfacet
	facet normal 0.055555416410978 -0.7941135919310174 -0.6052249158931087
		outer loop
			vertex 0.055555559694767 -0.06880532950162888 0.01835586503148079
			vertex 0.02075093239545822 -0.08525273203849792 0.036741625517606735
			vertex 0.055555559694767 -0.05695130676031113 0.002802241360768676
		endloop
	endfacet
	facet normal 1 0 0
		outer loop
			vertex 0.055555559694767 -0.06644117087125778 0.02384883537888527
			vertex 0.055555559694767 -0.06442371755838394 0.023124676197767258
			vertex 0.055555559694767 -0.0654967799782753 0.02604306861758232
		endloop
	endfacet
	facet normal 1 0 0
		outer loop
			vertex 0.055555559694767 -0.05695130676031113 0.002802241360768676
			vertex 0.055555559694767 -0.06442371755838394 0.023124676197767258
			vertex 0.055555559694767 -0.06644117087125778 0.02384883537888527
		endloop
	endfacet
	facet normal 1 0 0
		outer loop
			vertex 0.055555559694767 -0.05695130676031113 0.002802241360768676
			vertex 0.055555559694767 -0.06644117087125778 0.02384883537888527
			vertex 0.055555559694767 -0.06880532950162888 0.01835586503148079
		endloop
	endfacet
	facet normal 0.5520586271925148 -0.7658809556413371 0.32963257413099917
		outer loop
			vertex 0.023482240736484528 -0.08401109278202057 0.036741625517606735
			vertex 0.055555559694767 -0.0654967799782753 0.02604306861758232
			vertex 0.055555559694767 -0.06089215725660324 0.036741625517606735
		endloop
	endfacet
	facet normal 1 0 0
		outer loop
			vertex 0.055555559694767 -0.05811961740255356 0.036741625517606735
			vertex 0.055555559694767 -0.06089215725660324 0.036741625517606735
			vertex 0.055555559694767 -0.0654967799782753 0.02604306861758232
		endloop
	endfacet
	facet normal 1 0 0
		outer loop
			vertex 0.055555559694767 -0.05811961740255356 0.036741625517606735
			vertex 0.055555559694767 -0.0654967799782753 0.02604306861758232
			vertex 0.055555559694767 -0.06442371755838394 0.023124676197767258
		endloop
	endfacet
	facet normal 1 0 0
		outer loop
			vertex 0.055555559694767 -0.05811961740255356 0.036741625517606735
			vertex 0.055555559694767 -0.06442371755838394 0.023124676197767258
			vertex 0.055555559694767 -0.061627648770809174 0.02212103083729744
		endloop
	endfacet
	facet normal 1 0 0
		outer loop
			vertex 0.055555559694767 -0.061627648770809174 0.02212103083729744
			vertex 0.055555559694767 -0.06442371755838394 0.023124676197767258
			vertex 0.055555559694767 -0.06258601695299149 0.018126744776964188
		endloop
	endfacet
	facet normal 1 0 0
		outer loop
			vertex 0.055555559694767 -0.020465170964598656 0.036741625517606735
			vertex 0.055555559694767 -0.05811961740255356 0.036741625517606735
			vertex 0.055555559694767 -0.061627648770809174 0.02212103083729744
		endloop
	endfacet
	facet normal 1 0 0
		outer loop
			vertex 0.055555559694767 -0.020465170964598656 0.036741625517606735
			vertex 0.055555559694767 -0.061627648770809174 0.02212103083729744
			vertex 0.055555559694767 -0.029461195692420006 0.010575000196695328
		endloop
	endfacet
	facet normal 1 0 0
		outer loop
			vertex 0.055555559694767 -0.04412565380334854 -0.03207926079630852
			vertex 0.055555559694767 -0.029461195692420006 0.010575000196695328
			vertex 0.055555559694767 -0.061627648770809174 0.02212103083729744
		endloop
	endfacet
	facet normal 1 0 0
		outer loop
			vertex 0.055555559694767 -0.04412565380334854 -0.03207926079630852
			vertex 0.055555559694767 -0.061627648770809174 0.02212103083729744
			vertex 0.055555559694767 -0.06258601695299149 0.018126744776964188
		endloop
	endfacet
	facet normal 0.3924383528605736 -0.8632762653784259 -0.3174054644116226
		outer loop
			vertex 0.019019119441509247 -0.08604002743959427 0.036741625517606735
			vertex 0.017675958573818207 -0.08665061742067337 0.036741625517606735
			vertex 0.015221797861158848 -0.08701124042272568 0.034688133746385574
		endloop
	endfacet
	facet normal 0.392443596557618 -0.8632690639855242 -0.3174185670159805
		outer loop
			vertex 0.019019119441509247 -0.08604002743959427 0.036741625517606735
			vertex 0.015221797861158848 -0.08701124042272568 0.034688133746385574
			vertex 0.01648969203233719 -0.08305921405553818 0.02550755813717842
		endloop
	endfacet
	facet normal 0.6433340255654286 -0.2418183283549998 -0.7263919242539622
		outer loop
			vertex 0.017003975808620453 -0.08843836188316345 0.036741625517606735
			vertex 0.015221797861158848 -0.08701124042272568 0.034688133746385574
			vertex 0.017675958573818207 -0.08665061742067337 0.036741625517606735
		endloop
	endfacet
	facet normal 1 0 0
		outer loop
			vertex 0.055555559694767 -0.01688905619084835 0.036741625517606735
			vertex 0.055555559694767 -0.020465170964598656 0.036741625517606735
			vertex 0.055555559694767 -0.028348973020911217 0.013810161501169205
		endloop
	endfacet
	facet normal 0.39244186968157735 -0.8632699346447927 -0.3174183341573123
		outer loop
			vertex 0.055555559694767 -0.042411334812641144 -0.036741625517606735
			vertex 0.055555559694767 -0.04412565380334854 -0.03207926079630852
			vertex 0.04266396909952164 -0.048271842300891876 -0.036741625517606735
		endloop
	endfacet
	facet normal 1 0 0
		outer loop
			vertex 0.055555559694767 -0.003621032927185297 0.036741625517606735
			vertex 0.055555559694767 -0.01688905619084835 0.036741625517606735
			vertex 0.055555559694767 -0.028348973020911217 0.013810161501169205
		endloop
	endfacet
	facet normal 1 0 0
		outer loop
			vertex 0.055555559694767 -0.003621032927185297 0.036741625517606735
			vertex 0.055555559694767 -0.028348973020911217 0.013810161501169205
			vertex 0.055555559694767 -0.029461195692420006 0.010575000196695328
		endloop
	endfacet
	facet normal 1 0 0
		outer loop
			vertex 0.055555559694767 -0.003621032927185297 0.036741625517606735
			vertex 0.055555559694767 -0.029461195692420006 0.010575000196695328
			vertex 0.055555559694767 0.018040591850876808 -0.006475609261542559
		endloop
	endfacet
	facet normal 1 0 0
		outer loop
			vertex 0.055555559694767 -0.042411334812641144 -0.036741625517606735
			vertex 0.055555559694767 0.033210717141628265 -0.036741625517606735
			vertex 0.055555559694767 0.018040591850876808 -0.006475609261542559
		endloop
	endfacet
	facet normal 1 0 0
		outer loop
			vertex 0.055555559694767 -0.042411334812641144 -0.036741625517606735
			vertex 0.055555559694767 0.018040591850876808 -0.006475609261542559
			vertex 0.055555559694767 -0.029461195692420006 0.010575000196695328
		endloop
	endfacet
	facet normal 1 0 0
		outer loop
			vertex 0.055555559694767 -0.042411334812641144 -0.036741625517606735
			vertex 0.055555559694767 -0.029461195692420006 0.010575000196695328
			vertex 0.055555559694767 -0.04412565380334854 -0.03207926079630852
		endloop
	endfacet
	facet normal 1 0 0
		outer loop
			vertex 0.055555559694767 0.004791462328284979 0.019957799464464188
			vertex 0.055555559694767 0.018040591850876808 -0.006475609261542559
			vertex 0.055555559694767 0.03795779496431351 -0.01362481340765953
		endloop
	endfacet
	facet normal 1 0 0
		outer loop
			vertex 0.055555559694767 0.004791462328284979 0.019957799464464188
			vertex 0.055555559694767 0.03795779496431351 -0.01362481340765953
			vertex 0.055555559694767 0.03815538436174393 -0.009639617055654526
		endloop
	endfacet
	facet normal 1 0 0
		outer loop
			vertex 0.055555559694767 0.033210717141628265 -0.036741625517606735
			vertex 0.055555559694767 0.03681162744760513 -0.036741625517606735
			vertex 0.055555559694767 0.03795779496431351 -0.01362481340765953
		endloop
	endfacet
	facet normal 1 0 0
		outer loop
			vertex 0.055555559694767 0.033210717141628265 -0.036741625517606735
			vertex 0.055555559694767 0.03795779496431351 -0.01362481340765953
			vertex 0.055555559694767 0.018040591850876808 -0.006475609261542559
		endloop
	endfacet
	facet normal 1 0 0
		outer loop
			vertex 0.055555559694767 0.04045502096414566 0.036741625517606735
			vertex 0.055555559694767 -0.003621032927185297 0.036741625517606735
			vertex 0.055555559694767 0.004791462328284979 0.019957799464464188
		endloop
	endfacet
	facet normal 1 0 0
		outer loop
			vertex 0.055555559694767 0.04045502096414566 0.036741625517606735
			vertex 0.055555559694767 0.004791462328284979 0.019957799464464188
			vertex 0.055555559694767 0.03815538436174393 -0.009639617055654526
		endloop
	endfacet
	facet normal 1 0 0
		outer loop
			vertex 0.055555559694767 0.04162035137414932 0.036741625517606735
			vertex 0.055555559694767 0.04045502096414566 0.036741625517606735
			vertex 0.055555559694767 0.03795779496431351 -0.01362481340765953
		endloop
	endfacet
	facet normal 1 0 0
		outer loop
			vertex 0.055555559694767 0.04162035137414932 0.036741625517606735
			vertex 0.055555559694767 0.03795779496431351 -0.01362481340765953
			vertex 0.055555559694767 0.038318343460559845 -0.013754229992628098
		endloop
	endfacet
	facet normal 1 0 0
		outer loop
			vertex 0.055555559694767 0.03681162744760513 -0.036741625517606735
			vertex 0.055555559694767 0.036815159022808075 -0.036741625517606735
			vertex 0.055555559694767 0.038318343460559845 -0.013754229992628098
		endloop
	endfacet
	facet normal 1 0 0
		outer loop
			vertex 0.055555559694767 0.03681162744760513 -0.036741625517606735
			vertex 0.055555559694767 0.038318343460559845 -0.013754229992628098
			vertex 0.055555559694767 0.03795779496431351 -0.01362481340765953
		endloop
	endfacet
	facet normal 1 0 0
		outer loop
			vertex 0.055555559694767 0.036815159022808075 -0.036741625517606735
			vertex 0.055555559694767 0.04053362458944321 -0.036741625517606735
			vertex 0.055555559694767 0.03696899861097336 -0.03438908979296684
		endloop
	endfacet
	facet normal 1 0 0
		outer loop
			vertex 0.055555559694767 0.038563720881938934 -0.010001879185438156
			vertex 0.055555559694767 0.038318343460559845 -0.013754229992628098
			vertex 0.055555559694767 0.04583505541086197 -0.01645233854651451
		endloop
	endfacet
	facet normal 1 0 0
		outer loop
			vertex 0.055555559694767 0.04053362458944321 -0.036741625517606735
			vertex 0.055555559694767 0.04347781091928482 -0.036741625517606735
			vertex 0.055555559694767 0.04838842898607254 -0.0187174491584301
		endloop
	endfacet
	facet normal 1 0 0
		outer loop
			vertex 0.055555559694767 0.04053362458944321 -0.036741625517606735
			vertex 0.055555559694767 0.04838842898607254 -0.0187174491584301
			vertex 0.055555559694767 0.04583505541086197 -0.01645233854651451
		endloop
	endfacet
	facet normal 1 0 0
		outer loop
			vertex 0.055555559694767 0.04053362458944321 -0.036741625517606735
			vertex 0.055555559694767 0.04583505541086197 -0.01645233854651451
			vertex 0.055555559694767 0.038318343460559845 -0.013754229992628098
		endloop
	endfacet
	facet normal 1 0 0
		outer loop
			vertex 0.055555559694767 0.04053362458944321 -0.036741625517606735
			vertex 0.055555559694767 0.038318343460559845 -0.013754229992628098
			vertex 0.055555559694767 0.03696899861097336 -0.03438908979296684
		endloop
	endfacet
	facet normal 1 0 0
		outer loop
			vertex 0.055555559694767 0.06349805742502213 0.036741625517606735
			vertex 0.055555559694767 0.04162035137414932 0.036741625517606735
			vertex 0.055555559694767 0.038563720881938934 -0.010001879185438156
		endloop
	endfacet
	facet normal 1 0 0
		outer loop
			vertex 0.055555559694767 0.06349805742502213 0.036741625517606735
			vertex 0.055555559694767 0.038563720881938934 -0.010001879185438156
			vertex 0.055555559694767 0.04583505541086197 -0.01645233854651451
		endloop
	endfacet
	facet normal 1 0 0
		outer loop
			vertex 0.055555559694767 0.06349805742502213 0.036741625517606735
			vertex 0.055555559694767 0.04583505541086197 -0.01645233854651451
			vertex 0.055555559694767 0.04872310906648636 -0.0174889974296093
		endloop
	endfacet
	facet normal 1 0 0
		outer loop
			vertex 0.055555559694767 0.04838842898607254 -0.0187174491584301
			vertex 0.055555559694767 0.04872310906648636 -0.0174889974296093
			vertex 0.055555559694767 0.04583505541086197 -0.01645233854651451
		endloop
	endfacet
	facet normal 1 0 0
		outer loop
			vertex 0.055555559694767 0.10202724486589432 0.036741625517606735
			vertex 0.055555559694767 0.06349805742502213 0.036741625517606735
			vertex 0.055555559694767 0.04872310906648636 -0.0174889974296093
		endloop
	endfacet
	facet normal 1 0 0
		outer loop
			vertex 0.055555559694767 0.10202724486589432 0.036741625517606735
			vertex 0.055555559694767 0.04872310906648636 -0.0174889974296093
			vertex 0.055555559694767 0.10202724486589432 -0.03662232682108879
		endloop
	endfacet
	facet normal 1 0 0
		outer loop
			vertex 0.055555559694767 0.04347781091928482 -0.036741625517606735
			vertex 0.055555559694767 0.10202724486589432 -0.036741625517606735
			vertex 0.055555559694767 0.10202724486589432 -0.03662232682108879
		endloop
	endfacet
	facet normal 1 0 0
		outer loop
			vertex 0.055555559694767 0.04347781091928482 -0.036741625517606735
			vertex 0.055555559694767 0.10202724486589432 -0.03662232682108879
			vertex 0.055555559694767 0.04872310906648636 -0.0174889974296093
		endloop
	endfacet
	facet normal -1 0 0
		outer loop
			vertex -0.0555555522441864 -0.09491067379713058 -0.007045459467917681
			vertex -0.0555555522441864 -0.08954375237226486 -0.006600883323699236
			vertex -0.0555555522441864 -0.09080587327480316 -0.010814856737852097
		endloop
	endfacet
	facet normal -1 0 0
		outer loop
			vertex -0.0555555522441864 -0.1023595854640007 -0.00020520044199656695
			vertex -0.0555555522441864 -0.1023595854640007 0.036741625517606735
			vertex -0.0555555522441864 -0.07656233757734299 0.036741625517606735
		endloop
	endfacet
	facet normal -1 0 0
		outer loop
			vertex -0.0555555522441864 -0.1023595854640007 -0.00020520044199656695
			vertex -0.0555555522441864 -0.07656233757734299 0.036741625517606735
			vertex -0.0555555522441864 -0.08954375237226486 -0.006600883323699236
		endloop
	endfacet
	facet normal -1 0 0
		outer loop
			vertex -0.0555555522441864 -0.1023595854640007 -0.00020520044199656695
			vertex -0.0555555522441864 -0.08954375237226486 -0.006600883323699236
			vertex -0.0555555522441864 -0.09491067379713058 -0.007045459467917681
		endloop
	endfacet
	facet normal -1 0 0
		outer loop
			vertex -0.0555555522441864 -0.09080587327480316 -0.010814856737852097
			vertex -0.0555555522441864 -0.09037657082080841 -0.009381528943777084
			vertex -0.0555555522441864 -0.0867256224155426 -0.014561709016561508
		endloop
	endfacet
	facet normal -1 0 0
		outer loop
			vertex -0.0555555522441864 -0.035059310495853424 -0.036741625517606735
			vertex -0.0555555522441864 -0.0646955743432045 -0.036741625517606735
			vertex -0.0555555522441864 -0.07023724168539047 -0.02521141991019249
		endloop
	endfacet
	facet normal -1 0 0
		outer loop
			vertex -0.0555555522441864 -0.035059310495853424 -0.036741625517606735
			vertex -0.0555555522441864 -0.07023724168539047 -0.02521141991019249
			vertex -0.0555555522441864 -0.04471736401319504 -0.016051139682531357
		endloop
	endfacet
	facet normal -1 0 0
		outer loop
			vertex -0.0555555522441864 -0.07656233757734299 0.036741625517606735
			vertex -0.0555555522441864 -0.0693603977560997 0.036741625517606735
			vertex -0.0555555522441864 -0.04471736401319504 -0.016051139682531357
		endloop
	endfacet
	facet normal -1 0 0
		outer loop
			vertex -0.0555555522441864 -0.07656233757734299 0.036741625517606735
			vertex -0.0555555522441864 -0.04471736401319504 -0.016051139682531357
			vertex -0.0555555522441864 -0.07023724168539047 -0.02521141991019249
		endloop
	endfacet
	facet normal -1 0 0
		outer loop
			vertex -0.0555555522441864 -0.07656233757734299 0.036741625517606735
			vertex -0.0555555522441864 -0.07023724168539047 -0.02521141991019249
			vertex -0.0555555522441864 -0.08556561172008514 0.006681371014565229
		endloop
	endfacet
	facet normal -1 0 0
		outer loop
			vertex -0.0555555522441864 -0.0646955743432045 -0.036741625517606735
			vertex -0.0555555522441864 -0.0710933580994606 -0.036741625517606735
			vertex -0.0555555522441864 -0.07740616053342819 -0.027784686535596848
		endloop
	endfacet
	facet normal -1 0 0
		outer loop
			vertex -0.0555555522441864 -0.0646955743432045 -0.036741625517606735
			vertex -0.0555555522441864 -0.07740616053342819 -0.027784686535596848
			vertex -0.0555555522441864 -0.07023724168539047 -0.02521141991019249
		endloop
	endfacet
	facet normal -1 0 0
		outer loop
			vertex -0.0555555522441864 -0.07023724168539047 -0.02521141991019249
			vertex -0.0555555522441864 -0.07740616053342819 -0.027784686535596848
			vertex -0.0555555522441864 -0.09037657082080841 -0.009381528943777084
		endloop
	endfacet
	facet normal -1 0 0
		outer loop
			vertex -0.0555555522441864 -0.07023724168539047 -0.02521141991019249
			vertex -0.0555555522441864 -0.09037657082080841 -0.009381528943777084
			vertex -0.0555555522441864 -0.08556561172008514 0.006681371014565229
		endloop
	endfacet
	facet normal -1 0 0
		outer loop
			vertex -0.0555555522441864 -0.0693603977560997 0.036741625517606735
			vertex -0.0555555522441864 -0.0423855260014534 0.036741625517606735
			vertex -0.0555555522441864 -0.053826503455638885 0.0034633760806173086
		endloop
	endfacet
	facet normal -1 0 0
		outer loop
			vertex -0.0555555522441864 -0.0423855260014534 0.036741625517606735
			vertex -0.0555555522441864 -0.030169596895575523 0.036741625517606735
			vertex -0.0555555522441864 -0.05060253292322159 -0.0034433568362146616
		endloop
	endfacet
	facet normal -1 0 0
		outer loop
			vertex -0.0555555522441864 -0.0423855260014534 0.036741625517606735
			vertex -0.0555555522441864 -0.05060253292322159 -0.0034433568362146616
			vertex -0.0555555522441864 -0.053826503455638885 0.0034633760806173086
		endloop
	endfacet
	facet normal -1 0 0
		outer loop
			vertex -0.0555555522441864 -0.02013716660439968 -0.036741625517606735
			vertex -0.0555555522441864 -0.035059310495853424 -0.036741625517606735
			vertex -0.0555555522441864 -0.04471736401319504 -0.016051139682531357
		endloop
	endfacet
	facet normal -1 0 0
		outer loop
			vertex -0.0555555522441864 -0.02013716660439968 -0.036741625517606735
			vertex -0.0555555522441864 -0.04471736401319504 -0.016051139682531357
			vertex -0.0555555522441864 -0.0291577335447073 -0.010466065257787704
		endloop
	endfacet
	facet normal -1 0 0
		outer loop
			vertex -0.0555555522441864 -0.0291577335447073 -0.010466065257787704
			vertex -0.0555555522441864 -0.04471736401319504 -0.016051139682531357
			vertex -0.0555555522441864 -0.05060253292322159 -0.0034433568362146616
		endloop
	endfacet
	facet normal -1 0 0
		outer loop
			vertex -0.0555555522441864 -0.0291577335447073 -0.010466065257787704
			vertex -0.0555555522441864 -0.05060253292322159 -0.0034433568362146616
			vertex -0.0555555522441864 -0.039267219603061676 0.018849555402994156
		endloop
	endfacet
	facet normal -1 0 0
		outer loop
			vertex -0.0555555522441864 -0.0291577335447073 -0.010466065257787704
			vertex -0.0555555522441864 -0.039267219603061676 0.018849555402994156
			vertex -0.0555555522441864 -0.03498361259698868 0.006503853481262922
		endloop
	endfacet
	facet normal -1 0 0
		outer loop
			vertex -0.0555555522441864 -0.01997864805161953 -0.036741625517606735
			vertex -0.0555555522441864 -0.02013716660439968 -0.036741625517606735
			vertex -0.0555555522441864 -0.0291577335447073 -0.010466065257787704
		endloop
	endfacet
	facet normal -1 0 0
		outer loop
			vertex -0.0555555522441864 -0.01997864805161953 -0.036741625517606735
			vertex -0.0555555522441864 -0.0291577335447073 -0.010466065257787704
			vertex -0.0555555522441864 -0.029102420434355736 -0.010446202009916306
		endloop
	endfacet
	facet normal -1 0 0
		outer loop
			vertex -0.0555555522441864 -0.029102420434355736 -0.010446202009916306
			vertex -0.0555555522441864 -0.0291577335447073 -0.010466065257787704
			vertex -0.0555555522441864 -0.03498361259698868 0.006503853481262922
		endloop
	endfacet
	facet normal -1 0 0
		outer loop
			vertex -0.0555555522441864 0.01867794431746006 -0.036741625517606735
			vertex -0.0555555522441864 -0.01997864805161953 -0.036741625517606735
			vertex -0.0555555522441864 -0.029102420434355736 -0.010446202009916306
		endloop
	endfacet
	facet normal -1 0 0
		outer loop
			vertex -0.0555555522441864 0.01867794431746006 -0.036741625517606735
			vertex -0.0555555522441864 -0.029102420434355736 -0.010446202009916306
			vertex -0.0555555522441864 0.0002221106260549277 0.00007972465391503647
		endloop
	endfacet
	facet normal -1 0 0
		outer loop
			vertex -0.0555555522441864 -0.030169596895575523 0.036741625517606735
			vertex -0.0555555522441864 -0.018153807148337364 0.036741625517606735
			vertex -0.0555555522441864 0.0002221106260549277 0.00007972465391503647
		endloop
	endfacet
	facet normal -1 0 0
		outer loop
			vertex -0.0555555522441864 -0.030169596895575523 0.036741625517606735
			vertex -0.0555555522441864 0.0002221106260549277 0.00007972465391503647
			vertex -0.0555555522441864 -0.029102420434355736 -0.010446202009916306
		endloop
	endfacet
	facet normal -1 0 0
		outer loop
			vertex -0.0555555522441864 -0.030169596895575523 0.036741625517606735
			vertex -0.0555555522441864 -0.029102420434355736 -0.010446202009916306
			vertex -0.0555555522441864 -0.039267219603061676 0.018849555402994156
		endloop
	endfacet
	facet normal -1 0 0
		outer loop
			vertex -0.0555555522441864 0.014734008349478245 -0.028873052448034286
			vertex -0.0555555522441864 0.0002221106260549277 0.00007972465391503647
			vertex -0.0555555522441864 0.027935335412621498 0.010027293115854263
		endloop
	endfacet
	facet normal -1 0 0
		outer loop
			vertex -0.0555555522441864 -0.018153807148337364 0.036741625517606735
			vertex -0.0555555522441864 0.037001170217990875 0.036741625517606735
			vertex -0.0555555522441864 0.027935335412621498 0.010027293115854263
		endloop
	endfacet
	facet normal -1 0 0
		outer loop
			vertex -0.0555555522441864 -0.018153807148337364 0.036741625517606735
			vertex -0.0555555522441864 0.027935335412621498 0.010027293115854263
			vertex -0.0555555522441864 0.0002221106260549277 0.00007972465391503647
		endloop
	endfacet
	facet normal -1 0 0
		outer loop
			vertex -0.0555555522441864 0.04923412948846817 -0.036741625517606735
			vertex -0.0555555522441864 0.01867794431746006 -0.036741625517606735
			vertex -0.0555555522441864 0.014734008349478245 -0.028873052448034286
		endloop
	endfacet
	facet normal -1 0 0
		outer loop
			vertex -0.0555555522441864 0.04923412948846817 -0.036741625517606735
			vertex -0.0555555522441864 0.014734008349478245 -0.028873052448034286
			vertex -0.0555555522441864 0.027935335412621498 0.010027293115854263
		endloop
	endfacet
	facet normal -1 0 0
		outer loop
			vertex -0.0555555522441864 0.04923412948846817 -0.036741625517606735
			vertex -0.0555555522441864 0.027935335412621498 0.010027293115854263
			vertex -0.0555555522441864 0.05287788063287735 0.018980342894792557
		endloop
	endfacet
	facet normal -1 0 0
		outer loop
			vertex -0.0555555522441864 0.037001170217990875 0.036741625517606735
			vertex -0.0555555522441864 0.05403933674097061 0.036741625517606735
			vertex -0.0555555522441864 0.05287788063287735 0.018980342894792557
		endloop
	endfacet
	facet normal -1 0 0
		outer loop
			vertex -0.0555555522441864 0.037001170217990875 0.036741625517606735
			vertex -0.0555555522441864 0.05287788063287735 0.018980342894792557
			vertex -0.0555555522441864 0.027935335412621498 0.010027293115854263
		endloop
	endfacet
	facet normal -1 0 0
		outer loop
			vertex -0.0555555522441864 0.06671220809221268 -0.036741625517606735
			vertex -0.0555555522441864 0.04923412948846817 -0.036741625517606735
			vertex -0.0555555522441864 0.05287788063287735 0.018980342894792557
		endloop
	endfacet
	facet normal -1 0 0
		outer loop
			vertex -0.0555555522441864 0.06671220809221268 -0.036741625517606735
			vertex -0.0555555522441864 0.05287788063287735 0.018980342894792557
			vertex -0.0555555522441864 0.08503855019807816 0.030524294823408127
		endloop
	endfacet
	facet normal -1 0 0
		outer loop
			vertex -0.0555555522441864 0.05403933674097061 0.036741625517606735
			vertex -0.0555555522441864 0.0867324247956276 0.036741625517606735
			vertex -0.0555555522441864 0.08503855019807816 0.030524294823408127
		endloop
	endfacet
	facet normal -1 0 0
		outer loop
			vertex -0.0555555522441864 0.05403933674097061 0.036741625517606735
			vertex -0.0555555522441864 0.08503855019807816 0.030524294823408127
			vertex -0.0555555522441864 0.05287788063287735 0.018980342894792557
		endloop
	endfacet
	facet normal -1 0 0
		outer loop
			vertex -0.0555555522441864 0.10202724486589432 -0.036741625517606735
			vertex -0.0555555522441864 0.06671220809221268 -0.036741625517606735
			vertex -0.0555555522441864 0.08503855019807816 0.030524294823408127
		endloop
	endfacet
	facet normal -1 0 0
		outer loop
			vertex -0.0555555522441864 0.10202724486589432 -0.036741625517606735
			vertex -0.0555555522441864 0.08503855019807816 0.030524294823408127
			vertex -0.0555555522441864 0.10202724486589432 0.03662232682108879
		endloop
	endfacet
	facet normal -1 0 0
		outer loop
			vertex -0.0555555522441864 0.0867324247956276 0.036741625517606735
			vertex -0.0555555522441864 0.10202724486589432 0.036741625517606735
			vertex -0.0555555522441864 0.10202724486589432 0.03662232682108879
		endloop
	endfacet
	facet normal -1 0 0
		outer loop
			vertex -0.0555555522441864 0.0867324247956276 0.036741625517606735
			vertex -0.0555555522441864 0.10202724486589432 0.03662232682108879
			vertex -0.0555555522441864 0.08503855019807816 0.030524294823408127
		endloop
	endfacet
	facet normal 0 -1 0
		outer loop
			vertex -0.0212542787194252 -0.1023595854640007 0.00749260513111949
			vertex -0.009539431892335415 -0.1023595854640007 0.017867881804704666
			vertex -0.041427284479141235 -0.1023595854640007 0.005343753378838301
		endloop
	endfacet
	facet normal 0 -1 0
		outer loop
			vertex -0.0555555522441864 -0.1023595854640007 0.036741625517606735
			vertex -0.0555555522441864 -0.1023595854640007 -0.00020520044199656695
			vertex -0.009539431892335415 -0.1023595854640007 0.017867881804704666
		endloop
	endfacet
	facet normal 0 -1 0
		outer loop
			vertex -0.0555555522441864 -0.1023595854640007 0.036741625517606735
			vertex -0.009539431892335415 -0.1023595854640007 0.017867881804704666
			vertex 0.01177115086466074 -0.1023595854640007 0.036741625517606735
		endloop
	endfacet
	facet normal 0 0 1
		outer loop
			vertex -0.0555555522441864 -0.07656233757734299 0.036741625517606735
			vertex -0.0555555522441864 -0.1023595854640007 0.036741625517606735
			vertex -0.04304821789264679 -0.07931516319513321 0.036741625517606735
		endloop
	endfacet
	facet normal 0 0 1
		outer loop
			vertex -0.0555555522441864 -0.1023595854640007 0.036741625517606735
			vertex 0.01177115086466074 -0.1023595854640007 0.036741625517606735
			vertex 0.015582629479467869 -0.09221964329481125 0.036741625517606735
		endloop
	endfacet
	facet normal 0 0 1
		outer loop
			vertex -0.0555555522441864 -0.1023595854640007 0.036741625517606735
			vertex 0.015582629479467869 -0.09221964329481125 0.036741625517606735
			vertex -0.04304821789264679 -0.07931516319513321 0.036741625517606735
		endloop
	endfacet
	facet normal 0 0 1
		outer loop
			vertex -0.0555555522441864 -0.0693603977560997 0.036741625517606735
			vertex -0.0555555522441864 -0.07656233757734299 0.036741625517606735
			vertex -0.04304821789264679 -0.07931516319513321 0.036741625517606735
		endloop
	endfacet
	facet normal 0 0 1
		outer loop
			vertex -0.0555555522441864 -0.0693603977560997 0.036741625517606735
			vertex -0.04304821789264679 -0.07931516319513321 0.036741625517606735
			vertex -0.03988196700811386 -0.07348143309354782 0.036741625517606735
		endloop
	endfacet
	facet normal 0 0 1
		outer loop
			vertex -0.017910487949848175 -0.07925835996866226 0.036741625517606735
			vertex -0.03988196700811386 -0.07348143309354782 0.036741625517606735
			vertex -0.04304821789264679 -0.07931516319513321 0.036741625517606735
		endloop
	endfacet
	facet normal 0 0 1
		outer loop
			vertex -0.017910487949848175 -0.07925835996866226 0.036741625517606735
			vertex -0.04304821789264679 -0.07931516319513321 0.036741625517606735
			vertex -0.025156214833259583 -0.08325314521789551 0.036741625517606735
		endloop
	endfacet
	facet normal 0 0 1
		outer loop
			vertex 0.017003975808620453 -0.08843836188316345 0.036741625517606735
			vertex 0.014938184060156345 -0.0878952145576477 0.036741625517606735
			vertex 0.008738973177969456 -0.09071337431669235 0.036741625517606735
		endloop
	endfacet
	facet normal 0 0 1
		outer loop
			vertex 0.017003975808620453 -0.08843836188316345 0.036741625517606735
			vertex 0.008738973177969456 -0.09071337431669235 0.036741625517606735
			vertex 0.015582629479467869 -0.09221964329481125 0.036741625517606735
		endloop
	endfacet
	facet normal 0 0 1
		outer loop
			vertex 0.014938184060156345 -0.0878952145576477 0.036741625517606735
			vertex -0.017910487949848175 -0.07925835996866226 0.036741625517606735
			vertex -0.025156214833259583 -0.08325314521789551 0.036741625517606735
		endloop
	endfacet
	facet normal 0 0 1
		outer loop
			vertex 0.014938184060156345 -0.0878952145576477 0.036741625517606735
			vertex -0.025156214833259583 -0.08325314521789551 0.036741625517606735
			vertex 0.008738973177969456 -0.09071337431669235 0.036741625517606735
		endloop
	endfacet
	facet normal 0 0 1
		outer loop
			vertex 0.023482240736484528 -0.08401109278202057 0.036741625517606735
			vertex 0.02075093239545822 -0.08525273203849792 0.036741625517606735
			vertex 0.021868102252483368 -0.0851745754480362 0.036741625517606735
		endloop
	endfacet
	facet normal 0 0 1
		outer loop
			vertex 0.055555559694767 -0.06089215725660324 0.036741625517606735
			vertex 0.055555559694767 -0.05811961740255356 0.036741625517606735
			vertex 0.01912900060415268 -0.07666019350290298 0.036741625517606735
		endloop
	endfacet
	facet normal 0 0 1
		outer loop
			vertex 0.055555559694767 -0.06089215725660324 0.036741625517606735
			vertex 0.01912900060415268 -0.07666019350290298 0.036741625517606735
			vertex 0.019019119441509247 -0.08604002743959427 0.036741625517606735
		endloop
	endfacet
	facet normal 0 0 1
		outer loop
			vertex 0.055555559694767 -0.06089215725660324 0.036741625517606735
			vertex 0.019019119441509247 -0.08604002743959427 0.036741625517606735
			vertex 0.023482240736484528 -0.08401109278202057 0.036741625517606735
		endloop
	endfacet
	facet normal 0 0 1
		outer loop
			vertex 0.055555559694767 -0.05811961740255356 0.036741625517606735
			vertex 0.055555559694767 -0.020465170964598656 0.036741625517606735
			vertex 0.019704483449459076 -0.027537992224097252 0.036741625517606735
		endloop
	endfacet
	facet normal 0 0 1
		outer loop
			vertex 0.055555559694767 -0.05811961740255356 0.036741625517606735
			vertex 0.019704483449459076 -0.027537992224097252 0.036741625517606735
			vertex 0.01912900060415268 -0.07666019350290298 0.036741625517606735
		endloop
	endfacet
	facet normal 0 0 1
		outer loop
			vertex 0.014938184060156345 -0.0878952145576477 0.036741625517606735
			vertex 0.017003975808620453 -0.08843836188316345 0.036741625517606735
			vertex 0.017675958573818207 -0.08665061742067337 0.036741625517606735
		endloop
	endfacet
	facet normal 0 0 1
		outer loop
			vertex -0.0555555522441864 -0.0423855260014534 0.036741625517606735
			vertex -0.0555555522441864 -0.0693603977560997 0.036741625517606735
			vertex -0.03988196700811386 -0.07348143309354782 0.036741625517606735
		endloop
	endfacet
	facet normal 0 0 1
		outer loop
			vertex -0.0555555522441864 -0.0423855260014534 0.036741625517606735
			vertex -0.03988196700811386 -0.07348143309354782 0.036741625517606735
			vertex -0.019101358950138092 -0.035193733870983124 0.036741625517606735
		endloop
	endfacet
	facet normal 0 0 1
		outer loop
			vertex 0.019704483449459076 -0.027537992224097252 0.036741625517606735
			vertex -0.019101358950138092 -0.035193733870983124 0.036741625517606735
			vertex -0.03988196700811386 -0.07348143309354782 0.036741625517606735
		endloop
	endfacet
	facet normal 0 0 1
		outer loop
			vertex 0.019704483449459076 -0.027537992224097252 0.036741625517606735
			vertex -0.03988196700811386 -0.07348143309354782 0.036741625517606735
			vertex 0.014938184060156345 -0.0878952145576477 0.036741625517606735
		endloop
	endfacet
	facet normal 0 0 1
		outer loop
			vertex 0.019704483449459076 -0.027537992224097252 0.036741625517606735
			vertex 0.014938184060156345 -0.0878952145576477 0.036741625517606735
			vertex 0.019019119441509247 -0.08604002743959427 0.036741625517606735
		endloop
	endfacet
	facet normal 0 0 1
		outer loop
			vertex -0.0555555522441864 -0.030169596895575523 0.036741625517606735
			vertex -0.0555555522441864 -0.0423855260014534 0.036741625517606735
			vertex -0.019101358950138092 -0.035193733870983124 0.036741625517606735
		endloop
	endfacet
	facet normal 0 0 1
		outer loop
			vertex -0.0555555522441864 -0.030169596895575523 0.036741625517606735
			vertex -0.019101358950138092 -0.035193733870983124 0.036741625517606735
			vertex -0.015480964444577694 -0.02852325700223446 0.036741625517606735
		endloop
	endfacet
	facet normal 0 0 1
		outer loop
			vertex -0.015480964444577694 -0.02852325700223446 0.036741625517606735
			vertex -0.019101358950138092 -0.035193733870983124 0.036741625517606735
			vertex 0.022650934755802155 -0.02695671282708645 0.036741625517606735
		endloop
	endfacet
	facet normal 0 0 1
		outer loop
			vertex 0.055555559694767 -0.020465170964598656 0.036741625517606735
			vertex 0.055555559694767 -0.01688905619084835 0.036741625517606735
			vertex 0.005112440325319767 -0.027677228674292564 0.036741625517606735
		endloop
	endfacet
	facet normal 0 0 1
		outer loop
			vertex 0.055555559694767 -0.020465170964598656 0.036741625517606735
			vertex 0.005112440325319767 -0.027677228674292564 0.036741625517606735
			vertex 0.022650934755802155 -0.02695671282708645 0.036741625517606735
		endloop
	endfacet
	facet normal 0 0 1
		outer loop
			vertex -0.0555555522441864 -0.018153807148337364 0.036741625517606735
			vertex -0.0555555522441864 -0.030169596895575523 0.036741625517606735
			vertex -0.015480964444577694 -0.02852325700223446 0.036741625517606735
		endloop
	endfacet
	facet normal 0 0 1
		outer loop
			vertex -0.0555555522441864 -0.018153807148337364 0.036741625517606735
			vertex -0.015480964444577694 -0.02852325700223446 0.036741625517606735
			vertex -0.006360671482980251 -0.011719382368028164 0.036741625517606735
		endloop
	endfacet
	facet normal 0 0 1
		outer loop
			vertex 0.055555559694767 -0.01688905619084835 0.036741625517606735
			vertex 0.055555559694767 -0.003621032927185297 0.036741625517606735
			vertex -0.006360671482980251 -0.011719382368028164 0.036741625517606735
		endloop
	endfacet
	facet normal 0 0 1
		outer loop
			vertex 0.055555559694767 -0.01688905619084835 0.036741625517606735
			vertex -0.006360671482980251 -0.011719382368028164 0.036741625517606735
			vertex -0.015480964444577694 -0.02852325700223446 0.036741625517606735
		endloop
	endfacet
	facet normal 0 0 1
		outer loop
			vertex 0.055555559694767 -0.01688905619084835 0.036741625517606735
			vertex -0.015480964444577694 -0.02852325700223446 0.036741625517606735
			vertex 0.005112440325319767 -0.027677228674292564 0.036741625517606735
		endloop
	endfacet
	facet normal 0 0 1
		outer loop
			vertex -0.0555555522441864 0.037001170217990875 0.036741625517606735
			vertex -0.0555555522441864 -0.018153807148337364 0.036741625517606735
			vertex -0.006360671482980251 -0.011719382368028164 0.036741625517606735
		endloop
	endfacet
	facet normal 0 0 1
		outer loop
			vertex -0.0555555522441864 0.037001170217990875 0.036741625517606735
			vertex -0.006360671482980251 -0.011719382368028164 0.036741625517606735
			vertex 0.024474866688251495 0.045094288885593414 0.036741625517606735
		endloop
	endfacet
	facet normal 0 0 1
		outer loop
			vertex -0.0555555522441864 0.037001170217990875 0.036741625517606735
			vertex 0.024474866688251495 0.045094288885593414 0.036741625517606735
			vertex -0.02404552698135376 0.05051744729280472 0.036741625517606735
		endloop
	endfacet
	facet normal 0 0 1
		outer loop
			vertex 0.055555559694767 -0.003621032927185297 0.036741625517606735
			vertex 0.055555559694767 0.04045502096414566 0.036741625517606735
			vertex 0.030985631048679352 0.044366560876369476 0.036741625517606735
		endloop
	endfacet
	facet normal 0 0 1
		outer loop
			vertex 0.055555559694767 -0.003621032927185297 0.036741625517606735
			vertex 0.030985631048679352 0.044366560876369476 0.036741625517606735
			vertex 0.024474866688251495 0.045094288885593414 0.036741625517606735
		endloop
	endfacet
	facet normal 0 0 1
		outer loop
			vertex 0.055555559694767 -0.003621032927185297 0.036741625517606735
			vertex 0.024474866688251495 0.045094288885593414 0.036741625517606735
			vertex -0.006360671482980251 -0.011719382368028164 0.036741625517606735
		endloop
	endfacet
	facet normal 0 0 1
		outer loop
			vertex -0.0555555522441864 0.05403933674097061 0.036741625517606735
			vertex -0.0555555522441864 0.037001170217990875 0.036741625517606735
			vertex -0.02404552698135376 0.05051744729280472 0.036741625517606735
		endloop
	endfacet
	facet normal 0 0 1
		outer loop
			vertex 0.055555559694767 0.04045502096414566 0.036741625517606735
			vertex 0.055555559694767 0.04162035137414932 0.036741625517606735
			vertex 0.030985631048679352 0.044366560876369476 0.036741625517606735
		endloop
	endfacet
	facet normal 0 0 1
		outer loop
			vertex -0.02404552698135376 0.05051744729280472 0.036741625517606735
			vertex 0.024474866688251495 0.045094288885593414 0.036741625517606735
			vertex 0.03661332279443741 0.06745902448892593 0.036741625517606735
		endloop
	endfacet
	facet normal 0 0 1
		outer loop
			vertex -0.02404552698135376 0.05051744729280472 0.036741625517606735
			vertex 0.03661332279443741 0.06745902448892593 0.036741625517606735
			vertex 0.02238570898771286 0.07043419033288956 0.036741625517606735
		endloop
	endfacet
	facet normal 0 0 1
		outer loop
			vertex 0.055555559694767 0.04162035137414932 0.036741625517606735
			vertex 0.055555559694767 0.06349805742502213 0.036741625517606735
			vertex 0.03661332279443741 0.06745902448892593 0.036741625517606735
		endloop
	endfacet
	facet normal 0 0 1
		outer loop
			vertex 0.055555559694767 0.04162035137414932 0.036741625517606735
			vertex 0.03661332279443741 0.06745902448892593 0.036741625517606735
			vertex 0.024474866688251495 0.045094288885593414 0.036741625517606735
		endloop
	endfacet
	facet normal 0 0 1
		outer loop
			vertex -0.0555555522441864 0.0867324247956276 0.036741625517606735
			vertex -0.0555555522441864 0.05403933674097061 0.036741625517606735
			vertex -0.02404552698135376 0.05051744729280472 0.036741625517606735
		endloop
	endfacet
	facet normal 0 0 1
		outer loop
			vertex -0.0555555522441864 0.0867324247956276 0.036741625517606735
			vertex -0.02404552698135376 0.05051744729280472 0.036741625517606735
			vertex 0.02238570898771286 0.07043419033288956 0.036741625517606735
		endloop
	endfacet
	facet normal 0 0 1
		outer loop
			vertex -0.0555555522441864 0.10202724486589432 0.036741625517606735
			vertex -0.0555555522441864 0.0867324247956276 0.036741625517606735
			vertex 0.03661332279443741 0.06745902448892593 0.036741625517606735
		endloop
	endfacet
	facet normal 0 0 1
		outer loop
			vertex -0.0555555522441864 0.10202724486589432 0.036741625517606735
			vertex 0.03661332279443741 0.06745902448892593 0.036741625517606735
			vertex 0.05537518113851547 0.10202724486589432 0.036741625517606735
		endloop
	endfacet
	facet normal 0 0 1
		outer loop
			vertex 0.055555559694767 0.06349805742502213 0.036741625517606735
			vertex 0.055555559694767 0.10202724486589432 0.036741625517606735
			vertex 0.05537518113851547 0.10202724486589432 0.036741625517606735
		endloop
	endfacet
	facet normal 0 0 1
		outer loop
			vertex 0.055555559694767 0.06349805742502213 0.036741625517606735
			vertex 0.05537518113851547 0.10202724486589432 0.036741625517606735
			vertex 0.03661332279443741 0.06745902448892593 0.036741625517606735
		endloop
	endfacet
	facet normal 0 0 -1
		outer loop
			vertex -0.0555555522441864 -0.0646955743432045 -0.036741625517606735
			vertex -0.0555555522441864 -0.035059310495853424 -0.036741625517606735
			vertex -0.019158951938152313 -0.044629015028476715 -0.036741625517606735
		endloop
	endfacet
	facet normal 0 0 -1
		outer loop
			vertex -0.0555555522441864 -0.0710933580994606 -0.036741625517606735
			vertex -0.0555555522441864 -0.0646955743432045 -0.036741625517606735
			vertex -0.019158951938152313 -0.044629015028476715 -0.036741625517606735
		endloop
	endfacet
	facet normal 0 0 -1
		outer loop
			vertex -0.0555555522441864 -0.0710933580994606 -0.036741625517606735
			vertex -0.019158951938152313 -0.044629015028476715 -0.036741625517606735
			vertex 0.018671579658985138 -0.054575733840465546 -0.036741625517606735
		endloop
	endfacet
	facet normal 0 0 -1
		outer loop
			vertex -0.0555555522441864 -0.0710933580994606 -0.036741625517606735
			vertex 0.018671579658985138 -0.054575733840465546 -0.036741625517606735
			vertex -0.02024386078119278 -0.0633833035826683 -0.036741625517606735
		endloop
	endfacet
	facet normal 0 0 -1
		outer loop
			vertex 0.03883615881204605 -0.05001198500394821 -0.036741625517606735
			vertex 0.02842307835817337 -0.05236872285604477 -0.036741625517606735
			vertex 0.02779192477464676 -0.05120585113763809 -0.036741625517606735
		endloop
	endfacet
	facet normal 0 0 -1
		outer loop
			vertex 0.03883615881204605 -0.05001198500394821 -0.036741625517606735
			vertex 0.02779192477464676 -0.05120585113763809 -0.036741625517606735
			vertex 0.04266396909952164 -0.048271842300891876 -0.036741625517606735
		endloop
	endfacet
	facet normal 0 0 -1
		outer loop
			vertex 0.02779192477464676 -0.05120585113763809 -0.036741625517606735
			vertex 0.02842307835817337 -0.05236872285604477 -0.036741625517606735
			vertex 0.018671579658985138 -0.054575733840465546 -0.036741625517606735
		endloop
	endfacet
	facet normal 0 0 -1
		outer loop
			vertex 0.02779192477464676 -0.05120585113763809 -0.036741625517606735
			vertex 0.018671579658985138 -0.054575733840465546 -0.036741625517606735
			vertex 0.015258812345564365 -0.05367841571569443 -0.036741625517606735
		endloop
	endfacet
	facet normal 0 0 -1
		outer loop
			vertex -0.0555555522441864 -0.035059310495853424 -0.036741625517606735
			vertex -0.0555555522441864 -0.02013716660439968 -0.036741625517606735
			vertex -0.04280368238687515 -0.024264639243483543 -0.036741625517606735
		endloop
	endfacet
	facet normal 0 0 -1
		outer loop
			vertex -0.0555555522441864 -0.035059310495853424 -0.036741625517606735
			vertex -0.04280368238687515 -0.024264639243483543 -0.036741625517606735
			vertex -0.005166768096387386 -0.03691466897726059 -0.036741625517606735
		endloop
	endfacet
	facet normal 0 0 -1
		outer loop
			vertex -0.0555555522441864 -0.035059310495853424 -0.036741625517606735
			vertex -0.005166768096387386 -0.03691466897726059 -0.036741625517606735
			vertex -0.019158951938152313 -0.044629015028476715 -0.036741625517606735
		endloop
	endfacet
	facet normal 0 0 -1
		outer loop
			vertex 0.033816613256931305 -0.05001727491617203 -0.036741625517606735
			vertex 0.02779192477464676 -0.05120585113763809 -0.036741625517606735
			vertex 0.025658629834651947 -0.047275327146053314 -0.036741625517606735
		endloop
	endfacet
	facet normal 0 0 -1
		outer loop
			vertex -0.005166768096387386 -0.03691466897726059 -0.036741625517606735
			vertex 0.025658629834651947 -0.047275327146053314 -0.036741625517606735
			vertex 0.02779192477464676 -0.05120585113763809 -0.036741625517606735
		endloop
	endfacet
	facet normal 0 0 -1
		outer loop
			vertex -0.005166768096387386 -0.03691466897726059 -0.036741625517606735
			vertex 0.02779192477464676 -0.05120585113763809 -0.036741625517606735
			vertex 0.015258812345564365 -0.05367841571569443 -0.036741625517606735
		endloop
	endfacet
	facet normal 0 0 -1
		outer loop
			vertex -0.005166768096387386 -0.03691466897726059 -0.036741625517606735
			vertex 0.015258812345564365 -0.05367841571569443 -0.036741625517606735
			vertex -0.019158951938152313 -0.044629015028476715 -0.036741625517606735
		endloop
	endfacet
	facet normal 0 0 -1
		outer loop
			vertex -0.0555555522441864 -0.02013716660439968 -0.036741625517606735
			vertex -0.0555555522441864 -0.01997864805161953 -0.036741625517606735
			vertex -0.04280368238687515 -0.024264639243483543 -0.036741625517606735
		endloop
	endfacet
	facet normal 0 0 -1
		outer loop
			vertex 0.055555559694767 0.033210717141628265 -0.036741625517606735
			vertex 0.055555559694767 -0.042411334812641144 -0.036741625517606735
			vertex 0.04266396909952164 -0.048271842300891876 -0.036741625517606735
		endloop
	endfacet
	facet normal 0 0 -1
		outer loop
			vertex 0.055555559694767 0.033210717141628265 -0.036741625517606735
			vertex 0.04266396909952164 -0.048271842300891876 -0.036741625517606735
			vertex 0.033816613256931305 -0.05001727491617203 -0.036741625517606735
		endloop
	endfacet
	facet normal 0 0 -1
		outer loop
			vertex 0.055555559694767 0.033210717141628265 -0.036741625517606735
			vertex 0.033816613256931305 -0.05001727491617203 -0.036741625517606735
			vertex 0.025658629834651947 -0.047275327146053314 -0.036741625517606735
		endloop
	endfacet
	facet normal 0 0 -1
		outer loop
			vertex 0.055555559694767 0.033210717141628265 -0.036741625517606735
			vertex 0.025658629834651947 -0.047275327146053314 -0.036741625517606735
			vertex -0.013147897087037563 0.02422466315329075 -0.036741625517606735
		endloop
	endfacet
	facet normal 0 0 -1
		outer loop
			vertex -0.0555555522441864 -0.01997864805161953 -0.036741625517606735
			vertex -0.0555555522441864 0.01867794431746006 -0.036741625517606735
			vertex -0.013147897087037563 0.02422466315329075 -0.036741625517606735
		endloop
	endfacet
	facet normal 0 0 -1
		outer loop
			vertex -0.0555555522441864 -0.01997864805161953 -0.036741625517606735
			vertex -0.013147897087037563 0.02422466315329075 -0.036741625517606735
			vertex 0.025658629834651947 -0.047275327146053314 -0.036741625517606735
		endloop
	endfacet
	facet normal 0 0 -1
		outer loop
			vertex 0.055555559694767 0.03681162744760513 -0.036741625517606735
			vertex 0.055555559694767 0.033210717141628265 -0.036741625517606735
			vertex -0.013147897087037563 0.02422466315329075 -0.036741625517606735
		endloop
	endfacet
	facet normal 0 0 -1
		outer loop
			vertex 0.055555559694767 0.03681162744760513 -0.036741625517606735
			vertex -0.013147897087037563 0.02422466315329075 -0.036741625517606735
			vertex -0.01554360892623663 0.0286386851221323 -0.036741625517606735
		endloop
	endfacet
	facet normal 0 0 -1
		outer loop
			vertex 0.055555559694767 0.03681162744760513 -0.036741625517606735
			vertex -0.01554360892623663 0.0286386851221323 -0.036741625517606735
			vertex 0.008331545628607273 0.0420934334397316 -0.036741625517606735
		endloop
	endfacet
	facet normal 0 0 -1
		outer loop
			vertex 0.055555559694767 0.03681162744760513 -0.036741625517606735
			vertex 0.008331545628607273 0.0420934334397316 -0.036741625517606735
			vertex 0.055480994284152985 0.03682350367307663 -0.036741625517606735
		endloop
	endfacet
	facet normal 0 0 -1
		outer loop
			vertex -0.01554360892623663 0.0286386851221323 -0.036741625517606735
			vertex -0.013147897087037563 0.02422466315329075 -0.036741625517606735
			vertex -0.026467666029930115 0.02248249389231205 -0.036741625517606735
		endloop
	endfacet
	facet normal 0 0 -1
		outer loop
			vertex -0.01554360892623663 0.0286386851221323 -0.036741625517606735
			vertex -0.015802577137947083 0.02911580540239811 -0.036741625517606735
			vertex -0.011173463426530361 0.031101474538445473 -0.036741625517606735
		endloop
	endfacet
	facet normal 0 0 -1
		outer loop
			vertex -0.015802577137947083 0.02911580540239811 -0.036741625517606735
			vertex -0.01554360892623663 0.0286386851221323 -0.036741625517606735
			vertex -0.026467666029930115 0.02248249389231205 -0.036741625517606735
		endloop
	endfacet
	facet normal 0 0 -1
		outer loop
			vertex -0.015802577137947083 0.02911580540239811 -0.036741625517606735
			vertex -0.026467666029930115 0.02248249389231205 -0.036741625517606735
			vertex -0.03337179869413376 0.021579468622803688 -0.036741625517606735
		endloop
	endfacet
	facet normal 0 0 -1
		outer loop
			vertex -0.015802577137947083 0.02911580540239811 -0.036741625517606735
			vertex -0.024859659373760223 0.04580322653055191 -0.036741625517606735
			vertex 0.008331545628607273 0.0420934334397316 -0.036741625517606735
		endloop
	endfacet
	facet normal 0 0 -1
		outer loop
			vertex -0.015802577137947083 0.02911580540239811 -0.036741625517606735
			vertex 0.008331545628607273 0.0420934334397316 -0.036741625517606735
			vertex -0.011173463426530361 0.031101474538445473 -0.036741625517606735
		endloop
	endfacet
	facet normal 0 0 -1
		outer loop
			vertex -0.0555555522441864 0.01867794431746006 -0.036741625517606735
			vertex -0.0555555522441864 0.04923412948846817 -0.036741625517606735
			vertex -0.024859659373760223 0.04580322653055191 -0.036741625517606735
		endloop
	endfacet
	facet normal 0 0 -1
		outer loop
			vertex -0.0555555522441864 0.01867794431746006 -0.036741625517606735
			vertex -0.024859659373760223 0.04580322653055191 -0.036741625517606735
			vertex -0.015802577137947083 0.02911580540239811 -0.036741625517606735
		endloop
	endfacet
	facet normal 0 0 -1
		outer loop
			vertex -0.0555555522441864 0.01867794431746006 -0.036741625517606735
			vertex -0.015802577137947083 0.02911580540239811 -0.036741625517606735
			vertex -0.03337179869413376 0.021579468622803688 -0.036741625517606735
		endloop
	endfacet
	facet normal 0 0 -1
		outer loop
			vertex 0.055555559694767 0.036815159022808075 -0.036741625517606735
			vertex 0.055555559694767 0.03681162744760513 -0.036741625517606735
			vertex 0.055480994284152985 0.03682350367307663 -0.036741625517606735
		endloop
	endfacet
	facet normal 0 0 -1
		outer loop
			vertex 0.055555559694767 0.04053362458944321 -0.036741625517606735
			vertex 0.055555559694767 0.036815159022808075 -0.036741625517606735
			vertex 0.05060692876577377 0.037368275225162506 -0.036741625517606735
		endloop
	endfacet
	facet normal 0 0 -1
		outer loop
			vertex 0.055555559694767 0.04347781091928482 -0.036741625517606735
			vertex 0.055555559694767 0.04053362458944321 -0.036741625517606735
			vertex 0.05060692876577377 0.037368275225162506 -0.036741625517606735
		endloop
	endfacet
	facet normal 0 0 -1
		outer loop
			vertex 0.055555559694767 0.04347781091928482 -0.036741625517606735
			vertex 0.05060692876577377 0.037368275225162506 -0.036741625517606735
			vertex 0.008331545628607273 0.0420934334397316 -0.036741625517606735
		endloop
	endfacet
	facet normal 0 0 -1
		outer loop
			vertex 0.055555559694767 0.04347781091928482 -0.036741625517606735
			vertex 0.008331545628607273 0.0420934334397316 -0.036741625517606735
			vertex 0.02290385216474533 0.05030561238527298 -0.036741625517606735
		endloop
	endfacet
	facet normal 0 0 -1
		outer loop
			vertex 0.008331545628607273 0.0420934334397316 -0.036741625517606735
			vertex -0.024859659373760223 0.04580322653055191 -0.036741625517606735
			vertex -0.033731020987033844 0.06214848905801773 -0.036741625517606735
		endloop
	endfacet
	facet normal 0 0 -1
		outer loop
			vertex 0.008331545628607273 0.0420934334397316 -0.036741625517606735
			vertex -0.033731020987033844 0.06214848905801773 -0.036741625517606735
			vertex 0.02290385216474533 0.05030561238527298 -0.036741625517606735
		endloop
	endfacet
	facet normal 0 0 -1
		outer loop
			vertex -0.0555555522441864 0.04923412948846817 -0.036741625517606735
			vertex -0.0555555522441864 0.06671220809221268 -0.036741625517606735
			vertex -0.033731020987033844 0.06214848905801773 -0.036741625517606735
		endloop
	endfacet
	facet normal 0 0 -1
		outer loop
			vertex -0.0555555522441864 0.04923412948846817 -0.036741625517606735
			vertex -0.033731020987033844 0.06214848905801773 -0.036741625517606735
			vertex -0.024859659373760223 0.04580322653055191 -0.036741625517606735
		endloop
	endfacet
	facet normal 0 0 -1
		outer loop
			vertex 0.055555559694767 0.10202724486589432 -0.036741625517606735
			vertex 0.055555559694767 0.04347781091928482 -0.036741625517606735
			vertex -0.033731020987033844 0.06214848905801773 -0.036741625517606735
		endloop
	endfacet
	facet normal 0 0 -1
		outer loop
			vertex 0.055555559694767 0.10202724486589432 -0.036741625517606735
			vertex -0.033731020987033844 0.06214848905801773 -0.036741625517606735
			vertex -0.05537516996264458 0.10202724486589432 -0.036741625517606735
		endloop
	endfacet
	facet normal 0 0 -1
		outer loop
			vertex -0.0555555522441864 0.06671220809221268 -0.036741625517606735
			vertex -0.0555555522441864 0.10202724486589432 -0.036741625517606735
			vertex -0.05537516996264458 0.10202724486589432 -0.036741625517606735
		endloop
	endfacet
	facet normal 0 0 -1
		outer loop
			vertex -0.0555555522441864 0.06671220809221268 -0.036741625517606735
			vertex -0.05537516996264458 0.10202724486589432 -0.036741625517606735
			vertex -0.033731020987033844 0.06214848905801773 -0.036741625517606735
		endloop
	endfacet
endsolid exported
