solid exported
	facet normal 0.15575278250562805 -0.9836037050514191 0.09091106726287758
		outer loop
			vertex 0.055555567145347595 0.06857142597436905 0.036741629242897034
			vertex 0.04227910935878754 0.06646911054849625 0.036741629242897034
			vertex 0.055555567145347595 0.06816709786653519 0.0323670394718647
		endloop
	endfacet
	facet normal 1 0 0
		outer loop
			vertex 0.055555567145347595 0.07343841344118118 0.036741629242897034
			vertex 0.055555567145347595 0.06857142597436905 0.036741629242897034
			vertex 0.055555567145347595 0.06816709786653519 0.0323670394718647
		endloop
	endfacet
	facet normal 0 1 0
		outer loop
			vertex 0.055555567145347595 0.10202724486589432 0.036741629242897034
			vertex 0.055555567145347595 0.10202724486589432 -0.036741629242897034
			vertex -0.04855041205883026 0.10202724486589432 -0.036741629242897034
		endloop
	endfacet
	facet normal 0 1 0
		outer loop
			vertex 0.055555567145347595 0.10202724486589432 0.036741629242897034
			vertex -0.04855041205883026 0.10202724486589432 -0.036741629242897034
			vertex -0.05483052134513855 0.10202724486589432 0.036741629242897034
		endloop
	endfacet
	facet normal 0 1 0
		outer loop
			vertex -0.0555555522441864 0.10202724486589432 -0.036741629242897034
			vertex -0.0555555522441864 0.10202724486589432 0.036741629242897034
			vertex -0.05483052134513855 0.10202724486589432 0.036741629242897034
		endloop
	endfacet
	facet normal 0 1 0
		outer loop
			vertex -0.0555555522441864 0.10202724486589432 -0.036741629242897034
			vertex -0.05483052134513855 0.10202724486589432 0.036741629242897034
			vertex -0.04855041205883026 0.10202724486589432 -0.036741629242897034
		endloop
	endfacet
	facet normal -0.16562679113971626 -0.9763895712257152 0.13867649858005768
		outer loop
			vertex 0.03200559318065643 0.03152129799127579 -0.009258042089641094
			vertex 0.036003097891807556 0.030907267704606056 -0.00880691222846508
			vertex 0.02692471630871296 0.033695466816425323 -0.000018506569176679477
		endloop
	endfacet
	facet normal 0.533783219132026 -0.6345596039971572 0.5589361179491111
		outer loop
			vertex -0.028356192633509636 0.010164164938032627 -0.036741629242897034
			vertex -0.0348178893327713 0.01155299786478281 -0.02899397723376751
			vertex -0.044533610343933105 -0.0034440667368471622 -0.036741629242897034
		endloop
	endfacet
	facet normal 0.2887957777865665 -0.5804306076661245 0.7613785578915299
		outer loop
			vertex -0.0555555522441864 -0.008928081952035427 -0.036741629242897034
			vertex -0.044533610343933105 -0.0034440667368471622 -0.036741629242897034
			vertex -0.0348178893327713 0.01155299786478281 -0.02899397723376751
		endloop
	endfacet
	facet normal 0.2887956654710727 -0.5804305319067565 0.7613786582480231
		outer loop
			vertex -0.0555555522441864 -0.008928081952035427 -0.036741629242897034
			vertex -0.0348178893327713 0.01155299786478281 -0.02899397723376751
			vertex -0.0555555522441864 0.009673499502241611 -0.02256087213754654
		endloop
	endfacet
	facet normal 0.3637791996785826 -0.6788838668276785 0.6377941589904291
		outer loop
			vertex 0.055555567145347595 0.03139079362154007 -0.0194444190710783
			vertex 0.055555567145347595 0.03340081125497818 -0.017304906621575356
			vertex 0.039287105202674866 0.033370278775691986 -0.00805834960192442
		endloop
	endfacet
	facet normal 0.36378117725756537 -0.6788806740494358 0.6377964294939912
		outer loop
			vertex 0.055555567145347595 0.03139079362154007 -0.0194444190710783
			vertex 0.039287105202674866 0.033370278775691986 -0.00805834960192442
			vertex 0.036003097891807556 0.030907267704606056 -0.00880691222846508
		endloop
	endfacet
	facet normal 0.380140247525571 -0.6930196824275916 0.6125496812334146
		outer loop
			vertex 0.02692471630871296 0.033695466816425323 -0.000018506569176679477
			vertex 0.036003097891807556 0.030907267704606056 -0.00880691222846508
			vertex 0.039287105202674866 0.033370278775691986 -0.00805834960192442
		endloop
	endfacet
	facet normal 0.15024003543812728 -0.9609289196586194 0.2324726717600778
		outer loop
			vertex 0.055555567145347595 0.03139079362154007 -0.0194444190710783
			vertex 0.036003097891807556 0.030907267704606056 -0.00880691222846508
			vertex 0.048347726464271545 0.02793789841234684 -0.029058799147605896
		endloop
	endfacet
	facet normal 0.1502393634568907 -0.9609289041887918 0.23247316998440037
		outer loop
			vertex 0.055555567145347595 0.03139079362154007 -0.0194444190710783
			vertex 0.048347726464271545 0.02793789841234684 -0.029058799147605896
			vertex 0.055555567145347595 0.028364161029458046 -0.031955018639564514
		endloop
	endfacet
	facet normal -0.1570308420125137 -0.986382019049381 0.04890630994981587
		outer loop
			vertex 0.048347726464271545 0.02793789841234684 -0.029058799147605896
			vertex 0.036003097891807556 0.030907267704606056 -0.00880691222846508
			vertex 0.03200559318065643 0.03152129799127579 -0.009258042089641094
		endloop
	endfacet
	facet normal 1 0 0
		outer loop
			vertex 0.055555567145347595 0.028364161029458046 -0.031955018639564514
			vertex 0.055555567145347595 0.03340081125497818 -0.017304906621575356
			vertex 0.055555567145347595 0.03139079362154007 -0.0194444190710783
		endloop
	endfacet
	facet normal -0.16562845936509954 -0.9763894234713301 0.1386755464444524
		outer loop
			vertex -0.017004547640681267 0.03904951363801956 -0.014788966625928879
			vertex 0.03200559318065643 0.03152129799127579 -0.009258042089641094
			vertex 0.02692471630871296 0.033695466816425323 -0.000018506569176679477
		endloop
	endfacet
	facet normal -0.16562832832247515 -0.9763895052655196 0.13867512705765392
		outer loop
			vertex -0.017004547640681267 0.03904951363801956 -0.014788966625928879
			vertex 0.02692471630871296 0.033695466816425323 -0.000018506569176679477
			vertex -0.011048315092921257 0.045357950031757355 0.036741629242897034
		endloop
	endfacet
	facet normal -0.1656280574154168 -0.9763895548063602 0.13867510180934903
		outer loop
			vertex -0.017004547640681267 0.03904951363801956 -0.014788966625928879
			vertex -0.011048315092921257 0.045357950031757355 0.036741629242897034
			vertex -0.026571480557322502 0.04799119383096695 0.036741629242897034
		endloop
	endfacet
	facet normal -0.16562496689812847 -0.9763899869142598 0.13867575056067158
		outer loop
			vertex -0.017004547640681267 0.03904951363801956 -0.014788966625928879
			vertex -0.026571480557322502 0.04799119383096695 0.036741629242897034
			vertex -0.027419326826930046 0.04804409295320511 0.03610147163271904
		endloop
	endfacet
	facet normal -0.16028102380352444 -0.9771072752592067 0.13989769849437525
		outer loop
			vertex -0.0555555522441864 0.04995254427194595 0.017194662243127823
			vertex -0.0555555522441864 0.049258120357990265 0.012344499118626118
			vertex -0.017004547640681267 0.03904951363801956 -0.014788966625928879
		endloop
	endfacet
	facet normal -0.16028255301711314 -0.977107287705396 0.13989585952171976
		outer loop
			vertex -0.0555555522441864 0.04995254427194595 0.017194662243127823
			vertex -0.017004547640681267 0.03904951363801956 -0.014788966625928879
			vertex -0.027419326826930046 0.04804409295320511 0.03610147163271904
		endloop
	endfacet
	facet normal 0.18787922403865634 -0.8785960686596562 0.43905619835099563
		outer loop
			vertex -0.017004547640681267 0.03904951363801956 -0.014788966625928879
			vertex -0.015772221609950066 0.03829929977655411 -0.016817552968859673
			vertex -0.015000177547335625 0.03840429335832596 -0.016937820240855217
		endloop
	endfacet
	facet normal 0.5337835618743911 -0.6345591375491016 0.5589363201882914
		outer loop
			vertex -0.017004547640681267 0.03904951363801956 -0.014788966625928879
			vertex -0.0348178893327713 0.01155299786478281 -0.02899397723376751
			vertex -0.028356192633509636 0.010164164938032627 -0.036741629242897034
		endloop
	endfacet
	facet normal 0.5337821858453866 -0.6345593833831511 0.5589373551969097
		outer loop
			vertex -0.017004547640681267 0.03904951363801956 -0.014788966625928879
			vertex -0.028356192633509636 0.010164164938032627 -0.036741629242897034
			vertex -0.010245053097605705 0.025398993864655495 -0.036741629242897034
		endloop
	endfacet
	facet normal 0.5337860393457171 -0.6345566137064609 0.5589368195073592
		outer loop
			vertex -0.017004547640681267 0.03904951363801956 -0.014788966625928879
			vertex -0.010245053097605705 0.025398993864655495 -0.036741629242897034
			vertex -0.015772221609950066 0.03829929977655411 -0.016817552968859673
		endloop
	endfacet
	facet normal 0.2887956323901461 -0.5804307853982794 0.761378477548658
		outer loop
			vertex -0.0555555522441864 0.02686888910830021 -0.009452104568481445
			vertex -0.0555555522441864 0.009673499502241611 -0.02256087213754654
			vertex -0.0348178893327713 0.01155299786478281 -0.02899397723376751
		endloop
	endfacet
	facet normal 0.2887960399422466 -0.5804304056802672 0.7613786124363602
		outer loop
			vertex -0.0555555522441864 0.02686888910830021 -0.009452104568481445
			vertex -0.0348178893327713 0.01155299786478281 -0.02899397723376751
			vertex -0.017004547640681267 0.03904951363801956 -0.014788966625928879
		endloop
	endfacet
	facet normal 0.30442596914717207 -0.6644508223622763 0.6825173506738856
		outer loop
			vertex -0.0555555522441864 0.02686888910830021 -0.009452104568481445
			vertex -0.017004547640681267 0.03904951363801956 -0.014788966625928879
			vertex -0.0555555522441864 0.039727889001369476 0.003066512057557702
		endloop
	endfacet
	facet normal 0.3044255778714558 -0.6644518300591736 0.682516544172114
		outer loop
			vertex -0.0555555522441864 0.039727889001369476 0.003066512057557702
			vertex -0.017004547640681267 0.03904951363801956 -0.014788966625928879
			vertex -0.0555555522441864 0.049258120357990265 0.012344499118626118
		endloop
	endfacet
	facet normal 0.36378089364158234 -0.678882023157679 0.6377951552455291
		outer loop
			vertex 0.055555567145347595 0.035418011248111725 -0.015157787129282951
			vertex 0.04440043866634369 0.03720527142286301 -0.006892811506986618
			vertex 0.039287105202674866 0.033370278775691986 -0.00805834960192442
		endloop
	endfacet
	facet normal 0.36378215031318245 -0.6788773884196244 0.6377993717510763
		outer loop
			vertex 0.055555567145347595 0.035418011248111725 -0.015157787129282951
			vertex 0.039287105202674866 0.033370278775691986 -0.00805834960192442
			vertex 0.055555567145347595 0.03340081125497818 -0.017304906621575356
		endloop
	endfacet
	facet normal 0.3801378624042726 -0.6930224332193082 0.6125480492349151
		outer loop
			vertex -0.009688002988696098 0.04610411077737808 0.036741629242897034
			vertex -0.011048315092921257 0.045357950031757355 0.036741629242897034
			vertex 0.02692471630871296 0.033695466816425323 -0.000018506569176679477
		endloop
	endfacet
	facet normal 0.3801400776313978 -0.6930199953351658 0.6125494326534322
		outer loop
			vertex -0.009688002988696098 0.04610411077737808 0.036741629242897034
			vertex 0.02692471630871296 0.033695466816425323 -0.000018506569176679477
			vertex 0.039287105202674866 0.033370278775691986 -0.00805834960192442
		endloop
	endfacet
	facet normal 0.3801395044765982 -0.6930206892149829 0.6125490033101648
		outer loop
			vertex -0.009688002988696098 0.04610411077737808 0.036741629242897034
			vertex 0.039287105202674866 0.033370278775691986 -0.00805834960192442
			vertex 0.04440043866634369 0.03720527142286301 -0.006892811506986618
		endloop
	endfacet
	facet normal 0.1502412207013269 -0.9609274435776126 0.23247800709221786
		outer loop
			vertex 0.055555567145347595 0.02720613218843937 -0.036741629242897034
			vertex 0.055555567145347595 0.028364161029458046 -0.031955018639564514
			vertex 0.048347726464271545 0.02793789841234684 -0.029058799147605896
		endloop
	endfacet
	facet normal 0.15023897910227646 -0.9609282834767346 0.2324759840774141
		outer loop
			vertex 0.055555567145347595 0.02720613218843937 -0.036741629242897034
			vertex 0.048347726464271545 0.02793789841234684 -0.029058799147605896
			vertex 0.05303086340427399 0.026811400428414345 -0.036741629242897034
		endloop
	endfacet
	facet normal -0.15703272311099783 -0.9863816401172525 0.048907912569890674
		outer loop
			vertex 0.01799132116138935 0.032389722764492035 -0.036741629242897034
			vertex 0.05303086340427399 0.026811400428414345 -0.036741629242897034
			vertex 0.048347726464271545 0.02793789841234684 -0.029058799147605896
		endloop
	endfacet
	facet normal -0.1570320853250141 -0.9863818732996013 0.04890525743155946
		outer loop
			vertex 0.01799132116138935 0.032389722764492035 -0.036741629242897034
			vertex 0.048347726464271545 0.02793789841234684 -0.029058799147605896
			vertex 0.03200559318065643 0.03152129799127579 -0.009258042089641094
		endloop
	endfacet
	facet normal -0.15703255064460078 -0.986381787321735 0.04890549742135906
		outer loop
			vertex 0.01799132116138935 0.032389722764492035 -0.036741629242897034
			vertex 0.03200559318065643 0.03152129799127579 -0.009258042089641094
			vertex -0.017004547640681267 0.03904951363801956 -0.014788966625928879
		endloop
	endfacet
	facet normal -0.1570373424123243 -0.9863814088571711 0.04889774380293013
		outer loop
			vertex 0.01799132116138935 0.032389722764492035 -0.036741629242897034
			vertex -0.017004547640681267 0.03904951363801956 -0.014788966625928879
			vertex -0.014275385066866875 0.03850289434194565 -0.017050720751285553
		endloop
	endfacet
	facet normal 0.18791742345737547 -0.8785734819157637 0.4390850473832524
		outer loop
			vertex -0.017004547640681267 0.03904951363801956 -0.014788966625928879
			vertex -0.015000177547335625 0.03840429335832596 -0.016937820240855217
			vertex -0.014275385066866875 0.03850289434194565 -0.017050720751285553
		endloop
	endfacet
	facet normal 1 0 0
		outer loop
			vertex 0.055555567145347595 0.02720613218843937 -0.036741629242897034
			vertex 0.055555567145347595 0.03400658816099167 -0.036741629242897034
			vertex 0.055555567145347595 0.035418011248111725 -0.015157787129282951
		endloop
	endfacet
	facet normal 1 0 0
		outer loop
			vertex 0.055555567145347595 0.02720613218843937 -0.036741629242897034
			vertex 0.055555567145347595 0.035418011248111725 -0.015157787129282951
			vertex 0.055555567145347595 0.03340081125497818 -0.017304906621575356
		endloop
	endfacet
	facet normal 1 0 0
		outer loop
			vertex 0.055555567145347595 0.02720613218843937 -0.036741629242897034
			vertex 0.055555567145347595 0.03340081125497818 -0.017304906621575356
			vertex 0.055555567145347595 0.028364161029458046 -0.031955018639564514
		endloop
	endfacet
	facet normal -0.15703194070191265 -0.9863818236029002 0.04890672413082416
		outer loop
			vertex 0.009484739974141121 0.0337439700961113 -0.036741629242897034
			vertex 0.01799132116138935 0.032389722764492035 -0.036741629242897034
			vertex -0.014275385066866875 0.03850289434194565 -0.017050720751285553
		endloop
	endfacet
	facet normal 0.18790141993872012 -0.8785845039744987 0.43906984155245427
		outer loop
			vertex -0.015772221609950066 0.03829929977655411 -0.016817552968859673
			vertex -0.003668813267722726 0.030930841341614723 -0.036741629242897034
			vertex 0.009484739974141121 0.0337439700961113 -0.036741629242897034
		endloop
	endfacet
	facet normal 0.18789730980838965 -0.8785876296434514 0.4390653459387014
		outer loop
			vertex -0.015772221609950066 0.03829929977655411 -0.016817552968859673
			vertex 0.009484739974141121 0.0337439700961113 -0.036741629242897034
			vertex -0.014275385066866875 0.03850289434194565 -0.017050720751285553
		endloop
	endfacet
	facet normal 0.5337827115690369 -0.6345589141681808 0.5589373858311016
		outer loop
			vertex -0.003668813267722726 0.030930841341614723 -0.036741629242897034
			vertex -0.015772221609950066 0.03829929977655411 -0.016817552968859673
			vertex -0.010245053097605705 0.025398993864655495 -0.036741629242897034
		endloop
	endfacet
	facet normal -0.09398815354296594 -0.9921878484998091 0.08203353145454612
		outer loop
			vertex -0.0555555522441864 0.052297838032245636 0.036741629242897034
			vertex -0.0555555522441864 0.05167827755212784 0.029248103499412537
			vertex -0.04901514947414398 0.05167827755212784 0.036741629242897034
		endloop
	endfacet
	facet normal -0.16560872476180438 -0.9763958659421731 0.13865375311834618
		outer loop
			vertex -0.026571480557322502 0.04799119383096695 0.036741629242897034
			vertex -0.02755035273730755 0.0481572225689888 0.036741629242897034
			vertex -0.027419326826930046 0.04804409295320511 0.03610147163271904
		endloop
	endfacet
	facet normal -0.16028267149619518 -0.9771072681956205 0.13989586004358576
		outer loop
			vertex -0.04901514947414398 0.05167827755212784 0.036741629242897034
			vertex -0.0555555522441864 0.05167827755212784 0.029248103499412537
			vertex -0.0555555522441864 0.04995254427194595 0.017194662243127823
		endloop
	endfacet
	facet normal -0.16028252251140185 -0.9771072993778449 0.13989581294633774
		outer loop
			vertex -0.04901514947414398 0.05167827755212784 0.036741629242897034
			vertex -0.0555555522441864 0.04995254427194595 0.017194662243127823
			vertex -0.027419326826930046 0.04804409295320511 0.03610147163271904
		endloop
	endfacet
	facet normal -0.16028387380137435 -0.9771107772568933 0.13986997092891335
		outer loop
			vertex -0.04901514947414398 0.05167827755212784 0.036741629242897034
			vertex -0.027419326826930046 0.04804409295320511 0.03610147163271904
			vertex -0.02755035273730755 0.0481572225689888 0.036741629242897034
		endloop
	endfacet
	facet normal 0.3637820533348477 -0.6788794378316362 0.6377972456516913
		outer loop
			vertex 0.055555567145347595 0.03768124431371689 -0.012748759239912033
			vertex 0.046842411160469055 0.03903675824403763 -0.006336187943816185
			vertex 0.04440043866634369 0.03720527142286301 -0.006892811506986618
		endloop
	endfacet
	facet normal 0.36378122206852975 -0.6788815307576325 0.6377954920399648
		outer loop
			vertex 0.055555567145347595 0.03768124431371689 -0.012748759239912033
			vertex 0.04440043866634369 0.03720527142286301 -0.006892811506986618
			vertex 0.055555567145347595 0.035418011248111725 -0.015157787129282951
		endloop
	endfacet
	facet normal 0.38013874991670205 -0.693021740359256 0.6125482823428656
		outer loop
			vertex -0.006813628599047661 0.047680772840976715 0.036741629242897034
			vertex -0.009688002988696098 0.04610411077737808 0.036741629242897034
			vertex 0.04440043866634369 0.03720527142286301 -0.006892811506986618
		endloop
	endfacet
	facet normal 0.38014119610378455 -0.6930185399532635 0.6125503851160581
		outer loop
			vertex -0.006813628599047661 0.047680772840976715 0.036741629242897034
			vertex 0.04440043866634369 0.03720527142286301 -0.006892811506986618
			vertex 0.046842411160469055 0.03903675824403763 -0.006336187943816185
		endloop
	endfacet
	facet normal 1 0 0
		outer loop
			vertex 0.055555567145347595 0.03713548928499222 -0.013329659588634968
			vertex 0.055555567145347595 0.03761886805295944 -0.013503163121640682
			vertex 0.055555567145347595 0.03768124431371689 -0.012748759239912033
		endloop
	endfacet
	facet normal 1 0 0
		outer loop
			vertex 0.055555567145347595 0.03400658816099167 -0.036741629242897034
			vertex 0.055555567145347595 0.03569760173559189 -0.036741629242897034
			vertex 0.055555567145347595 0.03761886805295944 -0.013503163121640682
		endloop
	endfacet
	facet normal 1 0 0
		outer loop
			vertex 0.055555567145347595 0.03400658816099167 -0.036741629242897034
			vertex 0.055555567145347595 0.03761886805295944 -0.013503163121640682
			vertex 0.055555567145347595 0.03713548928499222 -0.013329659588634968
		endloop
	endfacet
	facet normal 1 0 0
		outer loop
			vertex 0.055555567145347595 0.03400658816099167 -0.036741629242897034
			vertex 0.055555567145347595 0.03713548928499222 -0.013329659588634968
			vertex 0.055555567145347595 0.035418011248111725 -0.015157787129282951
		endloop
	endfacet
	facet normal 0.3801414677939035 -0.6930209142985609 0.6125475302442115
		outer loop
			vertex -0.00316250161267817 0.04968351870775223 0.036741629242897034
			vertex -0.006813628599047661 0.047680772840976715 0.036741629242897034
			vertex -0.0033725930843502283 0.047126419842243195 0.03397897258400917
		endloop
	endfacet
	facet normal 0.15575286232232508 -0.9836036687200571 0.09091132360078791
		outer loop
			vertex 0.055555567145347595 0.06816709786653519 0.0323670394718647
			vertex 0.04227910935878754 0.06646911054849625 0.036741629242897034
			vertex 0.0267180223017931 0.06400502473115921 0.036741629242897034
		endloop
	endfacet
	facet normal 0.15575314116319874 -0.9836034340331005 0.0909133850216179
		outer loop
			vertex 0.055555567145347595 0.06816709786653519 0.0323670394718647
			vertex 0.0267180223017931 0.06400502473115921 0.036741629242897034
			vertex 0.055555567145347595 0.06546840816736221 0.003169573610648513
		endloop
	endfacet
	facet normal 0.7557483353828468 -0.11884357849699304 0.6439880879457982
		outer loop
			vertex 0.02579309232532978 0.0581231489777565 0.036741629242897034
			vertex 0.055555567145347595 0.048809714615345 0.0000953261333052069
			vertex 0.055555567145347595 0.06546840816736221 0.003169573610648513
		endloop
	endfacet
	facet normal 0.755748310238237 -0.11884206605290153 0.6439883965634222
		outer loop
			vertex 0.02579309232532978 0.0581231489777565 0.036741629242897034
			vertex 0.055555567145347595 0.06546840816736221 0.003169573610648513
			vertex 0.0267180223017931 0.06400502473115921 0.036741629242897034
		endloop
	endfacet
	facet normal 0.2438940097760497 -0.8740348732502051 0.4202127465199719
		outer loop
			vertex 0.004554273560643196 0.0521966889500618 0.036741629242897034
			vertex 0.055555567145347595 0.048101045191287994 -0.0013786933850497007
			vertex 0.055555567145347595 0.048809714615345 0.0000953261333052069
		endloop
	endfacet
	facet normal 0.24389070639264496 -0.8740378720616617 0.4202084263043983
		outer loop
			vertex 0.004554273560643196 0.0521966889500618 0.036741629242897034
			vertex 0.055555567145347595 0.048809714615345 0.0000953261333052069
			vertex 0.02579309232532978 0.0581231489777565 0.036741629242897034
		endloop
	endfacet
	facet normal 1 0 0
		outer loop
			vertex 0.055555567145347595 0.048101045191287994 -0.0013786933850497007
			vertex 0.055555567145347595 0.06508500128984451 -0.0009786606533452868
			vertex 0.055555567145347595 0.06546840816736221 0.003169573610648513
		endloop
	endfacet
	facet normal 1 0 0
		outer loop
			vertex 0.055555567145347595 0.048101045191287994 -0.0013786933850497007
			vertex 0.055555567145347595 0.06546840816736221 0.003169573610648513
			vertex 0.055555567145347595 0.048809714615345 0.0000953261333052069
		endloop
	endfacet
	facet normal 0.36378021662382964 -0.6788822151167684 0.637795337072379
		outer loop
			vertex 0.055555567145347595 0.04557160288095474 -0.004350102506577969
			vertex 0.046842411160469055 0.03903675824403763 -0.006336187943816185
			vertex 0.055555567145347595 0.03768124431371689 -0.012748759239912033
		endloop
	endfacet
	facet normal 0.3801389684177002 -0.6930214867082732 0.612548433718495
		outer loop
			vertex 0.055555567145347595 0.04557160288095474 -0.004350102506577969
			vertex 0.055555567145347595 0.047985441982746124 -0.0016191472532227635
			vertex -0.001827089348807931 0.05041602998971939 0.036741629242897034
		endloop
	endfacet
	facet normal 0.38014048433887415 -0.6930190391285491 0.6125502620780999
		outer loop
			vertex 0.055555567145347595 0.04557160288095474 -0.004350102506577969
			vertex -0.001827089348807931 0.05041602998971939 0.036741629242897034
			vertex -0.00316250161267817 0.04968351870775223 0.036741629242897034
		endloop
	endfacet
	facet normal 0.38013895854810104 -0.693021578571503 0.6125483359117283
		outer loop
			vertex 0.055555567145347595 0.04557160288095474 -0.004350102506577969
			vertex -0.00316250161267817 0.04968351870775223 0.036741629242897034
			vertex -0.0033725930843502283 0.047126419842243195 0.03397897258400917
		endloop
	endfacet
	facet normal 0.3801391688800727 -0.6930211912653155 0.612548643570754
		outer loop
			vertex 0.055555567145347595 0.04557160288095474 -0.004350102506577969
			vertex -0.0033725930843502283 0.047126419842243195 0.03397897258400917
			vertex 0.046842411160469055 0.03903675824403763 -0.006336187943816185
		endloop
	endfacet
	facet normal 0.24389252909282425 -0.8740360933613099 0.4202110681007888
		outer loop
			vertex -0.001827089348807931 0.05041602998971939 0.036741629242897034
			vertex 0.055555567145347595 0.047985441982746124 -0.0016191472532227635
			vertex 0.055555567145347595 0.048101045191287994 -0.0013786933850497007
		endloop
	endfacet
	facet normal 0.243891723581444 -0.8740368781709081 0.42020990322186114
		outer loop
			vertex -0.001827089348807931 0.05041602998971939 0.036741629242897034
			vertex 0.055555567145347595 0.048101045191287994 -0.0013786933850497007
			vertex 0.004554273560643196 0.0521966889500618 0.036741629242897034
		endloop
	endfacet
	facet normal 1 0 0
		outer loop
			vertex 0.055555567145347595 0.047985441982746124 -0.0016191472532227635
			vertex 0.055555567145347595 0.04820004850625992 -0.0013763618189841509
			vertex 0.055555567145347595 0.048101045191287994 -0.0013786933850497007
		endloop
	endfacet
	facet normal 1 0 0
		outer loop
			vertex 0.055555567145347595 0.04557160288095474 -0.004350102506577969
			vertex 0.055555567145347595 0.048369117081165314 -0.001372379483655095
			vertex 0.055555567145347595 0.04820004850625992 -0.0013763618189841509
		endloop
	endfacet
	facet normal 1 0 0
		outer loop
			vertex 0.055555567145347595 0.03768124431371689 -0.012748759239912033
			vertex 0.055555567145347595 0.03761886805295944 -0.013503163121640682
			vertex 0.055555567145347595 0.06308258324861526 -0.022643277421593666
		endloop
	endfacet
	facet normal 1 0 0
		outer loop
			vertex 0.055555567145347595 0.03768124431371689 -0.012748759239912033
			vertex 0.055555567145347595 0.06308258324861526 -0.022643277421593666
			vertex 0.055555567145347595 0.06508500128984451 -0.0009786606533452868
		endloop
	endfacet
	facet normal 1 0 0
		outer loop
			vertex 0.055555567145347595 0.03768124431371689 -0.012748759239912033
			vertex 0.055555567145347595 0.06508500128984451 -0.0009786606533452868
			vertex 0.055555567145347595 0.048369117081165314 -0.001372379483655095
		endloop
	endfacet
	facet normal 1 0 0
		outer loop
			vertex 0.055555567145347595 0.03569760173559189 -0.036741629242897034
			vertex 0.055555567145347595 0.060283906757831573 -0.036741629242897034
			vertex 0.055555567145347595 0.06254739314317703 -0.028433557599782944
		endloop
	endfacet
	facet normal 1 0 0
		outer loop
			vertex 0.055555567145347595 0.03569760173559189 -0.036741629242897034
			vertex 0.055555567145347595 0.06254739314317703 -0.028433557599782944
			vertex 0.055555567145347595 0.06308258324861526 -0.022643277421593666
		endloop
	endfacet
	facet normal 1 0 0
		outer loop
			vertex 0.055555567145347595 0.03569760173559189 -0.036741629242897034
			vertex 0.055555567145347595 0.06308258324861526 -0.022643277421593666
			vertex 0.055555567145347595 0.03761886805295944 -0.013503163121640682
		endloop
	endfacet
	facet normal 1 0 0
		outer loop
			vertex 0.055555567145347595 0.08030412346124649 0.036741629242897034
			vertex 0.055555567145347595 0.07343841344118118 0.036741629242897034
			vertex 0.055555567145347595 0.06816709786653519 0.0323670394718647
		endloop
	endfacet
	facet normal 1 0 0
		outer loop
			vertex 0.055555567145347595 0.08030412346124649 0.036741629242897034
			vertex 0.055555567145347595 0.06816709786653519 0.0323670394718647
			vertex 0.055555567145347595 0.06626234203577042 0.011759095825254917
		endloop
	endfacet
	facet normal 1 0 0
		outer loop
			vertex 0.055555567145347595 0.08030412346124649 0.036741629242897034
			vertex 0.055555567145347595 0.06626234203577042 0.011759095825254917
			vertex 0.055555567145347595 0.07301396876573563 0.009983415715396404
		endloop
	endfacet
	facet normal 1 0 0
		outer loop
			vertex 0.055555567145347595 0.06626234203577042 0.011759095825254917
			vertex 0.055555567145347595 0.06308258324861526 -0.022643277421593666
			vertex 0.055555567145347595 0.06403208523988724 -0.02298409678041935
		endloop
	endfacet
	facet normal 1 0 0
		outer loop
			vertex 0.055555567145347595 0.06626234203577042 0.011759095825254917
			vertex 0.055555567145347595 0.06403208523988724 -0.02298409678041935
			vertex 0.055555567145347595 0.07301396876573563 0.009983415715396404
		endloop
	endfacet
	facet normal 1 0 0
		outer loop
			vertex 0.055555567145347595 0.06254739314317703 -0.028433557599782944
			vertex 0.055555567145347595 0.06403208523988724 -0.02298409678041935
			vertex 0.055555567145347595 0.06308258324861526 -0.022643277421593666
		endloop
	endfacet
	facet normal 1 0 0
		outer loop
			vertex 0.055555567145347595 0.06407729536294937 -0.022818101570010185
			vertex 0.055555567145347595 0.06403208523988724 -0.02298409678041935
			vertex 0.055555567145347595 0.06408051401376724 -0.02300148457288742
		endloop
	endfacet
	facet normal 1 0 0
		outer loop
			vertex 0.055555567145347595 0.060283906757831573 -0.036741629242897034
			vertex 0.055555567145347595 0.06432143598794937 -0.036741629242897034
			vertex 0.055555567145347595 0.06408051401376724 -0.02300148457288742
		endloop
	endfacet
	facet normal 1 0 0
		outer loop
			vertex 0.055555567145347595 0.060283906757831573 -0.036741629242897034
			vertex 0.055555567145347595 0.06408051401376724 -0.02300148457288742
			vertex 0.055555567145347595 0.06403208523988724 -0.02298409678041935
		endloop
	endfacet
	facet normal 1 0 0
		outer loop
			vertex 0.055555567145347595 0.10202724486589432 0.036741629242897034
			vertex 0.055555567145347595 0.08030412346124649 0.036741629242897034
			vertex 0.055555567145347595 0.06407729536294937 -0.022818101570010185
		endloop
	endfacet
	facet normal 1 0 0
		outer loop
			vertex 0.055555567145347595 0.10202724486589432 0.036741629242897034
			vertex 0.055555567145347595 0.06407729536294937 -0.022818101570010185
			vertex 0.055555567145347595 0.06408051401376724 -0.02300148457288742
		endloop
	endfacet
	facet normal 1 0 0
		outer loop
			vertex 0.055555567145347595 0.10202724486589432 0.036741629242897034
			vertex 0.055555567145347595 0.06408051401376724 -0.02300148457288742
			vertex 0.055555567145347595 0.10202724486589432 -0.03662233054637909
		endloop
	endfacet
	facet normal 1 0 0
		outer loop
			vertex 0.055555567145347595 0.06432143598794937 -0.036741629242897034
			vertex 0.055555567145347595 0.10202724486589432 -0.036741629242897034
			vertex 0.055555567145347595 0.10202724486589432 -0.03662233054637909
		endloop
	endfacet
	facet normal 1 0 0
		outer loop
			vertex 0.055555567145347595 0.06432143598794937 -0.036741629242897034
			vertex 0.055555567145347595 0.10202724486589432 -0.03662233054637909
			vertex 0.055555567145347595 0.06408051401376724 -0.02300148457288742
		endloop
	endfacet
	facet normal -1 0 0
		outer loop
			vertex -0.0555555522441864 0.004798182751983404 -0.036741629242897034
			vertex -0.0555555522441864 -0.008928081952035427 -0.036741629242897034
			vertex -0.0555555522441864 0.009673499502241611 -0.02256087213754654
		endloop
	endfacet
	facet normal -1 0 0
		outer loop
			vertex -0.0555555522441864 0.039727889001369476 0.003066512057557702
			vertex -0.0555555522441864 0.03753548115491867 -0.0013205253053456545
			vertex -0.0555555522441864 0.02686888910830021 -0.009452104568481445
		endloop
	endfacet
	facet normal -1 0 0
		outer loop
			vertex -0.0555555522441864 0.014181085862219334 -0.036741629242897034
			vertex -0.0555555522441864 0.004798182751983404 -0.036741629242897034
			vertex -0.0555555522441864 0.009673499502241611 -0.02256087213754654
		endloop
	endfacet
	facet normal -1 0 0
		outer loop
			vertex -0.0555555522441864 0.014181085862219334 -0.036741629242897034
			vertex -0.0555555522441864 0.009673499502241611 -0.02256087213754654
			vertex -0.0555555522441864 0.03753548115491867 -0.0013205253053456545
		endloop
	endfacet
	facet normal -1 0 0
		outer loop
			vertex -0.0555555522441864 0.014181085862219334 -0.036741629242897034
			vertex -0.0555555522441864 0.03753548115491867 -0.0013205253053456545
			vertex -0.0555555522441864 0.032887913286685944 -0.010620390065014362
		endloop
	endfacet
	facet normal -1 0 0
		outer loop
			vertex -0.0555555522441864 0.049258120357990265 0.012344499118626118
			vertex -0.0555555522441864 0.049239106476306915 0.012211564928293228
			vertex -0.0555555522441864 0.032887913286685944 -0.010620390065014362
		endloop
	endfacet
	facet normal -1 0 0
		outer loop
			vertex -0.0555555522441864 0.049258120357990265 0.012344499118626118
			vertex -0.0555555522441864 0.032887913286685944 -0.010620390065014362
			vertex -0.0555555522441864 0.039727889001369476 0.003066512057557702
		endloop
	endfacet
	facet normal -1 0 0
		outer loop
			vertex -0.0555555522441864 0.04995254427194595 0.017194662243127823
			vertex -0.0555555522441864 0.04979974776506424 0.01485790591686964
			vertex -0.0555555522441864 0.04946959763765335 0.012533423490822315
		endloop
	endfacet
	facet normal -1 0 0
		outer loop
			vertex -0.0555555522441864 0.04995254427194595 0.017194662243127823
			vertex -0.0555555522441864 0.04946959763765335 0.012533423490822315
			vertex -0.0555555522441864 0.049239106476306915 0.012211564928293228
		endloop
	endfacet
	facet normal -1 0 0
		outer loop
			vertex -0.0555555522441864 0.04979974776506424 0.01485790591686964
			vertex -0.0555555522441864 0.049665667116642 0.012807165272533894
			vertex -0.0555555522441864 0.04946959763765335 0.012533423490822315
		endloop
	endfacet
	facet normal -1 0 0
		outer loop
			vertex -0.0555555522441864 0.019833916798233986 -0.036741629242897034
			vertex -0.0555555522441864 0.014181085862219334 -0.036741629242897034
			vertex -0.0555555522441864 0.032887913286685944 -0.010620390065014362
		endloop
	endfacet
	facet normal -1 0 0
		outer loop
			vertex -0.0555555522441864 0.04409841448068619 -0.036741629242897034
			vertex -0.0555555522441864 0.019833916798233986 -0.036741629242897034
			vertex -0.0555555522441864 0.032887913286685944 -0.010620390065014362
		endloop
	endfacet
	facet normal -1 0 0
		outer loop
			vertex -0.0555555522441864 0.04409841448068619 -0.036741629242897034
			vertex -0.0555555522441864 0.032887913286685944 -0.010620390065014362
			vertex -0.0555555522441864 0.04632372409105301 0.008140687830746174
		endloop
	endfacet
	facet normal -1 0 0
		outer loop
			vertex -0.0555555522441864 0.046425558626651764 -0.036741629242897034
			vertex -0.0555555522441864 0.04409841448068619 -0.036741629242897034
			vertex -0.0555555522441864 0.04632372409105301 0.008140687830746174
		endloop
	endfacet
	facet normal -1 0 0
		outer loop
			vertex -0.0555555522441864 0.046425558626651764 -0.036741629242897034
			vertex -0.0555555522441864 0.04632372409105301 0.008140687830746174
			vertex -0.0555555522441864 0.049665667116642 0.012807165272533894
		endloop
	endfacet
	facet normal -1 0 0
		outer loop
			vertex -0.0555555522441864 0.04979974776506424 0.01485790591686964
			vertex -0.0555555522441864 0.04995254427194595 0.017194662243127823
			vertex -0.0555555522441864 0.050063587725162506 0.01797015406191349
		endloop
	endfacet
	facet normal -1 0 0
		outer loop
			vertex -0.0555555522441864 0.04979974776506424 0.01485790591686964
			vertex -0.0555555522441864 0.050063587725162506 0.01797015406191349
			vertex -0.0555555522441864 0.05025134235620499 0.018037552013993263
		endloop
	endfacet
	facet normal -1 0 0
		outer loop
			vertex -0.0555555522441864 0.05167827755212784 0.029248103499412537
			vertex -0.0555555522441864 0.05144805461168289 0.026463402435183525
			vertex -0.0555555522441864 0.05025134235620499 0.018037552013993263
		endloop
	endfacet
	facet normal -1 0 0
		outer loop
			vertex -0.0555555522441864 0.05167827755212784 0.029248103499412537
			vertex -0.0555555522441864 0.05025134235620499 0.018037552013993263
			vertex -0.0555555522441864 0.050063587725162506 0.01797015406191349
		endloop
	endfacet
	facet normal -1 0 0
		outer loop
			vertex -0.0555555522441864 0.049665667116642 0.012807165272533894
			vertex -0.0555555522441864 0.04979974776506424 0.01485790591686964
			vertex -0.0555555522441864 0.05025134235620499 0.018037552013993263
		endloop
	endfacet
	facet normal -1 0 0
		outer loop
			vertex -0.0555555522441864 0.049665667116642 0.012807165272533894
			vertex -0.0555555522441864 0.05025134235620499 0.018037552013993263
			vertex -0.0555555522441864 0.05076674371957779 0.018222548067569733
		endloop
	endfacet
	facet normal -1 0 0
		outer loop
			vertex -0.0555555522441864 0.049665667116642 0.012807165272533894
			vertex -0.0555555522441864 0.05076674371957779 0.018222548067569733
			vertex -0.0555555522441864 0.05040428787469864 0.013838564045727253
		endloop
	endfacet
	facet normal -1 0 0
		outer loop
			vertex -0.0555555522441864 0.05144805461168289 0.026463402435183525
			vertex -0.0555555522441864 0.05076674371957779 0.018222548067569733
			vertex -0.0555555522441864 0.05025134235620499 0.018037552013993263
		endloop
	endfacet
	facet normal -1 0 0
		outer loop
			vertex -0.0555555522441864 0.047193743288517 -0.024994302541017532
			vertex -0.0555555522441864 0.049665667116642 0.012807165272533894
			vertex -0.0555555522441864 0.05040428787469864 0.013838564045727253
		endloop
	endfacet
	facet normal -1 0 0
		outer loop
			vertex -0.0555555522441864 0.08746723085641861 0.031396061182022095
			vertex -0.0555555522441864 0.10202724486589432 0.03662233054637909
			vertex -0.0555555522441864 0.10202724486589432 0.03119450993835926
		endloop
	endfacet
	facet normal -1 0 0
		outer loop
			vertex -0.0555555522441864 0.08746723085641861 0.031396061182022095
			vertex -0.0555555522441864 0.10202724486589432 0.03119450993835926
			vertex -0.0555555522441864 0.10110495239496231 0.027809327468276024
		endloop
	endfacet
	facet normal -1 0 0
		outer loop
			vertex -0.0555555522441864 0.06714192777872086 0.036741629242897034
			vertex -0.0555555522441864 0.10202724486589432 0.036741629242897034
			vertex -0.0555555522441864 0.10202724486589432 0.03662233054637909
		endloop
	endfacet
	facet normal -1 0 0
		outer loop
			vertex -0.0555555522441864 0.06714192777872086 0.036741629242897034
			vertex -0.0555555522441864 0.10202724486589432 0.03662233054637909
			vertex -0.0555555522441864 0.08746723085641861 0.031396061182022095
		endloop
	endfacet
	facet normal -1 0 0
		outer loop
			vertex -0.0555555522441864 0.08351827412843704 -0.036741629242897034
			vertex -0.0555555522441864 0.046425558626651764 -0.036741629242897034
			vertex -0.0555555522441864 0.047193743288517 -0.024994302541017532
		endloop
	endfacet
	facet normal -1 0 0
		outer loop
			vertex -0.0555555522441864 0.08351827412843704 -0.036741629242897034
			vertex -0.0555555522441864 0.047193743288517 -0.024994302541017532
			vertex -0.0555555522441864 0.05076674371957779 0.018222548067569733
		endloop
	endfacet
	facet normal -1 0 0
		outer loop
			vertex -0.0555555522441864 0.08351827412843704 -0.036741629242897034
			vertex -0.0555555522441864 0.05076674371957779 0.018222548067569733
			vertex -0.0555555522441864 0.08746723085641861 0.031396061182022095
		endloop
	endfacet
	facet normal -1 0 0
		outer loop
			vertex -0.0555555522441864 0.08351827412843704 -0.036741629242897034
			vertex -0.0555555522441864 0.08746723085641861 0.031396061182022095
			vertex -0.0555555522441864 0.10110495239496231 0.027809327468276024
		endloop
	endfacet
	facet normal -1 0 0
		outer loop
			vertex -0.0555555522441864 0.052297838032245636 0.036741629242897034
			vertex -0.0555555522441864 0.06714192777872086 0.036741629242897034
			vertex -0.0555555522441864 0.08746723085641861 0.031396061182022095
		endloop
	endfacet
	facet normal -1 0 0
		outer loop
			vertex -0.0555555522441864 0.052297838032245636 0.036741629242897034
			vertex -0.0555555522441864 0.08746723085641861 0.031396061182022095
			vertex -0.0555555522441864 0.05076674371957779 0.018222548067569733
		endloop
	endfacet
	facet normal -1 0 0
		outer loop
			vertex -0.0555555522441864 0.10202724486589432 -0.036741629242897034
			vertex -0.0555555522441864 0.08351827412843704 -0.036741629242897034
			vertex -0.0555555522441864 0.10202724486589432 0.03119450993835926
		endloop
	endfacet
	facet normal 0 0 1
		outer loop
			vertex 0.055555567145347595 0.06857142597436905 0.036741629242897034
			vertex 0.055555567145347595 0.07343841344118118 0.036741629242897034
			vertex 0.04227910935878754 0.06646911054849625 0.036741629242897034
		endloop
	endfacet
	facet normal 0 0 1
		outer loop
			vertex -0.009688002988696098 0.04610411077737808 0.036741629242897034
			vertex -0.014492316171526909 0.046641089022159576 0.036741629242897034
			vertex -0.015483004972338676 0.04611022025346756 0.036741629242897034
		endloop
	endfacet
	facet normal 0 0 1
		outer loop
			vertex -0.009688002988696098 0.04610411077737808 0.036741629242897034
			vertex -0.015483004972338676 0.04611022025346756 0.036741629242897034
			vertex -0.011048315092921257 0.045357950031757355 0.036741629242897034
		endloop
	endfacet
	facet normal 0 0 1
		outer loop
			vertex -0.014492316171526909 0.046641089022159576 0.036741629242897034
			vertex -0.026571480557322502 0.04799119383096695 0.036741629242897034
			vertex -0.015483004972338676 0.04611022025346756 0.036741629242897034
		endloop
	endfacet
	facet normal 0 0 1
		outer loop
			vertex -0.02755035273730755 0.0481572225689888 0.036741629242897034
			vertex -0.04741184413433075 0.05152640491724014 0.036741629242897034
			vertex -0.04901514947414398 0.05167827755212784 0.036741629242897034
		endloop
	endfacet
	facet normal 0 0 1
		outer loop
			vertex -0.014492316171526909 0.046641089022159576 0.036741629242897034
			vertex -0.009688002988696098 0.04610411077737808 0.036741629242897034
			vertex -0.006813628599047661 0.047680772840976715 0.036741629242897034
		endloop
	endfacet
	facet normal 0 0 1
		outer loop
			vertex -0.014492316171526909 0.046641089022159576 0.036741629242897034
			vertex -0.006813628599047661 0.047680772840976715 0.036741629242897034
			vertex -0.0116900485008955 0.04814270883798599 0.036741629242897034
		endloop
	endfacet
	facet normal 0 0 1
		outer loop
			vertex -0.026571480557322502 0.04799119383096695 0.036741629242897034
			vertex -0.014492316171526909 0.046641089022159576 0.036741629242897034
			vertex -0.0116900485008955 0.04814270883798599 0.036741629242897034
		endloop
	endfacet
	facet normal 0 0 1
		outer loop
			vertex -0.026571480557322502 0.04799119383096695 0.036741629242897034
			vertex -0.0116900485008955 0.04814270883798599 0.036741629242897034
			vertex -0.04741184413433075 0.05152640491724014 0.036741629242897034
		endloop
	endfacet
	facet normal 0 0 1
		outer loop
			vertex -0.013320116326212883 0.04829711467027664 0.036741629242897034
			vertex -0.006813628599047661 0.047680772840976715 0.036741629242897034
			vertex -0.00316250161267817 0.04968351870775223 0.036741629242897034
		endloop
	endfacet
	facet normal 0 0 1
		outer loop
			vertex 0.02579309232532978 0.0581231489777565 0.036741629242897034
			vertex 0.0267180223017931 0.06400502473115921 0.036741629242897034
			vertex 0.004817770794034004 0.06053713709115982 0.036741629242897034
		endloop
	endfacet
	facet normal 0 0 1
		outer loop
			vertex 0.02579309232532978 0.0581231489777565 0.036741629242897034
			vertex 0.004817770794034004 0.06053713709115982 0.036741629242897034
			vertex 0.004554273560643196 0.0521966889500618 0.036741629242897034
		endloop
	endfacet
	facet normal 0 0 1
		outer loop
			vertex 0.004554273560643196 0.0521966889500618 0.036741629242897034
			vertex 0.004609556868672371 0.053946711122989655 0.036741629242897034
			vertex -0.001827089348807931 0.05041602998971939 0.036741629242897034
		endloop
	endfacet
	facet normal 0 0 1
		outer loop
			vertex -0.010746313259005547 0.048648394644260406 0.036741629242897034
			vertex -0.00316250161267817 0.04968351870775223 0.036741629242897034
			vertex 0.004609556868672371 0.053946711122989655 0.036741629242897034
		endloop
	endfacet
	facet normal 0 0 1
		outer loop
			vertex -0.010746313259005547 0.048648394644260406 0.036741629242897034
			vertex 0.004609556868672371 0.053946711122989655 0.036741629242897034
			vertex 0.004703732207417488 0.056927360594272614 0.036741629242897034
		endloop
	endfacet
	facet normal 0 0 1
		outer loop
			vertex -0.05033661425113678 0.05180344730615616 0.036741629242897034
			vertex -0.013320116326212883 0.04829711467027664 0.036741629242897034
			vertex -0.010746313259005547 0.048648394644260406 0.036741629242897034
		endloop
	endfacet
	facet normal 0 0 1
		outer loop
			vertex -0.05033661425113678 0.05180344730615616 0.036741629242897034
			vertex -0.010746313259005547 0.048648394644260406 0.036741629242897034
			vertex 0.004703732207417488 0.056927360594272614 0.036741629242897034
		endloop
	endfacet
	facet normal 0 0 1
		outer loop
			vertex -0.05033661425113678 0.05180344730615616 0.036741629242897034
			vertex 0.004703732207417488 0.056927360594272614 0.036741629242897034
			vertex 0.004817770794034004 0.06053713709115982 0.036741629242897034
		endloop
	endfacet
	facet normal 0 0 1
		outer loop
			vertex -0.0555555522441864 0.10202724486589432 0.036741629242897034
			vertex -0.0555555522441864 0.06714192777872086 0.036741629242897034
			vertex -0.03972594439983368 0.05348367244005203 0.036741629242897034
		endloop
	endfacet
	facet normal 0 0 1
		outer loop
			vertex -0.0555555522441864 0.10202724486589432 0.036741629242897034
			vertex -0.03972594439983368 0.05348367244005203 0.036741629242897034
			vertex 0.03549279272556305 0.06539449840784073 0.036741629242897034
		endloop
	endfacet
	facet normal 0 0 1
		outer loop
			vertex -0.0555555522441864 0.10202724486589432 0.036741629242897034
			vertex 0.03549279272556305 0.06539449840784073 0.036741629242897034
			vertex 0.044805094599723816 0.08255214244127274 0.036741629242897034
		endloop
	endfacet
	facet normal 0 0 1
		outer loop
			vertex -0.0555555522441864 0.10202724486589432 0.036741629242897034
			vertex 0.044805094599723816 0.08255214244127274 0.036741629242897034
			vertex -0.048328280448913574 0.10202724486589432 0.036741629242897034
		endloop
	endfacet
	facet normal 0 0 1
		outer loop
			vertex 0.055555567145347595 0.07343841344118118 0.036741629242897034
			vertex 0.055555567145347595 0.08030412346124649 0.036741629242897034
			vertex 0.044805094599723816 0.08255214244127274 0.036741629242897034
		endloop
	endfacet
	facet normal 0 0 1
		outer loop
			vertex 0.055555567145347595 0.07343841344118118 0.036741629242897034
			vertex 0.044805094599723816 0.08255214244127274 0.036741629242897034
			vertex 0.03549279272556305 0.06539449840784073 0.036741629242897034
		endloop
	endfacet
	facet normal 0 0 1
		outer loop
			vertex 0.055555567145347595 0.07343841344118118 0.036741629242897034
			vertex 0.03549279272556305 0.06539449840784073 0.036741629242897034
			vertex 0.04227910935878754 0.06646911054849625 0.036741629242897034
		endloop
	endfacet
	facet normal 0 0 1
		outer loop
			vertex -0.0555555522441864 0.06714192777872086 0.036741629242897034
			vertex -0.0555555522441864 0.052297838032245636 0.036741629242897034
			vertex -0.05033661425113678 0.05180344730615616 0.036741629242897034
		endloop
	endfacet
	facet normal 0 0 1
		outer loop
			vertex -0.0555555522441864 0.06714192777872086 0.036741629242897034
			vertex -0.05033661425113678 0.05180344730615616 0.036741629242897034
			vertex -0.03972594439983368 0.05348367244005203 0.036741629242897034
		endloop
	endfacet
	facet normal 0 0 1
		outer loop
			vertex 0.044805094599723816 0.08255214244127274 0.036741629242897034
			vertex 0.055375173687934875 0.10202724486589432 0.036741629242897034
			vertex -0.048328280448913574 0.10202724486589432 0.036741629242897034
		endloop
	endfacet
	facet normal 0 0 1
		outer loop
			vertex 0.055555567145347595 0.08030412346124649 0.036741629242897034
			vertex 0.055555567145347595 0.10202724486589432 0.036741629242897034
			vertex 0.055375173687934875 0.10202724486589432 0.036741629242897034
		endloop
	endfacet
	facet normal 0 0 1
		outer loop
			vertex 0.055555567145347595 0.08030412346124649 0.036741629242897034
			vertex 0.055375173687934875 0.10202724486589432 0.036741629242897034
			vertex 0.044805094599723816 0.08255214244127274 0.036741629242897034
		endloop
	endfacet
	facet normal 0 0 -1
		outer loop
			vertex -0.0555555522441864 -0.008928081952035427 -0.036741629242897034
			vertex -0.0555555522441864 0.004798182751983404 -0.036741629242897034
			vertex -0.028356192633509636 0.010164164938032627 -0.036741629242897034
		endloop
	endfacet
	facet normal 0 0 -1
		outer loop
			vertex -0.0555555522441864 -0.008928081952035427 -0.036741629242897034
			vertex -0.028356192633509636 0.010164164938032627 -0.036741629242897034
			vertex -0.044533610343933105 -0.0034440667368471622 -0.036741629242897034
		endloop
	endfacet
	facet normal 0 0 -1
		outer loop
			vertex -0.012675611302256584 0.02335445024073124 -0.036741629242897034
			vertex -0.013365907594561577 0.024626338854432106 -0.036741629242897034
			vertex -0.010245053097605705 0.025398993864655495 -0.036741629242897034
		endloop
	endfacet
	facet normal 0 0 -1
		outer loop
			vertex -0.0555555522441864 0.004798182751983404 -0.036741629242897034
			vertex -0.0555555522441864 0.014181085862219334 -0.036741629242897034
			vertex -0.013365907594561577 0.024626338854432106 -0.036741629242897034
		endloop
	endfacet
	facet normal 0 0 -1
		outer loop
			vertex -0.0555555522441864 0.004798182751983404 -0.036741629242897034
			vertex -0.013365907594561577 0.024626338854432106 -0.036741629242897034
			vertex -0.012675611302256584 0.02335445024073124 -0.036741629242897034
		endloop
	endfacet
	facet normal 0 0 -1
		outer loop
			vertex -0.0555555522441864 0.004798182751983404 -0.036741629242897034
			vertex -0.012675611302256584 0.02335445024073124 -0.036741629242897034
			vertex -0.028356192633509636 0.010164164938032627 -0.036741629242897034
		endloop
	endfacet
	facet normal 0 0 -1
		outer loop
			vertex 0.055555567145347595 0.03400658816099167 -0.036741629242897034
			vertex 0.055555567145347595 0.02720613218843937 -0.036741629242897034
			vertex 0.05303086340427399 0.026811400428414345 -0.036741629242897034
		endloop
	endfacet
	facet normal 0 0 -1
		outer loop
			vertex 0.055555567145347595 0.03400658816099167 -0.036741629242897034
			vertex 0.05303086340427399 0.026811400428414345 -0.036741629242897034
			vertex 0.01799132116138935 0.032389722764492035 -0.036741629242897034
		endloop
	endfacet
	facet normal 0 0 -1
		outer loop
			vertex 0.055555567145347595 0.03400658816099167 -0.036741629242897034
			vertex 0.01799132116138935 0.032389722764492035 -0.036741629242897034
			vertex 0.034174636006355286 0.03639636188745499 -0.036741629242897034
		endloop
	endfacet
	facet normal 0 0 -1
		outer loop
			vertex -0.013365907594561577 0.024626338854432106 -0.036741629242897034
			vertex -0.015423266217112541 0.028416955843567848 -0.036741629242897034
			vertex -0.003668813267722726 0.030930841341614723 -0.036741629242897034
		endloop
	endfacet
	facet normal 0 0 -1
		outer loop
			vertex -0.013365907594561577 0.024626338854432106 -0.036741629242897034
			vertex -0.003668813267722726 0.030930841341614723 -0.036741629242897034
			vertex -0.010245053097605705 0.025398993864655495 -0.036741629242897034
		endloop
	endfacet
	facet normal 0 0 -1
		outer loop
			vertex -0.0555555522441864 0.014181085862219334 -0.036741629242897034
			vertex -0.0555555522441864 0.019833916798233986 -0.036741629242897034
			vertex -0.015423266217112541 0.028416955843567848 -0.036741629242897034
		endloop
	endfacet
	facet normal 0 0 -1
		outer loop
			vertex -0.0555555522441864 0.014181085862219334 -0.036741629242897034
			vertex -0.015423266217112541 0.028416955843567848 -0.036741629242897034
			vertex -0.013365907594561577 0.024626338854432106 -0.036741629242897034
		endloop
	endfacet
	facet normal 0 0 -1
		outer loop
			vertex -0.015423266217112541 0.028416955843567848 -0.036741629242897034
			vertex -0.020943699404597282 0.03858818858861923 -0.036741629242897034
			vertex 0.009484739974141121 0.0337439700961113 -0.036741629242897034
		endloop
	endfacet
	facet normal 0 0 -1
		outer loop
			vertex -0.0555555522441864 0.019833916798233986 -0.036741629242897034
			vertex -0.0555555522441864 0.04409841448068619 -0.036741629242897034
			vertex -0.020943699404597282 0.03858818858861923 -0.036741629242897034
		endloop
	endfacet
	facet normal 0 0 -1
		outer loop
			vertex -0.0555555522441864 0.019833916798233986 -0.036741629242897034
			vertex -0.020943699404597282 0.03858818858861923 -0.036741629242897034
			vertex -0.015423266217112541 0.028416955843567848 -0.036741629242897034
		endloop
	endfacet
	facet normal 0 0 -1
		outer loop
			vertex -0.020943699404597282 0.03858818858861923 -0.036741629242897034
			vertex -0.023236868903040886 0.04281327873468399 -0.036741629242897034
			vertex 0.034174636006355286 0.03639636188745499 -0.036741629242897034
		endloop
	endfacet
	facet normal 0 0 -1
		outer loop
			vertex -0.020943699404597282 0.03858818858861923 -0.036741629242897034
			vertex 0.034174636006355286 0.03639636188745499 -0.036741629242897034
			vertex 0.01799132116138935 0.032389722764492035 -0.036741629242897034
		endloop
	endfacet
	facet normal 0 0 -1
		outer loop
			vertex -0.0555555522441864 0.04409841448068619 -0.036741629242897034
			vertex -0.0555555522441864 0.046425558626651764 -0.036741629242897034
			vertex -0.023236868903040886 0.04281327873468399 -0.036741629242897034
		endloop
	endfacet
	facet normal 0 0 -1
		outer loop
			vertex -0.0555555522441864 0.04409841448068619 -0.036741629242897034
			vertex -0.023236868903040886 0.04281327873468399 -0.036741629242897034
			vertex -0.020943699404597282 0.03858818858861923 -0.036741629242897034
		endloop
	endfacet
	facet normal 0 0 -1
		outer loop
			vertex 0.055555567145347595 0.03569760173559189 -0.036741629242897034
			vertex 0.055555567145347595 0.03400658816099167 -0.036741629242897034
			vertex 0.034174636006355286 0.03639636188745499 -0.036741629242897034
		endloop
	endfacet
	facet normal 0 0 -1
		outer loop
			vertex 0.055555567145347595 0.03569760173559189 -0.036741629242897034
			vertex 0.034174636006355286 0.03639636188745499 -0.036741629242897034
			vertex 0.038049980998039246 0.037355802953243256 -0.036741629242897034
		endloop
	endfacet
	facet normal 0 0 -1
		outer loop
			vertex 0.034174636006355286 0.03639636188745499 -0.036741629242897034
			vertex -0.023236868903040886 0.04281327873468399 -0.036741629242897034
			vertex -0.02343590371310711 0.04317999631166458 -0.036741629242897034
		endloop
	endfacet
	facet normal 0 0 -1
		outer loop
			vertex 0.034174636006355286 0.03639636188745499 -0.036741629242897034
			vertex -0.02343590371310711 0.04317999631166458 -0.036741629242897034
			vertex 0.038049980998039246 0.037355802953243256 -0.036741629242897034
		endloop
	endfacet
	facet normal 0 0 -1
		outer loop
			vertex -0.02343590371310711 0.04317999631166458 -0.036741629242897034
			vertex -0.023236868903040886 0.04281327873468399 -0.036741629242897034
			vertex -0.04364436864852905 0.04509424418210983 -0.036741629242897034
		endloop
	endfacet
	facet normal 0 0 -1
		outer loop
			vertex 0.055555567145347595 0.060283906757831573 -0.036741629242897034
			vertex 0.055555567145347595 0.03569760173559189 -0.036741629242897034
			vertex -0.02343590371310711 0.04317999631166458 -0.036741629242897034
		endloop
	endfacet
	facet normal 0 0 -1
		outer loop
			vertex 0.055555567145347595 0.060283906757831573 -0.036741629242897034
			vertex -0.02343590371310711 0.04317999631166458 -0.036741629242897034
			vertex -0.026480255648493767 0.04878915101289749 -0.036741629242897034
		endloop
	endfacet
	facet normal 0 0 -1
		outer loop
			vertex 0.055555567145347595 0.060283906757831573 -0.036741629242897034
			vertex -0.026480255648493767 0.04878915101289749 -0.036741629242897034
			vertex 0.05148543417453766 0.06113497167825699 -0.036741629242897034
		endloop
	endfacet
	facet normal 0 0 -1
		outer loop
			vertex -0.026480255648493767 0.04878915101289749 -0.036741629242897034
			vertex -0.02343590371310711 0.04317999631166458 -0.036741629242897034
			vertex -0.04364436864852905 0.04509424418210983 -0.036741629242897034
		endloop
	endfacet
	facet normal 0 0 -1
		outer loop
			vertex -0.026480255648493767 0.04878915101289749 -0.036741629242897034
			vertex -0.04364436864852905 0.04509424418210983 -0.036741629242897034
			vertex -0.04726122319698334 0.045498497784137726 -0.036741629242897034
		endloop
	endfacet
	facet normal 0 0 -1
		outer loop
			vertex -0.026480255648493767 0.04878915101289749 -0.036741629242897034
			vertex -0.044020265340805054 0.08110613375902176 -0.036741629242897034
			vertex 0.05148543417453766 0.06113497167825699 -0.036741629242897034
		endloop
	endfacet
	facet normal 0 0 -1
		outer loop
			vertex -0.0555555522441864 0.046425558626651764 -0.036741629242897034
			vertex -0.0555555522441864 0.08351827412843704 -0.036741629242897034
			vertex -0.044020265340805054 0.08110613375902176 -0.036741629242897034
		endloop
	endfacet
	facet normal 0 0 -1
		outer loop
			vertex -0.0555555522441864 0.046425558626651764 -0.036741629242897034
			vertex -0.044020265340805054 0.08110613375902176 -0.036741629242897034
			vertex -0.026480255648493767 0.04878915101289749 -0.036741629242897034
		endloop
	endfacet
	facet normal 0 0 -1
		outer loop
			vertex -0.0555555522441864 0.046425558626651764 -0.036741629242897034
			vertex -0.026480255648493767 0.04878915101289749 -0.036741629242897034
			vertex -0.04726122319698334 0.045498497784137726 -0.036741629242897034
		endloop
	endfacet
	facet normal 0 0 -1
		outer loop
			vertex 0.055555567145347595 0.06432143598794937 -0.036741629242897034
			vertex 0.055555567145347595 0.060283906757831573 -0.036741629242897034
			vertex 0.04609455168247223 0.06226227432489395 -0.036741629242897034
		endloop
	endfacet
	facet normal 0 0 -1
		outer loop
			vertex 0.055555567145347595 0.10202724486589432 -0.036741629242897034
			vertex 0.055555567145347595 0.06432143598794937 -0.036741629242897034
			vertex 0.04609455168247223 0.06226227432489395 -0.036741629242897034
		endloop
	endfacet
	facet normal 0 0 -1
		outer loop
			vertex 0.055555567145347595 0.10202724486589432 -0.036741629242897034
			vertex 0.04609455168247223 0.06226227432489395 -0.036741629242897034
			vertex -0.044020265340805054 0.08110613375902176 -0.036741629242897034
		endloop
	endfacet
	facet normal 0 0 -1
		outer loop
			vertex 0.055555567145347595 0.10202724486589432 -0.036741629242897034
			vertex -0.044020265340805054 0.08110613375902176 -0.036741629242897034
			vertex -0.055375173687934875 0.10202724486589432 -0.036741629242897034
		endloop
	endfacet
	facet normal 0 0 -1
		outer loop
			vertex -0.0555555522441864 0.08351827412843704 -0.036741629242897034
			vertex -0.0555555522441864 0.10202724486589432 -0.036741629242897034
			vertex -0.055375173687934875 0.10202724486589432 -0.036741629242897034
		endloop
	endfacet
	facet normal 0 0 -1
		outer loop
			vertex -0.0555555522441864 0.08351827412843704 -0.036741629242897034
			vertex -0.055375173687934875 0.10202724486589432 -0.036741629242897034
			vertex -0.044020265340805054 0.08110613375902176 -0.036741629242897034
		endloop
	endfacet
endsolid exported
