solid exported
	facet normal 0 1 0
		outer loop
			vertex 0.049301695078611374 0.10202724486589432 0.03674162179231644
			vertex -0.055555541068315506 0.10202724486589432 0.0210346058011055
			vertex -0.055555541068315506 0.10202724486589432 0.03674162179231644
		endloop
	endfacet
	facet normal 0 1 0
		outer loop
			vertex 0.0555555634200573 0.10202724486589432 0.03674162179231644
			vertex 0.0555555634200573 0.10202724486589432 0.029058344662189484
			vertex 0.03904948756098747 0.10202724486589432 0.00862229522317648
		endloop
	endfacet
	facet normal 0 1 0
		outer loop
			vertex 0.0555555634200573 0.10202724486589432 0.03674162179231644
			vertex 0.03904948756098747 0.10202724486589432 0.00862229522317648
			vertex -0.055555541068315506 0.10202724486589432 0.00862229522317648
		endloop
	endfacet
	facet normal 0 1 0
		outer loop
			vertex 0.0555555634200573 0.10202724486589432 0.03674162179231644
			vertex -0.055555541068315506 0.10202724486589432 0.00862229522317648
			vertex -0.055555541068315506 0.10202724486589432 0.0210346058011055
		endloop
	endfacet
	facet normal 0 1 0
		outer loop
			vertex 0.0555555634200573 0.10202724486589432 0.03674162179231644
			vertex -0.055555541068315506 0.10202724486589432 0.0210346058011055
			vertex 0.049301695078611374 0.10202724486589432 0.03674162179231644
		endloop
	endfacet
	facet normal 0.1819285711538929 -0.8038303787154443 -0.5663556455550598
		outer loop
			vertex -0.055555541068315506 0.05831442028284073 -0.002460711169987917
			vertex -0.0282908882945776 0.05913678556680679 0.005130238365381956
			vertex -0.055555541068315506 0.039949171245098114 0.023605145514011383
		endloop
	endfacet
	facet normal 0.3924388194195993 -0.8632699462262319 -0.3174220738309009
		outer loop
			vertex -0.02462189458310604 0.05855260044336319 0.011255151592195034
			vertex -0.050758082419633865 0.03729989379644394 0.03674162179231644
			vertex -0.055555541068315506 0.035118989646434784 0.03674162179231644
		endloop
	endfacet
	facet normal 0.39244238021659966 -0.8632699240957566 -0.31741773164339165
		outer loop
			vertex -0.02462189458310604 0.05855260044336319 0.011255151592195034
			vertex -0.055555541068315506 0.035118989646434784 0.03674162179231644
			vertex -0.055555541068315506 0.039949171245098114 0.023605145514011383
		endloop
	endfacet
	facet normal 0.39244103953474446 -0.8632695217018451 -0.3174204835695975
		outer loop
			vertex -0.02462189458310604 0.05855260044336319 0.011255151592195034
			vertex -0.055555541068315506 0.039949171245098114 0.023605145514011383
			vertex -0.0282908882945776 0.05913678556680679 0.005130238365381956
		endloop
	endfacet
	facet normal 0.0555570520306709 -0.7941141080155233 -0.6052240885989019
		outer loop
			vertex -0.0168487336486578 0.05907852202653885 0.011278635822236538
			vertex -0.03593190386891365 0.03833714872598648 0.03674162179231644
			vertex -0.050758082419633865 0.03729989379644394 0.03674162179231644
		endloop
	endfacet
	facet normal 0.05555719406803161 -0.7941141892713697 -0.6052239689446894
		outer loop
			vertex -0.0168487336486578 0.05907852202653885 0.011278635822236538
			vertex -0.050758082419633865 0.03729989379644394 0.03674162179231644
			vertex -0.02462189458310604 0.05855260044336319 0.011255151592195034
		endloop
	endfacet
	facet normal 0.2835384732072826 -0.8365064094279512 -0.46889546937162857
		outer loop
			vertex 0.020318875089287758 0.05740366131067276 0.03674162179231644
			vertex -0.03593190386891365 0.03833714872598648 0.03674162179231644
			vertex -0.0168487336486578 0.05907852202653885 0.011278635822236538
		endloop
	endfacet
	facet normal 0.28353821083481767 -0.8365067022387928 -0.4688951056538873
		outer loop
			vertex 0.020318875089287758 0.05740366131067276 0.03674162179231644
			vertex -0.0168487336486578 0.05907852202653885 0.011278635822236538
			vertex 0.01967928744852543 0.05839047580957413 0.03459439426660538
		endloop
	endfacet
	facet normal 0.6458444376058721 -0.6022947578444595 -0.46917585944572954
		outer loop
			vertex 0.021053770557045937 0.0581916943192482 0.03674162179231644
			vertex 0.020318875089287758 0.05740366131067276 0.03674162179231644
			vertex 0.01967928744852543 0.05839047580957413 0.03459439426660538
		endloop
	endfacet
	facet normal 0.7399433428022348 -0.308709037371075 -0.5976475380088826
		outer loop
			vertex 0.0555555634200573 0.10002157837152481 0.030094362795352936
			vertex 0.02475903369486332 0.09222332388162613 -0.004006498027592897
			vertex 0.03904948756098747 0.10202724486589432 0.00862229522317648
		endloop
	endfacet
	facet normal 0.7399424506260075 -0.3087119727433677 -0.5976471263600928
		outer loop
			vertex 0.0555555634200573 0.10002157837152481 0.030094362795352936
			vertex 0.03904948756098747 0.10202724486589432 0.00862229522317648
			vertex 0.0555555634200573 0.10202724486589432 0.029058344662189484
		endloop
	endfacet
	facet normal -0.004806096708567176 0.7913721598108958 -0.6113157990029916
		outer loop
			vertex -0.029411783441901207 0.07892987877130508 -0.0207894966006279
			vertex 0.02475903369486332 0.09222332388162613 -0.004006498027592897
			vertex 0.00432036304846406 0.08208704739809036 -0.016967616975307465
		endloop
	endfacet
	facet normal 0.0024489434476690688 0.7908606305971335 -0.6119913934423381
		outer loop
			vertex -0.055555541068315506 0.08446947485208511 -0.013735436834394932
			vertex -0.029411783441901207 0.07892987877130508 -0.0207894966006279
			vertex -0.055555541068315506 0.07828507572412491 -0.02172737568616867
		endloop
	endfacet
	facet normal -0.000766391312377631 0.7850913402710407 -0.6193795282989076
		outer loop
			vertex -0.055555541068315506 0.08854565769433975 -0.008568727411329746
			vertex -0.027484944090247154 0.09536222368478775 0.00003684255716507323
			vertex 0.02475903369486332 0.09222332388162613 -0.004006498027592897
		endloop
	endfacet
	facet normal -0.0007663626631564671 0.7850910970714549 -0.6193798366006179
		outer loop
			vertex -0.055555541068315506 0.08854565769433975 -0.008568727411329746
			vertex 0.02475903369486332 0.09222332388162613 -0.004006498027592897
			vertex -0.029411783441901207 0.07892987877130508 -0.0207894966006279
		endloop
	endfacet
	facet normal -0.0007680998880890285 0.7850892869974866 -0.6193821287899256
		outer loop
			vertex -0.055555541068315506 0.08854565769433975 -0.008568727411329746
			vertex -0.029411783441901207 0.07892987877130508 -0.0207894966006279
			vertex -0.055555541068315506 0.08446947485208511 -0.013735436834394932
		endloop
	endfacet
	facet normal -1.055677351319305e-7 0.7899117659925394 -0.613220516573391
		outer loop
			vertex 0.02475903369486332 0.09222332388162613 -0.004006498027592897
			vertex -0.027484944090247154 0.09536222368478775 0.00003684255716507323
			vertex 0.00029511252068914473 0.10202724486589432 0.00862229522317648
		endloop
	endfacet
	facet normal 0 0.7899118650508024 -0.6132203889728091
		outer loop
			vertex 0.02475903369486332 0.09222332388162613 -0.004006498027592897
			vertex 0.00029511252068914473 0.10202724486589432 0.00862229522317648
			vertex 0.0327518992125988 0.10202724486589432 0.00862229522317648
		endloop
	endfacet
	facet normal 0.16533834566096647 -0.8326923681400654 -0.5284757813707119
		outer loop
			vertex -0.055555541068315506 0.07607508450746536 -0.024470649659633636
			vertex -0.029411783441901207 0.07892987877130508 -0.0207894966006279
			vertex -0.055555541068315506 0.07600850611925125 -0.02436574548482895
		endloop
	endfacet
	facet normal 0.0032990251267585352 0.7787314168825834 -0.6273487840055619
		outer loop
			vertex -0.055555541068315506 0.07828507572412491 -0.02172737568616867
			vertex -0.029411783441901207 0.07892987877130508 -0.0207894966006279
			vertex -0.055555541068315506 0.07607508450746536 -0.024470649659633636
		endloop
	endfacet
	facet normal 0 0.7899118650508025 -0.6132203889728091
		outer loop
			vertex 0.03904948756098747 0.10202724486589432 0.00862229522317648
			vertex 0.02475903369486332 0.09222332388162613 -0.004006498027592897
			vertex 0.0327518992125988 0.10202724486589432 0.00862229522317648
		endloop
	endfacet
	facet normal 0.13364603848732753 -0.7219406463789793 -0.6789259455217082
		outer loop
			vertex -0.055555541068315506 0.07017583400011063 -0.016088269650936127
			vertex 0.00432036304846406 0.08208704739809036 -0.016967616975307465
			vertex -0.055555541068315506 0.06116510182619095 -0.006506644655019045
		endloop
	endfacet
	facet normal 0.14278902748791344 -0.7642107366770416 -0.6289620366735893
		outer loop
			vertex -0.055555541068315506 0.07017583400011063 -0.016088269650936127
			vertex -0.055555541068315506 0.07270515710115433 -0.019161485135555267
			vertex -0.029411783441901207 0.07892987877130508 -0.0207894966006279
		endloop
	endfacet
	facet normal 0.14278846161422742 -0.7642097557610671 -0.6289633569846916
		outer loop
			vertex -0.055555541068315506 0.07017583400011063 -0.016088269650936127
			vertex -0.029411783441901207 0.07892987877130508 -0.0207894966006279
			vertex 0.00432036304846406 0.08208704739809036 -0.016967616975307465
		endloop
	endfacet
	facet normal 0.1653413991570604 -0.8326616860428951 -0.5285231672509625
		outer loop
			vertex -0.055555541068315506 0.07600850611925125 -0.02436574548482895
			vertex -0.029411783441901207 0.07892987877130508 -0.0207894966006279
			vertex -0.055555541068315506 0.07270515710115433 -0.019161485135555267
		endloop
	endfacet
	facet normal 0.18192556736442347 -0.8038276730488761 -0.566360450578924
		outer loop
			vertex -0.055555541068315506 0.05831442028284073 -0.002460711169987917
			vertex -0.055555541068315506 0.06116510182619095 -0.006506644655019045
			vertex 0.00432036304846406 0.08208704739809036 -0.016967616975307465
		endloop
	endfacet
	facet normal 0.18192832690554134 -0.8038311077432377 -0.5663546893013512
		outer loop
			vertex -0.055555541068315506 0.05831442028284073 -0.002460711169987917
			vertex 0.00432036304846406 0.08208704739809036 -0.016967616975307465
			vertex -0.0282908882945776 0.05913678556680679 0.005130238365381956
		endloop
	endfacet
	facet normal 0.39244030344193837 -0.863270001628617 -0.3174200884041957
		outer loop
			vertex 0.00432036304846406 0.08208704739809036 -0.016967616975307465
			vertex -0.02462189458310604 0.05855260044336319 0.011255151592195034
			vertex -0.0282908882945776 0.05913678556680679 0.005130238365381956
		endloop
	endfacet
	facet normal 0.05555720311620288 -0.7941143313664437 -0.6052237816711524
		outer loop
			vertex 0.00432036304846406 0.08208704739809036 -0.016967616975307465
			vertex -0.0168487336486578 0.05907852202653885 0.011278635822236538
			vertex -0.02462189458310604 0.05855260044336319 0.011255151592195034
		endloop
	endfacet
	facet normal 0.28353829987915785 -0.8365065956234743 -0.46889524201047544
		outer loop
			vertex -0.0168487336486578 0.05907852202653885 0.011278635822236538
			vertex 0.00432036304846406 0.08208704739809036 -0.016967616975307465
			vertex 0.01967928744852543 0.05839047580957413 0.03459439426660538
		endloop
	endfacet
	facet normal 0.6458426173325839 -0.6022974250437263 -0.46917494117087566
		outer loop
			vertex 0.040082287043333054 0.07859594374895096 0.03674162179231644
			vertex 0.021053770557045937 0.0581916943192482 0.03674162179231644
			vertex 0.01967928744852543 0.05839047580957413 0.03459439426660538
		endloop
	endfacet
	facet normal 0.6458415122154653 -0.6022959456380962 -0.469178361571751
		outer loop
			vertex 0.040082287043333054 0.07859594374895096 0.03674162179231644
			vertex 0.01967928744852543 0.05839047580957413 0.03459439426660538
			vertex 0.00432036304846406 0.08208704739809036 -0.016967616975307465
		endloop
	endfacet
	facet normal 0.6458411531941884 -0.6022962298242304 -0.4691784909608696
		outer loop
			vertex 0.0555555634200573 0.09935734421014786 0.03138921409845352
			vertex 0.0555555634200573 0.09518790990114212 0.03674162179231644
			vertex 0.040082287043333054 0.07859594374895096 0.03674162179231644
		endloop
	endfacet
	facet normal 0.6458412967414076 -0.6022962719313116 -0.4691782393089226
		outer loop
			vertex 0.0555555634200573 0.09935734421014786 0.03138921409845352
			vertex 0.040082287043333054 0.07859594374895096 0.03674162179231644
			vertex 0.00432036304846406 0.08208704739809036 -0.016967616975307465
		endloop
	endfacet
	facet normal 0.5899834511665557 -0.7184054370073507 -0.3685283644821357
		outer loop
			vertex 0.02475903369486332 0.09222332388162613 -0.004006498027592897
			vertex 0.0555555634200573 0.10002157837152481 0.030094362795352936
			vertex 0.0555555634200573 0.09935734421014786 0.03138921409845352
		endloop
	endfacet
	facet normal 0.5899843936194266 -0.7184041046260382 -0.36852945301831447
		outer loop
			vertex 0.02475903369486332 0.09222332388162613 -0.004006498027592897
			vertex 0.0555555634200573 0.09935734421014786 0.03138921409845352
			vertex 0.00432036304846406 0.08208704739809036 -0.016967616975307465
		endloop
	endfacet
	facet normal 1 0 0
		outer loop
			vertex 0.0555555634200573 0.10002157837152481 0.030094362795352936
			vertex 0.0555555634200573 0.10059792548418045 0.029796667397022247
			vertex 0.0555555634200573 0.09935734421014786 0.03138921409845352
		endloop
	endfacet
	facet normal 1 0 0
		outer loop
			vertex 0.0555555634200573 0.10202724486589432 0.03674162179231644
			vertex 0.0555555634200573 0.09518790990114212 0.03674162179231644
			vertex 0.0555555634200573 0.10059792548418045 0.029796667397022247
		endloop
	endfacet
	facet normal 1 0 0
		outer loop
			vertex 0.0555555634200573 0.10202724486589432 0.03674162179231644
			vertex 0.0555555634200573 0.10059792548418045 0.029796667397022247
			vertex 0.0555555634200573 0.10202724486589432 0.029058344662189484
		endloop
	endfacet
	facet normal -0.0007664886302666133 0.7850914943364666 -0.6193793328935941
		outer loop
			vertex -0.055555541068315506 0.09704873710870743 0.0022093127481639385
			vertex -0.027484944090247154 0.09536222368478775 0.00003684255716507323
			vertex -0.055555541068315506 0.08854565769433975 -0.008568727411329746
		endloop
	endfacet
	facet normal -3.4518926620811893e-7 0.7899110538410011 -0.6132214339206352
		outer loop
			vertex -0.027484944090247154 0.09536222368478775 0.00003684255716507323
			vertex -0.055555541068315506 0.09704873710870743 0.0022093127481639385
			vertex -0.055555541068315506 0.10202724486589432 0.00862229522317648
		endloop
	endfacet
	facet normal 0 0.7899116005312651 -0.6132207297100574
		outer loop
			vertex -0.027484944090247154 0.09536222368478775 0.00003684255716507323
			vertex -0.055555541068315506 0.10202724486589432 0.00862229522317648
			vertex 0.00029511252068914473 0.10202724486589432 0.00862229522317648
		endloop
	endfacet
	facet normal -1 0 0
		outer loop
			vertex -0.055555541068315506 0.04515964537858963 0.016209907829761505
			vertex -0.055555541068315506 0.05527801066637039 0.019841857254505157
			vertex -0.055555541068315506 0.05831442028284073 -0.002460711169987917
		endloop
	endfacet
	facet normal -1 0 0
		outer loop
			vertex -0.055555541068315506 0.035118989646434784 0.03674162179231644
			vertex -0.055555541068315506 0.05297718197107315 0.03674162179231644
			vertex -0.055555541068315506 0.05527801066637039 0.019841857254505157
		endloop
	endfacet
	facet normal -1 0 0
		outer loop
			vertex -0.055555541068315506 0.035118989646434784 0.03674162179231644
			vertex -0.055555541068315506 0.05527801066637039 0.019841857254505157
			vertex -0.055555541068315506 0.04515964537858963 0.016209907829761505
		endloop
	endfacet
	facet normal -1 0 0
		outer loop
			vertex -0.055555541068315506 0.035118989646434784 0.03674162179231644
			vertex -0.055555541068315506 0.04515964537858963 0.016209907829761505
			vertex -0.055555541068315506 0.039949171245098114 0.023605145514011383
		endloop
	endfacet
	facet normal -1 0 0
		outer loop
			vertex -0.055555541068315506 0.08446947485208511 -0.013735436834394932
			vertex -0.055555541068315506 0.08849862962961197 -0.008528702892363071
			vertex -0.055555541068315506 0.08854565769433975 -0.008568727411329746
		endloop
	endfacet
	facet normal -1 0 0
		outer loop
			vertex -0.055555541068315506 0.07600850611925125 -0.02436574548482895
			vertex -0.055555541068315506 0.08834392577409744 -0.008396976627409458
			vertex -0.055555541068315506 0.08849862962961197 -0.008528702892363071
		endloop
	endfacet
	facet normal -1 0 0
		outer loop
			vertex -0.055555541068315506 0.07600850611925125 -0.02436574548482895
			vertex -0.055555541068315506 0.08849862962961197 -0.008528702892363071
			vertex -0.055555541068315506 0.07828507572412491 -0.02172737568616867
		endloop
	endfacet
	facet normal -1 0 0
		outer loop
			vertex -0.055555541068315506 0.07600850611925125 -0.02436574548482895
			vertex -0.055555541068315506 0.07828507572412491 -0.02172737568616867
			vertex -0.055555541068315506 0.07607508450746536 -0.024470649659633636
		endloop
	endfacet
	facet normal -1 0 0
		outer loop
			vertex -0.055555541068315506 0.07270515710115433 -0.019161485135555267
			vertex -0.055555541068315506 0.07648292928934097 -0.02375160902738571
			vertex -0.055555541068315506 0.07600850611925125 -0.02436574548482895
		endloop
	endfacet
	facet normal -1 0 0
		outer loop
			vertex -0.055555541068315506 0.07017583400011063 -0.016088269650936127
			vertex -0.055555541068315506 0.07688862830400467 -0.02322637289762497
			vertex -0.055555541068315506 0.07648292928934097 -0.02375160902738571
		endloop
	endfacet
	facet normal -1 0 0
		outer loop
			vertex -0.055555541068315506 0.05831442028284073 -0.002460711169987917
			vertex -0.055555541068315506 0.05643702298402786 0.011328822933137417
			vertex -0.055555541068315506 0.06470552831888199 0.011732584796845913
		endloop
	endfacet
	facet normal -1 0 0
		outer loop
			vertex -0.055555541068315506 0.05831442028284073 -0.002460711169987917
			vertex -0.055555541068315506 0.06470552831888199 0.011732584796845913
			vertex -0.055555541068315506 0.08834392577409744 -0.008396976627409458
		endloop
	endfacet
	facet normal -1 0 0
		outer loop
			vertex -0.055555541068315506 0.05831442028284073 -0.002460711169987917
			vertex -0.055555541068315506 0.08834392577409744 -0.008396976627409458
			vertex -0.055555541068315506 0.07688862830400467 -0.02322637289762497
		endloop
	endfacet
	facet normal -1 0 0
		outer loop
			vertex -0.055555541068315506 0.05831442028284073 -0.002460711169987917
			vertex -0.055555541068315506 0.07688862830400467 -0.02322637289762497
			vertex -0.055555541068315506 0.06116510182619095 -0.006506644655019045
		endloop
	endfacet
	facet normal -1 0 0
		outer loop
			vertex -0.055555541068315506 0.10202724486589432 0.008953905664384365
			vertex -0.055555541068315506 0.10202724486589432 0.00862229522317648
			vertex -0.055555541068315506 0.09704873710870743 0.0022093127481639385
		endloop
	endfacet
	facet normal -1 0 0
		outer loop
			vertex -0.055555541068315506 0.10202724486589432 0.008953905664384365
			vertex -0.055555541068315506 0.09704873710870743 0.0022093127481639385
			vertex -0.055555541068315506 0.08854565769433975 -0.008568727411329746
		endloop
	endfacet
	facet normal -1 0 0
		outer loop
			vertex -0.055555541068315506 0.10202724486589432 0.008953905664384365
			vertex -0.055555541068315506 0.08854565769433975 -0.008568727411329746
			vertex -0.055555541068315506 0.08849862962961197 -0.008528702892363071
		endloop
	endfacet
	facet normal -1 0 0
		outer loop
			vertex -0.055555541068315506 0.06470552831888199 0.011732584796845913
			vertex -0.055555541068315506 0.10202724486589432 0.013555175624787807
			vertex -0.055555541068315506 0.10202724486589432 0.008953905664384365
		endloop
	endfacet
	facet normal -1 0 0
		outer loop
			vertex -0.055555541068315506 0.06470552831888199 0.011732584796845913
			vertex -0.055555541068315506 0.10202724486589432 0.008953905664384365
			vertex -0.055555541068315506 0.08849862962961197 -0.008528702892363071
		endloop
	endfacet
	facet normal -1 0 0
		outer loop
			vertex -0.055555541068315506 0.05643702298402786 0.011328822933137417
			vertex -0.055555541068315506 0.05527801066637039 0.019841857254505157
			vertex -0.055555541068315506 0.07834858447313309 0.02812296897172928
		endloop
	endfacet
	facet normal -1 0 0
		outer loop
			vertex -0.055555541068315506 0.05643702298402786 0.011328822933137417
			vertex -0.055555541068315506 0.07834858447313309 0.02812296897172928
			vertex -0.055555541068315506 0.10202724486589432 0.015719838440418243
		endloop
	endfacet
	facet normal -1 0 0
		outer loop
			vertex -0.055555541068315506 0.05643702298402786 0.011328822933137417
			vertex -0.055555541068315506 0.10202724486589432 0.015719838440418243
			vertex -0.055555541068315506 0.10202724486589432 0.013555175624787807
		endloop
	endfacet
	facet normal -1 0 0
		outer loop
			vertex -0.055555541068315506 0.05297718197107315 0.03674162179231644
			vertex -0.055555541068315506 0.06189475208520889 0.03674162179231644
			vertex -0.055555541068315506 0.07834858447313309 0.02812296897172928
		endloop
	endfacet
	facet normal -1 0 0
		outer loop
			vertex -0.055555541068315506 0.05297718197107315 0.03674162179231644
			vertex -0.055555541068315506 0.07834858447313309 0.02812296897172928
			vertex -0.055555541068315506 0.05527801066637039 0.019841857254505157
		endloop
	endfacet
	facet normal -1 0 0
		outer loop
			vertex -0.055555541068315506 0.06189475208520889 0.03674162179231644
			vertex -0.055555541068315506 0.06818649917840958 0.03674162179231644
			vertex -0.055555541068315506 0.0682448223233223 0.03341538459062576
		endloop
	endfacet
	facet normal -1 0 0
		outer loop
			vertex -0.055555541068315506 0.07834858447313309 0.02812296897172928
			vertex -0.055555541068315506 0.10202724486589432 0.03662235289812088
			vertex -0.055555541068315506 0.10202724486589432 0.015719838440418243
		endloop
	endfacet
	facet normal -1 0 0
		outer loop
			vertex -0.055555541068315506 0.06818649917840958 0.03674162179231644
			vertex -0.055555541068315506 0.10202724486589432 0.03674162179231644
			vertex -0.055555541068315506 0.10202724486589432 0.03662235289812088
		endloop
	endfacet
	facet normal -1 0 0
		outer loop
			vertex -0.055555541068315506 0.06818649917840958 0.03674162179231644
			vertex -0.055555541068315506 0.10202724486589432 0.03662235289812088
			vertex -0.055555541068315506 0.07834858447313309 0.02812296897172928
		endloop
	endfacet
	facet normal -1 0 0
		outer loop
			vertex -0.055555541068315506 0.06818649917840958 0.03674162179231644
			vertex -0.055555541068315506 0.07834858447313309 0.02812296897172928
			vertex -0.055555541068315506 0.0682448223233223 0.03341538459062576
		endloop
	endfacet
	facet normal 0 0 1
		outer loop
			vertex 0.021053770557045937 0.0581916943192482 0.03674162179231644
			vertex -0.009354670532047749 0.05612189322710037 0.03674162179231644
			vertex -0.050758082419633865 0.03729989379644394 0.03674162179231644
		endloop
	endfacet
	facet normal 0 0 1
		outer loop
			vertex 0.021053770557045937 0.0581916943192482 0.03674162179231644
			vertex -0.050758082419633865 0.03729989379644394 0.03674162179231644
			vertex -0.03593190386891365 0.03833714872598648 0.03674162179231644
		endloop
	endfacet
	facet normal 0 0 1
		outer loop
			vertex 0.021053770557045937 0.0581916943192482 0.03674162179231644
			vertex -0.03593190386891365 0.03833714872598648 0.03674162179231644
			vertex 0.020318875089287758 0.05740366131067276 0.03674162179231644
		endloop
	endfacet
	facet normal 0 0 1
		outer loop
			vertex -0.055555541068315506 0.05297718197107315 0.03674162179231644
			vertex -0.055555541068315506 0.035118989646434784 0.03674162179231644
			vertex -0.009354670532047749 0.05612189322710037 0.03674162179231644
		endloop
	endfacet
	facet normal 0 0 1
		outer loop
			vertex 0.006261626724153757 0.0571848526597023 0.03674162179231644
			vertex 0.021053770557045937 0.0581916943192482 0.03674162179231644
			vertex 0.040082287043333054 0.07859594374895096 0.03674162179231644
		endloop
	endfacet
	facet normal 0 0 1
		outer loop
			vertex 0.006261626724153757 0.0571848526597023 0.03674162179231644
			vertex 0.040082287043333054 0.07859594374895096 0.03674162179231644
			vertex 0.005580405239015818 0.06291136890649796 0.03674162179231644
		endloop
	endfacet
	facet normal 0 0 1
		outer loop
			vertex 0.046243827790021896 0.08520293980836868 0.03674162179231644
			vertex 0.055375199764966965 0.10202724486589432 0.03674162179231644
			vertex 0.05507032200694084 0.10202724486589432 0.03674162179231644
		endloop
	endfacet
	facet normal 0 0 1
		outer loop
			vertex 0.046243827790021896 0.08520293980836868 0.03674162179231644
			vertex 0.05507032200694084 0.10202724486589432 0.03674162179231644
			vertex 0.004550198558717966 0.0715714767575264 0.03674162179231644
		endloop
	endfacet
	facet normal 0 0 1
		outer loop
			vertex 0.046243827790021896 0.08520293980836868 0.03674162179231644
			vertex 0.004550198558717966 0.0715714767575264 0.03674162179231644
			vertex 0.005580405239015818 0.06291136890649796 0.03674162179231644
		endloop
	endfacet
	facet normal 0 0 1
		outer loop
			vertex 0.046243827790021896 0.08520293980836868 0.03674162179231644
			vertex 0.005580405239015818 0.06291136890649796 0.03674162179231644
			vertex 0.040082287043333054 0.07859594374895096 0.03674162179231644
		endloop
	endfacet
	facet normal 0 0 1
		outer loop
			vertex 0.0555555634200573 0.09518790990114212 0.03674162179231644
			vertex 0.0555555634200573 0.10202724486589432 0.03674162179231644
			vertex 0.055375199764966965 0.10202724486589432 0.03674162179231644
		endloop
	endfacet
	facet normal 0 0 1
		outer loop
			vertex 0.0555555634200573 0.09518790990114212 0.03674162179231644
			vertex 0.055375199764966965 0.10202724486589432 0.03674162179231644
			vertex 0.046243827790021896 0.08520293980836868 0.03674162179231644
		endloop
	endfacet
	facet normal 0 0 1
		outer loop
			vertex 0.05507032200694084 0.10202724486589432 0.03674162179231644
			vertex 0.0009271602029912174 0.10202724486589432 0.03674162179231644
			vertex 0.004550198558717966 0.0715714767575264 0.03674162179231644
		endloop
	endfacet
	facet normal 0 0 1
		outer loop
			vertex -0.055555541068315506 0.06189475208520889 0.03674162179231644
			vertex -0.055555541068315506 0.05297718197107315 0.03674162179231644
			vertex 0.006261626724153757 0.0571848526597023 0.03674162179231644
		endloop
	endfacet
	facet normal 0 0 1
		outer loop
			vertex -0.055555541068315506 0.06189475208520889 0.03674162179231644
			vertex 0.006261626724153757 0.0571848526597023 0.03674162179231644
			vertex 0.0031106870155781507 0.08367232233285904 0.03674162179231644
		endloop
	endfacet
	facet normal 0 0 1
		outer loop
			vertex -0.055555541068315506 0.06818649917840958 0.03674162179231644
			vertex -0.055555541068315506 0.06189475208520889 0.03674162179231644
			vertex -0.01458453107625246 0.07710368186235428 0.03674162179231644
		endloop
	endfacet
	facet normal 0 0 1
		outer loop
			vertex -0.055555541068315506 0.10202724486589432 0.03674162179231644
			vertex -0.055555541068315506 0.06818649917840958 0.03674162179231644
			vertex -0.01458453107625246 0.07710368186235428 0.03674162179231644
		endloop
	endfacet
	facet normal 0 0 1
		outer loop
			vertex -0.055555541068315506 0.10202724486589432 0.03674162179231644
			vertex -0.01458453107625246 0.07710368186235428 0.03674162179231644
			vertex 0.0031106870155781507 0.08367232233285904 0.03674162179231644
		endloop
	endfacet
	facet normal 0 0 1
		outer loop
			vertex -0.055555541068315506 0.10202724486589432 0.03674162179231644
			vertex 0.0031106870155781507 0.08367232233285904 0.03674162179231644
			vertex 0.0009271602029912174 0.10202724486589432 0.03674162179231644
		endloop
	endfacet
endsolid exported
