solid exported
	facet normal -0.467213617463803 -0.647831074241952 0.6016862429064718
		outer loop
			vertex -0.29999998211860657 0.19934430718421936 -0.10057855397462845
			vertex -0.29999998211860657 0.21404261887073517 -0.08475299179553986
			vertex -0.32890191674232483 0.21351052820682526 -0.10776844620704651
		endloop
	endfacet
	facet normal -0.4520021889937081 -0.8897220974752317 0.06394224275993658
		outer loop
			vertex -0.29999998211860657 0.19684463739395142 -0.13536012172698975
			vertex -0.29999998211860657 0.19934430718421936 -0.10057855397462845
			vertex -0.32890191674232483 0.21351052820682526 -0.10776844620704651
		endloop
	endfacet
	facet normal -0.45200220774689165 -0.8897220896974968 0.06394221841831352
		outer loop
			vertex -0.29999998211860657 0.19684463739395142 -0.13536012172698975
			vertex -0.32890191674232483 0.21351052820682526 -0.10776844620704651
			vertex -0.30789491534233093 0.20092885196208954 -0.13433906435966492
		endloop
	endfacet
	facet normal -0.4424406662568591 -0.8874868060153369 0.12889307968577132
		outer loop
			vertex -0.30380675196647644 0.19781909883022308 -0.14171770215034485
			vertex -0.29999998211860657 0.19592130184173584 -0.14171770215034485
			vertex -0.29999998211860657 0.19684463739395142 -0.13536012172698975
		endloop
	endfacet
	facet normal -0.44244426926012276 -0.8874846484331472 0.12889556778403696
		outer loop
			vertex -0.30380675196647644 0.19781909883022308 -0.14171770215034485
			vertex -0.29999998211860657 0.19684463739395142 -0.13536012172698975
			vertex -0.30789491534233093 0.20092885196208954 -0.13433906435966492
		endloop
	endfacet
	facet normal 1 0 0
		outer loop
			vertex -0.29999998211860657 0.19592130184173584 -0.14171770215034485
			vertex -0.29999998211860657 0.19638773798942566 -0.14171770215034485
			vertex -0.29999998211860657 0.19684463739395142 -0.13536012172698975
		endloop
	endfacet
	facet normal 1 0 0
		outer loop
			vertex -0.29999998211860657 0.2049226611852646 -0.09457237273454666
			vertex -0.29999998211860657 0.21035125851631165 -0.09707769006490707
			vertex -0.29999998211860657 0.21404261887073517 -0.08475299179553986
		endloop
	endfacet
	facet normal 1 0 0
		outer loop
			vertex -0.29999998211860657 0.19638773798942566 -0.14171770215034485
			vertex -0.29999998211860657 0.19698123633861542 -0.14171770215034485
			vertex -0.29999998211860657 0.21035125851631165 -0.09707769006490707
		endloop
	endfacet
	facet normal 1 0 0
		outer loop
			vertex -0.29999998211860657 0.19638773798942566 -0.14171770215034485
			vertex -0.29999998211860657 0.21035125851631165 -0.09707769006490707
			vertex -0.29999998211860657 0.2049226611852646 -0.09457237273454666
		endloop
	endfacet
	facet normal 1 0 0
		outer loop
			vertex -0.29999998211860657 0.19638773798942566 -0.14171770215034485
			vertex -0.29999998211860657 0.2049226611852646 -0.09457237273454666
			vertex -0.29999998211860657 0.19934430718421936 -0.10057855397462845
		endloop
	endfacet
	facet normal -0.29685765711082696 -0.9544509828245767 0.029980873901046496
		outer loop
			vertex -0.42880862951278687 0.2585069537162781 -0.04723922908306122
			vertex -0.4087736904621124 0.2507477402687073 -0.09587903320789337
			vertex -0.3917572498321533 0.24698306620121002 -0.04723922908306122
		endloop
	endfacet
	facet normal -0.33939484789037067 -0.9395177896563489 0.04601586840124425
		outer loop
			vertex -0.3521103262901306 0.2308075875043869 -0.08507809787988663
			vertex -0.38554930686950684 0.24474048614501953 -0.04723922908306122
			vertex -0.3917572498321533 0.24698306620121002 -0.04723922908306122
		endloop
	endfacet
	facet normal -0.3393933738454299 -0.9395182371282266 0.04601760416716373
		outer loop
			vertex -0.3521103262901306 0.2308075875043869 -0.08507809787988663
			vertex -0.3917572498321533 0.24698306620121002 -0.04723922908306122
			vertex -0.4087736904621124 0.2507477402687073 -0.09587903320789337
		endloop
	endfacet
	facet normal -0.4672136847232623 -0.647831315354434 0.601685931074889
		outer loop
			vertex -0.3841986060142517 0.24061408638954163 -0.12152452021837234
			vertex -0.32890191674232483 0.21351052820682526 -0.10776844620704651
			vertex -0.3059989809989929 0.21393217146396637 -0.08953016251325607
		endloop
	endfacet
	facet normal -0.45200240297922323 -0.8897219247680143 0.06394313323655441
		outer loop
			vertex -0.32890191674232483 0.21351052820682526 -0.10776844620704651
			vertex -0.3841986060142517 0.24061408638954163 -0.12152452021837234
			vertex -0.3846489489078522 0.24063532054424286 -0.12441245466470718
		endloop
	endfacet
	facet normal -0.45200220930375523 -0.8897220890181476 0.06394221686575699
		outer loop
			vertex -0.32890191674232483 0.21351052820682526 -0.10776844620704651
			vertex -0.3846489489078522 0.24063532054424286 -0.12441245466470718
			vertex -0.30789491534233093 0.20092885196208954 -0.13433906435966492
		endloop
	endfacet
	facet normal -0.44244449805387687 -0.8874845582988652 0.1288954030325413
		outer loop
			vertex -0.39678144454956055 0.24417048692703247 -0.14171770215034485
			vertex -0.30380675196647644 0.19781909883022308 -0.14171770215034485
			vertex -0.30789491534233093 0.20092885196208954 -0.13433906435966492
		endloop
	endfacet
	facet normal -0.44244448821199817 -0.8874847069330659 0.12889441341948557
		outer loop
			vertex -0.39678144454956055 0.24417048692703247 -0.14171770215034485
			vertex -0.30789491534233093 0.20092885196208954 -0.13433906435966492
			vertex -0.3846489489078522 0.24063532054424286 -0.12441245466470718
		endloop
	endfacet
	facet normal 1 0 0
		outer loop
			vertex -0.29999998211860657 0.21159952878952026 -0.09290993213653564
			vertex -0.29999998211860657 0.21035125851631165 -0.09707769006490707
			vertex -0.29999998211860657 0.21137233078479767 -0.09754890948534012
		endloop
	endfacet
	facet normal 1 0 0
		outer loop
			vertex -0.29999998211860657 0.19698123633861542 -0.14171770215034485
			vertex -0.29999998211860657 0.20920895040035248 -0.14171770215034485
			vertex -0.29999998211860657 0.21137233078479767 -0.09754890948534012
		endloop
	endfacet
	facet normal 1 0 0
		outer loop
			vertex -0.29999998211860657 0.19698123633861542 -0.14171770215034485
			vertex -0.29999998211860657 0.21137233078479767 -0.09754890948534012
			vertex -0.29999998211860657 0.21035125851631165 -0.09707769006490707
		endloop
	endfacet
	facet normal -0.23176277914432358 -0.8814683749851431 -0.411460226637218
		outer loop
			vertex -0.3521103262901306 0.2308075875043869 -0.08507809787988663
			vertex -0.4087736904621124 0.2507477402687073 -0.09587903320789337
			vertex -0.35951343178749084 0.23557597398757935 -0.09112343937158585
		endloop
	endfacet
	facet normal -0.712472719191745 -0.30487558993045616 0.6320075150439886
		outer loop
			vertex -0.39232274889945984 0.24475780129432678 -0.12368076294660568
			vertex -0.39199069142341614 0.24443335831165314 -0.12346293777227402
			vertex -0.3521103262901306 0.2308075875043869 -0.08507809787988663
		endloop
	endfacet
	facet normal -0.7124717740667562 -0.30489252801538375 0.6320004094291061
		outer loop
			vertex -0.39232274889945984 0.24475780129432678 -0.12368076294660568
			vertex -0.3521103262901306 0.2308075875043869 -0.08507809787988663
			vertex -0.35951343178749084 0.23557597398757935 -0.09112343937158585
		endloop
	endfacet
	facet normal -0.7557484460431527 -0.4616650781475522 0.4644455209412342
		outer loop
			vertex -0.3981580138206482 0.2463233470916748 -0.13161976635456085
			vertex -0.39199069142341614 0.24443335831165314 -0.12346293777227402
			vertex -0.39232274889945984 0.24475780129432678 -0.12368076294660568
		endloop
	endfacet
	facet normal -0.442444034061959 -0.8874849594249362 0.12889423384116003
		outer loop
			vertex -0.40153035521507263 0.2471977174282074 -0.13717526197433472
			vertex -0.404287725687027 0.24791264533996582 -0.14171770215034485
			vertex -0.39678144454956055 0.24417048692703247 -0.14171770215034485
		endloop
	endfacet
	facet normal -0.44244667915654423 -0.887484123289192 0.12889091128919888
		outer loop
			vertex -0.40153035521507263 0.2471977174282074 -0.13717526197433472
			vertex -0.39678144454956055 0.24417048692703247 -0.14171770215034485
			vertex -0.39476943016052246 0.24358421564102173 -0.13884781301021576
		endloop
	endfacet
	facet normal -0.46721343211417277 -0.6478336611733713 0.6016836014906847
		outer loop
			vertex -0.38915640115737915 0.24382850527763367 -0.12191332876682281
			vertex -0.39199069142341614 0.24443335831165314 -0.12346293777227402
			vertex -0.3841986060142517 0.24061408638954163 -0.12152452021837234
		endloop
	endfacet
	facet normal -0.4672134985061906 -0.6478337860765082 0.6016834154531625
		outer loop
			vertex -0.38915640115737915 0.24382850527763367 -0.12191332876682281
			vertex -0.3841986060142517 0.24061408638954163 -0.12152452021837234
			vertex -0.3059989809989929 0.21393217146396637 -0.08953016251325607
		endloop
	endfacet
	facet normal -0.4672136934271436 -0.6478295388596427 0.601687837050966
		outer loop
			vertex -0.38915640115737915 0.24382850527763367 -0.12191332876682281
			vertex -0.3059989809989929 0.21393217146396637 -0.08953016251325607
			vertex -0.29999998211860657 0.21404261887073517 -0.08475299179553986
		endloop
	endfacet
	facet normal -0.46721327318305833 -0.6478343893474718 0.6016829408753096
		outer loop
			vertex -0.38915640115737915 0.24382850527763367 -0.12191332876682281
			vertex -0.29999998211860657 0.21404261887073517 -0.08475299179553986
			vertex -0.29999998211860657 0.21598054468631744 -0.08266641944646835
		endloop
	endfacet
	facet normal -0.4672133468755868 -0.6478337775211858 0.6016835424074216
		outer loop
			vertex -0.38915640115737915 0.24382850527763367 -0.12191332876682281
			vertex -0.29999998211860657 0.21598054468631744 -0.08266641944646835
			vertex -0.3116961121559143 0.22084859013557434 -0.086507149040699
		endloop
	endfacet
	facet normal -0.04271333702105812 -0.9546912666421841 -0.2945168182594467
		outer loop
			vertex -0.3521103262901306 0.2308075875043869 -0.08507809787988663
			vertex -0.39199069142341614 0.24443335831165314 -0.12346293777227402
			vertex -0.38915640115737915 0.24382850527763367 -0.12191332876682281
		endloop
	endfacet
	facet normal -0.04270929560990481 -0.9546902990659306 -0.2945205407741702
		outer loop
			vertex -0.3521103262901306 0.2308075875043869 -0.08507809787988663
			vertex -0.38915640115737915 0.24382850527763367 -0.12191332876682281
			vertex -0.34849628806114197 0.23218277096748352 -0.09005984663963318
		endloop
	endfacet
	facet normal -0.4520020996489055 -0.8897220823505598 0.06394308477673381
		outer loop
			vertex -0.3841986060142517 0.24061408638954163 -0.12152452021837234
			vertex -0.39199069142341614 0.24443335831165314 -0.12346293777227402
			vertex -0.3846489489078522 0.24063532054424286 -0.12441245466470718
		endloop
	endfacet
	facet normal -0.44245983832557295 -0.8874751901167762 0.128907247259803
		outer loop
			vertex -0.39199069142341614 0.24443335831165314 -0.12346293777227402
			vertex -0.3981580138206482 0.2463233470916748 -0.13161976635456085
			vertex -0.40153035521507263 0.2471977174282074 -0.13717526197433472
		endloop
	endfacet
	facet normal -0.4424455041232892 -0.8874840441006082 0.12889549002163847
		outer loop
			vertex -0.39199069142341614 0.24443335831165314 -0.12346293777227402
			vertex -0.40153035521507263 0.2471977174282074 -0.13717526197433472
			vertex -0.39476943016052246 0.24358421564102173 -0.13884781301021576
		endloop
	endfacet
	facet normal -0.4424442893013004 -0.8874846765333251 0.12889530551267958
		outer loop
			vertex -0.39199069142341614 0.24443335831165314 -0.12346293777227402
			vertex -0.39476943016052246 0.24358421564102173 -0.13884781301021576
			vertex -0.3846489489078522 0.24063532054424286 -0.12441245466470718
		endloop
	endfacet
	facet normal 1 0 0
		outer loop
			vertex -0.29999998211860657 0.21404261887073517 -0.08475299179553986
			vertex -0.29999998211860657 0.21159952878952026 -0.09290993213653564
			vertex -0.29999998211860657 0.21137233078479767 -0.09754890948534012
		endloop
	endfacet
	facet normal 1 0 0
		outer loop
			vertex -0.29999998211860657 0.21404261887073517 -0.08475299179553986
			vertex -0.29999998211860657 0.21137233078479767 -0.09754890948534012
			vertex -0.29999998211860657 0.2167854905128479 -0.10004710406064987
		endloop
	endfacet
	facet normal 1 0 0
		outer loop
			vertex -0.29999998211860657 0.21404261887073517 -0.08475299179553986
			vertex -0.29999998211860657 0.2167854905128479 -0.10004710406064987
			vertex -0.29999998211860657 0.21724629402160645 -0.0853780061006546
		endloop
	endfacet
	facet normal 1 0 0
		outer loop
			vertex -0.29999998211860657 0.21404261887073517 -0.08475299179553986
			vertex -0.29999998211860657 0.21724629402160645 -0.0853780061006546
			vertex -0.29999998211860657 0.21598054468631744 -0.08266641944646835
		endloop
	endfacet
	facet normal 1 0 0
		outer loop
			vertex -0.29999998211860657 0.20920895040035248 -0.14171770215034485
			vertex -0.29999998211860657 0.21547657251358032 -0.14171770215034485
			vertex -0.29999998211860657 0.2167854905128479 -0.10004710406064987
		endloop
	endfacet
	facet normal 1 0 0
		outer loop
			vertex -0.29999998211860657 0.20920895040035248 -0.14171770215034485
			vertex -0.29999998211860657 0.2167854905128479 -0.10004710406064987
			vertex -0.29999998211860657 0.21137233078479767 -0.09754890948534012
		endloop
	endfacet
	facet normal -0.18022754365082533 -0.9639649862380849 0.19567712645222185
		outer loop
			vertex -0.38303643465042114 0.2442706674337387 -0.04723922908306122
			vertex -0.38554930686950684 0.24474048614501953 -0.04723922908306122
			vertex -0.3521103262901306 0.2308075875043869 -0.08507809787988663
		endloop
	endfacet
	facet normal -0.18022804156254624 -0.9639649764594238 0.19567671602444678
		outer loop
			vertex -0.38303643465042114 0.2442706674337387 -0.04723922908306122
			vertex -0.3521103262901306 0.2308075875043869 -0.08507809787988663
			vertex -0.34456661343574524 0.23143187165260315 -0.07505454123020172
		endloop
	endfacet
	facet normal -0.467213116051459 -0.6478291536877131 0.6016887000947811
		outer loop
			vertex -0.29999998211860657 0.21598054468631744 -0.08266641944646835
			vertex -0.29999998211860657 0.21737875044345856 -0.08116099238395691
			vertex -0.3116961121559143 0.22084859013557434 -0.086507149040699
		endloop
	endfacet
	facet normal 1 0 0
		outer loop
			vertex -0.29999998211860657 0.21598054468631744 -0.08266641944646835
			vertex -0.29999998211860657 0.21724629402160645 -0.0853780061006546
			vertex -0.29999998211860657 0.21737875044345856 -0.08116099238395691
		endloop
	endfacet
	facet normal -0.15933570233793434 -0.9706080106121254 0.18036691408362393
		outer loop
			vertex -0.3521103262901306 0.2308075875043869 -0.08507809787988663
			vertex -0.3376903533935547 0.22908776998519897 -0.08159437775611877
			vertex -0.34456661343574524 0.23143187165260315 -0.07505454123020172
		endloop
	endfacet
	facet normal -0.04270924202606894 -0.9546903123260212 -0.2945205055618417
		outer loop
			vertex -0.3376903533935547 0.22908776998519897 -0.08159437775611877
			vertex -0.3521103262901306 0.2308075875043869 -0.08507809787988663
			vertex -0.34849628806114197 0.23218277096748352 -0.09005984663963318
		endloop
	endfacet
	facet normal -0.6372003045474759 -0.7575758096648904 -0.14161449253233258
		outer loop
			vertex -0.45568057894706726 0.2811090350151062 -0.04723922908306122
			vertex -0.47989365458488464 0.3067464232444763 -0.07544033974409103
			vertex -0.4087736904621124 0.2507477402687073 -0.09587903320789337
		endloop
	endfacet
	facet normal -0.637199845675771 -0.7575763402558142 -0.14161371881064527
		outer loop
			vertex -0.45568057894706726 0.2811090350151062 -0.04723922908306122
			vertex -0.4087736904621124 0.2507477402687073 -0.09587903320789337
			vertex -0.42880862951278687 0.2585069537162781 -0.04723922908306122
		endloop
	endfacet
	facet normal -0.7557429420562521 -0.46167331638255404 0.4644462880382344
		outer loop
			vertex -0.4160289168357849 0.26541879773139954 -0.14171770215034485
			vertex -0.40579310059547424 0.24866312742233276 -0.14171770215034485
			vertex -0.3981580138206482 0.2463233470916748 -0.13161976635456085
		endloop
	endfacet
	facet normal -0.7557447999318693 -0.4616803523969727 0.46443627074825455
		outer loop
			vertex -0.4160289168357849 0.26541879773139954 -0.14171770215034485
			vertex -0.3981580138206482 0.2463233470916748 -0.13161976635456085
			vertex -0.39552658796310425 0.2456173598766327 -0.1280396282672882
		endloop
	endfacet
	facet normal -0.41832578165616735 -0.7290269150113619 0.5417779043028363
		outer loop
			vertex -0.47989365458488464 0.3067464232444763 -0.07544033974409103
			vertex -0.4664340019226074 0.27234962582588196 -0.11133266985416412
			vertex -0.4087736904621124 0.2507477402687073 -0.09587903320789337
		endloop
	endfacet
	facet normal -0.5165472992576864 -0.7762769249554174 -0.36134889429933437
		outer loop
			vertex -0.4457337558269501 0.27271926403045654 -0.14171770215034485
			vertex -0.4664340019226074 0.27234962582588196 -0.11133266985416412
			vertex -0.4830186665058136 0.2975292503833771 -0.14171770215034485
		endloop
	endfacet
	facet normal -0.7001216032082319 -0.6886767299765035 -0.18855795477784845
		outer loop
			vertex -0.4830186665058136 0.2975292503833771 -0.14171770215034485
			vertex -0.4664340019226074 0.27234962582588196 -0.11133266985416412
			vertex -0.5 0.3067464232444763 -0.11232967674732208
		endloop
	endfacet
	facet normal -0.7001210701111025 -0.6886774151071798 -0.188557431855066
		outer loop
			vertex -0.4830186665058136 0.2975292503833771 -0.14171770215034485
			vertex -0.5 0.3067464232444763 -0.11232967674732208
			vertex -0.4922031760215759 0.3068663775920868 -0.14171770215034485
		endloop
	endfacet
	facet normal -0.2188216786209063 -0.8822627089076885 -0.4168088116107866
		outer loop
			vertex -0.43083980679512024 0.2778762876987457 -0.14171770215034485
			vertex -0.4087736904621124 0.2507477402687073 -0.09587903320789337
			vertex -0.4664340019226074 0.27234962582588196 -0.11133266985416412
		endloop
	endfacet
	facet normal -0.21882776208787277 -0.8822582190797935 -0.41681512137369037
		outer loop
			vertex -0.43083980679512024 0.2778762876987457 -0.14171770215034485
			vertex -0.4664340019226074 0.27234962582588196 -0.11133266985416412
			vertex -0.4340795576572418 0.27867984771728516 -0.14171770215034485
		endloop
	endfacet
	facet normal 0.43622276922194253 -0.8529075113709756 0.28680737901823466
		outer loop
			vertex -0.4340795576572418 0.27867984771728516 -0.14171770215034485
			vertex -0.4664340019226074 0.27234962582588196 -0.11133266985416412
			vertex -0.4457337558269501 0.27271926403045654 -0.14171770215034485
		endloop
	endfacet
	facet normal -0.6713425808722534 -0.6445212577459631 0.3659118574484075
		outer loop
			vertex -0.4664340019226074 0.27234962582588196 -0.11133266985416412
			vertex -0.47989365458488464 0.3067464232444763 -0.07544033974409103
			vertex -0.5 0.3067464232444763 -0.11232967674732208
		endloop
	endfacet
	facet normal 0.004913703581083668 0.9999867232671913 0.0015520330097263694
		outer loop
			vertex -0.48784124851226807 0.3068883419036865 -0.14171770215034485
			vertex -0.47989365458488464 0.3067464232444763 -0.07544033974409103
			vertex -0.46520036458969116 0.30677708983421326 -0.14171770215034485
		endloop
	endfacet
	facet normal -0.005035377204345391 0.9999835527576663 0.0027457586502800425
		outer loop
			vertex -0.48784124851226807 0.3068883419036865 -0.14171770215034485
			vertex -0.4922031760215759 0.3068663775920868 -0.14171770215034485
			vertex -0.5 0.3067464232444763 -0.11232967674732208
		endloop
	endfacet
	facet normal -0.005036682935218832 0.9999835476651233 0.0027452184037099116
		outer loop
			vertex -0.48784124851226807 0.3068883419036865 -0.14171770215034485
			vertex -0.5 0.3067464232444763 -0.11232967674732208
			vertex -0.47989365458488464 0.3067464232444763 -0.07544033974409103
		endloop
	endfacet
	facet normal -0.44244265247446 -0.8874856350484442 0.12889432436699477
		outer loop
			vertex -0.404287725687027 0.24791264533996582 -0.14171770215034485
			vertex -0.3981580138206482 0.2463233470916748 -0.13161976635456085
			vertex -0.40579310059547424 0.24866312742233276 -0.14171770215034485
		endloop
	endfacet
	facet normal -0.7704505388218654 -0.6314762534877914 0.08742830497110309
		outer loop
			vertex -0.45568057894706726 0.2811090350151062 -0.04723922908306122
			vertex -0.4766934812068939 0.3067464232444763 -0.04723922908306122
			vertex -0.47989365458488464 0.3067464232444763 -0.07544033974409103
		endloop
	endfacet
	facet normal -0.013766570395820223 0.9999040159489871 0.0015621871286019171
		outer loop
			vertex -0.46850037574768066 0.30685922503471375 -0.04723922908306122
			vertex -0.47989365458488464 0.3067464232444763 -0.07544033974409103
			vertex -0.4766934812068939 0.3067464232444763 -0.04723922908306122
		endloop
	endfacet
	facet normal 0 1 0
		outer loop
			vertex -0.47989365458488464 0.3067464232444763 -0.07544033974409103
			vertex -0.45561423897743225 0.3067464232444763 -0.04723922908306122
			vertex -0.4038788080215454 0.3067464232444763 -0.04723922908306122
		endloop
	endfacet
	facet normal 0 1 0
		outer loop
			vertex -0.47989365458488464 0.3067464232444763 -0.07544033974409103
			vertex -0.4038788080215454 0.3067464232444763 -0.04723922908306122
			vertex -0.4047524631023407 0.3067464232444763 -0.0516313835978508
		endloop
	endfacet
	facet normal 0 1 0
		outer loop
			vertex -0.47989365458488464 0.3067464232444763 -0.07544033974409103
			vertex -0.4047524631023407 0.3067464232444763 -0.0516313835978508
			vertex -0.4729144275188446 0.3067464232444763 -0.0975322350859642
		endloop
	endfacet
	facet normal 0 1 0
		outer loop
			vertex -0.3982301652431488 0.3067464232444763 -0.04723922908306122
			vertex -0.4047524631023407 0.3067464232444763 -0.0516313835978508
			vertex -0.4038788080215454 0.3067464232444763 -0.04723922908306122
		endloop
	endfacet
	facet normal 0.004911529283232407 0.9999867345580437 0.0015516404354954437
		outer loop
			vertex -0.47989365458488464 0.3067464232444763 -0.07544033974409103
			vertex -0.4729144275188446 0.3067464232444763 -0.0975322350859642
			vertex -0.4747256636619568 0.30675721168518066 -0.09875182062387466
		endloop
	endfacet
	facet normal 0.008753148261871548 0.999933293924928 -0.00753592037838797
		outer loop
			vertex -0.45561423897743225 0.3067464232444763 -0.04723922908306122
			vertex -0.47989365458488464 0.3067464232444763 -0.07544033974409103
			vertex -0.46850037574768066 0.30685922503471375 -0.04723922908306122
		endloop
	endfacet
	facet normal -0.23175726404468394 -0.8814692611935514 -0.41146143456394274
		outer loop
			vertex -0.4087736904621124 0.2507477402687073 -0.09587903320789337
			vertex -0.4261300563812256 0.2767081558704376 -0.14171770215034485
			vertex -0.42147111892700195 0.27548322081565857 -0.14171770215034485
		endloop
	endfacet
	facet normal -0.23176293223483072 -0.8814686561876326 -0.411459537987252
		outer loop
			vertex -0.4087736904621124 0.2507477402687073 -0.09587903320789337
			vertex -0.42147111892700195 0.27548322081565857 -0.14171770215034485
			vertex -0.35951343178749084 0.23557597398757935 -0.09112343937158585
		endloop
	endfacet
	facet normal -0.7124703434021256 -0.30489326897692376 0.6320016647960847
		outer loop
			vertex -0.42147111892700195 0.27548322081565857 -0.14171770215034485
			vertex -0.4198196232318878 0.27162402868270874 -0.14171770215034485
			vertex -0.39232274889945984 0.24475780129432678 -0.12368076294660568
		endloop
	endfacet
	facet normal -0.7124714674644688 -0.30489579444842724 0.6319991792531765
		outer loop
			vertex -0.42147111892700195 0.27548322081565857 -0.14171770215034485
			vertex -0.39232274889945984 0.24475780129432678 -0.12368076294660568
			vertex -0.35951343178749084 0.23557597398757935 -0.09112343937158585
		endloop
	endfacet
	facet normal -0.21882245258855595 -0.8822626964467615 -0.4168084316585007
		outer loop
			vertex -0.4261300563812256 0.2767081558704376 -0.14171770215034485
			vertex -0.4087736904621124 0.2507477402687073 -0.09587903320789337
			vertex -0.43083980679512024 0.2778762876987457 -0.14171770215034485
		endloop
	endfacet
	facet normal -0.7557441182899268 -0.46167565486250733 0.4644420495362757
		outer loop
			vertex -0.4198196232318878 0.27162402868270874 -0.14171770215034485
			vertex -0.4160289168357849 0.26541879773139954 -0.14171770215034485
			vertex -0.39552658796310425 0.2456173598766327 -0.1280396282672882
		endloop
	endfacet
	facet normal -0.7557439076267306 -0.4616748646679278 0.46444317781503763
		outer loop
			vertex -0.4198196232318878 0.27162402868270874 -0.14171770215034485
			vertex -0.39552658796310425 0.2456173598766327 -0.1280396282672882
			vertex -0.39232274889945984 0.24475780129432678 -0.12368076294660568
		endloop
	endfacet
	facet normal -0.46721367629470983 -0.6478314942005365 0.6016857450572369
		outer loop
			vertex -0.34349778294563293 0.23408478498458862 -0.09695006161928177
			vertex -0.38915640115737915 0.24382850527763367 -0.12191332876682281
			vertex -0.3116961121559143 0.22084859013557434 -0.086507149040699
		endloop
	endfacet
	facet normal -0.04270877197132202 -0.9546901348132887 -0.2945211491334476
		outer loop
			vertex -0.34849628806114197 0.23218277096748352 -0.09005984663963318
			vertex -0.38915640115737915 0.24382850527763367 -0.12191332876682281
			vertex -0.34349778294563293 0.23408478498458862 -0.09695006161928177
		endloop
	endfacet
	facet normal 1 0 0
		outer loop
			vertex -0.29999998211860657 0.21724629402160645 -0.0853780061006546
			vertex -0.29999998211860657 0.2167854905128479 -0.10004710406064987
			vertex -0.29999998211860657 0.22610026597976685 -0.10434590280056
		endloop
	endfacet
	facet normal 1 0 0
		outer loop
			vertex -0.29999998211860657 0.21547657251358032 -0.14171770215034485
			vertex -0.29999998211860657 0.24354496598243713 -0.14171770215034485
			vertex -0.29999998211860657 0.22610026597976685 -0.10434590280056
		endloop
	endfacet
	facet normal 1 0 0
		outer loop
			vertex -0.29999998211860657 0.21547657251358032 -0.14171770215034485
			vertex -0.29999998211860657 0.22610026597976685 -0.10434590280056
			vertex -0.29999998211860657 0.2167854905128479 -0.10004710406064987
		endloop
	endfacet
	facet normal 0 1 0
		outer loop
			vertex -0.4047524631023407 0.3067464232444763 -0.0516313835978508
			vertex -0.42267119884490967 0.3067464232444763 -0.14171770215034485
			vertex -0.45895546674728394 0.3067464232444763 -0.14171770215034485
		endloop
	endfacet
	facet normal 0 1 0
		outer loop
			vertex -0.4047524631023407 0.3067464232444763 -0.0516313835978508
			vertex -0.45895546674728394 0.3067464232444763 -0.14171770215034485
			vertex -0.4729144275188446 0.3067464232444763 -0.0975322350859642
		endloop
	endfacet
	facet normal 0 1 0
		outer loop
			vertex -0.42267119884490967 0.3067464232444763 -0.14171770215034485
			vertex -0.4047524631023407 0.3067464232444763 -0.0516313835978508
			vertex -0.3982301652431488 0.3067464232444763 -0.04723922908306122
		endloop
	endfacet
	facet normal 0 1 0
		outer loop
			vertex -0.42267119884490967 0.3067464232444763 -0.14171770215034485
			vertex -0.3982301652431488 0.3067464232444763 -0.04723922908306122
			vertex -0.3962414562702179 0.3067464232444763 -0.04723922908306122
		endloop
	endfacet
	facet normal 0 1 0
		outer loop
			vertex -0.42267119884490967 0.3067464232444763 -0.14171770215034485
			vertex -0.3962414562702179 0.3067464232444763 -0.04723922908306122
			vertex -0.40580031275749207 0.3067464232444763 -0.14171770215034485
		endloop
	endfacet
	facet normal 0 1 0
		outer loop
			vertex -0.29999998211860657 0.3067464232444763 -0.04723922908306122
			vertex -0.29999998211860657 0.3067464232444763 -0.14171770215034485
			vertex -0.326469361782074 0.3067464232444763 -0.14171770215034485
		endloop
	endfacet
	facet normal 0 1 0
		outer loop
			vertex -0.29999998211860657 0.3067464232444763 -0.04723922908306122
			vertex -0.326469361782074 0.3067464232444763 -0.14171770215034485
			vertex -0.36032870411872864 0.3067464232444763 -0.04723922908306122
		endloop
	endfacet
	facet normal 0 1 0
		outer loop
			vertex -0.40580031275749207 0.3067464232444763 -0.14171770215034485
			vertex -0.3962414562702179 0.3067464232444763 -0.04723922908306122
			vertex -0.36032870411872864 0.3067464232444763 -0.04723922908306122
		endloop
	endfacet
	facet normal 0 1 0
		outer loop
			vertex -0.40580031275749207 0.3067464232444763 -0.14171770215034485
			vertex -0.36032870411872864 0.3067464232444763 -0.04723922908306122
			vertex -0.326469361782074 0.3067464232444763 -0.14171770215034485
		endloop
	endfacet
	facet normal 0.004910598036880512 0.9999867395919242 0.001551343686417106
		outer loop
			vertex -0.4729144275188446 0.3067464232444763 -0.0975322350859642
			vertex -0.45895546674728394 0.3067464232444763 -0.14171770215034485
			vertex -0.46520036458969116 0.30677708983421326 -0.14171770215034485
		endloop
	endfacet
	facet normal 0.004911610122997403 0.9999867343472717 0.0015515203765299082
		outer loop
			vertex -0.4729144275188446 0.3067464232444763 -0.0975322350859642
			vertex -0.46520036458969116 0.30677708983421326 -0.14171770215034485
			vertex -0.4747256636619568 0.30675721168518066 -0.09875182062387466
		endloop
	endfacet
	facet normal -0.1802271771928744 -0.9639649404701985 0.19567768944203934
		outer loop
			vertex -0.38303643465042114 0.2442706674337387 -0.04723922908306122
			vertex -0.3565569519996643 0.23543348908424377 -0.06638503819704056
			vertex -0.33258360624313354 0.2324235886335373 -0.05913224443793297
		endloop
	endfacet
	facet normal -0.1802275042253687 -0.9639651238630044 0.1956764847815837
		outer loop
			vertex -0.38303643465042114 0.2442706674337387 -0.04723922908306122
			vertex -0.33258360624313354 0.2324235886335373 -0.05913224443793297
			vertex -0.32363295555114746 0.23316431045532227 -0.04723922908306122
		endloop
	endfacet
	facet normal -0.15933604959227185 -0.9706098826393496 0.18035653307589752
		outer loop
			vertex -0.29999998211860657 0.22907134890556335 -0.048387423157691956
			vertex -0.29999998211860657 0.22928470373153687 -0.04723922908306122
			vertex -0.32363295555114746 0.23316431045532227 -0.04723922908306122
		endloop
	endfacet
	facet normal -0.15933524582505834 -0.970608112754894 0.18036676770472757
		outer loop
			vertex -0.29999998211860657 0.22907134890556335 -0.048387423157691956
			vertex -0.32363295555114746 0.23316431045532227 -0.04723922908306122
			vertex -0.33258360624313354 0.2324235886335373 -0.05913224443793297
		endloop
	endfacet
	facet normal 1 0 0
		outer loop
			vertex -0.29999998211860657 0.230027437210083 -0.04723922908306122
			vertex -0.29999998211860657 0.22928470373153687 -0.04723922908306122
			vertex -0.29999998211860657 0.22907134890556335 -0.048387423157691956
		endloop
	endfacet
	facet normal -0.18022729682116875 -0.9639648283954304 0.19567813137165482
		outer loop
			vertex -0.3565569519996643 0.23543348908424377 -0.06638503819704056
			vertex -0.34456661343574524 0.23143187165260315 -0.07505454123020172
			vertex -0.33258360624313354 0.2324235886335373 -0.05913224443793297
		endloop
	endfacet
	facet normal -0.1593360644093236 -0.9706076094018222 0.18036875325240698
		outer loop
			vertex -0.3376903533935547 0.22908776998519897 -0.08159437775611877
			vertex -0.29999998211860657 0.22459258139133453 -0.07248874753713608
			vertex -0.29999998211860657 0.22907134890556335 -0.048387423157691956
		endloop
	endfacet
	facet normal -0.15933573981207777 -0.9706077311633805 0.18036838476965042
		outer loop
			vertex -0.3376903533935547 0.22908776998519897 -0.08159437775611877
			vertex -0.29999998211860657 0.22907134890556335 -0.048387423157691956
			vertex -0.33258360624313354 0.2324235886335373 -0.05913224443793297
		endloop
	endfacet
	facet normal -0.15933452080905666 -0.9706079760185956 0.18036814399342782
		outer loop
			vertex -0.3376903533935547 0.22908776998519897 -0.08159437775611877
			vertex -0.33258360624313354 0.2324235886335373 -0.05913224443793297
			vertex -0.34456661343574524 0.23143187165260315 -0.07505454123020172
		endloop
	endfacet
	facet normal -0.042708068507801164 -0.9546893220846098 -0.29452388558818365
		outer loop
			vertex -0.29999998211860657 0.22478990256786346 -0.0731283575296402
			vertex -0.29999998211860657 0.22459258139133453 -0.07248874753713608
			vertex -0.3376903533935547 0.22908776998519897 -0.08159437775611877
		endloop
	endfacet
	facet normal -0.04270881348788969 -0.9546901779042135 -0.29452100343384363
		outer loop
			vertex -0.29999998211860657 0.22478990256786346 -0.0731283575296402
			vertex -0.3376903533935547 0.22908776998519897 -0.08159437775611877
			vertex -0.34849628806114197 0.23218277096748352 -0.09005984663963318
		endloop
	endfacet
	facet normal -0.04270835583032676 -0.9546898395559098 -0.294522166552845
		outer loop
			vertex -0.29999998211860657 0.22478990256786346 -0.0731283575296402
			vertex -0.34849628806114197 0.23218277096748352 -0.09005984663963318
			vertex -0.3439267873764038 0.23392154276371002 -0.09635867178440094
		endloop
	endfacet
	facet normal 1 0 0
		outer loop
			vertex -0.29999998211860657 0.24942608177661896 -0.04723922908306122
			vertex -0.29999998211860657 0.230027437210083 -0.04723922908306122
			vertex -0.29999998211860657 0.22907134890556335 -0.048387423157691956
		endloop
	endfacet
	facet normal 1 0 0
		outer loop
			vertex -0.29999998211860657 0.24942608177661896 -0.04723922908306122
			vertex -0.29999998211860657 0.22907134890556335 -0.048387423157691956
			vertex -0.29999998211860657 0.22459258139133453 -0.07248874753713608
		endloop
	endfacet
	facet normal 1 0 0
		outer loop
			vertex -0.29999998211860657 0.24942608177661896 -0.04723922908306122
			vertex -0.29999998211860657 0.22459258139133453 -0.07248874753713608
			vertex -0.29999998211860657 0.22478990256786346 -0.0731283575296402
		endloop
	endfacet
	facet normal -0.4672136537235045 -0.647831042062165 0.6016862493982913
		outer loop
			vertex -0.29999998211860657 0.2248021960258484 -0.07316820323467255
			vertex -0.34349778294563293 0.23408478498458862 -0.09695006161928177
			vertex -0.3116961121559143 0.22084859013557434 -0.086507149040699
		endloop
	endfacet
	facet normal -0.4672126732990271 -0.6478322225985205 0.6016857396281199
		outer loop
			vertex -0.29999998211860657 0.2248021960258484 -0.07316820323467255
			vertex -0.3116961121559143 0.22084859013557434 -0.086507149040699
			vertex -0.29999998211860657 0.21737875044345856 -0.08116099238395691
		endloop
	endfacet
	facet normal -0.04269484567960871 -0.95468334942794 -0.2945451620336763
		outer loop
			vertex -0.29999998211860657 0.2248021960258484 -0.07316820323467255
			vertex -0.29999998211860657 0.22478990256786346 -0.0731283575296402
			vertex -0.3439267873764038 0.23392154276371002 -0.09635867178440094
		endloop
	endfacet
	facet normal -0.04271470695843874 -0.9546929076962751 -0.2945112999595879
		outer loop
			vertex -0.29999998211860657 0.2248021960258484 -0.07316820323467255
			vertex -0.3439267873764038 0.23392154276371002 -0.09635867178440094
			vertex -0.34349778294563293 0.23408478498458862 -0.09695006161928177
		endloop
	endfacet
	facet normal 1 0 0
		outer loop
			vertex -0.29999998211860657 0.22684450447559357 -0.07096926867961884
			vertex -0.29999998211860657 0.22478990256786346 -0.0731283575296402
			vertex -0.29999998211860657 0.2248021960258484 -0.07316820323467255
		endloop
	endfacet
	facet normal 1 0 0
		outer loop
			vertex -0.29999998211860657 0.22406001389026642 -0.07396730780601501
			vertex -0.29999998211860657 0.21737875044345856 -0.08116099238395691
			vertex -0.29999998211860657 0.21724629402160645 -0.0853780061006546
		endloop
	endfacet
	facet normal 1 0 0
		outer loop
			vertex -0.29999998211860657 0.22406001389026642 -0.07396730780601501
			vertex -0.29999998211860657 0.21724629402160645 -0.0853780061006546
			vertex -0.29999998211860657 0.2215430736541748 -0.09458301961421967
		endloop
	endfacet
	facet normal 1 0 0
		outer loop
			vertex -0.29999998211860657 0.22628827393054962 -0.07156814634799957
			vertex -0.29999998211860657 0.22406001389026642 -0.07396730780601501
			vertex -0.29999998211860657 0.2215430736541748 -0.09458301961421967
		endloop
	endfacet
	facet normal 1 0 0
		outer loop
			vertex -0.29999998211860657 0.22628827393054962 -0.07156814634799957
			vertex -0.29999998211860657 0.2215430736541748 -0.09458301961421967
			vertex -0.29999998211860657 0.22361193597316742 -0.09901516884565353
		endloop
	endfacet
	facet normal 1 0 0
		outer loop
			vertex -0.29999998211860657 0.3067464232444763 -0.04723922908306122
			vertex -0.29999998211860657 0.24942608177661896 -0.04723922908306122
			vertex -0.29999998211860657 0.22684450447559357 -0.07096926867961884
		endloop
	endfacet
	facet normal 1 0 0
		outer loop
			vertex -0.29999998211860657 0.3067464232444763 -0.04723922908306122
			vertex -0.29999998211860657 0.22684450447559357 -0.07096926867961884
			vertex -0.29999998211860657 0.22628827393054962 -0.07156814634799957
		endloop
	endfacet
	facet normal 1 0 0
		outer loop
			vertex -0.29999998211860657 0.3067464232444763 -0.04723922908306122
			vertex -0.29999998211860657 0.22628827393054962 -0.07156814634799957
			vertex -0.29999998211860657 0.22361193597316742 -0.09901516884565353
		endloop
	endfacet
	facet normal 1 0 0
		outer loop
			vertex -0.29999998211860657 0.3067464232444763 -0.04723922908306122
			vertex -0.29999998211860657 0.22361193597316742 -0.09901516884565353
			vertex -0.29999998211860657 0.22610026597976685 -0.10434590280056
		endloop
	endfacet
	facet normal 1 0 0
		outer loop
			vertex -0.29999998211860657 0.3067464232444763 -0.04723922908306122
			vertex -0.29999998211860657 0.22610026597976685 -0.10434590280056
			vertex -0.29999998211860657 0.3067464232444763 -0.14156432449817657
		endloop
	endfacet
	facet normal 1 0 0
		outer loop
			vertex -0.29999998211860657 0.24354496598243713 -0.14171770215034485
			vertex -0.29999998211860657 0.3067464232444763 -0.14171770215034485
			vertex -0.29999998211860657 0.3067464232444763 -0.14156432449817657
		endloop
	endfacet
	facet normal 1 0 0
		outer loop
			vertex -0.29999998211860657 0.24354496598243713 -0.14171770215034485
			vertex -0.29999998211860657 0.3067464232444763 -0.14156432449817657
			vertex -0.29999998211860657 0.22610026597976685 -0.10434590280056
		endloop
	endfacet
	facet normal 0 0 1
		outer loop
			vertex -0.38303643465042114 0.2442706674337387 -0.04723922908306122
			vertex -0.3917572498321533 0.24698306620121002 -0.04723922908306122
			vertex -0.38554930686950684 0.24474048614501953 -0.04723922908306122
		endloop
	endfacet
	facet normal 0 0 1
		outer loop
			vertex -0.46850037574768066 0.30685922503471375 -0.04723922908306122
			vertex -0.4766934812068939 0.3067464232444763 -0.04723922908306122
			vertex -0.45561423897743225 0.3067464232444763 -0.04723922908306122
		endloop
	endfacet
	facet normal 0 0 1
		outer loop
			vertex -0.42880862951278687 0.2585069537162781 -0.04723922908306122
			vertex -0.3974973261356354 0.2487683743238449 -0.04723922908306122
			vertex -0.3982301652431488 0.3067464232444763 -0.04723922908306122
		endloop
	endfacet
	facet normal 0 0 1
		outer loop
			vertex -0.42880862951278687 0.2585069537162781 -0.04723922908306122
			vertex -0.3982301652431488 0.3067464232444763 -0.04723922908306122
			vertex -0.4766934812068939 0.3067464232444763 -0.04723922908306122
		endloop
	endfacet
	facet normal 0 0 1
		outer loop
			vertex -0.42880862951278687 0.2585069537162781 -0.04723922908306122
			vertex -0.4766934812068939 0.3067464232444763 -0.04723922908306122
			vertex -0.45568057894706726 0.2811090350151062 -0.04723922908306122
		endloop
	endfacet
	facet normal 0 0 1
		outer loop
			vertex -0.3974973261356354 0.2487683743238449 -0.04723922908306122
			vertex -0.38303643465042114 0.2442706674337387 -0.04723922908306122
			vertex -0.3647080361843109 0.24084390699863434 -0.04723922908306122
		endloop
	endfacet
	facet normal 0 0 1
		outer loop
			vertex -0.3974973261356354 0.2487683743238449 -0.04723922908306122
			vertex -0.3647080361843109 0.24084390699863434 -0.04723922908306122
			vertex -0.35499462485313416 0.2507864534854889 -0.04723922908306122
		endloop
	endfacet
	facet normal 0 0 1
		outer loop
			vertex -0.3974973261356354 0.2487683743238449 -0.04723922908306122
			vertex -0.35499462485313416 0.2507864534854889 -0.04723922908306122
			vertex -0.39772674441337585 0.2669167220592499 -0.04723922908306122
		endloop
	endfacet
	facet normal 0 0 1
		outer loop
			vertex -0.29999998211860657 0.22928470373153687 -0.04723922908306122
			vertex -0.29999998211860657 0.230027437210083 -0.04723922908306122
			vertex -0.35499462485313416 0.2507864534854889 -0.04723922908306122
		endloop
	endfacet
	facet normal 0 0 1
		outer loop
			vertex -0.29999998211860657 0.22928470373153687 -0.04723922908306122
			vertex -0.35499462485313416 0.2507864534854889 -0.04723922908306122
			vertex -0.3647080361843109 0.24084390699863434 -0.04723922908306122
		endloop
	endfacet
	facet normal 0 0 1
		outer loop
			vertex -0.29999998211860657 0.22928470373153687 -0.04723922908306122
			vertex -0.3647080361843109 0.24084390699863434 -0.04723922908306122
			vertex -0.32363295555114746 0.23316431045532227 -0.04723922908306122
		endloop
	endfacet
	facet normal 0 0 1
		outer loop
			vertex -0.35499462485313416 0.2507864534854889 -0.04723922908306122
			vertex -0.3332344591617584 0.2730601131916046 -0.04723922908306122
			vertex -0.3806045353412628 0.3067464232444763 -0.04723922908306122
		endloop
	endfacet
	facet normal 0 0 1
		outer loop
			vertex -0.35499462485313416 0.2507864534854889 -0.04723922908306122
			vertex -0.3806045353412628 0.3067464232444763 -0.04723922908306122
			vertex -0.3982301652431488 0.3067464232444763 -0.04723922908306122
		endloop
	endfacet
	facet normal 0 0 1
		outer loop
			vertex -0.35499462485313416 0.2507864534854889 -0.04723922908306122
			vertex -0.3982301652431488 0.3067464232444763 -0.04723922908306122
			vertex -0.39772674441337585 0.2669167220592499 -0.04723922908306122
		endloop
	endfacet
	facet normal 0 0 1
		outer loop
			vertex -0.29999998211860657 0.230027437210083 -0.04723922908306122
			vertex -0.29999998211860657 0.24942608177661896 -0.04723922908306122
			vertex -0.3332344591617584 0.2730601131916046 -0.04723922908306122
		endloop
	endfacet
	facet normal 0 0 1
		outer loop
			vertex -0.29999998211860657 0.230027437210083 -0.04723922908306122
			vertex -0.3332344591617584 0.2730601131916046 -0.04723922908306122
			vertex -0.35499462485313416 0.2507864534854889 -0.04723922908306122
		endloop
	endfacet
	facet normal 0 0 1
		outer loop
			vertex -0.3802308738231659 0.3067464232444763 -0.04723922908306122
			vertex -0.3806045353412628 0.3067464232444763 -0.04723922908306122
			vertex -0.35383203625679016 0.287707656621933 -0.04723922908306122
		endloop
	endfacet
	facet normal 0 0 1
		outer loop
			vertex -0.3332344591617584 0.2730601131916046 -0.04723922908306122
			vertex -0.3003246784210205 0.3067464232444763 -0.04723922908306122
			vertex -0.3802308738231659 0.3067464232444763 -0.04723922908306122
		endloop
	endfacet
	facet normal 0 0 1
		outer loop
			vertex -0.3332344591617584 0.2730601131916046 -0.04723922908306122
			vertex -0.3802308738231659 0.3067464232444763 -0.04723922908306122
			vertex -0.35383203625679016 0.287707656621933 -0.04723922908306122
		endloop
	endfacet
	facet normal 0 0 1
		outer loop
			vertex -0.29999998211860657 0.24942608177661896 -0.04723922908306122
			vertex -0.29999998211860657 0.3067464232444763 -0.04723922908306122
			vertex -0.3003246784210205 0.3067464232444763 -0.04723922908306122
		endloop
	endfacet
	facet normal 0 0 1
		outer loop
			vertex -0.29999998211860657 0.24942608177661896 -0.04723922908306122
			vertex -0.3003246784210205 0.3067464232444763 -0.04723922908306122
			vertex -0.3332344591617584 0.2730601131916046 -0.04723922908306122
		endloop
	endfacet
	facet normal 0 0 -1
		outer loop
			vertex -0.29999998211860657 0.19638773798942566 -0.14171770215034485
			vertex -0.29999998211860657 0.19592130184173584 -0.14171770215034485
			vertex -0.30380675196647644 0.19781909883022308 -0.14171770215034485
		endloop
	endfacet
	facet normal 0 0 -1
		outer loop
			vertex -0.29999998211860657 0.19638773798942566 -0.14171770215034485
			vertex -0.30380675196647644 0.19781909883022308 -0.14171770215034485
			vertex -0.3020612895488739 0.1974349170923233 -0.14171770215034485
		endloop
	endfacet
	facet normal 0 0 -1
		outer loop
			vertex -0.29999998211860657 0.19698123633861542 -0.14171770215034485
			vertex -0.29999998211860657 0.19638773798942566 -0.14171770215034485
			vertex -0.3020612895488739 0.1974349170923233 -0.14171770215034485
		endloop
	endfacet
	facet normal 0 0 -1
		outer loop
			vertex -0.3020612895488739 0.1974349170923233 -0.14171770215034485
			vertex -0.30380675196647644 0.19781909883022308 -0.14171770215034485
			vertex -0.39678144454956055 0.24417048692703247 -0.14171770215034485
		endloop
	endfacet
	facet normal 0 0 -1
		outer loop
			vertex -0.3020612895488739 0.1974349170923233 -0.14171770215034485
			vertex -0.39678144454956055 0.24417048692703247 -0.14171770215034485
			vertex -0.38734734058380127 0.24076248705387115 -0.14171770215034485
		endloop
	endfacet
	facet normal 0 0 -1
		outer loop
			vertex -0.29999998211860657 0.20920895040035248 -0.14171770215034485
			vertex -0.29999998211860657 0.19698123633861542 -0.14171770215034485
			vertex -0.3020612895488739 0.1974349170923233 -0.14171770215034485
		endloop
	endfacet
	facet normal 0 0 -1
		outer loop
			vertex -0.29999998211860657 0.20920895040035248 -0.14171770215034485
			vertex -0.3020612895488739 0.1974349170923233 -0.14171770215034485
			vertex -0.38734734058380127 0.24076248705387115 -0.14171770215034485
		endloop
	endfacet
	facet normal 0 0 -1
		outer loop
			vertex -0.38953301310539246 0.24155203998088837 -0.14171770215034485
			vertex -0.39678144454956055 0.24417048692703247 -0.14171770215034485
			vertex -0.404287725687027 0.24791264533996582 -0.14171770215034485
		endloop
	endfacet
	facet normal 0 0 -1
		outer loop
			vertex -0.38953301310539246 0.24155203998088837 -0.14171770215034485
			vertex -0.404287725687027 0.24791264533996582 -0.14171770215034485
			vertex -0.39468464255332947 0.2449258416891098 -0.14171770215034485
		endloop
	endfacet
	facet normal 0 0 -1
		outer loop
			vertex -0.38734734058380127 0.24076248705387115 -0.14171770215034485
			vertex -0.38953301310539246 0.24155203998088837 -0.14171770215034485
			vertex -0.3917173147201538 0.24298253655433655 -0.14171770215034485
		endloop
	endfacet
	facet normal 0 0 -1
		outer loop
			vertex -0.29999998211860657 0.21547657251358032 -0.14171770215034485
			vertex -0.29999998211860657 0.20920895040035248 -0.14171770215034485
			vertex -0.38734734058380127 0.24076248705387115 -0.14171770215034485
		endloop
	endfacet
	facet normal 0 0 -1
		outer loop
			vertex -0.29999998211860657 0.21547657251358032 -0.14171770215034485
			vertex -0.38734734058380127 0.24076248705387115 -0.14171770215034485
			vertex -0.3917173147201538 0.24298253655433655 -0.14171770215034485
		endloop
	endfacet
	facet normal 0 0 -1
		outer loop
			vertex -0.29999998211860657 0.21547657251358032 -0.14171770215034485
			vertex -0.3917173147201538 0.24298253655433655 -0.14171770215034485
			vertex -0.39468464255332947 0.2449258416891098 -0.14171770215034485
		endloop
	endfacet
	facet normal 0 0 -1
		outer loop
			vertex -0.4457337558269501 0.27271926403045654 -0.14171770215034485
			vertex -0.46693935990333557 0.2868298292160034 -0.14171770215034485
			vertex -0.4340795576572418 0.27867984771728516 -0.14171770215034485
		endloop
	endfacet
	facet normal 0 0 -1
		outer loop
			vertex -0.46693935990333557 0.2868298292160034 -0.14171770215034485
			vertex -0.4830186665058136 0.2975292503833771 -0.14171770215034485
			vertex -0.4922031760215759 0.3068663775920868 -0.14171770215034485
		endloop
	endfacet
	facet normal 0 0 -1
		outer loop
			vertex -0.46693935990333557 0.2868298292160034 -0.14171770215034485
			vertex -0.4922031760215759 0.3068663775920868 -0.14171770215034485
			vertex -0.48784124851226807 0.3068883419036865 -0.14171770215034485
		endloop
	endfacet
	facet normal 0 0 -1
		outer loop
			vertex -0.46693935990333557 0.2868298292160034 -0.14171770215034485
			vertex -0.48784124851226807 0.3068883419036865 -0.14171770215034485
			vertex -0.46520036458969116 0.30677708983421326 -0.14171770215034485
		endloop
	endfacet
	facet normal 0 0 -1
		outer loop
			vertex -0.46693935990333557 0.2868298292160034 -0.14171770215034485
			vertex -0.46520036458969116 0.30677708983421326 -0.14171770215034485
			vertex -0.43083980679512024 0.2778762876987457 -0.14171770215034485
		endloop
	endfacet
	facet normal 0 0 -1
		outer loop
			vertex -0.3898925483226776 0.24343538284301758 -0.14171770215034485
			vertex -0.404287725687027 0.24791264533996582 -0.14171770215034485
			vertex -0.40579310059547424 0.24866312742233276 -0.14171770215034485
		endloop
	endfacet
	facet normal 0 0 -1
		outer loop
			vertex -0.3898925483226776 0.24343538284301758 -0.14171770215034485
			vertex -0.40579310059547424 0.24866312742233276 -0.14171770215034485
			vertex -0.4160289168357849 0.26541879773139954 -0.14171770215034485
		endloop
	endfacet
	facet normal 0 0 -1
		outer loop
			vertex -0.43083980679512024 0.2778762876987457 -0.14171770215034485
			vertex -0.4309612214565277 0.27797842025756836 -0.14171770215034485
			vertex -0.4261300563812256 0.2767081558704376 -0.14171770215034485
		endloop
	endfacet
	facet normal 0 0 -1
		outer loop
			vertex -0.29999998211860657 0.24354496598243713 -0.14171770215034485
			vertex -0.29999998211860657 0.21547657251358032 -0.14171770215034485
			vertex -0.3898925483226776 0.24343538284301758 -0.14171770215034485
		endloop
	endfacet
	facet normal 0 0 -1
		outer loop
			vertex -0.29999998211860657 0.24354496598243713 -0.14171770215034485
			vertex -0.3898925483226776 0.24343538284301758 -0.14171770215034485
			vertex -0.4160289168357849 0.26541879773139954 -0.14171770215034485
		endloop
	endfacet
	facet normal 0 0 -1
		outer loop
			vertex -0.29999998211860657 0.24354496598243713 -0.14171770215034485
			vertex -0.4160289168357849 0.26541879773139954 -0.14171770215034485
			vertex -0.4198196232318878 0.27162402868270874 -0.14171770215034485
		endloop
	endfacet
	facet normal 0 0 -1
		outer loop
			vertex -0.29999998211860657 0.24354496598243713 -0.14171770215034485
			vertex -0.4198196232318878 0.27162402868270874 -0.14171770215034485
			vertex -0.42147111892700195 0.27548322081565857 -0.14171770215034485
		endloop
	endfacet
	facet normal 0 0 -1
		outer loop
			vertex -0.45895546674728394 0.3067464232444763 -0.14171770215034485
			vertex -0.46516385674476624 0.3067464232444763 -0.14171770215034485
			vertex -0.46520036458969116 0.30677708983421326 -0.14171770215034485
		endloop
	endfacet
	facet normal 0 0 -1
		outer loop
			vertex -0.29999998211860657 0.3067464232444763 -0.14171770215034485
			vertex -0.29999998211860657 0.24354496598243713 -0.14171770215034485
			vertex -0.4309612214565277 0.27797842025756836 -0.14171770215034485
		endloop
	endfacet
	facet normal 0 0 -1
		outer loop
			vertex -0.29999998211860657 0.3067464232444763 -0.14171770215034485
			vertex -0.4309612214565277 0.27797842025756836 -0.14171770215034485
			vertex -0.46516385674476624 0.3067464232444763 -0.14171770215034485
		endloop
	endfacet
endsolid exported
