solid exported
	facet normal -0.20630778947174244 -0.9373476169406163 0.28074283787664317
		outer loop
			vertex -0.3803589344024658 0.25805914402008057 0.0031572117004543543
			vertex -0.43752074241638184 0.261881023645401 -0.026088401675224304
			vertex -0.38999664783477783 0.24659353494644165 -0.04220671206712723
		endloop
	endfacet
	facet normal -0.18022723217750494 -0.9639649998390843 0.19567734633030526
		outer loop
			vertex -0.29999998211860657 0.23858478665351868 0.001230594702064991
			vertex -0.38999664783477783 0.24659353494644165 -0.04220671206712723
			vertex -0.29999998211860657 0.23603872954845428 -0.011312042362987995
		endloop
	endfacet
	facet normal -0.367065951426988 -0.6795201312880385 0.6352282884737481
		outer loop
			vertex -0.29999998211860657 0.24036604166030884 0.0031360492575913668
			vertex -0.38999664783477783 0.24659353494644165 -0.04220671206712723
			vertex -0.29999998211860657 0.23858478665351868 0.001230594702064991
		endloop
	endfacet
	facet normal 1 0 0
		outer loop
			vertex -0.29999998211860657 0.23858478665351868 0.001230594702064991
			vertex -0.29999998211860657 0.23603872954845428 -0.011312042362987995
			vertex -0.29999998211860657 0.24036604166030884 0.0031360492575913668
		endloop
	endfacet
	facet normal -0.3965481806090415 -0.5974518099032153 0.696994171639212
		outer loop
			vertex -0.44632768630981445 0.3070787787437439 0.0076437355019152164
			vertex -0.43752074241638184 0.261881023645401 -0.026088401675224304
			vertex -0.3803589344024658 0.25805914402008057 0.0031572117004543543
		endloop
	endfacet
	facet normal -0.1537573997210664 -0.9700293472833145 0.18815346778659964
		outer loop
			vertex -0.3476734161376953 0.2855696976184845 0.047239236533641815
			vertex -0.3672316372394562 0.28630775213241577 0.03506148234009743
			vertex -0.3669320344924927 0.2862389385700226 0.03495154529809952
		endloop
	endfacet
	facet normal -0.1537644166933292 -0.9700260670871231 0.1881646442093957
		outer loop
			vertex -0.3476734161376953 0.2855696976184845 0.047239236533641815
			vertex -0.3669320344924927 0.2862389385700226 0.03495154529809952
			vertex -0.34327608346939087 0.2848726511001587 0.047239236533641815
		endloop
	endfacet
	facet normal -0.23919882857252905 -0.9699388438957325 -0.04474996661160603
		outer loop
			vertex -0.44632768630981445 0.3070787787437439 0.0076437355019152164
			vertex -0.3669320344924927 0.2862389385700226 0.03495154529809952
			vertex -0.3672316372394562 0.28630775213241577 0.03506148234009743
		endloop
	endfacet
	facet normal -0.5080423337548413 -0.36610006981201676 0.7796561588268067
		outer loop
			vertex -0.36771494150161743 0.2867758274078369 0.03496634215116501
			vertex -0.3672316372394562 0.28630775213241577 0.03506148234009743
			vertex -0.35958972573280334 0.2885090410709381 0.041074782609939575
		endloop
	endfacet
	facet normal -0.36624984762654794 -0.19315014481413825 0.9102494551889653
		outer loop
			vertex -0.44632768630981445 0.3070787787437439 0.0076437355019152164
			vertex -0.3672316372394562 0.28630775213241577 0.03506148234009743
			vertex -0.36771494150161743 0.2867758274078369 0.03496634215116501
		endloop
	endfacet
	facet normal -0.49714747079440086 -0.3905965444494085 0.7747765689196542
		outer loop
			vertex -0.3672316372394562 0.28630775213241577 0.03506148234009743
			vertex -0.3476734161376953 0.2855696976184845 0.047239236533641815
			vertex -0.35128751397132874 0.29016968607902527 0.047239236533641815
		endloop
	endfacet
	facet normal -0.49727356919842763 -0.39029690789992605 0.7748466435756263
		outer loop
			vertex -0.3672316372394562 0.28630775213241577 0.03506148234009743
			vertex -0.35128751397132874 0.29016968607902527 0.047239236533641815
			vertex -0.3514105975627899 0.2901938855648041 0.047172434628009796
		endloop
	endfacet
	facet normal -0.4971465411834225 -0.39059692886661046 0.7747769716178532
		outer loop
			vertex -0.3672316372394562 0.28630775213241577 0.03506148234009743
			vertex -0.3514105975627899 0.2901938855648041 0.047172434628009796
			vertex -0.35958972573280334 0.2885090410709381 0.041074782609939575
		endloop
	endfacet
	facet normal -0.49727241509424513 -0.39031717497620916 0.7748371752213029
		outer loop
			vertex -0.35128751397132874 0.29016968607902527 0.047239236533641815
			vertex -0.3513210117816925 0.29021236300468445 0.047239236533641815
			vertex -0.3514105975627899 0.2901938855648041 0.047172434628009796
		endloop
	endfacet
	facet normal -0.29685765440844675 -0.9544509741359364 0.029981177263034276
		outer loop
			vertex -0.43752074241638184 0.261881023645401 -0.026088401675224304
			vertex -0.42880862951278687 0.2585069537162781 -0.047239236533641815
			vertex -0.3917572498321533 0.24698306620121002 -0.047239236533641815
		endloop
	endfacet
	facet normal -0.2968592233826088 -0.9544506010290013 0.029977519711491436
		outer loop
			vertex -0.43752074241638184 0.261881023645401 -0.026088401675224304
			vertex -0.3917572498321533 0.24698306620121002 -0.047239236533641815
			vertex -0.38999664783477783 0.24659353494644165 -0.04220671206712723
		endloop
	endfacet
	facet normal -0.33939487358531806 -0.9395178607854787 0.04601422659443663
		outer loop
			vertex -0.38554930686950684 0.24474048614501953 -0.047239236533641815
			vertex -0.38999664783477783 0.24659353494644165 -0.04220671206712723
			vertex -0.3917572498321533 0.24698306620121002 -0.047239236533641815
		endloop
	endfacet
	facet normal -0.180227607434591 -0.9639653273919149 0.19567538706899562
		outer loop
			vertex -0.38303643465042114 0.2442706674337387 -0.047239236533641815
			vertex -0.38999664783477783 0.24659353494644165 -0.04220671206712723
			vertex -0.38554930686950684 0.24474048614501953 -0.047239236533641815
		endloop
	endfacet
	facet normal -0.6371998752466379 -0.7575763754130561 -0.14161339767721629
		outer loop
			vertex -0.45568057894706726 0.2811090350151062 -0.047239236533641815
			vertex -0.42880862951278687 0.2585069537162781 -0.047239236533641815
			vertex -0.43752074241638184 0.261881023645401 -0.026088401675224304
		endloop
	endfacet
	facet normal -0.770449501309223 -0.6314775310360793 0.08742822043795422
		outer loop
			vertex -0.45568057894706726 0.2811090350151062 -0.047239236533641815
			vertex -0.43752074241638184 0.261881023645401 -0.026088401675224304
			vertex -0.47457626461982727 0.3067464232444763 -0.02858092449605465
		endloop
	endfacet
	facet normal -0.7704507335309461 -0.6314764130751426 0.08742543640943042
		outer loop
			vertex -0.45568057894706726 0.2811090350151062 -0.047239236533641815
			vertex -0.47457626461982727 0.3067464232444763 -0.02858092449605465
			vertex -0.4766934812068939 0.3067464232444763 -0.047239236533641815
		endloop
	endfacet
	facet normal -0.6694691475419601 -0.5236618859112964 0.5268674308906045
		outer loop
			vertex -0.44632768630981445 0.3070787787437439 0.0076437355019152164
			vertex -0.47457626461982727 0.3067464232444763 -0.02858092449605465
			vertex -0.43752074241638184 0.261881023645401 -0.026088401675224304
		endloop
	endfacet
	facet normal -0.013766670529902198 0.99990401463329 0.0015621468402861895
		outer loop
			vertex -0.46850043535232544 0.30685922503471375 -0.047239236533641815
			vertex -0.4766934812068939 0.3067464232444763 -0.047239236533641815
			vertex -0.47457626461982727 0.3067464232444763 -0.02858092449605465
		endloop
	endfacet
	facet normal -0.013767243925684867 0.9999040070303814 0.0015619600756692784
		outer loop
			vertex -0.46850043535232544 0.30685922503471375 -0.047239236533641815
			vertex -0.47457626461982727 0.3067464232444763 -0.02858092449605465
			vertex -0.44632768630981445 0.3070787787437439 0.0076437355019152164
		endloop
	endfacet
	facet normal -0.5585515028862047 -0.00706031392981169 0.8294397932284022
		outer loop
			vertex -0.30790960788726807 0.27268195152282715 0.013293436728417873
			vertex -0.38999664783477783 0.24659353494644165 -0.04220671206712723
			vertex -0.30126285552978516 0.2544034421443939 0.01761382445693016
		endloop
	endfacet
	facet normal 0 1 0
		outer loop
			vertex -0.45561423897743225 0.3067464232444763 -0.047239236533641815
			vertex -0.3883349597454071 0.3067464232444763 0.03090727888047695
			vertex -0.4038788080215454 0.3067464232444763 -0.047239236533641815
		endloop
	endfacet
	facet normal 0 1 0
		outer loop
			vertex -0.3982301652431488 0.3067464232444763 -0.047239236533641815
			vertex -0.4038788080215454 0.3067464232444763 -0.047239236533641815
			vertex -0.3883349597454071 0.3067464232444763 0.03090727888047695
		endloop
	endfacet
	facet normal 0 1 0
		outer loop
			vertex -0.3982301652431488 0.3067464232444763 -0.047239236533641815
			vertex -0.3883349597454071 0.3067464232444763 0.03090727888047695
			vertex -0.39609605073928833 0.3067464232444763 -0.04580209404230118
		endloop
	endfacet
	facet normal 0 1 0
		outer loop
			vertex -0.3632715344429016 0.3067464232444763 0.047239236533641815
			vertex -0.29999998211860657 0.3067464232444763 0.047239236533641815
			vertex -0.29999998211860657 0.3067464232444763 0.01890977844595909
		endloop
	endfacet
	facet normal 0 1 0
		outer loop
			vertex -0.3632715344429016 0.3067464232444763 0.047239236533641815
			vertex -0.29999998211860657 0.3067464232444763 0.01890977844595909
			vertex -0.3676973879337311 0.3067464232444763 -0.026678210124373436
		endloop
	endfacet
	facet normal 0 1 0
		outer loop
			vertex -0.3632715344429016 0.3067464232444763 0.047239236533641815
			vertex -0.3676973879337311 0.3067464232444763 -0.026678210124373436
			vertex -0.3883349597454071 0.3067464232444763 0.03090727888047695
		endloop
	endfacet
	facet normal 0 1 0
		outer loop
			vertex -0.39609605073928833 0.3067464232444763 -0.04580209404230118
			vertex -0.3883349597454071 0.3067464232444763 0.03090727888047695
			vertex -0.3676973879337311 0.3067464232444763 -0.026678210124373436
		endloop
	endfacet
	facet normal -0.09286203382721367 -0.21396981919376734 0.9724163507200299
		outer loop
			vertex -0.44499024748802185 0.3067464232444763 0.007698324508965015
			vertex -0.44632768630981445 0.3070787787437439 0.0076437355019152164
			vertex -0.4458804130554199 0.3067464232444763 0.007613317109644413
		endloop
	endfacet
	facet normal -0.23920445926693598 -0.9699375471291752 -0.04474797577379037
		outer loop
			vertex -0.44632768630981445 0.3070787787437439 0.0076437355019152164
			vertex -0.44499024748802185 0.3067464232444763 0.007698324508965015
			vertex -0.44506150484085083 0.3067464232444763 0.008079237304627895
		endloop
	endfacet
	facet normal -0.36624985655452796 -0.19314891326789008 0.9102497129234487
		outer loop
			vertex -0.44632768630981445 0.3070787787437439 0.0076437355019152164
			vertex -0.44504082202911377 0.3067464232444763 0.008090997114777565
			vertex -0.3883349597454071 0.3067464232444763 0.03090727888047695
		endloop
	endfacet
	facet normal 0.00875385529086326 0.9999332830703029 -0.007536539377741348
		outer loop
			vertex -0.3883349597454071 0.3067464232444763 0.03090727888047695
			vertex -0.4050311744213104 0.3067464232444763 0.011514260433614254
			vertex -0.44632768630981445 0.3070787787437439 0.0076437355019152164
		endloop
	endfacet
	facet normal 0.008753107780582197 0.9999332946203847 -0.0075358751186952455
		outer loop
			vertex -0.4050311744213104 0.3067464232444763 0.011514260433614254
			vertex -0.45561423897743225 0.3067464232444763 -0.047239236533641815
			vertex -0.46850043535232544 0.30685922503471375 -0.047239236533641815
		endloop
	endfacet
	facet normal 0.008753870220061662 0.9999332817381794 -0.007536698779003142
		outer loop
			vertex -0.4050311744213104 0.3067464232444763 0.011514260433614254
			vertex -0.46850043535232544 0.30685922503471375 -0.047239236533641815
			vertex -0.44632768630981445 0.3070787787437439 0.0076437355019152164
		endloop
	endfacet
	facet normal -0.09286189064562246 -0.2139704230379281 0.9724162315236673
		outer loop
			vertex -0.3803589344024658 0.25805914402008057 0.0031572117004543543
			vertex -0.30790960788726807 0.27268195152282715 0.013293436728417873
			vertex -0.44499024748802185 0.3067464232444763 0.007698324508965015
		endloop
	endfacet
	facet normal -0.09286201783146142 -0.21397058736891503 0.9724161832185182
		outer loop
			vertex -0.3803589344024658 0.25805914402008057 0.0031572117004543543
			vertex -0.44499024748802185 0.3067464232444763 0.007698324508965015
			vertex -0.4458804130554199 0.3067464232444763 0.007613317109644413
		endloop
	endfacet
	facet normal -0.2676941913950645 -0.9520118819482316 0.14836844854189524
		outer loop
			vertex -0.3184603154659271 0.2809390425682068 0.047239236533641815
			vertex -0.30790960788726807 0.27268195152282715 0.013293436728417873
			vertex -0.29999998211860657 0.2716772258281708 0.021117540076375008
		endloop
	endfacet
	facet normal -0.2676955491331499 -0.9520116618670225 0.14836741098870546
		outer loop
			vertex -0.3184603154659271 0.2809390425682068 0.047239236533641815
			vertex -0.29999998211860657 0.2716772258281708 0.021117540076375008
			vertex -0.29999998211860657 0.27574819326400757 0.047239236533641815
		endloop
	endfacet
	facet normal -0.15376251112791414 -0.9700271031059179 0.18816086046672703
		outer loop
			vertex -0.34327608346939087 0.2848726511001587 0.047239236533641815
			vertex -0.3669320344924927 0.2862389385700226 0.03495154529809952
			vertex -0.30790960788726807 0.27268195152282715 0.013293436728417873
		endloop
	endfacet
	facet normal -0.1537613789353234 -0.9700270569776965 0.18816202347736616
		outer loop
			vertex -0.34327608346939087 0.2848726511001587 0.047239236533641815
			vertex -0.30790960788726807 0.27268195152282715 0.013293436728417873
			vertex -0.3184603154659271 0.2809390425682068 0.047239236533641815
		endloop
	endfacet
	facet normal -0.7061537162107832 -0.09080627368899612 0.7022116132195622
		outer loop
			vertex -0.29999998211860657 0.2546445429325104 0.01891496405005455
			vertex -0.29999998211860657 0.2716772258281708 0.021117540076375008
			vertex -0.30790960788726807 0.27268195152282715 0.013293436728417873
		endloop
	endfacet
	facet normal -0.7061534105974426 -0.09080603424164023 0.7022119515124373
		outer loop
			vertex -0.29999998211860657 0.2546445429325104 0.01891496405005455
			vertex -0.30790960788726807 0.27268195152282715 0.013293436728417873
			vertex -0.30126285552978516 0.2544034421443939 0.01761382445693016
		endloop
	endfacet
	facet normal -0.24080829415667085 -0.8853170479029014 0.3977751753916352
		outer loop
			vertex -0.29999998211860657 0.2546445429325104 0.01891496405005455
			vertex -0.30126285552978516 0.2544034421443939 0.01761382445693016
			vertex -0.29999998211860657 0.2544421851634979 0.018464582040905952
		endloop
	endfacet
	facet normal 1 0 0
		outer loop
			vertex -0.29999998211860657 0.2544421851634979 0.018464582040905952
			vertex -0.29999998211860657 0.27128610014915466 0.01860795170068741
			vertex -0.29999998211860657 0.2716772258281708 0.021117540076375008
		endloop
	endfacet
	facet normal 1 0 0
		outer loop
			vertex -0.29999998211860657 0.2544421851634979 0.018464582040905952
			vertex -0.29999998211860657 0.2716772258281708 0.021117540076375008
			vertex -0.29999998211860657 0.2546445429325104 0.01891496405005455
		endloop
	endfacet
	facet normal -0.23920322567975427 -0.9699383702076689 -0.044736727901041246
		outer loop
			vertex -0.44499024748802185 0.3067464232444763 0.007698324508965015
			vertex -0.30790960788726807 0.27268195152282715 0.013293436728417873
			vertex -0.3669320344924927 0.2862389385700226 0.03495154529809952
		endloop
	endfacet
	facet normal -0.23919971091050402 -0.9699387591290011 -0.0447470874988007
		outer loop
			vertex -0.44499024748802185 0.3067464232444763 0.007698324508965015
			vertex -0.3669320344924927 0.2862389385700226 0.03495154529809952
			vertex -0.44506150484085083 0.3067464232444763 0.008079237304627895
		endloop
	endfacet
	facet normal -0.5080437034646116 -0.36609646639180204 0.7796569583255177
		outer loop
			vertex -0.37621134519577026 0.295004665851593 0.033293817192316055
			vertex -0.36771494150161743 0.2867758274078369 0.03496634215116501
			vertex -0.35958972573280334 0.2885090410709381 0.041074782609939575
		endloop
	endfacet
	facet normal -0.5080437409521702 -0.36609675252133633 0.7796567995423729
		outer loop
			vertex -0.37621134519577026 0.295004665851593 0.033293817192316055
			vertex -0.35958972573280334 0.2885090410709381 0.041074782609939575
			vertex -0.35279539227485657 0.29046618938446045 0.04642114043235779
		endloop
	endfacet
	facet normal -0.36624959732471746 -0.1931486199868054 0.9102498794598519
		outer loop
			vertex -0.44504082202911377 0.3067464232444763 0.008090997114777565
			vertex -0.36771494150161743 0.2867758274078369 0.03496634215116501
			vertex -0.37621134519577026 0.295004665851593 0.033293817192316055
		endloop
	endfacet
	facet normal -0.36624973135849004 -0.1931502754256155 0.9102494742557355
		outer loop
			vertex -0.44504082202911377 0.3067464232444763 0.008090997114777565
			vertex -0.37621134519577026 0.295004665851593 0.033293817192316055
			vertex -0.42817649245262146 0.3067464232444763 0.014876561239361763
		endloop
	endfacet
	facet normal -0.49714690201345685 -0.39059601204573624 0.7747772022926265
		outer loop
			vertex -0.35279539227485657 0.29046618938446045 0.04642114043235779
			vertex -0.35958972573280334 0.2885090410709381 0.041074782609939575
			vertex -0.3514105975627899 0.2901938855648041 0.047172434628009796
		endloop
	endfacet
	facet normal -0.5080434427708896 -0.36609885571550604 0.7796560062625691
		outer loop
			vertex -0.3632715344429016 0.3067464232444763 0.047239236533641815
			vertex -0.3883349597454071 0.3067464232444763 0.03090727888047695
			vertex -0.37621134519577026 0.295004665851593 0.033293817192316055
		endloop
	endfacet
	facet normal -0.5080436464828768 -0.36609861038165536 0.7796559887187443
		outer loop
			vertex -0.3632715344429016 0.3067464232444763 0.047239236533641815
			vertex -0.37621134519577026 0.295004665851593 0.033293817192316055
			vertex -0.35279539227485657 0.29046618938446045 0.04642114043235779
		endloop
	endfacet
	facet normal -0.508045363153063 -0.3660996346580679 0.7796543891250157
		outer loop
			vertex -0.3632715344429016 0.3067464232444763 0.047239236533641815
			vertex -0.35279539227485657 0.29046618938446045 0.04642114043235779
			vertex -0.3517557382583618 0.2907656729221344 0.047239236533641815
		endloop
	endfacet
	facet normal -0.3662497543047784 -0.19315044934688874 0.9102494281178014
		outer loop
			vertex -0.37621134519577026 0.295004665851593 0.033293817192316055
			vertex -0.3883349597454071 0.3067464232444763 0.03090727888047695
			vertex -0.42817649245262146 0.3067464232444763 0.014876561239361763
		endloop
	endfacet
	facet normal -0.4971465027786189 -0.39060301314990903 0.7747739288935842
		outer loop
			vertex -0.3517557382583618 0.2907656729221344 0.047239236533641815
			vertex -0.35279539227485657 0.29046618938446045 0.04642114043235779
			vertex -0.3514105975627899 0.2901938855648041 0.047172434628009796
		endloop
	endfacet
	facet normal -0.4971576922745452 -0.39060859944030973 0.7747639324694512
		outer loop
			vertex -0.3517557382583618 0.2907656729221344 0.047239236533641815
			vertex -0.3514105975627899 0.2901938855648041 0.047172434628009796
			vertex -0.3513210117816925 0.29021236300468445 0.047239236533641815
		endloop
	endfacet
	facet normal 1 0 0
		outer loop
			vertex -0.29999998211860657 0.3067464232444763 0.047239236533641815
			vertex -0.29999998211860657 0.27574819326400757 0.047239236533641815
			vertex -0.29999998211860657 0.27128610014915466 0.01860795170068741
		endloop
	endfacet
	facet normal 1 0 0
		outer loop
			vertex -0.29999998211860657 0.3067464232444763 0.047239236533641815
			vertex -0.29999998211860657 0.27128610014915466 0.01860795170068741
			vertex -0.29999998211860657 0.2942916452884674 0.01880376785993576
		endloop
	endfacet
	facet normal 1 0 0
		outer loop
			vertex -0.29999998211860657 0.3067464232444763 0.047239236533641815
			vertex -0.29999998211860657 0.2942916452884674 0.01880376785993576
			vertex -0.29999998211860657 0.3067464232444763 0.02154431864619255
		endloop
	endfacet
	facet normal 0.16538623044065248 -0.9639381943461202 0.20849592864459776
		outer loop
			vertex -0.3803589344024658 0.25805914402008057 0.0031572117004543543
			vertex -0.38999664783477783 0.24659353494644165 -0.04220671206712723
			vertex -0.30790960788726807 0.27268195152282715 0.013293436728417873
		endloop
	endfacet
	facet normal 1 0 0
		outer loop
			vertex -0.29999998211860657 0.2942916452884674 0.01880376785993576
			vertex -0.29999998211860657 0.3067464232444763 0.01890977844595909
			vertex -0.29999998211860657 0.3067464232444763 0.02154431864619255
		endloop
	endfacet
	facet normal 0 1 0
		outer loop
			vertex -0.3982301652431488 0.3067464232444763 -0.047239236533641815
			vertex -0.39609605073928833 0.3067464232444763 -0.04580209404230118
			vertex -0.3962414562702179 0.3067464232444763 -0.047239236533641815
		endloop
	endfacet
	facet normal 0 1 0
		outer loop
			vertex -0.29999998211860657 0.3067464232444763 0.01890977844595909
			vertex -0.29999998211860657 0.3067464232444763 -0.047239236533641815
			vertex -0.36032870411872864 0.3067464232444763 -0.047239236533641815
		endloop
	endfacet
	facet normal 0 1 0
		outer loop
			vertex -0.29999998211860657 0.3067464232444763 0.01890977844595909
			vertex -0.36032870411872864 0.3067464232444763 -0.047239236533641815
			vertex -0.3676973879337311 0.3067464232444763 -0.026678210124373436
		endloop
	endfacet
	facet normal 0 1 0
		outer loop
			vertex -0.3962414562702179 0.3067464232444763 -0.047239236533641815
			vertex -0.39609605073928833 0.3067464232444763 -0.04580209404230118
			vertex -0.3676973879337311 0.3067464232444763 -0.026678210124373436
		endloop
	endfacet
	facet normal 0 1 0
		outer loop
			vertex -0.3962414562702179 0.3067464232444763 -0.047239236533641815
			vertex -0.3676973879337311 0.3067464232444763 -0.026678210124373436
			vertex -0.36032870411872864 0.3067464232444763 -0.047239236533641815
		endloop
	endfacet
	facet normal -0.18022691182190248 -0.9639652677453421 0.19567632160226037
		outer loop
			vertex -0.29999998211860657 0.23603872954845428 -0.011312042362987995
			vertex -0.38999664783477783 0.24659353494644165 -0.04220671206712723
			vertex -0.38303643465042114 0.2442706674337387 -0.047239236533641815
		endloop
	endfacet
	facet normal -0.1802274605311601 -0.9639648901600887 0.1956776763178094
		outer loop
			vertex -0.29999998211860657 0.23603872954845428 -0.011312042362987995
			vertex -0.38303643465042114 0.2442706674337387 -0.047239236533641815
			vertex -0.32363295555114746 0.23316431045532227 -0.047239236533641815
		endloop
	endfacet
	facet normal -0.18022751254101121 -0.9639648737576498 0.19567770921767744
		outer loop
			vertex -0.29999998211860657 0.23603872954845428 -0.011312042362987995
			vertex -0.32363295555114746 0.23316431045532227 -0.047239236533641815
			vertex -0.29999998211860657 0.23512014746665955 -0.01583724282681942
		endloop
	endfacet
	facet normal -0.15933569757902238 -0.9706077383189674 0.18036838357191531
		outer loop
			vertex -0.29999998211860657 0.22928470373153687 -0.047239236533641815
			vertex -0.29999998211860657 0.23512014746665955 -0.01583724282681942
			vertex -0.32363295555114746 0.23316431045532227 -0.047239236533641815
		endloop
	endfacet
	facet normal -0.36075392556370417 -0.6918635600321739 0.6254449771882287
		outer loop
			vertex -0.29999998211860657 0.25437119603157043 0.01830657385289669
			vertex -0.30126285552978516 0.2544034421443939 0.01761382445693016
			vertex -0.38999664783477783 0.24659353494644165 -0.04220671206712723
		endloop
	endfacet
	facet normal -0.360796795861687 -0.6917918896746669 0.6254995231623233
		outer loop
			vertex -0.29999998211860657 0.25437119603157043 0.01830657385289669
			vertex -0.38999664783477783 0.24659353494644165 -0.04220671206712723
			vertex -0.29999998211860657 0.24916258454322815 0.012545937672257423
		endloop
	endfacet
	facet normal -0.3670659656988827 -0.6795200920617135 0.6352283221881618
		outer loop
			vertex -0.29999998211860657 0.24916258454322815 0.012545937672257423
			vertex -0.38999664783477783 0.24659353494644165 -0.04220671206712723
			vertex -0.29999998211860657 0.24036604166030884 0.0031360492575913668
		endloop
	endfacet
	facet normal -0.24079517889522123 -0.8853291152088304 0.39775625649933916
		outer loop
			vertex -0.29999998211860657 0.2544421851634979 0.018464582040905952
			vertex -0.30126285552978516 0.2544034421443939 0.01761382445693016
			vertex -0.29999998211860657 0.25437119603157043 0.01830657385289669
		endloop
	endfacet
	facet normal 1 0 0
		outer loop
			vertex -0.29999998211860657 0.25437119603157043 0.01830657385289669
			vertex -0.29999998211860657 0.2545146048069 0.018465198576450348
			vertex -0.29999998211860657 0.2544421851634979 0.018464582040905952
		endloop
	endfacet
	facet normal 1 0 0
		outer loop
			vertex -0.29999998211860657 0.24036604166030884 0.0031360492575913668
			vertex -0.29999998211860657 0.24022319912910461 0.002659084042534232
			vertex -0.29999998211860657 0.24916258454322815 0.012545937672257423
		endloop
	endfacet
	facet normal 1 0 0
		outer loop
			vertex -0.29999998211860657 0.24022319912910461 0.002659084042534232
			vertex -0.29999998211860657 0.23603872954845428 -0.011312042362987995
			vertex -0.29999998211860657 0.23545555770397186 -0.014184923842549324
		endloop
	endfacet
	facet normal 1 0 0
		outer loop
			vertex -0.29999998211860657 0.24022319912910461 0.002659084042534232
			vertex -0.29999998211860657 0.23545555770397186 -0.014184923842549324
			vertex -0.29999998211860657 0.2514176368713379 -0.02155146934092045
		endloop
	endfacet
	facet normal 1 0 0
		outer loop
			vertex -0.29999998211860657 0.24022319912910461 0.002659084042534232
			vertex -0.29999998211860657 0.2514176368713379 -0.02155146934092045
			vertex -0.29999998211860657 0.2849552631378174 0.01872429996728897
		endloop
	endfacet
	facet normal 1 0 0
		outer loop
			vertex -0.29999998211860657 0.24022319912910461 0.002659084042534232
			vertex -0.29999998211860657 0.2849552631378174 0.01872429996728897
			vertex -0.29999998211860657 0.2545146048069 0.018465198576450348
		endloop
	endfacet
	facet normal 1 0 0
		outer loop
			vertex -0.29999998211860657 0.22928470373153687 -0.047239236533641815
			vertex -0.29999998211860657 0.230027437210083 -0.047239236533641815
			vertex -0.29999998211860657 0.2514176368713379 -0.02155146934092045
		endloop
	endfacet
	facet normal 1 0 0
		outer loop
			vertex -0.29999998211860657 0.22928470373153687 -0.047239236533641815
			vertex -0.29999998211860657 0.2514176368713379 -0.02155146934092045
			vertex -0.29999998211860657 0.23545555770397186 -0.014184923842549324
		endloop
	endfacet
	facet normal 1 0 0
		outer loop
			vertex -0.29999998211860657 0.22928470373153687 -0.047239236533641815
			vertex -0.29999998211860657 0.23545555770397186 -0.014184923842549324
			vertex -0.29999998211860657 0.23512014746665955 -0.01583724282681942
		endloop
	endfacet
	facet normal 1 0 0
		outer loop
			vertex -0.29999998211860657 0.2514176368713379 -0.02155146934092045
			vertex -0.29999998211860657 0.26701900362968445 -0.028751546517014503
			vertex -0.29999998211860657 0.3067464232444763 0.01299632340669632
		endloop
	endfacet
	facet normal 1 0 0
		outer loop
			vertex -0.29999998211860657 0.2514176368713379 -0.02155146934092045
			vertex -0.29999998211860657 0.3067464232444763 0.01299632340669632
			vertex -0.29999998211860657 0.3067464232444763 0.01890977844595909
		endloop
	endfacet
	facet normal 1 0 0
		outer loop
			vertex -0.29999998211860657 0.2514176368713379 -0.02155146934092045
			vertex -0.29999998211860657 0.3067464232444763 0.01890977844595909
			vertex -0.29999998211860657 0.2849552631378174 0.01872429996728897
		endloop
	endfacet
	facet normal 1 0 0
		outer loop
			vertex -0.29999998211860657 0.230027437210083 -0.047239236533641815
			vertex -0.29999998211860657 0.24942606687545776 -0.047239236533641815
			vertex -0.29999998211860657 0.26701900362968445 -0.028751546517014503
		endloop
	endfacet
	facet normal 1 0 0
		outer loop
			vertex -0.29999998211860657 0.230027437210083 -0.047239236533641815
			vertex -0.29999998211860657 0.26701900362968445 -0.028751546517014503
			vertex -0.29999998211860657 0.2514176368713379 -0.02155146934092045
		endloop
	endfacet
	facet normal 1 0 0
		outer loop
			vertex -0.29999998211860657 0.26701900362968445 -0.028751546517014503
			vertex -0.29999998211860657 0.3067464232444763 -0.04708585515618324
			vertex -0.29999998211860657 0.3067464232444763 0.01299632340669632
		endloop
	endfacet
	facet normal 1 0 0
		outer loop
			vertex -0.29999998211860657 0.24942606687545776 -0.047239236533641815
			vertex -0.29999998211860657 0.3067464232444763 -0.047239236533641815
			vertex -0.29999998211860657 0.3067464232444763 -0.04708585515618324
		endloop
	endfacet
	facet normal 1 0 0
		outer loop
			vertex -0.29999998211860657 0.24942606687545776 -0.047239236533641815
			vertex -0.29999998211860657 0.3067464232444763 -0.04708585515618324
			vertex -0.29999998211860657 0.26701900362968445 -0.028751546517014503
		endloop
	endfacet
	facet normal 0 0 1
		outer loop
			vertex -0.34327608346939087 0.2848726511001587 0.047239236533641815
			vertex -0.35123410820961 0.29015466570854187 0.047239236533641815
			vertex -0.35128751397132874 0.29016968607902527 0.047239236533641815
		endloop
	endfacet
	facet normal 0 0 1
		outer loop
			vertex -0.34327608346939087 0.2848726511001587 0.047239236533641815
			vertex -0.35128751397132874 0.29016968607902527 0.047239236533641815
			vertex -0.3476734161376953 0.2855696976184845 0.047239236533641815
		endloop
	endfacet
	facet normal 0 0 1
		outer loop
			vertex -0.35123410820961 0.29015466570854187 0.047239236533641815
			vertex -0.3513210117816925 0.29021236300468445 0.047239236533641815
			vertex -0.35128751397132874 0.29016968607902527 0.047239236533641815
		endloop
	endfacet
	facet normal 0 0 1
		outer loop
			vertex -0.32458817958831787 0.28191038966178894 0.047239236533641815
			vertex -0.32401204109191895 0.28250011801719666 0.047239236533641815
			vertex -0.35123410820961 0.29015466570854187 0.047239236533641815
		endloop
	endfacet
	facet normal 0 0 1
		outer loop
			vertex -0.32458817958831787 0.28191038966178894 0.047239236533641815
			vertex -0.35123410820961 0.29015466570854187 0.047239236533641815
			vertex -0.34327608346939087 0.2848726511001587 0.047239236533641815
		endloop
	endfacet
	facet normal 0 0 1
		outer loop
			vertex -0.3184603154659271 0.2809390425682068 0.047239236533641815
			vertex -0.32401204109191895 0.28250011801719666 0.047239236533641815
			vertex -0.32458817958831787 0.28191038966178894 0.047239236533641815
		endloop
	endfacet
	facet normal 0 0 1
		outer loop
			vertex -0.32401204109191895 0.28250011801719666 0.047239236533641815
			vertex -0.3003246784210205 0.3067464232444763 0.047239236533641815
			vertex -0.3632715344429016 0.3067464232444763 0.047239236533641815
		endloop
	endfacet
	facet normal 0 0 1
		outer loop
			vertex -0.32401204109191895 0.28250011801719666 0.047239236533641815
			vertex -0.3632715344429016 0.3067464232444763 0.047239236533641815
			vertex -0.3517557382583618 0.2907656729221344 0.047239236533641815
		endloop
	endfacet
	facet normal 0 0 1
		outer loop
			vertex -0.32401204109191895 0.28250011801719666 0.047239236533641815
			vertex -0.3517557382583618 0.2907656729221344 0.047239236533641815
			vertex -0.3513210117816925 0.29021236300468445 0.047239236533641815
		endloop
	endfacet
	facet normal 0 0 1
		outer loop
			vertex -0.32401204109191895 0.28250011801719666 0.047239236533641815
			vertex -0.3513210117816925 0.29021236300468445 0.047239236533641815
			vertex -0.35123410820961 0.29015466570854187 0.047239236533641815
		endloop
	endfacet
	facet normal 0 0 1
		outer loop
			vertex -0.29999998211860657 0.27574819326400757 0.047239236533641815
			vertex -0.29999998211860657 0.3067464232444763 0.047239236533641815
			vertex -0.3003246784210205 0.3067464232444763 0.047239236533641815
		endloop
	endfacet
	facet normal 0 0 1
		outer loop
			vertex -0.29999998211860657 0.27574819326400757 0.047239236533641815
			vertex -0.3003246784210205 0.3067464232444763 0.047239236533641815
			vertex -0.32401204109191895 0.28250011801719666 0.047239236533641815
		endloop
	endfacet
	facet normal 0 0 -1
		outer loop
			vertex -0.38554930686950684 0.24474048614501953 -0.047239236533641815
			vertex -0.3917572498321533 0.24698306620121002 -0.047239236533641815
			vertex -0.38303643465042114 0.2442706674337387 -0.047239236533641815
		endloop
	endfacet
	facet normal 0 0 -1
		outer loop
			vertex -0.4766934812068939 0.3067464232444763 -0.047239236533641815
			vertex -0.46850043535232544 0.30685922503471375 -0.047239236533641815
			vertex -0.45561423897743225 0.3067464232444763 -0.047239236533641815
		endloop
	endfacet
	facet normal 0 0 -1
		outer loop
			vertex -0.39749735593795776 0.2487683743238449 -0.047239236533641815
			vertex -0.42880862951278687 0.2585069537162781 -0.047239236533641815
			vertex -0.45568057894706726 0.2811090350151062 -0.047239236533641815
		endloop
	endfacet
	facet normal 0 0 -1
		outer loop
			vertex -0.39749735593795776 0.2487683743238449 -0.047239236533641815
			vertex -0.45568057894706726 0.2811090350151062 -0.047239236533641815
			vertex -0.4766934812068939 0.3067464232444763 -0.047239236533641815
		endloop
	endfacet
	facet normal 0 0 -1
		outer loop
			vertex -0.39749735593795776 0.2487683743238449 -0.047239236533641815
			vertex -0.4766934812068939 0.3067464232444763 -0.047239236533641815
			vertex -0.3982301652431488 0.3067464232444763 -0.047239236533641815
		endloop
	endfacet
	facet normal 0 0 -1
		outer loop
			vertex -0.29999998211860657 0.230027437210083 -0.047239236533641815
			vertex -0.29999998211860657 0.22928470373153687 -0.047239236533641815
			vertex -0.32363295555114746 0.23316431045532227 -0.047239236533641815
		endloop
	endfacet
	facet normal 0 0 -1
		outer loop
			vertex -0.29999998211860657 0.230027437210083 -0.047239236533641815
			vertex -0.32363295555114746 0.23316431045532227 -0.047239236533641815
			vertex -0.38303643465042114 0.2442706674337387 -0.047239236533641815
		endloop
	endfacet
	facet normal 0 0 -1
		outer loop
			vertex -0.29999998211860657 0.230027437210083 -0.047239236533641815
			vertex -0.38303643465042114 0.2442706674337387 -0.047239236533641815
			vertex -0.39749735593795776 0.2487683743238449 -0.047239236533641815
		endloop
	endfacet
	facet normal 0 0 -1
		outer loop
			vertex -0.29999998211860657 0.230027437210083 -0.047239236533641815
			vertex -0.39749735593795776 0.2487683743238449 -0.047239236533641815
			vertex -0.39772674441337585 0.2669166922569275 -0.047239236533641815
		endloop
	endfacet
	facet normal 0 0 -1
		outer loop
			vertex -0.29999998211860657 0.24942606687545776 -0.047239236533641815
			vertex -0.29999998211860657 0.230027437210083 -0.047239236533641815
			vertex -0.39772674441337585 0.2669166922569275 -0.047239236533641815
		endloop
	endfacet
	facet normal 0 0 -1
		outer loop
			vertex -0.29999998211860657 0.24942606687545776 -0.047239236533641815
			vertex -0.39772674441337585 0.2669166922569275 -0.047239236533641815
			vertex -0.3982301652431488 0.3067464232444763 -0.047239236533641815
		endloop
	endfacet
	facet normal 0 0 -1
		outer loop
			vertex -0.29999998211860657 0.24942606687545776 -0.047239236533641815
			vertex -0.3982301652431488 0.3067464232444763 -0.047239236533641815
			vertex -0.3806045353412628 0.3067464232444763 -0.047239236533641815
		endloop
	endfacet
	facet normal 0 0 -1
		outer loop
			vertex -0.35383203625679016 0.287707656621933 -0.047239236533641815
			vertex -0.3806045353412628 0.3067464232444763 -0.047239236533641815
			vertex -0.3802308738231659 0.3067464232444763 -0.047239236533641815
		endloop
	endfacet
	facet normal 0 0 -1
		outer loop
			vertex -0.29999998211860657 0.3067464232444763 -0.047239236533641815
			vertex -0.29999998211860657 0.24942606687545776 -0.047239236533641815
			vertex -0.35383203625679016 0.287707656621933 -0.047239236533641815
		endloop
	endfacet
	facet normal 0 0 -1
		outer loop
			vertex -0.29999998211860657 0.3067464232444763 -0.047239236533641815
			vertex -0.35383203625679016 0.287707656621933 -0.047239236533641815
			vertex -0.3802308738231659 0.3067464232444763 -0.047239236533641815
		endloop
	endfacet
endsolid exported
