solid exported
	facet normal -0.817281914727987 -0.08890694202634405 0.5693380608373905
		outer loop
			vertex -0.1614466905593872 -0.10312425345182419 0.23619616031646729
			vertex -0.17108020186424255 -0.13041190803050995 0.21810610592365265
			vertex -0.1590600460767746 -0.12506361305713654 0.23619616031646729
		endloop
	endfacet
	facet normal -0.949672452380328 0.15469618398821336 0.27238084339655505
		outer loop
			vertex -0.17108020186424255 -0.13041190803050995 0.21810610592365265
			vertex -0.1614466905593872 -0.10312425345182419 0.23619616031646729
			vertex -0.16132213175296783 -0.1023595929145813 0.23619616031646729
		endloop
	endfacet
	facet normal -0.9496737037579773 0.15470131052072963 0.27237356867687185
		outer loop
			vertex -0.17108020186424255 -0.13041190803050995 0.21810610592365265
			vertex -0.16132213175296783 -0.1023595929145813 0.23619616031646729
			vertex -0.16950643062591553 -0.1023595929145813 0.20766030251979828
		endloop
	endfacet
	facet normal -0.949674688296495 0.1547003010072141 0.2723707092865025
		outer loop
			vertex -0.17108020186424255 -0.13041190803050995 0.21810610592365265
			vertex -0.16950643062591553 -0.1023595929145813 0.20766030251979828
			vertex -0.17211927473545074 -0.11916118115186691 0.20809301733970642
		endloop
	endfacet
	facet normal -0.9480290849215794 0.10247908771487804 0.30122896727220494
		outer loop
			vertex -0.1739223748445511 -0.1023595929145813 0.19268079102039337
			vertex -0.17355266213417053 -0.10364123433828354 0.19428037106990814
			vertex -0.17269276082515717 -0.1023595929145813 0.1965506374835968
		endloop
	endfacet
	facet normal -0.9496744494797604 0.15469716607945233 0.27237332250479396
		outer loop
			vertex -0.16950643062591553 -0.1023595929145813 0.20766030251979828
			vertex -0.17269276082515717 -0.1023595929145813 0.1965506374835968
			vertex -0.17355266213417053 -0.10364123433828354 0.19428037106990814
		endloop
	endfacet
	facet normal -0.9496740638589121 0.15470026056433708 0.2723729094734372
		outer loop
			vertex -0.16950643062591553 -0.1023595929145813 0.20766030251979828
			vertex -0.17355266213417053 -0.10364123433828354 0.19428037106990814
			vertex -0.17211927473545074 -0.11916118115186691 0.20809301733970642
		endloop
	endfacet
	facet normal -0.9723804001452515 0.2308566990786163 0.03437356402653208
		outer loop
			vertex -0.19003921747207642 -0.1023595929145813 0.14171770215034485
			vertex -0.19017930328845978 -0.10294964164495468 0.14171770215034485
			vertex -0.19002966582775116 -0.1023595929145813 0.1419879049062729
		endloop
	endfacet
	facet normal -0.9480312864329837 0.10248373279246835 0.30122045823141547
		outer loop
			vertex -0.19002966582775116 -0.1023595929145813 0.1419879049062729
			vertex -0.19017930328845978 -0.10294964164495468 0.14171770215034485
			vertex -0.1934618204832077 -0.13331474363803864 0.14171770215034485
		endloop
	endfacet
	facet normal -0.9480284117885148 0.10248333390968715 0.30122964115853873
		outer loop
			vertex -0.19002966582775116 -0.1023595929145813 0.1419879049062729
			vertex -0.1934618204832077 -0.13331474363803864 0.14171770215034485
			vertex -0.18556563556194305 -0.1215459331870079 0.16256459057331085
		endloop
	endfacet
	facet normal -0.9480285808920226 0.10248288689777767 0.30122926103709685
		outer loop
			vertex -0.19002966582775116 -0.1023595929145813 0.1419879049062729
			vertex -0.18556563556194305 -0.1215459331870079 0.16256459057331085
			vertex -0.18224439024925232 -0.1023595929145813 0.16648972034454346
		endloop
	endfacet
	facet normal -0.9496736349197661 0.1547005440192294 0.2723742440438031
		outer loop
			vertex -0.1934618204832077 -0.13331474363803864 0.14171770215034485
			vertex -0.19604894518852234 -0.1491965502500534 0.14171770215034485
			vertex -0.1869259625673294 -0.12972354888916016 0.16246625781059265
		endloop
	endfacet
	facet normal -0.9496736126139056 0.15470075876079523 0.27237419984955974
		outer loop
			vertex -0.1934618204832077 -0.13331474363803864 0.14171770215034485
			vertex -0.1869259625673294 -0.12972354888916016 0.16246625781059265
			vertex -0.18556563556194305 -0.1215459331870079 0.16256459057331085
		endloop
	endfacet
	facet normal -0.9480285563440068 0.10248286534286588 0.30122934562790254
		outer loop
			vertex -0.18224439024925232 -0.1023595929145813 0.16648972034454346
			vertex -0.18556563556194305 -0.1215459331870079 0.16256459057331085
			vertex -0.17737694084644318 -0.10934112966060638 0.1841837763786316
		endloop
	endfacet
	facet normal -0.9480288008189389 0.10248172668854662 0.30122896360200657
		outer loop
			vertex -0.18224439024925232 -0.1023595929145813 0.16648972034454346
			vertex -0.17737694084644318 -0.10934112966060638 0.1841837763786316
			vertex -0.1740320324897766 -0.1023595929145813 0.19233568012714386
		endloop
	endfacet
	facet normal -0.9496737742273718 0.15470079265203762 0.27237361710997343
		outer loop
			vertex -0.1869259625673294 -0.12972354888916016 0.16246625781059265
			vertex -0.17737694084644318 -0.10934112966060638 0.1841837763786316
			vertex -0.18556563556194305 -0.1215459331870079 0.16256459057331085
		endloop
	endfacet
	facet normal -0.8172818343513247 -0.08890731560949543 0.5693381178793909
		outer loop
			vertex -0.1590600460767746 -0.12506361305713654 0.23619616031646729
			vertex -0.17108020186424255 -0.13041190803050995 0.21810610592365265
			vertex -0.18511132895946503 -0.17015619575977325 0.19175806641578674
		endloop
	endfacet
	facet normal -0.817282242382031 -0.0889066110756573 0.5693376421720606
		outer loop
			vertex -0.1590600460767746 -0.12506361305713654 0.23619616031646729
			vertex -0.18511132895946503 -0.17015619575977325 0.19175806641578674
			vertex -0.15416336059570312 -0.17007684707641602 0.23619616031646729
		endloop
	endfacet
	facet normal -0.7853619177764715 -0.28894493027717244 0.5474645973700795
		outer loop
			vertex -0.1433200091123581 -0.19954943656921387 0.23619616031646729
			vertex -0.15416336059570312 -0.17007684707641602 0.23619616031646729
			vertex -0.18511132895946503 -0.17015619575977325 0.19175806641578674
		endloop
	endfacet
	facet normal -0.4032082405222274 -0.6601938807529028 0.6336932653827022
		outer loop
			vertex -0.11013604700565338 -0.22878801822662354 0.23619616031646729
			vertex -0.11908659338951111 -0.22332154214382172 0.23619616031646729
			vertex -0.1107044517993927 -0.23270364105701447 0.2317551225423813
		endloop
	endfacet
	facet normal -0.5924258840170252 -0.7492034577992585 0.29618533179123036
		outer loop
			vertex -0.13988617062568665 -0.20494809746742249 0.23619616031646729
			vertex -0.18943169713020325 -0.20206047594547272 0.14440013468265533
			vertex -0.18016240000724792 -0.21045054495334625 0.14171770215034485
		endloop
	endfacet
	facet normal -0.5924252949231208 -0.7492040101818342 0.29618511283099846
		outer loop
			vertex -0.13988617062568665 -0.20494809746742249 0.23619616031646729
			vertex -0.18016240000724792 -0.21045054495334625 0.14171770215034485
			vertex -0.12245607376098633 -0.256081223487854 0.14171770215034485
		endloop
	endfacet
	facet normal -0.5924257351483713 -0.7492037498797259 0.2961848907356163
		outer loop
			vertex -0.13988617062568665 -0.20494809746742249 0.23619616031646729
			vertex -0.12245607376098633 -0.256081223487854 0.14171770215034485
			vertex -0.11575598269701004 -0.24106453359127045 0.1931040734052658
		endloop
	endfacet
	facet normal -0.5924251167955155 -0.7492040143273804 0.2961854586328614
		outer loop
			vertex -0.13988617062568665 -0.20494809746742249 0.23619616031646729
			vertex -0.11575598269701004 -0.24106453359127045 0.1931040734052658
			vertex -0.13202545046806335 -0.21116387844085693 0.23619616031646729
		endloop
	endfacet
	facet normal -0.66476464808764 -0.7074792478741233 0.23991889563012947
		outer loop
			vertex -0.1107044517993927 -0.23270364105701447 0.2317551225423813
			vertex -0.11908659338951111 -0.22332154214382172 0.23619616031646729
			vertex -0.13202545046806335 -0.21116387844085693 0.23619616031646729
		endloop
	endfacet
	facet normal -0.6647638140188087 -0.7074790307593947 0.23992184687292292
		outer loop
			vertex -0.1107044517993927 -0.23270364105701447 0.2317551225423813
			vertex -0.13202545046806335 -0.21116387844085693 0.23619616031646729
			vertex -0.11575598269701004 -0.24106453359127045 0.1931040734052658
		endloop
	endfacet
	facet normal -0.6179232525433447 -0.7539621237062556 0.2229618128348591
		outer loop
			vertex -0.18016240000724792 -0.21045054495334625 0.14171770215034485
			vertex -0.18943169713020325 -0.20206047594547272 0.14440013468265533
			vertex -0.18953698873519897 -0.20276743173599243 0.14171770215034485
		endloop
	endfacet
	facet normal -0.772741420045344 -0.4915044622182283 0.4016143191743486
		outer loop
			vertex -0.1433200091123581 -0.19954943656921387 0.23619616031646729
			vertex -0.18511132895946503 -0.17015619575977325 0.19175806641578674
			vertex -0.18943169713020325 -0.20206047594547272 0.14440013468265533
		endloop
	endfacet
	facet normal -0.7727411821969303 -0.4915049234791327 0.4016142123140844
		outer loop
			vertex -0.1433200091123581 -0.19954943656921387 0.23619616031646729
			vertex -0.18943169713020325 -0.20206047594547272 0.14440013468265533
			vertex -0.13988617062568665 -0.20494809746742249 0.23619616031646729
		endloop
	endfacet
	facet normal -0.9480285761103621 0.10248017811857463 0.3012301976411804
		outer loop
			vertex -0.1740320324897766 -0.1023595929145813 0.19233568012714386
			vertex -0.17737694084644318 -0.10934112966060638 0.1841837763786316
			vertex -0.17355266213417053 -0.10364123433828354 0.19428037106990814
		endloop
	endfacet
	facet normal -0.948027624230047 0.1024834109007493 0.3012320935539256
		outer loop
			vertex -0.1740320324897766 -0.1023595929145813 0.19233568012714386
			vertex -0.17355266213417053 -0.10364123433828354 0.19428037106990814
			vertex -0.1739223748445511 -0.1023595929145813 0.19268079102039337
		endloop
	endfacet
	facet normal -0.9236176102875528 -0.37807055209836116 0.06319151527500184
		outer loop
			vertex -0.19558307528495789 -0.15293781459331512 0.14171770215034485
			vertex -0.1864864081144333 -0.16943740844726562 0.17596013844013214
			vertex -0.18511132895946503 -0.17015619575977325 0.19175806641578674
		endloop
	endfacet
	facet normal -0.9236181376434025 -0.3780691655907478 0.06319210271583463
		outer loop
			vertex -0.19558307528495789 -0.15293781459331512 0.14171770215034485
			vertex -0.18511132895946503 -0.17015619575977325 0.19175806641578674
			vertex -0.1963522732257843 -0.15105867385864258 0.14171770215034485
		endloop
	endfacet
	facet normal -0.9943500516626068 -0.06544986124563765 0.08357206723240611
		outer loop
			vertex -0.18578311800956726 -0.17491592466831207 0.18003743886947632
			vertex -0.18511132895946503 -0.17015619575977325 0.19175806641578674
			vertex -0.1864864081144333 -0.16943740844726562 0.17596013844013214
		endloop
	endfacet
	facet normal -0.992049071273486 0.1257175987913497 0.005807369417499595
		outer loop
			vertex -0.1861983686685562 -0.1781836897134781 0.1798422634601593
			vertex -0.18511132895946503 -0.17015619575977325 0.19175806641578674
			vertex -0.18578311800956726 -0.17491592466831207 0.18003743886947632
		endloop
	endfacet
	facet normal -0.9496752268160189 0.15469602622387774 0.2723712595750229
		outer loop
			vertex -0.19604894518852234 -0.1491965502500534 0.14171770215034485
			vertex -0.1963522732257843 -0.15105867385864258 0.14171770215034485
			vertex -0.18511132895946503 -0.17015619575977325 0.19175806641578674
		endloop
	endfacet
	facet normal -0.9496738106910507 0.15470134339386687 0.2723731771663127
		outer loop
			vertex -0.19604894518852234 -0.1491965502500534 0.14171770215034485
			vertex -0.18511132895946503 -0.17015619575977325 0.19175806641578674
			vertex -0.17108020186424255 -0.13041190803050995 0.21810610592365265
		endloop
	endfacet
	facet normal -0.9496738077540278 0.1547013781706481 0.2723731676543563
		outer loop
			vertex -0.19604894518852234 -0.1491965502500534 0.14171770215034485
			vertex -0.17108020186424255 -0.13041190803050995 0.21810610592365265
			vertex -0.17355266213417053 -0.10364123433828354 0.19428037106990814
		endloop
	endfacet
	facet normal -0.9496739549993995 0.1547033078901174 0.27237155821350745
		outer loop
			vertex -0.19604894518852234 -0.1491965502500534 0.14171770215034485
			vertex -0.17355266213417053 -0.10364123433828354 0.19428037106990814
			vertex -0.17737694084644318 -0.10934112966060638 0.1841837763786316
		endloop
	endfacet
	facet normal -0.9236178426778294 -0.37806992342342005 0.06319187993533408
		outer loop
			vertex -0.1894669532775879 -0.1678793877363205 0.14171770215034485
			vertex -0.1864864081144333 -0.16943740844726562 0.17596013844013214
			vertex -0.19558307528495789 -0.15293781459331512 0.14171770215034485
		endloop
	endfacet
	facet normal -0.9943500496306258 -0.06544981748673595 0.08357212567911239
		outer loop
			vertex -0.18797948956489563 -0.19047746062278748 0.14171770215034485
			vertex -0.18578311800956726 -0.17491592466831207 0.18003743886947632
			vertex -0.1864864081144333 -0.16943740844726562 0.17596013844013214
		endloop
	endfacet
	facet normal -0.9943499475075431 -0.065450690068385 0.08357265737858578
		outer loop
			vertex -0.18797948956489563 -0.19047746062278748 0.14171770215034485
			vertex -0.1864864081144333 -0.16943740844726562 0.17596013844013214
			vertex -0.1894669532775879 -0.1678793877363205 0.14171770215034485
		endloop
	endfacet
	facet normal -0.99204851519018 0.12572204578229904 0.005806092771625692
		outer loop
			vertex -0.18953698873519897 -0.20276743173599243 0.14171770215034485
			vertex -0.18943169713020325 -0.20206047594547272 0.14440013468265533
			vertex -0.1861983686685562 -0.1781836897134781 0.1798422634601593
		endloop
	endfacet
	facet normal -0.9920490741503575 0.12571749730460827 0.005809074701224466
		outer loop
			vertex -0.18953698873519897 -0.20276743173599243 0.14171770215034485
			vertex -0.1861983686685562 -0.1781836897134781 0.1798422634601593
			vertex -0.18578311800956726 -0.17491592466831207 0.18003743886947632
		endloop
	endfacet
	facet normal -0.9920485720165039 0.1257215996346952 0.005806043860437775
		outer loop
			vertex -0.18953698873519897 -0.20276743173599243 0.14171770215034485
			vertex -0.18578311800956726 -0.17491592466831207 0.18003743886947632
			vertex -0.18797948956489563 -0.19047746062278748 0.14171770215034485
		endloop
	endfacet
	facet normal -0.4032097089763634 -0.6601932972880281 0.6336929388932447
		outer loop
			vertex -0.10000000149011612 -0.2349785566329956 0.23619616031646729
			vertex -0.11013604700565338 -0.22878801822662354 0.23619616031646729
			vertex -0.1107044517993927 -0.23270364105701447 0.2317551225423813
		endloop
	endfacet
	facet normal -0.40320942773328505 -0.6601949152808968 0.6336914321846607
		outer loop
			vertex -0.10000000149011612 -0.2349785566329956 0.23619616031646729
			vertex -0.1107044517993927 -0.23270364105701447 0.2317551225423813
			vertex -0.10000000149011612 -0.2446851283311844 0.22608362138271332
		endloop
	endfacet
	facet normal -0.5924254292109763 -0.7492040509170383 0.29618474118983606
		outer loop
			vertex -0.12245607376098633 -0.256081223487854 0.14171770215034485
			vertex -0.10000000149011612 -0.2738381326198578 0.14171770215034485
			vertex -0.10000000149011612 -0.2700214684009552 0.1513720154762268
		endloop
	endfacet
	facet normal -0.5924254508936523 -0.749203964507898 0.2961849163936297
		outer loop
			vertex -0.12245607376098633 -0.256081223487854 0.14171770215034485
			vertex -0.10000000149011612 -0.2700214684009552 0.1513720154762268
			vertex -0.11575598269701004 -0.24106453359127045 0.1931040734052658
		endloop
	endfacet
	facet normal -0.6647639434024004 -0.7074789121536877 0.23992183812634643
		outer loop
			vertex -0.10000000149011612 -0.2446851283311844 0.22608362138271332
			vertex -0.1107044517993927 -0.23270364105701447 0.2317551225423813
			vertex -0.11575598269701004 -0.24106453359127045 0.1931040734052658
		endloop
	endfacet
	facet normal -0.6647636800286817 -0.707479213516095 0.23992167921505655
		outer loop
			vertex -0.10000000149011612 -0.2446851283311844 0.22608362138271332
			vertex -0.11575598269701004 -0.24106453359127045 0.1931040734052658
			vertex -0.10000000149011612 -0.2700214684009552 0.1513720154762268
		endloop
	endfacet
	facet normal 1 0 0
		outer loop
			vertex -0.10000000149011612 -0.23754450678825378 0.23352287709712982
			vertex -0.10000000149011612 -0.2446851283311844 0.22608362138271332
			vertex -0.10000000149011612 -0.25016331672668457 0.20992954075336456
		endloop
	endfacet
	facet normal 1 0 0
		outer loop
			vertex -0.10000000149011612 -0.23754450678825378 0.23352287709712982
			vertex -0.10000000149011612 -0.25016331672668457 0.20992954075336456
			vertex -0.10000000149011612 -0.2473796308040619 0.20864485204219818
		endloop
	endfacet
	facet normal 1 0 0
		outer loop
			vertex -0.10000000149011612 -0.2700214684009552 0.1513720154762268
			vertex -0.10000000149011612 -0.2473796308040619 0.20864485204219818
			vertex -0.10000000149011612 -0.25016331672668457 0.20992954075336456
		endloop
	endfacet
	facet normal 1 0 0
		outer loop
			vertex -0.10000000149011612 -0.1023595929145813 0.23619616031646729
			vertex -0.10000000149011612 -0.2349785566329956 0.23619616031646729
			vertex -0.10000000149011612 -0.23754450678825378 0.23352287709712982
		endloop
	endfacet
	facet normal 1 0 0
		outer loop
			vertex -0.10000000149011612 -0.1023595929145813 0.23619616031646729
			vertex -0.10000000149011612 -0.23754450678825378 0.23352287709712982
			vertex -0.10000000149011612 -0.2473796308040619 0.20864485204219818
		endloop
	endfacet
	facet normal 1 0 0
		outer loop
			vertex -0.10000000149011612 -0.1023595929145813 0.23619616031646729
			vertex -0.10000000149011612 -0.2473796308040619 0.20864485204219818
			vertex -0.10000000149011612 -0.11882276833057404 0.1493154913187027
		endloop
	endfacet
	facet normal 1 0 0
		outer loop
			vertex -0.10000000149011612 -0.1023595929145813 0.23619616031646729
			vertex -0.10000000149011612 -0.11882276833057404 0.1493154913187027
			vertex -0.10000000149011612 -0.1023595929145813 0.15135416388511658
		endloop
	endfacet
	facet normal 1 0 0
		outer loop
			vertex -0.10000000149011612 -0.2738381326198578 0.14171770215034485
			vertex -0.10000000149011612 -0.18017855286598206 0.14171770215034485
			vertex -0.10000000149011612 -0.11882276833057404 0.1493154913187027
		endloop
	endfacet
	facet normal 1 0 0
		outer loop
			vertex -0.10000000149011612 -0.2738381326198578 0.14171770215034485
			vertex -0.10000000149011612 -0.11882276833057404 0.1493154913187027
			vertex -0.10000000149011612 -0.2473796308040619 0.20864485204219818
		endloop
	endfacet
	facet normal 1 0 0
		outer loop
			vertex -0.10000000149011612 -0.11882276833057404 0.1493154913187027
			vertex -0.10000000149011612 -0.10703051835298538 0.14387333393096924
			vertex -0.10000000149011612 -0.10279210656881332 0.1513006091117859
		endloop
	endfacet
	facet normal 1 0 0
		outer loop
			vertex -0.10000000149011612 -0.18017855286598206 0.14171770215034485
			vertex -0.10000000149011612 -0.10826065391302109 0.14171770215034485
			vertex -0.10000000149011612 -0.10703051835298538 0.14387333393096924
		endloop
	endfacet
	facet normal 1 0 0
		outer loop
			vertex -0.10000000149011612 -0.18017855286598206 0.14171770215034485
			vertex -0.10000000149011612 -0.10703051835298538 0.14387333393096924
			vertex -0.10000000149011612 -0.11882276833057404 0.1493154913187027
		endloop
	endfacet
	facet normal 1 0 0
		outer loop
			vertex -0.10000000149011612 -0.10703051835298538 0.14387333393096924
			vertex -0.10000000149011612 -0.1023595929145813 0.14171770215034485
			vertex -0.10000000149011612 -0.1023595929145813 0.15135416388511658
		endloop
	endfacet
	facet normal 1 0 0
		outer loop
			vertex -0.10000000149011612 -0.10703051835298538 0.14387333393096924
			vertex -0.10000000149011612 -0.1023595929145813 0.15135416388511658
			vertex -0.10000000149011612 -0.10279210656881332 0.1513006091117859
		endloop
	endfacet
	facet normal 1 0 0
		outer loop
			vertex -0.10000000149011612 -0.10826065391302109 0.14171770215034485
			vertex -0.10000000149011612 -0.1023595929145813 0.14171770215034485
			vertex -0.10000000149011612 -0.10703051835298538 0.14387333393096924
		endloop
	endfacet
	facet normal 0 1 0
		outer loop
			vertex -0.16132213175296783 -0.1023595929145813 0.23619616031646729
			vertex -0.160095676779747 -0.1023595929145813 0.23619616031646729
			vertex -0.16906103491783142 -0.1023595929145813 0.20798039436340332
		endloop
	endfacet
	facet normal 0 1 0
		outer loop
			vertex -0.16132213175296783 -0.1023595929145813 0.23619616031646729
			vertex -0.16906103491783142 -0.1023595929145813 0.20798039436340332
			vertex -0.16950643062591553 -0.1023595929145813 0.20766030251979828
		endloop
	endfacet
	facet normal 0 1 0
		outer loop
			vertex -0.160095676779747 -0.1023595929145813 0.23619616031646729
			vertex -0.15009061992168427 -0.1023595929145813 0.23619616031646729
			vertex -0.16326016187667847 -0.1023595929145813 0.21214935183525085
		endloop
	endfacet
	facet normal 0 1 0
		outer loop
			vertex -0.160095676779747 -0.1023595929145813 0.23619616031646729
			vertex -0.16326016187667847 -0.1023595929145813 0.21214935183525085
			vertex -0.16906103491783142 -0.1023595929145813 0.20798039436340332
		endloop
	endfacet
	facet normal 0 1 0
		outer loop
			vertex -0.16950643062591553 -0.1023595929145813 0.20766030251979828
			vertex -0.16906103491783142 -0.1023595929145813 0.20798039436340332
			vertex -0.17269276082515717 -0.1023595929145813 0.1965506374835968
		endloop
	endfacet
	facet normal 0 1 0
		outer loop
			vertex -0.16326016187667847 -0.1023595929145813 0.21214935183525085
			vertex -0.1739223748445511 -0.1023595929145813 0.19268079102039337
			vertex -0.16906103491783142 -0.1023595929145813 0.20798039436340332
		endloop
	endfacet
	facet normal 0 1 0
		outer loop
			vertex -0.18311356008052826 -0.1023595929145813 0.14171770215034485
			vertex -0.19003921747207642 -0.1023595929145813 0.14171770215034485
			vertex -0.19002966582775116 -0.1023595929145813 0.1419879049062729
		endloop
	endfacet
	facet normal 0 1 0
		outer loop
			vertex -0.18311356008052826 -0.1023595929145813 0.14171770215034485
			vertex -0.19002966582775116 -0.1023595929145813 0.1419879049062729
			vertex -0.18224439024925232 -0.1023595929145813 0.16648972034454346
		endloop
	endfacet
	facet normal 0 1 0
		outer loop
			vertex -0.17835456132888794 -0.1023595929145813 0.1787317842245102
			vertex -0.1755821853876114 -0.1023595929145813 0.1774221509695053
			vertex -0.1792934238910675 -0.1023595929145813 0.14171770215034485
		endloop
	endfacet
	facet normal 0 1 0
		outer loop
			vertex -0.17835456132888794 -0.1023595929145813 0.1787317842245102
			vertex -0.1792934238910675 -0.1023595929145813 0.14171770215034485
			vertex -0.18311356008052826 -0.1023595929145813 0.14171770215034485
		endloop
	endfacet
	facet normal 0 1 0
		outer loop
			vertex -0.17835456132888794 -0.1023595929145813 0.1787317842245102
			vertex -0.18311356008052826 -0.1023595929145813 0.14171770215034485
			vertex -0.18224439024925232 -0.1023595929145813 0.16648972034454346
		endloop
	endfacet
	facet normal 0 1 0
		outer loop
			vertex -0.1755821853876114 -0.1023595929145813 0.1774221509695053
			vertex -0.17835456132888794 -0.1023595929145813 0.1787317842245102
			vertex -0.1740320324897766 -0.1023595929145813 0.19233568012714386
		endloop
	endfacet
	facet normal 0 1 0
		outer loop
			vertex -0.1755821853876114 -0.1023595929145813 0.1774221509695053
			vertex -0.12173077464103699 -0.1023595929145813 0.1519831418991089
			vertex -0.12308146059513092 -0.1023595929145813 0.14171770215034485
		endloop
	endfacet
	facet normal 0 1 0
		outer loop
			vertex -0.1755821853876114 -0.1023595929145813 0.1774221509695053
			vertex -0.12308146059513092 -0.1023595929145813 0.14171770215034485
			vertex -0.1792934238910675 -0.1023595929145813 0.14171770215034485
		endloop
	endfacet
	facet normal 0 1 0
		outer loop
			vertex -0.15009061992168427 -0.1023595929145813 0.23619616031646729
			vertex -0.11065039783716202 -0.1023595929145813 0.23619616031646729
			vertex -0.12173077464103699 -0.1023595929145813 0.1519831418991089
		endloop
	endfacet
	facet normal 0 1 0
		outer loop
			vertex -0.15009061992168427 -0.1023595929145813 0.23619616031646729
			vertex -0.12173077464103699 -0.1023595929145813 0.1519831418991089
			vertex -0.1755821853876114 -0.1023595929145813 0.1774221509695053
		endloop
	endfacet
	facet normal 0 1 0
		outer loop
			vertex -0.15009061992168427 -0.1023595929145813 0.23619616031646729
			vertex -0.1755821853876114 -0.1023595929145813 0.1774221509695053
			vertex -0.1740320324897766 -0.1023595929145813 0.19233568012714386
		endloop
	endfacet
	facet normal 0 1 0
		outer loop
			vertex -0.15009061992168427 -0.1023595929145813 0.23619616031646729
			vertex -0.1740320324897766 -0.1023595929145813 0.19233568012714386
			vertex -0.1739223748445511 -0.1023595929145813 0.19268079102039337
		endloop
	endfacet
	facet normal 0 1 0
		outer loop
			vertex -0.12081282585859299 -0.1023595929145813 0.15895973145961761
			vertex -0.11748106777667999 -0.1023595929145813 0.18428173661231995
			vertex -0.11423733085393906 -0.1023595929145813 0.16498832404613495
		endloop
	endfacet
	facet normal 0 1 0
		outer loop
			vertex -0.12173077464103699 -0.1023595929145813 0.1519831418991089
			vertex -0.11121568828821182 -0.1023595929145813 0.14701589941978455
			vertex -0.1103249192237854 -0.1023595929145813 0.14171770215034485
		endloop
	endfacet
	facet normal 0 1 0
		outer loop
			vertex -0.12173077464103699 -0.1023595929145813 0.1519831418991089
			vertex -0.1103249192237854 -0.1023595929145813 0.14171770215034485
			vertex -0.12308146059513092 -0.1023595929145813 0.14171770215034485
		endloop
	endfacet
	facet normal 0 1 0
		outer loop
			vertex -0.11121568828821182 -0.1023595929145813 0.14701589941978455
			vertex -0.12173077464103699 -0.1023595929145813 0.1519831418991089
			vertex -0.12081282585859299 -0.1023595929145813 0.15895973145961761
		endloop
	endfacet
	facet normal 0 1 0
		outer loop
			vertex -0.11121568828821182 -0.1023595929145813 0.14701589941978455
			vertex -0.12081282585859299 -0.1023595929145813 0.15895973145961761
			vertex -0.11423733085393906 -0.1023595929145813 0.16498832404613495
		endloop
	endfacet
	facet normal 0 1 0
		outer loop
			vertex -0.11121568828821182 -0.1023595929145813 0.14701589941978455
			vertex -0.10287503898143768 -0.1023595929145813 0.1430758386850357
			vertex -0.10334671288728714 -0.1023595929145813 0.14171770215034485
		endloop
	endfacet
	facet normal 0 1 0
		outer loop
			vertex -0.11121568828821182 -0.1023595929145813 0.14701589941978455
			vertex -0.10334671288728714 -0.1023595929145813 0.14171770215034485
			vertex -0.1103249192237854 -0.1023595929145813 0.14171770215034485
		endloop
	endfacet
	facet normal 0 1 0
		outer loop
			vertex -0.11065039783716202 -0.1023595929145813 0.23619616031646729
			vertex -0.10000000149011612 -0.1023595929145813 0.23619616031646729
			vertex -0.10000000149011612 -0.1023595929145813 0.15135416388511658
		endloop
	endfacet
	facet normal 0 1 0
		outer loop
			vertex -0.11065039783716202 -0.1023595929145813 0.23619616031646729
			vertex -0.10000000149011612 -0.1023595929145813 0.15135416388511658
			vertex -0.10287503898143768 -0.1023595929145813 0.1430758386850357
		endloop
	endfacet
	facet normal 0 1 0
		outer loop
			vertex -0.11065039783716202 -0.1023595929145813 0.23619616031646729
			vertex -0.10287503898143768 -0.1023595929145813 0.1430758386850357
			vertex -0.11121568828821182 -0.1023595929145813 0.14701589941978455
		endloop
	endfacet
	facet normal 0 1 0
		outer loop
			vertex -0.11065039783716202 -0.1023595929145813 0.23619616031646729
			vertex -0.11121568828821182 -0.1023595929145813 0.14701589941978455
			vertex -0.11748106777667999 -0.1023595929145813 0.18428173661231995
		endloop
	endfacet
	facet normal 0 1 0
		outer loop
			vertex -0.10287503898143768 -0.1023595929145813 0.1430758386850357
			vertex -0.10000000149011612 -0.1023595929145813 0.14171770215034485
			vertex -0.10334671288728714 -0.1023595929145813 0.14171770215034485
		endloop
	endfacet
	facet normal 0 1 0
		outer loop
			vertex -0.10000000149011612 -0.1023595929145813 0.15135416388511658
			vertex -0.10000000149011612 -0.1023595929145813 0.14171770215034485
			vertex -0.10287503898143768 -0.1023595929145813 0.1430758386850357
		endloop
	endfacet
	facet normal 0 0 1
		outer loop
			vertex -0.160095676779747 -0.1023595929145813 0.23619616031646729
			vertex -0.16132213175296783 -0.1023595929145813 0.23619616031646729
			vertex -0.1614466905593872 -0.10312425345182419 0.23619616031646729
		endloop
	endfacet
	facet normal 0 0 1
		outer loop
			vertex -0.160095676779747 -0.1023595929145813 0.23619616031646729
			vertex -0.1614466905593872 -0.10312425345182419 0.23619616031646729
			vertex -0.16081051528453827 -0.10897235572338104 0.23619616031646729
		endloop
	endfacet
	facet normal 0 0 1
		outer loop
			vertex -0.1590600460767746 -0.12506361305713654 0.23619616031646729
			vertex -0.15009061992168427 -0.1023595929145813 0.23619616031646729
			vertex -0.160095676779747 -0.1023595929145813 0.23619616031646729
		endloop
	endfacet
	facet normal 0 0 1
		outer loop
			vertex -0.1590600460767746 -0.12506361305713654 0.23619616031646729
			vertex -0.160095676779747 -0.1023595929145813 0.23619616031646729
			vertex -0.16081051528453827 -0.10897235572338104 0.23619616031646729
		endloop
	endfacet
	facet normal 0 0 1
		outer loop
			vertex -0.11908659338951111 -0.22332154214382172 0.23619616031646729
			vertex -0.11013604700565338 -0.22878801822662354 0.23619616031646729
			vertex -0.11013733595609665 -0.22847169637680054 0.23619616031646729
		endloop
	endfacet
	facet normal 0 0 1
		outer loop
			vertex -0.11908659338951111 -0.22332154214382172 0.23619616031646729
			vertex -0.11013733595609665 -0.22847169637680054 0.23619616031646729
			vertex -0.13202545046806335 -0.21116387844085693 0.23619616031646729
		endloop
	endfacet
	facet normal 0 0 1
		outer loop
			vertex -0.1553649753332138 -0.159030944108963 0.23619616031646729
			vertex -0.11060623079538345 -0.1132160872220993 0.23619616031646729
			vertex -0.11065039783716202 -0.1023595929145813 0.23619616031646729
		endloop
	endfacet
	facet normal 0 0 1
		outer loop
			vertex -0.1553649753332138 -0.159030944108963 0.23619616031646729
			vertex -0.11065039783716202 -0.1023595929145813 0.23619616031646729
			vertex -0.15009061992168427 -0.1023595929145813 0.23619616031646729
		endloop
	endfacet
	facet normal 0 0 1
		outer loop
			vertex -0.1553649753332138 -0.159030944108963 0.23619616031646729
			vertex -0.15009061992168427 -0.1023595929145813 0.23619616031646729
			vertex -0.1590600460767746 -0.12506361305713654 0.23619616031646729
		endloop
	endfacet
	facet normal 0 0 1
		outer loop
			vertex -0.11060623079538345 -0.1132160872220993 0.23619616031646729
			vertex -0.1553649753332138 -0.159030944108963 0.23619616031646729
			vertex -0.15416336059570312 -0.17007684707641602 0.23619616031646729
		endloop
	endfacet
	facet normal 0 0 1
		outer loop
			vertex -0.11060623079538345 -0.1132160872220993 0.23619616031646729
			vertex -0.15416336059570312 -0.17007684707641602 0.23619616031646729
			vertex -0.1433200091123581 -0.19954943656921387 0.23619616031646729
		endloop
	endfacet
	facet normal 0 0 1
		outer loop
			vertex -0.11060623079538345 -0.1132160872220993 0.23619616031646729
			vertex -0.1433200091123581 -0.19954943656921387 0.23619616031646729
			vertex -0.13988617062568665 -0.20494809746742249 0.23619616031646729
		endloop
	endfacet
	facet normal 0 0 1
		outer loop
			vertex -0.11060623079538345 -0.1132160872220993 0.23619616031646729
			vertex -0.13988617062568665 -0.20494809746742249 0.23619616031646729
			vertex -0.11013733595609665 -0.22847169637680054 0.23619616031646729
		endloop
	endfacet
	facet normal 0 0 1
		outer loop
			vertex -0.11013733595609665 -0.22847169637680054 0.23619616031646729
			vertex -0.11013604700565338 -0.22878801822662354 0.23619616031646729
			vertex -0.10838422924280167 -0.22985795140266418 0.23619616031646729
		endloop
	endfacet
	facet normal 0 0 1
		outer loop
			vertex -0.11060623079538345 -0.1132160872220993 0.23619616031646729
			vertex -0.10000000149011612 -0.1023595929145813 0.23619616031646729
			vertex -0.11065039783716202 -0.1023595929145813 0.23619616031646729
		endloop
	endfacet
	facet normal 0 0 1
		outer loop
			vertex -0.10000000149011612 -0.2349785566329956 0.23619616031646729
			vertex -0.10000000149011612 -0.1023595929145813 0.23619616031646729
			vertex -0.11060623079538345 -0.1132160872220993 0.23619616031646729
		endloop
	endfacet
	facet normal 0 0 1
		outer loop
			vertex -0.10000000149011612 -0.2349785566329956 0.23619616031646729
			vertex -0.11060623079538345 -0.1132160872220993 0.23619616031646729
			vertex -0.11013733595609665 -0.22847169637680054 0.23619616031646729
		endloop
	endfacet
	facet normal 0 0 1
		outer loop
			vertex -0.10000000149011612 -0.2349785566329956 0.23619616031646729
			vertex -0.11013733595609665 -0.22847169637680054 0.23619616031646729
			vertex -0.10838422924280167 -0.22985795140266418 0.23619616031646729
		endloop
	endfacet
	facet normal 0 0 -1
		outer loop
			vertex -0.1934618204832077 -0.13331474363803864 0.14171770215034485
			vertex -0.19480177760124207 -0.14571034908294678 0.14171770215034485
			vertex -0.19604894518852234 -0.1491965502500534 0.14171770215034485
		endloop
	endfacet
	facet normal 0 0 -1
		outer loop
			vertex -0.19017930328845978 -0.10294964164495468 0.14171770215034485
			vertex -0.19003921747207642 -0.1023595929145813 0.14171770215034485
			vertex -0.18311356008052826 -0.1023595929145813 0.14171770215034485
		endloop
	endfacet
	facet normal 0 0 -1
		outer loop
			vertex -0.19017930328845978 -0.10294964164495468 0.14171770215034485
			vertex -0.18311356008052826 -0.1023595929145813 0.14171770215034485
			vertex -0.1864181011915207 -0.12227535247802734 0.14171770215034485
		endloop
	endfacet
	facet normal 0 0 -1
		outer loop
			vertex -0.19017930328845978 -0.10294964164495468 0.14171770215034485
			vertex -0.1864181011915207 -0.12227535247802734 0.14171770215034485
			vertex -0.19480177760124207 -0.14571034908294678 0.14171770215034485
		endloop
	endfacet
	facet normal 0 0 -1
		outer loop
			vertex -0.18311356008052826 -0.1023595929145813 0.14171770215034485
			vertex -0.1792934238910675 -0.1023595929145813 0.14171770215034485
			vertex -0.1864181011915207 -0.12227535247802734 0.14171770215034485
		endloop
	endfacet
	facet normal 0 0 -1
		outer loop
			vertex -0.19604894518852234 -0.1491965502500534 0.14171770215034485
			vertex -0.19480177760124207 -0.14571034908294678 0.14171770215034485
			vertex -0.19558307528495789 -0.15293781459331512 0.14171770215034485
		endloop
	endfacet
	facet normal 0 0 -1
		outer loop
			vertex -0.19604894518852234 -0.1491965502500534 0.14171770215034485
			vertex -0.19558307528495789 -0.15293781459331512 0.14171770215034485
			vertex -0.1963522732257843 -0.15105867385864258 0.14171770215034485
		endloop
	endfacet
	facet normal 0 0 -1
		outer loop
			vertex -0.18703559041023254 -0.2048175036907196 0.14171770215034485
			vertex -0.18953698873519897 -0.20276743173599243 0.14171770215034485
			vertex -0.18797948956489563 -0.19047746062278748 0.14171770215034485
		endloop
	endfacet
	facet normal 0 0 -1
		outer loop
			vertex -0.16815435886383057 -0.2199457734823227 0.14171770215034485
			vertex -0.18016240000724792 -0.21045054495334625 0.14171770215034485
			vertex -0.18703559041023254 -0.2048175036907196 0.14171770215034485
		endloop
	endfacet
	facet normal 0 0 -1
		outer loop
			vertex -0.16815435886383057 -0.2199457734823227 0.14171770215034485
			vertex -0.18703559041023254 -0.2048175036907196 0.14171770215034485
			vertex -0.1894669532775879 -0.1678793877363205 0.14171770215034485
		endloop
	endfacet
	facet normal 0 0 -1
		outer loop
			vertex -0.19480177760124207 -0.14571034908294678 0.14171770215034485
			vertex -0.1792934238910675 -0.1023595929145813 0.14171770215034485
			vertex -0.12308146059513092 -0.1023595929145813 0.14171770215034485
		endloop
	endfacet
	facet normal 0 0 -1
		outer loop
			vertex -0.19480177760124207 -0.14571034908294678 0.14171770215034485
			vertex -0.12308146059513092 -0.1023595929145813 0.14171770215034485
			vertex -0.12245607376098633 -0.256081223487854 0.14171770215034485
		endloop
	endfacet
	facet normal 0 0 -1
		outer loop
			vertex -0.19480177760124207 -0.14571034908294678 0.14171770215034485
			vertex -0.12245607376098633 -0.256081223487854 0.14171770215034485
			vertex -0.16815435886383057 -0.2199457734823227 0.14171770215034485
		endloop
	endfacet
	facet normal 0 0 -1
		outer loop
			vertex -0.19480177760124207 -0.14571034908294678 0.14171770215034485
			vertex -0.16815435886383057 -0.2199457734823227 0.14171770215034485
			vertex -0.19558307528495789 -0.15293781459331512 0.14171770215034485
		endloop
	endfacet
	facet normal 0 0 -1
		outer loop
			vertex -0.12299063801765442 -0.12468525767326355 0.14171770215034485
			vertex -0.12308146059513092 -0.1023595929145813 0.14171770215034485
			vertex -0.1103249192237854 -0.1023595929145813 0.14171770215034485
		endloop
	endfacet
	facet normal 0 0 -1
		outer loop
			vertex -0.10000000149011612 -0.18017855286598206 0.14171770215034485
			vertex -0.10000000149011612 -0.2738381326198578 0.14171770215034485
			vertex -0.12245607376098633 -0.256081223487854 0.14171770215034485
		endloop
	endfacet
	facet normal 0 0 -1
		outer loop
			vertex -0.10000000149011612 -0.18017855286598206 0.14171770215034485
			vertex -0.12245607376098633 -0.256081223487854 0.14171770215034485
			vertex -0.12299063801765442 -0.12468525767326355 0.14171770215034485
		endloop
	endfacet
	facet normal 0 0 -1
		outer loop
			vertex -0.10000000149011612 -0.18017855286598206 0.14171770215034485
			vertex -0.12299063801765442 -0.12468525767326355 0.14171770215034485
			vertex -0.1103249192237854 -0.1023595929145813 0.14171770215034485
		endloop
	endfacet
	facet normal 0 0 -1
		outer loop
			vertex -0.10000000149011612 -0.18017855286598206 0.14171770215034485
			vertex -0.1103249192237854 -0.1023595929145813 0.14171770215034485
			vertex -0.10334671288728714 -0.1023595929145813 0.14171770215034485
		endloop
	endfacet
	facet normal 0 0 -1
		outer loop
			vertex -0.10000000149011612 -0.10826065391302109 0.14171770215034485
			vertex -0.10000000149011612 -0.18017855286598206 0.14171770215034485
			vertex -0.10312933474779129 -0.10741431266069412 0.14171770215034485
		endloop
	endfacet
	facet normal 0 0 -1
		outer loop
			vertex -0.10000000149011612 -0.1023595929145813 0.14171770215034485
			vertex -0.10000000149011612 -0.10826065391302109 0.14171770215034485
			vertex -0.10312933474779129 -0.10741431266069412 0.14171770215034485
		endloop
	endfacet
	facet normal 0 0 -1
		outer loop
			vertex -0.10000000149011612 -0.1023595929145813 0.14171770215034485
			vertex -0.10312933474779129 -0.10741431266069412 0.14171770215034485
			vertex -0.10334671288728714 -0.1023595929145813 0.14171770215034485
		endloop
	endfacet
endsolid exported
