solid exported
	facet normal -0.7993702703910031 0.3821330797872573 0.4636609538739706
		outer loop
			vertex -0.10000000149011612 0.1023595854640007 0.18340374529361725
			vertex -0.10425668954849243 0.1023595854640007 0.17606504261493683
			vertex -0.10000000149011612 0.09874986857175827 0.18637874722480774
		endloop
	endfacet
	facet normal 1 0 0
		outer loop
			vertex -0.10000000149011612 0.09874986857175827 0.18637874722480774
			vertex -0.10000000149011612 0.10081856697797775 0.1810951828956604
			vertex -0.10000000149011612 0.1023595854640007 0.17998358607292175
		endloop
	endfacet
	facet normal 1 0 0
		outer loop
			vertex -0.10000000149011612 0.09874986857175827 0.18637874722480774
			vertex -0.10000000149011612 0.1023595854640007 0.17998358607292175
			vertex -0.10000000149011612 0.1023595854640007 0.18340374529361725
		endloop
	endfacet
	facet normal 1 0 0
		outer loop
			vertex -0.10000000149011612 0.10081856697797775 0.1810951828956604
			vertex -0.10000000149011612 0.1023595854640007 0.177159383893013
			vertex -0.10000000149011612 0.1023595854640007 0.17998358607292175
		endloop
	endfacet
	facet normal -0.35791470124914226 0.8201558329853079 0.44636473455002385
		outer loop
			vertex -0.14236532151699066 -0.05016079917550087 0.23619616031646729
			vertex -0.161847785115242 -0.043702226132154465 0.20870721340179443
			vertex -0.1547340303659439 -0.05555848404765129 0.23619616031646729
		endloop
	endfacet
	facet normal -0.7135279611926006 0.30367171757449424 0.6313963387141927
		outer loop
			vertex -0.161847785115242 -0.043702226132154465 0.20870721340179443
			vertex -0.10608766227960587 0.030160386115312576 0.23619616031646729
			vertex -0.10309907793998718 0.03718256950378418 0.23619616031646729
		endloop
	endfacet
	facet normal -0.7135280494489926 0.3036718347212409 0.6313961826353968
		outer loop
			vertex -0.161847785115242 -0.043702226132154465 0.20870721340179443
			vertex -0.10309907793998718 0.03718256950378418 0.23619616031646729
			vertex -0.16275323927402496 -0.034277331084012985 0.20315104722976685
		endloop
	endfacet
	facet normal 0.9575253249018272 -0.07253166213069713 -0.27907778514279596
		outer loop
			vertex -0.15402597188949585 -0.046211063861846924 0.23619616031646729
			vertex -0.1547340303659439 -0.05555848404765129 0.23619616031646729
			vertex -0.161847785115242 -0.043702226132154465 0.20870721340179443
		endloop
	endfacet
	facet normal 0.9575252832490152 -0.07253210284659525 -0.279077813513623
		outer loop
			vertex -0.15402597188949585 -0.046211063861846924 0.23619616031646729
			vertex -0.161847785115242 -0.043702226132154465 0.20870721340179443
			vertex -0.16275323927402496 -0.034277331084012985 0.20315104722976685
		endloop
	endfacet
	facet normal 0.957525142232616 -0.07253294188823316 -0.2790780792779087
		outer loop
			vertex -0.15402597188949585 -0.046211063861846924 0.23619616031646729
			vertex -0.16275323927402496 -0.034277331084012985 0.20315104722976685
			vertex -0.16201741993427277 -0.017969412729144096 0.20143720507621765
		endloop
	endfacet
	facet normal -0.46053280413321773 0.7341765414584136 0.4988931170996023
		outer loop
			vertex -0.13950923085212708 -0.048369236290454865 0.23619616031646729
			vertex -0.161847785115242 -0.043702226132154465 0.20870721340179443
			vertex -0.14236532151699066 -0.05016079917550087 0.23619616031646729
		endloop
	endfacet
	facet normal -0.9480291153272495 0.10248150368741646 0.3012280496464414
		outer loop
			vertex -0.15505139529705048 -0.05569698289036751 0.23619616031646729
			vertex -0.15402597188949585 -0.046211063861846924 0.23619616031646729
			vertex -0.16201741993427277 -0.017969412729144096 0.20143720507621765
		endloop
	endfacet
	facet normal -0.9480285563279598 0.10248281632006677 0.3012293623567134
		outer loop
			vertex -0.15505139529705048 -0.05569698289036751 0.23619616031646729
			vertex -0.16201741993427277 -0.017969412729144096 0.20143720507621765
			vertex -0.1634480208158493 -0.03510962054133415 0.20276618003845215
		endloop
	endfacet
	facet normal -0.948028679282993 0.10248237926472566 0.3012291240852804
		outer loop
			vertex -0.15505139529705048 -0.05569698289036751 0.23619616031646729
			vertex -0.1634480208158493 -0.03510962054133415 0.20276618003845215
			vertex -0.16286568343639374 -0.04345591366291046 0.20743843913078308
		endloop
	endfacet
	facet normal -0.6696851086837691 0.24459154551911433 0.701210974720005
		outer loop
			vertex -0.10608766227960587 0.030160386115312576 0.23619616031646729
			vertex -0.15443003177642822 -0.033876318484544754 0.212364062666893
			vertex -0.13687436282634735 -0.04133705422282219 0.23173284530639648
		endloop
	endfacet
	facet normal -0.6696847172440875 0.24459134935681398 0.7012114169845779
		outer loop
			vertex -0.10608766227960587 0.030160386115312576 0.23619616031646729
			vertex -0.13687436282634735 -0.04133705422282219 0.23173284530639648
			vertex -0.13203348219394684 -0.04087859019637108 0.23619616031646729
		endloop
	endfacet
	facet normal -0.6646917350416252 0.28167079730407113 0.6919873259774654
		outer loop
			vertex -0.1329522728919983 -0.04304676875472069 0.23619616031646729
			vertex -0.13203348219394684 -0.04087859019637108 0.23619616031646729
			vertex -0.13687436282634735 -0.04133705422282219 0.23173284530639648
		endloop
	endfacet
	facet normal -0.6696850419331841 0.24459171479758604 0.7012109794229735
		outer loop
			vertex -0.15443003177642822 -0.033876318484544754 0.212364062666893
			vertex -0.161847785115242 -0.043702226132154465 0.20870721340179443
			vertex -0.13687436282634735 -0.04133705422282219 0.23173284530639648
		endloop
	endfacet
	facet normal -0.6646920886713396 0.28167064172469813 0.6919870496245785
		outer loop
			vertex -0.161847785115242 -0.043702226132154465 0.20870721340179443
			vertex -0.13365034759044647 -0.04469409957528114 0.23619616031646729
			vertex -0.1329522728919983 -0.04304676875472069 0.23619616031646729
		endloop
	endfacet
	facet normal -0.6646923171680883 0.2816694421644776 0.69198731841593
		outer loop
			vertex -0.161847785115242 -0.043702226132154465 0.20870721340179443
			vertex -0.1329522728919983 -0.04304676875472069 0.23619616031646729
			vertex -0.13687436282634735 -0.04133705422282219 0.23173284530639648
		endloop
	endfacet
	facet normal -0.46053190373306185 0.7341774936184915 0.4988925470560487
		outer loop
			vertex -0.13365034759044647 -0.04469409957528114 0.23619616031646729
			vertex -0.161847785115242 -0.043702226132154465 0.20870721340179443
			vertex -0.13950923085212708 -0.048369236290454865 0.23619616031646729
		endloop
	endfacet
	facet normal -0.9480289786853241 0.10248191861681334 0.30122833852325126
		outer loop
			vertex -0.1634480208158493 -0.03510962054133415 0.20276618003845215
			vertex -0.16399675607681274 -0.041684094816446304 0.2032759189605713
			vertex -0.16286568343639374 -0.04345591366291046 0.20743843913078308
		endloop
	endfacet
	facet normal -0.9480286789078117 0.1024830928249277 0.3012288825019054
		outer loop
			vertex -0.16854505240917206 -0.09617768973112106 0.20750108361244202
			vertex -0.15767623484134674 -0.07997828722000122 0.23619616031646729
			vertex -0.15505139529705048 -0.05569698289036751 0.23619616031646729
		endloop
	endfacet
	facet normal -0.9480286022646649 0.10248283383244984 0.30122921182676915
		outer loop
			vertex -0.16854505240917206 -0.09617768973112106 0.20750108361244202
			vertex -0.15505139529705048 -0.05569698289036751 0.23619616031646729
			vertex -0.16399675607681274 -0.041684094816446304 0.2032759189605713
		endloop
	endfacet
	facet normal -0.9496738752536783 0.15470117108880888 0.27237304992310135
		outer loop
			vertex -0.16132213175296783 -0.1023595854640007 0.23619616031646729
			vertex -0.15767623484134674 -0.07997828722000122 0.23619616031646729
			vertex -0.16854505240917206 -0.09617768973112106 0.20750108361244202
		endloop
	endfacet
	facet normal -0.949673807501785 0.1547014943962219 0.2723731025204923
		outer loop
			vertex -0.16132213175296783 -0.1023595854640007 0.23619616031646729
			vertex -0.16854505240917206 -0.09617768973112106 0.20750108361244202
			vertex -0.16950641572475433 -0.1023595854640007 0.20766030251979828
		endloop
	endfacet
	facet normal -0.7135275507981534 0.30367203643137736 0.6313966491371401
		outer loop
			vertex -0.10309907793998718 0.03718256950378418 0.23619616031646729
			vertex -0.10000000149011612 0.044464360922575 0.23619616031646729
			vertex -0.10000000149011612 0.04866411164402962 0.23417627811431885
		endloop
	endfacet
	facet normal -0.7135280877046725 0.30367207163227733 0.6313960254603085
		outer loop
			vertex -0.10309907793998718 0.03718256950378418 0.23619616031646729
			vertex -0.10000000149011612 0.04866411164402962 0.23417627811431885
			vertex -0.16550348699092865 -0.005649717524647713 0.18627451360225677
		endloop
	endfacet
	facet normal -0.7135280504531497 0.30367183647410545 0.6313961806575739
		outer loop
			vertex -0.10309907793998718 0.03718256950378418 0.23619616031646729
			vertex -0.16550348699092865 -0.005649717524647713 0.18627451360225677
			vertex -0.16275323927402496 -0.034277331084012985 0.20315104722976685
		endloop
	endfacet
	facet normal 0.9575250278668389 -0.07253297700631708 -0.2790784625427236
		outer loop
			vertex -0.16275323927402496 -0.034277331084012985 0.20315104722976685
			vertex -0.16550348699092865 -0.005649717524647713 0.18627451360225677
			vertex -0.16201741993427277 -0.017969412729144096 0.20143720507621765
		endloop
	endfacet
	facet normal -0.9480285502330394 0.10248281727348692 0.301229381214268
		outer loop
			vertex -0.16550348699092865 -0.005649717524647713 0.18627451360225677
			vertex -0.1634480208158493 -0.03510962054133415 0.20276618003845215
			vertex -0.16201741993427277 -0.017969412729144096 0.20143720507621765
		endloop
	endfacet
	facet normal -0.7415345039815052 0.5137440319334926 0.4315016211529475
		outer loop
			vertex -0.16550348699092865 -0.005649717524647713 0.18627451360225677
			vertex -0.10000000149011612 0.04866411164402962 0.23417627811431885
			vertex -0.10000000149011612 0.054878152906894684 0.22677786648273468
		endloop
	endfacet
	facet normal -0.7415345504725331 0.5137445424163827 0.4315009334785729
		outer loop
			vertex -0.16550348699092865 -0.005649717524647713 0.18627451360225677
			vertex -0.10000000149011612 0.054878152906894684 0.22677786648273468
			vertex -0.16187399625778198 0.021821796894073486 0.15980423986911774
		endloop
	endfacet
	facet normal -0.9859216820932124 0.16359028175540122 0.03459272313188692
		outer loop
			vertex -0.16955791413784027 -0.02066287212073803 0.14171770215034485
			vertex -0.17007684707641602 -0.02411685697734356 0.14326170086860657
			vertex -0.16550348699092865 -0.005649717524647713 0.18627451360225677
		endloop
	endfacet
	facet normal -0.985921683430052 0.16359027305278467 0.03459272618582732
		outer loop
			vertex -0.16955791413784027 -0.02066287212073803 0.14171770215034485
			vertex -0.16550348699092865 -0.005649717524647713 0.18627451360225677
			vertex -0.16187399625778198 0.021821796894073486 0.15980423986911774
		endloop
	endfacet
	facet normal -0.9859217991522999 0.1635888665666475 0.03459607913812829
		outer loop
			vertex -0.16955791413784027 -0.02066287212073803 0.14171770215034485
			vertex -0.16187399625778198 0.021821796894073486 0.15980423986911774
			vertex -0.16879430413246155 -0.01606072671711445 0.14171770215034485
		endloop
	endfacet
	facet normal -0.9723778297926925 0.23087114430374836 0.03434924825278501
		outer loop
			vertex -0.18249396979808807 -0.07264532148838043 0.15559503436088562
			vertex -0.16550348699092865 -0.005649717524647713 0.18627451360225677
			vertex -0.17347095906734467 -0.03281937167048454 0.14334186911582947
		endloop
	endfacet
	facet normal -0.948028405169073 0.10248259670657328 0.3012299127989484
		outer loop
			vertex -0.16550348699092865 -0.005649717524647713 0.18627451360225677
			vertex -0.18249396979808807 -0.07264532148838043 0.15559503436088562
			vertex -0.17912335693836212 -0.08432983607053757 0.17017823457717896
		endloop
	endfacet
	facet normal -0.930330649022153 0.3623212018046178 -0.05664124127238885
		outer loop
			vertex -0.17347095906734467 -0.03281937167048454 0.14334186911582947
			vertex -0.16550348699092865 -0.005649717524647713 0.18627451360225677
			vertex -0.17007684707641602 -0.02411685697734356 0.14326170086860657
		endloop
	endfacet
	facet normal -0.9480286519971322 0.10248281343840773 0.30122906224706986
		outer loop
			vertex -0.16550348699092865 -0.005649717524647713 0.18627451360225677
			vertex -0.17912335693836212 -0.08432983607053757 0.17017823457717896
			vertex -0.1739223748445511 -0.1023595854640007 0.19268077611923218
		endloop
	endfacet
	facet normal -0.9480276040788319 0.10248293787532202 0.3012323179026323
		outer loop
			vertex -0.16550348699092865 -0.005649717524647713 0.18627451360225677
			vertex -0.1739223748445511 -0.1023595854640007 0.19268077611923218
			vertex -0.17269273102283478 -0.1023595854640007 0.1965506672859192
		endloop
	endfacet
	facet normal -0.9480287336461566 0.10248265435381146 0.3012288594040454
		outer loop
			vertex -0.16550348699092865 -0.005649717524647713 0.18627451360225677
			vertex -0.17269273102283478 -0.1023595854640007 0.1965506672859192
			vertex -0.16854505240917206 -0.09617768973112106 0.20750108361244202
		endloop
	endfacet
	facet normal -0.9480285990659651 0.10248274214141999 0.30122925308840603
		outer loop
			vertex -0.16550348699092865 -0.005649717524647713 0.18627451360225677
			vertex -0.16854505240917206 -0.09617768973112106 0.20750108361244202
			vertex -0.1634480208158493 -0.03510962054133415 0.20276618003845215
		endloop
	endfacet
	facet normal -0.9496739406323029 0.15470150301825927 0.27237263344140317
		outer loop
			vertex -0.16950641572475433 -0.1023595854640007 0.20766030251979828
			vertex -0.16854505240917206 -0.09617768973112106 0.20750108361244202
			vertex -0.17269273102283478 -0.1023595854640007 0.1965506672859192
		endloop
	endfacet
	facet normal 1 0 0
		outer loop
			vertex -0.10000000149011612 0.044464360922575 0.23619616031646729
			vertex -0.10000000149011612 0.02443317510187626 0.23619616031646729
			vertex -0.10000000149011612 0.04271562770009041 0.22300803661346436
		endloop
	endfacet
	facet normal 1 0 0
		outer loop
			vertex -0.10000000149011612 0.044464360922575 0.23619616031646729
			vertex -0.10000000149011612 0.04271562770009041 0.22300803661346436
			vertex -0.10000000149011612 0.054878152906894684 0.22677786648273468
		endloop
	endfacet
	facet normal 1 0 0
		outer loop
			vertex -0.10000000149011612 0.044464360922575 0.23619616031646729
			vertex -0.10000000149011612 0.054878152906894684 0.22677786648273468
			vertex -0.10000000149011612 0.04866411164402962 0.23417627811431885
		endloop
	endfacet
	facet normal -0.653415447811394 0.7569496187341318 0.008690642075720626
		outer loop
			vertex -0.11475590616464615 0.1023595854640007 0.15304015576839447
			vertex -0.124087855219841 0.09443403780460358 0.14171770215034485
			vertex -0.1306941658258438 0.0887313261628151 0.14171770215034485
		endloop
	endfacet
	facet normal -0.653415458839425 0.7569496089003673 0.008690669435930918
		outer loop
			vertex -0.11475590616464615 0.1023595854640007 0.15304015576839447
			vertex -0.1306941658258438 0.0887313261628151 0.14171770215034485
			vertex -0.11468888074159622 0.1023595854640007 0.15807951986789703
		endloop
	endfacet
	facet normal -0.7993703490666325 0.3821329366112546 0.46366093623460336
		outer loop
			vertex -0.10000000149011612 0.09874986857175827 0.18637874722480774
			vertex -0.10425668954849243 0.1023595854640007 0.17606504261493683
			vertex -0.11468888074159622 0.1023595854640007 0.15807951986789703
		endloop
	endfacet
	facet normal -0.7993701727408024 0.38213335219112776 0.46366089772107344
		outer loop
			vertex -0.10000000149011612 0.09874986857175827 0.18637874722480774
			vertex -0.11468888074159622 0.1023595854640007 0.15807951986789703
			vertex -0.1306941658258438 0.0887313261628151 0.14171770215034485
		endloop
	endfacet
	facet normal -0.7993702821401731 0.3821329124149942 0.46366107156022335
		outer loop
			vertex -0.10000000149011612 0.09874986857175827 0.18637874722480774
			vertex -0.1306941658258438 0.0887313261628151 0.14171770215034485
			vertex -0.14104725420475006 0.06707406789064407 0.14171770215034485
		endloop
	endfacet
	facet normal -0.7993702839917163 0.38213286982832895 0.4636611034664959
		outer loop
			vertex -0.10000000149011612 0.09874986857175827 0.18637874722480774
			vertex -0.14104725420475006 0.06707406789064407 0.14171770215034485
			vertex -0.10000000149011612 0.0664534792304039 0.21299627423286438
		endloop
	endfacet
	facet normal -0.7415341356670637 0.5137452220753316 0.43150083712000975
		outer loop
			vertex -0.10000000149011612 0.054878152906894684 0.22677786648273468
			vertex -0.10000000149011612 0.0664534792304039 0.21299627423286438
			vertex -0.14104725420475006 0.06707406789064407 0.14171770215034485
		endloop
	endfacet
	facet normal -0.7415346211582642 0.513744421014389 0.4315009565461704
		outer loop
			vertex -0.10000000149011612 0.054878152906894684 0.22677786648273468
			vertex -0.14104725420475006 0.06707406789064407 0.14171770215034485
			vertex -0.1593940407037735 0.040592461824417114 0.14171770215034485
		endloop
	endfacet
	facet normal -0.7415345185010488 0.5137446636170447 0.43150084412017925
		outer loop
			vertex -0.10000000149011612 0.054878152906894684 0.22677786648273468
			vertex -0.1593940407037735 0.040592461824417114 0.14171770215034485
			vertex -0.16187399625778198 0.021821796894073486 0.15980423986911774
		endloop
	endfacet
	facet normal -0.985921616382201 0.1635906641828095 0.03459278743517702
		outer loop
			vertex -0.16187399625778198 0.021821796894073486 0.15980423986911774
			vertex -0.1593940407037735 0.040592461824417114 0.14171770215034485
			vertex -0.16241760551929474 0.02237016335129738 0.14171770215034485
		endloop
	endfacet
	facet normal -0.9859217733334507 0.16358972330722796 0.03459276362606203
		outer loop
			vertex -0.16187399625778198 0.021821796894073486 0.15980423986911774
			vertex -0.16241760551929474 0.02237016335129738 0.14171770215034485
			vertex -0.16496548056602478 0.004898605402559042 0.15172447264194489
		endloop
	endfacet
	facet normal 1 0 0
		outer loop
			vertex -0.10000000149011612 0.054878152906894684 0.22677786648273468
			vertex -0.10000000149011612 0.051138151437044144 0.2256186306476593
			vertex -0.10000000149011612 0.0664534792304039 0.21299627423286438
		endloop
	endfacet
	facet normal -0.9859216162755202 0.16359040844497147 0.03459399984785618
		outer loop
			vertex -0.16241760551929474 0.02237016335129738 0.14171770215034485
			vertex -0.16879430413246155 -0.01606072671711445 0.14171770215034485
			vertex -0.16496548056602478 0.004898605402559042 0.15172447264194489
		endloop
	endfacet
	facet normal 1 0 0
		outer loop
			vertex -0.10000000149011612 0.04271562770009041 0.22300803661346436
			vertex -0.10000000149011612 0.10081856697797775 0.1810951828956604
			vertex -0.10000000149011612 0.09874986857175827 0.18637874722480774
		endloop
	endfacet
	facet normal 1 0 0
		outer loop
			vertex -0.10000000149011612 0.04271562770009041 0.22300803661346436
			vertex -0.10000000149011612 0.09874986857175827 0.18637874722480774
			vertex -0.10000000149011612 0.051138151437044144 0.2256186306476593
		endloop
	endfacet
	facet normal -0.6534081310529005 0.7569556356161707 0.008716649750611465
		outer loop
			vertex -0.12388279289007187 0.09461104869842529 0.14171770215034485
			vertex -0.124087855219841 0.09443403780460358 0.14171770215034485
			vertex -0.1238439753651619 0.09464114904403687 0.1420135796070099
		endloop
	endfacet
	facet normal -0.9859208861671378 0.16359349964867168 0.03460018919176555
		outer loop
			vertex -0.17024102807044983 -0.02477976121008396 0.14171770215034485
			vertex -0.17007684707641602 -0.02411685697734356 0.14326170086860657
			vertex -0.16955791413784027 -0.02066287212073803 0.14171770215034485
		endloop
	endfacet
	facet normal -0.9723796394775182 0.23085990703078696 0.034373537136992725
		outer loop
			vertex -0.19003921747207642 -0.1023595854640007 0.14171770215034485
			vertex -0.19002966582775116 -0.1023595854640007 0.1419879049062729
			vertex -0.18249396979808807 -0.07264532148838043 0.15559503436088562
		endloop
	endfacet
	facet normal -0.972377876519045 0.23087101510103047 0.03434879390215586
		outer loop
			vertex -0.19003921747207642 -0.1023595854640007 0.14171770215034485
			vertex -0.18249396979808807 -0.07264532148838043 0.15559503436088562
			vertex -0.17347095906734467 -0.03281937167048454 0.14334186911582947
		endloop
	endfacet
	facet normal -0.9723777675963674 0.23087089889523088 0.03435265823212603
		outer loop
			vertex -0.19003921747207642 -0.1023595854640007 0.14171770215034485
			vertex -0.17347095906734467 -0.03281937167048454 0.14334186911582947
			vertex -0.17377237975597382 -0.03384722024202347 0.14171770215034485
		endloop
	endfacet
	facet normal -0.9480286263135316 0.10248242429912635 0.30122927546945455
		outer loop
			vertex -0.18249396979808807 -0.07264532148838043 0.15559503436088562
			vertex -0.19002966582775116 -0.1023595854640007 0.1419879049062729
			vertex -0.18224439024925232 -0.1023595854640007 0.16648972034454346
		endloop
	endfacet
	facet normal -0.9480283760326996 0.10248268294114897 0.30122997515849287
		outer loop
			vertex -0.18249396979808807 -0.07264532148838043 0.15559503436088562
			vertex -0.18224439024925232 -0.1023595854640007 0.16648972034454346
			vertex -0.17912335693836212 -0.08432983607053757 0.17017823457717896
		endloop
	endfacet
	facet normal -0.9303307828298536 0.36232127877404113 -0.056638551064936656
		outer loop
			vertex -0.17377237975597382 -0.03384722024202347 0.14171770215034485
			vertex -0.17347095906734467 -0.03281937167048454 0.14334186911582947
			vertex -0.17007684707641602 -0.02411685697734356 0.14326170086860657
		endloop
	endfacet
	facet normal -0.9303313860043504 0.36232061225642026 -0.056632906947791564
		outer loop
			vertex -0.17377237975597382 -0.03384722024202347 0.14171770215034485
			vertex -0.17007684707641602 -0.02411685697734356 0.14326170086860657
			vertex -0.17024102807044983 -0.02477976121008396 0.14171770215034485
		endloop
	endfacet
	facet normal -0.948032884651065 0.10244012569456305 0.3012302612087015
		outer loop
			vertex -0.18224439024925232 -0.1023595854640007 0.16648972034454346
			vertex -0.1740320324897766 -0.1023595854640007 0.19233568012714386
			vertex -0.17396359145641327 -0.10221673548221588 0.19250249862670898
		endloop
	endfacet
	facet normal -0.9480287438818488 0.1024830059388587 0.3012287075753907
		outer loop
			vertex -0.18224439024925232 -0.1023595854640007 0.16648972034454346
			vertex -0.17396359145641327 -0.10221673548221588 0.19250249862670898
			vertex -0.17912335693836212 -0.08432983607053757 0.17017823457717896
		endloop
	endfacet
	facet normal -0.9480300417448035 0.10242053718406632 0.30124586887171334
		outer loop
			vertex -0.1740320324897766 -0.1023595854640007 0.19233568012714386
			vertex -0.1739223748445511 -0.1023595854640007 0.19268077611923218
			vertex -0.17396359145641327 -0.10221673548221588 0.19250249862670898
		endloop
	endfacet
	facet normal 1 0 0
		outer loop
			vertex -0.10000000149011612 0.02443317510187626 0.23619616031646729
			vertex -0.10000000149011612 -0.05616089701652527 0.23619616031646729
			vertex -0.10000000149011612 -0.06171921640634537 0.21744053065776825
		endloop
	endfacet
	facet normal 1 0 0
		outer loop
			vertex -0.10000000149011612 0.02443317510187626 0.23619616031646729
			vertex -0.10000000149011612 -0.06171921640634537 0.21744053065776825
			vertex -0.10000000149011612 -0.026976577937602997 0.20140670239925385
		endloop
	endfacet
	facet normal 1 0 0
		outer loop
			vertex -0.10000000149011612 0.02443317510187626 0.23619616031646729
			vertex -0.10000000149011612 -0.026976577937602997 0.20140670239925385
			vertex -0.10000000149011612 0.04271562770009041 0.22300803661346436
		endloop
	endfacet
	facet normal 1 0 0
		outer loop
			vertex -0.10000000149011612 -0.026976577937602997 0.20140670239925385
			vertex -0.10000000149011612 -0.06171921640634537 0.21744053065776825
			vertex -0.10000000149011612 -0.07046564668416977 0.18792709708213806
		endloop
	endfacet
	facet normal -0.6534150919786352 0.7569496092744342 0.008718176061139582
		outer loop
			vertex -0.11490648984909058 0.1023595854640007 0.14171770215034485
			vertex -0.12388279289007187 0.09461104869842529 0.14171770215034485
			vertex -0.1238439753651619 0.09464114904403687 0.1420135796070099
		endloop
	endfacet
	facet normal -0.6534157831163981 0.7569493350059373 0.008690144328695183
		outer loop
			vertex -0.11490648984909058 0.1023595854640007 0.14171770215034485
			vertex -0.1238439753651619 0.09464114904403687 0.1420135796070099
			vertex -0.11475590616464615 0.1023595854640007 0.15304015576839447
		endloop
	endfacet
	facet normal 1 0 0
		outer loop
			vertex -0.10000000149011612 -0.026976577937602997 0.20140670239925385
			vertex -0.10000000149011612 0.1023595854640007 0.14171770215034485
			vertex -0.10000000149011612 0.1023595854640007 0.177159383893013
		endloop
	endfacet
	facet normal 1 0 0
		outer loop
			vertex -0.10000000149011612 -0.026976577937602997 0.20140670239925385
			vertex -0.10000000149011612 0.1023595854640007 0.177159383893013
			vertex -0.10000000149011612 0.10081856697797775 0.1810951828956604
		endloop
	endfacet
	facet normal 1 0 0
		outer loop
			vertex -0.10000000149011612 -0.026976577937602997 0.20140670239925385
			vertex -0.10000000149011612 0.10081856697797775 0.1810951828956604
			vertex -0.10000000149011612 0.04271562770009041 0.22300803661346436
		endloop
	endfacet
	facet normal 1 0 0
		outer loop
			vertex -0.10000000149011612 0.06483370810747147 0.14171770215034485
			vertex -0.10000000149011612 0.1023595854640007 0.14171770215034485
			vertex -0.10000000149011612 -0.026976577937602997 0.20140670239925385
		endloop
	endfacet
	facet normal 1 0 0
		outer loop
			vertex -0.10000000149011612 0.06483370810747147 0.14171770215034485
			vertex -0.10000000149011612 -0.026976577937602997 0.20140670239925385
			vertex -0.10000000149011612 -0.03069472499191761 0.20025424659252167
		endloop
	endfacet
	facet normal 1 0 0
		outer loop
			vertex -0.10000000149011612 -0.08416002243757248 0.14171770215034485
			vertex -0.10000000149011612 0.06483370810747147 0.14171770215034485
			vertex -0.10000000149011612 -0.03069472499191761 0.20025424659252167
		endloop
	endfacet
	facet normal 1 0 0
		outer loop
			vertex -0.10000000149011612 -0.08416002243757248 0.14171770215034485
			vertex -0.10000000149011612 -0.03069472499191761 0.20025424659252167
			vertex -0.10000000149011612 -0.07046564668416977 0.18792709708213806
		endloop
	endfacet
	facet normal 1 0 0
		outer loop
			vertex -0.10000000149011612 -0.05616089701652527 0.23619616031646729
			vertex -0.10000000149011612 -0.1023595854640007 0.23619616031646729
			vertex -0.10000000149011612 -0.06171921640634537 0.21744053065776825
		endloop
	endfacet
	facet normal 1 0 0
		outer loop
			vertex -0.10000000149011612 -0.1023595854640007 0.23619616031646729
			vertex -0.10000000149011612 -0.1023595854640007 0.15135416388511658
			vertex -0.10000000149011612 -0.08050207793712616 0.15406082570552826
		endloop
	endfacet
	facet normal 1 0 0
		outer loop
			vertex -0.10000000149011612 -0.1023595854640007 0.23619616031646729
			vertex -0.10000000149011612 -0.08050207793712616 0.15406082570552826
			vertex -0.10000000149011612 -0.06171921640634537 0.21744053065776825
		endloop
	endfacet
	facet normal 1 0 0
		outer loop
			vertex -0.10000000149011612 -0.1023595854640007 0.15135416388511658
			vertex -0.10000000149011612 -0.1023595854640007 0.14171770215034485
			vertex -0.10000000149011612 -0.08416002243757248 0.14171770215034485
		endloop
	endfacet
	facet normal 1 0 0
		outer loop
			vertex -0.10000000149011612 -0.1023595854640007 0.15135416388511658
			vertex -0.10000000149011612 -0.08416002243757248 0.14171770215034485
			vertex -0.10000000149011612 -0.08050207793712616 0.15406082570552826
		endloop
	endfacet
	facet normal 0 1 0
		outer loop
			vertex -0.10000000149011612 0.1023595854640007 0.18340374529361725
			vertex -0.10000000149011612 0.1023595854640007 0.17998358607292175
			vertex -0.10180016607046127 0.1023595854640007 0.17669658362865448
		endloop
	endfacet
	facet normal 0 1 0
		outer loop
			vertex -0.10000000149011612 0.1023595854640007 0.18340374529361725
			vertex -0.10180016607046127 0.1023595854640007 0.17669658362865448
			vertex -0.10425668954849243 0.1023595854640007 0.17606504261493683
		endloop
	endfacet
	facet normal 0 1 0
		outer loop
			vertex -0.10000000149011612 0.1023595854640007 0.17998358607292175
			vertex -0.10000000149011612 0.1023595854640007 0.177159383893013
			vertex -0.10180016607046127 0.1023595854640007 0.17669658362865448
		endloop
	endfacet
	facet normal 0 1 0
		outer loop
			vertex -0.10425668954849243 0.1023595854640007 0.17606504261493683
			vertex -0.10180016607046127 0.1023595854640007 0.17669658362865448
			vertex -0.11475590616464615 0.1023595854640007 0.15304015576839447
		endloop
	endfacet
	facet normal 0 1 0
		outer loop
			vertex -0.10425668954849243 0.1023595854640007 0.17606504261493683
			vertex -0.11475590616464615 0.1023595854640007 0.15304015576839447
			vertex -0.11468888074159622 0.1023595854640007 0.15807951986789703
		endloop
	endfacet
	facet normal 0 1 0
		outer loop
			vertex -0.1148134171962738 0.1023595854640007 0.14871543645858765
			vertex -0.10000000149011612 0.1023595854640007 0.14171770215034485
			vertex -0.11490648984909058 0.1023595854640007 0.14171770215034485
		endloop
	endfacet
	facet normal 0 1 0
		outer loop
			vertex -0.10000000149011612 0.1023595854640007 0.177159383893013
			vertex -0.10000000149011612 0.1023595854640007 0.14171770215034485
			vertex -0.1148134171962738 0.1023595854640007 0.14871543645858765
		endloop
	endfacet
	facet normal 0 1 0
		outer loop
			vertex -0.10000000149011612 0.1023595854640007 0.177159383893013
			vertex -0.1148134171962738 0.1023595854640007 0.14871543645858765
			vertex -0.11475590616464615 0.1023595854640007 0.15304015576839447
		endloop
	endfacet
	facet normal 0 1 0
		outer loop
			vertex -0.10000000149011612 0.1023595854640007 0.177159383893013
			vertex -0.11475590616464615 0.1023595854640007 0.15304015576839447
			vertex -0.10180016607046127 0.1023595854640007 0.17669658362865448
		endloop
	endfacet
	facet normal 0 -1 0
		outer loop
			vertex -0.16950641572475433 -0.1023595854640007 0.20766030251979828
			vertex -0.16906103491783142 -0.1023595854640007 0.20798039436340332
			vertex -0.160095676779747 -0.1023595854640007 0.23619616031646729
		endloop
	endfacet
	facet normal 0 -1 0
		outer loop
			vertex -0.16950641572475433 -0.1023595854640007 0.20766030251979828
			vertex -0.160095676779747 -0.1023595854640007 0.23619616031646729
			vertex -0.16132213175296783 -0.1023595854640007 0.23619616031646729
		endloop
	endfacet
	facet normal 0 -1 0
		outer loop
			vertex -0.16906103491783142 -0.1023595854640007 0.20798039436340332
			vertex -0.16326016187667847 -0.1023595854640007 0.21214935183525085
			vertex -0.15009061992168427 -0.1023595854640007 0.23619616031646729
		endloop
	endfacet
	facet normal 0 -1 0
		outer loop
			vertex -0.16906103491783142 -0.1023595854640007 0.20798039436340332
			vertex -0.15009061992168427 -0.1023595854640007 0.23619616031646729
			vertex -0.160095676779747 -0.1023595854640007 0.23619616031646729
		endloop
	endfacet
	facet normal 0 -1 0
		outer loop
			vertex -0.17093245685100555 -0.1023595854640007 0.20268821716308594
			vertex -0.1707090437412262 -0.1023595854640007 0.20279376208782196
			vertex -0.16906103491783142 -0.1023595854640007 0.20798039436340332
		endloop
	endfacet
	facet normal 0 -1 0
		outer loop
			vertex -0.17093245685100555 -0.1023595854640007 0.20268821716308594
			vertex -0.16906103491783142 -0.1023595854640007 0.20798039436340332
			vertex -0.16950641572475433 -0.1023595854640007 0.20766030251979828
		endloop
	endfacet
	facet normal 0 -1 0
		outer loop
			vertex -0.1707090437412262 -0.1023595854640007 0.20279376208782196
			vertex -0.17093245685100555 -0.1023595854640007 0.20268821716308594
			vertex -0.17269273102283478 -0.1023595854640007 0.1965506672859192
		endloop
	endfacet
	facet normal 0 -1 0
		outer loop
			vertex -0.1707090437412262 -0.1023595854640007 0.20279376208782196
			vertex -0.16757237911224365 -0.1023595854640007 0.2042754888534546
			vertex -0.16326016187667847 -0.1023595854640007 0.21214935183525085
		endloop
	endfacet
	facet normal 0 -1 0
		outer loop
			vertex -0.1707090437412262 -0.1023595854640007 0.20279376208782196
			vertex -0.16326016187667847 -0.1023595854640007 0.21214935183525085
			vertex -0.16906103491783142 -0.1023595854640007 0.20798039436340332
		endloop
	endfacet
	facet normal 0 -1 0
		outer loop
			vertex -0.16757237911224365 -0.1023595854640007 0.2042754888534546
			vertex -0.1707090437412262 -0.1023595854640007 0.20279376208782196
			vertex -0.1739223748445511 -0.1023595854640007 0.19268077611923218
		endloop
	endfacet
	facet normal 0 -1 0
		outer loop
			vertex -0.19003921747207642 -0.1023595854640007 0.14171770215034485
			vertex -0.18311356008052826 -0.1023595854640007 0.14171770215034485
			vertex -0.18224439024925232 -0.1023595854640007 0.16648972034454346
		endloop
	endfacet
	facet normal 0 -1 0
		outer loop
			vertex -0.19003921747207642 -0.1023595854640007 0.14171770215034485
			vertex -0.18224439024925232 -0.1023595854640007 0.16648972034454346
			vertex -0.19002966582775116 -0.1023595854640007 0.1419879049062729
		endloop
	endfacet
	facet normal 0 -1 0
		outer loop
			vertex -0.18311356008052826 -0.1023595854640007 0.14171770215034485
			vertex -0.1792934238910675 -0.1023595854640007 0.14171770215034485
			vertex -0.1740320324897766 -0.1023595854640007 0.19233568012714386
		endloop
	endfacet
	facet normal 0 -1 0
		outer loop
			vertex -0.18311356008052826 -0.1023595854640007 0.14171770215034485
			vertex -0.1740320324897766 -0.1023595854640007 0.19233568012714386
			vertex -0.18224439024925232 -0.1023595854640007 0.16648972034454346
		endloop
	endfacet
	facet normal 0 -1 0
		outer loop
			vertex -0.16757237911224365 -0.1023595854640007 0.2042754888534546
			vertex -0.11135625094175339 -0.1023595854640007 0.2308315634727478
			vertex -0.11065039783716202 -0.1023595854640007 0.23619616031646729
		endloop
	endfacet
	facet normal 0 -1 0
		outer loop
			vertex -0.16757237911224365 -0.1023595854640007 0.2042754888534546
			vertex -0.11065039783716202 -0.1023595854640007 0.23619616031646729
			vertex -0.15009061992168427 -0.1023595854640007 0.23619616031646729
		endloop
	endfacet
	facet normal 0 -1 0
		outer loop
			vertex -0.1792934238910675 -0.1023595854640007 0.14171770215034485
			vertex -0.12308146059513092 -0.1023595854640007 0.14171770215034485
			vertex -0.11135625094175339 -0.1023595854640007 0.2308315634727478
		endloop
	endfacet
	facet normal 0 -1 0
		outer loop
			vertex -0.1792934238910675 -0.1023595854640007 0.14171770215034485
			vertex -0.11135625094175339 -0.1023595854640007 0.2308315634727478
			vertex -0.16757237911224365 -0.1023595854640007 0.2042754888534546
		endloop
	endfacet
	facet normal 0 -1 0
		outer loop
			vertex -0.1792934238910675 -0.1023595854640007 0.14171770215034485
			vertex -0.16757237911224365 -0.1023595854640007 0.2042754888534546
			vertex -0.1739223748445511 -0.1023595854640007 0.19268077611923218
		endloop
	endfacet
	facet normal 0 -1 0
		outer loop
			vertex -0.1792934238910675 -0.1023595854640007 0.14171770215034485
			vertex -0.1739223748445511 -0.1023595854640007 0.19268077611923218
			vertex -0.1740320324897766 -0.1023595854640007 0.19233568012714386
		endloop
	endfacet
	facet normal 0 -1 0
		outer loop
			vertex -0.11423733085393906 -0.1023595854640007 0.16498832404613495
			vertex -0.11748106777667999 -0.1023595854640007 0.18428175151348114
			vertex -0.12081282585859299 -0.1023595854640007 0.15895973145961761
		endloop
	endfacet
	facet normal 0 -1 0
		outer loop
			vertex -0.12308146059513092 -0.1023595854640007 0.14171770215034485
			vertex -0.1103249192237854 -0.1023595854640007 0.14171770215034485
			vertex -0.11423733085393906 -0.1023595854640007 0.16498832404613495
		endloop
	endfacet
	facet normal 0 -1 0
		outer loop
			vertex -0.12308146059513092 -0.1023595854640007 0.14171770215034485
			vertex -0.11423733085393906 -0.1023595854640007 0.16498832404613495
			vertex -0.12081282585859299 -0.1023595854640007 0.15895973145961761
		endloop
	endfacet
	facet normal 0 -1 0
		outer loop
			vertex -0.11135625094175339 -0.1023595854640007 0.2308315634727478
			vertex -0.10000000149011612 -0.1023595854640007 0.23619616031646729
			vertex -0.11065039783716202 -0.1023595854640007 0.23619616031646729
		endloop
	endfacet
	facet normal 0 -1 0
		outer loop
			vertex -0.1103249192237854 -0.1023595854640007 0.14171770215034485
			vertex -0.10334671288728714 -0.1023595854640007 0.14171770215034485
			vertex -0.10000000149011612 -0.1023595854640007 0.15135416388511658
		endloop
	endfacet
	facet normal 0 -1 0
		outer loop
			vertex -0.1103249192237854 -0.1023595854640007 0.14171770215034485
			vertex -0.10000000149011612 -0.1023595854640007 0.15135416388511658
			vertex -0.10000000149011612 -0.1023595854640007 0.23619616031646729
		endloop
	endfacet
	facet normal 0 -1 0
		outer loop
			vertex -0.1103249192237854 -0.1023595854640007 0.14171770215034485
			vertex -0.10000000149011612 -0.1023595854640007 0.23619616031646729
			vertex -0.11135625094175339 -0.1023595854640007 0.2308315634727478
		endloop
	endfacet
	facet normal 0 -1 0
		outer loop
			vertex -0.1103249192237854 -0.1023595854640007 0.14171770215034485
			vertex -0.11135625094175339 -0.1023595854640007 0.2308315634727478
			vertex -0.11748106777667999 -0.1023595854640007 0.18428175151348114
		endloop
	endfacet
	facet normal 0 -1 0
		outer loop
			vertex -0.10334671288728714 -0.1023595854640007 0.14171770215034485
			vertex -0.10000000149011612 -0.1023595854640007 0.14171770215034485
			vertex -0.10000000149011612 -0.1023595854640007 0.15135416388511658
		endloop
	endfacet
	facet normal 0 0 1
		outer loop
			vertex -0.14236532151699066 -0.05016079917550087 0.23619616031646729
			vertex -0.13979417085647583 -0.04903874918818474 0.23619616031646729
			vertex -0.13950923085212708 -0.048369236290454865 0.23619616031646729
		endloop
	endfacet
	facet normal 0 0 1
		outer loop
			vertex -0.15505139529705048 -0.05569698289036751 0.23619616031646729
			vertex -0.1547340303659439 -0.05555848404765129 0.23619616031646729
			vertex -0.15402597188949585 -0.046211063861846924 0.23619616031646729
		endloop
	endfacet
	facet normal 0 0 1
		outer loop
			vertex -0.1329522728919983 -0.04304676875472069 0.23619616031646729
			vertex -0.13282884657382965 -0.04305629804730415 0.23619616031646729
			vertex -0.13203348219394684 -0.04087859019637108 0.23619616031646729
		endloop
	endfacet
	facet normal 0 0 1
		outer loop
			vertex -0.12678249180316925 -0.04336046800017357 0.23619616031646729
			vertex -0.11074129492044449 -0.0027559155132621527 0.23619616031646729
			vertex -0.10309907793998718 0.03718256950378418 0.23619616031646729
		endloop
	endfacet
	facet normal 0 0 1
		outer loop
			vertex -0.12678249180316925 -0.04336046800017357 0.23619616031646729
			vertex -0.10309907793998718 0.03718256950378418 0.23619616031646729
			vertex -0.10608766227960587 0.030160386115312576 0.23619616031646729
		endloop
	endfacet
	facet normal 0 0 1
		outer loop
			vertex -0.12678249180316925 -0.04336046800017357 0.23619616031646729
			vertex -0.10608766227960587 0.030160386115312576 0.23619616031646729
			vertex -0.13282884657382965 -0.04305629804730415 0.23619616031646729
		endloop
	endfacet
	facet normal 0 0 1
		outer loop
			vertex -0.12678249180316925 -0.04336046800017357 0.23619616031646729
			vertex -0.13282884657382965 -0.04305629804730415 0.23619616031646729
			vertex -0.1270991712808609 -0.04349867254495621 0.23619616031646729
		endloop
	endfacet
	facet normal 0 0 1
		outer loop
			vertex -0.13950923085212708 -0.048369236290454865 0.23619616031646729
			vertex -0.13979417085647583 -0.04903874918818474 0.23619616031646729
			vertex -0.13451522588729858 -0.046735022217035294 0.23619616031646729
		endloop
	endfacet
	facet normal 0 0 1
		outer loop
			vertex -0.13950923085212708 -0.048369236290454865 0.23619616031646729
			vertex -0.13451522588729858 -0.046735022217035294 0.23619616031646729
			vertex -0.13365034759044647 -0.04469409957528114 0.23619616031646729
		endloop
	endfacet
	facet normal 0 0 1
		outer loop
			vertex -0.13451522588729858 -0.046735022217035294 0.23619616031646729
			vertex -0.13410745561122894 -0.046557068824768066 0.23619616031646729
			vertex -0.13282884657382965 -0.04305629804730415 0.23619616031646729
		endloop
	endfacet
	facet normal 0 0 1
		outer loop
			vertex -0.13451522588729858 -0.046735022217035294 0.23619616031646729
			vertex -0.13282884657382965 -0.04305629804730415 0.23619616031646729
			vertex -0.1329522728919983 -0.04304676875472069 0.23619616031646729
		endloop
	endfacet
	facet normal 0 0 1
		outer loop
			vertex -0.13410745561122894 -0.046557068824768066 0.23619616031646729
			vertex -0.1270991712808609 -0.04349867254495621 0.23619616031646729
			vertex -0.13282884657382965 -0.04305629804730415 0.23619616031646729
		endloop
	endfacet
	facet normal 0 0 1
		outer loop
			vertex -0.16132213175296783 -0.1023595854640007 0.23619616031646729
			vertex -0.160095676779747 -0.1023595854640007 0.23619616031646729
			vertex -0.15767623484134674 -0.07997828722000122 0.23619616031646729
		endloop
	endfacet
	facet normal 0 0 1
		outer loop
			vertex -0.160095676779747 -0.1023595854640007 0.23619616031646729
			vertex -0.15009061992168427 -0.1023595854640007 0.23619616031646729
			vertex -0.12678249180316925 -0.04336046800017357 0.23619616031646729
		endloop
	endfacet
	facet normal 0 0 1
		outer loop
			vertex -0.160095676779747 -0.1023595854640007 0.23619616031646729
			vertex -0.12678249180316925 -0.04336046800017357 0.23619616031646729
			vertex -0.15505139529705048 -0.05569698289036751 0.23619616031646729
		endloop
	endfacet
	facet normal 0 0 1
		outer loop
			vertex -0.11074129492044449 -0.0027559155132621527 0.23619616031646729
			vertex -0.10000000149011612 0.02443317510187626 0.23619616031646729
			vertex -0.10000000149011612 0.044464360922575 0.23619616031646729
		endloop
	endfacet
	facet normal 0 0 1
		outer loop
			vertex -0.11074129492044449 -0.0027559155132621527 0.23619616031646729
			vertex -0.10000000149011612 0.044464360922575 0.23619616031646729
			vertex -0.10309907793998718 0.03718256950378418 0.23619616031646729
		endloop
	endfacet
	facet normal 0 0 1
		outer loop
			vertex -0.11812622100114822 -0.021449130028486252 0.23619616031646729
			vertex -0.1268448531627655 -0.0435183085501194 0.23619616031646729
			vertex -0.12491751462221146 -0.04366711154580116 0.23619616031646729
		endloop
	endfacet
	facet normal 0 0 1
		outer loop
			vertex -0.11088476330041885 -0.04475054517388344 0.23619616031646729
			vertex -0.11105240136384964 -0.003543420461937785 0.23619616031646729
			vertex -0.11812622100114822 -0.021449130028486252 0.23619616031646729
		endloop
	endfacet
	facet normal 0 0 1
		outer loop
			vertex -0.11088476330041885 -0.04475054517388344 0.23619616031646729
			vertex -0.11812622100114822 -0.021449130028486252 0.23619616031646729
			vertex -0.12491751462221146 -0.04366711154580116 0.23619616031646729
		endloop
	endfacet
	facet normal 0 0 1
		outer loop
			vertex -0.15009061992168427 -0.1023595854640007 0.23619616031646729
			vertex -0.11065039783716202 -0.1023595854640007 0.23619616031646729
			vertex -0.11088476330041885 -0.04475054517388344 0.23619616031646729
		endloop
	endfacet
	facet normal 0 0 1
		outer loop
			vertex -0.15009061992168427 -0.1023595854640007 0.23619616031646729
			vertex -0.11088476330041885 -0.04475054517388344 0.23619616031646729
			vertex -0.1268448531627655 -0.0435183085501194 0.23619616031646729
		endloop
	endfacet
	facet normal 0 0 1
		outer loop
			vertex -0.11074129492044449 -0.0027559155132621527 0.23619616031646729
			vertex -0.11105240136384964 -0.003543420461937785 0.23619616031646729
			vertex -0.11104906350374222 -0.004364336840808392 0.23619616031646729
		endloop
	endfacet
	facet normal 0 0 1
		outer loop
			vertex -0.10000000149011612 -0.05616089701652527 0.23619616031646729
			vertex -0.10000000149011612 0.02443317510187626 0.23619616031646729
			vertex -0.11074129492044449 -0.0027559155132621527 0.23619616031646729
		endloop
	endfacet
	facet normal 0 0 1
		outer loop
			vertex -0.10000000149011612 -0.05616089701652527 0.23619616031646729
			vertex -0.11074129492044449 -0.0027559155132621527 0.23619616031646729
			vertex -0.11104906350374222 -0.004364336840808392 0.23619616031646729
		endloop
	endfacet
	facet normal 0 0 1
		outer loop
			vertex -0.10000000149011612 -0.05616089701652527 0.23619616031646729
			vertex -0.11104906350374222 -0.004364336840808392 0.23619616031646729
			vertex -0.11076117306947708 -0.07512945681810379 0.23619616031646729
		endloop
	endfacet
	facet normal 0 0 1
		outer loop
			vertex -0.11065039783716202 -0.1023595854640007 0.23619616031646729
			vertex -0.10000000149011612 -0.1023595854640007 0.23619616031646729
			vertex -0.10000000149011612 -0.05616089701652527 0.23619616031646729
		endloop
	endfacet
	facet normal 0 0 1
		outer loop
			vertex -0.11065039783716202 -0.1023595854640007 0.23619616031646729
			vertex -0.10000000149011612 -0.05616089701652527 0.23619616031646729
			vertex -0.11076117306947708 -0.07512945681810379 0.23619616031646729
		endloop
	endfacet
	facet normal 0 0 -1
		outer loop
			vertex -0.16879430413246155 -0.01606072671711445 0.14171770215034485
			vertex -0.1683080494403839 -0.017499079927802086 0.14171770215034485
			vertex -0.16955791413784027 -0.02066287212073803 0.14171770215034485
		endloop
	endfacet
	facet normal 0 0 -1
		outer loop
			vertex -0.1593940407037735 0.040592461824417114 0.14171770215034485
			vertex -0.14104725420475006 0.06707406789064407 0.14171770215034485
			vertex -0.16241760551929474 0.02237016335129738 0.14171770215034485
		endloop
	endfacet
	facet normal 0 0 -1
		outer loop
			vertex -0.1306941658258438 0.0887313261628151 0.14171770215034485
			vertex -0.124087855219841 0.09443403780460358 0.14171770215034485
			vertex -0.1683080494403839 -0.017499079927802086 0.14171770215034485
		endloop
	endfacet
	facet normal 0 0 -1
		outer loop
			vertex -0.1306941658258438 0.0887313261628151 0.14171770215034485
			vertex -0.1683080494403839 -0.017499079927802086 0.14171770215034485
			vertex -0.16879430413246155 -0.01606072671711445 0.14171770215034485
		endloop
	endfacet
	facet normal 0 0 -1
		outer loop
			vertex -0.1306941658258438 0.0887313261628151 0.14171770215034485
			vertex -0.16879430413246155 -0.01606072671711445 0.14171770215034485
			vertex -0.16241760551929474 0.02237016335129738 0.14171770215034485
		endloop
	endfacet
	facet normal 0 0 -1
		outer loop
			vertex -0.17104683816432953 -0.02963631972670555 0.14171770215034485
			vertex -0.17182300984859467 -0.02884184569120407 0.14171770215034485
			vertex -0.17024102807044983 -0.02477976121008396 0.14171770215034485
		endloop
	endfacet
	facet normal 0 0 -1
		outer loop
			vertex -0.18311356008052826 -0.1023595854640007 0.14171770215034485
			vertex -0.19003921747207642 -0.1023595854640007 0.14171770215034485
			vertex -0.17377237975597382 -0.03384722024202347 0.14171770215034485
		endloop
	endfacet
	facet normal 0 0 -1
		outer loop
			vertex -0.18311356008052826 -0.1023595854640007 0.14171770215034485
			vertex -0.17377237975597382 -0.03384722024202347 0.14171770215034485
			vertex -0.17182300984859467 -0.02884184569120407 0.14171770215034485
		endloop
	endfacet
	facet normal 0 0 -1
		outer loop
			vertex -0.18311356008052826 -0.1023595854640007 0.14171770215034485
			vertex -0.17182300984859467 -0.02884184569120407 0.14171770215034485
			vertex -0.17104683816432953 -0.02963631972670555 0.14171770215034485
		endloop
	endfacet
	facet normal 0 0 -1
		outer loop
			vertex -0.1580401510000229 -0.04294993355870247 0.14171770215034485
			vertex -0.17104683816432953 -0.02963631972670555 0.14171770215034485
			vertex -0.16955791413784027 -0.02066287212073803 0.14171770215034485
		endloop
	endfacet
	facet normal 0 0 -1
		outer loop
			vertex -0.1580401510000229 -0.04294993355870247 0.14171770215034485
			vertex -0.16955791413784027 -0.02066287212073803 0.14171770215034485
			vertex -0.16005593538284302 0.003389200661331415 0.14171770215034485
		endloop
	endfacet
	facet normal 0 0 -1
		outer loop
			vertex -0.1580401510000229 -0.04294993355870247 0.14171770215034485
			vertex -0.16005593538284302 0.003389200661331415 0.14171770215034485
			vertex -0.14575834572315216 -0.008618440479040146 0.14171770215034485
		endloop
	endfacet
	facet normal 0 0 -1
		outer loop
			vertex -0.1792934238910675 -0.1023595854640007 0.14171770215034485
			vertex -0.18311356008052826 -0.1023595854640007 0.14171770215034485
			vertex -0.17104683816432953 -0.02963631972670555 0.14171770215034485
		endloop
	endfacet
	facet normal 0 0 -1
		outer loop
			vertex -0.1792934238910675 -0.1023595854640007 0.14171770215034485
			vertex -0.17104683816432953 -0.02963631972670555 0.14171770215034485
			vertex -0.1580401510000229 -0.04294993355870247 0.14171770215034485
		endloop
	endfacet
	facet normal 0 0 -1
		outer loop
			vertex -0.16005593538284302 0.003389200661331415 0.14171770215034485
			vertex -0.124087855219841 0.09443403780460358 0.14171770215034485
			vertex -0.12388279289007187 0.09461104869842529 0.14171770215034485
		endloop
	endfacet
	facet normal 0 0 -1
		outer loop
			vertex -0.16005593538284302 0.003389200661331415 0.14171770215034485
			vertex -0.12388279289007187 0.09461104869842529 0.14171770215034485
			vertex -0.12371351569890976 0.05300384387373924 0.14171770215034485
		endloop
	endfacet
	facet normal 0 0 -1
		outer loop
			vertex -0.16005593538284302 0.003389200661331415 0.14171770215034485
			vertex -0.12371351569890976 0.05300384387373924 0.14171770215034485
			vertex -0.14575834572315216 -0.008618440479040146 0.14171770215034485
		endloop
	endfacet
	facet normal 0 0 -1
		outer loop
			vertex -0.14703205227851868 -0.012178808450698853 0.14171770215034485
			vertex -0.12371351569890976 0.05300384387373924 0.14171770215034485
			vertex -0.12358033657073975 0.020266247913241386 0.14171770215034485
		endloop
	endfacet
	facet normal 0 0 -1
		outer loop
			vertex -0.14703205227851868 -0.012178808450698853 0.14171770215034485
			vertex -0.12358033657073975 0.020266247913241386 0.14171770215034485
			vertex -0.13380974531173706 -0.013199670240283012 0.14171770215034485
		endloop
	endfacet
	facet normal 0 0 -1
		outer loop
			vertex -0.12358033657073975 0.020266247913241386 0.14171770215034485
			vertex -0.1234409287571907 -0.014000220224261284 0.14171770215034485
			vertex -0.13380974531173706 -0.013199670240283012 0.14171770215034485
		endloop
	endfacet
	facet normal 0 0 -1
		outer loop
			vertex -0.12317797541618347 -0.07863470166921616 0.14171770215034485
			vertex -0.1580401510000229 -0.04294993355870247 0.14171770215034485
			vertex -0.14703205227851868 -0.012178808450698853 0.14171770215034485
		endloop
	endfacet
	facet normal 0 0 -1
		outer loop
			vertex -0.12317797541618347 -0.07863470166921616 0.14171770215034485
			vertex -0.14703205227851868 -0.012178808450698853 0.14171770215034485
			vertex -0.14096087217330933 -0.01264754869043827 0.14171770215034485
		endloop
	endfacet
	facet normal 0 0 -1
		outer loop
			vertex -0.12317797541618347 -0.07863470166921616 0.14171770215034485
			vertex -0.14096087217330933 -0.01264754869043827 0.14171770215034485
			vertex -0.12338638305664062 -0.02740725688636303 0.14171770215034485
		endloop
	endfacet
	facet normal 0 0 -1
		outer loop
			vertex -0.12308146059513092 -0.1023595854640007 0.14171770215034485
			vertex -0.1792934238910675 -0.1023595854640007 0.14171770215034485
			vertex -0.1580401510000229 -0.04294993355870247 0.14171770215034485
		endloop
	endfacet
	facet normal 0 0 -1
		outer loop
			vertex -0.12308146059513092 -0.1023595854640007 0.14171770215034485
			vertex -0.1580401510000229 -0.04294993355870247 0.14171770215034485
			vertex -0.12317797541618347 -0.07863470166921616 0.14171770215034485
		endloop
	endfacet
	facet normal 0 0 -1
		outer loop
			vertex -0.14096087217330933 -0.01264754869043827 0.14171770215034485
			vertex -0.1234409287571907 -0.014000220224261284 0.14171770215034485
			vertex -0.12338638305664062 -0.02740725688636303 0.14171770215034485
		endloop
	endfacet
	facet normal 0 0 -1
		outer loop
			vertex -0.10000000149011612 0.1023595854640007 0.14171770215034485
			vertex -0.10000000149011612 0.06483370810747147 0.14171770215034485
			vertex -0.12324304133653641 -0.06264401227235794 0.14171770215034485
		endloop
	endfacet
	facet normal 0 0 -1
		outer loop
			vertex -0.10000000149011612 0.1023595854640007 0.14171770215034485
			vertex -0.12324304133653641 -0.06264401227235794 0.14171770215034485
			vertex -0.12388279289007187 0.09461104869842529 0.14171770215034485
		endloop
	endfacet
	facet normal 0 0 -1
		outer loop
			vertex -0.10000000149011612 0.1023595854640007 0.14171770215034485
			vertex -0.12388279289007187 0.09461104869842529 0.14171770215034485
			vertex -0.11490648984909058 0.1023595854640007 0.14171770215034485
		endloop
	endfacet
	facet normal 0 0 -1
		outer loop
			vertex -0.10000000149011612 0.06483370810747147 0.14171770215034485
			vertex -0.10000000149011612 -0.08416002243757248 0.14171770215034485
			vertex -0.10653185099363327 -0.09567361325025558 0.14171770215034485
		endloop
	endfacet
	facet normal 0 0 -1
		outer loop
			vertex -0.10000000149011612 0.06483370810747147 0.14171770215034485
			vertex -0.10653185099363327 -0.09567361325025558 0.14171770215034485
			vertex -0.12317797541618347 -0.07863470166921616 0.14171770215034485
		endloop
	endfacet
	facet normal 0 0 -1
		outer loop
			vertex -0.10000000149011612 0.06483370810747147 0.14171770215034485
			vertex -0.12317797541618347 -0.07863470166921616 0.14171770215034485
			vertex -0.12324304133653641 -0.06264401227235794 0.14171770215034485
		endloop
	endfacet
	facet normal 0 0 -1
		outer loop
			vertex -0.1103249192237854 -0.1023595854640007 0.14171770215034485
			vertex -0.12308146059513092 -0.1023595854640007 0.14171770215034485
			vertex -0.12317797541618347 -0.07863470166921616 0.14171770215034485
		endloop
	endfacet
	facet normal 0 0 -1
		outer loop
			vertex -0.1103249192237854 -0.1023595854640007 0.14171770215034485
			vertex -0.12317797541618347 -0.07863470166921616 0.14171770215034485
			vertex -0.10653185099363327 -0.09567361325025558 0.14171770215034485
		endloop
	endfacet
	facet normal 0 0 -1
		outer loop
			vertex -0.10350082814693451 -0.09877614676952362 0.14171770215034485
			vertex -0.10653185099363327 -0.09567361325025558 0.14171770215034485
			vertex -0.10383843630552292 -0.09092596918344498 0.14171770215034485
		endloop
	endfacet
	facet normal 0 0 -1
		outer loop
			vertex -0.10334671288728714 -0.1023595854640007 0.14171770215034485
			vertex -0.1103249192237854 -0.1023595854640007 0.14171770215034485
			vertex -0.10653185099363327 -0.09567361325025558 0.14171770215034485
		endloop
	endfacet
	facet normal 0 0 -1
		outer loop
			vertex -0.10334671288728714 -0.1023595854640007 0.14171770215034485
			vertex -0.10653185099363327 -0.09567361325025558 0.14171770215034485
			vertex -0.10350082814693451 -0.09877614676952362 0.14171770215034485
		endloop
	endfacet
	facet normal 0 0 -1
		outer loop
			vertex -0.10000000149011612 -0.08416002243757248 0.14171770215034485
			vertex -0.10000000149011612 -0.1023595854640007 0.14171770215034485
			vertex -0.10350082814693451 -0.09877614676952362 0.14171770215034485
		endloop
	endfacet
	facet normal 0 0 -1
		outer loop
			vertex -0.10000000149011612 -0.08416002243757248 0.14171770215034485
			vertex -0.10350082814693451 -0.09877614676952362 0.14171770215034485
			vertex -0.10383843630552292 -0.09092596918344498 0.14171770215034485
		endloop
	endfacet
	facet normal 0 0 -1
		outer loop
			vertex -0.10000000149011612 -0.1023595854640007 0.14171770215034485
			vertex -0.10334671288728714 -0.1023595854640007 0.14171770215034485
			vertex -0.10350082814693451 -0.09877614676952362 0.14171770215034485
		endloop
	endfacet
endsolid exported
