solid exported
	facet normal -0.9914464451404007 -0.00403339542349622 0.1304518230605468
		outer loop
			vertex -0.1485169380903244 0.0385727658867836 -0.04723922908306122
			vertex -0.14870494604110718 0.08478688448667526 -0.04723922908306122
			vertex -0.14877673983573914 0.06924337148666382 -0.048265453428030014
		endloop
	endfacet
	facet normal -0.9914425898387264 -0.004032381442967993 0.13048115171846714
		outer loop
			vertex -0.1485169380903244 0.0385727658867836 -0.04723922908306122
			vertex -0.14877673983573914 0.06924337148666382 -0.048265453428030014
			vertex -0.14855434000492096 0.03855101019144058 -0.047524094581604004
		endloop
	endfacet
	facet normal -0.9370837440190009 0.335232339167813 0.09743374913964979
		outer loop
			vertex -0.1485169380903244 0.0385727658867836 -0.04723922908306122
			vertex -0.14855434000492096 0.03855101019144058 -0.047524094581604004
			vertex -0.14868846535682678 0.038093291223049164 -0.04723922908306122
		endloop
	endfacet
	facet normal -0.9335303493693451 0.052901370626397715 -0.35457373251863566
		outer loop
			vertex -0.15091641247272491 -0.09266761690378189 -0.060882583260536194
			vertex -0.15486019849777222 -0.07081693410873413 -0.04723922908306122
			vertex -0.14868846535682678 0.038093291223049164 -0.04723922908306122
		endloop
	endfacet
	facet normal -0.9335401494320703 0.05289888408355927 -0.35454830060382775
		outer loop
			vertex -0.15091641247272491 -0.09266761690378189 -0.060882583260536194
			vertex -0.14868846535682678 0.038093291223049164 -0.04723922908306122
			vertex -0.14855434000492096 0.03855101019144058 -0.047524094581604004
		endloop
	endfacet
	facet normal -0.9335293553854659 0.052901542636143405 -0.3545763238293174
		outer loop
			vertex -0.15091641247272491 -0.09266761690378189 -0.060882583260536194
			vertex -0.14855434000492096 0.03855101019144058 -0.047524094581604004
			vertex -0.14916087687015533 -0.013925266452133656 -0.0537564791738987
		endloop
	endfacet
	facet normal -0.7216720171375818 0.268210058048703 -0.6381636658742686
		outer loop
			vertex -0.15486019849777222 -0.07081693410873413 -0.04723922908306122
			vertex -0.15091641247272491 -0.09266761690378189 -0.060882583260536194
			vertex -0.1523059457540512 -0.1023595854640007 -0.06338459998369217
		endloop
	endfacet
	facet normal -0.7216728894630714 0.26820958437318315 -0.638162878475696
		outer loop
			vertex -0.15486019849777222 -0.07081693410873413 -0.04723922908306122
			vertex -0.1523059457540512 -0.1023595854640007 -0.06338459998369217
			vertex -0.15597082674503326 -0.1023595854640007 -0.059240132570266724
		endloop
	endfacet
	facet normal -0.7216726596464571 0.2682096626447554 -0.6381631054697501
		outer loop
			vertex -0.15486019849777222 -0.07081693410873413 -0.04723922908306122
			vertex -0.15597082674503326 -0.1023595854640007 -0.059240132570266724
			vertex -0.1625167727470398 -0.09141850471496582 -0.04723922908306122
		endloop
	endfacet
	facet normal -0.8815840967103044 -0.009804670703569518 -0.47192515175594474
		outer loop
			vertex -0.16239508986473083 -0.1023595854640007 -0.04723922908306122
			vertex -0.1625167727470398 -0.09141850471496582 -0.04723922908306122
			vertex -0.15597082674503326 -0.1023595854640007 -0.059240132570266724
		endloop
	endfacet
	facet normal -0.9416610413720048 -0.014944855880965797 -0.3362307755766695
		outer loop
			vertex -0.14804524183273315 0.039826516062021255 -0.049006588757038116
			vertex -0.14855434000492096 0.03855101019144058 -0.047524094581604004
			vertex -0.14877673983573914 0.06924337148666382 -0.048265453428030014
		endloop
	endfacet
	facet normal -0.7091816265704246 0.12021969382174023 -0.6947003999943672
		outer loop
			vertex -0.14832955598831177 0.02336250990629196 -0.05038197338581085
			vertex -0.14855434000492096 0.03855101019144058 -0.047524094581604004
			vertex -0.14787538349628448 0.032994892448186874 -0.049178704619407654
		endloop
	endfacet
	facet normal -0.9335289037109995 0.052901676279816304 -0.3545774930574768
		outer loop
			vertex -0.14855434000492096 0.03855101019144058 -0.047524094581604004
			vertex -0.14832955598831177 0.02336250990629196 -0.05038197338581085
			vertex -0.14916087687015533 -0.013925266452133656 -0.0537564791738987
		endloop
	endfacet
	facet normal -0.7488009722191635 -0.3530765157219437 -0.5609225241058587
		outer loop
			vertex -0.14763043820858002 0.038189373910427094 -0.048529818654060364
			vertex -0.14855434000492096 0.03855101019144058 -0.047524094581604004
			vertex -0.14804524183273315 0.039826516062021255 -0.049006588757038116
		endloop
	endfacet
	facet normal -0.7091740888823422 0.120222748966564 -0.6947075660224398
		outer loop
			vertex -0.14855434000492096 0.03855101019144058 -0.047524094581604004
			vertex -0.14763043820858002 0.038189373910427094 -0.048529818654060364
			vertex -0.14787538349628448 0.032994892448186874 -0.049178704619407654
		endloop
	endfacet
	facet normal -0.991446194969379 -0.004033768662563963 0.13045371282994242
		outer loop
			vertex -0.14870494604110718 0.08478688448667526 -0.04723922908306122
			vertex -0.14877644181251526 0.1023595854640007 -0.04723922908306122
			vertex -0.14901672303676605 0.1023595854640007 -0.04906536266207695
		endloop
	endfacet
	facet normal -0.9914460073477445 -0.004033616666170979 0.13045514344327983
		outer loop
			vertex -0.14870494604110718 0.08478688448667526 -0.04723922908306122
			vertex -0.14901672303676605 0.1023595854640007 -0.04906536266207695
			vertex -0.14877673983573914 0.06924337148666382 -0.048265453428030014
		endloop
	endfacet
	facet normal -0.9335311361592106 0.052901163160696166 -0.3545716919856112
		outer loop
			vertex -0.15012189745903015 -0.09706968069076538 -0.06363119184970856
			vertex -0.15091641247272491 -0.09266761690378189 -0.060882583260536194
			vertex -0.14916087687015533 -0.013925266452133656 -0.0537564791738987
		endloop
	endfacet
	facet normal -0.7216736311036894 0.2682098417374598 -0.6381619316167197
		outer loop
			vertex -0.1523059457540512 -0.1023595854640007 -0.06338459998369217
			vertex -0.15091641247272491 -0.09266761690378189 -0.060882583260536194
			vertex -0.15012189745903015 -0.09706968069076538 -0.06363119184970856
		endloop
	endfacet
	facet normal -0.7216721705548603 0.26820914813652313 -0.638163874802168
		outer loop
			vertex -0.1523059457540512 -0.1023595854640007 -0.06338459998369217
			vertex -0.15012189745903015 -0.09706968069076538 -0.06363119184970856
			vertex -0.15035779774188995 -0.1023595854640007 -0.06558767706155777
		endloop
	endfacet
	facet normal -0.9416576604572434 -0.01494313505238556 -0.33624032062945247
		outer loop
			vertex -0.14901672303676605 0.1023595854640007 -0.04906536266207695
			vertex -0.1488363891839981 0.1023595854640007 -0.04957039654254913
			vertex -0.14631003141403198 0.04417411610484123 -0.0540597178041935
		endloop
	endfacet
	facet normal -0.9416649129914627 -0.014945223860303199 -0.3362199160141269
		outer loop
			vertex -0.14901672303676605 0.1023595854640007 -0.04906536266207695
			vertex -0.14631003141403198 0.04417411610484123 -0.0540597178041935
			vertex -0.14804524183273315 0.039826516062021255 -0.049006588757038116
		endloop
	endfacet
	facet normal -0.9416648900548306 -0.014945223564361801 -0.3362199802668416
		outer loop
			vertex -0.14901672303676605 0.1023595854640007 -0.04906536266207695
			vertex -0.14804524183273315 0.039826516062021255 -0.049006588757038116
			vertex -0.14877673983573914 0.06924337148666382 -0.048265453428030014
		endloop
	endfacet
	facet normal -0.7092216544736544 0.12021191568918205 -0.6946608814032855
		outer loop
			vertex -0.14637655019760132 -0.1023595854640007 -0.0741322785615921
			vertex -0.14646896719932556 -0.1023595854640007 -0.07403792440891266
			vertex -0.14832955598831177 0.02336250990629196 -0.05038197338581085
		endloop
	endfacet
	facet normal -0.709184058345737 0.12021950250851092 -0.6946979506266566
		outer loop
			vertex -0.14637655019760132 -0.1023595854640007 -0.0741322785615921
			vertex -0.14832955598831177 0.02336250990629196 -0.05038197338581085
			vertex -0.14787538349628448 0.032994892448186874 -0.049178704619407654
		endloop
	endfacet
	facet normal -0.709176247098762 0.12022101095286947 -0.6947056636276875
		outer loop
			vertex -0.14637655019760132 -0.1023595854640007 -0.0741322785615921
			vertex -0.14787538349628448 0.032994892448186874 -0.049178704619407654
			vertex -0.14469438791275024 0.00696406839415431 -0.056930676102638245
		endloop
	endfacet
	facet normal -0.9335286806313311 0.052901889719252235 -0.3545780485349574
		outer loop
			vertex -0.14916712045669556 -0.1023595854640007 -0.06693415343761444
			vertex -0.15012189745903015 -0.09706968069076538 -0.06363119184970856
			vertex -0.14916087687015533 -0.013925266452133656 -0.0537564791738987
		endloop
	endfacet
	facet normal -0.9335296529800724 0.05290151661520453 -0.3545755442028073
		outer loop
			vertex -0.14916712045669556 -0.1023595854640007 -0.06693415343761444
			vertex -0.14916087687015533 -0.013925266452133656 -0.0537564791738987
			vertex -0.14832955598831177 0.02336250990629196 -0.05038197338581085
		endloop
	endfacet
	facet normal -0.9335304789130365 0.05290124123482269 -0.3545734107575075
		outer loop
			vertex -0.14916712045669556 -0.1023595854640007 -0.06693415343761444
			vertex -0.14832955598831177 0.02336250990629196 -0.05038197338581085
			vertex -0.14646896719932556 -0.1023595854640007 -0.07403792440891266
		endloop
	endfacet
	facet normal -0.721669767967358 0.26820992510101055 -0.6381662652312874
		outer loop
			vertex -0.15035779774188995 -0.1023595854640007 -0.06558767706155777
			vertex -0.15012189745903015 -0.09706968069076538 -0.06363119184970856
			vertex -0.14916712045669556 -0.1023595854640007 -0.06693415343761444
		endloop
	endfacet
	facet normal -0.7488051062817758 -0.3530760426959223 -0.5609173030675073
		outer loop
			vertex -0.14423438906669617 0.036860059946775436 -0.05222667381167412
			vertex -0.14763043820858002 0.038189373910427094 -0.048529818654060364
			vertex -0.14804524183273315 0.039826516062021255 -0.049006588757038116
		endloop
	endfacet
	facet normal -0.7488053741307155 -0.353078354647636 -0.5609154902053227
		outer loop
			vertex -0.14423438906669617 0.036860059946775436 -0.05222667381167412
			vertex -0.14804524183273315 0.039826516062021255 -0.049006588757038116
			vertex -0.14631003141403198 0.04417411610484123 -0.0540597178041935
		endloop
	endfacet
	facet normal -0.7091782818238774 0.12022241912917114 -0.6947033428220013
		outer loop
			vertex -0.14787538349628448 0.032994892448186874 -0.049178704619407654
			vertex -0.14763043820858002 0.038189373910427094 -0.048529818654060364
			vertex -0.14423438906669617 0.036860059946775436 -0.05222667381167412
		endloop
	endfacet
	facet normal -0.7091773623378171 0.12022055892823696 -0.6947046033808605
		outer loop
			vertex -0.14787538349628448 0.032994892448186874 -0.049178704619407654
			vertex -0.14423438906669617 0.036860059946775436 -0.05222667381167412
			vertex -0.14469438791275024 0.00696406839415431 -0.056930676102638245
		endloop
	endfacet
	facet normal -0.9416653031536515 -0.014948114159961877 -0.3362186947800533
		outer loop
			vertex -0.1488363891839981 0.1023595854640007 -0.04957039654254913
			vertex -0.14773023128509521 0.1023595854640007 -0.05266847088932991
			vertex -0.13788990676403046 0.06527066230773926 -0.07857982814311981
		endloop
	endfacet
	facet normal -0.9416640119667654 -0.014944788959385403 -0.3362224588715258
		outer loop
			vertex -0.1488363891839981 0.1023595854640007 -0.04957039654254913
			vertex -0.13788990676403046 0.06527066230773926 -0.07857982814311981
			vertex -0.14631003141403198 0.04417411610484123 -0.0540597178041935
		endloop
	endfacet
	facet normal -0.7091773694792344 0.12022085226335064 -0.6947045453281468
		outer loop
			vertex -0.1394645869731903 -0.1023595854640007 -0.08118823915719986
			vertex -0.14637655019760132 -0.1023595854640007 -0.0741322785615921
			vertex -0.14469438791275024 0.00696406839415431 -0.056930676102638245
		endloop
	endfacet
	facet normal -0.7091776344027212 0.12022078226974488 -0.6947042869980081
		outer loop
			vertex -0.1394645869731903 -0.1023595854640007 -0.08118823915719986
			vertex -0.14469438791275024 0.00696406839415431 -0.056930676102638245
			vertex -0.13318315148353577 -0.08723552525043488 -0.08498327434062958
		endloop
	endfacet
	facet normal -0.5026629563839733 -0.008142716981277182 -0.8644441268465458
		outer loop
			vertex -0.1394645869731903 -0.1023595854640007 -0.08118823915719986
			vertex -0.13318315148353577 -0.08723552525043488 -0.08498327434062958
			vertex -0.13294441998004913 -0.1023595854640007 -0.08497963100671768
		endloop
	endfacet
	facet normal -0.7488038666081757 -0.353078420768954 -0.5609174610760008
		outer loop
			vertex -0.13100077211856842 0.031680040061473846 -0.06663241237401962
			vertex -0.14423438906669617 0.036860059946775436 -0.05222667381167412
			vertex -0.14631003141403198 0.04417411610484123 -0.0540597178041935
		endloop
	endfacet
	facet normal -0.7488038697190953 -0.3530784425680684 -0.5609174432012392
		outer loop
			vertex -0.13100077211856842 0.031680040061473846 -0.06663241237401962
			vertex -0.14631003141403198 0.04417411610484123 -0.0540597178041935
			vertex -0.13788990676403046 0.06527066230773926 -0.07857982814311981
		endloop
	endfacet
	facet normal -0.7091776024094009 0.12022052498520402 -0.6947043641817258
		outer loop
			vertex -0.14469438791275024 0.00696406839415431 -0.056930676102638245
			vertex -0.14423438906669617 0.036860059946775436 -0.05222667381167412
			vertex -0.13100077211856842 0.031680040061473846 -0.06663241237401962
		endloop
	endfacet
	facet normal -0.7091776855248404 0.12022061012257515 -0.6947042646014103
		outer loop
			vertex -0.14469438791275024 0.00696406839415431 -0.056930676102638245
			vertex -0.13100077211856842 0.031680040061473846 -0.06663241237401962
			vertex -0.11326868087053299 -0.039286691695451736 -0.09701493382453918
		endloop
	endfacet
	facet normal -0.709177526942086 0.12022082582528913 -0.6947043891600171
		outer loop
			vertex -0.14469438791275024 0.00696406839415431 -0.056930676102638245
			vertex -0.11326868087053299 -0.039286691695451736 -0.09701493382453918
			vertex -0.13318315148353577 -0.08723552525043488 -0.08498327434062958
		endloop
	endfacet
	facet normal -0.5026627971992511 -0.008142742083862413 -0.864444219173904
		outer loop
			vertex -0.13318315148353577 -0.08723552525043488 -0.08498327434062958
			vertex -0.11326868087053299 -0.039286691695451736 -0.09701493382453918
			vertex -0.10142681002616882 -0.09019826352596283 -0.10342125594615936
		endloop
	endfacet
	facet normal -0.5026627990846334 -0.008142770798514313 -0.8644442178070973
		outer loop
			vertex -0.13318315148353577 -0.08723552525043488 -0.08498327434062958
			vertex -0.10142681002616882 -0.09019826352596283 -0.10342125594615936
			vertex -0.13312721252441406 -0.09077887237071991 -0.08498242497444153
		endloop
	endfacet
	facet normal -0.5026595688407861 -0.008141784158673157 -0.8644461054360236
		outer loop
			vertex -0.10142681002616882 -0.09019826352596283 -0.10342125594615936
			vertex -0.10000000149011612 -0.09633251279592514 -0.10419314354658127
			vertex -0.10000000149011612 -0.1023595854640007 -0.1041363775730133
		endloop
	endfacet
	facet normal -0.5026629187489753 -0.008142292006193846 -0.8644441527337939
		outer loop
			vertex -0.10142681002616882 -0.09019826352596283 -0.10342125594615936
			vertex -0.10000000149011612 -0.1023595854640007 -0.1041363775730133
			vertex -0.13294441998004913 -0.1023595854640007 -0.08497963100671768
		endloop
	endfacet
	facet normal -0.5026628003911023 -0.008142697321396601 -0.8644442177395295
		outer loop
			vertex -0.10142681002616882 -0.09019826352596283 -0.10342125594615936
			vertex -0.13294441998004913 -0.1023595854640007 -0.08497963100671768
			vertex -0.13312721252441406 -0.09077887237071991 -0.08498242497444153
		endloop
	endfacet
	facet normal 1 0 0
		outer loop
			vertex -0.10000000149011612 -0.1023595854640007 -0.08041033148765564
			vertex -0.10000000149011612 -0.1023595854640007 -0.1041363775730133
			vertex -0.10000000149011612 -0.09633251279592514 -0.10419314354658127
		endloop
	endfacet
	facet normal -0.9301167414761089 -0.35806352558890564 -0.0816906290140336
		outer loop
			vertex -0.14307352900505066 0.1023595854640007 -0.09541485458612442
			vertex -0.1334330290555954 0.07643735408782959 -0.09155865758657455
			vertex -0.14653350412845612 0.1023595854640007 -0.05602011829614639
		endloop
	endfacet
	facet normal -0.9416626198357994 -0.014937878270482811 -0.33622666491037745
		outer loop
			vertex -0.14773023128509521 0.1023595854640007 -0.05266847088932991
			vertex -0.14653350412845612 0.1023595854640007 -0.05602011829614639
			vertex -0.1334330290555954 0.07643735408782959 -0.09155865758657455
		endloop
	endfacet
	facet normal -0.9416640780380613 -0.014945304711673999 -0.33622225089931695
		outer loop
			vertex -0.14773023128509521 0.1023595854640007 -0.05266847088932991
			vertex -0.1334330290555954 0.07643735408782959 -0.09155865758657455
			vertex -0.13788990676403046 0.06527066230773926 -0.07857982814311981
		endloop
	endfacet
	facet normal -0.7488036314249854 -0.35307849508417244 -0.5609177282577639
		outer loop
			vertex -0.11427200585603714 0.02513192780315876 -0.08484286069869995
			vertex -0.13100077211856842 0.031680040061473846 -0.06663241237401962
			vertex -0.13788990676403046 0.06527066230773926 -0.07857982814311981
		endloop
	endfacet
	facet normal -0.7488039037724137 -0.3530787356980397 -0.5609172132258626
		outer loop
			vertex -0.11427200585603714 0.02513192780315876 -0.08484286069869995
			vertex -0.13788990676403046 0.06527066230773926 -0.07857982814311981
			vertex -0.1334330290555954 0.07643735408782959 -0.09155865758657455
		endloop
	endfacet
	facet normal -0.7091772869565023 0.12022106352183437 -0.6947045930110827
		outer loop
			vertex -0.13100077211856842 0.031680040061473846 -0.06663241237401962
			vertex -0.11427200585603714 0.02513192780315876 -0.08484286069869995
			vertex -0.09999924153089523 -0.007337365299463272 -0.10503189265727997
		endloop
	endfacet
	facet normal -0.7091775080425503 0.12022072362718744 -0.6947044261389976
		outer loop
			vertex -0.13100077211856842 0.031680040061473846 -0.06663241237401962
			vertex -0.09999924153089523 -0.007337365299463272 -0.10503189265727997
			vertex -0.11326868087053299 -0.039286691695451736 -0.09701493382453918
		endloop
	endfacet
	facet normal -0.5026630452190302 -0.008142762402556408 -0.8644440747622643
		outer loop
			vertex -0.11326868087053299 -0.039286691695451736 -0.09701493382453918
			vertex -0.09999924153089523 -0.007337365299463272 -0.10503189265727997
			vertex -0.10000000149011612 -0.09017212688922882 -0.10425117611885071
		endloop
	endfacet
	facet normal -0.502664517160371 -0.008143268615050646 -0.8644432140772431
		outer loop
			vertex -0.11326868087053299 -0.039286691695451736 -0.09701493382453918
			vertex -0.10000000149011612 -0.09017212688922882 -0.10425117611885071
			vertex -0.10142681002616882 -0.09019826352596283 -0.10342125594615936
		endloop
	endfacet
	facet normal 1 0 0
		outer loop
			vertex -0.10000000149011612 -0.037571586668491364 -0.07713907212018967
			vertex -0.10000000149011612 -0.010889693163335323 -0.0894528403878212
			vertex -0.10000000149011612 -0.01308268029242754 -0.07984063774347305
		endloop
	endfacet
	facet normal 1 0 0
		outer loop
			vertex -0.10000000149011612 -0.037571586668491364 -0.07713907212018967
			vertex -0.10000000149011612 -0.01308268029242754 -0.07984063774347305
			vertex -0.10000000149011612 -0.026467230170965195 -0.07141551375389099
		endloop
	endfacet
	facet normal 1 0 0
		outer loop
			vertex -0.10000000149011612 -0.007335638627409935 -0.10503081977367401
			vertex -0.10000000149011612 -0.010889693163335323 -0.0894528403878212
			vertex -0.10000000149011612 -0.037571586668491364 -0.07713907212018967
		endloop
	endfacet
	facet normal 1 0 0
		outer loop
			vertex -0.10000000149011612 -0.007335638627409935 -0.10503081977367401
			vertex -0.10000000149011612 -0.037571586668491364 -0.07713907212018967
			vertex -0.10000000149011612 -0.09017212688922882 -0.10425117611885071
		endloop
	endfacet
	facet normal -0.5026645166232075 -0.008143298821726007 -0.864443214105043
		outer loop
			vertex -0.10000000149011612 -0.09017212688922882 -0.10425117611885071
			vertex -0.10000000149011612 -0.09633251279592514 -0.10419314354658127
			vertex -0.10142681002616882 -0.09019826352596283 -0.10342125594615936
		endloop
	endfacet
	facet normal 1 0 0
		outer loop
			vertex -0.10000000149011612 -0.0648748129606247 -0.04723922908306122
			vertex -0.10000000149011612 -0.1023595854640007 -0.04723922908306122
			vertex -0.10000000149011612 -0.037571586668491364 -0.07713907212018967
		endloop
	endfacet
	facet normal 1 0 0
		outer loop
			vertex -0.10000000149011612 -0.0648748129606247 -0.04723922908306122
			vertex -0.10000000149011612 -0.037571586668491364 -0.07713907212018967
			vertex -0.10000000149011612 -0.026467230170965195 -0.07141551375389099
		endloop
	endfacet
	facet normal 1 0 0
		outer loop
			vertex -0.10000000149011612 -0.1023595854640007 -0.04723922908306122
			vertex -0.10000000149011612 -0.1023595854640007 -0.08041033148765564
			vertex -0.10000000149011612 -0.09633251279592514 -0.10419314354658127
		endloop
	endfacet
	facet normal 1 0 0
		outer loop
			vertex -0.10000000149011612 -0.1023595854640007 -0.04723922908306122
			vertex -0.10000000149011612 -0.09633251279592514 -0.10419314354658127
			vertex -0.10000000149011612 -0.09017212688922882 -0.10425117611885071
		endloop
	endfacet
	facet normal 1 0 0
		outer loop
			vertex -0.10000000149011612 -0.1023595854640007 -0.04723922908306122
			vertex -0.10000000149011612 -0.09017212688922882 -0.10425117611885071
			vertex -0.10000000149011612 -0.037571586668491364 -0.07713907212018967
		endloop
	endfacet
	facet normal 1 0 0
		outer loop
			vertex -0.10000000149011612 -0.020520567893981934 -0.04723922908306122
			vertex -0.10000000149011612 -0.0648748129606247 -0.04723922908306122
			vertex -0.10000000149011612 -0.01308268029242754 -0.07984063774347305
		endloop
	endfacet
	facet normal -0.6893892148855616 -0.35067642661826165 -0.6338521548545182
		outer loop
			vertex -0.1170281395316124 0.1023595854640007 -0.12374229729175568
			vertex -0.1334330290555954 0.07643735408782959 -0.09155865758657455
			vertex -0.14307352900505066 0.1023595854640007 -0.09541485458612442
		endloop
	endfacet
	facet normal -0.7488036865782467 -0.3530787782232339 -0.5609174764038068
		outer loop
			vertex -0.10000000149011612 0.029321305453777313 -0.106532521545887
			vertex -0.10000000149011612 0.019545458257198334 -0.10037895292043686
			vertex -0.11427200585603714 0.02513192780315876 -0.08484286069869995
		endloop
	endfacet
	facet normal -0.7488037181943072 -0.3530787016263584 -0.5609174824127214
		outer loop
			vertex -0.10000000149011612 0.029321305453777313 -0.106532521545887
			vertex -0.11427200585603714 0.02513192780315876 -0.08484286069869995
			vertex -0.1334330290555954 0.07643735408782959 -0.09155865758657455
		endloop
	endfacet
	facet normal -0.7091773764406716 0.12022097672663956 -0.6947045166828979
		outer loop
			vertex -0.11427200585603714 0.02513192780315876 -0.08484286069869995
			vertex -0.10000000149011612 0.019545458257198334 -0.10037895292043686
			vertex -0.09999924153089523 -0.007337365299463272 -0.10503189265727997
		endloop
	endfacet
	facet normal 1 0 0
		outer loop
			vertex -0.10000000149011612 -0.01308268029242754 -0.07984063774347305
			vertex -0.10000000149011612 -0.010889693163335323 -0.0894528403878212
			vertex -0.10000000149011612 0.014628955163061619 -0.10122977197170258
		endloop
	endfacet
	facet normal 1 0 0
		outer loop
			vertex -0.10000000149011612 -0.01308268029242754 -0.07984063774347305
			vertex -0.10000000149011612 0.014628955163061619 -0.10122977197170258
			vertex -0.10000000149011612 0.019545458257198334 -0.10037895292043686
		endloop
	endfacet
	facet normal 1 0 0
		outer loop
			vertex -0.10000000149011612 0.014628955163061619 -0.10122977197170258
			vertex -0.10000000149011612 -0.010889693163335323 -0.0894528403878212
			vertex -0.10000000149011612 -0.007335638627409935 -0.10503081977367401
		endloop
	endfacet
	facet normal -0.6414907375431309 -0.22180778142300006 -0.7343643113241388
		outer loop
			vertex -0.10000000149011612 0.04794461652636528 -0.11215751618146896
			vertex -0.10000000149011612 0.029321305453777313 -0.106532521545887
			vertex -0.1334330290555954 0.07643735408782959 -0.09155865758657455
		endloop
	endfacet
	facet normal 1 0 0
		outer loop
			vertex -0.10000000149011612 0.029077814891934395 -0.10637925565242767
			vertex -0.10000000149011612 0.029321305453777313 -0.106532521545887
			vertex -0.10000000149011612 0.04794461652636528 -0.11215751618146896
		endloop
	endfacet
	facet normal 1 0 0
		outer loop
			vertex -0.10000000149011612 0.029077814891934395 -0.10637925565242767
			vertex -0.10000000149011612 0.04794461652636528 -0.11215751618146896
			vertex -0.10000000149011612 0.03640351817011833 -0.10577244311571121
		endloop
	endfacet
	facet normal 1 0 0
		outer loop
			vertex -0.10000000149011612 0.003048237878829241 -0.08999451249837875
			vertex -0.10000000149011612 0.029077814891934395 -0.10637925565242767
			vertex -0.10000000149011612 0.03640351817011833 -0.10577244311571121
		endloop
	endfacet
	facet normal 1 0 0
		outer loop
			vertex -0.10000000149011612 0.003048237878829241 -0.08999451249837875
			vertex -0.10000000149011612 0.03640351817011833 -0.10577244311571121
			vertex -0.10000000149011612 0.0058005331084132195 -0.08884144574403763
		endloop
	endfacet
	facet normal 1 0 0
		outer loop
			vertex -0.10000000149011612 -0.013460306450724602 -0.07818544656038284
			vertex -0.10000000149011612 -0.01308268029242754 -0.07984063774347305
			vertex -0.10000000149011612 0.003048237878829241 -0.08999451249837875
		endloop
	endfacet
	facet normal 1 0 0
		outer loop
			vertex -0.10000000149011612 -0.013460306450724602 -0.07818544656038284
			vertex -0.10000000149011612 0.003048237878829241 -0.08999451249837875
			vertex -0.10000000149011612 0.0058005331084132195 -0.08884144574403763
		endloop
	endfacet
	facet normal -0.33483897276489033 -0.6431216686590756 -0.6886779955965774
		outer loop
			vertex -0.10000000149011612 0.1023595854640007 -0.1320214420557022
			vertex -0.10000000149011612 0.09693325310945511 -0.1269540637731552
			vertex -0.1334330290555954 0.07643735408782959 -0.09155865758657455
		endloop
	endfacet
	facet normal -0.33483764282668743 -0.643122777272018 -0.6886776069397016
		outer loop
			vertex -0.10000000149011612 0.1023595854640007 -0.1320214420557022
			vertex -0.1334330290555954 0.07643735408782959 -0.09155865758657455
			vertex -0.1170281395316124 0.1023595854640007 -0.12374229729175568
		endloop
	endfacet
	facet normal -0.6414907059129729 -0.22180770838479316 -0.7343643610145869
		outer loop
			vertex -0.10000000149011612 0.09693325310945511 -0.1269540637731552
			vertex -0.10000000149011612 0.04794461652636528 -0.11215751618146896
			vertex -0.1334330290555954 0.07643735408782959 -0.09155865758657455
		endloop
	endfacet
	facet normal 1 0 0
		outer loop
			vertex -0.10000000149011612 0.03640351817011833 -0.10577244311571121
			vertex -0.10000000149011612 0.04794461652636528 -0.11215751618146896
			vertex -0.10000000149011612 0.09693325310945511 -0.1269540637731552
		endloop
	endfacet
	facet normal 1 0 0
		outer loop
			vertex -0.10000000149011612 0.03640351817011833 -0.10577244311571121
			vertex -0.10000000149011612 0.09693325310945511 -0.1269540637731552
			vertex -0.10000000149011612 0.07116764783859253 -0.10289280116558075
		endloop
	endfacet
	facet normal 1 0 0
		outer loop
			vertex -0.10000000149011612 0.01157193724066019 -0.04723922908306122
			vertex -0.10000000149011612 -0.020520567893981934 -0.04723922908306122
			vertex -0.10000000149011612 -0.013460306450724602 -0.07818544656038284
		endloop
	endfacet
	facet normal 1 0 0
		outer loop
			vertex -0.10000000149011612 0.01157193724066019 -0.04723922908306122
			vertex -0.10000000149011612 -0.013460306450724602 -0.07818544656038284
			vertex -0.10000000149011612 0.03640351817011833 -0.10577244311571121
		endloop
	endfacet
	facet normal 1 0 0
		outer loop
			vertex -0.10000000149011612 0.01157193724066019 -0.04723922908306122
			vertex -0.10000000149011612 0.03640351817011833 -0.10577244311571121
			vertex -0.10000000149011612 0.07116764783859253 -0.10289280116558075
		endloop
	endfacet
	facet normal 1 0 0
		outer loop
			vertex -0.10000000149011612 0.0988367572426796 -0.1287316530942917
			vertex -0.10000000149011612 0.1023595854640007 -0.1320214420557022
			vertex -0.10000000149011612 0.1023595854640007 -0.13055595755577087
		endloop
	endfacet
	facet normal 1 0 0
		outer loop
			vertex -0.10000000149011612 0.07116764783859253 -0.10289280116558075
			vertex -0.10000000149011612 0.0988367572426796 -0.1287316530942917
			vertex -0.10000000149011612 0.1023595854640007 -0.13055595755577087
		endloop
	endfacet
	facet normal 1 0 0
		outer loop
			vertex -0.10000000149011612 0.07116764783859253 -0.10289280116558075
			vertex -0.10000000149011612 0.1023595854640007 -0.13055595755577087
			vertex -0.10000000149011612 0.1023595854640007 -0.10030905902385712
		endloop
	endfacet
	facet normal 1 0 0
		outer loop
			vertex -0.10000000149011612 0.06600932776927948 -0.09807569533586502
			vertex -0.10000000149011612 0.07116764783859253 -0.10289280116558075
			vertex -0.10000000149011612 0.1023595854640007 -0.10030905902385712
		endloop
	endfacet
	facet normal 1 0 0
		outer loop
			vertex -0.10000000149011612 0.06600932776927948 -0.09807569533586502
			vertex -0.10000000149011612 0.1023595854640007 -0.10030905902385712
			vertex -0.10000000149011612 0.1023595854640007 -0.06344310939311981
		endloop
	endfacet
	facet normal 1 0 0
		outer loop
			vertex -0.10000000149011612 0.1023595854640007 -0.04723922908306122
			vertex -0.10000000149011612 0.01157193724066019 -0.04723922908306122
			vertex -0.10000000149011612 0.06600932776927948 -0.09807569533586502
		endloop
	endfacet
	facet normal 1 0 0
		outer loop
			vertex -0.10000000149011612 0.1023595854640007 -0.04723922908306122
			vertex -0.10000000149011612 0.06600932776927948 -0.09807569533586502
			vertex -0.10000000149011612 0.1023595854640007 -0.06344310939311981
		endloop
	endfacet
	facet normal 0 1 0
		outer loop
			vertex -0.14877644181251526 0.1023595854640007 -0.04723922908306122
			vertex -0.14712686836719513 0.1023595854640007 -0.04723922908306122
			vertex -0.1488363891839981 0.1023595854640007 -0.04957039654254913
		endloop
	endfacet
	facet normal 0 1 0
		outer loop
			vertex -0.14877644181251526 0.1023595854640007 -0.04723922908306122
			vertex -0.1488363891839981 0.1023595854640007 -0.04957039654254913
			vertex -0.14901672303676605 0.1023595854640007 -0.04906536266207695
		endloop
	endfacet
	facet normal 0 1 0
		outer loop
			vertex -0.1488363891839981 0.1023595854640007 -0.04957039654254913
			vertex -0.14797434210777283 0.1023595854640007 -0.048394881188869476
			vertex -0.14773023128509521 0.1023595854640007 -0.05266847088932991
		endloop
	endfacet
	facet normal 0 1 0
		outer loop
			vertex -0.14773023128509521 0.1023595854640007 -0.05266847088932991
			vertex -0.14797434210777283 0.1023595854640007 -0.048394881188869476
			vertex -0.14728569984436035 0.1023595854640007 -0.04745582118630409
		endloop
	endfacet
	facet normal 0 1 0
		outer loop
			vertex -0.14773023128509521 0.1023595854640007 -0.05266847088932991
			vertex -0.14728569984436035 0.1023595854640007 -0.04745582118630409
			vertex -0.14653350412845612 0.1023595854640007 -0.05602011829614639
		endloop
	endfacet
	facet normal 0 1 0
		outer loop
			vertex -0.10000000149011612 0.1023595854640007 -0.13055595755577087
			vertex -0.10000000149011612 0.1023595854640007 -0.1320214420557022
			vertex -0.10656659305095673 0.1023595854640007 -0.1288287490606308
		endloop
	endfacet
	facet normal 0 1 0
		outer loop
			vertex -0.10000000149011612 0.1023595854640007 -0.10030905902385712
			vertex -0.10000000149011612 0.1023595854640007 -0.13055595755577087
			vertex -0.10656659305095673 0.1023595854640007 -0.1288287490606308
		endloop
	endfacet
	facet normal 0 1 0
		outer loop
			vertex -0.10000000149011612 0.1023595854640007 -0.10030905902385712
			vertex -0.10656659305095673 0.1023595854640007 -0.1288287490606308
			vertex -0.1170281395316124 0.1023595854640007 -0.12374229729175568
		endloop
	endfacet
	facet normal 0 1 0
		outer loop
			vertex -0.10000000149011612 0.1023595854640007 -0.10030905902385712
			vertex -0.1170281395316124 0.1023595854640007 -0.12374229729175568
			vertex -0.14307352900505066 0.1023595854640007 -0.09541485458612442
		endloop
	endfacet
	facet normal 0 1 0
		outer loop
			vertex -0.10000000149011612 0.1023595854640007 -0.10030905902385712
			vertex -0.14307352900505066 0.1023595854640007 -0.09541485458612442
			vertex -0.14399293065071106 0.1023595854640007 -0.08494675159454346
		endloop
	endfacet
	facet normal 0 1 0
		outer loop
			vertex -0.10000000149011612 0.1023595854640007 -0.06344310939311981
			vertex -0.10000000149011612 0.1023595854640007 -0.10030905902385712
			vertex -0.13193656504154205 0.1023595854640007 -0.08915682137012482
		endloop
	endfacet
	facet normal 0 1 0
		outer loop
			vertex -0.14712686836719513 0.1023595854640007 -0.04723922908306122
			vertex -0.10000000149011612 0.1023595854640007 -0.04723922908306122
			vertex -0.10000000149011612 0.1023595854640007 -0.06344310939311981
		endloop
	endfacet
	facet normal 0 1 0
		outer loop
			vertex -0.14712686836719513 0.1023595854640007 -0.04723922908306122
			vertex -0.10000000149011612 0.1023595854640007 -0.06344310939311981
			vertex -0.13193656504154205 0.1023595854640007 -0.08915682137012482
		endloop
	endfacet
	facet normal 0 1 0
		outer loop
			vertex -0.14712686836719513 0.1023595854640007 -0.04723922908306122
			vertex -0.13193656504154205 0.1023595854640007 -0.08915682137012482
			vertex -0.14399293065071106 0.1023595854640007 -0.08494675159454346
		endloop
	endfacet
	facet normal 0 1 0
		outer loop
			vertex -0.14712686836719513 0.1023595854640007 -0.04723922908306122
			vertex -0.14399293065071106 0.1023595854640007 -0.08494675159454346
			vertex -0.14728569984436035 0.1023595854640007 -0.04745582118630409
		endloop
	endfacet
	facet normal 0 -1 0
		outer loop
			vertex -0.1523059457540512 -0.1023595854640007 -0.06338459998369217
			vertex -0.1511324793100357 -0.1023595854640007 -0.061759695410728455
			vertex -0.15664765238761902 -0.1023595854640007 -0.04723922908306122
		endloop
	endfacet
	facet normal 0 -1 0
		outer loop
			vertex -0.1523059457540512 -0.1023595854640007 -0.06338459998369217
			vertex -0.15664765238761902 -0.1023595854640007 -0.04723922908306122
			vertex -0.16239508986473083 -0.1023595854640007 -0.04723922908306122
		endloop
	endfacet
	facet normal 0 -1 0
		outer loop
			vertex -0.1523059457540512 -0.1023595854640007 -0.06338459998369217
			vertex -0.16239508986473083 -0.1023595854640007 -0.04723922908306122
			vertex -0.15597082674503326 -0.1023595854640007 -0.059240132570266724
		endloop
	endfacet
	facet normal 0 -1 0
		outer loop
			vertex -0.1511324793100357 -0.1023595854640007 -0.061759695410728455
			vertex -0.1495693325996399 -0.1023595854640007 -0.05959516018629074
			vertex -0.14794358611106873 -0.1023595854640007 -0.04723922908306122
		endloop
	endfacet
	facet normal 0 -1 0
		outer loop
			vertex -0.1511324793100357 -0.1023595854640007 -0.061759695410728455
			vertex -0.14794358611106873 -0.1023595854640007 -0.04723922908306122
			vertex -0.15664765238761902 -0.1023595854640007 -0.04723922908306122
		endloop
	endfacet
	facet normal 0 -1 0
		outer loop
			vertex -0.1495693325996399 -0.1023595854640007 -0.05959516018629074
			vertex -0.14450958371162415 -0.1023595854640007 -0.052588846534490585
			vertex -0.1464196741580963 -0.1023595854640007 -0.04723922908306122
		endloop
	endfacet
	facet normal 0 -1 0
		outer loop
			vertex -0.1495693325996399 -0.1023595854640007 -0.05959516018629074
			vertex -0.1464196741580963 -0.1023595854640007 -0.04723922908306122
			vertex -0.14794358611106873 -0.1023595854640007 -0.04723922908306122
		endloop
	endfacet
	facet normal 0 -1 0
		outer loop
			vertex -0.14450958371162415 -0.1023595854640007 -0.052588846534490585
			vertex -0.14064626395702362 -0.1023595854640007 -0.04723922908306122
			vertex -0.1464196741580963 -0.1023595854640007 -0.04723922908306122
		endloop
	endfacet
	facet normal 0 -1 0
		outer loop
			vertex -0.15035779774188995 -0.1023595854640007 -0.06558767706155777
			vertex -0.1501830369234085 -0.1023595854640007 -0.06425945460796356
			vertex -0.1511324793100357 -0.1023595854640007 -0.061759695410728455
		endloop
	endfacet
	facet normal 0 -1 0
		outer loop
			vertex -0.15035779774188995 -0.1023595854640007 -0.06558767706155777
			vertex -0.1511324793100357 -0.1023595854640007 -0.061759695410728455
			vertex -0.1523059457540512 -0.1023595854640007 -0.06338459998369217
		endloop
	endfacet
	facet normal 0 -1 0
		outer loop
			vertex -0.1501830369234085 -0.1023595854640007 -0.06425945460796356
			vertex -0.1495693325996399 -0.1023595854640007 -0.05959516018629074
			vertex -0.1511324793100357 -0.1023595854640007 -0.061759695410728455
		endloop
	endfacet
	facet normal 0 -1 0
		outer loop
			vertex -0.14916712045669556 -0.1023595854640007 -0.06693415343761444
			vertex -0.1501830369234085 -0.1023595854640007 -0.06425945460796356
			vertex -0.15035779774188995 -0.1023595854640007 -0.06558767706155777
		endloop
	endfacet
	facet normal 0 -1 0
		outer loop
			vertex -0.14802992343902588 -0.1023595854640007 -0.06992819905281067
			vertex -0.14078310132026672 -0.1023595854640007 -0.06650485843420029
			vertex -0.13994763791561127 -0.1023595854640007 -0.06536558270454407
		endloop
	endfacet
	facet normal 0 -1 0
		outer loop
			vertex -0.14802992343902588 -0.1023595854640007 -0.06992819905281067
			vertex -0.13994763791561127 -0.1023595854640007 -0.06536558270454407
			vertex -0.14450958371162415 -0.1023595854640007 -0.052588846534490585
		endloop
	endfacet
	facet normal 0 -1 0
		outer loop
			vertex -0.14802992343902588 -0.1023595854640007 -0.06992819905281067
			vertex -0.14450958371162415 -0.1023595854640007 -0.052588846534490585
			vertex -0.1495693325996399 -0.1023595854640007 -0.05959516018629074
		endloop
	endfacet
	facet normal 0 -1 0
		outer loop
			vertex -0.14802992343902588 -0.1023595854640007 -0.06992819905281067
			vertex -0.1495693325996399 -0.1023595854640007 -0.05959516018629074
			vertex -0.1501830369234085 -0.1023595854640007 -0.06425945460796356
		endloop
	endfacet
	facet normal 0 -1 0
		outer loop
			vertex -0.14078310132026672 -0.1023595854640007 -0.06650485843420029
			vertex -0.14802992343902588 -0.1023595854640007 -0.06992819905281067
			vertex -0.14646896719932556 -0.1023595854640007 -0.07403792440891266
		endloop
	endfacet
	facet normal 0 -1 0
		outer loop
			vertex -0.14078310132026672 -0.1023595854640007 -0.06650485843420029
			vertex -0.14646896719932556 -0.1023595854640007 -0.07403792440891266
			vertex -0.14637655019760132 -0.1023595854640007 -0.0741322785615921
		endloop
	endfacet
	facet normal 0 -1 0
		outer loop
			vertex -0.13994763791561127 -0.1023595854640007 -0.06536558270454407
			vertex -0.1266549825668335 -0.1023595854640007 -0.04723922908306122
			vertex -0.14064626395702362 -0.1023595854640007 -0.04723922908306122
		endloop
	endfacet
	facet normal 0 -1 0
		outer loop
			vertex -0.13994763791561127 -0.1023595854640007 -0.06536558270454407
			vertex -0.14064626395702362 -0.1023595854640007 -0.04723922908306122
			vertex -0.14450958371162415 -0.1023595854640007 -0.052588846534490585
		endloop
	endfacet
	facet normal 0 -1 0
		outer loop
			vertex -0.14078310132026672 -0.1023595854640007 -0.06650485843420029
			vertex -0.1397201418876648 -0.1023595854640007 -0.0660027265548706
			vertex -0.13994763791561127 -0.1023595854640007 -0.06536558270454407
		endloop
	endfacet
	facet normal 0 -1 0
		outer loop
			vertex -0.1397201418876648 -0.1023595854640007 -0.0660027265548706
			vertex -0.14078310132026672 -0.1023595854640007 -0.06650485843420029
			vertex -0.14637655019760132 -0.1023595854640007 -0.0741322785615921
		endloop
	endfacet
	facet normal 0 -1 0
		outer loop
			vertex -0.1397201418876648 -0.1023595854640007 -0.0660027265548706
			vertex -0.14637655019760132 -0.1023595854640007 -0.0741322785615921
			vertex -0.1394645869731903 -0.1023595854640007 -0.08118823915719986
		endloop
	endfacet
	facet normal 0 -1 0
		outer loop
			vertex -0.1397201418876648 -0.1023595854640007 -0.0660027265548706
			vertex -0.1394645869731903 -0.1023595854640007 -0.08118823915719986
			vertex -0.13294441998004913 -0.1023595854640007 -0.08497963100671768
		endloop
	endfacet
	facet normal 0 -1 0
		outer loop
			vertex -0.1397201418876648 -0.1023595854640007 -0.0660027265548706
			vertex -0.10184506326913834 -0.1023595854640007 -0.04811082035303116
			vertex -0.10189484804868698 -0.1023595854640007 -0.04723922908306122
		endloop
	endfacet
	facet normal 0 -1 0
		outer loop
			vertex -0.1397201418876648 -0.1023595854640007 -0.0660027265548706
			vertex -0.10189484804868698 -0.1023595854640007 -0.04723922908306122
			vertex -0.1266549825668335 -0.1023595854640007 -0.04723922908306122
		endloop
	endfacet
	facet normal 0 -1 0
		outer loop
			vertex -0.1397201418876648 -0.1023595854640007 -0.0660027265548706
			vertex -0.1266549825668335 -0.1023595854640007 -0.04723922908306122
			vertex -0.13994763791561127 -0.1023595854640007 -0.06536558270454407
		endloop
	endfacet
	facet normal 0 -1 0
		outer loop
			vertex -0.10000000149011612 -0.1023595854640007 -0.1041363775730133
			vertex -0.10000000149011612 -0.1023595854640007 -0.08041033148765564
			vertex -0.10184506326913834 -0.1023595854640007 -0.04811082035303116
		endloop
	endfacet
	facet normal 0 -1 0
		outer loop
			vertex -0.10000000149011612 -0.1023595854640007 -0.1041363775730133
			vertex -0.10184506326913834 -0.1023595854640007 -0.04811082035303116
			vertex -0.1397201418876648 -0.1023595854640007 -0.0660027265548706
		endloop
	endfacet
	facet normal 0 -1 0
		outer loop
			vertex -0.10000000149011612 -0.1023595854640007 -0.1041363775730133
			vertex -0.1397201418876648 -0.1023595854640007 -0.0660027265548706
			vertex -0.13294441998004913 -0.1023595854640007 -0.08497963100671768
		endloop
	endfacet
	facet normal 0 -1 0
		outer loop
			vertex -0.10184506326913834 -0.1023595854640007 -0.04811082035303116
			vertex -0.10000000149011612 -0.1023595854640007 -0.04723922908306122
			vertex -0.10189484804868698 -0.1023595854640007 -0.04723922908306122
		endloop
	endfacet
	facet normal 0 -1 0
		outer loop
			vertex -0.10000000149011612 -0.1023595854640007 -0.08041033148765564
			vertex -0.10000000149011612 -0.1023595854640007 -0.04723922908306122
			vertex -0.10184506326913834 -0.1023595854640007 -0.04811082035303116
		endloop
	endfacet
	facet normal 0 0 1
		outer loop
			vertex -0.16239508986473083 -0.1023595854640007 -0.04723922908306122
			vertex -0.15664765238761902 -0.1023595854640007 -0.04723922908306122
			vertex -0.15486019849777222 -0.07081693410873413 -0.04723922908306122
		endloop
	endfacet
	facet normal 0 0 1
		outer loop
			vertex -0.16239508986473083 -0.1023595854640007 -0.04723922908306122
			vertex -0.15486019849777222 -0.07081693410873413 -0.04723922908306122
			vertex -0.1625167727470398 -0.09141850471496582 -0.04723922908306122
		endloop
	endfacet
	facet normal 0 0 1
		outer loop
			vertex -0.15664765238761902 -0.1023595854640007 -0.04723922908306122
			vertex -0.14794358611106873 -0.1023595854640007 -0.04723922908306122
			vertex -0.1485169380903244 0.0385727658867836 -0.04723922908306122
		endloop
	endfacet
	facet normal 0 0 1
		outer loop
			vertex -0.15664765238761902 -0.1023595854640007 -0.04723922908306122
			vertex -0.1485169380903244 0.0385727658867836 -0.04723922908306122
			vertex -0.14868846535682678 0.038093291223049164 -0.04723922908306122
		endloop
	endfacet
	facet normal 0 0 1
		outer loop
			vertex -0.14794358611106873 -0.1023595854640007 -0.04723922908306122
			vertex -0.1464196741580963 -0.1023595854640007 -0.04723922908306122
			vertex -0.14846886694431305 0.026757579296827316 -0.04723922908306122
		endloop
	endfacet
	facet normal 0 0 1
		outer loop
			vertex -0.1464196741580963 -0.1023595854640007 -0.04723922908306122
			vertex -0.14064626395702362 -0.1023595854640007 -0.04723922908306122
			vertex -0.14650759100914001 0.0337577685713768 -0.04723922908306122
		endloop
	endfacet
	facet normal 0 0 1
		outer loop
			vertex -0.1464196741580963 -0.1023595854640007 -0.04723922908306122
			vertex -0.14650759100914001 0.0337577685713768 -0.04723922908306122
			vertex -0.14851467311382294 0.03801434114575386 -0.04723922908306122
		endloop
	endfacet
	facet normal 0 0 1
		outer loop
			vertex -0.1464196741580963 -0.1023595854640007 -0.04723922908306122
			vertex -0.14851467311382294 0.03801434114575386 -0.04723922908306122
			vertex -0.14846886694431305 0.026757579296827316 -0.04723922908306122
		endloop
	endfacet
	facet normal 0 0 1
		outer loop
			vertex -0.14767107367515564 0.06077742949128151 -0.04723922908306122
			vertex -0.14870494604110718 0.08478688448667526 -0.04723922908306122
			vertex -0.14860595762729645 0.06045379489660263 -0.04723922908306122
		endloop
	endfacet
	facet normal 0 0 1
		outer loop
			vertex -0.14857417345046997 0.05263926833868027 -0.04723922908306122
			vertex -0.14737357199192047 0.05386820062994957 -0.04723922908306122
			vertex -0.14767107367515564 0.06077742949128151 -0.04723922908306122
		endloop
	endfacet
	facet normal 0 0 1
		outer loop
			vertex -0.14857417345046997 0.05263926833868027 -0.04723922908306122
			vertex -0.14767107367515564 0.06077742949128151 -0.04723922908306122
			vertex -0.14860595762729645 0.06045379489660263 -0.04723922908306122
		endloop
	endfacet
	facet normal 0 0 1
		outer loop
			vertex -0.14650759100914001 0.0337577685713768 -0.04723922908306122
			vertex -0.14737357199192047 0.05386820062994957 -0.04723922908306122
			vertex -0.14857417345046997 0.05263926833868027 -0.04723922908306122
		endloop
	endfacet
	facet normal 0 0 1
		outer loop
			vertex -0.14650759100914001 0.0337577685713768 -0.04723922908306122
			vertex -0.14857417345046997 0.05263926833868027 -0.04723922908306122
			vertex -0.14851467311382294 0.03801434114575386 -0.04723922908306122
		endloop
	endfacet
	facet normal 0 0 1
		outer loop
			vertex -0.14064626395702362 -0.1023595854640007 -0.04723922908306122
			vertex -0.1266549825668335 -0.1023595854640007 -0.04723922908306122
			vertex -0.1385868936777115 0.01695966348052025 -0.04723922908306122
		endloop
	endfacet
	facet normal 0 0 1
		outer loop
			vertex -0.14064626395702362 -0.1023595854640007 -0.04723922908306122
			vertex -0.1385868936777115 0.01695966348052025 -0.04723922908306122
			vertex -0.14650759100914001 0.0337577685713768 -0.04723922908306122
		endloop
	endfacet
	facet normal 0 0 1
		outer loop
			vertex -0.14737357199192047 0.05386820062994957 -0.04723922908306122
			vertex -0.14275091886520386 0.05859993025660515 -0.04723922908306122
			vertex -0.14712686836719513 0.1023595854640007 -0.04723922908306122
		endloop
	endfacet
	facet normal 0 0 1
		outer loop
			vertex -0.14737357199192047 0.05386820062994957 -0.04723922908306122
			vertex -0.14712686836719513 0.1023595854640007 -0.04723922908306122
			vertex -0.14877644181251526 0.1023595854640007 -0.04723922908306122
		endloop
	endfacet
	facet normal 0 0 1
		outer loop
			vertex -0.14737357199192047 0.05386820062994957 -0.04723922908306122
			vertex -0.14877644181251526 0.1023595854640007 -0.04723922908306122
			vertex -0.14870494604110718 0.08478688448667526 -0.04723922908306122
		endloop
	endfacet
	facet normal 0 0 1
		outer loop
			vertex -0.1385868936777115 0.01695966348052025 -0.04723922908306122
			vertex -0.14275091886520386 0.05859993025660515 -0.04723922908306122
			vertex -0.14737357199192047 0.05386820062994957 -0.04723922908306122
		endloop
	endfacet
	facet normal 0 0 1
		outer loop
			vertex -0.1385868936777115 0.01695966348052025 -0.04723922908306122
			vertex -0.14737357199192047 0.05386820062994957 -0.04723922908306122
			vertex -0.14650759100914001 0.0337577685713768 -0.04723922908306122
		endloop
	endfacet
	facet normal 0 0 1
		outer loop
			vertex -0.12610866129398346 -0.009503945708274841 -0.04723922908306122
			vertex -0.1385868936777115 0.01695966348052025 -0.04723922908306122
			vertex -0.13492901623249054 -0.01961912028491497 -0.04723922908306122
		endloop
	endfacet
	facet normal 0 0 1
		outer loop
			vertex -0.1266549825668335 -0.1023595854640007 -0.04723922908306122
			vertex -0.10189484804868698 -0.1023595854640007 -0.04723922908306122
			vertex -0.11981821805238724 -0.022844644263386726 -0.04723922908306122
		endloop
	endfacet
	facet normal 0 0 1
		outer loop
			vertex -0.1266549825668335 -0.1023595854640007 -0.04723922908306122
			vertex -0.11981821805238724 -0.022844644263386726 -0.04723922908306122
			vertex -0.12610866129398346 -0.009503945708274841 -0.04723922908306122
		endloop
	endfacet
	facet normal 0 0 1
		outer loop
			vertex -0.1266549825668335 -0.1023595854640007 -0.04723922908306122
			vertex -0.12610866129398346 -0.009503945708274841 -0.04723922908306122
			vertex -0.13492901623249054 -0.01961912028491497 -0.04723922908306122
		endloop
	endfacet
	facet normal 0 0 1
		outer loop
			vertex -0.14275091886520386 0.05859993025660515 -0.04723922908306122
			vertex -0.13903410732746124 0.06240442767739296 -0.04723922908306122
			vertex -0.14639846980571747 0.09507549554109573 -0.04723922908306122
		endloop
	endfacet
	facet normal 0 0 1
		outer loop
			vertex -0.11981821805238724 -0.022844644263386726 -0.04723922908306122
			vertex -0.13903410732746124 0.06240442767739296 -0.04723922908306122
			vertex -0.14275091886520386 0.05859993025660515 -0.04723922908306122
		endloop
	endfacet
	facet normal 0 0 1
		outer loop
			vertex -0.11981821805238724 -0.022844644263386726 -0.04723922908306122
			vertex -0.14275091886520386 0.05859993025660515 -0.04723922908306122
			vertex -0.1385868936777115 0.01695966348052025 -0.04723922908306122
		endloop
	endfacet
	facet normal 0 0 1
		outer loop
			vertex -0.10189484804868698 -0.1023595854640007 -0.04723922908306122
			vertex -0.10000000149011612 -0.1023595854640007 -0.04723922908306122
			vertex -0.10000000149011612 -0.0648748129606247 -0.04723922908306122
		endloop
	endfacet
	facet normal 0 0 1
		outer loop
			vertex -0.10189484804868698 -0.1023595854640007 -0.04723922908306122
			vertex -0.10000000149011612 -0.0648748129606247 -0.04723922908306122
			vertex -0.11981821805238724 -0.022844644263386726 -0.04723922908306122
		endloop
	endfacet
	facet normal 0 0 1
		outer loop
			vertex -0.13903410732746124 0.06240442767739296 -0.04723922908306122
			vertex -0.13393330574035645 0.06762558966875076 -0.04723922908306122
			vertex -0.1470644474029541 0.10173545032739639 -0.04723922908306122
		endloop
	endfacet
	facet normal 0 0 1
		outer loop
			vertex -0.13903410732746124 0.06240442767739296 -0.04723922908306122
			vertex -0.1470644474029541 0.10173545032739639 -0.04723922908306122
			vertex -0.14639846980571747 0.09507549554109573 -0.04723922908306122
		endloop
	endfacet
	facet normal 0 0 1
		outer loop
			vertex -0.10000000149011612 -0.0648748129606247 -0.04723922908306122
			vertex -0.10000000149011612 -0.020520567893981934 -0.04723922908306122
			vertex -0.13393330574035645 0.06762558966875076 -0.04723922908306122
		endloop
	endfacet
	facet normal 0 0 1
		outer loop
			vertex -0.10000000149011612 -0.0648748129606247 -0.04723922908306122
			vertex -0.13393330574035645 0.06762558966875076 -0.04723922908306122
			vertex -0.13903410732746124 0.06240442767739296 -0.04723922908306122
		endloop
	endfacet
	facet normal 0 0 1
		outer loop
			vertex -0.10000000149011612 -0.0648748129606247 -0.04723922908306122
			vertex -0.13903410732746124 0.06240442767739296 -0.04723922908306122
			vertex -0.11981821805238724 -0.022844644263386726 -0.04723922908306122
		endloop
	endfacet
	facet normal 0 0 1
		outer loop
			vertex -0.10000000149011612 -0.020520567893981934 -0.04723922908306122
			vertex -0.10000000149011612 0.01157193724066019 -0.04723922908306122
			vertex -0.11545147746801376 0.01961664855480194 -0.04723922908306122
		endloop
	endfacet
	facet normal 0 0 1
		outer loop
			vertex -0.13393330574035645 0.06762558966875076 -0.04723922908306122
			vertex -0.10000000149011612 0.1023595854640007 -0.04723922908306122
			vertex -0.14712686836719513 0.1023595854640007 -0.04723922908306122
		endloop
	endfacet
	facet normal 0 0 1
		outer loop
			vertex -0.13393330574035645 0.06762558966875076 -0.04723922908306122
			vertex -0.14712686836719513 0.1023595854640007 -0.04723922908306122
			vertex -0.1470644474029541 0.10173545032739639 -0.04723922908306122
		endloop
	endfacet
	facet normal 0 0 1
		outer loop
			vertex -0.10000000149011612 0.01157193724066019 -0.04723922908306122
			vertex -0.10000000149011612 0.1023595854640007 -0.04723922908306122
			vertex -0.13393330574035645 0.06762558966875076 -0.04723922908306122
		endloop
	endfacet
	facet normal 0 0 1
		outer loop
			vertex -0.10000000149011612 0.01157193724066019 -0.04723922908306122
			vertex -0.13393330574035645 0.06762558966875076 -0.04723922908306122
			vertex -0.11545147746801376 0.01961664855480194 -0.04723922908306122
		endloop
	endfacet
endsolid exported
