solid exported
	facet normal -0.5824119615180828 -0.8072943398646194 0.0952478656097228
		outer loop
			vertex -0.10000000149011612 -0.2864742875099182 0.10680193454027176
			vertex -0.10000000149011612 -0.28997817635536194 0.07710395008325577
			vertex -0.08607510477304459 -0.295613169670105 0.11448986083269119
		endloop
	endfacet
	facet normal -0.27043685665637024 -0.9617212937844628 -0.04422736306135348
		outer loop
			vertex -0.10000000149011612 -0.28997817635536194 0.07710395008325577
			vertex -0.10000000149011612 -0.2886047661304474 0.04723922908306122
			vertex -0.06396060436964035 -0.29873907566070557 0.04723922908306122
		endloop
	endfacet
	facet normal -0.2704321437655293 -0.9617229022663396 -0.04422120390479026
		outer loop
			vertex -0.10000000149011612 -0.28997817635536194 0.07710395008325577
			vertex -0.06396060436964035 -0.29873907566070557 0.04723922908306122
			vertex -0.06209971010684967 -0.2993790805339813 0.04977786913514137
		endloop
	endfacet
	facet normal -0.27043596173099654 -0.9617215639878723 -0.044226959689223175
		outer loop
			vertex -0.10000000149011612 -0.28997817635536194 0.07710395008325577
			vertex -0.06209971010684967 -0.2993790805339813 0.04977786913514137
			vertex -0.09539135545492172 -0.29184314608573914 0.08947735279798508
		endloop
	endfacet
	facet normal -0.5924255073609141 -0.7492041759534311 0.2961842685932253
		outer loop
			vertex -0.10000000149011612 -0.2738381326198578 0.14171770215034485
			vertex -0.10000000149011612 -0.27865922451019287 0.1295226514339447
			vertex -0.09607962518930435 -0.2772264778614044 0.1409883201122284
		endloop
	endfacet
	facet normal -0.5924253546344046 -0.7492041041192078 0.29618475578131204
		outer loop
			vertex -0.10000000149011612 -0.2738381326198578 0.14171770215034485
			vertex -0.09607962518930435 -0.2772264778614044 0.1409883201122284
			vertex -0.09635500609874725 -0.2767203748226166 0.14171770215034485
		endloop
	endfacet
	facet normal -0.6647639998645277 -0.707479157816918 0.23992095727297125
		outer loop
			vertex -0.09635500609874725 -0.2767203748226166 0.14171770215034485
			vertex -0.09607962518930435 -0.2772264778614044 0.1409883201122284
			vertex -0.09582672268152237 -0.27721676230430603 0.14171770215034485
		endloop
	endfacet
	facet normal -0.5924255077322482 -0.7492036952846708 0.29618548370908065
		outer loop
			vertex -0.10000000149011612 -0.27865922451019287 0.1295226514339447
			vertex -0.10000000149011612 -0.2830091118812561 0.11851957440376282
			vertex -0.08607510477304459 -0.295613169670105 0.11448986083269119
		endloop
	endfacet
	facet normal -0.5924263236693653 -0.7492034557029483 0.2961844577056008
		outer loop
			vertex -0.10000000149011612 -0.27865922451019287 0.1295226514339447
			vertex -0.08607510477304459 -0.295613169670105 0.11448986083269119
			vertex -0.09607962518930435 -0.2772264778614044 0.1409883201122284
		endloop
	endfacet
	facet normal -0.6647645371831574 -0.7074785923130569 0.2399211360476559
		outer loop
			vertex -0.09582672268152237 -0.27721676230430603 0.14171770215034485
			vertex -0.09607962518930435 -0.2772264778614044 0.1409883201122284
			vertex -0.08607510477304459 -0.295613169670105 0.11448986083269119
		endloop
	endfacet
	facet normal -0.6647635243462807 -0.7074792665075846 0.2399219543114008
		outer loop
			vertex -0.09582672268152237 -0.27721676230430603 0.14171770215034485
			vertex -0.08607510477304459 -0.295613169670105 0.11448986083269119
			vertex -0.08654826134443283 -0.28593501448631287 0.14171770215034485
		endloop
	endfacet
	facet normal -0.06467987055525931 -0.94062704807128 0.33322255443121646
		outer loop
			vertex -0.08452597260475159 -0.28607407212257385 0.14171770215034485
			vertex -0.08654826134443283 -0.28593501448631287 0.14171770215034485
			vertex -0.08607510477304459 -0.295613169670105 0.11448986083269119
		endloop
	endfacet
	facet normal -0.617922243733697 -0.7539623049736003 0.22296399569887856
		outer loop
			vertex -0.10000000149011612 -0.2864742875099182 0.10680193454027176
			vertex -0.08607510477304459 -0.295613169670105 0.11448986083269119
			vertex -0.10000000149011612 -0.2830091118812561 0.11851957440376282
		endloop
	endfacet
	facet normal -0.27043643583892735 -0.9617213961456582 -0.04422771039047605
		outer loop
			vertex -0.06209971010684967 -0.2993790805339813 0.04977786913514137
			vertex -0.05675537884235382 -0.3012171983718872 0.05706866830587387
			vertex -0.08607510477304459 -0.295613169670105 0.11448986083269119
		endloop
	endfacet
	facet normal -0.2704370689092717 -0.9617212068326757 -0.04422795595620131
		outer loop
			vertex -0.06209971010684967 -0.2993790805339813 0.04977786913514137
			vertex -0.08607510477304459 -0.295613169670105 0.11448986083269119
			vertex -0.09539135545492172 -0.29184314608573914 0.08947735279798508
		endloop
	endfacet
	facet normal -0.06467374417639744 -0.9406275326540192 0.33322237564037904
		outer loop
			vertex -0.06312303990125656 -0.28754565119743347 0.14171770215034485
			vertex -0.08452597260475159 -0.28607407212257385 0.14171770215034485
			vertex -0.08607510477304459 -0.295613169670105 0.11448986083269119
		endloop
	endfacet
	facet normal -0.06200534623359095 -0.9415090245172416 0.3312341977982419
		outer loop
			vertex -0.06312303990125656 -0.28754565119743347 0.14171770215034485
			vertex -0.08607510477304459 -0.295613169670105 0.11448986083269119
			vertex -0.01148997899144888 -0.29862064123153687 0.11990329623222351
		endloop
	endfacet
	facet normal -0.06200516789786053 -0.9415089084843287 0.3312345609965938
		outer loop
			vertex -0.06312303990125656 -0.28754565119743347 0.14171770215034485
			vertex -0.01148997899144888 -0.29862064123153687 0.11990329623222351
			vertex 0.003977091982960701 -0.29196467995643616 0.14171770215034485
		endloop
	endfacet
	facet normal -0.04553929016602883 -0.9962199041015224 0.07397347986358402
		outer loop
			vertex -0.08607510477304459 -0.295613169670105 0.11448986083269119
			vertex -0.05675537884235382 -0.3012171983718872 0.05706866830587387
			vertex -0.01148997899144888 -0.29862064123153687 0.11990329623222351
		endloop
	endfacet
	facet normal -0.27043254088196567 -0.9617228051101162 -0.04422088831371076
		outer loop
			vertex -0.06396060436964035 -0.29873907566070557 0.04723922908306122
			vertex -0.059970829635858536 -0.29986098408699036 0.04723922908306122
			vertex -0.06209971010684967 -0.2993790805339813 0.04977786913514137
		endloop
	endfacet
	facet normal -0.27043882232565 -0.9617208037771667 -0.04422599870343269
		outer loop
			vertex -0.059970829635858536 -0.29986098408699036 0.04723922908306122
			vertex -0.05173638463020325 -0.3021765351295471 0.04723922908306122
			vertex -0.05675537884235382 -0.3012171983718872 0.05706866830587387
		endloop
	endfacet
	facet normal -0.27043839348966914 -0.96172091719631 -0.04422615463518245
		outer loop
			vertex -0.059970829635858536 -0.29986098408699036 0.04723922908306122
			vertex -0.05675537884235382 -0.3012171983718872 0.05706866830587387
			vertex -0.06209971010684967 -0.2993790805339813 0.04977786913514137
		endloop
	endfacet
	facet normal 0.4673459346262876 -0.8047021788620039 0.36611771429831846
		outer loop
			vertex 0.02292683720588684 -0.2873098850250244 0.14171770215034485
			vertex 0.016949152573943138 -0.2997673749923706 0.12196743488311768
			vertex 0.01723608747124672 -0.29954642057418823 0.12208680808544159
		endloop
	endfacet
	facet normal 0.46734037418592883 -0.8047041233423899 0.36612053825415464
		outer loop
			vertex 0.02292683720588684 -0.2873098850250244 0.14171770215034485
			vertex 0.01723608747124672 -0.29954642057418823 0.12208680808544159
			vertex 0.029997775331139565 -0.2832033634185791 0.14171770215034485
		endloop
	endfacet
	facet normal 0.5501353522455485 -0.7713270057379082 0.3200089755445294
		outer loop
			vertex 0.015350320376455784 -0.2927137017250061 0.14171770215034485
			vertex 0.016949152573943138 -0.2997673749923706 0.12196743488311768
			vertex 0.02292683720588684 -0.2873098850250244 0.14171770215034485
		endloop
	endfacet
	facet normal -0.0620209727041645 -0.9415085536481725 0.3312326106411561
		outer loop
			vertex 0.013798088766634464 -0.2926114499568939 0.14171770215034485
			vertex 0.016949152573943138 -0.2997673749923706 0.12196743488311768
			vertex 0.015350320376455784 -0.2927137017250061 0.14171770215034485
		endloop
	endfacet
	facet normal 0.19252987636258073 -0.9812507016203874 -0.008905463340398042
		outer loop
			vertex 0.016949152573943138 -0.2997673749923706 0.12196743488311768
			vertex 0.01675001159310341 -0.29980120062828064 0.1213892325758934
			vertex 0.017045428976416588 -0.29974696040153503 0.12179947644472122
		endloop
	endfacet
	facet normal 0.48101138048088504 -0.8598335284844913 0.17121435436838442
		outer loop
			vertex 0.017119888216257095 -0.2996833622455597 0.12190967798233032
			vertex 0.016949152573943138 -0.2997673749923706 0.12196743488311768
			vertex 0.017045428976416588 -0.29974696040153503 0.12179947644472122
		endloop
	endfacet
	facet normal 0.5008659467847221 -0.8121302632812356 0.29929540393095755
		outer loop
			vertex 0.01723608747124672 -0.29954642057418823 0.12208680808544159
			vertex 0.016949152573943138 -0.2997673749923706 0.12196743488311768
			vertex 0.017119888216257095 -0.2996833622455597 0.12190967798233032
		endloop
	endfacet
	facet normal -0.06200384713729582 -0.9415087015164486 0.33123539652184797
		outer loop
			vertex 0.016949152573943138 -0.2997673749923706 0.12196743488311768
			vertex 0.013798088766634464 -0.2926114499568939 0.14171770215034485
			vertex 0.003977091982960701 -0.29196467995643616 0.14171770215034485
		endloop
	endfacet
	facet normal -0.06200520369540775 -0.9415088982914095 0.3312345832680932
		outer loop
			vertex 0.016949152573943138 -0.2997673749923706 0.12196743488311768
			vertex 0.003977091982960701 -0.29196467995643616 0.14171770215034485
			vertex -0.01148997899144888 -0.29862064123153687 0.11990329623222351
		endloop
	endfacet
	facet normal -0.045538222282714855 -0.9962196790046481 0.07397716860765871
		outer loop
			vertex -0.05675537884235382 -0.3012171983718872 0.05706866830587387
			vertex -0.05173638463020325 -0.3021765351295471 0.04723922908306122
			vertex -0.0373232327401638 -0.3028353750705719 0.04723922908306122
		endloop
	endfacet
	facet normal -0.04553974221553361 -0.9962198307962554 0.07397418879057109
		outer loop
			vertex -0.05675537884235382 -0.3012171983718872 0.05706866830587387
			vertex -0.0373232327401638 -0.3028353750705719 0.04723922908306122
			vertex 0.01675001159310341 -0.29980120062828064 0.1213892325758934
		endloop
	endfacet
	facet normal -0.04552800946865274 -0.9962213600910352 0.07396081430183388
		outer loop
			vertex -0.05675537884235382 -0.3012171983718872 0.05706866830587387
			vertex 0.01675001159310341 -0.29980120062828064 0.1213892325758934
			vertex 0.016949152573943138 -0.2997673749923706 0.12196743488311768
		endloop
	endfacet
	facet normal -0.04553901875242409 -0.9962199309444155 0.07397328544934714
		outer loop
			vertex -0.05675537884235382 -0.3012171983718872 0.05706866830587387
			vertex 0.016949152573943138 -0.2997673749923706 0.12196743488311768
			vertex -0.01148997899144888 -0.29862064123153687 0.11990329623222351
		endloop
	endfacet
	facet normal 0.1924886347878492 -0.9812590050693587 -0.008882029486700596
		outer loop
			vertex 0.00020665783085860312 -0.30237525701522827 0.04723922908306122
			vertex -0.0014616107800975442 -0.30289506912231445 0.06851224601268768
			vertex -0.008788353763520718 -0.30413976311683655 0.04723922908306122
		endloop
	endfacet
	facet normal -0.045539261533163636 -0.9962198904350232 0.07397368154042756
		outer loop
			vertex -0.0373232327401638 -0.3028353750705719 0.04723922908306122
			vertex -0.008788353763520718 -0.30413976311683655 0.04723922908306122
			vertex -0.0014616107800975442 -0.30289506912231445 0.06851224601268768
		endloop
	endfacet
	facet normal -0.04553980603138893 -0.9962197973665282 0.07397459970568891
		outer loop
			vertex -0.0373232327401638 -0.3028353750705719 0.04723922908306122
			vertex -0.0014616107800975442 -0.30289506912231445 0.06851224601268768
			vertex -0.004305971786379814 -0.30098268389701843 0.09251540899276733
		endloop
	endfacet
	facet normal 0.4673402006091601 -0.804704159220249 0.366120680962196
		outer loop
			vertex 0.05247035622596741 -0.27015218138694763 0.14171770215034485
			vertex 0.029997775331139565 -0.2832033634185791 0.14171770215034485
			vertex 0.01723608747124672 -0.29954642057418823 0.12208680808544159
		endloop
	endfacet
	facet normal 0.4673377445051862 -0.804703814669568 0.36612457335864634
		outer loop
			vertex 0.05247035622596741 -0.27015218138694763 0.14171770215034485
			vertex 0.01723608747124672 -0.29954642057418823 0.12208680808544159
			vertex 0.05684001371264458 -0.26904958486557007 0.13856346905231476
		endloop
	endfacet
	facet normal 0.1924891062940842 -0.9812589129313148 -0.008881990258906755
		outer loop
			vertex 0.01675001159310341 -0.29980120062828064 0.1213892325758934
			vertex -0.0014616107800975442 -0.30289506912231445 0.06851224601268768
			vertex 0.00020665783085860312 -0.30237525701522827 0.04723922908306122
		endloop
	endfacet
	facet normal 0.1924894604646514 -0.9812588427179108 -0.008882071714091673
		outer loop
			vertex 0.01675001159310341 -0.29980120062828064 0.1213892325758934
			vertex 0.00020665783085860312 -0.30237525701522827 0.04723922908306122
			vertex 0.05978400632739067 -0.2906882166862488 0.04723922908306122
		endloop
	endfacet
	facet normal 0.19249449213286307 -0.9812578831587012 -0.008879033585698111
		outer loop
			vertex 0.01675001159310341 -0.29980120062828064 0.1213892325758934
			vertex 0.05978400632739067 -0.2906882166862488 0.04723922908306122
			vertex 0.017045428976416588 -0.29974696040153503 0.12179947644472122
		endloop
	endfacet
	facet normal 0.480924262569259 -0.8598667204356403 0.17129237215787252
		outer loop
			vertex 0.10000000149011612 -0.25891348719596863 0.09387341141700745
			vertex 0.017119888216257095 -0.2996833622455597 0.12190967798233032
			vertex 0.017045428976416588 -0.29974696040153503 0.12179947644472122
		endloop
	endfacet
	facet normal 0.48090404489953287 -0.8598995457456865 0.17118431828187525
		outer loop
			vertex 0.10000000149011612 -0.25891348719596863 0.09387341141700745
			vertex 0.017045428976416588 -0.29974696040153503 0.12179947644472122
			vertex 0.05978400632739067 -0.2906882166862488 0.04723922908306122
		endloop
	endfacet
	facet normal 0.48090318018992245 -0.8598998408588153 0.1711852650615793
		outer loop
			vertex 0.10000000149011612 -0.25891348719596863 0.09387341141700745
			vertex 0.05978400632739067 -0.2906882166862488 0.04723922908306122
			vertex 0.06530392915010452 -0.28760117292404175 0.04723922908306122
		endloop
	endfacet
	facet normal 0.4809040448053097 -0.8598995241626821 0.17118442696310285
		outer loop
			vertex 0.10000000149011612 -0.25891348719596863 0.09387341141700745
			vertex 0.06530392915010452 -0.28760117292404175 0.04723922908306122
			vertex 0.10000000149011612 -0.2652627229690552 0.061979711055755615
		endloop
	endfacet
	facet normal 0.50078954652888 -0.8121212714954559 0.29944760889344707
		outer loop
			vertex 0.10000000149011612 -0.2550077736377716 0.10446596145629883
			vertex 0.05684001371264458 -0.26904958486557007 0.13856346905231476
			vertex 0.01723608747124672 -0.29954642057418823 0.12208680808544159
		endloop
	endfacet
	facet normal 0.5007886307595427 -0.8121528206842984 0.2993635635085209
		outer loop
			vertex 0.10000000149011612 -0.2550077736377716 0.10446596145629883
			vertex 0.01723608747124672 -0.29954642057418823 0.12208680808544159
			vertex 0.017119888216257095 -0.2996833622455597 0.12190967798233032
		endloop
	endfacet
	facet normal 0.5007893714130567 -0.8121213886301163 0.2994475840764243
		outer loop
			vertex 0.10000000149011612 -0.2550077736377716 0.10446596145629883
			vertex 0.017119888216257095 -0.2996833622455597 0.12190967798233032
			vertex 0.10000000149011612 -0.25891348719596863 0.09387341141700745
		endloop
	endfacet
	facet normal -0.045540912133858635 -0.9962197567760398 0.07397446539924826
		outer loop
			vertex -0.0014616107800975442 -0.30289506912231445 0.06851224601268768
			vertex 0.01675001159310341 -0.29980120062828064 0.1213892325758934
			vertex -0.004305971786379814 -0.30098268389701843 0.09251540899276733
		endloop
	endfacet
	facet normal 1 0 0
		outer loop
			vertex 0.10000000149011612 -0.2652627229690552 0.061979711055755615
			vertex 0.10000000149011612 -0.24090167880058289 0.04723922908306122
			vertex 0.10000000149011612 -0.19372747838497162 0.04723922908306122
		endloop
	endfacet
	facet normal 1 0 0
		outer loop
			vertex 0.10000000149011612 -0.2652627229690552 0.061979711055755615
			vertex 0.10000000149011612 -0.19372747838497162 0.04723922908306122
			vertex 0.10000000149011612 -0.2550077736377716 0.10446596145629883
		endloop
	endfacet
	facet normal 1 0 0
		outer loop
			vertex 0.10000000149011612 -0.2652627229690552 0.061979711055755615
			vertex 0.10000000149011612 -0.2550077736377716 0.10446596145629883
			vertex 0.10000000149011612 -0.25891348719596863 0.09387341141700745
		endloop
	endfacet
	facet normal 0.46733721343856793 -0.8047045794538046 0.36612357031684023
		outer loop
			vertex 0.0644216388463974 -0.2632113993167877 0.14171770215034485
			vertex 0.05247035622596741 -0.27015218138694763 0.14171770215034485
			vertex 0.05684001371264458 -0.26904958486557007 0.13856346905231476
		endloop
	endfacet
	facet normal 0.5007900076681733 -0.812122144458217 0.29944447014479686
		outer loop
			vertex 0.10000000149011612 -0.2412722259759903 0.14171770215034485
			vertex 0.0644216388463974 -0.2632113993167877 0.14171770215034485
			vertex 0.05684001371264458 -0.26904958486557007 0.13856346905231476
		endloop
	endfacet
	facet normal 0.5007893775196741 -0.8121214873743399 0.2994473060629319
		outer loop
			vertex 0.10000000149011612 -0.2412722259759903 0.14171770215034485
			vertex 0.05684001371264458 -0.26904958486557007 0.13856346905231476
			vertex 0.10000000149011612 -0.2550077736377716 0.10446596145629883
		endloop
	endfacet
	facet normal 1 0 0
		outer loop
			vertex 0.10000000149011612 -0.1023595929145813 0.14171770215034485
			vertex 0.10000000149011612 -0.2412722259759903 0.14171770215034485
			vertex 0.10000000149011612 -0.25084188580513 0.11576422303915024
		endloop
	endfacet
	facet normal 1 0 0
		outer loop
			vertex 0.10000000149011612 -0.1023595929145813 0.14171770215034485
			vertex 0.10000000149011612 -0.25084188580513 0.11576422303915024
			vertex 0.10000000149011612 -0.19256591796875 0.08886969834566116
		endloop
	endfacet
	facet normal 1 0 0
		outer loop
			vertex 0.10000000149011612 -0.1023595929145813 0.14171770215034485
			vertex 0.10000000149011612 -0.19256591796875 0.08886969834566116
			vertex 0.10000000149011612 -0.1023595929145813 0.0799814835190773
		endloop
	endfacet
	facet normal 1 0 0
		outer loop
			vertex 0.10000000149011612 -0.19256591796875 0.08886969834566116
			vertex 0.10000000149011612 -0.25084188580513 0.11576422303915024
			vertex 0.10000000149011612 -0.2550077736377716 0.10446596145629883
		endloop
	endfacet
	facet normal 1 0 0
		outer loop
			vertex 0.10000000149011612 -0.19256591796875 0.08886969834566116
			vertex 0.10000000149011612 -0.2550077736377716 0.10446596145629883
			vertex 0.10000000149011612 -0.2437022477388382 0.09390827268362045
		endloop
	endfacet
	facet normal 1 0 0
		outer loop
			vertex 0.10000000149011612 -0.19372747838497162 0.04723922908306122
			vertex 0.10000000149011612 -0.11918909847736359 0.04723922908306122
			vertex 0.10000000149011612 -0.24116818606853485 0.0915418341755867
		endloop
	endfacet
	facet normal 1 0 0
		outer loop
			vertex 0.10000000149011612 -0.19256591796875 0.08886969834566116
			vertex 0.10000000149011612 -0.1023595929145813 0.04723922908306122
			vertex 0.10000000149011612 -0.1023595929145813 0.0695725679397583
		endloop
	endfacet
	facet normal 1 0 0
		outer loop
			vertex 0.10000000149011612 -0.19256591796875 0.08886969834566116
			vertex 0.10000000149011612 -0.1023595929145813 0.0695725679397583
			vertex 0.10000000149011612 -0.12928082048892975 0.0826340913772583
		endloop
	endfacet
	facet normal 1 0 0
		outer loop
			vertex 0.10000000149011612 -0.11918909847736359 0.04723922908306122
			vertex 0.10000000149011612 -0.1023595929145813 0.04723922908306122
			vertex 0.10000000149011612 -0.19256591796875 0.08886969834566116
		endloop
	endfacet
	facet normal 1 0 0
		outer loop
			vertex 0.10000000149011612 -0.11918909847736359 0.04723922908306122
			vertex 0.10000000149011612 -0.19256591796875 0.08886969834566116
			vertex 0.10000000149011612 -0.2437022477388382 0.09390827268362045
		endloop
	endfacet
	facet normal 1 0 0
		outer loop
			vertex 0.10000000149011612 -0.11918909847736359 0.04723922908306122
			vertex 0.10000000149011612 -0.2437022477388382 0.09390827268362045
			vertex 0.10000000149011612 -0.24116818606853485 0.0915418341755867
		endloop
	endfacet
	facet normal 1 0 0
		outer loop
			vertex 0.10000000149011612 -0.1023595929145813 0.0695725679397583
			vertex 0.10000000149011612 -0.1023595929145813 0.0799814835190773
			vertex 0.10000000149011612 -0.12928082048892975 0.0826340913772583
		endloop
	endfacet
	facet normal 0.4809034379705613 -0.8598995664331501 0.17118591938642405
		outer loop
			vertex 0.10000000149011612 -0.2681972086429596 0.04723922908306122
			vertex 0.10000000149011612 -0.2652627229690552 0.061979711055755615
			vertex 0.06530392915010452 -0.28760117292404175 0.04723922908306122
		endloop
	endfacet
	facet normal 1 0 0
		outer loop
			vertex 0.10000000149011612 -0.2681972086429596 0.04723922908306122
			vertex 0.10000000149011612 -0.24090167880058289 0.04723922908306122
			vertex 0.10000000149011612 -0.2652627229690552 0.061979711055755615
		endloop
	endfacet
	facet normal -1 0 0
		outer loop
			vertex -0.10000000149011612 -0.214967742562294 0.04723922908306122
			vertex -0.10000000149011612 -0.2886047661304474 0.04723922908306122
			vertex -0.10000000149011612 -0.28898870944976807 0.05558784678578377
		endloop
	endfacet
	facet normal -1 0 0
		outer loop
			vertex -0.10000000149011612 -0.214967742562294 0.04723922908306122
			vertex -0.10000000149011612 -0.28898870944976807 0.05558784678578377
			vertex -0.10000000149011612 -0.2539326250553131 0.07176632434129715
		endloop
	endfacet
	facet normal -1 0 0
		outer loop
			vertex -0.10000000149011612 -0.2539326250553131 0.07176632434129715
			vertex -0.10000000149011612 -0.28898870944976807 0.05558784678578377
			vertex -0.10000000149011612 -0.28997817635536194 0.07710395008325577
		endloop
	endfacet
	facet normal -1 0 0
		outer loop
			vertex -0.10000000149011612 -0.2539326250553131 0.07176632434129715
			vertex -0.10000000149011612 -0.28997817635536194 0.07710395008325577
			vertex -0.10000000149011612 -0.28807246685028076 0.09325619786977768
		endloop
	endfacet
	facet normal -1 0 0
		outer loop
			vertex -0.10000000149011612 -0.1023595929145813 0.04723922908306122
			vertex -0.10000000149011612 -0.11215914040803909 0.04723922908306122
			vertex -0.10000000149011612 -0.1023595929145813 0.08030619472265244
		endloop
	endfacet
	facet normal -1 0 0
		outer loop
			vertex -0.10000000149011612 -0.2738381326198578 0.14171770215034485
			vertex -0.10000000149011612 -0.1801784783601761 0.14171770215034485
			vertex -0.10000000149011612 -0.27865922451019287 0.1295226514339447
		endloop
	endfacet
	facet normal -1 0 0
		outer loop
			vertex -0.10000000149011612 -0.16217529773712158 0.04723922908306122
			vertex -0.10000000149011612 -0.214967742562294 0.04723922908306122
			vertex -0.10000000149011612 -0.2539326250553131 0.07176632434129715
		endloop
	endfacet
	facet normal -1 0 0
		outer loop
			vertex -0.10000000149011612 -0.16217529773712158 0.04723922908306122
			vertex -0.10000000149011612 -0.2539326250553131 0.07176632434129715
			vertex -0.10000000149011612 -0.11037034541368484 0.13802072405815125
		endloop
	endfacet
	facet normal -1 0 0
		outer loop
			vertex -0.10000000149011612 -0.1801784783601761 0.14171770215034485
			vertex -0.10000000149011612 -0.10826064646244049 0.14171770215034485
			vertex -0.10000000149011612 -0.11037034541368484 0.13802072405815125
		endloop
	endfacet
	facet normal -1 0 0
		outer loop
			vertex -0.10000000149011612 -0.1801784783601761 0.14171770215034485
			vertex -0.10000000149011612 -0.11037034541368484 0.13802072405815125
			vertex -0.10000000149011612 -0.2539326250553131 0.07176632434129715
		endloop
	endfacet
	facet normal -1 0 0
		outer loop
			vertex -0.10000000149011612 -0.1801784783601761 0.14171770215034485
			vertex -0.10000000149011612 -0.2539326250553131 0.07176632434129715
			vertex -0.10000000149011612 -0.28807246685028076 0.09325619786977768
		endloop
	endfacet
	facet normal -1 0 0
		outer loop
			vertex -0.10000000149011612 -0.1801784783601761 0.14171770215034485
			vertex -0.10000000149011612 -0.28807246685028076 0.09325619786977768
			vertex -0.10000000149011612 -0.2864742875099182 0.10680193454027176
		endloop
	endfacet
	facet normal -1 0 0
		outer loop
			vertex -0.10000000149011612 -0.1801784783601761 0.14171770215034485
			vertex -0.10000000149011612 -0.2864742875099182 0.10680193454027176
			vertex -0.10000000149011612 -0.2830091118812561 0.11851957440376282
		endloop
	endfacet
	facet normal -1 0 0
		outer loop
			vertex -0.10000000149011612 -0.1801784783601761 0.14171770215034485
			vertex -0.10000000149011612 -0.2830091118812561 0.11851957440376282
			vertex -0.10000000149011612 -0.27865922451019287 0.1295226514339447
		endloop
	endfacet
	facet normal -1 0 0
		outer loop
			vertex -0.10000000149011612 -0.11215914040803909 0.04723922908306122
			vertex -0.10000000149011612 -0.16217529773712158 0.04723922908306122
			vertex -0.10000000149011612 -0.11037034541368484 0.13802072405815125
		endloop
	endfacet
	facet normal -1 0 0
		outer loop
			vertex -0.10000000149011612 -0.11215914040803909 0.04723922908306122
			vertex -0.10000000149011612 -0.11037034541368484 0.13802072405815125
			vertex -0.10000000149011612 -0.1023595929145813 0.14171770215034485
		endloop
	endfacet
	facet normal -1 0 0
		outer loop
			vertex -0.10000000149011612 -0.11215914040803909 0.04723922908306122
			vertex -0.10000000149011612 -0.1023595929145813 0.14171770215034485
			vertex -0.10000000149011612 -0.1023595929145813 0.08030619472265244
		endloop
	endfacet
	facet normal -1 0 0
		outer loop
			vertex -0.10000000149011612 -0.10826064646244049 0.14171770215034485
			vertex -0.10000000149011612 -0.1023595929145813 0.14171770215034485
			vertex -0.10000000149011612 -0.11037034541368484 0.13802072405815125
		endloop
	endfacet
	facet normal 0 1 0
		outer loop
			vertex -0.10000000149011612 -0.1023595929145813 0.04723922908306122
			vertex -0.10000000149011612 -0.1023595929145813 0.08030619472265244
			vertex -0.09444055706262589 -0.1023595929145813 0.04723922908306122
		endloop
	endfacet
	facet normal 0 1 0
		outer loop
			vertex -0.10000000149011612 -0.1023595929145813 0.08030619472265244
			vertex -0.10000000149011612 -0.1023595929145813 0.14171770215034485
			vertex -0.028559263795614243 -0.1023595929145813 0.10796964168548584
		endloop
	endfacet
	facet normal 0 1 0
		outer loop
			vertex -0.10000000149011612 -0.1023595929145813 0.08030619472265244
			vertex -0.028559263795614243 -0.1023595929145813 0.10796964168548584
			vertex -0.07241687178611755 -0.1023595929145813 0.04723922908306122
		endloop
	endfacet
	facet normal 0 1 0
		outer loop
			vertex -0.10000000149011612 -0.1023595929145813 0.08030619472265244
			vertex -0.07241687178611755 -0.1023595929145813 0.04723922908306122
			vertex -0.09444055706262589 -0.1023595929145813 0.04723922908306122
		endloop
	endfacet
	facet normal 0 1 0
		outer loop
			vertex -0.10000000149011612 -0.1023595929145813 0.14171770215034485
			vertex -0.004187468439340591 -0.1023595929145813 0.14171770215034485
			vertex -0.028559263795614243 -0.1023595929145813 0.10796964168548584
		endloop
	endfacet
	facet normal 0 1 0
		outer loop
			vertex -0.028559263795614243 -0.1023595929145813 0.10796964168548584
			vertex -0.016880812123417854 -0.1023595929145813 0.1024528369307518
			vertex -0.057370781898498535 -0.1023595929145813 0.04723922908306122
		endloop
	endfacet
	facet normal 0 1 0
		outer loop
			vertex -0.028559263795614243 -0.1023595929145813 0.10796964168548584
			vertex -0.057370781898498535 -0.1023595929145813 0.04723922908306122
			vertex -0.07241687178611755 -0.1023595929145813 0.04723922908306122
		endloop
	endfacet
	facet normal 0 1 0
		outer loop
			vertex -0.004187468439340591 -0.1023595929145813 0.14171770215034485
			vertex 0.011913423426449299 -0.1023595929145813 0.14171770215034485
			vertex -0.016880812123417854 -0.1023595929145813 0.1024528369307518
		endloop
	endfacet
	facet normal 0 1 0
		outer loop
			vertex -0.004187468439340591 -0.1023595929145813 0.14171770215034485
			vertex -0.016880812123417854 -0.1023595929145813 0.1024528369307518
			vertex -0.028559263795614243 -0.1023595929145813 0.10796964168548584
		endloop
	endfacet
	facet normal 0 1 0
		outer loop
			vertex 0.011913423426449299 -0.1023595929145813 0.14171770215034485
			vertex 0.10000000149011612 -0.1023595929145813 0.14171770215034485
			vertex 0.10000000149011612 -0.1023595929145813 0.0799814835190773
		endloop
	endfacet
	facet normal 0 1 0
		outer loop
			vertex 0.011913423426449299 -0.1023595929145813 0.14171770215034485
			vertex 0.10000000149011612 -0.1023595929145813 0.0799814835190773
			vertex 0.008424142375588417 -0.1023595929145813 0.13695959746837616
		endloop
	endfacet
	facet normal 0 1 0
		outer loop
			vertex -0.016880812123417854 -0.1023595929145813 0.1024528369307518
			vertex 0.10000000149011612 -0.1023595929145813 0.04723922908306122
			vertex 0.06314278393983841 -0.1023595929145813 0.04723922908306122
		endloop
	endfacet
	facet normal 0 1 0
		outer loop
			vertex -0.016880812123417854 -0.1023595929145813 0.1024528369307518
			vertex 0.06314278393983841 -0.1023595929145813 0.04723922908306122
			vertex -0.04752323031425476 -0.1023595929145813 0.06066771596670151
		endloop
	endfacet
	facet normal 0 1 0
		outer loop
			vertex 0.10000000149011612 -0.1023595929145813 0.0695725679397583
			vertex 0.10000000149011612 -0.1023595929145813 0.04723922908306122
			vertex -0.016880812123417854 -0.1023595929145813 0.1024528369307518
		endloop
	endfacet
	facet normal 0 1 0
		outer loop
			vertex 0.10000000149011612 -0.1023595929145813 0.0695725679397583
			vertex -0.016880812123417854 -0.1023595929145813 0.1024528369307518
			vertex -0.007926511578261852 -0.1023595929145813 0.1146632507443428
		endloop
	endfacet
	facet normal 0 1 0
		outer loop
			vertex 0.06314278393983841 -0.1023595929145813 0.04723922908306122
			vertex -0.057370781898498535 -0.1023595929145813 0.04723922908306122
			vertex -0.04752323031425476 -0.1023595929145813 0.06066771596670151
		endloop
	endfacet
	facet normal 0 1 0
		outer loop
			vertex 0.10000000149011612 -0.1023595929145813 0.0799814835190773
			vertex 0.10000000149011612 -0.1023595929145813 0.0695725679397583
			vertex -0.007926511578261852 -0.1023595929145813 0.1146632507443428
		endloop
	endfacet
	facet normal 0 1 0
		outer loop
			vertex 0.10000000149011612 -0.1023595929145813 0.0799814835190773
			vertex -0.007926511578261852 -0.1023595929145813 0.1146632507443428
			vertex 0.008424142375588417 -0.1023595929145813 0.13695959746837616
		endloop
	endfacet
	facet normal 0 0 1
		outer loop
			vertex -0.09582672268152237 -0.27721676230430603 0.14171770215034485
			vertex -0.09583023190498352 -0.27713531255722046 0.14171770215034485
			vertex -0.09635500609874725 -0.2767203748226166 0.14171770215034485
		endloop
	endfacet
	facet normal 0 0 1
		outer loop
			vertex -0.10000000149011612 -0.1801784783601761 0.14171770215034485
			vertex -0.10000000149011612 -0.2738381326198578 0.14171770215034485
			vertex -0.09583023190498352 -0.27713531255722046 0.14171770215034485
		endloop
	endfacet
	facet normal 0 0 1
		outer loop
			vertex -0.09583023190498352 -0.27713531255722046 0.14171770215034485
			vertex -0.09582672268152237 -0.27721676230430603 0.14171770215034485
			vertex -0.08654826134443283 -0.28593501448631287 0.14171770215034485
		endloop
	endfacet
	facet normal 0 0 1
		outer loop
			vertex -0.09583023190498352 -0.27713531255722046 0.14171770215034485
			vertex -0.08654826134443283 -0.28593501448631287 0.14171770215034485
			vertex -0.08452597260475159 -0.28607407212257385 0.14171770215034485
		endloop
	endfacet
	facet normal 0 0 1
		outer loop
			vertex -0.10000000149011612 -0.10826064646244049 0.14171770215034485
			vertex -0.10000000149011612 -0.1801784783601761 0.14171770215034485
			vertex -0.09583023190498352 -0.27713531255722046 0.14171770215034485
		endloop
	endfacet
	facet normal 0 0 1
		outer loop
			vertex -0.10000000149011612 -0.10826064646244049 0.14171770215034485
			vertex -0.09583023190498352 -0.27713531255722046 0.14171770215034485
			vertex -0.08452597260475159 -0.28607407212257385 0.14171770215034485
		endloop
	endfacet
	facet normal 0 0 1
		outer loop
			vertex -0.10000000149011612 -0.10826064646244049 0.14171770215034485
			vertex -0.08452597260475159 -0.28607407212257385 0.14171770215034485
			vertex -0.07979714125394821 -0.2863992154598236 0.14171770215034485
		endloop
	endfacet
	facet normal 0 0 1
		outer loop
			vertex -0.10000000149011612 -0.10826064646244049 0.14171770215034485
			vertex -0.07979714125394821 -0.2863992154598236 0.14171770215034485
			vertex 0.0002109275374095887 -0.20450326800346375 0.14171770215034485
		endloop
	endfacet
	facet normal 0 0 1
		outer loop
			vertex -0.10000000149011612 -0.10826064646244049 0.14171770215034485
			vertex 0.0002109275374095887 -0.20450326800346375 0.14171770215034485
			vertex -0.002801395021378994 -0.13454829156398773 0.14171770215034485
		endloop
	endfacet
	facet normal 0 0 1
		outer loop
			vertex 0.003977091982960701 -0.29196467995643616 0.14171770215034485
			vertex 0.0002109275374095887 -0.20450326800346375 0.14171770215034485
			vertex -0.07979714125394821 -0.2863992154598236 0.14171770215034485
		endloop
	endfacet
	facet normal 0 0 1
		outer loop
			vertex 0.003977091982960701 -0.29196467995643616 0.14171770215034485
			vertex -0.07979714125394821 -0.2863992154598236 0.14171770215034485
			vertex -0.06312303990125656 -0.28754565119743347 0.14171770215034485
		endloop
	endfacet
	facet normal 0 0 1
		outer loop
			vertex -0.10000000149011612 -0.1023595929145813 0.14171770215034485
			vertex -0.10000000149011612 -0.10826064646244049 0.14171770215034485
			vertex -0.002801395021378994 -0.13454829156398773 0.14171770215034485
		endloop
	endfacet
	facet normal 0 0 1
		outer loop
			vertex -0.10000000149011612 -0.1023595929145813 0.14171770215034485
			vertex -0.002801395021378994 -0.13454829156398773 0.14171770215034485
			vertex -0.004187468439340591 -0.1023595929145813 0.14171770215034485
		endloop
	endfacet
	facet normal 0 0 1
		outer loop
			vertex 0.02292683720588684 -0.2873098850250244 0.14171770215034485
			vertex 0.013798088766634464 -0.2926114499568939 0.14171770215034485
			vertex 0.015350320376455784 -0.2927137017250061 0.14171770215034485
		endloop
	endfacet
	facet normal 0 0 1
		outer loop
			vertex 0.0002109275374095887 -0.20450326800346375 0.14171770215034485
			vertex 0.020092692226171494 -0.18415237963199615 0.14171770215034485
			vertex 0.011913423426449299 -0.1023595929145813 0.14171770215034485
		endloop
	endfacet
	facet normal 0 0 1
		outer loop
			vertex 0.0002109275374095887 -0.20450326800346375 0.14171770215034485
			vertex 0.011913423426449299 -0.1023595929145813 0.14171770215034485
			vertex -0.004187468439340591 -0.1023595929145813 0.14171770215034485
		endloop
	endfacet
	facet normal 0 0 1
		outer loop
			vertex 0.029997775331139565 -0.2832033634185791 0.14171770215034485
			vertex 0.020092692226171494 -0.18415237963199615 0.14171770215034485
			vertex 0.0002109275374095887 -0.20450326800346375 0.14171770215034485
		endloop
	endfacet
	facet normal 0 0 1
		outer loop
			vertex 0.029997775331139565 -0.2832033634185791 0.14171770215034485
			vertex 0.0002109275374095887 -0.20450326800346375 0.14171770215034485
			vertex 0.003977091982960701 -0.29196467995643616 0.14171770215034485
		endloop
	endfacet
	facet normal 0 0 1
		outer loop
			vertex 0.029997775331139565 -0.2832033634185791 0.14171770215034485
			vertex 0.003977091982960701 -0.29196467995643616 0.14171770215034485
			vertex 0.013798088766634464 -0.2926114499568939 0.14171770215034485
		endloop
	endfacet
	facet normal 0 0 1
		outer loop
			vertex 0.05247035622596741 -0.27015218138694763 0.14171770215034485
			vertex 0.027386698871850967 -0.25709256529808044 0.14171770215034485
			vertex 0.029997775331139565 -0.2832033634185791 0.14171770215034485
		endloop
	endfacet
	facet normal 0 0 1
		outer loop
			vertex 0.020092692226171494 -0.18415237963199615 0.14171770215034485
			vertex 0.10000000149011612 -0.1023595929145813 0.14171770215034485
			vertex 0.011913423426449299 -0.1023595929145813 0.14171770215034485
		endloop
	endfacet
	facet normal 0 0 1
		outer loop
			vertex 0.10000000149011612 -0.2412722259759903 0.14171770215034485
			vertex 0.10000000149011612 -0.1023595929145813 0.14171770215034485
			vertex 0.020092692226171494 -0.18415237963199615 0.14171770215034485
		endloop
	endfacet
	facet normal 0 0 1
		outer loop
			vertex 0.10000000149011612 -0.2412722259759903 0.14171770215034485
			vertex 0.020092692226171494 -0.18415237963199615 0.14171770215034485
			vertex 0.027386698871850967 -0.25709256529808044 0.14171770215034485
		endloop
	endfacet
	facet normal 0 0 1
		outer loop
			vertex 0.10000000149011612 -0.2412722259759903 0.14171770215034485
			vertex 0.027386698871850967 -0.25709256529808044 0.14171770215034485
			vertex 0.05247035622596741 -0.27015218138694763 0.14171770215034485
		endloop
	endfacet
	facet normal 0 0 1
		outer loop
			vertex 0.10000000149011612 -0.2412722259759903 0.14171770215034485
			vertex 0.05247035622596741 -0.27015218138694763 0.14171770215034485
			vertex 0.0644216388463974 -0.2632113993167877 0.14171770215034485
		endloop
	endfacet
	facet normal 0 0 -1
		outer loop
			vertex -0.10000000149011612 -0.2886047661304474 0.04723922908306122
			vertex -0.10000000149011612 -0.214967742562294 0.04723922908306122
			vertex -0.06430841237306595 -0.29066190123558044 0.04723922908306122
		endloop
	endfacet
	facet normal 0 0 -1
		outer loop
			vertex -0.10000000149011612 -0.2886047661304474 0.04723922908306122
			vertex -0.06430841237306595 -0.29066190123558044 0.04723922908306122
			vertex -0.06396060436964035 -0.29873907566070557 0.04723922908306122
		endloop
	endfacet
	facet normal 0 0 -1
		outer loop
			vertex -0.09648293256759644 -0.10595965385437012 0.04723922908306122
			vertex -0.10000000149011612 -0.1023595929145813 0.04723922908306122
			vertex -0.09444055706262589 -0.1023595929145813 0.04723922908306122
		endloop
	endfacet
	facet normal 0 0 -1
		outer loop
			vertex -0.10000000149011612 -0.11215914040803909 0.04723922908306122
			vertex -0.10000000149011612 -0.1023595929145813 0.04723922908306122
			vertex -0.09648293256759644 -0.10595965385437012 0.04723922908306122
		endloop
	endfacet
	facet normal 0 0 -1
		outer loop
			vertex -0.10000000149011612 -0.214967742562294 0.04723922908306122
			vertex -0.10000000149011612 -0.16217529773712158 0.04723922908306122
			vertex -0.06948578357696533 -0.17042796313762665 0.04723922908306122
		endloop
	endfacet
	facet normal 0 0 -1
		outer loop
			vertex -0.10000000149011612 -0.214967742562294 0.04723922908306122
			vertex -0.06948578357696533 -0.17042796313762665 0.04723922908306122
			vertex -0.06430841237306595 -0.29066190123558044 0.04723922908306122
		endloop
	endfacet
	facet normal 0 0 -1
		outer loop
			vertex -0.07114502787590027 -0.13189542293548584 0.04723922908306122
			vertex -0.09648293256759644 -0.10595965385437012 0.04723922908306122
			vertex -0.09444055706262589 -0.1023595929145813 0.04723922908306122
		endloop
	endfacet
	facet normal 0 0 -1
		outer loop
			vertex -0.07114502787590027 -0.13189542293548584 0.04723922908306122
			vertex -0.09444055706262589 -0.1023595929145813 0.04723922908306122
			vertex -0.07241687178611755 -0.1023595929145813 0.04723922908306122
		endloop
	endfacet
	facet normal 0 0 -1
		outer loop
			vertex -0.10000000149011612 -0.16217529773712158 0.04723922908306122
			vertex -0.10000000149011612 -0.11215914040803909 0.04723922908306122
			vertex -0.09648293256759644 -0.10595965385437012 0.04723922908306122
		endloop
	endfacet
	facet normal 0 0 -1
		outer loop
			vertex -0.10000000149011612 -0.16217529773712158 0.04723922908306122
			vertex -0.09648293256759644 -0.10595965385437012 0.04723922908306122
			vertex -0.07114502787590027 -0.13189542293548584 0.04723922908306122
		endloop
	endfacet
	facet normal 0 0 -1
		outer loop
			vertex -0.10000000149011612 -0.16217529773712158 0.04723922908306122
			vertex -0.07114502787590027 -0.13189542293548584 0.04723922908306122
			vertex -0.06948578357696533 -0.17042796313762665 0.04723922908306122
		endloop
	endfacet
	facet normal 0 0 -1
		outer loop
			vertex -0.06396060436964035 -0.29873907566070557 0.04723922908306122
			vertex -0.06430841237306595 -0.29066190123558044 0.04723922908306122
			vertex -0.059970829635858536 -0.29986098408699036 0.04723922908306122
		endloop
	endfacet
	facet normal 0 0 -1
		outer loop
			vertex -0.05250970646739006 -0.1509704738855362 0.04723922908306122
			vertex -0.07114502787590027 -0.13189542293548584 0.04723922908306122
			vertex -0.07241687178611755 -0.1023595929145813 0.04723922908306122
		endloop
	endfacet
	facet normal 0 0 -1
		outer loop
			vertex -0.05250970646739006 -0.1509704738855362 0.04723922908306122
			vertex -0.07241687178611755 -0.1023595929145813 0.04723922908306122
			vertex -0.057370781898498535 -0.1023595929145813 0.04723922908306122
		endloop
	endfacet
	facet normal 0 0 -1
		outer loop
			vertex -0.059970829635858536 -0.29986098408699036 0.04723922908306122
			vertex -0.06430841237306595 -0.29066190123558044 0.04723922908306122
			vertex -0.07114502787590027 -0.13189542293548584 0.04723922908306122
		endloop
	endfacet
	facet normal 0 0 -1
		outer loop
			vertex -0.059970829635858536 -0.29986098408699036 0.04723922908306122
			vertex -0.07114502787590027 -0.13189542293548584 0.04723922908306122
			vertex -0.05250970646739006 -0.1509704738855362 0.04723922908306122
		endloop
	endfacet
	facet normal 0 0 -1
		outer loop
			vertex -0.059970829635858536 -0.29986098408699036 0.04723922908306122
			vertex -0.05250970646739006 -0.1509704738855362 0.04723922908306122
			vertex -0.0373232327401638 -0.3028353750705719 0.04723922908306122
		endloop
	endfacet
	facet normal 0 0 -1
		outer loop
			vertex -0.059970829635858536 -0.29986098408699036 0.04723922908306122
			vertex -0.0373232327401638 -0.3028353750705719 0.04723922908306122
			vertex -0.05173638463020325 -0.3021765351295471 0.04723922908306122
		endloop
	endfacet
	facet normal 0 0 -1
		outer loop
			vertex -0.0373232327401638 -0.3028353750705719 0.04723922908306122
			vertex -0.050555307418107986 -0.17051446437835693 0.04723922908306122
			vertex 0.00020665783085860312 -0.30237525701522827 0.04723922908306122
		endloop
	endfacet
	facet normal 0 0 -1
		outer loop
			vertex -0.0373232327401638 -0.3028353750705719 0.04723922908306122
			vertex 0.00020665783085860312 -0.30237525701522827 0.04723922908306122
			vertex -0.008788353763520718 -0.30413976311683655 0.04723922908306122
		endloop
	endfacet
	facet normal 0 0 -1
		outer loop
			vertex 0.10000000149011612 -0.19372747838497162 0.04723922908306122
			vertex 0.10000000149011612 -0.24090167880058289 0.04723922908306122
			vertex 0.07207193970680237 -0.27849170565605164 0.04723922908306122
		endloop
	endfacet
	facet normal 0 0 -1
		outer loop
			vertex 0.10000000149011612 -0.19372747838497162 0.04723922908306122
			vertex 0.07207193970680237 -0.27849170565605164 0.04723922908306122
			vertex -0.05250970646739006 -0.1509704738855362 0.04723922908306122
		endloop
	endfacet
	facet normal 0 0 -1
		outer loop
			vertex 0.10000000149011612 -0.19372747838497162 0.04723922908306122
			vertex -0.05250970646739006 -0.1509704738855362 0.04723922908306122
			vertex -0.056375592947006226 -0.11231154203414917 0.04723922908306122
		endloop
	endfacet
	facet normal 0 0 -1
		outer loop
			vertex 0.00020665783085860312 -0.30237525701522827 0.04723922908306122
			vertex -0.050555307418107986 -0.17051446437835693 0.04723922908306122
			vertex -0.05250970646739006 -0.1509704738855362 0.04723922908306122
		endloop
	endfacet
	facet normal 0 0 -1
		outer loop
			vertex 0.00020665783085860312 -0.30237525701522827 0.04723922908306122
			vertex -0.05250970646739006 -0.1509704738855362 0.04723922908306122
			vertex 0.07207193970680237 -0.27849170565605164 0.04723922908306122
		endloop
	endfacet
	facet normal 0 0 -1
		outer loop
			vertex 0.00020665783085860312 -0.30237525701522827 0.04723922908306122
			vertex 0.07207193970680237 -0.27849170565605164 0.04723922908306122
			vertex 0.06530392915010452 -0.28760117292404175 0.04723922908306122
		endloop
	endfacet
	facet normal 0 0 -1
		outer loop
			vertex 0.00020665783085860312 -0.30237525701522827 0.04723922908306122
			vertex 0.06530392915010452 -0.28760117292404175 0.04723922908306122
			vertex 0.05978400632739067 -0.2906882166862488 0.04723922908306122
		endloop
	endfacet
	facet normal 0 0 -1
		outer loop
			vertex 0.10000000149011612 -0.11918909847736359 0.04723922908306122
			vertex 0.10000000149011612 -0.19372747838497162 0.04723922908306122
			vertex -0.056375592947006226 -0.11231154203414917 0.04723922908306122
		endloop
	endfacet
	facet normal 0 0 -1
		outer loop
			vertex 0.10000000149011612 -0.11918909847736359 0.04723922908306122
			vertex -0.056375592947006226 -0.11231154203414917 0.04723922908306122
			vertex -0.05706164613366127 -0.10545097291469574 0.04723922908306122
		endloop
	endfacet
	facet normal 0 0 -1
		outer loop
			vertex 0.10000000149011612 -0.1023595929145813 0.04723922908306122
			vertex 0.10000000149011612 -0.11918909847736359 0.04723922908306122
			vertex -0.05706164613366127 -0.10545097291469574 0.04723922908306122
		endloop
	endfacet
	facet normal 0 0 -1
		outer loop
			vertex 0.10000000149011612 -0.1023595929145813 0.04723922908306122
			vertex -0.05706164613366127 -0.10545097291469574 0.04723922908306122
			vertex -0.05716434493660927 -0.10442398488521576 0.04723922908306122
		endloop
	endfacet
	facet normal 0 0 -1
		outer loop
			vertex 0.10000000149011612 -0.1023595929145813 0.04723922908306122
			vertex -0.05716434493660927 -0.10442398488521576 0.04723922908306122
			vertex 0.06314278393983841 -0.1023595929145813 0.04723922908306122
		endloop
	endfacet
	facet normal 0 0 -1
		outer loop
			vertex -0.05716434493660927 -0.10442398488521576 0.04723922908306122
			vertex -0.057370781898498535 -0.1023595929145813 0.04723922908306122
			vertex 0.06314278393983841 -0.1023595929145813 0.04723922908306122
		endloop
	endfacet
	facet normal 0 0 -1
		outer loop
			vertex 0.10000000149011612 -0.24090167880058289 0.04723922908306122
			vertex 0.10000000149011612 -0.2681972086429596 0.04723922908306122
			vertex 0.07543575018644333 -0.2819348871707916 0.04723922908306122
		endloop
	endfacet
	facet normal 0 0 -1
		outer loop
			vertex 0.10000000149011612 -0.24090167880058289 0.04723922908306122
			vertex 0.07543575018644333 -0.2819348871707916 0.04723922908306122
			vertex 0.07207193970680237 -0.27849170565605164 0.04723922908306122
		endloop
	endfacet
	facet normal 0 0 -1
		outer loop
			vertex 0.06530392915010452 -0.28760117292404175 0.04723922908306122
			vertex 0.07207193970680237 -0.27849170565605164 0.04723922908306122
			vertex 0.07543575018644333 -0.2819348871707916 0.04723922908306122
		endloop
	endfacet
endsolid exported
