solid exported
	facet normal -0.4187591547439747 0.3598301101945762 0.8337643924487729
		outer loop
			vertex -0.06292960047721863 0.1023595854640007 0.23619616031646729
			vertex -0.07159916311502457 0.1023595854640007 0.23184186220169067
			vertex -0.07456302642822266 0.08882096409797668 0.23619616031646729
		endloop
	endfacet
	facet normal -0.8287402608050943 0.32740105218877386 0.4538701699235013
		outer loop
			vertex -0.07456302642822266 0.08882096409797668 0.23619616031646729
			vertex -0.07159916311502457 0.1023595854640007 0.23184186220169067
			vertex -0.08258557319641113 0.1023595854640007 0.2117813229560852
		endloop
	endfacet
	facet normal -0.8287399485444439 0.3274015794928536 0.45387035971975265
		outer loop
			vertex -0.07456302642822266 0.08882096409797668 0.23619616031646729
			vertex -0.08258557319641113 0.1023595854640007 0.2117813229560852
			vertex -0.0770605057477951 0.0824991837143898 0.23619616031646729
		endloop
	endfacet
	facet normal -0.6072247472461904 0.5435162353255649 0.5795413775299616
		outer loop
			vertex -0.07799068838357925 0.08145996928215027 0.23619616031646729
			vertex -0.0770605057477951 0.0824991837143898 0.23619616031646729
			vertex -0.08258557319641113 0.1023595854640007 0.2117813229560852
		endloop
	endfacet
	facet normal -0.6072223876331323 0.5435178610931785 0.5795423251409809
		outer loop
			vertex -0.07799068838357925 0.08145996928215027 0.23619616031646729
			vertex -0.08258557319641113 0.1023595854640007 0.2117813229560852
			vertex -0.08501892536878586 0.1023595854640007 0.20923174917697906
		endloop
	endfacet
	facet normal -0.6072210853118472 0.5435188558665255 0.5795427567231304
		outer loop
			vertex -0.07799068838357925 0.08145996928215027 0.23619616031646729
			vertex -0.08501892536878586 0.1023595854640007 0.20923174917697906
			vertex -0.08182084560394287 0.08333374559879303 0.23042577505111694
		endloop
	endfacet
	facet normal -0.7993705125076289 0.3821328749204528 0.4636607052989505
		outer loop
			vertex -0.08501892536878586 0.1023595854640007 0.20923174917697906
			vertex -0.10000000149011612 0.1023595854640007 0.18340374529361725
			vertex -0.10000000149011612 0.09874986857175827 0.18637874722480774
		endloop
	endfacet
	facet normal -0.7993706511375787 0.3821323797594902 0.46366087438906517
		outer loop
			vertex -0.08501892536878586 0.1023595854640007 0.20923174917697906
			vertex -0.10000000149011612 0.09874986857175827 0.18637874722480774
			vertex -0.08182084560394287 0.08333374559879303 0.23042577505111694
		endloop
	endfacet
	facet normal 0.0840242384777099 0.9241303677329531 0.3727237459325576
		outer loop
			vertex 0.03695148602128029 0.10208076983690262 0.23619616031646729
			vertex 0.03788634017109871 0.1023595854640007 0.23529411852359772
			vertex 0.035890307277441025 0.10217725485563278 0.23619616031646729
		endloop
	endfacet
	facet normal 0.417470893252552 -0.10441890068645271 0.902670895989424
		outer loop
			vertex 0.035935912281274796 0.1023595854640007 0.23619616031646729
			vertex 0.035890307277441025 0.10217725485563278 0.23619616031646729
			vertex 0.03788634017109871 0.1023595854640007 0.23529411852359772
		endloop
	endfacet
	facet normal 0.6057210054745837 0.32243678718666796 0.7274177491617858
		outer loop
			vertex 0.03786511346697807 0.10036445409059525 0.23619616031646729
			vertex 0.03788634017109871 0.1023595854640007 0.23529411852359772
			vertex 0.03695148602128029 0.10208076983690262 0.23619616031646729
		endloop
	endfacet
	facet normal 0.43500994956491573 0.3671030534729327 0.8221932205451336
		outer loop
			vertex 0.043270476162433624 0.09395920485258102 0.23619616031646729
			vertex 0.03788634017109871 0.1023595854640007 0.23529411852359772
			vertex 0.03786511346697807 0.10036445409059525 0.23619616031646729
		endloop
	endfacet
	facet normal 0.7164720517230224 0.5102938863362682 0.4756763066073721
		outer loop
			vertex 0.03788634017109871 0.1023595854640007 0.23529411852359772
			vertex 0.043270476162433624 0.09395920485258102 0.23619616031646729
			vertex 0.04346531629562378 0.09368564188480377 0.23619616031646729
		endloop
	endfacet
	facet normal 0.7164696116804381 0.5102928182855057 0.4756811275893948
		outer loop
			vertex 0.03788634017109871 0.1023595854640007 0.23529411852359772
			vertex 0.04346531629562378 0.09368564188480377 0.23619616031646729
			vertex 0.04466209560632706 0.09511028230190277 0.23286527395248413
		endloop
	endfacet
	facet normal 0.7164697568005843 0.5102931443586275 0.4756805592103766
		outer loop
			vertex 0.03788634017109871 0.1023595854640007 0.23529411852359772
			vertex 0.04466209560632706 0.09511028230190277 0.23286527395248413
			vertex 0.04716603085398674 0.09809093177318573 0.22589631378650665
		endloop
	endfacet
	facet normal 0.7245884654990097 0.06457681786947297 0.6861496850248082
		outer loop
			vertex 0.03788634017109871 0.1023595854640007 0.23529411852359772
			vertex 0.04716603085398674 0.09809093177318573 0.22589631378650665
			vertex 0.047608476132154465 0.09832710027694702 0.22540685534477234
		endloop
	endfacet
	facet normal 0.7245878753018365 0.06457298150461376 0.6861506693323086
		outer loop
			vertex 0.03788634017109871 0.1023595854640007 0.23529411852359772
			vertex 0.047608476132154465 0.09832710027694702 0.22540685534477234
			vertex 0.047354478389024734 0.1023595854640007 0.22529558837413788
		endloop
	endfacet
	facet normal 0.724587786806463 0.0645729785168445 0.6861507630662338
		outer loop
			vertex 0.05516279116272926 0.1023595854640007 0.21704986691474915
			vertex 0.047354478389024734 0.1023595854640007 0.22529558837413788
			vertex 0.047608476132154465 0.09832710027694702 0.22540685534477234
		endloop
	endfacet
	facet normal -0.6072221152774963 0.543517459652301 0.5795429869915024
		outer loop
			vertex -0.07799068838357925 0.08145996928215027 0.23619616031646729
			vertex -0.08182084560394287 0.08333374559879303 0.23042577505111694
			vertex -0.08095011860132217 0.07815366983413696 0.23619616031646729
		endloop
	endfacet
	facet normal -0.7135283540198606 0.30367168188134397 0.6313959119546663
		outer loop
			vertex -0.10000000149011612 0.044464360922575 0.23619616031646729
			vertex -0.09723790735006332 0.05095437169075012 0.23619616031646729
			vertex -0.10000000149011612 0.04866411164402962 0.23417627811431885
		endloop
	endfacet
	facet normal -0.741534768826567 0.5137450475481925 0.4314999568262264
		outer loop
			vertex -0.10000000149011612 0.04866411164402962 0.23417627811431885
			vertex -0.09723790735006332 0.05095437169075012 0.23619616031646729
			vertex -0.09129883348941803 0.059526775032281876 0.23619616031646729
		endloop
	endfacet
	facet normal -0.74153422638489 0.513744266873772 0.4315018184829506
		outer loop
			vertex -0.10000000149011612 0.04866411164402962 0.23417627811431885
			vertex -0.09129883348941803 0.059526775032281876 0.23619616031646729
			vertex -0.10000000149011612 0.054878152906894684 0.22677786648273468
		endloop
	endfacet
	facet normal -0.7993704047130694 0.3821327676801145 0.4636609795249103
		outer loop
			vertex -0.10000000149011612 0.09874986857175827 0.18637874722480774
			vertex -0.10000000149011612 0.0664534792304039 0.21299627423286438
			vertex -0.08663986623287201 0.0662514939904213 0.23619616031646729
		endloop
	endfacet
	facet normal -0.7993701991696757 0.38213304501450746 0.46366110532087307
		outer loop
			vertex -0.10000000149011612 0.09874986857175827 0.18637874722480774
			vertex -0.08663986623287201 0.0662514939904213 0.23619616031646729
			vertex -0.08095011860132217 0.07815366983413696 0.23619616031646729
		endloop
	endfacet
	facet normal -0.7993715341302311 0.38213077286055935 0.46366067641678693
		outer loop
			vertex -0.10000000149011612 0.09874986857175827 0.18637874722480774
			vertex -0.08095011860132217 0.07815366983413696 0.23619616031646729
			vertex -0.08182084560394287 0.08333374559879303 0.23042577505111694
		endloop
	endfacet
	facet normal -0.7415342970520671 0.5137439989800425 0.4315020159947006
		outer loop
			vertex -0.10000000149011612 0.054878152906894684 0.22677786648273468
			vertex -0.09129883348941803 0.059526775032281876 0.23619616031646729
			vertex -0.08663986623287201 0.0662514939904213 0.23619616031646729
		endloop
	endfacet
	facet normal -0.7415343029069736 0.5137450805338318 0.43150071823758906
		outer loop
			vertex -0.10000000149011612 0.054878152906894684 0.22677786648273468
			vertex -0.08663986623287201 0.0662514939904213 0.23619616031646729
			vertex -0.10000000149011612 0.0664534792304039 0.21299627423286438
		endloop
	endfacet
	facet normal 0.7164692470538978 0.5102932362477341 0.47568122841440247
		outer loop
			vertex 0.04346531629562378 0.09368564188480377 0.23619616031646729
			vertex 0.05638090521097183 0.07555171102285385 0.23619616031646729
			vertex 0.051646873354911804 0.08763735741376877 0.23036150634288788
		endloop
	endfacet
	facet normal 0.7164692466074007 0.5102932721714123 0.4756811905493179
		outer loop
			vertex 0.04346531629562378 0.09368564188480377 0.23619616031646729
			vertex 0.051646873354911804 0.08763735741376877 0.23036150634288788
			vertex 0.04466209560632706 0.09511028230190277 0.23286527395248413
		endloop
	endfacet
	facet normal 0.716467223582579 0.5102939174992795 0.47568354532725765
		outer loop
			vertex 0.051646873354911804 0.08763735741376877 0.23036150634288788
			vertex 0.04763700067996979 0.09787428379058838 0.22541935741901398
			vertex 0.04716603085398674 0.09809093177318573 0.22589631378650665
		endloop
	endfacet
	facet normal 0.7164693917277094 0.5102935982451724 0.4756806221692457
		outer loop
			vertex 0.051646873354911804 0.08763735741376877 0.23036150634288788
			vertex 0.04716603085398674 0.09809093177318573 0.22589631378650665
			vertex 0.04466209560632706 0.09511028230190277 0.23286527395248413
		endloop
	endfacet
	facet normal 0.7245849973663956 0.0645886059892811 0.6861522378946977
		outer loop
			vertex 0.047608476132154465 0.09832710027694702 0.22540685534477234
			vertex 0.04716603085398674 0.09809093177318573 0.22589631378650665
			vertex 0.04763700067996979 0.09787428379058838 0.22541935741901398
		endloop
	endfacet
	facet normal 0.7164699274020442 0.5102934017864056 0.47568002609082477
		outer loop
			vertex 0.05638090521097183 0.07555171102285385 0.23619616031646729
			vertex 0.06455405056476593 0.06407632678747177 0.23619616031646729
			vertex 0.05095778405666351 0.09634671360254288 0.2220562994480133
		endloop
	endfacet
	facet normal 0.7164708736081866 0.5102929841314662 0.47567904895772434
		outer loop
			vertex 0.05638090521097183 0.07555171102285385 0.23619616031646729
			vertex 0.05095778405666351 0.09634671360254288 0.2220562994480133
			vertex 0.04763700067996979 0.09787428379058838 0.22541935741901398
		endloop
	endfacet
	facet normal 0.7245825410720262 0.06458852308945369 0.6861548395651877
		outer loop
			vertex 0.050616223365068436 0.09993263334035873 0.22207953035831451
			vertex 0.047608476132154465 0.09832710027694702 0.22540685534477234
			vertex 0.04763700067996979 0.09787428379058838 0.22541935741901398
		endloop
	endfacet
	facet normal 0.7245884615603752 0.06457228861694858 0.6861501154385522
		outer loop
			vertex 0.050616223365068436 0.09993263334035873 0.22207953035831451
			vertex 0.04763700067996979 0.09787428379058838 0.22541935741901398
			vertex 0.05095778405666351 0.09634671360254288 0.2220562994480133
		endloop
	endfacet
	facet normal 0.7547364250101076 0.5901389251906922 0.28654664147000064
		outer loop
			vertex 0.07691416889429092 0.1023595854640007 0.19408001005649567
			vertex 0.10000000149011612 0.08382531255483627 0.17144522070884705
			vertex 0.10000000149011612 0.08780194818973541 0.16325539350509644
		endloop
	endfacet
	facet normal 0.7547364347860571 0.5901389043550999 0.28654665863170414
		outer loop
			vertex 0.07691416889429092 0.1023595854640007 0.19408001005649567
			vertex 0.10000000149011612 0.08780194818973541 0.16325539350509644
			vertex 0.0844910740852356 0.1023595854640007 0.17412316799163818
		endloop
	endfacet
	facet normal 0.6866999144370043 0.6255087780943667 0.3703808796888731
		outer loop
			vertex 0.10000000149011612 0.009332221001386642 0.20659734308719635
			vertex 0.0727379322052002 0.021734964102506638 0.23619616031646729
			vertex 0.08241087943315506 0.01111574936658144 0.23619616031646729
		endloop
	endfacet
	facet normal 0.6866998233090573 0.6255089150903506 0.37038081728108196
		outer loop
			vertex 0.10000000149011612 0.009332221001386642 0.20659734308719635
			vertex 0.08241087943315506 0.01111574936658144 0.23619616031646729
			vertex 0.10000000149011612 -0.0006923323962837458 0.22352707386016846
		endloop
	endfacet
	facet normal 0.7164696653477746 0.5102931197644925 0.4756807233402143
		outer loop
			vertex 0.06455405056476593 0.06407632678747177 0.23619616031646729
			vertex 0.06770467758178711 0.05965273454785347 0.23619616031646729
			vertex 0.0583164319396019 0.09296174347400665 0.21460402011871338
		endloop
	endfacet
	facet normal 0.7164687181563115 0.5102935980925526 0.4756816368635731
		outer loop
			vertex 0.06455405056476593 0.06407632678747177 0.23619616031646729
			vertex 0.0583164319396019 0.09296174347400665 0.21460402011871338
			vertex 0.05095778405666351 0.09634671360254288 0.2220562994480133
		endloop
	endfacet
	facet normal 0.7245886773395341 0.06457146331597002 0.6861499652383427
		outer loop
			vertex 0.06385431438684464 0.1023595854640007 0.2078714370727539
			vertex 0.05516279116272926 0.1023595854640007 0.21704986691474915
			vertex 0.050616223365068436 0.09993263334035873 0.22207953035831451
		endloop
	endfacet
	facet normal 0.7245885659245834 0.0645722992781785 0.6861500042245027
		outer loop
			vertex 0.06385431438684464 0.1023595854640007 0.2078714370727539
			vertex 0.050616223365068436 0.09993263334035873 0.22207953035831451
			vertex 0.05095778405666351 0.09634671360254288 0.2220562994480133
		endloop
	endfacet
	facet normal 0.7245871759227518 0.06457757262759278 0.686150975807671
		outer loop
			vertex 0.06385431438684464 0.1023595854640007 0.2078714370727539
			vertex 0.05095778405666351 0.09634671360254288 0.2220562994480133
			vertex 0.0583164319396019 0.09296174347400665 0.21460402011871338
		endloop
	endfacet
	facet normal 0.716469205964965 0.5102941255932102 0.475680336243778
		outer loop
			vertex 0.06770467758178711 0.05965273454785347 0.23619616031646729
			vertex 0.07231563329696655 0.053178805857896805 0.23619616031646729
			vertex 0.10000000149011612 0.056648995727300644 0.1907752901315689
		endloop
	endfacet
	facet normal 0.7164695799420545 0.5102933018676765 0.47568065662442116
		outer loop
			vertex 0.06770467758178711 0.05965273454785347 0.23619616031646729
			vertex 0.10000000149011612 0.056648995727300644 0.1907752901315689
			vertex 0.10000000149011612 0.07378730177879333 0.1723899245262146
		endloop
	endfacet
	facet normal 0.7164697084125056 0.5102931021230709 0.47568067740125053
		outer loop
			vertex 0.06770467758178711 0.05965273454785347 0.23619616031646729
			vertex 0.10000000149011612 0.07378730177879333 0.1723899245262146
			vertex 0.0583164319396019 0.09296174347400665 0.21460402011871338
		endloop
	endfacet
	facet normal 0.7398053206821021 0.6448640152163186 0.19193355456912634
		outer loop
			vertex 0.0844910740852356 0.1023595854640007 0.17412316799163818
			vertex 0.10000000149011612 0.08780194818973541 0.16325539350509644
			vertex 0.10000000149011612 0.09038162976503372 0.15458810329437256
		endloop
	endfacet
	facet normal 0.7398048196616199 0.6448648631254239 0.1919326369111475
		outer loop
			vertex 0.0844910740852356 0.1023595854640007 0.17412316799163818
			vertex 0.10000000149011612 0.09038162976503372 0.15458810329437256
			vertex 0.08833430707454681 0.1023595854640007 0.15930941700935364
		endloop
	endfacet
	facet normal 0.7245873217177956 0.0645729361020079 0.6861512581996755
		outer loop
			vertex 0.10000000149011612 0.08382531255483627 0.17144522070884705
			vertex 0.07691416889429092 0.1023595854640007 0.19408001005649567
			vertex 0.06385431438684464 0.1023595854640007 0.2078714370727539
		endloop
	endfacet
	facet normal 0.7245880398961463 0.0645764833363573 0.686150165954487
		outer loop
			vertex 0.10000000149011612 0.08382531255483627 0.17144522070884705
			vertex 0.06385431438684464 0.1023595854640007 0.2078714370727539
			vertex 0.0583164319396019 0.09296174347400665 0.21460402011871338
		endloop
	endfacet
	facet normal 0.7245879784887782 0.06457542740986989 0.6861503301787288
		outer loop
			vertex 0.10000000149011612 0.08382531255483627 0.17144522070884705
			vertex 0.0583164319396019 0.09296174347400665 0.21460402011871338
			vertex 0.10000000149011612 0.07378730177879333 0.1723899245262146
		endloop
	endfacet
	facet normal 1 0 0
		outer loop
			vertex 0.10000000149011612 0.07378730177879333 0.1723899245262146
			vertex 0.10000000149011612 0.09038162976503372 0.15458810329437256
			vertex 0.10000000149011612 0.08780194818973541 0.16325539350509644
		endloop
	endfacet
	facet normal 1 0 0
		outer loop
			vertex 0.10000000149011612 0.07378730177879333 0.1723899245262146
			vertex 0.10000000149011612 0.08780194818973541 0.16325539350509644
			vertex 0.10000000149011612 0.08382531255483627 0.17144522070884705
		endloop
	endfacet
	facet normal 0.8373020983201006 -0.2381522737007262 0.49214702140715155
		outer loop
			vertex 0.10000000149011612 0.056648995727300644 0.1907752901315689
			vertex 0.07231563329696655 0.053178805857896805 0.23619616031646729
			vertex 0.06738179922103882 0.035832300782203674 0.23619616031646729
		endloop
	endfacet
	facet normal 0.8373021073156983 -0.23815142342174406 0.4921474175558458
		outer loop
			vertex 0.10000000149011612 0.056648995727300644 0.1907752901315689
			vertex 0.06738179922103882 0.035832300782203674 0.23619616031646729
			vertex 0.10000000149011612 0.04873621091246605 0.18694627285003662
		endloop
	endfacet
	facet normal 0.7614387265247516 0.28930053748597173 0.5801002195816619
		outer loop
			vertex 0.10000000149011612 0.04873621091246605 0.18694627285003662
			vertex 0.06738179922103882 0.035832300782203674 0.23619616031646729
			vertex 0.0727379322052002 0.021734964102506638 0.23619616031646729
		endloop
	endfacet
	facet normal 0.7614388121458553 0.2893003848710581 0.5801001833057517
		outer loop
			vertex 0.10000000149011612 0.04873621091246605 0.18694627285003662
			vertex 0.0727379322052002 0.021734964102506638 0.23619616031646729
			vertex 0.10000000149011612 0.009332221001386642 0.20659734308719635
		endloop
	endfacet
	facet normal 1 0 0
		outer loop
			vertex 0.10000000149011612 0.009332221001386642 0.20659734308719635
			vertex 0.10000000149011612 0.027152586728334427 0.17650185525417328
			vertex 0.10000000149011612 0.04873621091246605 0.18694627285003662
		endloop
	endfacet
	facet normal 0.7398048233169805 0.6448648350262688 0.19193271723047736
		outer loop
			vertex 0.08833430707454681 0.1023595854640007 0.15930941700935364
			vertex 0.10000000149011612 0.09038162976503372 0.15458810329437256
			vertex 0.10000000149011612 0.0938260555267334 0.14301535487174988
		endloop
	endfacet
	facet normal 0.7398063841610962 0.644862319697141 0.19193515204179473
		outer loop
			vertex 0.08833430707454681 0.1023595854640007 0.15930941700935364
			vertex 0.10000000149011612 0.0938260555267334 0.14301535487174988
			vertex 0.0894642323255539 0.1023595854640007 0.15495416522026062
		endloop
	endfacet
	facet normal 1 0 0
		outer loop
			vertex 0.10000000149011612 0.027152586728334427 0.17650185525417328
			vertex 0.10000000149011612 0.02721443399786949 0.1763973981142044
			vertex 0.10000000149011612 0.09291498363018036 0.14607639610767365
		endloop
	endfacet
	facet normal 1 0 0
		outer loop
			vertex 0.10000000149011612 0.027152586728334427 0.17650185525417328
			vertex 0.10000000149011612 0.09291498363018036 0.14607639610767365
			vertex 0.10000000149011612 0.09038162976503372 0.15458810329437256
		endloop
	endfacet
	facet normal 1 0 0
		outer loop
			vertex 0.10000000149011612 0.027152586728334427 0.17650185525417328
			vertex 0.10000000149011612 0.09038162976503372 0.15458810329437256
			vertex 0.10000000149011612 0.056648995727300644 0.1907752901315689
		endloop
	endfacet
	facet normal 1 0 0
		outer loop
			vertex 0.10000000149011612 0.04774922877550125 0.14171770215034485
			vertex 0.10000000149011612 0.0864170491695404 0.14171770215034485
			vertex 0.10000000149011612 0.0938260555267334 0.14301535487174988
		endloop
	endfacet
	facet normal 1 0 0
		outer loop
			vertex 0.10000000149011612 0.04774922877550125 0.14171770215034485
			vertex 0.10000000149011612 0.0938260555267334 0.14301535487174988
			vertex 0.10000000149011612 0.09291498363018036 0.14607639610767365
		endloop
	endfacet
	facet normal 1 0 0
		outer loop
			vertex 0.10000000149011612 0.04774922877550125 0.14171770215034485
			vertex 0.10000000149011612 0.09291498363018036 0.14607639610767365
			vertex 0.10000000149011612 0.02721443399786949 0.1763973981142044
		endloop
	endfacet
	facet normal 0.6609731110381805 0.2123592125033531 0.7197347506890751
		outer loop
			vertex 0.10000000149011612 -0.04363081231713295 0.23619616031646729
			vertex 0.10000000149011612 -0.0006923323962837458 0.22352707386016846
			vertex 0.08241087943315506 0.01111574936658144 0.23619616031646729
		endloop
	endfacet
	facet normal 1 0 0
		outer loop
			vertex 0.10000000149011612 -0.04363081231713295 0.23619616031646729
			vertex 0.10000000149011612 -0.07383759319782257 0.23619616031646729
			vertex 0.10000000149011612 -0.09465394914150238 0.23263999819755554
		endloop
	endfacet
	facet normal 1 0 0
		outer loop
			vertex 0.10000000149011612 -0.04363081231713295 0.23619616031646729
			vertex 0.10000000149011612 -0.09465394914150238 0.23263999819755554
			vertex 0.10000000149011612 0.02721443399786949 0.1763973981142044
		endloop
	endfacet
	facet normal 1 0 0
		outer loop
			vertex 0.10000000149011612 -0.04363081231713295 0.23619616031646729
			vertex 0.10000000149011612 0.02721443399786949 0.1763973981142044
			vertex 0.10000000149011612 -0.0006923323962837458 0.22352707386016846
		endloop
	endfacet
	facet normal 1 0 0
		outer loop
			vertex 0.10000000149011612 -0.1023595854640007 0.23132359981536865
			vertex 0.10000000149011612 -0.1023595854640007 0.155410036444664
			vertex 0.10000000149011612 -0.08604184538125992 0.14171770215034485
		endloop
	endfacet
	facet normal 1 0 0
		outer loop
			vertex 0.10000000149011612 -0.1023595854640007 0.23132359981536865
			vertex 0.10000000149011612 -0.08604184538125992 0.14171770215034485
			vertex 0.10000000149011612 0.04774922877550125 0.14171770215034485
		endloop
	endfacet
	facet normal 1 0 0
		outer loop
			vertex 0.10000000149011612 -0.1023595854640007 0.23132359981536865
			vertex 0.10000000149011612 0.04774922877550125 0.14171770215034485
			vertex 0.10000000149011612 0.02721443399786949 0.1763973981142044
		endloop
	endfacet
	facet normal 1 0 0
		outer loop
			vertex 0.10000000149011612 -0.1023595854640007 0.23132359981536865
			vertex 0.10000000149011612 0.02721443399786949 0.1763973981142044
			vertex 0.10000000149011612 -0.09465394914150238 0.23263999819755554
		endloop
	endfacet
	facet normal 0.7398050366130289 0.6448632796838097 0.19193712073863042
		outer loop
			vertex 0.10000000149011612 0.09421227872371674 0.14171770215034485
			vertex 0.09420593827962875 0.1008593887090683 0.14171770215034485
			vertex 0.09232696890830994 0.1023595854640007 0.14391972124576569
		endloop
	endfacet
	facet normal 0.7398050986726918 0.6448646187985634 0.19193238236335305
		outer loop
			vertex 0.10000000149011612 0.09421227872371674 0.14171770215034485
			vertex 0.09232696890830994 0.1023595854640007 0.14391972124576569
			vertex 0.0894642323255539 0.1023595854640007 0.15495416522026062
		endloop
	endfacet
	facet normal 0.7398051303721618 0.6448645650814717 0.19193244065898057
		outer loop
			vertex 0.10000000149011612 0.09421227872371674 0.14171770215034485
			vertex 0.0894642323255539 0.1023595854640007 0.15495416522026062
			vertex 0.10000000149011612 0.0938260555267334 0.14301535487174988
		endloop
	endfacet
	facet normal 0.44912306755842024 0.8687675057403124 -0.20864201675758262
		outer loop
			vertex 0.09130401164293289 0.1023595854640007 0.14171770215034485
			vertex 0.09232696890830994 0.1023595854640007 0.14391972124576569
			vertex 0.09420593827962875 0.1008593887090683 0.14171770215034485
		endloop
	endfacet
	facet normal 1 0 0
		outer loop
			vertex 0.10000000149011612 0.0864170491695404 0.14171770215034485
			vertex 0.10000000149011612 0.09421227872371674 0.14171770215034485
			vertex 0.10000000149011612 0.0938260555267334 0.14301535487174988
		endloop
	endfacet
	facet normal 1 0 0
		outer loop
			vertex 0.10000000149011612 -0.07383759319782257 0.23619616031646729
			vertex 0.10000000149011612 -0.1023595854640007 0.23619616031646729
			vertex 0.10000000149011612 -0.09465394914150238 0.23263999819755554
		endloop
	endfacet
	facet normal 1 0 0
		outer loop
			vertex 0.10000000149011612 -0.1023595854640007 0.23619616031646729
			vertex 0.10000000149011612 -0.1023595854640007 0.23132359981536865
			vertex 0.10000000149011612 -0.09465394914150238 0.23263999819755554
		endloop
	endfacet
	facet normal 1 0 0
		outer loop
			vertex 0.10000000149011612 -0.0933099240064621 0.14171770215034485
			vertex 0.10000000149011612 -0.08604184538125992 0.14171770215034485
			vertex 0.10000000149011612 -0.09562364965677261 0.14975786209106445
		endloop
	endfacet
	facet normal 1 0 0
		outer loop
			vertex 0.10000000149011612 -0.1023595854640007 0.155410036444664
			vertex 0.10000000149011612 -0.1023595854640007 0.14171770215034485
			vertex 0.10000000149011612 -0.0933099240064621 0.14171770215034485
		endloop
	endfacet
	facet normal 1 0 0
		outer loop
			vertex 0.10000000149011612 -0.1023595854640007 0.155410036444664
			vertex 0.10000000149011612 -0.0933099240064621 0.14171770215034485
			vertex 0.10000000149011612 -0.09562364965677261 0.14975786209106445
		endloop
	endfacet
	facet normal -1 0 0
		outer loop
			vertex -0.10000000149011612 0.1023595854640007 0.18340374529361725
			vertex -0.10000000149011612 0.1023595854640007 0.17998358607292175
			vertex -0.10000000149011612 0.10081856697797775 0.1810951828956604
		endloop
	endfacet
	facet normal -1 0 0
		outer loop
			vertex -0.10000000149011612 0.1023595854640007 0.18340374529361725
			vertex -0.10000000149011612 0.10081856697797775 0.1810951828956604
			vertex -0.10000000149011612 0.09874986857175827 0.18637874722480774
		endloop
	endfacet
	facet normal -1 0 0
		outer loop
			vertex -0.10000000149011612 0.1023595854640007 0.17998358607292175
			vertex -0.10000000149011612 0.1023595854640007 0.177159383893013
			vertex -0.10000000149011612 0.10081856697797775 0.1810951828956604
		endloop
	endfacet
	facet normal -1 0 0
		outer loop
			vertex -0.10000000149011612 0.02443317510187626 0.23619616031646729
			vertex -0.10000000149011612 0.044464360922575 0.23619616031646729
			vertex -0.10000000149011612 0.04866411164402962 0.23417627811431885
		endloop
	endfacet
	facet normal -1 0 0
		outer loop
			vertex -0.10000000149011612 0.02443317510187626 0.23619616031646729
			vertex -0.10000000149011612 0.04866411164402962 0.23417627811431885
			vertex -0.10000000149011612 0.054878152906894684 0.22677786648273468
		endloop
	endfacet
	facet normal -1 0 0
		outer loop
			vertex -0.10000000149011612 0.02443317510187626 0.23619616031646729
			vertex -0.10000000149011612 0.054878152906894684 0.22677786648273468
			vertex -0.10000000149011612 0.04271562770009041 0.22300803661346436
		endloop
	endfacet
	facet normal -1 0 0
		outer loop
			vertex -0.10000000149011612 0.06129730865359306 0.21724581718444824
			vertex -0.10000000149011612 0.062440939247608185 0.21777360141277313
			vertex -0.10000000149011612 0.0664534792304039 0.21299627423286438
		endloop
	endfacet
	facet normal -1 0 0
		outer loop
			vertex -0.10000000149011612 0.062440939247608185 0.21777360141277313
			vertex -0.10000000149011612 0.06129730865359306 0.21724581718444824
			vertex -0.10000000149011612 0.051138151437044144 0.2256186306476593
		endloop
	endfacet
	facet normal -1 0 0
		outer loop
			vertex -0.10000000149011612 0.062440939247608185 0.21777360141277313
			vertex -0.10000000149011612 0.051138151437044144 0.2256186306476593
			vertex -0.10000000149011612 0.054878152906894684 0.22677786648273468
		endloop
	endfacet
	facet normal -1 0 0
		outer loop
			vertex -0.10000000149011612 0.054836880415678024 0.21426431834697723
			vertex -0.10000000149011612 0.06129730865359306 0.21724581718444824
			vertex -0.10000000149011612 0.09874986857175827 0.18637874722480774
		endloop
	endfacet
	facet normal -1 0 0
		outer loop
			vertex -0.10000000149011612 0.054836880415678024 0.21426431834697723
			vertex -0.10000000149011612 0.09874986857175827 0.18637874722480774
			vertex -0.10000000149011612 0.10081856697797775 0.1810951828956604
		endloop
	endfacet
	facet normal -1 0 0
		outer loop
			vertex -0.10000000149011612 0.06129730865359306 0.21724581718444824
			vertex -0.10000000149011612 0.054836880415678024 0.21426431834697723
			vertex -0.10000000149011612 0.04271562770009041 0.22300803661346436
		endloop
	endfacet
	facet normal -1 0 0
		outer loop
			vertex -0.10000000149011612 0.06129730865359306 0.21724581718444824
			vertex -0.10000000149011612 0.04271562770009041 0.22300803661346436
			vertex -0.10000000149011612 0.051138151437044144 0.2256186306476593
		endloop
	endfacet
	facet normal -1 0 0
		outer loop
			vertex -0.10000000149011612 -0.05616089701652527 0.23619616031646729
			vertex -0.10000000149011612 0.02443317510187626 0.23619616031646729
			vertex -0.10000000149011612 0.04271562770009041 0.22300803661346436
		endloop
	endfacet
	facet normal -1 0 0
		outer loop
			vertex -0.10000000149011612 -0.05616089701652527 0.23619616031646729
			vertex -0.10000000149011612 0.04271562770009041 0.22300803661346436
			vertex -0.10000000149011612 -0.07046564668416977 0.18792709708213806
		endloop
	endfacet
	facet normal -1 0 0
		outer loop
			vertex -0.10000000149011612 0.1023595854640007 0.14171770215034485
			vertex -0.10000000149011612 0.06483370810747147 0.14171770215034485
			vertex -0.10000000149011612 -0.006992070935666561 0.18573006987571716
		endloop
	endfacet
	facet normal -1 0 0
		outer loop
			vertex -0.10000000149011612 0.1023595854640007 0.14171770215034485
			vertex -0.10000000149011612 -0.006992070935666561 0.18573006987571716
			vertex -0.10000000149011612 0.054836880415678024 0.21426431834697723
		endloop
	endfacet
	facet normal -1 0 0
		outer loop
			vertex -0.10000000149011612 0.1023595854640007 0.14171770215034485
			vertex -0.10000000149011612 0.054836880415678024 0.21426431834697723
			vertex -0.10000000149011612 0.10081856697797775 0.1810951828956604
		endloop
	endfacet
	facet normal -1 0 0
		outer loop
			vertex -0.10000000149011612 0.1023595854640007 0.14171770215034485
			vertex -0.10000000149011612 0.10081856697797775 0.1810951828956604
			vertex -0.10000000149011612 0.1023595854640007 0.177159383893013
		endloop
	endfacet
	facet normal -1 0 0
		outer loop
			vertex -0.10000000149011612 0.04271562770009041 0.22300803661346436
			vertex -0.10000000149011612 0.054836880415678024 0.21426431834697723
			vertex -0.10000000149011612 -0.006992070935666561 0.18573006987571716
		endloop
	endfacet
	facet normal -1 0 0
		outer loop
			vertex -0.10000000149011612 0.04271562770009041 0.22300803661346436
			vertex -0.10000000149011612 -0.006992070935666561 0.18573006987571716
			vertex -0.10000000149011612 -0.03069472499191761 0.20025424659252167
		endloop
	endfacet
	facet normal -1 0 0
		outer loop
			vertex -0.10000000149011612 0.06483370810747147 0.14171770215034485
			vertex -0.10000000149011612 -0.08416002243757248 0.14171770215034485
			vertex -0.10000000149011612 -0.08127652108669281 0.1514475792646408
		endloop
	endfacet
	facet normal -1 0 0
		outer loop
			vertex -0.10000000149011612 0.06483370810747147 0.14171770215034485
			vertex -0.10000000149011612 -0.08127652108669281 0.1514475792646408
			vertex -0.10000000149011612 -0.006992070935666561 0.18573006987571716
		endloop
	endfacet
	facet normal -1 0 0
		outer loop
			vertex -0.10000000149011612 -0.006992070935666561 0.18573006987571716
			vertex -0.10000000149011612 -0.08127652108669281 0.1514475792646408
			vertex -0.10000000149011612 -0.07046564668416977 0.18792709708213806
		endloop
	endfacet
	facet normal -1 0 0
		outer loop
			vertex -0.10000000149011612 -0.006992070935666561 0.18573006987571716
			vertex -0.10000000149011612 -0.07046564668416977 0.18792709708213806
			vertex -0.10000000149011612 -0.03069472499191761 0.20025424659252167
		endloop
	endfacet
	facet normal -1 0 0
		outer loop
			vertex -0.10000000149011612 -0.1023595854640007 0.15135416388511658
			vertex -0.10000000149011612 -0.1023595854640007 0.23619616031646729
			vertex -0.10000000149011612 -0.05616089701652527 0.23619616031646729
		endloop
	endfacet
	facet normal -1 0 0
		outer loop
			vertex -0.10000000149011612 -0.1023595854640007 0.15135416388511658
			vertex -0.10000000149011612 -0.05616089701652527 0.23619616031646729
			vertex -0.10000000149011612 -0.08050207793712616 0.15406082570552826
		endloop
	endfacet
	facet normal -1 0 0
		outer loop
			vertex -0.10000000149011612 -0.08416002243757248 0.14171770215034485
			vertex -0.10000000149011612 -0.1023595854640007 0.14171770215034485
			vertex -0.10000000149011612 -0.08127652108669281 0.1514475792646408
		endloop
	endfacet
	facet normal -1 0 0
		outer loop
			vertex -0.10000000149011612 -0.1023595854640007 0.14171770215034485
			vertex -0.10000000149011612 -0.1023595854640007 0.15135416388511658
			vertex -0.10000000149011612 -0.08050207793712616 0.15406082570552826
		endloop
	endfacet
	facet normal -1 0 0
		outer loop
			vertex -0.10000000149011612 -0.1023595854640007 0.14171770215034485
			vertex -0.10000000149011612 -0.08050207793712616 0.15406082570552826
			vertex -0.10000000149011612 -0.08127652108669281 0.1514475792646408
		endloop
	endfacet
	facet normal 0 1 0
		outer loop
			vertex -0.10000000149011612 0.1023595854640007 0.17998358607292175
			vertex -0.10000000149011612 0.1023595854640007 0.18340374529361725
			vertex -0.08501892536878586 0.1023595854640007 0.20923174917697906
		endloop
	endfacet
	facet normal 0 1 0
		outer loop
			vertex -0.10000000149011612 0.1023595854640007 0.17998358607292175
			vertex -0.08501892536878586 0.1023595854640007 0.20923174917697906
			vertex -0.08258557319641113 0.1023595854640007 0.2117813229560852
		endloop
	endfacet
	facet normal 0 1 0
		outer loop
			vertex 0.033885013312101364 0.1023595854640007 0.23619616031646729
			vertex 0.035935912281274796 0.1023595854640007 0.23619616031646729
			vertex 0.03788634017109871 0.1023595854640007 0.23529411852359772
		endloop
	endfacet
	facet normal 0 1 0
		outer loop
			vertex 0.03788634017109871 0.1023595854640007 0.23529411852359772
			vertex 0.047354478389024734 0.1023595854640007 0.22529558837413788
			vertex 0.04588007554411888 0.1023595854640007 0.22325395047664642
		endloop
	endfacet
	facet normal 0 1 0
		outer loop
			vertex -0.10000000149011612 0.1023595854640007 0.177159383893013
			vertex -0.10000000149011612 0.1023595854640007 0.17998358607292175
			vertex -0.07554203271865845 0.1023595854640007 0.22464241087436676
		endloop
	endfacet
	facet normal 0 1 0
		outer loop
			vertex -0.10000000149011612 0.1023595854640007 0.177159383893013
			vertex -0.07554203271865845 0.1023595854640007 0.22464241087436676
			vertex -0.019070075824856758 0.1023595854640007 0.19796548783779144
		endloop
	endfacet
	facet normal 0 1 0
		outer loop
			vertex -0.06292960047721863 0.1023595854640007 0.23619616031646729
			vertex 0.033885013312101364 0.1023595854640007 0.23619616031646729
			vertex 0.03788634017109871 0.1023595854640007 0.23529411852359772
		endloop
	endfacet
	facet normal 0 1 0
		outer loop
			vertex -0.06292960047721863 0.1023595854640007 0.23619616031646729
			vertex 0.03788634017109871 0.1023595854640007 0.23529411852359772
			vertex 0.04588007554411888 0.1023595854640007 0.22325395047664642
		endloop
	endfacet
	facet normal 0 1 0
		outer loop
			vertex -0.06292960047721863 0.1023595854640007 0.23619616031646729
			vertex 0.04588007554411888 0.1023595854640007 0.22325395047664642
			vertex 0.03826182708144188 0.1023595854640007 0.2127048224210739
		endloop
	endfacet
	facet normal 0 1 0
		outer loop
			vertex -0.06292960047721863 0.1023595854640007 0.23619616031646729
			vertex 0.03826182708144188 0.1023595854640007 0.2127048224210739
			vertex -0.019070075824856758 0.1023595854640007 0.19796548783779144
		endloop
	endfacet
	facet normal 0 1 0
		outer loop
			vertex -0.06292960047721863 0.1023595854640007 0.23619616031646729
			vertex -0.019070075824856758 0.1023595854640007 0.19796548783779144
			vertex -0.07554203271865845 0.1023595854640007 0.22464241087436676
		endloop
	endfacet
	facet normal 0 1 0
		outer loop
			vertex -0.06292960047721863 0.1023595854640007 0.23619616031646729
			vertex -0.07554203271865845 0.1023595854640007 0.22464241087436676
			vertex -0.07159916311502457 0.1023595854640007 0.23184186220169067
		endloop
	endfacet
	facet normal 0 1 0
		outer loop
			vertex 0.05516279116272926 0.1023595854640007 0.21704986691474915
			vertex 0.03826182708144188 0.1023595854640007 0.2127048224210739
			vertex 0.047354478389024734 0.1023595854640007 0.22529558837413788
		endloop
	endfacet
	facet normal 0 1 0
		outer loop
			vertex -0.10000000149011612 0.1023595854640007 0.14171770215034485
			vertex -0.10000000149011612 0.1023595854640007 0.177159383893013
			vertex -0.08117182552814484 0.1023595854640007 0.18199987709522247
		endloop
	endfacet
	facet normal 0 1 0
		outer loop
			vertex -0.10000000149011612 0.1023595854640007 0.14171770215034485
			vertex -0.08117182552814484 0.1023595854640007 0.18199987709522247
			vertex -0.09315789490938187 0.1023595854640007 0.14171770215034485
		endloop
	endfacet
	facet normal 0 1 0
		outer loop
			vertex -0.08117182552814484 0.1023595854640007 0.18199987709522247
			vertex -0.019070075824856758 0.1023595854640007 0.19796548783779144
			vertex -0.0023100341204553843 0.1023595854640007 0.19004817306995392
		endloop
	endfacet
	facet normal 0 1 0
		outer loop
			vertex -0.08117182552814484 0.1023595854640007 0.18199987709522247
			vertex -0.0023100341204553843 0.1023595854640007 0.19004817306995392
			vertex 0.0022618607617914677 0.1023595854640007 0.16285502910614014
		endloop
	endfacet
	facet normal 0 1 0
		outer loop
			vertex -0.08117182552814484 0.1023595854640007 0.18199987709522247
			vertex 0.0022618607617914677 0.1023595854640007 0.16285502910614014
			vertex -0.013002862222492695 0.1023595854640007 0.14171770215034485
		endloop
	endfacet
	facet normal 0 1 0
		outer loop
			vertex -0.08117182552814484 0.1023595854640007 0.18199987709522247
			vertex -0.013002862222492695 0.1023595854640007 0.14171770215034485
			vertex -0.09315789490938187 0.1023595854640007 0.14171770215034485
		endloop
	endfacet
	facet normal 0 1 0
		outer loop
			vertex -0.0023100341204553843 0.1023595854640007 0.19004817306995392
			vertex -0.019070075824856758 0.1023595854640007 0.19796548783779144
			vertex -0.004280406050384045 0.1023595854640007 0.20176774263381958
		endloop
	endfacet
	facet normal 0 1 0
		outer loop
			vertex -0.0023100341204553843 0.1023595854640007 0.19004817306995392
			vertex 0.015741627663373947 0.1023595854640007 0.18152070045471191
			vertex 0.0022618607617914677 0.1023595854640007 0.16285502910614014
		endloop
	endfacet
	facet normal 0 1 0
		outer loop
			vertex 0.015741627663373947 0.1023595854640007 0.18152070045471191
			vertex -0.0023100341204553843 0.1023595854640007 0.19004817306995392
			vertex -0.004280406050384045 0.1023595854640007 0.20176774263381958
		endloop
	endfacet
	facet normal 0 1 0
		outer loop
			vertex 0.015741627663373947 0.1023595854640007 0.18152070045471191
			vertex -0.004280406050384045 0.1023595854640007 0.20176774263381958
			vertex 0.03826182708144188 0.1023595854640007 0.2127048224210739
		endloop
	endfacet
	facet normal 0 1 0
		outer loop
			vertex 0.03632666915655136 0.1023595854640007 0.21002517640590668
			vertex 0.03826182708144188 0.1023595854640007 0.2127048224210739
			vertex 0.044715460389852524 0.1023595854640007 0.21436399221420288
		endloop
	endfacet
	facet normal 0 1 0
		outer loop
			vertex 0.03632666915655136 0.1023595854640007 0.21002517640590668
			vertex 0.044715460389852524 0.1023595854640007 0.21436399221420288
			vertex 0.041251134127378464 0.1023595854640007 0.20963989198207855
		endloop
	endfacet
	facet normal 0 1 0
		outer loop
			vertex 0.02320985496044159 0.1023595854640007 0.191862091422081
			vertex 0.03632666915655136 0.1023595854640007 0.21002517640590668
			vertex 0.041251134127378464 0.1023595854640007 0.20963989198207855
		endloop
	endfacet
	facet normal 0 1 0
		outer loop
			vertex 0.02320985496044159 0.1023595854640007 0.191862091422081
			vertex 0.041251134127378464 0.1023595854640007 0.20963989198207855
			vertex 0.025330623611807823 0.1023595854640007 0.18793010711669922
		endloop
	endfacet
	facet normal 0 1 0
		outer loop
			vertex 0.015741627663373947 0.1023595854640007 0.18152070045471191
			vertex 0.019372565671801567 0.1023595854640007 0.1798054724931717
			vertex -0.006207925733178854 0.1023595854640007 0.14492298662662506
		endloop
	endfacet
	facet normal 0 1 0
		outer loop
			vertex 0.015741627663373947 0.1023595854640007 0.18152070045471191
			vertex -0.006207925733178854 0.1023595854640007 0.14492298662662506
			vertex -0.008795192465186119 0.1023595854640007 0.14754413068294525
		endloop
	endfacet
	facet normal 0 1 0
		outer loop
			vertex 0.019372565671801567 0.1023595854640007 0.1798054724931717
			vertex 0.015741627663373947 0.1023595854640007 0.18152070045471191
			vertex 0.02320985496044159 0.1023595854640007 0.191862091422081
		endloop
	endfacet
	facet normal 0 1 0
		outer loop
			vertex 0.019372565671801567 0.1023595854640007 0.1798054724931717
			vertex 0.02320985496044159 0.1023595854640007 0.191862091422081
			vertex 0.025330623611807823 0.1023595854640007 0.18793010711669922
		endloop
	endfacet
	facet normal 0 1 0
		outer loop
			vertex -0.006207925733178854 0.1023595854640007 0.14492298662662506
			vertex -0.008558472618460655 0.1023595854640007 0.14171770215034485
			vertex -0.013002862222492695 0.1023595854640007 0.14171770215034485
		endloop
	endfacet
	facet normal 0 1 0
		outer loop
			vertex -0.006207925733178854 0.1023595854640007 0.14492298662662506
			vertex -0.013002862222492695 0.1023595854640007 0.14171770215034485
			vertex -0.008795192465186119 0.1023595854640007 0.14754413068294525
		endloop
	endfacet
	facet normal 0 1 0
		outer loop
			vertex 0.050751980394124985 0.1023595854640007 0.21591588854789734
			vertex 0.05516279116272926 0.1023595854640007 0.21704986691474915
			vertex 0.06385431438684464 0.1023595854640007 0.2078714370727539
		endloop
	endfacet
	facet normal 0 1 0
		outer loop
			vertex 0.050751980394124985 0.1023595854640007 0.21591588854789734
			vertex 0.06385431438684464 0.1023595854640007 0.2078714370727539
			vertex 0.05566761642694473 0.1023595854640007 0.20851196348667145
		endloop
	endfacet
	facet normal 0 1 0
		outer loop
			vertex 0.041251134127378464 0.1023595854640007 0.20963989198207855
			vertex 0.044715460389852524 0.1023595854640007 0.21436399221420288
			vertex 0.050751980394124985 0.1023595854640007 0.21591588854789734
		endloop
	endfacet
	facet normal 0 1 0
		outer loop
			vertex 0.041251134127378464 0.1023595854640007 0.20963989198207855
			vertex 0.050751980394124985 0.1023595854640007 0.21591588854789734
			vertex 0.05566761642694473 0.1023595854640007 0.20851196348667145
		endloop
	endfacet
	facet normal 0 1 0
		outer loop
			vertex 0.05566761642694473 0.1023595854640007 0.20851196348667145
			vertex 0.06385431438684464 0.1023595854640007 0.2078714370727539
			vertex 0.07691416889429092 0.1023595854640007 0.19408001005649567
		endloop
	endfacet
	facet normal 0 1 0
		outer loop
			vertex 0.05566761642694473 0.1023595854640007 0.20851196348667145
			vertex 0.07691416889429092 0.1023595854640007 0.19408001005649567
			vertex 0.0844910740852356 0.1023595854640007 0.17412316799163818
		endloop
	endfacet
	facet normal 0 1 0
		outer loop
			vertex 0.05566761642694473 0.1023595854640007 0.20851196348667145
			vertex 0.0844910740852356 0.1023595854640007 0.17412316799163818
			vertex 0.08833430707454681 0.1023595854640007 0.15930941700935364
		endloop
	endfacet
	facet normal 0 1 0
		outer loop
			vertex 0.038324687629938126 0.1023595854640007 0.20564928650856018
			vertex 0.041251134127378464 0.1023595854640007 0.20963989198207855
			vertex 0.05566761642694473 0.1023595854640007 0.20851196348667145
		endloop
	endfacet
	facet normal 0 1 0
		outer loop
			vertex 0.038324687629938126 0.1023595854640007 0.20564928650856018
			vertex 0.05566761642694473 0.1023595854640007 0.20851196348667145
			vertex 0.08833430707454681 0.1023595854640007 0.15930941700935364
		endloop
	endfacet
	facet normal 0 1 0
		outer loop
			vertex 0.038324687629938126 0.1023595854640007 0.20564928650856018
			vertex 0.08833430707454681 0.1023595854640007 0.15930941700935364
			vertex 0.0894642323255539 0.1023595854640007 0.15495416522026062
		endloop
	endfacet
	facet normal 0 1 0
		outer loop
			vertex 0.05553275719285011 0.1023595854640007 0.16272367537021637
			vertex 0.09190633147954941 0.1023595854640007 0.14554108679294586
			vertex 0.09232696890830994 0.1023595854640007 0.14391972124576569
		endloop
	endfacet
	facet normal 0 1 0
		outer loop
			vertex 0.05553275719285011 0.1023595854640007 0.16272367537021637
			vertex 0.09232696890830994 0.1023595854640007 0.14391972124576569
			vertex 0.09130401164293289 0.1023595854640007 0.14171770215034485
		endloop
	endfacet
	facet normal 0 1 0
		outer loop
			vertex 0.05553275719285011 0.1023595854640007 0.16272367537021637
			vertex 0.09130401164293289 0.1023595854640007 0.14171770215034485
			vertex 0.06743879616260529 0.1023595854640007 0.14171770215034485
		endloop
	endfacet
	facet normal 0 1 0
		outer loop
			vertex 0.09190633147954941 0.1023595854640007 0.14554108679294586
			vertex 0.05553275719285011 0.1023595854640007 0.16272367537021637
			vertex 0.034307628870010376 0.1023595854640007 0.20017147064208984
		endloop
	endfacet
	facet normal 0 1 0
		outer loop
			vertex 0.09190633147954941 0.1023595854640007 0.14554108679294586
			vertex 0.034307628870010376 0.1023595854640007 0.20017147064208984
			vertex 0.038324687629938126 0.1023595854640007 0.20564928650856018
		endloop
	endfacet
	facet normal 0 1 0
		outer loop
			vertex 0.09190633147954941 0.1023595854640007 0.14554108679294586
			vertex 0.038324687629938126 0.1023595854640007 0.20564928650856018
			vertex 0.0894642323255539 0.1023595854640007 0.15495416522026062
		endloop
	endfacet
	facet normal 0 1 0
		outer loop
			vertex 0.019372565671801567 0.1023595854640007 0.1798054724931717
			vertex 0.05553275719285011 0.1023595854640007 0.16272367537021637
			vertex 0.06743879616260529 0.1023595854640007 0.14171770215034485
		endloop
	endfacet
	facet normal 0 1 0
		outer loop
			vertex 0.019372565671801567 0.1023595854640007 0.1798054724931717
			vertex 0.06743879616260529 0.1023595854640007 0.14171770215034485
			vertex 0.03625711426138878 0.1023595854640007 0.14171770215034485
		endloop
	endfacet
	facet normal 0 1 0
		outer loop
			vertex 0.019372565671801567 0.1023595854640007 0.1798054724931717
			vertex 0.03625711426138878 0.1023595854640007 0.14171770215034485
			vertex 0.008344088681042194 0.1023595854640007 0.16476665437221527
		endloop
	endfacet
	facet normal 0 1 0
		outer loop
			vertex 0.05553275719285011 0.1023595854640007 0.16272367537021637
			vertex 0.019372565671801567 0.1023595854640007 0.1798054724931717
			vertex 0.034307628870010376 0.1023595854640007 0.20017147064208984
		endloop
	endfacet
	facet normal 0 1 0
		outer loop
			vertex 0.03625711426138878 0.1023595854640007 0.14171770215034485
			vertex 0.033919692039489746 0.1023595854640007 0.14171770215034485
			vertex 0.006902687251567841 0.1023595854640007 0.1628011018037796
		endloop
	endfacet
	facet normal 0 1 0
		outer loop
			vertex 0.03625711426138878 0.1023595854640007 0.14171770215034485
			vertex 0.006902687251567841 0.1023595854640007 0.1628011018037796
			vertex 0.008344088681042194 0.1023595854640007 0.16476665437221527
		endloop
	endfacet
	facet normal 0 1 0
		outer loop
			vertex 0.033919692039489746 0.1023595854640007 0.14171770215034485
			vertex -0.008558472618460655 0.1023595854640007 0.14171770215034485
			vertex 0.006902687251567841 0.1023595854640007 0.1628011018037796
		endloop
	endfacet
	facet normal 0 -1 0
		outer loop
			vertex -0.10000000149011612 -0.1023595854640007 0.23619616031646729
			vertex -0.10000000149011612 -0.1023595854640007 0.15135416388511658
			vertex -0.0705346092581749 -0.1023595854640007 0.23619616031646729
		endloop
	endfacet
	facet normal 0 -1 0
		outer loop
			vertex 0.057023148983716965 -0.1023595854640007 0.22647714614868164
			vertex 0.059827279299497604 -0.1023595854640007 0.23036007583141327
			vertex 0.04826333001255989 -0.1023595854640007 0.23619616031646729
		endloop
	endfacet
	facet normal 0 -1 0
		outer loop
			vertex 0.057023148983716965 -0.1023595854640007 0.22647714614868164
			vertex 0.04826333001255989 -0.1023595854640007 0.23619616031646729
			vertex -0.0705346092581749 -0.1023595854640007 0.23619616031646729
		endloop
	endfacet
	facet normal 0 -1 0
		outer loop
			vertex 0.057023148983716965 -0.1023595854640007 0.22647714614868164
			vertex -0.0705346092581749 -0.1023595854640007 0.23619616031646729
			vertex -0.09970717132091522 -0.1023595854640007 0.15219733119010925
		endloop
	endfacet
	facet normal 0 -1 0
		outer loop
			vertex -0.10000000149011612 -0.1023595854640007 0.15135416388511658
			vertex -0.10000000149011612 -0.1023595854640007 0.14171770215034485
			vertex 0.04542321339249611 -0.1023595854640007 0.21041451394557953
		endloop
	endfacet
	facet normal 0 -1 0
		outer loop
			vertex -0.10000000149011612 -0.1023595854640007 0.15135416388511658
			vertex 0.04542321339249611 -0.1023595854640007 0.21041451394557953
			vertex 0.057023148983716965 -0.1023595854640007 0.22647714614868164
		endloop
	endfacet
	facet normal 0 -1 0
		outer loop
			vertex -0.10000000149011612 -0.1023595854640007 0.15135416388511658
			vertex 0.057023148983716965 -0.1023595854640007 0.22647714614868164
			vertex -0.09970717132091522 -0.1023595854640007 0.15219733119010925
		endloop
	endfacet
	facet normal 0 -1 0
		outer loop
			vertex -0.10000000149011612 -0.1023595854640007 0.14171770215034485
			vertex -0.004187475889921188 -0.1023595854640007 0.14171770215034485
			vertex 0.04542321339249611 -0.1023595854640007 0.21041451394557953
		endloop
	endfacet
	facet normal 0 -1 0
		outer loop
			vertex 0.059827279299497604 -0.1023595854640007 0.23036007583141327
			vertex 0.06404192000627518 -0.1023595854640007 0.23619616031646729
			vertex 0.04826333001255989 -0.1023595854640007 0.23619616031646729
		endloop
	endfacet
	facet normal 0 -1 0
		outer loop
			vertex 0.04542321339249611 -0.1023595854640007 0.21041451394557953
			vertex 0.0712316632270813 -0.1023595854640007 0.22260622680187225
			vertex 0.08119761943817139 -0.1023595854640007 0.23619616031646729
		endloop
	endfacet
	facet normal 0 -1 0
		outer loop
			vertex 0.04542321339249611 -0.1023595854640007 0.21041451394557953
			vertex 0.08119761943817139 -0.1023595854640007 0.23619616031646729
			vertex 0.06404192000627518 -0.1023595854640007 0.23619616031646729
		endloop
	endfacet
	facet normal 0 -1 0
		outer loop
			vertex -0.004187475889921188 -0.1023595854640007 0.14171770215034485
			vertex 0.011913415044546127 -0.1023595854640007 0.14171770215034485
			vertex 0.0712316632270813 -0.1023595854640007 0.22260622680187225
		endloop
	endfacet
	facet normal 0 -1 0
		outer loop
			vertex -0.004187475889921188 -0.1023595854640007 0.14171770215034485
			vertex 0.0712316632270813 -0.1023595854640007 0.22260622680187225
			vertex 0.04542321339249611 -0.1023595854640007 0.21041451394557953
		endloop
	endfacet
	facet normal 0 -1 0
		outer loop
			vertex 0.0712316632270813 -0.1023595854640007 0.22260622680187225
			vertex 0.09601712971925735 -0.1023595854640007 0.2343146950006485
			vertex 0.09351178258657455 -0.1023595854640007 0.23619616031646729
		endloop
	endfacet
	facet normal 0 -1 0
		outer loop
			vertex 0.0712316632270813 -0.1023595854640007 0.22260622680187225
			vertex 0.09351178258657455 -0.1023595854640007 0.23619616031646729
			vertex 0.08119761943817139 -0.1023595854640007 0.23619616031646729
		endloop
	endfacet
	facet normal 0 -1 0
		outer loop
			vertex 0.10000000149011612 -0.1023595854640007 0.155410036444664
			vertex 0.10000000149011612 -0.1023595854640007 0.23132359981536865
			vertex 0.09601712971925735 -0.1023595854640007 0.2343146950006485
		endloop
	endfacet
	facet normal 0 -1 0
		outer loop
			vertex 0.10000000149011612 -0.1023595854640007 0.155410036444664
			vertex 0.09601712971925735 -0.1023595854640007 0.2343146950006485
			vertex 0.0712316632270813 -0.1023595854640007 0.22260622680187225
		endloop
	endfacet
	facet normal 0 -1 0
		outer loop
			vertex 0.10000000149011612 -0.1023595854640007 0.155410036444664
			vertex 0.0712316632270813 -0.1023595854640007 0.22260622680187225
			vertex 0.05645246431231499 -0.1023595854640007 0.20245276391506195
		endloop
	endfacet
	facet normal 0 -1 0
		outer loop
			vertex 0.09601712971925735 -0.1023595854640007 0.2343146950006485
			vertex 0.10000000149011612 -0.1023595854640007 0.23619616031646729
			vertex 0.09351178258657455 -0.1023595854640007 0.23619616031646729
		endloop
	endfacet
	facet normal 0 -1 0
		outer loop
			vertex 0.10000000149011612 -0.1023595854640007 0.23132359981536865
			vertex 0.10000000149011612 -0.1023595854640007 0.23619616031646729
			vertex 0.09601712971925735 -0.1023595854640007 0.2343146950006485
		endloop
	endfacet
	facet normal 0 -1 0
		outer loop
			vertex 0.011913415044546127 -0.1023595854640007 0.14171770215034485
			vertex 0.10000000149011612 -0.1023595854640007 0.14171770215034485
			vertex 0.10000000149011612 -0.1023595854640007 0.155410036444664
		endloop
	endfacet
	facet normal 0 -1 0
		outer loop
			vertex 0.011913415044546127 -0.1023595854640007 0.14171770215034485
			vertex 0.10000000149011612 -0.1023595854640007 0.155410036444664
			vertex 0.05645246431231499 -0.1023595854640007 0.20245276391506195
		endloop
	endfacet
	facet normal 0 0 1
		outer loop
			vertex -0.07799068838357925 0.08145996928215027 0.23619616031646729
			vertex -0.07744953036308289 0.08151444047689438 0.23619616031646729
			vertex -0.0770605057477951 0.0824991837143898 0.23619616031646729
		endloop
	endfacet
	facet normal 0 0 1
		outer loop
			vertex 0.035935912281274796 0.1023595854640007 0.23619616031646729
			vertex 0.033885013312101364 0.1023595854640007 0.23619616031646729
			vertex 0.035890307277441025 0.10217725485563278 0.23619616031646729
		endloop
	endfacet
	facet normal 0 0 1
		outer loop
			vertex 0.04152439162135124 0.09349028021097183 0.23619616031646729
			vertex 0.04346531629562378 0.09368564188480377 0.23619616031646729
			vertex 0.043270476162433624 0.09395920485258102 0.23619616031646729
		endloop
	endfacet
	facet normal 0 0 1
		outer loop
			vertex 0.04152439162135124 0.09349028021097183 0.23619616031646729
			vertex 0.043270476162433624 0.09395920485258102 0.23619616031646729
			vertex 0.03786511346697807 0.10036445409059525 0.23619616031646729
		endloop
	endfacet
	facet normal 0 0 1
		outer loop
			vertex -0.07744953036308289 0.08151444047689438 0.23619616031646729
			vertex 0.04152439162135124 0.09349028021097183 0.23619616031646729
			vertex 0.03695148602128029 0.10208076983690262 0.23619616031646729
		endloop
	endfacet
	facet normal 0 0 1
		outer loop
			vertex -0.07744953036308289 0.08151444047689438 0.23619616031646729
			vertex 0.03695148602128029 0.10208076983690262 0.23619616031646729
			vertex 0.033885013312101364 0.1023595854640007 0.23619616031646729
		endloop
	endfacet
	facet normal 0 0 1
		outer loop
			vertex -0.07744953036308289 0.08151444047689438 0.23619616031646729
			vertex 0.033885013312101364 0.1023595854640007 0.23619616031646729
			vertex -0.06292960047721863 0.1023595854640007 0.23619616031646729
		endloop
	endfacet
	facet normal 0 0 1
		outer loop
			vertex -0.07744953036308289 0.08151444047689438 0.23619616031646729
			vertex -0.06292960047721863 0.1023595854640007 0.23619616031646729
			vertex -0.07456302642822266 0.08882096409797668 0.23619616031646729
		endloop
	endfacet
	facet normal 0 0 1
		outer loop
			vertex -0.10000000149011612 0.044464360922575 0.23619616031646729
			vertex -0.10000000149011612 0.02443317510187626 0.23619616031646729
			vertex -0.0889180526137352 0.052484553307294846 0.23619616031646729
		endloop
	endfacet
	facet normal 0 0 1
		outer loop
			vertex -0.10000000149011612 0.044464360922575 0.23619616031646729
			vertex -0.0889180526137352 0.052484553307294846 0.23619616031646729
			vertex -0.09129883348941803 0.059526775032281876 0.23619616031646729
		endloop
	endfacet
	facet normal 0 0 1
		outer loop
			vertex -0.10000000149011612 0.044464360922575 0.23619616031646729
			vertex -0.09129883348941803 0.059526775032281876 0.23619616031646729
			vertex -0.09723790735006332 0.05095437169075012 0.23619616031646729
		endloop
	endfacet
	facet normal 0 0 1
		outer loop
			vertex -0.09129883348941803 0.059526775032281876 0.23619616031646729
			vertex -0.09070055186748505 0.05775708332657814 0.23619616031646729
			vertex -0.08663986623287201 0.0662514939904213 0.23619616031646729
		endloop
	endfacet
	facet normal 0 0 1
		outer loop
			vertex -0.0889180526137352 0.052484553307294846 0.23619616031646729
			vertex -0.07744953036308289 0.08151444047689438 0.23619616031646729
			vertex -0.07799068838357925 0.08145996928215027 0.23619616031646729
		endloop
	endfacet
	facet normal 0 0 1
		outer loop
			vertex -0.0889180526137352 0.052484553307294846 0.23619616031646729
			vertex -0.07799068838357925 0.08145996928215027 0.23619616031646729
			vertex -0.08095011860132217 0.07815366983413696 0.23619616031646729
		endloop
	endfacet
	facet normal 0 0 1
		outer loop
			vertex -0.0889180526137352 0.052484553307294846 0.23619616031646729
			vertex -0.08095011860132217 0.07815366983413696 0.23619616031646729
			vertex -0.09070055186748505 0.05775708332657814 0.23619616031646729
		endloop
	endfacet
	facet normal 0 0 1
		outer loop
			vertex -0.10000000149011612 0.02443317510187626 0.23619616031646729
			vertex -0.10000000149011612 -0.05616089701652527 0.23619616031646729
			vertex -0.07004103809595108 -0.003352674888446927 0.23619616031646729
		endloop
	endfacet
	facet normal 0 0 1
		outer loop
			vertex -0.10000000149011612 0.02443317510187626 0.23619616031646729
			vertex -0.07004103809595108 -0.003352674888446927 0.23619616031646729
			vertex -0.0889180526137352 0.052484553307294846 0.23619616031646729
		endloop
	endfacet
	facet normal 0 0 1
		outer loop
			vertex -0.06868541985750198 0.08239663392305374 0.23619616031646729
			vertex -0.07744953036308289 0.08151444047689438 0.23619616031646729
			vertex -0.0889180526137352 0.052484553307294846 0.23619616031646729
		endloop
	endfacet
	facet normal 0 0 1
		outer loop
			vertex -0.06868541985750198 0.08239663392305374 0.23619616031646729
			vertex -0.0889180526137352 0.052484553307294846 0.23619616031646729
			vertex -0.07931723445653915 0.02408583275973797 0.23619616031646729
		endloop
	endfacet
	facet normal 0 0 1
		outer loop
			vertex -0.07004103809595108 -0.003352674888446927 0.23619616031646729
			vertex -0.01852989010512829 0.08744525164365768 0.23619616031646729
			vertex -0.06868541985750198 0.08239663392305374 0.23619616031646729
		endloop
	endfacet
	facet normal 0 0 1
		outer loop
			vertex -0.07004103809595108 -0.003352674888446927 0.23619616031646729
			vertex -0.06868541985750198 0.08239663392305374 0.23619616031646729
			vertex -0.07931723445653915 0.02408583275973797 0.23619616031646729
		endloop
	endfacet
	facet normal 0 0 1
		outer loop
			vertex -0.07288599759340286 -0.04768433794379234 0.23619616031646729
			vertex -0.07445773482322693 -0.011137920431792736 0.23619616031646729
			vertex -0.09425511956214905 -0.04603448137640953 0.23619616031646729
		endloop
	endfacet
	facet normal 0 0 1
		outer loop
			vertex -0.10000000149011612 -0.05616089701652527 0.23619616031646729
			vertex -0.10000000149011612 -0.1023595854640007 0.23619616031646729
			vertex -0.07177702337503433 -0.07347065955400467 0.23619616031646729
		endloop
	endfacet
	facet normal 0 0 1
		outer loop
			vertex -0.10000000149011612 -0.05616089701652527 0.23619616031646729
			vertex -0.07177702337503433 -0.07347065955400467 0.23619616031646729
			vertex -0.07288599759340286 -0.04768433794379234 0.23619616031646729
		endloop
	endfacet
	facet normal 0 0 1
		outer loop
			vertex -0.10000000149011612 -0.05616089701652527 0.23619616031646729
			vertex -0.07288599759340286 -0.04768433794379234 0.23619616031646729
			vertex -0.09425511956214905 -0.04603448137640953 0.23619616031646729
		endloop
	endfacet
	facet normal 0 0 1
		outer loop
			vertex -0.10000000149011612 -0.1023595854640007 0.23619616031646729
			vertex -0.0705346092581749 -0.1023595854640007 0.23619616031646729
			vertex -0.07177702337503433 -0.07347065955400467 0.23619616031646729
		endloop
	endfacet
	facet normal 0 0 1
		outer loop
			vertex -0.07177702337503433 -0.07347065955400467 0.23619616031646729
			vertex -0.06289661675691605 -0.0643807128071785 0.23619616031646729
			vertex -0.07227705419063568 -0.06184374913573265 0.23619616031646729
		endloop
	endfacet
	facet normal 0 0 1
		outer loop
			vertex -0.0705346092581749 -0.1023595854640007 0.23619616031646729
			vertex 0.04826333001255989 -0.1023595854640007 0.23619616031646729
			vertex 0.04419459030032158 -0.09334385395050049 0.23619616031646729
		endloop
	endfacet
	facet normal 0 0 1
		outer loop
			vertex -0.0705346092581749 -0.1023595854640007 0.23619616031646729
			vertex 0.04419459030032158 -0.09334385395050049 0.23619616031646729
			vertex -0.06289661675691605 -0.0643807128071785 0.23619616031646729
		endloop
	endfacet
	facet normal 0 0 1
		outer loop
			vertex -0.0705346092581749 -0.1023595854640007 0.23619616031646729
			vertex -0.06289661675691605 -0.0643807128071785 0.23619616031646729
			vertex -0.07177702337503433 -0.07347065955400467 0.23619616031646729
		endloop
	endfacet
	facet normal 0 0 1
		outer loop
			vertex -0.06289661675691605 -0.0643807128071785 0.23619616031646729
			vertex -0.02637181617319584 -0.02699408121407032 0.23619616031646729
			vertex -0.06645072251558304 0.002975917188450694 0.23619616031646729
		endloop
	endfacet
	facet normal 0 0 1
		outer loop
			vertex -0.06289661675691605 -0.0643807128071785 0.23619616031646729
			vertex -0.06645072251558304 0.002975917188450694 0.23619616031646729
			vertex -0.07445773482322693 -0.011137920431792736 0.23619616031646729
		endloop
	endfacet
	facet normal 0 0 1
		outer loop
			vertex -0.06289661675691605 -0.0643807128071785 0.23619616031646729
			vertex -0.07445773482322693 -0.011137920431792736 0.23619616031646729
			vertex -0.07227705419063568 -0.06184374913573265 0.23619616031646729
		endloop
	endfacet
	facet normal 0 0 1
		outer loop
			vertex 0.04419459030032158 -0.09334385395050049 0.23619616031646729
			vertex 0.03494305908679962 -0.07284380495548248 0.23619616031646729
			vertex -0.02637181617319584 -0.02699408121407032 0.23619616031646729
		endloop
	endfacet
	facet normal 0 0 1
		outer loop
			vertex 0.04419459030032158 -0.09334385395050049 0.23619616031646729
			vertex -0.02637181617319584 -0.02699408121407032 0.23619616031646729
			vertex -0.06289661675691605 -0.0643807128071785 0.23619616031646729
		endloop
	endfacet
	facet normal 0 0 1
		outer loop
			vertex 0.04826333001255989 -0.1023595854640007 0.23619616031646729
			vertex 0.06404192000627518 -0.1023595854640007 0.23619616031646729
			vertex 0.06369680911302567 -0.09434513747692108 0.23619616031646729
		endloop
	endfacet
	facet normal 0 0 1
		outer loop
			vertex 0.04826333001255989 -0.1023595854640007 0.23619616031646729
			vertex 0.06369680911302567 -0.09434513747692108 0.23619616031646729
			vertex 0.03494305908679962 -0.07284380495548248 0.23619616031646729
		endloop
	endfacet
	facet normal 0 0 1
		outer loop
			vertex 0.06369680911302567 -0.09434513747692108 0.23619616031646729
			vertex 0.059079382568597794 0.012885106727480888 0.23619616031646729
			vertex 0.018100393936038017 -0.06024928018450737 0.23619616031646729
		endloop
	endfacet
	facet normal 0 0 1
		outer loop
			vertex 0.059079382568597794 0.012885106727480888 0.23619616031646729
			vertex 0.05723657086491585 0.055680692195892334 0.23619616031646729
			vertex -0.007270754314959049 -0.04127737507224083 0.23619616031646729
		endloop
	endfacet
	facet normal 0 0 1
		outer loop
			vertex 0.059079382568597794 0.012885106727480888 0.23619616031646729
			vertex -0.007270754314959049 -0.04127737507224083 0.23619616031646729
			vertex 0.018100393936038017 -0.06024928018450737 0.23619616031646729
		endloop
	endfacet
	facet normal 0 0 1
		outer loop
			vertex 0.05684802308678627 0.06470386683940887 0.23619616031646729
			vertex 0.05638090521097183 0.07555171102285385 0.23619616031646729
			vertex 0.04346531629562378 0.09368564188480377 0.23619616031646729
		endloop
	endfacet
	facet normal 0 0 1
		outer loop
			vertex 0.05684802308678627 0.06470386683940887 0.23619616031646729
			vertex 0.04346531629562378 0.09368564188480377 0.23619616031646729
			vertex 0.04152439162135124 0.09349028021097183 0.23619616031646729
		endloop
	endfacet
	facet normal 0 0 1
		outer loop
			vertex -0.02637181617319584 -0.02699408121407032 0.23619616031646729
			vertex 0.05711669847369194 0.058464415371418 0.23619616031646729
			vertex 0.05684802308678627 0.06470386683940887 0.23619616031646729
		endloop
	endfacet
	facet normal 0 0 1
		outer loop
			vertex -0.02637181617319584 -0.02699408121407032 0.23619616031646729
			vertex 0.05684802308678627 0.06470386683940887 0.23619616031646729
			vertex 0.04152439162135124 0.09349028021097183 0.23619616031646729
		endloop
	endfacet
	facet normal 0 0 1
		outer loop
			vertex -0.02637181617319584 -0.02699408121407032 0.23619616031646729
			vertex 0.04152439162135124 0.09349028021097183 0.23619616031646729
			vertex -0.01852989010512829 0.08744525164365768 0.23619616031646729
		endloop
	endfacet
	facet normal 0 0 1
		outer loop
			vertex -0.02637181617319584 -0.02699408121407032 0.23619616031646729
			vertex -0.01852989010512829 0.08744525164365768 0.23619616031646729
			vertex -0.06645072251558304 0.002975917188450694 0.23619616031646729
		endloop
	endfacet
	facet normal 0 0 1
		outer loop
			vertex 0.05723657086491585 0.055680692195892334 0.23619616031646729
			vertex 0.05711669847369194 0.058464415371418 0.23619616031646729
			vertex -0.02637181617319584 -0.02699408121407032 0.23619616031646729
		endloop
	endfacet
	facet normal 0 0 1
		outer loop
			vertex 0.05723657086491585 0.055680692195892334 0.23619616031646729
			vertex -0.02637181617319584 -0.02699408121407032 0.23619616031646729
			vertex -0.007270754314959049 -0.04127737507224083 0.23619616031646729
		endloop
	endfacet
	facet normal 0 0 1
		outer loop
			vertex 0.05924258753657341 0.06064046546816826 0.23619616031646729
			vertex 0.06372981518507004 0.06523358076810837 0.23619616031646729
			vertex 0.05638090521097183 0.07555171102285385 0.23619616031646729
		endloop
	endfacet
	facet normal 0 0 1
		outer loop
			vertex 0.05924258753657341 0.06064046546816826 0.23619616031646729
			vertex 0.05638090521097183 0.07555171102285385 0.23619616031646729
			vertex 0.057011786848306656 0.06090085208415985 0.23619616031646729
		endloop
	endfacet
	facet normal 0 0 1
		outer loop
			vertex 0.0649644285440445 0.05997259169816971 0.23619616031646729
			vertex 0.06455405056476593 0.06407632678747177 0.23619616031646729
			vertex 0.06372981518507004 0.06523358076810837 0.23619616031646729
		endloop
	endfacet
	facet normal 0 0 1
		outer loop
			vertex 0.0649644285440445 0.05997259169816971 0.23619616031646729
			vertex 0.06372981518507004 0.06523358076810837 0.23619616031646729
			vertex 0.05924258753657341 0.06064046546816826 0.23619616031646729
		endloop
	endfacet
	facet normal 0 0 1
		outer loop
			vertex 0.06830108910799026 0.026605838909745216 0.23619616031646729
			vertex 0.06737931817770004 0.03582359477877617 0.23619616031646729
			vertex 0.06560073047876358 0.02957037277519703 0.23619616031646729
		endloop
	endfacet
	facet normal 0 0 1
		outer loop
			vertex 0.05711669847369194 0.058464415371418 0.23619616031646729
			vertex 0.05924258753657341 0.06064046546816826 0.23619616031646729
			vertex 0.057011786848306656 0.06090085208415985 0.23619616031646729
		endloop
	endfacet
	facet normal 0 0 1
		outer loop
			vertex 0.06737931817770004 0.03582359477877617 0.23619616031646729
			vertex 0.0649644285440445 0.05997259169816971 0.23619616031646729
			vertex 0.05924258753657341 0.06064046546816826 0.23619616031646729
		endloop
	endfacet
	facet normal 0 0 1
		outer loop
			vertex 0.06737931817770004 0.03582359477877617 0.23619616031646729
			vertex 0.05924258753657341 0.06064046546816826 0.23619616031646729
			vertex 0.05711669847369194 0.058464415371418 0.23619616031646729
		endloop
	endfacet
	facet normal 0 0 1
		outer loop
			vertex 0.06737931817770004 0.03582359477877617 0.23619616031646729
			vertex 0.05711669847369194 0.058464415371418 0.23619616031646729
			vertex 0.058001670986413956 0.03791281580924988 0.23619616031646729
		endloop
	endfacet
	facet normal 0 0 1
		outer loop
			vertex 0.06737931817770004 0.03582359477877617 0.23619616031646729
			vertex 0.058001670986413956 0.03791281580924988 0.23619616031646729
			vertex 0.06560073047876358 0.02957037277519703 0.23619616031646729
		endloop
	endfacet
	facet normal 0 0 1
		outer loop
			vertex 0.07422786206007004 -0.03266189992427826 0.23619616031646729
			vertex 0.06830108910799026 0.026605838909745216 0.23619616031646729
			vertex 0.058001670986413956 0.03791281580924988 0.23619616031646729
		endloop
	endfacet
	facet normal 0 0 1
		outer loop
			vertex 0.07422786206007004 -0.03266189992427826 0.23619616031646729
			vertex 0.058001670986413956 0.03791281580924988 0.23619616031646729
			vertex 0.06057519465684891 -0.02185201086103916 0.23619616031646729
		endloop
	endfacet
	facet normal 0 0 1
		outer loop
			vertex 0.06404192000627518 -0.1023595854640007 0.23619616031646729
			vertex 0.08119761943817139 -0.1023595854640007 0.23619616031646729
			vertex 0.07422786206007004 -0.03266189992427826 0.23619616031646729
		endloop
	endfacet
	facet normal 0 0 1
		outer loop
			vertex 0.06404192000627518 -0.1023595854640007 0.23619616031646729
			vertex 0.07422786206007004 -0.03266189992427826 0.23619616031646729
			vertex 0.06057519465684891 -0.02185201086103916 0.23619616031646729
		endloop
	endfacet
	facet normal 0 0 1
		outer loop
			vertex 0.06455405056476593 0.06407632678747177 0.23619616031646729
			vertex 0.0649644285440445 0.05997259169816971 0.23619616031646729
			vertex 0.06770467758178711 0.05965273454785347 0.23619616031646729
		endloop
	endfacet
	facet normal 0 0 1
		outer loop
			vertex 0.06738179922103882 0.035832300782203674 0.23619616031646729
			vertex 0.06737931817770004 0.03582359477877617 0.23619616031646729
			vertex 0.06830108910799026 0.026605838909745216 0.23619616031646729
		endloop
	endfacet
	facet normal 0 0 1
		outer loop
			vertex 0.06738179922103882 0.035832300782203674 0.23619616031646729
			vertex 0.06830108910799026 0.026605838909745216 0.23619616031646729
			vertex 0.0727379322052002 0.021734964102506638 0.23619616031646729
		endloop
	endfacet
	facet normal 0 0 1
		outer loop
			vertex 0.07231563329696655 0.053178805857896805 0.23619616031646729
			vertex 0.06770467758178711 0.05965273454785347 0.23619616031646729
			vertex 0.0649644285440445 0.05997259169816971 0.23619616031646729
		endloop
	endfacet
	facet normal 0 0 1
		outer loop
			vertex 0.07231563329696655 0.053178805857896805 0.23619616031646729
			vertex 0.0649644285440445 0.05997259169816971 0.23619616031646729
			vertex 0.06737931817770004 0.03582359477877617 0.23619616031646729
		endloop
	endfacet
	facet normal 0 0 1
		outer loop
			vertex 0.08119761943817139 -0.1023595854640007 0.23619616031646729
			vertex 0.09351178258657455 -0.1023595854640007 0.23619616031646729
			vertex 0.10000000149011612 -0.07383759319782257 0.23619616031646729
		endloop
	endfacet
	facet normal 0 0 1
		outer loop
			vertex 0.08119761943817139 -0.1023595854640007 0.23619616031646729
			vertex 0.10000000149011612 -0.07383759319782257 0.23619616031646729
			vertex 0.10000000149011612 -0.04363081231713295 0.23619616031646729
		endloop
	endfacet
	facet normal 0 0 1
		outer loop
			vertex 0.08119761943817139 -0.1023595854640007 0.23619616031646729
			vertex 0.10000000149011612 -0.04363081231713295 0.23619616031646729
			vertex 0.08241087943315506 0.01111574936658144 0.23619616031646729
		endloop
	endfacet
	facet normal 0 0 1
		outer loop
			vertex 0.08119761943817139 -0.1023595854640007 0.23619616031646729
			vertex 0.08241087943315506 0.01111574936658144 0.23619616031646729
			vertex 0.06830108910799026 0.026605838909745216 0.23619616031646729
		endloop
	endfacet
	facet normal 0 0 1
		outer loop
			vertex 0.09351178258657455 -0.1023595854640007 0.23619616031646729
			vertex 0.10000000149011612 -0.1023595854640007 0.23619616031646729
			vertex 0.10000000149011612 -0.07383759319782257 0.23619616031646729
		endloop
	endfacet
	facet normal 0 0 -1
		outer loop
			vertex -0.09423401951789856 0.09645754843950272 0.14171770215034485
			vertex -0.10000000149011612 0.1023595854640007 0.14171770215034485
			vertex -0.09315789490938187 0.1023595854640007 0.14171770215034485
		endloop
	endfacet
	facet normal 0 0 -1
		outer loop
			vertex -0.10000000149011612 0.06483370810747147 0.14171770215034485
			vertex -0.10000000149011612 0.1023595854640007 0.14171770215034485
			vertex -0.09423401951789856 0.09645754843950272 0.14171770215034485
		endloop
	endfacet
	facet normal 0 0 -1
		outer loop
			vertex -0.033057864755392075 0.03383789211511612 0.14171770215034485
			vertex -0.09423401951789856 0.09645754843950272 0.14171770215034485
			vertex -0.09315789490938187 0.1023595854640007 0.14171770215034485
		endloop
	endfacet
	facet normal 0 0 -1
		outer loop
			vertex -0.033057864755392075 0.03383789211511612 0.14171770215034485
			vertex -0.09315789490938187 0.1023595854640007 0.14171770215034485
			vertex -0.013002862222492695 0.1023595854640007 0.14171770215034485
		endloop
	endfacet
	facet normal 0 0 -1
		outer loop
			vertex -0.033057864755392075 0.03383789211511612 0.14171770215034485
			vertex -0.013002862222492695 0.1023595854640007 0.14171770215034485
			vertex -0.011675256304442883 0.07152869552373886 0.14171770215034485
		endloop
	endfacet
	facet normal 0 0 -1
		outer loop
			vertex -0.10000000149011612 -0.08416002243757248 0.14171770215034485
			vertex -0.10000000149011612 0.06483370810747147 0.14171770215034485
			vertex -0.09423401951789856 0.09645754843950272 0.14171770215034485
		endloop
	endfacet
	facet normal 0 0 -1
		outer loop
			vertex -0.10000000149011612 -0.08416002243757248 0.14171770215034485
			vertex -0.09423401951789856 0.09645754843950272 0.14171770215034485
			vertex -0.033057864755392075 0.03383789211511612 0.14171770215034485
		endloop
	endfacet
	facet normal 0 0 -1
		outer loop
			vertex -0.004187475889921188 -0.1023595854640007 0.14171770215034485
			vertex -0.10000000149011612 -0.1023595854640007 0.14171770215034485
			vertex -0.10000000149011612 -0.08416002243757248 0.14171770215034485
		endloop
	endfacet
	facet normal 0 0 -1
		outer loop
			vertex -0.004187475889921188 -0.1023595854640007 0.14171770215034485
			vertex -0.10000000149011612 -0.08416002243757248 0.14171770215034485
			vertex -0.07103150337934494 -0.033097684383392334 0.14171770215034485
		endloop
	endfacet
	facet normal 0 0 -1
		outer loop
			vertex -0.004187475889921188 -0.1023595854640007 0.14171770215034485
			vertex -0.07103150337934494 -0.033097684383392334 0.14171770215034485
			vertex -0.005045205354690552 -0.082440584897995 0.14171770215034485
		endloop
	endfacet
	facet normal 0 0 -1
		outer loop
			vertex -0.008991486392915249 0.009203647263348103 0.14171770215034485
			vertex -0.033057864755392075 0.03383789211511612 0.14171770215034485
			vertex -0.011675256304442883 0.07152869552373886 0.14171770215034485
		endloop
	endfacet
	facet normal 0 0 -1
		outer loop
			vertex -0.07103150337934494 -0.033097684383392334 0.14171770215034485
			vertex -0.033057864755392075 0.03383789211511612 0.14171770215034485
			vertex -0.008991486392915249 0.009203647263348103 0.14171770215034485
		endloop
	endfacet
	facet normal 0 0 -1
		outer loop
			vertex -0.07103150337934494 -0.033097684383392334 0.14171770215034485
			vertex -0.008991486392915249 0.009203647263348103 0.14171770215034485
			vertex -0.005045205354690552 -0.082440584897995 0.14171770215034485
		endloop
	endfacet
	facet normal 0 0 -1
		outer loop
			vertex 0.0018687561387196183 -0.00191285100299865 0.14171770215034485
			vertex -0.008991486392915249 0.009203647263348103 0.14171770215034485
			vertex -0.013002862222492695 0.1023595854640007 0.14171770215034485
		endloop
	endfacet
	facet normal 0 0 -1
		outer loop
			vertex 0.0018687561387196183 -0.00191285100299865 0.14171770215034485
			vertex -0.013002862222492695 0.1023595854640007 0.14171770215034485
			vertex -0.008558472618460655 0.1023595854640007 0.14171770215034485
		endloop
	endfacet
	facet normal 0 0 -1
		outer loop
			vertex 0.011913415044546127 -0.1023595854640007 0.14171770215034485
			vertex -0.004187475889921188 -0.1023595854640007 0.14171770215034485
			vertex -0.008991486392915249 0.009203647263348103 0.14171770215034485
		endloop
	endfacet
	facet normal 0 0 -1
		outer loop
			vertex 0.011913415044546127 -0.1023595854640007 0.14171770215034485
			vertex -0.008991486392915249 0.009203647263348103 0.14171770215034485
			vertex 0.0018687561387196183 -0.00191285100299865 0.14171770215034485
		endloop
	endfacet
	facet normal 0 0 -1
		outer loop
			vertex 0.10000000149011612 0.0864170491695404 0.14171770215034485
			vertex 0.10000000149011612 0.04774922877550125 0.14171770215034485
			vertex 0.0942780077457428 0.05403098091483116 0.14171770215034485
		endloop
	endfacet
	facet normal 0 0 -1
		outer loop
			vertex 0.10000000149011612 0.04774922877550125 0.14171770215034485
			vertex 0.10000000149011612 -0.08604184538125992 0.14171770215034485
			vertex 0.07517621666193008 -0.054083846509456635 0.14171770215034485
		endloop
	endfacet
	facet normal 0 0 -1
		outer loop
			vertex 0.10000000149011612 0.04774922877550125 0.14171770215034485
			vertex 0.07517621666193008 -0.054083846509456635 0.14171770215034485
			vertex 0.0942780077457428 0.05403098091483116 0.14171770215034485
		endloop
	endfacet
	facet normal 0 0 -1
		outer loop
			vertex 0.07687460631132126 -0.044471025466918945 0.14171770215034485
			vertex 0.07517621666193008 -0.054083846509456635 0.14171770215034485
			vertex 0.0706966444849968 -0.04831687733530998 0.14171770215034485
		endloop
	endfacet
	facet normal 0 0 -1
		outer loop
			vertex 0.10000000149011612 0.09421227872371674 0.14171770215034485
			vertex 0.10000000149011612 0.0864170491695404 0.14171770215034485
			vertex 0.09898670017719269 0.08068186044692993 0.14171770215034485
		endloop
	endfacet
	facet normal 0 0 -1
		outer loop
			vertex 0.10000000149011612 0.09421227872371674 0.14171770215034485
			vertex 0.09898670017719269 0.08068186044692993 0.14171770215034485
			vertex 0.06743879616260529 0.1023595854640007 0.14171770215034485
		endloop
	endfacet
	facet normal 0 0 -1
		outer loop
			vertex 0.10000000149011612 0.09421227872371674 0.14171770215034485
			vertex 0.06743879616260529 0.1023595854640007 0.14171770215034485
			vertex 0.09130401164293289 0.1023595854640007 0.14171770215034485
		endloop
	endfacet
	facet normal 0 0 -1
		outer loop
			vertex 0.10000000149011612 0.09421227872371674 0.14171770215034485
			vertex 0.09130401164293289 0.1023595854640007 0.14171770215034485
			vertex 0.09420593827962875 0.1008593887090683 0.14171770215034485
		endloop
	endfacet
	facet normal 0 0 -1
		outer loop
			vertex 0.09898670017719269 0.08068186044692993 0.14171770215034485
			vertex 0.08889581263065338 0.023568125441670418 0.14171770215034485
			vertex 0.03625711426138878 0.1023595854640007 0.14171770215034485
		endloop
	endfacet
	facet normal 0 0 -1
		outer loop
			vertex 0.09898670017719269 0.08068186044692993 0.14171770215034485
			vertex 0.03625711426138878 0.1023595854640007 0.14171770215034485
			vertex 0.06743879616260529 0.1023595854640007 0.14171770215034485
		endloop
	endfacet
	facet normal 0 0 -1
		outer loop
			vertex 0.08889581263065338 0.023568125441670418 0.14171770215034485
			vertex 0.0880168154835701 0.018593057990074158 0.14171770215034485
			vertex 0.033919692039489746 0.1023595854640007 0.14171770215034485
		endloop
	endfacet
	facet normal 0 0 -1
		outer loop
			vertex 0.08889581263065338 0.023568125441670418 0.14171770215034485
			vertex 0.033919692039489746 0.1023595854640007 0.14171770215034485
			vertex 0.03625711426138878 0.1023595854640007 0.14171770215034485
		endloop
	endfacet
	facet normal 0 0 -1
		outer loop
			vertex 0.0880168154835701 0.018593057990074158 0.14171770215034485
			vertex 0.07687460631132126 -0.044471025466918945 0.14171770215034485
			vertex 0.0706966444849968 -0.04831687733530998 0.14171770215034485
		endloop
	endfacet
	facet normal 0 0 -1
		outer loop
			vertex 0.0880168154835701 0.018593057990074158 0.14171770215034485
			vertex 0.0706966444849968 -0.04831687733530998 0.14171770215034485
			vertex -0.0029753190465271473 0.04652796685695648 0.14171770215034485
		endloop
	endfacet
	facet normal 0 0 -1
		outer loop
			vertex 0.0880168154835701 0.018593057990074158 0.14171770215034485
			vertex -0.0029753190465271473 0.04652796685695648 0.14171770215034485
			vertex -0.008558472618460655 0.1023595854640007 0.14171770215034485
		endloop
	endfacet
	facet normal 0 0 -1
		outer loop
			vertex 0.0880168154835701 0.018593057990074158 0.14171770215034485
			vertex -0.008558472618460655 0.1023595854640007 0.14171770215034485
			vertex 0.033919692039489746 0.1023595854640007 0.14171770215034485
		endloop
	endfacet
	facet normal 0 0 -1
		outer loop
			vertex 0.10000000149011612 -0.08604184538125992 0.14171770215034485
			vertex 0.10000000149011612 -0.0933099240064621 0.14171770215034485
			vertex 0.08851052820682526 -0.09059900790452957 0.14171770215034485
		endloop
	endfacet
	facet normal 0 0 -1
		outer loop
			vertex 0.10000000149011612 -0.08604184538125992 0.14171770215034485
			vertex 0.08851052820682526 -0.09059900790452957 0.14171770215034485
			vertex 0.0560876727104187 -0.057411108165979385 0.14171770215034485
		endloop
	endfacet
	facet normal 0 0 -1
		outer loop
			vertex 0.10000000149011612 -0.08604184538125992 0.14171770215034485
			vertex 0.0560876727104187 -0.057411108165979385 0.14171770215034485
			vertex 0.0706966444849968 -0.04831687733530998 0.14171770215034485
		endloop
	endfacet
	facet normal 0 0 -1
		outer loop
			vertex 0.0560876727104187 -0.057411108165979385 0.14171770215034485
			vertex 0.08851052820682526 -0.09059900790452957 0.14171770215034485
			vertex 0.026339169591665268 -0.07592985779047012 0.14171770215034485
		endloop
	endfacet
	facet normal 0 0 -1
		outer loop
			vertex 0.0560876727104187 -0.057411108165979385 0.14171770215034485
			vertex 0.0018687561387196183 -0.00191285100299865 0.14171770215034485
			vertex -0.0029753190465271473 0.04652796685695648 0.14171770215034485
		endloop
	endfacet
	facet normal 0 0 -1
		outer loop
			vertex 0.0560876727104187 -0.057411108165979385 0.14171770215034485
			vertex -0.0029753190465271473 0.04652796685695648 0.14171770215034485
			vertex 0.0706966444849968 -0.04831687733530998 0.14171770215034485
		endloop
	endfacet
	facet normal 0 0 -1
		outer loop
			vertex 0.00885798316448927 -0.07180521637201309 0.14171770215034485
			vertex 0.0018687561387196183 -0.00191285100299865 0.14171770215034485
			vertex 0.0560876727104187 -0.057411108165979385 0.14171770215034485
		endloop
	endfacet
	facet normal 0 0 -1
		outer loop
			vertex 0.00885798316448927 -0.07180521637201309 0.14171770215034485
			vertex 0.0560876727104187 -0.057411108165979385 0.14171770215034485
			vertex 0.026339169591665268 -0.07592985779047012 0.14171770215034485
		endloop
	endfacet
	facet normal 0 0 -1
		outer loop
			vertex 0.10000000149011612 -0.0933099240064621 0.14171770215034485
			vertex 0.10000000149011612 -0.1023595854640007 0.14171770215034485
			vertex 0.08851052820682526 -0.09059900790452957 0.14171770215034485
		endloop
	endfacet
	facet normal 0 0 -1
		outer loop
			vertex 0.10000000149011612 -0.1023595854640007 0.14171770215034485
			vertex 0.011913415044546127 -0.1023595854640007 0.14171770215034485
			vertex 0.01066741906106472 -0.08989959955215454 0.14171770215034485
		endloop
	endfacet
	facet normal 0 0 -1
		outer loop
			vertex 0.10000000149011612 -0.1023595854640007 0.14171770215034485
			vertex 0.01066741906106472 -0.08989959955215454 0.14171770215034485
			vertex 0.08046986162662506 -0.08870184421539307 0.14171770215034485
		endloop
	endfacet
	facet normal 0 0 -1
		outer loop
			vertex 0.10000000149011612 -0.1023595854640007 0.14171770215034485
			vertex 0.08046986162662506 -0.08870184421539307 0.14171770215034485
			vertex 0.08851052820682526 -0.09059900790452957 0.14171770215034485
		endloop
	endfacet
	facet normal 0 0 -1
		outer loop
			vertex 0.01066741906106472 -0.08989959955215454 0.14171770215034485
			vertex 0.00885798316448927 -0.07180521637201309 0.14171770215034485
			vertex 0.08046986162662506 -0.08870184421539307 0.14171770215034485
		endloop
	endfacet
endsolid exported
