solid exported
	facet normal -0.41875999712748657 0.3598306851889685 0.8337637212077681
		outer loop
			vertex -0.06292958557605743 0.1023595929145813 0.23619616031646729
			vertex -0.049199339002370834 0.1183384358882904 0.23619616031646729
			vertex -0.06297773122787476 0.14174143970012665 0.2191758006811142
		endloop
	endfacet
	facet normal -0.41875843055954026 0.35983097339745235 0.8337643836355406
		outer loop
			vertex -0.06292958557605743 0.1023595929145813 0.23619616031646729
			vertex -0.06297773122787476 0.14174143970012665 0.2191758006811142
			vertex -0.07159916311502457 0.1023595929145813 0.23184186220169067
		endloop
	endfacet
	facet normal -0.8825699379134441 -0.2158044230229667 0.4177304821235624
		outer loop
			vertex -0.053673263639211655 0.13663533329963684 0.23619616031646729
			vertex -0.06297773122787476 0.14174143970012665 0.2191758006811142
			vertex -0.049199339002370834 0.1183384358882904 0.23619616031646729
		endloop
	endfacet
	facet normal -0.5004605621090876 0.7150505488306615 0.48810033639655054
		outer loop
			vertex -0.03862098976969719 0.14717034995555878 0.23619616031646729
			vertex -0.06297773122787476 0.14174143970012665 0.2191758006811142
			vertex -0.053673263639211655 0.13663533329963684 0.23619616031646729
		endloop
	endfacet
	facet normal -0.10507664712230416 0.981086969101959 -0.16256462495840382
		outer loop
			vertex -0.02298581600189209 0.148844912648201 0.23619616031646729
			vertex -0.06297773122787476 0.14174143970012665 0.2191758006811142
			vertex -0.03862098976969719 0.14717034995555878 0.23619616031646729
		endloop
	endfacet
	facet normal -0.8287402598658226 0.3274014055416577 0.4538699167458403
		outer loop
			vertex -0.07159916311502457 0.1023595929145813 0.23184186220169067
			vertex -0.06297773122787476 0.14174143970012665 0.2191758006811142
			vertex -0.08873379230499268 0.12445995211601257 0.18461281061172485
		endloop
	endfacet
	facet normal -0.8287406629207488 0.32740066377152693 0.4538697158696993
		outer loop
			vertex -0.07159916311502457 0.1023595929145813 0.23184186220169067
			vertex -0.08873379230499268 0.12445995211601257 0.18461281061172485
			vertex -0.08258557319641113 0.1023595929145813 0.21178129315376282
		endloop
	endfacet
	facet normal -0.6072196826068171 0.5435200243101977 0.5795431306026484
		outer loop
			vertex -0.08258557319641113 0.1023595929145813 0.21178129315376282
			vertex -0.08873379230499268 0.12445995211601257 0.18461281061172485
			vertex -0.08501892536878586 0.1023595929145813 0.20923173427581787
		endloop
	endfacet
	facet normal -0.6534164941734053 0.7569486967238478 0.00869227646850313
		outer loop
			vertex -0.10000000149011612 0.1148669421672821 0.17309562861919403
			vertex -0.08873379230499268 0.12445995211601257 0.18461281061172485
			vertex -0.10000000149011612 0.1148916557431221 0.1709434986114502
		endloop
	endfacet
	facet normal -0.7993703134490755 0.3821330592312194 0.46366089658166804
		outer loop
			vertex -0.08501892536878586 0.1023595929145813 0.20923173427581787
			vertex -0.08873379230499268 0.12445995211601257 0.18461281061172485
			vertex -0.10000000149011612 0.1148669421672821 0.17309562861919403
		endloop
	endfacet
	facet normal -0.7993703626233969 0.3821329693683843 0.463660885864918
		outer loop
			vertex -0.08501892536878586 0.1023595929145813 0.20923173427581787
			vertex -0.10000000149011612 0.1148669421672821 0.17309562861919403
			vertex -0.10000000149011612 0.1023595929145813 0.18340374529361725
		endloop
	endfacet
	facet normal -0.3217744359857881 0.9295124070034498 -0.18018850566193548
		outer loop
			vertex -0.09052396565675735 0.11719014495611191 0.14171770215034485
			vertex -0.09731139242649078 0.11539234220981598 0.14456439018249512
			vertex -0.06297773122787476 0.14174143970012665 0.2191758006811142
		endloop
	endfacet
	facet normal -0.321774862092916 0.929512295709381 -0.18018831885047745
		outer loop
			vertex -0.09052396565675735 0.11719014495611191 0.14171770215034485
			vertex -0.06297773122787476 0.14174143970012665 0.2191758006811142
			vertex -0.019156813621520996 0.14189574122428894 0.14171770215034485
		endloop
	endfacet
	facet normal -0.12245666181825175 0.9901890231923097 -0.06730575254604833
		outer loop
			vertex -0.019156813621520996 0.14189574122428894 0.14171770215034485
			vertex -0.06297773122787476 0.14174143970012665 0.2191758006811142
			vertex 0.014456629753112793 0.1522100418806076 0.23230308294296265
		endloop
	endfacet
	facet normal -0.12245550356259081 0.9901891363430915 -0.06730619522269111
		outer loop
			vertex -0.019156813621520996 0.14189574122428894 0.14171770215034485
			vertex 0.014456629753112793 0.1522100418806076 0.23230308294296265
			vertex -0.013289091177284718 0.14275819063186646 0.14373019337654114
		endloop
	endfacet
	facet normal -0.12245405220273044 0.9901890312437617 -0.0673103818416751
		outer loop
			vertex -0.019156813621520996 0.14189574122428894 0.14171770215034485
			vertex -0.013289091177284718 0.14275819063186646 0.14373019337654114
			vertex -0.014728903770446777 0.14244332909584045 0.14171770215034485
		endloop
	endfacet
	facet normal 0.02943416136621999 0.6898113463104286 0.7233905837416337
		outer loop
			vertex -0.011677872389554977 0.1492426097393036 0.23619616031646729
			vertex 0.014456629753112793 0.1522100418806076 0.23230308294296265
			vertex -0.017108937725424767 0.1494743525981903 0.23619616031646729
		endloop
	endfacet
	facet normal -0.10507886539220493 0.9810875546583313 -0.16255965717982676
		outer loop
			vertex -0.06297773122787476 0.14174143970012665 0.2191758006811142
			vertex -0.02298581600189209 0.148844912648201 0.23619616031646729
			vertex -0.017108937725424767 0.1494743525981903 0.23619616031646729
		endloop
	endfacet
	facet normal -0.1050772415676871 0.9810870420637844 -0.16256380039560014
		outer loop
			vertex -0.06297773122787476 0.14174143970012665 0.2191758006811142
			vertex -0.017108937725424767 0.1494743525981903 0.23619616031646729
			vertex 0.014456629753112793 0.1522100418806076 0.23230308294296265
		endloop
	endfacet
	facet normal -0.4555813170985063 0.8842579254548543 -0.10263325377804189
		outer loop
			vertex -0.10000000149011612 0.11508763581514359 0.15387354791164398
			vertex -0.08873379230499268 0.12445995211601257 0.18461281061172485
			vertex -0.06297773122787476 0.14174143970012665 0.2191758006811142
		endloop
	endfacet
	facet normal -0.45558009721936493 0.8842584488828933 -0.10263415901547325
		outer loop
			vertex -0.10000000149011612 0.11508763581514359 0.15387354791164398
			vertex -0.06297773122787476 0.14174143970012665 0.2191758006811142
			vertex -0.09731139242649078 0.11539234220981598 0.14456439018249512
		endloop
	endfacet
	facet normal -0.45558131612049724 0.8842577774791146 -0.1026345330267166
		outer loop
			vertex -0.10000000149011612 0.11508763581514359 0.15387354791164398
			vertex -0.09731139242649078 0.11539234220981598 0.14456439018249512
			vertex -0.10000000149011612 0.11426199227571487 0.14676013588905334
		endloop
	endfacet
	facet normal -0.6534152874411765 0.7569497583553713 0.00869053875831141
		outer loop
			vertex -0.10000000149011612 0.1148916557431221 0.1709434986114502
			vertex -0.08873379230499268 0.12445995211601257 0.18461281061172485
			vertex -0.10000000149011612 0.11508763581514359 0.15387354791164398
		endloop
	endfacet
	facet normal 0.14735812496391001 0.9775691948089018 -0.150479408451111
		outer loop
			vertex -0.013289091177284718 0.14275819063186646 0.14373019337654114
			vertex 0.014456629753112793 0.1522100418806076 0.23230308294296265
			vertex 0.03490721434354782 0.14579415321350098 0.2106495201587677
		endloop
	endfacet
	facet normal 0.7547363247178185 0.5901387058787987 0.2865473572991668
		outer loop
			vertex 0.0357261560857296 0.13542704284191132 0.23446327447891235
			vertex 0.04578002542257309 0.12735538184642792 0.22460584342479706
			vertex 0.03846350312232971 0.14123022556304932 0.21530184149742126
		endloop
	endfacet
	facet normal 0.37335094147061926 0.5676038082063453 0.7337812967176641
		outer loop
			vertex 0.01291175652295351 0.1481933742761612 0.23619616031646729
			vertex 0.032996468245983124 0.13498231768608093 0.23619616031646729
			vertex 0.0357261560857296 0.13542704284191132 0.23446327447891235
		endloop
	endfacet
	facet normal 0.3733515856165823 0.5676051440982958 0.7337799356147159
		outer loop
			vertex 0.01291175652295351 0.1481933742761612 0.23619616031646729
			vertex 0.0357261560857296 0.13542704284191132 0.23446327447891235
			vertex 0.014456629753112793 0.1522100418806076 0.23230308294296265
		endloop
	endfacet
	facet normal 0.029434141243409023 0.6898114255175183 0.7233905090300483
		outer loop
			vertex 0.01291175652295351 0.1481933742761612 0.23619616031646729
			vertex 0.014456629753112793 0.1522100418806076 0.23230308294296265
			vertex -0.011677872389554977 0.1492426097393036 0.23619616031646729
		endloop
	endfacet
	facet normal 0.5688567062434906 0.7610580855393855 0.31175733864166305
		outer loop
			vertex 0.0357261560857296 0.13542704284191132 0.23446327447891235
			vertex 0.03846350312232971 0.14123022556304932 0.21530184149742126
			vertex 0.03490721434354782 0.14579415321350098 0.2106495201587677
		endloop
	endfacet
	facet normal 0.5688589236032607 0.7610567054992122 0.31175666159943566
		outer loop
			vertex 0.0357261560857296 0.13542704284191132 0.23446327447891235
			vertex 0.03490721434354782 0.14579415321350098 0.2106495201587677
			vertex 0.014456629753112793 0.1522100418806076 0.23230308294296265
		endloop
	endfacet
	facet normal 0.41747109496623436 -0.10441432371279318 0.9026713321421554
		outer loop
			vertex 0.035935912281274796 0.1023595854640007 0.23619616031646729
			vertex 0.03788634017109871 0.1023595854640007 0.23529411852359772
			vertex 0.03629104420542717 0.10377947986125946 0.23619616031646729
		endloop
	endfacet
	facet normal 0.5286175599030859 0.05581485566390167 0.8470231267499874
		outer loop
			vertex 0.03629104420542717 0.10377947986125946 0.23619616031646729
			vertex 0.03788634017109871 0.1023595854640007 0.23529411852359772
			vertex 0.0357261560857296 0.13542704284191132 0.23446327447891235
		endloop
	endfacet
	facet normal 0.5286205016906445 0.0558148078170583 0.8470212939594118
		outer loop
			vertex 0.03629104420542717 0.10377947986125946 0.23619616031646729
			vertex 0.0357261560857296 0.13542704284191132 0.23446327447891235
			vertex 0.032996468245983124 0.13498231768608093 0.23619616031646729
		endloop
	endfacet
	facet normal 0.7245876725178009 0.06457487678359358 0.6861507051104881
		outer loop
			vertex 0.04578002542257309 0.12735538184642792 0.22460584342479706
			vertex 0.0357261560857296 0.13542704284191132 0.23446327447891235
			vertex 0.03788634017109871 0.1023595854640007 0.23529411852359772
		endloop
	endfacet
	facet normal 0.7245875785827512 0.0645749460767736 0.6861507977862935
		outer loop
			vertex 0.04578002542257309 0.12735538184642792 0.22460584342479706
			vertex 0.03788634017109871 0.1023595854640007 0.23529411852359772
			vertex 0.047151271253824234 0.10558570176362991 0.22520656883716583
		endloop
	endfacet
	facet normal 0.7245878110817979 0.0645738370233491 0.6861506566372801
		outer loop
			vertex 0.03788634017109871 0.1023595854640007 0.23529411852359772
			vertex 0.047354478389024734 0.1023595929145813 0.22529558837413788
			vertex 0.047151271253824234 0.10558570176362991 0.22520656883716583
		endloop
	endfacet
	facet normal 0.14735729487076735 0.9775694816960419 -0.15047835759637387
		outer loop
			vertex 0.01852658949792385 0.144762322306633 0.1879054456949234
			vertex 0.03490721434354782 0.14579415321350098 0.2106495201587677
			vertex 0.039880357682704926 0.14423395693302155 0.20538383722305298
		endloop
	endfacet
	facet normal 0.1473579765479708 0.9775692496636373 -0.15047919743194135
		outer loop
			vertex 0.01852658949792385 0.144762322306633 0.1879054456949234
			vertex 0.039880357682704926 0.14423395693302155 0.20538383722305298
			vertex 0.021690456196665764 0.1434737890958786 0.18263289332389832
		endloop
	endfacet
	facet normal 0.10942620637966617 0.9866692827986618 -0.12045593276766782
		outer loop
			vertex 0.021690456196665764 0.1434737890958786 0.18263289332389832
			vertex 0.039880357682704926 0.14423395693302155 0.20538383722305298
			vertex 0.02942441776394844 0.14100366830825806 0.1694256216287613
		endloop
	endfacet
	facet normal 0.4491234090899546 0.8687674469778218 -0.20864152625749097
		outer loop
			vertex 0.02942441776394844 0.14100366830825806 0.1694256216287613
			vertex 0.039880357682704926 0.14423395693302155 0.20538383722305298
			vertex 0.03090737573802471 0.13972005248069763 0.16727297008037567
		endloop
	endfacet
	facet normal 0.7547365842138732 0.5901385021866232 0.2865470933129561
		outer loop
			vertex 0.04578002542257309 0.12735538184642792 0.22460584342479706
			vertex 0.06822757422924042 0.10933354496955872 0.20259687304496765
			vertex 0.06944980472326279 0.11647824943065643 0.18466325104236603
		endloop
	endfacet
	facet normal 0.754736443300017 0.5901387565886344 0.2865469405295768
		outer loop
			vertex 0.04578002542257309 0.12735538184642792 0.22460584342479706
			vertex 0.06944980472326279 0.11647824943065643 0.18466325104236603
			vertex 0.039880357682704926 0.14423395693302155 0.20538383722305298
		endloop
	endfacet
	facet normal 0.7547368568326118 0.590138429010895 0.28654652596564956
		outer loop
			vertex 0.04578002542257309 0.12735538184642792 0.22460584342479706
			vertex 0.039880357682704926 0.14423395693302155 0.20538383722305298
			vertex 0.03846350312232971 0.14123022556304932 0.21530184149742126
		endloop
	endfacet
	facet normal 0.5688575502047974 0.7610578240615531 0.3117564369980041
		outer loop
			vertex 0.03846350312232971 0.14123022556304932 0.21530184149742126
			vertex 0.039880357682704926 0.14423395693302155 0.20538383722305298
			vertex 0.03490721434354782 0.14579415321350098 0.2106495201587677
		endloop
	endfacet
	facet normal 0.7398051085984019 0.6448645336587087 0.19193263016184398
		outer loop
			vertex 0.06848631799221039 0.12139441072940826 0.17185945808887482
			vertex 0.039880357682704926 0.14423395693302155 0.20538383722305298
			vertex 0.06944980472326279 0.11647824943065643 0.18466325104236603
		endloop
	endfacet
	facet normal 0.724587774758456 0.06457446139050316 0.6861506362357433
		outer loop
			vertex 0.05516280606389046 0.1023595929145813 0.21704983711242676
			vertex 0.06822757422924042 0.10933354496955872 0.20259687304496765
			vertex 0.04578002542257309 0.12735538184642792 0.22460584342479706
		endloop
	endfacet
	facet normal 0.724588284397438 0.06457482575135479 0.6861500637565806
		outer loop
			vertex 0.05516280606389046 0.1023595929145813 0.21704983711242676
			vertex 0.04578002542257309 0.12735538184642792 0.22460584342479706
			vertex 0.047354478389024734 0.1023595929145813 0.22529558837413788
		endloop
	endfacet
	facet normal 0.44912483019630156 0.8687666336948823 -0.20864185361428692
		outer loop
			vertex 0.039880357682704926 0.14423395693302155 0.20538383722305298
			vertex 0.06848631799221039 0.12139441072940826 0.17185945808887482
			vertex 0.04414389282464981 0.12826281785964966 0.14805912971496582
		endloop
	endfacet
	facet normal 0.44912506175651395 0.868766525369701 -0.20864180621166148
		outer loop
			vertex 0.039880357682704926 0.14423395693302155 0.20538383722305298
			vertex 0.04414389282464981 0.12826281785964966 0.14805912971496582
			vertex 0.03090737573802471 0.13972005248069763 0.16727297008037567
		endloop
	endfacet
	facet normal 0.14735720307214079 0.9775692931743206 -0.15047967219998634
		outer loop
			vertex 0.012713521718978882 0.14439614117145538 0.17983415722846985
			vertex 0.01852658949792385 0.144762322306633 0.1879054456949234
			vertex 0.021690456196665764 0.1434737890958786 0.18263289332389832
		endloop
	endfacet
	facet normal 0.14735750609940992 0.9775690874430897 -0.15048071195953092
		outer loop
			vertex 0.012713521718978882 0.14439614117145538 0.17983415722846985
			vertex 0.021690456196665764 0.1434737890958786 0.18263289332389832
			vertex 0.018805332481861115 0.14335320889949799 0.1790243238210678
		endloop
	endfacet
	facet normal 0.10942476097828462 0.9866693365355049 -0.1204568056418224
		outer loop
			vertex 0.018805332481861115 0.14335320889949799 0.1790243238210678
			vertex 0.021690456196665764 0.1434737890958786 0.18263289332389832
			vertex 0.02448129467666149 0.14258243143558502 0.17786696553230286
		endloop
	endfacet
	facet normal -0.12244944883308347 0.9901893730009973 -0.06731372873616544
		outer loop
			vertex -0.014728903770446777 0.14244332909584045 0.14171770215034485
			vertex -0.013289091177284718 0.14275819063186646 0.14373019337654114
			vertex -0.013919515535235405 0.14254342019557953 0.14171770215034485
		endloop
	endfacet
	facet normal 0.14735107039757495 0.9775696256379173 -0.15048351764506135
		outer loop
			vertex -0.011022167280316353 0.14210669696331024 0.14171770215034485
			vertex -0.013919515535235405 0.14254342019557953 0.14171770215034485
			vertex -0.013289091177284718 0.14275819063186646 0.14373019337654114
		endloop
	endfacet
	facet normal 0.14735600526044312 0.9775697321553218 -0.1504779933659963
		outer loop
			vertex -0.011022167280316353 0.14210669696331024 0.14171770215034485
			vertex -0.013289091177284718 0.14275819063186646 0.14373019337654114
			vertex 0.012713521718978882 0.14439614117145538 0.17983415722846985
		endloop
	endfacet
	facet normal 0.14735776235159656 0.9775693028377468 -0.15047906174631767
		outer loop
			vertex -0.011022167280316353 0.14210669696331024 0.14171770215034485
			vertex 0.012713521718978882 0.14439614117145538 0.17983415722846985
			vertex 0.018805332481861115 0.14335320889949799 0.1790243238210678
		endloop
	endfacet
	facet normal 0.10942596212921003 0.9866693310126042 -0.12045575972628633
		outer loop
			vertex 0.01136147789657116 0.13962425291538239 0.14171770215034485
			vertex -0.0028710318729281425 0.1424473375082016 0.15191268920898438
			vertex 0.018805332481861115 0.14335320889949799 0.1790243238210678
		endloop
	endfacet
	facet normal 0.10942502601994324 0.986669456107396 -0.12045558544654739
		outer loop
			vertex 0.01136147789657116 0.13962425291538239 0.14171770215034485
			vertex 0.018805332481861115 0.14335320889949799 0.1790243238210678
			vertex 0.02448129467666149 0.14258243143558502 0.17786696553230286
		endloop
	endfacet
	facet normal 0.10942612654715934 0.9866692869817524 -0.12045597102595584
		outer loop
			vertex 0.01136147789657116 0.13962425291538239 0.14171770215034485
			vertex 0.02448129467666149 0.14258243143558502 0.17786696553230286
			vertex 0.02942441776394844 0.14100366830825806 0.1694256216287613
		endloop
	endfacet
	facet normal 0.10942518838042141 0.9866694646141835 -0.1204553682733574
		outer loop
			vertex 0.01136147789657116 0.13962425291538239 0.14171770215034485
			vertex 0.02942441776394844 0.14100366830825806 0.1694256216287613
			vertex 0.021367505192756653 0.13851454854011536 0.14171770215034485
		endloop
	endfacet
	facet normal 0.44912367426916544 0.8687673654383647 -0.20864129495439718
		outer loop
			vertex 0.021367505192756653 0.13851454854011536 0.14171770215034485
			vertex 0.02942441776394844 0.14100366830825806 0.1694256216287613
			vertex 0.03090737573802471 0.13972005248069763 0.16727297008037567
		endloop
	endfacet
	facet normal 0.44912816207298456 0.8687646735333538 -0.20864284328351182
		outer loop
			vertex 0.021367505192756653 0.13851454854011536 0.14171770215034485
			vertex 0.03090737573802471 0.13972005248069763 0.16727297008037567
			vertex 0.024890528991818428 0.13669323921203613 0.14171770215034485
		endloop
	endfacet
	facet normal 0.10942087055386676 0.9866690739836909 -0.12046249014278251
		outer loop
			vertex 0.009737551212310791 0.13980434834957123 0.14171770215034485
			vertex -0.003693358739838004 0.1424129605293274 0.15088416635990143
			vertex -0.0028710318729281425 0.1424473375082016 0.15191268920898438
		endloop
	endfacet
	facet normal 0.10942280247219853 0.9866691490625423 -0.12046012031925349
		outer loop
			vertex 0.009737551212310791 0.13980434834957123 0.14171770215034485
			vertex -0.0028710318729281425 0.1424473375082016 0.15191268920898438
			vertex 0.01136147789657116 0.13962425291538239 0.14171770215034485
		endloop
	endfacet
	facet normal 0.10942619384369359 0.9866694237175307 -0.12045478986656417
		outer loop
			vertex 0.009737551212310791 0.13980434834957123 0.14171770215034485
			vertex -0.011022167280316353 0.14210669696331024 0.14171770215034485
			vertex -0.003693358739838004 0.1424129605293274 0.15088416635990143
		endloop
	endfacet
	facet normal 0.4491243180539895 0.8687668171595847 -0.2086421921255232
		outer loop
			vertex 0.03765802085399628 0.13009285926818848 0.14171770215034485
			vertex 0.024890528991818428 0.13669323921203613 0.14171770215034485
			vertex 0.03090737573802471 0.13972005248069763 0.16727297008037567
		endloop
	endfacet
	facet normal 0.44912490018667456 0.8687665750504172 -0.2086419471426524
		outer loop
			vertex 0.03765802085399628 0.13009285926818848 0.14171770215034485
			vertex 0.03090737573802471 0.13972005248069763 0.16727297008037567
			vertex 0.04414389282464981 0.12826281785964966 0.14805912971496582
		endloop
	endfacet
	facet normal -0.3217744037298648 0.9295124367162082 -0.18018840998850977
		outer loop
			vertex -0.09862135350704193 0.11438702791929245 0.14171770215034485
			vertex -0.09731139242649078 0.11539234220981598 0.14456439018249512
			vertex -0.09052396565675735 0.11719014495611191 0.14171770215034485
		endloop
	endfacet
	facet normal -0.4555802578506103 0.884258517320604 -0.10263285635087131
		outer loop
			vertex -0.10000000149011612 0.11367673426866531 0.14171770215034485
			vertex -0.10000000149011612 0.11426199227571487 0.14676013588905334
			vertex -0.09731139242649078 0.11539234220981598 0.14456439018249512
		endloop
	endfacet
	facet normal -0.4555792910156514 0.8842588838215655 -0.10263399037509768
		outer loop
			vertex -0.10000000149011612 0.11367673426866531 0.14171770215034485
			vertex -0.09731139242649078 0.11539234220981598 0.14456439018249512
			vertex -0.09862135350704193 0.11438702791929245 0.14171770215034485
		endloop
	endfacet
	facet normal 0.7547365791415979 0.5901385563095144 0.28654699520769833
		outer loop
			vertex 0.06822757422924042 0.10933354496955872 0.20259687304496765
			vertex 0.07691415399312973 0.1023595929145813 0.19408001005649567
			vertex 0.084491066634655 0.1023595929145813 0.17412316799163818
		endloop
	endfacet
	facet normal 0.7547366519284517 0.5901384277450201 0.28654706827058424
		outer loop
			vertex 0.06822757422924042 0.10933354496955872 0.20259687304496765
			vertex 0.084491066634655 0.1023595929145813 0.17412316799163818
			vertex 0.06944980472326279 0.11647824943065643 0.18466325104236603
		endloop
	endfacet
	facet normal 0.7245877312129579 0.06457417632972695 0.6861507090479435
		outer loop
			vertex 0.06385432183742523 0.1023595929145813 0.2078714370727539
			vertex 0.06784286350011826 0.1091281995177269 0.20302246510982513
			vertex 0.05516280606389046 0.1023595929145813 0.21704983711242676
		endloop
	endfacet
	facet normal 0.7398052052210341 0.6448644834843884 0.19193242630748122
		outer loop
			vertex 0.06896240264177322 0.11896518617868423 0.17818620800971985
			vertex 0.06944980472326279 0.11647824943065643 0.18466325104236603
			vertex 0.084491066634655 0.1023595929145813 0.17412316799163818
		endloop
	endfacet
	facet normal 0.7398051830961839 0.644864249913143 0.1919332963505324
		outer loop
			vertex 0.06896240264177322 0.11896518617868423 0.17818620800971985
			vertex 0.084491066634655 0.1023595929145813 0.17412316799163818
			vertex 0.08833430707454681 0.1023595929145813 0.15930943191051483
		endloop
	endfacet
	facet normal 0.7398052625578184 0.6448640935395321 0.19193351545573062
		outer loop
			vertex 0.06896240264177322 0.11896518617868423 0.17818620800971985
			vertex 0.08833430707454681 0.1023595929145813 0.15930943191051483
			vertex 0.0841132178902626 0.10669367760419846 0.1610177755355835
		endloop
	endfacet
	facet normal 0.7245900706676417 0.06458093189447787 0.6861476027251738
		outer loop
			vertex 0.07691415399312973 0.1023595929145813 0.19408001005649567
			vertex 0.06822757422924042 0.10933354496955872 0.20259687304496765
			vertex 0.06784286350011826 0.1091281995177269 0.20302246510982513
		endloop
	endfacet
	facet normal 0.7245878572071326 0.06457401747743662 0.6861505909454568
		outer loop
			vertex 0.07691415399312973 0.1023595929145813 0.19408001005649567
			vertex 0.06784286350011826 0.1091281995177269 0.20302246510982513
			vertex 0.06385432183742523 0.1023595929145813 0.2078714370727539
		endloop
	endfacet
	facet normal 0.7398051496726707 0.644864961311193 0.1919310349862964
		outer loop
			vertex 0.08833430707454681 0.1023595929145813 0.15930943191051483
			vertex 0.0894642099738121 0.1023595929145813 0.15495418012142181
			vertex 0.0841132178902626 0.10669367760419846 0.1610177755355835
		endloop
	endfacet
	facet normal 0.7398050555947817 0.6448645386759043 0.19193281760739914
		outer loop
			vertex 0.09232696145772934 0.1023595929145813 0.14391973614692688
			vertex 0.06848631799221039 0.12139441072940826 0.17185945808887482
			vertex 0.06896240264177322 0.11896518617868423 0.17818620800971985
		endloop
	endfacet
	facet normal 0.7398055211700882 0.644863804124077 0.19193349102456914
		outer loop
			vertex 0.09232696145772934 0.1023595929145813 0.14391973614692688
			vertex 0.06896240264177322 0.11896518617868423 0.17818620800971985
			vertex 0.0894642099738121 0.1023595929145813 0.15495418012142181
		endloop
	endfacet
	facet normal 0.44912468081186646 0.8687664658838293 -0.20864287392901848
		outer loop
			vertex 0.09232696145772934 0.1023595929145813 0.14391973614692688
			vertex 0.0913039967417717 0.1023595929145813 0.14171770215034485
			vertex 0.03765802085399628 0.13009285926818848 0.14171770215034485
		endloop
	endfacet
	facet normal 0.449124752944293 0.8687666967215295 -0.20864175747028751
		outer loop
			vertex 0.09232696145772934 0.1023595929145813 0.14391973614692688
			vertex 0.03765802085399628 0.13009285926818848 0.14171770215034485
			vertex 0.06848631799221039 0.12139441072940826 0.17185945808887482
		endloop
	endfacet
	facet normal -1 0 0
		outer loop
			vertex -0.10000000149011612 0.1023595929145813 0.17998358607292175
			vertex -0.10000000149011612 0.1023595929145813 0.18340374529361725
			vertex -0.10000000149011612 0.1148669421672821 0.17309562861919403
		endloop
	endfacet
	facet normal -1 0 0
		outer loop
			vertex -0.10000000149011612 0.1023595929145813 0.17998358607292175
			vertex -0.10000000149011612 0.1148669421672821 0.17309562861919403
			vertex -0.10000000149011612 0.1148916557431221 0.1709434986114502
		endloop
	endfacet
	facet normal -1 0 0
		outer loop
			vertex -0.10000000149011612 0.11426199227571487 0.14676013588905334
			vertex -0.10000000149011612 0.11411259323358536 0.1471417397260666
			vertex -0.10000000149011612 0.11431724578142166 0.1472361832857132
		endloop
	endfacet
	facet normal -1 0 0
		outer loop
			vertex -0.10000000149011612 0.1023595929145813 0.1771593689918518
			vertex -0.10000000149011612 0.1023595929145813 0.17998358607292175
			vertex -0.10000000149011612 0.1148916557431221 0.1709434986114502
		endloop
	endfacet
	facet normal -1 0 0
		outer loop
			vertex -0.10000000149011612 0.1023595929145813 0.1771593689918518
			vertex -0.10000000149011612 0.1148916557431221 0.1709434986114502
			vertex -0.10000000149011612 0.11508763581514359 0.15387354791164398
		endloop
	endfacet
	facet normal -1 0 0
		outer loop
			vertex -0.10000000149011612 0.1023595929145813 0.1771593689918518
			vertex -0.10000000149011612 0.11508763581514359 0.15387354791164398
			vertex -0.10000000149011612 0.11431724578142166 0.1472361832857132
		endloop
	endfacet
	facet normal -1 0 0
		outer loop
			vertex -0.10000000149011612 0.1023595929145813 0.1771593689918518
			vertex -0.10000000149011612 0.11431724578142166 0.1472361832857132
			vertex -0.10000000149011612 0.11411259323358536 0.1471417397260666
		endloop
	endfacet
	facet normal -1 0 0
		outer loop
			vertex -0.10000000149011612 0.11367673426866531 0.14171770215034485
			vertex -0.10000000149011612 0.1023595929145813 0.14171770215034485
			vertex -0.10000000149011612 0.11411259323358536 0.1471417397260666
		endloop
	endfacet
	facet normal -1 0 0
		outer loop
			vertex -0.10000000149011612 0.11367673426866531 0.14171770215034485
			vertex -0.10000000149011612 0.11411259323358536 0.1471417397260666
			vertex -0.10000000149011612 0.11426199227571487 0.14676013588905334
		endloop
	endfacet
	facet normal -1 0 0
		outer loop
			vertex -0.10000000149011612 0.1023595929145813 0.14171770215034485
			vertex -0.10000000149011612 0.1023595929145813 0.1771593689918518
			vertex -0.10000000149011612 0.11411259323358536 0.1471417397260666
		endloop
	endfacet
	facet normal 0 -1 0
		outer loop
			vertex -0.10000000149011612 0.1023595929145813 0.18340374529361725
			vertex -0.10000000149011612 0.1023595929145813 0.17998358607292175
			vertex -0.08258557319641113 0.1023595929145813 0.21178129315376282
		endloop
	endfacet
	facet normal 0 -1 0
		outer loop
			vertex -0.10000000149011612 0.1023595929145813 0.18340374529361725
			vertex -0.08258557319641113 0.1023595929145813 0.21178129315376282
			vertex -0.08501892536878586 0.1023595929145813 0.20923173427581787
		endloop
	endfacet
	facet normal 0 -1 0
		outer loop
			vertex 0.035935916006565094 0.1023595929145813 0.23619616031646729
			vertex 0.03388490155339241 0.1023595929145813 0.23619616031646729
			vertex 0.037886448204517365 0.1023595929145813 0.23529407382011414
		endloop
	endfacet
	facet normal 0 -1 0
		outer loop
			vertex 0.04588007181882858 0.1023595929145813 0.22325395047664642
			vertex 0.047354478389024734 0.1023595929145813 0.22529558837413788
			vertex 0.037886373698711395 0.1023595929145813 0.23529407382011414
		endloop
	endfacet
	facet normal 0 -1 0
		outer loop
			vertex -0.10000000149011612 0.1023595929145813 0.17998358607292175
			vertex -0.10000000149011612 0.1023595929145813 0.1771593689918518
			vertex 0.03826180472970009 0.1023595929145813 0.21270480751991272
		endloop
	endfacet
	facet normal 0 -1 0
		outer loop
			vertex -0.10000000149011612 0.1023595929145813 0.17998358607292175
			vertex 0.03826180472970009 0.1023595929145813 0.21270480751991272
			vertex 0.04588007181882858 0.1023595929145813 0.22325395047664642
		endloop
	endfacet
	facet normal 0 -1 0
		outer loop
			vertex -0.10000000149011612 0.1023595929145813 0.17998358607292175
			vertex 0.04588007181882858 0.1023595929145813 0.22325395047664642
			vertex 0.037886373698711395 0.1023595929145813 0.23529407382011414
		endloop
	endfacet
	facet normal 0 -1 0
		outer loop
			vertex -0.10000000149011612 0.1023595929145813 0.17998358607292175
			vertex 0.037886373698711395 0.1023595929145813 0.23529407382011414
			vertex 0.03388490155339241 0.1023595929145813 0.23619616031646729
		endloop
	endfacet
	facet normal 0 -1 0
		outer loop
			vertex -0.10000000149011612 0.1023595929145813 0.17998358607292175
			vertex 0.03388490155339241 0.1023595929145813 0.23619616031646729
			vertex -0.06292958557605743 0.1023595929145813 0.23619616031646729
		endloop
	endfacet
	facet normal 0 -1 0
		outer loop
			vertex -0.10000000149011612 0.1023595929145813 0.17998358607292175
			vertex -0.06292958557605743 0.1023595929145813 0.23619616031646729
			vertex -0.07159916311502457 0.1023595929145813 0.23184186220169067
		endloop
	endfacet
	facet normal 0 -1 0
		outer loop
			vertex 0.03826180472970009 0.1023595929145813 0.21270480751991272
			vertex 0.05516280606389046 0.1023595929145813 0.21704983711242676
			vertex 0.047354478389024734 0.1023595929145813 0.22529558837413788
		endloop
	endfacet
	facet normal 0 -1 0
		outer loop
			vertex -0.10000000149011612 0.1023595929145813 0.1771593689918518
			vertex -0.10000000149011612 0.1023595929145813 0.14171770215034485
			vertex -0.09203886985778809 0.1023595929145813 0.14547847211360931
		endloop
	endfacet
	facet normal 0 -1 0
		outer loop
			vertex -0.10000000149011612 0.1023595929145813 0.1771593689918518
			vertex -0.09203886985778809 0.1023595929145813 0.14547847211360931
			vertex -0.08117183297872543 0.1023595929145813 0.18199986219406128
		endloop
	endfacet
	facet normal 0 -1 0
		outer loop
			vertex -0.10000000149011612 0.1023595929145813 0.14171770215034485
			vertex -0.09315789490938187 0.1023595929145813 0.14171770215034485
			vertex -0.09203886985778809 0.1023595929145813 0.14547847211360931
		endloop
	endfacet
	facet normal 0 -1 0
		outer loop
			vertex -0.09203886985778809 0.1023595929145813 0.14547847211360931
			vertex -0.001970092998817563 0.1023595929145813 0.18802626430988312
			vertex -0.004280396271497011 0.1023595929145813 0.2017677277326584
		endloop
	endfacet
	facet normal 0 -1 0
		outer loop
			vertex -0.09203886985778809 0.1023595929145813 0.14547847211360931
			vertex -0.004280396271497011 0.1023595929145813 0.2017677277326584
			vertex -0.08117183297872543 0.1023595929145813 0.18199986219406128
		endloop
	endfacet
	facet normal 0 -1 0
		outer loop
			vertex -0.09315789490938187 0.1023595929145813 0.14171770215034485
			vertex -0.013002862222492695 0.1023595929145813 0.14171770215034485
			vertex 0.002261865185573697 0.1023595929145813 0.16285504400730133
		endloop
	endfacet
	facet normal 0 -1 0
		outer loop
			vertex -0.09315789490938187 0.1023595929145813 0.14171770215034485
			vertex 0.002261865185573697 0.1023595929145813 0.16285504400730133
			vertex -0.001970092998817563 0.1023595929145813 0.18802626430988312
		endloop
	endfacet
	facet normal 0 -1 0
		outer loop
			vertex -0.09315789490938187 0.1023595929145813 0.14171770215034485
			vertex -0.001970092998817563 0.1023595929145813 0.18802626430988312
			vertex -0.09203886985778809 0.1023595929145813 0.14547847211360931
		endloop
	endfacet
	facet normal 0 -1 0
		outer loop
			vertex -0.001970092998817563 0.1023595929145813 0.18802626430988312
			vertex 0.03204331547021866 0.1023595929145813 0.20409394800662994
			vertex 0.03826180472970009 0.1023595929145813 0.21270480751991272
		endloop
	endfacet
	facet normal 0 -1 0
		outer loop
			vertex -0.001970092998817563 0.1023595929145813 0.18802626430988312
			vertex 0.03826180472970009 0.1023595929145813 0.21270480751991272
			vertex -0.004280396271497011 0.1023595929145813 0.2017677277326584
		endloop
	endfacet
	facet normal 0 -1 0
		outer loop
			vertex 0.002261865185573697 0.1023595929145813 0.16285504400730133
			vertex 0.03204331547021866 0.1023595929145813 0.20409394800662994
			vertex -0.001970092998817563 0.1023595929145813 0.18802626430988312
		endloop
	endfacet
	facet normal 0 -1 0
		outer loop
			vertex 0.041251130402088165 0.1023595929145813 0.20963989198207855
			vertex 0.04471544176340103 0.1023595929145813 0.2143639475107193
			vertex 0.03826180472970009 0.1023595929145813 0.21270480751991272
		endloop
	endfacet
	facet normal 0 -1 0
		outer loop
			vertex 0.041251130402088165 0.1023595929145813 0.20963989198207855
			vertex 0.03826180472970009 0.1023595929145813 0.21270480751991272
			vertex 0.036326661705970764 0.1023595929145813 0.21002517640590668
		endloop
	endfacet
	facet normal 0 -1 0
		outer loop
			vertex 0.03204331547021866 0.1023595929145813 0.20409394800662994
			vertex 0.039908915758132935 0.1023595929145813 0.20780959725379944
			vertex 0.041251130402088165 0.1023595929145813 0.20963989198207855
		endloop
	endfacet
	facet normal 0 -1 0
		outer loop
			vertex 0.03204331547021866 0.1023595929145813 0.20409394800662994
			vertex 0.041251130402088165 0.1023595929145813 0.20963989198207855
			vertex 0.036326661705970764 0.1023595929145813 0.21002517640590668
		endloop
	endfacet
	facet normal 0 -1 0
		outer loop
			vertex 0.025330619886517525 0.1023595929145813 0.18793009221553802
			vertex 0.039908915758132935 0.1023595929145813 0.20780959725379944
			vertex 0.03204331547021866 0.1023595929145813 0.20409394800662994
		endloop
	endfacet
	facet normal 0 -1 0
		outer loop
			vertex 0.025330619886517525 0.1023595929145813 0.18793009221553802
			vertex 0.03204331547021866 0.1023595929145813 0.20409394800662994
			vertex 0.02320985123515129 0.1023595929145813 0.1918620765209198
		endloop
	endfacet
	facet normal 0 -1 0
		outer loop
			vertex -0.006207931321114302 0.1023595929145813 0.14492298662662506
			vertex 0.025330619886517525 0.1023595929145813 0.18793009221553802
			vertex 0.02320985123515129 0.1023595929145813 0.1918620765209198
		endloop
	endfacet
	facet normal 0 -1 0
		outer loop
			vertex -0.006207931321114302 0.1023595929145813 0.14492298662662506
			vertex 0.02320985123515129 0.1023595929145813 0.1918620765209198
			vertex -0.008795198053121567 0.1023595929145813 0.14754413068294525
		endloop
	endfacet
	facet normal 0 -1 0
		outer loop
			vertex -0.013002862222492695 0.1023595929145813 0.14171770215034485
			vertex -0.008558474481105804 0.1023595929145813 0.14171770215034485
			vertex -0.006207931321114302 0.1023595929145813 0.14492298662662506
		endloop
	endfacet
	facet normal 0 -1 0
		outer loop
			vertex -0.013002862222492695 0.1023595929145813 0.14171770215034485
			vertex -0.006207931321114302 0.1023595929145813 0.14492298662662506
			vertex -0.008795198053121567 0.1023595929145813 0.14754413068294525
		endloop
	endfacet
	facet normal 0 -1 0
		outer loop
			vertex 0.052260179072618484 0.1023595929145813 0.21364423632621765
			vertex 0.05649387463927269 0.1023595929145813 0.2156442105770111
			vertex 0.05516280606389046 0.1023595929145813 0.21704983711242676
		endloop
	endfacet
	facet normal 0 -1 0
		outer loop
			vertex 0.052260179072618484 0.1023595929145813 0.21364423632621765
			vertex 0.05516280606389046 0.1023595929145813 0.21704983711242676
			vertex 0.05075198784470558 0.1023595929145813 0.21591587364673615
		endloop
	endfacet
	facet normal 0 -1 0
		outer loop
			vertex 0.05649387463927269 0.1023595929145813 0.2156442105770111
			vertex 0.052260179072618484 0.1023595929145813 0.21364423632621765
			vertex 0.05566761642694473 0.1023595929145813 0.20851196348667145
		endloop
	endfacet
	facet normal 0 -1 0
		outer loop
			vertex 0.05649387463927269 0.1023595929145813 0.2156442105770111
			vertex 0.05566761642694473 0.1023595929145813 0.20851196348667145
			vertex 0.06385432183742523 0.1023595929145813 0.2078714370727539
		endloop
	endfacet
	facet normal 0 -1 0
		outer loop
			vertex 0.043423622846603394 0.1023595929145813 0.20946991443634033
			vertex 0.052260179072618484 0.1023595929145813 0.21364423632621765
			vertex 0.05075198784470558 0.1023595929145813 0.21591587364673615
		endloop
	endfacet
	facet normal 0 -1 0
		outer loop
			vertex 0.043423622846603394 0.1023595929145813 0.20946991443634033
			vertex 0.05075198784470558 0.1023595929145813 0.21591587364673615
			vertex 0.04471544176340103 0.1023595929145813 0.2143639475107193
		endloop
	endfacet
	facet normal 0 -1 0
		outer loop
			vertex 0.043423622846603394 0.1023595929145813 0.20946991443634033
			vertex 0.04471544176340103 0.1023595929145813 0.2143639475107193
			vertex 0.041251130402088165 0.1023595929145813 0.20963989198207855
		endloop
	endfacet
	facet normal 0 -1 0
		outer loop
			vertex 0.052260179072618484 0.1023595929145813 0.21364423632621765
			vertex 0.043423622846603394 0.1023595929145813 0.20946991443634033
			vertex 0.05566761642694473 0.1023595929145813 0.20851196348667145
		endloop
	endfacet
	facet normal 0 -1 0
		outer loop
			vertex 0.084491066634655 0.1023595929145813 0.17412316799163818
			vertex 0.07691415399312973 0.1023595929145813 0.19408001005649567
			vertex 0.06385432183742523 0.1023595929145813 0.2078714370727539
		endloop
	endfacet
	facet normal 0 -1 0
		outer loop
			vertex 0.084491066634655 0.1023595929145813 0.17412316799163818
			vertex 0.06385432183742523 0.1023595929145813 0.2078714370727539
			vertex 0.05566761642694473 0.1023595929145813 0.20851196348667145
		endloop
	endfacet
	facet normal 0 -1 0
		outer loop
			vertex 0.084491066634655 0.1023595929145813 0.17412316799163818
			vertex 0.05566761642694473 0.1023595929145813 0.20851196348667145
			vertex 0.08833430707454681 0.1023595929145813 0.15930943191051483
		endloop
	endfacet
	facet normal 0 -1 0
		outer loop
			vertex 0.039908915758132935 0.1023595929145813 0.20780959725379944
			vertex 0.043423622846603394 0.1023595929145813 0.20946991443634033
			vertex 0.041251130402088165 0.1023595929145813 0.20963989198207855
		endloop
	endfacet
	facet normal 0 -1 0
		outer loop
			vertex 0.08833430707454681 0.1023595929145813 0.15930943191051483
			vertex 0.05566761642694473 0.1023595929145813 0.20851196348667145
			vertex 0.043423622846603394 0.1023595929145813 0.20946991443634033
		endloop
	endfacet
	facet normal 0 -1 0
		outer loop
			vertex 0.08833430707454681 0.1023595929145813 0.15930943191051483
			vertex 0.043423622846603394 0.1023595929145813 0.20946991443634033
			vertex 0.039908915758132935 0.1023595929145813 0.20780959725379944
		endloop
	endfacet
	facet normal 0 -1 0
		outer loop
			vertex 0.08833430707454681 0.1023595929145813 0.15930943191051483
			vertex 0.039908915758132935 0.1023595929145813 0.20780959725379944
			vertex 0.038324687629938126 0.1023595929145813 0.20564928650856018
		endloop
	endfacet
	facet normal 0 -1 0
		outer loop
			vertex 0.08833430707454681 0.1023595929145813 0.15930943191051483
			vertex 0.038324687629938126 0.1023595929145813 0.20564928650856018
			vertex 0.0894642099738121 0.1023595929145813 0.15495418012142181
		endloop
	endfacet
	facet normal 0 -1 0
		outer loop
			vertex 0.06743878126144409 0.1023595929145813 0.14171770215034485
			vertex 0.0913039967417717 0.1023595929145813 0.14171770215034485
			vertex 0.09232696145772934 0.1023595929145813 0.14391973614692688
		endloop
	endfacet
	facet normal 0 -1 0
		outer loop
			vertex 0.06743878126144409 0.1023595929145813 0.14171770215034485
			vertex 0.09232696145772934 0.1023595929145813 0.14391973614692688
			vertex 0.0894642099738121 0.1023595929145813 0.15495418012142181
		endloop
	endfacet
	facet normal 0 -1 0
		outer loop
			vertex 0.06743878126144409 0.1023595929145813 0.14171770215034485
			vertex 0.0894642099738121 0.1023595929145813 0.15495418012142181
			vertex 0.038324687629938126 0.1023595929145813 0.20564928650856018
		endloop
	endfacet
	facet normal 0 -1 0
		outer loop
			vertex 0.06743878126144409 0.1023595929145813 0.14171770215034485
			vertex 0.038324687629938126 0.1023595929145813 0.20564928650856018
			vertex 0.03430762141942978 0.1023595929145813 0.20017147064208984
		endloop
	endfacet
	facet normal 0 -1 0
		outer loop
			vertex 0.03625710681080818 0.1023595929145813 0.14171770215034485
			vertex 0.06743878126144409 0.1023595929145813 0.14171770215034485
			vertex 0.03430762141942978 0.1023595929145813 0.20017147064208984
		endloop
	endfacet
	facet normal 0 -1 0
		outer loop
			vertex 0.03625710681080818 0.1023595929145813 0.14171770215034485
			vertex 0.03430762141942978 0.1023595929145813 0.20017147064208984
			vertex 0.00834408588707447 0.1023595929145813 0.16476665437221527
		endloop
	endfacet
	facet normal 0 -1 0
		outer loop
			vertex 0.03391968831419945 0.1023595929145813 0.14171770215034485
			vertex 0.03625710681080818 0.1023595929145813 0.14171770215034485
			vertex 0.00834408588707447 0.1023595929145813 0.16476665437221527
		endloop
	endfacet
	facet normal 0 -1 0
		outer loop
			vertex 0.03391968831419945 0.1023595929145813 0.14171770215034485
			vertex 0.00834408588707447 0.1023595929145813 0.16476665437221527
			vertex 0.006902684923261404 0.1023595929145813 0.1628011018037796
		endloop
	endfacet
	facet normal 0 -1 0
		outer loop
			vertex -0.008558474481105804 0.1023595929145813 0.14171770215034485
			vertex 0.03391968831419945 0.1023595929145813 0.14171770215034485
			vertex 0.006902684923261404 0.1023595929145813 0.1628011018037796
		endloop
	endfacet
	facet normal 0 0 1
		outer loop
			vertex -0.049199339002370834 0.1183384358882904 0.23619616031646729
			vertex -0.02298581600189209 0.148844912648201 0.23619616031646729
			vertex -0.03862098976969719 0.14717034995555878 0.23619616031646729
		endloop
	endfacet
	facet normal 0 0 1
		outer loop
			vertex -0.049199339002370834 0.1183384358882904 0.23619616031646729
			vertex -0.03862098976969719 0.14717034995555878 0.23619616031646729
			vertex -0.053673263639211655 0.13663533329963684 0.23619616031646729
		endloop
	endfacet
	facet normal 0 0 1
		outer loop
			vertex -0.02298581600189209 0.148844912648201 0.23619616031646729
			vertex -0.023948000743985176 0.1477251499891281 0.23619616031646729
			vertex -0.011677872389554977 0.1492426097393036 0.23619616031646729
		endloop
	endfacet
	facet normal 0 0 1
		outer loop
			vertex -0.02298581600189209 0.148844912648201 0.23619616031646729
			vertex -0.011677872389554977 0.1492426097393036 0.23619616031646729
			vertex -0.017108937725424767 0.1494743525981903 0.23619616031646729
		endloop
	endfacet
	facet normal 0 0 1
		outer loop
			vertex 0.03388490155339241 0.1023595929145813 0.23619616031646729
			vertex 0.035935916006565094 0.1023595929145813 0.23619616031646729
			vertex 0.03629104420542717 0.10377947986125946 0.23619616031646729
		endloop
	endfacet
	facet normal 0 0 1
		outer loop
			vertex 0.03388490155339241 0.1023595929145813 0.23619616031646729
			vertex 0.03629104420542717 0.10377947986125946 0.23619616031646729
			vertex 0.032996468245983124 0.13498231768608093 0.23619616031646729
		endloop
	endfacet
	facet normal 0 0 1
		outer loop
			vertex 0.03388490155339241 0.1023595929145813 0.23619616031646729
			vertex 0.032996468245983124 0.13498231768608093 0.23619616031646729
			vertex 0.01291175652295351 0.1481933742761612 0.23619616031646729
		endloop
	endfacet
	facet normal 0 0 1
		outer loop
			vertex 0.03388490155339241 0.1023595929145813 0.23619616031646729
			vertex 0.01291175652295351 0.1481933742761612 0.23619616031646729
			vertex -0.011677872389554977 0.1492426097393036 0.23619616031646729
		endloop
	endfacet
	facet normal 0 0 1
		outer loop
			vertex 0.03388490155339241 0.1023595929145813 0.23619616031646729
			vertex -0.011677872389554977 0.1492426097393036 0.23619616031646729
			vertex -0.023948000743985176 0.1477251499891281 0.23619616031646729
		endloop
	endfacet
	facet normal 0 0 1
		outer loop
			vertex 0.03388490155339241 0.1023595929145813 0.23619616031646729
			vertex -0.023948000743985176 0.1477251499891281 0.23619616031646729
			vertex -0.055913716554641724 0.11052445322275162 0.23619616031646729
		endloop
	endfacet
	facet normal 0 0 1
		outer loop
			vertex -0.06292958557605743 0.1023595929145813 0.23619616031646729
			vertex 0.03388490155339241 0.1023595929145813 0.23619616031646729
			vertex -0.055913716554641724 0.11052445322275162 0.23619616031646729
		endloop
	endfacet
	facet normal 0 0 -1
		outer loop
			vertex -0.014728903770446777 0.14244332909584045 0.14171770215034485
			vertex -0.013973286375403404 0.12489568442106247 0.14171770215034485
			vertex -0.09052396565675735 0.11719014495611191 0.14171770215034485
		endloop
	endfacet
	facet normal 0 0 -1
		outer loop
			vertex -0.014728903770446777 0.14244332909584045 0.14171770215034485
			vertex -0.09052396565675735 0.11719014495611191 0.14171770215034485
			vertex -0.019156813621520996 0.14189574122428894 0.14171770215034485
		endloop
	endfacet
	facet normal 0 0 -1
		outer loop
			vertex 0.024890528991818428 0.13669323921203613 0.14171770215034485
			vertex 0.012023872695863247 0.13863275945186615 0.14171770215034485
			vertex 0.01136147789657116 0.13962425291538239 0.14171770215034485
		endloop
	endfacet
	facet normal 0 0 -1
		outer loop
			vertex 0.024890528991818428 0.13669323921203613 0.14171770215034485
			vertex 0.01136147789657116 0.13962425291538239 0.14171770215034485
			vertex 0.021367505192756653 0.13851454854011536 0.14171770215034485
		endloop
	endfacet
	facet normal 0 0 -1
		outer loop
			vertex 0.012023872695863247 0.13863275945186615 0.14171770215034485
			vertex 0.010329204611480236 0.13888821005821228 0.14171770215034485
			vertex 0.009737551212310791 0.13980434834957123 0.14171770215034485
		endloop
	endfacet
	facet normal 0 0 -1
		outer loop
			vertex 0.012023872695863247 0.13863275945186615 0.14171770215034485
			vertex 0.009737551212310791 0.13980434834957123 0.14171770215034485
			vertex 0.01136147789657116 0.13962425291538239 0.14171770215034485
		endloop
	endfacet
	facet normal 0 0 -1
		outer loop
			vertex 0.010329204611480236 0.13888821005821228 0.14171770215034485
			vertex -0.011022167280316353 0.14210669696331024 0.14171770215034485
			vertex 0.009737551212310791 0.13980434834957123 0.14171770215034485
		endloop
	endfacet
	facet normal 0 0 -1
		outer loop
			vertex 0.03765802085399628 0.13009285926818848 0.14171770215034485
			vertex 0.028429968282580376 0.1291639804840088 0.14171770215034485
			vertex 0.0153878815472126 0.13812567293643951 0.14171770215034485
		endloop
	endfacet
	facet normal 0 0 -1
		outer loop
			vertex 0.03765802085399628 0.13009285926818848 0.14171770215034485
			vertex 0.0153878815472126 0.13812567293643951 0.14171770215034485
			vertex 0.024890528991818428 0.13669323921203613 0.14171770215034485
		endloop
	endfacet
	facet normal 0 0 -1
		outer loop
			vertex 0.028429968282580376 0.1291639804840088 0.14171770215034485
			vertex 0.017330719158053398 0.12804673612117767 0.14171770215034485
			vertex 0.010329204611480236 0.13888821005821228 0.14171770215034485
		endloop
	endfacet
	facet normal 0 0 -1
		outer loop
			vertex 0.028429968282580376 0.1291639804840088 0.14171770215034485
			vertex 0.010329204611480236 0.13888821005821228 0.14171770215034485
			vertex 0.0153878815472126 0.13812567293643951 0.14171770215034485
		endloop
	endfacet
	facet normal 0 0 -1
		outer loop
			vertex 0.017330719158053398 0.12804673612117767 0.14171770215034485
			vertex -0.013973286375403404 0.12489568442106247 0.14171770215034485
			vertex -0.014728903770446777 0.14244332909584045 0.14171770215034485
		endloop
	endfacet
	facet normal 0 0 -1
		outer loop
			vertex 0.017330719158053398 0.12804673612117767 0.14171770215034485
			vertex -0.014728903770446777 0.14244332909584045 0.14171770215034485
			vertex -0.013919515535235405 0.14254342019557953 0.14171770215034485
		endloop
	endfacet
	facet normal 0 0 -1
		outer loop
			vertex 0.017330719158053398 0.12804673612117767 0.14171770215034485
			vertex -0.013919515535235405 0.14254342019557953 0.14171770215034485
			vertex 0.010329204611480236 0.13888821005821228 0.14171770215034485
		endloop
	endfacet
	facet normal 0 0 -1
		outer loop
			vertex -0.09315789490938187 0.1023595929145813 0.14171770215034485
			vertex -0.10000000149011612 0.1023595929145813 0.14171770215034485
			vertex -0.10000000149011612 0.11367673426866531 0.14171770215034485
		endloop
	endfacet
	facet normal 0 0 -1
		outer loop
			vertex -0.09315789490938187 0.1023595929145813 0.14171770215034485
			vertex -0.10000000149011612 0.11367673426866531 0.14171770215034485
			vertex -0.09862135350704193 0.11438702791929245 0.14171770215034485
		endloop
	endfacet
	facet normal 0 0 -1
		outer loop
			vertex -0.09315789490938187 0.1023595929145813 0.14171770215034485
			vertex -0.09862135350704193 0.11438702791929245 0.14171770215034485
			vertex -0.09052396565675735 0.11719014495611191 0.14171770215034485
		endloop
	endfacet
	facet normal 0 0 -1
		outer loop
			vertex -0.09315789490938187 0.1023595929145813 0.14171770215034485
			vertex -0.09052396565675735 0.11719014495611191 0.14171770215034485
			vertex -0.09045252948999405 0.11719733476638794 0.14171770215034485
		endloop
	endfacet
	facet normal 0 0 -1
		outer loop
			vertex -0.013002862222492695 0.1023595929145813 0.14171770215034485
			vertex -0.09315789490938187 0.1023595929145813 0.14171770215034485
			vertex -0.09045252948999405 0.11719733476638794 0.14171770215034485
		endloop
	endfacet
	facet normal 0 0 -1
		outer loop
			vertex -0.013002862222492695 0.1023595929145813 0.14171770215034485
			vertex -0.09045252948999405 0.11719733476638794 0.14171770215034485
			vertex -0.013973286375403404 0.12489568442106247 0.14171770215034485
		endloop
	endfacet
	facet normal 0 0 -1
		outer loop
			vertex -0.013354388996958733 0.11052308231592178 0.14171770215034485
			vertex -0.013973286375403404 0.12489568442106247 0.14171770215034485
			vertex -0.010843583382666111 0.1252107322216034 0.14171770215034485
		endloop
	endfacet
	facet normal 0 0 -1
		outer loop
			vertex -0.013354388996958733 0.11052308231592178 0.14171770215034485
			vertex -0.010843583382666111 0.1252107322216034 0.14171770215034485
			vertex -0.009032635018229485 0.10710121691226959 0.14171770215034485
		endloop
	endfacet
	facet normal 0 0 -1
		outer loop
			vertex -0.008558474481105804 0.1023595929145813 0.14171770215034485
			vertex -0.013002862222492695 0.1023595929145813 0.14171770215034485
			vertex -0.013354388996958733 0.11052308231592178 0.14171770215034485
		endloop
	endfacet
	facet normal 0 0 -1
		outer loop
			vertex -0.008558474481105804 0.1023595929145813 0.14171770215034485
			vertex -0.013354388996958733 0.11052308231592178 0.14171770215034485
			vertex -0.009032635018229485 0.10710121691226959 0.14171770215034485
		endloop
	endfacet
	facet normal 0 0 -1
		outer loop
			vertex 0.0913039967417717 0.1023595929145813 0.14171770215034485
			vertex 0.06743878126144409 0.1023595929145813 0.14171770215034485
			vertex 0.028429968282580376 0.1291639804840088 0.14171770215034485
		endloop
	endfacet
	facet normal 0 0 -1
		outer loop
			vertex 0.0913039967417717 0.1023595929145813 0.14171770215034485
			vertex 0.028429968282580376 0.1291639804840088 0.14171770215034485
			vertex 0.03765802085399628 0.13009285926818848 0.14171770215034485
		endloop
	endfacet
	facet normal 0 0 -1
		outer loop
			vertex 0.06743878126144409 0.1023595929145813 0.14171770215034485
			vertex 0.03625710681080818 0.1023595929145813 0.14171770215034485
			vertex 0.018984902650117874 0.12821324169635773 0.14171770215034485
		endloop
	endfacet
	facet normal 0 0 -1
		outer loop
			vertex 0.06743878126144409 0.1023595929145813 0.14171770215034485
			vertex 0.018984902650117874 0.12821324169635773 0.14171770215034485
			vertex 0.028429968282580376 0.1291639804840088 0.14171770215034485
		endloop
	endfacet
	facet normal 0 0 -1
		outer loop
			vertex 0.03625710681080818 0.1023595929145813 0.14171770215034485
			vertex 0.03391968831419945 0.1023595929145813 0.14171770215034485
			vertex 0.017330719158053398 0.12804673612117767 0.14171770215034485
		endloop
	endfacet
	facet normal 0 0 -1
		outer loop
			vertex 0.03625710681080818 0.1023595929145813 0.14171770215034485
			vertex 0.017330719158053398 0.12804673612117767 0.14171770215034485
			vertex 0.018984902650117874 0.12821324169635773 0.14171770215034485
		endloop
	endfacet
	facet normal 0 0 -1
		outer loop
			vertex -0.003927013371139765 0.12590694427490234 0.14171770215034485
			vertex 0.017330719158053398 0.12804673612117767 0.14171770215034485
			vertex 0.02885901741683483 0.11019577085971832 0.14171770215034485
		endloop
	endfacet
	facet normal 0 0 -1
		outer loop
			vertex 0.03391968831419945 0.1023595929145813 0.14171770215034485
			vertex -0.008558474481105804 0.1023595929145813 0.14171770215034485
			vertex -0.010843583382666111 0.1252107322216034 0.14171770215034485
		endloop
	endfacet
	facet normal 0 0 -1
		outer loop
			vertex 0.03391968831419945 0.1023595929145813 0.14171770215034485
			vertex -0.010843583382666111 0.1252107322216034 0.14171770215034485
			vertex -0.003927013371139765 0.12590694427490234 0.14171770215034485
		endloop
	endfacet
	facet normal 0 0 -1
		outer loop
			vertex 0.03391968831419945 0.1023595929145813 0.14171770215034485
			vertex -0.003927013371139765 0.12590694427490234 0.14171770215034485
			vertex 0.02885901741683483 0.11019577085971832 0.14171770215034485
		endloop
	endfacet
endsolid exported
