solid exported
	facet normal -0.15912828478561997 0.049223997749928736 0.9860300132484313
		outer loop
			vertex -0.04935194179415703 0.13426387310028076 0.24410101771354675
			vertex -0.040378861129283905 0.10335659235715866 0.24709205329418182
			vertex 0.006148221902549267 0.13060817122459412 0.25324028730392456
		endloop
	endfacet
	facet normal 0.055848131768857674 0.9275226023568239 0.3695711139891124
		outer loop
			vertex -0.03710494190454483 0.1023595929145813 0.2490995079278946
			vertex -0.03253103792667389 0.1023595929145813 0.24840831756591797
			vertex -0.040378861129283905 0.10335659235715866 0.24709205329418182
		endloop
	endfacet
	facet normal -0.07879428951143425 0.8356759367422817 0.5435413403691557
		outer loop
			vertex -0.04030381888151169 0.1023595929145813 0.24863578379154205
			vertex -0.03710494190454483 0.1023595929145813 0.2490995079278946
			vertex -0.040378861129283905 0.10335659235715866 0.24709205329418182
		endloop
	endfacet
	facet normal -0.5485897716824462 0.6899428070698052 0.47225860011019316
		outer loop
			vertex -0.04030381888151169 0.1023595929145813 0.24863578379154205
			vertex -0.040378861129283905 0.10335659235715866 0.24709205329418182
			vertex -0.04178531467914581 0.1023595929145813 0.2469148337841034
		endloop
	endfacet
	facet normal -0.0930850454737629 -0.06522213220950007 0.9935196262677423
		outer loop
			vertex -0.029890453442931175 0.1023595929145813 0.24800929427146912
			vertex 0.0036073443479835987 0.1023595929145813 0.2511477768421173
			vertex 0.006148221902549267 0.13060817122459412 0.25324028730392456
		endloop
	endfacet
	facet normal -0.09308584709119089 -0.06522110807231848 0.9935196183936856
		outer loop
			vertex -0.029890453442931175 0.1023595929145813 0.24800929427146912
			vertex 0.006148221902549267 0.13060817122459412 0.25324028730392456
			vertex -0.040378861129283905 0.10335659235715866 0.24709205329418182
		endloop
	endfacet
	facet normal 0.055847188731100283 0.9275209250363076 0.36957546608321434
		outer loop
			vertex -0.03253103792667389 0.1023595929145813 0.24840831756591797
			vertex -0.029890453442931175 0.1023595929145813 0.24800929427146912
			vertex -0.040378861129283905 0.10335659235715866 0.24709205329418182
		endloop
	endfacet
	facet normal -0.5485071892159274 0.6897624534752614 0.4726178383792032
		outer loop
			vertex -0.04178531467914581 0.1023595929145813 0.2469148337841034
			vertex -0.040378861129283905 0.10335659235715866 0.24709205329418182
			vertex -0.04180406033992767 0.1023595929145813 0.24689307808876038
		endloop
	endfacet
	facet normal -0.4187617949139055 0.3598197773676121 0.8337675257142161
		outer loop
			vertex -0.06292958557605743 0.1023595929145813 0.23619616031646729
			vertex -0.04193532466888428 0.1023595929145813 0.24674057960510254
			vertex -0.040378861129283905 0.10335659235715866 0.24709205329418182
		endloop
	endfacet
	facet normal -0.418760316380493 0.35983095951562055 0.8337634424697318
		outer loop
			vertex -0.06292958557605743 0.1023595929145813 0.23619616031646729
			vertex -0.040378861129283905 0.10335659235715866 0.24709205329418182
			vertex -0.049199339002370834 0.1183384358882904 0.23619616031646729
		endloop
	endfacet
	facet normal -0.8825700656652375 -0.2158044542606068 0.4177301960750985
		outer loop
			vertex -0.04935194179415703 0.13426387310028076 0.24410101771354675
			vertex -0.053673263639211655 0.13663533329963684 0.23619616031646729
			vertex -0.049199339002370834 0.1183384358882904 0.23619616031646729
		endloop
	endfacet
	facet normal -0.8825701248267761 -0.2158044053310744 0.4177300963576245
		outer loop
			vertex -0.04935194179415703 0.13426387310028076 0.24410101771354675
			vertex -0.049199339002370834 0.1183384358882904 0.23619616031646729
			vertex -0.040378861129283905 0.10335659235715866 0.24709205329418182
		endloop
	endfacet
	facet normal -0.5485963886489776 0.6899715822731926 0.4722088711753805
		outer loop
			vertex -0.04180406033992767 0.1023595929145813 0.24689307808876038
			vertex -0.040378861129283905 0.10335659235715866 0.24709205329418182
			vertex -0.04193532466888428 0.1023595929145813 0.24674057960510254
		endloop
	endfacet
	facet normal -0.5004605150755339 0.7150504816298251 0.48810048306807324
		outer loop
			vertex -0.03862098976969719 0.14717034995555878 0.23619616031646729
			vertex -0.053673263639211655 0.13663533329963684 0.23619616031646729
			vertex -0.04935194179415703 0.13426387310028076 0.24410101771354675
		endloop
	endfacet
	facet normal -0.500461627944497 0.715050600970876 0.48809916718463386
		outer loop
			vertex -0.03862098976969719 0.14717034995555878 0.23619616031646729
			vertex -0.04935194179415703 0.13426387310028076 0.24410101771354675
			vertex -0.03539381921291351 0.1478896588087082 0.2384513020515442
		endloop
	endfacet
	facet normal 0.02943446627117556 0.6898118265922484 0.7233901133474226
		outer loop
			vertex -0.02166539989411831 0.14907945692539215 0.23675812780857086
			vertex -0.03539381921291351 0.1478896588087082 0.2384513020515442
			vertex -0.010608244687318802 0.13757887482643127 0.2472749650478363
		endloop
	endfacet
	facet normal -0.11220507575774759 0.47649715185967983 0.8719865166639971
		outer loop
			vertex -0.03539381921291351 0.1478896588087082 0.2384513020515442
			vertex -0.04935194179415703 0.13426387310028076 0.24410101771354675
			vertex -0.008766825310885906 0.1315906047821045 0.2507842183113098
		endloop
	endfacet
	facet normal -0.11220354537350614 0.4764990260436496 0.8719856894382323
		outer loop
			vertex -0.03539381921291351 0.1478896588087082 0.2384513020515442
			vertex -0.008766825310885906 0.1315906047821045 0.2507842183113098
			vertex -0.010608244687318802 0.13757887482643127 0.2472749650478363
		endloop
	endfacet
	facet normal -0.10507666219268295 0.9810871098121231 -0.16256376602102962
		outer loop
			vertex -0.02298581600189209 0.148844912648201 0.23619616031646729
			vertex -0.03862098976969719 0.14717034995555878 0.23619616031646729
			vertex -0.03539381921291351 0.1478896588087082 0.2384513020515442
		endloop
	endfacet
	facet normal -0.10507826410756234 0.9810853545567504 -0.16257332341561204
		outer loop
			vertex -0.02298581600189209 0.148844912648201 0.23619616031646729
			vertex -0.03539381921291351 0.1478896588087082 0.2384513020515442
			vertex -0.02166539989411831 0.14907945692539215 0.23675812780857086
		endloop
	endfacet
	facet normal 0.02943426873326345 0.6898138625365197 0.7233881799397787
		outer loop
			vertex -0.011677872389554977 0.1492426097393036 0.23619616031646729
			vertex -0.017108937725424767 0.1494743525981903 0.23619616031646729
			vertex -0.02166539989411831 0.14907945692539215 0.23675812780857086
		endloop
	endfacet
	facet normal 0.029434541199447686 0.6898099607382179 0.723391889538939
		outer loop
			vertex -0.011677872389554977 0.1492426097393036 0.23619616031646729
			vertex -0.02166539989411831 0.14907945692539215 0.23675812780857086
			vertex -0.020823827013373375 0.14820413291454315 0.23755857348442078
		endloop
	endfacet
	facet normal -0.10507864039066232 0.9810854538913274 -0.16257248074781294
		outer loop
			vertex -0.02298581600189209 0.148844912648201 0.23619616031646729
			vertex -0.02166539989411831 0.14907945692539215 0.23675812780857086
			vertex -0.017108937725424767 0.1494743525981903 0.23619616031646729
		endloop
	endfacet
	facet normal 0.3733519278021999 0.5676053077219461 0.7337796349397112
		outer loop
			vertex 0.01291175652295351 0.1481933742761612 0.23619616031646729
			vertex 0.006148221902549267 0.13060817122459412 0.25324028730392456
			vertex 0.032996468245983124 0.13498231768608093 0.23619616031646729
		endloop
	endfacet
	facet normal 0.02943414524455196 0.6898115192873379 0.7233904194501178
		outer loop
			vertex 0.01291175652295351 0.1481933742761612 0.23619616031646729
			vertex -0.011677872389554977 0.1492426097393036 0.23619616031646729
			vertex -0.020823827013373375 0.14820413291454315 0.23755857348442078
		endloop
	endfacet
	facet normal 0.02943413380881818 0.689811819210533 0.723390133914183
		outer loop
			vertex 0.01291175652295351 0.1481933742761612 0.23619616031646729
			vertex -0.020823827013373375 0.14820413291454315 0.23755857348442078
			vertex -0.010608244687318802 0.13757887482643127 0.2472749650478363
		endloop
	endfacet
	facet normal 0.029434340909922706 0.6898115848101115 0.7233903490073399
		outer loop
			vertex 0.01291175652295351 0.1481933742761612 0.23619616031646729
			vertex -0.010608244687318802 0.13757887482643127 0.2472749650478363
			vertex 0.006148221902549267 0.13060817122459412 0.25324028730392456
		endloop
	endfacet
	facet normal -0.11220404024351778 0.47649888251491496 0.8719857041919141
		outer loop
			vertex -0.008766825310885906 0.1315906047821045 0.2507842183113098
			vertex 0.006148221902549267 0.13060817122459412 0.25324028730392456
			vertex -0.010608244687318802 0.13757887482643127 0.2472749650478363
		endloop
	endfacet
	facet normal 0.41747493040588174 -0.1044152830003744 0.9026694473385904
		outer loop
			vertex 0.0036073443479835987 0.1023595929145813 0.2511477768421173
			vertex 0.035935912281274796 0.1023595854640007 0.23619616031646729
			vertex 0.03629104420542717 0.10377947986125946 0.23619616031646729
		endloop
	endfacet
	facet normal 0.4174749263886713 -0.10441579676421006 0.9026693897672996
		outer loop
			vertex 0.0036073443479835987 0.1023595929145813 0.2511477768421173
			vertex 0.03629104420542717 0.10377947986125946 0.23619616031646729
			vertex 0.006148221902549267 0.13060817122459412 0.25324028730392456
		endloop
	endfacet
	facet normal 0.5286221540814574 0.05581498228603059 0.8470202512140369
		outer loop
			vertex 0.03629104420542717 0.10377947986125946 0.23619616031646729
			vertex 0.032996468245983124 0.13498231768608093 0.23619616031646729
			vertex 0.006148221902549267 0.13060817122459412 0.25324028730392456
		endloop
	endfacet
	facet normal 0 -1 0
		outer loop
			vertex -0.04178531467914581 0.1023595929145813 0.2469148337841034
			vertex -0.03253103792667389 0.1023595929145813 0.24840831756591797
			vertex -0.03710494190454483 0.1023595929145813 0.2490995079278946
		endloop
	endfacet
	facet normal 0 -1 0
		outer loop
			vertex -0.04178531467914581 0.1023595929145813 0.2469148337841034
			vertex -0.03710494190454483 0.1023595929145813 0.2490995079278946
			vertex -0.04030381888151169 0.1023595929145813 0.24863578379154205
		endloop
	endfacet
	facet normal 0 -1 0
		outer loop
			vertex -0.03253103792667389 0.1023595929145813 0.24840831756591797
			vertex -0.04178531467914581 0.1023595929145813 0.2469148337841034
			vertex -0.04180406033992767 0.1023595929145813 0.24689307808876038
		endloop
	endfacet
	facet normal 0 -1 0
		outer loop
			vertex -0.03253103792667389 0.1023595929145813 0.24840831756591797
			vertex -0.04180406033992767 0.1023595929145813 0.24689307808876038
			vertex -0.029890453442931175 0.1023595929145813 0.24800929427146912
		endloop
	endfacet
	facet normal 0 -1 0
		outer loop
			vertex -0.04193532466888428 0.1023595929145813 0.24674057960510254
			vertex -0.04159221425652504 0.1023595929145813 0.24691292643547058
			vertex -0.04180406033992767 0.1023595929145813 0.24689307808876038
		endloop
	endfacet
	facet normal 0 -1 0
		outer loop
			vertex 0.03388490155339241 0.1023595929145813 0.23619616031646729
			vertex 0.035935916006565094 0.1023595929145813 0.23619616031646729
			vertex 0.0036073443479835987 0.1023595929145813 0.2511477768421173
		endloop
	endfacet
	facet normal 0 -1 0
		outer loop
			vertex 0.03388490155339241 0.1023595929145813 0.23619616031646729
			vertex 0.0036073443479835987 0.1023595929145813 0.2511477768421173
			vertex -0.021855244413018227 0.1023595929145813 0.2487621307373047
		endloop
	endfacet
	facet normal 0 -1 0
		outer loop
			vertex -0.06292958557605743 0.1023595929145813 0.23619616031646729
			vertex 0.03388490155339241 0.1023595929145813 0.23619616031646729
			vertex -0.021855244413018227 0.1023595929145813 0.2487621307373047
		endloop
	endfacet
	facet normal 0 -1 0
		outer loop
			vertex -0.06292958557605743 0.1023595929145813 0.23619616031646729
			vertex -0.021855244413018227 0.1023595929145813 0.2487621307373047
			vertex -0.04159221425652504 0.1023595929145813 0.24691292643547058
		endloop
	endfacet
	facet normal 0 0 -1
		outer loop
			vertex -0.02298581600189209 0.148844912648201 0.23619616031646729
			vertex -0.049199339002370834 0.1183384358882904 0.23619616031646729
			vertex -0.053673263639211655 0.13663533329963684 0.23619616031646729
		endloop
	endfacet
	facet normal 0 0 -1
		outer loop
			vertex -0.02298581600189209 0.148844912648201 0.23619616031646729
			vertex -0.053673263639211655 0.13663533329963684 0.23619616031646729
			vertex -0.03862098976969719 0.14717034995555878 0.23619616031646729
		endloop
	endfacet
	facet normal 0 0 -1
		outer loop
			vertex -0.023948000743985176 0.1477251499891281 0.23619616031646729
			vertex -0.02298581600189209 0.148844912648201 0.23619616031646729
			vertex -0.017108937725424767 0.1494743525981903 0.23619616031646729
		endloop
	endfacet
	facet normal 0 0 -1
		outer loop
			vertex -0.023948000743985176 0.1477251499891281 0.23619616031646729
			vertex -0.017108937725424767 0.1494743525981903 0.23619616031646729
			vertex -0.011677872389554977 0.1492426097393036 0.23619616031646729
		endloop
	endfacet
	facet normal 0 0 -1
		outer loop
			vertex 0.035935916006565094 0.1023595929145813 0.23619616031646729
			vertex 0.03388490155339241 0.1023595929145813 0.23619616031646729
			vertex -0.055913716554641724 0.11052445322275162 0.23619616031646729
		endloop
	endfacet
	facet normal 0 0 -1
		outer loop
			vertex 0.035935916006565094 0.1023595929145813 0.23619616031646729
			vertex -0.055913716554641724 0.11052445322275162 0.23619616031646729
			vertex -0.023948000743985176 0.1477251499891281 0.23619616031646729
		endloop
	endfacet
	facet normal 0 0 -1
		outer loop
			vertex 0.035935916006565094 0.1023595929145813 0.23619616031646729
			vertex -0.023948000743985176 0.1477251499891281 0.23619616031646729
			vertex -0.011677872389554977 0.1492426097393036 0.23619616031646729
		endloop
	endfacet
	facet normal 0 0 -1
		outer loop
			vertex 0.035935916006565094 0.1023595929145813 0.23619616031646729
			vertex -0.011677872389554977 0.1492426097393036 0.23619616031646729
			vertex 0.01291175652295351 0.1481933742761612 0.23619616031646729
		endloop
	endfacet
	facet normal 0 0 -1
		outer loop
			vertex 0.035935916006565094 0.1023595929145813 0.23619616031646729
			vertex 0.01291175652295351 0.1481933742761612 0.23619616031646729
			vertex 0.032996468245983124 0.13498231768608093 0.23619616031646729
		endloop
	endfacet
	facet normal 0 0 -1
		outer loop
			vertex 0.035935916006565094 0.1023595929145813 0.23619616031646729
			vertex 0.032996468245983124 0.13498231768608093 0.23619616031646729
			vertex 0.03629104420542717 0.10377947986125946 0.23619616031646729
		endloop
	endfacet
	facet normal 0 0 -1
		outer loop
			vertex 0.03388490155339241 0.1023595929145813 0.23619616031646729
			vertex -0.06292958557605743 0.1023595929145813 0.23619616031646729
			vertex -0.055913716554641724 0.11052445322275162 0.23619616031646729
		endloop
	endfacet
endsolid exported
