solid exported
	facet normal 0.48090351060690567 -0.8598998115276657 0.1711844841702633
		outer loop
			vertex 0.12344778329133987 -0.24737921357154846 0.0859416127204895
			vertex 0.10000000149011612 -0.25891348719596863 0.09387341141700745
			vertex 0.10000000149011612 -0.2652627229690552 0.061979711055755615
		endloop
	endfacet
	facet normal 0.48090371271142157 -0.8598997473983424 0.17118423854034512
		outer loop
			vertex 0.12344778329133987 -0.24737921357154846 0.0859416127204895
			vertex 0.10000000149011612 -0.2652627229690552 0.061979711055755615
			vertex 0.13442642986774445 -0.24309790134429932 0.07660563290119171
		endloop
	endfacet
	facet normal 0.5007889995041189 -0.8121215905173622 0.2994476585168329
		outer loop
			vertex 0.10000000149011612 -0.2550077736377716 0.10446596145629883
			vertex 0.10000000149011612 -0.25891348719596863 0.09387341141700745
			vertex 0.12344778329133987 -0.24737921357154846 0.0859416127204895
		endloop
	endfacet
	facet normal 0.6630429197461134 -0.7433174516732988 -0.08861857938639325
		outer loop
			vertex 0.13981404900550842 -0.239315927028656 0.07870499044656754
			vertex 0.1402459293603897 -0.23911598324775696 0.08025921881198883
			vertex 0.13834261894226074 -0.24057652056217194 0.07826941460371017
		endloop
	endfacet
	facet normal -0.16642737460938314 -0.8649595910234655 0.4734414798865297
		outer loop
			vertex 0.15862539410591125 -0.1023595929145813 0.07925322651863098
			vertex 0.15940681099891663 -0.10287085175514221 0.07859386503696442
			vertex 0.159101665019989 -0.1023595929145813 0.07942064851522446
		endloop
	endfacet
	facet normal -0.16641805981568294 -0.8649612384804521 0.47344174435039665
		outer loop
			vertex 0.15862539410591125 -0.1023595929145813 0.07925322651863098
			vertex 0.15836137533187866 -0.1023595929145813 0.0791604220867157
			vertex 0.16433778405189514 -0.11113230139017105 0.0652337446808815
		endloop
	endfacet
	facet normal -0.1664336261076444 -0.8649615934743955 0.47343562383379595
		outer loop
			vertex 0.15862539410591125 -0.1023595929145813 0.07925322651863098
			vertex 0.16433778405189514 -0.11113230139017105 0.0652337446808815
			vertex 0.15940681099891663 -0.10287085175514221 0.07859386503696442
		endloop
	endfacet
	facet normal -0.9335562010670702 -0.08212940093105262 -0.3488947992617925
		outer loop
			vertex 0.17029103636741638 -0.1023595929145813 0.04723922908306122
			vertex 0.1705029010772705 -0.10476783663034439 0.04723922908306122
			vertex 0.16433778405189514 -0.11113230139017105 0.0652337446808815
		endloop
	endfacet
	facet normal -0.9335581557220253 -0.08212127145396646 -0.3488914826413437
		outer loop
			vertex 0.17029103636741638 -0.1023595929145813 0.04723922908306122
			vertex 0.16433778405189514 -0.11113230139017105 0.0652337446808815
			vertex 0.15836137533187866 -0.1023595929145813 0.0791604220867157
		endloop
	endfacet
	facet normal 0.9950464056613878 0.019039414985998274 0.09757126245644143
		outer loop
			vertex 0.15545222163200378 -0.16551563143730164 0.09466379880905151
			vertex 0.15942372381687164 -0.17561857402324677 0.056133244186639786
			vertex 0.15990902483463287 -0.16258186101913452 0.0486401729285717
		endloop
	endfacet
	facet normal 0.9950464144814323 0.01903906423091331 0.09757124095171053
		outer loop
			vertex 0.15545222163200378 -0.16551563143730164 0.09466379880905151
			vertex 0.15990902483463287 -0.16258186101913452 0.0486401729285717
			vertex 0.15975584089756012 -0.14739640057086945 0.04723922908306122
		endloop
	endfacet
	facet normal 0.9950463741739262 0.019039782735919393 0.09757151180898975
		outer loop
			vertex 0.15545222163200378 -0.16551563143730164 0.09466379880905151
			vertex 0.15975584089756012 -0.14739640057086945 0.04723922908306122
			vertex 0.15896226465702057 -0.10592296719551086 0.04723922908306122
		endloop
	endfacet
	facet normal 0.995046428200827 0.01903940044750175 0.0975710354325313
		outer loop
			vertex 0.15545222163200378 -0.16551563143730164 0.09466379880905151
			vertex 0.15896226465702057 -0.10592296719551086 0.04723922908306122
			vertex 0.15486542880535126 -0.12886527180671692 0.09349629282951355
		endloop
	endfacet
	facet normal 0.9913317224058535 0.059328302306275574 0.11722443728719328
		outer loop
			vertex 0.15874901413917542 -0.1023595929145813 0.04723922908306122
			vertex 0.15284226834774017 -0.1023595929145813 0.09719079732894897
			vertex 0.15486542880535126 -0.12886527180671692 0.09349629282951355
		endloop
	endfacet
	facet normal 0.9913319667560782 0.05932636838026477 0.11722334964645649
		outer loop
			vertex 0.15874901413917542 -0.1023595929145813 0.04723922908306122
			vertex 0.15486542880535126 -0.12886527180671692 0.09349629282951355
			vertex 0.15896226465702057 -0.10592296719551086 0.04723922908306122
		endloop
	endfacet
	facet normal 0.9010291282146752 -0.38441892667083094 -0.20091938414684904
		outer loop
			vertex 0.14332082867622375 -0.2294778823852539 0.07560812681913376
			vertex 0.1402459293603897 -0.23911598324775696 0.08025921881198883
			vertex 0.13981404900550842 -0.239315927028656 0.07870499044656754
		endloop
	endfacet
	facet normal 0.9877817778356655 -0.01195594819047488 0.15538408759805222
		outer loop
			vertex 0.13078178465366364 -0.22229082882404327 0.14171770215034485
			vertex 0.1402459293603897 -0.23911598324775696 0.08025921881198883
			vertex 0.13089023530483246 -0.21333080530166626 0.14171770215034485
		endloop
	endfacet
	facet normal 0.8835558987543213 -0.4225817950112509 0.20187520972500098
		outer loop
			vertex 0.15942372381687164 -0.17561857402324677 0.056133244186639786
			vertex 0.15545222163200378 -0.16551563143730164 0.09466379880905151
			vertex 0.13919158279895782 -0.17703568935394287 0.14171770215034485
		endloop
	endfacet
	facet normal 0.883556593954316 -0.42258025072145533 0.20187539964057044
		outer loop
			vertex 0.15942372381687164 -0.17561857402324677 0.056133244186639786
			vertex 0.13919158279895782 -0.17703568935394287 0.14171770215034485
			vertex 0.13764014840126038 -0.18027952313423157 0.14171770215034485
		endloop
	endfacet
	facet normal 0.8835563195886764 -0.42258087395684285 0.20187529586550151
		outer loop
			vertex 0.15942372381687164 -0.17561857402324677 0.056133244186639786
			vertex 0.13764014840126038 -0.18027952313423157 0.14171770215034485
			vertex 0.15852627158164978 -0.17734511196613312 0.05644704028964043
		endloop
	endfacet
	facet normal 0.9541957706209132 -0.19487149535536394 0.22701438638801272
		outer loop
			vertex 0.13089023530483246 -0.21333080530166626 0.14171770215034485
			vertex 0.1402459293603897 -0.23911598324775696 0.08025921881198883
			vertex 0.14332082867622375 -0.2294778823852539 0.07560812681913376
		endloop
	endfacet
	facet normal 0.9541960393491109 -0.19487042515843583 0.22701417552443856
		outer loop
			vertex 0.13089023530483246 -0.21333080530166626 0.14171770215034485
			vertex 0.14332082867622375 -0.2294778823852539 0.07560812681913376
			vertex 0.15852627158164978 -0.17734511196613312 0.05644704028964043
		endloop
	endfacet
	facet normal 0.954195973754462 -0.19487110567075278 0.22701386707739393
		outer loop
			vertex 0.13089023530483246 -0.21333080530166626 0.14171770215034485
			vertex 0.15852627158164978 -0.17734511196613312 0.05644704028964043
			vertex 0.13764014840126038 -0.18027952313423157 0.14171770215034485
		endloop
	endfacet
	facet normal 0.4809033893116631 -0.8599000297457531 0.1711837287589226
		outer loop
			vertex 0.1402459293603897 -0.23911598324775696 0.08025921881198883
			vertex 0.12344778329133987 -0.24737921357154846 0.0859416127204895
			vertex 0.13442642986774445 -0.24309790134429932 0.07660563290119171
		endloop
	endfacet
	facet normal 0.4809136627358472 -0.8598979851975324 0.17116513677503478
		outer loop
			vertex 0.1402459293603897 -0.23911598324775696 0.08025921881198883
			vertex 0.13442642986774445 -0.24309790134429932 0.07660563290119171
			vertex 0.13834261894226074 -0.24057652056217194 0.07826941460371017
		endloop
	endfacet
	facet normal 0.50078963206256 -0.8121213491980093 0.2994472551142369
		outer loop
			vertex 0.13078178465366364 -0.22229082882404327 0.14171770215034485
			vertex 0.10000000149011612 -0.2412722259759903 0.14171770215034485
			vertex 0.10000000149011612 -0.2550077736377716 0.10446596145629883
		endloop
	endfacet
	facet normal 0.5007890880708319 -0.8121214773893445 0.2994478172105005
		outer loop
			vertex 0.13078178465366364 -0.22229082882404327 0.14171770215034485
			vertex 0.10000000149011612 -0.2550077736377716 0.10446596145629883
			vertex 0.12344778329133987 -0.24737921357154846 0.0859416127204895
		endloop
	endfacet
	facet normal 0.5007890451131549 -0.8121214983240648 0.29944783227555777
		outer loop
			vertex 0.13078178465366364 -0.22229082882404327 0.14171770215034485
			vertex 0.12344778329133987 -0.24737921357154846 0.0859416127204895
			vertex 0.1402459293603897 -0.23911598324775696 0.08025921881198883
		endloop
	endfacet
	facet normal 0.6375397427057682 0.49521719508305284 0.5901720140473765
		outer loop
			vertex 0.16758345067501068 -0.1023595929145813 0.08240220695734024
			vertex 0.17996010184288025 -0.10900631546974182 0.07460950314998627
			vertex 0.17577296495437622 -0.1023595929145813 0.07355539500713348
		endloop
	endfacet
	facet normal 0.9797781308385454 0.1055393714892701 0.1699889861025605
		outer loop
			vertex 0.14517968893051147 -0.1023595929145813 0.14171770215034485
			vertex 0.15041300654411316 -0.15094326436519623 0.14171770215034485
			vertex 0.15267695486545563 -0.1023595929145813 0.09850515425205231
		endloop
	endfacet
	facet normal 0.5991026218847814 -0.7830280489250429 0.16716196650979445
		outer loop
			vertex 0.19157175719738007 -0.10596516728401184 0.04723922908306122
			vertex 0.17996010184288025 -0.10900631546974182 0.07460950314998627
			vertex 0.1711532026529312 -0.12113658338785172 0.04935194179415703
		endloop
	endfacet
	facet normal 0.5991027240315101 -0.7830285909565861 0.16715906138336584
		outer loop
			vertex 0.19157175719738007 -0.10596516728401184 0.04723922908306122
			vertex 0.1711532026529312 -0.12113658338785172 0.04935194179415703
			vertex 0.1774453967809677 -0.11677338182926178 0.04723922908306122
		endloop
	endfacet
	facet normal 0.9797763030609937 0.10554562361998146 0.16999563904642148
		outer loop
			vertex 0.15041300654411316 -0.15094326436519623 0.14171770215034485
			vertex 0.15057404339313507 -0.15243816375732422 0.14171770215034485
			vertex 0.1518784612417221 -0.12182772904634476 0.11519446223974228
		endloop
	endfacet
	facet normal 0.9797779684355505 0.10553998494735242 0.16998954128303892
		outer loop
			vertex 0.15041300654411316 -0.15094326436519623 0.14171770215034485
			vertex 0.1518784612417221 -0.12182772904634476 0.11519446223974228
			vertex 0.15177179872989655 -0.12178390473127365 0.11578202992677689
		endloop
	endfacet
	facet normal 0.9950465614962226 0.019060616430888806 0.0975655336469736
		outer loop
			vertex 0.15059460699558258 -0.15278185904026031 0.14171770215034485
			vertex 0.15060219168663025 -0.15317781269550323 0.14171770215034485
			vertex 0.15545222163200378 -0.16551563143730164 0.09466379880905151
		endloop
	endfacet
	facet normal 0.9950464063167714 0.019039407164733013 0.09757125729893101
		outer loop
			vertex 0.15059460699558258 -0.15278185904026031 0.14171770215034485
			vertex 0.15545222163200378 -0.16551563143730164 0.09466379880905151
			vertex 0.15486542880535126 -0.12886527180671692 0.09349629282951355
		endloop
	endfacet
	facet normal 0.9913347952687221 0.059312465530927234 0.11720646365351749
		outer loop
			vertex 0.1518784612417221 -0.12182772904634476 0.11519446223974228
			vertex 0.15057404339313507 -0.15243816375732422 0.14171770215034485
			vertex 0.15059460699558258 -0.15278185904026031 0.14171770215034485
		endloop
	endfacet
	facet normal 0.9913317603354119 0.05932789431424809 0.11722432301587823
		outer loop
			vertex 0.1518784612417221 -0.12182772904634476 0.11519446223974228
			vertex 0.15059460699558258 -0.15278185904026031 0.14171770215034485
			vertex 0.15486542880535126 -0.12886527180671692 0.09349629282951355
		endloop
	endfacet
	facet normal 0.9913317286978295 0.05932939014987254 0.11722383350418712
		outer loop
			vertex 0.1518784612417221 -0.12182772904634476 0.11519446223974228
			vertex 0.15486542880535126 -0.12886527180671692 0.09349629282951355
			vertex 0.15451735258102417 -0.12430514395236969 0.09413190931081772
		endloop
	endfacet
	facet normal 0.8835558096512913 -0.42258202264597555 0.20187512320215992
		outer loop
			vertex 0.13919158279895782 -0.17703568935394287 0.14171770215034485
			vertex 0.15545222163200378 -0.16551563143730164 0.09466379880905151
			vertex 0.15060219168663025 -0.15317781269550323 0.14171770215034485
		endloop
	endfacet
	facet normal 0.08628950398273985 0.9789426447577692 0.18500113452916236
		outer loop
			vertex 0.17996010184288025 -0.10900631546974182 0.07460950314998627
			vertex 0.18105491995811462 -0.10393036901950836 0.04723922908306122
			vertex 0.17553724348545074 -0.10344401001930237 0.04723922908306122
		endloop
	endfacet
	facet normal 0.0862911373541766 0.9789425541419171 0.1850008521716113
		outer loop
			vertex 0.17996010184288025 -0.10900631546974182 0.07460950314998627
			vertex 0.17553724348545074 -0.10344401001930237 0.04723922908306122
			vertex 0.16716517508029938 -0.10734463483095169 0.07178464531898499
		endloop
	endfacet
	facet normal 0.9797916969968452 0.10549466594733589 0.16993853580839913
		outer loop
			vertex 0.15226536989212036 -0.11274810880422592 0.1073271706700325
			vertex 0.15270806849002838 -0.1023595929145813 0.09832576662302017
			vertex 0.15267695486545563 -0.1023595929145813 0.09850515425205231
		endloop
	endfacet
	facet normal 0.9797821230260182 0.10552560496019314 0.16997452190376647
		outer loop
			vertex 0.15226536989212036 -0.11274810880422592 0.1073271706700325
			vertex 0.15267695486545563 -0.1023595929145813 0.09850515425205231
			vertex 0.15218880772590637 -0.11283493787050247 0.10782240331172943
		endloop
	endfacet
	facet normal -0.3838608597174035 -0.3755945471116306 -0.8435517628201752
		outer loop
			vertex 0.17577296495437622 -0.1023595929145813 0.07355539500713348
			vertex 0.17996010184288025 -0.10900631546974182 0.07460950314998627
			vertex 0.17243745923042297 -0.1023595929145813 0.0750732272863388
		endloop
	endfacet
	facet normal 0.7191704294062427 0.2778509470487171 0.6368616370074206
		outer loop
			vertex 0.1642746925354004 -0.1023595929145813 0.07287381589412689
			vertex 0.16716517508029938 -0.10734463483095169 0.07178464531898499
			vertex 0.17075733840465546 -0.1023595929145813 0.06555334478616714
		endloop
	endfacet
	facet normal -0.16642497645339877 -0.8649607746880996 0.4734401603829657
		outer loop
			vertex 0.17996010184288025 -0.10900631546974182 0.07460950314998627
			vertex 0.16123546659946442 -0.1023595929145813 0.08017072826623917
			vertex 0.159101665019989 -0.1023595929145813 0.07942064851522446
		endloop
	endfacet
	facet normal -0.16642400368981938 -0.8649595668260824 0.4734427090492438
		outer loop
			vertex 0.17996010184288025 -0.10900631546974182 0.07460950314998627
			vertex 0.159101665019989 -0.1023595929145813 0.07942064851522446
			vertex 0.15940681099891663 -0.10287085175514221 0.07859386503696442
		endloop
	endfacet
	facet normal -0.16642562051542564 -0.8649618752202396 0.47343792333477297
		outer loop
			vertex 0.17996010184288025 -0.10900631546974182 0.07460950314998627
			vertex 0.15940681099891663 -0.10287085175514221 0.07859386503696442
			vertex 0.1664036214351654 -0.10744859278202057 0.0726899802684784
		endloop
	endfacet
	facet normal 0.2446447744567526 0.340230857774881 -0.9079602952490673
		outer loop
			vertex 0.16716517508029938 -0.10734463483095169 0.07178464531898499
			vertex 0.1642746925354004 -0.1023595929145813 0.07287381589412689
			vertex 0.17243745923042297 -0.1023595929145813 0.0750732272863388
		endloop
	endfacet
	facet normal 0.24464490215194576 0.3402307312907401 -0.9079603082384345
		outer loop
			vertex 0.16716517508029938 -0.10734463483095169 0.07178464531898499
			vertex 0.17243745923042297 -0.1023595929145813 0.0750732272863388
			vertex 0.17996010184288025 -0.10900631546974182 0.07460950314998627
		endloop
	endfacet
	facet normal -0.16642493375058148 -0.8649616552336082 0.47343856666060846
		outer loop
			vertex 0.15940681099891663 -0.10287085175514221 0.07859386503696442
			vertex 0.16182510554790497 -0.10692249983549118 0.07204168289899826
			vertex 0.1664036214351654 -0.10744859278202057 0.0726899802684784
		endloop
	endfacet
	facet normal 0.907311033471476 -0.33313483798815513 0.25653044314374807
		outer loop
			vertex 0.17593541741371155 -0.1023595929145813 0.04723922908306122
			vertex 0.17075733840465546 -0.1023595929145813 0.06555334478616714
			vertex 0.16716517508029938 -0.10734463483095169 0.07178464531898499
		endloop
	endfacet
	facet normal 0.9073085687696799 -0.33314359889650996 0.2565277831958874
		outer loop
			vertex 0.17593541741371155 -0.1023595929145813 0.04723922908306122
			vertex 0.16716517508029938 -0.10734463483095169 0.07178464531898499
			vertex 0.17553724348545074 -0.10344401001930237 0.04723922908306122
		endloop
	endfacet
	facet normal -0.1664257379650874 -0.8649615345141157 0.47343850451115854
		outer loop
			vertex 0.16123546659946442 -0.1023595929145813 0.08017072826623917
			vertex 0.17996010184288025 -0.10900631546974182 0.07460950314998627
			vertex 0.16758345067501068 -0.1023595929145813 0.08240220695734024
		endloop
	endfacet
	facet normal 0.9913331851755456 0.0593201618545523 0.11721618645586923
		outer loop
			vertex 0.15284226834774017 -0.1023595929145813 0.09719079732894897
			vertex 0.15270806849002838 -0.1023595929145813 0.09832576662302017
			vertex 0.15226536989212036 -0.11274810880422592 0.1073271706700325
		endloop
	endfacet
	facet normal 0.9913317728190362 0.059328016175398526 0.1172241557707224
		outer loop
			vertex 0.15284226834774017 -0.1023595929145813 0.09719079732894897
			vertex 0.15226536989212036 -0.11274810880422592 0.1073271706700325
			vertex 0.15348036587238312 -0.11071942001581192 0.09602555632591248
		endloop
	endfacet
	facet normal 0.3626010718190214 -0.7741471954404795 -0.5188608508139124
		outer loop
			vertex 0.1774453967809677 -0.11677338182926178 0.04723922908306122
			vertex 0.1711532026529312 -0.12113658338785172 0.04935194179415703
			vertex 0.17178915441036224 -0.11942269653081894 0.04723922908306122
		endloop
	endfacet
	facet normal 0.18662970652999142 0.9645940247873839 0.18635374958665385
		outer loop
			vertex 0.18105491995811462 -0.10393036901950836 0.04723922908306122
			vertex 0.17996010184288025 -0.10900631546974182 0.07460950314998627
			vertex 0.19157175719738007 -0.10596516728401184 0.04723922908306122
		endloop
	endfacet
	facet normal -0.934400066951443 -0.08092268501931285 -0.3469121415148282
		outer loop
			vertex 0.17160823941230774 -0.11733370274305344 0.04723922908306122
			vertex 0.17178915441036224 -0.11942269653081894 0.04723922908306122
			vertex 0.1711532026529312 -0.12113658338785172 0.04935194179415703
		endloop
	endfacet
	facet normal -0.1663501369492131 -0.8649591171539693 0.47346948960751856
		outer loop
			vertex 0.16399085521697998 -0.11055104434490204 0.0661737248301506
			vertex 0.16433778405189514 -0.11113230139017105 0.0652337446808815
			vertex 0.1711532026529312 -0.12113658338785172 0.04935194179415703
		endloop
	endfacet
	facet normal 0.9913323654819841 0.0593272809429641 0.11721951579753573
		outer loop
			vertex 0.1543782502412796 -0.12417455017566681 0.0952422097325325
			vertex 0.15451735258102417 -0.12430514395236969 0.09413190931081772
			vertex 0.15416735410690308 -0.11971966177225113 0.09477105736732483
		endloop
	endfacet
	facet normal -0.9335583343905806 -0.08212259866112566 -0.34889069216450674
		outer loop
			vertex 0.17160823941230774 -0.11733370274305344 0.04723922908306122
			vertex 0.1711532026529312 -0.12113658338785172 0.04935194179415703
			vertex 0.16433778405189514 -0.11113230139017105 0.0652337446808815
		endloop
	endfacet
	facet normal -0.9335582104577904 -0.08211910494288141 -0.3488918461217286
		outer loop
			vertex 0.17160823941230774 -0.11733370274305344 0.04723922908306122
			vertex 0.16433778405189514 -0.11113230139017105 0.0652337446808815
			vertex 0.1705029010772705 -0.10476783663034439 0.04723922908306122
		endloop
	endfacet
	facet normal 0.9797817695928646 0.1055282324533789 0.16997492794156605
		outer loop
			vertex 0.1518784612417221 -0.12182772904634476 0.11519446223974228
			vertex 0.15226536989212036 -0.11274810880422592 0.1073271706700325
			vertex 0.15218880772590637 -0.11283493787050247 0.10782240331172943
		endloop
	endfacet
	facet normal 0.9797779377121926 0.10554031931853929 0.1699895107663526
		outer loop
			vertex 0.1518784612417221 -0.12182772904634476 0.11519446223974228
			vertex 0.15218880772590637 -0.11283493787050247 0.10782240331172943
			vertex 0.15177179872989655 -0.12178390473127365 0.11578202992677689
		endloop
	endfacet
	facet normal -0.16642546399978136 -0.8649616965051584 0.47343830486281496
		outer loop
			vertex 0.17996010184288025 -0.10900631546974182 0.07460950314998627
			vertex 0.16182510554790497 -0.10692249983549118 0.07204168289899826
			vertex 0.16399085521697998 -0.11055104434490204 0.0661737248301506
		endloop
	endfacet
	facet normal -0.1664257250050368 -0.8649614050547251 0.47343874558627336
		outer loop
			vertex 0.17996010184288025 -0.10900631546974182 0.07460950314998627
			vertex 0.16399085521697998 -0.11055104434490204 0.0661737248301506
			vertex 0.1711532026529312 -0.12113658338785172 0.04935194179415703
		endloop
	endfacet
	facet normal 0.9913317304327015 0.05932868639597348 0.11722417501451582
		outer loop
			vertex 0.15226536989212036 -0.11274810880422592 0.1073271706700325
			vertex 0.1518784612417221 -0.12182772904634476 0.11519446223974228
			vertex 0.1543782502412796 -0.12417455017566681 0.0952422097325325
		endloop
	endfacet
	facet normal 0.9913316866698239 0.059327826725920345 0.11722498018912804
		outer loop
			vertex 0.15226536989212036 -0.11274810880422592 0.1073271706700325
			vertex 0.1543782502412796 -0.12417455017566681 0.0952422097325325
			vertex 0.15416735410690308 -0.11971966177225113 0.09477105736732483
		endloop
	endfacet
	facet normal 0.9913316934113011 0.05932900807992721 0.11722432528504657
		outer loop
			vertex 0.15226536989212036 -0.11274810880422592 0.1073271706700325
			vertex 0.15416735410690308 -0.11971966177225113 0.09477105736732483
			vertex 0.15348036587238312 -0.11071942001581192 0.09602555632591248
		endloop
	endfacet
	facet normal 0.9991505549842981 0.010394237820232372 0.03987641276125158
		outer loop
			vertex 0.15996769070625305 -0.16018760204315186 0.04723922908306122
			vertex 0.15992848575115204 -0.15641900897026062 0.04723922908306122
			vertex 0.15995073318481445 -0.16146133840084076 0.04799613356590271
		endloop
	endfacet
	facet normal 0.9950471956514974 0.019038349985713972 0.09756341351097042
		outer loop
			vertex 0.15975584089756012 -0.14739640057086945 0.04723922908306122
			vertex 0.15990902483463287 -0.16258186101913452 0.0486401729285717
			vertex 0.15995073318481445 -0.16146133840084076 0.04799613356590271
		endloop
	endfacet
	facet normal 0.9950443261175832 0.01903986900413762 0.09759237905446518
		outer loop
			vertex 0.15975584089756012 -0.14739640057086945 0.04723922908306122
			vertex 0.15995073318481445 -0.16146133840084076 0.04799613356590271
			vertex 0.15992848575115204 -0.15641900897026062 0.04723922908306122
		endloop
	endfacet
	facet normal 0.6630504099795761 -0.7433105100102729 -0.08862076243287492
		outer loop
			vertex 0.10866158455610275 -0.263353168964386 0.04723922908306122
			vertex 0.1310705542564392 -0.24336384236812592 0.04723922908306122
			vertex 0.13981404900550842 -0.239315927028656 0.07870499044656754
		endloop
	endfacet
	facet normal 0.6630413231544293 -0.7433206076091745 -0.08860405235174777
		outer loop
			vertex 0.10866158455610275 -0.263353168964386 0.04723922908306122
			vertex 0.13981404900550842 -0.239315927028656 0.07870499044656754
			vertex 0.13834261894226074 -0.24057652056217194 0.07826941460371017
		endloop
	endfacet
	facet normal 0.9991500940697773 0.010398833579433966 0.03988676197114202
		outer loop
			vertex 0.16001993417739868 -0.17713525891304016 0.050348952412605286
			vertex 0.16005666553974152 -0.1687365621328354 0.04723922908306122
			vertex 0.15996769070625305 -0.16018760204315186 0.04723922908306122
		endloop
	endfacet
	facet normal 0.9991502526906365 0.010398138219800124 0.03988296967127156
		outer loop
			vertex 0.16001993417739868 -0.17713525891304016 0.050348952412605286
			vertex 0.15996769070625305 -0.16018760204315186 0.04723922908306122
			vertex 0.15995073318481445 -0.16146133840084076 0.04799613356590271
		endloop
	endfacet
	facet normal 0.9950464148032799 0.019039613853216723 0.09757113042011627
		outer loop
			vertex 0.15942372381687164 -0.17561857402324677 0.056133244186639786
			vertex 0.16001993417739868 -0.17713525891304016 0.050348952412605286
			vertex 0.15995073318481445 -0.16146133840084076 0.04799613356590271
		endloop
	endfacet
	facet normal 0.8999328921841968 -0.23284125018682847 -0.36865395939338796
		outer loop
			vertex 0.15909907221794128 -0.1757708191871643 0.04723922908306122
			vertex 0.16001993417739868 -0.17713525891304016 0.050348952412605286
			vertex 0.15785162150859833 -0.18059222400188446 0.04723922908306122
		endloop
	endfacet
	facet normal 0.9344716633601631 -0.12721227235995805 -0.33253533366832755
		outer loop
			vertex 0.16005666553974152 -0.1687365621328354 0.04723922908306122
			vertex 0.16001993417739868 -0.17713525891304016 0.050348952412605286
			vertex 0.15909907221794128 -0.1757708191871643 0.04723922908306122
		endloop
	endfacet
	facet normal 0.9010302242571953 -0.38441731002681834 -0.20091756201679806
		outer loop
			vertex 0.15785162150859833 -0.18059222400188446 0.04723922908306122
			vertex 0.16001993417739868 -0.17713525891304016 0.050348952412605286
			vertex 0.14332082867622375 -0.2294778823852539 0.07560812681913376
		endloop
	endfacet
	facet normal 0.9010281613861639 -0.3844195633885817 -0.2009225016597224
		outer loop
			vertex 0.15785162150859833 -0.18059222400188446 0.04723922908306122
			vertex 0.14332082867622375 -0.2294778823852539 0.07560812681913376
			vertex 0.13981404900550842 -0.239315927028656 0.07870499044656754
		endloop
	endfacet
	facet normal 0.9010297129387645 -0.38441795777220344 -0.20091861572222722
		outer loop
			vertex 0.15785162150859833 -0.18059222400188446 0.04723922908306122
			vertex 0.13981404900550842 -0.239315927028656 0.07870499044656754
			vertex 0.1310705542564392 -0.24336384236812592 0.04723922908306122
		endloop
	endfacet
	facet normal 0.8835562859465486 -0.4225808025367062 0.20187559261033697
		outer loop
			vertex 0.16001993417739868 -0.17713525891304016 0.050348952412605286
			vertex 0.15942372381687164 -0.17561857402324677 0.056133244186639786
			vertex 0.15852627158164978 -0.17734511196613312 0.05644704028964043
		endloop
	endfacet
	facet normal 0.4809051077368972 -0.8598991470665276 0.17118333513172868
		outer loop
			vertex 0.12108702212572098 -0.2538181245326996 0.06022946164011955
			vertex 0.13834261894226074 -0.24057652056217194 0.07826941460371017
			vertex 0.11927852034568787 -0.25285062193870544 0.07017010450363159
		endloop
	endfacet
	facet normal 0.9541960298032663 -0.19487039954642385 0.22701423763346074
		outer loop
			vertex 0.14332082867622375 -0.2294778823852539 0.07560812681913376
			vertex 0.16001993417739868 -0.17713525891304016 0.050348952412605286
			vertex 0.15852627158164978 -0.17734511196613312 0.05644704028964043
		endloop
	endfacet
	facet normal 0.4809036638165521 -0.8598994449423936 0.17118589520045205
		outer loop
			vertex 0.10000000149011612 -0.2652627229690552 0.061979711055755615
			vertex 0.10000000149011612 -0.2681972086429596 0.04723922908306122
			vertex 0.10866158455610275 -0.263353168964386 0.04723922908306122
		endloop
	endfacet
	facet normal 0.480903533575909 -0.8598995353470236 0.17118580695892274
		outer loop
			vertex 0.10000000149011612 -0.2652627229690552 0.061979711055755615
			vertex 0.10866158455610275 -0.263353168964386 0.04723922908306122
			vertex 0.12108702212572098 -0.2538181245326996 0.06022946164011955
		endloop
	endfacet
	facet normal 0.4809035847237636 -0.8599000367431673 0.17118314464027531
		outer loop
			vertex 0.10000000149011612 -0.2652627229690552 0.061979711055755615
			vertex 0.12108702212572098 -0.2538181245326996 0.06022946164011955
			vertex 0.11927852034568787 -0.25285062193870544 0.07017010450363159
		endloop
	endfacet
	facet normal -1 0 0
		outer loop
			vertex 0.10000000149011612 -0.19372747838497162 0.04723922908306122
			vertex 0.10000000149011612 -0.24090167880058289 0.04723922908306122
			vertex 0.10000000149011612 -0.2652627229690552 0.061979711055755615
		endloop
	endfacet
	facet normal -1 0 0
		outer loop
			vertex 0.10000000149011612 -0.19372747838497162 0.04723922908306122
			vertex 0.10000000149011612 -0.2652627229690552 0.061979711055755615
			vertex 0.10000000149011612 -0.2642636299133301 0.06699854135513306
		endloop
	endfacet
	facet normal -1 0 0
		outer loop
			vertex 0.10000000149011612 -0.19372747838497162 0.04723922908306122
			vertex 0.10000000149011612 -0.2642636299133301 0.06699854135513306
			vertex 0.10000000149011612 -0.23121754825115204 0.08224940299987793
		endloop
	endfacet
	facet normal -1 0 0
		outer loop
			vertex 0.10000000149011612 -0.2550077736377716 0.10446596145629883
			vertex 0.10000000149011612 -0.23121754825115204 0.08224940299987793
			vertex 0.10000000149011612 -0.2642636299133301 0.06699854135513306
		endloop
	endfacet
	facet normal -1 0 0
		outer loop
			vertex 0.10000000149011612 -0.2550077736377716 0.10446596145629883
			vertex 0.10000000149011612 -0.2642636299133301 0.06699854135513306
			vertex 0.10000000149011612 -0.25891348719596863 0.09387341141700745
		endloop
	endfacet
	facet normal -1 0 0
		outer loop
			vertex 0.10000000149011612 -0.21259596943855286 0.0908433124423027
			vertex 0.10000000149011612 -0.1023595929145813 0.14171770215034485
			vertex 0.10000000149011612 -0.1023595929145813 0.0799814835190773
		endloop
	endfacet
	facet normal -1 0 0
		outer loop
			vertex 0.10000000149011612 -0.2412722259759903 0.14171770215034485
			vertex 0.10000000149011612 -0.1023595929145813 0.14171770215034485
			vertex 0.10000000149011612 -0.21259596943855286 0.0908433124423027
		endloop
	endfacet
	facet normal -1 0 0
		outer loop
			vertex 0.10000000149011612 -0.2412722259759903 0.14171770215034485
			vertex 0.10000000149011612 -0.21259596943855286 0.0908433124423027
			vertex 0.10000000149011612 -0.2437022477388382 0.09390827268362045
		endloop
	endfacet
	facet normal -1 0 0
		outer loop
			vertex 0.10000000149011612 -0.2412722259759903 0.14171770215034485
			vertex 0.10000000149011612 -0.2437022477388382 0.09390827268362045
			vertex 0.10000000149011612 -0.2550077736377716 0.10446596145629883
		endloop
	endfacet
	facet normal -1 0 0
		outer loop
			vertex 0.10000000149011612 -0.11918909847736359 0.04723922908306122
			vertex 0.10000000149011612 -0.19372747838497162 0.04723922908306122
			vertex 0.10000000149011612 -0.23121754825115204 0.08224940299987793
		endloop
	endfacet
	facet normal -1 0 0
		outer loop
			vertex 0.10000000149011612 -0.11918909847736359 0.04723922908306122
			vertex 0.10000000149011612 -0.23121754825115204 0.08224940299987793
			vertex 0.10000000149011612 -0.22433216869831085 0.08542702347040176
		endloop
	endfacet
	facet normal -1 0 0
		outer loop
			vertex 0.10000000149011612 -0.22433216869831085 0.08542702347040176
			vertex 0.10000000149011612 -0.23121754825115204 0.08224940299987793
			vertex 0.10000000149011612 -0.24116818606853485 0.0915418341755867
		endloop
	endfacet
	facet normal -1 0 0
		outer loop
			vertex 0.10000000149011612 -0.1023595929145813 0.04723922908306122
			vertex 0.10000000149011612 -0.11918909847736359 0.04723922908306122
			vertex 0.10000000149011612 -0.22433216869831085 0.08542702347040176
		endloop
	endfacet
	facet normal -1 0 0
		outer loop
			vertex 0.10000000149011612 -0.1023595929145813 0.04723922908306122
			vertex 0.10000000149011612 -0.22433216869831085 0.08542702347040176
			vertex 0.10000000149011612 -0.21259596943855286 0.0908433124423027
		endloop
	endfacet
	facet normal -1 0 0
		outer loop
			vertex 0.10000000149011612 -0.1023595929145813 0.04723922908306122
			vertex 0.10000000149011612 -0.21259596943855286 0.0908433124423027
			vertex 0.10000000149011612 -0.12928082048892975 0.0826340913772583
		endloop
	endfacet
	facet normal -1 0 0
		outer loop
			vertex 0.10000000149011612 -0.1023595929145813 0.04723922908306122
			vertex 0.10000000149011612 -0.12928082048892975 0.0826340913772583
			vertex 0.10000000149011612 -0.1023595929145813 0.0695725679397583
		endloop
	endfacet
	facet normal -1 0 0
		outer loop
			vertex 0.10000000149011612 -0.21259596943855286 0.0908433124423027
			vertex 0.10000000149011612 -0.22433216869831085 0.08542702347040176
			vertex 0.10000000149011612 -0.24116818606853485 0.0915418341755867
		endloop
	endfacet
	facet normal -1 0 0
		outer loop
			vertex 0.10000000149011612 -0.21259596943855286 0.0908433124423027
			vertex 0.10000000149011612 -0.24116818606853485 0.0915418341755867
			vertex 0.10000000149011612 -0.2437022477388382 0.09390827268362045
		endloop
	endfacet
	facet normal -1 0 0
		outer loop
			vertex 0.10000000149011612 -0.12928082048892975 0.0826340913772583
			vertex 0.10000000149011612 -0.1023595929145813 0.0799814835190773
			vertex 0.10000000149011612 -0.1023595929145813 0.0695725679397583
		endloop
	endfacet
	facet normal -1 0 0
		outer loop
			vertex 0.10000000149011612 -0.24090167880058289 0.04723922908306122
			vertex 0.10000000149011612 -0.2681972086429596 0.04723922908306122
			vertex 0.10000000149011612 -0.2652627229690552 0.061979711055755615
		endloop
	endfacet
	facet normal 0 1 0
		outer loop
			vertex 0.12252511829137802 -0.1023595929145813 0.13107700645923615
			vertex 0.14457517862319946 -0.1023595929145813 0.12066072970628738
			vertex 0.1521964818239212 -0.1023595929145813 0.09902416914701462
		endloop
	endfacet
	facet normal 0 1 0
		outer loop
			vertex 0.1126750111579895 -0.1023595929145813 0.14171770215034485
			vertex 0.13715803623199463 -0.1023595929145813 0.14171770215034485
			vertex 0.14457517862319946 -0.1023595929145813 0.12066072970628738
		endloop
	endfacet
	facet normal 0 1 0
		outer loop
			vertex 0.1126750111579895 -0.1023595929145813 0.14171770215034485
			vertex 0.14457517862319946 -0.1023595929145813 0.12066072970628738
			vertex 0.12252511829137802 -0.1023595929145813 0.13107700645923615
		endloop
	endfacet
	facet normal 0 1 0
		outer loop
			vertex 0.159101665019989 -0.1023595929145813 0.07942064851522446
			vertex 0.1595141589641571 -0.1023595929145813 0.07824959605932236
			vertex 0.15862539410591125 -0.1023595929145813 0.07925322651863098
		endloop
	endfacet
	facet normal 0 1 0
		outer loop
			vertex 0.1595141589641571 -0.1023595929145813 0.07824959605932236
			vertex 0.1704373061656952 -0.1023595929145813 0.04723922908306122
			vertex 0.17029103636741638 -0.1023595929145813 0.04723922908306122
		endloop
	endfacet
	facet normal 0 1 0
		outer loop
			vertex 0.1595141589641571 -0.1023595929145813 0.07824959605932236
			vertex 0.17029103636741638 -0.1023595929145813 0.04723922908306122
			vertex 0.15836137533187866 -0.1023595929145813 0.0791604220867157
		endloop
	endfacet
	facet normal 0 1 0
		outer loop
			vertex 0.1595141589641571 -0.1023595929145813 0.07824959605932236
			vertex 0.15836137533187866 -0.1023595929145813 0.0791604220867157
			vertex 0.15862539410591125 -0.1023595929145813 0.07925322651863098
		endloop
	endfacet
	facet normal 0 1 0
		outer loop
			vertex 0.1362374722957611 -0.1023595929145813 0.11626408994197845
			vertex 0.1521964818239212 -0.1023595929145813 0.09902416914701462
			vertex 0.15284226834774017 -0.1023595929145813 0.09719079732894897
		endloop
	endfacet
	facet normal 0 1 0
		outer loop
			vertex 0.1362374722957611 -0.1023595929145813 0.11626408994197845
			vertex 0.15284226834774017 -0.1023595929145813 0.09719079732894897
			vertex 0.15874901413917542 -0.1023595929145813 0.04723922908306122
		endloop
	endfacet
	facet normal 0 1 0
		outer loop
			vertex 0.1362374722957611 -0.1023595929145813 0.11626408994197845
			vertex 0.15874901413917542 -0.1023595929145813 0.04723922908306122
			vertex 0.1526237279176712 -0.1023595929145813 0.04723922908306122
		endloop
	endfacet
	facet normal 0 1 0
		outer loop
			vertex 0.1362374722957611 -0.1023595929145813 0.11626408994197845
			vertex 0.1526237279176712 -0.1023595929145813 0.04723922908306122
			vertex 0.1464957296848297 -0.1023595929145813 0.051052045077085495
		endloop
	endfacet
	facet normal 0 1 0
		outer loop
			vertex 0.10000000149011612 -0.1023595929145813 0.0799814835190773
			vertex 0.10000000149011612 -0.1023595929145813 0.14171770215034485
			vertex 0.12252511829137802 -0.1023595929145813 0.13107700645923615
		endloop
	endfacet
	facet normal 0 1 0
		outer loop
			vertex 0.10000000149011612 -0.1023595929145813 0.0799814835190773
			vertex 0.12252511829137802 -0.1023595929145813 0.13107700645923615
			vertex 0.1362374722957611 -0.1023595929145813 0.11626408994197845
		endloop
	endfacet
	facet normal 0 1 0
		outer loop
			vertex 0.10000000149011612 -0.1023595929145813 0.0799814835190773
			vertex 0.1362374722957611 -0.1023595929145813 0.11626408994197845
			vertex 0.1464957296848297 -0.1023595929145813 0.051052045077085495
		endloop
	endfacet
	facet normal 0 1 0
		outer loop
			vertex 0.10000000149011612 -0.1023595929145813 0.14171770215034485
			vertex 0.1126750111579895 -0.1023595929145813 0.14171770215034485
			vertex 0.12252511829137802 -0.1023595929145813 0.13107700645923615
		endloop
	endfacet
	facet normal 0 1 0
		outer loop
			vertex 0.14457517862319946 -0.1023595929145813 0.12066072970628738
			vertex 0.14921313524246216 -0.1023595929145813 0.11846979707479477
			vertex 0.15267695486545563 -0.1023595929145813 0.09850515425205231
		endloop
	endfacet
	facet normal 0 1 0
		outer loop
			vertex 0.14457517862319946 -0.1023595929145813 0.12066072970628738
			vertex 0.15267695486545563 -0.1023595929145813 0.09850515425205231
			vertex 0.1521964818239212 -0.1023595929145813 0.09902416914701462
		endloop
	endfacet
	facet normal 0 1 0
		outer loop
			vertex 0.13715803623199463 -0.1023595929145813 0.14171770215034485
			vertex 0.14517968893051147 -0.1023595929145813 0.14171770215034485
			vertex 0.14921313524246216 -0.1023595929145813 0.11846979707479477
		endloop
	endfacet
	facet normal 0 1 0
		outer loop
			vertex 0.13715803623199463 -0.1023595929145813 0.14171770215034485
			vertex 0.14921313524246216 -0.1023595929145813 0.11846979707479477
			vertex 0.14457517862319946 -0.1023595929145813 0.12066072970628738
		endloop
	endfacet
	facet normal 0 1 0
		outer loop
			vertex 0.1642746925354004 -0.1023595929145813 0.07287381589412689
			vertex 0.1595141589641571 -0.1023595929145813 0.07824959605932236
			vertex 0.159101665019989 -0.1023595929145813 0.07942064851522446
		endloop
	endfacet
	facet normal 0 1 0
		outer loop
			vertex 0.1642746925354004 -0.1023595929145813 0.07287381589412689
			vertex 0.159101665019989 -0.1023595929145813 0.07942064851522446
			vertex 0.16123546659946442 -0.1023595929145813 0.08017072826623917
		endloop
	endfacet
	facet normal 0 1 0
		outer loop
			vertex 0.1642746925354004 -0.1023595929145813 0.07287381589412689
			vertex 0.16123546659946442 -0.1023595929145813 0.08017072826623917
			vertex 0.17243745923042297 -0.1023595929145813 0.0750732272863388
		endloop
	endfacet
	facet normal 0 1 0
		outer loop
			vertex 0.17593541741371155 -0.1023595929145813 0.04723922908306122
			vertex 0.1704373061656952 -0.1023595929145813 0.04723922908306122
			vertex 0.1595141589641571 -0.1023595929145813 0.07824959605932236
		endloop
	endfacet
	facet normal 0 1 0
		outer loop
			vertex 0.17593541741371155 -0.1023595929145813 0.04723922908306122
			vertex 0.1595141589641571 -0.1023595929145813 0.07824959605932236
			vertex 0.17075733840465546 -0.1023595929145813 0.06555334478616714
		endloop
	endfacet
	facet normal 0 1 0
		outer loop
			vertex 0.16758345067501068 -0.1023595929145813 0.08240220695734024
			vertex 0.17577296495437622 -0.1023595929145813 0.07355539500713348
			vertex 0.16123546659946442 -0.1023595929145813 0.08017072826623917
		endloop
	endfacet
	facet normal 0 1 0
		outer loop
			vertex 0.15284226834774017 -0.1023595929145813 0.09719079732894897
			vertex 0.1521964818239212 -0.1023595929145813 0.09902416914701462
			vertex 0.15267695486545563 -0.1023595929145813 0.09850515425205231
		endloop
	endfacet
	facet normal 0 1 0
		outer loop
			vertex 0.15284226834774017 -0.1023595929145813 0.09719079732894897
			vertex 0.15267695486545563 -0.1023595929145813 0.09850515425205231
			vertex 0.15270806849002838 -0.1023595929145813 0.09832576662302017
		endloop
	endfacet
	facet normal 0 1 0
		outer loop
			vertex 0.10000000149011612 -0.1023595929145813 0.04723922908306122
			vertex 0.10000000149011612 -0.1023595929145813 0.0695725679397583
			vertex 0.150922954082489 -0.1023595929145813 0.04829743504524231
		endloop
	endfacet
	facet normal 0 1 0
		outer loop
			vertex 0.10000000149011612 -0.1023595929145813 0.04723922908306122
			vertex 0.150922954082489 -0.1023595929145813 0.04829743504524231
			vertex 0.1526237279176712 -0.1023595929145813 0.04723922908306122
		endloop
	endfacet
	facet normal 0 1 0
		outer loop
			vertex 0.10000000149011612 -0.1023595929145813 0.0695725679397583
			vertex 0.10000000149011612 -0.1023595929145813 0.0799814835190773
			vertex 0.150922954082489 -0.1023595929145813 0.04829743504524231
		endloop
	endfacet
	facet normal 0 0 1
		outer loop
			vertex 0.13804753124713898 -0.1350240260362625 0.14171770215034485
			vertex 0.13715803623199463 -0.1023595929145813 0.14171770215034485
			vertex 0.1126750111579895 -0.1023595929145813 0.14171770215034485
		endloop
	endfacet
	facet normal 0 0 1
		outer loop
			vertex 0.13764014840126038 -0.18027952313423157 0.14171770215034485
			vertex 0.13112542033195496 -0.19390083849430084 0.14171770215034485
			vertex 0.13089023530483246 -0.21333080530166626 0.14171770215034485
		endloop
	endfacet
	facet normal 0 0 1
		outer loop
			vertex 0.13919158279895782 -0.17703568935394287 0.14171770215034485
			vertex 0.13804753124713898 -0.1350240260362625 0.14171770215034485
			vertex 0.13193336129188538 -0.12715266644954681 0.14171770215034485
		endloop
	endfacet
	facet normal 0 0 1
		outer loop
			vertex 0.13919158279895782 -0.17703568935394287 0.14171770215034485
			vertex 0.13193336129188538 -0.12715266644954681 0.14171770215034485
			vertex 0.13112542033195496 -0.19390083849430084 0.14171770215034485
		endloop
	endfacet
	facet normal 0 0 1
		outer loop
			vertex 0.10000000149011612 -0.1023595929145813 0.14171770215034485
			vertex 0.10000000149011612 -0.2412722259759903 0.14171770215034485
			vertex 0.13078178465366364 -0.22229082882404327 0.14171770215034485
		endloop
	endfacet
	facet normal 0 0 1
		outer loop
			vertex 0.10000000149011612 -0.1023595929145813 0.14171770215034485
			vertex 0.13078178465366364 -0.22229082882404327 0.14171770215034485
			vertex 0.13193336129188538 -0.12715266644954681 0.14171770215034485
		endloop
	endfacet
	facet normal 0 0 1
		outer loop
			vertex 0.10000000149011612 -0.1023595929145813 0.14171770215034485
			vertex 0.13193336129188538 -0.12715266644954681 0.14171770215034485
			vertex 0.1126750111579895 -0.1023595929145813 0.14171770215034485
		endloop
	endfacet
	facet normal 0 0 1
		outer loop
			vertex 0.14517968893051147 -0.1023595929145813 0.14171770215034485
			vertex 0.13715803623199463 -0.1023595929145813 0.14171770215034485
			vertex 0.13804753124713898 -0.1350240260362625 0.14171770215034485
		endloop
	endfacet
	facet normal 0 0 1
		outer loop
			vertex 0.14517968893051147 -0.1023595929145813 0.14171770215034485
			vertex 0.13804753124713898 -0.1350240260362625 0.14171770215034485
			vertex 0.15041300654411316 -0.15094326436519623 0.14171770215034485
		endloop
	endfacet
	facet normal 0 0 1
		outer loop
			vertex 0.15060219168663025 -0.15317781269550323 0.14171770215034485
			vertex 0.15059460699558258 -0.15278185904026031 0.14171770215034485
			vertex 0.15057404339313507 -0.15243816375732422 0.14171770215034485
		endloop
	endfacet
	facet normal 0 0 1
		outer loop
			vertex 0.15060219168663025 -0.15317781269550323 0.14171770215034485
			vertex 0.15057404339313507 -0.15243816375732422 0.14171770215034485
			vertex 0.15041300654411316 -0.15094326436519623 0.14171770215034485
		endloop
	endfacet
	facet normal 0 0 1
		outer loop
			vertex 0.15060219168663025 -0.15317781269550323 0.14171770215034485
			vertex 0.15041300654411316 -0.15094326436519623 0.14171770215034485
			vertex 0.13804753124713898 -0.1350240260362625 0.14171770215034485
		endloop
	endfacet
	facet normal 0 0 1
		outer loop
			vertex 0.15060219168663025 -0.15317781269550323 0.14171770215034485
			vertex 0.13804753124713898 -0.1350240260362625 0.14171770215034485
			vertex 0.13919158279895782 -0.17703568935394287 0.14171770215034485
		endloop
	endfacet
	facet normal 0 0 -1
		outer loop
			vertex 0.10000000149011612 -0.24090167880058289 0.04723922908306122
			vertex 0.10000000149011612 -0.19372747838497162 0.04723922908306122
			vertex 0.1252727508544922 -0.20688557624816895 0.04723922908306122
		endloop
	endfacet
	facet normal 0 0 -1
		outer loop
			vertex 0.17029103636741638 -0.1023595929145813 0.04723922908306122
			vertex 0.1704373061656952 -0.1023595929145813 0.04723922908306122
			vertex 0.1705029010772705 -0.10476783663034439 0.04723922908306122
		endloop
	endfacet
	facet normal 0 0 -1
		outer loop
			vertex 0.1526237279176712 -0.1023595929145813 0.04723922908306122
			vertex 0.15874901413917542 -0.1023595929145813 0.04723922908306122
			vertex 0.15896226465702057 -0.10592296719551086 0.04723922908306122
		endloop
	endfacet
	facet normal 0 0 -1
		outer loop
			vertex 0.1526237279176712 -0.1023595929145813 0.04723922908306122
			vertex 0.15896226465702057 -0.10592296719551086 0.04723922908306122
			vertex 0.15975584089756012 -0.14739640057086945 0.04723922908306122
		endloop
	endfacet
	facet normal 0 0 -1
		outer loop
			vertex 0.1704373061656952 -0.1023595929145813 0.04723922908306122
			vertex 0.17593541741371155 -0.1023595929145813 0.04723922908306122
			vertex 0.17553724348545074 -0.10344401001930237 0.04723922908306122
		endloop
	endfacet
	facet normal 0 0 -1
		outer loop
			vertex 0.1704373061656952 -0.1023595929145813 0.04723922908306122
			vertex 0.17553724348545074 -0.10344401001930237 0.04723922908306122
			vertex 0.17045463621616364 -0.10299599170684814 0.04723922908306122
		endloop
	endfacet
	facet normal 0 0 -1
		outer loop
			vertex 0.1705029010772705 -0.10476783663034439 0.04723922908306122
			vertex 0.17049507796764374 -0.10448044538497925 0.04723922908306122
			vertex 0.17160823941230774 -0.11733370274305344 0.04723922908306122
		endloop
	endfacet
	facet normal 0 0 -1
		outer loop
			vertex 0.19157175719738007 -0.10596516728401184 0.04723922908306122
			vertex 0.1774453967809677 -0.11677338182926178 0.04723922908306122
			vertex 0.17178915441036224 -0.11942269653081894 0.04723922908306122
		endloop
	endfacet
	facet normal 0 0 -1
		outer loop
			vertex 0.19157175719738007 -0.10596516728401184 0.04723922908306122
			vertex 0.17178915441036224 -0.11942269653081894 0.04723922908306122
			vertex 0.17049507796764374 -0.10448044538497925 0.04723922908306122
		endloop
	endfacet
	facet normal 0 0 -1
		outer loop
			vertex 0.19157175719738007 -0.10596516728401184 0.04723922908306122
			vertex 0.17049507796764374 -0.10448044538497925 0.04723922908306122
			vertex 0.17045463621616364 -0.10299599170684814 0.04723922908306122
		endloop
	endfacet
	facet normal 0 0 -1
		outer loop
			vertex 0.19157175719738007 -0.10596516728401184 0.04723922908306122
			vertex 0.17045463621616364 -0.10299599170684814 0.04723922908306122
			vertex 0.18105491995811462 -0.10393036901950836 0.04723922908306122
		endloop
	endfacet
	facet normal 0 0 -1
		outer loop
			vertex 0.15846754610538483 -0.1622067391872406 0.04723922908306122
			vertex 0.1179778128862381 -0.12076161056756973 0.04723922908306122
			vertex 0.15606547892093658 -0.12409312278032303 0.04723922908306122
		endloop
	endfacet
	facet normal 0 0 -1
		outer loop
			vertex 0.15846754610538483 -0.1622067391872406 0.04723922908306122
			vertex 0.15606547892093658 -0.12409312278032303 0.04723922908306122
			vertex 0.15975584089756012 -0.14739640057086945 0.04723922908306122
		endloop
	endfacet
	facet normal 0 0 -1
		outer loop
			vertex 0.15846754610538483 -0.1622067391872406 0.04723922908306122
			vertex 0.15975584089756012 -0.14739640057086945 0.04723922908306122
			vertex 0.15992848575115204 -0.15641900897026062 0.04723922908306122
		endloop
	endfacet
	facet normal 0 0 -1
		outer loop
			vertex 0.15846754610538483 -0.1622067391872406 0.04723922908306122
			vertex 0.15992848575115204 -0.15641900897026062 0.04723922908306122
			vertex 0.15996769070625305 -0.16018760204315186 0.04723922908306122
		endloop
	endfacet
	facet normal 0 0 -1
		outer loop
			vertex 0.10000000149011612 -0.19372747838497162 0.04723922908306122
			vertex 0.10000000149011612 -0.11918909847736359 0.04723922908306122
			vertex 0.1179778128862381 -0.12076161056756973 0.04723922908306122
		endloop
	endfacet
	facet normal 0 0 -1
		outer loop
			vertex 0.10000000149011612 -0.19372747838497162 0.04723922908306122
			vertex 0.1179778128862381 -0.12076161056756973 0.04723922908306122
			vertex 0.15846754610538483 -0.1622067391872406 0.04723922908306122
		endloop
	endfacet
	facet normal 0 0 -1
		outer loop
			vertex 0.10000000149011612 -0.19372747838497162 0.04723922908306122
			vertex 0.15846754610538483 -0.1622067391872406 0.04723922908306122
			vertex 0.1252727508544922 -0.20688557624816895 0.04723922908306122
		endloop
	endfacet
	facet normal 0 0 -1
		outer loop
			vertex 0.1179778128862381 -0.12076161056756973 0.04723922908306122
			vertex 0.10000000149011612 -0.1023595929145813 0.04723922908306122
			vertex 0.1526237279176712 -0.1023595929145813 0.04723922908306122
		endloop
	endfacet
	facet normal 0 0 -1
		outer loop
			vertex 0.1179778128862381 -0.12076161056756973 0.04723922908306122
			vertex 0.1526237279176712 -0.1023595929145813 0.04723922908306122
			vertex 0.15606547892093658 -0.12409312278032303 0.04723922908306122
		endloop
	endfacet
	facet normal 0 0 -1
		outer loop
			vertex 0.10000000149011612 -0.11918909847736359 0.04723922908306122
			vertex 0.10000000149011612 -0.1023595929145813 0.04723922908306122
			vertex 0.1179778128862381 -0.12076161056756973 0.04723922908306122
		endloop
	endfacet
	facet normal 0 0 -1
		outer loop
			vertex 0.14772531390190125 -0.2043270766735077 0.04723922908306122
			vertex 0.1310705542564392 -0.24336384236812592 0.04723922908306122
			vertex 0.12755535542964935 -0.2464994639158249 0.04723922908306122
		endloop
	endfacet
	facet normal 0 0 -1
		outer loop
			vertex 0.1600050926208496 -0.1637805551290512 0.04723922908306122
			vertex 0.15846754610538483 -0.1622067391872406 0.04723922908306122
			vertex 0.15996769070625305 -0.16018760204315186 0.04723922908306122
		endloop
	endfacet
	facet normal 0 0 -1
		outer loop
			vertex 0.10000000149011612 -0.2681972086429596 0.04723922908306122
			vertex 0.10000000149011612 -0.24090167880058289 0.04723922908306122
			vertex 0.15846754610538483 -0.1622067391872406 0.04723922908306122
		endloop
	endfacet
	facet normal 0 0 -1
		outer loop
			vertex 0.10000000149011612 -0.2681972086429596 0.04723922908306122
			vertex 0.15846754610538483 -0.1622067391872406 0.04723922908306122
			vertex 0.1600050926208496 -0.1637805551290512 0.04723922908306122
		endloop
	endfacet
	facet normal 0 0 -1
		outer loop
			vertex 0.10000000149011612 -0.2681972086429596 0.04723922908306122
			vertex 0.1600050926208496 -0.1637805551290512 0.04723922908306122
			vertex 0.16005666553974152 -0.1687365621328354 0.04723922908306122
		endloop
	endfacet
	facet normal 0 0 -1
		outer loop
			vertex 0.10000000149011612 -0.2681972086429596 0.04723922908306122
			vertex 0.16005666553974152 -0.1687365621328354 0.04723922908306122
			vertex 0.15909907221794128 -0.1757708191871643 0.04723922908306122
		endloop
	endfacet
	facet normal 0 0 -1
		outer loop
			vertex 0.10000000149011612 -0.2681972086429596 0.04723922908306122
			vertex 0.15909907221794128 -0.1757708191871643 0.04723922908306122
			vertex 0.15785162150859833 -0.18059222400188446 0.04723922908306122
		endloop
	endfacet
	facet normal 0 0 -1
		outer loop
			vertex 0.10000000149011612 -0.2681972086429596 0.04723922908306122
			vertex 0.15785162150859833 -0.18059222400188446 0.04723922908306122
			vertex 0.14772531390190125 -0.2043270766735077 0.04723922908306122
		endloop
	endfacet
	facet normal 0 0 -1
		outer loop
			vertex 0.10000000149011612 -0.2681972086429596 0.04723922908306122
			vertex 0.14772531390190125 -0.2043270766735077 0.04723922908306122
			vertex 0.12755535542964935 -0.2464994639158249 0.04723922908306122
		endloop
	endfacet
	facet normal 0 0 -1
		outer loop
			vertex 0.10000000149011612 -0.2681972086429596 0.04723922908306122
			vertex 0.12755535542964935 -0.2464994639158249 0.04723922908306122
			vertex 0.10866158455610275 -0.263353168964386 0.04723922908306122
		endloop
	endfacet
endsolid exported
