solid exported
	facet normal 0.6086113874828771 -0.2641590537588515 0.7482059698661829
		outer loop
			vertex 0.10000000149011612 -0.16703307628631592 0.23619616031646729
			vertex 0.1053069680929184 -0.15480604767799377 0.23619616031646729
			vertex 0.10000000149011612 -0.12982864677906036 0.24933142960071564
		endloop
	endfacet
	facet normal 0.6086126437472372 -0.2641580716578226 0.7482052947213214
		outer loop
			vertex 0.1092604547739029 -0.14569735527038574 0.23619616031646729
			vertex 0.10000000149011612 -0.11313314735889435 0.25522586703300476
			vertex 0.10000000149011612 -0.12781020998954773 0.250044047832489
		endloop
	endfacet
	facet normal 0.6086117956500836 -0.26415883591812334 0.748205714761631
		outer loop
			vertex 0.1092604547739029 -0.14569735527038574 0.23619616031646729
			vertex 0.10000000149011612 -0.12781020998954773 0.250044047832489
			vertex 0.1054273322224617 -0.15452872216701508 0.23619616031646729
		endloop
	endfacet
	facet normal 0.9159442766968694 0.02646943243972503 0.400431581087915
		outer loop
			vertex 0.10800804942846298 -0.1023595929145813 0.23619616031646729
			vertex 0.10000000149011612 -0.1023595929145813 0.2545137107372284
			vertex 0.10000000149011612 -0.11313314735889435 0.25522586703300476
		endloop
	endfacet
	facet normal 0.9159442363760745 0.026469605152759618 0.4004316619006383
		outer loop
			vertex 0.10800804942846298 -0.1023595929145813 0.23619616031646729
			vertex 0.10000000149011612 -0.11313314735889435 0.25522586703300476
			vertex 0.1092604547739029 -0.14569735527038574 0.23619616031646729
		endloop
	endfacet
	facet normal 0.6086227332318662 -0.2641529271764225 0.7481989038066685
		outer loop
			vertex 0.10000000149011612 -0.12982864677906036 0.24933142960071564
			vertex 0.1053069680929184 -0.15480604767799377 0.23619616031646729
			vertex 0.1054273322224617 -0.15452872216701508 0.23619616031646729
		endloop
	endfacet
	facet normal 0.6086164462245863 -0.26415637999451863 0.7482027989075868
		outer loop
			vertex 0.10000000149011612 -0.12982864677906036 0.24933142960071564
			vertex 0.1054273322224617 -0.15452872216701508 0.23619616031646729
			vertex 0.10000000149011612 -0.12781020998954773 0.250044047832489
		endloop
	endfacet
	facet normal -1 0 0
		outer loop
			vertex 0.10000000149011612 -0.1023595929145813 0.23619616031646729
			vertex 0.10000000149011612 -0.16703307628631592 0.23619616031646729
			vertex 0.10000000149011612 -0.12982864677906036 0.24933142960071564
		endloop
	endfacet
	facet normal -1 0 0
		outer loop
			vertex 0.10000000149011612 -0.1023595929145813 0.23619616031646729
			vertex 0.10000000149011612 -0.12982864677906036 0.24933142960071564
			vertex 0.10000000149011612 -0.1023595929145813 0.24720780551433563
		endloop
	endfacet
	facet normal -1 0 0
		outer loop
			vertex 0.10000000149011612 -0.1023595929145813 0.2545137107372284
			vertex 0.10000000149011612 -0.1023595929145813 0.2524535357952118
			vertex 0.10000000149011612 -0.12781020998954773 0.250044047832489
		endloop
	endfacet
	facet normal -1 0 0
		outer loop
			vertex 0.10000000149011612 -0.1023595929145813 0.2545137107372284
			vertex 0.10000000149011612 -0.12781020998954773 0.250044047832489
			vertex 0.10000000149011612 -0.11313314735889435 0.25522586703300476
		endloop
	endfacet
	facet normal -1 0 0
		outer loop
			vertex 0.10000000149011612 -0.1023595929145813 0.2524535357952118
			vertex 0.10000000149011612 -0.1023595929145813 0.2478940337896347
			vertex 0.10000000149011612 -0.12141256034374237 0.25064972043037415
		endloop
	endfacet
	facet normal -1 0 0
		outer loop
			vertex 0.10000000149011612 -0.1023595929145813 0.2478940337896347
			vertex 0.10000000149011612 -0.1023595929145813 0.24720780551433563
			vertex 0.10000000149011612 -0.12982864677906036 0.24933142960071564
		endloop
	endfacet
	facet normal -1 0 0
		outer loop
			vertex 0.10000000149011612 -0.1023595929145813 0.2478940337896347
			vertex 0.10000000149011612 -0.12982864677906036 0.24933142960071564
			vertex 0.10000000149011612 -0.12781020998954773 0.250044047832489
		endloop
	endfacet
	facet normal -1 0 0
		outer loop
			vertex 0.10000000149011612 -0.1023595929145813 0.2478940337896347
			vertex 0.10000000149011612 -0.12781020998954773 0.250044047832489
			vertex 0.10000000149011612 -0.12141256034374237 0.25064972043037415
		endloop
	endfacet
	facet normal 0 1 0
		outer loop
			vertex 0.10000000149011612 -0.1023595929145813 0.23619616031646729
			vertex 0.10000000149011612 -0.1023595929145813 0.24720780551433563
			vertex 0.10387877374887466 -0.1023595929145813 0.23619616031646729
		endloop
	endfacet
	facet normal 0 1 0
		outer loop
			vertex 0.10000000149011612 -0.1023595929145813 0.2524535357952118
			vertex 0.10000000149011612 -0.1023595929145813 0.2545137107372284
			vertex 0.10800804942846298 -0.1023595929145813 0.23619616031646729
		endloop
	endfacet
	facet normal 0 1 0
		outer loop
			vertex 0.10000000149011612 -0.1023595929145813 0.2524535357952118
			vertex 0.10800804942846298 -0.1023595929145813 0.23619616031646729
			vertex 0.10779566317796707 -0.1023595929145813 0.23619616031646729
		endloop
	endfacet
	facet normal 0 1 0
		outer loop
			vertex 0.10000000149011612 -0.1023595929145813 0.2478940337896347
			vertex 0.10000000149011612 -0.1023595929145813 0.2524535357952118
			vertex 0.10517583787441254 -0.1023595929145813 0.24165962636470795
		endloop
	endfacet
	facet normal 0 1 0
		outer loop
			vertex 0.10000000149011612 -0.1023595929145813 0.24720780551433563
			vertex 0.10000000149011612 -0.1023595929145813 0.2478940337896347
			vertex 0.10517583787441254 -0.1023595929145813 0.24165962636470795
		endloop
	endfacet
	facet normal 0 1 0
		outer loop
			vertex 0.10000000149011612 -0.1023595929145813 0.24720780551433563
			vertex 0.10517583787441254 -0.1023595929145813 0.24165962636470795
			vertex 0.10779566317796707 -0.1023595929145813 0.23619616031646729
		endloop
	endfacet
	facet normal 0 1 0
		outer loop
			vertex 0.10000000149011612 -0.1023595929145813 0.24720780551433563
			vertex 0.10779566317796707 -0.1023595929145813 0.23619616031646729
			vertex 0.10387877374887466 -0.1023595929145813 0.23619616031646729
		endloop
	endfacet
	facet normal 0 0 -1
		outer loop
			vertex 0.10398998856544495 -0.10644371807575226 0.23619616031646729
			vertex 0.10000000149011612 -0.1023595929145813 0.23619616031646729
			vertex 0.10387877374887466 -0.1023595929145813 0.23619616031646729
		endloop
	endfacet
	facet normal 0 0 -1
		outer loop
			vertex 0.10000000149011612 -0.16703307628631592 0.23619616031646729
			vertex 0.10000000149011612 -0.1023595929145813 0.23619616031646729
			vertex 0.10398998856544495 -0.10644371807575226 0.23619616031646729
		endloop
	endfacet
	facet normal 0 0 -1
		outer loop
			vertex 0.10000000149011612 -0.16703307628631592 0.23619616031646729
			vertex 0.10398998856544495 -0.10644371807575226 0.23619616031646729
			vertex 0.1053069680929184 -0.15480604767799377 0.23619616031646729
		endloop
	endfacet
	facet normal 0 0 -1
		outer loop
			vertex 0.10825215280056 -0.11080645769834518 0.23619616031646729
			vertex 0.1074494943022728 -0.1099848672747612 0.23619616031646729
			vertex 0.10779566317796707 -0.1023595929145813 0.23619616031646729
		endloop
	endfacet
	facet normal 0 0 -1
		outer loop
			vertex 0.10825215280056 -0.11080645769834518 0.23619616031646729
			vertex 0.10779566317796707 -0.1023595929145813 0.23619616031646729
			vertex 0.10800804942846298 -0.1023595929145813 0.23619616031646729
		endloop
	endfacet
	facet normal 0 0 -1
		outer loop
			vertex 0.1054273322224617 -0.15452872216701508 0.23619616031646729
			vertex 0.1074494943022728 -0.1099848672747612 0.23619616031646729
			vertex 0.10825215280056 -0.11080645769834518 0.23619616031646729
		endloop
	endfacet
	facet normal 0 0 -1
		outer loop
			vertex 0.1054273322224617 -0.15452872216701508 0.23619616031646729
			vertex 0.10825215280056 -0.11080645769834518 0.23619616031646729
			vertex 0.1092604547739029 -0.14569735527038574 0.23619616031646729
		endloop
	endfacet
	facet normal 0 0 -1
		outer loop
			vertex 0.1074494943022728 -0.1099848672747612 0.23619616031646729
			vertex 0.10398998856544495 -0.10644371807575226 0.23619616031646729
			vertex 0.10387877374887466 -0.1023595929145813 0.23619616031646729
		endloop
	endfacet
	facet normal 0 0 -1
		outer loop
			vertex 0.1074494943022728 -0.1099848672747612 0.23619616031646729
			vertex 0.10387877374887466 -0.1023595929145813 0.23619616031646729
			vertex 0.10779566317796707 -0.1023595929145813 0.23619616031646729
		endloop
	endfacet
	facet normal 0 0 -1
		outer loop
			vertex 0.1053069680929184 -0.15480604767799377 0.23619616031646729
			vertex 0.10398998856544495 -0.10644371807575226 0.23619616031646729
			vertex 0.1074494943022728 -0.1099848672747612 0.23619616031646729
		endloop
	endfacet
	facet normal 0 0 -1
		outer loop
			vertex 0.1053069680929184 -0.15480604767799377 0.23619616031646729
			vertex 0.1074494943022728 -0.1099848672747612 0.23619616031646729
			vertex 0.1054273322224617 -0.15452872216701508 0.23619616031646729
		endloop
	endfacet
endsolid exported
