solid exported
	facet normal -0.5949791833548487 0.1353549979162433 -0.7922618228297329
		outer loop
			vertex 0.10000000149011612 -0.05587136372923851 0.23926544189453125
			vertex 0.10210808366537094 -0.056085746735334396 0.23764567077159882
			vertex 0.10215788334608078 -0.05650476738810539 0.23753668367862701
		endloop
	endfacet
	facet normal -0.5949804605664766 0.13535024502700108 -0.7922616756572504
		outer loop
			vertex 0.10000000149011612 -0.05587136372923851 0.23926544189453125
			vertex 0.10215788334608078 -0.05650476738810539 0.23753668367862701
			vertex 0.10000000149011612 -0.05666352063417435 0.23913010954856873
		endloop
	endfacet
	facet normal 0.580742786200741 0.14556234667381648 0.8009678017914403
		outer loop
			vertex 0.10000000149011612 -0.05666352063417435 0.23913010954856873
			vertex 0.10215788334608078 -0.05650476738810539 0.23753668367862701
			vertex 0.10234936326742172 -0.0526285395026207 0.23669341206550598
		endloop
	endfacet
	facet normal 0.5807412601097326 0.14556374948561326 0.8009686533453413
		outer loop
			vertex 0.10000000149011612 -0.05666352063417435 0.23913010954856873
			vertex 0.10234936326742172 -0.0526285395026207 0.23669341206550598
			vertex 0.10000000149011612 -0.04862080514431 0.2376684695482254
		endloop
	endfacet
	facet normal 0.6609738180793125 0.21235925208104953 0.7197340896950992
		outer loop
			vertex 0.10249058902263641 -0.05138283222913742 0.23619616031646729
			vertex 0.10000000149011612 -0.04363081231713295 0.23619616031646729
			vertex 0.10000000149011612 -0.04862080514431 0.2376684695482254
		endloop
	endfacet
	facet normal 0.6609755591887555 0.21236212650808695 0.7197316426141589
		outer loop
			vertex 0.10249058902263641 -0.05138283222913742 0.23619616031646729
			vertex 0.10000000149011612 -0.04862080514431 0.2376684695482254
			vertex 0.10234936326742172 -0.0526285395026207 0.23669341206550598
		endloop
	endfacet
	facet normal 0.47333599776114765 0.7094578763068555 0.5221326986213612
		outer loop
			vertex 0.10000000149011612 -0.059264689683914185 0.24387618899345398
			vertex 0.10210808366537094 -0.056085746735334396 0.23764567077159882
			vertex 0.10000000149011612 -0.05587136372923851 0.23926544189453125
		endloop
	endfacet
	facet normal 0.9009387208250521 -0.04089936193857796 0.4320146565929635
		outer loop
			vertex 0.10968524217605591 -0.06073629856109619 0.23619616031646729
			vertex 0.10000000149011612 -0.06829415261745453 0.25567859411239624
			vertex 0.10000000149011612 -0.08954554051160812 0.2536666989326477
		endloop
	endfacet
	facet normal 0.9009391596229925 -0.040900107168229095 0.4320136709543384
		outer loop
			vertex 0.10968524217605591 -0.06073629856109619 0.23619616031646729
			vertex 0.10000000149011612 -0.08954554051160812 0.2536666989326477
			vertex 0.10792543739080429 -0.09950091689825058 0.23619616031646729
		endloop
	endfacet
	facet normal 0.9159445502368695 0.026469681229935073 0.4004309389482346
		outer loop
			vertex 0.10800804942846298 -0.1023595854640007 0.23619616031646729
			vertex 0.10792543739080429 -0.09950091689825058 0.23619616031646729
			vertex 0.10000000149011612 -0.08954554051160812 0.2536666989326477
		endloop
	endfacet
	facet normal 0.9159442960350646 0.026468635355137916 0.4004315895421674
		outer loop
			vertex 0.10800804942846298 -0.1023595854640007 0.23619616031646729
			vertex 0.10000000149011612 -0.08954554051160812 0.2536666989326477
			vertex 0.10000000149011612 -0.1023595854640007 0.2545137107372284
		endloop
	endfacet
	facet normal 0.5292978044512282 0.6684923161298886 0.5224575173910379
		outer loop
			vertex 0.10000000149011612 -0.06829415261745453 0.25567859411239624
			vertex 0.10968524217605591 -0.06073629856109619 0.23619616031646729
			vertex 0.10437213629484177 -0.05652949586510658 0.23619616031646729
		endloop
	endfacet
	facet normal 0.5293006825349874 0.6684904250249131 0.5224570213118085
		outer loop
			vertex 0.10000000149011612 -0.06829415261745453 0.25567859411239624
			vertex 0.10437213629484177 -0.05652949586510658 0.23619616031646729
			vertex 0.10000000149011612 -0.06240758299827576 0.248146653175354
		endloop
	endfacet
	facet normal 0.4733343507425329 0.709458967190265 0.5221327094527476
		outer loop
			vertex 0.10000000149011612 -0.06240758299827576 0.248146653175354
			vertex 0.10437213629484177 -0.05652949586510658 0.23619616031646729
			vertex 0.10419433563947678 -0.05641087144613266 0.23619616031646729
		endloop
	endfacet
	facet normal 0.4733372538333362 0.7094570050495363 0.522132743772748
		outer loop
			vertex 0.10000000149011612 -0.06240758299827576 0.248146653175354
			vertex 0.10419433563947678 -0.05641087144613266 0.23619616031646729
			vertex 0.1014450341463089 -0.05708561837673187 0.2396053522825241
		endloop
	endfacet
	facet normal 0.4733357271123242 0.7094578337349228 0.5221330018215649
		outer loop
			vertex 0.10000000149011612 -0.06240758299827576 0.248146653175354
			vertex 0.1014450341463089 -0.05708561837673187 0.2396053522825241
			vertex 0.10000000149011612 -0.059264689683914185 0.24387618899345398
		endloop
	endfacet
	facet normal -0.5949836003459268 0.13533331713399593 -0.7922622094943742
		outer loop
			vertex 0.10210808366537094 -0.056085746735334396 0.23764567077159882
			vertex 0.10399457067251205 -0.056277595460414886 0.23619616031646729
			vertex 0.10397327691316605 -0.056371212005615234 0.23619616031646729
		endloop
	endfacet
	facet normal -0.594979716382939 0.13535483757478592 -0.7922614499254529
		outer loop
			vertex 0.10210808366537094 -0.056085746735334396 0.23764567077159882
			vertex 0.10397327691316605 -0.056371212005615234 0.23619616031646729
			vertex 0.10215788334608078 -0.05650476738810539 0.23753668367862701
		endloop
	endfacet
	facet normal 0.5807418793924133 0.14556559486180534 0.8009678689637284
		outer loop
			vertex 0.10215788334608078 -0.05650476738810539 0.23753668367862701
			vertex 0.10397327691316605 -0.056371212005615234 0.23619616031646729
			vertex 0.10354744642972946 -0.05467233806848526 0.23619616031646729
		endloop
	endfacet
	facet normal 0.5807451487859854 0.14556187591493489 0.8009661743430049
		outer loop
			vertex 0.10215788334608078 -0.05650476738810539 0.23753668367862701
			vertex 0.10354744642972946 -0.05467233806848526 0.23619616031646729
			vertex 0.10234936326742172 -0.0526285395026207 0.23669341206550598
		endloop
	endfacet
	facet normal 0.6609794224236738 0.21236046769354194 0.7197285841853488
		outer loop
			vertex 0.10249058902263641 -0.05138283222913742 0.23619616031646729
			vertex 0.10234936326742172 -0.0526285395026207 0.23669341206550598
			vertex 0.10354744642972946 -0.05467233806848526 0.23619616031646729
		endloop
	endfacet
	facet normal 0.47333141882344676 0.7094679115325501 0.5221232138683595
		outer loop
			vertex 0.10419433563947678 -0.05641087144613266 0.23619616031646729
			vertex 0.10399457067251205 -0.056277595460414886 0.23619616031646729
			vertex 0.10210808366537094 -0.056085746735334396 0.23764567077159882
		endloop
	endfacet
	facet normal 0.47333605594069517 0.7094583232120826 0.5221320386373616
		outer loop
			vertex 0.10419433563947678 -0.05641087144613266 0.23619616031646729
			vertex 0.10210808366537094 -0.056085746735334396 0.23764567077159882
			vertex 0.1014450341463089 -0.05708561837673187 0.2396053522825241
		endloop
	endfacet
	facet normal -1 0 0
		outer loop
			vertex 0.10000000149011612 -0.04363081231713295 0.23619616031646729
			vertex 0.10000000149011612 -0.07383759319782257 0.23619616031646729
			vertex 0.10000000149011612 -0.05666352063417435 0.23913010954856873
		endloop
	endfacet
	facet normal -1 0 0
		outer loop
			vertex 0.10000000149011612 -0.04363081231713295 0.23619616031646729
			vertex 0.10000000149011612 -0.05666352063417435 0.23913010954856873
			vertex 0.10000000149011612 -0.04862080514431 0.2376684695482254
		endloop
	endfacet
	facet normal -1 0 0
		outer loop
			vertex 0.10000000149011612 -0.07383759319782257 0.23619616031646729
			vertex 0.10000000149011612 -0.1023595854640007 0.23619616031646729
			vertex 0.10000000149011612 -0.08192268013954163 0.24562786519527435
		endloop
	endfacet
	facet normal -1 0 0
		outer loop
			vertex 0.10000000149011612 -0.07383759319782257 0.23619616031646729
			vertex 0.10000000149011612 -0.08192268013954163 0.24562786519527435
			vertex 0.10000000149011612 -0.059264689683914185 0.24387618899345398
		endloop
	endfacet
	facet normal -1 0 0
		outer loop
			vertex 0.10000000149011612 -0.07383759319782257 0.23619616031646729
			vertex 0.10000000149011612 -0.059264689683914185 0.24387618899345398
			vertex 0.10000000149011612 -0.05587136372923851 0.23926544189453125
		endloop
	endfacet
	facet normal -1 0 0
		outer loop
			vertex 0.10000000149011612 -0.1023595854640007 0.23619616031646729
			vertex 0.10000000149011612 -0.1023595854640007 0.24720780551433563
			vertex 0.10000000149011612 -0.08192268013954163 0.24562786519527435
		endloop
	endfacet
	facet normal -1 0 0
		outer loop
			vertex 0.10000000149011612 -0.1023595854640007 0.2524535357952118
			vertex 0.10000000149011612 -0.1023595854640007 0.2545137107372284
			vertex 0.10000000149011612 -0.08954554051160812 0.2536666989326477
		endloop
	endfacet
	facet normal -1 0 0
		outer loop
			vertex 0.10000000149011612 -0.059264689683914185 0.24387618899345398
			vertex 0.10000000149011612 -0.08192268013954163 0.24562786519527435
			vertex 0.10000000149011612 -0.06613383442163467 0.2529144585132599
		endloop
	endfacet
	facet normal -1 0 0
		outer loop
			vertex 0.10000000149011612 -0.059264689683914185 0.24387618899345398
			vertex 0.10000000149011612 -0.06613383442163467 0.2529144585132599
			vertex 0.10000000149011612 -0.06240758299827576 0.248146653175354
		endloop
	endfacet
	facet normal -1 0 0
		outer loop
			vertex 0.10000000149011612 -0.1023595854640007 0.2478940337896347
			vertex 0.10000000149011612 -0.1023595854640007 0.2524535357952118
			vertex 0.10000000149011612 -0.06829415261745453 0.25567859411239624
		endloop
	endfacet
	facet normal -1 0 0
		outer loop
			vertex 0.10000000149011612 -0.1023595854640007 0.2478940337896347
			vertex 0.10000000149011612 -0.06829415261745453 0.25567859411239624
			vertex 0.10000000149011612 -0.06613383442163467 0.2529144585132599
		endloop
	endfacet
	facet normal -1 0 0
		outer loop
			vertex 0.10000000149011612 -0.1023595854640007 0.2478940337896347
			vertex 0.10000000149011612 -0.06613383442163467 0.2529144585132599
			vertex 0.10000000149011612 -0.08192268013954163 0.24562786519527435
		endloop
	endfacet
	facet normal -1 0 0
		outer loop
			vertex 0.10000000149011612 -0.1023595854640007 0.2478940337896347
			vertex 0.10000000149011612 -0.08192268013954163 0.24562786519527435
			vertex 0.10000000149011612 -0.09216678142547607 0.24641981720924377
		endloop
	endfacet
	facet normal -1 0 0
		outer loop
			vertex 0.10000000149011612 -0.1023595854640007 0.24720780551433563
			vertex 0.10000000149011612 -0.1023595854640007 0.2478940337896347
			vertex 0.10000000149011612 -0.09216678142547607 0.24641981720924377
		endloop
	endfacet
	facet normal 0 -1 0
		outer loop
			vertex 0.10000000149011612 -0.1023595854640007 0.24720780551433563
			vertex 0.10000000149011612 -0.1023595854640007 0.23619616031646729
			vertex 0.10332541912794113 -0.1023595854640007 0.2377670556306839
		endloop
	endfacet
	facet normal 0 -1 0
		outer loop
			vertex 0.10000000149011612 -0.1023595854640007 0.23619616031646729
			vertex 0.10387875884771347 -0.1023595854640007 0.23619616031646729
			vertex 0.10332541912794113 -0.1023595854640007 0.2377670556306839
		endloop
	endfacet
	facet normal 0 -1 0
		outer loop
			vertex 0.10000000149011612 -0.1023595854640007 0.2545137107372284
			vertex 0.10000000149011612 -0.1023595854640007 0.2524535357952118
			vertex 0.10635592043399811 -0.1023595854640007 0.23919866979122162
		endloop
	endfacet
	facet normal 0 -1 0
		outer loop
			vertex 0.10000000149011612 -0.1023595854640007 0.2545137107372284
			vertex 0.10635592043399811 -0.1023595854640007 0.23919866979122162
			vertex 0.10663731396198273 -0.1023595854640007 0.23933158814907074
		endloop
	endfacet
	facet normal 0 -1 0
		outer loop
			vertex 0.10779566317796707 -0.1023595854640007 0.23619616031646729
			vertex 0.10800804942846298 -0.1023595854640007 0.23619616031646729
			vertex 0.10663731396198273 -0.1023595854640007 0.23933158814907074
		endloop
	endfacet
	facet normal 0 -1 0
		outer loop
			vertex 0.10779566317796707 -0.1023595854640007 0.23619616031646729
			vertex 0.10663731396198273 -0.1023595854640007 0.23933158814907074
			vertex 0.10635592043399811 -0.1023595854640007 0.23919866979122162
		endloop
	endfacet
	facet normal 0 -1 0
		outer loop
			vertex 0.10000000149011612 -0.1023595854640007 0.2524535357952118
			vertex 0.10000000149011612 -0.1023595854640007 0.2478940337896347
			vertex 0.10517585277557373 -0.1023595854640007 0.24165962636470795
		endloop
	endfacet
	facet normal 0 -1 0
		outer loop
			vertex 0.10000000149011612 -0.1023595854640007 0.2478940337896347
			vertex 0.10000000149011612 -0.1023595854640007 0.24720780551433563
			vertex 0.10332541912794113 -0.1023595854640007 0.2377670556306839
		endloop
	endfacet
	facet normal 0 -1 0
		outer loop
			vertex 0.10000000149011612 -0.1023595854640007 0.2478940337896347
			vertex 0.10332541912794113 -0.1023595854640007 0.2377670556306839
			vertex 0.10635592043399811 -0.1023595854640007 0.23919866979122162
		endloop
	endfacet
	facet normal 0 -1 0
		outer loop
			vertex 0.10000000149011612 -0.1023595854640007 0.2478940337896347
			vertex 0.10635592043399811 -0.1023595854640007 0.23919866979122162
			vertex 0.10517585277557373 -0.1023595854640007 0.24165962636470795
		endloop
	endfacet
	facet normal 0 -1 0
		outer loop
			vertex 0.10387875884771347 -0.1023595854640007 0.23619616031646729
			vertex 0.10779566317796707 -0.1023595854640007 0.23619616031646729
			vertex 0.10635592043399811 -0.1023595854640007 0.23919866979122162
		endloop
	endfacet
	facet normal 0 -1 0
		outer loop
			vertex 0.10387875884771347 -0.1023595854640007 0.23619616031646729
			vertex 0.10635592043399811 -0.1023595854640007 0.23919866979122162
			vertex 0.10332541912794113 -0.1023595854640007 0.2377670556306839
		endloop
	endfacet
	facet normal 0 0 -1
		outer loop
			vertex 0.10000000149011612 -0.07383759319782257 0.23619616031646729
			vertex 0.10000000149011612 -0.04363081231713295 0.23619616031646729
			vertex 0.10249058902263641 -0.05138283222913742 0.23619616031646729
		endloop
	endfacet
	facet normal 0 0 -1
		outer loop
			vertex 0.10000000149011612 -0.07383759319782257 0.23619616031646729
			vertex 0.10249058902263641 -0.05138283222913742 0.23619616031646729
			vertex 0.10277043282985687 -0.06165890395641327 0.23619616031646729
		endloop
	endfacet
	facet normal 0 0 -1
		outer loop
			vertex 0.10387875884771347 -0.1023595854640007 0.23619616031646729
			vertex 0.10000000149011612 -0.1023595854640007 0.23619616031646729
			vertex 0.10000000149011612 -0.07383759319782257 0.23619616031646729
		endloop
	endfacet
	facet normal 0 0 -1
		outer loop
			vertex 0.10387875884771347 -0.1023595854640007 0.23619616031646729
			vertex 0.10000000149011612 -0.07383759319782257 0.23619616031646729
			vertex 0.10277043282985687 -0.06165890395641327 0.23619616031646729
		endloop
	endfacet
	facet normal 0 0 -1
		outer loop
			vertex 0.10800804942846298 -0.1023595854640007 0.23619616031646729
			vertex 0.10779566317796707 -0.1023595854640007 0.23619616031646729
			vertex 0.10792543739080429 -0.09950091689825058 0.23619616031646729
		endloop
	endfacet
	facet normal 0 0 -1
		outer loop
			vertex 0.10968524217605591 -0.06073629856109619 0.23619616031646729
			vertex 0.10832130908966064 -0.09078071266412735 0.23619616031646729
			vertex 0.10419433563947678 -0.05641087144613266 0.23619616031646729
		endloop
	endfacet
	facet normal 0 0 -1
		outer loop
			vertex 0.10968524217605591 -0.06073629856109619 0.23619616031646729
			vertex 0.10419433563947678 -0.05641087144613266 0.23619616031646729
			vertex 0.10437213629484177 -0.05652949586510658 0.23619616031646729
		endloop
	endfacet
	facet normal 0 0 -1
		outer loop
			vertex 0.10277043282985687 -0.06165890395641327 0.23619616031646729
			vertex 0.10249058902263641 -0.05138283222913742 0.23619616031646729
			vertex 0.10354744642972946 -0.05467233806848526 0.23619616031646729
		endloop
	endfacet
	facet normal 0 0 -1
		outer loop
			vertex 0.10277043282985687 -0.06165890395641327 0.23619616031646729
			vertex 0.10354744642972946 -0.05467233806848526 0.23619616031646729
			vertex 0.10397327691316605 -0.056371212005615234 0.23619616031646729
		endloop
	endfacet
	facet normal 0 0 -1
		outer loop
			vertex 0.10779566317796707 -0.1023595854640007 0.23619616031646729
			vertex 0.10387875884771347 -0.1023595854640007 0.23619616031646729
			vertex 0.10277043282985687 -0.06165890395641327 0.23619616031646729
		endloop
	endfacet
	facet normal 0 0 -1
		outer loop
			vertex 0.10779566317796707 -0.1023595854640007 0.23619616031646729
			vertex 0.10277043282985687 -0.06165890395641327 0.23619616031646729
			vertex 0.10399457067251205 -0.056277595460414886 0.23619616031646729
		endloop
	endfacet
	facet normal 0 0 -1
		outer loop
			vertex 0.10779566317796707 -0.1023595854640007 0.23619616031646729
			vertex 0.10399457067251205 -0.056277595460414886 0.23619616031646729
			vertex 0.10419433563947678 -0.05641087144613266 0.23619616031646729
		endloop
	endfacet
	facet normal 0 0 -1
		outer loop
			vertex 0.10779566317796707 -0.1023595854640007 0.23619616031646729
			vertex 0.10419433563947678 -0.05641087144613266 0.23619616031646729
			vertex 0.10832130908966064 -0.09078071266412735 0.23619616031646729
		endloop
	endfacet
endsolid exported
