solid exported
	facet normal 0.18192733419701604 -0.8038301975544914 -0.5663563000192325
		outer loop
			vertex 0.10427282005548477 0.18135151267051697 -0.23619616031646729
			vertex 0.13477827608585358 0.14403197169303894 -0.17342939972877502
			vertex 0.10000000149011612 0.11955665051937103 -0.14986316859722137
		endloop
	endfacet
	facet normal 0.1819286922952085 -0.8038300247079612 -0.5663561090848708
		outer loop
			vertex 0.10427282005548477 0.18135151267051697 -0.23619616031646729
			vertex 0.10000000149011612 0.11955665051937103 -0.14986316859722137
			vertex 0.10000000149011612 0.18038445711135864 -0.23619616031646729
		endloop
	endfacet
	facet normal 0.39244232687895997 -0.8632698240128827 -0.3174180697795803
		outer loop
			vertex 0.1303986757993698 0.13038085401058197 -0.14171770215034485
			vertex 0.10000000149011612 0.11656162142753601 -0.14171770215034485
			vertex 0.10000000149011612 0.11955665051937103 -0.14986316859722137
		endloop
	endfacet
	facet normal 0.3924423007860883 -0.8632699172239928 -0.31741784853691213
		outer loop
			vertex 0.1303986757993698 0.13038085401058197 -0.14171770215034485
			vertex 0.10000000149011612 0.11955665051937103 -0.14986316859722137
			vertex 0.13477827608585358 0.14403197169303894 -0.17342939972877502
		endloop
	endfacet
	facet normal 0 1 0
		outer loop
			vertex 0.29999998211860657 0.3067464232444763 -0.14171770215034485
			vertex 0.29999998211860657 0.3067464232444763 -0.23619616031646729
			vertex 0.2254573106765747 0.3067464232444763 -0.23619616031646729
		endloop
	endfacet
	facet normal 0 1 0
		outer loop
			vertex 0.29999998211860657 0.3067464232444763 -0.14171770215034485
			vertex 0.2254573106765747 0.3067464232444763 -0.23619616031646729
			vertex 0.28420907258987427 0.3067464232444763 -0.14171770215034485
		endloop
	endfacet
	facet normal 0 1 0
		outer loop
			vertex 0.28420907258987427 0.3067464232444763 -0.14171770215034485
			vertex 0.2254573106765747 0.3067464232444763 -0.23619616031646729
			vertex 0.19071777164936066 0.3067464232444763 -0.23619616031646729
		endloop
	endfacet
	facet normal 0 1 0
		outer loop
			vertex 0.28420907258987427 0.3067464232444763 -0.14171770215034485
			vertex 0.19071777164936066 0.3067464232444763 -0.23619616031646729
			vertex 0.1826433688402176 0.3067464232444763 -0.14171770215034485
		endloop
	endfacet
	facet normal 0 1 0
		outer loop
			vertex 0.10000000149011612 0.3067464232444763 -0.23619616031646729
			vertex 0.10000000149011612 0.3067464232444763 -0.14171770215034485
			vertex 0.10857658088207245 0.3067464232444763 -0.14171770215034485
		endloop
	endfacet
	facet normal 0 1 0
		outer loop
			vertex 0.10000000149011612 0.3067464232444763 -0.23619616031646729
			vertex 0.10857658088207245 0.3067464232444763 -0.14171770215034485
			vertex 0.1653839647769928 0.3067464232444763 -0.23619616031646729
		endloop
	endfacet
	facet normal 0 1 0
		outer loop
			vertex 0.1826433688402176 0.3067464232444763 -0.14171770215034485
			vertex 0.19071777164936066 0.3067464232444763 -0.23619616031646729
			vertex 0.1653839647769928 0.3067464232444763 -0.23619616031646729
		endloop
	endfacet
	facet normal 0 1 0
		outer loop
			vertex 0.1826433688402176 0.3067464232444763 -0.14171770215034485
			vertex 0.1653839647769928 0.3067464232444763 -0.23619616031646729
			vertex 0.10857658088207245 0.3067464232444763 -0.14171770215034485
		endloop
	endfacet
	facet normal 0.42848120706985404 -0.8841303028071509 0.18632622694107387
		outer loop
			vertex 0.28328895568847656 0.19643443822860718 -0.14171770215034485
			vertex 0.2799109220504761 0.1947973221540451 -0.14171770215034485
			vertex 0.28262120485305786 0.19580690562725067 -0.14315980672836304
		endloop
	endfacet
	facet normal 0.44358053490053345 -0.871499516753502 0.20910500079091737
		outer loop
			vertex 0.20807090401649475 0.16011740267276764 -0.14171770215034485
			vertex 0.22482553124427795 0.1641741394996643 -0.16035227477550507
			vertex 0.27427318692207336 0.19381339848041534 -0.14171770215034485
		endloop
	endfacet
	facet normal 0.5520582657039919 -0.7658813487954905 0.32963226607099755
		outer loop
			vertex 0.1945660561323166 0.15038292109966278 -0.14171770215034485
			vertex 0.1962207853794098 0.15027466416358948 -0.1447405219078064
			vertex 0.22482553124427795 0.1641741394996643 -0.16035227477550507
		endloop
	endfacet
	facet normal 0.5520581169827742 -0.7658816586264536 0.32963179527015657
		outer loop
			vertex 0.1945660561323166 0.15038292109966278 -0.14171770215034485
			vertex 0.22482553124427795 0.1641741394996643 -0.16035227477550507
			vertex 0.20807090401649475 0.16011740267276764 -0.14171770215034485
		endloop
	endfacet
	facet normal 0.4284801299371348 -0.8841325491701703 0.18631804460897644
		outer loop
			vertex 0.2799109220504761 0.1947973221540451 -0.14171770215034485
			vertex 0.259711891412735 0.1850081980228424 -0.14171770215034485
			vertex 0.22482553124427795 0.1641741394996643 -0.16035227477550507
		endloop
	endfacet
	facet normal 0.4284797431980344 -0.8841325094365028 0.186319122546396
		outer loop
			vertex 0.2799109220504761 0.1947973221540451 -0.14171770215034485
			vertex 0.22482553124427795 0.1641741394996643 -0.16035227477550507
			vertex 0.27180272340774536 0.18564052879810333 -0.1665225625038147
		endloop
	endfacet
	facet normal 0.428478670766801 -0.8841329231144767 0.1863196258126517
		outer loop
			vertex 0.2799109220504761 0.1947973221540451 -0.14171770215034485
			vertex 0.27180272340774536 0.18564052879810333 -0.1665225625038147
			vertex 0.28262120485305786 0.19580690562725067 -0.14315980672836304
		endloop
	endfacet
	facet normal -0.5174119408579887 0.8556520896027626 0.012016031624265228
		outer loop
			vertex 0.27427318692207336 0.19381339848041534 -0.14171770215034485
			vertex 0.22482553124427795 0.1641741394996643 -0.16035227477550507
			vertex 0.259711891412735 0.1850081980228424 -0.14171770215034485
		endloop
	endfacet
	facet normal 0.3084992089662838 -0.8157539355241588 -0.48925837217570833
		outer loop
			vertex 0.22482553124427795 0.1641741394996643 -0.16035227477550507
			vertex 0.26849961280822754 0.18477118015289307 -0.16715583205223083
			vertex 0.27180272340774536 0.18564052879810333 -0.1665225625038147
		endloop
	endfacet
	facet normal 0.05555945118492093 -0.7941170159481018 -0.6052200528450066
		outer loop
			vertex 0.22482553124427795 0.1641741394996643 -0.16035227477550507
			vertex 0.1962207853794098 0.15027466416358948 -0.1447405219078064
			vertex 0.1974509358406067 0.15311849117279053 -0.148359015583992
		endloop
	endfacet
	facet normal 0.055555403034542185 -0.7941130461242302 -0.6052256332715643
		outer loop
			vertex 0.23544590175151825 0.17571736872196198 -0.17452320456504822
			vertex 0.22482553124427795 0.1641741394996643 -0.16035227477550507
			vertex 0.1974509358406067 0.15311849117279053 -0.148359015583992
		endloop
	endfacet
	facet normal 0.05555649722439744 -0.7941137302380101 -0.6052246352088029
		outer loop
			vertex 0.23544590175151825 0.17571736872196198 -0.17452320456504822
			vertex 0.1974509358406067 0.15311849117279053 -0.148359015583992
			vertex 0.20516034960746765 0.17094124853610992 -0.1710365265607834
		endloop
	endfacet
	facet normal 0.2835374594293357 -0.8365058962871479 -0.4688969978334191
		outer loop
			vertex 0.24780718982219696 0.17882178723812103 -0.17258669435977936
			vertex 0.22482553124427795 0.1641741394996643 -0.16035227477550507
			vertex 0.23544590175151825 0.17571736872196198 -0.17452320456504822
		endloop
	endfacet
	facet normal 0.3978435870083079 -0.869271194258389 -0.29340768754236335
		outer loop
			vertex 0.22482553124427795 0.1641741394996643 -0.16035227477550507
			vertex 0.24780718982219696 0.17882178723812103 -0.17258669435977936
			vertex 0.2554929852485657 0.18134793639183044 -0.16964936256408691
		endloop
	endfacet
	facet normal 0.308497331969217 -0.8157516211128675 -0.4892634145525327
		outer loop
			vertex 0.22482553124427795 0.1641741394996643 -0.16035227477550507
			vertex 0.2554929852485657 0.18134793639183044 -0.16964936256408691
			vertex 0.26849961280822754 0.18477118015289307 -0.16715583205223083
		endloop
	endfacet
	facet normal 0.1819272854329674 -0.8038304271798452 -0.5663559897757411
		outer loop
			vertex 0.15127931535243988 0.15564464032649994 -0.1846107542514801
			vertex 0.13477827608585358 0.14403197169303894 -0.17342939972877502
			vertex 0.12904463708400726 0.15104635059833527 -0.185226708650589
		endloop
	endfacet
	facet normal 0.39244279604115856 -0.8632700497013062 -0.31741687592833223
		outer loop
			vertex 0.19275997579097748 0.16898566484451294 -0.16960889101028442
			vertex 0.1641577184200287 0.1457277238368988 -0.14171770215034485
			vertex 0.1303986757993698 0.13038085401058197 -0.14171770215034485
		endloop
	endfacet
	facet normal 0.392442280770276 -0.8632699242022235 -0.3174178543051907
		outer loop
			vertex 0.19275997579097748 0.16898566484451294 -0.16960889101028442
			vertex 0.1303986757993698 0.13038085401058197 -0.14171770215034485
			vertex 0.13477827608585358 0.14403197169303894 -0.17342939972877502
		endloop
	endfacet
	facet normal 0.392442277823382 -0.8632699115136859 -0.3174178924571649
		outer loop
			vertex 0.19275997579097748 0.16898566484451294 -0.16960889101028442
			vertex 0.13477827608585358 0.14403197169303894 -0.17342939972877502
			vertex 0.15127931535243988 0.15564464032649994 -0.1846107542514801
		endloop
	endfacet
	facet normal 0.5520609023320925 -0.7658788653454474 0.3296336204537487
		outer loop
			vertex 0.19068218767642975 0.14758335053920746 -0.14171770215034485
			vertex 0.1962207853794098 0.15027466416358948 -0.1447405219078064
			vertex 0.1945660561323166 0.15038292109966278 -0.14171770215034485
		endloop
	endfacet
	facet normal 0.0555551697515674 -0.79410982299202 -0.6052298837148222
		outer loop
			vertex 0.1962207853794098 0.15027466416358948 -0.1447405219078064
			vertex 0.19068218767642975 0.14758335053920746 -0.14171770215034485
			vertex 0.1641577184200287 0.1457277238368988 -0.14171770215034485
		endloop
	endfacet
	facet normal 0.055556308548567995 -0.7941140749243757 -0.605224200265868
		outer loop
			vertex 0.1962207853794098 0.15027466416358948 -0.1447405219078064
			vertex 0.1641577184200287 0.1457277238368988 -0.14171770215034485
			vertex 0.19275997579097748 0.16898566484451294 -0.16960889101028442
		endloop
	endfacet
	facet normal 0.05555614757410788 -0.7941140929328923 -0.6052241914134745
		outer loop
			vertex 0.1962207853794098 0.15027466416358948 -0.1447405219078064
			vertex 0.19275997579097748 0.16898566484451294 -0.16960889101028442
			vertex 0.20516034960746765 0.17094124853610992 -0.1710365265607834
		endloop
	endfacet
	facet normal 0.18192765494758928 -0.8038301046587125 -0.5663563288333896
		outer loop
			vertex 0.11356576532125473 0.1834547370672226 -0.23619616031646729
			vertex 0.14627616107463837 0.15460994839668274 -0.18474933505058289
			vertex 0.12904463708400726 0.15104635059833527 -0.185226708650589
		endloop
	endfacet
	facet normal 0.18192678378210728 -0.8038303695567651 -0.5663562327024689
		outer loop
			vertex 0.11356576532125473 0.1834547370672226 -0.23619616031646729
			vertex 0.12904463708400726 0.15104635059833527 -0.185226708650589
			vertex 0.10427282005548477 0.18135151267051697 -0.23619616031646729
		endloop
	endfacet
	facet normal 0.4284772088853936 -0.8841317203077951 0.18632869508307584
		outer loop
			vertex 0.2855014204978943 0.19750666618347168 -0.14171770215034485
			vertex 0.28328895568847656 0.19643443822860718 -0.14171770215034485
			vertex 0.28262120485305786 0.19580690562725067 -0.14315980672836304
		endloop
	endfacet
	facet normal 0.42847799992038493 -0.8841316799316365 0.18632706761361556
		outer loop
			vertex 0.2855014204978943 0.19750666618347168 -0.14171770215034485
			vertex 0.28262120485305786 0.19580690562725067 -0.14315980672836304
			vertex 0.28347641229629517 0.19612546265125275 -0.14361487329006195
		endloop
	endfacet
	facet normal 0.4284749116381535 -0.8841348703674851 0.18631903042079992
		outer loop
			vertex 0.28262120485305786 0.19580690562725067 -0.14315980672836304
			vertex 0.2815936803817749 0.19484132528305054 -0.14537876844406128
			vertex 0.28347641229629517 0.19612546265125275 -0.14361487329006195
		endloop
	endfacet
	facet normal 0.18192735579435976 -0.8038301714638157 -0.5663563301121698
		outer loop
			vertex 0.11356576532125473 0.1834547370672226 -0.23619616031646729
			vertex 0.22740736603736877 0.2092200070619583 -0.23619616031646729
			vertex 0.15127931535243988 0.15564464032649994 -0.1846107542514801
		endloop
	endfacet
	facet normal 0.18192591448904694 -0.8038309459203618 -0.566355693904547
		outer loop
			vertex 0.11356576532125473 0.1834547370672226 -0.23619616031646729
			vertex 0.15127931535243988 0.15564464032649994 -0.1846107542514801
			vertex 0.14627616107463837 0.15460994839668274 -0.18474933505058289
		endloop
	endfacet
	facet normal 0.3924427696334762 -0.8632698595164036 -0.3174174258180155
		outer loop
			vertex 0.24545042216777802 0.21742236614227295 -0.23619616031646729
			vertex 0.25300854444503784 0.2179768979549408 -0.22835972905158997
			vertex 0.19275997579097748 0.16898566484451294 -0.16960889101028442
		endloop
	endfacet
	facet normal 0.3924422722319809 -0.8632699237370932 -0.3174178661265832
		outer loop
			vertex 0.24545042216777802 0.21742236614227295 -0.23619616031646729
			vertex 0.19275997579097748 0.16898566484451294 -0.16960889101028442
			vertex 0.15127931535243988 0.15564464032649994 -0.1846107542514801
		endloop
	endfacet
	facet normal 0.39244179344524543 -0.8632698517240989 -0.31741865392842283
		outer loop
			vertex 0.24545042216777802 0.21742236614227295 -0.23619616031646729
			vertex 0.15127931535243988 0.15564464032649994 -0.1846107542514801
			vertex 0.22740736603736877 0.2092200070619583 -0.23619616031646729
		endloop
	endfacet
	facet normal 0.055556469946950564 -0.7941140736882984 -0.6052241870722035
		outer loop
			vertex 0.2719620168209076 0.21540644764900208 -0.2232472151517868
			vertex 0.23544590175151825 0.17571736872196198 -0.17452320456504822
			vertex 0.19275997579097748 0.16898566484451294 -0.16960889101028442
		endloop
	endfacet
	facet normal 0.055556402294294434 -0.7941140306648032 -0.6052242497334476
		outer loop
			vertex 0.2719620168209076 0.21540644764900208 -0.2232472151517868
			vertex 0.19275997579097748 0.16898566484451294 -0.16960889101028442
			vertex 0.25300854444503784 0.2179768979549408 -0.22835972905158997
		endloop
	endfacet
	facet normal 0.42847962505591664 -0.8841325161782077 0.1863193622475471
		outer loop
			vertex 0.29999998211860657 0.2045331448316574 -0.14171770215034485
			vertex 0.2855014204978943 0.19750666618347168 -0.14171770215034485
			vertex 0.2815936803817749 0.19484132528305054 -0.14537876844406128
		endloop
	endfacet
	facet normal 0.4284796307440779 -0.8841325182771653 0.1863193392063654
		outer loop
			vertex 0.29999998211860657 0.2045331448316574 -0.14171770215034485
			vertex 0.2815936803817749 0.19484132528305054 -0.14537876844406128
			vertex 0.27180272340774536 0.18564052879810333 -0.1665225625038147
		endloop
	endfacet
	facet normal 0.42848033938672453 -0.8841323686260761 0.1863184196655866
		outer loop
			vertex 0.29999998211860657 0.2045331448316574 -0.14171770215034485
			vertex 0.27180272340774536 0.18564052879810333 -0.1665225625038147
			vertex 0.29999998211860657 0.19852538406848907 -0.17022618651390076
		endloop
	endfacet
	facet normal 0.2835406226844421 -0.8365073357769156 -0.4688925169792384
		outer loop
			vertex 0.29999998211860657 0.21456941962242126 -0.2047995775938034
			vertex 0.29999998211860657 0.21208754181861877 -0.2003718912601471
			vertex 0.24780718982219696 0.17882178723812103 -0.17258669435977936
		endloop
	endfacet
	facet normal 0.2835374509806117 -0.8365062226731038 -0.4688964206736845
		outer loop
			vertex 0.29999998211860657 0.21456941962242126 -0.2047995775938034
			vertex 0.24780718982219696 0.17882178723812103 -0.17258669435977936
			vertex 0.23544590175151825 0.17571736872196198 -0.17452320456504822
		endloop
	endfacet
	facet normal 0.2835381448632164 -0.8365065682228479 -0.46889538463026037
		outer loop
			vertex 0.29999998211860657 0.21456941962242126 -0.2047995775938034
			vertex 0.23544590175151825 0.17571736872196198 -0.17452320456504822
			vertex 0.2719620168209076 0.21540644764900208 -0.2232472151517868
		endloop
	endfacet
	facet normal 0.3978423573473818 -0.8692710040021372 -0.29340991854638254
		outer loop
			vertex 0.24780718982219696 0.17882178723812103 -0.17258669435977936
			vertex 0.29999998211860657 0.21208754181861877 -0.2003718912601471
			vertex 0.29999998211860657 0.20627184212207794 -0.18314200639724731
		endloop
	endfacet
	facet normal 0.39784334908865826 -0.8692716437565858 -0.2934066784288375
		outer loop
			vertex 0.24780718982219696 0.17882178723812103 -0.17258669435977936
			vertex 0.29999998211860657 0.20627184212207794 -0.18314200639724731
			vertex 0.2554929852485657 0.18134793639183044 -0.16964936256408691
		endloop
	endfacet
	facet normal 0.3084984423998367 -0.8157531025951755 -0.4892602442905208
		outer loop
			vertex 0.2554929852485657 0.18134793639183044 -0.16964936256408691
			vertex 0.29999998211860657 0.20627184212207794 -0.18314200639724731
			vertex 0.29999998211860657 0.19852538406848907 -0.17022618651390076
		endloop
	endfacet
	facet normal 0.30849774641060845 -0.8157514088455005 -0.4892635071473831
		outer loop
			vertex 0.2554929852485657 0.18134793639183044 -0.16964936256408691
			vertex 0.29999998211860657 0.19852538406848907 -0.17022618651390076
			vertex 0.27180272340774536 0.18564052879810333 -0.1665225625038147
		endloop
	endfacet
	facet normal 1 0 0
		outer loop
			vertex 0.29999998211860657 0.1998271942138672 -0.16404874622821808
			vertex 0.29999998211860657 0.19852538406848907 -0.17022618651390076
			vertex 0.29999998211860657 0.20627184212207794 -0.18314200639724731
		endloop
	endfacet
	facet normal 1 0 0
		outer loop
			vertex 0.29999998211860657 0.20748157799243927 -0.14171770215034485
			vertex 0.29999998211860657 0.2045331448316574 -0.14171770215034485
			vertex 0.29999998211860657 0.1998271942138672 -0.16404874622821808
		endloop
	endfacet
	facet normal 1 0 0
		outer loop
			vertex 0.29999998211860657 0.20748157799243927 -0.14171770215034485
			vertex 0.29999998211860657 0.1998271942138672 -0.16404874622821808
			vertex 0.29999998211860657 0.20888324081897736 -0.19087864458560944
		endloop
	endfacet
	facet normal 1 0 0
		outer loop
			vertex 0.29999998211860657 0.20748157799243927 -0.14171770215034485
			vertex 0.29999998211860657 0.20888324081897736 -0.19087864458560944
			vertex 0.29999998211860657 0.21730341017246246 -0.19476459920406342
		endloop
	endfacet
	facet normal 1 0 0
		outer loop
			vertex 0.29999998211860657 0.20748157799243927 -0.14171770215034485
			vertex 0.29999998211860657 0.21730341017246246 -0.19476459920406342
			vertex 0.29999998211860657 0.22142459452152252 -0.17963801324367523
		endloop
	endfacet
	facet normal 1 0 0
		outer loop
			vertex 0.29999998211860657 0.21456941962242126 -0.2047995775938034
			vertex 0.29999998211860657 0.21730341017246246 -0.19476459920406342
			vertex 0.29999998211860657 0.20888324081897736 -0.19087864458560944
		endloop
	endfacet
	facet normal 1 0 0
		outer loop
			vertex 0.29999998211860657 0.21456941962242126 -0.2047995775938034
			vertex 0.29999998211860657 0.20888324081897736 -0.19087864458560944
			vertex 0.29999998211860657 0.21208754181861877 -0.2003718912601471
		endloop
	endfacet
	facet normal 1 0 0
		outer loop
			vertex 0.29999998211860657 0.2293774038553238 -0.14171770215034485
			vertex 0.29999998211860657 0.20748157799243927 -0.14171770215034485
			vertex 0.29999998211860657 0.22142459452152252 -0.17963801324367523
		endloop
	endfacet
	facet normal 1 0 0
		outer loop
			vertex 0.29999998211860657 0.2293774038553238 -0.14171770215034485
			vertex 0.29999998211860657 0.22142459452152252 -0.17963801324367523
			vertex 0.29999998211860657 0.22862625122070312 -0.15320470929145813
		endloop
	endfacet
	facet normal 1 0 0
		outer loop
			vertex 0.29999998211860657 0.22963279485702515 -0.14171770215034485
			vertex 0.29999998211860657 0.2293774038553238 -0.14171770215034485
			vertex 0.29999998211860657 0.22862625122070312 -0.15320470929145813
		endloop
	endfacet
	facet normal 1 0 0
		outer loop
			vertex 0.29999998211860657 0.22963279485702515 -0.14171770215034485
			vertex 0.29999998211860657 0.22862625122070312 -0.15320470929145813
			vertex 0.29999998211860657 0.22870784997940063 -0.1529051810503006
		endloop
	endfacet
	facet normal 1 0 0
		outer loop
			vertex 0.29999998211860657 0.23175585269927979 -0.14171770215034485
			vertex 0.29999998211860657 0.22963279485702515 -0.14171770215034485
			vertex 0.29999998211860657 0.22870784997940063 -0.1529051810503006
		endloop
	endfacet
	facet normal 0.2835436596635448 -0.8364936988472695 -0.46891500813411546
		outer loop
			vertex 0.29999998211860657 0.21503491699695587 -0.20562997460365295
			vertex 0.29999998211860657 0.21456941962242126 -0.2047995775938034
			vertex 0.29843366146087646 0.21461619436740875 -0.2058301419019699
		endloop
	endfacet
	facet normal 1 0 0
		outer loop
			vertex 0.29999998211860657 0.21503491699695587 -0.20562997460365295
			vertex 0.29999998211860657 0.21516704559326172 -0.20260606706142426
			vertex 0.29999998211860657 0.21456941962242126 -0.2047995775938034
		endloop
	endfacet
	facet normal 0.05555532564807987 -0.7941150868785687 -0.6052229627038115
		outer loop
			vertex 0.2816665768623352 0.22595424950122833 -0.23619616031646729
			vertex 0.28056296706199646 0.22475475072860718 -0.23472359776496887
			vertex 0.27495646476745605 0.22548481822013855 -0.23619616031646729
		endloop
	endfacet
	facet normal 0.28353866233235764 -0.8365066853268632 -0.46889486280640946
		outer loop
			vertex 0.29999998211860657 0.23216846585273743 -0.23619616031646729
			vertex 0.29999998211860657 0.23108242452144623 -0.23425866663455963
			vertex 0.28056296706199646 0.22475475072860718 -0.23472359776496887
		endloop
	endfacet
	facet normal 0.28353929249486454 -0.8365078493159389 -0.4688924051894363
		outer loop
			vertex 0.29999998211860657 0.23216846585273743 -0.23619616031646729
			vertex 0.28056296706199646 0.22475475072860718 -0.23472359776496887
			vertex 0.2816665768623352 0.22595424950122833 -0.23619616031646729
		endloop
	endfacet
	facet normal 1 0 0
		outer loop
			vertex 0.29999998211860657 0.23216846585273743 -0.23619616031646729
			vertex 0.29999998211860657 0.23478126525878906 -0.23619616031646729
			vertex 0.29999998211860657 0.23108242452144623 -0.23425866663455963
		endloop
	endfacet
	facet normal 0.39244283503191585 -0.8632698051799809 -0.31741749273887027
		outer loop
			vertex 0.26104477047920227 0.22451156377792358 -0.23619616031646729
			vertex 0.25300854444503784 0.2179768979549408 -0.22835972905158997
			vertex 0.24545042216777802 0.21742236614227295 -0.23619616031646729
		endloop
	endfacet
	facet normal 0.05555581803243196 -0.794114024940727 -0.6052243108758816
		outer loop
			vertex 0.27495646476745605 0.22548481822013855 -0.23619616031646729
			vertex 0.28056296706199646 0.22475475072860718 -0.23472359776496887
			vertex 0.2719620168209076 0.21540644764900208 -0.2232472151517868
		endloop
	endfacet
	facet normal 0.05555638689928601 -0.7941140628910665 -0.6052242088625838
		outer loop
			vertex 0.27495646476745605 0.22548481822013855 -0.23619616031646729
			vertex 0.2719620168209076 0.21540644764900208 -0.2232472151517868
			vertex 0.25300854444503784 0.2179768979549408 -0.22835972905158997
		endloop
	endfacet
	facet normal 0.05555572566380902 -0.7941132738506411 -0.6052253048577728
		outer loop
			vertex 0.27495646476745605 0.22548481822013855 -0.23619616031646729
			vertex 0.25300854444503784 0.2179768979549408 -0.22835972905158997
			vertex 0.26104477047920227 0.22451156377792358 -0.23619616031646729
		endloop
	endfacet
	facet normal 0.28354408258060043 -0.8365052768360363 -0.4688940979144357
		outer loop
			vertex 0.29999998211860657 0.23108242452144623 -0.23425866663455963
			vertex 0.29999998211860657 0.21503491699695587 -0.20562997460365295
			vertex 0.29843366146087646 0.21461619436740875 -0.2058301419019699
		endloop
	endfacet
	facet normal 0.28353846029259244 -0.8365065843943736 -0.4688951650420007
		outer loop
			vertex 0.29999998211860657 0.23108242452144623 -0.23425866663455963
			vertex 0.29843366146087646 0.21461619436740875 -0.2058301419019699
			vertex 0.2719620168209076 0.21540644764900208 -0.2232472151517868
		endloop
	endfacet
	facet normal 0.2835386694985061 -0.8365067110265929 -0.4688948126248456
		outer loop
			vertex 0.29999998211860657 0.23108242452144623 -0.23425866663455963
			vertex 0.2719620168209076 0.21540644764900208 -0.2232472151517868
			vertex 0.28056296706199646 0.22475475072860718 -0.23472359776496887
		endloop
	endfacet
	facet normal 1 0 0
		outer loop
			vertex 0.29999998211860657 0.22142459452152252 -0.17963801324367523
			vertex 0.29999998211860657 0.21730341017246246 -0.19476459920406342
			vertex 0.29999998211860657 0.22896549105644226 -0.20014667510986328
		endloop
	endfacet
	facet normal 1 0 0
		outer loop
			vertex 0.29999998211860657 0.23478126525878906 -0.23619616031646729
			vertex 0.29999998211860657 0.24222059547901154 -0.23619616031646729
			vertex 0.29999998211860657 0.22896549105644226 -0.20014667510986328
		endloop
	endfacet
	facet normal 1 0 0
		outer loop
			vertex 0.29999998211860657 0.23478126525878906 -0.23619616031646729
			vertex 0.29999998211860657 0.22896549105644226 -0.20014667510986328
			vertex 0.29999998211860657 0.21730341017246246 -0.19476459920406342
		endloop
	endfacet
	facet normal 1 0 0
		outer loop
			vertex 0.29999998211860657 0.23478126525878906 -0.23619616031646729
			vertex 0.29999998211860657 0.21730341017246246 -0.19476459920406342
			vertex 0.29999998211860657 0.21516704559326172 -0.20260606706142426
		endloop
	endfacet
	facet normal 1 0 0
		outer loop
			vertex 0.29999998211860657 0.23478126525878906 -0.23619616031646729
			vertex 0.29999998211860657 0.21516704559326172 -0.20260606706142426
			vertex 0.29999998211860657 0.21503491699695587 -0.20562997460365295
		endloop
	endfacet
	facet normal 1 0 0
		outer loop
			vertex 0.29999998211860657 0.23478126525878906 -0.23619616031646729
			vertex 0.29999998211860657 0.21503491699695587 -0.20562997460365295
			vertex 0.29999998211860657 0.23108242452144623 -0.23425866663455963
		endloop
	endfacet
	facet normal 1 0 0
		outer loop
			vertex 0.29999998211860657 0.23432248830795288 -0.14171770215034485
			vertex 0.29999998211860657 0.23175585269927979 -0.14171770215034485
			vertex 0.29999998211860657 0.22142459452152252 -0.17963801324367523
		endloop
	endfacet
	facet normal 1 0 0
		outer loop
			vertex 0.29999998211860657 0.23432248830795288 -0.14171770215034485
			vertex 0.29999998211860657 0.22142459452152252 -0.17963801324367523
			vertex 0.29999998211860657 0.22896549105644226 -0.20014667510986328
		endloop
	endfacet
	facet normal 1 0 0
		outer loop
			vertex 0.29999998211860657 0.23432248830795288 -0.14171770215034485
			vertex 0.29999998211860657 0.22896549105644226 -0.20014667510986328
			vertex 0.29999998211860657 0.25294944643974304 -0.2112153172492981
		endloop
	endfacet
	facet normal 1 0 0
		outer loop
			vertex 0.29999998211860657 0.23432248830795288 -0.14171770215034485
			vertex 0.29999998211860657 0.25294944643974304 -0.2112153172492981
			vertex 0.29999998211860657 0.24690543115139008 -0.16682198643684387
		endloop
	endfacet
	facet normal 1 0 0
		outer loop
			vertex 0.29999998211860657 0.24222059547901154 -0.23619616031646729
			vertex 0.29999998211860657 0.25635048747062683 -0.23619616031646729
			vertex 0.29999998211860657 0.25294944643974304 -0.2112153172492981
		endloop
	endfacet
	facet normal 1 0 0
		outer loop
			vertex 0.29999998211860657 0.24222059547901154 -0.23619616031646729
			vertex 0.29999998211860657 0.25294944643974304 -0.2112153172492981
			vertex 0.29999998211860657 0.22896549105644226 -0.20014667510986328
		endloop
	endfacet
	facet normal 1 0 0
		outer loop
			vertex 0.29999998211860657 0.24348756670951843 -0.14171770215034485
			vertex 0.29999998211860657 0.23432248830795288 -0.14171770215034485
			vertex 0.29999998211860657 0.24690543115139008 -0.16682198643684387
		endloop
	endfacet
	facet normal 1 0 0
		outer loop
			vertex 0.29999998211860657 0.27571767568588257 -0.14171770215034485
			vertex 0.29999998211860657 0.24348756670951843 -0.14171770215034485
			vertex 0.29999998211860657 0.25294944643974304 -0.2112153172492981
		endloop
	endfacet
	facet normal 1 0 0
		outer loop
			vertex 0.29999998211860657 0.27571767568588257 -0.14171770215034485
			vertex 0.29999998211860657 0.25294944643974304 -0.2112153172492981
			vertex 0.29999998211860657 0.2771318256855011 -0.22237557172775269
		endloop
	endfacet
	facet normal 1 0 0
		outer loop
			vertex 0.29999998211860657 0.25635048747062683 -0.23619616031646729
			vertex 0.29999998211860657 0.27737414836883545 -0.23619616031646729
			vertex 0.29999998211860657 0.2771318256855011 -0.22237557172775269
		endloop
	endfacet
	facet normal 1 0 0
		outer loop
			vertex 0.29999998211860657 0.25635048747062683 -0.23619616031646729
			vertex 0.29999998211860657 0.2771318256855011 -0.22237557172775269
			vertex 0.29999998211860657 0.25294944643974304 -0.2112153172492981
		endloop
	endfacet
	facet normal 1 0 0
		outer loop
			vertex 0.29999998211860657 0.3067464232444763 -0.14171770215034485
			vertex 0.29999998211860657 0.27571767568588257 -0.14171770215034485
			vertex 0.29999998211860657 0.2771318256855011 -0.22237557172775269
		endloop
	endfacet
	facet normal 1 0 0
		outer loop
			vertex 0.29999998211860657 0.3067464232444763 -0.14171770215034485
			vertex 0.29999998211860657 0.2771318256855011 -0.22237557172775269
			vertex 0.29999998211860657 0.3067464232444763 -0.236042782664299
		endloop
	endfacet
	facet normal 1 0 0
		outer loop
			vertex 0.29999998211860657 0.27737414836883545 -0.23619616031646729
			vertex 0.29999998211860657 0.3067464232444763 -0.23619616031646729
			vertex 0.29999998211860657 0.3067464232444763 -0.236042782664299
		endloop
	endfacet
	facet normal 1 0 0
		outer loop
			vertex 0.29999998211860657 0.27737414836883545 -0.23619616031646729
			vertex 0.29999998211860657 0.3067464232444763 -0.236042782664299
			vertex 0.29999998211860657 0.2771318256855011 -0.22237557172775269
		endloop
	endfacet
	facet normal -1 0 0
		outer loop
			vertex 0.10000000149011612 0.18247495591640472 -0.23619616031646729
			vertex 0.10000000149011612 0.18038445711135864 -0.23619616031646729
			vertex 0.10000000149011612 0.16123908758163452 -0.2090231031179428
		endloop
	endfacet
	facet normal -1 0 0
		outer loop
			vertex 0.10000000149011612 0.18247495591640472 -0.23619616031646729
			vertex 0.10000000149011612 0.16123908758163452 -0.2090231031179428
			vertex 0.10000000149011612 0.1682751625776291 -0.20577594637870789
		endloop
	endfacet
	facet normal -1 0 0
		outer loop
			vertex 0.10000000149011612 0.11656162142753601 -0.14171770215034485
			vertex 0.10000000149011612 0.13837353885173798 -0.14171770215034485
			vertex 0.10000000149011612 0.1682751625776291 -0.20577594637870789
		endloop
	endfacet
	facet normal -1 0 0
		outer loop
			vertex 0.10000000149011612 0.11656162142753601 -0.14171770215034485
			vertex 0.10000000149011612 0.1682751625776291 -0.20577594637870789
			vertex 0.10000000149011612 0.16123908758163452 -0.2090231031179428
		endloop
	endfacet
	facet normal -1 0 0
		outer loop
			vertex 0.10000000149011612 0.11656162142753601 -0.14171770215034485
			vertex 0.10000000149011612 0.16123908758163452 -0.2090231031179428
			vertex 0.10000000149011612 0.11955665051937103 -0.14986316859722137
		endloop
	endfacet
	facet normal -1 0 0
		outer loop
			vertex 0.10000000149011612 0.13837353885173798 -0.14171770215034485
			vertex 0.10000000149011612 0.16027462482452393 -0.14171770215034485
			vertex 0.10000000149011612 0.15098561346530914 -0.1687365472316742
		endloop
	endfacet
	facet normal -1 0 0
		outer loop
			vertex 0.10000000149011612 0.16027462482452393 -0.14171770215034485
			vertex 0.10000000149011612 0.16036224365234375 -0.14171770215034485
			vertex 0.10000000149011612 0.16009172797203064 -0.1422497034072876
		endloop
	endfacet
	facet normal -1 0 0
		outer loop
			vertex 0.10000000149011612 0.1738884150981903 -0.20318540930747986
			vertex 0.10000000149011612 0.17619168758392334 -0.20212244987487793
			vertex 0.10000000149011612 0.18349751830101013 -0.22317849099636078
		endloop
	endfacet
	facet normal -1 0 0
		outer loop
			vertex 0.10000000149011612 0.17619168758392334 -0.20212244987487793
			vertex 0.10000000149011612 0.1738884150981903 -0.20318540930747986
			vertex 0.10000000149011612 0.15363197028636932 -0.16103911399841309
		endloop
	endfacet
	facet normal -1 0 0
		outer loop
			vertex 0.10000000149011612 0.17619168758392334 -0.20212244987487793
			vertex 0.10000000149011612 0.15363197028636932 -0.16103911399841309
			vertex 0.10000000149011612 0.15776537358760834 -0.1490163654088974
		endloop
	endfacet
	facet normal -1 0 0
		outer loop
			vertex 0.10000000149011612 0.18801428377628326 -0.23619616031646729
			vertex 0.10000000149011612 0.18247495591640472 -0.23619616031646729
			vertex 0.10000000149011612 0.1682751625776291 -0.20577594637870789
		endloop
	endfacet
	facet normal -1 0 0
		outer loop
			vertex 0.10000000149011612 0.18801428377628326 -0.23619616031646729
			vertex 0.10000000149011612 0.1682751625776291 -0.20577594637870789
			vertex 0.10000000149011612 0.1738884150981903 -0.20318540930747986
		endloop
	endfacet
	facet normal -1 0 0
		outer loop
			vertex 0.10000000149011612 0.18801428377628326 -0.23619616031646729
			vertex 0.10000000149011612 0.1738884150981903 -0.20318540930747986
			vertex 0.10000000149011612 0.18349751830101013 -0.22317849099636078
		endloop
	endfacet
	facet normal -1 0 0
		outer loop
			vertex 0.10000000149011612 0.1738884150981903 -0.20318540930747986
			vertex 0.10000000149011612 0.1682751625776291 -0.20577594637870789
			vertex 0.10000000149011612 0.15098561346530914 -0.1687365472316742
		endloop
	endfacet
	facet normal -1 0 0
		outer loop
			vertex 0.10000000149011612 0.1738884150981903 -0.20318540930747986
			vertex 0.10000000149011612 0.15098561346530914 -0.1687365472316742
			vertex 0.10000000149011612 0.15363197028636932 -0.16103911399841309
		endloop
	endfacet
	facet normal -1 0 0
		outer loop
			vertex 0.10000000149011612 0.24555344879627228 -0.23619616031646729
			vertex 0.10000000149011612 0.18801428377628326 -0.23619616031646729
			vertex 0.10000000149011612 0.17619168758392334 -0.20212244987487793
		endloop
	endfacet
	facet normal -1 0 0
		outer loop
			vertex 0.10000000149011612 0.24555344879627228 -0.23619616031646729
			vertex 0.10000000149011612 0.17619168758392334 -0.20212244987487793
			vertex 0.10000000149011612 0.22674590349197388 -0.17879155278205872
		endloop
	endfacet
	facet normal -1 0 0
		outer loop
			vertex 0.10000000149011612 0.24555344879627228 -0.23619616031646729
			vertex 0.10000000149011612 0.22674590349197388 -0.17879155278205872
			vertex 0.10000000149011612 0.24670350551605225 -0.2186090350151062
		endloop
	endfacet
	facet normal -1 0 0
		outer loop
			vertex 0.10000000149011612 0.16036224365234375 -0.14171770215034485
			vertex 0.10000000149011612 0.20816349983215332 -0.14171770215034485
			vertex 0.10000000149011612 0.22674590349197388 -0.17879155278205872
		endloop
	endfacet
	facet normal -1 0 0
		outer loop
			vertex 0.10000000149011612 0.16036224365234375 -0.14171770215034485
			vertex 0.10000000149011612 0.22674590349197388 -0.17879155278205872
			vertex 0.10000000149011612 0.17619168758392334 -0.20212244987487793
		endloop
	endfacet
	facet normal -1 0 0
		outer loop
			vertex 0.10000000149011612 0.16036224365234375 -0.14171770215034485
			vertex 0.10000000149011612 0.17619168758392334 -0.20212244987487793
			vertex 0.10000000149011612 0.15776537358760834 -0.1490163654088974
		endloop
	endfacet
	facet normal -1 0 0
		outer loop
			vertex 0.10000000149011612 0.16036224365234375 -0.14171770215034485
			vertex 0.10000000149011612 0.15776537358760834 -0.1490163654088974
			vertex 0.10000000149011612 0.16009172797203064 -0.1422497034072876
		endloop
	endfacet
	facet normal -1 0 0
		outer loop
			vertex 0.10000000149011612 0.22674590349197388 -0.17879155278205872
			vertex 0.10000000149011612 0.22909265756607056 -0.17770850658416748
			vertex 0.10000000149011612 0.2482658177614212 -0.1947171837091446
		endloop
	endfacet
	facet normal -1 0 0
		outer loop
			vertex 0.10000000149011612 0.22674590349197388 -0.17879155278205872
			vertex 0.10000000149011612 0.2482658177614212 -0.1947171837091446
			vertex 0.10000000149011612 0.24670350551605225 -0.2186090350151062
		endloop
	endfacet
	facet normal -1 0 0
		outer loop
			vertex 0.10000000149011612 0.22909265756607056 -0.17770850658416748
			vertex 0.10000000149011612 0.22674590349197388 -0.17879155278205872
			vertex 0.10000000149011612 0.2238895148038864 -0.17309273779392242
		endloop
	endfacet
	facet normal -1 0 0
		outer loop
			vertex 0.10000000149011612 0.22909265756607056 -0.17770850658416748
			vertex 0.10000000149011612 0.23951590061187744 -0.17289815843105316
			vertex 0.10000000149011612 0.23584933578968048 -0.18370240926742554
		endloop
	endfacet
	facet normal -1 0 0
		outer loop
			vertex 0.10000000149011612 0.20816349983215332 -0.14171770215034485
			vertex 0.10000000149011612 0.2500973641872406 -0.14171770215034485
			vertex 0.10000000149011612 0.23951590061187744 -0.17289815843105316
		endloop
	endfacet
	facet normal -1 0 0
		outer loop
			vertex 0.10000000149011612 0.20816349983215332 -0.14171770215034485
			vertex 0.10000000149011612 0.23951590061187744 -0.17289815843105316
			vertex 0.10000000149011612 0.22909265756607056 -0.17770850658416748
		endloop
	endfacet
	facet normal -1 0 0
		outer loop
			vertex 0.10000000149011612 0.20816349983215332 -0.14171770215034485
			vertex 0.10000000149011612 0.22909265756607056 -0.17770850658416748
			vertex 0.10000000149011612 0.2238895148038864 -0.17309273779392242
		endloop
	endfacet
	facet normal -1 0 0
		outer loop
			vertex 0.10000000149011612 0.23951590061187744 -0.17289815843105316
			vertex 0.10000000149011612 0.25000929832458496 -0.16805541515350342
			vertex 0.10000000149011612 0.2482658177614212 -0.1947171837091446
		endloop
	endfacet
	facet normal -1 0 0
		outer loop
			vertex 0.10000000149011612 0.23951590061187744 -0.17289815843105316
			vertex 0.10000000149011612 0.2482658177614212 -0.1947171837091446
			vertex 0.10000000149011612 0.23584933578968048 -0.18370240926742554
		endloop
	endfacet
	facet normal -1 0 0
		outer loop
			vertex 0.10000000149011612 0.2500973641872406 -0.14171770215034485
			vertex 0.10000000149011612 0.2517315447330475 -0.14171770215034485
			vertex 0.10000000149011612 0.25000929832458496 -0.16805541515350342
		endloop
	endfacet
	facet normal -1 0 0
		outer loop
			vertex 0.10000000149011612 0.2500973641872406 -0.14171770215034485
			vertex 0.10000000149011612 0.25000929832458496 -0.16805541515350342
			vertex 0.10000000149011612 0.23951590061187744 -0.17289815843105316
		endloop
	endfacet
	facet normal -1 0 0
		outer loop
			vertex 0.10000000149011612 0.24783745408058167 -0.23619616031646729
			vertex 0.10000000149011612 0.24555344879627228 -0.23619616031646729
			vertex 0.10000000149011612 0.24670350551605225 -0.2186090350151062
		endloop
	endfacet
	facet normal -1 0 0
		outer loop
			vertex 0.10000000149011612 0.24783745408058167 -0.23619616031646729
			vertex 0.10000000149011612 0.24670350551605225 -0.2186090350151062
			vertex 0.10000000149011612 0.2505423426628113 -0.2262679636478424
		endloop
	endfacet
	facet normal -1 0 0
		outer loop
			vertex 0.10000000149011612 0.24670350551605225 -0.2186090350151062
			vertex 0.10000000149011612 0.24706710875034332 -0.21304835379123688
			vertex 0.10000000149011612 0.25306543707847595 -0.21700704097747803
		endloop
	endfacet
	facet normal -1 0 0
		outer loop
			vertex 0.10000000149011612 0.24670350551605225 -0.2186090350151062
			vertex 0.10000000149011612 0.25306543707847595 -0.21700704097747803
			vertex 0.10000000149011612 0.2505423426628113 -0.2262679636478424
		endloop
	endfacet
	facet normal -1 0 0
		outer loop
			vertex 0.10000000149011612 0.24706710875034332 -0.21304835379123688
			vertex 0.10000000149011612 0.2482658177614212 -0.1947171837091446
			vertex 0.10000000149011612 0.257021963596344 -0.2024848312139511
		endloop
	endfacet
	facet normal -1 0 0
		outer loop
			vertex 0.10000000149011612 0.24706710875034332 -0.21304835379123688
			vertex 0.10000000149011612 0.257021963596344 -0.2024848312139511
			vertex 0.10000000149011612 0.25306543707847595 -0.21700704097747803
		endloop
	endfacet
	facet normal -1 0 0
		outer loop
			vertex 0.10000000149011612 0.2482658177614212 -0.1947171837091446
			vertex 0.10000000149011612 0.25000929832458496 -0.16805541515350342
			vertex 0.10000000149011612 0.26875972747802734 -0.1594020426273346
		endloop
	endfacet
	facet normal -1 0 0
		outer loop
			vertex 0.10000000149011612 0.2482658177614212 -0.1947171837091446
			vertex 0.10000000149011612 0.26875972747802734 -0.1594020426273346
			vertex 0.10000000149011612 0.257021963596344 -0.2024848312139511
		endloop
	endfacet
	facet normal -1 0 0
		outer loop
			vertex 0.10000000149011612 0.2517315447330475 -0.14171770215034485
			vertex 0.10000000149011612 0.2735777795314789 -0.14171770215034485
			vertex 0.10000000149011612 0.26875972747802734 -0.1594020426273346
		endloop
	endfacet
	facet normal -1 0 0
		outer loop
			vertex 0.10000000149011612 0.2517315447330475 -0.14171770215034485
			vertex 0.10000000149011612 0.26875972747802734 -0.1594020426273346
			vertex 0.10000000149011612 0.25000929832458496 -0.16805541515350342
		endloop
	endfacet
	facet normal -1 0 0
		outer loop
			vertex 0.10000000149011612 0.3067464232444763 -0.23619616031646729
			vertex 0.10000000149011612 0.24783745408058167 -0.23619616031646729
			vertex 0.10000000149011612 0.26875972747802734 -0.1594020426273346
		endloop
	endfacet
	facet normal -1 0 0
		outer loop
			vertex 0.10000000149011612 0.3067464232444763 -0.23619616031646729
			vertex 0.10000000149011612 0.26875972747802734 -0.1594020426273346
			vertex 0.10000000149011612 0.3067464232444763 -0.14187107980251312
		endloop
	endfacet
	facet normal -1 0 0
		outer loop
			vertex 0.10000000149011612 0.2735777795314789 -0.14171770215034485
			vertex 0.10000000149011612 0.3067464232444763 -0.14171770215034485
			vertex 0.10000000149011612 0.3067464232444763 -0.14187107980251312
		endloop
	endfacet
	facet normal -1 0 0
		outer loop
			vertex 0.10000000149011612 0.2735777795314789 -0.14171770215034485
			vertex 0.10000000149011612 0.3067464232444763 -0.14187107980251312
			vertex 0.10000000149011612 0.26875972747802734 -0.1594020426273346
		endloop
	endfacet
	facet normal 0 0 1
		outer loop
			vertex 0.10000000149011612 0.13837353885173798 -0.14171770215034485
			vertex 0.10000000149011612 0.11656162142753601 -0.14171770215034485
			vertex 0.12495981156826019 0.1279083490371704 -0.14171770215034485
		endloop
	endfacet
	facet normal 0 0 1
		outer loop
			vertex 0.10000000149011612 0.13837353885173798 -0.14171770215034485
			vertex 0.12495981156826019 0.1279083490371704 -0.14171770215034485
			vertex 0.12799321115016937 0.13101331889629364 -0.14171770215034485
		endloop
	endfacet
	facet normal 0 0 1
		outer loop
			vertex 0.1303986757993698 0.13038085401058197 -0.14171770215034485
			vertex 0.12799321115016937 0.13101331889629364 -0.14171770215034485
			vertex 0.12495981156826019 0.1279083490371704 -0.14171770215034485
		endloop
	endfacet
	facet normal 0 0 1
		outer loop
			vertex 0.28328895568847656 0.19643443822860718 -0.14171770215034485
			vertex 0.28141841292381287 0.19606541097164154 -0.14171770215034485
			vertex 0.2799109220504761 0.1947973221540451 -0.14171770215034485
		endloop
	endfacet
	facet normal 0 0 1
		outer loop
			vertex 0.28141841292381287 0.19606541097164154 -0.14171770215034485
			vertex 0.27697569131851196 0.19518892467021942 -0.14171770215034485
			vertex 0.27427318692207336 0.19381339848041534 -0.14171770215034485
		endloop
	endfacet
	facet normal 0 0 1
		outer loop
			vertex 0.28141841292381287 0.19606541097164154 -0.14171770215034485
			vertex 0.27427318692207336 0.19381339848041534 -0.14171770215034485
			vertex 0.259711891412735 0.1850081980228424 -0.14171770215034485
		endloop
	endfacet
	facet normal 0 0 1
		outer loop
			vertex 0.28141841292381287 0.19606541097164154 -0.14171770215034485
			vertex 0.259711891412735 0.1850081980228424 -0.14171770215034485
			vertex 0.2799109220504761 0.1947973221540451 -0.14171770215034485
		endloop
	endfacet
	facet normal 0 0 1
		outer loop
			vertex 0.20807090401649475 0.16011740267276764 -0.14171770215034485
			vertex 0.19392609596252441 0.15291790664196014 -0.14171770215034485
			vertex 0.1945660561323166 0.15038292109966278 -0.14171770215034485
		endloop
	endfacet
	facet normal 0 0 1
		outer loop
			vertex 0.27697569131851196 0.19518892467021942 -0.14171770215034485
			vertex 0.18770097196102142 0.17757654190063477 -0.14171770215034485
			vertex 0.19392609596252441 0.15291790664196014 -0.14171770215034485
		endloop
	endfacet
	facet normal 0 0 1
		outer loop
			vertex 0.19068218767642975 0.14758335053920746 -0.14171770215034485
			vertex 0.1945660561323166 0.15038292109966278 -0.14171770215034485
			vertex 0.19248975813388824 0.15860745310783386 -0.14171770215034485
		endloop
	endfacet
	facet normal 0 0 1
		outer loop
			vertex 0.19068218767642975 0.14758335053920746 -0.14171770215034485
			vertex 0.19248975813388824 0.15860745310783386 -0.14171770215034485
			vertex 0.1641577184200287 0.1457277238368988 -0.14171770215034485
		endloop
	endfacet
	facet normal 0 0 1
		outer loop
			vertex 0.12310109287500381 0.13229960203170776 -0.14171770215034485
			vertex 0.12799321115016937 0.13101331889629364 -0.14171770215034485
			vertex 0.1700885146856308 0.17410191893577576 -0.14171770215034485
		endloop
	endfacet
	facet normal 0 0 1
		outer loop
			vertex 0.12310109287500381 0.13229960203170776 -0.14171770215034485
			vertex 0.1700885146856308 0.17410191893577576 -0.14171770215034485
			vertex 0.1234830915927887 0.16490745544433594 -0.14171770215034485
		endloop
	endfacet
	facet normal 0 0 1
		outer loop
			vertex 0.18770097196102142 0.17757654190063477 -0.14171770215034485
			vertex 0.1700885146856308 0.17410191893577576 -0.14171770215034485
			vertex 0.12799321115016937 0.13101331889629364 -0.14171770215034485
		endloop
	endfacet
	facet normal 0 0 1
		outer loop
			vertex 0.18770097196102142 0.17757654190063477 -0.14171770215034485
			vertex 0.12799321115016937 0.13101331889629364 -0.14171770215034485
			vertex 0.1303986757993698 0.13038085401058197 -0.14171770215034485
		endloop
	endfacet
	facet normal 0 0 1
		outer loop
			vertex 0.18770097196102142 0.17757654190063477 -0.14171770215034485
			vertex 0.1303986757993698 0.13038085401058197 -0.14171770215034485
			vertex 0.19248975813388824 0.15860745310783386 -0.14171770215034485
		endloop
	endfacet
	facet normal 0 0 1
		outer loop
			vertex 0.10000000149011612 0.16027462482452393 -0.14171770215034485
			vertex 0.10000000149011612 0.13837353885173798 -0.14171770215034485
			vertex 0.12310109287500381 0.13229960203170776 -0.14171770215034485
		endloop
	endfacet
	facet normal 0 0 1
		outer loop
			vertex 0.10000000149011612 0.16027462482452393 -0.14171770215034485
			vertex 0.12310109287500381 0.13229960203170776 -0.14171770215034485
			vertex 0.1234830915927887 0.16490745544433594 -0.14171770215034485
		endloop
	endfacet
	facet normal 0 0 1
		outer loop
			vertex 0.10000000149011612 0.16036224365234375 -0.14171770215034485
			vertex 0.10000000149011612 0.16027462482452393 -0.14171770215034485
			vertex 0.10056088119745255 0.16038528084754944 -0.14171770215034485
		endloop
	endfacet
	facet normal 0 0 1
		outer loop
			vertex 0.2855014204978943 0.19750666618347168 -0.14171770215034485
			vertex 0.2823239266872406 0.19682709872722626 -0.14171770215034485
			vertex 0.28141841292381287 0.19606541097164154 -0.14171770215034485
		endloop
	endfacet
	facet normal 0 0 1
		outer loop
			vertex 0.2855014204978943 0.19750666618347168 -0.14171770215034485
			vertex 0.28141841292381287 0.19606541097164154 -0.14171770215034485
			vertex 0.28328895568847656 0.19643443822860718 -0.14171770215034485
		endloop
	endfacet
	facet normal 0 0 1
		outer loop
			vertex 0.2823239266872406 0.19682709872722626 -0.14171770215034485
			vertex 0.27865079045295715 0.196041539311409 -0.14171770215034485
			vertex 0.27697569131851196 0.19518892467021942 -0.14171770215034485
		endloop
	endfacet
	facet normal 0 0 1
		outer loop
			vertex 0.2823239266872406 0.19682709872722626 -0.14171770215034485
			vertex 0.27697569131851196 0.19518892467021942 -0.14171770215034485
			vertex 0.28141841292381287 0.19606541097164154 -0.14171770215034485
		endloop
	endfacet
	facet normal 0 0 1
		outer loop
			vertex 0.27865079045295715 0.196041539311409 -0.14171770215034485
			vertex 0.24716874957084656 0.1893085241317749 -0.14171770215034485
			vertex 0.27697569131851196 0.19518892467021942 -0.14171770215034485
		endloop
	endfacet
	facet normal 0 0 1
		outer loop
			vertex 0.29999998211860657 0.2045331448316574 -0.14171770215034485
			vertex 0.29999998211860657 0.20748157799243927 -0.14171770215034485
			vertex 0.27144479751586914 0.1945003867149353 -0.14171770215034485
		endloop
	endfacet
	facet normal 0 0 1
		outer loop
			vertex 0.29999998211860657 0.2045331448316574 -0.14171770215034485
			vertex 0.27144479751586914 0.1945003867149353 -0.14171770215034485
			vertex 0.2855014204978943 0.19750666618347168 -0.14171770215034485
		endloop
	endfacet
	facet normal 0 0 1
		outer loop
			vertex 0.10000000149011612 0.20816349983215332 -0.14171770215034485
			vertex 0.10000000149011612 0.16036224365234375 -0.14171770215034485
			vertex 0.10056088119745255 0.16038528084754944 -0.14171770215034485
		endloop
	endfacet
	facet normal 0 0 1
		outer loop
			vertex 0.10000000149011612 0.20816349983215332 -0.14171770215034485
			vertex 0.10056088119745255 0.16038528084754944 -0.14171770215034485
			vertex 0.1700885146856308 0.17410191893577576 -0.14171770215034485
		endloop
	endfacet
	facet normal 0 0 1
		outer loop
			vertex 0.10000000149011612 0.20816349983215332 -0.14171770215034485
			vertex 0.1700885146856308 0.17410191893577576 -0.14171770215034485
			vertex 0.21850785613059998 0.22366374731063843 -0.14171770215034485
		endloop
	endfacet
	facet normal 0 0 1
		outer loop
			vertex 0.29999998211860657 0.20748157799243927 -0.14171770215034485
			vertex 0.29999998211860657 0.2293774038553238 -0.14171770215034485
			vertex 0.2796134054660797 0.2316560298204422 -0.14171770215034485
		endloop
	endfacet
	facet normal 0 0 1
		outer loop
			vertex 0.29999998211860657 0.20748157799243927 -0.14171770215034485
			vertex 0.2796134054660797 0.2316560298204422 -0.14171770215034485
			vertex 0.21850785613059998 0.22366374731063843 -0.14171770215034485
		endloop
	endfacet
	facet normal 0 0 1
		outer loop
			vertex 0.29999998211860657 0.20748157799243927 -0.14171770215034485
			vertex 0.21850785613059998 0.22366374731063843 -0.14171770215034485
			vertex 0.1700885146856308 0.17410191893577576 -0.14171770215034485
		endloop
	endfacet
	facet normal 0 0 1
		outer loop
			vertex 0.29999998211860657 0.20748157799243927 -0.14171770215034485
			vertex 0.1700885146856308 0.17410191893577576 -0.14171770215034485
			vertex 0.24716874957084656 0.1893085241317749 -0.14171770215034485
		endloop
	endfacet
	facet normal 0 0 1
		outer loop
			vertex 0.29999998211860657 0.20748157799243927 -0.14171770215034485
			vertex 0.24716874957084656 0.1893085241317749 -0.14171770215034485
			vertex 0.27144479751586914 0.1945003867149353 -0.14171770215034485
		endloop
	endfacet
	facet normal 0 0 1
		outer loop
			vertex 0.1453881561756134 0.21410006284713745 -0.14171770215034485
			vertex 0.21850785613059998 0.22366374731063843 -0.14171770215034485
			vertex 0.22839616239070892 0.23378537595272064 -0.14171770215034485
		endloop
	endfacet
	facet normal 0 0 1
		outer loop
			vertex 0.1453881561756134 0.21410006284713745 -0.14171770215034485
			vertex 0.22839616239070892 0.23378537595272064 -0.14171770215034485
			vertex 0.19090934097766876 0.23975330591201782 -0.14171770215034485
		endloop
	endfacet
	facet normal 0 0 1
		outer loop
			vertex 0.22839616239070892 0.23378537595272064 -0.14171770215034485
			vertex 0.21850785613059998 0.22366374731063843 -0.14171770215034485
			vertex 0.25883907079696655 0.22893886268138885 -0.14171770215034485
		endloop
	endfacet
	facet normal 0 0 1
		outer loop
			vertex 0.10000000149011612 0.2500973641872406 -0.14171770215034485
			vertex 0.10000000149011612 0.20816349983215332 -0.14171770215034485
			vertex 0.1453881561756134 0.21410006284713745 -0.14171770215034485
		endloop
	endfacet
	facet normal 0 0 1
		outer loop
			vertex 0.10000000149011612 0.2500973641872406 -0.14171770215034485
			vertex 0.1453881561756134 0.21410006284713745 -0.14171770215034485
			vertex 0.19090934097766876 0.23975330591201782 -0.14171770215034485
		endloop
	endfacet
	facet normal 0 0 1
		outer loop
			vertex 0.10000000149011612 0.2500973641872406 -0.14171770215034485
			vertex 0.19090934097766876 0.23975330591201782 -0.14171770215034485
			vertex 0.15259476006031036 0.245852991938591 -0.14171770215034485
		endloop
	endfacet
	facet normal 0 0 1
		outer loop
			vertex 0.10000000149011612 0.2500973641872406 -0.14171770215034485
			vertex 0.15259476006031036 0.245852991938591 -0.14171770215034485
			vertex 0.10302222520112991 0.25139376521110535 -0.14171770215034485
		endloop
	endfacet
	facet normal 0 0 1
		outer loop
			vertex 0.10000000149011612 0.2517315447330475 -0.14171770215034485
			vertex 0.10000000149011612 0.2500973641872406 -0.14171770215034485
			vertex 0.10302222520112991 0.25139376521110535 -0.14171770215034485
		endloop
	endfacet
	facet normal 0 0 1
		outer loop
			vertex 0.22839616239070892 0.23378537595272064 -0.14171770215034485
			vertex 0.2315627485513687 0.23702669143676758 -0.14171770215034485
			vertex 0.15259476006031036 0.245852991938591 -0.14171770215034485
		endloop
	endfacet
	facet normal 0 0 1
		outer loop
			vertex 0.2796134054660797 0.2316560298204422 -0.14171770215034485
			vertex 0.2315627485513687 0.23702669143676758 -0.14171770215034485
			vertex 0.22839616239070892 0.23378537595272064 -0.14171770215034485
		endloop
	endfacet
	facet normal 0 0 1
		outer loop
			vertex 0.2796134054660797 0.2316560298204422 -0.14171770215034485
			vertex 0.22839616239070892 0.23378537595272064 -0.14171770215034485
			vertex 0.25883907079696655 0.22893886268138885 -0.14171770215034485
		endloop
	endfacet
	facet normal 0 0 1
		outer loop
			vertex 0.29999998211860657 0.2293774038553238 -0.14171770215034485
			vertex 0.29999998211860657 0.22963279485702515 -0.14171770215034485
			vertex 0.2850182056427002 0.23105193674564362 -0.14171770215034485
		endloop
	endfacet
	facet normal 0 0 1
		outer loop
			vertex 0.29999998211860657 0.22963279485702515 -0.14171770215034485
			vertex 0.29999998211860657 0.23175585269927979 -0.14171770215034485
			vertex 0.29244890809059143 0.23333483934402466 -0.14171770215034485
		endloop
	endfacet
	facet normal 0 0 1
		outer loop
			vertex 0.29999998211860657 0.22963279485702515 -0.14171770215034485
			vertex 0.29244890809059143 0.23333483934402466 -0.14171770215034485
			vertex 0.2796134054660797 0.2316560298204422 -0.14171770215034485
		endloop
	endfacet
	facet normal 0 0 1
		outer loop
			vertex 0.29999998211860657 0.22963279485702515 -0.14171770215034485
			vertex 0.2796134054660797 0.2316560298204422 -0.14171770215034485
			vertex 0.2850182056427002 0.23105193674564362 -0.14171770215034485
		endloop
	endfacet
	facet normal 0 0 1
		outer loop
			vertex 0.18546819686889648 0.24217872321605682 -0.14171770215034485
			vertex 0.2315627485513687 0.23702669143676758 -0.14171770215034485
			vertex 0.2388962358236313 0.2445332258939743 -0.14171770215034485
		endloop
	endfacet
	facet normal 0 0 1
		outer loop
			vertex 0.18546819686889648 0.24217872321605682 -0.14171770215034485
			vertex 0.2388962358236313 0.2445332258939743 -0.14171770215034485
			vertex 0.22227999567985535 0.2480078488588333 -0.14171770215034485
		endloop
	endfacet
	facet normal 0 0 1
		outer loop
			vertex 0.29244890809059143 0.23333483934402466 -0.14171770215034485
			vertex 0.2388962358236313 0.2445332258939743 -0.14171770215034485
			vertex 0.2315627485513687 0.23702669143676758 -0.14171770215034485
		endloop
	endfacet
	facet normal 0 0 1
		outer loop
			vertex 0.29244890809059143 0.23333483934402466 -0.14171770215034485
			vertex 0.2315627485513687 0.23702669143676758 -0.14171770215034485
			vertex 0.2796134054660797 0.2316560298204422 -0.14171770215034485
		endloop
	endfacet
	facet normal 0 0 1
		outer loop
			vertex 0.19902147352695465 0.24432486295700073 -0.14171770215034485
			vertex 0.22227999567985535 0.2480078488588333 -0.14171770215034485
			vertex 0.2100827544927597 0.25055840611457825 -0.14171770215034485
		endloop
	endfacet
	facet normal 0 0 1
		outer loop
			vertex 0.10302222520112991 0.25139376521110535 -0.14171770215034485
			vertex 0.18546819686889648 0.24217872321605682 -0.14171770215034485
			vertex 0.19902147352695465 0.24432486295700073 -0.14171770215034485
		endloop
	endfacet
	facet normal 0 0 1
		outer loop
			vertex 0.10302222520112991 0.25139376521110535 -0.14171770215034485
			vertex 0.19902147352695465 0.24432486295700073 -0.14171770215034485
			vertex 0.2100827544927597 0.25055840611457825 -0.14171770215034485
		endloop
	endfacet
	facet normal 0 0 1
		outer loop
			vertex 0.10302222520112991 0.25139376521110535 -0.14171770215034485
			vertex 0.2100827544927597 0.25055840611457825 -0.14171770215034485
			vertex 0.13679960370063782 0.26588261127471924 -0.14171770215034485
		endloop
	endfacet
	facet normal 0 0 1
		outer loop
			vertex 0.10000000149011612 0.2735777795314789 -0.14171770215034485
			vertex 0.10000000149011612 0.2517315447330475 -0.14171770215034485
			vertex 0.10302222520112991 0.25139376521110535 -0.14171770215034485
		endloop
	endfacet
	facet normal 0 0 1
		outer loop
			vertex 0.10000000149011612 0.2735777795314789 -0.14171770215034485
			vertex 0.10302222520112991 0.25139376521110535 -0.14171770215034485
			vertex 0.13679960370063782 0.26588261127471924 -0.14171770215034485
		endloop
	endfacet
	facet normal 0 0 1
		outer loop
			vertex 0.29999998211860657 0.23175585269927979 -0.14171770215034485
			vertex 0.29999998211860657 0.23432248830795288 -0.14171770215034485
			vertex 0.29244890809059143 0.23333483934402466 -0.14171770215034485
		endloop
	endfacet
	facet normal 0 0 1
		outer loop
			vertex 0.29999998211860657 0.23432248830795288 -0.14171770215034485
			vertex 0.29999998211860657 0.24348756670951843 -0.14171770215034485
			vertex 0.25767412781715393 0.24060659110546112 -0.14171770215034485
		endloop
	endfacet
	facet normal 0 0 1
		outer loop
			vertex 0.29999998211860657 0.23432248830795288 -0.14171770215034485
			vertex 0.25767412781715393 0.24060659110546112 -0.14171770215034485
			vertex 0.29244890809059143 0.23333483934402466 -0.14171770215034485
		endloop
	endfacet
	facet normal 0 0 1
		outer loop
			vertex 0.1969859004020691 0.2532970607280731 -0.14171770215034485
			vertex 0.2388962358236313 0.2445332258939743 -0.14171770215034485
			vertex 0.2610880434513092 0.26724866032600403 -0.14171770215034485
		endloop
	endfacet
	facet normal 0 0 1
		outer loop
			vertex 0.29999998211860657 0.24348756670951843 -0.14171770215034485
			vertex 0.29999998211860657 0.27571767568588257 -0.14171770215034485
			vertex 0.2610880434513092 0.26724866032600403 -0.14171770215034485
		endloop
	endfacet
	facet normal 0 0 1
		outer loop
			vertex 0.29999998211860657 0.24348756670951843 -0.14171770215034485
			vertex 0.2610880434513092 0.26724866032600403 -0.14171770215034485
			vertex 0.2388962358236313 0.2445332258939743 -0.14171770215034485
		endloop
	endfacet
	facet normal 0 0 1
		outer loop
			vertex 0.29999998211860657 0.24348756670951843 -0.14171770215034485
			vertex 0.2388962358236313 0.2445332258939743 -0.14171770215034485
			vertex 0.25767412781715393 0.24060659110546112 -0.14171770215034485
		endloop
	endfacet
	facet normal 0 0 1
		outer loop
			vertex 0.10000000149011612 0.3067464232444763 -0.14171770215034485
			vertex 0.10000000149011612 0.2735777795314789 -0.14171770215034485
			vertex 0.1969859004020691 0.2532970607280731 -0.14171770215034485
		endloop
	endfacet
	facet normal 0 0 1
		outer loop
			vertex 0.10000000149011612 0.3067464232444763 -0.14171770215034485
			vertex 0.1969859004020691 0.2532970607280731 -0.14171770215034485
			vertex 0.2610880434513092 0.26724866032600403 -0.14171770215034485
		endloop
	endfacet
	facet normal 0 0 1
		outer loop
			vertex 0.10000000149011612 0.3067464232444763 -0.14171770215034485
			vertex 0.2610880434513092 0.26724866032600403 -0.14171770215034485
			vertex 0.299675315618515 0.3067464232444763 -0.14171770215034485
		endloop
	endfacet
	facet normal 0 0 1
		outer loop
			vertex 0.29999998211860657 0.27571767568588257 -0.14171770215034485
			vertex 0.29999998211860657 0.3067464232444763 -0.14171770215034485
			vertex 0.299675315618515 0.3067464232444763 -0.14171770215034485
		endloop
	endfacet
	facet normal 0 0 1
		outer loop
			vertex 0.29999998211860657 0.27571767568588257 -0.14171770215034485
			vertex 0.299675315618515 0.3067464232444763 -0.14171770215034485
			vertex 0.2610880434513092 0.26724866032600403 -0.14171770215034485
		endloop
	endfacet
	facet normal 0 0 -1
		outer loop
			vertex 0.10000000149011612 0.18038445711135864 -0.23619616031646729
			vertex 0.10000000149011612 0.18247495591640472 -0.23619616031646729
			vertex 0.10427282005548477 0.18135151267051697 -0.23619616031646729
		endloop
	endfacet
	facet normal 0 0 -1
		outer loop
			vertex 0.10000000149011612 0.18247495591640472 -0.23619616031646729
			vertex 0.10000000149011612 0.18801428377628326 -0.23619616031646729
			vertex 0.11356576532125473 0.1834547370672226 -0.23619616031646729
		endloop
	endfacet
	facet normal 0 0 -1
		outer loop
			vertex 0.10000000149011612 0.18247495591640472 -0.23619616031646729
			vertex 0.11356576532125473 0.1834547370672226 -0.23619616031646729
			vertex 0.10427282005548477 0.18135151267051697 -0.23619616031646729
		endloop
	endfacet
	facet normal 0 0 -1
		outer loop
			vertex 0.20136182010173798 0.20332522690296173 -0.23619616031646729
			vertex 0.1727345734834671 0.23262794315814972 -0.23619616031646729
			vertex 0.24545042216777802 0.21742236614227295 -0.23619616031646729
		endloop
	endfacet
	facet normal 0 0 -1
		outer loop
			vertex 0.20136182010173798 0.20332522690296173 -0.23619616031646729
			vertex 0.24545042216777802 0.21742236614227295 -0.23619616031646729
			vertex 0.22740736603736877 0.2092200070619583 -0.23619616031646729
		endloop
	endfacet
	facet normal 0 0 -1
		outer loop
			vertex 0.10000000149011612 0.18801428377628326 -0.23619616031646729
			vertex 0.10000000149011612 0.24555344879627228 -0.23619616031646729
			vertex 0.12346450984477997 0.2429307997226715 -0.23619616031646729
		endloop
	endfacet
	facet normal 0 0 -1
		outer loop
			vertex 0.10000000149011612 0.18801428377628326 -0.23619616031646729
			vertex 0.12346450984477997 0.2429307997226715 -0.23619616031646729
			vertex 0.1727345734834671 0.23262794315814972 -0.23619616031646729
		endloop
	endfacet
	facet normal 0 0 -1
		outer loop
			vertex 0.10000000149011612 0.18801428377628326 -0.23619616031646729
			vertex 0.1727345734834671 0.23262794315814972 -0.23619616031646729
			vertex 0.20136182010173798 0.20332522690296173 -0.23619616031646729
		endloop
	endfacet
	facet normal 0 0 -1
		outer loop
			vertex 0.10000000149011612 0.18801428377628326 -0.23619616031646729
			vertex 0.20136182010173798 0.20332522690296173 -0.23619616031646729
			vertex 0.11356576532125473 0.1834547370672226 -0.23619616031646729
		endloop
	endfacet
	facet normal 0 0 -1
		outer loop
			vertex 0.10000000149011612 0.24555344879627228 -0.23619616031646729
			vertex 0.10000000149011612 0.24783745408058167 -0.23619616031646729
			vertex 0.12346450984477997 0.2429307997226715 -0.23619616031646729
		endloop
	endfacet
	facet normal 0 0 -1
		outer loop
			vertex 0.29999998211860657 0.23478126525878906 -0.23619616031646729
			vertex 0.29999998211860657 0.23216846585273743 -0.23619616031646729
			vertex 0.2816665768623352 0.22595424950122833 -0.23619616031646729
		endloop
	endfacet
	facet normal 0 0 -1
		outer loop
			vertex 0.29999998211860657 0.23478126525878906 -0.23619616031646729
			vertex 0.2816665768623352 0.22595424950122833 -0.23619616031646729
			vertex 0.27495646476745605 0.22548481822013855 -0.23619616031646729
		endloop
	endfacet
	facet normal 0 0 -1
		outer loop
			vertex 0.29999998211860657 0.24222059547901154 -0.23619616031646729
			vertex 0.29999998211860657 0.23478126525878906 -0.23619616031646729
			vertex 0.27495646476745605 0.22548481822013855 -0.23619616031646729
		endloop
	endfacet
	facet normal 0 0 -1
		outer loop
			vertex 0.29999998211860657 0.24222059547901154 -0.23619616031646729
			vertex 0.27495646476745605 0.22548481822013855 -0.23619616031646729
			vertex 0.26104477047920227 0.22451156377792358 -0.23619616031646729
		endloop
	endfacet
	facet normal 0 0 -1
		outer loop
			vertex 0.29999998211860657 0.25635048747062683 -0.23619616031646729
			vertex 0.29999998211860657 0.24222059547901154 -0.23619616031646729
			vertex 0.24545042216777802 0.21742236614227295 -0.23619616031646729
		endloop
	endfacet
	facet normal 0 0 -1
		outer loop
			vertex 0.29999998211860657 0.25635048747062683 -0.23619616031646729
			vertex 0.24545042216777802 0.21742236614227295 -0.23619616031646729
			vertex 0.1727345734834671 0.23262794315814972 -0.23619616031646729
		endloop
	endfacet
	facet normal 0 0 -1
		outer loop
			vertex 0.29999998211860657 0.25635048747062683 -0.23619616031646729
			vertex 0.1727345734834671 0.23262794315814972 -0.23619616031646729
			vertex 0.15893906354904175 0.24674898386001587 -0.23619616031646729
		endloop
	endfacet
	facet normal 0 0 -1
		outer loop
			vertex 0.15893906354904175 0.24674898386001587 -0.23619616031646729
			vertex 0.1727345734834671 0.23262794315814972 -0.23619616031646729
			vertex 0.11840072274208069 0.24398967623710632 -0.23619616031646729
		endloop
	endfacet
	facet normal 0 0 -1
		outer loop
			vertex 0.29999998211860657 0.27737414836883545 -0.23619616031646729
			vertex 0.29999998211860657 0.25635048747062683 -0.23619616031646729
			vertex 0.15944840013980865 0.24678364396095276 -0.23619616031646729
		endloop
	endfacet
	facet normal 0 0 -1
		outer loop
			vertex 0.29999998211860657 0.3067464232444763 -0.23619616031646729
			vertex 0.29999998211860657 0.27737414836883545 -0.23619616031646729
			vertex 0.15944840013980865 0.24678364396095276 -0.23619616031646729
		endloop
	endfacet
	facet normal 0 0 -1
		outer loop
			vertex 0.29999998211860657 0.3067464232444763 -0.23619616031646729
			vertex 0.15944840013980865 0.24678364396095276 -0.23619616031646729
			vertex 0.15893906354904175 0.24674898386001587 -0.23619616031646729
		endloop
	endfacet
	facet normal 0 0 -1
		outer loop
			vertex 0.29999998211860657 0.3067464232444763 -0.23619616031646729
			vertex 0.15893906354904175 0.24674898386001587 -0.23619616031646729
			vertex 0.10032469034194946 0.3067464232444763 -0.23619616031646729
		endloop
	endfacet
	facet normal 0 0 -1
		outer loop
			vertex 0.10000000149011612 0.24783745408058167 -0.23619616031646729
			vertex 0.10000000149011612 0.3067464232444763 -0.23619616031646729
			vertex 0.10032469034194946 0.3067464232444763 -0.23619616031646729
		endloop
	endfacet
	facet normal 0 0 -1
		outer loop
			vertex 0.10000000149011612 0.24783745408058167 -0.23619616031646729
			vertex 0.10032469034194946 0.3067464232444763 -0.23619616031646729
			vertex 0.15893906354904175 0.24674898386001587 -0.23619616031646729
		endloop
	endfacet
	facet normal 0 0 -1
		outer loop
			vertex 0.10000000149011612 0.24783745408058167 -0.23619616031646729
			vertex 0.15893906354904175 0.24674898386001587 -0.23619616031646729
			vertex 0.11840072274208069 0.24398967623710632 -0.23619616031646729
		endloop
	endfacet
endsolid exported
