solid exported
	facet normal 0 1 0
		outer loop
			vertex 0.4035471975803375 0.3067464232444763 -0.23619616031646729
			vertex 0.39680957794189453 0.3067464232444763 -0.2550681233406067
			vertex 0.3952670097351074 0.3067464232444763 -0.23619616031646729
		endloop
	endfacet
	facet normal 0 1 0
		outer loop
			vertex 0.42942672967910767 0.3067464232444763 -0.23619616031646729
			vertex 0.4267198443412781 0.3067464232444763 -0.24925224483013153
			vertex 0.39680957794189453 0.3067464232444763 -0.2550681233406067
		endloop
	endfacet
	facet normal 0 1 0
		outer loop
			vertex 0.42942672967910767 0.3067464232444763 -0.23619616031646729
			vertex 0.39680957794189453 0.3067464232444763 -0.2550681233406067
			vertex 0.4035471975803375 0.3067464232444763 -0.23619616031646729
		endloop
	endfacet
	facet normal 0 1 0
		outer loop
			vertex 0.3952670097351074 0.3067464232444763 -0.23619616031646729
			vertex 0.39680957794189453 0.3067464232444763 -0.2550681233406067
			vertex 0.29999998211860657 0.3067464232444763 -0.26956963539123535
		endloop
	endfacet
	facet normal 0 1 0
		outer loop
			vertex 0.3952670097351074 0.3067464232444763 -0.23619616031646729
			vertex 0.29999998211860657 0.3067464232444763 -0.26956963539123535
			vertex 0.29999998211860657 0.3067464232444763 -0.23619616031646729
		endloop
	endfacet
	facet normal 0 1 0
		outer loop
			vertex 0.3723828196525574 0.3067464232444763 -0.2853107154369354
			vertex 0.29999998211860657 0.3067464232444763 -0.2853107154369354
			vertex 0.29999998211860657 0.3067464232444763 -0.26956963539123535
		endloop
	endfacet
	facet normal 0 1 0
		outer loop
			vertex 0.3723828196525574 0.3067464232444763 -0.2853107154369354
			vertex 0.29999998211860657 0.3067464232444763 -0.26956963539123535
			vertex 0.39680957794189453 0.3067464232444763 -0.2550681233406067
		endloop
	endfacet
	facet normal -0.012877559525962009 0.9999135163818407 0.002669872198772345
		outer loop
			vertex 0.43060922622680664 0.30676165223121643 -0.23619616031646729
			vertex 0.4267198443412781 0.3067464232444763 -0.24925224483013153
			vertex 0.42942672967910767 0.3067464232444763 -0.23619616031646729
		endloop
	endfacet
	facet normal 0.001288943219192518 0.9999979674411651 -0.0015503995990006018
		outer loop
			vertex 0.44242429733276367 0.3067464232444763 -0.23619616031646729
			vertex 0.4267198443412781 0.3067464232444763 -0.24925224483013153
			vertex 0.43060922622680664 0.30676165223121643 -0.23619616031646729
		endloop
	endfacet
	facet normal 0.16975081006690715 -0.4572798372736283 -0.8729718282422596
		outer loop
			vertex 0.3711514472961426 0.26119354367256165 -0.23619616031646729
			vertex 0.36638909578323364 0.25942566990852356 -0.23619616031646729
			vertex 0.3674180805683136 0.2610263228416443 -0.23683452606201172
		endloop
	endfacet
	facet normal 0.18193267181947292 -0.8038321222686838 -0.5663518536507599
		outer loop
			vertex 0.29999998211860657 0.263703852891922 -0.2902067005634308
			vertex 0.30504244565963745 0.2638559639453888 -0.28880277276039124
			vertex 0.29999998211860657 0.26030731201171875 -0.28538593649864197
		endloop
	endfacet
	facet normal 0.3924406596370638 -0.8632705066546165 -0.3174182745273309
		outer loop
			vertex 0.308711439371109 0.2632717788219452 -0.28267785906791687
			vertex 0.29999998211860657 0.2561880648136139 -0.2741829752922058
			vertex 0.29999998211860657 0.26030731201171875 -0.28538593649864197
		endloop
	endfacet
	facet normal 0.39244100854721226 -0.8632695504783161 -0.31742044361920513
		outer loop
			vertex 0.308711439371109 0.2632717788219452 -0.28267785906791687
			vertex 0.29999998211860657 0.26030731201171875 -0.28538593649864197
			vertex 0.30504244565963745 0.2638559639453888 -0.28880277276039124
		endloop
	endfacet
	facet normal 0.05555599171581331 -0.7941139064170583 -0.6052244504475279
		outer loop
			vertex 0.31648460030555725 0.26379770040512085 -0.28265437483787537
			vertex 0.29999998211860657 0.24588070809841156 -0.26065871119499207
			vertex 0.29999998211860657 0.2561880648136139 -0.2741829752922058
		endloop
	endfacet
	facet normal 0.05555724288655038 -0.7941149559314267 -0.6052229585275769
		outer loop
			vertex 0.31648460030555725 0.26379770040512085 -0.28265437483787537
			vertex 0.29999998211860657 0.2561880648136139 -0.2741829752922058
			vertex 0.308711439371109 0.2632717788219452 -0.28267785906791687
		endloop
	endfacet
	facet normal 0.28353863233999493 -0.8365063814631593 -0.46889542303393905
		outer loop
			vertex 0.35990607738494873 0.25247398018836975 -0.23619616031646729
			vertex 0.29999998211860657 0.23216846585273743 -0.23619616031646729
			vertex 0.29999998211860657 0.24588070809841156 -0.26065871119499207
		endloop
	endfacet
	facet normal 0.2835385166335452 -0.8365066147590552 -0.46889507680247017
		outer loop
			vertex 0.35990607738494873 0.25247398018836975 -0.23619616031646729
			vertex 0.29999998211860657 0.24588070809841156 -0.26065871119499207
			vertex 0.31648460030555725 0.26379770040512085 -0.28265437483787537
		endloop
	endfacet
	facet normal 0.28353785712747015 -0.8365071154144473 -0.468894582434648
		outer loop
			vertex 0.35990607738494873 0.25247398018836975 -0.23619616031646729
			vertex 0.31648460030555725 0.26379770040512085 -0.28265437483787537
			vertex 0.3530126214027405 0.26310965418815613 -0.2593386173248291
		endloop
	endfacet
	facet normal 0.6458377190493607 -0.6022964176270412 -0.4691829770641213
		outer loop
			vertex 0.3674180805683136 0.2610263228416443 -0.23683452606201172
			vertex 0.36638909578323364 0.25942566990852356 -0.23619616031646729
			vertex 0.35990607738494873 0.25247398018836975 -0.23619616031646729
		endloop
	endfacet
	facet normal 0.6458401652147745 -0.6022981489958994 -0.46917738725504066
		outer loop
			vertex 0.3674180805683136 0.2610263228416443 -0.23683452606201172
			vertex 0.35990607738494873 0.25247398018836975 -0.23619616031646729
			vertex 0.3530126214027405 0.26310965418815613 -0.2593386173248291
		endloop
	endfacet
	facet normal 0.4302906909445451 -0.7395727586144112 -0.5175732373316224
		outer loop
			vertex 0.42428749799728394 0.29619425535202026 -0.23619616031646729
			vertex 0.4267198443412781 0.3067464232444763 -0.24925224483013153
			vertex 0.44242429733276367 0.3067464232444763 -0.23619616031646729
		endloop
	endfacet
	facet normal 0.16974483372450694 -0.45727282185798834 -0.8729766651027231
		outer loop
			vertex 0.4267198443412781 0.3067464232444763 -0.24925224483013153
			vertex 0.39285385608673096 0.27801164984703064 -0.24078574776649475
			vertex 0.3972964584827423 0.28604158759117126 -0.2441280633211136
		endloop
	endfacet
	facet normal 0.5259182465223928 -0.7422162506770275 -0.41536133089846916
		outer loop
			vertex 0.4267198443412781 0.3067464232444763 -0.24925224483013153
			vertex 0.41227999329566956 0.28920817375183105 -0.23619616031646729
			vertex 0.39142125844955444 0.274428129196167 -0.23619616031646729
		endloop
	endfacet
	facet normal 0.525920536370689 -0.7422170229183727 -0.4153570515998914
		outer loop
			vertex 0.4267198443412781 0.3067464232444763 -0.24925224483013153
			vertex 0.39142125844955444 0.274428129196167 -0.23619616031646729
			vertex 0.39285385608673096 0.27801164984703064 -0.24078574776649475
		endloop
	endfacet
	facet normal 0.1697449250414738 -0.45727293284509235 -0.8729765892106801
		outer loop
			vertex 0.408751517534256 0.3067464232444763 -0.2527460753917694
			vertex 0.4267198443412781 0.3067464232444763 -0.24925224483013153
			vertex 0.3972964584827423 0.28604158759117126 -0.2441280633211136
		endloop
	endfacet
	facet normal 0.5259362583226304 -0.7422153286533782 -0.41534017153840214
		outer loop
			vertex 0.41227999329566956 0.28920817375183105 -0.23619616031646729
			vertex 0.4267198443412781 0.3067464232444763 -0.24925224483013153
			vertex 0.41271230578422546 0.2895145118236542 -0.23619616031646729
		endloop
	endfacet
	facet normal 0.4272854972023305 -0.7404343802970886 -0.5188294829273136
		outer loop
			vertex 0.41271230578422546 0.2895145118236542 -0.23619616031646729
			vertex 0.4267198443412781 0.3067464232444763 -0.24925224483013153
			vertex 0.42428749799728394 0.29619425535202026 -0.23619616031646729
		endloop
	endfacet
	facet normal 0.73994334972587 -0.30870859558125696 -0.5976477576388176
		outer loop
			vertex 0.35809236764907837 0.29694250226020813 -0.2979395091533661
			vertex 0.3723828196525574 0.3067464232444763 -0.2853107154369354
			vertex 0.39680957794189453 0.3067464232444763 -0.2550681233406067
		endloop
	endfacet
	facet normal 0.1697456565333802 -0.45727358374546884 -0.8729761060284683
		outer loop
			vertex 0.39680957794189453 0.3067464232444763 -0.2550681233406067
			vertex 0.408751517534256 0.3067464232444763 -0.2527460753917694
			vertex 0.3969579339027405 0.2854297161102295 -0.24387337267398834
		endloop
	endfacet
	facet normal -0.0048060999224006085 0.7913721728989042 -0.6113157820347868
		outer loop
			vertex 0.30392155051231384 0.2836490571498871 -0.3147225081920624
			vertex 0.35809236764907837 0.29694250226020813 -0.2979395091533661
			vertex 0.3376536965370178 0.28680622577667236 -0.31090062856674194
		endloop
	endfacet
	facet normal 0.0024433311523351874 0.7908561046691814 -0.6119972645693518
		outer loop
			vertex 0.29999998211860657 0.2844799757003784 -0.31366440653800964
			vertex 0.30392155051231384 0.2836490571498871 -0.3147225081920624
			vertex 0.29999998211860657 0.2835523188114166 -0.3148631751537323
		endloop
	endfacet
	facet normal -0.0007670449503075704 0.7850872150097898 -0.6193847564076923
		outer loop
			vertex 0.29999998211860657 0.29866117238998413 -0.29568910598754883
			vertex 0.3058483898639679 0.30008140206336975 -0.2938961684703827
			vertex 0.35809236764907837 0.29694250226020813 -0.2979395091533661
		endloop
	endfacet
	facet normal -0.0007666975594095241 0.785091630043799 -0.6193791606197477
		outer loop
			vertex 0.29999998211860657 0.29866117238998413 -0.29568910598754883
			vertex 0.35809236764907837 0.29694250226020813 -0.2979395091533661
			vertex 0.30392155051231384 0.2836490571498871 -0.3147225081920624
		endloop
	endfacet
	facet normal -0.0007700070687190535 0.7850912964378354 -0.6193795793749366
		outer loop
			vertex 0.29999998211860657 0.29866117238998413 -0.29568910598754883
			vertex 0.30392155051231384 0.2836490571498871 -0.3147225081920624
			vertex 0.29999998211860657 0.2844799757003784 -0.31366440653800964
		endloop
	endfacet
	facet normal -1.0486541261923922e-7 0.7899117776042296 -0.6132205016159481
		outer loop
			vertex 0.35809236764907837 0.29694250226020813 -0.2979395091533661
			vertex 0.3058483898639679 0.30008140206336975 -0.2938961684703827
			vertex 0.33362844586372375 0.3067464232444763 -0.2853107154369354
		endloop
	endfacet
	facet normal 0 0.7899118760034742 -0.6132203748642671
		outer loop
			vertex 0.35809236764907837 0.29694250226020813 -0.2979395091533661
			vertex 0.33362844586372375 0.3067464232444763 -0.2853107154369354
			vertex 0.3660852313041687 0.3067464232444763 -0.2853107154369354
		endloop
	endfacet
	facet normal 0.16533307029775288 -0.8327644640521462 -0.5283638171542974
		outer loop
			vertex 0.29999998211860657 0.2832208275794983 -0.3152746856212616
			vertex 0.30392155051231384 0.2836490571498871 -0.3147225081920624
			vertex 0.29999998211860657 0.2832108438014984 -0.3152589499950409
		endloop
	endfacet
	facet normal 0.0032916116314979944 0.7787527516928597 -0.6273223390121435
		outer loop
			vertex 0.29999998211860657 0.2835523188114166 -0.3148631751537323
			vertex 0.30392155051231384 0.2836490571498871 -0.3147225081920624
			vertex 0.29999998211860657 0.2832208275794983 -0.3152746856212616
		endloop
	endfacet
	facet normal 0.16974883489922665 -0.4572733118555554 -0.8729756304244736
		outer loop
			vertex 0.39680957794189453 0.3067464232444763 -0.2550681233406067
			vertex 0.3969579339027405 0.2854297161102295 -0.24387337267398834
			vertex 0.39285385608673096 0.27801164984703064 -0.24078574776649475
		endloop
	endfacet
	facet normal 0.16974561143849962 -0.45727320695586815 -0.8729763121629738
		outer loop
			vertex 0.39680957794189453 0.3067464232444763 -0.2550681233406067
			vertex 0.39285385608673096 0.27801164984703064 -0.24078574776649475
			vertex 0.38395845890045166 0.27046406269073486 -0.23856191337108612
		endloop
	endfacet
	facet normal 0.169745492272715 -0.45727318138308704 -0.8729763487293823
		outer loop
			vertex 0.39680957794189453 0.3067464232444763 -0.2550681233406067
			vertex 0.38395845890045166 0.27046406269073486 -0.23856191337108612
			vertex 0.37552961707115173 0.2736442983150482 -0.24186669290065765
		endloop
	endfacet
	facet normal 0 0.7899118760034742 -0.6132203748642671
		outer loop
			vertex 0.3723828196525574 0.3067464232444763 -0.2853107154369354
			vertex 0.35809236764907837 0.29694250226020813 -0.2979395091533661
			vertex 0.3660852313041687 0.3067464232444763 -0.2853107154369354
		endloop
	endfacet
	facet normal 0.13364508540893627 -0.7219382144765364 -0.6789287191041992
		outer loop
			vertex 0.29999998211860657 0.279315710067749 -0.31034761667251587
			vertex 0.3376536965370178 0.28680622577667236 -0.31090062856674194
			vertex 0.29999998211860657 0.2736491858959198 -0.30432212352752686
		endloop
	endfacet
	facet normal 0.1427890403607296 -0.7642114921236077 -0.6289611158561959
		outer loop
			vertex 0.29999998211860657 0.279315710067749 -0.31034761667251587
			vertex 0.29999998211860657 0.2827153503894806 -0.3144783079624176
			vertex 0.30392155051231384 0.2836490571498871 -0.3147225081920624
		endloop
	endfacet
	facet normal 0.14278839731963072 -0.7642112969676511 -0.6289614989631017
		outer loop
			vertex 0.29999998211860657 0.279315710067749 -0.31034761667251587
			vertex 0.30392155051231384 0.2836490571498871 -0.3147225081920624
			vertex 0.3376536965370178 0.28680622577667236 -0.31090062856674194
		endloop
	endfacet
	facet normal 0.16534280147368133 -0.832666715244174 -0.5285148052091944
		outer loop
			vertex 0.29999998211860657 0.2832108438014984 -0.3152589499950409
			vertex 0.30392155051231384 0.2836490571498871 -0.3147225081920624
			vertex 0.29999998211860657 0.2827153503894806 -0.3144783079624176
		endloop
	endfacet
	facet normal 0.18192754228316696 -0.8038301570698276 -0.566356290636824
		outer loop
			vertex 0.29999998211860657 0.263703852891922 -0.2902067005634308
			vertex 0.29999998211860657 0.2736491858959198 -0.30432212352752686
			vertex 0.3376536965370178 0.28680622577667236 -0.31090062856674194
		endloop
	endfacet
	facet normal 0.18193237374528698 -0.8038330119450858 -0.5663506866692197
		outer loop
			vertex 0.29999998211860657 0.263703852891922 -0.2902067005634308
			vertex 0.3376536965370178 0.28680622577667236 -0.31090062856674194
			vertex 0.30504244565963745 0.2638559639453888 -0.28880277276039124
		endloop
	endfacet
	facet normal 0.3924403160079177 -0.8632700020085017 -0.3174200718351745
		outer loop
			vertex 0.3376536965370178 0.28680622577667236 -0.31090062856674194
			vertex 0.308711439371109 0.2632717788219452 -0.28267785906791687
			vertex 0.30504244565963745 0.2638559639453888 -0.28880277276039124
		endloop
	endfacet
	facet normal 0.055557203697728756 -0.7941143404988928 -0.6052237696350811
		outer loop
			vertex 0.3376536965370178 0.28680622577667236 -0.31090062856674194
			vertex 0.31648460030555725 0.26379770040512085 -0.28265437483787537
			vertex 0.308711439371109 0.2632717788219452 -0.28267785906791687
		endloop
	endfacet
	facet normal 0.28353828832440564 -0.8365065991305116 -0.4688952427410326
		outer loop
			vertex 0.31648460030555725 0.26379770040512085 -0.28265437483787537
			vertex 0.3376536965370178 0.28680622577667236 -0.31090062856674194
			vertex 0.3530126214027405 0.26310965418815613 -0.2593386173248291
		endloop
	endfacet
	facet normal 0.6458413663530258 -0.6022986773957704 -0.4691750555118659
		outer loop
			vertex 0.381254643201828 0.28254982829093933 -0.24541831016540527
			vertex 0.37552961707115173 0.2736442983150482 -0.24186669290065765
			vertex 0.35966986417770386 0.26214686036109924 -0.2489386647939682
		endloop
	endfacet
	facet normal 0.6458410557433794 -0.6022981605386802 -0.46917614658888995
		outer loop
			vertex 0.381254643201828 0.28254982829093933 -0.24541831016540527
			vertex 0.35966986417770386 0.26214686036109924 -0.2489386647939682
			vertex 0.3530126214027405 0.26310965418815613 -0.2593386173248291
		endloop
	endfacet
	facet normal 0.6458409986051731 -0.6022964356062759 -0.46917843959057626
		outer loop
			vertex 0.381254643201828 0.28254982829093933 -0.24541831016540527
			vertex 0.3530126214027405 0.26310965418815613 -0.2593386173248291
			vertex 0.3376536965370178 0.28680622577667236 -0.31090062856674194
		endloop
	endfacet
	facet normal 0.6458414151150287 -0.6022958048841143 -0.4691786759233781
		outer loop
			vertex 0.39680957794189453 0.3067464232444763 -0.2550681233406067
			vertex 0.381254643201828 0.28254982829093933 -0.24541831016540527
			vertex 0.3376536965370178 0.28680622577667236 -0.31090062856674194
		endloop
	endfacet
	facet normal 0.5899844352815007 -0.7184039843927486 -0.36852962070122974
		outer loop
			vertex 0.35809236764907837 0.29694250226020813 -0.2979395091533661
			vertex 0.39680957794189453 0.3067464232444763 -0.2550681233406067
			vertex 0.3376536965370178 0.28680622577667236 -0.31090062856674194
		endloop
	endfacet
	facet normal 0.5259154669228537 -0.7422151887067983 -0.4153667479520343
		outer loop
			vertex 0.38941872119903564 0.27300912141799927 -0.23619616031646729
			vertex 0.38395845890045166 0.27046406269073486 -0.23856191337108612
			vertex 0.39285385608673096 0.27801164984703064 -0.24078574776649475
		endloop
	endfacet
	facet normal 0.5259348710548288 -0.7422116966786694 -0.4153484184656439
		outer loop
			vertex 0.38941872119903564 0.27300912141799927 -0.23619616031646729
			vertex 0.39285385608673096 0.27801164984703064 -0.24078574776649475
			vertex 0.39142125844955444 0.274428129196167 -0.23619616031646729
		endloop
	endfacet
	facet normal -0.0007666094531751103 0.7850865255651703 -0.6193856308358755
		outer loop
			vertex 0.29999998211860657 0.3004327714443207 -0.29344356060028076
			vertex 0.3058483898639679 0.30008140206336975 -0.2938961684703827
			vertex 0.29999998211860657 0.29866117238998413 -0.29568910598754883
		endloop
	endfacet
	facet normal 4.0316789621850953e-7 0.7899117462755342 -0.613220541971462
		outer loop
			vertex 0.3058483898639679 0.30008140206336975 -0.2938961684703827
			vertex 0.29999998211860657 0.3004327714443207 -0.29344356060028076
			vertex 0.29999998211860657 0.3067464232444763 -0.2853107154369354
		endloop
	endfacet
	facet normal 0 0.7899116132437507 -0.6132207133346489
		outer loop
			vertex 0.3058483898639679 0.30008140206336975 -0.2938961684703827
			vertex 0.29999998211860657 0.3067464232444763 -0.2853107154369354
			vertex 0.33362844586372375 0.3067464232444763 -0.2853107154369354
		endloop
	endfacet
	facet normal 0.16974665919067705 -0.4572763818804766 -0.872974445369339
		outer loop
			vertex 0.38395845890045166 0.27046406269073486 -0.23856191337108612
			vertex 0.3744955062866211 0.2624348998069763 -0.23619616031646729
			vertex 0.3711514472961426 0.26119354367256165 -0.23619616031646729
		endloop
	endfacet
	facet normal 0.16975075146507868 -0.4572811895418128 -0.8729711312914454
		outer loop
			vertex 0.38395845890045166 0.27046406269073486 -0.23856191337108612
			vertex 0.3711514472961426 0.26119354367256165 -0.23619616031646729
			vertex 0.3674180805683136 0.2610263228416443 -0.23683452606201172
		endloop
	endfacet
	facet normal 0.16974556017785739 -0.45727305595884427 -0.8729764012239765
		outer loop
			vertex 0.38395845890045166 0.27046406269073486 -0.23856191337108612
			vertex 0.3674180805683136 0.2610263228416443 -0.23683452606201172
			vertex 0.37552961707115173 0.2736442983150482 -0.24186669290065765
		endloop
	endfacet
	facet normal 0.6458410824908078 -0.6022956738605955 -0.46917930199009517
		outer loop
			vertex 0.37552961707115173 0.2736442983150482 -0.24186669290065765
			vertex 0.3674180805683136 0.2610263228416443 -0.23683452606201172
			vertex 0.35966986417770386 0.26214686036109924 -0.2489386647939682
		endloop
	endfacet
	facet normal 0.5259154426809881 -0.7422153105534142 -0.415366560919099
		outer loop
			vertex 0.3744955062866211 0.2624348998069763 -0.23619616031646729
			vertex 0.38395845890045166 0.27046406269073486 -0.23856191337108612
			vertex 0.38941872119903564 0.27300912141799927 -0.23619616031646729
		endloop
	endfacet
	facet normal -1 0 0
		outer loop
			vertex 0.29999998211860657 0.24801227450370789 -0.26345551013946533
			vertex 0.29999998211860657 0.2516297996044159 -0.2617860436439514
			vertex 0.29999998211860657 0.2561880648136139 -0.2741829752922058
		endloop
	endfacet
	facet normal -1 0 0
		outer loop
			vertex 0.29999998211860657 0.23216846585273743 -0.23619616031646729
			vertex 0.29999998211860657 0.23478126525878906 -0.23619616031646729
			vertex 0.29999998211860657 0.24399520456790924 -0.2410225123167038
		endloop
	endfacet
	facet normal -1 0 0
		outer loop
			vertex 0.29999998211860657 0.23216846585273743 -0.23619616031646729
			vertex 0.29999998211860657 0.24399520456790924 -0.2410225123167038
			vertex 0.29999998211860657 0.2516297996044159 -0.2617860436439514
		endloop
	endfacet
	facet normal -1 0 0
		outer loop
			vertex 0.29999998211860657 0.23216846585273743 -0.23619616031646729
			vertex 0.29999998211860657 0.2516297996044159 -0.2617860436439514
			vertex 0.29999998211860657 0.24801227450370789 -0.26345551013946533
		endloop
	endfacet
	facet normal -1 0 0
		outer loop
			vertex 0.29999998211860657 0.23216846585273743 -0.23619616031646729
			vertex 0.29999998211860657 0.24801227450370789 -0.26345551013946533
			vertex 0.29999998211860657 0.24588070809841156 -0.26065871119499207
		endloop
	endfacet
	facet normal -1 0 0
		outer loop
			vertex 0.29999998211860657 0.2516297996044159 -0.2617860436439514
			vertex 0.29999998211860657 0.25934943556785583 -0.25822338461875916
			vertex 0.29999998211860657 0.263703852891922 -0.2902067005634308
		endloop
	endfacet
	facet normal -1 0 0
		outer loop
			vertex 0.29999998211860657 0.2516297996044159 -0.2617860436439514
			vertex 0.29999998211860657 0.263703852891922 -0.2902067005634308
			vertex 0.29999998211860657 0.26030731201171875 -0.28538593649864197
		endloop
	endfacet
	facet normal -1 0 0
		outer loop
			vertex 0.29999998211860657 0.24399520456790924 -0.2410225123167038
			vertex 0.29999998211860657 0.25800684094429016 -0.24836193025112152
			vertex 0.29999998211860657 0.25934943556785583 -0.25822338461875916
		endloop
	endfacet
	facet normal -1 0 0
		outer loop
			vertex 0.29999998211860657 0.24399520456790924 -0.2410225123167038
			vertex 0.29999998211860657 0.25934943556785583 -0.25822338461875916
			vertex 0.29999998211860657 0.2516297996044159 -0.2617860436439514
		endloop
	endfacet
	facet normal -1 0 0
		outer loop
			vertex 0.29999998211860657 0.23478126525878906 -0.23619616031646729
			vertex 0.29999998211860657 0.24222059547901154 -0.23619616031646729
			vertex 0.29999998211860657 0.24399520456790924 -0.2410225123167038
		endloop
	endfacet
	facet normal -1 0 0
		outer loop
			vertex 0.29999998211860657 0.24222059547901154 -0.23619616031646729
			vertex 0.29999998211860657 0.25635048747062683 -0.23619616031646729
			vertex 0.29999998211860657 0.25800684094429016 -0.24836193025112152
		endloop
	endfacet
	facet normal -1 0 0
		outer loop
			vertex 0.29999998211860657 0.24222059547901154 -0.23619616031646729
			vertex 0.29999998211860657 0.25800684094429016 -0.24836193025112152
			vertex 0.29999998211860657 0.24399520456790924 -0.2410225123167038
		endloop
	endfacet
	facet normal -1 0 0
		outer loop
			vertex 0.29999998211860657 0.2844799757003784 -0.31366440653800964
			vertex 0.29999998211860657 0.29849761724472046 -0.29554983973503113
			vertex 0.29999998211860657 0.29866117238998413 -0.29568910598754883
		endloop
	endfacet
	facet normal -1 0 0
		outer loop
			vertex 0.29999998211860657 0.2832108438014984 -0.3152589499950409
			vertex 0.29999998211860657 0.2984601855278015 -0.2955179512500763
			vertex 0.29999998211860657 0.29849761724472046 -0.29554983973503113
		endloop
	endfacet
	facet normal -1 0 0
		outer loop
			vertex 0.29999998211860657 0.2832108438014984 -0.3152589499950409
			vertex 0.29999998211860657 0.29849761724472046 -0.29554983973503113
			vertex 0.29999998211860657 0.2835523188114166 -0.3148631751537323
		endloop
	endfacet
	facet normal -1 0 0
		outer loop
			vertex 0.29999998211860657 0.2832108438014984 -0.3152589499950409
			vertex 0.29999998211860657 0.2835523188114166 -0.3148631751537323
			vertex 0.29999998211860657 0.2832208275794983 -0.3152746856212616
		endloop
	endfacet
	facet normal -1 0 0
		outer loop
			vertex 0.29999998211860657 0.2827153503894806 -0.3144783079624176
			vertex 0.29999998211860657 0.28328201174736023 -0.31516680121421814
			vertex 0.29999998211860657 0.2832108438014984 -0.3152589499950409
		endloop
	endfacet
	facet normal -1 0 0
		outer loop
			vertex 0.29999998211860657 0.279315710067749 -0.31034761667251587
			vertex 0.29999998211860657 0.2835371494293213 -0.3148365318775177
			vertex 0.29999998211860657 0.28328201174736023 -0.31516680121421814
		endloop
	endfacet
	facet normal -1 0 0
		outer loop
			vertex 0.29999998211860657 0.263703852891922 -0.2902067005634308
			vertex 0.29999998211860657 0.26142504811286926 -0.2734687328338623
			vertex 0.29999998211860657 0.2719631791114807 -0.2729541063308716
		endloop
	endfacet
	facet normal -1 0 0
		outer loop
			vertex 0.29999998211860657 0.263703852891922 -0.2902067005634308
			vertex 0.29999998211860657 0.2719631791114807 -0.2729541063308716
			vertex 0.29999998211860657 0.2984601855278015 -0.2955179512500763
		endloop
	endfacet
	facet normal -1 0 0
		outer loop
			vertex 0.29999998211860657 0.263703852891922 -0.2902067005634308
			vertex 0.29999998211860657 0.2984601855278015 -0.2955179512500763
			vertex 0.29999998211860657 0.2835371494293213 -0.3148365318775177
		endloop
	endfacet
	facet normal -1 0 0
		outer loop
			vertex 0.29999998211860657 0.263703852891922 -0.2902067005634308
			vertex 0.29999998211860657 0.2835371494293213 -0.3148365318775177
			vertex 0.29999998211860657 0.2736491858959198 -0.30432212352752686
		endloop
	endfacet
	facet normal -1 0 0
		outer loop
			vertex 0.29999998211860657 0.3067464232444763 -0.28489017486572266
			vertex 0.29999998211860657 0.3067464232444763 -0.2853107154369354
			vertex 0.29999998211860657 0.3004327714443207 -0.29344356060028076
		endloop
	endfacet
	facet normal -1 0 0
		outer loop
			vertex 0.29999998211860657 0.3067464232444763 -0.28489017486572266
			vertex 0.29999998211860657 0.3004327714443207 -0.29344356060028076
			vertex 0.29999998211860657 0.29866117238998413 -0.29568910598754883
		endloop
	endfacet
	facet normal -1 0 0
		outer loop
			vertex 0.29999998211860657 0.3067464232444763 -0.28489017486572266
			vertex 0.29999998211860657 0.29866117238998413 -0.29568910598754883
			vertex 0.29999998211860657 0.29849761724472046 -0.29554983973503113
		endloop
	endfacet
	facet normal -1 0 0
		outer loop
			vertex 0.29999998211860657 0.2719631791114807 -0.2729541063308716
			vertex 0.29999998211860657 0.3067464232444763 -0.2712554931640625
			vertex 0.29999998211860657 0.3067464232444763 -0.28489017486572266
		endloop
	endfacet
	facet normal -1 0 0
		outer loop
			vertex 0.29999998211860657 0.2719631791114807 -0.2729541063308716
			vertex 0.29999998211860657 0.3067464232444763 -0.28489017486572266
			vertex 0.29999998211860657 0.29849761724472046 -0.29554983973503113
		endloop
	endfacet
	facet normal -1 0 0
		outer loop
			vertex 0.29999998211860657 0.26142504811286926 -0.2734687328338623
			vertex 0.29999998211860657 0.25934943556785583 -0.25822338461875916
			vertex 0.29999998211860657 0.26864415407180786 -0.253933846950531
		endloop
	endfacet
	facet normal -1 0 0
		outer loop
			vertex 0.29999998211860657 0.26142504811286926 -0.2734687328338623
			vertex 0.29999998211860657 0.26864415407180786 -0.253933846950531
			vertex 0.29999998211860657 0.30214205384254456 -0.27148035168647766
		endloop
	endfacet
	facet normal -1 0 0
		outer loop
			vertex 0.29999998211860657 0.26864415407180786 -0.253933846950531
			vertex 0.29999998211860657 0.25934943556785583 -0.25822338461875916
			vertex 0.29999998211860657 0.25800684094429016 -0.24836193025112152
		endloop
	endfacet
	facet normal -1 0 0
		outer loop
			vertex 0.29999998211860657 0.26864415407180786 -0.253933846950531
			vertex 0.29999998211860657 0.277612566947937 -0.24979490041732788
			vertex 0.29999998211860657 0.27776893973350525 -0.2587135136127472
		endloop
	endfacet
	facet normal -1 0 0
		outer loop
			vertex 0.29999998211860657 0.25635048747062683 -0.23619616031646729
			vertex 0.29999998211860657 0.27737414836883545 -0.23619616031646729
			vertex 0.29999998211860657 0.277612566947937 -0.24979490041732788
		endloop
	endfacet
	facet normal -1 0 0
		outer loop
			vertex 0.29999998211860657 0.25635048747062683 -0.23619616031646729
			vertex 0.29999998211860657 0.277612566947937 -0.24979490041732788
			vertex 0.29999998211860657 0.26864415407180786 -0.253933846950531
		endloop
	endfacet
	facet normal -1 0 0
		outer loop
			vertex 0.29999998211860657 0.25635048747062683 -0.23619616031646729
			vertex 0.29999998211860657 0.26864415407180786 -0.253933846950531
			vertex 0.29999998211860657 0.25800684094429016 -0.24836193025112152
		endloop
	endfacet
	facet normal -1 0 0
		outer loop
			vertex 0.29999998211860657 0.277612566947937 -0.24979490041732788
			vertex 0.29999998211860657 0.3067464232444763 -0.23634955286979675
			vertex 0.29999998211860657 0.3067464232444763 -0.2712554931640625
		endloop
	endfacet
	facet normal -1 0 0
		outer loop
			vertex 0.29999998211860657 0.277612566947937 -0.24979490041732788
			vertex 0.29999998211860657 0.3067464232444763 -0.2712554931640625
			vertex 0.29999998211860657 0.30214205384254456 -0.27148035168647766
		endloop
	endfacet
	facet normal -1 0 0
		outer loop
			vertex 0.29999998211860657 0.277612566947937 -0.24979490041732788
			vertex 0.29999998211860657 0.30214205384254456 -0.27148035168647766
			vertex 0.29999998211860657 0.27776893973350525 -0.2587135136127472
		endloop
	endfacet
	facet normal -1 0 0
		outer loop
			vertex 0.29999998211860657 0.27737414836883545 -0.23619616031646729
			vertex 0.29999998211860657 0.3067464232444763 -0.23619616031646729
			vertex 0.29999998211860657 0.3067464232444763 -0.23634955286979675
		endloop
	endfacet
	facet normal -1 0 0
		outer loop
			vertex 0.29999998211860657 0.27737414836883545 -0.23619616031646729
			vertex 0.29999998211860657 0.3067464232444763 -0.23634955286979675
			vertex 0.29999998211860657 0.277612566947937 -0.24979490041732788
		endloop
	endfacet
	facet normal 0 0 1
		outer loop
			vertex 0.42942672967910767 0.3067464232444763 -0.23619616031646729
			vertex 0.44242429733276367 0.3067464232444763 -0.23619616031646729
			vertex 0.43060922622680664 0.30676165223121643 -0.23619616031646729
		endloop
	endfacet
	facet normal 0 0 1
		outer loop
			vertex 0.29999998211860657 0.23478126525878906 -0.23619616031646729
			vertex 0.29999998211860657 0.23216846585273743 -0.23619616031646729
			vertex 0.35990607738494873 0.25247398018836975 -0.23619616031646729
		endloop
	endfacet
	facet normal 0 0 1
		outer loop
			vertex 0.29999998211860657 0.23478126525878906 -0.23619616031646729
			vertex 0.35990607738494873 0.25247398018836975 -0.23619616031646729
			vertex 0.36638909578323364 0.25942566990852356 -0.23619616031646729
		endloop
	endfacet
	facet normal 0 0 1
		outer loop
			vertex 0.29999998211860657 0.24222059547901154 -0.23619616031646729
			vertex 0.29999998211860657 0.23478126525878906 -0.23619616031646729
			vertex 0.3711514472961426 0.26119354367256165 -0.23619616031646729
		endloop
	endfacet
	facet normal 0 0 1
		outer loop
			vertex 0.29999998211860657 0.24222059547901154 -0.23619616031646729
			vertex 0.3711514472961426 0.26119354367256165 -0.23619616031646729
			vertex 0.3365554213523865 0.2588387131690979 -0.23619616031646729
		endloop
	endfacet
	facet normal 0 0 1
		outer loop
			vertex 0.29999998211860657 0.25635048747062683 -0.23619616031646729
			vertex 0.29999998211860657 0.24222059547901154 -0.23619616031646729
			vertex 0.3365554213523865 0.2588387131690979 -0.23619616031646729
		endloop
	endfacet
	facet normal 0 0 1
		outer loop
			vertex 0.41227999329566956 0.28920817375183105 -0.23619616031646729
			vertex 0.39403235912323 0.2785915434360504 -0.23619616031646729
			vertex 0.39142125844955444 0.274428129196167 -0.23619616031646729
		endloop
	endfacet
	facet normal 0 0 1
		outer loop
			vertex 0.44242429733276367 0.3067464232444763 -0.23619616031646729
			vertex 0.43703126907348633 0.3067464232444763 -0.23619616031646729
			vertex 0.41271230578422546 0.2895145118236542 -0.23619616031646729
		endloop
	endfacet
	facet normal 0 0 1
		outer loop
			vertex 0.44242429733276367 0.3067464232444763 -0.23619616031646729
			vertex 0.41271230578422546 0.2895145118236542 -0.23619616031646729
			vertex 0.42428749799728394 0.29619425535202026 -0.23619616031646729
		endloop
	endfacet
	facet normal 0 0 1
		outer loop
			vertex 0.43703126907348633 0.3067464232444763 -0.23619616031646729
			vertex 0.411689817905426 0.3067464232444763 -0.23619616031646729
			vertex 0.39403235912323 0.2785915434360504 -0.23619616031646729
		endloop
	endfacet
	facet normal 0 0 1
		outer loop
			vertex 0.43703126907348633 0.3067464232444763 -0.23619616031646729
			vertex 0.39403235912323 0.2785915434360504 -0.23619616031646729
			vertex 0.41227999329566956 0.28920817375183105 -0.23619616031646729
		endloop
	endfacet
	facet normal 0 0 1
		outer loop
			vertex 0.39142125844955444 0.274428129196167 -0.23619616031646729
			vertex 0.4009834825992584 0.28967511653900146 -0.23619616031646729
			vertex 0.38834264874458313 0.2820546627044678 -0.23619616031646729
		endloop
	endfacet
	facet normal 0 0 1
		outer loop
			vertex 0.39142125844955444 0.274428129196167 -0.23619616031646729
			vertex 0.38834264874458313 0.2820546627044678 -0.23619616031646729
			vertex 0.38941872119903564 0.27300912141799927 -0.23619616031646729
		endloop
	endfacet
	facet normal 0 0 1
		outer loop
			vertex 0.4009834825992584 0.28967511653900146 -0.23619616031646729
			vertex 0.411689817905426 0.3067464232444763 -0.23619616031646729
			vertex 0.3854053318500519 0.3067464232444763 -0.23619616031646729
		endloop
	endfacet
	facet normal 0 0 1
		outer loop
			vertex 0.4009834825992584 0.28967511653900146 -0.23619616031646729
			vertex 0.3854053318500519 0.3067464232444763 -0.23619616031646729
			vertex 0.38834264874458313 0.2820546627044678 -0.23619616031646729
		endloop
	endfacet
	facet normal 0 0 1
		outer loop
			vertex 0.29999998211860657 0.27737414836883545 -0.23619616031646729
			vertex 0.29999998211860657 0.25635048747062683 -0.23619616031646729
			vertex 0.3711514472961426 0.26119354367256165 -0.23619616031646729
		endloop
	endfacet
	facet normal 0 0 1
		outer loop
			vertex 0.29999998211860657 0.27737414836883545 -0.23619616031646729
			vertex 0.3711514472961426 0.26119354367256165 -0.23619616031646729
			vertex 0.3744955062866211 0.2624348998069763 -0.23619616031646729
		endloop
	endfacet
	facet normal 0 0 1
		outer loop
			vertex 0.29999998211860657 0.27737414836883545 -0.23619616031646729
			vertex 0.3744955062866211 0.2624348998069763 -0.23619616031646729
			vertex 0.38941872119903564 0.27300912141799927 -0.23619616031646729
		endloop
	endfacet
	facet normal 0 0 1
		outer loop
			vertex 0.29999998211860657 0.27737414836883545 -0.23619616031646729
			vertex 0.38941872119903564 0.27300912141799927 -0.23619616031646729
			vertex 0.3866558074951172 0.2962344288825989 -0.23619616031646729
		endloop
	endfacet
	facet normal 0 0 1
		outer loop
			vertex 0.29999998211860657 0.3067464232444763 -0.23619616031646729
			vertex 0.29999998211860657 0.27737414836883545 -0.23619616031646729
			vertex 0.3866558074951172 0.2962344288825989 -0.23619616031646729
		endloop
	endfacet
	facet normal 0 0 1
		outer loop
			vertex 0.29999998211860657 0.3067464232444763 -0.23619616031646729
			vertex 0.3866558074951172 0.2962344288825989 -0.23619616031646729
			vertex 0.3854053318500519 0.3067464232444763 -0.23619616031646729
		endloop
	endfacet
endsolid exported
