solid exported
	facet normal 0.21743220526750637 0.9335456400980472 0.28498381351655155
		outer loop
			vertex 0.45177677273750305 0.30498337745666504 -0.04723922908306122
			vertex 0.46527084708213806 0.3067464232444763 -0.06331007182598114
			vertex 0.4442071318626404 0.3067464232444763 -0.04723922908306122
		endloop
	endfacet
	facet normal 0.6605420989089424 -0.5667156123733806 0.49246070935784647
		outer loop
			vertex 0.46527084708213806 0.3067464232444763 -0.06331007182598114
			vertex 0.45177677273750305 0.30498337745666504 -0.04723922908306122
			vertex 0.4186829924583435 0.2664105296134949 -0.04723922908306122
		endloop
	endfacet
	facet normal 0.6605421819398266 -0.5667158714196591 0.4924602998813504
		outer loop
			vertex 0.46527084708213806 0.3067464232444763 -0.06331007182598114
			vertex 0.4186829924583435 0.2664105296134949 -0.04723922908306122
			vertex 0.41292786598205566 0.25108009576797485 -0.0571618489921093
		endloop
	endfacet
	facet normal 0.41121220470167436 -0.5990608660819398 0.6870448321860406
		outer loop
			vertex 0.3966369926929474 0.25127753615379333 -0.04723922908306122
			vertex 0.41292786598205566 0.25108009576797485 -0.0571618489921093
			vertex 0.4186829924583435 0.2664105296134949 -0.04723922908306122
		endloop
	endfacet
	facet normal 0 1 0
		outer loop
			vertex 0.4442071318626404 0.3067464232444763 -0.04723922908306122
			vertex 0.46527084708213806 0.3067464232444763 -0.06331007182598114
			vertex 0.43727782368659973 0.3067464232444763 -0.14171770215034485
		endloop
	endfacet
	facet normal 0 1 0
		outer loop
			vertex 0.4442071318626404 0.3067464232444763 -0.04723922908306122
			vertex 0.43727782368659973 0.3067464232444763 -0.14171770215034485
			vertex 0.3875446319580078 0.3067464232444763 -0.14171770215034485
		endloop
	endfacet
	facet normal 0 1 0
		outer loop
			vertex 0.4442071318626404 0.3067464232444763 -0.04723922908306122
			vertex 0.3875446319580078 0.3067464232444763 -0.14171770215034485
			vertex 0.3798222541809082 0.3067464232444763 -0.04723922908306122
		endloop
	endfacet
	facet normal 0 1 0
		outer loop
			vertex 0.4490147531032562 0.3067464232444763 -0.14171770215034485
			vertex 0.43727782368659973 0.3067464232444763 -0.14171770215034485
			vertex 0.46527084708213806 0.3067464232444763 -0.06331007182598114
		endloop
	endfacet
	facet normal 0 1 0
		outer loop
			vertex 0.3798222541809082 0.3067464232444763 -0.04723922908306122
			vertex 0.3875446319580078 0.3067464232444763 -0.14171770215034485
			vertex 0.29999998211860657 0.3067464232444763 -0.14171770215034485
		endloop
	endfacet
	facet normal 0 1 0
		outer loop
			vertex 0.3798222541809082 0.3067464232444763 -0.04723922908306122
			vertex 0.29999998211860657 0.3067464232444763 -0.14171770215034485
			vertex 0.29999998211860657 0.3067464232444763 -0.11632440239191055
		endloop
	endfacet
	facet normal 0 1 0
		outer loop
			vertex 0.3798222541809082 0.3067464232444763 -0.04723922908306122
			vertex 0.29999998211860657 0.3067464232444763 -0.11632440239191055
			vertex 0.3429608941078186 0.3067464232444763 -0.04723922908306122
		endloop
	endfacet
	facet normal 0 1 0
		outer loop
			vertex 0.29999998211860657 0.3067464232444763 -0.04723922908306122
			vertex 0.3429608941078186 0.3067464232444763 -0.04723922908306122
			vertex 0.29999998211860657 0.3067464232444763 -0.11632440239191055
		endloop
	endfacet
	facet normal 0.5866099281967692 -0.6781681537446446 0.44269261049577224
		outer loop
			vertex 0.4951217770576477 0.3067726492881775 -0.14171770215034485
			vertex 0.4690926969051361 0.3069126009941101 -0.1070122942328453
			vertex 0.4689858555793762 0.3067464232444763 -0.10712528973817825
		endloop
	endfacet
	facet normal 0.5867028689053532 -0.6780418382690275 0.4427629266040531
		outer loop
			vertex 0.4951217770576477 0.3067726492881775 -0.14171770215034485
			vertex 0.4689858555793762 0.3067464232444763 -0.10712528973817825
			vertex 0.4950914680957794 0.3067464232444763 -0.14171770215034485
		endloop
	endfacet
	facet normal 0.8170383493607029 -0.5724065807087979 0.06927511844234134
		outer loop
			vertex 0.4689858555793762 0.3067464232444763 -0.10712528973817825
			vertex 0.4690926969051361 0.3069126009941101 -0.1070122942328453
			vertex 0.46527084708213806 0.3067464232444763 -0.06331007182598114
		endloop
	endfacet
	facet normal -0.012898325735319542 0.9999132371975643 0.002674185915992917
		outer loop
			vertex 0.4589451849460602 0.3067464232444763 -0.09382046014070511
			vertex 0.46527084708213806 0.3067464232444763 -0.06331007182598114
			vertex 0.4690926969051361 0.3069126009941101 -0.1070122942328453
		endloop
	endfacet
	facet normal -0.012896796425765118 0.999913257781913 0.002673864976835259
		outer loop
			vertex 0.4587540626525879 0.30687204003334045 -0.14171770215034485
			vertex 0.4490147531032562 0.3067464232444763 -0.14171770215034485
			vertex 0.4589451849460602 0.3067464232444763 -0.09382046014070511
		endloop
	endfacet
	facet normal -0.012898732926002085 0.9999132327827337 0.0026738726384047894
		outer loop
			vertex 0.4587540626525879 0.30687204003334045 -0.14171770215034485
			vertex 0.4589451849460602 0.3067464232444763 -0.09382046014070511
			vertex 0.4690926969051361 0.3069126009941101 -0.1070122942328453
		endloop
	endfacet
	facet normal 0.003785620154837951 0.9999921225117725 -0.0011933123830703768
		outer loop
			vertex 0.47410234808921814 0.30685222148895264 -0.14171770215034485
			vertex 0.4690926969051361 0.3069126009941101 -0.1070122942328453
			vertex 0.4951217770576477 0.3067726492881775 -0.14171770215034485
		endloop
	endfacet
	facet normal 0.0012912519796829183 0.9999979598385593 -0.0015533792339430263
		outer loop
			vertex 0.47410234808921814 0.30685222148895264 -0.14171770215034485
			vertex 0.4587540626525879 0.30687204003334045 -0.14171770215034485
			vertex 0.4690926969051361 0.3069126009941101 -0.1070122942328453
		endloop
	endfacet
	facet normal 0.18340039607246914 -0.9296333538591127 0.319603069624056
		outer loop
			vertex 0.41292786598205566 0.25108009576797485 -0.0571618489921093
			vertex 0.3966369926929474 0.25127753615379333 -0.04723922908306122
			vertex 0.3622142970561981 0.24448654055595398 -0.04723922908306122
		endloop
	endfacet
	facet normal 0.183400770689904 -0.9296324049233646 0.3196056148235683
		outer loop
			vertex 0.41292786598205566 0.25108009576797485 -0.0571618489921093
			vertex 0.3622142970561981 0.24448654055595398 -0.04723922908306122
			vertex 0.36573612689971924 0.2382851392030716 -0.06729810684919357
		endloop
	endfacet
	facet normal 0.36378229943057305 -0.6788782151969155 0.6377984066709914
		outer loop
			vertex 0.32886654138565063 0.23737336695194244 -0.04723922908306122
			vertex 0.36573612689971924 0.2382851392030716 -0.06729810684919357
			vertex 0.33044442534446716 0.23821888864040375 -0.04723922908306122
		endloop
	endfacet
	facet normal 0.1502404876320732 -0.9609286618913158 0.2324734450036009
		outer loop
			vertex 0.32886654138565063 0.23737336695194244 -0.04723922908306122
			vertex 0.31581559777259827 0.23533286154270172 -0.04723922908306122
			vertex 0.36573612689971924 0.2382851392030716 -0.06729810684919357
		endloop
	endfacet
	facet normal -0.19777107555691217 -0.9457756391798491 0.2576723539827473
		outer loop
			vertex 0.33917930722236633 0.24930338561534882 -0.04723922908306122
			vertex 0.36573612689971924 0.2382851392030716 -0.06729810684919357
			vertex 0.3622142970561981 0.24448654055595398 -0.04723922908306122
		endloop
	endfacet
	facet normal 0.15024015885312633 -0.9609286294098982 0.23247379174479413
		outer loop
			vertex 0.29999998211860657 0.23286010324954987 -0.04723922908306122
			vertex 0.29999998211860657 0.22697670757770538 -0.07155819982290268
			vertex 0.32984527945518494 0.23025397956371307 -0.07729965448379517
		endloop
	endfacet
	facet normal 0.1502408436734904 -0.960928363426901 0.23247444860452032
		outer loop
			vertex 0.29999998211860657 0.23286010324954987 -0.04723922908306122
			vertex 0.32984527945518494 0.23025397956371307 -0.07729965448379517
			vertex 0.3100530207157135 0.2344318926334381 -0.04723922908306122
		endloop
	endfacet
	facet normal 0.1161366117266629 -0.887937712695143 -0.4450605641824134
		outer loop
			vertex 0.3197075426578522 0.22083748877048492 -0.10967098921537399
			vertex 0.33365315198898315 0.2271287590265274 -0.11858361959457397
			vertex 0.3402298390865326 0.2265777736902237 -0.1157681941986084
		endloop
	endfacet
	facet normal 0.542446330899677 -0.7873281133998821 0.29302972535847055
		outer loop
			vertex 0.3197075426578522 0.22083748877048492 -0.10967098921537399
			vertex 0.33982592821121216 0.22522148489952087 -0.1351342797279358
			vertex 0.3397570848464966 0.225404754281044 -0.13451442122459412
		endloop
	endfacet
	facet normal 0.542464712647496 -0.7873085912479993 0.2930481490802499
		outer loop
			vertex 0.3197075426578522 0.22083748877048492 -0.10967098921537399
			vertex 0.3397570848464966 0.225404754281044 -0.13451442122459412
			vertex 0.33365315198898315 0.2271287590265274 -0.11858361959457397
		endloop
	endfacet
	facet normal 0.18790138789418265 -0.8785847576329613 0.4390693476917634
		outer loop
			vertex 0.29999998211860657 0.21744003891944885 -0.10803541541099548
			vertex 0.29999998211860657 0.20913086831569672 -0.12466219812631607
			vertex 0.3197075426578522 0.22083748877048492 -0.10967098921537399
		endloop
	endfacet
	facet normal 0.4284801911736535 -0.8841323459973944 0.18631886789301064
		outer loop
			vertex 0.29999998211860657 0.20739562809467316 -0.12813441455364227
			vertex 0.3197075426578522 0.22083748877048492 -0.10967098921537399
			vertex 0.29999998211860657 0.209068164229393 -0.12019778788089752
		endloop
	endfacet
	facet normal -0.517413048068244 0.8556513938236797 0.012017900662079611
		outer loop
			vertex 0.29999998211860657 0.20913086831569672 -0.12466219812631607
			vertex 0.29999998211860657 0.209068164229393 -0.12019778788089752
			vertex 0.3197075426578522 0.22083748877048492 -0.10967098921537399
		endloop
	endfacet
	facet normal 0.42847979585422047 -0.8841324589451228 0.18631924104712408
		outer loop
			vertex 0.29999998211860657 0.2056073397397995 -0.13662037253379822
			vertex 0.29999998211860657 0.2045331448316574 -0.14171770215034485
			vertex 0.33924034237861633 0.22355031967163086 -0.14171770215034485
		endloop
	endfacet
	facet normal 0.4284799470787107 -0.8841312248282258 0.18632474938978674
		outer loop
			vertex 0.29999998211860657 0.2056073397397995 -0.13662037253379822
			vertex 0.33924034237861633 0.22355031967163086 -0.14171770215034485
			vertex 0.3395112454891205 0.22432349622249603 -0.138671875
		endloop
	endfacet
	facet normal 0.42848008738731513 -0.8841323693652386 0.18631899568527072
		outer loop
			vertex 0.33982592821121216 0.22522148489952087 -0.1351342797279358
			vertex 0.3197075426578522 0.22083748877048492 -0.10967098921537399
			vertex 0.29999998211860657 0.20739562809467316 -0.12813441455364227
		endloop
	endfacet
	facet normal 0.4284800007582015 -0.8841326841459463 0.18631770118573338
		outer loop
			vertex 0.33982592821121216 0.22522148489952087 -0.1351342797279358
			vertex 0.29999998211860657 0.20739562809467316 -0.12813441455364227
			vertex 0.29999998211860657 0.2056073397397995 -0.13662037253379822
		endloop
	endfacet
	facet normal 0.4284803364942371 -0.8841331425390667 0.18631475384890936
		outer loop
			vertex 0.33982592821121216 0.22522148489952087 -0.1351342797279358
			vertex 0.29999998211860657 0.2056073397397995 -0.13662037253379822
			vertex 0.3395112454891205 0.22432349622249603 -0.138671875
		endloop
	endfacet
	facet normal 0.2899316249099949 -0.95387758433036 0.07782806042249225
		outer loop
			vertex 0.3392897844314575 0.2282603681087494 -0.09164398163557053
			vertex 0.3197075426578522 0.22083748877048492 -0.10967098921537399
			vertex 0.3402298390865326 0.2265777736902237 -0.1157681941986084
		endloop
	endfacet
	facet normal 0.15023969230691656 -0.960928795650296 0.23247340610399964
		outer loop
			vertex 0.29999998211860657 0.22697670757770538 -0.07155819982290268
			vertex 0.29999998211860657 0.2255779504776001 -0.07733996212482452
			vertex 0.3197075426578522 0.22083748877048492 -0.10967098921537399
		endloop
	endfacet
	facet normal 0.15024064391921094 -0.9609285378691018 0.23247385664519643
		outer loop
			vertex 0.29999998211860657 0.22697670757770538 -0.07155819982290268
			vertex 0.3197075426578522 0.22083748877048492 -0.10967098921537399
			vertex 0.3392897844314575 0.2282603681087494 -0.09164398163557053
		endloop
	endfacet
	facet normal 0.15023994042864414 -0.9609289877277158 0.23247245179716466
		outer loop
			vertex 0.29999998211860657 0.22697670757770538 -0.07155819982290268
			vertex 0.3392897844314575 0.2282603681087494 -0.09164398163557053
			vertex 0.32984527945518494 0.23025397956371307 -0.07729965448379517
		endloop
	endfacet
	facet normal 0.18790137878308202 -0.8785832660317225 0.43907233629602355
		outer loop
			vertex 0.29999998211860657 0.21881990134716034 -0.10527431219816208
			vertex 0.29999998211860657 0.21744003891944885 -0.10803541541099548
			vertex 0.3197075426578522 0.22083748877048492 -0.10967098921537399
		endloop
	endfacet
	facet normal -0.1570322262559703 -0.9863818111510013 0.04890605839325075
		outer loop
			vertex 0.29999998211860657 0.224784716963768 -0.09333861619234085
			vertex 0.3197075426578522 0.22083748877048492 -0.10967098921537399
			vertex 0.29999998211860657 0.2255779504776001 -0.07733996212482452
		endloop
	endfacet
	facet normal 0.18790085900965564 -0.8785849210651822 0.43906924699905975
		outer loop
			vertex 0.29999998211860657 0.21881990134716034 -0.10527431219816208
			vertex 0.3197075426578522 0.22083748877048492 -0.10967098921537399
			vertex 0.29999998211860657 0.224784716963768 -0.09333861619234085
		endloop
	endfacet
	facet normal 0.15023953232732803 -0.9609289383102237 0.23247291980799
		outer loop
			vertex 0.3383626639842987 0.2311892807483673 -0.07893817871809006
			vertex 0.31909170746803284 0.23552660644054413 -0.04855562373995781
			vertex 0.31581559777259827 0.23533286154270172 -0.04723922908306122
		endloop
	endfacet
	facet normal 0.15023956793455176 -0.9609289269743456 0.23247294365317456
		outer loop
			vertex 0.3383626639842987 0.2311892807483673 -0.07893817871809006
			vertex 0.31581559777259827 0.23533286154270172 -0.04723922908306122
			vertex 0.3100530207157135 0.2344318926334381 -0.04723922908306122
		endloop
	endfacet
	facet normal 0.15024256519343562 -0.960927837723405 0.23247550901614955
		outer loop
			vertex 0.3383626639842987 0.2311892807483673 -0.07893817871809006
			vertex 0.3100530207157135 0.2344318926334381 -0.04723922908306122
			vertex 0.32984527945518494 0.23025397956371307 -0.07729965448379517
		endloop
	endfacet
	facet normal 0.11613572885559832 -0.8879404149360863 -0.44505540329975773
		outer loop
			vertex 0.33365315198898315 0.2271287590265274 -0.11858361959457397
			vertex 0.33570584654808044 0.22805476188659668 -0.11989546567201614
			vertex 0.34371277689933777 0.22755198180675507 -0.11680297553539276
		endloop
	endfacet
	facet normal 0.11613648915562616 -0.8879378579865138 -0.4450603062967162
		outer loop
			vertex 0.33365315198898315 0.2271287590265274 -0.11858361959457397
			vertex 0.34371277689933777 0.22755198180675507 -0.11680297553539276
			vertex 0.3402298390865326 0.2265777736902237 -0.1157681941986084
		endloop
	endfacet
	facet normal 0.5424614552750908 -0.787311731015795 0.2930457434356337
		outer loop
			vertex 0.3397570848464966 0.225404754281044 -0.13451442122459412
			vertex 0.33917689323425293 0.22694918513298035 -0.12929107248783112
			vertex 0.33570584654808044 0.22805476188659668 -0.11989546567201614
		endloop
	endfacet
	facet normal 0.542452110943768 -0.787318665204964 0.29304441088770844
		outer loop
			vertex 0.3397570848464966 0.225404754281044 -0.13451442122459412
			vertex 0.33570584654808044 0.22805476188659668 -0.11989546567201614
			vertex 0.33365315198898315 0.2271287590265274 -0.11858361959457397
		endloop
	endfacet
	facet normal 0.28993040406413123 -0.9538779571661141 0.07782803885368551
		outer loop
			vertex 0.34379252791404724 0.2299671769142151 -0.08749888092279434
			vertex 0.3392897844314575 0.2282603681087494 -0.09164398163557053
			vertex 0.3402298390865326 0.2265777736902237 -0.1157681941986084
		endloop
	endfacet
	facet normal 0.2899306793775959 -0.9538778770989902 0.0778279945570321
		outer loop
			vertex 0.34379252791404724 0.2299671769142151 -0.08749888092279434
			vertex 0.3402298390865326 0.2265777736902237 -0.1157681941986084
			vertex 0.34371277689933777 0.22755198180675507 -0.11680297553539276
		endloop
	endfacet
	facet normal 0.15024037860211298 -0.9609285832680088 0.23247384045528996
		outer loop
			vertex 0.3392897844314575 0.2282603681087494 -0.09164398163557053
			vertex 0.34379252791404724 0.2299671769142151 -0.08749888092279434
			vertex 0.3383626639842987 0.2311892807483673 -0.07893817871809006
		endloop
	endfacet
	facet normal 0.15024230418132814 -0.9609282659097227 0.23247390780476587
		outer loop
			vertex 0.3392897844314575 0.2282603681087494 -0.09164398163557053
			vertex 0.3383626639842987 0.2311892807483673 -0.07893817871809006
			vertex 0.32984527945518494 0.23025397956371307 -0.07729965448379517
		endloop
	endfacet
	facet normal 0.11613707596132138 -0.8879406081581278 -0.4450546662725023
		outer loop
			vertex 0.33570584654808044 0.22805476188659668 -0.11989546567201614
			vertex 0.33831867575645447 0.22923347353935242 -0.1215653270483017
			vertex 0.34696152806282043 0.22846069931983948 -0.11776819080114365
		endloop
	endfacet
	facet normal 0.11613819915605905 -0.8879371519031519 -0.4450612687787003
		outer loop
			vertex 0.33570584654808044 0.22805476188659668 -0.11989546567201614
			vertex 0.34696152806282043 0.22846069931983948 -0.11776819080114365
			vertex 0.34371277689933777 0.22755198180675507 -0.11680297553539276
		endloop
	endfacet
	facet normal 0.5424615024046201 -0.7873116936971696 0.2930457564555689
		outer loop
			vertex 0.33917689323425293 0.22694918513298035 -0.12929107248783112
			vertex 0.33831867575645447 0.22923347353935242 -0.1215653270483017
			vertex 0.33570584654808044 0.22805476188659668 -0.11989546567201614
		endloop
	endfacet
	facet normal 0.28993117793008566 -0.9538777266862511 0.07782798080345316
		outer loop
			vertex 0.36573612689971924 0.2382851392030716 -0.06729810684919357
			vertex 0.34379252791404724 0.2299671769142151 -0.08749888092279434
			vertex 0.34371277689933777 0.22755198180675507 -0.11680297553539276
		endloop
	endfacet
	facet normal 0.28993417354474676 -0.9538769388335498 0.07782647732270126
		outer loop
			vertex 0.36573612689971924 0.2382851392030716 -0.06729810684919357
			vertex 0.34371277689933777 0.22755198180675507 -0.11680297553539276
			vertex 0.34696152806282043 0.22846069931983948 -0.11776819080114365
		endloop
	endfacet
	facet normal 0.597605800939439 -0.018881345697838156 0.801567714836476
		outer loop
			vertex 0.3389734923839569 0.24278922379016876 -0.04723922908306122
			vertex 0.36573612689971924 0.2382851392030716 -0.06729810684919357
			vertex 0.33917930722236633 0.24930338561534882 -0.04723922908306122
		endloop
	endfacet
	facet normal 0.3637810792923235 -0.6788808941378597 0.637796251104922
		outer loop
			vertex 0.33044442534446716 0.23821888864040375 -0.04723922908306122
			vertex 0.36573612689971924 0.2382851392030716 -0.06729810684919357
			vertex 0.3389734923839569 0.24278922379016876 -0.04723922908306122
		endloop
	endfacet
	facet normal 0.15024062181213402 -0.960928589720115 0.23247365660653735
		outer loop
			vertex 0.34379252791404724 0.2299671769142151 -0.08749888092279434
			vertex 0.36573612689971924 0.2382851392030716 -0.06729810684919357
			vertex 0.31909170746803284 0.23552660644054413 -0.04855562373995781
		endloop
	endfacet
	facet normal 0.25298605063330387 -0.9665476897620363 0.04223294449401035
		outer loop
			vertex 0.43386396765708923 0.2528653144836426 -0.14171770215034485
			vertex 0.41292786598205566 0.25108009576797485 -0.0571618489921093
			vertex 0.36573612689971924 0.2382851392030716 -0.06729810684919357
		endloop
	endfacet
	facet normal 0.25299286993747944 -0.9665456142721216 0.042239593891574195
		outer loop
			vertex 0.43386396765708923 0.2528653144836426 -0.14171770215034485
			vertex 0.36573612689971924 0.2382851392030716 -0.06729810684919357
			vertex 0.4325519800186157 0.25252190232276917 -0.14171770215034485
		endloop
	endfacet
	facet normal 0.11614020682411663 -0.8879409254734664 -0.4450532161755215
		outer loop
			vertex 0.42596691846847534 0.2507983446121216 -0.14171770215034485
			vertex 0.4275721311569214 0.2510083019733429 -0.14171770215034485
			vertex 0.34696152806282043 0.22846069931983948 -0.11776819080114365
		endloop
	endfacet
	facet normal 0.11613869646546132 -0.8879393583420155 -0.44505673693415043
		outer loop
			vertex 0.42596691846847534 0.2507983446121216 -0.14171770215034485
			vertex 0.34696152806282043 0.22846069931983948 -0.11776819080114365
			vertex 0.3396574556827545 0.22911377251148224 -0.12097716331481934
		endloop
	endfacet
	facet normal 0.5424623455906865 -0.7873107973225948 0.2930466038627825
		outer loop
			vertex 0.33982592821121216 0.22522148489952087 -0.1351342797279358
			vertex 0.34502747654914856 0.2263549566268921 -0.14171770215034485
			vertex 0.35265305638313293 0.2316090315580368 -0.14171770215034485
		endloop
	endfacet
	facet normal 0.542462184819555 -0.7873111532146606 0.29304594531335204
		outer loop
			vertex 0.33982592821121216 0.22522148489952087 -0.1351342797279358
			vertex 0.35265305638313293 0.2316090315580368 -0.14171770215034485
			vertex 0.33851462602615356 0.22871188819408417 -0.12332942336797714
		endloop
	endfacet
	facet normal 0.42847984932188204 -0.8841323910902404 0.18631944007577791
		outer loop
			vertex 0.34502747654914856 0.2263549566268921 -0.14171770215034485
			vertex 0.33982592821121216 0.22522148489952087 -0.1351342797279358
			vertex 0.33924034237861633 0.22355031967163086 -0.14171770215034485
		endloop
	endfacet
	facet normal 0.2899315894670582 -0.9538776347861484 0.07782757405886846
		outer loop
			vertex 0.4325519800186157 0.25252190232276917 -0.14171770215034485
			vertex 0.36573612689971924 0.2382851392030716 -0.06729810684919357
			vertex 0.34696152806282043 0.22846069931983948 -0.11776819080114365
		endloop
	endfacet
	facet normal 0.28992723255827874 -0.9538804609663335 0.0778091640345347
		outer loop
			vertex 0.4325519800186157 0.25252190232276917 -0.14171770215034485
			vertex 0.34696152806282043 0.22846069931983948 -0.11776819080114365
			vertex 0.4275721311569214 0.2510083019733429 -0.14171770215034485
		endloop
	endfacet
	facet normal 0.11613799795361268 -0.8879385104913793 -0.44505861076680414
		outer loop
			vertex 0.33831867575645447 0.22923347353935242 -0.1215653270483017
			vertex 0.3698512315750122 0.24345868825912476 -0.14171770215034485
			vertex 0.42596691846847534 0.2507983446121216 -0.14171770215034485
		endloop
	endfacet
	facet normal 0.11613705342157402 -0.8879372506805621 -0.44506137068543616
		outer loop
			vertex 0.33831867575645447 0.22923347353935242 -0.1215653270483017
			vertex 0.42596691846847534 0.2507983446121216 -0.14171770215034485
			vertex 0.3396574556827545 0.22911377251148224 -0.12097716331481934
		endloop
	endfacet
	facet normal 0.5424625565617498 -0.7873110857234484 0.2930454384996552
		outer loop
			vertex 0.35265305638313293 0.2316090315580368 -0.14171770215034485
			vertex 0.3698512315750122 0.24345868825912476 -0.14171770215034485
			vertex 0.33831867575645447 0.22923347353935242 -0.1215653270483017
		endloop
	endfacet
	facet normal 0.5424542888826117 -0.7873193328388812 0.29303858553268913
		outer loop
			vertex 0.35265305638313293 0.2316090315580368 -0.14171770215034485
			vertex 0.33831867575645447 0.22923347353935242 -0.1215653270483017
			vertex 0.33851462602615356 0.22871188819408417 -0.12332942336797714
		endloop
	endfacet
	facet normal 0.586570915144398 -0.6782209991040905 0.4426633459875718
		outer loop
			vertex 0.4950914680957794 0.3067464232444763 -0.14171770215034485
			vertex 0.4689858555793762 0.3067464232444763 -0.10712528973817825
			vertex 0.4362717568874359 0.25587520003318787 -0.14171770215034485
		endloop
	endfacet
	facet normal 0.727490384552385 -0.6657160208394047 0.16607203250870514
		outer loop
			vertex 0.43386396765708923 0.2528653144836426 -0.14171770215034485
			vertex 0.435139000415802 0.2542586624622345 -0.14171770215034485
			vertex 0.46527084708213806 0.3067464232444763 -0.06331007182598114
		endloop
	endfacet
	facet normal 0.7274903697336668 -0.66571603339931 0.16607204707554402
		outer loop
			vertex 0.43386396765708923 0.2528653144836426 -0.14171770215034485
			vertex 0.46527084708213806 0.3067464232444763 -0.06331007182598114
			vertex 0.41292786598205566 0.25108009576797485 -0.0571618489921093
		endloop
	endfacet
	facet normal 0.8169839176283455 -0.572485190906231 0.06926748537154599
		outer loop
			vertex 0.435139000415802 0.2542586624622345 -0.14171770215034485
			vertex 0.4362717568874359 0.25587520003318787 -0.14171770215034485
			vertex 0.4689858555793762 0.3067464232444763 -0.10712528973817825
		endloop
	endfacet
	facet normal 0.8169828165756703 -0.5724864083356749 0.06927040992374661
		outer loop
			vertex 0.435139000415802 0.2542586624622345 -0.14171770215034485
			vertex 0.4689858555793762 0.3067464232444763 -0.10712528973817825
			vertex 0.46527084708213806 0.3067464232444763 -0.06331007182598114
		endloop
	endfacet
	facet normal -1 0 0
		outer loop
			vertex 0.29999998211860657 0.23286010324954987 -0.04723922908306122
			vertex 0.29999998211860657 0.2355555295944214 -0.04723922908306122
			vertex 0.29999998211860657 0.23466750979423523 -0.06081916391849518
		endloop
	endfacet
	facet normal -1 0 0
		outer loop
			vertex 0.29999998211860657 0.23286010324954987 -0.04723922908306122
			vertex 0.29999998211860657 0.23466750979423523 -0.06081916391849518
			vertex 0.29999998211860657 0.22697670757770538 -0.07155819982290268
		endloop
	endfacet
	facet normal -1 0 0
		outer loop
			vertex 0.29999998211860657 0.20913086831569672 -0.12466219812631607
			vertex 0.29999998211860657 0.20739562809467316 -0.12813441455364227
			vertex 0.29999998211860657 0.209068164229393 -0.12019778788089752
		endloop
	endfacet
	facet normal -1 0 0
		outer loop
			vertex 0.29999998211860657 0.20748157799243927 -0.14171770215034485
			vertex 0.29999998211860657 0.2045331448316574 -0.14171770215034485
			vertex 0.29999998211860657 0.2056073397397995 -0.13662037253379822
		endloop
	endfacet
	facet normal -1 0 0
		outer loop
			vertex 0.29999998211860657 0.2293774038553238 -0.14171770215034485
			vertex 0.29999998211860657 0.20748157799243927 -0.14171770215034485
			vertex 0.29999998211860657 0.2056073397397995 -0.13662037253379822
		endloop
	endfacet
	facet normal -1 0 0
		outer loop
			vertex 0.29999998211860657 0.2293774038553238 -0.14171770215034485
			vertex 0.29999998211860657 0.2056073397397995 -0.13662037253379822
			vertex 0.29999998211860657 0.20739562809467316 -0.12813441455364227
		endloop
	endfacet
	facet normal -1 0 0
		outer loop
			vertex 0.29999998211860657 0.2293774038553238 -0.14171770215034485
			vertex 0.29999998211860657 0.20739562809467316 -0.12813441455364227
			vertex 0.29999998211860657 0.21744003891944885 -0.10803541541099548
		endloop
	endfacet
	facet normal -1 0 0
		outer loop
			vertex 0.29999998211860657 0.2293774038553238 -0.14171770215034485
			vertex 0.29999998211860657 0.21744003891944885 -0.10803541541099548
			vertex 0.29999998211860657 0.22994810342788696 -0.13299033045768738
		endloop
	endfacet
	facet normal -1 0 0
		outer loop
			vertex 0.29999998211860657 0.21881990134716034 -0.10527431219816208
			vertex 0.29999998211860657 0.21792016923427582 -0.10899331420660019
			vertex 0.29999998211860657 0.21744003891944885 -0.10803541541099548
		endloop
	endfacet
	facet normal -1 0 0
		outer loop
			vertex 0.29999998211860657 0.224784716963768 -0.09333861619234085
			vertex 0.29999998211860657 0.22346048057079315 -0.12004683166742325
			vertex 0.29999998211860657 0.21792016923427582 -0.10899331420660019
		endloop
	endfacet
	facet normal -1 0 0
		outer loop
			vertex 0.29999998211860657 0.224784716963768 -0.09333861619234085
			vertex 0.29999998211860657 0.21792016923427582 -0.10899331420660019
			vertex 0.29999998211860657 0.21881990134716034 -0.10527431219816208
		endloop
	endfacet
	facet normal -1 0 0
		outer loop
			vertex 0.29999998211860657 0.22519676387310028 -0.08502800762653351
			vertex 0.29999998211860657 0.2333298921585083 -0.08127453923225403
			vertex 0.29999998211860657 0.22994810342788696 -0.13299033045768738
		endloop
	endfacet
	facet normal -1 0 0
		outer loop
			vertex 0.29999998211860657 0.22519676387310028 -0.08502800762653351
			vertex 0.29999998211860657 0.22994810342788696 -0.13299033045768738
			vertex 0.29999998211860657 0.22346048057079315 -0.12004683166742325
		endloop
	endfacet
	facet normal -1 0 0
		outer loop
			vertex 0.29999998211860657 0.23466750979423523 -0.06081916391849518
			vertex 0.29999998211860657 0.2333298921585083 -0.08127453923225403
			vertex 0.29999998211860657 0.22519676387310028 -0.08502800762653351
		endloop
	endfacet
	facet normal -1 0 0
		outer loop
			vertex 0.29999998211860657 0.23466750979423523 -0.06081916391849518
			vertex 0.29999998211860657 0.22519676387310028 -0.08502800762653351
			vertex 0.29999998211860657 0.2255779504776001 -0.07733996212482452
		endloop
	endfacet
	facet normal -1 0 0
		outer loop
			vertex 0.29999998211860657 0.23466750979423523 -0.06081916391849518
			vertex 0.29999998211860657 0.2255779504776001 -0.07733996212482452
			vertex 0.29999998211860657 0.22697670757770538 -0.07155819982290268
		endloop
	endfacet
	facet normal -1 0 0
		outer loop
			vertex 0.29999998211860657 0.2355555295944214 -0.04723922908306122
			vertex 0.29999998211860657 0.23744390904903412 -0.04723922908306122
			vertex 0.29999998211860657 0.23653697967529297 -0.05820872634649277
		endloop
	endfacet
	facet normal -1 0 0
		outer loop
			vertex 0.29999998211860657 0.2355555295944214 -0.04723922908306122
			vertex 0.29999998211860657 0.23653697967529297 -0.05820872634649277
			vertex 0.29999998211860657 0.23466750979423523 -0.06081916391849518
		endloop
	endfacet
	facet normal -1 0 0
		outer loop
			vertex 0.29999998211860657 0.22963279485702515 -0.14171770215034485
			vertex 0.29999998211860657 0.2293774038553238 -0.14171770215034485
			vertex 0.29999998211860657 0.22994810342788696 -0.13299033045768738
		endloop
	endfacet
	facet normal -1 0 0
		outer loop
			vertex 0.29999998211860657 0.22963279485702515 -0.14171770215034485
			vertex 0.29999998211860657 0.22994810342788696 -0.13299033045768738
			vertex 0.29999998211860657 0.2302968055009842 -0.13368605077266693
		endloop
	endfacet
	facet normal -1 0 0
		outer loop
			vertex 0.29999998211860657 0.22994810342788696 -0.13299033045768738
			vertex 0.29999998211860657 0.2333298921585083 -0.08127453923225403
			vertex 0.29999998211860657 0.23468156158924103 -0.08065073937177658
		endloop
	endfacet
	facet normal -1 0 0
		outer loop
			vertex 0.29999998211860657 0.22994810342788696 -0.13299033045768738
			vertex 0.29999998211860657 0.23468156158924103 -0.08065073937177658
			vertex 0.29999998211860657 0.2302968055009842 -0.13368605077266693
		endloop
	endfacet
	facet normal -1 0 0
		outer loop
			vertex 0.29999998211860657 0.23653697967529297 -0.05820872634649277
			vertex 0.29999998211860657 0.23468156158924103 -0.08065073937177658
			vertex 0.29999998211860657 0.2333298921585083 -0.08127453923225403
		endloop
	endfacet
	facet normal -1 0 0
		outer loop
			vertex 0.29999998211860657 0.23653697967529297 -0.05820872634649277
			vertex 0.29999998211860657 0.2333298921585083 -0.08127453923225403
			vertex 0.29999998211860657 0.23466750979423523 -0.06081916391849518
		endloop
	endfacet
	facet normal -1 0 0
		outer loop
			vertex 0.29999998211860657 0.23175585269927979 -0.14171770215034485
			vertex 0.29999998211860657 0.22963279485702515 -0.14171770215034485
			vertex 0.29999998211860657 0.2302968055009842 -0.13368605077266693
		endloop
	endfacet
	facet normal -1 0 0
		outer loop
			vertex 0.29999998211860657 0.23175585269927979 -0.14171770215034485
			vertex 0.29999998211860657 0.2302968055009842 -0.13368605077266693
			vertex 0.29999998211860657 0.23265968263149261 -0.13840021193027496
		endloop
	endfacet
	facet normal -1 0 0
		outer loop
			vertex 0.29999998211860657 0.2302968055009842 -0.13368605077266693
			vertex 0.29999998211860657 0.23468156158924103 -0.08065073937177658
			vertex 0.29999998211860657 0.25036531686782837 -0.07341264933347702
		endloop
	endfacet
	facet normal -1 0 0
		outer loop
			vertex 0.29999998211860657 0.2302968055009842 -0.13368605077266693
			vertex 0.29999998211860657 0.25036531686782837 -0.07341264933347702
			vertex 0.29999998211860657 0.23265968263149261 -0.13840021193027496
		endloop
	endfacet
	facet normal -1 0 0
		outer loop
			vertex 0.29999998211860657 0.23744390904903412 -0.04723922908306122
			vertex 0.29999998211860657 0.2574961483478546 -0.04723922908306122
			vertex 0.29999998211860657 0.25036531686782837 -0.07341264933347702
		endloop
	endfacet
	facet normal -1 0 0
		outer loop
			vertex 0.29999998211860657 0.23744390904903412 -0.04723922908306122
			vertex 0.29999998211860657 0.25036531686782837 -0.07341264933347702
			vertex 0.29999998211860657 0.23468156158924103 -0.08065073937177658
		endloop
	endfacet
	facet normal -1 0 0
		outer loop
			vertex 0.29999998211860657 0.23432248830795288 -0.14171770215034485
			vertex 0.29999998211860657 0.23175585269927979 -0.14171770215034485
			vertex 0.29999998211860657 0.23265968263149261 -0.13840021193027496
		endloop
	endfacet
	facet normal -1 0 0
		outer loop
			vertex 0.29999998211860657 0.24348756670951843 -0.14171770215034485
			vertex 0.29999998211860657 0.23432248830795288 -0.14171770215034485
			vertex 0.29999998211860657 0.23265968263149261 -0.13840021193027496
		endloop
	endfacet
	facet normal -1 0 0
		outer loop
			vertex 0.29999998211860657 0.24348756670951843 -0.14171770215034485
			vertex 0.29999998211860657 0.23265968263149261 -0.13840021193027496
			vertex 0.29999998211860657 0.2395784556865692 -0.11300523579120636
		endloop
	endfacet
	facet normal -1 0 0
		outer loop
			vertex 0.29999998211860657 0.27571767568588257 -0.14171770215034485
			vertex 0.29999998211860657 0.24348756670951843 -0.14171770215034485
			vertex 0.29999998211860657 0.2395784556865692 -0.11300523579120636
		endloop
	endfacet
	facet normal -1 0 0
		outer loop
			vertex 0.29999998211860657 0.27571767568588257 -0.14171770215034485
			vertex 0.29999998211860657 0.2395784556865692 -0.11300523579120636
			vertex 0.29999998211860657 0.25036531686782837 -0.07341264933347702
		endloop
	endfacet
	facet normal -1 0 0
		outer loop
			vertex 0.29999998211860657 0.27571767568588257 -0.14171770215034485
			vertex 0.29999998211860657 0.25036531686782837 -0.07341264933347702
			vertex 0.29999998211860657 0.27432623505592346 -0.06235461309552193
		endloop
	endfacet
	facet normal -1 0 0
		outer loop
			vertex 0.29999998211860657 0.2574961483478546 -0.04723922908306122
			vertex 0.29999998211860657 0.2740612328052521 -0.04723922908306122
			vertex 0.29999998211860657 0.27432623505592346 -0.06235461309552193
		endloop
	endfacet
	facet normal -1 0 0
		outer loop
			vertex 0.29999998211860657 0.2574961483478546 -0.04723922908306122
			vertex 0.29999998211860657 0.27432623505592346 -0.06235461309552193
			vertex 0.29999998211860657 0.25036531686782837 -0.07341264933347702
		endloop
	endfacet
	facet normal -1 0 0
		outer loop
			vertex 0.29999998211860657 0.3067464232444763 -0.14171770215034485
			vertex 0.29999998211860657 0.27571767568588257 -0.14171770215034485
			vertex 0.29999998211860657 0.27432623505592346 -0.06235461309552193
		endloop
	endfacet
	facet normal -1 0 0
		outer loop
			vertex 0.29999998211860657 0.3067464232444763 -0.14171770215034485
			vertex 0.29999998211860657 0.27432623505592346 -0.06235461309552193
			vertex 0.29999998211860657 0.3067464232444763 -0.04739261046051979
		endloop
	endfacet
	facet normal -1 0 0
		outer loop
			vertex 0.29999998211860657 0.2740612328052521 -0.04723922908306122
			vertex 0.29999998211860657 0.3067464232444763 -0.04723922908306122
			vertex 0.29999998211860657 0.3067464232444763 -0.04739261046051979
		endloop
	endfacet
	facet normal -1 0 0
		outer loop
			vertex 0.29999998211860657 0.2740612328052521 -0.04723922908306122
			vertex 0.29999998211860657 0.3067464232444763 -0.04739261046051979
			vertex 0.29999998211860657 0.27432623505592346 -0.06235461309552193
		endloop
	endfacet
	facet normal 0 0 1
		outer loop
			vertex 0.32886654138565063 0.23737336695194244 -0.04723922908306122
			vertex 0.33044442534446716 0.23821888864040375 -0.04723922908306122
			vertex 0.31581559777259827 0.23533286154270172 -0.04723922908306122
		endloop
	endfacet
	facet normal 0 0 1
		outer loop
			vertex 0.29999998211860657 0.2355555295944214 -0.04723922908306122
			vertex 0.29999998211860657 0.23286010324954987 -0.04723922908306122
			vertex 0.3100530207157135 0.2344318926334381 -0.04723922908306122
		endloop
	endfacet
	facet normal 0 0 1
		outer loop
			vertex 0.29999998211860657 0.23744390904903412 -0.04723922908306122
			vertex 0.29999998211860657 0.2355555295944214 -0.04723922908306122
			vertex 0.3100530207157135 0.2344318926334381 -0.04723922908306122
		endloop
	endfacet
	facet normal 0 0 1
		outer loop
			vertex 0.29999998211860657 0.23744390904903412 -0.04723922908306122
			vertex 0.3100530207157135 0.2344318926334381 -0.04723922908306122
			vertex 0.31581559777259827 0.23533286154270172 -0.04723922908306122
		endloop
	endfacet
	facet normal 0 0 1
		outer loop
			vertex 0.29999998211860657 0.23744390904903412 -0.04723922908306122
			vertex 0.31581559777259827 0.23533286154270172 -0.04723922908306122
			vertex 0.31791454553604126 0.23574696481227875 -0.04723922908306122
		endloop
	endfacet
	facet normal 0 0 1
		outer loop
			vertex 0.29999998211860657 0.2574961483478546 -0.04723922908306122
			vertex 0.29999998211860657 0.23744390904903412 -0.04723922908306122
			vertex 0.31791454553604126 0.23574696481227875 -0.04723922908306122
		endloop
	endfacet
	facet normal 0 0 1
		outer loop
			vertex 0.29999998211860657 0.2574961483478546 -0.04723922908306122
			vertex 0.31791454553604126 0.23574696481227875 -0.04723922908306122
			vertex 0.33044442534446716 0.23821888864040375 -0.04723922908306122
		endloop
	endfacet
	facet normal 0 0 1
		outer loop
			vertex 0.29999998211860657 0.2574961483478546 -0.04723922908306122
			vertex 0.33044442534446716 0.23821888864040375 -0.04723922908306122
			vertex 0.3389734923839569 0.24278922379016876 -0.04723922908306122
		endloop
	endfacet
	facet normal 0 0 1
		outer loop
			vertex 0.29999998211860657 0.2574961483478546 -0.04723922908306122
			vertex 0.3389734923839569 0.24278922379016876 -0.04723922908306122
			vertex 0.33917930722236633 0.24930338561534882 -0.04723922908306122
		endloop
	endfacet
	facet normal 0 0 1
		outer loop
			vertex 0.35383114218711853 0.2462395429611206 -0.04723922908306122
			vertex 0.3622142970561981 0.24448654055595398 -0.04723922908306122
			vertex 0.3966369926929474 0.25127753615379333 -0.04723922908306122
		endloop
	endfacet
	facet normal 0 0 1
		outer loop
			vertex 0.35383114218711853 0.2462395429611206 -0.04723922908306122
			vertex 0.3966369926929474 0.25127753615379333 -0.04723922908306122
			vertex 0.4186829924583435 0.2664105296134949 -0.04723922908306122
		endloop
	endfacet
	facet normal 0 0 1
		outer loop
			vertex 0.35383114218711853 0.2462395429611206 -0.04723922908306122
			vertex 0.4186829924583435 0.2664105296134949 -0.04723922908306122
			vertex 0.45177677273750305 0.30498337745666504 -0.04723922908306122
		endloop
	endfacet
	facet normal 0 0 1
		outer loop
			vertex 0.35383114218711853 0.2462395429611206 -0.04723922908306122
			vertex 0.45177677273750305 0.30498337745666504 -0.04723922908306122
			vertex 0.44709041714668274 0.306074857711792 -0.04723922908306122
		endloop
	endfacet
	facet normal 0 0 1
		outer loop
			vertex 0.35383114218711853 0.2462395429611206 -0.04723922908306122
			vertex 0.44709041714668274 0.306074857711792 -0.04723922908306122
			vertex 0.41491976380348206 0.2990730404853821 -0.04723922908306122
		endloop
	endfacet
	facet normal 0 0 1
		outer loop
			vertex 0.44709041714668274 0.306074857711792 -0.04723922908306122
			vertex 0.4442071318626404 0.3067464232444763 -0.04723922908306122
			vertex 0.4237920641899109 0.3067464232444763 -0.04723922908306122
		endloop
	endfacet
	facet normal 0 0 1
		outer loop
			vertex 0.44709041714668274 0.306074857711792 -0.04723922908306122
			vertex 0.4237920641899109 0.3067464232444763 -0.04723922908306122
			vertex 0.41491976380348206 0.2990730404853821 -0.04723922908306122
		endloop
	endfacet
	facet normal 0 0 1
		outer loop
			vertex 0.413012832403183 0.2974238097667694 -0.04723922908306122
			vertex 0.4237920641899109 0.3067464232444763 -0.04723922908306122
			vertex 0.41902199387550354 0.3067464232444763 -0.04723922908306122
		endloop
	endfacet
	facet normal 0 0 1
		outer loop
			vertex 0.29999998211860657 0.2740612328052521 -0.04723922908306122
			vertex 0.29999998211860657 0.2574961483478546 -0.04723922908306122
			vertex 0.35383114218711853 0.2462395429611206 -0.04723922908306122
		endloop
	endfacet
	facet normal 0 0 1
		outer loop
			vertex 0.29999998211860657 0.2740612328052521 -0.04723922908306122
			vertex 0.35383114218711853 0.2462395429611206 -0.04723922908306122
			vertex 0.413012832403183 0.2974238097667694 -0.04723922908306122
		endloop
	endfacet
	facet normal 0 0 1
		outer loop
			vertex 0.29999998211860657 0.2740612328052521 -0.04723922908306122
			vertex 0.413012832403183 0.2974238097667694 -0.04723922908306122
			vertex 0.4139381945133209 0.2988594174385071 -0.04723922908306122
		endloop
	endfacet
	facet normal 0 0 1
		outer loop
			vertex 0.29999998211860657 0.3067464232444763 -0.04723922908306122
			vertex 0.29999998211860657 0.2740612328052521 -0.04723922908306122
			vertex 0.4139381945133209 0.2988594174385071 -0.04723922908306122
		endloop
	endfacet
	facet normal 0 0 1
		outer loop
			vertex 0.29999998211860657 0.3067464232444763 -0.04723922908306122
			vertex 0.4139381945133209 0.2988594174385071 -0.04723922908306122
			vertex 0.41902199387550354 0.3067464232444763 -0.04723922908306122
		endloop
	endfacet
	facet normal 0 0 -1
		outer loop
			vertex 0.4950914680957794 0.3067464232444763 -0.14171770215034485
			vertex 0.4490147531032562 0.3067464232444763 -0.14171770215034485
			vertex 0.4587540626525879 0.30687204003334045 -0.14171770215034485
		endloop
	endfacet
	facet normal 0 0 -1
		outer loop
			vertex 0.4950914680957794 0.3067464232444763 -0.14171770215034485
			vertex 0.4587540626525879 0.30687204003334045 -0.14171770215034485
			vertex 0.47410234808921814 0.30685222148895264 -0.14171770215034485
		endloop
	endfacet
	facet normal 0 0 -1
		outer loop
			vertex 0.4950914680957794 0.3067464232444763 -0.14171770215034485
			vertex 0.47410234808921814 0.30685222148895264 -0.14171770215034485
			vertex 0.4951217770576477 0.3067726492881775 -0.14171770215034485
		endloop
	endfacet
	facet normal 0 0 -1
		outer loop
			vertex 0.29999998211860657 0.2045331448316574 -0.14171770215034485
			vertex 0.29999998211860657 0.20748157799243927 -0.14171770215034485
			vertex 0.33657360076904297 0.22410795092582703 -0.14171770215034485
		endloop
	endfacet
	facet normal 0 0 -1
		outer loop
			vertex 0.29999998211860657 0.2045331448316574 -0.14171770215034485
			vertex 0.33657360076904297 0.22410795092582703 -0.14171770215034485
			vertex 0.33924034237861633 0.22355031967163086 -0.14171770215034485
		endloop
	endfacet
	facet normal 0 0 -1
		outer loop
			vertex 0.29999998211860657 0.20748157799243927 -0.14171770215034485
			vertex 0.29999998211860657 0.2293774038553238 -0.14171770215034485
			vertex 0.32443463802337646 0.2266463339328766 -0.14171770215034485
		endloop
	endfacet
	facet normal 0 0 -1
		outer loop
			vertex 0.29999998211860657 0.20748157799243927 -0.14171770215034485
			vertex 0.32443463802337646 0.2266463339328766 -0.14171770215034485
			vertex 0.33657360076904297 0.22410795092582703 -0.14171770215034485
		endloop
	endfacet
	facet normal 0 0 -1
		outer loop
			vertex 0.29999998211860657 0.2293774038553238 -0.14171770215034485
			vertex 0.29999998211860657 0.22963279485702515 -0.14171770215034485
			vertex 0.31856054067611694 0.22787465155124664 -0.14171770215034485
		endloop
	endfacet
	facet normal 0 0 -1
		outer loop
			vertex 0.29999998211860657 0.2293774038553238 -0.14171770215034485
			vertex 0.31856054067611694 0.22787465155124664 -0.14171770215034485
			vertex 0.32443463802337646 0.2266463339328766 -0.14171770215034485
		endloop
	endfacet
	facet normal 0 0 -1
		outer loop
			vertex 0.29999998211860657 0.22963279485702515 -0.14171770215034485
			vertex 0.29999998211860657 0.23175585269927979 -0.14171770215034485
			vertex 0.31856054067611694 0.22787465155124664 -0.14171770215034485
		endloop
	endfacet
	facet normal 0 0 -1
		outer loop
			vertex 0.33924034237861633 0.22355031967163086 -0.14171770215034485
			vertex 0.3295811414718628 0.22557014226913452 -0.14171770215034485
			vertex 0.35265305638313293 0.2316090315580368 -0.14171770215034485
		endloop
	endfacet
	facet normal 0 0 -1
		outer loop
			vertex 0.33924034237861633 0.22355031967163086 -0.14171770215034485
			vertex 0.35265305638313293 0.2316090315580368 -0.14171770215034485
			vertex 0.34502747654914856 0.2263549566268921 -0.14171770215034485
		endloop
	endfacet
	facet normal 0 0 -1
		outer loop
			vertex 0.4275721311569214 0.2510083019733429 -0.14171770215034485
			vertex 0.42596691846847534 0.2507983446121216 -0.14171770215034485
			vertex 0.4325519800186157 0.25252190232276917 -0.14171770215034485
		endloop
	endfacet
	facet normal 0 0 -1
		outer loop
			vertex 0.3652504086494446 0.24028870463371277 -0.14171770215034485
			vertex 0.3630256652832031 0.24256594479084015 -0.14171770215034485
			vertex 0.3698512315750122 0.24345868825912476 -0.14171770215034485
		endloop
	endfacet
	facet normal 0 0 -1
		outer loop
			vertex 0.29999998211860657 0.23175585269927979 -0.14171770215034485
			vertex 0.29999998211860657 0.23432248830795288 -0.14171770215034485
			vertex 0.3630256652832031 0.24256594479084015 -0.14171770215034485
		endloop
	endfacet
	facet normal 0 0 -1
		outer loop
			vertex 0.29999998211860657 0.23175585269927979 -0.14171770215034485
			vertex 0.3630256652832031 0.24256594479084015 -0.14171770215034485
			vertex 0.3652504086494446 0.24028870463371277 -0.14171770215034485
		endloop
	endfacet
	facet normal 0 0 -1
		outer loop
			vertex 0.29999998211860657 0.23175585269927979 -0.14171770215034485
			vertex 0.3652504086494446 0.24028870463371277 -0.14171770215034485
			vertex 0.35265305638313293 0.2316090315580368 -0.14171770215034485
		endloop
	endfacet
	facet normal 0 0 -1
		outer loop
			vertex 0.29999998211860657 0.23175585269927979 -0.14171770215034485
			vertex 0.35265305638313293 0.2316090315580368 -0.14171770215034485
			vertex 0.3295811414718628 0.22557014226913452 -0.14171770215034485
		endloop
	endfacet
	facet normal 0 0 -1
		outer loop
			vertex 0.43248993158340454 0.25250568985939026 -0.14171770215034485
			vertex 0.42596691846847534 0.2507983446121216 -0.14171770215034485
			vertex 0.3630256652832031 0.24256594479084015 -0.14171770215034485
		endloop
	endfacet
	facet normal 0 0 -1
		outer loop
			vertex 0.43248993158340454 0.25250568985939026 -0.14171770215034485
			vertex 0.3630256652832031 0.24256594479084015 -0.14171770215034485
			vertex 0.3582517206668854 0.24745255708694458 -0.14171770215034485
		endloop
	endfacet
	facet normal 0 0 -1
		outer loop
			vertex 0.29999998211860657 0.23432248830795288 -0.14171770215034485
			vertex 0.29999998211860657 0.24348756670951843 -0.14171770215034485
			vertex 0.3582517206668854 0.24745255708694458 -0.14171770215034485
		endloop
	endfacet
	facet normal 0 0 -1
		outer loop
			vertex 0.29999998211860657 0.23432248830795288 -0.14171770215034485
			vertex 0.3582517206668854 0.24745255708694458 -0.14171770215034485
			vertex 0.3630256652832031 0.24256594479084015 -0.14171770215034485
		endloop
	endfacet
	facet normal 0 0 -1
		outer loop
			vertex 0.43386396765708923 0.2528653144836426 -0.14171770215034485
			vertex 0.43248993158340454 0.25250568985939026 -0.14171770215034485
			vertex 0.4323660135269165 0.25249725580215454 -0.14171770215034485
		endloop
	endfacet
	facet normal 0 0 -1
		outer loop
			vertex 0.43386396765708923 0.2528653144836426 -0.14171770215034485
			vertex 0.4323660135269165 0.25249725580215454 -0.14171770215034485
			vertex 0.4362717568874359 0.25587520003318787 -0.14171770215034485
		endloop
	endfacet
	facet normal 0 0 -1
		outer loop
			vertex 0.43386396765708923 0.2528653144836426 -0.14171770215034485
			vertex 0.4362717568874359 0.25587520003318787 -0.14171770215034485
			vertex 0.435139000415802 0.2542586624622345 -0.14171770215034485
		endloop
	endfacet
	facet normal 0 0 -1
		outer loop
			vertex 0.4323660135269165 0.25249725580215454 -0.14171770215034485
			vertex 0.3927498459815979 0.24980072677135468 -0.14171770215034485
			vertex 0.4107193350791931 0.27845317125320435 -0.14171770215034485
		endloop
	endfacet
	facet normal 0 0 -1
		outer loop
			vertex 0.4323660135269165 0.25249725580215454 -0.14171770215034485
			vertex 0.4107193350791931 0.27845317125320435 -0.14171770215034485
			vertex 0.4569586217403412 0.2737666070461273 -0.14171770215034485
		endloop
	endfacet
	facet normal 0 0 -1
		outer loop
			vertex 0.4107193350791931 0.27845317125320435 -0.14171770215034485
			vertex 0.42846351861953735 0.3067464232444763 -0.14171770215034485
			vertex 0.4950914680957794 0.3067464232444763 -0.14171770215034485
		endloop
	endfacet
	facet normal 0 0 -1
		outer loop
			vertex 0.4107193350791931 0.27845317125320435 -0.14171770215034485
			vertex 0.4950914680957794 0.3067464232444763 -0.14171770215034485
			vertex 0.4569586217403412 0.2737666070461273 -0.14171770215034485
		endloop
	endfacet
	facet normal 0 0 -1
		outer loop
			vertex 0.3927498459815979 0.24980072677135468 -0.14171770215034485
			vertex 0.38474321365356445 0.24925574660301208 -0.14171770215034485
			vertex 0.4218006432056427 0.3067464232444763 -0.14171770215034485
		endloop
	endfacet
	facet normal 0 0 -1
		outer loop
			vertex 0.3927498459815979 0.24980072677135468 -0.14171770215034485
			vertex 0.4218006432056427 0.3067464232444763 -0.14171770215034485
			vertex 0.42846351861953735 0.3067464232444763 -0.14171770215034485
		endloop
	endfacet
	facet normal 0 0 -1
		outer loop
			vertex 0.38474321365356445 0.24925574660301208 -0.14171770215034485
			vertex 0.3582517206668854 0.24745255708694458 -0.14171770215034485
			vertex 0.32526588439941406 0.28121671080589294 -0.14171770215034485
		endloop
	endfacet
	facet normal 0 0 -1
		outer loop
			vertex 0.38474321365356445 0.24925574660301208 -0.14171770215034485
			vertex 0.32526588439941406 0.28121671080589294 -0.14171770215034485
			vertex 0.4184122085571289 0.3014896512031555 -0.14171770215034485
		endloop
	endfacet
	facet normal 0 0 -1
		outer loop
			vertex 0.29999998211860657 0.24348756670951843 -0.14171770215034485
			vertex 0.29999998211860657 0.27571767568588257 -0.14171770215034485
			vertex 0.32526588439941406 0.28121671080589294 -0.14171770215034485
		endloop
	endfacet
	facet normal 0 0 -1
		outer loop
			vertex 0.29999998211860657 0.24348756670951843 -0.14171770215034485
			vertex 0.32526588439941406 0.28121671080589294 -0.14171770215034485
			vertex 0.3582517206668854 0.24745255708694458 -0.14171770215034485
		endloop
	endfacet
	facet normal 0 0 -1
		outer loop
			vertex 0.32526588439941406 0.28121671080589294 -0.14171770215034485
			vertex 0.3003246784210205 0.3067464232444763 -0.14171770215034485
			vertex 0.4218006432056427 0.3067464232444763 -0.14171770215034485
		endloop
	endfacet
	facet normal 0 0 -1
		outer loop
			vertex 0.32526588439941406 0.28121671080589294 -0.14171770215034485
			vertex 0.4218006432056427 0.3067464232444763 -0.14171770215034485
			vertex 0.4184122085571289 0.3014896512031555 -0.14171770215034485
		endloop
	endfacet
	facet normal 0 0 -1
		outer loop
			vertex 0.29999998211860657 0.27571767568588257 -0.14171770215034485
			vertex 0.29999998211860657 0.3067464232444763 -0.14171770215034485
			vertex 0.3003246784210205 0.3067464232444763 -0.14171770215034485
		endloop
	endfacet
	facet normal 0 0 -1
		outer loop
			vertex 0.29999998211860657 0.27571767568588257 -0.14171770215034485
			vertex 0.3003246784210205 0.3067464232444763 -0.14171770215034485
			vertex 0.32526588439941406 0.28121671080589294 -0.14171770215034485
		endloop
	endfacet
endsolid exported
