solid exported
	facet normal -0.525286111561856 -0.713116735879925 -0.46426180330518985
		outer loop
			vertex -0.002960416954010725 0.10206115990877151 0.020324287936091423
			vertex 0.0077545312233269215 0.10202724486589432 0.008253021165728569
			vertex 0.010548975318670273 0.09643835574388504 0.013675926253199577
		endloop
	endfacet
	facet normal -0.016659974211558962 0.99932193859874 -0.03283455945382307
		outer loop
			vertex 0.04257297143340111 0.10112933069467545 -0.03674163296818733
			vertex 0.0077545312233269215 0.10202724486589432 0.008253021165728569
			vertex 0.048604484647512436 0.10122988373041153 -0.03674163296818733
		endloop
	endfacet
	facet normal -0.5074008061714489 -0.7747754968028715 -0.37718344535574166
		outer loop
			vertex 0.0555555485188961 0.09262705594301224 -0.03674163296818733
			vertex 0.0555555485188961 0.08230183273553848 -0.015532510355114937
			vertex 0.0077545312233269215 0.10202724486589432 0.008253021165728569
		endloop
	endfacet
	facet normal -0.5074001443313456 -0.7747763603716014 -0.37718256182101517
		outer loop
			vertex 0.0555555485188961 0.09262705594301224 -0.03674163296818733
			vertex 0.0077545312233269215 0.10202724486589432 0.008253021165728569
			vertex 0.04257297143340111 0.10112933069467545 -0.03674163296818733
		endloop
	endfacet
	facet normal 1 0 0
		outer loop
			vertex 0.0555555485188961 0.0905662253499031 -0.03250842168927193
			vertex 0.0555555485188961 0.09420377761125565 -0.033814121037721634
			vertex 0.0555555485188961 0.08230183273553848 -0.015532510355114937
		endloop
	endfacet
	facet normal 1 0 0
		outer loop
			vertex 0.0555555485188961 0.09262705594301224 -0.03674163296818733
			vertex 0.0555555485188961 0.09610966593027115 -0.03674163296818733
			vertex 0.0555555485188961 0.09420377761125565 -0.033814121037721634
		endloop
	endfacet
	facet normal 1 0 0
		outer loop
			vertex 0.0555555485188961 0.09262705594301224 -0.03674163296818733
			vertex 0.0555555485188961 0.09420377761125565 -0.033814121037721634
			vertex 0.0555555485188961 0.0905662253499031 -0.03250842168927193
		endloop
	endfacet
	facet normal 0 1 0
		outer loop
			vertex 0.009020175784826279 0.10202724486589432 0.014616219326853752
			vertex 0.0077545312233269215 0.10202724486589432 0.008253021165728569
			vertex 0.005163964349776506 0.10202724486589432 0.01645307056605816
		endloop
	endfacet
	facet normal 0 1 0
		outer loop
			vertex 0.0303533636033535 0.10202724486589432 -0.0032125734724104404
			vertex 0.0077545312233269215 0.10202724486589432 0.008253021165728569
			vertex 0.009020175784826279 0.10202724486589432 0.014616219326853752
		endloop
	endfacet
	facet normal 0 1 0
		outer loop
			vertex 0.0303533636033535 0.10202724486589432 -0.0032125734724104404
			vertex 0.009020175784826279 0.10202724486589432 0.014616219326853752
			vertex 0.031093444675207138 0.10202724486589432 0.004102019127458334
		endloop
	endfacet
	facet normal 0 1 0
		outer loop
			vertex 0.0555555485188961 0.10202724486589432 -0.014383422210812569
			vertex 0.0303533636033535 0.10202724486589432 -0.0032125734724104404
			vertex 0.031093444675207138 0.10202724486589432 0.004102019127458334
		endloop
	endfacet
	facet normal 0 1 0
		outer loop
			vertex 0.0555555485188961 0.10202724486589432 -0.014383422210812569
			vertex 0.031093444675207138 0.10202724486589432 0.004102019127458334
			vertex 0.0555555485188961 0.10202724486589432 -0.007550092879682779
		endloop
	endfacet
	facet normal 0.00491417344554008 0.9999867202488512 0.001552490029924155
		outer loop
			vertex 0.005163964349776506 0.10202724486589432 0.01645307056605816
			vertex 0.0077545312233269215 0.10202724486589432 0.008253021165728569
			vertex -0.002960416954010725 0.10206115990877151 0.020324287936091423
		endloop
	endfacet
	facet normal -0.6599679610110608 -0.6635394504688117 -0.35236016816667903
		outer loop
			vertex 0.048254694789648056 0.10202724486589432 -0.03674163296818733
			vertex 0.0303533636033535 0.10202724486589432 -0.0032125734724104404
			vertex 0.048071976751089096 0.10220897942781448 -0.03674163296818733
		endloop
	endfacet
	facet normal 0.003138010407141971 0.9999700245002523 0.007078346674873493
		outer loop
			vertex 0.0555555485188961 0.10218549519777298 -0.03674163296818733
			vertex 0.048071976751089096 0.10220897942781448 -0.03674163296818733
			vertex 0.0303533636033535 0.10202724486589432 -0.0032125734724104404
		endloop
	endfacet
	facet normal 0.0031372024521006485 0.9999700313337765 0.00707773940609669
		outer loop
			vertex 0.0555555485188961 0.10218549519777298 -0.03674163296818733
			vertex 0.0303533636033535 0.10202724486589432 -0.0032125734724104404
			vertex 0.0555555485188961 0.10202724486589432 -0.014383422210812569
		endloop
	endfacet
	facet normal 1 0 0
		outer loop
			vertex 0.0555555485188961 0.10202724486589432 -0.03662233427166939
			vertex 0.0555555485188961 0.10218504816293716 -0.03667895868420601
			vertex 0.0555555485188961 0.10202724486589432 -0.014383422210812569
		endloop
	endfacet
	facet normal 1 0 0
		outer loop
			vertex 0.0555555485188961 0.10202724486589432 -0.03674163296818733
			vertex 0.0555555485188961 0.10218549519777298 -0.03674163296818733
			vertex 0.0555555485188961 0.10218504816293716 -0.03667895868420601
		endloop
	endfacet
	facet normal 1 0 0
		outer loop
			vertex 0.0555555485188961 0.10202724486589432 -0.03674163296818733
			vertex 0.0555555485188961 0.10218504816293716 -0.03667895868420601
			vertex 0.0555555485188961 0.10202724486589432 -0.03662233427166939
		endloop
	endfacet
	facet normal -0.01665766121723911 0.999322046088963 -0.03283246142676792
		outer loop
			vertex 0.048604484647512436 0.10122988373041153 -0.03674163296818733
			vertex 0.0077545312233269215 0.10202724486589432 0.008253021165728569
			vertex 0.0303533636033535 0.10202724486589432 -0.0032125734724104404
		endloop
	endfacet
	facet normal -0.016619648114499914 0.9993233575944463 -0.03281180066245561
		outer loop
			vertex 0.048604484647512436 0.10122988373041153 -0.03674163296818733
			vertex 0.0303533636033535 0.10202724486589432 -0.0032125734724104404
			vertex 0.04904889687895775 0.10123727470636368 -0.03674163296818733
		endloop
	endfacet
	facet normal -0.6599837222572065 -0.6635193048791751 -0.35236858317418013
		outer loop
			vertex 0.04904889687895775 0.10123727470636368 -0.03674163296818733
			vertex 0.0303533636033535 0.10202724486589432 -0.0032125734724104404
			vertex 0.048254694789648056 0.10202724486589432 -0.03674163296818733
		endloop
	endfacet
	facet normal 1 0 0
		outer loop
			vertex 0.0555555485188961 0.10135755687952042 -0.03638194873929024
			vertex 0.0555555485188961 0.10202724486589432 -0.03662233427166939
			vertex 0.0555555485188961 0.10202724486589432 -0.015998976305127144
		endloop
	endfacet
	facet normal 1 0 0
		outer loop
			vertex 0.0555555485188961 0.10134575515985489 -0.03674163296818733
			vertex 0.0555555485188961 0.10202724486589432 -0.03674163296818733
			vertex 0.0555555485188961 0.10202724486589432 -0.03662233427166939
		endloop
	endfacet
	facet normal 1 0 0
		outer loop
			vertex 0.0555555485188961 0.10134575515985489 -0.03674163296818733
			vertex 0.0555555485188961 0.10202724486589432 -0.03662233427166939
			vertex 0.0555555485188961 0.10135755687952042 -0.03638194873929024
		endloop
	endfacet
	facet normal -0.5074008627641212 -0.7747754033487609 -0.3771835611900263
		outer loop
			vertex 0.0555555485188961 0.07884407788515091 -0.008429916575551033
			vertex 0.021196212619543076 0.09311468154191971 0.00847814790904522
			vertex 0.0077545312233269215 0.10202724486589432 0.008253021165728569
		endloop
	endfacet
	facet normal -0.5074008798764196 -0.7747752949149732 -0.37718376090448463
		outer loop
			vertex 0.0555555485188961 0.07884407788515091 -0.008429916575551033
			vertex 0.0077545312233269215 0.10202724486589432 0.008253021165728569
			vertex 0.0555555485188961 0.08230183273553848 -0.015532510355114937
		endloop
	endfacet
	facet normal 0.6509561946497924 0.6706190632675469 0.3557050809718911
		outer loop
			vertex 0.0077545312233269215 0.10202724486589432 0.008253021165728569
			vertex 0.009989913552999496 0.09683186560869217 0.01395714096724987
			vertex 0.010548975318670273 0.09643835574388504 0.013675926253199577
		endloop
	endfacet
	facet normal -0.34267796753072294 -0.757508196305834 -0.5556555975588613
		outer loop
			vertex 0.009989913552999496 0.09683186560869217 0.01395714096724987
			vertex 0.0077545312233269215 0.10202724486589432 0.008253021165728569
			vertex 0.012963678687810898 0.09653393179178238 0.01252935640513897
		endloop
	endfacet
	facet normal -0.34268754281513353 -0.7575103711432174 -0.5556467273455239
		outer loop
			vertex 0.0077545312233269215 0.10202724486589432 0.008253021165728569
			vertex 0.015709754079580307 0.09625879675149918 0.011210842058062553
			vertex 0.012963678687810898 0.09653393179178238 0.01252935640513897
		endloop
	endfacet
	facet normal -0.5451464894809986 -0.8258209020118126 -0.14434383536174922
		outer loop
			vertex 0.0077545312233269215 0.10202724486589432 0.008253021165728569
			vertex 0.021196212619543076 0.09311468154191971 0.00847814790904522
			vertex 0.015709754079580307 0.09625879675149918 0.011210842058062553
		endloop
	endfacet
	facet normal 1 0 0
		outer loop
			vertex 0.0555555485188961 0.09420377761125565 -0.033814121037721634
			vertex 0.0555555485188961 0.10135755687952042 -0.03638194873929024
			vertex 0.0555555485188961 0.10186285525560379 -0.021002696827054024
		endloop
	endfacet
	facet normal 1 0 0
		outer loop
			vertex 0.0555555485188961 0.09420377761125565 -0.033814121037721634
			vertex 0.0555555485188961 0.10186285525560379 -0.021002696827054024
			vertex 0.0555555485188961 0.09226671606302261 -0.007920505478978157
		endloop
	endfacet
	facet normal 1 0 0
		outer loop
			vertex 0.0555555485188961 0.09420377761125565 -0.033814121037721634
			vertex 0.0555555485188961 0.09226671606302261 -0.007920505478978157
			vertex 0.0555555485188961 0.07884407788515091 -0.008429916575551033
		endloop
	endfacet
	facet normal 1 0 0
		outer loop
			vertex 0.0555555485188961 0.09420377761125565 -0.033814121037721634
			vertex 0.0555555485188961 0.07884407788515091 -0.008429916575551033
			vertex 0.0555555485188961 0.08230183273553848 -0.015532510355114937
		endloop
	endfacet
	facet normal 1 0 0
		outer loop
			vertex 0.0555555485188961 0.09610966593027115 -0.03674163296818733
			vertex 0.0555555485188961 0.10134575515985489 -0.03674163296818733
			vertex 0.0555555485188961 0.10135755687952042 -0.03638194873929024
		endloop
	endfacet
	facet normal 1 0 0
		outer loop
			vertex 0.0555555485188961 0.09610966593027115 -0.03674163296818733
			vertex 0.0555555485188961 0.10135755687952042 -0.03638194873929024
			vertex 0.0555555485188961 0.09420377761125565 -0.033814121037721634
		endloop
	endfacet
	facet normal 1 0 0
		outer loop
			vertex 0.0555555485188961 0.10186285525560379 -0.021002696827054024
			vertex 0.0555555485188961 0.10202724486589432 -0.015998976305127144
			vertex 0.0555555485188961 0.10202724486589432 -0.007550092879682779
		endloop
	endfacet
	facet normal 1 0 0
		outer loop
			vertex 0.0555555485188961 0.10186285525560379 -0.021002696827054024
			vertex 0.0555555485188961 0.10202724486589432 -0.007550092879682779
			vertex 0.0555555485188961 0.09226671606302261 -0.007920505478978157
		endloop
	endfacet
	facet normal -0.5252868888717398 -0.7131162775656127 -0.4642616278031306
		outer loop
			vertex -0.01753309741616249 0.10210726410150528 0.036741625517606735
			vertex -0.009420815855264664 0.10208160430192947 0.027602432295680046
			vertex 0.021288450807332993 0.0749594047665596 0.034516867250204086
		endloop
	endfacet
	facet normal -0.5252881998746987 -0.7131185613398557 -0.46425663651150223
		outer loop
			vertex -0.01753309741616249 0.10210726410150528 0.036741625517606735
			vertex 0.021288450807332993 0.0749594047665596 0.034516867250204086
			vertex 0.022434886544942856 0.07266656309366226 0.036741625517606735
		endloop
	endfacet
	facet normal 0.0049162254796307325 0.9999867044070803 0.00155619282235397
		outer loop
			vertex -0.011446896940469742 0.10207734256982803 0.036741625517606735
			vertex -0.009420815855264664 0.10208160430192947 0.027602432295680046
			vertex -0.01753309741616249 0.10210726410150528 0.036741625517606735
		endloop
	endfacet
	facet normal 0.6509763056895288 0.670616043516067 0.35567396813608637
		outer loop
			vertex 0.01846468076109886 0.07713527232408524 0.03558247908949852
			vertex 0.01891898736357689 0.07607949525117874 0.036741625517606735
			vertex 0.022434886544942856 0.07266656309366226 0.036741625517606735
		endloop
	endfacet
	facet normal 0.6509709524547425 0.6706145562504752 0.35568656989707065
		outer loop
			vertex 0.01846468076109886 0.07713527232408524 0.03558247908949852
			vertex 0.022434886544942856 0.07266656309366226 0.036741625517606735
			vertex 0.021288450807332993 0.0749594047665596 0.034516867250204086
		endloop
	endfacet
	facet normal -0.34267366223074647 -0.7575113828903608 -0.5556539084762221
		outer loop
			vertex 0.01891898736357689 0.07607949525117874 0.036741625517606735
			vertex 0.01846468076109886 0.07713527232408524 0.03558247908949852
			vertex 0.020094629377126694 0.07554767280817032 0.036741625517606735
		endloop
	endfacet
	facet normal -0.5073994621483302 -0.7747771948525732 -0.37718176539695447
		outer loop
			vertex 0.0555555485188961 0.07033256441354752 0.00905364565551281
			vertex 0.05275058373808861 0.07219240814447403 0.009006647393107414
			vertex 0.0555555485188961 0.07229042798280716 0.005031955894082785
		endloop
	endfacet
	facet normal -0.34268288499049987 -0.7575105933416858 -0.555649297047801
		outer loop
			vertex 0.042457547038793564 0.0654311254620552 0.036741625517606735
			vertex 0.031228091567754745 0.0705111101269722 0.036741625517606735
			vertex 0.03658184036612511 0.07162729650735855 0.03191814944148064
		endloop
	endfacet
	facet normal -0.34268009831844415 -0.7575085324430224 -0.5556538252297739
		outer loop
			vertex 0.04675420746207237 0.0737481489777565 0.022753356024622917
			vertex 0.0555555485188961 0.06736622005701065 0.02602575533092022
			vertex 0.0555555485188961 0.059505827724933624 0.036741625517606735
		endloop
	endfacet
	facet normal -0.342683095048827 -0.7575085481419338 -0.5556519556877818
		outer loop
			vertex 0.04675420746207237 0.0737481489777565 0.022753356024622917
			vertex 0.0555555485188961 0.059505827724933624 0.036741625517606735
			vertex 0.042457547038793564 0.0654311254620552 0.036741625517606735
		endloop
	endfacet
	facet normal -0.3426801009890461 -0.757509960995117 -0.555651876069283
		outer loop
			vertex 0.04675420746207237 0.0737481489777565 0.022753356024622917
			vertex 0.042457547038793564 0.0654311254620552 0.036741625517606735
			vertex 0.03658184036612511 0.07162729650735855 0.03191814944148064
		endloop
	endfacet
	facet normal -0.5451465923266686 -0.8258223374036067 -0.14433523450586988
		outer loop
			vertex 0.05275058373808861 0.07219240814447403 0.009006647393107414
			vertex 0.0555555485188961 0.07033256441354752 0.00905364565551281
			vertex 0.0555555485188961 0.06736622005701065 0.02602575533092022
		endloop
	endfacet
	facet normal -0.5451462329771976 -0.8258225535550621 -0.14433535502629885
		outer loop
			vertex 0.05275058373808861 0.07219240814447403 0.009006647393107414
			vertex 0.0555555485188961 0.06736622005701065 0.02602575533092022
			vertex 0.04675420746207237 0.0737481489777565 0.022753356024622917
		endloop
	endfacet
	facet normal 1 0 0
		outer loop
			vertex 0.0555555485188961 0.07033256441354752 0.00905364565551281
			vertex 0.0555555485188961 0.07229042798280716 0.005031955894082785
			vertex 0.0555555485188961 0.07558316737413406 0.014823807403445244
		endloop
	endfacet
	facet normal 1 0 0
		outer loop
			vertex 0.0555555485188961 0.07033256441354752 0.00905364565551281
			vertex 0.0555555485188961 0.07558316737413406 0.014823807403445244
			vertex 0.0555555485188961 0.06736622005701065 0.02602575533092022
		endloop
	endfacet
	facet normal 1 0 0
		outer loop
			vertex 0.0555555485188961 0.08179784566164017 0.036741625517606735
			vertex 0.0555555485188961 0.059505827724933624 0.036741625517606735
			vertex 0.0555555485188961 0.07558316737413406 0.014823807403445244
		endloop
	endfacet
	facet normal 1 0 0
		outer loop
			vertex 0.0555555485188961 0.08179784566164017 0.036741625517606735
			vertex 0.0555555485188961 0.07558316737413406 0.014823807403445244
			vertex 0.0555555485188961 0.08246956020593643 0.03530263528227806
		endloop
	endfacet
	facet normal -0.525286499932086 -0.7131149560340952 -0.46426409776073485
		outer loop
			vertex -0.009420815855264664 0.10208160430192947 0.027602432295680046
			vertex -0.002960416954010725 0.10206115990877151 0.020324287936091423
			vertex 0.010548975318670273 0.09643835574388504 0.013675926253199577
		endloop
	endfacet
	facet normal -0.5252861223017045 -0.7131158127443675 -0.46426320910791474
		outer loop
			vertex -0.009420815855264664 0.10208160430192947 0.027602432295680046
			vertex 0.010548975318670273 0.09643835574388504 0.013675926253199577
			vertex 0.021288450807332993 0.0749594047665596 0.034516867250204086
		endloop
	endfacet
	facet normal 0 1 0
		outer loop
			vertex 0.009914543479681015 0.10202724486589432 0.01911252550780773
			vertex 0.009020175784826279 0.10202724486589432 0.014616219326853752
			vertex 0.005163964349776506 0.10202724486589432 0.01645307056605816
		endloop
	endfacet
	facet normal 0 1 0
		outer loop
			vertex 0.009914543479681015 0.10202724486589432 0.01911252550780773
			vertex 0.005163964349776506 0.10202724486589432 0.01645307056605816
			vertex 0.0031135943718254566 0.10202724486589432 0.0229432862251997
		endloop
	endfacet
	facet normal 0 1 0
		outer loop
			vertex 0.009020175784826279 0.10202724486589432 0.014616219326853752
			vertex 0.009914543479681015 0.10202724486589432 0.01911252550780773
			vertex 0.03138833865523338 0.10202724486589432 0.007016924675554037
		endloop
	endfacet
	facet normal 0 1 0
		outer loop
			vertex 0.009020175784826279 0.10202724486589432 0.014616219326853752
			vertex 0.03138833865523338 0.10202724486589432 0.007016924675554037
			vertex 0.031093444675207138 0.10202724486589432 0.004102019127458334
		endloop
	endfacet
	facet normal 0 1 0
		outer loop
			vertex 0.0555555485188961 0.10202724486589432 -0.007550092879682779
			vertex 0.031093444675207138 0.10202724486589432 0.004102019127458334
			vertex 0.03138833865523338 0.10202724486589432 0.007016924675554037
		endloop
	endfacet
	facet normal 0 1 0
		outer loop
			vertex 0.0555555485188961 0.10202724486589432 -0.007550092879682779
			vertex 0.03138833865523338 0.10202724486589432 0.007016924675554037
			vertex 0.0555555485188961 0.10202724486589432 -0.006595777813345194
		endloop
	endfacet
	facet normal 0.004914162953357379 0.9999867203345988 0.0015524680096155642
		outer loop
			vertex 0.0031135943718254566 0.10202724486589432 0.0229432862251997
			vertex 0.005163964349776506 0.10202724486589432 0.01645307056605816
			vertex -0.002960416954010725 0.10206115990877151 0.020324287936091423
		endloop
	endfacet
	facet normal 0.004913981077857235 0.9999867205734144 0.0015528898204856974
		outer loop
			vertex 0.0031135943718254566 0.10202724486589432 0.0229432862251997
			vertex -0.002960416954010725 0.10206115990877151 0.020324287936091423
			vertex -0.009420815855264664 0.10208160430192947 0.027602432295680046
		endloop
	endfacet
	facet normal 0.00491556867340023 0.9999867061286516 0.0015571610664863009
		outer loop
			vertex 0.0031135943718254566 0.10202724486589432 0.0229432862251997
			vertex -0.009420815855264664 0.10208160430192947 0.027602432295680046
			vertex -0.010000202804803848 0.10208038240671158 0.030216095969080925
		endloop
	endfacet
	facet normal -0.507401155377608 -0.7747755242934463 -0.37718291912185503
		outer loop
			vertex 0.0555555485188961 0.07229042798280716 0.005031955894082785
			vertex 0.05275058373808861 0.07219240814447403 0.009006647393107414
			vertex 0.021196212619543076 0.09311468154191971 0.00847814790904522
		endloop
	endfacet
	facet normal -0.5074009887760867 -0.7747750516502495 -0.3771841141000016
		outer loop
			vertex 0.0555555485188961 0.07229042798280716 0.005031955894082785
			vertex 0.021196212619543076 0.09311468154191971 0.00847814790904522
			vertex 0.0555555485188961 0.07884407788515091 -0.008429916575551033
		endloop
	endfacet
	facet normal 0.6509708658848926 0.670612078085879 0.35569140064726357
		outer loop
			vertex 0.009989913552999496 0.09683186560869217 0.01395714096724987
			vertex 0.01846468076109886 0.07713527232408524 0.03558247908949852
			vertex 0.021288450807332993 0.0749594047665596 0.034516867250204086
		endloop
	endfacet
	facet normal 0.6509562774963097 0.6706184124136634 0.35570615642679754
		outer loop
			vertex 0.009989913552999496 0.09683186560869217 0.01395714096724987
			vertex 0.021288450807332993 0.0749594047665596 0.034516867250204086
			vertex 0.010548975318670273 0.09643835574388504 0.013675926253199577
		endloop
	endfacet
	facet normal -0.34266786963056306 -0.757509709549161 -0.5556597619601383
		outer loop
			vertex 0.020094629377126694 0.07554767280817032 0.036741625517606735
			vertex 0.01846468076109886 0.07713527232408524 0.03558247908949852
			vertex 0.009989913552999496 0.09683186560869217 0.01395714096724987
		endloop
	endfacet
	facet normal -0.3426776352001556 -0.7575089733038685 -0.555654743251372
		outer loop
			vertex 0.020094629377126694 0.07554767280817032 0.036741625517606735
			vertex 0.009989913552999496 0.09683186560869217 0.01395714096724987
			vertex 0.012963678687810898 0.09653393179178238 0.01252935640513897
		endloop
	endfacet
	facet normal -0.34268335450514587 -0.7575081469725178 -0.5556523425806491
		outer loop
			vertex 0.020094629377126694 0.07554767280817032 0.036741625517606735
			vertex 0.012963678687810898 0.09653393179178238 0.01252935640513897
			vertex 0.03658184036612511 0.07162729650735855 0.03191814944148064
		endloop
	endfacet
	facet normal -0.3426830442507396 -0.7575104209022452 -0.5556494339127406
		outer loop
			vertex 0.020094629377126694 0.07554767280817032 0.036741625517606735
			vertex 0.03658184036612511 0.07162729650735855 0.03191814944148064
			vertex 0.031228091567754745 0.0705111101269722 0.036741625517606735
		endloop
	endfacet
	facet normal -0.3426870274901349 -0.7575115759385058 -0.5556454026707476
		outer loop
			vertex 0.012963678687810898 0.09653393179178238 0.01252935640513897
			vertex 0.015709754079580307 0.09625879675149918 0.011210842058062553
			vertex 0.04675420746207237 0.0737481489777565 0.022753356024622917
		endloop
	endfacet
	facet normal -0.3426820500134483 -0.7575078506811251 -0.5556535510145172
		outer loop
			vertex 0.012963678687810898 0.09653393179178238 0.01252935640513897
			vertex 0.04675420746207237 0.0737481489777565 0.022753356024622917
			vertex 0.03658184036612511 0.07162729650735855 0.03191814944148064
		endloop
	endfacet
	facet normal -0.545147443004305 -0.8258216445530971 -0.1443359857190375
		outer loop
			vertex 0.021196212619543076 0.09311468154191971 0.00847814790904522
			vertex 0.05275058373808861 0.07219240814447403 0.009006647393107414
			vertex 0.04675420746207237 0.0737481489777565 0.022753356024622917
		endloop
	endfacet
	facet normal -0.5451454638368846 -0.825822200013979 -0.14434028274234403
		outer loop
			vertex 0.021196212619543076 0.09311468154191971 0.00847814790904522
			vertex 0.04675420746207237 0.0737481489777565 0.022753356024622917
			vertex 0.015709754079580307 0.09625879675149918 0.011210842058062553
		endloop
	endfacet
	facet normal 1 0 0
		outer loop
			vertex 0.0555555485188961 0.07884407788515091 -0.008429916575551033
			vertex 0.0555555485188961 0.09226671606302261 -0.007920505478978157
			vertex 0.0555555485188961 0.07558316737413406 0.014823807403445244
		endloop
	endfacet
	facet normal 1 0 0
		outer loop
			vertex 0.0555555485188961 0.07884407788515091 -0.008429916575551033
			vertex 0.0555555485188961 0.07558316737413406 0.014823807403445244
			vertex 0.0555555485188961 0.07229042798280716 0.005031955894082785
		endloop
	endfacet
	facet normal 1 0 0
		outer loop
			vertex 0.0555555485188961 0.09226671606302261 -0.007920505478978157
			vertex 0.0555555485188961 0.10202724486589432 -0.007550092879682779
			vertex 0.0555555485188961 0.10202724486589432 -0.006595777813345194
		endloop
	endfacet
	facet normal 1 0 0
		outer loop
			vertex 0.0555555485188961 0.09226671606302261 -0.007920505478978157
			vertex 0.0555555485188961 0.10202724486589432 -0.006595777813345194
			vertex 0.0555555485188961 0.08246956020593643 0.03530263528227806
		endloop
	endfacet
	facet normal 1 0 0
		outer loop
			vertex 0.0555555485188961 0.09226671606302261 -0.007920505478978157
			vertex 0.0555555485188961 0.08246956020593643 0.03530263528227806
			vertex 0.0555555485188961 0.07558316737413406 0.014823807403445244
		endloop
	endfacet
	facet normal 0 1 0
		outer loop
			vertex 0.013421114534139633 0.10202724486589432 0.036741625517606735
			vertex 0.009914543479681015 0.10202724486589432 0.01911252550780773
			vertex 0.0031135943718254566 0.10202724486589432 0.0229432862251997
		endloop
	endfacet
	facet normal 0 1 0
		outer loop
			vertex 0.013421114534139633 0.10202724486589432 0.036741625517606735
			vertex 0.0031135943718254566 0.10202724486589432 0.0229432862251997
			vertex -0.0012455317191779613 0.10202724486589432 0.036741625517606735
		endloop
	endfacet
	facet normal 0 1 0
		outer loop
			vertex 0.009914543479681015 0.10202724486589432 0.01911252550780773
			vertex 0.013421114534139633 0.10202724486589432 0.036741625517606735
			vertex 0.03439575061202049 0.10202724486589432 0.036741625517606735
		endloop
	endfacet
	facet normal 0 1 0
		outer loop
			vertex 0.009914543479681015 0.10202724486589432 0.01911252550780773
			vertex 0.03439575061202049 0.10202724486589432 0.036741625517606735
			vertex 0.03138833865523338 0.10202724486589432 0.007016924675554037
		endloop
	endfacet
	facet normal 0 1 0
		outer loop
			vertex 0.0555555485188961 0.10202724486589432 0.036741625517606735
			vertex 0.0555555485188961 0.10202724486589432 -0.006595777813345194
			vertex 0.03138833865523338 0.10202724486589432 0.007016924675554037
		endloop
	endfacet
	facet normal 0 1 0
		outer loop
			vertex 0.0555555485188961 0.10202724486589432 0.036741625517606735
			vertex 0.03138833865523338 0.10202724486589432 0.007016924675554037
			vertex 0.03439575061202049 0.10202724486589432 0.036741625517606735
		endloop
	endfacet
	facet normal 0.00491271058802831 0.99998672818576 0.0015520074153856534
		outer loop
			vertex -0.0012455317191779613 0.10202724486589432 0.036741625517606735
			vertex 0.0031135943718254566 0.10202724486589432 0.0229432862251997
			vertex -0.010000202804803848 0.10208038240671158 0.030216095969080925
		endloop
	endfacet
	facet normal 0.004910817153176629 0.9999867335401733 0.0015545476971736084
		outer loop
			vertex -0.0012455317191779613 0.10202724486589432 0.036741625517606735
			vertex -0.010000202804803848 0.10208038240671158 0.030216095969080925
			vertex -0.011446896940469742 0.10207734256982803 0.036741625517606735
		endloop
	endfacet
	facet normal 1 0 0
		outer loop
			vertex 0.0555555485188961 0.10202724486589432 0.036741625517606735
			vertex 0.0555555485188961 0.08179784566164017 0.036741625517606735
			vertex 0.0555555485188961 0.10202724486589432 -0.006595777813345194
		endloop
	endfacet
	facet normal 0 1 0
		outer loop
			vertex -0.01662895455956459 0.1023596003651619 0.026846392080187798
			vertex -0.026137087494134903 0.1023596003651619 0.03137543424963951
			vertex -0.023172203451395035 0.1023596003651619 0.03619992360472679
		endloop
	endfacet
	facet normal 0 0 1
		outer loop
			vertex 0.025244619697332382 0.04651252180337906 0.036741625517606735
			vertex 0.03101983293890953 0.057153232395648956 0.036741625517606735
			vertex 0.023965593427419662 0.0707411840558052 0.036741625517606735
		endloop
	endfacet
	facet normal 0 0 1
		outer loop
			vertex 0.025244619697332382 0.04651252180337906 0.036741625517606735
			vertex 0.023965593427419662 0.0707411840558052 0.036741625517606735
			vertex -0.022351745516061783 0.10156149417161942 0.036741625517606735
		endloop
	endfacet
	facet normal 0 0 1
		outer loop
			vertex 0.025244619697332382 0.04651252180337906 0.036741625517606735
			vertex -0.022351745516061783 0.10156149417161942 0.036741625517606735
			vertex 0.008000638335943222 0.05187580734491348 0.036741625517606735
		endloop
	endfacet
	facet normal 0 0 1
		outer loop
			vertex 0.03101983293890953 0.057153232395648956 0.036741625517606735
			vertex 0.025244619697332382 0.04651252180337906 0.036741625517606735
			vertex 0.038719769567251205 0.04232140630483627 0.036741625517606735
		endloop
	endfacet
	facet normal 0 0 1
		outer loop
			vertex 0.020094629377126694 0.07554767280817032 0.036741625517606735
			vertex 0.015393104404211044 0.07950211316347122 0.036741625517606735
			vertex 0.01891898736357689 0.07607949525117874 0.036741625517606735
		endloop
	endfacet
	facet normal 0 0 1
		outer loop
			vertex 0.015393104404211044 0.07950211316347122 0.036741625517606735
			vertex -0.011446896940469742 0.10207734256982803 0.036741625517606735
			vertex -0.01753309741616249 0.10210726410150528 0.036741625517606735
		endloop
	endfacet
	facet normal 0 0 1
		outer loop
			vertex 0.015393104404211044 0.07950211316347122 0.036741625517606735
			vertex -0.01753309741616249 0.10210726410150528 0.036741625517606735
			vertex 0.022434886544942856 0.07266656309366226 0.036741625517606735
		endloop
	endfacet
	facet normal 0 0 1
		outer loop
			vertex 0.03688168153166771 0.06795353442430496 0.036741625517606735
			vertex 0.03733384236693382 0.0687866285443306 0.036741625517606735
			vertex 0.03317790850996971 0.07150835543870926 0.036741625517606735
		endloop
	endfacet
	facet normal 0 0 1
		outer loop
			vertex 0.03688168153166771 0.06795353442430496 0.036741625517606735
			vertex 0.03317790850996971 0.07150835543870926 0.036741625517606735
			vertex 0.031228091567754745 0.0705111101269722 0.036741625517606735
		endloop
	endfacet
	facet normal 0 0 1
		outer loop
			vertex 0.042457547038793564 0.0654311254620552 0.036741625517606735
			vertex 0.03733384236693382 0.0687866285443306 0.036741625517606735
			vertex 0.03688168153166771 0.06795353442430496 0.036741625517606735
		endloop
	endfacet
	facet normal 0 0 1
		outer loop
			vertex 0.03733384236693382 0.0687866285443306 0.036741625517606735
			vertex 0.040975626558065414 0.07549650222063065 0.036741625517606735
			vertex 0.03317790850996971 0.07150835543870926 0.036741625517606735
		endloop
	endfacet
	facet normal 0 0 1
		outer loop
			vertex 0.0555555485188961 0.059505827724933624 0.036741625517606735
			vertex 0.0555555485188961 0.08179784566164017 0.036741625517606735
			vertex 0.054063256829977036 0.08219022303819656 0.036741625517606735
		endloop
	endfacet
	facet normal 0 0 1
		outer loop
			vertex 0.0555555485188961 0.059505827724933624 0.036741625517606735
			vertex 0.054063256829977036 0.08219022303819656 0.036741625517606735
			vertex 0.040975626558065414 0.07549650222063065 0.036741625517606735
		endloop
	endfacet
	facet normal 0 0 1
		outer loop
			vertex 0.0555555485188961 0.059505827724933624 0.036741625517606735
			vertex 0.040975626558065414 0.07549650222063065 0.036741625517606735
			vertex 0.03733384236693382 0.0687866285443306 0.036741625517606735
		endloop
	endfacet
	facet normal 0 0 1
		outer loop
			vertex 0.0555555485188961 0.059505827724933624 0.036741625517606735
			vertex 0.03733384236693382 0.0687866285443306 0.036741625517606735
			vertex 0.042457547038793564 0.0654311254620552 0.036741625517606735
		endloop
	endfacet
	facet normal 0 0 1
		outer loop
			vertex 0.015393104404211044 0.07950211316347122 0.036741625517606735
			vertex 0.020094629377126694 0.07554767280817032 0.036741625517606735
			vertex 0.031228091567754745 0.0705111101269722 0.036741625517606735
		endloop
	endfacet
	facet normal 0 0 1
		outer loop
			vertex 0.015393104404211044 0.07950211316347122 0.036741625517606735
			vertex 0.031228091567754745 0.0705111101269722 0.036741625517606735
			vertex 0.03317790850996971 0.07150835543870926 0.036741625517606735
		endloop
	endfacet
	facet normal 0 0 1
		outer loop
			vertex 0.015393104404211044 0.07950211316347122 0.036741625517606735
			vertex 0.03317790850996971 0.07150835543870926 0.036741625517606735
			vertex 0.00382476719096303 0.09073171764612198 0.036741625517606735
		endloop
	endfacet
	facet normal 0 0 1
		outer loop
			vertex -0.004227850120514631 0.09600541740655899 0.036741625517606735
			vertex 0.015393104404211044 0.07950211316347122 0.036741625517606735
			vertex 0.00382476719096303 0.09073171764612198 0.036741625517606735
		endloop
	endfacet
	facet normal 0 0 1
		outer loop
			vertex 0.040975626558065414 0.07549650222063065 0.036741625517606735
			vertex 0.045789387077093124 0.08436567336320877 0.036741625517606735
			vertex -0.006841633003205061 0.0982038751244545 0.036741625517606735
		endloop
	endfacet
	facet normal 0 0 1
		outer loop
			vertex 0.040975626558065414 0.07549650222063065 0.036741625517606735
			vertex -0.006841633003205061 0.0982038751244545 0.036741625517606735
			vertex -0.004227850120514631 0.09600541740655899 0.036741625517606735
		endloop
	endfacet
	facet normal 0 0 1
		outer loop
			vertex 0.040975626558065414 0.07549650222063065 0.036741625517606735
			vertex -0.004227850120514631 0.09600541740655899 0.036741625517606735
			vertex 0.03317790850996971 0.07150835543870926 0.036741625517606735
		endloop
	endfacet
	facet normal 0 0 1
		outer loop
			vertex 0.054063256829977036 0.08219022303819656 0.036741625517606735
			vertex 0.045789387077093124 0.08436567336320877 0.036741625517606735
			vertex 0.040975626558065414 0.07549650222063065 0.036741625517606735
		endloop
	endfacet
	facet normal 0 0 1
		outer loop
			vertex -0.011446896940469742 0.10207734256982803 0.036741625517606735
			vertex -0.011387292295694351 0.10202724486589432 0.036741625517606735
			vertex -0.0012455317191779613 0.10202724486589432 0.036741625517606735
		endloop
	endfacet
	facet normal 0 0 1
		outer loop
			vertex 0.045789387077093124 0.08436567336320877 0.036741625517606735
			vertex 0.05537515506148338 0.10202724486589432 0.036741625517606735
			vertex -0.011387292295694351 0.10202724486589432 0.036741625517606735
		endloop
	endfacet
	facet normal 0 0 1
		outer loop
			vertex 0.045789387077093124 0.08436567336320877 0.036741625517606735
			vertex -0.011387292295694351 0.10202724486589432 0.036741625517606735
			vertex -0.006841633003205061 0.0982038751244545 0.036741625517606735
		endloop
	endfacet
	facet normal 0 0 1
		outer loop
			vertex 0.0555555485188961 0.08179784566164017 0.036741625517606735
			vertex 0.0555555485188961 0.10202724486589432 0.036741625517606735
			vertex 0.05537515506148338 0.10202724486589432 0.036741625517606735
		endloop
	endfacet
	facet normal 0 0 1
		outer loop
			vertex 0.0555555485188961 0.08179784566164017 0.036741625517606735
			vertex 0.05537515506148338 0.10202724486589432 0.036741625517606735
			vertex 0.045789387077093124 0.08436567336320877 0.036741625517606735
		endloop
	endfacet
	facet normal 0 0 -1
		outer loop
			vertex 0.0555555485188961 0.09610966593027115 -0.03674163296818733
			vertex 0.0555555485188961 0.09262705594301224 -0.03674163296818733
			vertex 0.04257297143340111 0.10112933069467545 -0.03674163296818733
		endloop
	endfacet
	facet normal 0 0 -1
		outer loop
			vertex 0.0555555485188961 0.09610966593027115 -0.03674163296818733
			vertex 0.04257297143340111 0.10112933069467545 -0.03674163296818733
			vertex 0.048604484647512436 0.10122988373041153 -0.03674163296818733
		endloop
	endfacet
	facet normal 0 0 -1
		outer loop
			vertex 0.0555555485188961 0.10218549519777298 -0.03674163296818733
			vertex 0.0555555485188961 0.10202724486589432 -0.03674163296818733
			vertex 0.048254694789648056 0.10202724486589432 -0.03674163296818733
		endloop
	endfacet
	facet normal 0 0 -1
		outer loop
			vertex 0.0555555485188961 0.10218549519777298 -0.03674163296818733
			vertex 0.048254694789648056 0.10202724486589432 -0.03674163296818733
			vertex 0.048071976751089096 0.10220897942781448 -0.03674163296818733
		endloop
	endfacet
	facet normal 0 0 -1
		outer loop
			vertex 0.0555555485188961 0.10202724486589432 -0.03674163296818733
			vertex 0.0555555485188961 0.10134575515985489 -0.03674163296818733
			vertex 0.04904889687895775 0.10123727470636368 -0.03674163296818733
		endloop
	endfacet
	facet normal 0 0 -1
		outer loop
			vertex 0.0555555485188961 0.10202724486589432 -0.03674163296818733
			vertex 0.04904889687895775 0.10123727470636368 -0.03674163296818733
			vertex 0.048254694789648056 0.10202724486589432 -0.03674163296818733
		endloop
	endfacet
	facet normal 0 0 -1
		outer loop
			vertex 0.0555555485188961 0.10134575515985489 -0.03674163296818733
			vertex 0.0555555485188961 0.09610966593027115 -0.03674163296818733
			vertex 0.048604484647512436 0.10122988373041153 -0.03674163296818733
		endloop
	endfacet
endsolid exported
