solid exported
	facet normal -0.9873275002461015 0.1542716727599736 -0.03721099624605573
		outer loop
			vertex 0.03139789402484894 0.1023595854640007 0.036741629242897034
			vertex 0.0322030633687973 0.1023595854640007 0.015377894975244999
			vertex 0.02248808555305004 0.04220672696828842 0.023762047290802002
		endloop
	endfacet
	facet normal -0.987327517718088 0.15427162132709357 -0.03721074589078077
		outer loop
			vertex 0.03139789402484894 0.1023595854640007 0.036741629242897034
			vertex 0.02248808555305004 0.04220672696828842 0.023762047290802002
			vertex 0.022379381582140923 0.04464174062013626 0.036741629242897034
		endloop
	endfacet
	facet normal -0.346970342001945 -0.7369235084183816 -0.5801338849881094
		outer loop
			vertex 0.01822618953883648 0.10003618150949478 0.02099236659705639
			vertex 0.01565939001739025 0.1023595854640007 0.019576197490096092
			vertex 0.016791580244898796 0.1023595854640007 0.01889904960989952
		endloop
	endfacet
	facet normal -0.3469758560252367 -0.7369237105103013 -0.5801303303769628
		outer loop
			vertex 0.01822618953883648 0.10003618150949478 0.02099236659705639
			vertex 0.016791580244898796 0.1023595854640007 0.01889904960989952
			vertex 0.018006278201937675 0.10133444517850876 0.01947474665939808
		endloop
	endfacet
	facet normal -0.08934346035749854 -0.8669586949035769 0.4903064015719507
		outer loop
			vertex 0.015047473832964897 0.1023595854640007 0.026697667315602303
			vertex 0.018263963982462883 0.09986403584480286 0.022871149703860283
			vertex 0.017878470942378044 0.1023595854640007 0.027213530614972115
		endloop
	endfacet
	facet normal -0.6528388583663202 -0.7554173165614326 -0.05609013145005534
		outer loop
			vertex 0.01565939001739025 0.1023595854640007 0.019576197490096092
			vertex 0.01822618953883648 0.10003618150949478 0.02099236659705639
			vertex 0.018263963982462883 0.09986403584480286 0.022871149703860283
		endloop
	endfacet
	facet normal -0.6528351416971662 -0.7554201509712977 -0.05609521612172517
		outer loop
			vertex 0.01565939001739025 0.1023595854640007 0.019576197490096092
			vertex 0.018263963982462883 0.09986403584480286 0.022871149703860283
			vertex 0.015047473832964897 0.1023595854640007 0.026697667315602303
		endloop
	endfacet
	facet normal -0.34696950969043017 -0.7369250634946775 -0.5801324074196753
		outer loop
			vertex 0.01933090202510357 0.09903623163700104 0.021601859480142593
			vertex 0.01822618953883648 0.10003618150949478 0.02099236659705639
			vertex 0.018006278201937675 0.10133444517850876 0.01947474665939808
		endloop
	endfacet
	facet normal -0.34696689564545574 -0.7369250360837646 -0.580134005656536
		outer loop
			vertex 0.01933090202510357 0.09903623163700104 0.021601859480142593
			vertex 0.018006278201937675 0.10133444517850876 0.01947474665939808
			vertex 0.019270090386271477 0.10026787221431732 0.020073717460036278
		endloop
	endfacet
	facet normal 0.9587009386021881 -0.20159382050921476 -0.20063011203650996
		outer loop
			vertex 0.019643349573016167 0.1023595854640007 0.01975555717945099
			vertex 0.01933090202510357 0.09903623163700104 0.021601859480142593
			vertex 0.019270090386271477 0.10026787221431732 0.020073717460036278
		endloop
	endfacet
	facet normal 0.9586999343655782 -0.20159429819718516 -0.20063443069877254
		outer loop
			vertex 0.019643349573016167 0.1023595854640007 0.01975555717945099
			vertex 0.019270090386271477 0.10026787221431732 0.020073717460036278
			vertex 0.019423646852374077 0.1023595854640007 0.018705742433667183
		endloop
	endfacet
	facet normal -0.08935004085676158 -0.8669569436032074 0.4903082990701667
		outer loop
			vertex 0.02133604697883129 0.1023595854640007 0.027843574061989784
			vertex 0.01933090202510357 0.09903623163700104 0.021601859480142593
			vertex 0.02156376652419567 0.1023595854640007 0.0278850719332695
		endloop
	endfacet
	facet normal 0.9506397261146194 -0.21413443888156708 -0.22456748032072185
		outer loop
			vertex 0.019643349573016167 0.1023595854640007 0.01975555717945099
			vertex 0.02156376652419567 0.1023595854640007 0.0278850719332695
			vertex 0.01933090202510357 0.09903623163700104 0.021601859480142593
		endloop
	endfacet
	facet normal -0.0893507625052833 -0.8669584036377909 0.4903055859375229
		outer loop
			vertex 0.017878470942378044 0.1023595854640007 0.027213530614972115
			vertex 0.018263963982462883 0.09986403584480286 0.022871149703860283
			vertex 0.01933090202510357 0.09903623163700104 0.021601859480142593
		endloop
	endfacet
	facet normal -0.08934432393638474 -0.8669581947070883 0.4903071286556791
		outer loop
			vertex 0.017878470942378044 0.1023595854640007 0.027213530614972115
			vertex 0.01933090202510357 0.09903623163700104 0.021601859480142593
			vertex 0.02133604697883129 0.1023595854640007 0.027843574061989784
		endloop
	endfacet
	facet normal -0.6528355319953327 -0.7554201668729084 -0.05609045949248595
		outer loop
			vertex 0.01822618953883648 0.10003618150949478 0.02099236659705639
			vertex 0.01933090202510357 0.09903623163700104 0.021601859480142593
			vertex 0.018263963982462883 0.09986403584480286 0.022871149703860283
		endloop
	endfacet
	facet normal -0.3469734288264859 -0.7369254477704734 -0.5801295752818322
		outer loop
			vertex 0.016791580244898796 0.1023595854640007 0.01889904960989952
			vertex 0.019166795536875725 0.1023595854640007 0.017478441819548607
			vertex 0.019270090386271477 0.10026787221431732 0.020073717460036278
		endloop
	endfacet
	facet normal 0.9586987450569404 -0.2015964883006968 -0.20063791299521302
		outer loop
			vertex 0.019423646852374077 0.1023595854640007 0.018705742433667183
			vertex 0.019270090386271477 0.10026787221431732 0.020073717460036278
			vertex 0.019166795536875725 0.1023595854640007 0.017478441819548607
		endloop
	endfacet
	facet normal -0.5824132229925072 -0.8072931627017619 0.09525012933569557
		outer loop
			vertex 0.0555555522441864 -0.04192527383565903 0.036741629242897034
			vertex 0.05091531574726105 -0.038577623665332794 0.036741629242897034
			vertex 0.0555555522441864 -0.04240042716264725 0.03271446377038956
		endloop
	endfacet
	facet normal -0.9236181601338413 -0.37806916797937373 0.06319175970300164
		outer loop
			vertex 0.022379381582140923 0.04464174062013626 0.036741629242897034
			vertex 0.02248808555305004 0.04220672696828842 0.023762047290802002
			vertex 0.023617861792445183 0.04161614924669266 0.036741629242897034
		endloop
	endfacet
	facet normal -0.994349926960563 -0.06545091219887786 0.08357272788331009
		outer loop
			vertex 0.023617861792445183 0.04161614924669266 0.036741629242897034
			vertex 0.02248808555305004 0.04220672696828842 0.023762047290802002
			vertex 0.02527427487075329 0.01645142398774624 0.036741629242897034
		endloop
	endfacet
	facet normal -0.9029935590828944 -0.2672341716719381 -0.3364350304971533
		outer loop
			vertex 0.028240708634257317 0.006427741143852472 0.036741629242897034
			vertex 0.02527427487075329 0.01645142398774624 0.036741629242897034
			vertex 0.02248808555305004 0.04220672696828842 0.023762047290802002
		endloop
	endfacet
	facet normal -0.9029945713543845 -0.26723353286872403 -0.33643282095391946
		outer loop
			vertex 0.028240708634257317 0.006427741143852472 0.036741629242897034
			vertex 0.02248808555305004 0.04220672696828842 0.023762047290802002
			vertex 0.03668372333049774 0.005969590041786432 0.014444271102547646
		endloop
	endfacet
	facet normal -0.9849877363411492 0.14631192836339466 -0.09160774462961072
		outer loop
			vertex 0.03344276547431946 0.1023595854640007 0.0020483301486819983
			vertex 0.02248808555305004 0.04220672696828842 0.023762047290802002
			vertex 0.0322030633687973 0.1023595854640007 0.015377894975244999
		endloop
	endfacet
	facet normal -0.8815840317914133 -0.009804842031086183 -0.47192526946873914
		outer loop
			vertex 0.054207608103752136 0.1023595854640007 -0.036741629242897034
			vertex 0.05458395183086395 0.06852134317159653 -0.036741629242897034
			vertex 0.02248808555305004 0.04220672696828842 0.023762047290802002
		endloop
	endfacet
	facet normal -0.8815841232622792 -0.009804626432975331 -0.4719251030750415
		outer loop
			vertex 0.054207608103752136 0.1023595854640007 -0.036741629242897034
			vertex 0.02248808555305004 0.04220672696828842 0.023762047290802002
			vertex 0.03344276547431946 0.1023595854640007 0.0020483301486819983
		endloop
	endfacet
	facet normal -0.856927692982477 -0.11173858071550494 -0.5031793105637539
		outer loop
			vertex 0.0555555522441864 0.0610700324177742 -0.036741629242897034
			vertex 0.0555555522441864 0.03488785773515701 -0.03092748112976551
			vertex 0.043853357434272766 0.005580535624176264 -0.0044901990331709385
		endloop
	endfacet
	facet normal -0.8569278042449606 -0.11173846239234632 -0.5031791473561926
		outer loop
			vertex 0.0555555522441864 0.0610700324177742 -0.036741629242897034
			vertex 0.043853357434272766 0.005580535624176264 -0.0044901990331709385
			vertex 0.02248808555305004 0.04220672696828842 0.023762047290802002
		endloop
	endfacet
	facet normal -0.8569280080574089 -0.11173760353358818 -0.5031789909796832
		outer loop
			vertex 0.0555555522441864 0.0610700324177742 -0.036741629242897034
			vertex 0.02248808555305004 0.04220672696828842 0.023762047290802002
			vertex 0.05458395183086395 0.06852134317159653 -0.036741629242897034
		endloop
	endfacet
	facet normal -0.9029946344176264 -0.267233618608487 -0.3364325835860596
		outer loop
			vertex 0.02248808555305004 0.04220672696828842 0.023762047290802002
			vertex 0.043853357434272766 0.005580535624176264 -0.0044901990331709385
			vertex 0.03668372333049774 0.005969590041786432 0.014444271102547646
		endloop
	endfacet
	facet normal 1 0 0
		outer loop
			vertex 0.0555555522441864 0.07110714167356491 -0.02552367001771927
			vertex 0.0555555522441864 0.1023595854640007 -0.036741629242897034
			vertex 0.0555555522441864 0.1023595854640007 -0.02086089737713337
		endloop
	endfacet
	facet normal 1 0 0
		outer loop
			vertex 0.0555555522441864 0.0610700324177742 -0.036741629242897034
			vertex 0.0555555522441864 0.1023595854640007 -0.036741629242897034
			vertex 0.0555555522441864 0.07110714167356491 -0.02552367001771927
		endloop
	endfacet
	facet normal 1 0 0
		outer loop
			vertex 0.0555555522441864 0.0610700324177742 -0.036741629242897034
			vertex 0.0555555522441864 0.07110714167356491 -0.02552367001771927
			vertex 0.0555555522441864 0.03488785773515701 -0.03092748112976551
		endloop
	endfacet
	facet normal 1 0 0
		outer loop
			vertex 0.0555555522441864 0.07376383990049362 -0.02512729912996292
			vertex 0.0555555522441864 0.1023595854640007 -0.02086089737713337
			vertex 0.0555555522441864 0.1023595854640007 -0.012418080121278763
		endloop
	endfacet
	facet normal -0.7187116077353799 -0.6675708147009407 -0.1944295046178637
		outer loop
			vertex 0.0555555522441864 -0.04240042716264725 0.03271446377038956
			vertex 0.05091531574726105 -0.038577623665332794 0.036741629242897034
			vertex 0.03718501329421997 -0.02379547990858555 0.036741629242897034
		endloop
	endfacet
	facet normal -0.7187114658462793 -0.6675698270698346 -0.19443342008781236
		outer loop
			vertex 0.0555555522441864 -0.04240042716264725 0.03271446377038956
			vertex 0.03718501329421997 -0.02379547990858555 0.036741629242897034
			vertex 0.0555555522441864 -0.03084280528128147 -0.006967601366341114
		endloop
	endfacet
	facet normal -0.9029945681190752 -0.2672335456745398 -0.3364328194657269
		outer loop
			vertex 0.03718501329421997 -0.02379547990858555 0.036741629242897034
			vertex 0.028240708634257317 0.006427741143852472 0.036741629242897034
			vertex 0.03668372333049774 0.005969590041786432 0.014444271102547646
		endloop
	endfacet
	facet normal -0.9029945662409674 -0.2672335480221815 -0.33643282264185187
		outer loop
			vertex 0.03718501329421997 -0.02379547990858555 0.036741629242897034
			vertex 0.03668372333049774 0.005969590041786432 0.014444271102547646
			vertex 0.050317540764808655 -0.028833383694291115 0.0054952604696154594
		endloop
	endfacet
	facet normal 1 0 0
		outer loop
			vertex 0.0555555522441864 -0.03640713542699814 0.036741629242897034
			vertex 0.0555555522441864 -0.04192527383565903 0.036741629242897034
			vertex 0.0555555522441864 -0.04240042716264725 0.03271446377038956
		endloop
	endfacet
	facet normal 1 0 0
		outer loop
			vertex 0.0555555522441864 -0.03640713542699814 0.036741629242897034
			vertex 0.0555555522441864 -0.04240042716264725 0.03271446377038956
			vertex 0.0555555522441864 -0.0390201136469841 0.021108511835336685
		endloop
	endfacet
	facet normal -0.856927726933903 -0.11173852596798897 -0.5031792649010841
		outer loop
			vertex 0.0555555522441864 -0.01448036078363657 -0.01996452547609806
			vertex 0.043853357434272766 0.005580535624176264 -0.0044901990331709385
			vertex 0.0555555522441864 0.03488785773515701 -0.03092748112976551
		endloop
	endfacet
	facet normal -0.9029945682150785 -0.26723388064739695 -0.33643255313390347
		outer loop
			vertex 0.03668372333049774 0.005969590041786432 0.014444271102547646
			vertex 0.043853357434272766 0.005580535624176264 -0.0044901990331709385
			vertex 0.0555555522441864 -0.01448036078363657 -0.01996452547609806
		endloop
	endfacet
	facet normal -0.9029945964127766 -0.2672334248857389 -0.3364328394689866
		outer loop
			vertex 0.03668372333049774 0.005969590041786432 0.014444271102547646
			vertex 0.0555555522441864 -0.01448036078363657 -0.01996452547609806
			vertex 0.0555555522441864 -0.03084280528128147 -0.006967601366341114
		endloop
	endfacet
	facet normal -0.9029946622030044 -0.26723367849072344 -0.3364324614438964
		outer loop
			vertex 0.03668372333049774 0.005969590041786432 0.014444271102547646
			vertex 0.0555555522441864 -0.03084280528128147 -0.006967601366341114
			vertex 0.050317540764808655 -0.028833383694291115 0.0054952604696154594
		endloop
	endfacet
	facet normal 1 0 0
		outer loop
			vertex 0.0555555522441864 0.1023595854640007 0.036741629242897034
			vertex 0.0555555522441864 0.08058925718069077 0.036741629242897034
			vertex 0.0555555522441864 -0.03874813765287399 0.02017466351389885
		endloop
	endfacet
	facet normal 1 0 0
		outer loop
			vertex 0.0555555522441864 0.1023595854640007 0.036741629242897034
			vertex 0.0555555522441864 -0.03874813765287399 0.02017466351389885
			vertex 0.0555555522441864 -0.036710016429424286 0.01317693293094635
		endloop
	endfacet
	facet normal 1 0 0
		outer loop
			vertex 0.0555555522441864 0.1023595854640007 0.036741629242897034
			vertex 0.0555555522441864 -0.036710016429424286 0.01317693293094635
			vertex 0.0555555522441864 0.07110714167356491 -0.02552367001771927
		endloop
	endfacet
	facet normal 1 0 0
		outer loop
			vertex 0.0555555522441864 0.1023595854640007 0.036741629242897034
			vertex 0.0555555522441864 0.07110714167356491 -0.02552367001771927
			vertex 0.0555555522441864 0.07376383990049362 -0.02512729912996292
		endloop
	endfacet
	facet normal 1 0 0
		outer loop
			vertex 0.0555555522441864 0.1023595854640007 0.036741629242897034
			vertex 0.0555555522441864 0.07376383990049362 -0.02512729912996292
			vertex 0.0555555522441864 0.1023595854640007 -0.012418080121278763
		endloop
	endfacet
	facet normal 1 0 0
		outer loop
			vertex 0.0555555522441864 0.03488785773515701 -0.03092748112976551
			vertex 0.0555555522441864 0.07110714167356491 -0.02552367001771927
			vertex 0.0555555522441864 -0.036710016429424286 0.01317693293094635
		endloop
	endfacet
	facet normal 1 0 0
		outer loop
			vertex 0.0555555522441864 0.03488785773515701 -0.03092748112976551
			vertex 0.0555555522441864 -0.036710016429424286 0.01317693293094635
			vertex 0.0555555522441864 -0.03084280528128147 -0.006967601366341114
		endloop
	endfacet
	facet normal 1 0 0
		outer loop
			vertex 0.0555555522441864 0.03488785773515701 -0.03092748112976551
			vertex 0.0555555522441864 -0.03084280528128147 -0.006967601366341114
			vertex 0.0555555522441864 -0.01448036078363657 -0.01996452547609806
		endloop
	endfacet
	facet normal 1 0 0
		outer loop
			vertex 0.0555555522441864 0.08058925718069077 0.036741629242897034
			vertex 0.0555555522441864 -0.03640713542699814 0.036741629242897034
			vertex 0.0555555522441864 -0.0390201136469841 0.021108511835336685
		endloop
	endfacet
	facet normal 1 0 0
		outer loop
			vertex 0.0555555522441864 0.08058925718069077 0.036741629242897034
			vertex 0.0555555522441864 -0.0390201136469841 0.021108511835336685
			vertex 0.0555555522441864 -0.03874813765287399 0.02017466351389885
		endloop
	endfacet
	facet normal 0 1 0
		outer loop
			vertex 0.017878470942378044 0.1023595854640007 0.027213530614972115
			vertex 0.017835421487689018 0.1023595854640007 0.018822386860847473
			vertex 0.016791580244898796 0.1023595854640007 0.01889904960989952
		endloop
	endfacet
	facet normal 0 1 0
		outer loop
			vertex 0.017878470942378044 0.1023595854640007 0.027213530614972115
			vertex 0.016791580244898796 0.1023595854640007 0.01889904960989952
			vertex 0.01565939001739025 0.1023595854640007 0.019576197490096092
		endloop
	endfacet
	facet normal 0 1 0
		outer loop
			vertex 0.017878470942378044 0.1023595854640007 0.027213530614972115
			vertex 0.01565939001739025 0.1023595854640007 0.019576197490096092
			vertex 0.015047473832964897 0.1023595854640007 0.026697667315602303
		endloop
	endfacet
	facet normal 0 1 0
		outer loop
			vertex 0.019643349573016167 0.1023595854640007 0.01975555717945099
			vertex 0.02133604697883129 0.1023595854640007 0.027843574061989784
			vertex 0.02156376652419567 0.1023595854640007 0.0278850719332695
		endloop
	endfacet
	facet normal 0 1 0
		outer loop
			vertex 0.02133604697883129 0.1023595854640007 0.027843574061989784
			vertex 0.019423646852374077 0.1023595854640007 0.018705742433667183
			vertex 0.017835421487689018 0.1023595854640007 0.018822386860847473
		endloop
	endfacet
	facet normal 0 1 0
		outer loop
			vertex 0.02133604697883129 0.1023595854640007 0.027843574061989784
			vertex 0.017835421487689018 0.1023595854640007 0.018822386860847473
			vertex 0.017878470942378044 0.1023595854640007 0.027213530614972115
		endloop
	endfacet
	facet normal 0 1 0
		outer loop
			vertex 0.019166795536875725 0.1023595854640007 0.017478441819548607
			vertex 0.016791580244898796 0.1023595854640007 0.01889904960989952
			vertex 0.019423646852374077 0.1023595854640007 0.018705742433667183
		endloop
	endfacet
	facet normal 0 1 0
		outer loop
			vertex 0.03157038986682892 0.1023595854640007 0.032442737370729446
			vertex 0.03156270086765289 0.1023595854640007 0.032368771731853485
			vertex 0.031560540199279785 0.1023595854640007 0.03242599591612816
		endloop
	endfacet
	facet normal 0 1 0
		outer loop
			vertex 0.03139789402484894 0.1023595854640007 0.036741629242897034
			vertex 0.03201723098754883 0.1023595854640007 0.036741629242897034
			vertex 0.03157038986682892 0.1023595854640007 0.032442737370729446
		endloop
	endfacet
	facet normal 0 1 0
		outer loop
			vertex 0.03139789402484894 0.1023595854640007 0.036741629242897034
			vertex 0.03157038986682892 0.1023595854640007 0.032442737370729446
			vertex 0.031560540199279785 0.1023595854640007 0.03242599591612816
		endloop
	endfacet
	facet normal 0 1 0
		outer loop
			vertex 0.03201723098754883 0.1023595854640007 0.036741629242897034
			vertex 0.03367696702480316 0.1023595854640007 0.036741629242897034
			vertex 0.03445659577846527 0.1023595854640007 0.03468897566199303
		endloop
	endfacet
	facet normal 0 1 0
		outer loop
			vertex 0.03201723098754883 0.1023595854640007 0.036741629242897034
			vertex 0.03445659577846527 0.1023595854640007 0.03468897566199303
			vertex 0.031965672969818115 0.1023595854640007 0.02167656645178795
		endloop
	endfacet
	facet normal 0 1 0
		outer loop
			vertex 0.03201723098754883 0.1023595854640007 0.036741629242897034
			vertex 0.031965672969818115 0.1023595854640007 0.02167656645178795
			vertex 0.03156270086765289 0.1023595854640007 0.032368771731853485
		endloop
	endfacet
	facet normal 0 1 0
		outer loop
			vertex 0.05346883833408356 0.1023595854640007 -0.03536158427596092
			vertex 0.0555555522441864 0.1023595854640007 -0.036741629242897034
			vertex 0.054207608103752136 0.1023595854640007 -0.036741629242897034
		endloop
	endfacet
	facet normal 0 1 0
		outer loop
			vertex 0.03445659577846527 0.1023595854640007 0.03468897566199303
			vertex 0.0555555522441864 0.1023595854640007 -0.02086089737713337
			vertex 0.0555555522441864 0.1023595854640007 -0.036741629242897034
		endloop
	endfacet
	facet normal 0 1 0
		outer loop
			vertex 0.03445659577846527 0.1023595854640007 0.03468897566199303
			vertex 0.0555555522441864 0.1023595854640007 -0.036741629242897034
			vertex 0.05346883833408356 0.1023595854640007 -0.03536158427596092
		endloop
	endfacet
	facet normal 0 1 0
		outer loop
			vertex 0.03445659577846527 0.1023595854640007 0.03468897566199303
			vertex 0.05346883833408356 0.1023595854640007 -0.03536158427596092
			vertex 0.03344276547431946 0.1023595854640007 0.0020483301486819983
		endloop
	endfacet
	facet normal 0 1 0
		outer loop
			vertex 0.03445659577846527 0.1023595854640007 0.03468897566199303
			vertex 0.03344276547431946 0.1023595854640007 0.0020483301486819983
			vertex 0.0322030633687973 0.1023595854640007 0.015377894975244999
		endloop
	endfacet
	facet normal 0 1 0
		outer loop
			vertex 0.03445659577846527 0.1023595854640007 0.03468897566199303
			vertex 0.0322030633687973 0.1023595854640007 0.015377894975244999
			vertex 0.031965672969818115 0.1023595854640007 0.02167656645178795
		endloop
	endfacet
	facet normal 0 1 0
		outer loop
			vertex 0.0555555522441864 0.1023595854640007 -0.012418080121278763
			vertex 0.0555555522441864 0.1023595854640007 -0.02086089737713337
			vertex 0.05199034512042999 0.1023595854640007 -0.011474349536001682
		endloop
	endfacet
	facet normal 0 1 0
		outer loop
			vertex 0.03367696702480316 0.1023595854640007 0.036741629242897034
			vertex 0.0555555522441864 0.1023595854640007 0.036741629242897034
			vertex 0.0555555522441864 0.1023595854640007 -0.012418080121278763
		endloop
	endfacet
	facet normal 0 1 0
		outer loop
			vertex 0.03367696702480316 0.1023595854640007 0.036741629242897034
			vertex 0.0555555522441864 0.1023595854640007 -0.012418080121278763
			vertex 0.05199034512042999 0.1023595854640007 -0.011474349536001682
		endloop
	endfacet
	facet normal 0 0 1
		outer loop
			vertex 0.03201723098754883 0.1023595854640007 0.036741629242897034
			vertex 0.03139789402484894 0.1023595854640007 0.036741629242897034
			vertex 0.03091759793460369 0.0992857962846756 0.036741629242897034
		endloop
	endfacet
	facet normal 0 0 1
		outer loop
			vertex 0.03346872329711914 0.09868446737527847 0.036741629242897034
			vertex 0.03367696702480316 0.1023595854640007 0.036741629242897034
			vertex 0.03201723098754883 0.1023595854640007 0.036741629242897034
		endloop
	endfacet
	facet normal 0 0 1
		outer loop
			vertex 0.03346872329711914 0.09868446737527847 0.036741629242897034
			vertex 0.03201723098754883 0.1023595854640007 0.036741629242897034
			vertex 0.03091759793460369 0.0992857962846756 0.036741629242897034
		endloop
	endfacet
	facet normal 0 0 1
		outer loop
			vertex 0.03346872329711914 0.09868446737527847 0.036741629242897034
			vertex 0.03091759793460369 0.0992857962846756 0.036741629242897034
			vertex 0.028940526768565178 0.08663259446620941 0.036741629242897034
		endloop
	endfacet
	facet normal 0 0 1
		outer loop
			vertex 0.028240708634257317 0.006427741143852472 0.036741629242897034
			vertex 0.029430119320750237 0.02741692028939724 0.036741629242897034
			vertex 0.023617861792445183 0.04161614924669266 0.036741629242897034
		endloop
	endfacet
	facet normal 0 0 1
		outer loop
			vertex 0.028240708634257317 0.006427741143852472 0.036741629242897034
			vertex 0.023617861792445183 0.04161614924669266 0.036741629242897034
			vertex 0.02527427487075329 0.01645142398774624 0.036741629242897034
		endloop
	endfacet
	facet normal 0 0 1
		outer loop
			vertex 0.023174701258540154 0.042698778212070465 0.036741629242897034
			vertex 0.03112633340060711 0.057349421083927155 0.036741629242897034
			vertex 0.03346872329711914 0.09868446737527847 0.036741629242897034
		endloop
	endfacet
	facet normal 0 0 1
		outer loop
			vertex 0.023174701258540154 0.042698778212070465 0.036741629242897034
			vertex 0.03346872329711914 0.09868446737527847 0.036741629242897034
			vertex 0.028940526768565178 0.08663259446620941 0.036741629242897034
		endloop
	endfacet
	facet normal 0 0 1
		outer loop
			vertex 0.023174701258540154 0.042698778212070465 0.036741629242897034
			vertex 0.028940526768565178 0.08663259446620941 0.036741629242897034
			vertex 0.022379381582140923 0.04464174062013626 0.036741629242897034
		endloop
	endfacet
	facet normal 0 0 1
		outer loop
			vertex 0.03112633340060711 0.057349421083927155 0.036741629242897034
			vertex 0.023174701258540154 0.042698778212070465 0.036741629242897034
			vertex 0.029430119320750237 0.02741692028939724 0.036741629242897034
		endloop
	endfacet
	facet normal 0 0 1
		outer loop
			vertex 0.0555555522441864 -0.04192527383565903 0.036741629242897034
			vertex 0.0555555522441864 -0.03640713542699814 0.036741629242897034
			vertex 0.029430119320750237 0.02741692028939724 0.036741629242897034
		endloop
	endfacet
	facet normal 0 0 1
		outer loop
			vertex 0.0555555522441864 -0.04192527383565903 0.036741629242897034
			vertex 0.029430119320750237 0.02741692028939724 0.036741629242897034
			vertex 0.028240708634257317 0.006427741143852472 0.036741629242897034
		endloop
	endfacet
	facet normal 0 0 1
		outer loop
			vertex 0.0555555522441864 -0.04192527383565903 0.036741629242897034
			vertex 0.028240708634257317 0.006427741143852472 0.036741629242897034
			vertex 0.03718501329421997 -0.02379547990858555 0.036741629242897034
		endloop
	endfacet
	facet normal 0 0 1
		outer loop
			vertex 0.0555555522441864 -0.04192527383565903 0.036741629242897034
			vertex 0.03718501329421997 -0.02379547990858555 0.036741629242897034
			vertex 0.05091531574726105 -0.038577623665332794 0.036741629242897034
		endloop
	endfacet
	facet normal 0 0 1
		outer loop
			vertex 0.04297049343585968 0.07917196303606033 0.036741629242897034
			vertex 0.0555555522441864 0.1023595854640007 0.036741629242897034
			vertex 0.03367696702480316 0.1023595854640007 0.036741629242897034
		endloop
	endfacet
	facet normal 0 0 1
		outer loop
			vertex 0.04297049343585968 0.07917196303606033 0.036741629242897034
			vertex 0.03367696702480316 0.1023595854640007 0.036741629242897034
			vertex 0.032294854521751404 0.07796969264745712 0.036741629242897034
		endloop
	endfacet
	facet normal 0 0 1
		outer loop
			vertex 0.0555555522441864 0.08058925718069077 0.036741629242897034
			vertex 0.0555555522441864 0.1023595854640007 0.036741629242897034
			vertex 0.04297049343585968 0.07917196303606033 0.036741629242897034
		endloop
	endfacet
	facet normal 0 0 1
		outer loop
			vertex 0.03112633340060711 0.057349421083927155 0.036741629242897034
			vertex 0.04297049343585968 0.07917196303606033 0.036741629242897034
			vertex 0.032294854521751404 0.07796969264745712 0.036741629242897034
		endloop
	endfacet
	facet normal 0 0 1
		outer loop
			vertex 0.0555555522441864 -0.03640713542699814 0.036741629242897034
			vertex 0.0555555522441864 0.08058925718069077 0.036741629242897034
			vertex 0.04297049343585968 0.07917196303606033 0.036741629242897034
		endloop
	endfacet
	facet normal 0 0 1
		outer loop
			vertex 0.0555555522441864 -0.03640713542699814 0.036741629242897034
			vertex 0.04297049343585968 0.07917196303606033 0.036741629242897034
			vertex 0.03112633340060711 0.057349421083927155 0.036741629242897034
		endloop
	endfacet
	facet normal 0 0 1
		outer loop
			vertex 0.0555555522441864 -0.03640713542699814 0.036741629242897034
			vertex 0.03112633340060711 0.057349421083927155 0.036741629242897034
			vertex 0.029430119320750237 0.02741692028939724 0.036741629242897034
		endloop
	endfacet
	facet normal 0 0 -1
		outer loop
			vertex 0.0555555522441864 0.1023595854640007 -0.036741629242897034
			vertex 0.0555555522441864 0.0610700324177742 -0.036741629242897034
			vertex 0.05458395183086395 0.06852134317159653 -0.036741629242897034
		endloop
	endfacet
	facet normal 0 0 -1
		outer loop
			vertex 0.0555555522441864 0.1023595854640007 -0.036741629242897034
			vertex 0.05458395183086395 0.06852134317159653 -0.036741629242897034
			vertex 0.054207608103752136 0.1023595854640007 -0.036741629242897034
		endloop
	endfacet
endsolid exported
