solid exported
	facet normal -0.8172820055479634 -0.0889076602576375 0.5693378183073838
		outer loop
			vertex 0.0555555522441864 0.086808942258358 0.005944209638983011
			vertex 0.051142022013664246 0.07430727034807205 -0.002343652304261923
			vertex 0.0555555522441864 0.07627104967832565 0.004298614803701639
		endloop
	endfacet
	facet normal -0.949673853357362 0.15470118498072294 0.2723731183779703
		outer loop
			vertex 0.051142022013664246 0.07430727034807205 -0.002343652304261923
			vertex 0.0555555522441864 0.086808942258358 0.005944209638983011
			vertex 0.0555555522441864 0.1023595854640007 -0.002888170536607504
		endloop
	endfacet
	facet normal -0.9496738317050227 0.15470118306069108 0.272373194962946
		outer loop
			vertex 0.051142022013664246 0.07430727034807205 -0.002343652304261923
			vertex 0.0555555522441864 0.1023595854640007 -0.002888170536607504
			vertex 0.05271579325199127 0.1023595854640007 -0.01278945617377758
		endloop
	endfacet
	facet normal -0.9496746917198934 0.1547003012289356 0.2723706972242102
		outer loop
			vertex 0.051142022013664246 0.07430727034807205 -0.002343652304261923
			vertex 0.05271579325199127 0.1023595854640007 -0.01278945617377758
			vertex 0.050102949142456055 0.08555799722671509 -0.012356741353869438
		endloop
	endfacet
	facet normal 1 0 0
		outer loop
			vertex 0.0555555522441864 0.07627104967832565 0.004298614803701639
			vertex 0.0555555522441864 0.07720696181058884 0.0036234878934919834
			vertex 0.0555555522441864 0.1023595854640007 -0.004933831747621298
		endloop
	endfacet
	facet normal 1 0 0
		outer loop
			vertex 0.0555555522441864 0.07627104967832565 0.004298614803701639
			vertex 0.0555555522441864 0.1023595854640007 -0.004933831747621298
			vertex 0.0555555522441864 0.1023595854640007 -0.002888170536607504
		endloop
	endfacet
	facet normal 1 0 0
		outer loop
			vertex 0.0555555522441864 0.07627104967832565 0.004298614803701639
			vertex 0.0555555522441864 0.1023595854640007 -0.002888170536607504
			vertex 0.0555555522441864 0.086808942258358 0.005944209638983011
		endloop
	endfacet
	facet normal 1 0 0
		outer loop
			vertex 0.0555555522441864 0.07720696181058884 0.0036234878934919834
			vertex 0.0555555522441864 0.0958990529179573 -0.009860141202807426
			vertex 0.0555555522441864 0.1023595854640007 -0.010748593136668205
		endloop
	endfacet
	facet normal 1 0 0
		outer loop
			vertex 0.0555555522441864 0.07720696181058884 0.0036234878934919834
			vertex 0.0555555522441864 0.1023595854640007 -0.010748593136668205
			vertex 0.0555555522441864 0.1023595854640007 -0.004933831747621298
		endloop
	endfacet
	facet normal -0.9480290849215794 0.10247908771487804 0.30122896727220494
		outer loop
			vertex 0.04829984903335571 0.1023595854640007 -0.027768967673182487
			vertex 0.04866956174373627 0.10107794404029846 -0.026169387623667717
			vertex 0.049529463052749634 0.1023595854640007 -0.023899121209979057
		endloop
	endfacet
	facet normal -0.9496744494797604 0.15469716607945233 0.27237332250479396
		outer loop
			vertex 0.05271579325199127 0.1023595854640007 -0.01278945617377758
			vertex 0.049529463052749634 0.1023595854640007 -0.023899121209979057
			vertex 0.04866956174373627 0.10107794404029846 -0.026169387623667717
		endloop
	endfacet
	facet normal -0.9496740638589121 0.15470026056433708 0.2723729094734372
		outer loop
			vertex 0.05271579325199127 0.1023595854640007 -0.01278945617377758
			vertex 0.04866956174373627 0.10107794404029846 -0.026169387623667717
			vertex 0.050102949142456055 0.08555799722671509 -0.012356741353869438
		endloop
	endfacet
	facet normal 1 0 0
		outer loop
			vertex 0.0555555522441864 0.0958990529179573 -0.009860141202807426
			vertex 0.0555555522441864 0.1023595854640007 -0.014520464465022087
			vertex 0.0555555522441864 0.1023595854640007 -0.010748593136668205
		endloop
	endfacet
	facet normal -0.9480312897764167 0.10248160118589855 0.30122117293317624
		outer loop
			vertex 0.04544885456562042 0.1023595854640007 -0.036741625517606735
			vertex 0.044665127992630005 0.09510952979326248 -0.036741625517606735
			vertex 0.04484528303146362 0.09537804871797562 -0.03626598045229912
		endloop
	endfacet
	facet normal -0.9480288082944851 0.10248191153853049 0.30122887718667923
		outer loop
			vertex 0.04544885456562042 0.1023595854640007 -0.036741625517606735
			vertex 0.04484528303146362 0.09537804871797562 -0.03626598045229912
			vertex 0.04819019138813019 0.1023595854640007 -0.028114078566432
		endloop
	endfacet
	facet normal -0.9496763241479991 0.15473260318055357 0.2723466556903425
		outer loop
			vertex 0.04463614523410797 0.09493164718151093 -0.036741625517606735
			vertex 0.04484528303146362 0.09537804871797562 -0.03626598045229912
			vertex 0.044665127992630005 0.09510952979326248 -0.036741625517606735
		endloop
	endfacet
	facet normal -0.8172821616551655 -0.08890693468746931 0.5693377075205349
		outer loop
			vertex 0.0555555522441864 0.07627104967832565 0.004298614803701639
			vertex 0.051142022013664246 0.07430727034807205 -0.002343652304261923
			vertex 0.03711089491844177 0.034562982618808746 -0.028691692277789116
		endloop
	endfacet
	facet normal -0.8172821763707281 -0.08890691402336981 0.5693376896232738
		outer loop
			vertex 0.0555555522441864 0.07627104967832565 0.004298614803701639
			vertex 0.03711089491844177 0.034562982618808746 -0.028691692277789116
			vertex 0.0555555522441864 0.03461027890443802 -0.0022070682607591152
		endloop
	endfacet
	facet normal -0.785361928311229 -0.288944642045143 0.5474647343826564
		outer loop
			vertex 0.0555555522441864 0.02159023843705654 -0.009078873321413994
			vertex 0.0555555522441864 0.03461027890443802 -0.0022070682607591152
			vertex 0.03711089491844177 0.034562982618808746 -0.028691692277789116
		endloop
	endfacet
	facet normal -0.5924323809942964 -0.7491974137414484 0.2961876249821281
		outer loop
			vertex 0.0555555522441864 0.0001972229511011392 -0.036741625517606735
			vertex 0.0555555522441864 0.00133191654458642 -0.03387145325541496
			vertex 0.054006427526474 0.001422202680259943 -0.036741625517606735
		endloop
	endfacet
	facet normal -0.7727412012667176 -0.4915055666663938 0.40161338847306566
		outer loop
			vertex 0.0555555522441864 0.02159023843705654 -0.009078873321413994
			vertex 0.03711089491844177 0.034562982618808746 -0.028691692277789116
			vertex 0.03637653589248657 0.029139867052435875 -0.036741625517606735
		endloop
	endfacet
	facet normal -0.7727416558322105 -0.4915043154597661 0.40161404510564697
		outer loop
			vertex 0.0555555522441864 0.02159023843705654 -0.009078873321413994
			vertex 0.03637653589248657 0.029139867052435875 -0.036741625517606735
			vertex 0.054006427526474 0.001422202680259943 -0.036741625517606735
		endloop
	endfacet
	facet normal -0.7727428547929274 -0.491503099797693 0.4016132259472235
		outer loop
			vertex 0.0555555522441864 0.02159023843705654 -0.009078873321413994
			vertex 0.054006427526474 0.001422202680259943 -0.036741625517606735
			vertex 0.0555555522441864 0.00133191654458642 -0.03387145325541496
		endloop
	endfacet
	facet normal -0.9480285631500533 0.10248022213479382 0.30123022345516504
		outer loop
			vertex 0.04819019138813019 0.1023595854640007 -0.028114078566432
			vertex 0.04484528303146362 0.09537804871797562 -0.03626598045229912
			vertex 0.04866956174373627 0.10107794404029846 -0.026169387623667717
		endloop
	endfacet
	facet normal -0.948027624230047 0.1024834109007493 0.3012320935539256
		outer loop
			vertex 0.04819019138813019 0.1023595854640007 -0.028114078566432
			vertex 0.04866956174373627 0.10107794404029846 -0.026169387623667717
			vertex 0.04829984903335571 0.1023595854640007 -0.027768967673182487
		endloop
	endfacet
	facet normal -0.9236204254248673 -0.37806319539990973 0.0631943828357916
		outer loop
			vertex 0.036410197615623474 0.03492923825979233 -0.036741625517606735
			vertex 0.03711089491844177 0.034562982618808746 -0.028691692277789116
			vertex 0.035302579402923584 0.037635184824466705 -0.036741625517606735
		endloop
	endfacet
	facet normal -0.9943496395379215 -0.06545361739829188 0.08357402898199756
		outer loop
			vertex 0.036649495363235474 0.03129390627145767 -0.036741625517606735
			vertex 0.03711089491844177 0.034562982618808746 -0.028691692277789116
			vertex 0.036410197615623474 0.03492923825979233 -0.036741625517606735
		endloop
	endfacet
	facet normal -0.99204972053649 0.12571236599731364 0.0058097348330021234
		outer loop
			vertex 0.03637653589248657 0.029139867052435875 -0.036741625517606735
			vertex 0.03711089491844177 0.034562982618808746 -0.028691692277789116
			vertex 0.036649495363235474 0.03129390627145767 -0.036741625517606735
		endloop
	endfacet
	facet normal -0.9496738670203961 0.15470141072157423 0.2723729425241833
		outer loop
			vertex 0.04463614523410797 0.09493164718151093 -0.036741625517606735
			vertex 0.035302579402923584 0.037635184824466705 -0.036741625517606735
			vertex 0.03711089491844177 0.034562982618808746 -0.028691692277789116
		endloop
	endfacet
	facet normal -0.9496738303566032 0.15470142231912032 0.27237306377147336
		outer loop
			vertex 0.04463614523410797 0.09493164718151093 -0.036741625517606735
			vertex 0.03711089491844177 0.034562982618808746 -0.028691692277789116
			vertex 0.051142022013664246 0.07430727034807205 -0.002343652304261923
		endloop
	endfacet
	facet normal -0.9496739170994247 0.15470114922799483 0.2723729164373225
		outer loop
			vertex 0.04463614523410797 0.09493164718151093 -0.036741625517606735
			vertex 0.051142022013664246 0.07430727034807205 -0.002343652304261923
			vertex 0.04866956174373627 0.10107794404029846 -0.026169387623667717
		endloop
	endfacet
	facet normal -0.9496739384138224 0.15470731526033282 0.2723693398723865
		outer loop
			vertex 0.04463614523410797 0.09493164718151093 -0.036741625517606735
			vertex 0.04866956174373627 0.10107794404029846 -0.026169387623667717
			vertex 0.04484528303146362 0.09537804871797562 -0.03626598045229912
		endloop
	endfacet
	facet normal 1 0 0
		outer loop
			vertex 0.0555555522441864 0.07720696181058884 0.0036234878934919834
			vertex 0.0555555522441864 0.07627104967832565 0.004298614803701639
			vertex 0.0555555522441864 0.07555239647626877 0.0041863941587507725
		endloop
	endfacet
	facet normal 1 0 0
		outer loop
			vertex 0.0555555522441864 0.023089131340384483 -0.008287770673632622
			vertex 0.0555555522441864 0.1023595854640007 -0.036741625517606735
			vertex 0.0555555522441864 0.1023595854640007 -0.014520464465022087
		endloop
	endfacet
	facet normal 1 0 0
		outer loop
			vertex 0.0555555522441864 0.023089131340384483 -0.008287770673632622
			vertex 0.0555555522441864 0.1023595854640007 -0.014520464465022087
			vertex 0.0555555522441864 0.07720696181058884 0.0036234878934919834
		endloop
	endfacet
	facet normal 1 0 0
		outer loop
			vertex 0.0555555522441864 0.023089131340384483 -0.008287770673632622
			vertex 0.0555555522441864 0.07720696181058884 0.0036234878934919834
			vertex 0.0555555522441864 0.07555239647626877 0.0041863941587507725
		endloop
	endfacet
	facet normal 1 0 0
		outer loop
			vertex 0.0555555522441864 0.023089131340384483 -0.008287770673632622
			vertex 0.0555555522441864 0.07555239647626877 0.0041863941587507725
			vertex 0.0555555522441864 0.03461027890443802 -0.0022070682607591152
		endloop
	endfacet
	facet normal 1 0 0
		outer loop
			vertex 0.0555555522441864 0.0001972229511011392 -0.036741625517606735
			vertex 0.0555555522441864 0.1023595854640007 -0.036741625517606735
			vertex 0.0555555522441864 0.023089131340384483 -0.008287770673632622
		endloop
	endfacet
	facet normal 1 0 0
		outer loop
			vertex 0.0555555522441864 0.0001972229511011392 -0.036741625517606735
			vertex 0.0555555522441864 0.023089131340384483 -0.008287770673632622
			vertex 0.0555555522441864 0.02159023843705654 -0.009078873321413994
		endloop
	endfacet
	facet normal 1 0 0
		outer loop
			vertex 0.0555555522441864 0.0001972229511011392 -0.036741625517606735
			vertex 0.0555555522441864 0.02159023843705654 -0.009078873321413994
			vertex 0.0555555522441864 0.00133191654458642 -0.03387145325541496
		endloop
	endfacet
	facet normal 0 1 0
		outer loop
			vertex 0.0555555522441864 0.1023595854640007 -0.002888170536607504
			vertex 0.0555555522441864 0.1023595854640007 -0.004933831747621298
			vertex 0.05316118896007538 0.1023595854640007 -0.012469364330172539
		endloop
	endfacet
	facet normal 0 1 0
		outer loop
			vertex 0.0555555522441864 0.1023595854640007 -0.002888170536607504
			vertex 0.05316118896007538 0.1023595854640007 -0.012469364330172539
			vertex 0.05271579325199127 0.1023595854640007 -0.01278945617377758
		endloop
	endfacet
	facet normal 0 1 0
		outer loop
			vertex 0.0555555522441864 0.1023595854640007 -0.004933831747621298
			vertex 0.0555555522441864 0.1023595854640007 -0.010748593136668205
			vertex 0.05316118896007538 0.1023595854640007 -0.012469364330172539
		endloop
	endfacet
	facet normal 0 1 0
		outer loop
			vertex 0.05271579325199127 0.1023595854640007 -0.01278945617377758
			vertex 0.05316118896007538 0.1023595854640007 -0.012469364330172539
			vertex 0.049529463052749634 0.1023595854640007 -0.023899121209979057
		endloop
	endfacet
	facet normal 0 1 0
		outer loop
			vertex 0.0555555522441864 0.1023595854640007 -0.010748593136668205
			vertex 0.0555555522441864 0.1023595854640007 -0.014520464465022087
			vertex 0.04829984903335571 0.1023595854640007 -0.027768967673182487
		endloop
	endfacet
	facet normal 0 1 0
		outer loop
			vertex 0.0555555522441864 0.1023595854640007 -0.010748593136668205
			vertex 0.04829984903335571 0.1023595854640007 -0.027768967673182487
			vertex 0.05316118896007538 0.1023595854640007 -0.012469364330172539
		endloop
	endfacet
	facet normal 0 1 0
		outer loop
			vertex 0.04720386862754822 0.1023595854640007 -0.03121824376285076
			vertex 0.047824859619140625 0.1023595854640007 -0.03162894770503044
			vertex 0.04729340970516205 0.1023595854640007 -0.036741625517606735
		endloop
	endfacet
	facet normal 0 1 0
		outer loop
			vertex 0.04720386862754822 0.1023595854640007 -0.03121824376285076
			vertex 0.04729340970516205 0.1023595854640007 -0.036741625517606735
			vertex 0.04544885456562042 0.1023595854640007 -0.036741625517606735
		endloop
	endfacet
	facet normal 0 1 0
		outer loop
			vertex 0.047824859619140625 0.1023595854640007 -0.03162894770503044
			vertex 0.04720386862754822 0.1023595854640007 -0.03121824376285076
			vertex 0.04819019138813019 0.1023595854640007 -0.028114078566432
		endloop
	endfacet
	facet normal 0 1 0
		outer loop
			vertex 0.047824859619140625 0.1023595854640007 -0.03162894770503044
			vertex 0.0555555522441864 0.1023595854640007 -0.036741625517606735
			vertex 0.04729340970516205 0.1023595854640007 -0.036741625517606735
		endloop
	endfacet
	facet normal 0 1 0
		outer loop
			vertex 0.0555555522441864 0.1023595854640007 -0.014520464465022087
			vertex 0.0555555522441864 0.1023595854640007 -0.036741625517606735
			vertex 0.047824859619140625 0.1023595854640007 -0.03162894770503044
		endloop
	endfacet
	facet normal 0 1 0
		outer loop
			vertex 0.0555555522441864 0.1023595854640007 -0.014520464465022087
			vertex 0.047824859619140625 0.1023595854640007 -0.03162894770503044
			vertex 0.04819019138813019 0.1023595854640007 -0.028114078566432
		endloop
	endfacet
	facet normal 0 1 0
		outer loop
			vertex 0.0555555522441864 0.1023595854640007 -0.014520464465022087
			vertex 0.04819019138813019 0.1023595854640007 -0.028114078566432
			vertex 0.04829984903335571 0.1023595854640007 -0.027768967673182487
		endloop
	endfacet
	facet normal 0 0 -1
		outer loop
			vertex 0.044665127992630005 0.09510952979326248 -0.036741625517606735
			vertex 0.044650107622146606 0.0949706882238388 -0.036741625517606735
			vertex 0.04463614523410797 0.09493164718151093 -0.036741625517606735
		endloop
	endfacet
	facet normal 0 0 -1
		outer loop
			vertex 0.04544885456562042 0.1023595854640007 -0.036741625517606735
			vertex 0.04729340970516205 0.1023595854640007 -0.036741625517606735
			vertex 0.044650107622146606 0.0949706882238388 -0.036741625517606735
		endloop
	endfacet
	facet normal 0 0 -1
		outer loop
			vertex 0.03683915734291077 0.02841249667108059 -0.036741625517606735
			vertex 0.03637653589248657 0.029139867052435875 -0.036741625517606735
			vertex 0.036649495363235474 0.03129390627145767 -0.036741625517606735
		endloop
	endfacet
	facet normal 0 0 -1
		outer loop
			vertex 0.037365615367889404 0.027584796771407127 -0.036741625517606735
			vertex 0.03683915734291077 0.02841249667108059 -0.036741625517606735
			vertex 0.036410197615623474 0.03492923825979233 -0.036741625517606735
		endloop
	endfacet
	facet normal 0 0 -1
		outer loop
			vertex 0.037365615367889404 0.027584796771407127 -0.036741625517606735
			vertex 0.036410197615623474 0.03492923825979233 -0.036741625517606735
			vertex 0.03779411315917969 0.031548433005809784 -0.036741625517606735
		endloop
	endfacet
	facet normal 0 0 -1
		outer loop
			vertex 0.04463614523410797 0.09493164718151093 -0.036741625517606735
			vertex 0.044650107622146606 0.0949706882238388 -0.036741625517606735
			vertex 0.03779411315917969 0.031548433005809784 -0.036741625517606735
		endloop
	endfacet
	facet normal 0 0 -1
		outer loop
			vertex 0.04463614523410797 0.09493164718151093 -0.036741625517606735
			vertex 0.03779411315917969 0.031548433005809784 -0.036741625517606735
			vertex 0.035302579402923584 0.037635184824466705 -0.036741625517606735
		endloop
	endfacet
	facet normal 0 0 -1
		outer loop
			vertex 0.04311947524547577 0.018538614735007286 -0.036741625517606735
			vertex 0.037365615367889404 0.027584796771407127 -0.036741625517606735
			vertex 0.03779411315917969 0.031548433005809784 -0.036741625517606735
		endloop
	endfacet
	facet normal 0 0 -1
		outer loop
			vertex 0.0555555522441864 0.1023595854640007 -0.036741625517606735
			vertex 0.0555555522441864 0.0001972229511011392 -0.036741625517606735
			vertex 0.054006427526474 0.001422202680259943 -0.036741625517606735
		endloop
	endfacet
	facet normal 0 0 -1
		outer loop
			vertex 0.0555555522441864 0.1023595854640007 -0.036741625517606735
			vertex 0.054006427526474 0.001422202680259943 -0.036741625517606735
			vertex 0.04311947524547577 0.018538614735007286 -0.036741625517606735
		endloop
	endfacet
	facet normal 0 0 -1
		outer loop
			vertex 0.0555555522441864 0.1023595854640007 -0.036741625517606735
			vertex 0.04311947524547577 0.018538614735007286 -0.036741625517606735
			vertex 0.03779411315917969 0.031548433005809784 -0.036741625517606735
		endloop
	endfacet
	facet normal 0 0 -1
		outer loop
			vertex 0.0555555522441864 0.1023595854640007 -0.036741625517606735
			vertex 0.03779411315917969 0.031548433005809784 -0.036741625517606735
			vertex 0.044650107622146606 0.0949706882238388 -0.036741625517606735
		endloop
	endfacet
	facet normal 0 0 -1
		outer loop
			vertex 0.0555555522441864 0.1023595854640007 -0.036741625517606735
			vertex 0.044650107622146606 0.0949706882238388 -0.036741625517606735
			vertex 0.04729340970516205 0.1023595854640007 -0.036741625517606735
		endloop
	endfacet
endsolid exported
