solid exported
	facet normal -0.3727223306355592 -0.8988991499013117 -0.23034405256549642
		outer loop
			vertex -0.018350990489125252 -0.02776474319398403 0.036741625517606735
			vertex -0.04412667453289032 -0.010903156362473965 0.01264856569468975
			vertex -0.04296143352985382 -0.011334083043038845 0.012444732710719109
		endloop
	endfacet
	facet normal -0.37271384272665964 -0.8989002717540533 -0.23035340865812315
		outer loop
			vertex -0.018350990489125252 -0.02776474319398403 0.036741625517606735
			vertex -0.04296143352985382 -0.011334083043038845 0.012444732710719109
			vertex 0.007621286436915398 -0.038533709943294525 0.036741625517606735
		endloop
	endfacet
	facet normal -0.38234388264666064 -0.8976497010433441 -0.21917611553148716
		outer loop
			vertex -0.04412667453289032 -0.010903156362473965 0.01264856569468975
			vertex -0.018350990489125252 -0.02776474319398403 0.036741625517606735
			vertex -0.038202956318855286 -0.019309019669890404 0.036741625517606735
		endloop
	endfacet
	facet normal -0.38234028465553094 -0.897650914213846 -0.21917742342808597
		outer loop
			vertex -0.04412667453289032 -0.010903156362473965 0.01264856569468975
			vertex -0.038202956318855286 -0.019309019669890404 0.036741625517606735
			vertex -0.04526706039905548 -0.01047887559980154 0.012900231406092644
		endloop
	endfacet
	facet normal -0.18247382121239888 -0.8216754023009896 -0.539956329554208
		outer loop
			vertex 0.0555555522441864 -0.045971550047397614 0.03186112269759178
			vertex 0.0555555522441864 -0.049178726971149445 0.036741625517606735
			vertex 0.007621286436915398 -0.038533709943294525 0.036741625517606735
		endloop
	endfacet
	facet normal -0.18247382127744513 -0.8216756966022439 -0.539955881680739
		outer loop
			vertex 0.0555555522441864 -0.045971550047397614 0.03186112269759178
			vertex 0.007621286436915398 -0.038533709943294525 0.036741625517606735
			vertex -0.04296143352985382 -0.011334083043038845 0.012444732710719109
		endloop
	endfacet
	facet normal -0.545147291234408 -0.8258218933803383 -0.14433513527031827
		outer loop
			vertex -0.055555567145347595 -0.007854095660150051 0.036741625517606735
			vertex -0.055555567145347595 -0.006089112255722284 0.026643170043826103
			vertex -0.04526706039905548 -0.01047887559980154 0.012900231406092644
		endloop
	endfacet
	facet normal -0.5451472236394663 -0.8258219440752842 -0.14433510051924262
		outer loop
			vertex -0.055555567145347595 -0.007854095660150051 0.036741625517606735
			vertex -0.04526706039905548 -0.01047887559980154 0.012900231406092644
			vertex -0.038202956318855286 -0.019309019669890404 0.036741625517606735
		endloop
	endfacet
	facet normal 1 0 0
		outer loop
			vertex 0.0555555522441864 -0.04573250561952591 0.036741625517606735
			vertex 0.0555555522441864 -0.049178726971149445 0.036741625517606735
			vertex 0.0555555522441864 -0.045971550047397614 0.03186112269759178
		endloop
	endfacet
	facet normal -0.5073991762138634 -0.7747760561552746 -0.3771844890580365
		outer loop
			vertex -0.055555567145347595 -0.00008467448787996545 0.004227546509355307
			vertex -0.045807018876075745 -0.00980392750352621 0.01107787899672985
			vertex -0.055555567145347595 -0.003340131137520075 0.010914592072367668
		endloop
	endfacet
	facet normal -0.3727221808359144 -0.8988997643011282 -0.23034189730115556
		outer loop
			vertex -0.04412667453289032 -0.010903156362473965 0.01264856569468975
			vertex -0.045807018876075745 -0.00980392750352621 0.01107787899672985
			vertex -0.04296143352985382 -0.011334083043038845 0.012444732710719109
		endloop
	endfacet
	facet normal -0.3823403596779462 -0.8976507188224897 -0.21917809278941758
		outer loop
			vertex -0.045807018876075745 -0.00980392750352621 0.01107787899672985
			vertex -0.04412667453289032 -0.010903156362473965 0.01264856569468975
			vertex -0.04526706039905548 -0.01047887559980154 0.012900231406092644
		endloop
	endfacet
	facet normal -0.18247163923306328 -0.8216725704239728 -0.5399613762932125
		outer loop
			vertex 0.0555555522441864 -0.045971550047397614 0.03186112269759178
			vertex -0.04296143352985382 -0.011334083043038845 0.012444732710719109
			vertex -0.045807018876075745 -0.00980392750352621 0.01107787899672985
		endloop
	endfacet
	facet normal -0.18247403007573681 -0.8216758974026146 -0.53995550555164
		outer loop
			vertex 0.0555555522441864 -0.045971550047397614 0.03186112269759178
			vertex -0.045807018876075745 -0.00980392750352621 0.01107787899672985
			vertex -0.020076872780919075 -0.009597144089639187 0.002067891415208578
		endloop
	endfacet
	facet normal -0.18247381045257655 -0.8216757211818505 -0.5399558479349986
		outer loop
			vertex 0.0555555522441864 -0.045971550047397614 0.03186112269759178
			vertex -0.020076872780919075 -0.009597144089639187 0.002067891415208578
			vertex 0.0555555522441864 -0.032813794910907745 0.011838359758257866
		endloop
	endfacet
	facet normal -0.5451459045753513 -0.8258226377185539 -0.14433611383258219
		outer loop
			vertex -0.055555567145347595 -0.003340131137520075 0.010914592072367668
			vertex -0.045807018876075745 -0.00980392750352621 0.01107787899672985
			vertex -0.04526706039905548 -0.01047887559980154 0.012900231406092644
		endloop
	endfacet
	facet normal -0.545146326755237 -0.8258227013626737 -0.14433415513775336
		outer loop
			vertex -0.055555567145347595 -0.003340131137520075 0.010914592072367668
			vertex -0.04526706039905548 -0.01047887559980154 0.012900231406092644
			vertex -0.055555567145347595 -0.006089112255722284 0.026643170043826103
		endloop
	endfacet
	facet normal -0.2276010139073893 -0.7101317054231869 -0.6662662676596232
		outer loop
			vertex -0.020076872780919075 -0.009597144089639187 0.002067891415208578
			vertex -0.045807018876075745 -0.00980392750352621 0.01107787899672985
			vertex -0.04459671676158905 -0.0019633383490145206 0.002307636197656393
		endloop
	endfacet
	facet normal -0.2378729111828308 -0.7075747913166279 -0.6653979206599879
		outer loop
			vertex -0.055555567145347595 0.0014540641568601131 0.002591294702142477
			vertex -0.04459671676158905 -0.0019633383490145206 0.002307636197656393
			vertex -0.045807018876075745 -0.00980392750352621 0.01107787899672985
		endloop
	endfacet
	facet normal -0.23786445488317784 -0.7075719917564608 -0.6654039206263545
		outer loop
			vertex -0.055555567145347595 0.0014540641568601131 0.002591294702142477
			vertex -0.045807018876075745 -0.00980392750352621 0.01107787899672985
			vertex -0.055555567145347595 -0.00008467448787996545 0.004227546509355307
		endloop
	endfacet
	facet normal 1 0 0
		outer loop
			vertex 0.0555555522441864 -0.041023142635822296 0.036741625517606735
			vertex 0.0555555522441864 -0.04573250561952591 0.036741625517606735
			vertex 0.0555555522441864 -0.045971550047397614 0.03186112269759178
		endloop
	endfacet
	facet normal 1 0 0
		outer loop
			vertex 0.0555555522441864 -0.041023142635822296 0.036741625517606735
			vertex 0.0555555522441864 -0.045971550047397614 0.03186112269759178
			vertex 0.0555555522441864 -0.032813794910907745 0.011838359758257866
		endloop
	endfacet
	facet normal 1 0 0
		outer loop
			vertex 0.0555555522441864 -0.041023142635822296 0.036741625517606735
			vertex 0.0555555522441864 -0.032813794910907745 0.011838359758257866
			vertex 0.0555555522441864 -0.032400794327259064 0.024986980482935905
		endloop
	endfacet
	facet normal 1 0 0
		outer loop
			vertex 0.0555555522441864 -0.03203155845403671 0.036741625517606735
			vertex 0.0555555522441864 -0.041023142635822296 0.036741625517606735
			vertex 0.0555555522441864 -0.032400794327259064 0.024986980482935905
		endloop
	endfacet
	facet normal -0.18247764392723995 -0.82167815908022 -0.5399508425378221
		outer loop
			vertex 0.0555555522441864 -0.03182756155729294 0.010337544605135918
			vertex 0.0555555522441864 -0.032813794910907745 0.011838359758257866
			vertex 0.054383665323257446 -0.03245406597852707 0.011686978861689568
		endloop
	endfacet
	facet normal 1 0 0
		outer loop
			vertex 0.0555555522441864 -0.03276868909597397 0.013274399563670158
			vertex 0.0555555522441864 -0.032813794910907745 0.011838359758257866
			vertex 0.0555555522441864 -0.03276223689317703 0.011759890243411064
		endloop
	endfacet
	facet normal 1 0 0
		outer loop
			vertex 0.0555555522441864 -0.03276868909597397 0.013274399563670158
			vertex 0.0555555522441864 -0.03276223689317703 0.011759890243411064
			vertex 0.0555555522441864 -0.03222111612558365 0.011565668508410454
		endloop
	endfacet
	facet normal 1 0 0
		outer loop
			vertex 0.0555555522441864 -0.03182756155729294 0.010337544605135918
			vertex 0.0555555522441864 -0.03222111612558365 0.011565668508410454
			vertex 0.0555555522441864 -0.03276223689317703 0.011759890243411064
		endloop
	endfacet
	facet normal -0.1824842956991012 -0.8216741185510783 -0.539954743220681
		outer loop
			vertex 0.0555555522441864 -0.008989310823380947 -0.024416478350758553
			vertex 0.0555555522441864 -0.03182756155729294 0.010337544605135918
			vertex 0.054383665323257446 -0.03245406597852707 0.011686978861689568
		endloop
	endfacet
	facet normal -0.1824738633889394 -0.8216758979342536 -0.53995556107318
		outer loop
			vertex 0.0555555522441864 -0.008989310823380947 -0.024416478350758553
			vertex 0.054383665323257446 -0.03245406597852707 0.011686978861689568
			vertex -0.020076872780919075 -0.009597144089639187 0.002067891415208578
		endloop
	endfacet
	facet normal -0.2276011158206661 -0.7101320092205897 -0.6662659090464678
		outer loop
			vertex -0.03920792043209076 0.03294669836759567 -0.03674163296818733
			vertex 0.0555555522441864 0.0025744973681867123 -0.03674163296818733
			vertex 0.0555555522441864 -0.008989310823380947 -0.024416478350758553
		endloop
	endfacet
	facet normal -0.227600862295328 -0.7101315923617828 -0.6662664399563751
		outer loop
			vertex -0.03920792043209076 0.03294669836759567 -0.03674163296818733
			vertex 0.0555555522441864 -0.008989310823380947 -0.024416478350758553
			vertex -0.020076872780919075 -0.009597144089639187 0.002067891415208578
		endloop
	endfacet
	facet normal -0.2276009825232516 -0.7101316007775499 -0.6662663899158994
		outer loop
			vertex -0.03920792043209076 0.03294669836759567 -0.03674163296818733
			vertex -0.020076872780919075 -0.009597144089639187 0.002067891415208578
			vertex -0.04459671676158905 -0.0019633383490145206 0.002307636197656393
		endloop
	endfacet
	facet normal -0.23787269238807784 -0.7075747406106421 -0.6653980527968425
		outer loop
			vertex -0.055555567145347595 0.0384424552321434 -0.03674163296818733
			vertex -0.03920792043209076 0.03294669836759567 -0.03674163296818733
			vertex -0.04459671676158905 -0.0019633383490145206 0.002307636197656393
		endloop
	endfacet
	facet normal -0.23787289480993162 -0.7075747331965513 -0.6653979883171971
		outer loop
			vertex -0.055555567145347595 0.0384424552321434 -0.03674163296818733
			vertex -0.04459671676158905 -0.0019633383490145206 0.002307636197656393
			vertex -0.055555567145347595 0.0014540641568601131 0.002591294702142477
		endloop
	endfacet
	facet normal 1 0 0
		outer loop
			vertex 0.0555555522441864 -0.032400794327259064 0.024986980482935905
			vertex 0.0555555522441864 -0.03276868909597397 0.013274399563670158
			vertex 0.0555555522441864 -0.03222111612558365 0.011565668508410454
		endloop
	endfacet
	facet normal 1 0 0
		outer loop
			vertex 0.0555555522441864 -0.032400794327259064 0.024986980482935905
			vertex 0.0555555522441864 -0.03222111612558365 0.011565668508410454
			vertex 0.0555555522441864 -0.01910153590142727 0.006856454070657492
		endloop
	endfacet
	facet normal 1 0 0
		outer loop
			vertex 0.0555555522441864 0.0025744973681867123 -0.03674163296818733
			vertex 0.0555555522441864 0.012878798879683018 -0.03674163296818733
			vertex 0.0555555522441864 -0.01910153590142727 0.006856454070657492
		endloop
	endfacet
	facet normal 1 0 0
		outer loop
			vertex 0.0555555522441864 0.0025744973681867123 -0.03674163296818733
			vertex 0.0555555522441864 -0.01910153590142727 0.006856454070657492
			vertex 0.0555555522441864 -0.03222111612558365 0.011565668508410454
		endloop
	endfacet
	facet normal 1 0 0
		outer loop
			vertex 0.0555555522441864 0.0025744973681867123 -0.03674163296818733
			vertex 0.0555555522441864 -0.03222111612558365 0.011565668508410454
			vertex 0.0555555522441864 -0.03182756155729294 0.010337544605135918
		endloop
	endfacet
	facet normal 1 0 0
		outer loop
			vertex 0.0555555522441864 0.0025744973681867123 -0.03674163296818733
			vertex 0.0555555522441864 -0.03182756155729294 0.010337544605135918
			vertex 0.0555555522441864 -0.008989310823380947 -0.024416478350758553
		endloop
	endfacet
	facet normal 1 0 0
		outer loop
			vertex 0.0555555522441864 0.014283576048910618 -0.03674163296818733
			vertex 0.0555555522441864 0.01527013722807169 -0.03674163296818733
			vertex 0.0555555522441864 0.01521239522844553 -0.03668500855565071
		endloop
	endfacet
	facet normal 1 0 0
		outer loop
			vertex 0.0555555522441864 0.014473476447165012 -0.036730069667100906
			vertex 0.0555555522441864 0.01521239522844553 -0.03668500855565071
			vertex 0.0555555522441864 0.013952010311186314 -0.035449374467134476
		endloop
	endfacet
	facet normal 1 0 0
		outer loop
			vertex 0.0555555522441864 0.012878798879683018 -0.03674163296818733
			vertex 0.0555555522441864 0.014283576048910618 -0.03674163296818733
			vertex 0.0555555522441864 0.014473476447165012 -0.036730069667100906
		endloop
	endfacet
	facet normal 1 0 0
		outer loop
			vertex 0.0555555522441864 0.012878798879683018 -0.03674163296818733
			vertex 0.0555555522441864 0.014473476447165012 -0.036730069667100906
			vertex 0.0555555522441864 0.013952010311186314 -0.035449374467134476
		endloop
	endfacet
	facet normal 1 0 0
		outer loop
			vertex 0.0555555522441864 0.012878798879683018 -0.03674163296818733
			vertex 0.0555555522441864 0.013952010311186314 -0.035449374467134476
			vertex 0.0555555522441864 0.006756195332854986 -0.02839483506977558
		endloop
	endfacet
	facet normal 1 0 0
		outer loop
			vertex 0.0555555522441864 0.01527013722807169 -0.03674163296818733
			vertex 0.0555555522441864 0.057670362293720245 -0.03674163296818733
			vertex 0.0555555522441864 0.056470222771167755 -0.03417052701115608
		endloop
	endfacet
	facet normal 1 0 0
		outer loop
			vertex 0.0555555522441864 0.01527013722807169 -0.03674163296818733
			vertex 0.0555555522441864 0.056470222771167755 -0.03417052701115608
			vertex 0.0555555522441864 0.01521239522844553 -0.03668500855565071
		endloop
	endfacet
	facet normal 1 0 0
		outer loop
			vertex 0.0555555522441864 0.023369276896119118 0.036741625517606735
			vertex 0.0555555522441864 -0.03203155845403671 0.036741625517606735
			vertex 0.0555555522441864 -0.032400794327259064 0.024986980482935905
		endloop
	endfacet
	facet normal 1 0 0
		outer loop
			vertex 0.0555555522441864 0.023369276896119118 0.036741625517606735
			vertex 0.0555555522441864 -0.032400794327259064 0.024986980482935905
			vertex 0.0555555522441864 -0.01910153590142727 0.006856454070657492
		endloop
	endfacet
	facet normal 1 0 0
		outer loop
			vertex 0.0555555522441864 0.023369276896119118 0.036741625517606735
			vertex 0.0555555522441864 -0.01910153590142727 0.006856454070657492
			vertex 0.0555555522441864 0.04867548495531082 -0.017471911385655403
		endloop
	endfacet
	facet normal 1 0 0
		outer loop
			vertex 0.0555555522441864 0.056470222771167755 -0.03417052701115608
			vertex 0.0555555522441864 0.04867548495531082 -0.017471911385655403
			vertex 0.0555555522441864 -0.01910153590142727 0.006856454070657492
		endloop
	endfacet
	facet normal 1 0 0
		outer loop
			vertex 0.0555555522441864 0.056470222771167755 -0.03417052701115608
			vertex 0.0555555522441864 -0.01910153590142727 0.006856454070657492
			vertex 0.0555555522441864 0.006756195332854986 -0.02839483506977558
		endloop
	endfacet
	facet normal 1 0 0
		outer loop
			vertex 0.0555555522441864 0.056470222771167755 -0.03417052701115608
			vertex 0.0555555522441864 0.006756195332854986 -0.02839483506977558
			vertex 0.0555555522441864 0.01521239522844553 -0.03668500855565071
		endloop
	endfacet
	facet normal 0 1 0
		outer loop
			vertex -0.055555567145347595 0.10202724486589432 0.036741625517606735
			vertex -0.03459407389163971 0.10202724486589432 0.036741625517606735
			vertex -0.055555567145347595 0.10202724486589432 0.007715878542512655
		endloop
	endfacet
	facet normal 0 1 0
		outer loop
			vertex -0.055555567145347595 0.10202724486589432 -0.03674163296818733
			vertex -0.055555567145347595 0.10202724486589432 -0.031238960102200508
			vertex -0.05475880205631256 0.10202724486589432 -0.029968516901135445
		endloop
	endfacet
	facet normal 0 1 0
		outer loop
			vertex -0.055555567145347595 0.10202724486589432 -0.03674163296818733
			vertex -0.05475880205631256 0.10202724486589432 -0.029968516901135445
			vertex -0.054375872015953064 0.10202724486589432 -0.03674163296818733
		endloop
	endfacet
	facet normal 0 1 0
		outer loop
			vertex -0.03804941475391388 0.10202724486589432 -0.03674163296818733
			vertex 0.00046129358815960586 0.10202724486589432 0.036741625517606735
			vertex 0.0555555522441864 0.10202724486589432 0.036741625517606735
		endloop
	endfacet
	facet normal 0 1 0
		outer loop
			vertex -0.03804941475391388 0.10202724486589432 -0.03674163296818733
			vertex 0.0555555522441864 0.10202724486589432 0.036741625517606735
			vertex 0.0555555522441864 0.10202724486589432 -0.03674163296818733
		endloop
	endfacet
	facet normal 0 1 0
		outer loop
			vertex -0.012920843437314034 0.10202724486589432 0.036741625517606735
			vertex 0.00046129358815960586 0.10202724486589432 0.036741625517606735
			vertex -0.03804941475391388 0.10202724486589432 -0.03674163296818733
		endloop
	endfacet
	facet normal 0 1 0
		outer loop
			vertex -0.012920843437314034 0.10202724486589432 0.036741625517606735
			vertex -0.03804941475391388 0.10202724486589432 -0.03674163296818733
			vertex -0.054375872015953064 0.10202724486589432 -0.03674163296818733
		endloop
	endfacet
	facet normal 0 1 0
		outer loop
			vertex -0.012920843437314034 0.10202724486589432 0.036741625517606735
			vertex -0.054375872015953064 0.10202724486589432 -0.03674163296818733
			vertex -0.05475880205631256 0.10202724486589432 -0.029968516901135445
		endloop
	endfacet
	facet normal 1 0 0
		outer loop
			vertex 0.0555555522441864 0.07407207041978836 0.036741625517606735
			vertex 0.0555555522441864 0.023369276896119118 0.036741625517606735
			vertex 0.0555555522441864 0.04867548495531082 -0.017471911385655403
		endloop
	endfacet
	facet normal 1 0 0
		outer loop
			vertex 0.0555555522441864 0.07407207041978836 0.036741625517606735
			vertex 0.0555555522441864 0.04867548495531082 -0.017471911385655403
			vertex 0.0555555522441864 0.07002580910921097 -0.02513553388416767
		endloop
	endfacet
	facet normal 1 0 0
		outer loop
			vertex 0.0555555522441864 0.057670362293720245 -0.03674163296818733
			vertex 0.0555555522441864 0.06926686316728592 -0.03674163296818733
			vertex 0.0555555522441864 0.07002580910921097 -0.02513553388416767
		endloop
	endfacet
	facet normal 1 0 0
		outer loop
			vertex 0.0555555522441864 0.057670362293720245 -0.03674163296818733
			vertex 0.0555555522441864 0.07002580910921097 -0.02513553388416767
			vertex 0.0555555522441864 0.04867548495531082 -0.017471911385655403
		endloop
	endfacet
	facet normal 1 0 0
		outer loop
			vertex 0.0555555522441864 0.10202724486589432 0.036741625517606735
			vertex 0.0555555522441864 0.07407207041978836 0.036741625517606735
			vertex 0.0555555522441864 0.07002580910921097 -0.02513553388416767
		endloop
	endfacet
	facet normal 1 0 0
		outer loop
			vertex 0.0555555522441864 0.10202724486589432 0.036741625517606735
			vertex 0.0555555522441864 0.07002580910921097 -0.02513553388416767
			vertex 0.0555555522441864 0.09398020058870316 -0.03373389318585396
		endloop
	endfacet
	facet normal 1 0 0
		outer loop
			vertex 0.0555555522441864 0.10202724486589432 0.036741625517606735
			vertex 0.0555555522441864 0.09398020058870316 -0.03373389318585396
			vertex 0.0555555522441864 0.10202724486589432 -0.0041976445354521275
		endloop
	endfacet
	facet normal 1 0 0
		outer loop
			vertex 0.0555555522441864 0.06926686316728592 -0.03674163296818733
			vertex 0.0555555522441864 0.09316075593233109 -0.03674163296818733
			vertex 0.0555555522441864 0.09398020058870316 -0.03373389318585396
		endloop
	endfacet
	facet normal 1 0 0
		outer loop
			vertex 0.0555555522441864 0.06926686316728592 -0.03674163296818733
			vertex 0.0555555522441864 0.09398020058870316 -0.03373389318585396
			vertex 0.0555555522441864 0.07002580910921097 -0.02513553388416767
		endloop
	endfacet
	facet normal 1 0 0
		outer loop
			vertex 0.0555555522441864 0.09600488096475601 -0.03446062281727791
			vertex 0.0555555522441864 0.10202724486589432 -0.03662233427166939
			vertex 0.0555555522441864 0.10202724486589432 -0.03408600762486458
		endloop
	endfacet
	facet normal 1 0 0
		outer loop
			vertex 0.0555555522441864 0.09316075593233109 -0.03674163296818733
			vertex 0.0555555522441864 0.10202724486589432 -0.03674163296818733
			vertex 0.0555555522441864 0.10202724486589432 -0.03662233427166939
		endloop
	endfacet
	facet normal 1 0 0
		outer loop
			vertex 0.0555555522441864 0.09316075593233109 -0.03674163296818733
			vertex 0.0555555522441864 0.10202724486589432 -0.03662233427166939
			vertex 0.0555555522441864 0.09600488096475601 -0.03446062281727791
		endloop
	endfacet
	facet normal 1 0 0
		outer loop
			vertex 0.0555555522441864 0.09316075593233109 -0.03674163296818733
			vertex 0.0555555522441864 0.09600488096475601 -0.03446062281727791
			vertex 0.0555555522441864 0.09374386817216873 -0.03460125997662544
		endloop
	endfacet
	facet normal 1 0 0
		outer loop
			vertex 0.0555555522441864 0.09398020058870316 -0.03373389318585396
			vertex 0.0555555522441864 0.09600488096475601 -0.03446062281727791
			vertex 0.0555555522441864 0.10202724486589432 -0.03408600762486458
		endloop
	endfacet
	facet normal 1 0 0
		outer loop
			vertex 0.0555555522441864 0.09398020058870316 -0.03373389318585396
			vertex 0.0555555522441864 0.10202724486589432 -0.03408600762486458
			vertex 0.0555555522441864 0.10202724486589432 -0.0041976445354521275
		endloop
	endfacet
	facet normal 1 0 0
		outer loop
			vertex 0.0555555522441864 0.09600488096475601 -0.03446062281727791
			vertex 0.0555555522441864 0.09398020058870316 -0.03373389318585396
			vertex 0.0555555522441864 0.09374386817216873 -0.03460125997662544
		endloop
	endfacet
	facet normal 0 1 0
		outer loop
			vertex -0.055555567145347595 0.10202724486589432 -0.01587568409740925
			vertex -0.05475880205631256 0.10202724486589432 -0.029968516901135445
			vertex -0.055555567145347595 0.10202724486589432 -0.031238960102200508
		endloop
	endfacet
	facet normal 0 1 0
		outer loop
			vertex -0.055555567145347595 0.10202724486589432 0.007715878542512655
			vertex -0.03459407389163971 0.10202724486589432 0.036741625517606735
			vertex -0.012920843437314034 0.10202724486589432 0.036741625517606735
		endloop
	endfacet
	facet normal 0 1 0
		outer loop
			vertex -0.055555567145347595 0.10202724486589432 0.007715878542512655
			vertex -0.012920843437314034 0.10202724486589432 0.036741625517606735
			vertex -0.05475880205631256 0.10202724486589432 -0.029968516901135445
		endloop
	endfacet
	facet normal 0 1 0
		outer loop
			vertex -0.055555567145347595 0.10202724486589432 0.007715878542512655
			vertex -0.05475880205631256 0.10202724486589432 -0.029968516901135445
			vertex -0.055555567145347595 0.10202724486589432 -0.01587568409740925
		endloop
	endfacet
	facet normal -1 0 0
		outer loop
			vertex -0.055555567145347595 -0.007854095660150051 0.036741625517606735
			vertex -0.055555567145347595 -0.005594498012214899 0.036741625517606735
			vertex -0.055555567145347595 -0.006089112255722284 0.026643170043826103
		endloop
	endfacet
	facet normal -1 0 0
		outer loop
			vertex -0.055555567145347595 -0.005594498012214899 0.036741625517606735
			vertex -0.055555567145347595 0.0025267689488828182 0.036741625517606735
			vertex -0.055555567145347595 0.0014540641568601131 0.002591294702142477
		endloop
	endfacet
	facet normal -1 0 0
		outer loop
			vertex -0.055555567145347595 -0.005594498012214899 0.036741625517606735
			vertex -0.055555567145347595 0.0014540641568601131 0.002591294702142477
			vertex -0.055555567145347595 -0.00008467448787996545 0.004227546509355307
		endloop
	endfacet
	facet normal -1 0 0
		outer loop
			vertex -0.055555567145347595 -0.005594498012214899 0.036741625517606735
			vertex -0.055555567145347595 -0.00008467448787996545 0.004227546509355307
			vertex -0.055555567145347595 -0.003340131137520075 0.010914592072367668
		endloop
	endfacet
	facet normal -1 0 0
		outer loop
			vertex -0.055555567145347595 -0.005594498012214899 0.036741625517606735
			vertex -0.055555567145347595 -0.003340131137520075 0.010914592072367668
			vertex -0.055555567145347595 -0.006089112255722284 0.026643170043826103
		endloop
	endfacet
	facet normal -1 0 0
		outer loop
			vertex -0.055555567145347595 0.04204092174768448 -0.03674163296818733
			vertex -0.055555567145347595 0.0384424552321434 -0.03674163296818733
			vertex -0.055555567145347595 0.0029089688323438168 0.0010441667400300503
		endloop
	endfacet
	facet normal -1 0 0
		outer loop
			vertex -0.055555567145347595 0.04204092174768448 -0.03674163296818733
			vertex -0.055555567145347595 0.0029089688323438168 0.0010441667400300503
			vertex -0.055555567145347595 0.011775502003729343 0.0042267716489732265
		endloop
	endfacet
	facet normal -1 0 0
		outer loop
			vertex -0.055555567145347595 0.011775502003729343 0.0042267716489732265
			vertex -0.055555567145347595 0.0029089688323438168 0.0010441667400300503
			vertex -0.055555567145347595 0.0014540641568601131 0.002591294702142477
		endloop
	endfacet
	facet normal -1 0 0
		outer loop
			vertex -0.055555567145347595 0.011775502003729343 0.0042267716489732265
			vertex -0.055555567145347595 0.0014540641568601131 0.002591294702142477
			vertex -0.055555567145347595 0.0019243001006543636 0.0175617765635252
		endloop
	endfacet
	facet normal -1 0 0
		outer loop
			vertex -0.055555567145347595 0.063143290579319 -0.03674163296818733
			vertex -0.055555567145347595 0.04204092174768448 -0.03674163296818733
			vertex -0.055555567145347595 0.011775502003729343 0.0042267716489732265
		endloop
	endfacet
	facet normal -1 0 0
		outer loop
			vertex -0.055555567145347595 0.063143290579319 -0.03674163296818733
			vertex -0.055555567145347595 0.011775502003729343 0.0042267716489732265
			vertex -0.055555567145347595 0.0286491010338068 0.010283512994647026
		endloop
	endfacet
	facet normal -1 0 0
		outer loop
			vertex -0.055555567145347595 0.0025267689488828182 0.036741625517606735
			vertex -0.055555567145347595 0.009241350926458836 0.036741625517606735
			vertex -0.055555567145347595 0.0286491010338068 0.010283512994647026
		endloop
	endfacet
	facet normal -1 0 0
		outer loop
			vertex -0.055555567145347595 0.0025267689488828182 0.036741625517606735
			vertex -0.055555567145347595 0.0286491010338068 0.010283512994647026
			vertex -0.055555567145347595 0.011775502003729343 0.0042267716489732265
		endloop
	endfacet
	facet normal -1 0 0
		outer loop
			vertex -0.055555567145347595 0.0025267689488828182 0.036741625517606735
			vertex -0.055555567145347595 0.011775502003729343 0.0042267716489732265
			vertex -0.055555567145347595 0.0019243001006543636 0.0175617765635252
		endloop
	endfacet
	facet normal -1 0 0
		outer loop
			vertex -0.055555567145347595 0.08688465505838394 -0.03674163296818733
			vertex -0.055555567145347595 0.063143290579319 -0.03674163296818733
			vertex -0.055555567145347595 0.0286491010338068 0.010283512994647026
		endloop
	endfacet
	facet normal -1 0 0
		outer loop
			vertex -0.055555567145347595 0.08688465505838394 -0.03674163296818733
			vertex -0.055555567145347595 0.0286491010338068 0.010283512994647026
			vertex -0.055555567145347595 0.059726782143116 0.021438730880618095
		endloop
	endfacet
	facet normal -1 0 0
		outer loop
			vertex -0.055555567145347595 0.009241350926458836 0.036741625517606735
			vertex -0.055555567145347595 0.05258358269929886 0.036741625517606735
			vertex -0.055555567145347595 0.059726782143116 0.021438730880618095
		endloop
	endfacet
	facet normal -1 0 0
		outer loop
			vertex -0.055555567145347595 0.009241350926458836 0.036741625517606735
			vertex -0.055555567145347595 0.059726782143116 0.021438730880618095
			vertex -0.055555567145347595 0.0286491010338068 0.010283512994647026
		endloop
	endfacet
	facet normal -1 0 0
		outer loop
			vertex -0.055555567145347595 0.06710443645715714 0.005633530672639608
			vertex -0.055555567145347595 0.059726782143116 0.021438730880618095
			vertex -0.055555567145347595 0.10202724486589432 0.036622341722249985
		endloop
	endfacet
	facet normal -1 0 0
		outer loop
			vertex -0.055555567145347595 0.06710443645715714 0.005633530672639608
			vertex -0.055555567145347595 0.10202724486589432 0.036622341722249985
			vertex -0.055555567145347595 0.10202724486589432 0.007715878542512655
		endloop
	endfacet
	facet normal -1 0 0
		outer loop
			vertex -0.055555567145347595 0.05258358269929886 0.036741625517606735
			vertex -0.055555567145347595 0.10202724486589432 0.036741625517606735
			vertex -0.055555567145347595 0.10202724486589432 0.036622341722249985
		endloop
	endfacet
	facet normal -1 0 0
		outer loop
			vertex -0.055555567145347595 0.05258358269929886 0.036741625517606735
			vertex -0.055555567145347595 0.10202724486589432 0.036622341722249985
			vertex -0.055555567145347595 0.059726782143116 0.021438730880618095
		endloop
	endfacet
	facet normal -1 0 0
		outer loop
			vertex -0.055555567145347595 0.10202724486589432 -0.03674163296818733
			vertex -0.055555567145347595 0.08688465505838394 -0.03674163296818733
			vertex -0.055555567145347595 0.08442927151918411 -0.031481433659791946
		endloop
	endfacet
	facet normal -1 0 0
		outer loop
			vertex -0.055555567145347595 0.10202724486589432 -0.03674163296818733
			vertex -0.055555567145347595 0.08442927151918411 -0.031481433659791946
			vertex -0.055555567145347595 0.10202724486589432 -0.031238960102200508
		endloop
	endfacet
	facet normal -1 0 0
		outer loop
			vertex -0.055555567145347595 0.08442927151918411 -0.031481433659791946
			vertex -0.055555567145347595 0.06710443645715714 0.005633530672639608
			vertex -0.055555567145347595 0.10202724486589432 0.007715878542512655
		endloop
	endfacet
	facet normal -1 0 0
		outer loop
			vertex -0.055555567145347595 0.08442927151918411 -0.031481433659791946
			vertex -0.055555567145347595 0.10202724486589432 0.007715878542512655
			vertex -0.055555567145347595 0.10202724486589432 -0.031238960102200508
		endloop
	endfacet
	facet normal 0 0 1
		outer loop
			vertex -0.055555567145347595 -0.005594498012214899 0.036741625517606735
			vertex -0.055555567145347595 -0.007854095660150051 0.036741625517606735
			vertex -0.038202956318855286 -0.019309019669890404 0.036741625517606735
		endloop
	endfacet
	facet normal 0 0 1
		outer loop
			vertex -0.055555567145347595 -0.005594498012214899 0.036741625517606735
			vertex -0.038202956318855286 -0.019309019669890404 0.036741625517606735
			vertex -0.018350990489125252 -0.02776474319398403 0.036741625517606735
		endloop
	endfacet
	facet normal 0 0 1
		outer loop
			vertex -0.055555567145347595 -0.005594498012214899 0.036741625517606735
			vertex -0.018350990489125252 -0.02776474319398403 0.036741625517606735
			vertex -0.015672149136662483 -0.028875475749373436 0.036741625517606735
		endloop
	endfacet
	facet normal 0 0 1
		outer loop
			vertex -0.055555567145347595 -0.005594498012214899 0.036741625517606735
			vertex -0.015672149136662483 -0.028875475749373436 0.036741625517606735
			vertex -0.01164555735886097 -0.021456634625792503 0.036741625517606735
		endloop
	endfacet
	facet normal 0 0 1
		outer loop
			vertex 0.0555555522441864 -0.049178726971149445 0.036741625517606735
			vertex 0.0555555522441864 -0.04573250561952591 0.036741625517606735
			vertex -0.01164555735886097 -0.021456634625792503 0.036741625517606735
		endloop
	endfacet
	facet normal 0 0 1
		outer loop
			vertex 0.0555555522441864 -0.049178726971149445 0.036741625517606735
			vertex -0.01164555735886097 -0.021456634625792503 0.036741625517606735
			vertex -0.015672149136662483 -0.028875475749373436 0.036741625517606735
		endloop
	endfacet
	facet normal 0 0 1
		outer loop
			vertex 0.0555555522441864 -0.049178726971149445 0.036741625517606735
			vertex -0.015672149136662483 -0.028875475749373436 0.036741625517606735
			vertex 0.007621286436915398 -0.038533709943294525 0.036741625517606735
		endloop
	endfacet
	facet normal 0 0 1
		outer loop
			vertex -0.055555567145347595 0.0025267689488828182 0.036741625517606735
			vertex -0.055555567145347595 -0.005594498012214899 0.036741625517606735
			vertex -0.01164555735886097 -0.021456634625792503 0.036741625517606735
		endloop
	endfacet
	facet normal 0 0 1
		outer loop
			vertex -0.055555567145347595 0.0025267689488828182 0.036741625517606735
			vertex -0.01164555735886097 -0.021456634625792503 0.036741625517606735
			vertex -0.006924586370587349 -0.012758350931107998 0.036741625517606735
		endloop
	endfacet
	facet normal 0 0 1
		outer loop
			vertex -0.055555567145347595 0.0025267689488828182 0.036741625517606735
			vertex -0.006924586370587349 -0.012758350931107998 0.036741625517606735
			vertex -0.008054109290242195 -0.012247390113770962 0.036741625517606735
		endloop
	endfacet
	facet normal 0 0 1
		outer loop
			vertex 0.0555555522441864 -0.04573250561952591 0.036741625517606735
			vertex 0.0555555522441864 -0.041023142635822296 0.036741625517606735
			vertex -0.006924586370587349 -0.012758350931107998 0.036741625517606735
		endloop
	endfacet
	facet normal 0 0 1
		outer loop
			vertex 0.0555555522441864 -0.04573250561952591 0.036741625517606735
			vertex -0.006924586370587349 -0.012758350931107998 0.036741625517606735
			vertex -0.01164555735886097 -0.021456634625792503 0.036741625517606735
		endloop
	endfacet
	facet normal 0 0 1
		outer loop
			vertex -0.006924586370587349 -0.012758350931107998 0.036741625517606735
			vertex -0.006850453093647957 -0.012621751986443996 0.036741625517606735
			vertex -0.008054109290242195 -0.012247390113770962 0.036741625517606735
		endloop
	endfacet
	facet normal 0 0 1
		outer loop
			vertex 0.0555555522441864 -0.041023142635822296 0.036741625517606735
			vertex 0.0555555522441864 -0.03203155845403671 0.036741625517606735
			vertex -0.006850453093647957 -0.012621751986443996 0.036741625517606735
		endloop
	endfacet
	facet normal 0 0 1
		outer loop
			vertex 0.0555555522441864 -0.041023142635822296 0.036741625517606735
			vertex -0.006850453093647957 -0.012621751986443996 0.036741625517606735
			vertex -0.006924586370587349 -0.012758350931107998 0.036741625517606735
		endloop
	endfacet
	facet normal 0 0 1
		outer loop
			vertex -0.055555567145347595 0.009241350926458836 0.036741625517606735
			vertex -0.055555567145347595 0.0025267689488828182 0.036741625517606735
			vertex -0.008054109290242195 -0.012247390113770962 0.036741625517606735
		endloop
	endfacet
	facet normal 0 0 1
		outer loop
			vertex -0.055555567145347595 0.05258358269929886 0.036741625517606735
			vertex -0.055555567145347595 0.009241350926458836 0.036741625517606735
			vertex -0.008054109290242195 -0.012247390113770962 0.036741625517606735
		endloop
	endfacet
	facet normal 0 0 1
		outer loop
			vertex -0.055555567145347595 0.05258358269929886 0.036741625517606735
			vertex -0.008054109290242195 -0.012247390113770962 0.036741625517606735
			vertex -0.006850453093647957 -0.012621751986443996 0.036741625517606735
		endloop
	endfacet
	facet normal 0 0 1
		outer loop
			vertex -0.055555567145347595 0.05258358269929886 0.036741625517606735
			vertex -0.006850453093647957 -0.012621751986443996 0.036741625517606735
			vertex 0.018037615343928337 0.03323381394147873 0.036741625517606735
		endloop
	endfacet
	facet normal 0 0 1
		outer loop
			vertex 0.0555555522441864 -0.03203155845403671 0.036741625517606735
			vertex 0.0555555522441864 0.023369276896119118 0.036741625517606735
			vertex 0.018037615343928337 0.03323381394147873 0.036741625517606735
		endloop
	endfacet
	facet normal 0 0 1
		outer loop
			vertex 0.0555555522441864 -0.03203155845403671 0.036741625517606735
			vertex 0.018037615343928337 0.03323381394147873 0.036741625517606735
			vertex -0.006850453093647957 -0.012621751986443996 0.036741625517606735
		endloop
	endfacet
	facet normal 0 0 1
		outer loop
			vertex -0.055555567145347595 0.10202724486589432 0.036741625517606735
			vertex -0.055555567145347595 0.05258358269929886 0.036741625517606735
			vertex -0.032200559973716736 0.046442873775959015 0.036741625517606735
		endloop
	endfacet
	facet normal 0 0 1
		outer loop
			vertex -0.055555567145347595 0.10202724486589432 0.036741625517606735
			vertex -0.032200559973716736 0.046442873775959015 0.036741625517606735
			vertex -0.03459407389163971 0.10202724486589432 0.036741625517606735
		endloop
	endfacet
	facet normal 0 0 1
		outer loop
			vertex -0.012395502999424934 0.0412355437874794 0.036741625517606735
			vertex 0.018037615343928337 0.03323381394147873 0.036741625517606735
			vertex 0.04108063876628876 0.07568994909524918 0.036741625517606735
		endloop
	endfacet
	facet normal 0 0 1
		outer loop
			vertex -0.012395502999424934 0.0412355437874794 0.036741625517606735
			vertex 0.04108063876628876 0.07568994909524918 0.036741625517606735
			vertex -0.012745248153805733 0.08170611411333084 0.036741625517606735
		endloop
	endfacet
	facet normal 0 0 1
		outer loop
			vertex 0.0555555522441864 0.023369276896119118 0.036741625517606735
			vertex 0.0555555522441864 0.07407207041978836 0.036741625517606735
			vertex 0.04108063876628876 0.07568994909524918 0.036741625517606735
		endloop
	endfacet
	facet normal 0 0 1
		outer loop
			vertex 0.0555555522441864 0.023369276896119118 0.036741625517606735
			vertex 0.04108063876628876 0.07568994909524918 0.036741625517606735
			vertex 0.018037615343928337 0.03323381394147873 0.036741625517606735
		endloop
	endfacet
	facet normal 0 0 1
		outer loop
			vertex 0.04108063876628876 0.07568994909524918 0.036741625517606735
			vertex 0.055375173687934875 0.10202724486589432 0.036741625517606735
			vertex -0.012920843437314034 0.10202724486589432 0.036741625517606735
		endloop
	endfacet
	facet normal 0 0 1
		outer loop
			vertex 0.04108063876628876 0.07568994909524918 0.036741625517606735
			vertex -0.012920843437314034 0.10202724486589432 0.036741625517606735
			vertex -0.012745248153805733 0.08170611411333084 0.036741625517606735
		endloop
	endfacet
	facet normal 0 0 1
		outer loop
			vertex 0.0555555522441864 0.07407207041978836 0.036741625517606735
			vertex 0.0555555522441864 0.10202724486589432 0.036741625517606735
			vertex 0.055375173687934875 0.10202724486589432 0.036741625517606735
		endloop
	endfacet
	facet normal 0 0 1
		outer loop
			vertex 0.0555555522441864 0.07407207041978836 0.036741625517606735
			vertex 0.055375173687934875 0.10202724486589432 0.036741625517606735
			vertex 0.04108063876628876 0.07568994909524918 0.036741625517606735
		endloop
	endfacet
	facet normal 0 0 1
		outer loop
			vertex -0.032200559973716736 0.046442873775959015 0.036741625517606735
			vertex -0.012395502999424934 0.0412355437874794 0.036741625517606735
			vertex -0.012920843437314034 0.10202724486589432 0.036741625517606735
		endloop
	endfacet
	facet normal 0 0 1
		outer loop
			vertex -0.032200559973716736 0.046442873775959015 0.036741625517606735
			vertex -0.012920843437314034 0.10202724486589432 0.036741625517606735
			vertex -0.03459407389163971 0.10202724486589432 0.036741625517606735
		endloop
	endfacet
	facet normal 0 0 -1
		outer loop
			vertex 0.0555555522441864 0.012878798879683018 -0.03674163296818733
			vertex 0.0555555522441864 0.0025744973681867123 -0.03674163296818733
			vertex -0.013390796259045601 0.02467217482626438 -0.03674163296818733
		endloop
	endfacet
	facet normal 0 0 -1
		outer loop
			vertex 0.0555555522441864 0.012878798879683018 -0.03674163296818733
			vertex -0.013390796259045601 0.02467217482626438 -0.03674163296818733
			vertex -0.01947680301964283 0.03588547557592392 -0.03674163296818733
		endloop
	endfacet
	facet normal 0 0 -1
		outer loop
			vertex 0.0555555522441864 0.012878798879683018 -0.03674163296818733
			vertex -0.01947680301964283 0.03588547557592392 -0.03674163296818733
			vertex 0.019336877390742302 0.029263416305184364 -0.03674163296818733
		endloop
	endfacet
	facet normal 0 0 -1
		outer loop
			vertex -0.055555567145347595 0.0384424552321434 -0.03674163296818733
			vertex -0.055555567145347595 0.04204092174768448 -0.03674163296818733
			vertex -0.01947680301964283 0.03588547557592392 -0.03674163296818733
		endloop
	endfacet
	facet normal 0 0 -1
		outer loop
			vertex -0.055555567145347595 0.0384424552321434 -0.03674163296818733
			vertex -0.01947680301964283 0.03588547557592392 -0.03674163296818733
			vertex -0.013390796259045601 0.02467217482626438 -0.03674163296818733
		endloop
	endfacet
	facet normal 0 0 -1
		outer loop
			vertex -0.055555567145347595 0.0384424552321434 -0.03674163296818733
			vertex -0.013390796259045601 0.02467217482626438 -0.03674163296818733
			vertex -0.03920792043209076 0.03294669836759567 -0.03674163296818733
		endloop
	endfacet
	facet normal 0 0 -1
		outer loop
			vertex -0.01947680301964283 0.03588547557592392 -0.03674163296818733
			vertex -0.02734425850212574 0.05038104206323624 -0.03674163296818733
			vertex 0.019336877390742302 0.029263416305184364 -0.03674163296818733
		endloop
	endfacet
	facet normal 0 0 -1
		outer loop
			vertex -0.055555567145347595 0.04204092174768448 -0.03674163296818733
			vertex -0.055555567145347595 0.063143290579319 -0.03674163296818733
			vertex -0.02734425850212574 0.05038104206323624 -0.03674163296818733
		endloop
	endfacet
	facet normal 0 0 -1
		outer loop
			vertex -0.055555567145347595 0.04204092174768448 -0.03674163296818733
			vertex -0.02734425850212574 0.05038104206323624 -0.03674163296818733
			vertex -0.01947680301964283 0.03588547557592392 -0.03674163296818733
		endloop
	endfacet
	facet normal 0 0 -1
		outer loop
			vertex 0.0555555522441864 0.01527013722807169 -0.03674163296818733
			vertex 0.0555555522441864 0.014283576048910618 -0.03674163296818733
			vertex 0.05545888841152191 0.015270047821104527 -0.03674163296818733
		endloop
	endfacet
	facet normal 0 0 -1
		outer loop
			vertex 0.054143309593200684 0.015268960036337376 -0.03674163296818733
			vertex 0.05545888841152191 0.015270047821104527 -0.03674163296818733
			vertex 0.05553537607192993 0.014489510096609592 -0.03674163296818733
		endloop
	endfacet
	facet normal 0 0 -1
		outer loop
			vertex 0.0555555522441864 0.014283576048910618 -0.03674163296818733
			vertex 0.0555555522441864 0.012878798879683018 -0.03674163296818733
			vertex 0.050279125571250916 0.015265756286680698 -0.03674163296818733
		endloop
	endfacet
	facet normal 0 0 -1
		outer loop
			vertex 0.0555555522441864 0.014283576048910618 -0.03674163296818733
			vertex 0.050279125571250916 0.015265756286680698 -0.03674163296818733
			vertex 0.054143309593200684 0.015268960036337376 -0.03674163296818733
		endloop
	endfacet
	facet normal 0 0 -1
		outer loop
			vertex 0.0555555522441864 0.014283576048910618 -0.03674163296818733
			vertex 0.054143309593200684 0.015268960036337376 -0.03674163296818733
			vertex 0.05553537607192993 0.014489510096609592 -0.03674163296818733
		endloop
	endfacet
	facet normal 0 0 -1
		outer loop
			vertex 0.0555555522441864 0.057670362293720245 -0.03674163296818733
			vertex 0.0555555522441864 0.01527013722807169 -0.03674163296818733
			vertex 0.05545888841152191 0.015270047821104527 -0.03674163296818733
		endloop
	endfacet
	facet normal 0 0 -1
		outer loop
			vertex 0.0555555522441864 0.057670362293720245 -0.03674163296818733
			vertex 0.05545888841152191 0.015270047821104527 -0.03674163296818733
			vertex 0.05119159817695618 0.0588177815079689 -0.03674163296818733
		endloop
	endfacet
	facet normal 0 0 -1
		outer loop
			vertex 0.05545888841152191 0.015270047821104527 -0.03674163296818733
			vertex 0.050279125571250916 0.015265756286680698 -0.03674163296818733
			vertex -0.02734425850212574 0.05038104206323624 -0.03674163296818733
		endloop
	endfacet
	facet normal 0 0 -1
		outer loop
			vertex 0.05545888841152191 0.015270047821104527 -0.03674163296818733
			vertex -0.02734425850212574 0.05038104206323624 -0.03674163296818733
			vertex -0.04575847089290619 0.08430872112512589 -0.03674163296818733
		endloop
	endfacet
	facet normal 0 0 -1
		outer loop
			vertex 0.05545888841152191 0.015270047821104527 -0.03674163296818733
			vertex -0.04575847089290619 0.08430872112512589 -0.03674163296818733
			vertex 0.05119159817695618 0.0588177815079689 -0.03674163296818733
		endloop
	endfacet
	facet normal 0 0 -1
		outer loop
			vertex -0.055555567145347595 0.063143290579319 -0.03674163296818733
			vertex -0.055555567145347595 0.08688465505838394 -0.03674163296818733
			vertex -0.04575847089290619 0.08430872112512589 -0.03674163296818733
		endloop
	endfacet
	facet normal 0 0 -1
		outer loop
			vertex -0.055555567145347595 0.063143290579319 -0.03674163296818733
			vertex -0.04575847089290619 0.08430872112512589 -0.03674163296818733
			vertex -0.02734425850212574 0.05038104206323624 -0.03674163296818733
		endloop
	endfacet
	facet normal 0 0 -1
		outer loop
			vertex 0.0555555522441864 0.06926686316728592 -0.03674163296818733
			vertex 0.0555555522441864 0.057670362293720245 -0.03674163296818733
			vertex -0.021162258461117744 0.07784167677164078 -0.03674163296818733
		endloop
	endfacet
	facet normal 0 0 -1
		outer loop
			vertex 0.0555555522441864 0.09316075593233109 -0.03674163296818733
			vertex 0.0555555522441864 0.06926686316728592 -0.03674163296818733
			vertex -0.021162258461117744 0.07784167677164078 -0.03674163296818733
		endloop
	endfacet
	facet normal 0 0 -1
		outer loop
			vertex 0.0555555522441864 0.09316075593233109 -0.03674163296818733
			vertex -0.021162258461117744 0.07784167677164078 -0.03674163296818733
			vertex -0.04575847089290619 0.08430872112512589 -0.03674163296818733
		endloop
	endfacet
	facet normal 0 0 -1
		outer loop
			vertex 0.0555555522441864 0.09316075593233109 -0.03674163296818733
			vertex -0.04575847089290619 0.08430872112512589 -0.03674163296818733
			vertex -0.055375173687934875 0.10202724486589432 -0.03674163296818733
		endloop
	endfacet
	facet normal 0 0 -1
		outer loop
			vertex 0.0555555522441864 0.09316075593233109 -0.03674163296818733
			vertex -0.055375173687934875 0.10202724486589432 -0.03674163296818733
			vertex 0.01315438561141491 0.10202724486589432 -0.03674163296818733
		endloop
	endfacet
	facet normal 0 0 -1
		outer loop
			vertex -0.055555567145347595 0.08688465505838394 -0.03674163296818733
			vertex -0.055555567145347595 0.10202724486589432 -0.03674163296818733
			vertex -0.055375173687934875 0.10202724486589432 -0.03674163296818733
		endloop
	endfacet
	facet normal 0 0 -1
		outer loop
			vertex -0.055555567145347595 0.08688465505838394 -0.03674163296818733
			vertex -0.055375173687934875 0.10202724486589432 -0.03674163296818733
			vertex -0.04575847089290619 0.08430872112512589 -0.03674163296818733
		endloop
	endfacet
	facet normal 0 0 -1
		outer loop
			vertex 0.0555555522441864 0.10202724486589432 -0.03674163296818733
			vertex 0.0555555522441864 0.09316075593233109 -0.03674163296818733
			vertex 0.01315438561141491 0.10202724486589432 -0.03674163296818733
		endloop
	endfacet
endsolid exported
