solid exported
	facet normal 0 1 0
		outer loop
			vertex -0.055555567145347595 0.10202724486589432 -0.036741625517606735
			vertex -0.055555567145347595 0.10202724486589432 0.020598625764250755
			vertex 0.03812572360038757 0.10202724486589432 0.036741629242897034
		endloop
	endfacet
	facet normal 0 1 0
		outer loop
			vertex -0.055555567145347595 0.10202724486589432 -0.036741625517606735
			vertex 0.03812572360038757 0.10202724486589432 0.036741629242897034
			vertex 0.0555555522441864 0.10202724486589432 0.036741629242897034
		endloop
	endfacet
	facet normal 0 1 0
		outer loop
			vertex -0.055555567145347595 0.10202724486589432 -0.036741625517606735
			vertex 0.0555555522441864 0.10202724486589432 0.036741629242897034
			vertex 0.0555555522441864 0.10202724486589432 0.035214297473430634
		endloop
	endfacet
	facet normal 0 1 0
		outer loop
			vertex -0.055555567145347595 0.10202724486589432 -0.036741625517606735
			vertex 0.0555555522441864 0.10202724486589432 0.035214297473430634
			vertex -0.05129776895046234 0.10202724486589432 -0.036741625517606735
		endloop
	endfacet
	facet normal -0.21763648363592986 -0.6596904951681822 0.7193349786958412
		outer loop
			vertex -0.01041107065975666 0.1021091416478157 0.036741629242897034
			vertex -0.055555567145347595 0.10205105692148209 0.023029787465929985
			vertex -0.055555567145347595 0.10202724486589432 0.0230079498142004
		endloop
	endfacet
	facet normal -0.21760926106977393 -0.6597963476103917 0.7192461255902977
		outer loop
			vertex -0.01041107065975666 0.1021091416478157 0.036741629242897034
			vertex -0.055555567145347595 0.10202724486589432 0.0230079498142004
			vertex -0.010162757709622383 0.10202724486589432 0.036741629242897034
		endloop
	endfacet
	facet normal 0.0016878188042712874 0.9999506247601978 -0.009792819276081756
		outer loop
			vertex -0.055555567145347595 0.10205105692148209 0.023029787465929985
			vertex -0.01041107065975666 0.1021091416478157 0.036741629242897034
			vertex 0.031010909005999565 0.10203922539949417 0.036741629242897034
		endloop
	endfacet
	facet normal 0.0016848501721811453 0.999950813136198 -0.00977407735563166
		outer loop
			vertex -0.055555567145347595 0.10205105692148209 0.023029787465929985
			vertex 0.031010909005999565 0.10203922539949417 0.036741629242897034
			vertex 0.025692475959658623 0.10202724486589432 0.03459915518760681
		endloop
	endfacet
	facet normal 0.0016876918070448607 0.9999506130808022 -0.00979403367832624
		outer loop
			vertex -0.055555567145347595 0.10205105692148209 0.023029787465929985
			vertex 0.025692475959658623 0.10202724486589432 0.03459915518760681
			vertex -0.055555567145347595 0.10202724486589432 0.020598625764250755
		endloop
	endfacet
	facet normal 0.0016838027866501362 0.9999508403094886 -0.009771477499518535
		outer loop
			vertex 0.031010909005999565 0.10203922539949417 0.036741629242897034
			vertex 0.03812572360038757 0.10202724486589432 0.036741629242897034
			vertex 0.025692475959658623 0.10202724486589432 0.03459915518760681
		endloop
	endfacet
	facet normal -0.19185055515599023 -0.7719728971462617 0.6060125498353527
		outer loop
			vertex 0.020016727969050407 0.05722741037607193 0.010900838300585747
			vertex -0.0242051649838686 0.06015286594629288 0.0006277469219639897
			vertex 0.0020903630647808313 0.05217213183641434 -0.0012139620957896113
		endloop
	endfacet
	facet normal -0.23314247725615483 -0.37813620617773736 0.895911599922878
		outer loop
			vertex 0.024448154494166374 0.06165481358766556 0.013922667130827904
			vertex -0.055555567145347595 0.07331002503633499 -0.001977348467335105
			vertex -0.055555567145347595 0.06822798401117325 -0.00412231869995594
		endloop
	endfacet
	facet normal -0.2331425209786368 -0.37813265561436715 0.8959130871182497
		outer loop
			vertex 0.024448154494166374 0.06165481358766556 0.013922667130827904
			vertex -0.055555567145347595 0.06822798401117325 -0.00412231869995594
			vertex -0.0242051649838686 0.06015286594629288 0.0006277469219639897
		endloop
	endfacet
	facet normal -0.23314262188721302 -0.3781319163384883 0.8959133728802907
		outer loop
			vertex 0.024448154494166374 0.06165481358766556 0.013922667130827904
			vertex -0.0242051649838686 0.06015286594629288 0.0006277469219639897
			vertex 0.020016727969050407 0.05722741037607193 0.010900838300585747
		endloop
	endfacet
	facet normal -0.2176249386187274 -0.6597346851855754 0.7192979433129815
		outer loop
			vertex -0.010162757709622383 0.10202724486589432 0.036741629242897034
			vertex -0.055555567145347595 0.10202724486589432 0.0230079498142004
			vertex -0.055555567145347595 0.08640844374895096 0.008682502433657646
		endloop
	endfacet
	facet normal -0.2176246399431953 -0.659735074340427 0.7192976767476912
		outer loop
			vertex -0.010162757709622383 0.10202724486589432 0.036741629242897034
			vertex -0.055555567145347595 0.08640844374895096 0.008682502433657646
			vertex 0.009180350229144096 0.09564659744501114 0.036741629242897034
		endloop
	endfacet
	facet normal -0.23897242497118815 -0.6129240037484427 0.7531376671846717
		outer loop
			vertex 0.009180350229144096 0.09564659744501114 0.036741629242897034
			vertex -0.055555567145347595 0.08640844374895096 0.008682502433657646
			vertex -0.055555567145347595 0.07331002503633499 -0.001977348467335105
		endloop
	endfacet
	facet normal -0.23897213840596435 -0.6129244136437583 0.7531374245283101
		outer loop
			vertex 0.009180350229144096 0.09564659744501114 0.036741629242897034
			vertex -0.055555567145347595 0.07331002503633499 -0.001977348467335105
			vertex 0.024448154494166374 0.06165481358766556 0.013922667130827904
		endloop
	endfacet
	facet normal -0.2389724104897639 -0.6129244551961298 0.7531373043789821
		outer loop
			vertex 0.009180350229144096 0.09564659744501114 0.036741629242897034
			vertex 0.024448154494166374 0.06165481358766556 0.013922667130827904
			vertex 0.0555555522441864 0.07541031390428543 0.034987740218639374
		endloop
	endfacet
	facet normal -0.2389734697547839 -0.6129266955446275 0.7531351450052658
		outer loop
			vertex 0.009180350229144096 0.09564659744501114 0.036741629242897034
			vertex 0.0555555522441864 0.07541031390428543 0.034987740218639374
			vertex 0.0555555522441864 0.07756540924310684 0.036741629242897034
		endloop
	endfacet
	facet normal 1 0 0
		outer loop
			vertex 0.0555555522441864 0.08034894615411758 0.036741629242897034
			vertex 0.0555555522441864 0.07756540924310684 0.036741629242897034
			vertex 0.0555555522441864 0.07541031390428543 0.034987740218639374
		endloop
	endfacet
	facet normal 1 0 0
		outer loop
			vertex 0.0555555522441864 0.08034894615411758 0.036741629242897034
			vertex 0.0555555522441864 0.07541031390428543 0.034987740218639374
			vertex 0.0555555522441864 0.0784650519490242 0.03501374274492264
		endloop
	endfacet
	facet normal 1 0 0
		outer loop
			vertex 0.0555555522441864 0.09654030948877335 0.036741629242897034
			vertex 0.0555555522441864 0.08034894615411758 0.036741629242897034
			vertex 0.0555555522441864 0.0784650519490242 0.03501374274492264
		endloop
	endfacet
	facet normal 1 0 0
		outer loop
			vertex 0.0555555522441864 0.09654030948877335 0.036741629242897034
			vertex 0.0555555522441864 0.0784650519490242 0.03501374274492264
			vertex 0.0555555522441864 0.09273413568735123 0.03513519465923309
		endloop
	endfacet
	facet normal -0.2676955388499057 -0.9520116081009424 0.14836777453650862
		outer loop
			vertex -0.055555567145347595 0.06413523107767105 -0.03038373775780201
			vertex -0.0242051649838686 0.06015286594629288 0.0006277469219639897
			vertex -0.055555567145347595 0.06822798401117325 -0.00412231869995594
		endloop
	endfacet
	facet normal -0.70615444297411 -0.0908056797816755 0.7022109591763092
		outer loop
			vertex -0.055555567145347595 0.05416778475046158 -0.03167266771197319
			vertex -0.0242051649838686 0.06015286594629288 0.0006277469219639897
			vertex -0.055555567145347595 0.06413523107767105 -0.03038373775780201
		endloop
	endfacet
	facet normal -0.24083136253142434 -0.8853041746074768 0.39778986065991206
		outer loop
			vertex -0.0242051649838686 0.06015286594629288 0.0006277469219639897
			vertex -0.055555567145347595 0.05416778475046158 -0.03167266771197319
			vertex -0.055555567145347595 0.05189017206430435 -0.036741625517606735
		endloop
	endfacet
	facet normal -0.24083052123432716 -0.8853046712553002 0.3977892646811212
		outer loop
			vertex -0.0242051649838686 0.06015286594629288 0.0006277469219639897
			vertex -0.055555567145347595 0.05189017206430435 -0.036741625517606735
			vertex -0.05064718425273895 0.05055493861436844 -0.036741625517606735
		endloop
	endfacet
	facet normal -0.240830628473318 -0.8853046145337553 0.39778932599352884
		outer loop
			vertex -0.0242051649838686 0.06015286594629288 0.0006277469219639897
			vertex -0.05064718425273895 0.05055493861436844 -0.036741625517606735
			vertex 0.0020903630647808313 0.05217213183641434 -0.0012139620957896113
		endloop
	endfacet
	facet normal 1 0 0
		outer loop
			vertex 0.0555555522441864 0.10202724486589432 0.036741629242897034
			vertex 0.0555555522441864 0.09654030948877335 0.036741629242897034
			vertex 0.0555555522441864 0.09273413568735123 0.03513519465923309
		endloop
	endfacet
	facet normal 1 0 0
		outer loop
			vertex 0.0555555522441864 0.10202724486589432 0.036741629242897034
			vertex 0.0555555522441864 0.09273413568735123 0.03513519465923309
			vertex 0.0555555522441864 0.10202724486589432 0.035214297473430634
		endloop
	endfacet
	facet normal 0 1 0
		outer loop
			vertex -0.05129776895046234 0.10202724486589432 -0.036741625517606735
			vertex 0.0555555522441864 0.10202724486589432 0.035214297473430634
			vertex 0.0555555522441864 0.10202724486589432 -0.036741625517606735
		endloop
	endfacet
	facet normal -0.19185156829875658 -0.7719707609735758 0.6060149502637586
		outer loop
			vertex 0.0185000728815794 0.04719174653291702 -0.0023632810916751623
			vertex 0.0555555522441864 0.05049184709787369 0.01357152871787548
			vertex 0.0555555522441864 0.05487639456987381 0.019156774505972862
		endloop
	endfacet
	facet normal -0.1918516537704933 -0.7719706541439385 0.6060150592898716
		outer loop
			vertex 0.0185000728815794 0.04719174653291702 -0.0023632810916751623
			vertex 0.0555555522441864 0.05487639456987381 0.019156774505972862
			vertex 0.05232866108417511 0.05508986860513687 0.018407141789793968
		endloop
	endfacet
	facet normal -0.19185063417462012 -0.7719718532122565 0.6060138546393394
		outer loop
			vertex 0.0185000728815794 0.04719174653291702 -0.0023632810916751623
			vertex 0.05232866108417511 0.05508986860513687 0.018407141789793968
			vertex 0.01527249626815319 0.04817131906747818 -0.0021372304763644934
		endloop
	endfacet
	facet normal -0.23314287857159255 -0.37813752511050525 0.8959109388073425
		outer loop
			vertex 0.0555555522441864 0.05487639456987381 0.019156774505972862
			vertex 0.0555555522441864 0.05560071021318436 0.01946248672902584
			vertex 0.05232866108417511 0.05508986860513687 0.018407141789793968
		endloop
	endfacet
	facet normal 0.12016808134998941 -0.9880673988166482 0.09634545978075676
		outer loop
			vertex 0.04489007592201233 0.047049082815647125 -0.036741625517606735
			vertex 0.0185000728815794 0.04719174653291702 -0.0023632810916751623
			vertex -0.024995194748044014 0.03854968398809433 -0.036741625517606735
		endloop
	endfacet
	facet normal 0.04237567712195354 -0.9933364012066515 0.10717787097285757
		outer loop
			vertex 0.0555555522441864 0.05049184709787369 0.01357152871787548
			vertex 0.0185000728815794 0.04719174653291702 -0.0023632810916751623
			vertex 0.0555555522441864 0.04856080561876297 -0.004325577989220619
		endloop
	endfacet
	facet normal 0.038689573976869486 -0.9986779838836135 0.03384377892093783
		outer loop
			vertex 0.0555555522441864 0.04856080561876297 -0.004325577989220619
			vertex 0.0185000728815794 0.04719174653291702 -0.0023632810916751623
			vertex 0.04489007592201233 0.047049082815647125 -0.036741625517606735
		endloop
	endfacet
	facet normal 0.03869095881017823 -0.998677945734148 0.03384332150618767
		outer loop
			vertex 0.0555555522441864 0.04856080561876297 -0.004325577989220619
			vertex 0.04489007592201233 0.047049082815647125 -0.036741625517606735
			vertex 0.04942171275615692 0.04722464829683304 -0.036741625517606735
		endloop
	endfacet
	facet normal 0.038691131465944 -0.9986779401599944 0.03384328860610326
		outer loop
			vertex 0.0555555522441864 0.04856080561876297 -0.004325577989220619
			vertex 0.04942171275615692 0.04722464829683304 -0.036741625517606735
			vertex 0.0555555522441864 0.047570593655109406 -0.033545635640621185
		endloop
	endfacet
	facet normal 1 0 0
		outer loop
			vertex 0.0555555522441864 0.04812202602624893 -0.01727324165403843
			vertex 0.0555555522441864 0.05017281323671341 -0.018009355291724205
			vertex 0.0555555522441864 0.053643710911273956 0.017586534842848778
		endloop
	endfacet
	facet normal 1 0 0
		outer loop
			vertex 0.0555555522441864 0.04812202602624893 -0.01727324165403843
			vertex 0.0555555522441864 0.053643710911273956 0.017586534842848778
			vertex 0.0555555522441864 0.05049184709787369 0.01357152871787548
		endloop
	endfacet
	facet normal 1 0 0
		outer loop
			vertex 0.0555555522441864 0.04812202602624893 -0.01727324165403843
			vertex 0.0555555522441864 0.05049184709787369 0.01357152871787548
			vertex 0.0555555522441864 0.04856080561876297 -0.004325577989220619
		endloop
	endfacet
	facet normal 1 0 0
		outer loop
			vertex 0.0555555522441864 0.047570593655109406 -0.033545635640621185
			vertex 0.0555555522441864 0.04880208522081375 -0.03206672891974449
			vertex 0.0555555522441864 0.05017281323671341 -0.018009355291724205
		endloop
	endfacet
	facet normal 1 0 0
		outer loop
			vertex 0.0555555522441864 0.047570593655109406 -0.033545635640621185
			vertex 0.0555555522441864 0.05017281323671341 -0.018009355291724205
			vertex 0.0555555522441864 0.04812202602624893 -0.01727324165403843
		endloop
	endfacet
	facet normal -0.3607920924910848 -0.691801709653694 0.6254913752531929
		outer loop
			vertex 0.010431526228785515 0.04696143418550491 -0.0072720590978860855
			vertex 0.0185000728815794 0.04719174653291702 -0.0023632810916751623
			vertex 0.012210128828883171 0.047352470457553864 -0.005813645198941231
		endloop
	endfacet
	facet normal -0.3670668292348247 -0.6795191184953986 0.6352288646422866
		outer loop
			vertex -0.024995194748044014 0.03854968398809433 -0.036741625517606735
			vertex 0.0185000728815794 0.04719174653291702 -0.0023632810916751623
			vertex 0.010431526228785515 0.04696143418550491 -0.0072720590978860855
		endloop
	endfacet
	facet normal -0.3670614300351828 -0.6795262102490683 0.635224398275968
		outer loop
			vertex -0.024995194748044014 0.03854968398809433 -0.036741625517606735
			vertex 0.010431526228785515 0.04696143418550491 -0.0072720590978860855
			vertex -0.025862054899334908 0.0390179380774498 -0.036741625517606735
		endloop
	endfacet
	facet normal -0.240830536114103 -0.8853042473481179 0.39779019910296465
		outer loop
			vertex 0.012210128828883171 0.047352470457553864 -0.005813645198941231
			vertex 0.0185000728815794 0.04719174653291702 -0.0023632810916751623
			vertex 0.01527249626815319 0.04817131906747818 -0.0021372304763644934
		endloop
	endfacet
	facet normal 1 0 0
		outer loop
			vertex 0.0555555522441864 0.05017281323671341 -0.018009355291724205
			vertex 0.0555555522441864 0.050889261066913605 -0.01826653443276882
			vertex 0.0555555522441864 0.05560071021318436 0.01946248672902584
		endloop
	endfacet
	facet normal 1 0 0
		outer loop
			vertex 0.0555555522441864 0.05017281323671341 -0.018009355291724205
			vertex 0.0555555522441864 0.05560071021318436 0.01946248672902584
			vertex 0.0555555522441864 0.05487639456987381 0.019156774505972862
		endloop
	endfacet
	facet normal 1 0 0
		outer loop
			vertex 0.0555555522441864 0.05017281323671341 -0.018009355291724205
			vertex 0.0555555522441864 0.05487639456987381 0.019156774505972862
			vertex 0.0555555522441864 0.053643710911273956 0.017586534842848778
		endloop
	endfacet
	facet normal 1 0 0
		outer loop
			vertex 0.0555555522441864 0.04880208522081375 -0.03206672891974449
			vertex 0.0555555522441864 0.04923016577959061 -0.03155263885855675
			vertex 0.0555555522441864 0.050889261066913605 -0.01826653443276882
		endloop
	endfacet
	facet normal 1 0 0
		outer loop
			vertex 0.0555555522441864 0.04880208522081375 -0.03206672891974449
			vertex 0.0555555522441864 0.050889261066913605 -0.01826653443276882
			vertex 0.0555555522441864 0.05017281323671341 -0.018009355291724205
		endloop
	endfacet
	facet normal -0.19184966436109668 -0.7719738433263367 0.6060116265423456
		outer loop
			vertex 0.05232866108417511 0.05508986860513687 0.018407141789793968
			vertex 0.020016727969050407 0.05722741037607193 0.010900838300585747
			vertex 0.0020903630647808313 0.05217213183641434 -0.0012139620957896113
		endloop
	endfacet
	facet normal -0.1918506749039104 -0.7719717995941789 0.606013910046823
		outer loop
			vertex 0.05232866108417511 0.05508986860513687 0.018407141789793968
			vertex 0.0020903630647808313 0.05217213183641434 -0.0012139620957896113
			vertex 0.01527249626815319 0.04817131906747818 -0.0021372304763644934
		endloop
	endfacet
	facet normal -0.23314215701338292 -0.378131100469244 0.8959138382015683
		outer loop
			vertex 0.0555555522441864 0.05560071021318436 0.01946248672902584
			vertex 0.0555555522441864 0.057122983038425446 0.02010498009622097
			vertex 0.024448154494166374 0.06165481358766556 0.013922667130827904
		endloop
	endfacet
	facet normal -0.2331422853138241 -0.37813222428696264 0.8959133304926552
		outer loop
			vertex 0.0555555522441864 0.05560071021318436 0.01946248672902584
			vertex 0.024448154494166374 0.06165481358766556 0.013922667130827904
			vertex 0.020016727969050407 0.05722741037607193 0.010900838300585747
		endloop
	endfacet
	facet normal -0.23314179834479853 -0.3781414805023237 0.8959095504503031
		outer loop
			vertex 0.0555555522441864 0.05560071021318436 0.01946248672902584
			vertex 0.020016727969050407 0.05722741037607193 0.010900838300585747
			vertex 0.05232866108417511 0.05508986860513687 0.018407141789793968
		endloop
	endfacet
	facet normal -0.23897211680769506 -0.6129248143891686 0.7531371052434295
		outer loop
			vertex 0.0555555522441864 0.07541031390428543 0.034987740218639374
			vertex 0.024448154494166374 0.06165481358766556 0.013922667130827904
			vertex 0.0555555522441864 0.057122983038425446 0.02010498009622097
		endloop
	endfacet
	facet normal 1 0 0
		outer loop
			vertex 0.0555555522441864 0.09273413568735123 0.03513519465923309
			vertex 0.0555555522441864 0.07541031390428543 0.034987740218639374
			vertex 0.0555555522441864 0.057122983038425446 0.02010498009622097
		endloop
	endfacet
	facet normal -0.3607965070683767 -0.6917925646599018 0.6254989432193586
		outer loop
			vertex -0.04417102038860321 0.048793233931064606 -0.036741625517606735
			vertex -0.038007453083992004 0.045578695833683014 -0.036741625517606735
			vertex 0.010431526228785515 0.04696143418550491 -0.0072720590978860855
		endloop
	endfacet
	facet normal -0.36079320040809376 -0.6918002613118716 0.6254923380730666
		outer loop
			vertex -0.04417102038860321 0.048793233931064606 -0.036741625517606735
			vertex 0.010431526228785515 0.04696143418550491 -0.0072720590978860855
			vertex 0.012210128828883171 0.047352470457553864 -0.005813645198941231
		endloop
	endfacet
	facet normal -0.36706617217697135 -0.679519803481789 0.6352285115762808
		outer loop
			vertex -0.025862054899334908 0.0390179380774498 -0.036741625517606735
			vertex 0.010431526228785515 0.04696143418550491 -0.0072720590978860855
			vertex -0.038007453083992004 0.045578695833683014 -0.036741625517606735
		endloop
	endfacet
	facet normal -0.2408291341068023 -0.8853066864808852 0.39778561944545415
		outer loop
			vertex -0.05064718425273895 0.05055493861436844 -0.036741625517606735
			vertex -0.04417102038860321 0.048793233931064606 -0.036741625517606735
			vertex 0.012210128828883171 0.047352470457553864 -0.005813645198941231
		endloop
	endfacet
	facet normal -0.2408315983644834 -0.8853036232621043 0.39779094492986933
		outer loop
			vertex -0.05064718425273895 0.05055493861436844 -0.036741625517606735
			vertex 0.012210128828883171 0.047352470457553864 -0.005813645198941231
			vertex 0.01527249626815319 0.04817131906747818 -0.0021372304763644934
		endloop
	endfacet
	facet normal -0.24083119319667892 -0.8853040948791006 0.39779014061909646
		outer loop
			vertex -0.05064718425273895 0.05055493861436844 -0.036741625517606735
			vertex 0.01527249626815319 0.04817131906747818 -0.0021372304763644934
			vertex 0.0020903630647808313 0.05217213183641434 -0.0012139620957896113
		endloop
	endfacet
	facet normal 1 0 0
		outer loop
			vertex 0.0555555522441864 0.050889261066913605 -0.01826653443276882
			vertex 0.0555555522441864 0.05812946707010269 -0.020865367725491524
			vertex 0.0555555522441864 0.10202724486589432 0.03185203671455383
		endloop
	endfacet
	facet normal 1 0 0
		outer loop
			vertex 0.0555555522441864 0.050889261066913605 -0.01826653443276882
			vertex 0.0555555522441864 0.10202724486589432 0.03185203671455383
			vertex 0.0555555522441864 0.10202724486589432 0.035214297473430634
		endloop
	endfacet
	facet normal 1 0 0
		outer loop
			vertex 0.0555555522441864 0.050889261066913605 -0.01826653443276882
			vertex 0.0555555522441864 0.10202724486589432 0.035214297473430634
			vertex 0.0555555522441864 0.09273413568735123 0.03513519465923309
		endloop
	endfacet
	facet normal 1 0 0
		outer loop
			vertex 0.0555555522441864 0.050889261066913605 -0.01826653443276882
			vertex 0.0555555522441864 0.09273413568735123 0.03513519465923309
			vertex 0.0555555522441864 0.05560071021318436 0.01946248672902584
		endloop
	endfacet
	facet normal 1 0 0
		outer loop
			vertex 0.0555555522441864 0.04923016577959061 -0.03155263885855675
			vertex 0.0555555522441864 0.05812946707010269 -0.020865367725491524
			vertex 0.0555555522441864 0.050889261066913605 -0.01826653443276882
		endloop
	endfacet
	facet normal 0.038691841282319006 -0.99867795875642 0.03384192831820169
		outer loop
			vertex 0.0555555522441864 0.04746229201555252 -0.036741625517606735
			vertex 0.0555555522441864 0.047570593655109406 -0.033545635640621185
			vertex 0.04942171275615692 0.04722464829683304 -0.036741625517606735
		endloop
	endfacet
	facet normal 1 0 0
		outer loop
			vertex 0.0555555522441864 0.04746229201555252 -0.036741625517606735
			vertex 0.0555555522441864 0.048346228897571564 -0.036741625517606735
			vertex 0.0555555522441864 0.04880208522081375 -0.03206672891974449
		endloop
	endfacet
	facet normal 1 0 0
		outer loop
			vertex 0.0555555522441864 0.04746229201555252 -0.036741625517606735
			vertex 0.0555555522441864 0.04880208522081375 -0.03206672891974449
			vertex 0.0555555522441864 0.047570593655109406 -0.033545635640621185
		endloop
	endfacet
	facet normal 1 0 0
		outer loop
			vertex 0.0555555522441864 0.05812946707010269 -0.020865367725491524
			vertex 0.0555555522441864 0.10202724486589432 -0.03662233054637909
			vertex 0.0555555522441864 0.10202724486589432 0.03185203671455383
		endloop
	endfacet
	facet normal 1 0 0
		outer loop
			vertex 0.0555555522441864 0.048346228897571564 -0.036741625517606735
			vertex 0.0555555522441864 0.10202724486589432 -0.036741625517606735
			vertex 0.0555555522441864 0.10202724486589432 -0.03662233054637909
		endloop
	endfacet
	facet normal 1 0 0
		outer loop
			vertex 0.0555555522441864 0.048346228897571564 -0.036741625517606735
			vertex 0.0555555522441864 0.10202724486589432 -0.03662233054637909
			vertex 0.0555555522441864 0.05812946707010269 -0.020865367725491524
		endloop
	endfacet
	facet normal 1 0 0
		outer loop
			vertex 0.0555555522441864 0.048346228897571564 -0.036741625517606735
			vertex 0.0555555522441864 0.05812946707010269 -0.020865367725491524
			vertex 0.0555555522441864 0.04880208522081375 -0.03206672891974449
		endloop
	endfacet
	facet normal -1 0 0
		outer loop
			vertex -0.055555567145347595 0.10202724486589432 0.020598625764250755
			vertex -0.055555567145347595 0.10202724486589432 0.0230079498142004
			vertex -0.055555567145347595 0.10205105692148209 0.023029787465929985
		endloop
	endfacet
	facet normal -1 0 0
		outer loop
			vertex -0.055555567145347595 0.08640844374895096 0.008682502433657646
			vertex -0.055555567145347595 0.07604450732469559 -0.0008232387481257319
			vertex -0.055555567145347595 0.07331002503633499 -0.001977348467335105
		endloop
	endfacet
	facet normal -1 0 0
		outer loop
			vertex -0.055555567145347595 0.10202724486589432 0.0230079498142004
			vertex -0.055555567145347595 0.10202724486589432 0.010143151506781578
			vertex -0.055555567145347595 0.07604450732469559 -0.0008232387481257319
		endloop
	endfacet
	facet normal -1 0 0
		outer loop
			vertex -0.055555567145347595 0.06314436346292496 -0.036741625517606735
			vertex -0.055555567145347595 0.05189017206430435 -0.036741625517606735
			vertex -0.055555567145347595 0.05416778475046158 -0.03167266771197319
		endloop
	endfacet
	facet normal -1 0 0
		outer loop
			vertex -0.055555567145347595 0.06314436346292496 -0.036741625517606735
			vertex -0.055555567145347595 0.05416778475046158 -0.03167266771197319
			vertex -0.055555567145347595 0.06413523107767105 -0.03038373775780201
		endloop
	endfacet
	facet normal -1 0 0
		outer loop
			vertex -0.055555567145347595 0.10202724486589432 -0.036741625517606735
			vertex -0.055555567145347595 0.06314436346292496 -0.036741625517606735
			vertex -0.055555567145347595 0.06822798401117325 -0.00412231869995594
		endloop
	endfacet
	facet normal -1 0 0
		outer loop
			vertex -0.055555567145347595 0.10202724486589432 -0.036741625517606735
			vertex -0.055555567145347595 0.06822798401117325 -0.00412231869995594
			vertex -0.055555567145347595 0.10202724486589432 0.010143151506781578
		endloop
	endfacet
	facet normal 0 0 1
		outer loop
			vertex -0.01041107065975666 0.1021091416478157 0.036741629242897034
			vertex -0.010162757709622383 0.10202724486589432 0.036741629242897034
			vertex 0.031017227098345757 0.10202724486589432 0.036741629242897034
		endloop
	endfacet
	facet normal 0 0 1
		outer loop
			vertex -0.01041107065975666 0.1021091416478157 0.036741629242897034
			vertex 0.031017227098345757 0.10202724486589432 0.036741629242897034
			vertex 0.031010909005999565 0.10203922539949417 0.036741629242897034
		endloop
	endfacet
	facet normal 0 0 1
		outer loop
			vertex 0.031010909005999565 0.10203922539949417 0.036741629242897034
			vertex 0.031017227098345757 0.10202724486589432 0.036741629242897034
			vertex 0.03812572360038757 0.10202724486589432 0.036741629242897034
		endloop
	endfacet
	facet normal 0 0 1
		outer loop
			vertex 0.0444488525390625 0.08189580589532852 0.036741629242897034
			vertex 0.04542332887649536 0.08369121700525284 0.036741629242897034
			vertex 0.009180350229144096 0.09564659744501114 0.036741629242897034
		endloop
	endfacet
	facet normal 0 0 1
		outer loop
			vertex 0.0555555522441864 0.07756540924310684 0.036741629242897034
			vertex 0.0555555522441864 0.08034894615411758 0.036741629242897034
			vertex 0.04542332887649536 0.08369121700525284 0.036741629242897034
		endloop
	endfacet
	facet normal 0 0 1
		outer loop
			vertex 0.0555555522441864 0.07756540924310684 0.036741629242897034
			vertex 0.04542332887649536 0.08369121700525284 0.036741629242897034
			vertex 0.0444488525390625 0.08189580589532852 0.036741629242897034
		endloop
	endfacet
	facet normal 0 0 1
		outer loop
			vertex 0.04542332887649536 0.08369121700525284 0.036741629242897034
			vertex 0.053189054131507874 0.09799937158823013 0.036741629242897034
			vertex 0.0466562956571579 0.10202724486589432 0.036741629242897034
		endloop
	endfacet
	facet normal 0 0 1
		outer loop
			vertex 0.04542332887649536 0.08369121700525284 0.036741629242897034
			vertex 0.0466562956571579 0.10202724486589432 0.036741629242897034
			vertex -0.010162757709622383 0.10202724486589432 0.036741629242897034
		endloop
	endfacet
	facet normal 0 0 1
		outer loop
			vertex 0.0555555522441864 0.08034894615411758 0.036741629242897034
			vertex 0.0555555522441864 0.09654030948877335 0.036741629242897034
			vertex 0.053189054131507874 0.09799937158823013 0.036741629242897034
		endloop
	endfacet
	facet normal 0 0 1
		outer loop
			vertex 0.0555555522441864 0.08034894615411758 0.036741629242897034
			vertex 0.053189054131507874 0.09799937158823013 0.036741629242897034
			vertex 0.04542332887649536 0.08369121700525284 0.036741629242897034
		endloop
	endfacet
	facet normal 0 0 1
		outer loop
			vertex 0.053189054131507874 0.09799937158823013 0.036741629242897034
			vertex 0.055375173687934875 0.10202724486589432 0.036741629242897034
			vertex 0.0466562956571579 0.10202724486589432 0.036741629242897034
		endloop
	endfacet
	facet normal 0 0 1
		outer loop
			vertex 0.0555555522441864 0.09654030948877335 0.036741629242897034
			vertex 0.0555555522441864 0.10202724486589432 0.036741629242897034
			vertex 0.055375173687934875 0.10202724486589432 0.036741629242897034
		endloop
	endfacet
	facet normal 0 0 1
		outer loop
			vertex 0.0555555522441864 0.09654030948877335 0.036741629242897034
			vertex 0.055375173687934875 0.10202724486589432 0.036741629242897034
			vertex 0.053189054131507874 0.09799937158823013 0.036741629242897034
		endloop
	endfacet
	facet normal 0 0 -1
		outer loop
			vertex -0.055555567145347595 0.05189017206430435 -0.036741625517606735
			vertex -0.055555567145347595 0.06314436346292496 -0.036741625517606735
			vertex -0.05078937113285065 0.0618041530251503 -0.036741625517606735
		endloop
	endfacet
	facet normal 0 0 -1
		outer loop
			vertex -0.055555567145347595 0.05189017206430435 -0.036741625517606735
			vertex -0.05078937113285065 0.0618041530251503 -0.036741625517606735
			vertex -0.05064718425273895 0.05055493861436844 -0.036741625517606735
		endloop
	endfacet
	facet normal 0 0 -1
		outer loop
			vertex -0.05120055377483368 0.09433562308549881 -0.036741625517606735
			vertex -0.055375173687934875 0.10202724486589432 -0.036741625517606735
			vertex -0.05129776895046234 0.10202724486589432 -0.036741625517606735
		endloop
	endfacet
	facet normal 0 0 -1
		outer loop
			vertex -0.055555567145347595 0.06314436346292496 -0.036741625517606735
			vertex -0.055555567145347595 0.10202724486589432 -0.036741625517606735
			vertex -0.055375173687934875 0.10202724486589432 -0.036741625517606735
		endloop
	endfacet
	facet normal 0 0 -1
		outer loop
			vertex -0.055555567145347595 0.06314436346292496 -0.036741625517606735
			vertex -0.055375173687934875 0.10202724486589432 -0.036741625517606735
			vertex -0.05120055377483368 0.09433562308549881 -0.036741625517606735
		endloop
	endfacet
	facet normal 0 0 -1
		outer loop
			vertex -0.055555567145347595 0.06314436346292496 -0.036741625517606735
			vertex -0.05120055377483368 0.09433562308549881 -0.036741625517606735
			vertex -0.05078937113285065 0.0618041530251503 -0.036741625517606735
		endloop
	endfacet
	facet normal 0 0 -1
		outer loop
			vertex 0.04489007592201233 0.047049082815647125 -0.036741625517606735
			vertex 0.04866918921470642 0.04750872403383255 -0.036741625517606735
			vertex 0.04942171275615692 0.04722464829683304 -0.036741625517606735
		endloop
	endfacet
	facet normal 0 0 -1
		outer loop
			vertex -0.024617942050099373 0.03859554976224899 -0.036741625517606735
			vertex -0.024995194748044014 0.03854968398809433 -0.036741625517606735
			vertex -0.025862054899334908 0.0390179380774498 -0.036741625517606735
		endloop
	endfacet
	facet normal 0 0 -1
		outer loop
			vertex -0.024617942050099373 0.03859554976224899 -0.036741625517606735
			vertex -0.025862054899334908 0.0390179380774498 -0.036741625517606735
			vertex -0.025507645681500435 0.03905957192182541 -0.036741625517606735
		endloop
	endfacet
	facet normal 0 0 -1
		outer loop
			vertex -0.021174969151616096 0.039014287292957306 -0.036741625517606735
			vertex -0.021457763388752937 0.03953532129526138 -0.036741625517606735
			vertex 0.04813474416732788 0.04771045595407486 -0.036741625517606735
		endloop
	endfacet
	facet normal 0 0 -1
		outer loop
			vertex -0.021174969151616096 0.039014287292957306 -0.036741625517606735
			vertex 0.04813474416732788 0.04771045595407486 -0.036741625517606735
			vertex 0.04866918921470642 0.04750872403383255 -0.036741625517606735
		endloop
	endfacet
	facet normal 0 0 -1
		outer loop
			vertex -0.021457763388752937 0.03953532129526138 -0.036741625517606735
			vertex -0.021174969151616096 0.039014287292957306 -0.036741625517606735
			vertex -0.024617942050099373 0.03859554976224899 -0.036741625517606735
		endloop
	endfacet
	facet normal 0 0 -1
		outer loop
			vertex -0.021457763388752937 0.03953532129526138 -0.036741625517606735
			vertex -0.024617942050099373 0.03859554976224899 -0.036741625517606735
			vertex -0.025507645681500435 0.03905957192182541 -0.036741625517606735
		endloop
	endfacet
	facet normal 0 0 -1
		outer loop
			vertex -0.05064718425273895 0.05055493861436844 -0.036741625517606735
			vertex -0.05066774785518646 0.05218151956796646 -0.036741625517606735
			vertex -0.04417102038860321 0.048793233931064606 -0.036741625517606735
		endloop
	endfacet
	facet normal 0 0 -1
		outer loop
			vertex -0.025507645681500435 0.03905957192182541 -0.036741625517606735
			vertex -0.025862054899334908 0.0390179380774498 -0.036741625517606735
			vertex -0.038007453083992004 0.045578695833683014 -0.036741625517606735
		endloop
	endfacet
	facet normal 0 0 -1
		outer loop
			vertex -0.021457763388752937 0.03953532129526138 -0.036741625517606735
			vertex -0.04496936500072479 0.08285481482744217 -0.036741625517606735
			vertex 0.04813474416732788 0.04771045595407486 -0.036741625517606735
		endloop
	endfacet
	facet normal 0 0 -1
		outer loop
			vertex -0.04496936500072479 0.08285481482744217 -0.036741625517606735
			vertex -0.021457763388752937 0.03953532129526138 -0.036741625517606735
			vertex -0.025507645681500435 0.03905957192182541 -0.036741625517606735
		endloop
	endfacet
	facet normal 0 0 -1
		outer loop
			vertex -0.04496936500072479 0.08285481482744217 -0.036741625517606735
			vertex -0.025507645681500435 0.03905957192182541 -0.036741625517606735
			vertex -0.05066774785518646 0.05218151956796646 -0.036741625517606735
		endloop
	endfacet
	facet normal 0 0 -1
		outer loop
			vertex -0.04496936500072479 0.08285481482744217 -0.036741625517606735
			vertex -0.05066774785518646 0.05218151956796646 -0.036741625517606735
			vertex -0.051084622740745544 0.08516315370798111 -0.036741625517606735
		endloop
	endfacet
	facet normal 0 0 -1
		outer loop
			vertex 0.010289488360285759 0.06199602037668228 -0.036741625517606735
			vertex -0.04496936500072479 0.08285481482744217 -0.036741625517606735
			vertex -0.05120055377483368 0.09433562308549881 -0.036741625517606735
		endloop
	endfacet
	facet normal 0 0 -1
		outer loop
			vertex 0.010289488360285759 0.06199602037668228 -0.036741625517606735
			vertex -0.05120055377483368 0.09433562308549881 -0.036741625517606735
			vertex -0.05129776895046234 0.10202724486589432 -0.036741625517606735
		endloop
	endfacet
	facet normal 0 0 -1
		outer loop
			vertex 0.010289488360285759 0.06199602037668228 -0.036741625517606735
			vertex -0.05129776895046234 0.10202724486589432 -0.036741625517606735
			vertex -0.04600284993648529 0.10202724486589432 -0.036741625517606735
		endloop
	endfacet
	facet normal 0 0 -1
		outer loop
			vertex -0.05120055377483368 0.09433562308549881 -0.036741625517606735
			vertex -0.04496936500072479 0.08285481482744217 -0.036741625517606735
			vertex -0.051084622740745544 0.08516315370798111 -0.036741625517606735
		endloop
	endfacet
	facet normal 0 0 -1
		outer loop
			vertex 0.0555555522441864 0.048346228897571564 -0.036741625517606735
			vertex 0.0555555522441864 0.04746229201555252 -0.036741625517606735
			vertex 0.04942171275615692 0.04722464829683304 -0.036741625517606735
		endloop
	endfacet
	facet normal 0 0 -1
		outer loop
			vertex 0.0555555522441864 0.048346228897571564 -0.036741625517606735
			vertex 0.04942171275615692 0.04722464829683304 -0.036741625517606735
			vertex 0.04866918921470642 0.04750872403383255 -0.036741625517606735
		endloop
	endfacet
	facet normal 0 0 -1
		outer loop
			vertex 0.0555555522441864 0.10202724486589432 -0.036741625517606735
			vertex 0.0555555522441864 0.048346228897571564 -0.036741625517606735
			vertex 0.04866918921470642 0.04750872403383255 -0.036741625517606735
		endloop
	endfacet
	facet normal 0 0 -1
		outer loop
			vertex 0.0555555522441864 0.10202724486589432 -0.036741625517606735
			vertex 0.04866918921470642 0.04750872403383255 -0.036741625517606735
			vertex 0.010289488360285759 0.06199602037668228 -0.036741625517606735
		endloop
	endfacet
	facet normal 0 0 -1
		outer loop
			vertex 0.0555555522441864 0.10202724486589432 -0.036741625517606735
			vertex 0.010289488360285759 0.06199602037668228 -0.036741625517606735
			vertex -0.04600284993648529 0.10202724486589432 -0.036741625517606735
		endloop
	endfacet
endsolid exported
