solid exported
	facet normal -0.27858960073399464 -0.7380374863664185 0.6145636688584935
		outer loop
			vertex -0.03483991324901581 -0.026420747861266136 -0.016413724049925804
			vertex 0.0429043173789978 -0.011504686437547207 0.036741625517606735
			vertex -0.012034730985760689 0.00923334900289774 0.036741625517606735
		endloop
	endfacet
	facet normal -0.27858859660858276 -0.7380379597312697 0.614563555570427
		outer loop
			vertex -0.03483991324901581 -0.026420747861266136 -0.016413724049925804
			vertex -0.012034730985760689 0.00923334900289774 0.036741625517606735
			vertex -0.01635131426155567 0.009801813401281834 0.03546754643321037
		endloop
	endfacet
	facet normal -0.36528197441587956 -0.9270268502419734 0.08479562546076673
		outer loop
			vertex 0.0555555522441864 -0.05970262736082077 0.009137572720646858
			vertex 0.0555555522441864 -0.05914241820573807 0.015262050554156303
			vertex -0.03483991324901581 -0.026420747861266136 -0.016413724049925804
		endloop
	endfacet
	facet normal -0.3652822049671836 -0.9270266624089338 0.08479668576816643
		outer loop
			vertex 0.0555555522441864 -0.05970262736082077 0.009137572720646858
			vertex -0.03483991324901581 -0.026420747861266136 -0.016413724049925804
			vertex 0.027334554120898247 -0.05104682594537735 -0.017802981659770012
		endloop
	endfacet
	facet normal -0.5572362747011573 -0.757383507828323 0.3403791360040175
		outer loop
			vertex 0.0555555522441864 -0.06163019686937332 0.004848504438996315
			vertex 0.0555555522441864 -0.05970262736082077 0.009137572720646858
			vertex 0.027334554120898247 -0.05104682594537735 -0.017802981659770012
		endloop
	endfacet
	facet normal -0.5572360100365072 -0.7573839418842072 0.3403786034616949
		outer loop
			vertex 0.0555555522441864 -0.06163019686937332 0.004848504438996315
			vertex 0.027334554120898247 -0.05104682594537735 -0.017802981659770012
			vertex 0.03435319662094116 -0.059159062802791595 -0.024363433942198753
		endloop
	endfacet
	facet normal 1 0 0
		outer loop
			vertex 0.0555555522441864 -0.06163019686937332 0.004848504438996315
			vertex 0.0555555522441864 -0.06008654087781906 0.004940548911690712
			vertex 0.0555555522441864 -0.05970262736082077 0.009137572720646858
		endloop
	endfacet
	facet normal -0.437757755029931 -0.4636029390481045 0.77035086993987
		outer loop
			vertex 0.0555555522441864 -0.023450633510947227 0.036741625517606735
			vertex 0.0429043173789978 -0.011504686437547207 0.036741625517606735
			vertex -0.03483991324901581 -0.026420747861266136 -0.016413724049925804
		endloop
	endfacet
	facet normal -0.4377578002044825 -0.4636027832069092 0.7703509380554685
		outer loop
			vertex 0.0555555522441864 -0.023450633510947227 0.036741625517606735
			vertex -0.03483991324901581 -0.026420747861266136 -0.016413724049925804
			vertex 0.0555555522441864 -0.05914241820573807 0.015262050554156303
		endloop
	endfacet
	facet normal 1 0 0
		outer loop
			vertex 0.0555555522441864 -0.01628020964562893 0.036741625517606735
			vertex 0.0555555522441864 -0.023450633510947227 0.036741625517606735
			vertex 0.0555555522441864 -0.05293174833059311 0.018999675288796425
		endloop
	endfacet
	facet normal 1 0 0
		outer loop
			vertex 0.0555555522441864 -0.01628020964562893 0.036741625517606735
			vertex 0.0555555522441864 -0.05293174833059311 0.018999675288796425
			vertex 0.0555555522441864 -0.036088354885578156 0.01295378990471363
		endloop
	endfacet
	facet normal 1 0 0
		outer loop
			vertex 0.0555555522441864 -0.06008654087781906 0.004940548911690712
			vertex 0.0555555522441864 -0.041855789721012115 0.006027596071362495
			vertex 0.0555555522441864 -0.036088354885578156 0.01295378990471363
		endloop
	endfacet
	facet normal 1 0 0
		outer loop
			vertex 0.0555555522441864 -0.06008654087781906 0.004940548911690712
			vertex 0.0555555522441864 -0.036088354885578156 0.01295378990471363
			vertex 0.0555555522441864 -0.05293174833059311 0.018999675288796425
		endloop
	endfacet
	facet normal 1 0 0
		outer loop
			vertex 0.0555555522441864 -0.06008654087781906 0.004940548911690712
			vertex 0.0555555522441864 -0.05293174833059311 0.018999675288796425
			vertex 0.0555555522441864 -0.05914241820573807 0.015262050554156303
		endloop
	endfacet
	facet normal -0.4579592292025366 -0.6439891949708654 0.612822373244479
		outer loop
			vertex -0.055555567145347595 0.0095887565985322 0.005946436896920204
			vertex -0.055555567145347595 -0.0029994011856615543 -0.007281927391886711
			vertex -0.03483991324901581 -0.026420747861266136 -0.016413724049925804
		endloop
	endfacet
	facet normal -0.45795987141640554 -0.6439892382046108 0.6128218478880421
		outer loop
			vertex -0.055555567145347595 0.0095887565985322 0.005946436896920204
			vertex -0.03483991324901581 -0.026420747861266136 -0.016413724049925804
			vertex -0.01635131426155567 0.009801813401281834 0.03546754643321037
		endloop
	endfacet
	facet normal -0.3652820729926771 -0.9270266859099904 0.08479699735788339
		outer loop
			vertex -0.03483991324901581 -0.026420747861266136 -0.016413724049925804
			vertex -0.03134404122829437 -0.02965768240392208 -0.036741629242897034
			vertex 0.007495788857340813 -0.04496198147535324 -0.036741629242897034
		endloop
	endfacet
	facet normal -0.3652822041594852 -0.9270266612690186 0.08479670170946961
		outer loop
			vertex -0.03483991324901581 -0.026420747861266136 -0.016413724049925804
			vertex 0.007495788857340813 -0.04496198147535324 -0.036741629242897034
			vertex 0.027334554120898247 -0.05104682594537735 -0.017802981659770012
		endloop
	endfacet
	facet normal -0.5572359256660687 -0.7573840471765502 0.3403785072967283
		outer loop
			vertex 0.027334554120898247 -0.05104682594537735 -0.017802981659770012
			vertex 0.007495788857340813 -0.04496198147535324 -0.036741629242897034
			vertex 0.025368956848978996 -0.05811194330453873 -0.036741629242897034
		endloop
	endfacet
	facet normal -0.5572361063677357 -0.7573839260983076 0.3403784808827361
		outer loop
			vertex 0.027334554120898247 -0.05104682594537735 -0.017802981659770012
			vertex 0.025368956848978996 -0.05811194330453873 -0.036741629242897034
			vertex 0.03435319662094116 -0.059159062802791595 -0.024363433942198753
		endloop
	endfacet
	facet normal -0.46721341780059844 -0.6478320702208852 0.6016853255817409
		outer loop
			vertex -0.055555567145347595 -0.016267022117972374 -0.021567119285464287
			vertex -0.03483991324901581 -0.026420747861266136 -0.016413724049925804
			vertex -0.055555567145347595 -0.0029994011856615543 -0.007281927391886711
		endloop
	endfacet
	facet normal -0.45200210550457587 -0.8897220735974886 0.06394316517670508
		outer loop
			vertex -0.055555567145347595 -0.017357593402266502 -0.036741629242897034
			vertex -0.03134404122829437 -0.02965768240392208 -0.036741629242897034
			vertex -0.03483991324901581 -0.026420747861266136 -0.016413724049925804
		endloop
	endfacet
	facet normal -0.45200206327722464 -0.8897220989553273 0.06394311083813985
		outer loop
			vertex -0.055555567145347595 -0.017357593402266502 -0.036741629242897034
			vertex -0.03483991324901581 -0.026420747861266136 -0.016413724049925804
			vertex -0.055555567145347595 -0.016267022117972374 -0.021567119285464287
		endloop
	endfacet
	facet normal 1 0 0
		outer loop
			vertex 0.0555555522441864 -0.005643075797706842 0.036741625517606735
			vertex 0.0555555522441864 -0.01628020964562893 0.036741625517606735
			vertex 0.0555555522441864 -0.036088354885578156 0.01295378990471363
		endloop
	endfacet
	facet normal 1 0 0
		outer loop
			vertex 0.0555555522441864 -0.005643075797706842 0.036741625517606735
			vertex 0.0555555522441864 -0.036088354885578156 0.01295378990471363
			vertex 0.0555555522441864 -0.020362799987196922 0.007309155538678169
		endloop
	endfacet
	facet normal 1 0 0
		outer loop
			vertex 0.0555555522441864 -0.005643075797706842 0.036741625517606735
			vertex 0.0555555522441864 -0.020362799987196922 0.007309155538678169
			vertex 0.0555555522441864 -0.014350957237184048 0.007667625322937965
		endloop
	endfacet
	facet normal 1 0 0
		outer loop
			vertex 0.0555555522441864 -0.041855789721012115 0.006027596071362495
			vertex 0.0555555522441864 -0.020362799987196922 0.007309155538678169
			vertex 0.0555555522441864 -0.036088354885578156 0.01295378990471363
		endloop
	endfacet
	facet normal -0.5572363535263326 -0.7573835896583352 0.34037882487741605
		outer loop
			vertex 0.0555555522441864 -0.06163019686937332 0.004848504438996315
			vertex 0.025368956848978996 -0.05811194330453873 -0.036741629242897034
			vertex 0.04543665051460266 -0.07287652045488358 -0.036741629242897034
		endloop
	endfacet
	facet normal -0.5572356660716757 -0.7573841076622999 0.34037879769198015
		outer loop
			vertex 0.0555555522441864 -0.06163019686937332 0.004848504438996315
			vertex 0.04543665051460266 -0.07287652045488358 -0.036741629242897034
			vertex 0.0555555522441864 -0.07829012721776962 -0.03222186118364334
		endloop
	endfacet
	facet normal -0.3823447016879895 -0.8976498983061231 -0.21917387883169287
		outer loop
			vertex 0.0555555522441864 -0.07718656212091446 -0.036741629242897034
			vertex 0.0555555522441864 -0.07829012721776962 -0.03222186118364334
			vertex 0.04543665051460266 -0.07287652045488358 -0.036741629242897034
		endloop
	endfacet
	facet normal 1 0 0
		outer loop
			vertex 0.0555555522441864 -0.020362799987196922 0.007309155538678169
			vertex 0.0555555522441864 -0.01503149326890707 0.005395503714680672
			vertex 0.0555555522441864 -0.014712548814713955 0.006460340693593025
		endloop
	endfacet
	facet normal 1 0 0
		outer loop
			vertex 0.0555555522441864 -0.020362799987196922 0.007309155538678169
			vertex 0.0555555522441864 -0.014712548814713955 0.006460340693593025
			vertex 0.0555555522441864 -0.015008575282990932 0.007628420367836952
		endloop
	endfacet
	facet normal 1 0 0
		outer loop
			vertex 0.0555555522441864 -0.07718656212091446 -0.036741629242897034
			vertex 0.0555555522441864 -0.027651866897940636 -0.036741629242897034
			vertex 0.0555555522441864 -0.01503149326890707 0.005395503714680672
		endloop
	endfacet
	facet normal 1 0 0
		outer loop
			vertex 0.0555555522441864 -0.07718656212091446 -0.036741629242897034
			vertex 0.0555555522441864 -0.01503149326890707 0.005395503714680672
			vertex 0.0555555522441864 -0.020362799987196922 0.007309155538678169
		endloop
	endfacet
	facet normal 1 0 0
		outer loop
			vertex 0.0555555522441864 -0.07718656212091446 -0.036741629242897034
			vertex 0.0555555522441864 -0.020362799987196922 0.007309155538678169
			vertex 0.0555555522441864 -0.06163019686937332 0.004848504438996315
		endloop
	endfacet
	facet normal 1 0 0
		outer loop
			vertex 0.0555555522441864 -0.07718656212091446 -0.036741629242897034
			vertex 0.0555555522441864 -0.06163019686937332 0.004848504438996315
			vertex 0.0555555522441864 -0.07829012721776962 -0.03222186118364334
		endloop
	endfacet
	facet normal 1 0 0
		outer loop
			vertex 0.0555555522441864 -0.014712548814713955 0.006460340693593025
			vertex 0.0555555522441864 -0.014350957237184048 0.007667625322937965
			vertex 0.0555555522441864 -0.015008575282990932 0.007628420367836952
		endloop
	endfacet
	facet normal 1 0 0
		outer loop
			vertex 0.0555555522441864 -0.027651866897940636 -0.036741629242897034
			vertex 0.0555555522441864 -0.010931826196610928 -0.036741629242897034
			vertex 0.0555555522441864 -0.021116813644766808 -0.01492229662835598
		endloop
	endfacet
	facet normal 0 1 0
		outer loop
			vertex -0.055555567145347595 0.10202724486589432 -0.036741629242897034
			vertex -0.055555567145347595 0.10202724486589432 0.036741625517606735
			vertex 0.0555555522441864 0.10202724486589432 0.036741625517606735
		endloop
	endfacet
	facet normal 0 1 0
		outer loop
			vertex -0.055555567145347595 0.10202724486589432 -0.036741629242897034
			vertex 0.0555555522441864 0.10202724486589432 0.036741625517606735
			vertex 0.0555555522441864 0.10202724486589432 0.014606928452849388
		endloop
	endfacet
	facet normal 0 1 0
		outer loop
			vertex -0.055555567145347595 0.10202724486589432 -0.036741629242897034
			vertex 0.0555555522441864 0.10202724486589432 0.014606928452849388
			vertex 0.018473220989108086 0.10202724486589432 -0.036741629242897034
		endloop
	endfacet
	facet normal -0.27858872267023416 -0.7380373181263639 0.6145642689367904
		outer loop
			vertex -0.012034730985760689 0.00923334900289774 0.036741625517606735
			vertex -0.015897275879979134 0.010691353119909763 0.036741625517606735
			vertex -0.01635131426155567 0.009801813401281834 0.03546754643321037
		endloop
	endfacet
	facet normal -0.4579603346761633 -0.6439887397198224 0.6128220255321861
		outer loop
			vertex -0.04042159020900726 0.028131330385804176 0.036741625517606735
			vertex -0.055555567145347595 0.024459371343255043 0.02157333679497242
			vertex -0.055555567145347595 0.0095887565985322 0.005946436896920204
		endloop
	endfacet
	facet normal -0.45795999626820544 -0.6439889933208902 0.61282201192481
		outer loop
			vertex -0.04042159020900726 0.028131330385804176 0.036741625517606735
			vertex -0.055555567145347595 0.0095887565985322 0.005946436896920204
			vertex -0.01635131426155567 0.009801813401281834 0.03546754643321037
		endloop
	endfacet
	facet normal -0.45795962472984053 -0.6439885566159528 0.612822748488505
		outer loop
			vertex -0.04042159020900726 0.028131330385804176 0.036741625517606735
			vertex -0.01635131426155567 0.009801813401281834 0.03546754643321037
			vertex -0.015897275879979134 0.010691353119909763 0.036741625517606735
		endloop
	endfacet
	facet normal 0.11578135481807902 -0.9856195221175523 0.12308060569097765
		outer loop
			vertex -0.055555567145347595 0.026353532448410988 0.036741625517606735
			vertex -0.055555567145347595 0.024459371343255043 0.02157333679497242
			vertex -0.04042159020900726 0.028131330385804176 0.036741625517606735
		endloop
	endfacet
	facet normal 1 0 0
		outer loop
			vertex 0.0555555522441864 -0.005140251014381647 0.036741625517606735
			vertex 0.0555555522441864 -0.005643075797706842 0.036741625517606735
			vertex 0.0555555522441864 -0.005976101849228144 0.0356297492980957
		endloop
	endfacet
	facet normal 1 0 0
		outer loop
			vertex 0.0555555522441864 0.0394848957657814 0.036741625517606735
			vertex 0.0555555522441864 -0.005140251014381647 0.036741625517606735
			vertex 0.0555555522441864 -0.005976101849228144 0.0356297492980957
		endloop
	endfacet
	facet normal 1 0 0
		outer loop
			vertex 0.0555555522441864 0.0394848957657814 0.036741625517606735
			vertex 0.0555555522441864 -0.005976101849228144 0.0356297492980957
			vertex 0.0555555522441864 -0.014350957237184048 0.007667625322937965
		endloop
	endfacet
	facet normal 1 0 0
		outer loop
			vertex 0.0555555522441864 0.0394848957657814 0.036741625517606735
			vertex 0.0555555522441864 -0.014350957237184048 0.007667625322937965
			vertex 0.0555555522441864 0.0363040491938591 0.010688045993447304
		endloop
	endfacet
	facet normal 1 0 0
		outer loop
			vertex 0.0555555522441864 0.04118096083402634 0.036741625517606735
			vertex 0.0555555522441864 0.0394848957657814 0.036741625517606735
			vertex 0.0555555522441864 0.0363040491938591 0.010688045993447304
		endloop
	endfacet
	facet normal 1 0 0
		outer loop
			vertex 0.0555555522441864 0.04118096083402634 0.036741625517606735
			vertex 0.0555555522441864 0.0363040491938591 0.010688045993447304
			vertex 0.0555555522441864 0.0386541411280632 0.010828176513314247
		endloop
	endfacet
	facet normal 1 0 0
		outer loop
			vertex 0.0555555522441864 0.10202724486589432 0.036741625517606735
			vertex 0.0555555522441864 0.04118096083402634 0.036741625517606735
			vertex 0.0555555522441864 0.0386541411280632 0.010828176513314247
		endloop
	endfacet
	facet normal 1 0 0
		outer loop
			vertex 0.0555555522441864 0.10202724486589432 0.036741625517606735
			vertex 0.0555555522441864 0.0386541411280632 0.010828176513314247
			vertex 0.0555555522441864 0.10202724486589432 0.014606928452849388
		endloop
	endfacet
	facet normal 0 1 0
		outer loop
			vertex 0.03897199034690857 0.10202724486589432 -0.036741629242897034
			vertex 0.0555555522441864 0.10202724486589432 -0.005098147317767143
			vertex 0.0555555522441864 0.10202724486589432 -0.036741629242897034
		endloop
	endfacet
	facet normal 0 1 0
		outer loop
			vertex 0.03316493332386017 0.10202724486589432 -0.036741629242897034
			vertex 0.0555555522441864 0.10202724486589432 -0.001040009898133576
			vertex 0.0555555522441864 0.10202724486589432 -0.005098147317767143
		endloop
	endfacet
	facet normal 0 1 0
		outer loop
			vertex 0.03316493332386017 0.10202724486589432 -0.036741629242897034
			vertex 0.0555555522441864 0.10202724486589432 -0.005098147317767143
			vertex 0.03897199034690857 0.10202724486589432 -0.036741629242897034
		endloop
	endfacet
	facet normal 1 0 0
		outer loop
			vertex 0.0555555522441864 0.006562048103660345 -0.0023554323706775904
			vertex 0.0555555522441864 0.07941583544015884 -0.028506038710474968
			vertex 0.0555555522441864 0.08119309693574905 -0.001327088219113648
		endloop
	endfacet
	facet normal 1 0 0
		outer loop
			vertex 0.0555555522441864 -0.010931826196610928 -0.036741629242897034
			vertex 0.0555555522441864 0.0788772776722908 -0.036741629242897034
			vertex 0.0555555522441864 0.07941583544015884 -0.028506038710474968
		endloop
	endfacet
	facet normal 1 0 0
		outer loop
			vertex 0.0555555522441864 -0.010931826196610928 -0.036741629242897034
			vertex 0.0555555522441864 0.07941583544015884 -0.028506038710474968
			vertex 0.0555555522441864 0.006562048103660345 -0.0023554323706775904
		endloop
	endfacet
	facet normal 1 0 0
		outer loop
			vertex 0.0555555522441864 -0.010931826196610928 -0.036741629242897034
			vertex 0.0555555522441864 0.006562048103660345 -0.0023554323706775904
			vertex 0.0555555522441864 -0.01745203696191311 -0.0026863201055675745
		endloop
	endfacet
	facet normal 1 0 0
		outer loop
			vertex 0.0555555522441864 -0.010931826196610928 -0.036741629242897034
			vertex 0.0555555522441864 -0.01745203696191311 -0.0026863201055675745
			vertex 0.0555555522441864 -0.021116813644766808 -0.01492229662835598
		endloop
	endfacet
	facet normal 1 0 0
		outer loop
			vertex 0.0555555522441864 0.07941583544015884 -0.028506038710474968
			vertex 0.0555555522441864 0.10202724486589432 -0.03662233054637909
			vertex 0.0555555522441864 0.10202724486589432 -0.001040009898133576
		endloop
	endfacet
	facet normal 1 0 0
		outer loop
			vertex 0.0555555522441864 0.07941583544015884 -0.028506038710474968
			vertex 0.0555555522441864 0.10202724486589432 -0.001040009898133576
			vertex 0.0555555522441864 0.08119309693574905 -0.001327088219113648
		endloop
	endfacet
	facet normal 1 0 0
		outer loop
			vertex 0.0555555522441864 0.0788772776722908 -0.036741629242897034
			vertex 0.0555555522441864 0.10202724486589432 -0.036741629242897034
			vertex 0.0555555522441864 0.10202724486589432 -0.03662233054637909
		endloop
	endfacet
	facet normal 1 0 0
		outer loop
			vertex 0.0555555522441864 0.0788772776722908 -0.036741629242897034
			vertex 0.0555555522441864 0.10202724486589432 -0.03662233054637909
			vertex 0.0555555522441864 0.07941583544015884 -0.028506038710474968
		endloop
	endfacet
	facet normal 0 1 0
		outer loop
			vertex 0.018473220989108086 0.10202724486589432 -0.036741629242897034
			vertex 0.0555555522441864 0.10202724486589432 0.014606928452849388
			vertex 0.0555555522441864 0.10202724486589432 -0.001040009898133576
		endloop
	endfacet
	facet normal 0 1 0
		outer loop
			vertex 0.018473220989108086 0.10202724486589432 -0.036741629242897034
			vertex 0.0555555522441864 0.10202724486589432 -0.001040009898133576
			vertex 0.03316493332386017 0.10202724486589432 -0.036741629242897034
		endloop
	endfacet
	facet normal 1 0 0
		outer loop
			vertex 0.0555555522441864 -0.014350957237184048 0.007667625322937965
			vertex 0.0555555522441864 -0.01503149326890707 0.005395503714680672
			vertex 0.0555555522441864 0.006562048103660345 -0.0023554323706775904
		endloop
	endfacet
	facet normal 1 0 0
		outer loop
			vertex 0.0555555522441864 -0.014350957237184048 0.007667625322937965
			vertex 0.0555555522441864 0.006562048103660345 -0.0023554323706775904
			vertex 0.0555555522441864 0.10202724486589432 -0.001040009898133576
		endloop
	endfacet
	facet normal 1 0 0
		outer loop
			vertex 0.0555555522441864 -0.014350957237184048 0.007667625322937965
			vertex 0.0555555522441864 0.10202724486589432 -0.001040009898133576
			vertex 0.0555555522441864 0.10202724486589432 0.014606928452849388
		endloop
	endfacet
	facet normal 1 0 0
		outer loop
			vertex 0.0555555522441864 0.006562048103660345 -0.0023554323706775904
			vertex 0.0555555522441864 -0.01503149326890707 0.005395503714680672
			vertex 0.0555555522441864 -0.01745203696191311 -0.0026863201055675745
		endloop
	endfacet
	facet normal -1 0 0
		outer loop
			vertex -0.055555567145347595 -0.003196632955223322 -0.036741629242897034
			vertex -0.055555567145347595 -0.017357593402266502 -0.036741629242897034
			vertex -0.055555567145347595 -0.016267022117972374 -0.021567119285464287
		endloop
	endfacet
	facet normal -1 0 0
		outer loop
			vertex -0.055555567145347595 -0.003196632955223322 -0.036741629242897034
			vertex -0.055555567145347595 -0.016267022117972374 -0.021567119285464287
			vertex -0.055555567145347595 -0.0029994011856615543 -0.007281927391886711
		endloop
	endfacet
	facet normal -1 0 0
		outer loop
			vertex -0.055555567145347595 -0.003196632955223322 -0.036741629242897034
			vertex -0.055555567145347595 -0.0029994011856615543 -0.007281927391886711
			vertex -0.055555567145347595 0.005968952085822821 0.002142535289749503
		endloop
	endfacet
	facet normal -1 0 0
		outer loop
			vertex -0.055555567145347595 -0.003196632955223322 -0.036741629242897034
			vertex -0.055555567145347595 0.005968952085822821 0.002142535289749503
			vertex -0.055555567145347595 0.008748271502554417 0.00314015313051641
		endloop
	endfacet
	facet normal -1 0 0
		outer loop
			vertex -0.055555567145347595 0.0095887565985322 0.005946436896920204
			vertex -0.055555567145347595 0.008748271502554417 0.00314015313051641
			vertex -0.055555567145347595 0.005968952085822821 0.002142535289749503
		endloop
	endfacet
	facet normal -1 0 0
		outer loop
			vertex -0.055555567145347595 -0.001995301339775324 -0.036741629242897034
			vertex -0.055555567145347595 -0.003196632955223322 -0.036741629242897034
			vertex -0.055555567145347595 -0.0017604590393602848 -0.03194645792245865
		endloop
	endfacet
	facet normal -1 0 0
		outer loop
			vertex -0.055555567145347595 0.00483495881780982 -0.036741629242897034
			vertex -0.055555567145347595 -0.001995301339775324 -0.036741629242897034
			vertex -0.055555567145347595 -0.0017604590393602848 -0.03194645792245865
		endloop
	endfacet
	facet normal -1 0 0
		outer loop
			vertex -0.055555567145347595 0.00483495881780982 -0.036741629242897034
			vertex -0.055555567145347595 -0.0017604590393602848 -0.03194645792245865
			vertex -0.055555567145347595 0.005198487546294928 -0.008711835369467735
		endloop
	endfacet
	facet normal -1 0 0
		outer loop
			vertex -0.055555567145347595 0.00483495881780982 -0.036741629242897034
			vertex -0.055555567145347595 0.005198487546294928 -0.008711835369467735
			vertex -0.055555567145347595 0.005682834889739752 -0.009749410673975945
		endloop
	endfacet
	facet normal -1 0 0
		outer loop
			vertex -0.055555567145347595 0.005198487546294928 -0.008711835369467735
			vertex -0.055555567145347595 0.0057759820483624935 -0.006783707067370415
			vertex -0.055555567145347595 0.005682834889739752 -0.009749410673975945
		endloop
	endfacet
	facet normal -1 0 0
		outer loop
			vertex -0.055555567145347595 0.018282482400536537 -0.036741629242897034
			vertex -0.055555567145347595 0.00483495881780982 -0.036741629242897034
			vertex -0.055555567145347595 0.005682834889739752 -0.009749410673975945
		endloop
	endfacet
	facet normal -1 0 0
		outer loop
			vertex -0.055555567145347595 0.026353532448410988 0.036741625517606735
			vertex -0.055555567145347595 0.03889355808496475 0.036741625517606735
			vertex -0.055555567145347595 0.024459371343255043 0.02157333679497242
		endloop
	endfacet
	facet normal -1 0 0
		outer loop
			vertex -0.055555567145347595 0.017673367634415627 -0.035436779260635376
			vertex -0.055555567145347595 0.005682834889739752 -0.009749410673975945
			vertex -0.055555567145347595 0.0057759820483624935 -0.006783707067370415
		endloop
	endfacet
	facet normal -1 0 0
		outer loop
			vertex -0.055555567145347595 0.017673367634415627 -0.035436779260635376
			vertex -0.055555567145347595 0.0057759820483624935 -0.006783707067370415
			vertex -0.055555567145347595 0.008748271502554417 0.00314015313051641
		endloop
	endfacet
	facet normal -1 0 0
		outer loop
			vertex -0.055555567145347595 0.017673367634415627 -0.035436779260635376
			vertex -0.055555567145347595 0.008748271502554417 0.00314015313051641
			vertex -0.055555567145347595 0.023008102551102638 0.008258672431111336
		endloop
	endfacet
	facet normal -1 0 0
		outer loop
			vertex -0.055555567145347595 0.023008102551102638 0.008258672431111336
			vertex -0.055555567145347595 0.008748271502554417 0.00314015313051641
			vertex -0.055555567145347595 0.0095887565985322 0.005946436896920204
		endloop
	endfacet
	facet normal -1 0 0
		outer loop
			vertex -0.055555567145347595 0.023008102551102638 0.008258672431111336
			vertex -0.055555567145347595 0.0095887565985322 0.005946436896920204
			vertex -0.055555567145347595 0.024659300222992897 0.02178344316780567
		endloop
	endfacet
	facet normal -1 0 0
		outer loop
			vertex -0.055555567145347595 0.020502367988228798 -0.036741629242897034
			vertex -0.055555567145347595 0.018282482400536537 -0.036741629242897034
			vertex -0.055555567145347595 0.017673367634415627 -0.035436779260635376
		endloop
	endfacet
	facet normal -1 0 0
		outer loop
			vertex -0.055555567145347595 0.020502367988228798 -0.036741629242897034
			vertex -0.055555567145347595 0.017673367634415627 -0.035436779260635376
			vertex -0.055555567145347595 0.023008102551102638 0.008258672431111336
		endloop
	endfacet
	facet normal -1 0 0
		outer loop
			vertex -0.055555567145347595 0.020502367988228798 -0.036741629242897034
			vertex -0.055555567145347595 0.023008102551102638 0.008258672431111336
			vertex -0.055555567145347595 0.024958575144410133 0.008958796039223671
		endloop
	endfacet
	facet normal -1 0 0
		outer loop
			vertex -0.055555567145347595 0.024958575144410133 0.008958796039223671
			vertex -0.055555567145347595 0.023008102551102638 0.008258672431111336
			vertex -0.055555567145347595 0.024659300222992897 0.02178344316780567
		endloop
	endfacet
	facet normal -1 0 0
		outer loop
			vertex -0.055555567145347595 0.024958575144410133 0.008958796039223671
			vertex -0.055555567145347595 0.024659300222992897 0.02178344316780567
			vertex -0.055555567145347595 0.02638603188097477 0.023597991093993187
		endloop
	endfacet
	facet normal -1 0 0
		outer loop
			vertex -0.055555567145347595 0.10202724486589432 -0.036741629242897034
			vertex -0.055555567145347595 0.020502367988228798 -0.036741629242897034
			vertex -0.055555567145347595 0.024958575144410133 0.008958796039223671
		endloop
	endfacet
	facet normal -1 0 0
		outer loop
			vertex -0.055555567145347595 0.10202724486589432 -0.036741629242897034
			vertex -0.055555567145347595 0.024958575144410133 0.008958796039223671
			vertex -0.055555567145347595 0.10202724486589432 0.03662233054637909
		endloop
	endfacet
	facet normal -1 0 0
		outer loop
			vertex -0.055555567145347595 0.03889355808496475 0.036741625517606735
			vertex -0.055555567145347595 0.10202724486589432 0.036741625517606735
			vertex -0.055555567145347595 0.10202724486589432 0.03662233054637909
		endloop
	endfacet
	facet normal -1 0 0
		outer loop
			vertex -0.055555567145347595 0.03889355808496475 0.036741625517606735
			vertex -0.055555567145347595 0.10202724486589432 0.03662233054637909
			vertex -0.055555567145347595 0.024958575144410133 0.008958796039223671
		endloop
	endfacet
	facet normal -1 0 0
		outer loop
			vertex -0.055555567145347595 0.03889355808496475 0.036741625517606735
			vertex -0.055555567145347595 0.024958575144410133 0.008958796039223671
			vertex -0.055555567145347595 0.02638603188097477 0.023597991093993187
		endloop
	endfacet
	facet normal 0 0 1
		outer loop
			vertex 0.0555555522441864 -0.023450633510947227 0.036741625517606735
			vertex 0.0555555522441864 -0.01628020964562893 0.036741625517606735
			vertex 0.0429043173789978 -0.011504686437547207 0.036741625517606735
		endloop
	endfacet
	facet normal 0 0 1
		outer loop
			vertex 0.002112908521667123 0.0038929819129407406 0.036741625517606735
			vertex 0.0031923933420330286 0.005881899502128363 0.036741625517606735
			vertex -0.012034730985760689 0.00923334900289774 0.036741625517606735
		endloop
	endfacet
	facet normal 0 0 1
		outer loop
			vertex 0.0555555522441864 -0.01628020964562893 0.036741625517606735
			vertex 0.0555555522441864 -0.005643075797706842 0.036741625517606735
			vertex 0.0031923933420330286 0.005881899502128363 0.036741625517606735
		endloop
	endfacet
	facet normal 0 0 1
		outer loop
			vertex 0.0555555522441864 -0.01628020964562893 0.036741625517606735
			vertex 0.0031923933420330286 0.005881899502128363 0.036741625517606735
			vertex 0.002112908521667123 0.0038929819129407406 0.036741625517606735
		endloop
	endfacet
	facet normal 0 0 1
		outer loop
			vertex -0.055555567145347595 0.03889355808496475 0.036741625517606735
			vertex -0.055555567145347595 0.026353532448410988 0.036741625517606735
			vertex -0.04042159020900726 0.028131330385804176 0.036741625517606735
		endloop
	endfacet
	facet normal 0 0 1
		outer loop
			vertex 0.0555555522441864 -0.005643075797706842 0.036741625517606735
			vertex 0.0555555522441864 -0.005140251014381647 0.036741625517606735
			vertex 0.039914920926094055 -0.0022006244398653507 0.036741625517606735
		endloop
	endfacet
	facet normal 0 0 1
		outer loop
			vertex -0.04057227075099945 0.028238484635949135 0.036741625517606735
			vertex -0.015897275879979134 0.010691353119909763 0.036741625517606735
			vertex -0.012034730985760689 0.00923334900289774 0.036741625517606735
		endloop
	endfacet
	facet normal 0 0 1
		outer loop
			vertex -0.04057227075099945 0.028238484635949135 0.036741625517606735
			vertex -0.012034730985760689 0.00923334900289774 0.036741625517606735
			vertex 0.0031923933420330286 0.005881899502128363 0.036741625517606735
		endloop
	endfacet
	facet normal 0 0 1
		outer loop
			vertex -0.04057227075099945 0.028238484635949135 0.036741625517606735
			vertex 0.0031923933420330286 0.005881899502128363 0.036741625517606735
			vertex 0.019116563722491264 0.03522174805402756 0.036741625517606735
		endloop
	endfacet
	facet normal 0 0 1
		outer loop
			vertex 0.0555555522441864 -0.005140251014381647 0.036741625517606735
			vertex 0.0555555522441864 0.0394848957657814 0.036741625517606735
			vertex 0.019116563722491264 0.03522174805402756 0.036741625517606735
		endloop
	endfacet
	facet normal 0 0 1
		outer loop
			vertex 0.0555555522441864 -0.005140251014381647 0.036741625517606735
			vertex 0.019116563722491264 0.03522174805402756 0.036741625517606735
			vertex 0.0031923933420330286 0.005881899502128363 0.036741625517606735
		endloop
	endfacet
	facet normal 0 0 1
		outer loop
			vertex 0.0555555522441864 -0.005140251014381647 0.036741625517606735
			vertex 0.0031923933420330286 0.005881899502128363 0.036741625517606735
			vertex 0.039914920926094055 -0.0022006244398653507 0.036741625517606735
		endloop
	endfacet
	facet normal 0 0 1
		outer loop
			vertex -0.04207505285739899 0.029307151213288307 0.036741625517606735
			vertex -0.04057227075099945 0.028238484635949135 0.036741625517606735
			vertex 0.019116563722491264 0.03522174805402756 0.036741625517606735
		endloop
	endfacet
	facet normal 0 0 1
		outer loop
			vertex -0.04207505285739899 0.029307151213288307 0.036741625517606735
			vertex 0.019116563722491264 0.03522174805402756 0.036741625517606735
			vertex 0.020004210993647575 0.03685721009969711 0.036741625517606735
		endloop
	endfacet
	facet normal 0 0 1
		outer loop
			vertex 0.0555555522441864 0.0394848957657814 0.036741625517606735
			vertex 0.0555555522441864 0.04118096083402634 0.036741625517606735
			vertex 0.020004210993647575 0.03685721009969711 0.036741625517606735
		endloop
	endfacet
	facet normal 0 0 1
		outer loop
			vertex 0.0555555522441864 0.0394848957657814 0.036741625517606735
			vertex 0.020004210993647575 0.03685721009969711 0.036741625517606735
			vertex 0.019116563722491264 0.03522174805402756 0.036741625517606735
		endloop
	endfacet
	facet normal 0 0 1
		outer loop
			vertex -0.055555567145347595 0.10202724486589432 0.036741625517606735
			vertex -0.055555567145347595 0.03889355808496475 0.036741625517606735
			vertex -0.04207505285739899 0.029307151213288307 0.036741625517606735
		endloop
	endfacet
	facet normal 0 0 1
		outer loop
			vertex -0.055555567145347595 0.10202724486589432 0.036741625517606735
			vertex -0.04207505285739899 0.029307151213288307 0.036741625517606735
			vertex 0.020004210993647575 0.03685721009969711 0.036741625517606735
		endloop
	endfacet
	facet normal 0 0 1
		outer loop
			vertex -0.055555567145347595 0.10202724486589432 0.036741625517606735
			vertex 0.020004210993647575 0.03685721009969711 0.036741625517606735
			vertex 0.055375173687934875 0.10202724486589432 0.036741625517606735
		endloop
	endfacet
	facet normal 0 0 1
		outer loop
			vertex 0.0555555522441864 0.04118096083402634 0.036741625517606735
			vertex 0.0555555522441864 0.10202724486589432 0.036741625517606735
			vertex 0.055375173687934875 0.10202724486589432 0.036741625517606735
		endloop
	endfacet
	facet normal 0 0 1
		outer loop
			vertex 0.0555555522441864 0.04118096083402634 0.036741625517606735
			vertex 0.055375173687934875 0.10202724486589432 0.036741625517606735
			vertex 0.020004210993647575 0.03685721009969711 0.036741625517606735
		endloop
	endfacet
	facet normal 0 0 -1
		outer loop
			vertex 0.007495788857340813 -0.04496198147535324 -0.036741629242897034
			vertex 0.025101451203227043 -0.051899246871471405 -0.036741629242897034
			vertex 0.025368956848978996 -0.05811194330453873 -0.036741629242897034
		endloop
	endfacet
	facet normal 0 0 -1
		outer loop
			vertex 0.024837149307131767 -0.045761771500110626 -0.036741629242897034
			vertex 0.00950719229876995 -0.01751675270497799 -0.036741629242897034
			vertex 0.023755935952067375 -0.02065286599099636 -0.036741629242897034
		endloop
	endfacet
	facet normal 0 0 -1
		outer loop
			vertex -0.055555567145347595 -0.017357593402266502 -0.036741629242897034
			vertex -0.055555567145347595 -0.003196632955223322 -0.036741629242897034
			vertex 0.00950719229876995 -0.01751675270497799 -0.036741629242897034
		endloop
	endfacet
	facet normal 0 0 -1
		outer loop
			vertex -0.055555567145347595 -0.017357593402266502 -0.036741629242897034
			vertex 0.00950719229876995 -0.01751675270497799 -0.036741629242897034
			vertex 0.024837149307131767 -0.045761771500110626 -0.036741629242897034
		endloop
	endfacet
	facet normal 0 0 -1
		outer loop
			vertex -0.055555567145347595 -0.017357593402266502 -0.036741629242897034
			vertex 0.024837149307131767 -0.045761771500110626 -0.036741629242897034
			vertex 0.025101451203227043 -0.051899246871471405 -0.036741629242897034
		endloop
	endfacet
	facet normal 0 0 -1
		outer loop
			vertex -0.055555567145347595 -0.017357593402266502 -0.036741629242897034
			vertex 0.025101451203227043 -0.051899246871471405 -0.036741629242897034
			vertex -0.03134404122829437 -0.02965768240392208 -0.036741629242897034
		endloop
	endfacet
	facet normal 0 0 -1
		outer loop
			vertex 0.0555555522441864 -0.027651866897940636 -0.036741629242897034
			vertex 0.0555555522441864 -0.07718656212091446 -0.036741629242897034
			vertex 0.04543665051460266 -0.07287652045488358 -0.036741629242897034
		endloop
	endfacet
	facet normal 0 0 -1
		outer loop
			vertex 0.0555555522441864 -0.027651866897940636 -0.036741629242897034
			vertex 0.04543665051460266 -0.07287652045488358 -0.036741629242897034
			vertex 0.035642728209495544 -0.06567075103521347 -0.036741629242897034
		endloop
	endfacet
	facet normal 0 0 -1
		outer loop
			vertex 0.0555555522441864 -0.027651866897940636 -0.036741629242897034
			vertex 0.035642728209495544 -0.06567075103521347 -0.036741629242897034
			vertex 0.024837149307131767 -0.045761771500110626 -0.036741629242897034
		endloop
	endfacet
	facet normal 0 0 -1
		outer loop
			vertex 0.0555555522441864 -0.027651866897940636 -0.036741629242897034
			vertex 0.024837149307131767 -0.045761771500110626 -0.036741629242897034
			vertex 0.023755935952067375 -0.02065286599099636 -0.036741629242897034
		endloop
	endfacet
	facet normal 0 0 -1
		outer loop
			vertex 0.025368956848978996 -0.05811194330453873 -0.036741629242897034
			vertex 0.024837149307131767 -0.045761771500110626 -0.036741629242897034
			vertex 0.035642728209495544 -0.06567075103521347 -0.036741629242897034
		endloop
	endfacet
	facet normal 0 0 -1
		outer loop
			vertex -0.055555567145347595 -0.003196632955223322 -0.036741629242897034
			vertex -0.055555567145347595 -0.001995301339775324 -0.036741629242897034
			vertex -0.0470442920923233 -0.005069947335869074 -0.036741629242897034
		endloop
	endfacet
	facet normal 0 0 -1
		outer loop
			vertex 0.03277398645877838 -0.02263770066201687 -0.036741629242897034
			vertex 0.00950719229876995 -0.01751675270497799 -0.036741629242897034
			vertex 0.00812576524913311 -0.014971516095101833 -0.036741629242897034
		endloop
	endfacet
	facet normal 0 0 -1
		outer loop
			vertex -0.0072830189019441605 -0.010178989730775356 -0.036741629242897034
			vertex 0.00812576524913311 -0.014971516095101833 -0.036741629242897034
			vertex 0.00950719229876995 -0.01751675270497799 -0.036741629242897034
		endloop
	endfacet
	facet normal 0 0 -1
		outer loop
			vertex -0.0072830189019441605 -0.010178989730775356 -0.036741629242897034
			vertex 0.00950719229876995 -0.01751675270497799 -0.036741629242897034
			vertex 0.0034347756300121546 -0.016180237755179405 -0.036741629242897034
		endloop
	endfacet
	facet normal 0 0 -1
		outer loop
			vertex -0.055555567145347595 -0.001995301339775324 -0.036741629242897034
			vertex -0.055555567145347595 0.00483495881780982 -0.036741629242897034
			vertex -0.0072830189019441605 -0.010178989730775356 -0.036741629242897034
		endloop
	endfacet
	facet normal 0 0 -1
		outer loop
			vertex -0.055555567145347595 -0.001995301339775324 -0.036741629242897034
			vertex -0.0072830189019441605 -0.010178989730775356 -0.036741629242897034
			vertex 0.0034347756300121546 -0.016180237755179405 -0.036741629242897034
		endloop
	endfacet
	facet normal 0 0 -1
		outer loop
			vertex -0.055555567145347595 -0.001995301339775324 -0.036741629242897034
			vertex 0.0034347756300121546 -0.016180237755179405 -0.036741629242897034
			vertex -0.0470442920923233 -0.005069947335869074 -0.036741629242897034
		endloop
	endfacet
	facet normal 0 0 -1
		outer loop
			vertex 0.0555555522441864 -0.010931826196610928 -0.036741629242897034
			vertex 0.0555555522441864 -0.027651866897940636 -0.036741629242897034
			vertex 0.03277398645877838 -0.02263770066201687 -0.036741629242897034
		endloop
	endfacet
	facet normal 0 0 -1
		outer loop
			vertex 0.0555555522441864 -0.010931826196610928 -0.036741629242897034
			vertex 0.03277398645877838 -0.02263770066201687 -0.036741629242897034
			vertex 0.00812576524913311 -0.014971516095101833 -0.036741629242897034
		endloop
	endfacet
	facet normal 0 0 -1
		outer loop
			vertex 0.0555555522441864 -0.010931826196610928 -0.036741629242897034
			vertex 0.00812576524913311 -0.014971516095101833 -0.036741629242897034
			vertex -0.002326832851395011 0.004287117626518011 -0.036741629242897034
		endloop
	endfacet
	facet normal 0 0 -1
		outer loop
			vertex -0.055555567145347595 0.00483495881780982 -0.036741629242897034
			vertex -0.055555567145347595 0.018282482400536537 -0.036741629242897034
			vertex -0.002326832851395011 0.004287117626518011 -0.036741629242897034
		endloop
	endfacet
	facet normal 0 0 -1
		outer loop
			vertex -0.055555567145347595 0.00483495881780982 -0.036741629242897034
			vertex -0.002326832851395011 0.004287117626518011 -0.036741629242897034
			vertex 0.00812576524913311 -0.014971516095101833 -0.036741629242897034
		endloop
	endfacet
	facet normal 0 0 -1
		outer loop
			vertex 0.022968394681811333 -0.002363732550293207 -0.036741629242897034
			vertex -0.002326832851395011 0.004287117626518011 -0.036741629242897034
			vertex -0.01225525327026844 0.0225799772888422 -0.036741629242897034
		endloop
	endfacet
	facet normal 0 0 -1
		outer loop
			vertex 0.022968394681811333 -0.002363732550293207 -0.036741629242897034
			vertex -0.01225525327026844 0.0225799772888422 -0.036741629242897034
			vertex 0.021723119542002678 0.02655523456633091 -0.036741629242897034
		endloop
	endfacet
	facet normal 0 0 -1
		outer loop
			vertex -0.01225525327026844 0.0225799772888422 -0.036741629242897034
			vertex -0.002326832851395011 0.004287117626518011 -0.036741629242897034
			vertex -0.05353306233882904 0.017750689759850502 -0.036741629242897034
		endloop
	endfacet
	facet normal 0 0 -1
		outer loop
			vertex -0.01225525327026844 0.0225799772888422 -0.036741629242897034
			vertex -0.01387869007885456 0.025571102276444435 -0.036741629242897034
			vertex 0.02157980017364025 0.029883557930588722 -0.036741629242897034
		endloop
	endfacet
	facet normal 0 0 -1
		outer loop
			vertex -0.01225525327026844 0.0225799772888422 -0.036741629242897034
			vertex 0.02157980017364025 0.029883557930588722 -0.036741629242897034
			vertex 0.021723119542002678 0.02655523456633091 -0.036741629242897034
		endloop
	endfacet
	facet normal 0 0 -1
		outer loop
			vertex -0.055555567145347595 0.018282482400536537 -0.036741629242897034
			vertex -0.055555567145347595 0.020502367988228798 -0.036741629242897034
			vertex -0.01387869007885456 0.025571102276444435 -0.036741629242897034
		endloop
	endfacet
	facet normal 0 0 -1
		outer loop
			vertex -0.055555567145347595 0.018282482400536537 -0.036741629242897034
			vertex -0.01387869007885456 0.025571102276444435 -0.036741629242897034
			vertex -0.01225525327026844 0.0225799772888422 -0.036741629242897034
		endloop
	endfacet
	facet normal 0 0 -1
		outer loop
			vertex -0.055555567145347595 0.018282482400536537 -0.036741629242897034
			vertex -0.01225525327026844 0.0225799772888422 -0.036741629242897034
			vertex -0.05353306233882904 0.017750689759850502 -0.036741629242897034
		endloop
	endfacet
	facet normal 0 0 -1
		outer loop
			vertex -0.01387869007885456 0.025571102276444435 -0.036741629242897034
			vertex -0.055375173687934875 0.10202724486589432 -0.036741629242897034
			vertex 0.018473220989108086 0.10202724486589432 -0.036741629242897034
		endloop
	endfacet
	facet normal 0 0 -1
		outer loop
			vertex -0.01387869007885456 0.025571102276444435 -0.036741629242897034
			vertex 0.018473220989108086 0.10202724486589432 -0.036741629242897034
			vertex 0.02157980017364025 0.029883557930588722 -0.036741629242897034
		endloop
	endfacet
	facet normal 0 0 -1
		outer loop
			vertex -0.055555567145347595 0.020502367988228798 -0.036741629242897034
			vertex -0.055555567145347595 0.10202724486589432 -0.036741629242897034
			vertex -0.055375173687934875 0.10202724486589432 -0.036741629242897034
		endloop
	endfacet
	facet normal 0 0 -1
		outer loop
			vertex -0.055555567145347595 0.020502367988228798 -0.036741629242897034
			vertex -0.055375173687934875 0.10202724486589432 -0.036741629242897034
			vertex -0.01387869007885456 0.025571102276444435 -0.036741629242897034
		endloop
	endfacet
	facet normal 0 0 -1
		outer loop
			vertex 0.0555555522441864 0.0788772776722908 -0.036741629242897034
			vertex 0.0555555522441864 -0.010931826196610928 -0.036741629242897034
			vertex 0.034092292189598083 -0.005288517568260431 -0.036741629242897034
		endloop
	endfacet
	facet normal 0 0 -1
		outer loop
			vertex 0.0555555522441864 0.0788772776722908 -0.036741629242897034
			vertex 0.034092292189598083 -0.005288517568260431 -0.036741629242897034
			vertex 0.03334352374076843 0.08135993033647537 -0.036741629242897034
		endloop
	endfacet
	facet normal 0 0 -1
		outer loop
			vertex 0.0555555522441864 0.10202724486589432 -0.036741629242897034
			vertex 0.0555555522441864 0.0788772776722908 -0.036741629242897034
			vertex 0.03334352374076843 0.08135993033647537 -0.036741629242897034
		endloop
	endfacet
	facet normal 0 0 -1
		outer loop
			vertex 0.0555555522441864 0.10202724486589432 -0.036741629242897034
			vertex 0.03334352374076843 0.08135993033647537 -0.036741629242897034
			vertex 0.03316493332386017 0.10202724486589432 -0.036741629242897034
		endloop
	endfacet
	facet normal 0 0 -1
		outer loop
			vertex 0.034092292189598083 -0.005288517568260431 -0.036741629242897034
			vertex 0.022968394681811333 -0.002363732550293207 -0.036741629242897034
			vertex 0.018473220989108086 0.10202724486589432 -0.036741629242897034
		endloop
	endfacet
	facet normal 0 0 -1
		outer loop
			vertex 0.034092292189598083 -0.005288517568260431 -0.036741629242897034
			vertex 0.018473220989108086 0.10202724486589432 -0.036741629242897034
			vertex 0.03316493332386017 0.10202724486589432 -0.036741629242897034
		endloop
	endfacet
endsolid exported
