solid exported
	facet normal -0.5824124620984175 -0.8072939052848424 0.09524848808462769
		outer loop
			vertex 0.017310984432697296 -0.08582405000925064 0.036741629242897034
			vertex -0.055555559694767 -0.03800184279680252 -0.003487953683361411
			vertex -0.055555559694767 -0.04192527383565903 -0.036741625517606735
		endloop
	endfacet
	facet normal -0.5824123940457614 -0.8072939666689999 0.09524838393231044
		outer loop
			vertex 0.017310984432697296 -0.08582405000925064 0.036741629242897034
			vertex -0.055555559694767 -0.04192527383565903 -0.036741625517606735
			vertex -0.0039223963394761086 -0.07917539030313492 -0.036741625517606735
		endloop
	endfacet
	facet normal -0.5824139755253085 -0.8072927589180283 0.0952489501848909
		outer loop
			vertex 0.017310984432697296 -0.08582405000925064 0.036741629242897034
			vertex -0.0039223963394761086 -0.07917539030313492 -0.036741625517606735
			vertex 0.023447461426258087 -0.09025115519762039 0.036741629242897034
		endloop
	endfacet
	facet normal -0.6179223103488771 -0.7539626140587311 0.2229627658933903
		outer loop
			vertex -0.055555559694767 -0.02610510028898716 0.036741629242897034
			vertex -0.055555559694767 -0.03800184279680252 -0.003487953683361411
			vertex -0.018008463084697723 -0.06264395266771317 0.01724178157746792
		endloop
	endfacet
	facet normal -0.6179225331218312 -0.7539625782008957 0.22296226975198705
		outer loop
			vertex -0.055555559694767 -0.02610510028898716 0.036741629242897034
			vertex -0.018008463084697723 -0.06264395266771317 0.01724178157746792
			vertex -0.015457713045179844 -0.0589679554104805 0.036741629242897034
		endloop
	endfacet
	facet normal -0.6179225679628969 -0.7539625498775275 0.22296226897014637
		outer loop
			vertex -0.015457713045179844 -0.0589679554104805 0.036741629242897034
			vertex -0.018008463084697723 -0.06264395266771317 0.01724178157746792
			vertex 0.0012384570436552167 -0.07527569681406021 0.027867993339896202
		endloop
	endfacet
	facet normal -0.6179209484598734 -0.7539628259887845 0.2229658235727087
		outer loop
			vertex -0.015457713045179844 -0.0589679554104805 0.036741629242897034
			vertex 0.0012384570436552167 -0.07527569681406021 0.027867993339896202
			vertex -0.011611969210207462 -0.06211978942155838 0.036741629242897034
		endloop
	endfacet
	facet normal -0.27043642857190114 -0.9617214117843046 -0.04422741476594575
		outer loop
			vertex -0.0039223963394761086 -0.07917539030313492 -0.036741625517606735
			vertex 0.03945550322532654 -0.0913732722401619 -0.036741625517606735
			vertex 0.04901140183210373 -0.09465990215539932 -0.023705383762717247
		endloop
	endfacet
	facet normal -0.2704364354800111 -0.9617214111655195 -0.04422738598049574
		outer loop
			vertex -0.0039223963394761086 -0.07917539030313492 -0.036741625517606735
			vertex 0.04901140183210373 -0.09465990215539932 -0.023705383762717247
			vertex 0.015719756484031677 -0.08712396770715714 0.015994099900126457
		endloop
	endfacet
	facet normal -0.6179456755276911 -0.7539560980561151 0.22292004015032713
		outer loop
			vertex -0.011611969210207462 -0.06211978942155838 0.036741629242897034
			vertex 0.0012384570436552167 -0.07527569681406021 0.027867993339896202
			vertex 0.001425936003215611 -0.075398750603199 0.027971504256129265
		endloop
	endfacet
	facet normal -0.6179217184144907 -0.7539623862999674 0.22296517655576104
		outer loop
			vertex -0.011611969210207462 -0.06211978942155838 0.036741629242897034
			vertex 0.001425936003215611 -0.075398750603199 0.027971504256129265
			vertex 0.004467449150979519 -0.07529792934656143 0.036741629242897034
		endloop
	endfacet
	facet normal -0.6179217033826009 -0.7539624001142715 0.22296517150145279
		outer loop
			vertex 0.004467449150979519 -0.07529792934656143 0.036741629242897034
			vertex 0.001425936003215611 -0.075398750603199 0.027971504256129265
			vertex 0.017310984432697296 -0.08582405000925064 0.036741629242897034
		endloop
	endfacet
	facet normal -0.27043675320569727 -0.961721318500694 -0.044227458177556536
		outer loop
			vertex 0.04901140183210373 -0.09465990215539932 -0.023705383762717247
			vertex 0.05435573309659958 -0.0964980199933052 -0.01641458459198475
			vertex 0.027213744819164276 -0.09131021052598953 0.036741629242897034
		endloop
	endfacet
	facet normal -0.2704305398693886 -0.961723173437188 -0.04422511480884456
		outer loop
			vertex 0.04901140183210373 -0.09465990215539932 -0.023705383762717247
			vertex 0.027213744819164276 -0.09131021052598953 0.036741629242897034
			vertex 0.023447461426258087 -0.09025115519762039 0.036741629242897034
		endloop
	endfacet
	facet normal -0.27043720900369267 -0.961721161640636 -0.044228082016733235
		outer loop
			vertex 0.04901140183210373 -0.09465990215539932 -0.023705383762717247
			vertex 0.023447461426258087 -0.09025115519762039 0.036741629242897034
			vertex 0.015719756484031677 -0.08712396770715714 0.015994099900126457
		endloop
	endfacet
	facet normal -0.04553940871970858 -0.9962198725946357 0.07397383119040847
		outer loop
			vertex 0.0555555522441864 -0.09260577708482742 0.036741629242897034
			vertex 0.027213744819164276 -0.09131021052598953 0.036741629242897034
			vertex 0.05435573309659958 -0.0964980199933052 -0.01641458459198475
		endloop
	endfacet
	facet normal -0.04554967357791586 -0.9962193887387533 0.07397402745511666
		outer loop
			vertex 0.0555555522441864 -0.09260577708482742 0.036741629242897034
			vertex 0.05435573309659958 -0.0964980199933052 -0.01641458459198475
			vertex 0.0555555522441864 -0.09642920643091202 -0.014749070629477501
		endloop
	endfacet
	facet normal 1 0 0
		outer loop
			vertex 0.0555555522441864 0.06646684557199478 0.036741629242897034
			vertex 0.0555555522441864 -0.09260577708482742 0.036741629242897034
			vertex 0.0555555522441864 -0.09285900741815567 0.033331431448459625
		endloop
	endfacet
	facet normal 1 0 0
		outer loop
			vertex 0.0555555522441864 0.06646684557199478 0.036741629242897034
			vertex 0.0555555522441864 -0.09285900741815567 0.033331431448459625
			vertex 0.0555555522441864 0.02149984799325466 -0.0077172983437776566
		endloop
	endfacet
	facet normal 1 0 0
		outer loop
			vertex 0.0555555522441864 0.06646684557199478 0.036741629242897034
			vertex 0.0555555522441864 0.02149984799325466 -0.0077172983437776566
			vertex 0.0555555522441864 0.04178640991449356 -0.006507666781544685
		endloop
	endfacet
	facet normal 1 0 0
		outer loop
			vertex 0.0555555522441864 -0.09642920643091202 -0.014749070629477501
			vertex 0.0555555522441864 0.02149984799325466 -0.0077172983437776566
			vertex 0.0555555522441864 -0.09285900741815567 0.033331431448459625
		endloop
	endfacet
	facet normal 1 0 0
		outer loop
			vertex 0.0555555522441864 0.1023595854640007 0.036741629242897034
			vertex 0.0555555522441864 0.06646684557199478 0.036741629242897034
			vertex 0.0555555522441864 0.04178640991449356 -0.006507666781544685
		endloop
	endfacet
	facet normal 1 0 0
		outer loop
			vertex 0.0555555522441864 0.1023595854640007 0.036741629242897034
			vertex 0.0555555522441864 0.04178640991449356 -0.006507666781544685
			vertex 0.0555555522441864 0.1023595854640007 -0.0028958634939044714
		endloop
	endfacet
	facet normal -0.2704375660412456 -0.9617211524183581 -0.04422609936216686
		outer loop
			vertex 0.03945550322532654 -0.0913732722401619 -0.036741625517606735
			vertex 0.0555555522441864 -0.09590063244104385 -0.036741625517606735
			vertex 0.0555555522441864 -0.0961412563920021 -0.031509123742580414
		endloop
	endfacet
	facet normal -0.2704373949181732 -0.9617211753633843 -0.04422664680419322
		outer loop
			vertex 0.03945550322532654 -0.0913732722401619 -0.036741625517606735
			vertex 0.0555555522441864 -0.0961412563920021 -0.031509123742580414
			vertex 0.04901140183210373 -0.09465990215539932 -0.023705383762717247
		endloop
	endfacet
	facet normal 1 0 0
		outer loop
			vertex 0.0555555522441864 -0.09590063244104385 -0.036741625517606735
			vertex 0.0555555522441864 -0.08782864362001419 -0.036741625517606735
			vertex 0.0555555522441864 -0.0961412563920021 -0.031509123742580414
		endloop
	endfacet
	facet normal -0.2704352533886067 -0.9617217779627615 -0.0442266380904657
		outer loop
			vertex 0.0555555522441864 -0.0961412563920021 -0.031509123742580414
			vertex 0.0555555522441864 -0.09672734886407852 -0.01876436360180378
			vertex 0.05435573309659958 -0.0964980199933052 -0.01641458459198475
		endloop
	endfacet
	facet normal -0.2704375727851697 -0.9617211179867088 -0.04422680685354939
		outer loop
			vertex 0.0555555522441864 -0.0961412563920021 -0.031509123742580414
			vertex 0.05435573309659958 -0.0964980199933052 -0.01641458459198475
			vertex 0.04901140183210373 -0.09465990215539932 -0.023705383762717247
		endloop
	endfacet
	facet normal -0.0455455023856595 -0.9962198013041252 0.07397103961691386
		outer loop
			vertex 0.0555555522441864 -0.09642920643091202 -0.014749070629477501
			vertex 0.05435573309659958 -0.0964980199933052 -0.01641458459198475
			vertex 0.0555555522441864 -0.09672734886407852 -0.01876436360180378
		endloop
	endfacet
	facet normal 1 0 0
		outer loop
			vertex 0.0555555522441864 0.02149984799325466 -0.0077172983437776566
			vertex 0.0555555522441864 0.07616808265447617 -0.027340279892086983
			vertex 0.0555555522441864 0.1023595854640007 -0.023768717423081398
		endloop
	endfacet
	facet normal 1 0 0
		outer loop
			vertex 0.0555555522441864 0.02149984799325466 -0.0077172983437776566
			vertex 0.0555555522441864 0.1023595854640007 -0.023768717423081398
			vertex 0.0555555522441864 0.1023595854640007 -0.0028958634939044714
		endloop
	endfacet
	facet normal 1 0 0
		outer loop
			vertex 0.0555555522441864 -0.0961412563920021 -0.031509123742580414
			vertex 0.0555555522441864 -0.08782864362001419 -0.036741625517606735
			vertex 0.0555555522441864 0.007224759552627802 -0.036741625517606735
		endloop
	endfacet
	facet normal 1 0 0
		outer loop
			vertex 0.0555555522441864 -0.0961412563920021 -0.031509123742580414
			vertex 0.0555555522441864 0.007224759552627802 -0.036741625517606735
			vertex 0.0555555522441864 0.07616808265447617 -0.027340279892086983
		endloop
	endfacet
	facet normal 1 0 0
		outer loop
			vertex 0.0555555522441864 -0.0961412563920021 -0.031509123742580414
			vertex 0.0555555522441864 0.07616808265447617 -0.027340279892086983
			vertex 0.0555555522441864 0.02149984799325466 -0.0077172983437776566
		endloop
	endfacet
	facet normal 1 0 0
		outer loop
			vertex 0.0555555522441864 -0.0961412563920021 -0.031509123742580414
			vertex 0.0555555522441864 0.02149984799325466 -0.0077172983437776566
			vertex 0.0555555522441864 -0.09642920643091202 -0.014749070629477501
		endloop
	endfacet
	facet normal 1 0 0
		outer loop
			vertex 0.0555555522441864 -0.0961412563920021 -0.031509123742580414
			vertex 0.0555555522441864 -0.09642920643091202 -0.014749070629477501
			vertex 0.0555555522441864 -0.09672734886407852 -0.01876436360180378
		endloop
	endfacet
	facet normal 1 0 0
		outer loop
			vertex 0.0555555522441864 0.007224759552627802 -0.036741625517606735
			vertex 0.0555555522441864 0.049588508903980255 -0.036741625517606735
			vertex 0.0555555522441864 0.048310287296772 -0.031139062717556953
		endloop
	endfacet
	facet normal 1 0 0
		outer loop
			vertex 0.0555555522441864 0.07616808265447617 -0.027340279892086983
			vertex 0.0555555522441864 0.1023595854640007 -0.036741625517606735
			vertex 0.0555555522441864 0.1023595854640007 -0.03593636676669121
		endloop
	endfacet
	facet normal 1 0 0
		outer loop
			vertex 0.0555555522441864 0.07616808265447617 -0.027340279892086983
			vertex 0.0555555522441864 0.1023595854640007 -0.03593636676669121
			vertex 0.0555555522441864 0.09099023044109344 -0.025319082662463188
		endloop
	endfacet
	facet normal 1 0 0
		outer loop
			vertex 0.0555555522441864 0.049588508903980255 -0.036741625517606735
			vertex 0.0555555522441864 0.1023595854640007 -0.036741625517606735
			vertex 0.0555555522441864 0.07616808265447617 -0.027340279892086983
		endloop
	endfacet
	facet normal 1 0 0
		outer loop
			vertex 0.0555555522441864 0.049588508903980255 -0.036741625517606735
			vertex 0.0555555522441864 0.07616808265447617 -0.027340279892086983
			vertex 0.0555555522441864 0.048310287296772 -0.031139062717556953
		endloop
	endfacet
	facet normal 1 0 0
		outer loop
			vertex 0.0555555522441864 0.1023595854640007 -0.03593636676669121
			vertex 0.0555555522441864 0.1023595854640007 -0.027414651587605476
			vertex 0.0555555522441864 0.09506130963563919 -0.024763936176896095
		endloop
	endfacet
	facet normal 1 0 0
		outer loop
			vertex 0.0555555522441864 0.1023595854640007 -0.03593636676669121
			vertex 0.0555555522441864 0.09506130963563919 -0.024763936176896095
			vertex 0.0555555522441864 0.09099023044109344 -0.025319082662463188
		endloop
	endfacet
	facet normal 1 0 0
		outer loop
			vertex 0.0555555522441864 0.10063967853784561 -0.024003246799111366
			vertex 0.0555555522441864 0.09506130963563919 -0.024763936176896095
			vertex 0.0555555522441864 0.10026483982801437 -0.026653846725821495
		endloop
	endfacet
	facet normal 1 0 0
		outer loop
			vertex 0.0555555522441864 0.1023595854640007 -0.027414651587605476
			vertex 0.0555555522441864 0.1023595854640007 -0.023768717423081398
			vertex 0.0555555522441864 0.10063967853784561 -0.024003246799111366
		endloop
	endfacet
	facet normal 1 0 0
		outer loop
			vertex 0.0555555522441864 0.1023595854640007 -0.027414651587605476
			vertex 0.0555555522441864 0.10063967853784561 -0.024003246799111366
			vertex 0.0555555522441864 0.10026483982801437 -0.026653846725821495
		endloop
	endfacet
	facet normal -1 0 0
		outer loop
			vertex -0.055555559694767 -0.03640713542699814 -0.036741625517606735
			vertex -0.055555559694767 -0.04192527383565903 -0.036741625517606735
			vertex -0.055555559694767 -0.039252690970897675 -0.014089616015553474
		endloop
	endfacet
	facet normal -1 0 0
		outer loop
			vertex -0.055555559694767 -0.03640713542699814 -0.036741625517606735
			vertex -0.055555559694767 -0.039252690970897675 -0.014089616015553474
			vertex -0.055555559694767 -0.032197706401348114 -0.011557260528206825
		endloop
	endfacet
	facet normal -1 0 0
		outer loop
			vertex -0.055555559694767 -0.02610510028898716 0.036741629242897034
			vertex -0.055555559694767 -0.024124840274453163 0.036741629242897034
			vertex -0.055555559694767 -0.032197706401348114 -0.011557260528206825
		endloop
	endfacet
	facet normal -1 0 0
		outer loop
			vertex -0.055555559694767 -0.02610510028898716 0.036741629242897034
			vertex -0.055555559694767 -0.032197706401348114 -0.011557260528206825
			vertex -0.055555559694767 -0.039252690970897675 -0.014089616015553474
		endloop
	endfacet
	facet normal -1 0 0
		outer loop
			vertex -0.055555559694767 -0.02610510028898716 0.036741629242897034
			vertex -0.055555559694767 -0.039252690970897675 -0.014089616015553474
			vertex -0.055555559694767 -0.03800184279680252 -0.003487953683361411
		endloop
	endfacet
	facet normal -1 0 0
		outer loop
			vertex -0.055555559694767 0.1023595854640007 -0.036741625517606735
			vertex -0.055555559694767 0.08058924973011017 -0.036741625517606735
			vertex -0.055555559694767 0.1023595854640007 -0.033719368278980255
		endloop
	endfacet
	facet normal -1 0 0
		outer loop
			vertex -0.055555559694767 0.08058924973011017 -0.036741625517606735
			vertex -0.055555559694767 -0.03640713542699814 -0.036741625517606735
			vertex -0.055555559694767 -0.032197706401348114 -0.011557260528206825
		endloop
	endfacet
	facet normal -1 0 0
		outer loop
			vertex -0.055555559694767 0.08058924973011017 -0.036741625517606735
			vertex -0.055555559694767 -0.032197706401348114 -0.011557260528206825
			vertex -0.055555559694767 0.1023595854640007 0.036741629242897034
		endloop
	endfacet
	facet normal -1 0 0
		outer loop
			vertex -0.055555559694767 0.08058924973011017 -0.036741625517606735
			vertex -0.055555559694767 0.1023595854640007 0.036741629242897034
			vertex -0.055555559694767 0.1023595854640007 -0.033719368278980255
		endloop
	endfacet
	facet normal -1 0 0
		outer loop
			vertex -0.055555559694767 -0.024124840274453163 0.036741629242897034
			vertex -0.055555559694767 0.1023595854640007 0.036741629242897034
			vertex -0.055555559694767 -0.032197706401348114 -0.011557260528206825
		endloop
	endfacet
	facet normal 0 1 0
		outer loop
			vertex -0.055555559694767 0.1023595854640007 -0.036741625517606735
			vertex -0.055555559694767 0.1023595854640007 -0.033719368278980255
			vertex -0.02544691413640976 0.1023595854640007 -0.034190092235803604
		endloop
	endfacet
	facet normal 0 1 0
		outer loop
			vertex -0.055555559694767 0.1023595854640007 -0.036741625517606735
			vertex -0.02544691413640976 0.1023595854640007 -0.034190092235803604
			vertex -0.025782637298107147 0.1023595854640007 -0.036741625517606735
		endloop
	endfacet
	facet normal 0 1 0
		outer loop
			vertex -0.055555559694767 0.1023595854640007 -0.033719368278980255
			vertex -0.055555559694767 0.1023595854640007 0.036741629242897034
			vertex -0.019271396100521088 0.1023595854640007 0.012745125219225883
		endloop
	endfacet
	facet normal 0 1 0
		outer loop
			vertex -0.055555559694767 0.1023595854640007 -0.033719368278980255
			vertex -0.019271396100521088 0.1023595854640007 0.012745125219225883
			vertex -0.02544691413640976 0.1023595854640007 -0.034190092235803604
		endloop
	endfacet
	facet normal 0 1 0
		outer loop
			vertex -0.055555559694767 0.1023595854640007 0.036741629242897034
			vertex -0.01611403375864029 0.1023595854640007 0.036741629242897034
			vertex -0.019271396100521088 0.1023595854640007 0.012745125219225883
		endloop
	endfacet
	facet normal 0 1 0
		outer loop
			vertex -0.019271396100521088 0.1023595854640007 0.012745125219225883
			vertex 0.013791746459901333 0.1023595854640007 -0.009121159091591835
			vertex 0.01843547821044922 0.1023595854640007 -0.036741625517606735
		endloop
	endfacet
	facet normal 0 1 0
		outer loop
			vertex -0.019271396100521088 0.1023595854640007 0.012745125219225883
			vertex 0.01843547821044922 0.1023595854640007 -0.036741625517606735
			vertex -0.025782637298107147 0.1023595854640007 -0.036741625517606735
		endloop
	endfacet
	facet normal 0 1 0
		outer loop
			vertex -0.01611403375864029 0.1023595854640007 0.036741629242897034
			vertex 0.006080976687371731 0.1023595854640007 0.036741629242897034
			vertex 0.013791746459901333 0.1023595854640007 -0.009121159091591835
		endloop
	endfacet
	facet normal 0 1 0
		outer loop
			vertex -0.01611403375864029 0.1023595854640007 0.036741629242897034
			vertex 0.013791746459901333 0.1023595854640007 -0.009121159091591835
			vertex -0.019271396100521088 0.1023595854640007 0.012745125219225883
		endloop
	endfacet
	facet normal 0 1 0
		outer loop
			vertex 0.013791746459901333 0.1023595854640007 -0.009121159091591835
			vertex 0.03901369124650955 0.1023595854640007 -0.025801679119467735
			vertex 0.03111319988965988 0.1023595854640007 -0.036741625517606735
		endloop
	endfacet
	facet normal 0 1 0
		outer loop
			vertex 0.013791746459901333 0.1023595854640007 -0.009121159091591835
			vertex 0.03111319988965988 0.1023595854640007 -0.036741625517606735
			vertex 0.01843547821044922 0.1023595854640007 -0.036741625517606735
		endloop
	endfacet
	facet normal 0 1 0
		outer loop
			vertex 0.006080976687371731 0.1023595854640007 0.036741629242897034
			vertex 0.0555555522441864 0.1023595854640007 0.036741629242897034
			vertex 0.0555555522441864 0.1023595854640007 -0.0028958634939044714
		endloop
	endfacet
	facet normal 0 1 0
		outer loop
			vertex 0.006080976687371731 0.1023595854640007 0.036741629242897034
			vertex 0.0555555522441864 0.1023595854640007 -0.0028958634939044714
			vertex 0.03901369124650955 0.1023595854640007 -0.025801679119467735
		endloop
	endfacet
	facet normal 0 1 0
		outer loop
			vertex 0.006080976687371731 0.1023595854640007 0.036741629242897034
			vertex 0.03901369124650955 0.1023595854640007 -0.025801679119467735
			vertex 0.013791746459901333 0.1023595854640007 -0.009121159091591835
		endloop
	endfacet
	facet normal 0 1 0
		outer loop
			vertex 0.03901369124650955 0.1023595854640007 -0.025801679119467735
			vertex 0.04914913326501846 0.1023595854640007 -0.032504744827747345
			vertex 0.04604208469390869 0.1023595854640007 -0.036741625517606735
		endloop
	endfacet
	facet normal 0 1 0
		outer loop
			vertex 0.03901369124650955 0.1023595854640007 -0.025801679119467735
			vertex 0.04604208469390869 0.1023595854640007 -0.036741625517606735
			vertex 0.03111319988965988 0.1023595854640007 -0.036741625517606735
		endloop
	endfacet
	facet normal 0 1 0
		outer loop
			vertex 0.0555555522441864 0.1023595854640007 -0.0028958634939044714
			vertex 0.0555555522441864 0.1023595854640007 -0.023768717423081398
			vertex 0.04914913326501846 0.1023595854640007 -0.032504744827747345
		endloop
	endfacet
	facet normal 0 1 0
		outer loop
			vertex 0.0555555522441864 0.1023595854640007 -0.0028958634939044714
			vertex 0.04914913326501846 0.1023595854640007 -0.032504744827747345
			vertex 0.03901369124650955 0.1023595854640007 -0.025801679119467735
		endloop
	endfacet
	facet normal 0 1 0
		outer loop
			vertex 0.05095789209008217 0.1023595854640007 -0.03370096534490585
			vertex 0.0555555522441864 0.1023595854640007 -0.036741625517606735
			vertex 0.04604208469390869 0.1023595854640007 -0.036741625517606735
		endloop
	endfacet
	facet normal 0 1 0
		outer loop
			vertex 0.05095789209008217 0.1023595854640007 -0.03370096534490585
			vertex 0.04604208469390869 0.1023595854640007 -0.036741625517606735
			vertex 0.04897787794470787 0.1023595854640007 -0.032738275825977325
		endloop
	endfacet
	facet normal 0 1 0
		outer loop
			vertex 0.0555555522441864 0.1023595854640007 -0.03593636676669121
			vertex 0.0555555522441864 0.1023595854640007 -0.036741625517606735
			vertex 0.05095789209008217 0.1023595854640007 -0.03370096534490585
		endloop
	endfacet
	facet normal 0 1 0
		outer loop
			vertex 0.04914913326501846 0.1023595854640007 -0.032504744827747345
			vertex 0.05095789209008217 0.1023595854640007 -0.03370096534490585
			vertex 0.04897787794470787 0.1023595854640007 -0.032738275825977325
		endloop
	endfacet
	facet normal 0 1 0
		outer loop
			vertex 0.0555555522441864 0.1023595854640007 -0.027414651587605476
			vertex 0.0555555522441864 0.1023595854640007 -0.03593636676669121
			vertex 0.05095789209008217 0.1023595854640007 -0.03370096534490585
		endloop
	endfacet
	facet normal 0 1 0
		outer loop
			vertex 0.0555555522441864 0.1023595854640007 -0.027414651587605476
			vertex 0.05095789209008217 0.1023595854640007 -0.03370096534490585
			vertex 0.04914913326501846 0.1023595854640007 -0.032504744827747345
		endloop
	endfacet
	facet normal 0 1 0
		outer loop
			vertex 0.0555555522441864 0.1023595854640007 -0.027414651587605476
			vertex 0.04914913326501846 0.1023595854640007 -0.032504744827747345
			vertex 0.05294273793697357 0.1023595854640007 -0.027331648394465446
		endloop
	endfacet
	facet normal 0 1 0
		outer loop
			vertex 0.0555555522441864 0.1023595854640007 -0.023768717423081398
			vertex 0.0555555522441864 0.1023595854640007 -0.027414651587605476
			vertex 0.05294273793697357 0.1023595854640007 -0.027331648394465446
		endloop
	endfacet
	facet normal 0 0 1
		outer loop
			vertex -0.055555559694767 -0.024124840274453163 0.036741629242897034
			vertex -0.055555559694767 -0.02610510028898716 0.036741629242897034
			vertex -0.05433575063943863 -0.0271048191934824 0.036741629242897034
		endloop
	endfacet
	facet normal 0 0 1
		outer loop
			vertex -0.055555559694767 0.1023595854640007 0.036741629242897034
			vertex -0.055555559694767 -0.024124840274453163 0.036741629242897034
			vertex -0.05433575063943863 -0.0271048191934824 0.036741629242897034
		endloop
	endfacet
	facet normal 0 0 1
		outer loop
			vertex -0.055555559694767 0.1023595854640007 0.036741629242897034
			vertex -0.05433575063943863 -0.0271048191934824 0.036741629242897034
			vertex -0.026910416781902313 -0.04958171397447586 0.036741629242897034
		endloop
	endfacet
	facet normal 0 0 1
		outer loop
			vertex -0.055555559694767 0.1023595854640007 0.036741629242897034
			vertex -0.026910416781902313 -0.04958171397447586 0.036741629242897034
			vertex -0.01558081153780222 -0.028707245364785194 0.036741629242897034
		endloop
	endfacet
	facet normal 0 0 1
		outer loop
			vertex -0.055555559694767 0.1023595854640007 0.036741629242897034
			vertex -0.01558081153780222 -0.028707245364785194 0.036741629242897034
			vertex -0.01611403375864029 0.1023595854640007 0.036741629242897034
		endloop
	endfacet
	facet normal 0 0 1
		outer loop
			vertex -0.01558081153780222 -0.028707245364785194 0.036741629242897034
			vertex -0.026910416781902313 -0.04958171397447586 0.036741629242897034
			vertex -0.015457713045179844 -0.0589679554104805 0.036741629242897034
		endloop
	endfacet
	facet normal 0 0 1
		outer loop
			vertex -0.015478246845304966 -0.05392021685838699 0.036741629242897034
			vertex -0.015457713045179844 -0.0589679554104805 0.036741629242897034
			vertex -0.011611969210207462 -0.06211978942155838 0.036741629242897034
		endloop
	endfacet
	facet normal 0 0 1
		outer loop
			vertex 0.006080976687371731 0.1023595854640007 0.036741629242897034
			vertex -0.01611403375864029 0.1023595854640007 0.036741629242897034
			vertex -0.015956006944179535 0.0635153278708458 0.036741629242897034
		endloop
	endfacet
	facet normal 0 0 1
		outer loop
			vertex -0.01558081153780222 -0.028707245364785194 0.036741629242897034
			vertex 0.0011389023857191205 0.002098387572914362 0.036741629242897034
			vertex -0.002520889975130558 0.0871971920132637 0.036741629242897034
		endloop
	endfacet
	facet normal 0 0 1
		outer loop
			vertex -0.01558081153780222 -0.028707245364785194 0.036741629242897034
			vertex -0.002520889975130558 0.0871971920132637 0.036741629242897034
			vertex -0.015956006944179535 0.0635153278708458 0.036741629242897034
		endloop
	endfacet
	facet normal 0 0 1
		outer loop
			vertex 0.0011389023857191205 0.002098387572914362 0.036741629242897034
			vertex -0.01558081153780222 -0.028707245364785194 0.036741629242897034
			vertex -0.015478246845304966 -0.05392021685838699 0.036741629242897034
		endloop
	endfacet
	facet normal 0 0 1
		outer loop
			vertex 0.0011389023857191205 0.002098387572914362 0.036741629242897034
			vertex -0.015478246845304966 -0.05392021685838699 0.036741629242897034
			vertex -0.011611969210207462 -0.06211978942155838 0.036741629242897034
		endloop
	endfacet
	facet normal 0 0 1
		outer loop
			vertex 0.0011389023857191205 0.002098387572914362 0.036741629242897034
			vertex -0.011611969210207462 -0.06211978942155838 0.036741629242897034
			vertex 0.004467449150979519 -0.07529792934656143 0.036741629242897034
		endloop
	endfacet
	facet normal 0 0 1
		outer loop
			vertex 0.0011389023857191205 0.002098387572914362 0.036741629242897034
			vertex 0.03856833279132843 0.07106109708547592 0.036741629242897034
			vertex -0.0023023122921586037 0.08211468160152435 0.036741629242897034
		endloop
	endfacet
	facet normal 0 0 1
		outer loop
			vertex 0.0555555522441864 -0.09260577708482742 0.036741629242897034
			vertex 0.0555555522441864 0.06646684557199478 0.036741629242897034
			vertex 0.03856833279132843 0.07106109708547592 0.036741629242897034
		endloop
	endfacet
	facet normal 0 0 1
		outer loop
			vertex 0.0555555522441864 -0.09260577708482742 0.036741629242897034
			vertex 0.03856833279132843 0.07106109708547592 0.036741629242897034
			vertex 0.0011389023857191205 0.002098387572914362 0.036741629242897034
		endloop
	endfacet
	facet normal 0 0 1
		outer loop
			vertex 0.0555555522441864 -0.09260577708482742 0.036741629242897034
			vertex 0.0011389023857191205 0.002098387572914362 0.036741629242897034
			vertex 0.004467449150979519 -0.07529792934656143 0.036741629242897034
		endloop
	endfacet
	facet normal 0 0 1
		outer loop
			vertex 0.0555555522441864 -0.09260577708482742 0.036741629242897034
			vertex 0.004467449150979519 -0.07529792934656143 0.036741629242897034
			vertex 0.017310984432697296 -0.08582405000925064 0.036741629242897034
		endloop
	endfacet
	facet normal 0 0 1
		outer loop
			vertex 0.0555555522441864 -0.09260577708482742 0.036741629242897034
			vertex 0.017310984432697296 -0.08582405000925064 0.036741629242897034
			vertex 0.023447461426258087 -0.09025115519762039 0.036741629242897034
		endloop
	endfacet
	facet normal 0 0 1
		outer loop
			vertex 0.0555555522441864 -0.09260577708482742 0.036741629242897034
			vertex 0.023447461426258087 -0.09025115519762039 0.036741629242897034
			vertex 0.027213744819164276 -0.09131021052598953 0.036741629242897034
		endloop
	endfacet
	facet normal 0 0 1
		outer loop
			vertex 0.03856833279132843 0.07106109708547592 0.036741629242897034
			vertex 0.0555555522441864 0.1023595854640007 0.036741629242897034
			vertex 0.006080976687371731 0.1023595854640007 0.036741629242897034
		endloop
	endfacet
	facet normal 0 0 1
		outer loop
			vertex 0.03856833279132843 0.07106109708547592 0.036741629242897034
			vertex 0.006080976687371731 0.1023595854640007 0.036741629242897034
			vertex -0.002520889975130558 0.0871971920132637 0.036741629242897034
		endloop
	endfacet
	facet normal 0 0 1
		outer loop
			vertex 0.03856833279132843 0.07106109708547592 0.036741629242897034
			vertex -0.002520889975130558 0.0871971920132637 0.036741629242897034
			vertex -0.0023023122921586037 0.08211468160152435 0.036741629242897034
		endloop
	endfacet
	facet normal 0 0 1
		outer loop
			vertex 0.0555555522441864 0.06646684557199478 0.036741629242897034
			vertex 0.0555555522441864 0.1023595854640007 0.036741629242897034
			vertex 0.03856833279132843 0.07106109708547592 0.036741629242897034
		endloop
	endfacet
	facet normal 0 0 -1
		outer loop
			vertex -0.05235021561384201 -0.04423772543668747 -0.036741625517606735
			vertex -0.055555559694767 -0.04192527383565903 -0.036741625517606735
			vertex -0.055555559694767 -0.03640713542699814 -0.036741625517606735
		endloop
	endfacet
	facet normal 0 0 -1
		outer loop
			vertex -0.044420354068279266 0.08184327185153961 -0.036741625517606735
			vertex -0.055555559694767 0.1023595854640007 -0.036741625517606735
			vertex -0.025782637298107147 0.1023595854640007 -0.036741625517606735
		endloop
	endfacet
	facet normal 0 0 -1
		outer loop
			vertex -0.044420354068279266 0.08184327185153961 -0.036741625517606735
			vertex -0.025782637298107147 0.1023595854640007 -0.036741625517606735
			vertex -0.025707758963108063 0.08395065367221832 -0.036741625517606735
		endloop
	endfacet
	facet normal 0 0 -1
		outer loop
			vertex -0.055555559694767 0.08058924973011017 -0.036741625517606735
			vertex -0.055555559694767 0.1023595854640007 -0.036741625517606735
			vertex -0.044420354068279266 0.08184327185153961 -0.036741625517606735
		endloop
	endfacet
	facet normal 0 0 -1
		outer loop
			vertex -0.02555779367685318 0.04708952456712723 -0.036741625517606735
			vertex -0.044420354068279266 0.08184327185153961 -0.036741625517606735
			vertex -0.025707758963108063 0.08395065367221832 -0.036741625517606735
		endloop
	endfacet
	facet normal 0 0 -1
		outer loop
			vertex -0.025106288492679596 -0.06389255076646805 -0.036741625517606735
			vertex -0.05235021561384201 -0.04423772543668747 -0.036741625517606735
			vertex -0.055555559694767 -0.03640713542699814 -0.036741625517606735
		endloop
	endfacet
	facet normal 0 0 -1
		outer loop
			vertex -0.025106288492679596 -0.06389255076646805 -0.036741625517606735
			vertex -0.055555559694767 -0.03640713542699814 -0.036741625517606735
			vertex -0.055555559694767 0.08058924973011017 -0.036741625517606735
		endloop
	endfacet
	facet normal 0 0 -1
		outer loop
			vertex -0.025106288492679596 -0.06389255076646805 -0.036741625517606735
			vertex -0.055555559694767 0.08058924973011017 -0.036741625517606735
			vertex -0.044420354068279266 0.08184327185153961 -0.036741625517606735
		endloop
	endfacet
	facet normal 0 0 -1
		outer loop
			vertex -0.025106288492679596 -0.06389255076646805 -0.036741625517606735
			vertex -0.044420354068279266 0.08184327185153961 -0.036741625517606735
			vertex -0.02555779367685318 0.04708952456712723 -0.036741625517606735
		endloop
	endfacet
	facet normal 0 0 -1
		outer loop
			vertex 0.03858192265033722 -0.07108614593744278 -0.036741625517606735
			vertex -0.02555779367685318 0.04708952456712723 -0.036741625517606735
			vertex -0.025710053741931915 0.0845181941986084 -0.036741625517606735
		endloop
	endfacet
	facet normal 0 0 -1
		outer loop
			vertex 0.03858192265033722 -0.07108614593744278 -0.036741625517606735
			vertex -0.025710053741931915 0.0845181941986084 -0.036741625517606735
			vertex 0.037669457495212555 -0.04989609867334366 -0.036741625517606735
		endloop
	endfacet
	facet normal 0 0 -1
		outer loop
			vertex -0.0039223963394761086 -0.07917539030313492 -0.036741625517606735
			vertex -0.025106288492679596 -0.06389255076646805 -0.036741625517606735
			vertex -0.02555779367685318 0.04708952456712723 -0.036741625517606735
		endloop
	endfacet
	facet normal 0 0 -1
		outer loop
			vertex -0.0039223963394761086 -0.07917539030313492 -0.036741625517606735
			vertex -0.02555779367685318 0.04708952456712723 -0.036741625517606735
			vertex 0.03858192265033722 -0.07108614593744278 -0.036741625517606735
		endloop
	endfacet
	facet normal 0 0 -1
		outer loop
			vertex -0.0039223963394761086 -0.07917539030313492 -0.036741625517606735
			vertex 0.03858192265033722 -0.07108614593744278 -0.036741625517606735
			vertex 0.03945550322532654 -0.0913732722401619 -0.036741625517606735
		endloop
	endfacet
	facet normal 0 0 -1
		outer loop
			vertex -0.025710053741931915 0.0845181941986084 -0.036741625517606735
			vertex -0.025782637298107147 0.1023595854640007 -0.036741625517606735
			vertex 0.01843547821044922 0.1023595854640007 -0.036741625517606735
		endloop
	endfacet
	facet normal 0 0 -1
		outer loop
			vertex -0.025710053741931915 0.0845181941986084 -0.036741625517606735
			vertex 0.01843547821044922 0.1023595854640007 -0.036741625517606735
			vertex -0.010266833938658237 0.051766447722911835 -0.036741625517606735
		endloop
	endfacet
	facet normal 0 0 -1
		outer loop
			vertex 0.03421594947576523 0.030304601415991783 -0.036741625517606735
			vertex 0.037669457495212555 -0.04989609867334366 -0.036741625517606735
			vertex -0.005169720388948917 0.040956564247608185 -0.036741625517606735
		endloop
	endfacet
	facet normal 0 0 -1
		outer loop
			vertex 0.01843547821044922 0.1023595854640007 -0.036741625517606735
			vertex 0.03111319988965988 0.1023595854640007 -0.036741625517606735
			vertex 0.03421594947576523 0.030304601415991783 -0.036741625517606735
		endloop
	endfacet
	facet normal 0 0 -1
		outer loop
			vertex 0.01843547821044922 0.1023595854640007 -0.036741625517606735
			vertex 0.03421594947576523 0.030304601415991783 -0.036741625517606735
			vertex -0.005169720388948917 0.040956564247608185 -0.036741625517606735
		endloop
	endfacet
	facet normal 0 0 -1
		outer loop
			vertex 0.01843547821044922 0.1023595854640007 -0.036741625517606735
			vertex -0.005169720388948917 0.040956564247608185 -0.036741625517606735
			vertex -0.010266833938658237 0.051766447722911835 -0.036741625517606735
		endloop
	endfacet
	facet normal 0 0 -1
		outer loop
			vertex 0.0555555522441864 -0.08782864362001419 -0.036741625517606735
			vertex 0.0555555522441864 -0.09590063244104385 -0.036741625517606735
			vertex 0.05141856521368027 -0.09473729878664017 -0.036741625517606735
		endloop
	endfacet
	facet normal 0 0 -1
		outer loop
			vertex 0.0555555522441864 -0.08782864362001419 -0.036741625517606735
			vertex 0.05141856521368027 -0.09473729878664017 -0.036741625517606735
			vertex 0.03858192265033722 -0.07108614593744278 -0.036741625517606735
		endloop
	endfacet
	facet normal 0 0 -1
		outer loop
			vertex 0.0555555522441864 -0.08782864362001419 -0.036741625517606735
			vertex 0.03858192265033722 -0.07108614593744278 -0.036741625517606735
			vertex 0.037669457495212555 -0.04989609867334366 -0.036741625517606735
		endloop
	endfacet
	facet normal 0 0 -1
		outer loop
			vertex 0.03945550322532654 -0.0913732722401619 -0.036741625517606735
			vertex 0.03858192265033722 -0.07108614593744278 -0.036741625517606735
			vertex 0.05141856521368027 -0.09473729878664017 -0.036741625517606735
		endloop
	endfacet
	facet normal 0 0 -1
		outer loop
			vertex 0.0555555522441864 0.007224759552627802 -0.036741625517606735
			vertex 0.0555555522441864 -0.08782864362001419 -0.036741625517606735
			vertex 0.037669457495212555 -0.04989609867334366 -0.036741625517606735
		endloop
	endfacet
	facet normal 0 0 -1
		outer loop
			vertex 0.0555555522441864 0.007224759552627802 -0.036741625517606735
			vertex 0.037669457495212555 -0.04989609867334366 -0.036741625517606735
			vertex 0.03111319988965988 0.1023595854640007 -0.036741625517606735
		endloop
	endfacet
	facet normal 0 0 -1
		outer loop
			vertex 0.0555555522441864 0.007224759552627802 -0.036741625517606735
			vertex 0.03111319988965988 0.1023595854640007 -0.036741625517606735
			vertex 0.04604208469390869 0.1023595854640007 -0.036741625517606735
		endloop
	endfacet
	facet normal 0 0 -1
		outer loop
			vertex 0.0555555522441864 0.049588508903980255 -0.036741625517606735
			vertex 0.0555555522441864 0.007224759552627802 -0.036741625517606735
			vertex 0.04983256757259369 0.06445469707250595 -0.036741625517606735
		endloop
	endfacet
	facet normal 0 0 -1
		outer loop
			vertex 0.0555555522441864 0.1023595854640007 -0.036741625517606735
			vertex 0.0555555522441864 0.049588508903980255 -0.036741625517606735
			vertex 0.04983256757259369 0.06445469707250595 -0.036741625517606735
		endloop
	endfacet
	facet normal 0 0 -1
		outer loop
			vertex 0.0555555522441864 0.1023595854640007 -0.036741625517606735
			vertex 0.04983256757259369 0.06445469707250595 -0.036741625517606735
			vertex 0.04604208469390869 0.1023595854640007 -0.036741625517606735
		endloop
	endfacet
endsolid exported
