solid exported
	facet normal -0.26697439973519227 -0.9282678142404007 -0.25892766351122587
		outer loop
			vertex 0.03683394193649292 -0.07593885809183121 0.025460654869675636
			vertex 0.0399361178278923 -0.07763967663049698 0.028359586372971535
			vertex 0.03150814771652222 -0.07571152597665787 0.030136963352560997
		endloop
	endfacet
	facet normal -0.4507238086437565 -0.754764617292814 -0.47663237490176685
		outer loop
			vertex 0.03683394193649292 -0.07593885809183121 0.025460654869675636
			vertex 0.03150814771652222 -0.07571152597665787 0.030136963352560997
			vertex 0.004033817909657955 -0.05940268188714981 0.0302922111004591
		endloop
	endfacet
	facet normal -0.6061544215580414 -0.2506218335060237 -0.754828135270351
		outer loop
			vertex 0.03212948888540268 0.004980465862900019 -0.036741629242897034
			vertex -0.030535437166690826 -0.028717780485749245 0.024769244715571404
			vertex 0.01129589881747961 0.05536862462759018 -0.036741629242897034
		endloop
	endfacet
	facet normal -0.3951037508272545 -0.5741859766411048 -0.717079835381623
		outer loop
			vertex 0.04504679888486862 -0.003908061888068914 -0.036741629242897034
			vertex 0.03683394193649292 -0.07593885809183121 0.025460654869675636
			vertex 0.004033817909657955 -0.05940268188714981 0.0302922111004591
		endloop
	endfacet
	facet normal -0.3951035725226244 -0.5741861039509387 -0.7170798316850789
		outer loop
			vertex 0.04504679888486862 -0.003908061888068914 -0.036741629242897034
			vertex 0.004033817909657955 -0.05940268188714981 0.0302922111004591
			vertex -0.030535437166690826 -0.028717780485749245 0.024769244715571404
		endloop
	endfacet
	facet normal -0.39510333422509086 -0.5741864561824372 -0.7170796809426903
		outer loop
			vertex 0.04504679888486862 -0.003908061888068914 -0.036741629242897034
			vertex -0.030535437166690826 -0.028717780485749245 0.024769244715571404
			vertex 0.03212948888540268 0.004980465862900019 -0.036741629242897034
		endloop
	endfacet
	facet normal 0.0008486392466981117 -0.8621134095226312 -0.5067146622436471
		outer loop
			vertex 0.0399361178278923 -0.07763967663049698 0.028359586372971535
			vertex 0.03683394193649292 -0.07593885809183121 0.025460654869675636
			vertex 0.04452093690633774 -0.07626570016145706 0.026029611006379128
		endloop
	endfacet
	facet normal 0.008879865656582676 -0.8105505374447322 -0.585601378271924
		outer loop
			vertex 0.04452093690633774 -0.07626570016145706 0.026029611006379128
			vertex 0.03683394193649292 -0.07593885809183121 0.025460654869675636
			vertex 0.05401143431663513 -0.07216755300760269 0.020501138642430305
		endloop
	endfacet
	facet normal -0.07715810108195198 -0.6465802319491131 -0.7589338779433019
		outer loop
			vertex 0.0555555522441864 -0.0051622032187879086 -0.036741629242897034
			vertex 0.0555555522441864 -0.07089800387620926 0.01926255039870739
			vertex 0.05401143431663513 -0.07216755300760269 0.020501138642430305
		endloop
	endfacet
	facet normal -0.07716455732003143 -0.6465798212868521 -0.7589335714002025
		outer loop
			vertex 0.0555555522441864 -0.0051622032187879086 -0.036741629242897034
			vertex 0.05401143431663513 -0.07216755300760269 0.020501138642430305
			vertex 0.03683394193649292 -0.07593885809183121 0.025460654869675636
		endloop
	endfacet
	facet normal -0.0771644808071987 -0.6465798367698915 -0.758933565988734
		outer loop
			vertex 0.0555555522441864 -0.0051622032187879086 -0.036741629242897034
			vertex 0.03683394193649292 -0.07593885809183121 0.025460654869675636
			vertex 0.04504679888486862 -0.003908061888068914 -0.036741629242897034
		endloop
	endfacet
	facet normal 1 0 0
		outer loop
			vertex 0.0555555522441864 -0.0051622032187879086 -0.036741629242897034
			vertex 0.0555555522441864 0.028651421889662743 -0.036741629242897034
			vertex 0.0555555522441864 -0.07089800387620926 0.01926255039870739
		endloop
	endfacet
	facet normal -0.7216716559843569 0.2682114040366918 -0.6381635085880911
		outer loop
			vertex -0.04119483381509781 0.1023595854640007 0.01009865291416645
			vertex -0.0419032946228981 0.09741812944412231 0.00882299430668354
			vertex -0.044859714806079865 0.1023595854640007 0.014243109151721
		endloop
	endfacet
	facet normal -0.88158404531256 -0.009804888459936963 -0.4719252432458245
		outer loop
			vertex -0.041493676602840424 0.08084692060947418 0.008402103558182716
			vertex -0.055555559694767 0.06931792944669724 0.03491005674004555
			vertex -0.055555559694767 0.1023595854640007 0.03422357141971588
		endloop
	endfacet
	facet normal -0.881584011020162 -0.009804786613792835 -0.4719253094220111
		outer loop
			vertex -0.041493676602840424 0.08084692060947418 0.008402103558182716
			vertex -0.055555559694767 0.1023595854640007 0.03422357141971588
			vertex -0.044859714806079865 0.1023595854640007 0.014243109151721
		endloop
	endfacet
	facet normal -0.8815846737769402 -0.00980522896359026 -0.47192406216104055
		outer loop
			vertex -0.041493676602840424 0.08084692060947418 0.008402103558182716
			vertex -0.044859714806079865 0.1023595854640007 0.014243109151721
			vertex -0.0419032946228981 0.09741812944412231 0.00882299430668354
		endloop
	endfacet
	facet normal -0.8569269953318799 -0.1117387405097624 -0.5031804631946358
		outer loop
			vertex -0.05298198014497757 0.041333191096782684 0.036741625517606735
			vertex -0.055555559694767 0.0610700324177742 0.036741625517606735
			vertex -0.055555559694767 0.06931792944669724 0.03491005674004555
		endloop
	endfacet
	facet normal -0.8569277084492516 -0.11173872680510383 -0.5031792517819955
		outer loop
			vertex -0.05298198014497757 0.041333191096782684 0.036741625517606735
			vertex -0.055555559694767 0.06931792944669724 0.03491005674004555
			vertex -0.041493676602840424 0.08084692060947418 0.008402103558182716
		endloop
	endfacet
	facet normal -0.8569275045826678 -0.11173899273153862 -0.5031795399189666
		outer loop
			vertex -0.05298198014497757 0.041333191096782684 0.036741625517606735
			vertex -0.041493676602840424 0.08084692060947418 0.008402103558182716
			vertex -0.04069594293832779 0.07210270315408707 0.008985335007309914
		endloop
	endfacet
	facet normal -0.676449874902869 -0.19352838834750888 -0.7106070149157753
		outer loop
			vertex -0.03968339413404465 0.017856961116194725 0.019307000562548637
			vertex -0.0383576974272728 0.03766100853681564 0.01265154592692852
			vertex -0.03758407384157181 0.01584421657025814 0.017856745049357414
		endloop
	endfacet
	facet normal -0.8569274798926063 -0.11173877860548319 -0.5031796295167975
		outer loop
			vertex -0.0518619641661644 0.044138215482234955 0.03421129286289215
			vertex -0.04069594293832779 0.07210270315408707 0.008985335007309914
			vertex -0.03869905322790146 0.05021402984857559 0.010445298627018929
		endloop
	endfacet
	facet normal -0.8569275383812889 -0.11173850228705007 -0.503179591269789
		outer loop
			vertex -0.0518619641661644 0.044138215482234955 0.03421129286289215
			vertex -0.03869905322790146 0.05021402984857559 0.010445298627018929
			vertex -0.0383576974272728 0.03766100853681564 0.01265154592692852
		endloop
	endfacet
	facet normal -0.8569275202949111 -0.11173796468052062 -0.5031797414545516
		outer loop
			vertex -0.0518619641661644 0.044138215482234955 0.03421129286289215
			vertex -0.0383576974272728 0.03766100853681564 0.01265154592692852
			vertex -0.03968339413404465 0.017856961116194725 0.019307000562548637
		endloop
	endfacet
	facet normal -0.6764581882539884 -0.19352220679154217 -0.7106007845637826
		outer loop
			vertex -0.03637067228555679 -0.018374154344201088 0.026020796969532967
			vertex -0.04294223338365555 -0.034769393503665924 0.036741625517606735
			vertex -0.04315613955259323 -0.034021683037281036 0.036741625517606735
		endloop
	endfacet
	facet normal -0.6764512152320512 -0.19352858788743024 -0.710605684667227
		outer loop
			vertex -0.03637067228555679 -0.018374154344201088 0.026020796969532967
			vertex -0.04315613955259323 -0.034021683037281036 0.036741625517606735
			vertex -0.03968339413404465 0.017856961116194725 0.019307000562548637
		endloop
	endfacet
	facet normal -0.6764500128794761 -0.19352868513732754 -0.7106068027428205
		outer loop
			vertex -0.03637067228555679 -0.018374154344201088 0.026020796969532967
			vertex -0.03968339413404465 0.017856961116194725 0.019307000562548637
			vertex -0.03758407384157181 0.01584421657025814 0.017856745049357414
		endloop
	endfacet
	facet normal -0.45072243491800035 -0.7547651556624058 -0.47663282142493446
		outer loop
			vertex -0.034871093928813934 -0.04024259001016617 0.036741625517606735
			vertex -0.03974955528974533 -0.03732932358980179 0.036741625517606735
			vertex -0.03496585041284561 -0.039741016924381256 0.03603697195649147
		endloop
	endfacet
	facet normal -0.6061447043373951 -0.2506435412466572 -0.7548287306634978
		outer loop
			vertex -0.035801611840724945 -0.03154968470335007 0.029938427731394768
			vertex -0.04273243993520737 -0.03527674823999405 0.036741625517606735
			vertex -0.04294223338365555 -0.034769393503665924 0.036741625517606735
		endloop
	endfacet
	facet normal -0.6061540890001865 -0.2506219515183234 -0.754828363143239
		outer loop
			vertex -0.035801611840724945 -0.03154968470335007 0.029938427731394768
			vertex -0.04294223338365555 -0.034769393503665924 0.036741625517606735
			vertex -0.03637067228555679 -0.018374154344201088 0.026020796969532967
		endloop
	endfacet
	facet normal -0.39509717643909514 -0.5741710291785256 -0.7170954263010798
		outer loop
			vertex -0.03496585041284561 -0.039741016924381256 0.03603697195649147
			vertex -0.03974955528974533 -0.03732932358980179 0.036741625517606735
			vertex -0.04273243993520737 -0.03527674823999405 0.036741625517606735
		endloop
	endfacet
	facet normal -0.3951045267397077 -0.5741863983631116 -0.717079070176079
		outer loop
			vertex -0.03496585041284561 -0.039741016924381256 0.03603697195649147
			vertex -0.04273243993520737 -0.03527674823999405 0.036741625517606735
			vertex -0.035801611840724945 -0.03154968470335007 0.029938427731394768
		endloop
	endfacet
	facet normal -0.8569292972501209 -0.11173863363826375 -0.503176566691125
		outer loop
			vertex -0.04315613955259323 -0.034021683037281036 0.036741625517606735
			vertex -0.05298198014497757 0.041333191096782684 0.036741625517606735
			vertex -0.0518619641661644 0.044138215482234955 0.03421129286289215
		endloop
	endfacet
	facet normal -0.8569278810434208 -0.11173855454364104 -0.5031789961027096
		outer loop
			vertex -0.04315613955259323 -0.034021683037281036 0.036741625517606735
			vertex -0.0518619641661644 0.044138215482234955 0.03421129286289215
			vertex -0.03968339413404465 0.017856961116194725 0.019307000562548637
		endloop
	endfacet
	facet normal -0.676450778436444 -0.1935284221437637 -0.7106061456075892
		outer loop
			vertex -0.031175829470157623 -0.0054136305116117 0.01754594035446644
			vertex -0.03637067228555679 -0.018374154344201088 0.026020796969532967
			vertex -0.0383576974272728 0.03766100853681564 0.01265154592692852
		endloop
	endfacet
	facet normal -0.676453727393897 -0.19352858966793943 -0.7106032927562619
		outer loop
			vertex -0.031175829470157623 -0.0054136305116117 0.01754594035446644
			vertex -0.0383576974272728 0.03766100853681564 0.01265154592692852
			vertex -0.038017503917217255 0.04274318367242813 0.010943600907921791
		endloop
	endfacet
	facet normal -0.6061531589810044 -0.25062211707167703 -0.7548290550130273
		outer loop
			vertex -0.03382731229066849 -0.030487993732094765 0.028000490739941597
			vertex -0.035801611840724945 -0.03154968470335007 0.029938427731394768
			vertex -0.03637067228555679 -0.018374154344201088 0.026020796969532967
		endloop
	endfacet
	facet normal -0.6061534401917862 -0.25062213806918016 -0.7548288222195121
		outer loop
			vertex -0.03382731229066849 -0.030487993732094765 0.028000490739941597
			vertex -0.03637067228555679 -0.018374154344201088 0.026020796969532967
			vertex -0.031175829470157623 -0.0054136305116117 0.01754594035446644
		endloop
	endfacet
	facet normal -0.6061608315822175 -0.2506192776516026 -0.7548238363518629
		outer loop
			vertex -0.03382731229066849 -0.030487993732094765 0.028000490739941597
			vertex -0.031175829470157623 -0.0054136305116117 0.01754594035446644
			vertex -0.03064478188753128 -0.008380078710615635 0.018104413524270058
		endloop
	endfacet
	facet normal -0.39509994057128606 -0.5741882361799482 -0.7170801255042051
		outer loop
			vertex -0.03542501479387283 -0.03524073213338852 0.03268646448850632
			vertex -0.035801611840724945 -0.03154968470335007 0.029938427731394768
			vertex -0.03382731229066849 -0.030487993732094765 0.028000490739941597
		endloop
	endfacet
	facet normal -0.8569315258983226 -0.11173745794928876 -0.5031730322787616
		outer loop
			vertex -0.03869905322790146 0.05021402984857559 0.010445298627018929
			vertex -0.038017503917217255 0.04274318367242813 0.010943600907921791
			vertex -0.0383576974272728 0.03766100853681564 0.01265154592692852
		endloop
	endfacet
	facet normal -0.4507242923369205 -0.75476449925323 -0.4766321044205936
		outer loop
			vertex -0.01531053427606821 -0.051923610270023346 0.036741625517606735
			vertex -0.034871093928813934 -0.04024259001016617 0.036741625517606735
			vertex -0.03496585041284561 -0.039741016924381256 0.03603697195649147
		endloop
	endfacet
	facet normal -0.45072189911214716 -0.7547610819408785 -0.47663977891923176
		outer loop
			vertex -0.01531053427606821 -0.051923610270023346 0.036741625517606735
			vertex -0.03496585041284561 -0.039741016924381256 0.03603697195649147
			vertex -0.01779761165380478 -0.04839635640382767 0.033508043736219406
		endloop
	endfacet
	facet normal -0.6061535465211346 -0.25062247053806463 -0.7548286264452665
		outer loop
			vertex -0.030535437166690826 -0.028717780485749245 0.024769244715571404
			vertex -0.03382731229066849 -0.030487993732094765 0.028000490739941597
			vertex -0.03064478188753128 -0.008380078710615635 0.018104413524270058
		endloop
	endfacet
	facet normal -0.6061542632748378 -0.25062230390118906 -0.7548281061943832
		outer loop
			vertex -0.030535437166690826 -0.028717780485749245 0.024769244715571404
			vertex -0.03064478188753128 -0.008380078710615635 0.018104413524270058
			vertex -0.027938447892665863 -0.023497501388192177 0.020950501784682274
		endloop
	endfacet
	facet normal -0.39510279658042113 -0.574185951355559 -0.7170803814079996
		outer loop
			vertex -0.01779761165380478 -0.04839635640382767 0.033508043736219406
			vertex -0.03496585041284561 -0.039741016924381256 0.03603697195649147
			vertex -0.03542501479387283 -0.03524073213338852 0.03268646448850632
		endloop
	endfacet
	facet normal -0.3951033045951401 -0.5741865829855197 -0.717079595733565
		outer loop
			vertex -0.01779761165380478 -0.04839635640382767 0.033508043736219406
			vertex -0.03542501479387283 -0.03524073213338852 0.03268646448850632
			vertex -0.03382731229066849 -0.030487993732094765 0.028000490739941597
		endloop
	endfacet
	facet normal -0.3951029311137675 -0.5741863655226509 -0.7170799756465092
		outer loop
			vertex -0.01779761165380478 -0.04839635640382767 0.033508043736219406
			vertex -0.03382731229066849 -0.030487993732094765 0.028000490739941597
			vertex -0.030535437166690826 -0.028717780485749245 0.024769244715571404
		endloop
	endfacet
	facet normal -0.3951039749951959 -0.5741866755581386 -0.717079152224138
		outer loop
			vertex -0.01779761165380478 -0.04839635640382767 0.033508043736219406
			vertex -0.030535437166690826 -0.028717780485749245 0.024769244715571404
			vertex -0.023943327367305756 -0.03456916660070419 0.025822432711720467
		endloop
	endfacet
	facet normal -0.7216720702860154 0.2682096288982711 -0.6381637861359326
		outer loop
			vertex -0.04119483381509781 0.1023595854640007 0.01009865291416645
			vertex -0.039246685802936554 0.1023595854640007 0.00789557583630085
			vertex -0.0396360382437706 0.09362860023975372 0.004666389897465706
		endloop
	endfacet
	facet normal -0.7216690280901882 0.26821175623342547 -0.6381663323253153
		outer loop
			vertex -0.04119483381509781 0.1023595854640007 0.01009865291416645
			vertex -0.0396360382437706 0.09362860023975372 0.004666389897465706
			vertex -0.0419032946228981 0.09741812944412231 0.00882299430668354
		endloop
	endfacet
	facet normal -0.8815829755308716 -0.00980510634449658 -0.4719272371284664
		outer loop
			vertex -0.03957483917474747 0.08242012560367584 0.004784936085343361
			vertex -0.041493676602840424 0.08084692060947418 0.008402103558182716
			vertex -0.0419032946228981 0.09741812944412231 0.00882299430668354
		endloop
	endfacet
	facet normal -0.8815825727415755 -0.009804839735867038 -0.47192799509681427
		outer loop
			vertex -0.03957483917474747 0.08242012560367584 0.004784936085343361
			vertex -0.0419032946228981 0.09741812944412231 0.00882299430668354
			vertex -0.0396360382437706 0.09362860023975372 0.004666389897465706
		endloop
	endfacet
	facet normal -0.8569269668885935 -0.11173735096656356 -0.50318082020094
		outer loop
			vertex -0.041493676602840424 0.08084692060947418 0.008402103558182716
			vertex -0.03957483917474747 0.08242012560367584 0.004784936085343361
			vertex -0.0393836572766304 0.07538922876119614 0.0060206446796655655
		endloop
	endfacet
	facet normal -0.8569282659030423 -0.11173897595642147 -0.5031782470940246
		outer loop
			vertex -0.041493676602840424 0.08084692060947418 0.008402103558182716
			vertex -0.0393836572766304 0.07538922876119614 0.0060206446796655655
			vertex -0.04069594293832779 0.07210270315408707 0.008985335007309914
		endloop
	endfacet
	facet normal -0.8569284008741656 -0.11173875831127428 -0.5031780655655612
		outer loop
			vertex -0.0393836572766304 0.07538922876119614 0.0060206446796655655
			vertex -0.03869905322790146 0.05021402984857559 0.010445298627018929
			vertex -0.04069594293832779 0.07210270315408707 0.008985335007309914
		endloop
	endfacet
	facet normal -0.709221504846579 0.12021364532939983 -0.6946607348481496
		outer loop
			vertex -0.03526543825864792 0.1023595854640007 -0.0006490257801488042
			vertex -0.03531254082918167 0.09929767996072769 -0.0011308101238682866
			vertex -0.03535785526037216 0.1023595854640007 -0.0005546716274693608
		endloop
	endfacet
	facet normal -0.9335303149845299 0.05290209771409461 -0.35457371456769493
		outer loop
			vertex -0.03535085171461105 0.08737149089574814 -0.00280932174064219
			vertex -0.03805600851774216 0.1023595854640007 0.006549092009663582
			vertex -0.03535785526037216 0.1023595854640007 -0.0005546716274693608
		endloop
	endfacet
	facet normal -0.9335301609829818 0.05290215743852425 -0.35457411111562814
		outer loop
			vertex -0.03535085171461105 0.08737149089574814 -0.00280932174064219
			vertex -0.03535785526037216 0.1023595854640007 -0.0005546716274693608
			vertex -0.03531254082918167 0.09929767996072769 -0.0011308101238682866
		endloop
	endfacet
	facet normal -0.7216713257883952 0.2682108577538767 -0.6381641115870976
		outer loop
			vertex -0.039246685802936554 0.1023595854640007 0.00789557583630085
			vertex -0.03805600851774216 0.1023595854640007 0.006549092009663582
			vertex -0.03535085171461105 0.08737149089574814 -0.00280932174064219
		endloop
	endfacet
	facet normal -0.7216596665357641 0.2682204313806754 -0.6381732726191645
		outer loop
			vertex -0.039246685802936554 0.1023595854640007 0.00789557583630085
			vertex -0.03535085171461105 0.08737149089574814 -0.00280932174064219
			vertex -0.03543742746114731 0.08661089092493057 -0.0030310957226902246
		endloop
	endfacet
	facet normal -0.72167407495408 0.26820898060934156 -0.6381617916012136
		outer loop
			vertex -0.039246685802936554 0.1023595854640007 0.00789557583630085
			vertex -0.03543742746114731 0.08661089092493057 -0.0030310957226902246
			vertex -0.0396360382437706 0.09362860023975372 0.004666389897465706
		endloop
	endfacet
	facet normal -0.8815842099771679 -0.009804816332887632 -0.47192493714107886
		outer loop
			vertex -0.03540007025003433 0.08584291487932205 -0.0030848963651806116
			vertex -0.03957483917474747 0.08242012560367584 0.004784936085343361
			vertex -0.0396360382437706 0.09362860023975372 0.004666389897465706
		endloop
	endfacet
	facet normal -0.8815921193814827 -0.009824231881937213 -0.471909757805871
		outer loop
			vertex -0.03540007025003433 0.08584291487932205 -0.0030848963651806116
			vertex -0.0396360382437706 0.09362860023975372 0.004666389897465706
			vertex -0.03543742746114731 0.08661089092493057 -0.0030310957226902246
		endloop
	endfacet
	facet normal -0.8569343561799933 -0.11171672983828415 -0.5031728147193767
		outer loop
			vertex -0.03957483917474747 0.08242012560367584 0.004784936085343361
			vertex -0.03540007025003433 0.08584291487932205 -0.0030848963651806116
			vertex -0.03535694628953934 0.08547387272119522 -0.0030764027033001184
		endloop
	endfacet
	facet normal -0.8569288709413246 -0.11173685229384582 -0.5031776882838604
		outer loop
			vertex -0.03957483917474747 0.08242012560367584 0.004784936085343361
			vertex -0.03535694628953934 0.08547387272119522 -0.0030764027033001184
			vertex -0.0393836572766304 0.07538922876119614 0.0060206446796655655
		endloop
	endfacet
	facet normal -0.6764493520755831 -0.19352854091238791 -0.7106074710617994
		outer loop
			vertex -0.029680795967578888 -0.001683735754340887 0.015106962993741035
			vertex -0.031175829470157623 -0.0054136305116117 0.01754594035446644
			vertex -0.038017503917217255 0.04274318367242813 0.010943600907921791
		endloop
	endfacet
	facet normal -0.676450673971503 -0.19352866780370917 -0.7106061781476579
		outer loop
			vertex -0.029680795967578888 -0.001683735754340887 0.015106962993741035
			vertex -0.038017503917217255 0.04274318367242813 0.010943600907921791
			vertex -0.0352298840880394 0.08438678085803986 -0.0030513762030750513
		endloop
	endfacet
	facet normal -0.6764514078476354 -0.1935285731704378 -0.7106055053175191
		outer loop
			vertex -0.029680795967578888 -0.001683735754340887 0.015106962993741035
			vertex -0.0352298840880394 0.08438678085803986 -0.0030513762030750513
			vertex -0.025715701282024384 0.030483132228255272 0.0025720165576785803
		endloop
	endfacet
	facet normal -0.6061563438407441 -0.25061916008746743 -0.7548274792418956
		outer loop
			vertex -0.031175829470157623 -0.0054136305116117 0.01754594035446644
			vertex -0.029680795967578888 -0.001683735754340887 0.015106962993741035
			vertex -0.03064478188753128 -0.008380078710615635 0.018104413524270058
		endloop
	endfacet
	facet normal -0.8569196775581 -0.11174330097583765 -0.503191912594733
		outer loop
			vertex -0.03535694628953934 0.08547387272119522 -0.0030764027033001184
			vertex -0.0352298840880394 0.08438678085803986 -0.0030513762030750513
			vertex -0.038017503917217255 0.04274318367242813 0.010943600907921791
		endloop
	endfacet
	facet normal -0.8569297023865763 -0.1117374981364197 -0.5031761288831851
		outer loop
			vertex -0.03535694628953934 0.08547387272119522 -0.0030764027033001184
			vertex -0.038017503917217255 0.04274318367242813 0.010943600907921791
			vertex -0.03869905322790146 0.05021402984857559 0.010445298627018929
		endloop
	endfacet
	facet normal -0.856927550881609 -0.11173898092403615 -0.5031794636927323
		outer loop
			vertex -0.03535694628953934 0.08547387272119522 -0.0030764027033001184
			vertex -0.03869905322790146 0.05021402984857559 0.010445298627018929
			vertex -0.0393836572766304 0.07538922876119614 0.0060206446796655655
		endloop
	endfacet
	facet normal -0.6764519498410738 -0.1935283310057496 -0.7106050553256278
		outer loop
			vertex -0.022986166179180145 0.015018618665635586 0.004185320809483528
			vertex -0.029680795967578888 -0.001683735754340887 0.015106962993741035
			vertex -0.025715701282024384 0.030483132228255272 0.0025720165576785803
		endloop
	endfacet
	facet normal -0.4507208389782461 -0.7547611519003636 -0.4766406706238806
		outer loop
			vertex 0.009036614559590816 -0.06646300107240677 0.036741625517606735
			vertex -0.01531053427606821 -0.051923610270023346 0.036741625517606735
			vertex -0.01779761165380478 -0.04839635640382767 0.033508043736219406
		endloop
	endfacet
	facet normal -0.45072430264884306 -0.7547647036093522 -0.4766317710635756
		outer loop
			vertex 0.009036614559590816 -0.06646300107240677 0.036741625517606735
			vertex -0.01779761165380478 -0.04839635640382767 0.033508043736219406
			vertex 0.003624572418630123 -0.059196360409259796 0.03035249002277851
		endloop
	endfacet
	facet normal -0.6061548931217313 -0.25062190117980654 -0.7548277341179257
		outer loop
			vertex -0.029680795967578888 -0.001683735754340887 0.015106962993741035
			vertex -0.022986166179180145 0.015018618665635586 0.004185320809483528
			vertex -0.018682114779949188 -0.004891061689704657 0.007339524105191231
		endloop
	endfacet
	facet normal -0.606154878670439 -0.25062150476240397 -0.7548278773433409
		outer loop
			vertex -0.029680795967578888 -0.001683735754340887 0.015106962993741035
			vertex -0.018682114779949188 -0.004891061689704657 0.007339524105191231
			vertex -0.027938447892665863 -0.023497501388192177 0.020950501784682274
		endloop
	endfacet
	facet normal -0.6061494579812301 -0.25062217800176595 -0.7548320067953611
		outer loop
			vertex -0.029680795967578888 -0.001683735754340887 0.015106962993741035
			vertex -0.027938447892665863 -0.023497501388192177 0.020950501784682274
			vertex -0.03064478188753128 -0.008380078710615635 0.018104413524270058
		endloop
	endfacet
	facet normal -0.39510442638559384 -0.5741867187291483 -0.7170788689436922
		outer loop
			vertex 0.003624572418630123 -0.059196360409259796 0.03035249002277851
			vertex -0.01779761165380478 -0.04839635640382767 0.033508043736219406
			vertex -0.023943327367305756 -0.03456916660070419 0.025822432711720467
		endloop
	endfacet
	facet normal -0.39510584145067634 -0.5741879743965849 -0.7170770837991546
		outer loop
			vertex 0.003624572418630123 -0.059196360409259796 0.03035249002277851
			vertex -0.023943327367305756 -0.03456916660070419 0.025822432711720467
			vertex 0.0034887632355093956 -0.058918870985507965 0.030205124989151955
		endloop
	endfacet
	facet normal -0.7091783755981707 0.12022097102069844 -0.6947034976958014
		outer loop
			vertex -0.028353489935398102 0.1023595854640007 -0.00770498625934124
			vertex -0.03511687368154526 0.08607511222362518 -0.0036187677178531885
			vertex -0.03531254082918167 0.09929767996072769 -0.0011308101238682866
		endloop
	endfacet
	facet normal -0.7091782062401369 0.12021976785721435 -0.6947038787932448
		outer loop
			vertex -0.028353489935398102 0.1023595854640007 -0.00770498625934124
			vertex -0.03531254082918167 0.09929767996072769 -0.0011308101238682866
			vertex -0.03526543825864792 0.1023595854640007 -0.0006490257801488042
		endloop
	endfacet
	facet normal -0.9335311357193082 0.05290180674606627 -0.3545715971219643
		outer loop
			vertex -0.03511687368154526 0.08607511222362518 -0.0036187677178531885
			vertex -0.03535085171461105 0.08737149089574814 -0.00280932174064219
			vertex -0.03531254082918167 0.09929767996072769 -0.0011308101238682866
		endloop
	endfacet
	facet normal -0.7216585069932611 0.2682206543916103 -0.6381744901216232
		outer loop
			vertex -0.03535085171461105 0.08737149089574814 -0.00280932174064219
			vertex -0.03511687368154526 0.08607511222362518 -0.0036187677178531885
			vertex -0.03543742746114731 0.08661089092493057 -0.0030310957226902246
		endloop
	endfacet
	facet normal -0.8815876468633677 -0.009823427826310686 -0.47191812972554015
		outer loop
			vertex -0.03511687368154526 0.08607511222362518 -0.0036187677178531885
			vertex -0.03540007025003433 0.08584291487932205 -0.0030848963651806116
			vertex -0.03543742746114731 0.08661089092493057 -0.0030310957226902246
		endloop
	endfacet
	facet normal -0.8569412065113811 -0.11171725910609186 -0.5031610304869018
		outer loop
			vertex -0.03540007025003433 0.08584291487932205 -0.0030848963651806116
			vertex -0.03511687368154526 0.08607511222362518 -0.0036187677178531885
			vertex -0.03535694628953934 0.08547387272119522 -0.0030764027033001184
		endloop
	endfacet
	facet normal -0.5026620945811907 -0.008143523809711197 -0.8644446203726476
		outer loop
			vertex -0.03511687368154526 0.08607511222362518 -0.0036187677178531885
			vertex -0.028353489935398102 0.1023595854640007 -0.00770498625934124
			vertex -0.021833308041095734 0.1023595854640007 -0.011496378108859062
		endloop
	endfacet
	facet normal -0.502662694153498 -0.008142869054539576 -0.8644442778976028
		outer loop
			vertex -0.03511687368154526 0.08607511222362518 -0.0036187677178531885
			vertex -0.021833308041095734 0.1023595854640007 -0.011496378108859062
			vertex -0.021640397608280182 0.09013871848583221 -0.011493435129523277
		endloop
	endfacet
	facet normal -0.5181463893521688 0.656858500688528 -0.5477784490782107
		outer loop
			vertex -0.01887127012014389 0.08600854128599167 -0.01906539313495159
			vertex -0.03511687368154526 0.08607511222362518 -0.0036187677178531885
			vertex -0.021640397608280182 0.09013871848583221 -0.011493435129523277
		endloop
	endfacet
	facet normal -0.6764507923124792 -0.19352811154760163 -0.7106062169870443
		outer loop
			vertex -0.03511687368154526 0.08607511222362518 -0.0036187677178531885
			vertex -0.01887127012014389 0.08600854128599167 -0.01906539313495159
			vertex -0.021268270909786224 0.0665629580616951 -0.011487750336527824
		endloop
	endfacet
	facet normal -0.6764578835478653 -0.19352905924322134 -0.7105992084250985
		outer loop
			vertex -0.025715701282024384 0.030483132228255272 0.0025720165576785803
			vertex -0.0352298840880394 0.08438678085803986 -0.0030513762030750513
			vertex -0.03511687368154526 0.08607511222362518 -0.0036187677178531885
		endloop
	endfacet
	facet normal -0.6764512321212026 -0.19352865188895502 -0.7106056511594532
		outer loop
			vertex -0.025715701282024384 0.030483132228255272 0.0025720165576785803
			vertex -0.03511687368154526 0.08607511222362518 -0.0036187677178531885
			vertex -0.021268270909786224 0.0665629580616951 -0.011487750336527824
		endloop
	endfacet
	facet normal -0.8569248112628348 -0.1117436977198978 -0.5031830818519631
		outer loop
			vertex -0.03511687368154526 0.08607511222362518 -0.0036187677178531885
			vertex -0.0352298840880394 0.08438678085803986 -0.0030513762030750513
			vertex -0.03535694628953934 0.08547387272119522 -0.0030764027033001184
		endloop
	endfacet
	facet normal -0.5026630284840672 -0.008142198982521248 -0.8644440898004653
		outer loop
			vertex 0.012512988410890102 0.1023595854640007 -0.03146829456090927
			vertex 0.012930846773087978 0.10056309401988983 -0.03169435262680054
			vertex -0.021640397608280182 0.09013871848583221 -0.011493435129523277
		endloop
	endfacet
	facet normal -0.5026628461655127 -0.008142871432807751 -0.8644441894822448
		outer loop
			vertex 0.012512988410890102 0.1023595854640007 -0.03146829456090927
			vertex -0.021640397608280182 0.09013871848583221 -0.011493435129523277
			vertex -0.021833308041095734 0.1023595854640007 -0.011496378108859062
		endloop
	endfacet
	facet normal -0.5181464660268152 0.6568584430431385 -0.5477784456756822
		outer loop
			vertex -0.0002807535929605365 0.08593234419822693 -0.036741629242897034
			vertex -0.01887127012014389 0.08600854128599167 -0.01906539313495159
			vertex -0.021640397608280182 0.09013871848583221 -0.011493435129523277
		endloop
	endfacet
	facet normal -0.518146414543769 0.6568585105908127 -0.5477784133752042
		outer loop
			vertex -0.0002807535929605365 0.08593234419822693 -0.036741629242897034
			vertex -0.021640397608280182 0.09013871848583221 -0.011493435129523277
			vertex 0.012930846773087978 0.10056309401988983 -0.03169435262680054
		endloop
	endfacet
	facet normal -0.5181469418778256 0.6568587257085094 -0.5477776566119236
		outer loop
			vertex -0.0002807535929605365 0.08593234419822693 -0.036741629242897034
			vertex 0.012930846773087978 0.10056309401988983 -0.03169435262680054
			vertex 0.013981177471578121 0.09718251973390579 -0.036741629242897034
		endloop
	endfacet
	facet normal -0.6764512521955119 -0.1935283922809228 -0.7106057027524374
		outer loop
			vertex -0.0002807535929605365 0.08593234419822693 -0.036741629242897034
			vertex 0.002100861631333828 0.07760774344205856 -0.036741629242897034
			vertex -0.00916265044361353 0.04950661212205887 -0.018366342410445213
		endloop
	endfacet
	facet normal -0.676450964034122 -0.19352857572154794 -0.7106059271048167
		outer loop
			vertex -0.0002807535929605365 0.08593234419822693 -0.036741629242897034
			vertex -0.00916265044361353 0.04950661212205887 -0.018366342410445213
			vertex -0.021268270909786224 0.0665629580616951 -0.011487750336527824
		endloop
	endfacet
	facet normal -0.6764513903680378 -0.19352784433428044 -0.7106057204501488
		outer loop
			vertex -0.0002807535929605365 0.08593234419822693 -0.036741629242897034
			vertex -0.021268270909786224 0.0665629580616951 -0.011487750336527824
			vertex -0.01887127012014389 0.08600854128599167 -0.01906539313495159
		endloop
	endfacet
	facet normal -0.6061542492887435 -0.25062192927914856 -0.7548282418097493
		outer loop
			vertex -0.00916265044361353 0.04950661212205887 -0.018366342410445213
			vertex 0.002100861631333828 0.07760774344205856 -0.036741629242897034
			vertex 0.01129589881747961 0.05536862462759018 -0.036741629242897034
		endloop
	endfacet
	facet normal -0.60615421707344 -0.25062202410831025 -0.7548282361941284
		outer loop
			vertex -0.00916265044361353 0.04950661212205887 -0.018366342410445213
			vertex 0.01129589881747961 0.05536862462759018 -0.036741629242897034
			vertex 0.003912574611604214 0.04052720218896866 -0.025884827598929405
		endloop
	endfacet
	facet normal -0.6764513735324593 -0.19352828774711525 -0.7106056157164248
		outer loop
			vertex -0.00916265044361353 0.04950661212205887 -0.018366342410445213
			vertex -0.022986166179180145 0.015018618665635586 0.004185320809483528
			vertex -0.025715701282024384 0.030483132228255272 0.0025720165576785803
		endloop
	endfacet
	facet normal -0.676451080991924 -0.19352871941400196 -0.7106057766348612
		outer loop
			vertex -0.00916265044361353 0.04950661212205887 -0.018366342410445213
			vertex -0.025715701282024384 0.030483132228255272 0.0025720165576785803
			vertex -0.021268270909786224 0.0665629580616951 -0.011487750336527824
		endloop
	endfacet
	facet normal -0.26697666989212027 -0.9282652244461094 -0.25893460722222544
		outer loop
			vertex 0.0399361178278923 -0.07763967663049698 0.028359586372971535
			vertex 0.048905838280916214 -0.0825575664639473 0.036741625517606735
			vertex 0.023986168205738068 -0.07539046555757523 0.036741625517606735
		endloop
	endfacet
	facet normal -0.26697480804996004 -0.9282668714541106 -0.25893062242130566
		outer loop
			vertex 0.0399361178278923 -0.07763967663049698 0.028359586372971535
			vertex 0.023986168205738068 -0.07539046555757523 0.036741625517606735
			vertex 0.03150814771652222 -0.07571152597665787 0.030136963352560997
		endloop
	endfacet
	facet normal -0.4507238781203758 -0.7547631028669333 -0.4766347073418048
		outer loop
			vertex 0.03150814771652222 -0.07571152597665787 0.030136963352560997
			vertex 0.023986168205738068 -0.07539046555757523 0.036741625517606735
			vertex 0.009036614559590816 -0.06646300107240677 0.036741625517606735
		endloop
	endfacet
	facet normal -0.45072380991161626 -0.7547647214606183 -0.47663220874929607
		outer loop
			vertex 0.03150814771652222 -0.07571152597665787 0.030136963352560997
			vertex 0.009036614559590816 -0.06646300107240677 0.036741625517606735
			vertex 0.003624572418630123 -0.059196360409259796 0.03035249002277851
		endloop
	endfacet
	facet normal -0.45071782463664767 -0.7547543274994436 -0.47665432723900786
		outer loop
			vertex 0.03150814771652222 -0.07571152597665787 0.030136963352560997
			vertex 0.003624572418630123 -0.059196360409259796 0.03035249002277851
			vertex 0.004033817909657955 -0.05940268188714981 0.0302922111004591
		endloop
	endfacet
	facet normal -0.60615421120357 -0.25062200680329144 -0.7548282466535476
		outer loop
			vertex -0.022986166179180145 0.015018618665635586 0.004185320809483528
			vertex -0.00916265044361353 0.04950661212205887 -0.018366342410445213
			vertex 0.003912574611604214 0.04052720218896866 -0.025884827598929405
		endloop
	endfacet
	facet normal -0.6061543184146925 -0.2506218526102743 -0.7548282117551076
		outer loop
			vertex -0.022986166179180145 0.015018618665635586 0.004185320809483528
			vertex 0.003912574611604214 0.04052720218896866 -0.025884827598929405
			vertex -0.018682114779949188 -0.004891061689704657 0.007339524105191231
		endloop
	endfacet
	facet normal -0.39509790389283733 -0.5741868783027615 -0.7170823349688766
		outer loop
			vertex 0.004033817909657955 -0.05940268188714981 0.0302922111004591
			vertex 0.003624572418630123 -0.059196360409259796 0.03035249002277851
			vertex 0.0034887632355093956 -0.058918870985507965 0.030205124989151955
		endloop
	endfacet
	facet normal 0.0008487864589048027 -0.8621087159336999 -0.5067226474835069
		outer loop
			vertex 0.050298262387514114 -0.08255619555711746 0.036741625517606735
			vertex 0.048905838280916214 -0.0825575664639473 0.036741625517606735
			vertex 0.0399361178278923 -0.07763967663049698 0.028359586372971535
		endloop
	endfacet
	facet normal 0.0008453417340635559 -0.862110579752324 -0.5067194822349589
		outer loop
			vertex 0.050298262387514114 -0.08255619555711746 0.036741625517606735
			vertex 0.0399361178278923 -0.07763967663049698 0.028359586372971535
			vertex 0.04452093690633774 -0.07626570016145706 0.026029611006379128
		endloop
	endfacet
	facet normal 0.0008480020961989345 -0.862109950866906 -0.5067205477466902
		outer loop
			vertex 0.050298262387514114 -0.08255619555711746 0.036741625517606735
			vertex 0.04452093690633774 -0.07626570016145706 0.026029611006379128
			vertex 0.04951900243759155 -0.07647822052240372 0.02639954723417759
		endloop
	endfacet
	facet normal 0.008879233373452979 -0.8105473429026298 -0.5856058095068617
		outer loop
			vertex 0.04951900243759155 -0.07647822052240372 0.02639954723417759
			vertex 0.04452093690633774 -0.07626570016145706 0.026029611006379128
			vertex 0.049192946404218674 -0.07424823194742203 0.023308036848902702
		endloop
	endfacet
	facet normal -0.5026626119576887 -0.008142071471297111 -0.8644443332060373
		outer loop
			vertex 0.0188886821269989 0.1023595854640007 -0.03517567366361618
			vertex 0.012930846773087978 0.10056309401988983 -0.03169435262680054
			vertex 0.012512988410890102 0.1023595854640007 -0.03146829456090927
		endloop
	endfacet
	facet normal -0.5181465295836732 0.6568589802891026 -0.5477777413275899
		outer loop
			vertex 0.013981177471578121 0.09718251973390579 -0.036741629242897034
			vertex 0.012930846773087978 0.10056309401988983 -0.03169435262680054
			vertex 0.0188886821269989 0.1023595854640007 -0.03517567366361618
		endloop
	endfacet
	facet normal -0.5181460459116521 0.6568587453890896 -0.5477784805119598
		outer loop
			vertex 0.013981177471578121 0.09718251973390579 -0.036741629242897034
			vertex 0.0188886821269989 0.1023595854640007 -0.03517567366361618
			vertex 0.02054419368505478 0.1023595854640007 -0.036741629242897034
		endloop
	endfacet
	facet normal 0.0008503545749510823 -0.8621098717081108 -0.5067206784812733
		outer loop
			vertex 0.0555555522441864 -0.082551009953022 0.036741625517606735
			vertex 0.050298262387514114 -0.08255619555711746 0.036741625517606735
			vertex 0.04951900243759155 -0.07647822052240372 0.02639954723417759
		endloop
	endfacet
	facet normal 0.0008508068110406864 -0.8621097560345133 -0.5067208745235217
		outer loop
			vertex 0.0555555522441864 -0.082551009953022 0.036741625517606735
			vertex 0.04951900243759155 -0.07647822052240372 0.02639954723417759
			vertex 0.0555555522441864 -0.07673487812280655 0.026846347376704216
		endloop
	endfacet
	facet normal 0.008881851113665552 -0.8105471929173407 -0.5856059774068344
		outer loop
			vertex 0.0555555522441864 -0.07673487812280655 0.026846347376704216
			vertex 0.04951900243759155 -0.07647822052240372 0.02639954723417759
			vertex 0.049192946404218674 -0.07424823194742203 0.023308036848902702
		endloop
	endfacet
	facet normal 0.00887733434788871 -0.8105511176569631 -0.5856006135583567
		outer loop
			vertex 0.0555555522441864 -0.07673487812280655 0.026846347376704216
			vertex 0.049192946404218674 -0.07424823194742203 0.023308036848902702
			vertex 0.05401143431663513 -0.07216755300760269 0.020501138642430305
		endloop
	endfacet
	facet normal 0.008874585012168429 -0.8105514554641943 -0.5856001876585578
		outer loop
			vertex 0.0555555522441864 -0.07673487812280655 0.026846347376704216
			vertex 0.05401143431663513 -0.07216755300760269 0.020501138642430305
			vertex 0.0555555522441864 -0.07182855159044266 0.020055314525961876
		endloop
	endfacet
	facet normal -0.07717506512845093 -0.6465680453648763 -0.7589425353974193
		outer loop
			vertex 0.0555555522441864 -0.07182855159044266 0.020055314525961876
			vertex 0.05401143431663513 -0.07216755300760269 0.020501138642430305
			vertex 0.0555555522441864 -0.07089800387620926 0.01926255039870739
		endloop
	endfacet
	facet normal 1 0 0
		outer loop
			vertex 0.0555555522441864 0.028910299763083458 0.036741625517606735
			vertex 0.0555555522441864 -0.082551009953022 0.036741625517606735
			vertex 0.0555555522441864 -0.07725439220666885 0.027730194851756096
		endloop
	endfacet
	facet normal 1 0 0
		outer loop
			vertex 0.0555555522441864 0.028910299763083458 0.036741625517606735
			vertex 0.0555555522441864 -0.07725439220666885 0.027730194851756096
			vertex 0.0555555522441864 0.08140209317207336 -0.0292190071195364
		endloop
	endfacet
	facet normal 1 0 0
		outer loop
			vertex 0.0555555522441864 0.028910299763083458 0.036741625517606735
			vertex 0.0555555522441864 0.08140209317207336 -0.0292190071195364
			vertex 0.0555555522441864 0.07263236492872238 0.009220050647854805
		endloop
	endfacet
	facet normal 1 0 0
		outer loop
			vertex 0.0555555522441864 0.028651421889662743 -0.036741629242897034
			vertex 0.0555555522441864 0.08311834931373596 -0.036741629242897034
			vertex 0.0555555522441864 0.08140209317207336 -0.0292190071195364
		endloop
	endfacet
	facet normal 1 0 0
		outer loop
			vertex 0.0555555522441864 0.028651421889662743 -0.036741629242897034
			vertex 0.0555555522441864 0.08140209317207336 -0.0292190071195364
			vertex 0.0555555522441864 -0.07725439220666885 0.027730194851756096
		endloop
	endfacet
	facet normal 1 0 0
		outer loop
			vertex 0.0555555522441864 0.028651421889662743 -0.036741629242897034
			vertex 0.0555555522441864 -0.07725439220666885 0.027730194851756096
			vertex 0.0555555522441864 -0.07673487812280655 0.026846347376704216
		endloop
	endfacet
	facet normal 1 0 0
		outer loop
			vertex 0.0555555522441864 0.028651421889662743 -0.036741629242897034
			vertex 0.0555555522441864 -0.07673487812280655 0.026846347376704216
			vertex 0.0555555522441864 -0.07182855159044266 0.020055314525961876
		endloop
	endfacet
	facet normal 1 0 0
		outer loop
			vertex 0.0555555522441864 0.028651421889662743 -0.036741629242897034
			vertex 0.0555555522441864 -0.07182855159044266 0.020055314525961876
			vertex 0.0555555522441864 -0.07089800387620926 0.01926255039870739
		endloop
	endfacet
	facet normal 1 0 0
		outer loop
			vertex 0.0555555522441864 0.06635343283414841 0.036741625517606735
			vertex 0.0555555522441864 0.028910299763083458 0.036741625517606735
			vertex 0.0555555522441864 0.07263236492872238 0.009220050647854805
		endloop
	endfacet
	facet normal 1 0 0
		outer loop
			vertex 0.0555555522441864 0.07263236492872238 0.009220050647854805
			vertex 0.0555555522441864 0.08140209317207336 -0.0292190071195364
			vertex 0.0555555522441864 0.1023595854640007 -0.036741629242897034
		endloop
	endfacet
	facet normal 1 0 0
		outer loop
			vertex 0.0555555522441864 0.07263236492872238 0.009220050647854805
			vertex 0.0555555522441864 0.1023595854640007 -0.036741629242897034
			vertex 0.0555555522441864 0.1023595854640007 -0.009492231532931328
		endloop
	endfacet
	facet normal 1 0 0
		outer loop
			vertex 0.0555555522441864 0.08311834931373596 -0.036741629242897034
			vertex 0.0555555522441864 0.1023595854640007 -0.036741629242897034
			vertex 0.0555555522441864 0.08140209317207336 -0.0292190071195364
		endloop
	endfacet
	facet normal 1 0 0
		outer loop
			vertex 0.0555555522441864 0.07175273448228836 0.013075584545731544
			vertex 0.0555555522441864 0.07263236492872238 0.009220050647854805
			vertex 0.0555555522441864 0.1023595854640007 -0.009492231532931328
		endloop
	endfacet
	facet normal 1 0 0
		outer loop
			vertex 0.0555555522441864 0.07175273448228836 0.013075584545731544
			vertex 0.0555555522441864 0.1023595854640007 -0.009492231532931328
			vertex 0.0555555522441864 0.1023595854640007 -0.0038575513754040003
		endloop
	endfacet
	facet normal 1 0 0
		outer loop
			vertex 0.0555555522441864 0.1023595854640007 0.036741625517606735
			vertex 0.0555555522441864 0.06635343283414841 0.036741625517606735
			vertex 0.0555555522441864 0.07175273448228836 0.013075584545731544
		endloop
	endfacet
	facet normal 1 0 0
		outer loop
			vertex 0.0555555522441864 0.1023595854640007 0.036741625517606735
			vertex 0.0555555522441864 0.07175273448228836 0.013075584545731544
			vertex 0.0555555522441864 0.1023595854640007 -0.0038575513754040003
		endloop
	endfacet
	facet normal -1 0 0
		outer loop
			vertex -0.055555559694767 0.09572828561067581 0.0343613438308239
			vertex -0.055555559694767 0.1023595854640007 0.036741625517606735
			vertex -0.055555559694767 0.1023595854640007 0.03422357141971588
		endloop
	endfacet
	facet normal -1 0 0
		outer loop
			vertex -0.055555559694767 0.0610700324177742 0.036741625517606735
			vertex -0.055555559694767 0.1023595854640007 0.036741625517606735
			vertex -0.055555559694767 0.09572828561067581 0.0343613438308239
		endloop
	endfacet
	facet normal -1 0 0
		outer loop
			vertex -0.055555559694767 0.0610700324177742 0.036741625517606735
			vertex -0.055555559694767 0.09572828561067581 0.0343613438308239
			vertex -0.055555559694767 0.06931792944669724 0.03491005674004555
		endloop
	endfacet
	facet normal 0 1 0
		outer loop
			vertex -0.055555559694767 0.1023595854640007 0.03422357141971588
			vertex -0.055555559694767 0.1023595854640007 0.036741625517606735
			vertex -0.047500304877758026 0.1023595854640007 0.031414296478033066
		endloop
	endfacet
	facet normal 0 1 0
		outer loop
			vertex -0.055555559694767 0.1023595854640007 0.03422357141971588
			vertex -0.047500304877758026 0.1023595854640007 0.031414296478033066
			vertex -0.040021367371082306 0.1023595854640007 0.011723550036549568
		endloop
	endfacet
	facet normal 0 1 0
		outer loop
			vertex -0.055555559694767 0.1023595854640007 0.03422357141971588
			vertex -0.040021367371082306 0.1023595854640007 0.011723550036549568
			vertex -0.04119483381509781 0.1023595854640007 0.01009865291416645
		endloop
	endfacet
	facet normal 0 1 0
		outer loop
			vertex -0.055555559694767 0.1023595854640007 0.03422357141971588
			vertex -0.04119483381509781 0.1023595854640007 0.01009865291416645
			vertex -0.044859714806079865 0.1023595854640007 0.014243109151721
		endloop
	endfacet
	facet normal 0 1 0
		outer loop
			vertex -0.055555559694767 0.1023595854640007 0.036741625517606735
			vertex -0.0495237335562706 0.1023595854640007 0.036741625517606735
			vertex -0.047500304877758026 0.1023595854640007 0.031414296478033066
		endloop
	endfacet
	facet normal 0 1 0
		outer loop
			vertex -0.047500304877758026 0.1023595854640007 0.031414296478033066
			vertex -0.03706062585115433 0.1023595854640007 0.02451002039015293
			vertex -0.03845822066068649 0.1023595854640007 0.013888092711567879
		endloop
	endfacet
	facet normal 0 1 0
		outer loop
			vertex -0.047500304877758026 0.1023595854640007 0.031414296478033066
			vertex -0.03845822066068649 0.1023595854640007 0.013888092711567879
			vertex -0.040021367371082306 0.1023595854640007 0.011723550036549568
		endloop
	endfacet
	facet normal 0 1 0
		outer loop
			vertex -0.0495237335562706 0.1023595854640007 0.036741625517606735
			vertex -0.0354512557387352 0.1023595854640007 0.036741625517606735
			vertex -0.03706062585115433 0.1023595854640007 0.02451002039015293
		endloop
	endfacet
	facet normal 0 1 0
		outer loop
			vertex -0.0495237335562706 0.1023595854640007 0.036741625517606735
			vertex -0.03706062585115433 0.1023595854640007 0.02451002039015293
			vertex -0.047500304877758026 0.1023595854640007 0.031414296478033066
		endloop
	endfacet
	facet normal 0 1 0
		outer loop
			vertex -0.03706062585115433 0.1023595854640007 0.02451002039015293
			vertex -0.033956415951251984 0.1023595854640007 0.022457053884863853
			vertex -0.033398471772670746 0.1023595854640007 0.020894406363368034
		endloop
	endfacet
	facet normal 0 1 0
		outer loop
			vertex -0.03706062585115433 0.1023595854640007 0.02451002039015293
			vertex -0.033398471772670746 0.1023595854640007 0.020894406363368034
			vertex -0.03845822066068649 0.1023595854640007 0.013888092711567879
		endloop
	endfacet
	facet normal 0 1 0
		outer loop
			vertex -0.033956415951251984 0.1023595854640007 0.022457053884863853
			vertex -0.03706062585115433 0.1023595854640007 0.02451002039015293
			vertex -0.03642212599515915 0.1023595854640007 0.029362792149186134
		endloop
	endfacet
	facet normal 0 1 0
		outer loop
			vertex -0.033956415951251984 0.1023595854640007 0.022457053884863853
			vertex -0.03281509131193161 0.1023595854640007 0.0217022355645895
			vertex -0.033398471772670746 0.1023595854640007 0.020894406363368034
		endloop
	endfacet
	facet normal 0 1 0
		outer loop
			vertex -0.0354512557387352 0.1023595854640007 0.036741625517606735
			vertex -0.021954111754894257 0.1023595854640007 0.036741625517606735
			vertex -0.03281509131193161 0.1023595854640007 0.0217022355645895
		endloop
	endfacet
	facet normal 0 1 0
		outer loop
			vertex -0.0354512557387352 0.1023595854640007 0.036741625517606735
			vertex -0.03281509131193161 0.1023595854640007 0.0217022355645895
			vertex -0.033956415951251984 0.1023595854640007 0.022457053884863853
		endloop
	endfacet
	facet normal 0 1 0
		outer loop
			vertex -0.0354512557387352 0.1023595854640007 0.036741625517606735
			vertex -0.033956415951251984 0.1023595854640007 0.022457053884863853
			vertex -0.03642212599515915 0.1023595854640007 0.029362792149186134
		endloop
	endfacet
	facet normal 0 1 0
		outer loop
			vertex -0.04119483381509781 0.1023595854640007 0.01009865291416645
			vertex -0.040021367371082306 0.1023595854640007 0.011723550036549568
			vertex -0.03907192498445511 0.1023595854640007 0.009223798289895058
		endloop
	endfacet
	facet normal 0 1 0
		outer loop
			vertex -0.04119483381509781 0.1023595854640007 0.01009865291416645
			vertex -0.03907192498445511 0.1023595854640007 0.009223798289895058
			vertex -0.039246685802936554 0.1023595854640007 0.00789557583630085
		endloop
	endfacet
	facet normal 0 1 0
		outer loop
			vertex -0.040021367371082306 0.1023595854640007 0.011723550036549568
			vertex -0.03845822066068649 0.1023595854640007 0.013888092711567879
			vertex -0.03907192498445511 0.1023595854640007 0.009223798289895058
		endloop
	endfacet
	facet normal 0 1 0
		outer loop
			vertex -0.039246685802936554 0.1023595854640007 0.00789557583630085
			vertex -0.03907192498445511 0.1023595854640007 0.009223798289895058
			vertex -0.03805600851774216 0.1023595854640007 0.006549092009663582
		endloop
	endfacet
	facet normal 0 1 0
		outer loop
			vertex -0.03845822066068649 0.1023595854640007 0.013888092711567879
			vertex -0.033398471772670746 0.1023595854640007 0.020894406363368034
			vertex -0.028836525976657867 0.1023595854640007 0.008117670193314552
		endloop
	endfacet
	facet normal 0 1 0
		outer loop
			vertex -0.03845822066068649 0.1023595854640007 0.013888092711567879
			vertex -0.028836525976657867 0.1023595854640007 0.008117670193314552
			vertex -0.03526543825864792 0.1023595854640007 -0.0006490257801488042
		endloop
	endfacet
	facet normal 0 1 0
		outer loop
			vertex -0.03845822066068649 0.1023595854640007 0.013888092711567879
			vertex -0.03526543825864792 0.1023595854640007 -0.0006490257801488042
			vertex -0.03535785526037216 0.1023595854640007 -0.0005546716274693608
		endloop
	endfacet
	facet normal 0 1 0
		outer loop
			vertex -0.03845822066068649 0.1023595854640007 0.013888092711567879
			vertex -0.03535785526037216 0.1023595854640007 -0.0005546716274693608
			vertex -0.03907192498445511 0.1023595854640007 0.009223798289895058
		endloop
	endfacet
	facet normal 0 1 0
		outer loop
			vertex -0.033398471772670746 0.1023595854640007 0.020894406363368034
			vertex -0.03281509131193161 0.1023595854640007 0.0217022355645895
			vertex -0.023427419364452362 0.1023595854640007 0.015493715181946754
		endloop
	endfacet
	facet normal 0 1 0
		outer loop
			vertex -0.033398471772670746 0.1023595854640007 0.020894406363368034
			vertex -0.023427419364452362 0.1023595854640007 0.015493715181946754
			vertex -0.028836525976657867 0.1023595854640007 0.008117670193314552
		endloop
	endfacet
	facet normal 0 1 0
		outer loop
			vertex -0.021954111754894257 0.1023595854640007 0.036741625517606735
			vertex -0.007845626212656498 0.1023595854640007 0.036741625517606735
			vertex -0.023427419364452362 0.1023595854640007 0.015493715181946754
		endloop
	endfacet
	facet normal 0 1 0
		outer loop
			vertex -0.021954111754894257 0.1023595854640007 0.036741625517606735
			vertex -0.023427419364452362 0.1023595854640007 0.015493715181946754
			vertex -0.03281509131193161 0.1023595854640007 0.0217022355645895
		endloop
	endfacet
	facet normal 0 1 0
		outer loop
			vertex -0.03526543825864792 0.1023595854640007 -0.0006490257801488042
			vertex -0.028836525976657867 0.1023595854640007 0.008117670193314552
			vertex -0.021833308041095734 0.1023595854640007 -0.011496378108859062
		endloop
	endfacet
	facet normal 0 1 0
		outer loop
			vertex -0.03526543825864792 0.1023595854640007 -0.0006490257801488042
			vertex -0.021833308041095734 0.1023595854640007 -0.011496378108859062
			vertex -0.028353489935398102 0.1023595854640007 -0.00770498625934124
		endloop
	endfacet
	facet normal 0 1 0
		outer loop
			vertex -0.028836525976657867 0.1023595854640007 0.008117670193314552
			vertex -0.023427419364452362 0.1023595854640007 0.015493715181946754
			vertex 0.011136121116578579 0.1023595854640007 -0.007364867255091667
		endloop
	endfacet
	facet normal 0 1 0
		outer loop
			vertex -0.028836525976657867 0.1023595854640007 0.008117670193314552
			vertex 0.011136121116578579 0.1023595854640007 -0.007364867255091667
			vertex 0.012512988410890102 0.1023595854640007 -0.03146829456090927
		endloop
	endfacet
	facet normal 0 1 0
		outer loop
			vertex -0.028836525976657867 0.1023595854640007 0.008117670193314552
			vertex 0.012512988410890102 0.1023595854640007 -0.03146829456090927
			vertex -0.021833308041095734 0.1023595854640007 -0.011496378108859062
		endloop
	endfacet
	facet normal 0 1 0
		outer loop
			vertex -0.007845626212656498 0.1023595854640007 0.036741625517606735
			vertex 0.008616610430181026 0.1023595854640007 0.036741625517606735
			vertex 0.011136121116578579 0.1023595854640007 -0.007364867255091667
		endloop
	endfacet
	facet normal 0 1 0
		outer loop
			vertex -0.007845626212656498 0.1023595854640007 0.036741625517606735
			vertex 0.011136121116578579 0.1023595854640007 -0.007364867255091667
			vertex -0.023427419364452362 0.1023595854640007 0.015493715181946754
		endloop
	endfacet
	facet normal 0 1 0
		outer loop
			vertex 0.021581701934337616 0.1023595854640007 -0.036741629242897034
			vertex 0.02054419368505478 0.1023595854640007 -0.036741629242897034
			vertex 0.0188886821269989 0.1023595854640007 -0.03517567366361618
		endloop
	endfacet
	facet normal 0 1 0
		outer loop
			vertex 0.011136121116578579 0.1023595854640007 -0.007364867255091667
			vertex 0.04769153892993927 0.1023595854640007 -0.031540773808956146
			vertex 0.04814832657575607 0.1023595854640007 -0.036741629242897034
		endloop
	endfacet
	facet normal 0 1 0
		outer loop
			vertex 0.011136121116578579 0.1023595854640007 -0.007364867255091667
			vertex 0.04814832657575607 0.1023595854640007 -0.036741629242897034
			vertex 0.021581701934337616 0.1023595854640007 -0.036741629242897034
		endloop
	endfacet
	facet normal 0 1 0
		outer loop
			vertex 0.011136121116578579 0.1023595854640007 -0.007364867255091667
			vertex 0.021581701934337616 0.1023595854640007 -0.036741629242897034
			vertex 0.012512988410890102 0.1023595854640007 -0.03146829456090927
		endloop
	endfacet
	facet normal 0 1 0
		outer loop
			vertex 0.008616610430181026 0.1023595854640007 0.036741625517606735
			vertex 0.020922474563121796 0.1023595854640007 0.036741625517606735
			vertex 0.04445333778858185 0.1023595854640007 0.00532880611717701
		endloop
	endfacet
	facet normal 0 1 0
		outer loop
			vertex 0.008616610430181026 0.1023595854640007 0.036741625517606735
			vertex 0.04445333778858185 0.1023595854640007 0.00532880611717701
			vertex 0.04769153892993927 0.1023595854640007 -0.031540773808956146
		endloop
	endfacet
	facet normal 0 1 0
		outer loop
			vertex 0.008616610430181026 0.1023595854640007 0.036741625517606735
			vertex 0.04769153892993927 0.1023595854640007 -0.031540773808956146
			vertex 0.011136121116578579 0.1023595854640007 -0.007364867255091667
		endloop
	endfacet
	facet normal 0 1 0
		outer loop
			vertex 0.020922474563121796 0.1023595854640007 0.036741625517606735
			vertex 0.04169439524412155 0.1023595854640007 0.036741625517606735
			vertex 0.04445333778858185 0.1023595854640007 0.00532880611717701
		endloop
	endfacet
	facet normal 0 1 0
		outer loop
			vertex 0.04769153892993927 0.1023595854640007 -0.031540773808956146
			vertex 0.0555555522441864 0.1023595854640007 -0.036741629242897034
			vertex 0.04814832657575607 0.1023595854640007 -0.036741629242897034
		endloop
	endfacet
	facet normal 0 1 0
		outer loop
			vertex 0.0555555522441864 0.1023595854640007 -0.009492231532931328
			vertex 0.0555555522441864 0.1023595854640007 -0.036741629242897034
			vertex 0.04769153892993927 0.1023595854640007 -0.031540773808956146
		endloop
	endfacet
	facet normal 0 1 0
		outer loop
			vertex 0.0555555522441864 0.1023595854640007 -0.009492231532931328
			vertex 0.04769153892993927 0.1023595854640007 -0.031540773808956146
			vertex 0.04445333778858185 0.1023595854640007 0.00532880611717701
		endloop
	endfacet
	facet normal 0 1 0
		outer loop
			vertex 0.0555555522441864 0.1023595854640007 -0.0038575513754040003
			vertex 0.0555555522441864 0.1023595854640007 -0.009492231532931328
			vertex 0.04445333778858185 0.1023595854640007 0.00532880611717701
		endloop
	endfacet
	facet normal 0 1 0
		outer loop
			vertex 0.0555555522441864 0.1023595854640007 -0.0038575513754040003
			vertex 0.04445333778858185 0.1023595854640007 0.00532880611717701
			vertex 0.04417283833026886 0.1023595854640007 0.008522504940629005
		endloop
	endfacet
	facet normal 0 1 0
		outer loop
			vertex 0.04169439524412155 0.1023595854640007 0.036741625517606735
			vertex 0.0555555522441864 0.1023595854640007 0.036741625517606735
			vertex 0.0555555522441864 0.1023595854640007 -0.0038575513754040003
		endloop
	endfacet
	facet normal 0 1 0
		outer loop
			vertex 0.04169439524412155 0.1023595854640007 0.036741625517606735
			vertex 0.0555555522441864 0.1023595854640007 -0.0038575513754040003
			vertex 0.04417283833026886 0.1023595854640007 0.008522504940629005
		endloop
	endfacet
	facet normal 0 0 1
		outer loop
			vertex -0.055555559694767 0.1023595854640007 0.036741625517606735
			vertex -0.055555559694767 0.0610700324177742 0.036741625517606735
			vertex -0.05298198014497757 0.041333191096782684 0.036741625517606735
		endloop
	endfacet
	facet normal 0 0 1
		outer loop
			vertex -0.055555559694767 0.1023595854640007 0.036741625517606735
			vertex -0.05298198014497757 0.041333191096782684 0.036741625517606735
			vertex -0.0495237335562706 0.1023595854640007 0.036741625517606735
		endloop
	endfacet
	facet normal 0 0 1
		outer loop
			vertex -0.03527773171663284 0.059708841145038605 0.036741625517606735
			vertex -0.0354512557387352 0.1023595854640007 0.036741625517606735
			vertex -0.0495237335562706 0.1023595854640007 0.036741625517606735
		endloop
	endfacet
	facet normal 0 0 1
		outer loop
			vertex -0.03527773171663284 0.059708841145038605 0.036741625517606735
			vertex -0.0495237335562706 0.1023595854640007 0.036741625517606735
			vertex -0.0525226965546608 0.049437932670116425 0.036741625517606735
		endloop
	endfacet
	facet normal 0 0 1
		outer loop
			vertex -0.034871093928813934 -0.04024259001016617 0.036741625517606735
			vertex -0.03527773171663284 0.059708841145038605 0.036741625517606735
			vertex -0.0525226965546608 0.049437932670116425 0.036741625517606735
		endloop
	endfacet
	facet normal 0 0 1
		outer loop
			vertex -0.034871093928813934 -0.04024259001016617 0.036741625517606735
			vertex -0.0525226965546608 0.049437932670116425 0.036741625517606735
			vertex -0.05298198014497757 0.041333191096782684 0.036741625517606735
		endloop
	endfacet
	facet normal 0 0 1
		outer loop
			vertex -0.034871093928813934 -0.04024259001016617 0.036741625517606735
			vertex -0.05298198014497757 0.041333191096782684 0.036741625517606735
			vertex -0.04315613955259323 -0.034021683037281036 0.036741625517606735
		endloop
	endfacet
	facet normal 0 0 1
		outer loop
			vertex -0.034871093928813934 -0.04024259001016617 0.036741625517606735
			vertex -0.04315613955259323 -0.034021683037281036 0.036741625517606735
			vertex -0.04294223338365555 -0.034769393503665924 0.036741625517606735
		endloop
	endfacet
	facet normal 0 0 1
		outer loop
			vertex -0.034871093928813934 -0.04024259001016617 0.036741625517606735
			vertex -0.04294223338365555 -0.034769393503665924 0.036741625517606735
			vertex -0.04273243993520737 -0.03527674823999405 0.036741625517606735
		endloop
	endfacet
	facet normal 0 0 1
		outer loop
			vertex -0.034871093928813934 -0.04024259001016617 0.036741625517606735
			vertex -0.04273243993520737 -0.03527674823999405 0.036741625517606735
			vertex -0.03974955528974533 -0.03732932358980179 0.036741625517606735
		endloop
	endfacet
	facet normal 0 0 1
		outer loop
			vertex -0.025030948221683502 -0.04611886292695999 0.036741625517606735
			vertex -0.01625663787126541 -0.0299524012953043 0.036741625517606735
			vertex -0.021954111754894257 0.1023595854640007 0.036741625517606735
		endloop
	endfacet
	facet normal 0 0 1
		outer loop
			vertex -0.025030948221683502 -0.04611886292695999 0.036741625517606735
			vertex -0.021954111754894257 0.1023595854640007 0.036741625517606735
			vertex -0.0354512557387352 0.1023595854640007 0.036741625517606735
		endloop
	endfacet
	facet normal 0 0 1
		outer loop
			vertex -0.025030948221683502 -0.04611886292695999 0.036741625517606735
			vertex -0.0354512557387352 0.1023595854640007 0.036741625517606735
			vertex -0.034871093928813934 -0.04024259001016617 0.036741625517606735
		endloop
	endfacet
	facet normal 0 0 1
		outer loop
			vertex -0.01625663787126541 -0.0299524012953043 0.036741625517606735
			vertex -0.025030948221683502 -0.04611886292695999 0.036741625517606735
			vertex -0.01531053427606821 -0.051923610270023346 0.036741625517606735
		endloop
	endfacet
	facet normal 0 0 1
		outer loop
			vertex -0.01625663787126541 -0.0299524012953043 0.036741625517606735
			vertex 0.0020184284076094627 0.0037188888527452946 0.036741625517606735
			vertex -0.007845626212656498 0.1023595854640007 0.036741625517606735
		endloop
	endfacet
	facet normal 0 0 1
		outer loop
			vertex -0.01625663787126541 -0.0299524012953043 0.036741625517606735
			vertex -0.007845626212656498 0.1023595854640007 0.036741625517606735
			vertex -0.021954111754894257 0.1023595854640007 0.036741625517606735
		endloop
	endfacet
	facet normal 0 0 1
		outer loop
			vertex 0.0020184284076094627 0.0037188888527452946 0.036741625517606735
			vertex -0.01625663787126541 -0.0299524012953043 0.036741625517606735
			vertex -0.01531053427606821 -0.051923610270023346 0.036741625517606735
		endloop
	endfacet
	facet normal 0 0 1
		outer loop
			vertex 0.0020184284076094627 0.0037188888527452946 0.036741625517606735
			vertex -0.01531053427606821 -0.051923610270023346 0.036741625517606735
			vertex 0.009036614559590816 -0.06646300107240677 0.036741625517606735
		endloop
	endfacet
	facet normal 0 0 1
		outer loop
			vertex 0.0020184284076094627 0.0037188888527452946 0.036741625517606735
			vertex 0.02239041030406952 0.041253723204135895 0.036741625517606735
			vertex 0.008616610430181026 0.1023595854640007 0.036741625517606735
		endloop
	endfacet
	facet normal 0 0 1
		outer loop
			vertex 0.0020184284076094627 0.0037188888527452946 0.036741625517606735
			vertex 0.008616610430181026 0.1023595854640007 0.036741625517606735
			vertex -0.007845626212656498 0.1023595854640007 0.036741625517606735
		endloop
	endfacet
	facet normal 0 0 1
		outer loop
			vertex 0.02239041030406952 0.041253723204135895 0.036741625517606735
			vertex 0.0020184284076094627 0.0037188888527452946 0.036741625517606735
			vertex 0.009036614559590816 -0.06646300107240677 0.036741625517606735
		endloop
	endfacet
	facet normal 0 0 1
		outer loop
			vertex 0.02239041030406952 0.041253723204135895 0.036741625517606735
			vertex 0.009036614559590816 -0.06646300107240677 0.036741625517606735
			vertex 0.023986168205738068 -0.07539046555757523 0.036741625517606735
		endloop
	endfacet
	facet normal 0 0 1
		outer loop
			vertex 0.02239041030406952 0.041253723204135895 0.036741625517606735
			vertex 0.023986168205738068 -0.07539046555757523 0.036741625517606735
			vertex 0.048905838280916214 -0.0825575664639473 0.036741625517606735
		endloop
	endfacet
	facet normal 0 0 1
		outer loop
			vertex 0.02239041030406952 0.041253723204135895 0.036741625517606735
			vertex 0.048905838280916214 -0.0825575664639473 0.036741625517606735
			vertex 0.050298262387514114 -0.08255619555711746 0.036741625517606735
		endloop
	endfacet
	facet normal 0 0 1
		outer loop
			vertex 0.02239041030406952 0.041253723204135895 0.036741625517606735
			vertex 0.037022992968559265 0.06821385771036148 0.036741625517606735
			vertex 0.020922474563121796 0.1023595854640007 0.036741625517606735
		endloop
	endfacet
	facet normal 0 0 1
		outer loop
			vertex 0.02239041030406952 0.041253723204135895 0.036741625517606735
			vertex 0.020922474563121796 0.1023595854640007 0.036741625517606735
			vertex 0.008616610430181026 0.1023595854640007 0.036741625517606735
		endloop
	endfacet
	facet normal 0 0 1
		outer loop
			vertex 0.0555555522441864 -0.082551009953022 0.036741625517606735
			vertex 0.0555555522441864 0.028910299763083458 0.036741625517606735
			vertex 0.037022992968559265 0.06821385771036148 0.036741625517606735
		endloop
	endfacet
	facet normal 0 0 1
		outer loop
			vertex 0.0555555522441864 -0.082551009953022 0.036741625517606735
			vertex 0.037022992968559265 0.06821385771036148 0.036741625517606735
			vertex 0.02239041030406952 0.041253723204135895 0.036741625517606735
		endloop
	endfacet
	facet normal 0 0 1
		outer loop
			vertex 0.0555555522441864 -0.082551009953022 0.036741625517606735
			vertex 0.02239041030406952 0.041253723204135895 0.036741625517606735
			vertex 0.050298262387514114 -0.08255619555711746 0.036741625517606735
		endloop
	endfacet
	facet normal 0 0 1
		outer loop
			vertex 0.037022992968559265 0.06821385771036148 0.036741625517606735
			vertex 0.04744624346494675 0.08741840720176697 0.036741625517606735
			vertex 0.04169439524412155 0.1023595854640007 0.036741625517606735
		endloop
	endfacet
	facet normal 0 0 1
		outer loop
			vertex 0.037022992968559265 0.06821385771036148 0.036741625517606735
			vertex 0.04169439524412155 0.1023595854640007 0.036741625517606735
			vertex 0.020922474563121796 0.1023595854640007 0.036741625517606735
		endloop
	endfacet
	facet normal 0 0 1
		outer loop
			vertex 0.0555555522441864 0.028910299763083458 0.036741625517606735
			vertex 0.0555555522441864 0.06635343283414841 0.036741625517606735
			vertex 0.04744624346494675 0.08741840720176697 0.036741625517606735
		endloop
	endfacet
	facet normal 0 0 1
		outer loop
			vertex 0.0555555522441864 0.028910299763083458 0.036741625517606735
			vertex 0.04744624346494675 0.08741840720176697 0.036741625517606735
			vertex 0.037022992968559265 0.06821385771036148 0.036741625517606735
		endloop
	endfacet
	facet normal 0 0 1
		outer loop
			vertex 0.04744624346494675 0.08741840720176697 0.036741625517606735
			vertex 0.0555555522441864 0.1023595854640007 0.036741625517606735
			vertex 0.04169439524412155 0.1023595854640007 0.036741625517606735
		endloop
	endfacet
	facet normal 0 0 1
		outer loop
			vertex 0.0555555522441864 0.06635343283414841 0.036741625517606735
			vertex 0.0555555522441864 0.1023595854640007 0.036741625517606735
			vertex 0.04744624346494675 0.08741840720176697 0.036741625517606735
		endloop
	endfacet
	facet normal 0 0 -1
		outer loop
			vertex 0.0555555522441864 0.028651421889662743 -0.036741629242897034
			vertex 0.0555555522441864 -0.0051622032187879086 -0.036741629242897034
			vertex 0.04504679888486862 -0.003908061888068914 -0.036741629242897034
		endloop
	endfacet
	facet normal 0 0 -1
		outer loop
			vertex 0.0555555522441864 0.028651421889662743 -0.036741629242897034
			vertex 0.04504679888486862 -0.003908061888068914 -0.036741629242897034
			vertex 0.03212948888540268 0.004980465862900019 -0.036741629242897034
		endloop
	endfacet
	facet normal 0 0 -1
		outer loop
			vertex 0.0555555522441864 0.028651421889662743 -0.036741629242897034
			vertex 0.03212948888540268 0.004980465862900019 -0.036741629242897034
			vertex 0.01129589881747961 0.05536862462759018 -0.036741629242897034
		endloop
	endfacet
	facet normal 0 0 -1
		outer loop
			vertex 0.02245200425386429 0.04863428324460983 -0.036741629242897034
			vertex 0.01129589881747961 0.05536862462759018 -0.036741629242897034
			vertex 0.002100861631333828 0.07760774344205856 -0.036741629242897034
		endloop
	endfacet
	facet normal 0 0 -1
		outer loop
			vertex 0.02245200425386429 0.04863428324460983 -0.036741629242897034
			vertex 0.002100861631333828 0.07760774344205856 -0.036741629242897034
			vertex -0.0002807535929605365 0.08593234419822693 -0.036741629242897034
		endloop
	endfacet
	facet normal 0 0 -1
		outer loop
			vertex 0.02245200425386429 0.04863428324460983 -0.036741629242897034
			vertex -0.0002807535929605365 0.08593234419822693 -0.036741629242897034
			vertex 0.013981177471578121 0.09718251973390579 -0.036741629242897034
		endloop
	endfacet
	facet normal 0 0 -1
		outer loop
			vertex 0.02245200425386429 0.04863428324460983 -0.036741629242897034
			vertex 0.013981177471578121 0.09718251973390579 -0.036741629242897034
			vertex 0.022260569036006927 0.06045196205377579 -0.036741629242897034
		endloop
	endfacet
	facet normal 0 0 -1
		outer loop
			vertex 0.02531377226114273 0.04690677672624588 -0.036741629242897034
			vertex 0.02245200425386429 0.04863428324460983 -0.036741629242897034
			vertex 0.022260569036006927 0.06045196205377579 -0.036741629242897034
		endloop
	endfacet
	facet normal 0 0 -1
		outer loop
			vertex 0.022260569036006927 0.06045196205377579 -0.036741629242897034
			vertex 0.013981177471578121 0.09718251973390579 -0.036741629242897034
			vertex 0.02054419368505478 0.1023595854640007 -0.036741629242897034
		endloop
	endfacet
	facet normal 0 0 -1
		outer loop
			vertex 0.022260569036006927 0.06045196205377579 -0.036741629242897034
			vertex 0.02054419368505478 0.1023595854640007 -0.036741629242897034
			vertex 0.021581701934337616 0.1023595854640007 -0.036741629242897034
		endloop
	endfacet
	facet normal 0 0 -1
		outer loop
			vertex 0.0555555522441864 0.08311834931373596 -0.036741629242897034
			vertex 0.0555555522441864 0.028651421889662743 -0.036741629242897034
			vertex 0.02531377226114273 0.04690677672624588 -0.036741629242897034
		endloop
	endfacet
	facet normal 0 0 -1
		outer loop
			vertex 0.0555555522441864 0.08311834931373596 -0.036741629242897034
			vertex 0.02531377226114273 0.04690677672624588 -0.036741629242897034
			vertex 0.022260569036006927 0.06045196205377579 -0.036741629242897034
		endloop
	endfacet
	facet normal 0 0 -1
		outer loop
			vertex 0.0555555522441864 0.08311834931373596 -0.036741629242897034
			vertex 0.022260569036006927 0.06045196205377579 -0.036741629242897034
			vertex 0.021581701934337616 0.1023595854640007 -0.036741629242897034
		endloop
	endfacet
	facet normal 0 0 -1
		outer loop
			vertex 0.0555555522441864 0.08311834931373596 -0.036741629242897034
			vertex 0.021581701934337616 0.1023595854640007 -0.036741629242897034
			vertex 0.04814832657575607 0.1023595854640007 -0.036741629242897034
		endloop
	endfacet
	facet normal 0 0 -1
		outer loop
			vertex 0.0555555522441864 0.1023595854640007 -0.036741629242897034
			vertex 0.0555555522441864 0.08311834931373596 -0.036741629242897034
			vertex 0.04814832657575607 0.1023595854640007 -0.036741629242897034
		endloop
	endfacet
endsolid exported
