solid exported
	facet normal -0.4651200705310304 0.4055806376158725 -0.7868720775197908
		outer loop
			vertex 0.0555555522441864 0.08854963630437851 0.0030442809220403433
			vertex 0.0555555522441864 0.08459842950105667 0.0010076945181936026
			vertex 0.04032612591981888 0.08499658852815628 0.01021503284573555
		endloop
	endfacet
	facet normal -0.1454993024591049 -0.26832491536772446 -0.9522771092370212
		outer loop
			vertex 0.0555555522441864 0.022885045036673546 0.018066171556711197
			vertex 0.04697020351886749 0.012961111031472683 0.02217422053217888
			vertex 0.0555555522441864 0.07903767377138138 0.0022439395543187857
		endloop
	endfacet
	facet normal -0.5118659376129437 -0.18643255074971224 -0.8385917754978152
		outer loop
			vertex 0.0555555522441864 0.07903767377138138 0.0022439395543187857
			vertex 0.04697020351886749 0.012961111031472683 0.02217422053217888
			vertex 0.01666920632123947 0.06616968661546707 0.02884044125676155
		endloop
	endfacet
	facet normal -0.5118660725261656 -0.18643215478781322 -0.8385917811771179
		outer loop
			vertex 0.0555555522441864 0.07903767377138138 0.0022439395543187857
			vertex 0.01666920632123947 0.06616968661546707 0.02884044125676155
			vertex 0.04032612591981888 0.08499658852815628 0.01021503284573555
		endloop
	endfacet
	facet normal -0.5118661161199599 -0.18643236401903168 -0.8385917080525797
		outer loop
			vertex 0.0555555522441864 0.07903767377138138 0.0022439395543187857
			vertex 0.04032612591981888 0.08499658852815628 0.01021503284573555
			vertex 0.0555555522441864 0.08459842950105667 0.0010076945181936026
		endloop
	endfacet
	facet normal -0.6061543719956471 -0.25062181301385583 -0.7548281818746639
		outer loop
			vertex 0.04697020351886749 0.012961111031472683 0.02217422053217888
			vertex 0.03212948888540268 0.004980465862900019 0.036741625517606735
			vertex 0.01129589881747961 0.05536862462759018 0.036741625517606735
		endloop
	endfacet
	facet normal -0.6061544060998323 -0.250621856015346 -0.7548281402101957
		outer loop
			vertex 0.04697020351886749 0.012961111031472683 0.02217422053217888
			vertex 0.01129589881747961 0.05536862462759018 0.036741625517606735
			vertex 0.01666920632123947 0.06616968661546707 0.02884044125676155
		endloop
	endfacet
	facet normal -0.3951032548297899 -0.5741863408007065 -0.7170798170781278
		outer loop
			vertex 0.04504679888486862 -0.003908061888068914 0.036741625517606735
			vertex 0.03212948888540268 0.004980465862900019 0.036741625517606735
			vertex 0.04697020351886749 0.012961111031472683 0.02217422053217888
		endloop
	endfacet
	facet normal 0.05001525847818638 -0.41863277216363937 -0.9067773023129476
		outer loop
			vertex 0.0555555522441864 0.012593544088304043 0.0228174589574337
			vertex 0.04697020351886749 0.012961111031472683 0.02217422053217888
			vertex 0.0555555522441864 0.022885045036673546 0.018066171556711197
		endloop
	endfacet
	facet normal 0.041142629307305376 -0.5258169529002138 -0.8496021516547707
		outer loop
			vertex 0.0555555522441864 0.007431811187416315 0.02601204439997673
			vertex 0.04697020351886749 0.012961111031472683 0.02217422053217888
			vertex 0.0555555522441864 0.012593544088304043 0.0228174589574337
		endloop
	endfacet
	facet normal -0.0771645090287197 -0.6465800732448376 -0.7589333616524295
		outer loop
			vertex 0.0555555522441864 -0.0051622032187879086 0.036741625517606735
			vertex 0.04504679888486862 -0.003908061888068914 0.036741625517606735
			vertex 0.04697020351886749 0.012961111031472683 0.02217422053217888
		endloop
	endfacet
	facet normal -0.07716423406067396 -0.6465800092695351 -0.7589334441140656
		outer loop
			vertex 0.0555555522441864 -0.0051622032187879086 0.036741625517606735
			vertex 0.04697020351886749 0.012961111031472683 0.02217422053217888
			vertex 0.0555555522441864 0.007431811187416315 0.02601204439997673
		endloop
	endfacet
	facet normal 1 0 0
		outer loop
			vertex 0.0555555522441864 0.028651421889662743 0.036741625517606735
			vertex 0.0555555522441864 -0.0051622032187879086 0.036741625517606735
			vertex 0.0555555522441864 0.007431811187416315 0.02601204439997673
		endloop
	endfacet
	facet normal 1 0 0
		outer loop
			vertex 0.0555555522441864 0.028651421889662743 0.036741625517606735
			vertex 0.0555555522441864 0.007431811187416315 0.02601204439997673
			vertex 0.0555555522441864 0.012593544088304043 0.0228174589574337
		endloop
	endfacet
	facet normal 1 0 0
		outer loop
			vertex 0.0555555522441864 0.028651421889662743 0.036741625517606735
			vertex 0.0555555522441864 0.012593544088304043 0.0228174589574337
			vertex 0.0555555522441864 0.022885045036673546 0.018066171556711197
		endloop
	endfacet
	facet normal 1 0 0
		outer loop
			vertex 0.0555555522441864 0.028651421889662743 0.036741625517606735
			vertex 0.0555555522441864 0.022885045036673546 0.018066171556711197
			vertex 0.0555555522441864 0.07903767377138138 0.0022439395543187857
		endloop
	endfacet
	facet normal 1 0 0
		outer loop
			vertex 0.0555555522441864 0.028651421889662743 0.036741625517606735
			vertex 0.0555555522441864 0.07903767377138138 0.0022439395543187857
			vertex 0.0555555522441864 0.08459842950105667 0.0010076945181936026
		endloop
	endfacet
	facet normal 1 0 0
		outer loop
			vertex 0.0555555522441864 0.028651421889662743 0.036741625517606735
			vertex 0.0555555522441864 0.08459842950105667 0.0010076945181936026
			vertex 0.0555555522441864 0.08854963630437851 0.0030442809220403433
		endloop
	endfacet
	facet normal -0.46511951656476036 0.4055813529481157 -0.7868720362621485
		outer loop
			vertex 0.005428164266049862 0.08590894937515259 0.031313467770814896
			vertex 0.015809915959835052 0.09129656106233597 0.02795378491282463
			vertex 0.01731289178133011 0.08559823781251907 0.0241282619535923
		endloop
	endfacet
	facet normal -0.5181468428702183 0.6568586001958306 -0.5477779007703754
		outer loop
			vertex 0.005428164266049862 0.08590894937515259 0.031313467770814896
			vertex -0.0002807535929605365 0.08593234419822693 0.036741625517606735
			vertex 0.013981177471578121 0.09718251973390579 0.036741625517606735
		endloop
	endfacet
	facet normal -0.5181458826724008 0.6568584156097779 -0.5477790303692276
		outer loop
			vertex 0.005428164266049862 0.08590894937515259 0.031313467770814896
			vertex 0.013981177471578121 0.09718251973390579 0.036741625517606735
			vertex 0.015809915959835052 0.09129656106233597 0.02795378491282463
		endloop
	endfacet
	facet normal -0.6764514982364336 -0.1935284626716625 -0.7106054493666843
		outer loop
			vertex -0.0002807535929605365 0.08593234419822693 0.036741625517606735
			vertex 0.005428164266049862 0.08590894937515259 0.031313467770814896
			vertex 0.002100861631333828 0.07760774344205856 0.036741625517606735
		endloop
	endfacet
	facet normal -0.5118655683184403 -0.18643260396325095 -0.838591989080221
		outer loop
			vertex 0.01666920632123947 0.06616968661546707 0.02884044125676155
			vertex 0.005428164266049862 0.08590894937515259 0.031313467770814896
			vertex 0.01731289178133011 0.08559823781251907 0.0241282619535923
		endloop
	endfacet
	facet normal -0.5118652287019567 -0.18643266234477346 -0.8385921833984225
		outer loop
			vertex 0.01666920632123947 0.06616968661546707 0.02884044125676155
			vertex 0.01731289178133011 0.08559823781251907 0.0241282619535923
			vertex 0.020859815180301666 0.06950470060110092 0.025541123002767563
		endloop
	endfacet
	facet normal -0.606154403128658 -0.2506221973861908 -0.7548280292523972
		outer loop
			vertex 0.002100861631333828 0.07760774344205856 0.036741625517606735
			vertex 0.005428164266049862 0.08590894937515259 0.031313467770814896
			vertex 0.01666920632123947 0.06616968661546707 0.02884044125676155
		endloop
	endfacet
	facet normal -0.6061542987436362 -0.2506219497268822 -0.754828195306526
		outer loop
			vertex 0.002100861631333828 0.07760774344205856 0.036741625517606735
			vertex 0.01666920632123947 0.06616968661546707 0.02884044125676155
			vertex 0.01129589881747961 0.05536862462759018 0.036741625517606735
		endloop
	endfacet
	facet normal -0.4651201038334883 0.4055801577459261 -0.7868723051758238
		outer loop
			vertex 0.015809915959835052 0.09129656106233597 0.02795378491282463
			vertex 0.037127986550331116 0.1023595854640007 0.02105492725968361
			vertex 0.050204962491989136 0.1023595854640007 0.013325128704309464
		endloop
	endfacet
	facet normal -0.4651201217806121 0.40558037701846583 -0.7868721815468811
		outer loop
			vertex 0.015809915959835052 0.09129656106233597 0.02795378491282463
			vertex 0.050204962491989136 0.1023595854640007 0.013325128704309464
			vertex 0.0555555522441864 0.09056881815195084 0.004085037391632795
		endloop
	endfacet
	facet normal -0.4651199429661878 0.4055811160495492 -0.7868719063221995
		outer loop
			vertex 0.015809915959835052 0.09129656106233597 0.02795378491282463
			vertex 0.0555555522441864 0.09056881815195084 0.004085037391632795
			vertex 0.0555555522441864 0.08854963630437851 0.0030442809220403433
		endloop
	endfacet
	facet normal -0.46512007028505864 0.4055806711020885 -0.786872060405249
		outer loop
			vertex 0.015809915959835052 0.09129656106233597 0.02795378491282463
			vertex 0.0555555522441864 0.08854963630437851 0.0030442809220403433
			vertex 0.04032612591981888 0.08499658852815628 0.01021503284573555
		endloop
	endfacet
	facet normal -0.4651198393365406 0.40558119454265384 -0.7868719271195949
		outer loop
			vertex 0.015809915959835052 0.09129656106233597 0.02795378491282463
			vertex 0.04032612591981888 0.08499658852815628 0.01021503284573555
			vertex 0.01731289178133011 0.08559823781251907 0.0241282619535923
		endloop
	endfacet
	facet normal -0.5181462094167576 0.6568589526660906 -0.5477780772990574
		outer loop
			vertex 0.013981177471578121 0.09718251973390579 0.036741625517606735
			vertex 0.02054419368505478 0.1023595854640007 0.036741625517606735
			vertex 0.037127986550331116 0.1023595854640007 0.02105492725968361
		endloop
	endfacet
	facet normal -0.518146550086251 0.6568580035003373 -0.5477788932327233
		outer loop
			vertex 0.013981177471578121 0.09718251973390579 0.036741625517606735
			vertex 0.037127986550331116 0.1023595854640007 0.02105492725968361
			vertex 0.015809915959835052 0.09129656106233597 0.02795378491282463
		endloop
	endfacet
	facet normal -0.5118657895363267 -0.1864327541055427 -0.8385918206725935
		outer loop
			vertex 0.01731289178133011 0.08559823781251907 0.0241282619535923
			vertex 0.04032612591981888 0.08499658852815628 0.01021503284573555
			vertex 0.020859815180301666 0.06950470060110092 0.025541123002767563
		endloop
	endfacet
	facet normal 1 0 0
		outer loop
			vertex 0.0555555522441864 0.06311006098985672 0.01735599711537361
			vertex 0.0555555522441864 0.08854963630437851 0.0030442809220403433
			vertex 0.0555555522441864 0.09056881815195084 0.004085037391632795
		endloop
	endfacet
	facet normal 1 0 0
		outer loop
			vertex 0.0555555522441864 0.06311006098985672 0.01735599711537361
			vertex 0.0555555522441864 0.09056881815195084 0.004085037391632795
			vertex 0.0555555522441864 0.08759371936321259 0.01712537184357643
		endloop
	endfacet
	facet normal 1 0 0
		outer loop
			vertex 0.0555555522441864 0.08311834931373596 0.036741625517606735
			vertex 0.0555555522441864 0.028651421889662743 0.036741625517606735
			vertex 0.0555555522441864 0.06311006098985672 0.01735599711537361
		endloop
	endfacet
	facet normal 1 0 0
		outer loop
			vertex 0.0555555522441864 0.08311834931373596 0.036741625517606735
			vertex 0.0555555522441864 0.06311006098985672 0.01735599711537361
			vertex 0.0555555522441864 0.08759371936321259 0.01712537184357643
		endloop
	endfacet
	facet normal -0.4651192685394259 0.405580934340421 -0.7868723986345567
		outer loop
			vertex 0.0555555522441864 0.1023595854640007 0.01016240194439888
			vertex 0.0555555522441864 0.09056881815195084 0.004085037391632795
			vertex 0.050204962491989136 0.1023595854640007 0.013325128704309464
		endloop
	endfacet
	facet normal 1 0 0
		outer loop
			vertex 0.0555555522441864 0.08759371936321259 0.01712537184357643
			vertex 0.0555555522441864 0.09056881815195084 0.004085037391632795
			vertex 0.0555555522441864 0.1023595854640007 0.01016240194439888
		endloop
	endfacet
	facet normal 1 0 0
		outer loop
			vertex 0.0555555522441864 0.08759371936321259 0.01712537184357643
			vertex 0.0555555522441864 0.1023595854640007 0.01016240194439888
			vertex 0.0555555522441864 0.1023595854640007 0.016986284404993057
		endloop
	endfacet
	facet normal 1 0 0
		outer loop
			vertex 0.0555555522441864 0.1023595854640007 0.036741625517606735
			vertex 0.0555555522441864 0.08311834931373596 0.036741625517606735
			vertex 0.0555555522441864 0.08759371936321259 0.01712537184357643
		endloop
	endfacet
	facet normal 1 0 0
		outer loop
			vertex 0.0555555522441864 0.1023595854640007 0.036741625517606735
			vertex 0.0555555522441864 0.08759371936321259 0.01712537184357643
			vertex 0.0555555522441864 0.1023595854640007 0.016986284404993057
		endloop
	endfacet
	facet normal 0 1 0
		outer loop
			vertex 0.02054419368505478 0.1023595854640007 0.036741625517606735
			vertex 0.021581701934337616 0.1023595854640007 0.036741625517606735
			vertex 0.04957813397049904 0.1023595854640007 0.020462069660425186
		endloop
	endfacet
	facet normal 0 1 0
		outer loop
			vertex 0.02054419368505478 0.1023595854640007 0.036741625517606735
			vertex 0.04957813397049904 0.1023595854640007 0.020462069660425186
			vertex 0.050204962491989136 0.1023595854640007 0.013325128704309464
		endloop
	endfacet
	facet normal 0 1 0
		outer loop
			vertex 0.02054419368505478 0.1023595854640007 0.036741625517606735
			vertex 0.050204962491989136 0.1023595854640007 0.013325128704309464
			vertex 0.037127986550331116 0.1023595854640007 0.02105492725968361
		endloop
	endfacet
	facet normal 0 1 0
		outer loop
			vertex 0.021581701934337616 0.1023595854640007 0.036741625517606735
			vertex 0.04814832657575607 0.1023595854640007 0.036741625517606735
			vertex 0.04957813397049904 0.1023595854640007 0.020462069660425186
		endloop
	endfacet
	facet normal 0 1 0
		outer loop
			vertex 0.0555555522441864 0.1023595854640007 0.016986284404993057
			vertex 0.0555555522441864 0.1023595854640007 0.01016240194439888
			vertex 0.050204962491989136 0.1023595854640007 0.013325128704309464
		endloop
	endfacet
	facet normal 0 1 0
		outer loop
			vertex 0.0555555522441864 0.1023595854640007 0.016986284404993057
			vertex 0.050204962491989136 0.1023595854640007 0.013325128704309464
			vertex 0.04957813397049904 0.1023595854640007 0.020462069660425186
		endloop
	endfacet
	facet normal 0 1 0
		outer loop
			vertex 0.04814832657575607 0.1023595854640007 0.036741625517606735
			vertex 0.0555555522441864 0.1023595854640007 0.036741625517606735
			vertex 0.0555555522441864 0.1023595854640007 0.016986284404993057
		endloop
	endfacet
	facet normal 0 1 0
		outer loop
			vertex 0.04814832657575607 0.1023595854640007 0.036741625517606735
			vertex 0.0555555522441864 0.1023595854640007 0.016986284404993057
			vertex 0.04957813397049904 0.1023595854640007 0.020462069660425186
		endloop
	endfacet
	facet normal 0 0 1
		outer loop
			vertex 0.01940564066171646 0.03575437515974045 0.036741625517606735
			vertex 0.02542286366224289 0.04684092849493027 0.036741625517606735
			vertex 0.01129589881747961 0.05536862462759018 0.036741625517606735
		endloop
	endfacet
	facet normal 0 0 1
		outer loop
			vertex 0.0555555522441864 -0.0051622032187879086 0.036741625517606735
			vertex 0.0555555522441864 0.028651421889662743 0.036741625517606735
			vertex 0.02542286366224289 0.04684092849493027 0.036741625517606735
		endloop
	endfacet
	facet normal 0 0 1
		outer loop
			vertex 0.0555555522441864 -0.0051622032187879086 0.036741625517606735
			vertex 0.02542286366224289 0.04684092849493027 0.036741625517606735
			vertex 0.01940564066171646 0.03575437515974045 0.036741625517606735
		endloop
	endfacet
	facet normal 0 0 1
		outer loop
			vertex 0.0555555522441864 -0.0051622032187879086 0.036741625517606735
			vertex 0.01940564066171646 0.03575437515974045 0.036741625517606735
			vertex 0.03212948888540268 0.004980465862900019 0.036741625517606735
		endloop
	endfacet
	facet normal 0 0 1
		outer loop
			vertex 0.0555555522441864 -0.0051622032187879086 0.036741625517606735
			vertex 0.03212948888540268 0.004980465862900019 0.036741625517606735
			vertex 0.04504679888486862 -0.003908061888068914 0.036741625517606735
		endloop
	endfacet
	facet normal 0 0 1
		outer loop
			vertex 0.01129589881747961 0.05536862462759018 0.036741625517606735
			vertex 0.02245200425386429 0.04863428324460983 0.036741625517606735
			vertex 0.022260569036006927 0.06045196205377579 0.036741625517606735
		endloop
	endfacet
	facet normal 0 0 1
		outer loop
			vertex 0.01129589881747961 0.05536862462759018 0.036741625517606735
			vertex 0.022260569036006927 0.06045196205377579 0.036741625517606735
			vertex 0.013981177471578121 0.09718251973390579 0.036741625517606735
		endloop
	endfacet
	facet normal 0 0 1
		outer loop
			vertex 0.01129589881747961 0.05536862462759018 0.036741625517606735
			vertex 0.013981177471578121 0.09718251973390579 0.036741625517606735
			vertex -0.0002807535929605365 0.08593234419822693 0.036741625517606735
		endloop
	endfacet
	facet normal 0 0 1
		outer loop
			vertex 0.01129589881747961 0.05536862462759018 0.036741625517606735
			vertex -0.0002807535929605365 0.08593234419822693 0.036741625517606735
			vertex 0.002100861631333828 0.07760774344205856 0.036741625517606735
		endloop
	endfacet
	facet normal 0 0 1
		outer loop
			vertex 0.02245200425386429 0.04863428324460983 0.036741625517606735
			vertex 0.02531377226114273 0.04690677672624588 0.036741625517606735
			vertex 0.022260569036006927 0.06045196205377579 0.036741625517606735
		endloop
	endfacet
	facet normal 0 0 1
		outer loop
			vertex 0.021581701934337616 0.1023595854640007 0.036741625517606735
			vertex 0.02054419368505478 0.1023595854640007 0.036741625517606735
			vertex 0.013981177471578121 0.09718251973390579 0.036741625517606735
		endloop
	endfacet
	facet normal 0 0 1
		outer loop
			vertex 0.021581701934337616 0.1023595854640007 0.036741625517606735
			vertex 0.013981177471578121 0.09718251973390579 0.036741625517606735
			vertex 0.022260569036006927 0.06045196205377579 0.036741625517606735
		endloop
	endfacet
	facet normal 0 0 1
		outer loop
			vertex 0.02531377226114273 0.04690677672624588 0.036741625517606735
			vertex 0.02542286366224289 0.04684092849493027 0.036741625517606735
			vertex 0.05122203752398491 0.09437520802021027 0.036741625517606735
		endloop
	endfacet
	facet normal 0 0 1
		outer loop
			vertex 0.02531377226114273 0.04690677672624588 0.036741625517606735
			vertex 0.05122203752398491 0.09437520802021027 0.036741625517606735
			vertex 0.04814832657575607 0.1023595854640007 0.036741625517606735
		endloop
	endfacet
	facet normal 0 0 1
		outer loop
			vertex 0.02531377226114273 0.04690677672624588 0.036741625517606735
			vertex 0.04814832657575607 0.1023595854640007 0.036741625517606735
			vertex 0.021581701934337616 0.1023595854640007 0.036741625517606735
		endloop
	endfacet
	facet normal 0 0 1
		outer loop
			vertex 0.02531377226114273 0.04690677672624588 0.036741625517606735
			vertex 0.021581701934337616 0.1023595854640007 0.036741625517606735
			vertex 0.022260569036006927 0.06045196205377579 0.036741625517606735
		endloop
	endfacet
	facet normal 0 0 1
		outer loop
			vertex 0.0555555522441864 0.028651421889662743 0.036741625517606735
			vertex 0.0555555522441864 0.08311834931373596 0.036741625517606735
			vertex 0.05122203752398491 0.09437520802021027 0.036741625517606735
		endloop
	endfacet
	facet normal 0 0 1
		outer loop
			vertex 0.0555555522441864 0.028651421889662743 0.036741625517606735
			vertex 0.05122203752398491 0.09437520802021027 0.036741625517606735
			vertex 0.02542286366224289 0.04684092849493027 0.036741625517606735
		endloop
	endfacet
	facet normal 0 0 1
		outer loop
			vertex 0.05122203752398491 0.09437520802021027 0.036741625517606735
			vertex 0.0555555522441864 0.1023595854640007 0.036741625517606735
			vertex 0.04814832657575607 0.1023595854640007 0.036741625517606735
		endloop
	endfacet
	facet normal 0 0 1
		outer loop
			vertex 0.0555555522441864 0.08311834931373596 0.036741625517606735
			vertex 0.0555555522441864 0.1023595854640007 0.036741625517606735
			vertex 0.05122203752398491 0.09437520802021027 0.036741625517606735
		endloop
	endfacet
endsolid exported
