solid exported
	facet normal -0.6534139826255447 0.7569508265517565 0.008695601878949336
		outer loop
			vertex -0.03893304616212845 0.07238955050706863 0.036741629242897034
			vertex -0.039609394967556 0.0718151405453682 0.03592102229595184
			vertex -0.04025096446275711 0.07125189900398254 0.036741629242897034
		endloop
	endfacet
	facet normal -0.9859219397342597 0.1635894983630531 0.03458908463605087
		outer loop
			vertex -0.04722083359956741 0.05365293473005295 0.036741629242897034
			vertex -0.04758014529943466 0.051664888858795166 0.03590235114097595
			vertex -0.0478622242808342 0.04978739842772484 0.036741629242897034
		endloop
	endfacet
	facet normal -0.8177893805567047 0.488725889700639 -0.30392027537661936
		outer loop
			vertex -0.04595669358968735 0.059507764875888824 0.03320919722318649
			vertex -0.0454997643828392 0.062469035387039185 0.036741629242897034
			vertex -0.04025096446275711 0.07125189900398254 0.036741629242897034
		endloop
	endfacet
	facet normal -0.8177897875441642 0.48872580095839513 -0.30391932295602125
		outer loop
			vertex -0.04595669358968735 0.059507764875888824 0.03320919722318649
			vertex -0.04025096446275711 0.07125189900398254 0.036741629242897034
			vertex -0.039609394967556 0.0718151405453682 0.03592102229595184
		endloop
	endfacet
	facet normal -0.9809168307314053 0.19149347622348206 -0.03365144501655794
		outer loop
			vertex -0.04758014529943466 0.051664888858795166 0.03590235114097595
			vertex -0.04722083359956741 0.05365293473005295 0.036741629242897034
			vertex -0.0454997643828392 0.062469035387039185 0.036741629242897034
		endloop
	endfacet
	facet normal -0.9809170758593715 0.19149312402462854 -0.0336463034936781
		outer loop
			vertex -0.04758014529943466 0.051664888858795166 0.03590235114097595
			vertex -0.0454997643828392 0.062469035387039185 0.036741629242897034
			vertex -0.04595669358968735 0.059507764875888824 0.03320919722318649
		endloop
	endfacet
	facet normal -0.6534154325118471 0.7569496373360793 0.008690172157905842
		outer loop
			vertex -0.016902334988117218 0.09140694886445999 0.036741629242897034
			vertex -0.02025667577981949 0.08880501240491867 0.011167546734213829
			vertex -0.039609394967556 0.0718151405453682 0.03592102229595184
		endloop
	endfacet
	facet normal -0.6534155480222359 0.7569494493704635 0.008697856089497729
		outer loop
			vertex -0.016902334988117218 0.09140694886445999 0.036741629242897034
			vertex -0.039609394967556 0.0718151405453682 0.03592102229595184
			vertex -0.03893304616212845 0.07238955050706863 0.036741629242897034
		endloop
	endfacet
	facet normal -0.9859216031433901 0.16359071089062774 0.034592943868177704
		outer loop
			vertex -0.055555559694767 0.007538226433098316 0.017273684963583946
			vertex -0.055555559694767 0.0034215287305414677 0.036741629242897034
			vertex -0.0478622242808342 0.04978739842772484 0.036741629242897034
		endloop
	endfacet
	facet normal -0.985921582675156 0.16359094202856642 0.03459243416590131
		outer loop
			vertex -0.055555559694767 0.007538226433098316 0.017273684963583946
			vertex -0.0478622242808342 0.04978739842772484 0.036741629242897034
			vertex -0.04758014529943466 0.051664888858795166 0.03590235114097595
		endloop
	endfacet
	facet normal -0.8527024226066917 0.4736135267056015 -0.2204286864320557
		outer loop
			vertex -0.03893587738275528 0.03154083341360092 -0.036741625517606735
			vertex -0.02522318810224533 0.06055275723338127 -0.02745247073471546
			vertex -0.02641906589269638 0.05407632887363434 -0.036741625517606735
		endloop
	endfacet
	facet normal -0.8527024810272823 0.47361350019617904 -0.22042851739700478
		outer loop
			vertex -0.024169497191905975 0.06625916063785553 -0.01926775462925434
			vertex -0.02522318810224533 0.06055275723338127 -0.02745247073471546
			vertex -0.03893587738275528 0.03154083341360092 -0.036741625517606735
		endloop
	endfacet
	facet normal -0.8527041240672978 0.47361229900516605 -0.2204247423264091
		outer loop
			vertex -0.024169497191905975 0.06625916063785553 -0.01926775462925434
			vertex -0.03893587738275528 0.03154083341360092 -0.036741625517606735
			vertex -0.04186733812093735 0.026262953877449036 -0.036741625517606735
		endloop
	endfacet
	facet normal -0.852702095538173 0.47361360438350203 -0.22042978475622668
		outer loop
			vertex -0.024169497191905975 0.06625916063785553 -0.01926775462925434
			vertex -0.04186733812093735 0.026262953877449036 -0.036741625517606735
			vertex -0.04501647502183914 0.022175341844558716 -0.033342234790325165
		endloop
	endfacet
	facet normal -0.13026414436733205 0.9885618107077625 -0.07600525707105239
		outer loop
			vertex -0.055555559694767 0.010058022104203701 -0.036741625517606735
			vertex -0.055555559694767 0.010121998377144337 -0.03590951859951019
			vertex -0.05514741688966751 0.010169082321226597 -0.035996630787849426
		endloop
	endfacet
	facet normal -0.13026313388421373 0.9885619002707233 -0.07600582401237348
		outer loop
			vertex -0.055555559694767 0.010058022104203701 -0.036741625517606735
			vertex -0.05514741688966751 0.010169082321226597 -0.035996630787849426
			vertex -0.05525898188352585 0.010097102262079716 -0.036741625517606735
		endloop
	endfacet
	facet normal 0.030091602002333923 0.9944727502591388 -0.10059047907708644
		outer loop
			vertex -0.05525898188352585 0.010097102262079716 -0.036741625517606735
			vertex -0.05514741688966751 0.010169082321226597 -0.035996630787849426
			vertex -0.05258946865797043 0.010016325861215591 -0.036741625517606735
		endloop
	endfacet
	facet normal -0.8471077522826059 0.27389312425111156 -0.45540203393339895
		outer loop
			vertex -0.04581593722105026 0.014050566591322422 -0.036741625517606735
			vertex -0.04501647502183914 0.022175341844558716 -0.033342234790325165
			vertex -0.04186733812093735 0.026262953877449036 -0.036741625517606735
		endloop
	endfacet
	facet normal -0.8177897814818355 0.48872585840915284 -0.3039192468833269
		outer loop
			vertex -0.021478496491909027 0.08083261549472809 0.0016349760117009282
			vertex -0.05339536815881729 0.011299435049295425 -0.024297477677464485
			vertex -0.04595669358968735 0.059507764875888824 0.03320919722318649
		endloop
	endfacet
	facet normal -0.8177897970876584 0.48872580041463 -0.3039192981506863
		outer loop
			vertex -0.021478496491909027 0.08083261549472809 0.0016349760117009282
			vertex -0.04595669358968735 0.059507764875888824 0.03320919722318649
			vertex -0.039609394967556 0.0718151405453682 0.03592102229595184
		endloop
	endfacet
	facet normal -0.8177895209972351 0.4887264612771649 -0.3039189783389851
		outer loop
			vertex -0.021478496491909027 0.08083261549472809 0.0016349760117009282
			vertex -0.039609394967556 0.0718151405453682 0.03592102229595184
			vertex -0.02025667577981949 0.08880501240491867 0.011167546734213829
		endloop
	endfacet
	facet normal -0.852702443931155 0.4736134805797256 -0.22042870304702464
		outer loop
			vertex -0.05339536815881729 0.011299435049295425 -0.024297477677464485
			vertex -0.021478496491909027 0.08083261549472809 0.0016349760117009282
			vertex -0.024169497191905975 0.06625916063785553 -0.01926775462925434
		endloop
	endfacet
	facet normal -0.8527023878404568 0.47361347224799455 -0.22042893792871593
		outer loop
			vertex -0.05339536815881729 0.011299435049295425 -0.024297477677464485
			vertex -0.024169497191905975 0.06625916063785553 -0.01926775462925434
			vertex -0.04501647502183914 0.022175341844558716 -0.033342234790325165
		endloop
	endfacet
	facet normal -0.13026515095583133 0.9885617083516967 -0.07600486318144169
		outer loop
			vertex -0.055555559694767 0.010859636589884758 -0.02631537802517414
			vertex -0.05339536815881729 0.011299435049295425 -0.024297477677464485
			vertex -0.05514741688966751 0.010169082321226597 -0.035996630787849426
		endloop
	endfacet
	facet normal -0.130264057820972 0.9885618551342887 -0.07600482756685846
		outer loop
			vertex -0.055555559694767 0.010859636589884758 -0.02631537802517414
			vertex -0.05514741688966751 0.010169082321226597 -0.035996630787849426
			vertex -0.055555559694767 0.010121998377144337 -0.03590951859951019
		endloop
	endfacet
	facet normal 0.03009134223061189 0.9944726695742676 -0.10059135446244916
		outer loop
			vertex -0.05091922730207443 0.009965786710381508 -0.036741625517606735
			vertex -0.05258946865797043 0.010016325861215591 -0.036741625517606735
			vertex -0.05514741688966751 0.010169082321226597 -0.035996630787849426
		endloop
	endfacet
	facet normal 0.03009145055977122 0.9944727269029211 -0.10059075528833145
		outer loop
			vertex -0.05091922730207443 0.009965786710381508 -0.036741625517606735
			vertex -0.05514741688966751 0.010169082321226597 -0.035996630787849426
			vertex -0.05339536815881729 0.011299435049295425 -0.024297477677464485
		endloop
	endfacet
	facet normal -0.6910018179495454 0.16521280273554814 0.7037195587751476
		outer loop
			vertex -0.055555559694767 0.006994246505200863 -0.02540789730846882
			vertex -0.05339536815881729 0.011299435049295425 -0.024297477677464485
			vertex -0.055555559694767 0.010859636589884758 -0.02631537802517414
		endloop
	endfacet
	facet normal -0.8471083775535397 0.2738938994348517 -0.45540040462320724
		outer loop
			vertex -0.05339536815881729 0.011299435049295425 -0.024297477677464485
			vertex -0.04501647502183914 0.022175341844558716 -0.033342234790325165
			vertex -0.045440755784511566 0.017863525077700615 -0.03514629229903221
		endloop
	endfacet
	facet normal 0.030091119082707115 0.9944727302253299 -0.10059082160181769
		outer loop
			vertex -0.04959169775247574 0.009925617836415768 -0.036741625517606735
			vertex -0.05091922730207443 0.009965786710381508 -0.036741625517606735
			vertex -0.05339536815881729 0.011299435049295425 -0.024297477677464485
		endloop
	endfacet
	facet normal -0.8471083244216474 0.2738918491476205 -0.45540173656459254
		outer loop
			vertex -0.04581593722105026 0.014050566591322422 -0.036741625517606735
			vertex -0.04717329889535904 0.009852441027760506 -0.036741625517606735
			vertex -0.05339536815881729 0.011299435049295425 -0.024297477677464485
		endloop
	endfacet
	facet normal -0.8471083742405431 0.2738915257265383 -0.45540183840947873
		outer loop
			vertex -0.04581593722105026 0.014050566591322422 -0.036741625517606735
			vertex -0.05339536815881729 0.011299435049295425 -0.024297477677464485
			vertex -0.045440755784511566 0.017863525077700615 -0.03514629229903221
		endloop
	endfacet
	facet normal 0.030091124331569952 0.9944727302287508 -0.10059081999783122
		outer loop
			vertex -0.04717329889535904 0.009852441027760506 -0.036741625517606735
			vertex -0.04959169775247574 0.009925617836415768 -0.036741625517606735
			vertex -0.05339536815881729 0.011299435049295425 -0.024297477677464485
		endloop
	endfacet
	facet normal -0.6910020192214477 0.16521296449696826 0.7037193231637211
		outer loop
			vertex -0.055555559694767 0.00395742803812027 -0.024694940075278282
			vertex -0.05339536815881729 0.011299435049295425 -0.024297477677464485
			vertex -0.055555559694767 0.006994246505200863 -0.02540789730846882
		endloop
	endfacet
	facet normal -0.9809168404799425 0.1914943203875967 -0.03364635674393028
		outer loop
			vertex -0.05339536815881729 0.011299435049295425 -0.024297477677464485
			vertex -0.055555559694767 0.0006001565488986671 -0.022213531658053398
			vertex -0.055555559694767 0.007538226433098316 0.017273684963583946
		endloop
	endfacet
	facet normal -0.9809168412632492 0.19149431630307678 -0.0336463571541864
		outer loop
			vertex -0.05339536815881729 0.011299435049295425 -0.024297477677464485
			vertex -0.055555559694767 0.007538226433098316 0.017273684963583946
			vertex -0.04758014529943466 0.051664888858795166 0.03590235114097595
		endloop
	endfacet
	facet normal -0.9809170561848404 0.19149333467504667 -0.03364567818750727
		outer loop
			vertex -0.05339536815881729 0.011299435049295425 -0.024297477677464485
			vertex -0.04758014529943466 0.051664888858795166 0.03590235114097595
			vertex -0.04595669358968735 0.059507764875888824 0.03320919722318649
		endloop
	endfacet
	facet normal -0.6910013888172408 0.1652127426877114 0.7037199942493096
		outer loop
			vertex -0.055555559694767 0.00031443711486645043 -0.023839673027396202
			vertex -0.05339536815881729 0.011299435049295425 -0.024297477677464485
			vertex -0.055555559694767 0.00395742803812027 -0.024694940075278282
		endloop
	endfacet
	facet normal -0.9809226871541156 0.19099432103129624 -0.036219485917715254
		outer loop
			vertex -0.055555559694767 0.0002927465829998255 -0.023834580555558205
			vertex -0.055555559694767 0.0006001565488986671 -0.022213531658053398
			vertex -0.05339536815881729 0.011299435049295425 -0.024297477677464485
		endloop
	endfacet
	facet normal -0.6910156904497785 0.16521494824626168 0.7037054329960803
		outer loop
			vertex -0.055555559694767 0.0002927465829998255 -0.023834580555558205
			vertex -0.05339536815881729 0.011299435049295425 -0.024297477677464485
			vertex -0.055555559694767 0.00031443711486645043 -0.023839673027396202
		endloop
	endfacet
	facet normal -0.6136972113407496 -0.7307396767658334 0.2989903971580905
		outer loop
			vertex -0.055555559694767 -0.03401121124625206 -0.036741625517606735
			vertex -0.054853715002536774 -0.0346006415784359 -0.036741625517606735
			vertex -0.0523860827088356 -0.031427666544914246 -0.023921823129057884
		endloop
	endfacet
	facet normal -0.6137007337084517 -0.7307366147312923 0.29899065091865207
		outer loop
			vertex -0.055555559694767 -0.03401121124625206 -0.036741625517606735
			vertex -0.0523860827088356 -0.031427666544914246 -0.023921823129057884
			vertex -0.055555559694767 -0.02858402021229267 -0.02347750775516033
		endloop
	endfacet
	facet normal -0.015482435139408742 0.1374892624384242 -0.9903822478802273
		outer loop
			vertex -0.055555559694767 -0.0399576798081398 -0.025056449696421623
			vertex -0.055555559694767 -0.02858402021229267 -0.02347750775516033
			vertex -0.0523860827088356 -0.031427666544914246 -0.023921823129057884
		endloop
	endfacet
	facet normal -0.6137010025265598 -0.7307359038133999 0.29899183663757306
		outer loop
			vertex -0.054853715002536774 -0.0346006415784359 -0.036741625517606735
			vertex -0.049242787063121796 -0.03931292146444321 -0.036741625517606735
			vertex -0.042594440281391144 -0.04021269455552101 -0.025294488295912743
		endloop
	endfacet
	facet normal -0.6137002038872481 -0.7307371806221684 0.29899035537139734
		outer loop
			vertex -0.054853715002536774 -0.0346006415784359 -0.036741625517606735
			vertex -0.042594440281391144 -0.04021269455552101 -0.025294488295912743
			vertex -0.0523860827088356 -0.031427666544914246 -0.023921823129057884
		endloop
	endfacet
	facet normal -0.015483806557020809 0.13748906406051084 -0.990382253979881
		outer loop
			vertex -0.042594440281391144 -0.04021269455552101 -0.025294488295912743
			vertex -0.055555559694767 -0.04543193429708481 -0.025816408917307854
			vertex -0.055555559694767 -0.0399576798081398 -0.025056449696421623
		endloop
	endfacet
	facet normal -0.015483791218459712 0.13748975440889896 -0.9903821583823509
		outer loop
			vertex -0.042594440281391144 -0.04021269455552101 -0.025294488295912743
			vertex -0.055555559694767 -0.0399576798081398 -0.025056449696421623
			vertex -0.0523860827088356 -0.031427666544914246 -0.023921823129057884
		endloop
	endfacet
	facet normal -0.3680234258645506 0.8855903067089153 0.28335237192959806
		outer loop
			vertex -0.055555559694767 -0.04193631559610367 -0.036741625517606735
			vertex -0.055555559694767 -0.04543193429708481 -0.025816408917307854
			vertex -0.042594440281391144 -0.04021269455552101 -0.025294488295912743
		endloop
	endfacet
	facet normal -0.36802392287836205 0.8855899005410754 0.28335299583535345
		outer loop
			vertex -0.055555559694767 -0.04193631559610367 -0.036741625517606735
			vertex -0.042594440281391144 -0.04021269455552101 -0.025294488295912743
			vertex -0.049242787063121796 -0.03931292146444321 -0.036741625517606735
		endloop
	endfacet
	facet normal -0.3217746663061184 0.9295123643729426 -0.1801883142753947
		outer loop
			vertex 0.00627573486417532 0.1023595854640007 0.01728694699704647
			vertex -0.016173698008060455 0.09238949418067932 0.005945121869444847
			vertex -0.0031823674216866493 0.1023595854640007 0.03417693078517914
		endloop
	endfacet
	facet normal -0.5202630047070919 0.7826127082812471 0.3418241576744397
		outer loop
			vertex -0.00008870744204614311 0.1023595854640007 0.007600082084536552
			vertex -0.0032806480303406715 0.1023595854640007 0.0027418865356594324
			vertex -0.016173698008060455 0.09238949418067932 0.005945121869444847
		endloop
	endfacet
	facet normal -0.520263121449021 0.782613059655502 0.3418231755115137
		outer loop
			vertex -0.00008870744204614311 0.1023595854640007 0.007600082084536552
			vertex -0.016173698008060455 0.09238949418067932 0.005945121869444847
			vertex 0.0017458639340475202 0.10034780204296112 0.014998374506831169
		endloop
	endfacet
	facet normal -0.6169695280151358 0.6602508107895546 -0.42827265655481234
		outer loop
			vertex -0.016173698008060455 0.09238949418067932 0.005945121869444847
			vertex -0.0032806480303406715 0.1023595854640007 0.0027418865356594324
			vertex -0.0020582685247063637 0.1023595854640007 0.00098092679399997
		endloop
	endfacet
	facet normal -0.6169694886269907 0.6602504492607656 -0.42827327065123605
		outer loop
			vertex -0.016173698008060455 0.09238949418067932 0.005945121869444847
			vertex -0.0020582685247063637 0.1023595854640007 0.00098092679399997
			vertex -0.006100618280470371 0.09335079789161682 -0.007084133103489876
		endloop
	endfacet
	facet normal -0.5202649034634235 0.7826118282575723 0.3418232825533322
		outer loop
			vertex -0.00008870744204614311 0.1023595854640007 0.007600082084536552
			vertex 0.0017458639340475202 0.10034780204296112 0.014998374506831169
			vertex 0.00627573486417532 0.1023595854640007 0.01728694699704647
		endloop
	endfacet
	facet normal -0.6169699214135128 0.6602498924200986 -0.4282735056365876
		outer loop
			vertex -0.0020582685247063637 0.1023595854640007 0.00098092679399997
			vertex 0.012637234292924404 0.1023595854640007 -0.020189383998513222
			vertex 0.006498872302472591 0.09455320239067078 -0.023381220176815987
		endloop
	endfacet
	facet normal -0.6169692580998725 0.6602505307121572 -0.4282734771778515
		outer loop
			vertex -0.0020582685247063637 0.1023595854640007 0.00098092679399997
			vertex 0.006498872302472591 0.09455320239067078 -0.023381220176815987
			vertex -0.006100618280470371 0.09335079789161682 -0.007084133103489876
		endloop
	endfacet
	facet normal -0.7735093382151963 0.17450820924304059 0.6092866226995933
		outer loop
			vertex -0.004960828460752964 0.0962178036570549 -0.036741625517606735
			vertex -0.0022221440449357033 0.1023595854640007 -0.03502386808395386
			vertex -0.003575206734240055 0.1023595854640007 -0.036741625517606735
		endloop
	endfacet
	facet normal 0.6958960867491112 -0.4636813405354308 0.5483869536071583
		outer loop
			vertex -0.0027793506160378456 0.09949176758527756 -0.036741625517606735
			vertex -0.0011845537228509784 0.1023595854640007 -0.03634055703878403
			vertex -0.0022221440449357033 0.1023595854640007 -0.03502386808395386
		endloop
	endfacet
	facet normal 0.6958943534848236 -0.46368199151589806 0.5483886026640143
		outer loop
			vertex -0.0027793506160378456 0.09949176758527756 -0.036741625517606735
			vertex -0.0022221440449357033 0.1023595854640007 -0.03502386808395386
			vertex -0.004960828460752964 0.0962178036570549 -0.036741625517606735
		endloop
	endfacet
	facet normal -0.6169705678533135 0.6602497318217437 -0.42827282196291144
		outer loop
			vertex 0.012637234292924404 0.1023595854640007 -0.020189383998513222
			vertex 0.014402157627046108 0.1023595854640007 -0.02273193560540676
			vertex 0.008867538534104824 0.09477924555540085 -0.026445036754012108
		endloop
	endfacet
	facet normal -0.6169700063846252 0.6602499027031393 -0.4282733673744502
		outer loop
			vertex 0.012637234292924404 0.1023595854640007 -0.020189383998513222
			vertex 0.008867538534104824 0.09477924555540085 -0.026445036754012108
			vertex 0.006498872302472591 0.09455320239067078 -0.023381220176815987
		endloop
	endfacet
	facet normal -0.6769307698515463 0.14031888868047704 0.7225478131637164
		outer loop
			vertex -0.0005516119999811053 0.1023595854640007 -0.036741625517606735
			vertex -0.0034182677045464516 0.08853017538785934 -0.036741625517606735
			vertex 0.008867538534104824 0.09477924555540085 -0.026445036754012108
		endloop
	endfacet
	facet normal -0.6769309473705232 0.14031853538793856 0.7225477154614981
		outer loop
			vertex -0.0005516119999811053 0.1023595854640007 -0.036741625517606735
			vertex 0.008867538534104824 0.09477924555540085 -0.026445036754012108
			vertex 0.014402157627046108 0.1023595854640007 -0.02273193560540676
		endloop
	endfacet
	facet normal 0.6958908229079049 -0.46367955822449647 0.5483951402750529
		outer loop
			vertex -0.0008684926433488727 0.1023595854640007 -0.036741625517606735
			vertex -0.0011845537228509784 0.1023595854640007 -0.03634055703878403
			vertex -0.0027793506160378456 0.09949176758527756 -0.036741625517606735
		endloop
	endfacet
	facet normal -0.4555823607535468 0.8842574532809545 -0.10263268917506796
		outer loop
			vertex -0.0037601375952363014 0.1023595854640007 0.036741629242897034
			vertex -0.0031823674216866493 0.1023595854640007 0.03417693078517914
			vertex -0.016173698008060455 0.09238949418067932 0.005945121869444847
		endloop
	endfacet
	facet normal -0.45557937197686915 0.8842588026048749 -0.10263433073272553
		outer loop
			vertex -0.0037601375952363014 0.1023595854640007 0.036741629242897034
			vertex -0.016173698008060455 0.09238949418067932 0.005945121869444847
			vertex -0.004886508919298649 0.1017792671918869 0.036741629242897034
		endloop
	endfacet
	facet normal -0.6534159829930299 0.7569491539219846 0.008690888679771459
		outer loop
			vertex -0.004886508919298649 0.1017792671918869 0.036741629242897034
			vertex -0.016173698008060455 0.09238949418067932 0.005945121869444847
			vertex -0.02025667577981949 0.08880501240491867 0.011167546734213829
		endloop
	endfacet
	facet normal -0.653415261453442 0.7569497854279478 0.008690134654553872
		outer loop
			vertex -0.004886508919298649 0.1017792671918869 0.036741629242897034
			vertex -0.02025667577981949 0.08880501240491867 0.011167546734213829
			vertex -0.016902334988117218 0.09140694886445999 0.036741629242897034
		endloop
	endfacet
	facet normal -0.6169692684749434 0.6602503986662082 -0.4282736658009767
		outer loop
			vertex -0.020965494215488434 0.06022290885448456 -0.036741625517606735
			vertex -0.025205962359905243 0.05626041442155838 -0.036741625517606735
			vertex -0.016173698008060455 0.09238949418067932 0.005945121869444847
		endloop
	endfacet
	facet normal -0.6169696801643398 0.6602501604024373 -0.42827344004323703
		outer loop
			vertex -0.020965494215488434 0.06022290885448456 -0.036741625517606735
			vertex -0.016173698008060455 0.09238949418067932 0.005945121869444847
			vertex -0.006100618280470371 0.09335079789161682 -0.007084133103489876
		endloop
	endfacet
	facet normal -0.8177901846710883 0.4887257655029364 -0.3039183113752715
		outer loop
			vertex -0.016173698008060455 0.09238949418067932 0.005945121869444847
			vertex -0.021478496491909027 0.08083261549472809 0.0016349760117009282
			vertex -0.02025667577981949 0.08880501240491867 0.011167546734213829
		endloop
	endfacet
	facet normal -0.8527024089504334 0.4736135455098199 -0.22042869885689967
		outer loop
			vertex -0.02641906589269638 0.05407632887363434 -0.036741625517606735
			vertex -0.021478496491909027 0.08083261549472809 0.0016349760117009282
			vertex -0.016173698008060455 0.09238949418067932 0.005945121869444847
		endloop
	endfacet
	facet normal -0.8527014115638658 0.473614733528785 -0.22043000453987435
		outer loop
			vertex -0.02641906589269638 0.05407632887363434 -0.036741625517606735
			vertex -0.016173698008060455 0.09238949418067932 0.005945121869444847
			vertex -0.025205962359905243 0.05626041442155838 -0.036741625517606735
		endloop
	endfacet
	facet normal -0.6169695523028839 0.6602502055792765 -0.4282735545929754
		outer loop
			vertex -0.0064802030101418495 0.07375866174697876 -0.036741625517606735
			vertex -0.020965494215488434 0.06022290885448456 -0.036741625517606735
			vertex -0.006100618280470371 0.09335079789161682 -0.007084133103489876
		endloop
	endfacet
	facet normal -0.6169695065280527 0.6602502352564934 -0.42827357478401157
		outer loop
			vertex -0.0064802030101418495 0.07375866174697876 -0.036741625517606735
			vertex -0.006100618280470371 0.09335079789161682 -0.007084133103489876
			vertex 0.008867538534104824 0.09477924555540085 -0.026445036754012108
		endloop
	endfacet
	facet normal -0.6769307130770748 0.1403185956567279 0.7225479232589953
		outer loop
			vertex -0.0034182677045464516 0.08853017538785934 -0.036741625517606735
			vertex -0.0064802030101418495 0.07375866174697876 -0.036741625517606735
			vertex 0.008867538534104824 0.09477924555540085 -0.026445036754012108
		endloop
	endfacet
	facet normal 1 0 0
		outer loop
			vertex 0.0555555522441864 0.1023595854640007 0.036741629242897034
			vertex 0.0555555522441864 -0.015151499770581722 0.036741629242897034
			vertex 0.0555555522441864 -0.023536356166005135 0.008448293432593346
		endloop
	endfacet
	facet normal 1 0 0
		outer loop
			vertex 0.0555555522441864 0.1023595854640007 0.036741629242897034
			vertex 0.0555555522441864 -0.023536356166005135 0.008448293432593346
			vertex 0.0555555522441864 -0.00766304275020957 0.002750626066699624
		endloop
	endfacet
	facet normal 1 0 0
		outer loop
			vertex 0.0555555522441864 0.1023595854640007 0.036741629242897034
			vertex 0.0555555522441864 -0.00766304275020957 0.002750626066699624
			vertex 0.0555555522441864 0.1023595854640007 0.009310958907008171
		endloop
	endfacet
	facet normal 1 0 0
		outer loop
			vertex 0.0555555522441864 -0.025540802627801895 0.0016846266807988286
			vertex 0.0555555522441864 -0.00766304275020957 0.002750626066699624
			vertex 0.0555555522441864 -0.023536356166005135 0.008448293432593346
		endloop
	endfacet
	facet normal 1 0 0
		outer loop
			vertex 0.0555555522441864 -0.057836540043354034 0.036741629242897034
			vertex 0.0555555522441864 -0.1023595854640007 0.036741629242897034
			vertex 0.0555555522441864 -0.06364613026380539 0.022845564410090446
		endloop
	endfacet
	facet normal 1 0 0
		outer loop
			vertex 0.0555555522441864 -0.1023595854640007 0.036741629242897034
			vertex 0.0555555522441864 -0.1023595854640007 -0.0028958560433238745
			vertex 0.0555555522441864 -0.07369333505630493 -0.0011865737615153193
		endloop
	endfacet
	facet normal 1 0 0
		outer loop
			vertex 0.0555555522441864 -0.1023595854640007 0.036741629242897034
			vertex 0.0555555522441864 -0.07369333505630493 -0.0011865737615153193
			vertex 0.0555555522441864 -0.06364613026380539 0.022845564410090446
		endloop
	endfacet
	facet normal 1 0 0
		outer loop
			vertex 0.0555555522441864 -0.015151499770581722 0.036741629242897034
			vertex 0.0555555522441864 -0.057836540043354034 0.036741629242897034
			vertex 0.0555555522441864 -0.06364613026380539 0.022845564410090446
		endloop
	endfacet
	facet normal 1 0 0
		outer loop
			vertex 0.0555555522441864 -0.015151499770581722 0.036741629242897034
			vertex 0.0555555522441864 -0.06364613026380539 0.022845564410090446
			vertex 0.0555555522441864 -0.023536356166005135 0.008448293432593346
		endloop
	endfacet
	facet normal 1 0 0
		outer loop
			vertex 0.0555555522441864 -0.07369333505630493 -0.0011865737615153193
			vertex 0.0555555522441864 -0.025540802627801895 0.0016846266807988286
			vertex 0.0555555522441864 -0.023536356166005135 0.008448293432593346
		endloop
	endfacet
	facet normal 1 0 0
		outer loop
			vertex 0.0555555522441864 -0.07369333505630493 -0.0011865737615153193
			vertex 0.0555555522441864 -0.023536356166005135 0.008448293432593346
			vertex 0.0555555522441864 -0.06364613026380539 0.022845564410090446
		endloop
	endfacet
	facet normal 1 0 0
		outer loop
			vertex 0.0555555522441864 -0.00766304275020957 0.002750626066699624
			vertex 0.0555555522441864 0.01980699971318245 -0.00710965134203434
			vertex 0.0555555522441864 0.1023595854640007 0.004147505387663841
		endloop
	endfacet
	facet normal 1 0 0
		outer loop
			vertex 0.0555555522441864 -0.00766304275020957 0.002750626066699624
			vertex 0.0555555522441864 0.1023595854640007 0.004147505387663841
			vertex 0.0555555522441864 0.1023595854640007 0.009310958907008171
		endloop
	endfacet
	facet normal 1 0 0
		outer loop
			vertex 0.0555555522441864 -0.1023595854640007 -0.0028958560433238745
			vertex 0.0555555522441864 -0.1023595854640007 -0.023768717423081398
			vertex 0.0555555522441864 0.01980699971318245 -0.00710965134203434
		endloop
	endfacet
	facet normal 1 0 0
		outer loop
			vertex 0.0555555522441864 -0.1023595854640007 -0.0028958560433238745
			vertex 0.0555555522441864 0.01980699971318245 -0.00710965134203434
			vertex 0.0555555522441864 -0.00766304275020957 0.002750626066699624
		endloop
	endfacet
	facet normal 1 0 0
		outer loop
			vertex 0.0555555522441864 -0.1023595854640007 -0.0359363779425621
			vertex 0.0555555522441864 -0.1023595854640007 -0.036741625517606735
			vertex 0.0555555522441864 -0.10149729996919632 -0.036741625517606735
		endloop
	endfacet
	facet normal 1 0 0
		outer loop
			vertex 0.0555555522441864 0.06886506825685501 -0.024718886241316795
			vertex 0.0555555522441864 0.1023595854640007 -0.036741625517606735
			vertex 0.0555555522441864 0.1023595854640007 0.004147505387663841
		endloop
	endfacet
	facet normal 1 0 0
		outer loop
			vertex 0.0555555522441864 0.06886506825685501 -0.024718886241316795
			vertex 0.0555555522441864 0.1023595854640007 0.004147505387663841
			vertex 0.0555555522441864 0.09315845370292664 0.0028928054962307215
		endloop
	endfacet
	facet normal 1 0 0
		outer loop
			vertex 0.0555555522441864 0.058287184685468674 -0.036741625517606735
			vertex 0.0555555522441864 0.1023595854640007 -0.036741625517606735
			vertex 0.0555555522441864 0.06886506825685501 -0.024718886241316795
		endloop
	endfacet
	facet normal 1 0 0
		outer loop
			vertex 0.0555555522441864 0.01980699971318245 -0.00710965134203434
			vertex 0.0555555522441864 0.06886506825685501 -0.024718886241316795
			vertex 0.0555555522441864 0.09315845370292664 0.0028928054962307215
		endloop
	endfacet
	facet normal 1 0 0
		outer loop
			vertex 0.0555555522441864 -0.02639791928231716 -0.036741625517606735
			vertex 0.0555555522441864 0.058287184685468674 -0.036741625517606735
			vertex 0.0555555522441864 0.06886506825685501 -0.024718886241316795
		endloop
	endfacet
	facet normal 1 0 0
		outer loop
			vertex 0.0555555522441864 -0.02639791928231716 -0.036741625517606735
			vertex 0.0555555522441864 0.06886506825685501 -0.024718886241316795
			vertex 0.0555555522441864 0.01980699971318245 -0.00710965134203434
		endloop
	endfacet
	facet normal 1 0 0
		outer loop
			vertex 0.0555555522441864 -0.02639791928231716 -0.036741625517606735
			vertex 0.0555555522441864 0.01980699971318245 -0.00710965134203434
			vertex 0.0555555522441864 -0.032858479768037796 -0.014291299507021904
		endloop
	endfacet
	facet normal 1 0 0
		outer loop
			vertex 0.0555555522441864 -0.1023595854640007 -0.027414659038186073
			vertex 0.0555555522441864 -0.1023595854640007 -0.0359363779425621
			vertex 0.0555555522441864 -0.10149729996919632 -0.036741625517606735
		endloop
	endfacet
	facet normal 1 0 0
		outer loop
			vertex 0.0555555522441864 -0.1023595854640007 -0.027414659038186073
			vertex 0.0555555522441864 -0.10149729996919632 -0.036741625517606735
			vertex 0.0555555522441864 -0.07667948305606842 -0.036741625517606735
		endloop
	endfacet
	facet normal 1 0 0
		outer loop
			vertex 0.0555555522441864 -0.1023595854640007 -0.023768717423081398
			vertex 0.0555555522441864 -0.1023595854640007 -0.027414659038186073
			vertex 0.0555555522441864 -0.07667948305606842 -0.036741625517606735
		endloop
	endfacet
	facet normal 1 0 0
		outer loop
			vertex 0.0555555522441864 -0.1023595854640007 -0.023768717423081398
			vertex 0.0555555522441864 -0.07667948305606842 -0.036741625517606735
			vertex 0.0555555522441864 -0.02639791928231716 -0.036741625517606735
		endloop
	endfacet
	facet normal 1 0 0
		outer loop
			vertex 0.0555555522441864 -0.1023595854640007 -0.023768717423081398
			vertex 0.0555555522441864 -0.02639791928231716 -0.036741625517606735
			vertex 0.0555555522441864 -0.032858479768037796 -0.014291299507021904
		endloop
	endfacet
	facet normal -1 0 0
		outer loop
			vertex -0.055555559694767 0.010058022104203701 -0.036741625517606735
			vertex -0.055555559694767 0.008249755948781967 -0.036741625517606735
			vertex -0.055555559694767 0.010121998377144337 -0.03590951859951019
		endloop
	endfacet
	facet normal -1 0 0
		outer loop
			vertex -0.055555559694767 0.008249755948781967 -0.036741625517606735
			vertex -0.055555559694767 0.0016184535343199968 -0.036741625517606735
			vertex -0.055555559694767 0.006593312602490187 -0.026052629575133324
		endloop
	endfacet
	facet normal -1 0 0
		outer loop
			vertex -0.055555559694767 0.008249755948781967 -0.036741625517606735
			vertex -0.055555559694767 0.006593312602490187 -0.026052629575133324
			vertex -0.055555559694767 0.006994246505200863 -0.02540789730846882
		endloop
	endfacet
	facet normal -1 0 0
		outer loop
			vertex -0.055555559694767 0.008249755948781967 -0.036741625517606735
			vertex -0.055555559694767 0.006994246505200863 -0.02540789730846882
			vertex -0.055555559694767 0.010859636589884758 -0.02631537802517414
		endloop
	endfacet
	facet normal -1 0 0
		outer loop
			vertex -0.055555559694767 0.008249755948781967 -0.036741625517606735
			vertex -0.055555559694767 0.010859636589884758 -0.02631537802517414
			vertex -0.055555559694767 0.010121998377144337 -0.03590951859951019
		endloop
	endfacet
	facet normal -1 0 0
		outer loop
			vertex -0.055555559694767 0.0016184535343199968 -0.036741625517606735
			vertex -0.055555559694767 -0.000053753341489937156 -0.036741625517606735
			vertex -0.055555559694767 0.006593312602490187 -0.026052629575133324
		endloop
	endfacet
	facet normal -1 0 0
		outer loop
			vertex -0.055555559694767 -0.000053753341489937156 -0.036741625517606735
			vertex -0.055555559694767 -0.016072658821940422 -0.036741625517606735
			vertex -0.055555559694767 0.00395742803812027 -0.024694940075278282
		endloop
	endfacet
	facet normal -1 0 0
		outer loop
			vertex -0.055555559694767 -0.000053753341489937156 -0.036741625517606735
			vertex -0.055555559694767 0.00395742803812027 -0.024694940075278282
			vertex -0.055555559694767 0.006994246505200863 -0.02540789730846882
		endloop
	endfacet
	facet normal -1 0 0
		outer loop
			vertex -0.055555559694767 0.00395742803812027 -0.024694940075278282
			vertex -0.055555559694767 -0.0002840500674210489 -0.027245892211794853
			vertex -0.055555559694767 0.00031443711486645043 -0.023839673027396202
		endloop
	endfacet
	facet normal -1 0 0
		outer loop
			vertex -0.055555559694767 0.00031443711486645043 -0.023839673027396202
			vertex -0.055555559694767 -0.0002840500674210489 -0.027245892211794853
			vertex -0.055555559694767 -0.000363189639756456 -0.027293486520648003
		endloop
	endfacet
	facet normal -1 0 0
		outer loop
			vertex -0.055555559694767 0.00031443711486645043 -0.023839673027396202
			vertex -0.055555559694767 -0.000363189639756456 -0.027293486520648003
			vertex -0.055555559694767 0.0002927465829998255 -0.023834580555558205
		endloop
	endfacet
	facet normal -1 0 0
		outer loop
			vertex -0.055555559694767 -0.0399576798081398 -0.025056449696421623
			vertex -0.055555559694767 -0.042776621878147125 -0.015354523435235023
			vertex -0.055555559694767 -0.022244954481720924 -0.007984751835465431
		endloop
	endfacet
	facet normal -1 0 0
		outer loop
			vertex -0.055555559694767 -0.0399576798081398 -0.025056449696421623
			vertex -0.055555559694767 -0.022244954481720924 -0.007984751835465431
			vertex -0.055555559694767 -0.02858402021229267 -0.02347750775516033
		endloop
	endfacet
	facet normal -1 0 0
		outer loop
			vertex -0.055555559694767 -0.0579134039580822 0.036741629242897034
			vertex -0.055555559694767 -0.003944561816751957 0.036741629242897034
			vertex -0.055555559694767 -0.022244954481720924 -0.007984751835465431
		endloop
	endfacet
	facet normal -1 0 0
		outer loop
			vertex -0.055555559694767 -0.0579134039580822 0.036741629242897034
			vertex -0.055555559694767 -0.022244954481720924 -0.007984751835465431
			vertex -0.055555559694767 -0.042776621878147125 -0.015354523435235023
		endloop
	endfacet
	facet normal -1 0 0
		outer loop
			vertex -0.055555559694767 -0.016072658821940422 -0.036741625517606735
			vertex -0.055555559694767 -0.03401121124625206 -0.036741625517606735
			vertex -0.055555559694767 -0.022244954481720924 -0.007984751835465431
		endloop
	endfacet
	facet normal -1 0 0
		outer loop
			vertex -0.055555559694767 -0.016072658821940422 -0.036741625517606735
			vertex -0.055555559694767 -0.022244954481720924 -0.007984751835465431
			vertex -0.055555559694767 0.00480629364028573 0.0017252025427296758
		endloop
	endfacet
	facet normal -1 0 0
		outer loop
			vertex -0.055555559694767 -0.016072658821940422 -0.036741625517606735
			vertex -0.055555559694767 0.00480629364028573 0.0017252025427296758
			vertex -0.055555559694767 0.0006001565488986671 -0.022213531658053398
		endloop
	endfacet
	facet normal -1 0 0
		outer loop
			vertex -0.055555559694767 -0.016072658821940422 -0.036741625517606735
			vertex -0.055555559694767 0.0006001565488986671 -0.022213531658053398
			vertex -0.055555559694767 -0.000363189639756456 -0.027293486520648003
		endloop
	endfacet
	facet normal -1 0 0
		outer loop
			vertex -0.055555559694767 -0.003944561816751957 0.036741629242897034
			vertex -0.055555559694767 0.0034215287305414677 0.036741629242897034
			vertex -0.055555559694767 0.007538226433098316 0.017273684963583946
		endloop
	endfacet
	facet normal -1 0 0
		outer loop
			vertex -0.055555559694767 -0.003944561816751957 0.036741629242897034
			vertex -0.055555559694767 0.007538226433098316 0.017273684963583946
			vertex -0.055555559694767 0.00480629364028573 0.0017252025427296758
		endloop
	endfacet
	facet normal -1 0 0
		outer loop
			vertex -0.055555559694767 -0.003944561816751957 0.036741629242897034
			vertex -0.055555559694767 0.00480629364028573 0.0017252025427296758
			vertex -0.055555559694767 -0.022244954481720924 -0.007984751835465431
		endloop
	endfacet
	facet normal -1 0 0
		outer loop
			vertex -0.055555559694767 -0.04193631559610367 -0.036741625517606735
			vertex -0.055555559694767 -0.1023595854640007 -0.036741625517606735
			vertex -0.055555559694767 -0.08862965553998947 -0.03181331604719162
		endloop
	endfacet
	facet normal -1 0 0
		outer loop
			vertex -0.055555559694767 -0.04193631559610367 -0.036741625517606735
			vertex -0.055555559694767 -0.08862965553998947 -0.03181331604719162
			vertex -0.055555559694767 -0.04543193429708481 -0.025816408917307854
		endloop
	endfacet
	facet normal -1 0 0
		outer loop
			vertex -0.055555559694767 -0.1023595854640007 -0.036741625517606735
			vertex -0.055555559694767 -0.1023595854640007 -0.033719368278980255
			vertex -0.055555559694767 -0.08862965553998947 -0.03181331604719162
		endloop
	endfacet
	facet normal -1 0 0
		outer loop
			vertex -0.055555559694767 -0.08862965553998947 -0.03181331604719162
			vertex -0.055555559694767 -0.042776621878147125 -0.015354523435235023
			vertex -0.055555559694767 -0.0399576798081398 -0.025056449696421623
		endloop
	endfacet
	facet normal -1 0 0
		outer loop
			vertex -0.055555559694767 -0.1023595854640007 -0.033719368278980255
			vertex -0.055555559694767 -0.1023595854640007 0.036741629242897034
			vertex -0.055555559694767 -0.0579134039580822 0.036741629242897034
		endloop
	endfacet
	facet normal -1 0 0
		outer loop
			vertex -0.055555559694767 -0.1023595854640007 -0.033719368278980255
			vertex -0.055555559694767 -0.0579134039580822 0.036741629242897034
			vertex -0.055555559694767 -0.042776621878147125 -0.015354523435235023
		endloop
	endfacet
	facet normal -1 0 0
		outer loop
			vertex -0.055555559694767 -0.1023595854640007 -0.033719368278980255
			vertex -0.055555559694767 -0.042776621878147125 -0.015354523435235023
			vertex -0.055555559694767 -0.08862965553998947 -0.03181331604719162
		endloop
	endfacet
	facet normal 0 1 0
		outer loop
			vertex -0.002546318806707859 0.1023595854640007 0.001684000832028687
			vertex -0.0019637132063508034 0.1023595854640007 0.0012986940564587712
			vertex -0.0020582685247063637 0.1023595854640007 0.00098092679399997
		endloop
	endfacet
	facet normal 0 1 0
		outer loop
			vertex -0.00008870744204614311 0.1023595854640007 0.007600082084536552
			vertex -0.0019637132063508034 0.1023595854640007 0.0012986940564587712
			vertex -0.002546318806707859 0.1023595854640007 0.001684000832028687
		endloop
	endfacet
	facet normal 0 1 0
		outer loop
			vertex -0.00008870744204614311 0.1023595854640007 0.007600082084536552
			vertex -0.002546318806707859 0.1023595854640007 0.001684000832028687
			vertex -0.0032806480303406715 0.1023595854640007 0.0027418865356594324
		endloop
	endfacet
	facet normal 0 1 0
		outer loop
			vertex -0.0011845537228509784 0.1023595854640007 -0.03634055703878403
			vertex -0.0015277721686288714 0.1023595854640007 -0.036741625517606735
			vertex -0.003575206734240055 0.1023595854640007 -0.036741625517606735
		endloop
	endfacet
	facet normal 0 1 0
		outer loop
			vertex -0.0011845537228509784 0.1023595854640007 -0.03634055703878403
			vertex -0.003575206734240055 0.1023595854640007 -0.036741625517606735
			vertex -0.0022221440449357033 0.1023595854640007 -0.03502386808395386
		endloop
	endfacet
	facet normal 0 1 0
		outer loop
			vertex -0.0019637132063508034 0.1023595854640007 0.0012986940564587712
			vertex 0.019103102385997772 0.1023595854640007 -0.012633820995688438
			vertex 0.012637234292924404 0.1023595854640007 -0.020189383998513222
		endloop
	endfacet
	facet normal 0 1 0
		outer loop
			vertex -0.0019637132063508034 0.1023595854640007 0.0012986940564587712
			vertex 0.012637234292924404 0.1023595854640007 -0.020189383998513222
			vertex -0.0020582685247063637 0.1023595854640007 0.00098092679399997
		endloop
	endfacet
	facet normal 0 1 0
		outer loop
			vertex 0.00627573486417532 0.1023595854640007 0.01728694699704647
			vertex 0.021477289497852325 0.1023595854640007 -0.009859511628746986
			vertex 0.019103102385997772 0.1023595854640007 -0.012633820995688438
		endloop
	endfacet
	facet normal 0 1 0
		outer loop
			vertex 0.00627573486417532 0.1023595854640007 0.01728694699704647
			vertex 0.019103102385997772 0.1023595854640007 -0.012633820995688438
			vertex -0.0019637132063508034 0.1023595854640007 0.0012986940564587712
		endloop
	endfacet
	facet normal 0 1 0
		outer loop
			vertex 0.00627573486417532 0.1023595854640007 0.01728694699704647
			vertex -0.0019637132063508034 0.1023595854640007 0.0012986940564587712
			vertex -0.00008870744204614311 0.1023595854640007 0.007600082084536552
		endloop
	endfacet
	facet normal 0 1 0
		outer loop
			vertex -0.0008684926433488727 0.1023595854640007 -0.036741625517606735
			vertex -0.0015277721686288714 0.1023595854640007 -0.036741625517606735
			vertex -0.0011845537228509784 0.1023595854640007 -0.03634055703878403
		endloop
	endfacet
	facet normal 0 1 0
		outer loop
			vertex 0.023230530321598053 0.1023595854640007 -0.03545006737112999
			vertex 0.02229781448841095 0.1023595854640007 -0.036741625517606735
			vertex -0.0005516119999811053 0.1023595854640007 -0.036741625517606735
		endloop
	endfacet
	facet normal 0 1 0
		outer loop
			vertex 0.023230530321598053 0.1023595854640007 -0.03545006737112999
			vertex -0.0005516119999811053 0.1023595854640007 -0.036741625517606735
			vertex 0.014402157627046108 0.1023595854640007 -0.02273193560540676
		endloop
	endfacet
	facet normal 0 1 0
		outer loop
			vertex 0.019103102385997772 0.1023595854640007 -0.012633820995688438
			vertex 0.025341033935546875 0.1023595854640007 -0.016759274527430534
			vertex 0.03031451255083084 0.1023595854640007 -0.025640765205025673
		endloop
	endfacet
	facet normal 0 1 0
		outer loop
			vertex 0.019103102385997772 0.1023595854640007 -0.012633820995688438
			vertex 0.03031451255083084 0.1023595854640007 -0.025640765205025673
			vertex 0.023230530321598053 0.1023595854640007 -0.03545006737112999
		endloop
	endfacet
	facet normal 0 1 0
		outer loop
			vertex 0.019103102385997772 0.1023595854640007 -0.012633820995688438
			vertex 0.023230530321598053 0.1023595854640007 -0.03545006737112999
			vertex 0.012637234292924404 0.1023595854640007 -0.020189383998513222
		endloop
	endfacet
	facet normal 0 1 0
		outer loop
			vertex 0.021477289497852325 0.1023595854640007 -0.009859511628746986
			vertex 0.025341033935546875 0.1023595854640007 -0.016759274527430534
			vertex 0.019103102385997772 0.1023595854640007 -0.012633820995688438
		endloop
	endfacet
	facet normal 0 1 0
		outer loop
			vertex -0.0037601375952363014 0.1023595854640007 0.036741629242897034
			vertex 0.008582434616982937 0.1023595854640007 0.036741629242897034
			vertex 0.004001877270638943 0.1023595854640007 0.02134752832353115
		endloop
	endfacet
	facet normal 0 1 0
		outer loop
			vertex -0.0037601375952363014 0.1023595854640007 0.036741629242897034
			vertex 0.004001877270638943 0.1023595854640007 0.02134752832353115
			vertex -0.0031823674216866493 0.1023595854640007 0.03417693078517914
		endloop
	endfacet
	facet normal 0 1 0
		outer loop
			vertex 0.025341033935546875 0.1023595854640007 -0.016759274527430534
			vertex 0.03304769843816757 0.1023595854640007 -0.021856075152754784
			vertex 0.03031451255083084 0.1023595854640007 -0.025640765205025673
		endloop
	endfacet
	facet normal 0 1 0
		outer loop
			vertex 0.008582434616982937 0.1023595854640007 0.036741629242897034
			vertex 0.0555555522441864 0.1023595854640007 0.036741629242897034
			vertex 0.0555555522441864 0.1023595854640007 0.009310958907008171
		endloop
	endfacet
	facet normal 0 1 0
		outer loop
			vertex 0.008582434616982937 0.1023595854640007 0.036741629242897034
			vertex 0.0555555522441864 0.1023595854640007 0.009310958907008171
			vertex 0.03304769843816757 0.1023595854640007 -0.021856075152754784
		endloop
	endfacet
	facet normal 0 1 0
		outer loop
			vertex 0.008582434616982937 0.1023595854640007 0.036741629242897034
			vertex 0.03304769843816757 0.1023595854640007 -0.021856075152754784
			vertex 0.025341033935546875 0.1023595854640007 -0.016759274527430534
		endloop
	endfacet
	facet normal 0 1 0
		outer loop
			vertex 0.008582434616982937 0.1023595854640007 0.036741629242897034
			vertex 0.025341033935546875 0.1023595854640007 -0.016759274527430534
			vertex 0.004001877270638943 0.1023595854640007 0.02134752832353115
		endloop
	endfacet
	facet normal 0 1 0
		outer loop
			vertex 0.03304769843816757 0.1023595854640007 -0.021856075152754784
			vertex 0.035363249480724335 0.1023595854640007 -0.02338746003806591
			vertex 0.025570198893547058 0.1023595854640007 -0.036741625517606735
		endloop
	endfacet
	facet normal 0 1 0
		outer loop
			vertex 0.03304769843816757 0.1023595854640007 -0.021856075152754784
			vertex 0.025570198893547058 0.1023595854640007 -0.036741625517606735
			vertex 0.02229781448841095 0.1023595854640007 -0.036741625517606735
		endloop
	endfacet
	facet normal 0 1 0
		outer loop
			vertex 0.0555555522441864 0.1023595854640007 0.009310958907008171
			vertex 0.0555555522441864 0.1023595854640007 0.004147505387663841
			vertex 0.035363249480724335 0.1023595854640007 -0.02338746003806591
		endloop
	endfacet
	facet normal 0 1 0
		outer loop
			vertex 0.0555555522441864 0.1023595854640007 0.009310958907008171
			vertex 0.035363249480724335 0.1023595854640007 -0.02338746003806591
			vertex 0.03304769843816757 0.1023595854640007 -0.021856075152754784
		endloop
	endfacet
	facet normal 0 1 0
		outer loop
			vertex 0.035363249480724335 0.1023595854640007 -0.02338746003806591
			vertex 0.0555555522441864 0.1023595854640007 -0.036741625517606735
			vertex 0.025570198893547058 0.1023595854640007 -0.036741625517606735
		endloop
	endfacet
	facet normal 0 1 0
		outer loop
			vertex 0.0555555522441864 0.1023595854640007 0.004147505387663841
			vertex 0.0555555522441864 0.1023595854640007 -0.036741625517606735
			vertex 0.035363249480724335 0.1023595854640007 -0.02338746003806591
		endloop
	endfacet
	facet normal 0 -1 0
		outer loop
			vertex -0.055555559694767 -0.1023595854640007 -0.033719368278980255
			vertex -0.055555559694767 -0.1023595854640007 -0.036741625517606735
			vertex -0.05109124630689621 -0.1023595854640007 -0.03378916159272194
		endloop
	endfacet
	facet normal 0 -1 0
		outer loop
			vertex -0.055555559694767 -0.1023595854640007 -0.036741625517606735
			vertex -0.025782637298107147 -0.1023595854640007 -0.036741625517606735
			vertex -0.02544691413640976 -0.1023595854640007 -0.034190092235803604
		endloop
	endfacet
	facet normal 0 -1 0
		outer loop
			vertex -0.055555559694767 -0.1023595854640007 -0.036741625517606735
			vertex -0.02544691413640976 -0.1023595854640007 -0.034190092235803604
			vertex -0.05109124630689621 -0.1023595854640007 -0.03378916159272194
		endloop
	endfacet
	facet normal 0 -1 0
		outer loop
			vertex -0.055555559694767 -0.1023595854640007 0.036741629242897034
			vertex -0.055555559694767 -0.1023595854640007 -0.033719368278980255
			vertex -0.05109124630689621 -0.1023595854640007 -0.03378916159272194
		endloop
	endfacet
	facet normal 0 -1 0
		outer loop
			vertex -0.055555559694767 -0.1023595854640007 0.036741629242897034
			vertex -0.05109124630689621 -0.1023595854640007 -0.03378916159272194
			vertex -0.022944949567317963 -0.1023595854640007 -0.015174625441432
		endloop
	endfacet
	facet normal 0 -1 0
		outer loop
			vertex -0.055555559694767 -0.1023595854640007 0.036741629242897034
			vertex -0.022944949567317963 -0.1023595854640007 -0.015174625441432
			vertex -0.01611403375864029 -0.1023595854640007 0.036741629242897034
		endloop
	endfacet
	facet normal 0 -1 0
		outer loop
			vertex -0.02544691413640976 -0.1023595854640007 -0.034190092235803604
			vertex -0.022944949567317963 -0.1023595854640007 -0.015174625441432
			vertex -0.05109124630689621 -0.1023595854640007 -0.03378916159272194
		endloop
	endfacet
	facet normal 0 -1 0
		outer loop
			vertex -0.022944949567317963 -0.1023595854640007 -0.015174625441432
			vertex 0.011031626723706722 -0.1023595854640007 0.007295755669474602
			vertex 0.006080984137952328 -0.1023595854640007 0.036741629242897034
		endloop
	endfacet
	facet normal 0 -1 0
		outer loop
			vertex -0.022944949567317963 -0.1023595854640007 -0.015174625441432
			vertex 0.006080984137952328 -0.1023595854640007 0.036741629242897034
			vertex -0.01611403375864029 -0.1023595854640007 0.036741629242897034
		endloop
	endfacet
	facet normal 0 -1 0
		outer loop
			vertex -0.025782637298107147 -0.1023595854640007 -0.036741625517606735
			vertex 0.018435485661029816 -0.1023595854640007 -0.036741625517606735
			vertex 0.011031626723706722 -0.1023595854640007 0.007295755669474602
		endloop
	endfacet
	facet normal 0 -1 0
		outer loop
			vertex -0.025782637298107147 -0.1023595854640007 -0.036741625517606735
			vertex 0.011031626723706722 -0.1023595854640007 0.007295755669474602
			vertex -0.022944949567317963 -0.1023595854640007 -0.015174625441432
		endloop
	endfacet
	facet normal 0 -1 0
		outer loop
			vertex 0.011031626723706722 -0.1023595854640007 0.007295755669474602
			vertex 0.0555555522441864 -0.1023595854640007 0.036741629242897034
			vertex 0.006080984137952328 -0.1023595854640007 0.036741629242897034
		endloop
	endfacet
	facet normal 0 -1 0
		outer loop
			vertex 0.018435485661029816 -0.1023595854640007 -0.036741625517606735
			vertex 0.03111319988965988 -0.1023595854640007 -0.036741625517606735
			vertex 0.0555555522441864 -0.1023595854640007 -0.0028958560433238745
		endloop
	endfacet
	facet normal 0 -1 0
		outer loop
			vertex 0.018435485661029816 -0.1023595854640007 -0.036741625517606735
			vertex 0.0555555522441864 -0.1023595854640007 -0.0028958560433238745
			vertex 0.0555555522441864 -0.1023595854640007 0.036741629242897034
		endloop
	endfacet
	facet normal 0 -1 0
		outer loop
			vertex 0.018435485661029816 -0.1023595854640007 -0.036741625517606735
			vertex 0.0555555522441864 -0.1023595854640007 0.036741629242897034
			vertex 0.011031626723706722 -0.1023595854640007 0.007295755669474602
		endloop
	endfacet
	facet normal 0 -1 0
		outer loop
			vertex 0.03111319988965988 -0.1023595854640007 -0.036741625517606735
			vertex 0.04604208469390869 -0.1023595854640007 -0.036741625517606735
			vertex 0.0555555522441864 -0.1023595854640007 -0.023768717423081398
		endloop
	endfacet
	facet normal 0 -1 0
		outer loop
			vertex 0.03111319988965988 -0.1023595854640007 -0.036741625517606735
			vertex 0.0555555522441864 -0.1023595854640007 -0.023768717423081398
			vertex 0.0555555522441864 -0.1023595854640007 -0.0028958560433238745
		endloop
	endfacet
	facet normal 0 -1 0
		outer loop
			vertex 0.04604208469390869 -0.1023595854640007 -0.036741625517606735
			vertex 0.0555555522441864 -0.1023595854640007 -0.036741625517606735
			vertex 0.0555555522441864 -0.1023595854640007 -0.0359363779425621
		endloop
	endfacet
	facet normal 0 -1 0
		outer loop
			vertex 0.04604208469390869 -0.1023595854640007 -0.036741625517606735
			vertex 0.0555555522441864 -0.1023595854640007 -0.0359363779425621
			vertex 0.048977870494127274 -0.1023595854640007 -0.03273828327655792
		endloop
	endfacet
	facet normal 0 -1 0
		outer loop
			vertex 0.0555555522441864 -0.1023595854640007 -0.0359363779425621
			vertex 0.0555555522441864 -0.1023595854640007 -0.027414659038186073
			vertex 0.05294273421168327 -0.1023595854640007 -0.027331648394465446
		endloop
	endfacet
	facet normal 0 -1 0
		outer loop
			vertex 0.0555555522441864 -0.1023595854640007 -0.0359363779425621
			vertex 0.05294273421168327 -0.1023595854640007 -0.027331648394465446
			vertex 0.048977870494127274 -0.1023595854640007 -0.03273828327655792
		endloop
	endfacet
	facet normal 0 -1 0
		outer loop
			vertex 0.0555555522441864 -0.1023595854640007 -0.027414659038186073
			vertex 0.0555555522441864 -0.1023595854640007 -0.023768717423081398
			vertex 0.05294273421168327 -0.1023595854640007 -0.027331648394465446
		endloop
	endfacet
	facet normal 0 0 1
		outer loop
			vertex -0.0478622242808342 0.04978739842772484 0.036741629242897034
			vertex -0.03893304616212845 0.07238955050706863 0.036741629242897034
			vertex -0.04025096446275711 0.07125189900398254 0.036741629242897034
		endloop
	endfacet
	facet normal 0 0 1
		outer loop
			vertex -0.0478622242808342 0.04978739842772484 0.036741629242897034
			vertex -0.04025096446275711 0.07125189900398254 0.036741629242897034
			vertex -0.0454997643828392 0.062469035387039185 0.036741629242897034
		endloop
	endfacet
	facet normal 0 0 1
		outer loop
			vertex -0.0478622242808342 0.04978739842772484 0.036741629242897034
			vertex -0.0454997643828392 0.062469035387039185 0.036741629242897034
			vertex -0.04722083359956741 0.05365293473005295 0.036741629242897034
		endloop
	endfacet
	facet normal 0 0 1
		outer loop
			vertex -0.055555559694767 -0.003944561816751957 0.036741629242897034
			vertex -0.055555559694767 -0.0579134039580822 0.036741629242897034
			vertex -0.04070919007062912 -0.016413098201155663 0.036741629242897034
		endloop
	endfacet
	facet normal 0 0 1
		outer loop
			vertex -0.055555559694767 0.0034215287305414677 0.036741629242897034
			vertex -0.055555559694767 -0.003944561816751957 0.036741629242897034
			vertex -0.04070919007062912 -0.016413098201155663 0.036741629242897034
		endloop
	endfacet
	facet normal 0 0 1
		outer loop
			vertex -0.055555559694767 0.0034215287305414677 0.036741629242897034
			vertex -0.04070919007062912 -0.016413098201155663 0.036741629242897034
			vertex -0.016736306250095367 0.050598666071891785 0.036741629242897034
		endloop
	endfacet
	facet normal 0 0 1
		outer loop
			vertex -0.055555559694767 0.0034215287305414677 0.036741629242897034
			vertex -0.016736306250095367 0.050598666071891785 0.036741629242897034
			vertex -0.016902334988117218 0.09140694886445999 0.036741629242897034
		endloop
	endfacet
	facet normal 0 0 1
		outer loop
			vertex -0.055555559694767 0.0034215287305414677 0.036741629242897034
			vertex -0.016902334988117218 0.09140694886445999 0.036741629242897034
			vertex -0.03893304616212845 0.07238955050706863 0.036741629242897034
		endloop
	endfacet
	facet normal 0 0 1
		outer loop
			vertex -0.055555559694767 0.0034215287305414677 0.036741629242897034
			vertex -0.03893304616212845 0.07238955050706863 0.036741629242897034
			vertex -0.0478622242808342 0.04978739842772484 0.036741629242897034
		endloop
	endfacet
	facet normal 0 0 1
		outer loop
			vertex -0.01663818210363388 0.026480214670300484 0.036741629242897034
			vertex -0.016736306250095367 0.050598666071891785 0.036741629242897034
			vertex -0.0356505885720253 -0.002272719284519553 0.036741629242897034
		endloop
	endfacet
	facet normal 0 0 1
		outer loop
			vertex -0.01663818210363388 0.026480214670300484 0.036741629242897034
			vertex -0.0356505885720253 -0.002272719284519553 0.036741629242897034
			vertex -0.02566271275281906 -0.003043858567252755 0.036741629242897034
		endloop
	endfacet
	facet normal 0 0 1
		outer loop
			vertex -0.016515202820301056 -0.0037501149345189333 0.036741629242897034
			vertex -0.01663818210363388 0.026480214670300484 0.036741629242897034
			vertex -0.02566271275281906 -0.003043858567252755 0.036741629242897034
		endloop
	endfacet
	facet normal 0 0 1
		outer loop
			vertex -0.055555559694767 -0.0579134039580822 0.036741629242897034
			vertex -0.055555559694767 -0.1023595854640007 0.036741629242897034
			vertex -0.01886514574289322 -0.03475853055715561 0.036741629242897034
		endloop
	endfacet
	facet normal 0 0 1
		outer loop
			vertex -0.055555559694767 -0.0579134039580822 0.036741629242897034
			vertex -0.01886514574289322 -0.03475853055715561 0.036741629242897034
			vertex -0.04070919007062912 -0.016413098201155663 0.036741629242897034
		endloop
	endfacet
	facet normal 0 0 1
		outer loop
			vertex -0.055555559694767 -0.1023595854640007 0.036741629242897034
			vertex -0.01611403375864029 -0.1023595854640007 0.036741629242897034
			vertex -0.016380570828914642 -0.03684518113732338 0.036741629242897034
		endloop
	endfacet
	facet normal 0 0 1
		outer loop
			vertex -0.055555559694767 -0.1023595854640007 0.036741629242897034
			vertex -0.016380570828914642 -0.03684518113732338 0.036741629242897034
			vertex -0.01886514574289322 -0.03475853055715561 0.036741629242897034
		endloop
	endfacet
	facet normal 0 0 1
		outer loop
			vertex -0.01886514574289322 -0.03475853055715561 0.036741629242897034
			vertex -0.01640748232603073 -0.0302303284406662 0.036741629242897034
			vertex -0.016515202820301056 -0.0037501149345189333 0.036741629242897034
		endloop
	endfacet
	facet normal 0 0 1
		outer loop
			vertex -0.01886514574289322 -0.03475853055715561 0.036741629242897034
			vertex -0.016515202820301056 -0.0037501149345189333 0.036741629242897034
			vertex -0.0356505885720253 -0.002272719284519553 0.036741629242897034
		endloop
	endfacet
	facet normal 0 0 1
		outer loop
			vertex -0.01886514574289322 -0.03475853055715561 0.036741629242897034
			vertex -0.0356505885720253 -0.002272719284519553 0.036741629242897034
			vertex -0.04070919007062912 -0.016413098201155663 0.036741629242897034
		endloop
	endfacet
	facet normal 0 0 1
		outer loop
			vertex -0.016380570828914642 -0.03684518113732338 0.036741629242897034
			vertex -0.01640748232603073 -0.0302303284406662 0.036741629242897034
			vertex -0.01886514574289322 -0.03475853055715561 0.036741629242897034
		endloop
	endfacet
	facet normal 0 0 1
		outer loop
			vertex -0.01640748232603073 -0.0302303284406662 0.036741629242897034
			vertex -0.01518052164465189 -0.02796969935297966 0.036741629242897034
			vertex 0.008582434616982937 0.1023595854640007 0.036741629242897034
		endloop
	endfacet
	facet normal 0 0 1
		outer loop
			vertex -0.01640748232603073 -0.0302303284406662 0.036741629242897034
			vertex 0.008582434616982937 0.1023595854640007 0.036741629242897034
			vertex -0.0037601375952363014 0.1023595854640007 0.036741629242897034
		endloop
	endfacet
	facet normal 0 0 1
		outer loop
			vertex -0.01640748232603073 -0.0302303284406662 0.036741629242897034
			vertex -0.0037601375952363014 0.1023595854640007 0.036741629242897034
			vertex -0.004886508919298649 0.1017792671918869 0.036741629242897034
		endloop
	endfacet
	facet normal 0 0 1
		outer loop
			vertex -0.01640748232603073 -0.0302303284406662 0.036741629242897034
			vertex -0.004886508919298649 0.1017792671918869 0.036741629242897034
			vertex -0.016902334988117218 0.09140694886445999 0.036741629242897034
		endloop
	endfacet
	facet normal 0 0 1
		outer loop
			vertex -0.01518052164465189 -0.02796969935297966 0.036741629242897034
			vertex -0.01640748232603073 -0.0302303284406662 0.036741629242897034
			vertex -0.01638970524072647 -0.03460146114230156 0.036741629242897034
		endloop
	endfacet
	facet normal 0 0 1
		outer loop
			vertex -0.01518052164465189 -0.02796969935297966 0.036741629242897034
			vertex 0.0555555522441864 0.1023595854640007 0.036741629242897034
			vertex 0.008582434616982937 0.1023595854640007 0.036741629242897034
		endloop
	endfacet
	facet normal 0 0 1
		outer loop
			vertex -0.01611403375864029 -0.1023595854640007 0.036741629242897034
			vertex 0.006080984137952328 -0.1023595854640007 0.036741629242897034
			vertex 0.0555555522441864 -0.015151499770581722 0.036741629242897034
		endloop
	endfacet
	facet normal 0 0 1
		outer loop
			vertex -0.01611403375864029 -0.1023595854640007 0.036741629242897034
			vertex 0.0555555522441864 -0.015151499770581722 0.036741629242897034
			vertex 0.0555555522441864 0.1023595854640007 0.036741629242897034
		endloop
	endfacet
	facet normal 0 0 1
		outer loop
			vertex -0.01611403375864029 -0.1023595854640007 0.036741629242897034
			vertex 0.0555555522441864 0.1023595854640007 0.036741629242897034
			vertex -0.01518052164465189 -0.02796969935297966 0.036741629242897034
		endloop
	endfacet
	facet normal 0 0 1
		outer loop
			vertex -0.01611403375864029 -0.1023595854640007 0.036741629242897034
			vertex -0.01518052164465189 -0.02796969935297966 0.036741629242897034
			vertex -0.01638970524072647 -0.03460146114230156 0.036741629242897034
		endloop
	endfacet
	facet normal 0 0 1
		outer loop
			vertex 0.006080984137952328 -0.1023595854640007 0.036741629242897034
			vertex 0.0555555522441864 -0.1023595854640007 0.036741629242897034
			vertex 0.0555555522441864 -0.057836540043354034 0.036741629242897034
		endloop
	endfacet
	facet normal 0 0 1
		outer loop
			vertex 0.006080984137952328 -0.1023595854640007 0.036741629242897034
			vertex 0.0555555522441864 -0.057836540043354034 0.036741629242897034
			vertex 0.038552671670913696 -0.04512221738696098 0.036741629242897034
		endloop
	endfacet
	facet normal 0 0 1
		outer loop
			vertex 0.0555555522441864 -0.057836540043354034 0.036741629242897034
			vertex 0.0555555522441864 -0.015151499770581722 0.036741629242897034
			vertex 0.038552671670913696 -0.04512221738696098 0.036741629242897034
		endloop
	endfacet
	facet normal 0 0 -1
		outer loop
			vertex -0.026396922767162323 0.04863562062382698 -0.036741625517606735
			vertex -0.027901388704776764 0.05140753462910652 -0.036741625517606735
			vertex -0.02641906589269638 0.05407632887363434 -0.036741625517606735
		endloop
	endfacet
	facet normal 0 0 -1
		outer loop
			vertex -0.027901388704776764 0.05140753462910652 -0.036741625517606735
			vertex -0.026396922767162323 0.04863562062382698 -0.036741625517606735
			vertex -0.02638208121061325 0.044986579567193985 -0.036741625517606735
		endloop
	endfacet
	facet normal 0 0 -1
		outer loop
			vertex -0.027901388704776764 0.05140753462910652 -0.036741625517606735
			vertex -0.02638208121061325 0.044986579567193985 -0.036741625517606735
			vertex -0.035183824598789215 0.020382927730679512 -0.036741625517606735
		endloop
	endfacet
	facet normal 0 0 -1
		outer loop
			vertex -0.027901388704776764 0.05140753462910652 -0.036741625517606735
			vertex -0.035183824598789215 0.020382927730679512 -0.036741625517606735
			vertex -0.04352080076932907 0.015417516231536865 -0.036741625517606735
		endloop
	endfacet
	facet normal 0 0 -1
		outer loop
			vertex -0.027901388704776764 0.05140753462910652 -0.036741625517606735
			vertex -0.04352080076932907 0.015417516231536865 -0.036741625517606735
			vertex -0.03893587738275528 0.03154083341360092 -0.036741625517606735
		endloop
	endfacet
	facet normal 0 0 -1
		outer loop
			vertex -0.055555559694767 0.008249755948781967 -0.036741625517606735
			vertex -0.055555559694767 0.010058022104203701 -0.036741625517606735
			vertex -0.05525898188352585 0.010097102262079716 -0.036741625517606735
		endloop
	endfacet
	facet normal 0 0 -1
		outer loop
			vertex -0.055555559694767 0.008249755948781967 -0.036741625517606735
			vertex -0.05525898188352585 0.010097102262079716 -0.036741625517606735
			vertex -0.05258946865797043 0.010016325861215591 -0.036741625517606735
		endloop
	endfacet
	facet normal 0 0 -1
		outer loop
			vertex -0.03893587738275528 0.03154083341360092 -0.036741625517606735
			vertex -0.04352080076932907 0.015417516231536865 -0.036741625517606735
			vertex -0.04581593722105026 0.014050566591322422 -0.036741625517606735
		endloop
	endfacet
	facet normal 0 0 -1
		outer loop
			vertex -0.03893587738275528 0.03154083341360092 -0.036741625517606735
			vertex -0.04581593722105026 0.014050566591322422 -0.036741625517606735
			vertex -0.04186733812093735 0.026262953877449036 -0.036741625517606735
		endloop
	endfacet
	facet normal 0 0 -1
		outer loop
			vertex -0.055555559694767 0.0016184535343199968 -0.036741625517606735
			vertex -0.055555559694767 0.008249755948781967 -0.036741625517606735
			vertex -0.05258946865797043 0.010016325861215591 -0.036741625517606735
		endloop
	endfacet
	facet normal 0 0 -1
		outer loop
			vertex -0.055555559694767 0.0016184535343199968 -0.036741625517606735
			vertex -0.05258946865797043 0.010016325861215591 -0.036741625517606735
			vertex -0.05091922730207443 0.009965786710381508 -0.036741625517606735
		endloop
	endfacet
	facet normal 0 0 -1
		outer loop
			vertex -0.055555559694767 -0.000053753341489937156 -0.036741625517606735
			vertex -0.055555559694767 0.0016184535343199968 -0.036741625517606735
			vertex -0.05091922730207443 0.009965786710381508 -0.036741625517606735
		endloop
	endfacet
	facet normal 0 0 -1
		outer loop
			vertex -0.055555559694767 -0.000053753341489937156 -0.036741625517606735
			vertex -0.05091922730207443 0.009965786710381508 -0.036741625517606735
			vertex -0.04959169775247574 0.009925617836415768 -0.036741625517606735
		endloop
	endfacet
	facet normal 0 0 -1
		outer loop
			vertex -0.055555559694767 -0.016072658821940422 -0.036741625517606735
			vertex -0.055555559694767 -0.000053753341489937156 -0.036741625517606735
			vertex -0.04959169775247574 0.009925617836415768 -0.036741625517606735
		endloop
	endfacet
	facet normal 0 0 -1
		outer loop
			vertex -0.055555559694767 -0.016072658821940422 -0.036741625517606735
			vertex -0.04959169775247574 0.009925617836415768 -0.036741625517606735
			vertex -0.04717329889535904 0.009852441027760506 -0.036741625517606735
		endloop
	endfacet
	facet normal 0 0 -1
		outer loop
			vertex -0.055555559694767 -0.03401121124625206 -0.036741625517606735
			vertex -0.055555559694767 -0.016072658821940422 -0.036741625517606735
			vertex -0.04581593722105026 0.014050566591322422 -0.036741625517606735
		endloop
	endfacet
	facet normal 0 0 -1
		outer loop
			vertex -0.055555559694767 -0.03401121124625206 -0.036741625517606735
			vertex -0.04581593722105026 0.014050566591322422 -0.036741625517606735
			vertex -0.035183824598789215 0.020382927730679512 -0.036741625517606735
		endloop
	endfacet
	facet normal 0 0 -1
		outer loop
			vertex -0.055555559694767 -0.03401121124625206 -0.036741625517606735
			vertex -0.035183824598789215 0.020382927730679512 -0.036741625517606735
			vertex -0.054853715002536774 -0.0346006415784359 -0.036741625517606735
		endloop
	endfacet
	facet normal 0 0 -1
		outer loop
			vertex -0.035019777715206146 0.02084149792790413 -0.036741625517606735
			vertex -0.02638208121061325 0.044986579567193985 -0.036741625517606735
			vertex -0.02636577934026718 0.04097947105765343 -0.036741625517606735
		endloop
	endfacet
	facet normal 0 0 -1
		outer loop
			vertex -0.035019777715206146 0.02084149792790413 -0.036741625517606735
			vertex -0.02636577934026718 0.04097947105765343 -0.036741625517606735
			vertex -0.03257889300584793 0.020653042942285538 -0.036741625517606735
		endloop
	endfacet
	facet normal 0 0 -1
		outer loop
			vertex -0.02636577934026718 0.04097947105765343 -0.036741625517606735
			vertex -0.02628111094236374 0.020166806876659393 -0.036741625517606735
			vertex -0.03257889300584793 0.020653042942285538 -0.036741625517606735
		endloop
	endfacet
	facet normal 0 0 -1
		outer loop
			vertex -0.035183824598789215 0.020382927730679512 -0.036741625517606735
			vertex -0.035019777715206146 0.02084149792790413 -0.036741625517606735
			vertex -0.0344834104180336 0.020800083875656128 -0.036741625517606735
		endloop
	endfacet
	facet normal 0 0 -1
		outer loop
			vertex -0.025782637298107147 -0.1023595854640007 -0.036741625517606735
			vertex -0.055555559694767 -0.1023595854640007 -0.036741625517606735
			vertex -0.055555559694767 -0.04193631559610367 -0.036741625517606735
		endloop
	endfacet
	facet normal 0 0 -1
		outer loop
			vertex -0.025782637298107147 -0.1023595854640007 -0.036741625517606735
			vertex -0.055555559694767 -0.04193631559610367 -0.036741625517606735
			vertex -0.049242787063121796 -0.03931292146444321 -0.036741625517606735
		endloop
	endfacet
	facet normal 0 0 -1
		outer loop
			vertex -0.025782637298107147 -0.1023595854640007 -0.036741625517606735
			vertex -0.049242787063121796 -0.03931292146444321 -0.036741625517606735
			vertex -0.025959573686122894 -0.058867018669843674 -0.036741625517606735
		endloop
	endfacet
	facet normal 0 0 -1
		outer loop
			vertex -0.054853715002536774 -0.0346006415784359 -0.036741625517606735
			vertex -0.035183824598789215 0.020382927730679512 -0.036741625517606735
			vertex -0.0344834104180336 0.020800083875656128 -0.036741625517606735
		endloop
	endfacet
	facet normal 0 0 -1
		outer loop
			vertex -0.054853715002536774 -0.0346006415784359 -0.036741625517606735
			vertex -0.0344834104180336 0.020800083875656128 -0.036741625517606735
			vertex -0.02628111094236374 0.020166806876659393 -0.036741625517606735
		endloop
	endfacet
	facet normal 0 0 -1
		outer loop
			vertex -0.054853715002536774 -0.0346006415784359 -0.036741625517606735
			vertex -0.02628111094236374 0.020166806876659393 -0.036741625517606735
			vertex -0.025959573686122894 -0.058867018669843674 -0.036741625517606735
		endloop
	endfacet
	facet normal 0 0 -1
		outer loop
			vertex -0.003575206734240055 0.1023595854640007 -0.036741625517606735
			vertex -0.0015277721686288714 0.1023595854640007 -0.036741625517606735
			vertex -0.0027793506160378456 0.09949176758527756 -0.036741625517606735
		endloop
	endfacet
	facet normal 0 0 -1
		outer loop
			vertex -0.003575206734240055 0.1023595854640007 -0.036741625517606735
			vertex -0.0027793506160378456 0.09949176758527756 -0.036741625517606735
			vertex -0.004960828460752964 0.0962178036570549 -0.036741625517606735
		endloop
	endfacet
	facet normal 0 0 -1
		outer loop
			vertex -0.0015277721686288714 0.1023595854640007 -0.036741625517606735
			vertex -0.0008684926433488727 0.1023595854640007 -0.036741625517606735
			vertex -0.0027793506160378456 0.09949176758527756 -0.036741625517606735
		endloop
	endfacet
	facet normal 0 0 -1
		outer loop
			vertex -0.0005516119999811053 0.1023595854640007 -0.036741625517606735
			vertex 0.02229781448841095 0.1023595854640007 -0.036741625517606735
			vertex 0.022368572652339935 0.10071634501218796 -0.036741625517606735
		endloop
	endfacet
	facet normal 0 0 -1
		outer loop
			vertex -0.0005516119999811053 0.1023595854640007 -0.036741625517606735
			vertex 0.022368572652339935 0.10071634501218796 -0.036741625517606735
			vertex 0.016827963292598724 0.09553893655538559 -0.036741625517606735
		endloop
	endfacet
	facet normal 0 0 -1
		outer loop
			vertex -0.0005516119999811053 0.1023595854640007 -0.036741625517606735
			vertex 0.016827963292598724 0.09553893655538559 -0.036741625517606735
			vertex -0.0034182677045464516 0.08853017538785934 -0.036741625517606735
		endloop
	endfacet
	facet normal 0 0 -1
		outer loop
			vertex 0.022368572652339935 0.10071634501218796 -0.036741625517606735
			vertex 0.02250685542821884 0.09750483930110931 -0.036741625517606735
			vertex 0.016827963292598724 0.09553893655538559 -0.036741625517606735
		endloop
	endfacet
	facet normal 0 0 -1
		outer loop
			vertex -0.02639733999967575 0.04873695969581604 -0.036741625517606735
			vertex -0.02641906589269638 0.05407632887363434 -0.036741625517606735
			vertex -0.025205962359905243 0.05626041442155838 -0.036741625517606735
		endloop
	endfacet
	facet normal 0 0 -1
		outer loop
			vertex -0.02639733999967575 0.04873695969581604 -0.036741625517606735
			vertex -0.025205962359905243 0.05626041442155838 -0.036741625517606735
			vertex -0.020965494215488434 0.06022290885448456 -0.036741625517606735
		endloop
	endfacet
	facet normal 0 0 -1
		outer loop
			vertex -0.02639733999967575 0.04873695969581604 -0.036741625517606735
			vertex -0.020965494215488434 0.06022290885448456 -0.036741625517606735
			vertex -0.02159438282251358 0.05677380785346031 -0.036741625517606735
		endloop
	endfacet
	facet normal 0 0 -1
		outer loop
			vertex -0.02391275018453598 0.044058576226234436 -0.036741625517606735
			vertex -0.026396922767162323 0.04863562062382698 -0.036741625517606735
			vertex -0.02639733999967575 0.04873695969581604 -0.036741625517606735
		endloop
	endfacet
	facet normal 0 0 -1
		outer loop
			vertex -0.02391275018453598 0.044058576226234436 -0.036741625517606735
			vertex -0.02639733999967575 0.04873695969581604 -0.036741625517606735
			vertex -0.02159438282251358 0.05677380785346031 -0.036741625517606735
		endloop
	endfacet
	facet normal 0 0 -1
		outer loop
			vertex -0.026324503123760223 0.030831187963485718 -0.036741625517606735
			vertex -0.026396922767162323 0.04863562062382698 -0.036741625517606735
			vertex -0.02391275018453598 0.044058576226234436 -0.036741625517606735
		endloop
	endfacet
	facet normal 0 0 -1
		outer loop
			vertex -0.0034182677045464516 0.08853017538785934 -0.036741625517606735
			vertex 0.016827963292598724 0.09553893655538559 -0.036741625517606735
			vertex -0.0064802030101418495 0.07375866174697876 -0.036741625517606735
		endloop
	endfacet
	facet normal 0 0 -1
		outer loop
			vertex 0.02900686115026474 -0.053444359451532364 -0.036741625517606735
			vertex -0.02391275018453598 0.044058576226234436 -0.036741625517606735
			vertex -0.020965494215488434 0.06022290885448456 -0.036741625517606735
		endloop
	endfacet
	facet normal 0 0 -1
		outer loop
			vertex 0.02900686115026474 -0.053444359451532364 -0.036741625517606735
			vertex -0.020965494215488434 0.06022290885448456 -0.036741625517606735
			vertex 0.016827963292598724 0.09553893655538559 -0.036741625517606735
		endloop
	endfacet
	facet normal 0 0 -1
		outer loop
			vertex 0.02900686115026474 -0.053444359451532364 -0.036741625517606735
			vertex 0.016827963292598724 0.09553893655538559 -0.036741625517606735
			vertex 0.02250685542821884 0.09750483930110931 -0.036741625517606735
		endloop
	endfacet
	facet normal 0 0 -1
		outer loop
			vertex 0.018435485661029816 -0.1023595854640007 -0.036741625517606735
			vertex -0.025782637298107147 -0.1023595854640007 -0.036741625517606735
			vertex -0.026324503123760223 0.030831187963485718 -0.036741625517606735
		endloop
	endfacet
	facet normal 0 0 -1
		outer loop
			vertex 0.018435485661029816 -0.1023595854640007 -0.036741625517606735
			vertex -0.026324503123760223 0.030831187963485718 -0.036741625517606735
			vertex -0.02391275018453598 0.044058576226234436 -0.036741625517606735
		endloop
	endfacet
	facet normal 0 0 -1
		outer loop
			vertex 0.018435485661029816 -0.1023595854640007 -0.036741625517606735
			vertex -0.02391275018453598 0.044058576226234436 -0.036741625517606735
			vertex 0.02900686115026474 -0.053444359451532364 -0.036741625517606735
		endloop
	endfacet
	facet normal 0 0 -1
		outer loop
			vertex 0.018435485661029816 -0.1023595854640007 -0.036741625517606735
			vertex 0.02900686115026474 -0.053444359451532364 -0.036741625517606735
			vertex 0.030218809843063354 -0.08158928900957108 -0.036741625517606735
		endloop
	endfacet
	facet normal 0 0 -1
		outer loop
			vertex 0.03111319988965988 -0.1023595854640007 -0.036741625517606735
			vertex 0.018435485661029816 -0.1023595854640007 -0.036741625517606735
			vertex 0.030218809843063354 -0.08158928900957108 -0.036741625517606735
		endloop
	endfacet
	facet normal 0 0 -1
		outer loop
			vertex 0.04389335960149765 -0.0808723121881485 -0.036741625517606735
			vertex 0.02900686115026474 -0.053444359451532364 -0.036741625517606735
			vertex 0.02229781448841095 0.1023595854640007 -0.036741625517606735
		endloop
	endfacet
	facet normal 0 0 -1
		outer loop
			vertex 0.04389335960149765 -0.0808723121881485 -0.036741625517606735
			vertex 0.02229781448841095 0.1023595854640007 -0.036741625517606735
			vertex 0.025570198893547058 0.1023595854640007 -0.036741625517606735
		endloop
	endfacet
	facet normal 0 0 -1
		outer loop
			vertex 0.04604208469390869 -0.1023595854640007 -0.036741625517606735
			vertex 0.03111319988965988 -0.1023595854640007 -0.036741625517606735
			vertex 0.02900686115026474 -0.053444359451532364 -0.036741625517606735
		endloop
	endfacet
	facet normal 0 0 -1
		outer loop
			vertex 0.04604208469390869 -0.1023595854640007 -0.036741625517606735
			vertex 0.02900686115026474 -0.053444359451532364 -0.036741625517606735
			vertex 0.04389335960149765 -0.0808723121881485 -0.036741625517606735
		endloop
	endfacet
	facet normal 0 0 -1
		outer loop
			vertex 0.0555555522441864 -0.10149729996919632 -0.036741625517606735
			vertex 0.0555555522441864 -0.1023595854640007 -0.036741625517606735
			vertex 0.05490320920944214 -0.10115765780210495 -0.036741625517606735
		endloop
	endfacet
	facet normal 0 0 -1
		outer loop
			vertex 0.0555555522441864 -0.1023595854640007 -0.036741625517606735
			vertex 0.04604208469390869 -0.1023595854640007 -0.036741625517606735
			vertex 0.04542860388755798 -0.09622476249933243 -0.036741625517606735
		endloop
	endfacet
	facet normal 0 0 -1
		outer loop
			vertex 0.0555555522441864 -0.1023595854640007 -0.036741625517606735
			vertex 0.04542860388755798 -0.09622476249933243 -0.036741625517606735
			vertex 0.05490320920944214 -0.10115765780210495 -0.036741625517606735
		endloop
	endfacet
	facet normal 0 0 -1
		outer loop
			vertex 0.0555555522441864 0.1023595854640007 -0.036741625517606735
			vertex 0.0555555522441864 0.058287184685468674 -0.036741625517606735
			vertex 0.028690025210380554 0.07116123288869858 -0.036741625517606735
		endloop
	endfacet
	facet normal 0 0 -1
		outer loop
			vertex 0.0555555522441864 0.1023595854640007 -0.036741625517606735
			vertex 0.028690025210380554 0.07116123288869858 -0.036741625517606735
			vertex 0.025570198893547058 0.1023595854640007 -0.036741625517606735
		endloop
	endfacet
	facet normal 0 0 -1
		outer loop
			vertex 0.0555555522441864 0.058287184685468674 -0.036741625517606735
			vertex 0.0555555522441864 -0.02639791928231716 -0.036741625517606735
			vertex 0.03803247958421707 -0.02226339839398861 -0.036741625517606735
		endloop
	endfacet
	facet normal 0 0 -1
		outer loop
			vertex 0.0555555522441864 0.058287184685468674 -0.036741625517606735
			vertex 0.03803247958421707 -0.02226339839398861 -0.036741625517606735
			vertex 0.028690025210380554 0.07116123288869858 -0.036741625517606735
		endloop
	endfacet
	facet normal 0 0 -1
		outer loop
			vertex 0.0555555522441864 -0.07667948305606842 -0.036741625517606735
			vertex 0.0555555522441864 -0.10149729996919632 -0.036741625517606735
			vertex 0.05490320920944214 -0.10115765780210495 -0.036741625517606735
		endloop
	endfacet
	facet normal 0 0 -1
		outer loop
			vertex 0.0555555522441864 -0.07667948305606842 -0.036741625517606735
			vertex 0.05490320920944214 -0.10115765780210495 -0.036741625517606735
			vertex 0.04389335960149765 -0.0808723121881485 -0.036741625517606735
		endloop
	endfacet
	facet normal 0 0 -1
		outer loop
			vertex 0.0555555522441864 -0.07667948305606842 -0.036741625517606735
			vertex 0.04389335960149765 -0.0808723121881485 -0.036741625517606735
			vertex 0.04336746782064438 -0.07561339437961578 -0.036741625517606735
		endloop
	endfacet
	facet normal 0 0 -1
		outer loop
			vertex 0.04542860388755798 -0.09622476249933243 -0.036741625517606735
			vertex 0.04389335960149765 -0.0808723121881485 -0.036741625517606735
			vertex 0.05490320920944214 -0.10115765780210495 -0.036741625517606735
		endloop
	endfacet
	facet normal 0 0 -1
		outer loop
			vertex 0.0555555522441864 -0.02639791928231716 -0.036741625517606735
			vertex 0.0555555522441864 -0.07667948305606842 -0.036741625517606735
			vertex 0.04336746782064438 -0.07561339437961578 -0.036741625517606735
		endloop
	endfacet
	facet normal 0 0 -1
		outer loop
			vertex 0.0555555522441864 -0.02639791928231716 -0.036741625517606735
			vertex 0.04336746782064438 -0.07561339437961578 -0.036741625517606735
			vertex 0.03803247958421707 -0.02226339839398861 -0.036741625517606735
		endloop
	endfacet
endsolid exported
