solid exported
	facet normal -0.27859381817397605 -0.7380323630380023 0.6145679096599398
		outer loop
			vertex -0.055555559694767 -0.009077421389520168 -0.028091706335544586
			vertex -0.03060152381658554 -0.0042897374369204044 -0.011030116118490696
			vertex -0.03045784682035446 -0.0029731602407991886 -0.009383912198245525
		endloop
	endfacet
	facet normal -0.27858944451336615 -0.7380375032903747 0.6145637193510892
		outer loop
			vertex -0.055555559694767 -0.009077421389520168 -0.028091706335544586
			vertex -0.03045784682035446 -0.0029731602407991886 -0.009383912198245525
			vertex -0.055555559694767 0.00033206629450432956 -0.016791731119155884
		endloop
	endfacet
	facet normal -0.43775778960520106 -0.4636031111863824 0.7703507466980708
		outer loop
			vertex -0.03557444363832474 -0.042317844927310944 -0.036741629242897034
			vertex -0.03060152381658554 -0.0042897374369204044 -0.011030116118490696
			vertex -0.055555559694767 -0.009077421389520168 -0.028091706335544586
		endloop
	endfacet
	facet normal -0.4377573841990497 -0.4636029523209865 0.7703510726795095
		outer loop
			vertex -0.03557444363832474 -0.042317844927310944 -0.036741629242897034
			vertex -0.055555559694767 -0.009077421389520168 -0.028091706335544586
			vertex -0.055555559694767 -0.023450663313269615 -0.036741629242897034
		endloop
	endfacet
	facet normal -0.8102052201052582 -0.034888693738615285 0.5851070674358696
		outer loop
			vertex -0.03321360796689987 -0.045600078999996185 -0.036741629242897034
			vertex -0.032966144382953644 -0.04405859857797623 -0.03630704805254936
			vertex -0.03326087445020676 -0.04450242966413498 -0.036741629242897034
		endloop
	endfacet
	facet normal -0.2786002037024972 -0.7380222533818805 0.6145771554573587
		outer loop
			vertex -0.03060152381658554 -0.0042897374369204044 -0.011030116118490696
			vertex -0.026976697146892548 -0.0035942704416811466 -0.008551749400794506
			vertex -0.026955880224704742 -0.0034343511797487736 -0.008350271731615067
		endloop
	endfacet
	facet normal -0.2785911196908996 -0.7380330921857914 0.6145682572896604
		outer loop
			vertex -0.03060152381658554 -0.0042897374369204044 -0.011030116118490696
			vertex -0.026955880224704742 -0.0034343511797487736 -0.008350271731615067
			vertex -0.03045784682035446 -0.0029731602407991886 -0.009383912198245525
		endloop
	endfacet
	facet normal -0.43775657954353187 -0.46360355411675 0.770351167764848
		outer loop
			vertex -0.026976697146892548 -0.0035942704416811466 -0.008551749400794506
			vertex -0.03060152381658554 -0.0042897374369204044 -0.011030116118490696
			vertex -0.03557444363832474 -0.042317844927310944 -0.036741629242897034
		endloop
	endfacet
	facet normal -0.437756919234478 -0.4636034039580116 0.7703510651001163
		outer loop
			vertex -0.026976697146892548 -0.0035942704416811466 -0.008551749400794506
			vertex -0.03557444363832474 -0.042317844927310944 -0.036741629242897034
			vertex -0.03326087445020676 -0.04450242966413498 -0.036741629242897034
		endloop
	endfacet
	facet normal -0.43775082055250986 -0.4636057542679341 0.7703531162494668
		outer loop
			vertex -0.026976697146892548 -0.0035942704416811466 -0.008551749400794506
			vertex -0.03326087445020676 -0.04450242966413498 -0.036741629242897034
			vertex -0.032966144382953644 -0.04405859857797623 -0.03630704805254936
		endloop
	endfacet
	facet normal -0.810206315897078 -0.03488818810747569 0.5851055802255366
		outer loop
			vertex -0.010555715300142765 -0.03336062282323837 -0.004637027624994516
			vertex -0.0041754404082894325 -0.004168665502220392 0.005938488524407148
			vertex -0.006825500167906284 -0.004693856928497553 0.0022375870030373335
		endloop
	endfacet
	facet normal -0.8102063144205203 -0.034888188780311254 0.5851055822300333
		outer loop
			vertex -0.010555715300142765 -0.03336062282323837 -0.004637027624994516
			vertex -0.006825500167906284 -0.004693856928497553 0.0022375870030373335
			vertex -0.022453345358371735 -0.028227543458342552 -0.02080582082271576
		endloop
	endfacet
	facet normal -0.9441611106652695 0.17214870625388437 0.2809352595215464
		outer loop
			vertex -0.009368629194796085 -0.03951510041952133 0.011386935599148273
			vertex -0.003760457970201969 -0.003578505013138056 0.008213886991143227
			vertex -0.004849621094763279 -0.004302284214645624 0.004996961448341608
		endloop
	endfacet
	facet normal -0.9441603161304636 0.17214905056327356 0.2809377187822715
		outer loop
			vertex -0.009368629194796085 -0.03951510041952133 0.011386935599148273
			vertex -0.004849621094763279 -0.004302284214645624 0.004996961448341608
			vertex -0.014202126301825047 -0.031787432730197906 -0.009592471644282341
		endloop
	endfacet
	facet normal -0.2785922320881186 -0.7380244780323441 0.6145780975964291
		outer loop
			vertex -0.026976697146892548 -0.0035942704416811466 -0.008551749400794506
			vertex -0.026473991572856903 -0.0034978152252733707 -0.00820804014801979
			vertex -0.026955880224704742 -0.0034343511797487736 -0.008350271731615067
		endloop
	endfacet
	facet normal -0.43775166041716135 -0.46360554600168047 0.770352764334952
		outer loop
			vertex -0.026473991572856903 -0.0034978152252733707 -0.00820804014801979
			vertex -0.026976697146892548 -0.0035942704416811466 -0.008551749400794506
			vertex -0.030505351722240448 -0.02743360958993435 -0.024903640151023865
		endloop
	endfacet
	facet normal -0.43775777816047334 -0.4636031123438361 0.7703507525050616
		outer loop
			vertex -0.026473991572856903 -0.0034978152252733707 -0.00820804014801979
			vertex -0.030505351722240448 -0.02743360958993435 -0.024903640151023865
			vertex -0.022453345358371735 -0.028227543458342552 -0.02080582082271576
		endloop
	endfacet
	facet normal -0.4377579954060473 -0.4636030912443982 0.7703506417513506
		outer loop
			vertex -0.026473991572856903 -0.0034978152252733707 -0.00820804014801979
			vertex -0.022453345358371735 -0.028227543458342552 -0.02080582082271576
			vertex -0.006825500167906284 -0.004693856928497553 0.0022375870030373335
		endloop
	endfacet
	facet normal -0.7735103880775557 0.1745091503888636 0.6092850203038527
		outer loop
			vertex 0.01185698714107275 -0.033956654369831085 0.036741629242897034
			vertex -0.008316540159285069 -0.03277341276407242 0.010791673325002193
			vertex -0.009368629194796085 -0.03951510041952133 0.011386935599148273
		endloop
	endfacet
	facet normal -0.77351038258589 0.1745093225781038 0.6092849779579025
		outer loop
			vertex 0.01185698714107275 -0.033956654369831085 0.036741629242897034
			vertex -0.009368629194796085 -0.03951510041952133 0.011386935599148273
			vertex 0.008775337599217892 -0.04761602729558945 0.036741629242897034
		endloop
	endfacet
	facet normal -0.7735107907003943 0.1745090143128991 0.6092845481329651
		outer loop
			vertex 0.01185698714107275 -0.033956654369831085 0.036741629242897034
			vertex 0.015011644922196865 -0.019973641261458397 0.036741629242897034
			vertex 0.0003691531019285321 -0.0029694498516619205 0.013282130472362041
		endloop
	endfacet
	facet normal -0.7735096839975746 0.17451022562517562 0.6092856061932062
		outer loop
			vertex 0.01185698714107275 -0.033956654369831085 0.036741629242897034
			vertex 0.0003691531019285321 -0.0029694498516619205 0.013282130472362041
			vertex -0.003760457970201969 -0.003578505013138056 0.008213886991143227
		endloop
	endfacet
	facet normal -0.7735103614204314 0.17450931473613437 0.6092850070743236
		outer loop
			vertex 0.01185698714107275 -0.033956654369831085 0.036741629242897034
			vertex -0.003760457970201969 -0.003578505013138056 0.008213886991143227
			vertex -0.008316540159285069 -0.03277341276407242 0.010791673325002193
		endloop
	endfacet
	facet normal -0.8137149825347723 0.09128089246355342 0.5740520236611769
		outer loop
			vertex 0.017289571464061737 0.00033272194559685886 0.036741629242897034
			vertex 0.0003691531019285321 -0.0029694498516619205 0.013282130472362041
			vertex 0.015011644922196865 -0.019973641261458397 0.036741629242897034
		endloop
	endfacet
	facet normal 0.8471519350346749 0.007320941862579787 -0.5313002943508038
		outer loop
			vertex -0.0041754404082894325 -0.004168665502220392 0.005938488524407148
			vertex -0.010555715300142765 -0.03336062282323837 -0.004637027624994516
			vertex -0.014504530467092991 -0.031303949654102325 -0.010905026458203793
		endloop
	endfacet
	facet normal 0.8471530274394383 0.007319457535947692 -0.5312985729715203
		outer loop
			vertex -0.0041754404082894325 -0.004168665502220392 0.005938488524407148
			vertex -0.014504530467092991 -0.031303949654102325 -0.010905026458203793
			vertex -0.004949853755533695 -0.004368892405182123 0.004700931720435619
		endloop
	endfacet
	facet normal 1 0 0
		outer loop
			vertex 0.0555555522441864 -0.00808951910585165 0.036741629242897034
			vertex 0.0555555522441864 -0.04290715605020523 0.036741629242897034
			vertex 0.0555555522441864 -0.03318537026643753 0.011911778710782528
		endloop
	endfacet
	facet normal 1 0 0
		outer loop
			vertex 0.0555555522441864 -0.00808951910585165 0.036741629242897034
			vertex 0.0555555522441864 -0.03318537026643753 0.011911778710782528
			vertex 0.0555555522441864 -0.017240440472960472 0.006188399624079466
		endloop
	endfacet
	facet normal 1 0 0
		outer loop
			vertex 0.0555555522441864 -0.02317993901669979 -0.013642486184835434
			vertex 0.0555555522441864 -0.017240440472960472 0.006188399624079466
			vertex 0.0555555522441864 -0.03318537026643753 0.011911778710782528
		endloop
	endfacet
	facet normal -0.9441581590022772 0.17214133831876263 0.2809496937732022
		outer loop
			vertex -0.004849621094763279 -0.004302284214645624 0.004996961448341608
			vertex -0.004949853755533695 -0.004368892405182123 0.004700931720435619
			vertex -0.014504530467092991 -0.031303949654102325 -0.010905026458203793
		endloop
	endfacet
	facet normal -0.9441599728698344 0.17214796992111966 0.2809395345665519
		outer loop
			vertex -0.004849621094763279 -0.004302284214645624 0.004996961448341608
			vertex -0.014504530467092991 -0.031303949654102325 -0.010905026458203793
			vertex -0.014202126301825047 -0.031787432730197906 -0.009592471644282341
		endloop
	endfacet
	facet normal -0.8102064192165429 -0.034888004522358435 0.585105448103806
		outer loop
			vertex -0.032623834908008575 -0.05929633229970932 -0.036741629242897034
			vertex -0.015176692046225071 -0.05450316518545151 -0.012296443805098534
			vertex -0.010555715300142765 -0.03336062282323837 -0.004637027624994516
		endloop
	endfacet
	facet normal -0.8102063206452991 -0.03488823997463095 0.5851055705578948
		outer loop
			vertex -0.032623834908008575 -0.05929633229970932 -0.036741629242897034
			vertex -0.010555715300142765 -0.03336062282323837 -0.004637027624994516
			vertex -0.022453345358371735 -0.028227543458342552 -0.02080582082271576
		endloop
	endfacet
	facet normal -0.8102063560701466 -0.034888204308486936 0.5851055236311349
		outer loop
			vertex -0.032623834908008575 -0.05929633229970932 -0.036741629242897034
			vertex -0.022453345358371735 -0.028227543458342552 -0.02080582082271576
			vertex -0.032966144382953644 -0.04405859857797623 -0.03630704805254936
		endloop
	endfacet
	facet normal -0.8102061158885699 -0.03488820839127196 0.5851058559713825
		outer loop
			vertex -0.032623834908008575 -0.05929633229970932 -0.036741629242897034
			vertex -0.032966144382953644 -0.04405859857797623 -0.03630704805254936
			vertex -0.03321360796689987 -0.045600078999996185 -0.036741629242897034
		endloop
	endfacet
	facet normal -0.9441605124137298 0.17214849298547355 0.28093740078792245
		outer loop
			vertex -0.031605981290340424 -0.0829339399933815 -0.036741629242897034
			vertex -0.03514785319566727 -0.1023595854640007 -0.036741629242897034
			vertex -0.01917598396539688 -0.1023595854640007 0.016935838386416435
		endloop
	endfacet
	facet normal -0.9441603932595716 0.1721489321531654 0.28093753212850775
		outer loop
			vertex -0.031605981290340424 -0.0829339399933815 -0.036741629242897034
			vertex -0.01917598396539688 -0.1023595854640007 0.016935838386416435
			vertex -0.009368629194796085 -0.03951510041952133 0.011386935599148273
		endloop
	endfacet
	facet normal -0.9441603835442569 0.17214880381002437 0.2809376434234819
		outer loop
			vertex -0.031605981290340424 -0.0829339399933815 -0.036741629242897034
			vertex -0.009368629194796085 -0.03951510041952133 0.011386935599148273
			vertex -0.014202126301825047 -0.031787432730197906 -0.009592471644282341
		endloop
	endfacet
	facet normal -0.43775780670728354 -0.4636029351282783 0.7703508429327992
		outer loop
			vertex -0.030505351722240448 -0.02743360958993435 -0.024903640151023865
			vertex -0.032966144382953644 -0.04405859857797623 -0.03630704805254936
			vertex -0.022453345358371735 -0.028227543458342552 -0.02080582082271576
		endloop
	endfacet
	facet normal -0.7735103495214554 0.17450943090523974 0.609284988907757
		outer loop
			vertex 0.008775337599217892 -0.04761602729558945 0.036741629242897034
			vertex -0.009368629194796085 -0.03951510041952133 0.011386935599148273
			vertex -0.016386859118938446 -0.08448716253042221 0.01535777933895588
		endloop
	endfacet
	facet normal -0.7735103641304143 0.17450945575988092 0.6092849632423439
		outer loop
			vertex 0.008775337599217892 -0.04761602729558945 0.036741629242897034
			vertex -0.016386859118938446 -0.08448716253042221 0.01535777933895588
			vertex 0.0009499556617811322 -0.08230190724134445 0.036741629242897034
		endloop
	endfacet
	facet normal -0.7735100310098183 0.17450956591790645 0.6092853546002349
		outer loop
			vertex -0.003575199283659458 -0.1023595854640007 0.036741629242897034
			vertex -0.002534479834139347 -0.09774661809206009 0.036741629242897034
			vertex -0.0047653475776314735 -0.1023595854640007 0.035230692476034164
		endloop
	endfacet
	facet normal -0.7735096951948662 0.17450923260571996 0.609285876395398
		outer loop
			vertex -0.0047653475776314735 -0.1023595854640007 0.035230692476034164
			vertex -0.002534479834139347 -0.09774661809206009 0.036741629242897034
			vertex 0.0009499556617811322 -0.08230190724134445 0.036741629242897034
		endloop
	endfacet
	facet normal -0.7735103609593559 0.17450949156769052 0.6092849570121629
		outer loop
			vertex -0.0047653475776314735 -0.1023595854640007 0.035230692476034164
			vertex 0.0009499556617811322 -0.08230190724134445 0.036741629242897034
			vertex -0.016386859118938446 -0.08448716253042221 0.01535777933895588
		endloop
	endfacet
	facet normal -0.7735104572015803 0.1745093410600651 0.6092848779369009
		outer loop
			vertex -0.0047653475776314735 -0.1023595854640007 0.035230692476034164
			vertex -0.016386859118938446 -0.08448716253042221 0.01535777933895588
			vertex -0.01917598396539688 -0.1023595854640007 0.016935838386416435
		endloop
	endfacet
	facet normal -0.6769336685828947 0.14031977074711374 0.7225449261301204
		outer loop
			vertex -0.0004085161490365863 -0.10166925936937332 0.036741629242897034
			vertex -0.0007339053554460406 -0.1023595854640007 0.03657084330916405
			vertex -0.0005516119999811053 -0.1023595854640007 0.036741629242897034
		endloop
	endfacet
	facet normal 0.6959035415110223 -0.46368533510398335 0.5483741158387434
		outer loop
			vertex -0.0008684851927682757 -0.1023595854640007 0.036741629242897034
			vertex -0.0007339053554460406 -0.1023595854640007 0.03657084330916405
			vertex -0.0004085161490365863 -0.10166925936937332 0.036741629242897034
		endloop
	endfacet
	facet normal -0.8037958771064494 -0.08037963842815034 0.5894499992983574
		outer loop
			vertex -0.03026222437620163 -0.08291242271661758 -0.036741629242897034
			vertex -0.015176692046225071 -0.05450316518545151 -0.012296443805098534
			vertex -0.032623834908008575 -0.05929633229970932 -0.036741629242897034
		endloop
	endfacet
	facet normal -0.9441609954300042 0.17215098658531483 0.28093424947187634
		outer loop
			vertex -0.030736781656742096 -0.07816682010889053 -0.036741629242897034
			vertex -0.031605981290340424 -0.0829339399933815 -0.036741629242897034
			vertex -0.0226282998919487 -0.056550316512584686 -0.022736893966794014
		endloop
	endfacet
	facet normal 0.8471524901593496 0.007320377600344112 -0.5312994169850007
		outer loop
			vertex -0.010555715300142765 -0.03336062282323837 -0.004637027624994516
			vertex -0.015176692046225071 -0.05450316518545151 -0.012296443805098534
			vertex -0.03026222437620163 -0.08291242271661758 -0.036741629242897034
		endloop
	endfacet
	facet normal 0.8471518251796739 0.007321320610961807 -0.5313004642942248
		outer loop
			vertex -0.010555715300142765 -0.03336062282323837 -0.004637027624994516
			vertex -0.03026222437620163 -0.08291242271661758 -0.036741629242897034
			vertex -0.030322857201099396 -0.07589658349752426 -0.036741629242897034
		endloop
	endfacet
	facet normal 0.8471519576499171 0.0073211019017602194 -0.5313002560858195
		outer loop
			vertex -0.010555715300142765 -0.03336062282323837 -0.004637027624994516
			vertex -0.030322857201099396 -0.07589658349752426 -0.036741629242897034
			vertex -0.014504530467092991 -0.031303949654102325 -0.010905026458203793
		endloop
	endfacet
	facet normal 1 0 0
		outer loop
			vertex 0.0555555522441864 -0.05326249450445175 0.019118396565318108
			vertex 0.0555555522441864 -0.03318537026643753 0.011911778710782528
			vertex 0.0555555522441864 -0.040695108473300934 0.03109194152057171
		endloop
	endfacet
	facet normal 1 0 0
		outer loop
			vertex 0.0555555522441864 -0.1023595854640007 -0.027658678591251373
			vertex 0.0555555522441864 -0.1023595854640007 -0.036741629242897034
			vertex 0.0555555522441864 -0.030098309740424156 -0.036741629242897034
		endloop
	endfacet
	facet normal 1 0 0
		outer loop
			vertex 0.0555555522441864 -0.1023595854640007 -0.027658678591251373
			vertex 0.0555555522441864 -0.030098309740424156 -0.036741629242897034
			vertex 0.0555555522441864 -0.02317993901669979 -0.013642486184835434
		endloop
	endfacet
	facet normal 1 0 0
		outer loop
			vertex 0.0555555522441864 -0.1023595854640007 -0.027658678591251373
			vertex 0.0555555522441864 -0.02317993901669979 -0.013642486184835434
			vertex 0.0555555522441864 -0.03318537026643753 0.011911778710782528
		endloop
	endfacet
	facet normal 1 0 0
		outer loop
			vertex 0.0555555522441864 -0.1023595854640007 -0.027658678591251373
			vertex 0.0555555522441864 -0.03318537026643753 0.011911778710782528
			vertex 0.0555555522441864 -0.05326249450445175 0.019118396565318108
		endloop
	endfacet
	facet normal 1 0 0
		outer loop
			vertex 0.0555555522441864 -0.04290715605020523 0.036741629242897034
			vertex 0.0555555522441864 -0.1023595854640007 0.036741629242897034
			vertex 0.0555555522441864 -0.05326249450445175 0.019118396565318108
		endloop
	endfacet
	facet normal 1 0 0
		outer loop
			vertex 0.0555555522441864 -0.04290715605020523 0.036741629242897034
			vertex 0.0555555522441864 -0.05326249450445175 0.019118396565318108
			vertex 0.0555555522441864 -0.040695108473300934 0.03109194152057171
		endloop
	endfacet
	facet normal 1 0 0
		outer loop
			vertex 0.0555555522441864 -0.1023595854640007 0.036741629242897034
			vertex 0.0555555522441864 -0.1023595854640007 -0.027658678591251373
			vertex 0.0555555522441864 -0.05326249450445175 0.019118396565318108
		endloop
	endfacet
	facet normal -0.9441596745446372 0.17214539549271055 0.28094211463293106
		outer loop
			vertex -0.030322857201099396 -0.07589658349752426 -0.036741629242897034
			vertex -0.030736781656742096 -0.07816682010889053 -0.036741629242897034
			vertex -0.0226282998919487 -0.056550316512584686 -0.022736893966794014
		endloop
	endfacet
	facet normal -0.9441601403309033 0.17214776493003603 0.28093909738575357
		outer loop
			vertex -0.030322857201099396 -0.07589658349752426 -0.036741629242897034
			vertex -0.0226282998919487 -0.056550316512584686 -0.022736893966794014
			vertex -0.014202126301825047 -0.031787432730197906 -0.009592471644282341
		endloop
	endfacet
	facet normal -0.9441600864258096 0.17214755427680464 0.28093940762542124
		outer loop
			vertex -0.030322857201099396 -0.07589658349752426 -0.036741629242897034
			vertex -0.014202126301825047 -0.031787432730197906 -0.009592471644282341
			vertex -0.014504530467092991 -0.031303949654102325 -0.010905026458203793
		endloop
	endfacet
	facet normal -0.8102063872547204 -0.03488744428630946 0.5851055257667833
		outer loop
			vertex -0.0041754404082894325 -0.004168665502220392 0.005938488524407148
			vertex -0.0030464092269539833 0.0009970157407224178 0.007809887174516916
			vertex -0.006825500167906284 -0.004693856928497553 0.0022375870030373335
		endloop
	endfacet
	facet normal 0 1 0
		outer loop
			vertex 0.013496740721166134 0.10202724486589432 0.036741629242897034
			vertex -0.017907820641994476 0.10202724486589432 -0.006744819227606058
			vertex 0.004882334731519222 0.10202724486589432 0.036741629242897034
		endloop
	endfacet
	facet normal 0 1 0
		outer loop
			vertex -0.055555559694767 0.10202724486589432 -0.036741629242897034
			vertex -0.055555559694767 0.10202724486589432 0.036741629242897034
			vertex 0.004882334731519222 0.10202724486589432 0.036741629242897034
		endloop
	endfacet
	facet normal 0 1 0
		outer loop
			vertex -0.055555559694767 0.10202724486589432 -0.036741629242897034
			vertex 0.004882334731519222 0.10202724486589432 0.036741629242897034
			vertex -0.017907820641994476 0.10202724486589432 -0.006744819227606058
		endloop
	endfacet
	facet normal 0 1 0
		outer loop
			vertex -0.055555559694767 0.10202724486589432 -0.036741629242897034
			vertex -0.017907820641994476 0.10202724486589432 -0.006744819227606058
			vertex -0.03957056254148483 0.10202724486589432 -0.036741629242897034
		endloop
	endfacet
	facet normal -0.9441610033282746 0.1721497302266729 0.28093499279553963
		outer loop
			vertex -0.003760457970201969 -0.003578505013138056 0.008213886991143227
			vertex -0.0030464092269539833 0.0009970157407224178 0.007809887174516916
			vertex -0.004849621094763279 -0.004302284214645624 0.004996961448341608
		endloop
	endfacet
	facet normal -0.27858951334160614 -0.7380376677796954 0.6145634906129677
		outer loop
			vertex -0.055555559694767 0.00033206629450432956 -0.016791731119155884
			vertex -0.026473991572856903 -0.0034978152252733707 -0.00820804014801979
			vertex -0.0030464092269539833 0.0009970157407224178 0.007809887174516916
		endloop
	endfacet
	facet normal -0.27858959510802933 -0.738037495470079 0.6145636604761118
		outer loop
			vertex -0.055555559694767 0.00033206629450432956 -0.016791731119155884
			vertex -0.0030464092269539833 0.0009970157407224178 0.007809887174516916
			vertex -0.055555559694767 0.01831553317606449 0.004804848227649927
		endloop
	endfacet
	facet normal -0.43775821411178373 -0.46360199199024965 0.7703511790088561
		outer loop
			vertex -0.0030464092269539833 0.0009970157407224178 0.007809887174516916
			vertex -0.026473991572856903 -0.0034978152252733707 -0.00820804014801979
			vertex -0.006825500167906284 -0.004693856928497553 0.0022375870030373335
		endloop
	endfacet
	facet normal -0.2639845927945085 -0.682055888777758 0.6819911284985314
		outer loop
			vertex -0.055555559694767 0.04208465665578842 0.028576228767633438
			vertex -0.055555559694767 0.01831553317606449 0.004804848227649927
			vertex -0.0030464092269539833 0.0009970157407224178 0.007809887174516916
		endloop
	endfacet
	facet normal 0.03868604885903794 -0.9986779868454994 0.033847720955726746
		outer loop
			vertex -0.055555559694767 0.04746229201555252 0.036741629242897034
			vertex -0.055555559694767 0.04736451059579849 0.0338565856218338
			vertex -0.04900997132062912 0.04771585017442703 0.036741629242897034
		endloop
	endfacet
	facet normal -0.14856651535136414 -0.7904627872302895 0.5942192966577872
		outer loop
			vertex -0.04392070323228836 0.047913022339344025 0.036741629242897034
			vertex -0.055555559694767 0.04733777791261673 0.03306746482849121
			vertex -0.055555559694767 0.046046413481235504 0.03134962171316147
		endloop
	endfacet
	facet normal -0.14856631668054024 -0.7904630725754911 0.5942189667475212
		outer loop
			vertex -0.04392070323228836 0.047913022339344025 0.036741629242897034
			vertex -0.055555559694767 0.046046413481235504 0.03134962171316147
			vertex 0.011153808794915676 0.03570183366537094 0.034267328679561615
		endloop
	endfacet
	facet normal -0.1485672245153136 -0.7904662615086432 0.5942144976490945
		outer loop
			vertex -0.04392070323228836 0.047913022339344025 0.036741629242897034
			vertex 0.011153808794915676 0.03570183366537094 0.034267328679561615
			vertex 0.01219355221837759 0.037366412580013275 0.036741629242897034
		endloop
	endfacet
	facet normal -0.12380072254613653 -0.5690732258734472 0.8129139220674246
		outer loop
			vertex 0.011153808794915676 0.03570183366537094 0.034267328679561615
			vertex -0.055555559694767 0.046046413481235504 0.03134962171316147
			vertex -0.055555559694767 0.04208465665578842 0.028576228767633438
		endloop
	endfacet
	facet normal -0.123800750616374 -0.5690740166293049 0.8129133642302925
		outer loop
			vertex 0.011153808794915676 0.03570183366537094 0.034267328679561615
			vertex -0.055555559694767 0.04208465665578842 0.028576228767633438
			vertex -0.0030464092269539833 0.0009970157407224178 0.007809887174516916
		endloop
	endfacet
	facet normal 0.03869309591809202 -0.9986782544909956 0.03383176517848152
		outer loop
			vertex -0.04900997132062912 0.04771585017442703 0.036741629242897034
			vertex -0.055555559694767 0.04736451059579849 0.0338565856218338
			vertex -0.055555559694767 0.04733777791261673 0.03306746482849121
		endloop
	endfacet
	facet normal 0.038691525659057854 -0.9986782206746013 0.03383455914279012
		outer loop
			vertex -0.04900997132062912 0.04771585017442703 0.036741629242897034
			vertex -0.055555559694767 0.04733777791261673 0.03306746482849121
			vertex -0.04392070323228836 0.047913022339344025 0.036741629242897034
		endloop
	endfacet
	facet normal -0.7735100912285957 0.1745085857988483 0.6092855588720413
		outer loop
			vertex 0.0003691531019285321 -0.0029694498516619205 0.013282130472362041
			vertex -0.0007988818688318133 -0.0016130120493471622 0.01141076348721981
			vertex -0.0028402889147400856 -0.003442800138145685 0.009343202225863934
		endloop
	endfacet
	facet normal -0.8137149951870142 0.09127940969502507 0.5740522415020478
		outer loop
			vertex -0.0007988818688318133 -0.0016130120493471622 0.01141076348721981
			vertex 0.0003691531019285321 -0.0029694498516619205 0.013282130472362041
			vertex 0.017289571464061737 0.00033272194559685886 0.036741629242897034
		endloop
	endfacet
	facet normal -0.8137149555370682 0.09128043792015494 0.5740521342076973
		outer loop
			vertex -0.0007988818688318133 -0.0016130120493471622 0.01141076348721981
			vertex 0.017289571464061737 0.00033272194559685886 0.036741629242897034
			vertex 0.017713181674480438 0.004108974244445562 0.036741629242897034
		endloop
	endfacet
	facet normal -0.8137148906553026 0.09127835383645591 0.5740525575648417
		outer loop
			vertex -0.0007988818688318133 -0.0016130120493471622 0.01141076348721981
			vertex 0.017713181674480438 0.004108974244445562 0.036741629242897034
			vertex 0.0023383190855383873 0.0018042116425931454 0.015314358286559582
		endloop
	endfacet
	facet normal -0.7735099133975699 0.17451017829437132 0.6092853285180522
		outer loop
			vertex -0.0007988818688318133 -0.0016130120493471622 0.01141076348721981
			vertex -0.0030464092269539833 0.0009970157407224178 0.007809887174516916
			vertex -0.003760457970201969 -0.003578505013138056 0.008213886991143227
		endloop
	endfacet
	facet normal -0.7735091374273662 0.17450498963078664 0.609287799738622
		outer loop
			vertex -0.0007988818688318133 -0.0016130120493471622 0.01141076348721981
			vertex -0.003760457970201969 -0.003578505013138056 0.008213886991143227
			vertex -0.0028402889147400856 -0.003442800138145685 0.009343202225863934
		endloop
	endfacet
	facet normal -0.8137152819711487 0.09127956709845352 0.5740518099587641
		outer loop
			vertex -0.0030464092269539833 0.0009970157407224178 0.007809887174516916
			vertex -0.0007988818688318133 -0.0016130120493471622 0.01141076348721981
			vertex 0.0023383190855383873 0.0018042116425931454 0.015314358286559582
		endloop
	endfacet
	facet normal -0.12380177749525088 -0.5690736814403612 0.8129134424899929
		outer loop
			vertex 0.008907965384423733 0.030213067308068275 0.030082933604717255
			vertex -0.0030464092269539833 0.0009970157407224178 0.007809887174516916
			vertex 0.012986614368855953 0.031851209700107574 0.03185085579752922
		endloop
	endfacet
	facet normal -0.1485700668332347 -0.7904653104224297 0.594215052199067
		outer loop
			vertex 0.01219355221837759 0.037366412580013275 0.036741629242897034
			vertex 0.011153808794915676 0.03570183366537094 0.034267328679561615
			vertex 0.01470166351646185 0.0351516529917717 0.03442250192165375
		endloop
	endfacet
	facet normal -0.14856409271871468 -0.7904631368021954 0.594219437339018
		outer loop
			vertex 0.01219355221837759 0.037366412580013275 0.036741629242897034
			vertex 0.01470166351646185 0.0351516529917717 0.03442250192165375
			vertex 0.016314439475536346 0.03659190982580185 0.036741629242897034
		endloop
	endfacet
	facet normal -0.12380311761437751 -0.5690731180790944 0.8129136327733087
		outer loop
			vertex 0.01470166351646185 0.0351516529917717 0.03442250192165375
			vertex 0.011153808794915676 0.03570183366537094 0.034267328679561615
			vertex 0.008907965384423733 0.030213067308068275 0.030082933604717255
		endloop
	endfacet
	facet normal -0.12380103597677342 -0.5690748025483912 0.8129127705944762
		outer loop
			vertex 0.01470166351646185 0.0351516529917717 0.03442250192165375
			vertex 0.008907965384423733 0.030213067308068275 0.030082933604717255
			vertex 0.012986614368855953 0.031851209700107574 0.03185085579752922
		endloop
	endfacet
	facet normal 0.8471530393925543 0.007319306375757597 -0.531298555994777
		outer loop
			vertex -0.0030464092269539833 0.0009970157407224178 0.007809887174516916
			vertex -0.0041754404082894325 -0.004168665502220392 0.005938488524407148
			vertex -0.004949853755533695 -0.004368892405182123 0.004700931720435619
		endloop
	endfacet
	facet normal 0 1 0
		outer loop
			vertex -0.03186040371656418 0.10202724486589432 -0.036741629242897034
			vertex 0.014225355349481106 0.10202724486589432 0.036741629242897034
			vertex 0.0555555522441864 0.10202724486589432 0.036741629242897034
		endloop
	endfacet
	facet normal 0 1 0
		outer loop
			vertex -0.03186040371656418 0.10202724486589432 -0.036741629242897034
			vertex 0.0555555522441864 0.10202724486589432 0.036741629242897034
			vertex 0.0555555522441864 0.10202724486589432 -0.036741629242897034
		endloop
	endfacet
	facet normal 1 0 0
		outer loop
			vertex 0.0555555522441864 0.011788957752287388 0.036741629242897034
			vertex 0.0555555522441864 -0.00808951910585165 0.036741629242897034
			vertex 0.0555555522441864 -0.017240440472960472 0.006188399624079466
		endloop
	endfacet
	facet normal 1 0 0
		outer loop
			vertex 0.0555555522441864 0.011788957752287388 0.036741629242897034
			vertex 0.0555555522441864 -0.017240440472960472 0.006188399624079466
			vertex 0.0555555522441864 -0.011553696356713772 0.004147161263972521
		endloop
	endfacet
	facet normal 1 0 0
		outer loop
			vertex 0.0555555522441864 -0.011553696356713772 0.004147161263972521
			vertex 0.0555555522441864 -0.017240440472960472 0.006188399624079466
			vertex 0.0555555522441864 -0.022379225119948387 -0.010969044640660286
		endloop
	endfacet
	facet normal -0.8137149378852778 0.09128092077492429 0.5740520824497031
		outer loop
			vertex -0.0030464092269539833 0.0009970157407224178 0.007809887174516916
			vertex 0.017713181674480438 0.004108974244445562 0.036741629242897034
			vertex 0.019937381148338318 0.023936385288834572 0.036741629242897034
		endloop
	endfacet
	facet normal -0.8137150017578099 0.09128114366097004 0.5740519564693015
		outer loop
			vertex -0.0030464092269539833 0.0009970157407224178 0.007809887174516916
			vertex 0.019937381148338318 0.023936385288834572 0.036741629242897034
			vertex 0.008641867898404598 0.01418378297239542 0.022281091660261154
		endloop
	endfacet
	facet normal -0.12379306464154369 -0.5690776128911645 0.81291201716591
		outer loop
			vertex 0.0002599871950224042 0.0073598711751401424 0.012767702341079712
			vertex -0.0030464092269539833 0.0009970157407224178 0.007809887174516916
			vertex 0.0020326441153883934 0.008477368392050266 0.013819950632750988
		endloop
	endfacet
	facet normal -0.8572506016727922 0.3028919778733914 0.4163866660588222
		outer loop
			vertex -0.0030464092269539833 0.0009970157407224178 0.007809887174516916
			vertex 0.008641867898404598 0.01418378297239542 0.022281091660261154
			vertex 0.0030209189280867577 0.009100371040403843 0.014406590722501278
		endloop
	endfacet
	facet normal -0.12380831853045185 -0.5690697895034404 0.8129151708125346
		outer loop
			vertex -0.0030464092269539833 0.0009970157407224178 0.007809887174516916
			vertex 0.0030209189280867577 0.009100371040403843 0.014406590722501278
			vertex 0.0020326441153883934 0.008477368392050266 0.013819950632750988
		endloop
	endfacet
	facet normal 1 0 0
		outer loop
			vertex 0.0555555522441864 0.0392148420214653 0.036741629242897034
			vertex 0.0555555522441864 0.011788957752287388 0.036741629242897034
			vertex 0.0555555522441864 -0.011553696356713772 0.004147161263972521
		endloop
	endfacet
	facet normal 1 0 0
		outer loop
			vertex 0.0555555522441864 0.0392148420214653 0.036741629242897034
			vertex 0.0555555522441864 -0.011553696356713772 0.004147161263972521
			vertex 0.0555555522441864 0.01802259124815464 -0.006469143088907003
		endloop
	endfacet
	facet normal 1 0 0
		outer loop
			vertex 0.0555555522441864 0.0392148420214653 0.036741629242897034
			vertex 0.0555555522441864 0.01802259124815464 -0.006469143088907003
			vertex 0.0555555522441864 0.037651143968105316 0.03213392198085785
		endloop
	endfacet
	facet normal 1 0 0
		outer loop
			vertex 0.0555555522441864 -0.030098309740424156 -0.036741629242897034
			vertex 0.0555555522441864 0.00262987008318305 -0.036741629242897034
			vertex 0.0555555522441864 0.01802259124815464 -0.006469143088907003
		endloop
	endfacet
	facet normal 1 0 0
		outer loop
			vertex 0.0555555522441864 -0.030098309740424156 -0.036741629242897034
			vertex 0.0555555522441864 0.01802259124815464 -0.006469143088907003
			vertex 0.0555555522441864 -0.011553696356713772 0.004147161263972521
		endloop
	endfacet
	facet normal 1 0 0
		outer loop
			vertex 0.0555555522441864 -0.030098309740424156 -0.036741629242897034
			vertex 0.0555555522441864 -0.011553696356713772 0.004147161263972521
			vertex 0.0555555522441864 -0.022379225119948387 -0.010969044640660286
		endloop
	endfacet
	facet normal -0.8137147450670282 0.09128004869416805 0.5740524944383499
		outer loop
			vertex 0.020321525633335114 0.027360836043953896 0.036741629242897034
			vertex 0.008641867898404598 0.01418378297239542 0.022281091660261154
			vertex 0.019937381148338318 0.023936385288834572 0.036741629242897034
		endloop
	endfacet
	facet normal -0.14856643958700438 -0.7904619996932539 0.5942203632234286
		outer loop
			vertex 0.016314439475536346 0.03659190982580185 0.036741629242897034
			vertex 0.01470166351646185 0.0351516529917717 0.03442250192165375
			vertex 0.01962568610906601 0.034388087689876556 0.03463786840438843
		endloop
	endfacet
	facet normal -0.14856573982464272 -0.7904616100711809 0.5942210564714389
		outer loop
			vertex 0.016314439475536346 0.03659190982580185 0.036741629242897034
			vertex 0.01962568610906601 0.034388087689876556 0.03463786840438843
			vertex 0.02125292271375656 0.03566373139619827 0.036741629242897034
		endloop
	endfacet
	facet normal -0.12380110367456752 -0.5690739802915683 0.8129133359000029
		outer loop
			vertex 0.01962568610906601 0.034388087689876556 0.03463786840438843
			vertex 0.01470166351646185 0.0351516529917717 0.03442250192165375
			vertex 0.0002599871950224042 0.0073598711751401424 0.012767702341079712
		endloop
	endfacet
	facet normal -0.12379172805132493 -0.5690790062669404 0.8129112452736145
		outer loop
			vertex 0.01962568610906601 0.034388087689876556 0.03463786840438843
			vertex 0.0002599871950224042 0.0073598711751401424 0.012767702341079712
			vertex 0.0020326441153883934 0.008477368392050266 0.013819950632750988
		endloop
	endfacet
	facet normal -0.8572509453619084 0.30289542641861966 0.41638344987618964
		outer loop
			vertex 0.008641867898404598 0.01418378297239542 0.022281091660261154
			vertex 0.020321525633335114 0.027360836043953896 0.036741629242897034
			vertex 0.02313052862882614 0.03531084209680557 0.036741629242897034
		endloop
	endfacet
	facet normal -0.8572518358335832 0.30289914187246453 0.41637891374669284
		outer loop
			vertex 0.008641867898404598 0.01418378297239542 0.022281091660261154
			vertex 0.02313052862882614 0.03531084209680557 0.036741629242897034
			vertex 0.021712645888328552 0.03406446427106857 0.03472914546728134
		endloop
	endfacet
	facet normal -0.8572505281598042 0.30289446714200013 0.4163850066278811
		outer loop
			vertex 0.008641867898404598 0.01418378297239542 0.022281091660261154
			vertex 0.021712645888328552 0.03406446427106857 0.03472914546728134
			vertex 0.0030209189280867577 0.009100371040403843 0.014406590722501278
		endloop
	endfacet
	facet normal -0.14856570276013098 -0.7904616296599203 0.5942210396803296
		outer loop
			vertex 0.02125292271375656 0.03566373139619827 0.036741629242897034
			vertex 0.01962568610906601 0.034388087689876556 0.03463786840438843
			vertex 0.021712645888328552 0.03406446427106857 0.03472914546728134
		endloop
	endfacet
	facet normal -0.14856443144167583 -0.7904616425714435 0.5942213403553154
		outer loop
			vertex 0.02125292271375656 0.03566373139619827 0.036741629242897034
			vertex 0.021712645888328552 0.03406446427106857 0.03472914546728134
			vertex 0.02313052862882614 0.03531084209680557 0.036741629242897034
		endloop
	endfacet
	facet normal -0.12380027166102592 -0.5690746244662188 0.8129130116594814
		outer loop
			vertex 0.021712645888328552 0.03406446427106857 0.03472914546728134
			vertex 0.01962568610906601 0.034388087689876556 0.03463786840438843
			vertex 0.0020326441153883934 0.008477368392050266 0.013819950632750988
		endloop
	endfacet
	facet normal -0.12380776811648818 -0.5690703633194608 0.8129148529492317
		outer loop
			vertex 0.021712645888328552 0.03406446427106857 0.03472914546728134
			vertex 0.0020326441153883934 0.008477368392050266 0.013819950632750988
			vertex 0.0030209189280867577 0.009100371040403843 0.014406590722501278
		endloop
	endfacet
	facet normal 1 0 0
		outer loop
			vertex 0.0555555522441864 0.03999403864145279 0.036741629242897034
			vertex 0.0555555522441864 0.0392148420214653 0.036741629242897034
			vertex 0.0555555522441864 0.037651143968105316 0.03213392198085785
		endloop
	endfacet
	facet normal 1 0 0
		outer loop
			vertex 0.0555555522441864 0.037651143968105316 0.03213392198085785
			vertex 0.0555555522441864 0.01802259124815464 -0.006469143088907003
			vertex 0.0555555522441864 0.023841852322220802 -0.008557952009141445
		endloop
	endfacet
	facet normal 1 0 0
		outer loop
			vertex 0.0555555522441864 0.00262987008318305 -0.036741629242897034
			vertex 0.0555555522441864 0.014277377165853977 -0.036741629242897034
			vertex 0.0555555522441864 0.023841852322220802 -0.008557952009141445
		endloop
	endfacet
	facet normal 1 0 0
		outer loop
			vertex 0.0555555522441864 0.00262987008318305 -0.036741629242897034
			vertex 0.0555555522441864 0.023841852322220802 -0.008557952009141445
			vertex 0.0555555522441864 0.01802259124815464 -0.006469143088907003
		endloop
	endfacet
	facet normal 1 0 0
		outer loop
			vertex 0.0555555522441864 0.0760687068104744 0.036741629242897034
			vertex 0.0555555522441864 0.03999403864145279 0.036741629242897034
			vertex 0.0555555522441864 0.037651143968105316 0.03213392198085785
		endloop
	endfacet
	facet normal 1 0 0
		outer loop
			vertex 0.0555555522441864 0.0760687068104744 0.036741629242897034
			vertex 0.0555555522441864 0.037651143968105316 0.03213392198085785
			vertex 0.0555555522441864 0.023841852322220802 -0.008557952009141445
		endloop
	endfacet
	facet normal 1 0 0
		outer loop
			vertex 0.0555555522441864 0.0760687068104744 0.036741629242897034
			vertex 0.0555555522441864 0.023841852322220802 -0.008557952009141445
			vertex 0.0555555522441864 0.07197663933038712 -0.025835778564214706
		endloop
	endfacet
	facet normal 1 0 0
		outer loop
			vertex 0.0555555522441864 0.014277377165853977 -0.036741629242897034
			vertex 0.0555555522441864 0.07126349955797195 -0.036741629242897034
			vertex 0.0555555522441864 0.07197663933038712 -0.025835778564214706
		endloop
	endfacet
	facet normal 1 0 0
		outer loop
			vertex 0.0555555522441864 0.014277377165853977 -0.036741629242897034
			vertex 0.0555555522441864 0.07197663933038712 -0.025835778564214706
			vertex 0.0555555522441864 0.023841852322220802 -0.008557952009141445
		endloop
	endfacet
	facet normal 1 0 0
		outer loop
			vertex 0.0555555522441864 0.10202724486589432 0.036741629242897034
			vertex 0.0555555522441864 0.0760687068104744 0.036741629242897034
			vertex 0.0555555522441864 0.07197663933038712 -0.025835778564214706
		endloop
	endfacet
	facet normal 1 0 0
		outer loop
			vertex 0.0555555522441864 0.10202724486589432 0.036741629242897034
			vertex 0.0555555522441864 0.07197663933038712 -0.025835778564214706
			vertex 0.0555555522441864 0.10202724486589432 -0.03662233054637909
		endloop
	endfacet
	facet normal 1 0 0
		outer loop
			vertex 0.0555555522441864 0.07126349955797195 -0.036741629242897034
			vertex 0.0555555522441864 0.10202724486589432 -0.036741629242897034
			vertex 0.0555555522441864 0.10202724486589432 -0.03662233054637909
		endloop
	endfacet
	facet normal 1 0 0
		outer loop
			vertex 0.0555555522441864 0.07126349955797195 -0.036741629242897034
			vertex 0.0555555522441864 0.10202724486589432 -0.03662233054637909
			vertex 0.0555555522441864 0.07197663933038712 -0.025835778564214706
		endloop
	endfacet
	facet normal -0.9441582033109112 0.1721409155611902 0.28094980389825436
		outer loop
			vertex -0.0030464092269539833 0.0009970157407224178 0.007809887174516916
			vertex -0.004949853755533695 -0.004368892405182123 0.004700931720435619
			vertex -0.004849621094763279 -0.004302284214645624 0.004996961448341608
		endloop
	endfacet
	facet normal 0 1 0
		outer loop
			vertex 0.014225355349481106 0.10202724486589432 0.036741629242897034
			vertex -0.03186040371656418 0.10202724486589432 -0.036741629242897034
			vertex -0.03362838178873062 0.10202724486589432 -0.036741629242897034
		endloop
	endfacet
	facet normal 0 1 0
		outer loop
			vertex 0.014225355349481106 0.10202724486589432 0.036741629242897034
			vertex -0.03362838178873062 0.10202724486589432 -0.036741629242897034
			vertex -0.017907820641994476 0.10202724486589432 -0.006744819227606058
		endloop
	endfacet
	facet normal 0 1 0
		outer loop
			vertex 0.014225355349481106 0.10202724486589432 0.036741629242897034
			vertex -0.017907820641994476 0.10202724486589432 -0.006744819227606058
			vertex 0.013496740721166134 0.10202724486589432 0.036741629242897034
		endloop
	endfacet
	facet normal 0 1 0
		outer loop
			vertex -0.03957056254148483 0.10202724486589432 -0.036741629242897034
			vertex -0.017907820641994476 0.10202724486589432 -0.006744819227606058
			vertex -0.03362838178873062 0.10202724486589432 -0.036741629242897034
		endloop
	endfacet
	facet normal -1 0 0
		outer loop
			vertex -0.055555559694767 -0.01628020964562893 -0.036741629242897034
			vertex -0.055555559694767 -0.023450663313269615 -0.036741629242897034
			vertex -0.055555559694767 -0.009077421389520168 -0.028091706335544586
		endloop
	endfacet
	facet normal -1 0 0
		outer loop
			vertex -0.055555559694767 -0.005643075797706842 -0.036741629242897034
			vertex -0.055555559694767 -0.01628020964562893 -0.036741629242897034
			vertex -0.055555559694767 0.00033206629450432956 -0.016791731119155884
		endloop
	endfacet
	facet normal -1 0 0
		outer loop
			vertex -0.055555559694767 0.04746229201555252 0.036741629242897034
			vertex -0.055555559694767 0.048346228897571564 0.036741629242897034
			vertex -0.055555559694767 0.048140592873096466 0.034632738679647446
		endloop
	endfacet
	facet normal -1 0 0
		outer loop
			vertex -0.055555559694767 0.04746229201555252 0.036741629242897034
			vertex -0.055555559694767 0.048140592873096466 0.034632738679647446
			vertex -0.055555559694767 0.04736451059579849 0.0338565856218338
		endloop
	endfacet
	facet normal -1 0 0
		outer loop
			vertex -0.055555559694767 0.048140592873096466 0.034632738679647446
			vertex -0.055555559694767 0.048084862530231476 0.03406129777431488
			vertex -0.055555559694767 0.04733777791261673 0.03306746482849121
		endloop
	endfacet
	facet normal -1 0 0
		outer loop
			vertex -0.055555559694767 0.048140592873096466 0.034632738679647446
			vertex -0.055555559694767 0.04733777791261673 0.03306746482849121
			vertex -0.055555559694767 0.04736451059579849 0.0338565856218338
		endloop
	endfacet
	facet normal -1 0 0
		outer loop
			vertex -0.055555559694767 -0.005140251014381647 -0.036741629242897034
			vertex -0.055555559694767 -0.005643075797706842 -0.036741629242897034
			vertex -0.055555559694767 0.00033206629450432956 -0.016791731119155884
		endloop
	endfacet
	facet normal -1 0 0
		outer loop
			vertex -0.055555559694767 -0.005140251014381647 -0.036741629242897034
			vertex -0.055555559694767 0.00033206629450432956 -0.016791731119155884
			vertex -0.055555559694767 0.01831553317606449 0.004804848227649927
		endloop
	endfacet
	facet normal -1 0 0
		outer loop
			vertex -0.055555559694767 -0.005140251014381647 -0.036741629242897034
			vertex -0.055555559694767 0.01831553317606449 0.004804848227649927
			vertex -0.055555559694767 0.021075362339615822 0.007564925588667393
		endloop
	endfacet
	facet normal -1 0 0
		outer loop
			vertex -0.055555559694767 -0.005140251014381647 -0.036741629242897034
			vertex -0.055555559694767 0.021075362339615822 0.007564925588667393
			vertex -0.055555559694767 0.03078714944422245 0.011050945147871971
		endloop
	endfacet
	facet normal -1 0 0
		outer loop
			vertex -0.055555559694767 0.046046413481235504 0.03134962171316147
			vertex -0.055555559694767 0.03078714944422245 0.011050945147871971
			vertex -0.055555559694767 0.021075362339615822 0.007564925588667393
		endloop
	endfacet
	facet normal -1 0 0
		outer loop
			vertex -0.055555559694767 0.046046413481235504 0.03134962171316147
			vertex -0.055555559694767 0.021075362339615822 0.007564925588667393
			vertex -0.055555559694767 0.04208465665578842 0.028576228767633438
		endloop
	endfacet
	facet normal -1 0 0
		outer loop
			vertex -0.055555559694767 0.0394848957657814 -0.036741629242897034
			vertex -0.055555559694767 -0.005140251014381647 -0.036741629242897034
			vertex -0.055555559694767 0.03078714944422245 0.011050945147871971
		endloop
	endfacet
	facet normal -1 0 0
		outer loop
			vertex -0.055555559694767 0.0394848957657814 -0.036741629242897034
			vertex -0.055555559694767 0.03078714944422245 0.011050945147871971
			vertex -0.055555559694767 0.045985884964466095 0.01650647073984146
		endloop
	endfacet
	facet normal -1 0 0
		outer loop
			vertex -0.055555559694767 0.048084862530231476 0.03406129777431488
			vertex -0.055555559694767 0.047909386456012726 0.032261691987514496
			vertex -0.055555559694767 0.045985884964466095 0.01650647073984146
		endloop
	endfacet
	facet normal -1 0 0
		outer loop
			vertex -0.055555559694767 0.048084862530231476 0.03406129777431488
			vertex -0.055555559694767 0.045985884964466095 0.01650647073984146
			vertex -0.055555559694767 0.03078714944422245 0.011050945147871971
		endloop
	endfacet
	facet normal -1 0 0
		outer loop
			vertex -0.055555559694767 0.04118096083402634 -0.036741629242897034
			vertex -0.055555559694767 0.0394848957657814 -0.036741629242897034
			vertex -0.055555559694767 0.045985884964466095 0.01650647073984146
		endloop
	endfacet
	facet normal -1 0 0
		outer loop
			vertex -0.055555559694767 0.04118096083402634 -0.036741629242897034
			vertex -0.055555559694767 0.045985884964466095 0.01650647073984146
			vertex -0.055555559694767 0.04638717323541641 0.016650516539812088
		endloop
	endfacet
	facet normal -1 0 0
		outer loop
			vertex -0.055555559694767 0.047909386456012726 0.032261691987514496
			vertex -0.055555559694767 0.04638717323541641 0.016650516539812088
			vertex -0.055555559694767 0.045985884964466095 0.01650647073984146
		endloop
	endfacet
	facet normal -1 0 0
		outer loop
			vertex -0.055555559694767 0.10202724486589432 -0.036741629242897034
			vertex -0.055555559694767 0.04118096083402634 -0.036741629242897034
			vertex -0.055555559694767 0.04638717323541641 0.016650516539812088
		endloop
	endfacet
	facet normal -1 0 0
		outer loop
			vertex -0.055555559694767 0.10202724486589432 -0.036741629242897034
			vertex -0.055555559694767 0.04638717323541641 0.016650516539812088
			vertex -0.055555559694767 0.10202724486589432 0.03662233054637909
		endloop
	endfacet
	facet normal -1 0 0
		outer loop
			vertex -0.055555559694767 0.048346228897571564 0.036741629242897034
			vertex -0.055555559694767 0.10202724486589432 0.036741629242897034
			vertex -0.055555559694767 0.10202724486589432 0.03662233054637909
		endloop
	endfacet
	facet normal -1 0 0
		outer loop
			vertex -0.055555559694767 0.048346228897571564 0.036741629242897034
			vertex -0.055555559694767 0.10202724486589432 0.03662233054637909
			vertex -0.055555559694767 0.04638717323541641 0.016650516539812088
		endloop
	endfacet
	facet normal 0 -1 0
		outer loop
			vertex -0.0015277721686288714 -0.1023595854640007 0.036741629242897034
			vertex -0.003575199283659458 -0.1023595854640007 0.036741629242897034
			vertex -0.0047653475776314735 -0.1023595854640007 0.035230692476034164
		endloop
	endfacet
	facet normal 0 -1 0
		outer loop
			vertex -0.0015277721686288714 -0.1023595854640007 0.036741629242897034
			vertex -0.0047653475776314735 -0.1023595854640007 0.035230692476034164
			vertex -0.0023431191220879555 -0.1023595854640007 0.03578886762261391
		endloop
	endfacet
	facet normal 0 -1 0
		outer loop
			vertex -0.01917598396539688 -0.1023595854640007 0.016935838386416435
			vertex -0.019548512995243073 -0.1023595854640007 0.015683824196457863
			vertex -0.0023431191220879555 -0.1023595854640007 0.03578886762261391
		endloop
	endfacet
	facet normal 0 -1 0
		outer loop
			vertex -0.01917598396539688 -0.1023595854640007 0.016935838386416435
			vertex -0.0023431191220879555 -0.1023595854640007 0.03578886762261391
			vertex -0.0047653475776314735 -0.1023595854640007 0.035230692476034164
		endloop
	endfacet
	facet normal 0 -1 0
		outer loop
			vertex -0.0008684851927682757 -0.1023595854640007 0.036741629242897034
			vertex -0.0015277721686288714 -0.1023595854640007 0.036741629242897034
			vertex -0.005475425161421299 -0.1023595854640007 0.032128676772117615
		endloop
	endfacet
	facet normal 0 -1 0
		outer loop
			vertex -0.0008684851927682757 -0.1023595854640007 0.036741629242897034
			vertex -0.005475425161421299 -0.1023595854640007 0.032128676772117615
			vertex -0.0007339053554460406 -0.1023595854640007 0.03657084330916405
		endloop
	endfacet
	facet normal 0 -1 0
		outer loop
			vertex -0.030148006975650787 -0.1023595854640007 -0.019938359037041664
			vertex -0.008108519949018955 -0.1023595854640007 -0.005362559109926224
			vertex 0.02229781448841095 -0.1023595854640007 0.036741629242897034
		endloop
	endfacet
	facet normal 0 -1 0
		outer loop
			vertex -0.030148006975650787 -0.1023595854640007 -0.019938359037041664
			vertex 0.02229781448841095 -0.1023595854640007 0.036741629242897034
			vertex -0.0005516119999811053 -0.1023595854640007 0.036741629242897034
		endloop
	endfacet
	facet normal 0 -1 0
		outer loop
			vertex -0.030148006975650787 -0.1023595854640007 -0.019938359037041664
			vertex -0.0005516119999811053 -0.1023595854640007 0.036741629242897034
			vertex -0.005475425161421299 -0.1023595854640007 0.032128676772117615
		endloop
	endfacet
	facet normal 0 -1 0
		outer loop
			vertex -0.030148006975650787 -0.1023595854640007 -0.019938359037041664
			vertex -0.005475425161421299 -0.1023595854640007 0.032128676772117615
			vertex -0.019548512995243073 -0.1023595854640007 0.015683824196457863
		endloop
	endfacet
	facet normal 0 -1 0
		outer loop
			vertex -0.03514785319566727 -0.1023595854640007 -0.036741629242897034
			vertex -0.03076948970556259 -0.1023595854640007 -0.036741629242897034
			vertex -0.008108519949018955 -0.1023595854640007 -0.005362559109926224
		endloop
	endfacet
	facet normal 0 -1 0
		outer loop
			vertex -0.03514785319566727 -0.1023595854640007 -0.036741629242897034
			vertex -0.008108519949018955 -0.1023595854640007 -0.005362559109926224
			vertex -0.030148006975650787 -0.1023595854640007 -0.019938359037041664
		endloop
	endfacet
	facet normal 0 -1 0
		outer loop
			vertex -0.008108519949018955 -0.1023595854640007 -0.005362559109926224
			vertex -0.0026672491803765297 -0.1023595854640007 -0.0017639815341681242
			vertex 0.025570198893547058 -0.1023595854640007 0.036741629242897034
		endloop
	endfacet
	facet normal 0 -1 0
		outer loop
			vertex -0.008108519949018955 -0.1023595854640007 -0.005362559109926224
			vertex 0.025570198893547058 -0.1023595854640007 0.036741629242897034
			vertex 0.02229781448841095 -0.1023595854640007 0.036741629242897034
		endloop
	endfacet
	facet normal 0 -1 0
		outer loop
			vertex -0.03076948970556259 -0.1023595854640007 -0.036741629242897034
			vertex -0.028317518532276154 -0.1023595854640007 -0.036741629242897034
			vertex -0.0026672491803765297 -0.1023595854640007 -0.0017639815341681242
		endloop
	endfacet
	facet normal 0 -1 0
		outer loop
			vertex -0.03076948970556259 -0.1023595854640007 -0.036741629242897034
			vertex -0.0026672491803765297 -0.1023595854640007 -0.0017639815341681242
			vertex -0.008108519949018955 -0.1023595854640007 -0.005362559109926224
		endloop
	endfacet
	facet normal 0 -1 0
		outer loop
			vertex 0.04427448660135269 -0.1023595854640007 -0.036741629242897034
			vertex 0.0555555522441864 -0.1023595854640007 -0.036741629242897034
			vertex 0.0555555522441864 -0.1023595854640007 -0.027658678591251373
		endloop
	endfacet
	facet normal 0 -1 0
		outer loop
			vertex -0.0026672491803765297 -0.1023595854640007 -0.0017639815341681242
			vertex 0.0555555522441864 -0.1023595854640007 0.036741629242897034
			vertex 0.025570198893547058 -0.1023595854640007 0.036741629242897034
		endloop
	endfacet
	facet normal 0 -1 0
		outer loop
			vertex -0.028317518532276154 -0.1023595854640007 -0.036741629242897034
			vertex 0.04427448660135269 -0.1023595854640007 -0.036741629242897034
			vertex 0.0555555522441864 -0.1023595854640007 -0.027658678591251373
		endloop
	endfacet
	facet normal 0 -1 0
		outer loop
			vertex -0.028317518532276154 -0.1023595854640007 -0.036741629242897034
			vertex 0.0555555522441864 -0.1023595854640007 -0.027658678591251373
			vertex 0.0555555522441864 -0.1023595854640007 0.036741629242897034
		endloop
	endfacet
	facet normal 0 -1 0
		outer loop
			vertex -0.028317518532276154 -0.1023595854640007 -0.036741629242897034
			vertex 0.0555555522441864 -0.1023595854640007 0.036741629242897034
			vertex -0.0026672491803765297 -0.1023595854640007 -0.0017639815341681242
		endloop
	endfacet
	facet normal 0 0 1
		outer loop
			vertex 0.008775337599217892 -0.04761602729558945 0.036741629242897034
			vertex 0.010422385297715664 -0.0474502369761467 0.036741629242897034
			vertex 0.01185698714107275 -0.033956654369831085 0.036741629242897034
		endloop
	endfacet
	facet normal 0 0 1
		outer loop
			vertex 0.01788140833377838 0.00020245599444024265 0.036741629242897034
			vertex 0.017289571464061737 0.00033272194559685886 0.036741629242897034
			vertex 0.015011644922196865 -0.019973641261458397 0.036741629242897034
		endloop
	endfacet
	facet normal 0 0 1
		outer loop
			vertex 0.01788140833377838 0.00020245599444024265 0.036741629242897034
			vertex 0.015011644922196865 -0.019973641261458397 0.036741629242897034
			vertex 0.01815100759267807 -0.006058505270630121 0.036741629242897034
		endloop
	endfacet
	facet normal 0 0 1
		outer loop
			vertex 0.01185698714107275 -0.033956654369831085 0.036741629242897034
			vertex 0.010422385297715664 -0.0474502369761467 0.036741629242897034
			vertex 0.01989232748746872 -0.04649699479341507 0.036741629242897034
		endloop
	endfacet
	facet normal 0 0 1
		outer loop
			vertex 0.01185698714107275 -0.033956654369831085 0.036741629242897034
			vertex 0.01989232748746872 -0.04649699479341507 0.036741629242897034
			vertex 0.01815100759267807 -0.006058505270630121 0.036741629242897034
		endloop
	endfacet
	facet normal 0 0 1
		outer loop
			vertex 0.03358539193868637 -0.003253957722336054 0.036741629242897034
			vertex 0.01788140833377838 0.00020245599444024265 0.036741629242897034
			vertex 0.01989232748746872 -0.04649699479341507 0.036741629242897034
		endloop
	endfacet
	facet normal 0 0 1
		outer loop
			vertex 0.03358539193868637 -0.003253957722336054 0.036741629242897034
			vertex 0.01989232748746872 -0.04649699479341507 0.036741629242897034
			vertex 0.021013453602790833 -0.04638414829969406 0.036741629242897034
		endloop
	endfacet
	facet normal 0 0 1
		outer loop
			vertex 0.041010782122612 -0.004888257477432489 0.036741629242897034
			vertex 0.03358539193868637 -0.003253957722336054 0.036741629242897034
			vertex 0.021013453602790833 -0.04638414829969406 0.036741629242897034
		endloop
	endfacet
	facet normal 0 0 1
		outer loop
			vertex 0.041010782122612 -0.004888257477432489 0.036741629242897034
			vertex 0.021013453602790833 -0.04638414829969406 0.036741629242897034
			vertex 0.022987835109233856 -0.046185411512851715 0.036741629242897034
		endloop
	endfacet
	facet normal 0 0 1
		outer loop
			vertex 0.0555555522441864 -0.04290715605020523 0.036741629242897034
			vertex 0.0555555522441864 -0.00808951910585165 0.036741629242897034
			vertex 0.041010782122612 -0.004888257477432489 0.036741629242897034
		endloop
	endfacet
	facet normal 0 0 1
		outer loop
			vertex 0.0555555522441864 -0.04290715605020523 0.036741629242897034
			vertex 0.041010782122612 -0.004888257477432489 0.036741629242897034
			vertex 0.022987835109233856 -0.046185411512851715 0.036741629242897034
		endloop
	endfacet
	facet normal 0 0 1
		outer loop
			vertex 0.02003239095211029 -0.04974982887506485 0.036741629242897034
			vertex 0.01989232748746872 -0.04649699479341507 0.036741629242897034
			vertex 0.008775337599217892 -0.04761602729558945 0.036741629242897034
		endloop
	endfacet
	facet normal 0 0 1
		outer loop
			vertex 0.02003239095211029 -0.04974982887506485 0.036741629242897034
			vertex 0.008775337599217892 -0.04761602729558945 0.036741629242897034
			vertex 0.0009499556617811322 -0.08230190724134445 0.036741629242897034
		endloop
	endfacet
	facet normal 0 0 1
		outer loop
			vertex 0.02003239095211029 -0.04974982887506485 0.036741629242897034
			vertex 0.0009499556617811322 -0.08230190724134445 0.036741629242897034
			vertex 0.009790747426450253 -0.07642475515604019 0.036741629242897034
		endloop
	endfacet
	facet normal 0 0 1
		outer loop
			vertex 0.02003239095211029 -0.04974982887506485 0.036741629242897034
			vertex 0.009790747426450253 -0.07642475515604019 0.036741629242897034
			vertex 0.017217017710208893 -0.059408433735370636 0.036741629242897034
		endloop
	endfacet
	facet normal 0 0 1
		outer loop
			vertex 0.020158112049102783 -0.05266933888196945 0.036741629242897034
			vertex 0.02003239095211029 -0.04974982887506485 0.036741629242897034
			vertex 0.017217017710208893 -0.059408433735370636 0.036741629242897034
		endloop
	endfacet
	facet normal 0 0 1
		outer loop
			vertex 0.020864054560661316 -0.0690634623169899 0.036741629242897034
			vertex 0.020158112049102783 -0.05266933888196945 0.036741629242897034
			vertex 0.009790747426450253 -0.07642475515604019 0.036741629242897034
		endloop
	endfacet
	facet normal 0 0 1
		outer loop
			vertex -0.003575199283659458 -0.1023595854640007 0.036741629242897034
			vertex -0.0015277721686288714 -0.1023595854640007 0.036741629242897034
			vertex -0.00047364167403429747 -0.09994421154260635 0.036741629242897034
		endloop
	endfacet
	facet normal 0 0 1
		outer loop
			vertex -0.003575199283659458 -0.1023595854640007 0.036741629242897034
			vertex -0.00047364167403429747 -0.09994421154260635 0.036741629242897034
			vertex -0.002534479834139347 -0.09774661809206009 0.036741629242897034
		endloop
	endfacet
	facet normal 0 0 1
		outer loop
			vertex -0.00047364167403429747 -0.09994421154260635 0.036741629242897034
			vertex 0.009790747426450253 -0.07642475515604019 0.036741629242897034
			vertex 0.0009499556617811322 -0.08230190724134445 0.036741629242897034
		endloop
	endfacet
	facet normal 0 0 1
		outer loop
			vertex -0.00047364167403429747 -0.09994421154260635 0.036741629242897034
			vertex 0.0009499556617811322 -0.08230190724134445 0.036741629242897034
			vertex -0.002534479834139347 -0.09774661809206009 0.036741629242897034
		endloop
	endfacet
	facet normal 0 0 1
		outer loop
			vertex -0.0015277721686288714 -0.1023595854640007 0.036741629242897034
			vertex -0.0008684851927682757 -0.1023595854640007 0.036741629242897034
			vertex -0.0004085161490365863 -0.10166925936937332 0.036741629242897034
		endloop
	endfacet
	facet normal 0 0 1
		outer loop
			vertex -0.0015277721686288714 -0.1023595854640007 0.036741629242897034
			vertex -0.0004085161490365863 -0.10166925936937332 0.036741629242897034
			vertex 0.0003314755158498883 -0.09809938818216324 0.036741629242897034
		endloop
	endfacet
	facet normal 0 0 1
		outer loop
			vertex -0.0005516119999811053 -0.1023595854640007 0.036741629242897034
			vertex 0.02229781448841095 -0.1023595854640007 0.036741629242897034
			vertex 0.020864054560661316 -0.0690634623169899 0.036741629242897034
		endloop
	endfacet
	facet normal 0 0 1
		outer loop
			vertex -0.0005516119999811053 -0.1023595854640007 0.036741629242897034
			vertex 0.020864054560661316 -0.0690634623169899 0.036741629242897034
			vertex 0.009790747426450253 -0.07642475515604019 0.036741629242897034
		endloop
	endfacet
	facet normal 0 0 1
		outer loop
			vertex -0.0005516119999811053 -0.1023595854640007 0.036741629242897034
			vertex 0.009790747426450253 -0.07642475515604019 0.036741629242897034
			vertex 0.0003314755158498883 -0.09809938818216324 0.036741629242897034
		endloop
	endfacet
	facet normal 0 0 1
		outer loop
			vertex 0.020238511264324188 -0.04904269427061081 0.036741629242897034
			vertex 0.01998303085565567 -0.04648786038160324 0.036741629242897034
			vertex 0.01989232748746872 -0.04649699479341507 0.036741629242897034
		endloop
	endfacet
	facet normal 0 0 1
		outer loop
			vertex 0.020238511264324188 -0.04904269427061081 0.036741629242897034
			vertex 0.01989232748746872 -0.04649699479341507 0.036741629242897034
			vertex 0.02003239095211029 -0.04974982887506485 0.036741629242897034
		endloop
	endfacet
	facet normal 0 0 1
		outer loop
			vertex 0.020518578588962555 -0.051843367516994476 0.036741629242897034
			vertex 0.020238511264324188 -0.04904269427061081 0.036741629242897034
			vertex 0.02003239095211029 -0.04974982887506485 0.036741629242897034
		endloop
	endfacet
	facet normal 0 0 1
		outer loop
			vertex 0.020518578588962555 -0.051843367516994476 0.036741629242897034
			vertex 0.02003239095211029 -0.04974982887506485 0.036741629242897034
			vertex 0.020158112049102783 -0.05266933888196945 0.036741629242897034
		endloop
	endfacet
	facet normal 0 0 1
		outer loop
			vertex 0.02229781448841095 -0.1023595854640007 0.036741629242897034
			vertex 0.025570198893547058 -0.1023595854640007 0.036741629242897034
			vertex 0.020518578588962555 -0.051843367516994476 0.036741629242897034
		endloop
	endfacet
	facet normal 0 0 1
		outer loop
			vertex 0.02229781448841095 -0.1023595854640007 0.036741629242897034
			vertex 0.020518578588962555 -0.051843367516994476 0.036741629242897034
			vertex 0.020158112049102783 -0.05266933888196945 0.036741629242897034
		endloop
	endfacet
	facet normal 0 0 1
		outer loop
			vertex 0.022987835109233856 -0.046185411512851715 0.036741629242897034
			vertex 0.01998303085565567 -0.04648786038160324 0.036741629242897034
			vertex 0.020518578588962555 -0.051843367516994476 0.036741629242897034
		endloop
	endfacet
	facet normal 0 0 1
		outer loop
			vertex 0.025570198893547058 -0.1023595854640007 0.036741629242897034
			vertex 0.0555555522441864 -0.1023595854640007 0.036741629242897034
			vertex 0.0555555522441864 -0.04290715605020523 0.036741629242897034
		endloop
	endfacet
	facet normal 0 0 1
		outer loop
			vertex 0.025570198893547058 -0.1023595854640007 0.036741629242897034
			vertex 0.0555555522441864 -0.04290715605020523 0.036741629242897034
			vertex 0.022987835109233856 -0.046185411512851715 0.036741629242897034
		endloop
	endfacet
	facet normal 0 0 1
		outer loop
			vertex 0.025570198893547058 -0.1023595854640007 0.036741629242897034
			vertex 0.022987835109233856 -0.046185411512851715 0.036741629242897034
			vertex 0.020518578588962555 -0.051843367516994476 0.036741629242897034
		endloop
	endfacet
	facet normal 0 0 1
		outer loop
			vertex -0.055555559694767 0.048346228897571564 0.036741629242897034
			vertex -0.055555559694767 0.04746229201555252 0.036741629242897034
			vertex -0.04900997132062912 0.04771585017442703 0.036741629242897034
		endloop
	endfacet
	facet normal 0 0 1
		outer loop
			vertex -0.055555559694767 0.048346228897571564 0.036741629242897034
			vertex -0.04900997132062912 0.04771585017442703 0.036741629242897034
			vertex -0.05181426554918289 0.048801250755786896 0.036741629242897034
		endloop
	endfacet
	facet normal 0 0 1
		outer loop
			vertex -0.04392070323228836 0.047913022339344025 0.036741629242897034
			vertex -0.04989107698202133 0.04903513938188553 0.036741629242897034
			vertex -0.05181426554918289 0.048801250755786896 0.036741629242897034
		endloop
	endfacet
	facet normal 0 0 1
		outer loop
			vertex -0.04392070323228836 0.047913022339344025 0.036741629242897034
			vertex -0.05181426554918289 0.048801250755786896 0.036741629242897034
			vertex -0.04900997132062912 0.04771585017442703 0.036741629242897034
		endloop
	endfacet
	facet normal 0 0 1
		outer loop
			vertex 0.01219355221837759 0.037366412580013275 0.036741629242897034
			vertex 0.015500172041356564 0.05550173670053482 0.036741629242897034
			vertex 0.015445857308804989 0.05676309019327164 0.036741629242897034
		endloop
	endfacet
	facet normal 0 0 1
		outer loop
			vertex 0.01219355221837759 0.037366412580013275 0.036741629242897034
			vertex 0.015445857308804989 0.05676309019327164 0.036741629242897034
			vertex -0.0317489430308342 0.05124158412218094 0.036741629242897034
		endloop
	endfacet
	facet normal 0 0 1
		outer loop
			vertex 0.01219355221837759 0.037366412580013275 0.036741629242897034
			vertex -0.0317489430308342 0.05124158412218094 0.036741629242897034
			vertex -0.04989107698202133 0.04903513938188553 0.036741629242897034
		endloop
	endfacet
	facet normal 0 0 1
		outer loop
			vertex 0.015445857308804989 0.05676309019327164 0.036741629242897034
			vertex 0.015436499379575253 0.05698025971651077 0.036741629242897034
			vertex -0.0317489430308342 0.05124158412218094 0.036741629242897034
		endloop
	endfacet
	facet normal 0 0 1
		outer loop
			vertex -0.055555559694767 0.10202724486589432 0.036741629242897034
			vertex -0.055555559694767 0.048346228897571564 0.036741629242897034
			vertex 0.015436499379575253 0.05698025971651077 0.036741629242897034
		endloop
	endfacet
	facet normal 0 0 1
		outer loop
			vertex -0.055555559694767 0.10202724486589432 0.036741629242897034
			vertex 0.015436499379575253 0.05698025971651077 0.036741629242897034
			vertex 0.013496740721166134 0.10202724486589432 0.036741629242897034
		endloop
	endfacet
	facet normal 0 0 1
		outer loop
			vertex 0.017289571464061737 0.00033272194559685886 0.036741629242897034
			vertex 0.01788140833377838 0.00020245599444024265 0.036741629242897034
			vertex 0.017713181674480438 0.004108974244445562 0.036741629242897034
		endloop
	endfacet
	facet normal 0 0 1
		outer loop
			vertex 0.016314439475536346 0.03659190982580185 0.036741629242897034
			vertex 0.015500172041356564 0.05550173670053482 0.036741629242897034
			vertex 0.01219355221837759 0.037366412580013275 0.036741629242897034
		endloop
	endfacet
	facet normal 0 0 1
		outer loop
			vertex 0.0555555522441864 -0.00808951910585165 0.036741629242897034
			vertex 0.0555555522441864 0.011788957752287388 0.036741629242897034
			vertex 0.017785146832466125 0.0024378239177167416 0.036741629242897034
		endloop
	endfacet
	facet normal 0 0 1
		outer loop
			vertex 0.0555555522441864 -0.00808951910585165 0.036741629242897034
			vertex 0.017785146832466125 0.0024378239177167416 0.036741629242897034
			vertex 0.01788140833377838 0.00020245599444024265 0.036741629242897034
		endloop
	endfacet
	facet normal 0 0 1
		outer loop
			vertex 0.0555555522441864 0.011788957752287388 0.036741629242897034
			vertex 0.0555555522441864 0.0392148420214653 0.036741629242897034
			vertex 0.019937381148338318 0.023936385288834572 0.036741629242897034
		endloop
	endfacet
	facet normal 0 0 1
		outer loop
			vertex 0.0555555522441864 0.011788957752287388 0.036741629242897034
			vertex 0.019937381148338318 0.023936385288834572 0.036741629242897034
			vertex 0.017713181674480438 0.004108974244445562 0.036741629242897034
		endloop
	endfacet
	facet normal 0 0 1
		outer loop
			vertex 0.0555555522441864 0.011788957752287388 0.036741629242897034
			vertex 0.017713181674480438 0.004108974244445562 0.036741629242897034
			vertex 0.017785146832466125 0.0024378239177167416 0.036741629242897034
		endloop
	endfacet
	facet normal 0 0 1
		outer loop
			vertex 0.019531995058059692 0.03598717600107193 0.036741629242897034
			vertex 0.020934760570526123 0.038571737706661224 0.036741629242897034
			vertex 0.016237497329711914 0.0383787676692009 0.036741629242897034
		endloop
	endfacet
	facet normal 0 0 1
		outer loop
			vertex 0.019531995058059692 0.03598717600107193 0.036741629242897034
			vertex 0.016237497329711914 0.0383787676692009 0.036741629242897034
			vertex 0.016314439475536346 0.03659190982580185 0.036741629242897034
		endloop
	endfacet
	facet normal 0 0 1
		outer loop
			vertex 0.02158212661743164 0.03859832137823105 0.036741629242897034
			vertex 0.020934760570526123 0.038571737706661224 0.036741629242897034
			vertex 0.019531995058059692 0.03598717600107193 0.036741629242897034
		endloop
	endfacet
	facet normal 0 0 1
		outer loop
			vertex 0.02158212661743164 0.03859832137823105 0.036741629242897034
			vertex 0.019531995058059692 0.03598717600107193 0.036741629242897034
			vertex 0.02125292271375656 0.03566373139619827 0.036741629242897034
		endloop
	endfacet
	facet normal 0 0 1
		outer loop
			vertex 0.02433203160762787 0.038711316883563995 0.036741629242897034
			vertex 0.02158212661743164 0.03859832137823105 0.036741629242897034
			vertex 0.02125292271375656 0.03566373139619827 0.036741629242897034
		endloop
	endfacet
	facet normal 0 0 1
		outer loop
			vertex 0.02433203160762787 0.038711316883563995 0.036741629242897034
			vertex 0.02125292271375656 0.03566373139619827 0.036741629242897034
			vertex 0.02313052862882614 0.03531084209680557 0.036741629242897034
		endloop
	endfacet
	facet normal 0 0 1
		outer loop
			vertex 0.0555555522441864 0.0392148420214653 0.036741629242897034
			vertex 0.0555555522441864 0.03999403864145279 0.036741629242897034
			vertex 0.02433203160762787 0.038711316883563995 0.036741629242897034
		endloop
	endfacet
	facet normal 0 0 1
		outer loop
			vertex 0.0555555522441864 0.0392148420214653 0.036741629242897034
			vertex 0.02433203160762787 0.038711316883563995 0.036741629242897034
			vertex 0.020321525633335114 0.027360836043953896 0.036741629242897034
		endloop
	endfacet
	facet normal 0 0 1
		outer loop
			vertex 0.0555555522441864 0.0392148420214653 0.036741629242897034
			vertex 0.020321525633335114 0.027360836043953896 0.036741629242897034
			vertex 0.019937381148338318 0.023936385288834572 0.036741629242897034
		endloop
	endfacet
	facet normal 0 0 1
		outer loop
			vertex 0.020934760570526123 0.038571737706661224 0.036741629242897034
			vertex 0.04210232198238373 0.07757238298654556 0.036741629242897034
			vertex 0.014416529797017574 0.08066684752702713 0.036741629242897034
		endloop
	endfacet
	facet normal 0 0 1
		outer loop
			vertex 0.020934760570526123 0.038571737706661224 0.036741629242897034
			vertex 0.014416529797017574 0.08066684752702713 0.036741629242897034
			vertex 0.016237497329711914 0.0383787676692009 0.036741629242897034
		endloop
	endfacet
	facet normal 0 0 1
		outer loop
			vertex 0.0555555522441864 0.03999403864145279 0.036741629242897034
			vertex 0.0555555522441864 0.0760687068104744 0.036741629242897034
			vertex 0.04210232198238373 0.07757238298654556 0.036741629242897034
		endloop
	endfacet
	facet normal 0 0 1
		outer loop
			vertex 0.0555555522441864 0.03999403864145279 0.036741629242897034
			vertex 0.04210232198238373 0.07757238298654556 0.036741629242897034
			vertex 0.020934760570526123 0.038571737706661224 0.036741629242897034
		endloop
	endfacet
	facet normal 0 0 1
		outer loop
			vertex 0.04210232198238373 0.07757238298654556 0.036741629242897034
			vertex 0.05537516996264458 0.10202724486589432 0.036741629242897034
			vertex 0.014225355349481106 0.10202724486589432 0.036741629242897034
		endloop
	endfacet
	facet normal 0 0 1
		outer loop
			vertex 0.04210232198238373 0.07757238298654556 0.036741629242897034
			vertex 0.014225355349481106 0.10202724486589432 0.036741629242897034
			vertex 0.014408289454877377 0.0808582678437233 0.036741629242897034
		endloop
	endfacet
	facet normal 0 0 1
		outer loop
			vertex 0.04210232198238373 0.07757238298654556 0.036741629242897034
			vertex 0.014408289454877377 0.0808582678437233 0.036741629242897034
			vertex 0.014416529797017574 0.08066684752702713 0.036741629242897034
		endloop
	endfacet
	facet normal 0 0 1
		outer loop
			vertex 0.0555555522441864 0.0760687068104744 0.036741629242897034
			vertex 0.0555555522441864 0.10202724486589432 0.036741629242897034
			vertex 0.05537516996264458 0.10202724486589432 0.036741629242897034
		endloop
	endfacet
	facet normal 0 0 1
		outer loop
			vertex 0.0555555522441864 0.0760687068104744 0.036741629242897034
			vertex 0.05537516996264458 0.10202724486589432 0.036741629242897034
			vertex 0.04210232198238373 0.07757238298654556 0.036741629242897034
		endloop
	endfacet
	facet normal 0 0 1
		outer loop
			vertex 0.013496740721166134 0.10202724486589432 0.036741629242897034
			vertex 0.014408289454877377 0.0808582678437233 0.036741629242897034
			vertex 0.014225355349481106 0.10202724486589432 0.036741629242897034
		endloop
	endfacet
	facet normal 0 0 -1
		outer loop
			vertex -0.055555559694767 -0.023450663313269615 -0.036741629242897034
			vertex -0.055555559694767 -0.01628020964562893 -0.036741629242897034
			vertex -0.0341278538107872 -0.02436860464513302 -0.036741629242897034
		endloop
	endfacet
	facet normal 0 0 -1
		outer loop
			vertex -0.055555559694767 -0.023450663313269615 -0.036741629242897034
			vertex -0.0341278538107872 -0.02436860464513302 -0.036741629242897034
			vertex -0.03383444994688034 -0.03118208609521389 -0.036741629242897034
		endloop
	endfacet
	facet normal 0 0 -1
		outer loop
			vertex -0.055555559694767 -0.023450663313269615 -0.036741629242897034
			vertex -0.03383444994688034 -0.03118208609521389 -0.036741629242897034
			vertex -0.03557444363832474 -0.042317844927310944 -0.036741629242897034
		endloop
	endfacet
	facet normal 0 0 -1
		outer loop
			vertex -0.055555559694767 -0.01628020964562893 -0.036741629242897034
			vertex -0.055555559694767 -0.005643075797706842 -0.036741629242897034
			vertex -0.03473687916994095 -0.010225198231637478 -0.036741629242897034
		endloop
	endfacet
	facet normal 0 0 -1
		outer loop
			vertex -0.055555559694767 -0.01628020964562893 -0.036741629242897034
			vertex -0.03473687916994095 -0.010225198231637478 -0.036741629242897034
			vertex -0.0341278538107872 -0.02436860464513302 -0.036741629242897034
		endloop
	endfacet
	facet normal 0 0 -1
		outer loop
			vertex -0.03473687916994095 -0.010225198231637478 -0.036741629242897034
			vertex -0.030698783695697784 -0.011113977991044521 -0.036741629242897034
			vertex -0.03383444994688034 -0.03118208609521389 -0.036741629242897034
		endloop
	endfacet
	facet normal 0 0 -1
		outer loop
			vertex -0.03557444363832474 -0.042317844927310944 -0.036741629242897034
			vertex -0.03383444994688034 -0.03118208609521389 -0.036741629242897034
			vertex -0.03326087445020676 -0.04450242966413498 -0.036741629242897034
		endloop
	endfacet
	facet normal 0 0 -1
		outer loop
			vertex -0.03383444994688034 -0.03118208609521389 -0.036741629242897034
			vertex -0.030698783695697784 -0.011113977991044521 -0.036741629242897034
			vertex -0.02749551087617874 -0.011819026432931423 -0.036741629242897034
		endloop
	endfacet
	facet normal 0 0 -1
		outer loop
			vertex -0.03383444994688034 -0.03118208609521389 -0.036741629242897034
			vertex -0.02749551087617874 -0.011819026432931423 -0.036741629242897034
			vertex -0.03321360796689987 -0.045600078999996185 -0.036741629242897034
		endloop
	endfacet
	facet normal 0 0 -1
		outer loop
			vertex -0.029140599071979523 -0.021537771448493004 -0.036741629242897034
			vertex -0.02749551087617874 -0.011819026432931423 -0.036741629242897034
			vertex -0.025126658380031586 -0.012340388260781765 -0.036741629242897034
		endloop
	endfacet
	facet normal 0 0 -1
		outer loop
			vertex -0.029334060847759247 -0.022680705413222313 -0.036741629242897034
			vertex -0.029140599071979523 -0.021537771448493004 -0.036741629242897034
			vertex -0.025126658380031586 -0.012340388260781765 -0.036741629242897034
		endloop
	endfacet
	facet normal 0 0 -1
		outer loop
			vertex -0.029334060847759247 -0.022680705413222313 -0.036741629242897034
			vertex -0.025126658380031586 -0.012340388260781765 -0.036741629242897034
			vertex 0.005790292285382748 -0.019145121797919273 -0.036741629242897034
		endloop
	endfacet
	facet normal 0 0 -1
		outer loop
			vertex -0.03076948970556259 -0.1023595854640007 -0.036741629242897034
			vertex -0.03514785319566727 -0.1023595854640007 -0.036741629242897034
			vertex -0.031605981290340424 -0.0829339399933815 -0.036741629242897034
		endloop
	endfacet
	facet normal 0 0 -1
		outer loop
			vertex -0.028317518532276154 -0.1023595854640007 -0.036741629242897034
			vertex -0.03076948970556259 -0.1023595854640007 -0.036741629242897034
			vertex -0.031605981290340424 -0.0829339399933815 -0.036741629242897034
		endloop
	endfacet
	facet normal 0 0 -1
		outer loop
			vertex -0.028317518532276154 -0.1023595854640007 -0.036741629242897034
			vertex -0.031605981290340424 -0.0829339399933815 -0.036741629242897034
			vertex -0.030736781656742096 -0.07816682010889053 -0.036741629242897034
		endloop
	endfacet
	facet normal 0 0 -1
		outer loop
			vertex 0.0555555522441864 -0.030098309740424156 -0.036741629242897034
			vertex 0.0555555522441864 -0.1023595854640007 -0.036741629242897034
			vertex 0.011015146039426327 -0.020295104011893272 -0.036741629242897034
		endloop
	endfacet
	facet normal 0 0 -1
		outer loop
			vertex 0.0555555522441864 -0.1023595854640007 -0.036741629242897034
			vertex 0.04427448660135269 -0.1023595854640007 -0.036741629242897034
			vertex -0.030641280114650726 -0.03904957324266434 -0.036741629242897034
		endloop
	endfacet
	facet normal 0 0 -1
		outer loop
			vertex 0.0555555522441864 -0.1023595854640007 -0.036741629242897034
			vertex -0.030641280114650726 -0.03904957324266434 -0.036741629242897034
			vertex -0.03071235865354538 -0.03082338534295559 -0.036741629242897034
		endloop
	endfacet
	facet normal 0 0 -1
		outer loop
			vertex 0.0555555522441864 -0.1023595854640007 -0.036741629242897034
			vertex -0.03071235865354538 -0.03082338534295559 -0.036741629242897034
			vertex -0.029334060847759247 -0.022680705413222313 -0.036741629242897034
		endloop
	endfacet
	facet normal 0 0 -1
		outer loop
			vertex 0.0555555522441864 -0.1023595854640007 -0.036741629242897034
			vertex -0.029334060847759247 -0.022680705413222313 -0.036741629242897034
			vertex 0.005790292285382748 -0.019145121797919273 -0.036741629242897034
		endloop
	endfacet
	facet normal 0 0 -1
		outer loop
			vertex 0.0555555522441864 -0.1023595854640007 -0.036741629242897034
			vertex 0.005790292285382748 -0.019145121797919273 -0.036741629242897034
			vertex 0.011015146039426327 -0.020295104011893272 -0.036741629242897034
		endloop
	endfacet
	facet normal 0 0 -1
		outer loop
			vertex 0.04427448660135269 -0.1023595854640007 -0.036741629242897034
			vertex -0.028317518532276154 -0.1023595854640007 -0.036741629242897034
			vertex -0.03026222437620163 -0.08291242271661758 -0.036741629242897034
		endloop
	endfacet
	facet normal 0 0 -1
		outer loop
			vertex 0.04427448660135269 -0.1023595854640007 -0.036741629242897034
			vertex -0.03026222437620163 -0.08291242271661758 -0.036741629242897034
			vertex -0.030641280114650726 -0.03904957324266434 -0.036741629242897034
		endloop
	endfacet
	facet normal 0 0 -1
		outer loop
			vertex -0.03026222437620163 -0.08291242271661758 -0.036741629242897034
			vertex -0.030736781656742096 -0.07816682010889053 -0.036741629242897034
			vertex -0.030322857201099396 -0.07589658349752426 -0.036741629242897034
		endloop
	endfacet
	facet normal 0 0 -1
		outer loop
			vertex -0.055555559694767 -0.005643075797706842 -0.036741629242897034
			vertex -0.055555559694767 -0.005140251014381647 -0.036741629242897034
			vertex -0.03478776663541794 -0.009043536148965359 -0.036741629242897034
		endloop
	endfacet
	facet normal 0 0 -1
		outer loop
			vertex -0.055555559694767 -0.005643075797706842 -0.036741629242897034
			vertex -0.03478776663541794 -0.009043536148965359 -0.036741629242897034
			vertex -0.03473687916994095 -0.010225198231637478 -0.036741629242897034
		endloop
	endfacet
	facet normal 0 0 -1
		outer loop
			vertex -0.055555559694767 -0.005140251014381647 -0.036741629242897034
			vertex -0.055555559694767 0.0394848957657814 -0.036741629242897034
			vertex -0.0369710698723793 0.04165918380022049 -0.036741629242897034
		endloop
	endfacet
	facet normal 0 0 -1
		outer loop
			vertex -0.055555559694767 -0.005140251014381647 -0.036741629242897034
			vertex -0.0369710698723793 0.04165918380022049 -0.036741629242897034
			vertex -0.03478776663541794 -0.009043536148965359 -0.036741629242897034
		endloop
	endfacet
	facet normal 0 0 -1
		outer loop
			vertex -0.055555559694767 0.0394848957657814 -0.036741629242897034
			vertex -0.055555559694767 0.04118096083402634 -0.036741629242897034
			vertex -0.037047408521175385 0.04343191534280777 -0.036741629242897034
		endloop
	endfacet
	facet normal 0 0 -1
		outer loop
			vertex -0.055555559694767 0.0394848957657814 -0.036741629242897034
			vertex -0.037047408521175385 0.04343191534280777 -0.036741629242897034
			vertex -0.0369710698723793 0.04165918380022049 -0.036741629242897034
		endloop
	endfacet
	facet normal 0 0 -1
		outer loop
			vertex -0.03820859640836716 0.07039830833673477 -0.036741629242897034
			vertex -0.05537518113851547 0.10202724486589432 -0.036741629242897034
			vertex -0.03957056254148483 0.10202724486589432 -0.036741629242897034
		endloop
	endfacet
	facet normal 0 0 -1
		outer loop
			vertex -0.055555559694767 0.04118096083402634 -0.036741629242897034
			vertex -0.055555559694767 0.10202724486589432 -0.036741629242897034
			vertex -0.05537518113851547 0.10202724486589432 -0.036741629242897034
		endloop
	endfacet
	facet normal 0 0 -1
		outer loop
			vertex -0.055555559694767 0.04118096083402634 -0.036741629242897034
			vertex -0.05537518113851547 0.10202724486589432 -0.036741629242897034
			vertex -0.03820859640836716 0.07039830833673477 -0.036741629242897034
		endloop
	endfacet
	facet normal 0 0 -1
		outer loop
			vertex -0.055555559694767 0.04118096083402634 -0.036741629242897034
			vertex -0.03820859640836716 0.07039830833673477 -0.036741629242897034
			vertex -0.037047408521175385 0.04343191534280777 -0.036741629242897034
		endloop
	endfacet
	facet normal 0 0 -1
		outer loop
			vertex 0.0555555522441864 0.00262987008318305 -0.036741629242897034
			vertex 0.0555555522441864 -0.030098309740424156 -0.036741629242897034
			vertex 0.011015146039426327 -0.020295104011893272 -0.036741629242897034
		endloop
	endfacet
	facet normal 0 0 -1
		outer loop
			vertex 0.0555555522441864 0.00262987008318305 -0.036741629242897034
			vertex 0.011015146039426327 -0.020295104011893272 -0.036741629242897034
			vertex 0.0042058443650603294 -0.007749146316200495 -0.036741629242897034
		endloop
	endfacet
	facet normal 0 0 -1
		outer loop
			vertex 0.0555555522441864 0.00262987008318305 -0.036741629242897034
			vertex 0.0042058443650603294 -0.007749146316200495 -0.036741629242897034
			vertex 0.025526106357574463 0.0013962029479444027 -0.036741629242897034
		endloop
	endfacet
	facet normal 0 0 -1
		outer loop
			vertex 0.0042058443650603294 -0.007749146316200495 -0.036741629242897034
			vertex 0.011015146039426327 -0.020295104011893272 -0.036741629242897034
			vertex -0.01281482819467783 -0.015050194226205349 -0.036741629242897034
		endloop
	endfacet
	facet normal 0 0 -1
		outer loop
			vertex -0.029090262949466705 -0.011468014679849148 -0.036741629242897034
			vertex -0.03088303655385971 -0.011073431931436062 -0.036741629242897034
			vertex -0.030894257128238678 -0.00977530237287283 -0.036741629242897034
		endloop
	endfacet
	facet normal 0 0 -1
		outer loop
			vertex -0.029090262949466705 -0.011468014679849148 -0.036741629242897034
			vertex -0.030894257128238678 -0.00977530237287283 -0.036741629242897034
			vertex -0.02864176779985428 -0.010198659263551235 -0.036741629242897034
		endloop
	endfacet
	facet normal 0 0 -1
		outer loop
			vertex -0.030894257128238678 -0.00977530237287283 -0.036741629242897034
			vertex -0.030970744788646698 -0.000924816878978163 -0.036741629242897034
			vertex -0.025282420217990875 -0.0006911219679750502 -0.036741629242897034
		endloop
	endfacet
	facet normal 0 0 -1
		outer loop
			vertex -0.030894257128238678 -0.00977530237287283 -0.036741629242897034
			vertex -0.025282420217990875 -0.0006911219679750502 -0.036741629242897034
			vertex -0.02864176779985428 -0.010198659263551235 -0.036741629242897034
		endloop
	endfacet
	facet normal 0 0 -1
		outer loop
			vertex 0.0042058443650603294 -0.007749146316200495 -0.036741629242897034
			vertex -0.0001845070073613897 0.00033994900877587497 -0.036741629242897034
			vertex 0.025526106357574463 0.0013962029479444027 -0.036741629242897034
		endloop
	endfacet
	facet normal 0 0 -1
		outer loop
			vertex -0.0001845070073613897 0.00033994900877587497 -0.036741629242897034
			vertex 0.0042058443650603294 -0.007749146316200495 -0.036741629242897034
			vertex -0.01281482819467783 -0.015050194226205349 -0.036741629242897034
		endloop
	endfacet
	facet normal 0 0 -1
		outer loop
			vertex -0.0001845070073613897 0.00033994900877587497 -0.036741629242897034
			vertex -0.01281482819467783 -0.015050194226205349 -0.036741629242897034
			vertex -0.029090262949466705 -0.011468014679849148 -0.036741629242897034
		endloop
	endfacet
	facet normal 0 0 -1
		outer loop
			vertex -0.0001845070073613897 0.00033994900877587497 -0.036741629242897034
			vertex -0.029090262949466705 -0.011468014679849148 -0.036741629242897034
			vertex -0.025282420217990875 -0.0006911219679750502 -0.036741629242897034
		endloop
	endfacet
	facet normal 0 0 -1
		outer loop
			vertex 0.0555555522441864 0.014277377165853977 -0.036741629242897034
			vertex 0.0555555522441864 0.00262987008318305 -0.036741629242897034
			vertex 0.025526106357574463 0.0013962029479444027 -0.036741629242897034
		endloop
	endfacet
	facet normal 0 0 -1
		outer loop
			vertex 0.0555555522441864 0.07126349955797195 -0.036741629242897034
			vertex 0.0555555522441864 0.014277377165853977 -0.036741629242897034
			vertex 0.025526106357574463 0.0013962029479444027 -0.036741629242897034
		endloop
	endfacet
	facet normal 0 0 -1
		outer loop
			vertex 0.0555555522441864 0.07126349955797195 -0.036741629242897034
			vertex 0.025526106357574463 0.0013962029479444027 -0.036741629242897034
			vertex -0.0001845070073613897 0.00033994900877587497 -0.036741629242897034
		endloop
	endfacet
	facet normal 0 0 -1
		outer loop
			vertex 0.0555555522441864 0.07126349955797195 -0.036741629242897034
			vertex -0.0001845070073613897 0.00033994900877587497 -0.036741629242897034
			vertex -0.03147994726896286 0.05800095945596695 -0.036741629242897034
		endloop
	endfacet
	facet normal 0 0 -1
		outer loop
			vertex 0.0555555522441864 0.07126349955797195 -0.036741629242897034
			vertex -0.03147994726896286 0.05800095945596695 -0.036741629242897034
			vertex -0.03167881816625595 0.0810137465596199 -0.036741629242897034
		endloop
	endfacet
	facet normal 0 0 -1
		outer loop
			vertex -0.03147994726896286 0.05800095945596695 -0.036741629242897034
			vertex -0.0001845070073613897 0.00033994900877587497 -0.036741629242897034
			vertex -0.030970744788646698 -0.000924816878978163 -0.036741629242897034
		endloop
	endfacet
	facet normal 0 0 -1
		outer loop
			vertex 0.0555555522441864 0.10202724486589432 -0.036741629242897034
			vertex 0.0555555522441864 0.07126349955797195 -0.036741629242897034
			vertex -0.03167881816625595 0.0810137465596199 -0.036741629242897034
		endloop
	endfacet
	facet normal 0 0 -1
		outer loop
			vertex 0.0555555522441864 0.10202724486589432 -0.036741629242897034
			vertex -0.03167881816625595 0.0810137465596199 -0.036741629242897034
			vertex -0.03186040371656418 0.10202724486589432 -0.036741629242897034
		endloop
	endfacet
	facet normal 0 0 -1
		outer loop
			vertex -0.03147994726896286 0.05800095945596695 -0.036741629242897034
			vertex -0.03820859640836716 0.07039830833673477 -0.036741629242897034
			vertex -0.03957056254148483 0.10202724486589432 -0.036741629242897034
		endloop
	endfacet
	facet normal 0 0 -1
		outer loop
			vertex -0.03147994726896286 0.05800095945596695 -0.036741629242897034
			vertex -0.03957056254148483 0.10202724486589432 -0.036741629242897034
			vertex -0.03186040371656418 0.10202724486589432 -0.036741629242897034
		endloop
	endfacet
	facet normal 0 0 -1
		outer loop
			vertex -0.03820859640836716 0.07039830833673477 -0.036741629242897034
			vertex -0.03147994726896286 0.05800095945596695 -0.036741629242897034
			vertex -0.03088303655385971 -0.011073431931436062 -0.036741629242897034
		endloop
	endfacet
	facet normal 0 0 -1
		outer loop
			vertex -0.03820859640836716 0.07039830833673477 -0.036741629242897034
			vertex -0.03088303655385971 -0.011073431931436062 -0.036741629242897034
			vertex -0.03473687916994095 -0.010225198231637478 -0.036741629242897034
		endloop
	endfacet
endsolid exported
