solid exported
	facet normal 0.15579216898520098 -0.9406691722270997 -0.3014470243748806
		outer loop
			vertex -0.0076274508610367775 -0.0088029270991683 0.03674162179231644
			vertex -0.010968142189085484 -0.009356207214295864 0.03674162179231644
			vertex -0.01218565646559 -0.008640757761895657 0.03387982398271561
		endloop
	endfacet
	facet normal 0.15578997461505872 -0.9406706292407042 -0.3014436117971934
		outer loop
			vertex -0.0076274508610367775 -0.0088029270991683 0.03674162179231644
			vertex -0.01218565646559 -0.008640757761895657 0.03387982398271561
			vertex -0.005814873613417149 -0.007633721921592951 0.03402981907129288
		endloop
	endfacet
	facet normal 0.3237509649073926 -0.8762843720384079 -0.3568066872170219
		outer loop
			vertex -0.01218565646559 -0.009806028567254543 0.03674162179231644
			vertex -0.01218565646559 -0.008640757761895657 0.03387982398271561
			vertex -0.010968142189085484 -0.009356207214295864 0.03674162179231644
		endloop
	endfacet
	facet normal -0.1824623406473921 -0.8216786611470387 -0.5399552500541923
		outer loop
			vertex -0.013394900597631931 -0.010252824984490871 0.03674162179231644
			vertex -0.01218565646559 -0.008640757761895657 0.03387982398271561
			vertex -0.01192102674394846 -0.010580114088952541 0.03674162179231644
		endloop
	endfacet
	facet normal -0.18952206745471337 -0.8208689417854186 -0.5387537158663299
		outer loop
			vertex -0.01192102674394846 -0.010580114088952541 0.03674162179231644
			vertex -0.01218565646559 -0.008640757761895657 0.03387982398271561
			vertex -0.010018945671617985 -0.011019266210496426 0.03674162179231644
		endloop
	endfacet
	facet normal 0.460344693893514 0.8221855231797063 0.3348040147277205
		outer loop
			vertex -0.010018945671617985 -0.011019266210496426 0.03674162179231644
			vertex -0.01218565646559 -0.008640757761895657 0.03387982398271561
			vertex -0.010068447329103947 -0.010991550050675869 0.03674162179231644
		endloop
	endfacet
	facet normal 0.46037563084453637 0.82217952645332 0.3347762010739259
		outer loop
			vertex -0.010068447329103947 -0.010991550050675869 0.03674162179231644
			vertex -0.01218565646559 -0.008640757761895657 0.03387982398271561
			vertex -0.01218565646559 -0.009806028567254543 0.03674162179231644
		endloop
	endfacet
	facet normal -0.18247582202152235 -0.8216737440893412 -0.5399581767616575
		outer loop
			vertex -0.014670916832983494 -0.00996944960206747 0.03674162179231644
			vertex -0.01218565646559 -0.008640757761895657 0.03387982398271561
			vertex -0.013394900597631931 -0.010252824984490871 0.03674162179231644
		endloop
	endfacet
	facet normal 0.35029094425629803 -0.6215726818223136 -0.7006737154940579
		outer loop
			vertex -0.00874284002929926 -0.005264958832412958 0.03260631114244461
			vertex -0.01218565646559 -0.008640757761895657 0.03387982398271561
			vertex -0.015333362855017185 0.010190227068960667 0.015601075254380703
		endloop
	endfacet
	facet normal 0.08909753475653215 -0.42982548903922246 -0.8985052466583052
		outer loop
			vertex -0.005814873613417149 -0.007633721921592951 0.03402981907129288
			vertex -0.01218565646559 -0.008640757761895657 0.03387982398271561
			vertex -0.00874284002929926 -0.005264958832412958 0.03260631114244461
		endloop
	endfacet
	facet normal -0.182474106034055 -0.8216747864305625 -0.5399571704972183
		outer loop
			vertex -0.020358197391033173 -0.008706442080438137 0.03674162179231644
			vertex -0.01218565646559 -0.008640757761895657 0.03387982398271561
			vertex -0.014670916832983494 -0.00996944960206747 0.03674162179231644
		endloop
	endfacet
	facet normal -0.22760078277720924 -0.7101312278137166 -0.6662668556689466
		outer loop
			vertex -0.055555559694767 0.0025744973681867123 0.03674162179231644
			vertex -0.055555559694767 0.015153207816183567 0.02333477884531021
			vertex -0.01218565646559 -0.008640757761895657 0.03387982398271561
		endloop
	endfacet
	facet normal -0.22760077627560157 -0.710131192500989 -0.6662668955275108
		outer loop
			vertex -0.055555559694767 0.0025744973681867123 0.03674162179231644
			vertex -0.01218565646559 -0.008640757761895657 0.03387982398271561
			vertex -0.020358197391033173 -0.008706442080438137 0.03674162179231644
		endloop
	endfacet
	facet normal -0.21729704946976952 -0.6983235591926821 -0.6820016121448668
		outer loop
			vertex -0.055555559694767 0.015153207816183567 0.02333477884531021
			vertex -0.055555559694767 0.04552415758371353 -0.007763021159917116
			vertex -0.015333362855017185 0.010190227068960667 0.015601075254380703
		endloop
	endfacet
	facet normal -0.2172970437956228 -0.6983236411357827 -0.6820015300485373
		outer loop
			vertex -0.055555559694767 0.015153207816183567 0.02333477884531021
			vertex -0.015333362855017185 0.010190227068960667 0.015601075254380703
			vertex -0.01218565646559 -0.008640757761895657 0.03387982398271561
		endloop
	endfacet
	facet normal 0.15579034861091268 -0.9406706452030942 -0.30144336869947047
		outer loop
			vertex 0.0555555522441864 0.0016612051986157894 0.03674162179231644
			vertex -0.0076274508610367775 -0.0088029270991683 0.03674162179231644
			vertex -0.005814873613417149 -0.007633721921592951 0.03402981907129288
		endloop
	endfacet
	facet normal 0.15579035181406015 -0.9406708867010756 -0.301442613435234
		outer loop
			vertex 0.0555555522441864 0.0016612051986157894 0.03674162179231644
			vertex -0.005814873613417149 -0.007633721921592951 0.03402981907129288
			vertex 0.0555555522441864 0.0020672171376645565 0.035474635660648346
		endloop
	endfacet
	facet normal 0.3291661132442958 -0.5106529377429307 -0.7942815917961074
		outer loop
			vertex -0.021657250821590424 0.04802260547876358 -0.02112182229757309
			vertex -0.012518004514276981 0.07045529037714005 -0.03175657242536545
			vertex 0.0004484421806409955 0.07324979454278946 -0.02817963808774948
		endloop
	endfacet
	facet normal 0.3291665053135107 -0.5106531903974763 -0.7942812668800453
		outer loop
			vertex -0.021657250821590424 0.04802260547876358 -0.02112182229757309
			vertex 0.0004484421806409955 0.07324979454278946 -0.02817963808774948
			vertex 0.01422207709401846 0.06426853686571121 -0.01669739931821823
		endloop
	endfacet
	facet normal 0.08909626311386579 -0.4298314700123604 -0.898502511563634
		outer loop
			vertex 0.0555555522441864 0.0020672171376645565 0.035474635660648346
			vertex 0.03845138102769852 -0.000636464508716017 0.035071976482868195
			vertex 0.05480680987238884 0.030703404918313026 0.021701224148273468
		endloop
	endfacet
	facet normal 0.08908282384193007 -0.4298322767156403 -0.8985034581957919
		outer loop
			vertex 0.0555555522441864 0.0020672171376645565 0.035474635660648346
			vertex 0.05480680987238884 0.030703404918313026 0.021701224148273468
			vertex 0.0555555522441864 0.030556688085198402 0.02184564620256424
		endloop
	endfacet
	facet normal 1 0 0
		outer loop
			vertex 0.0555555522441864 0.007791826035827398 0.03674162179231644
			vertex 0.0555555522441864 0.0016612051986157894 0.03674162179231644
			vertex 0.0555555522441864 0.0020672171376645565 0.035474635660648346
		endloop
	endfacet
	facet normal 1 0 0
		outer loop
			vertex 0.0555555522441864 0.007791826035827398 0.03674162179231644
			vertex 0.0555555522441864 0.0020672171376645565 0.035474635660648346
			vertex 0.0555555522441864 0.030556688085198402 0.02184564620256424
		endloop
	endfacet
	facet normal 1 0 0
		outer loop
			vertex 0.0555555522441864 0.007791826035827398 0.03674162179231644
			vertex 0.0555555522441864 0.030556688085198402 0.02184564620256424
			vertex 0.0555555522441864 0.029785702005028725 0.022601492702960968
		endloop
	endfacet
	facet normal 0.3323069690790011 -0.5195195960991031 -0.7871921414562982
		outer loop
			vertex 0.018153004348278046 0.061655350029468536 -0.01331337634474039
			vertex -0.021657250821590424 0.04802260547876358 -0.02112182229757309
			vertex 0.01422207709401846 0.06426853686571121 -0.01669739931821823
		endloop
	endfacet
	facet normal 0.08910203227931256 -0.4298340437618557 -0.8985007082173211
		outer loop
			vertex 0.03845138102769852 -0.000636464508716017 0.035071976482868195
			vertex 0.03405439108610153 -0.0013315142132341862 0.03496844321489334
			vertex 0.052336398512125015 0.031187409535050392 0.02122468501329422
		endloop
	endfacet
	facet normal 0.08910582075924625 -0.4298352766032731 -0.898499742734637
		outer loop
			vertex 0.03845138102769852 -0.000636464508716017 0.035071976482868195
			vertex 0.052336398512125015 0.031187409535050392 0.02122468501329422
			vertex 0.05480680987238884 0.030703404918313026 0.021701224148273468
		endloop
	endfacet
	facet normal 1 0 0
		outer loop
			vertex 0.0555555522441864 0.009734787978231907 0.03674162179231644
			vertex 0.0555555522441864 0.007791826035827398 0.03674162179231644
			vertex 0.0555555522441864 0.029785702005028725 0.022601492702960968
		endloop
	endfacet
	facet normal 1 0 0
		outer loop
			vertex 0.0555555522441864 0.009734787978231907 0.03674162179231644
			vertex 0.0555555522441864 0.029785702005028725 0.022601492702960968
			vertex 0.0555555522441864 0.026954228058457375 0.02537740021944046
		endloop
	endfacet
	facet normal 0.3502854337728832 -0.6215751514201655 -0.7006742795504495
		outer loop
			vertex -0.021657250821590424 0.04802260547876358 -0.02112182229757309
			vertex 0.018153004348278046 0.061655350029468536 -0.01331337634474039
			vertex 0.029198482632637024 0.052299387753009796 0.000508315279148519
		endloop
	endfacet
	facet normal 0.35028552306428645 -0.6215747821398939 -0.7006745625033942
		outer loop
			vertex -0.021657250821590424 0.04802260547876358 -0.02112182229757309
			vertex 0.029198482632637024 0.052299387753009796 0.000508315279148519
			vertex 0.032413989305496216 0.03509058803319931 0.01738191395998001
		endloop
	endfacet
	facet normal 0.35028553094023995 -0.6215747698765923 -0.7006745694448854
		outer loop
			vertex -0.021657250821590424 0.04802260547876358 -0.02112182229757309
			vertex 0.032413989305496216 0.03509058803319931 0.01738191395998001
			vertex -0.00874284002929926 -0.005264958832412958 0.03260631114244461
		endloop
	endfacet
	facet normal 0.3502913916646532 -0.6215724607300591 -0.7006736879515456
		outer loop
			vertex -0.021657250821590424 0.04802260547876358 -0.02112182229757309
			vertex -0.00874284002929926 -0.005264958832412958 0.03260631114244461
			vertex -0.015333362855017185 0.010190227068960667 0.015601075254380703
		endloop
	endfacet
	facet normal 0.08909655402227186 -0.42982647600700175 -0.8985048717646215
		outer loop
			vertex 0.03405439108610153 -0.0013315142132341862 0.03496844321489334
			vertex -0.005814873613417149 -0.007633721921592951 0.03402981907129288
			vertex -0.00874284002929926 -0.005264958832412958 0.03260631114244461
		endloop
	endfacet
	facet normal 0.08909690713917537 -0.42983189618286094 -0.8985022438269586
		outer loop
			vertex 0.03405439108610153 -0.0013315142132341862 0.03496844321489334
			vertex -0.00874284002929926 -0.005264958832412958 0.03260631114244461
			vertex 0.032413989305496216 0.03509058803319931 0.01738191395998001
		endloop
	endfacet
	facet normal 0.08909704583239357 -0.4298318857138483 -0.8985022350821492
		outer loop
			vertex 0.03405439108610153 -0.0013315142132341862 0.03496844321489334
			vertex 0.032413989305496216 0.03509058803319931 0.01738191395998001
			vertex 0.052336398512125015 0.031187409535050392 0.02122468501329422
		endloop
	endfacet
	facet normal 1 0 0
		outer loop
			vertex 0.0555555522441864 0.015362420119345188 0.03674162179231644
			vertex 0.0555555522441864 0.009734787978231907 0.03674162179231644
			vertex 0.0555555522441864 0.026954228058457375 0.02537740021944046
		endloop
	endfacet
	facet normal -0.0001350613465934447 0.7882625127502646 -0.6153390876184217
		outer loop
			vertex -0.055555559694767 0.0724307969212532 -0.029216669499874115
			vertex -0.055555559694767 0.0736364796757698 -0.027672164142131805
			vertex -0.026995770633220673 0.0768304243683815 -0.023586921393871307
		endloop
	endfacet
	facet normal -0.00013016106465185644 0.7882504602703383 -0.6153545278469128
		outer loop
			vertex -0.055555559694767 0.0724307969212532 -0.029216669499874115
			vertex -0.026995770633220673 0.0768304243683815 -0.023586921393871307
			vertex -0.021336965262889862 0.07683298736810684 -0.02358483523130417
		endloop
	endfacet
	facet normal -0.00013305440976197055 0.788258982863201 -0.6153436098896258
		outer loop
			vertex -0.055555559694767 0.0724307969212532 -0.029216669499874115
			vertex -0.021336965262889862 0.07683298736810684 -0.02358483523130417
			vertex 0.0004484421806409955 0.07324979454278946 -0.02817963808774948
		endloop
	endfacet
	facet normal -0.0001329201886412593 0.7882554824568822 -0.6153480939345565
		outer loop
			vertex -0.055555559694767 0.0724307969212532 -0.029216669499874115
			vertex 0.0004484421806409955 0.07324979454278946 -0.02817963808774948
			vertex -0.012518004514276981 0.07045529037714005 -0.03175657242536545
		endloop
	endfacet
	facet normal -0.00019906757259736846 0.7884858240343937 -0.6150528966429676
		outer loop
			vertex -0.055555559694767 0.0736364796757698 -0.027672164142131805
			vertex -0.055555559694767 0.07589305192232132 -0.02477928251028061
			vertex -0.04558254033327103 0.07682103663682938 -0.02359285205602646
		endloop
	endfacet
	facet normal -0.00020199751620495165 0.7884892963236311 -0.6150484442546528
		outer loop
			vertex -0.055555559694767 0.0736364796757698 -0.027672164142131805
			vertex -0.04558254033327103 0.07682103663682938 -0.02359285205602646
			vertex -0.026995770633220673 0.0768304243683815 -0.023586921393871307
		endloop
	endfacet
	facet normal 0.0016830246923223357 0.7807590441759026 -0.6248299627622032
		outer loop
			vertex -0.055555559694767 0.0768294408917427 -0.023609213531017303
			vertex -0.04558254033327103 0.07682103663682938 -0.02359285205602646
			vertex -0.055555559694767 0.07589305192232132 -0.02477928251028061
		endloop
	endfacet
	facet normal -0.21729675173841712 -0.6983240379816319 -0.6820012167591499
		outer loop
			vertex -0.055555559694767 0.04552415758371353 -0.007763021159917116
			vertex -0.055555559694767 0.05252719670534134 -0.01493366900831461
			vertex -0.021657250821590424 0.04802260547876358 -0.02112182229757309
		endloop
	endfacet
	facet normal -0.2172969727339214 -0.6983235167463804 -0.6820016800563188
		outer loop
			vertex -0.055555559694767 0.04552415758371353 -0.007763021159917116
			vertex -0.021657250821590424 0.04802260547876358 -0.02112182229757309
			vertex -0.015333362855017185 0.010190227068960667 0.015601075254380703
		endloop
	endfacet
	facet normal -0.22007975279295883 -0.6054018780389431 -0.76488787967748
		outer loop
			vertex -0.055555559694767 0.06822598725557327 -0.027359120547771454
			vertex -0.021657250821590424 0.04802260547876358 -0.02112182229757309
			vertex -0.055555559694767 0.05252719670534134 -0.01493366900831461
		endloop
	endfacet
	facet normal -0.07234230690439918 -0.4030356159144351 -0.912320603152325
		outer loop
			vertex -0.055555559694767 0.0715104416012764 -0.028810076415538788
			vertex -0.014846392907202244 0.0647401288151741 -0.029047183692455292
			vertex -0.021657250821590424 0.04802260547876358 -0.02112182229757309
		endloop
	endfacet
	facet normal -0.0723392625111843 -0.40303184627886207 -0.9123225098529522
		outer loop
			vertex -0.055555559694767 0.0715104416012764 -0.028810076415538788
			vertex -0.021657250821590424 0.04802260547876358 -0.02112182229757309
			vertex -0.055555559694767 0.06822598725557327 -0.027359120547771454
		endloop
	endfacet
	facet normal -0.07234153406707859 -0.4030325026111624 -0.912322039790668
		outer loop
			vertex -0.055555559694767 0.0724307969212532 -0.029216669499874115
			vertex -0.012518004514276981 0.07045529037714005 -0.03175657242536545
			vertex -0.014846392907202244 0.0647401288151741 -0.029047183692455292
		endloop
	endfacet
	facet normal -0.07234338410509707 -0.40304219783154 -0.9123176100149247
		outer loop
			vertex -0.055555559694767 0.0724307969212532 -0.029216669499874115
			vertex -0.014846392907202244 0.0647401288151741 -0.029047183692455292
			vertex -0.055555559694767 0.0715104416012764 -0.028810076415538788
		endloop
	endfacet
	facet normal 0.35028412676185094 -0.6215752877218714 -0.700674812043476
		outer loop
			vertex 0.029198482632637024 0.052299387753009796 0.000508315279148519
			vertex 0.04033989459276199 0.042862169444561005 0.014450020156800747
			vertex 0.032413989305496216 0.03509058803319931 0.01738191395998001
		endloop
	endfacet
	facet normal 0.08909715836309737 -0.42983354777137833 -0.8985014288146077
		outer loop
			vertex 0.0555555522441864 0.030556688085198402 0.02184564620256424
			vertex 0.032413989305496216 0.03509058803319931 0.01738191395998001
			vertex 0.04033989459276199 0.042862169444561005 0.014450020156800747
		endloop
	endfacet
	facet normal 0.08909786291557246 -0.42983283852477083 -0.8985016982452602
		outer loop
			vertex 0.0555555522441864 0.030556688085198402 0.02184564620256424
			vertex 0.04033989459276199 0.042862169444561005 0.014450020156800747
			vertex 0.0555555522441864 0.036804549396038055 0.01885674148797989
		endloop
	endfacet
	facet normal 1 0 0
		outer loop
			vertex 0.0555555522441864 0.026308516040444374 0.03674162179231644
			vertex 0.0555555522441864 0.015362420119345188 0.03674162179231644
			vertex 0.0555555522441864 0.030556688085198402 0.02184564620256424
		endloop
	endfacet
	facet normal 1 0 0
		outer loop
			vertex 0.0555555522441864 0.026308516040444374 0.03674162179231644
			vertex 0.0555555522441864 0.030556688085198402 0.02184564620256424
			vertex 0.0555555522441864 0.036804549396038055 0.01885674148797989
		endloop
	endfacet
	facet normal 1 0 0
		outer loop
			vertex 0.0555555522441864 0.026308516040444374 0.03674162179231644
			vertex 0.0555555522441864 0.036804549396038055 0.01885674148797989
			vertex 0.0555555522441864 0.02997390367090702 0.03349003940820694
		endloop
	endfacet
	facet normal -0.000130172744725843 0.7882630850316256 -0.6153383555666597
		outer loop
			vertex -0.026995770633220673 0.0768304243683815 -0.023586921393871307
			vertex -0.023617960512638092 0.07720816880464554 -0.023103736340999603
			vertex -0.021336965262889862 0.07683298736810684 -0.02358483523130417
		endloop
	endfacet
	facet normal -0.00020096951504238166 0.7884838732926649 -0.61505539682914
		outer loop
			vertex -0.04558254033327103 0.07682103663682938 -0.02359285205602646
			vertex -0.030053026974201202 0.07826609164476395 -0.021745406091213226
			vertex -0.023617960512638092 0.07720816880464554 -0.023103736340999603
		endloop
	endfacet
	facet normal -0.00020201322185553074 0.7885064769912987 -0.6150264180776535
		outer loop
			vertex -0.04558254033327103 0.07682103663682938 -0.02359285205602646
			vertex -0.023617960512638092 0.07720816880464554 -0.023103736340999603
			vertex -0.026995770633220673 0.0768304243683815 -0.023586921393871307
		endloop
	endfacet
	facet normal 0.001683036564506447 0.7807492100934734 -0.6248422507532121
		outer loop
			vertex -0.030053026974201202 0.07826609164476395 -0.021745406091213226
			vertex -0.04558254033327103 0.07682103663682938 -0.02359285205602646
			vertex -0.055555559694767 0.0768294408917427 -0.023609213531017303
		endloop
	endfacet
	facet normal 0.0016816826586562768 0.7807583813749577 -0.6248307945805742
		outer loop
			vertex -0.030053026974201202 0.07826609164476395 -0.021745406091213226
			vertex -0.055555559694767 0.0768294408917427 -0.023609213531017303
			vertex -0.055555559694767 0.07913956791162491 -0.020722590386867523
		endloop
	endfacet
	facet normal 0.0016815807915900622 0.7807571740564748 -0.6248323034586072
		outer loop
			vertex -0.030053026974201202 0.07826609164476395 -0.021745406091213226
			vertex -0.055555559694767 0.07913956791162491 -0.020722590386867523
			vertex -0.04103415459394455 0.08009839802980423 -0.019485406577587128
		endloop
	endfacet
	facet normal -0.00008202915309839435 0.7908770852944607 -0.6119750233688926
		outer loop
			vertex -0.055555559694767 0.08247930556535721 -0.016406528651714325
			vertex -0.04103415459394455 0.08009839802980423 -0.019485406577587128
			vertex -0.055555559694767 0.07913956791162491 -0.020722590386867523
		endloop
	endfacet
	facet normal 1 0 0
		outer loop
			vertex 0.0555555522441864 0.028456086292862892 0.03674162179231644
			vertex 0.0555555522441864 0.026308516040444374 0.03674162179231644
			vertex 0.0555555522441864 0.02997390367090702 0.03349003940820694
		endloop
	endfacet
	facet normal 0 1 0
		outer loop
			vertex -0.055555559694767 0.10202724486589432 0.03674162179231644
			vertex 0.0555555522441864 0.10202724486589432 0.03674162179231644
			vertex 0.0555555522441864 0.10202724486589432 0.00862229522317648
		endloop
	endfacet
	facet normal 0 1 0
		outer loop
			vertex -0.055555559694767 0.10202724486589432 0.03674162179231644
			vertex 0.0555555522441864 0.10202724486589432 0.00862229522317648
			vertex -0.055555559694767 0.10202724486589432 0.00862229522317648
		endloop
	endfacet
	facet normal 0.3502884644031434 -0.6215735366333643 -0.7006741969440431
		outer loop
			vertex 0.029198482632637024 0.052299387753009796 0.000508315279148519
			vertex 0.02292615920305252 0.057612307369709015 -0.007340543437749147
			vertex 0.028280533850193024 0.057212091982364655 -0.004308693576604128
		endloop
	endfacet
	facet normal 0.350285549323764 -0.6215741061442276 -0.7006751490569317
		outer loop
			vertex 0.049488525837659836 0.05183268338441849 0.011065847240388393
			vertex 0.04033989459276199 0.042862169444561005 0.014450020156800747
			vertex 0.029198482632637024 0.052299387753009796 0.000508315279148519
		endloop
	endfacet
	facet normal 0.35028533219328706 -0.6215746707684381 -0.7006747567233647
		outer loop
			vertex 0.049488525837659836 0.05183268338441849 0.011065847240388393
			vertex 0.029198482632637024 0.052299387753009796 0.000508315279148519
			vertex 0.028280533850193024 0.057212091982364655 -0.004308693576604128
		endloop
	endfacet
	facet normal 0.35028591083177735 -0.6215737916537326 -0.70067524731644
		outer loop
			vertex 0.049488525837659836 0.05183268338441849 0.011065847240388393
			vertex 0.028280533850193024 0.057212091982364655 -0.004308693576604128
			vertex 0.03815525025129318 0.05647403746843338 0.0012826690217480063
		endloop
	endfacet
	facet normal 0.3502817179242769 -0.6215788986795413 -0.7006728129479165
		outer loop
			vertex 0.049488525837659836 0.05183268338441849 0.011065847240388393
			vertex 0.03815525025129318 0.05647403746843338 0.0012826690217480063
			vertex 0.045063912868499756 0.054983951151371 0.0060583422891795635
		endloop
	endfacet
	facet normal 0.08909874826300623 -0.4298311414309254 -0.8985024223195804
		outer loop
			vertex 0.0555555522441864 0.04923591762781143 0.01290974672883749
			vertex 0.0555555522441864 0.036804549396038055 0.01885674148797989
			vertex 0.04033989459276199 0.042862169444561005 0.014450020156800747
		endloop
	endfacet
	facet normal 0.08909969611504472 -0.4298331493382094 -0.898501367768688
		outer loop
			vertex 0.0555555522441864 0.04923591762781143 0.01290974672883749
			vertex 0.04033989459276199 0.042862169444561005 0.014450020156800747
			vertex 0.049488525837659836 0.05183268338441849 0.011065847240388393
		endloop
	endfacet
	facet normal 1 0 0
		outer loop
			vertex 0.0555555522441864 0.02997390367090702 0.03349003940820694
			vertex 0.0555555522441864 0.036804549396038055 0.01885674148797989
			vertex 0.0555555522441864 0.04923591762781143 0.01290974672883749
		endloop
	endfacet
	facet normal 1 0 0
		outer loop
			vertex 0.0555555522441864 0.02997390367090702 0.03349003940820694
			vertex 0.0555555522441864 0.04923591762781143 0.01290974672883749
			vertex 0.0555555522441864 0.04751170426607132 0.017932094633579254
		endloop
	endfacet
	facet normal 1 0 0
		outer loop
			vertex 0.0555555522441864 0.04097691923379898 0.03674162179231644
			vertex 0.0555555522441864 0.028456086292862892 0.03674162179231644
			vertex 0.0555555522441864 0.02997390367090702 0.03349003940820694
		endloop
	endfacet
	facet normal 1 0 0
		outer loop
			vertex 0.0555555522441864 0.04097691923379898 0.03674162179231644
			vertex 0.0555555522441864 0.02997390367090702 0.03349003940820694
			vertex 0.0555555522441864 0.04751170426607132 0.017932094633579254
		endloop
	endfacet
	facet normal 1 0 0
		outer loop
			vertex 0.0555555522441864 0.04097691923379898 0.03674162179231644
			vertex 0.0555555522441864 0.04751170426607132 0.017932094633579254
			vertex 0.0555555522441864 0.04122241586446762 0.03625185042619705
		endloop
	endfacet
	facet normal 0.3502856391416243 -0.6215753211251875 -0.7006740263341177
		outer loop
			vertex 0.05115346983075142 0.05346522480249405 0.010449952445924282
			vertex 0.049488525837659836 0.05183268338441849 0.011065847240388393
			vertex 0.045063912868499756 0.054983951151371 0.0060583422891795635
		endloop
	endfacet
	facet normal 0.3502843211701341 -0.6215773377995083 -0.7006728962051083
		outer loop
			vertex 0.05115346983075142 0.05346522480249405 0.010449952445924282
			vertex 0.045063912868499756 0.054983951151371 0.0060583422891795635
			vertex 0.05075901001691818 0.05375561863183975 0.009995139203965664
		endloop
	endfacet
	facet normal 0.08909813674737883 -0.42983595077994047 -0.8985001822177057
		outer loop
			vertex 0.0555555522441864 0.04923591762781143 0.01290974672883749
			vertex 0.049488525837659836 0.05183268338441849 0.011065847240388393
			vertex 0.05115346983075142 0.05346522480249405 0.010449952445924282
		endloop
	endfacet
	facet normal 0.08908715409156594 -0.4298453892993129 -0.8984967558505639
		outer loop
			vertex 0.0555555522441864 0.04923591762781143 0.01290974672883749
			vertex 0.05115346983075142 0.05346522480249405 0.010449952445924282
			vertex 0.0555555522441864 0.051509566605091095 0.011822021566331387
		endloop
	endfacet
	facet normal 1 0 0
		outer loop
			vertex 0.0555555522441864 0.051509566605091095 0.011822021566331387
			vertex 0.0555555522441864 0.050224609673023224 0.01552546676248312
			vertex 0.0555555522441864 0.04751170426607132 0.017932094633579254
		endloop
	endfacet
	facet normal 1 0 0
		outer loop
			vertex 0.0555555522441864 0.051509566605091095 0.011822021566331387
			vertex 0.0555555522441864 0.04751170426607132 0.017932094633579254
			vertex 0.0555555522441864 0.04923591762781143 0.01290974672883749
		endloop
	endfacet
	facet normal 1 0 0
		outer loop
			vertex 0.0555555522441864 0.050224609673023224 0.01552546676248312
			vertex 0.0555555522441864 0.04710603505373001 0.02451346069574356
			vertex 0.0555555522441864 0.04122241586446762 0.03625185042619705
		endloop
	endfacet
	facet normal 1 0 0
		outer loop
			vertex 0.0555555522441864 0.050224609673023224 0.01552546676248312
			vertex 0.0555555522441864 0.04122241586446762 0.03625185042619705
			vertex 0.0555555522441864 0.04751170426607132 0.017932094633579254
		endloop
	endfacet
	facet normal 0.35031666982996806 -0.6215483464522337 -0.7006824415252142
		outer loop
			vertex 0.05132509768009186 0.053633518517017365 0.010386473499238491
			vertex 0.05115346983075142 0.05346522480249405 0.010449952445924282
			vertex 0.05075901001691818 0.05375561863183975 0.009995139203965664
		endloop
	endfacet
	facet normal 0.08911617129714956 -0.42979497450028087 -0.8985179953165323
		outer loop
			vertex 0.0555555522441864 0.051509566605091095 0.011822021566331387
			vertex 0.05115346983075142 0.05346522480249405 0.010449952445924282
			vertex 0.05132509768009186 0.053633518517017365 0.010386473499238491
		endloop
	endfacet
	facet normal 0.0891003047882455 -0.4298196596684237 -0.8985077605948446
		outer loop
			vertex 0.0555555522441864 0.051509566605091095 0.011822021566331387
			vertex 0.05132509768009186 0.053633518517017365 0.010386473499238491
			vertex 0.0555555522441864 0.05408478528261185 0.010590112768113613
		endloop
	endfacet
	facet normal 1 0 0
		outer loop
			vertex 0.0555555522441864 0.05408478528261185 0.010590112768113613
			vertex 0.0555555522441864 0.052721090614795685 0.013310826383531094
			vertex 0.0555555522441864 0.050224609673023224 0.01552546676248312
		endloop
	endfacet
	facet normal 1 0 0
		outer loop
			vertex 0.0555555522441864 0.05408478528261185 0.010590112768113613
			vertex 0.0555555522441864 0.050224609673023224 0.01552546676248312
			vertex 0.0555555522441864 0.051509566605091095 0.011822021566331387
		endloop
	endfacet
	facet normal 1 0 0
		outer loop
			vertex 0.0555555522441864 0.052721090614795685 0.013310826383531094
			vertex 0.0555555522441864 0.04710603505373001 0.02451346069574356
			vertex 0.0555555522441864 0.050224609673023224 0.01552546676248312
		endloop
	endfacet
	facet normal 0.35028330165575694 -0.6215786057992363 -0.7006722810228899
		outer loop
			vertex 0.05308402702212334 0.05535817891359329 0.009735829196870327
			vertex 0.05132509768009186 0.053633518517017365 0.010386473499238491
			vertex 0.03815525025129318 0.05647403746843338 0.0012826690217480063
		endloop
	endfacet
	facet normal 0.0891019369114751 -0.4298392657223061 -0.8984982195207358
		outer loop
			vertex 0.0555555522441864 0.05408478528261185 0.010590112768113613
			vertex 0.05132509768009186 0.053633518517017365 0.010386473499238491
			vertex 0.05308402702212334 0.05535817891359329 0.009735829196870327
		endloop
	endfacet
	facet normal 0.08909982984363259 -0.4298424678091491 -0.8984968965942935
		outer loop
			vertex 0.0555555522441864 0.05408478528261185 0.010590112768113613
			vertex 0.05308402702212334 0.05535817891359329 0.009735829196870327
			vertex 0.0555555522441864 0.055105872452259064 0.0101016229018569
		endloop
	endfacet
	facet normal 1 0 0
		outer loop
			vertex 0.0555555522441864 0.052721090614795685 0.013310826383531094
			vertex 0.0555555522441864 0.05408478528261185 0.010590112768113613
			vertex 0.0555555522441864 0.055105872452259064 0.0101016229018569
		endloop
	endfacet
	facet normal 1 0 0
		outer loop
			vertex 0.0555555522441864 0.052721090614795685 0.013310826383531094
			vertex 0.0555555522441864 0.055105872452259064 0.0101016229018569
			vertex 0.0555555522441864 0.05517346411943436 0.011135286651551723
		endloop
	endfacet
	facet normal 1 0 0
		outer loop
			vertex 0.0555555522441864 0.05684790760278702 0.03674162179231644
			vertex 0.0555555522441864 0.04097691923379898 0.03674162179231644
			vertex 0.0555555522441864 0.052721090614795685 0.013310826383531094
		endloop
	endfacet
	facet normal 1 0 0
		outer loop
			vertex 0.0555555522441864 0.05684790760278702 0.03674162179231644
			vertex 0.0555555522441864 0.052721090614795685 0.013310826383531094
			vertex 0.0555555522441864 0.05517346411943436 0.011135286651551723
		endloop
	endfacet
	facet normal 0.35028868760464194 -0.6215695240953878 -0.7006776448924645
		outer loop
			vertex 0.03815525025129318 0.05647403746843338 0.0012826690217480063
			vertex 0.02292615920305252 0.057612307369709015 -0.007340543437749147
			vertex 0.019526533782482147 0.06049192696809769 -0.011594616807997227
		endloop
	endfacet
	facet normal 0.33230710506788813 -0.519518229863216 -0.7871929857164572
		outer loop
			vertex 0.023081421852111816 0.06334305554628372 -0.012346708215773106
			vertex 0.018153004348278046 0.061655350029468536 -0.01331337634474039
			vertex 0.014596200548112392 0.0640198364853859 -0.016375325620174408
		endloop
	endfacet
	facet normal 0.3502857024370203 -0.6215739589755331 -0.700675203066075
		outer loop
			vertex 0.018153004348278046 0.061655350029468536 -0.01331337634474039
			vertex 0.023081421852111816 0.06334305554628372 -0.012346708215773106
			vertex 0.0555555522441864 0.061436332762241364 0.0055794189684093
		endloop
	endfacet
	facet normal 0.3502852219197037 -0.6215752847947369 -0.7006742671434464
		outer loop
			vertex 0.018153004348278046 0.061655350029468536 -0.01331337634474039
			vertex 0.0555555522441864 0.061436332762241364 0.0055794189684093
			vertex 0.0555555522441864 0.057781584560871124 0.008821583352982998
		endloop
	endfacet
	facet normal 0.35028542437348587 -0.6215748674128173 -0.700674536195105
		outer loop
			vertex 0.018153004348278046 0.061655350029468536 -0.01331337634474039
			vertex 0.0555555522441864 0.057781584560871124 0.008821583352982998
			vertex 0.05308402702212334 0.05535817891359329 0.009735829196870327
		endloop
	endfacet
	facet normal 0.3502834071371657 -0.6215783712649128 -0.7006724363495662
		outer loop
			vertex 0.018153004348278046 0.061655350029468536 -0.01331337634474039
			vertex 0.05308402702212334 0.05535817891359329 0.009735829196870327
			vertex 0.03815525025129318 0.05647403746843338 0.0012826690217480063
		endloop
	endfacet
	facet normal 0.3502810652210135 -0.6215818976386015 -0.7006704788098521
		outer loop
			vertex 0.018153004348278046 0.061655350029468536 -0.01331337634474039
			vertex 0.03815525025129318 0.05647403746843338 0.0012826690217480063
			vertex 0.019526533782482147 0.06049192696809769 -0.011594616807997227
		endloop
	endfacet
	facet normal 0.08910103657539399 -0.42983538558607776 -0.8985001650413083
		outer loop
			vertex 0.0555555522441864 0.055105872452259064 0.0101016229018569
			vertex 0.05308402702212334 0.05535817891359329 0.009735829196870327
			vertex 0.0555555522441864 0.057781584560871124 0.008821583352982998
		endloop
	endfacet
	facet normal 1 0 0
		outer loop
			vertex 0.0555555522441864 0.05517346411943436 0.011135286651551723
			vertex 0.0555555522441864 0.055105872452259064 0.0101016229018569
			vertex 0.0555555522441864 0.057781584560871124 0.008821583352982998
		endloop
	endfacet
	facet normal 1 0 0
		outer loop
			vertex 0.0555555522441864 0.06992635875940323 0.03674162179231644
			vertex 0.0555555522441864 0.05684790760278702 0.03674162179231644
			vertex 0.0555555522441864 0.05517346411943436 0.011135286651551723
		endloop
	endfacet
	facet normal 1 0 0
		outer loop
			vertex 0.0555555522441864 0.06992635875940323 0.03674162179231644
			vertex 0.0555555522441864 0.05517346411943436 0.011135286651551723
			vertex 0.0555555522441864 0.061436332762241364 0.0055794189684093
		endloop
	endfacet
	facet normal 0.329168562106444 -0.5107142551713231 -0.7942411518459472
		outer loop
			vertex 0.0004484421806409955 0.07324979454278946 -0.02817963808774948
			vertex 0.0555555522441864 0.08512631803750992 -0.01297768298536539
			vertex 0.0555555522441864 0.08506161719560623 -0.012936078943312168
		endloop
	endfacet
	facet normal 0.329170167679635 -0.5107633400842658 -0.7942089215916213
		outer loop
			vertex 0.0004484421806409955 0.07324979454278946 -0.02817963808774948
			vertex 0.0555555522441864 0.08506161719560623 -0.012936078943312168
			vertex 0.0005263007478788495 0.07319904118776321 -0.02811472862958908
		endloop
	endfacet
	facet normal -0.00013441675992988694 0.7882633969538573 -0.6153379550742017
		outer loop
			vertex -0.023617960512638092 0.07720816880464554 -0.023103736340999603
			vertex 0.0555555522441864 0.08606240898370743 -0.011778526939451694
			vertex 0.0555555522441864 0.08512631803750992 -0.01297768298536539
		endloop
	endfacet
	facet normal -0.00013313807401571466 0.7882585507910572 -0.6153441633582264
		outer loop
			vertex -0.023617960512638092 0.07720816880464554 -0.023103736340999603
			vertex 0.0555555522441864 0.08512631803750992 -0.01297768298536539
			vertex 0.0004484421806409955 0.07324979454278946 -0.02817963808774948
		endloop
	endfacet
	facet normal -0.00019269132271945396 0.7884551159262503 -0.61509226384322
		outer loop
			vertex -0.030053026974201202 0.07826609164476395 -0.021745406091213226
			vertex 0.0555555522441864 0.0862320140004158 -0.011561118997633457
			vertex 0.0555555522441864 0.08606240898370743 -0.011778526939451694
		endloop
	endfacet
	facet normal -0.00020008892707738075 0.7884858977603031 -0.6150528017963584
		outer loop
			vertex -0.030053026974201202 0.07826609164476395 -0.021745406091213226
			vertex 0.0555555522441864 0.08606240898370743 -0.011778526939451694
			vertex -0.023617960512638092 0.07720816880464554 -0.023103736340999603
		endloop
	endfacet
	facet normal 1 0 0
		outer loop
			vertex 0.0555555522441864 0.08798003941774368 -0.009322070516645908
			vertex 0.0555555522441864 0.08623728901147842 -0.011554532684385777
			vertex 0.0555555522441864 0.08778984099626541 -0.009568029083311558
		endloop
	endfacet
	facet normal 0.0016735974260374317 0.7807932479984058 -0.624787246150044
		outer loop
			vertex 0.0555555522441864 0.08647597581148148 -0.011256241239607334
			vertex 0.0555555522441864 0.0862320140004158 -0.011561118997633457
			vertex -0.030053026974201202 0.07826609164476395 -0.021745406091213226
		endloop
	endfacet
	facet normal 0.0016822087816668952 0.7807586542523834 -0.6248304521897295
		outer loop
			vertex 0.0555555522441864 0.08647597581148148 -0.011256241239607334
			vertex -0.030053026974201202 0.07826609164476395 -0.021745406091213226
			vertex -0.04103415459394455 0.08009839802980423 -0.019485406577587128
		endloop
	endfacet
	facet normal 0.00007643635741986584 0.7879486903606301 -0.6157408996619042
		outer loop
			vertex -0.055555559694767 0.09493578225374222 -0.0004390111134853214
			vertex 0.0555555522441864 0.08766306191682816 -0.009731941856443882
			vertex 0.0555555522441864 0.08689103275537491 -0.010719888843595982
		endloop
	endfacet
	facet normal 0.00007492586558190748 0.7879407741123672 -0.6157510299441799
		outer loop
			vertex -0.055555559694767 0.09493578225374222 -0.0004390111134853214
			vertex 0.0555555522441864 0.08689103275537491 -0.010719888843595982
			vertex -0.055555559694767 0.08466244488954544 -0.01358520332723856
		endloop
	endfacet
	facet normal -0.00008121324216251699 0.7908746434903726 -0.6119781790949619
		outer loop
			vertex -0.055555559694767 0.08247930556535721 -0.016406528651714325
			vertex -0.055555559694767 0.08466244488954544 -0.01358520332723856
			vertex 0.0555555522441864 0.08689103275537491 -0.010719888843595982
		endloop
	endfacet
	facet normal -0.00007910721208590189 0.790854746169763 -0.6120038923101788
		outer loop
			vertex -0.055555559694767 0.08247930556535721 -0.016406528651714325
			vertex 0.0555555522441864 0.08689103275537491 -0.010719888843595982
			vertex 0.0555555522441864 0.08647597581148148 -0.011256241239607334
		endloop
	endfacet
	facet normal -0.00008138902860684641 0.7908785469255427 -0.611973134531875
		outer loop
			vertex -0.055555559694767 0.08247930556535721 -0.016406528651714325
			vertex 0.0555555522441864 0.08647597581148148 -0.011256241239607334
			vertex -0.04103415459394455 0.08009839802980423 -0.019485406577587128
		endloop
	endfacet
	facet normal -7.584115667749175e-8 0.7842811075124446 -0.6204056289227619
		outer loop
			vertex 0.0555555522441864 0.1003018394112587 0.006441123317927122
			vertex -0.055555559694767 0.10117540508508682 0.007545448374003172
			vertex -0.055555559694767 0.10202724486589432 0.00862229522317648
		endloop
	endfacet
	facet normal 0 0.7842829873496434 -0.6204032525333173
		outer loop
			vertex 0.0555555522441864 0.1003018394112587 0.006441123317927122
			vertex -0.055555559694767 0.10202724486589432 0.00862229522317648
			vertex 0.05250614508986473 0.10202724486589432 0.00862229522317648
		endloop
	endfacet
	facet normal -0.000009632140657954529 0.7842764349480583 -0.6204115355893911
		outer loop
			vertex 0.0555555522441864 0.1003018394112587 0.006441123317927122
			vertex 0.05250614508986473 0.10202724486589432 0.00862229522317648
			vertex 0.0555555522441864 0.10130471736192703 0.007708884309977293
		endloop
	endfacet
	facet normal 1 0 0
		outer loop
			vertex 0.0555555522441864 0.10130471736192703 0.007708884309977293
			vertex 0.0555555522441864 0.1012919619679451 0.007708109449595213
			vertex 0.0555555522441864 0.10029364377260208 0.006430752109736204
		endloop
	endfacet
	facet normal 1 0 0
		outer loop
			vertex 0.0555555522441864 0.08703387528657913 -0.010535293258726597
			vertex 0.0555555522441864 0.08623728901147842 -0.011554532684385777
			vertex 0.0555555522441864 0.08647597581148148 -0.011256241239607334
		endloop
	endfacet
	facet normal 1.0066594062502767e-7 0.7842882525835744 -0.620396596427957
		outer loop
			vertex 0.0555555522441864 0.09904906898736954 0.004857457708567381
			vertex -0.042049698531627655 0.09779531508684158 0.003272480797022581
			vertex -0.055555559694767 0.09826440364122391 0.0038654874078929424
		endloop
	endfacet
	facet normal 1.7096522689334735e-7 0.7842844211650853 -0.6204014399706999
		outer loop
			vertex 0.0555555522441864 0.09904906898736954 0.004857457708567381
			vertex -0.055555559694767 0.09826440364122391 0.0038654874078929424
			vertex -0.055555559694767 0.10117540508508682 0.007545448374003172
		endloop
	endfacet
	facet normal -1.330588588270778e-7 0.7842783063276545 -0.6204091700029974
		outer loop
			vertex 0.0555555522441864 0.09904906898736954 0.004857457708567381
			vertex -0.055555559694767 0.10117540508508682 0.007545448374003172
			vertex 0.0555555522441864 0.1003018394112587 0.006441123317927122
		endloop
	endfacet
	facet normal 0.0006119327084054496 0.7910431866734386 -0.611760003887057
		outer loop
			vertex 0.0555555522441864 0.08798003941774368 -0.009322070516645908
			vertex 0.0555555522441864 0.08766306191682816 -0.009731941856443882
			vertex -0.055555559694767 0.09493578225374222 -0.0004390111134853214
		endloop
	endfacet
	facet normal 0.0006163508418191116 0.7910698024611681 -0.6117255820592175
		outer loop
			vertex 0.0555555522441864 0.08798003941774368 -0.009322070516645908
			vertex -0.055555559694767 0.09493578225374222 -0.0004390111134853214
			vertex -0.055555559694767 0.09826440364122391 0.0038654874078929424
		endloop
	endfacet
	facet normal 0.0006163658083917659 0.7910698632827452 -0.61172550339103
		outer loop
			vertex 0.0555555522441864 0.08798003941774368 -0.009322070516645908
			vertex -0.055555559694767 0.09826440364122391 0.0038654874078929424
			vertex -0.042049698531627655 0.09779531508684158 0.003272480797022581
		endloop
	endfacet
	facet normal 1 0 0
		outer loop
			vertex 0.0555555522441864 0.1012919619679451 0.007708109449595213
			vertex 0.0555555522441864 0.10127351433038712 0.007706947159022093
			vertex 0.0555555522441864 0.09904906898736954 0.004857457708567381
		endloop
	endfacet
	facet normal 1 0 0
		outer loop
			vertex 0.0555555522441864 0.1012919619679451 0.007708109449595213
			vertex 0.0555555522441864 0.09904906898736954 0.004857457708567381
			vertex 0.0555555522441864 0.10029364377260208 0.006430752109736204
		endloop
	endfacet
	facet normal 1.7976204690032868e-7 0.7842858825571771 -0.6203995925381299
		outer loop
			vertex 0.0555555522441864 0.09440536051988602 -0.0010129442671313882
			vertex -0.042049698531627655 0.09779531508684158 0.003272480797022581
			vertex 0.0555555522441864 0.09904906898736954 0.004857457708567381
		endloop
	endfacet
	facet normal 0.0006167793485530958 0.7910714094461745 -0.6117235035047112
		outer loop
			vertex 0.0555555522441864 0.08798003941774368 -0.009322070516645908
			vertex -0.042049698531627655 0.09779531508684158 0.003272480797022581
			vertex 0.0555555522441864 0.09440536051988602 -0.0010129442671313882
		endloop
	endfacet
	facet normal 1 0 0
		outer loop
			vertex 0.0555555522441864 0.09078792482614517 -0.005585931707173586
			vertex 0.0555555522441864 0.08506161719560623 -0.012936078943312168
			vertex 0.0555555522441864 0.08512631803750992 -0.01297768298536539
		endloop
	endfacet
	facet normal 1 0 0
		outer loop
			vertex 0.0555555522441864 0.09078792482614517 -0.005585931707173586
			vertex 0.0555555522441864 0.08512631803750992 -0.01297768298536539
			vertex 0.0555555522441864 0.08798003941774368 -0.009322070516645908
		endloop
	endfacet
	facet normal 1 0 0
		outer loop
			vertex 0.0555555522441864 0.09078792482614517 -0.005585931707173586
			vertex 0.0555555522441864 0.08798003941774368 -0.009322070516645908
			vertex 0.0555555522441864 0.09440536051988602 -0.0010129442671313882
		endloop
	endfacet
	facet normal 1 0 0
		outer loop
			vertex 0.0555555522441864 0.10127351433038712 0.007706947159022093
			vertex 0.0555555522441864 0.10113740712404251 0.007698513101786375
			vertex 0.0555555522441864 0.09078792482614517 -0.005585931707173586
		endloop
	endfacet
	facet normal 1 0 0
		outer loop
			vertex 0.0555555522441864 0.10127351433038712 0.007706947159022093
			vertex 0.0555555522441864 0.09078792482614517 -0.005585931707173586
			vertex 0.0555555522441864 0.09904906898736954 0.004857457708567381
		endloop
	endfacet
	facet normal 0 0.7842920816862603 -0.6203917557513419
		outer loop
			vertex 0.0555555522441864 0.10130471736192703 0.007708884309977293
			vertex 0.05250614508986473 0.10202724486589432 0.00862229522317648
			vertex 0.0555555522441864 0.10202724486589432 0.00862229522317648
		endloop
	endfacet
	facet normal 1 0 0
		outer loop
			vertex 0.0555555522441864 0.10202724486589432 0.00862229522317648
			vertex 0.0555555522441864 0.10202724486589432 0.008840656839311123
			vertex 0.0555555522441864 0.10113740712404251 0.007698513101786375
		endloop
	endfacet
	facet normal 1 0 0
		outer loop
			vertex 0.0555555522441864 0.10202724486589432 0.00862229522317648
			vertex 0.0555555522441864 0.10113740712404251 0.007698513101786375
			vertex 0.0555555522441864 0.10130471736192703 0.007708884309977293
		endloop
	endfacet
	facet normal 0.3291669834762422 -0.5106651144260991 -0.794273402486405
		outer loop
			vertex 0.0555555522441864 0.08506161719560623 -0.012936078943312168
			vertex 0.0555555522441864 0.0844496563076973 -0.012542628683149815
			vertex 0.0013863808708265424 0.07263819128274918 -0.02739771455526352
		endloop
	endfacet
	facet normal 0.3291664431659822 -0.5106547146803777 -0.7942803126530068
		outer loop
			vertex 0.0555555522441864 0.08506161719560623 -0.012936078943312168
			vertex 0.0013863808708265424 0.07263819128274918 -0.02739771455526352
			vertex 0.0005263007478788495 0.07319904118776321 -0.02811472862958908
		endloop
	endfacet
	facet normal 1 0 0
		outer loop
			vertex 0.0555555522441864 0.08506161719560623 -0.012936078943312168
			vertex 0.0555555522441864 0.10113740712404251 0.007698513101786375
			vertex 0.0555555522441864 0.10017804056406021 0.007638819050043821
		endloop
	endfacet
	facet normal 1 0 0
		outer loop
			vertex 0.0555555522441864 0.08506161719560623 -0.012936078943312168
			vertex 0.0555555522441864 0.10017804056406021 0.007638819050043821
			vertex 0.0555555522441864 0.0844496563076973 -0.012542628683149815
		endloop
	endfacet
	facet normal 1 0 0
		outer loop
			vertex 0.0555555522441864 0.10113740712404251 0.007698513101786375
			vertex 0.0555555522441864 0.10202724486589432 0.008840656839311123
			vertex 0.0555555522441864 0.10202724486589432 0.010011560283601284
		endloop
	endfacet
	facet normal 1 0 0
		outer loop
			vertex 0.0555555522441864 0.10113740712404251 0.007698513101786375
			vertex 0.0555555522441864 0.10202724486589432 0.010011560283601284
			vertex 0.0555555522441864 0.10017804056406021 0.007638819050043821
		endloop
	endfacet
	facet normal 0.32916465720320354 -0.5106478496889242 -0.7942854663509686
		outer loop
			vertex 0.0555555522441864 0.0844496563076973 -0.012542628683149815
			vertex 0.0555555522441864 0.0829840674996376 -0.01160039845854044
			vertex 0.01422207709401846 0.06426853686571121 -0.01669739931821823
		endloop
	endfacet
	facet normal 0.32916650690324784 -0.5106523979134658 -0.7942817757183792
		outer loop
			vertex 0.0555555522441864 0.0844496563076973 -0.012542628683149815
			vertex 0.01422207709401846 0.06426853686571121 -0.01669739931821823
			vertex 0.0013863808708265424 0.07263819128274918 -0.02739771455526352
		endloop
	endfacet
	facet normal 0.3323066678151136 -0.5195195651255653 -0.7871922890738701
		outer loop
			vertex 0.0555555522441864 0.0744636133313179 -0.005977206397801638
			vertex 0.023081421852111816 0.06334305554628372 -0.012346708215773106
			vertex 0.014596200548112392 0.0640198364853859 -0.016375325620174408
		endloop
	endfacet
	facet normal 0.3323075337983972 -0.5195305308754875 -0.7871846863786549
		outer loop
			vertex 0.0555555522441864 0.0744636133313179 -0.005977206397801638
			vertex 0.014596200548112392 0.0640198364853859 -0.016375325620174408
			vertex 0.01422207709401846 0.06426853686571121 -0.01669739931821823
		endloop
	endfacet
	facet normal 0.332306735596288 -0.519518798673922 -0.7871927662915507
		outer loop
			vertex 0.0555555522441864 0.0744636133313179 -0.005977206397801638
			vertex 0.01422207709401846 0.06426853686571121 -0.01669739931821823
			vertex 0.0555555522441864 0.0829840674996376 -0.01160039845854044
		endloop
	endfacet
	facet normal 0.35028523809941886 -0.6215750393326024 -0.7006744768066748
		outer loop
			vertex 0.0555555522441864 0.061436332762241364 0.0055794189684093
			vertex 0.023081421852111816 0.06334305554628372 -0.012346708215773106
			vertex 0.0555555522441864 0.0744636133313179 -0.005977206397801638
		endloop
	endfacet
	facet normal 1 0 0
		outer loop
			vertex 0.0555555522441864 0.06539265066385269 0.020100928843021393
			vertex 0.0555555522441864 0.061436332762241364 0.0055794189684093
			vertex 0.0555555522441864 0.0744636133313179 -0.005977206397801638
		endloop
	endfacet
	facet normal 1 0 0
		outer loop
			vertex 0.0555555522441864 0.06539265066385269 0.020100928843021393
			vertex 0.0555555522441864 0.0744636133313179 -0.005977206397801638
			vertex 0.0555555522441864 0.0829840674996376 -0.01160039845854044
		endloop
	endfacet
	facet normal 1 0 0
		outer loop
			vertex 0.0555555522441864 0.06539265066385269 0.020100928843021393
			vertex 0.0555555522441864 0.0829840674996376 -0.01160039845854044
			vertex 0.0555555522441864 0.0844496563076973 -0.012542628683149815
		endloop
	endfacet
	facet normal 1 0 0
		outer loop
			vertex 0.0555555522441864 0.06539265066385269 0.020100928843021393
			vertex 0.0555555522441864 0.0844496563076973 -0.012542628683149815
			vertex 0.0555555522441864 0.09319258481264114 -0.0013243785360828042
		endloop
	endfacet
	facet normal 1 0 0
		outer loop
			vertex 0.0555555522441864 0.08295286446809769 0.0065673659555613995
			vertex 0.0555555522441864 0.09319258481264114 -0.0013243785360828042
			vertex 0.0555555522441864 0.10017804056406021 0.007638819050043821
		endloop
	endfacet
	facet normal 1 0 0
		outer loop
			vertex 0.0555555522441864 0.07112226635217667 0.03674162179231644
			vertex 0.0555555522441864 0.06992635875940323 0.03674162179231644
			vertex 0.0555555522441864 0.06539265066385269 0.020100928843021393
		endloop
	endfacet
	facet normal 1 0 0
		outer loop
			vertex 0.0555555522441864 0.07112226635217667 0.03674162179231644
			vertex 0.0555555522441864 0.06539265066385269 0.020100928843021393
			vertex 0.0555555522441864 0.08295286446809769 0.0065673659555613995
		endloop
	endfacet
	facet normal 1 0 0
		outer loop
			vertex 0.0555555522441864 0.07112226635217667 0.03674162179231644
			vertex 0.0555555522441864 0.08295286446809769 0.0065673659555613995
			vertex 0.0555555522441864 0.10017804056406021 0.007638819050043821
		endloop
	endfacet
	facet normal 1 0 0
		outer loop
			vertex 0.0555555522441864 0.07112226635217667 0.03674162179231644
			vertex 0.0555555522441864 0.10017804056406021 0.007638819050043821
			vertex 0.0555555522441864 0.10202724486589432 0.010011560283601284
		endloop
	endfacet
	facet normal 1 0 0
		outer loop
			vertex 0.0555555522441864 0.07112226635217667 0.03674162179231644
			vertex 0.0555555522441864 0.10202724486589432 0.010011560283601284
			vertex 0.0555555522441864 0.10202724486589432 0.011981851421296597
		endloop
	endfacet
	facet normal 1 0 0
		outer loop
			vertex 0.0555555522441864 0.10202724486589432 0.03674162179231644
			vertex 0.0555555522441864 0.07112226635217667 0.03674162179231644
			vertex 0.0555555522441864 0.10202724486589432 0.011981851421296597
		endloop
	endfacet
	facet normal -1 0 0
		outer loop
			vertex -0.055555559694767 0.028094032779335976 0.010084248147904873
			vertex -0.055555559694767 0.03152843564748764 0.01131702121347189
			vertex -0.055555559694767 0.04552415758371353 -0.007763021159917116
		endloop
	endfacet
	facet normal -1 0 0
		outer loop
			vertex -0.055555559694767 0.0025744973681867123 0.03674162179231644
			vertex -0.055555559694767 0.012878798879683018 0.03674162179231644
			vertex -0.055555559694767 0.03152843564748764 0.01131702121347189
		endloop
	endfacet
	facet normal -1 0 0
		outer loop
			vertex -0.055555559694767 0.0025744973681867123 0.03674162179231644
			vertex -0.055555559694767 0.03152843564748764 0.01131702121347189
			vertex -0.055555559694767 0.028094032779335976 0.010084248147904873
		endloop
	endfacet
	facet normal -1 0 0
		outer loop
			vertex -0.055555559694767 0.0025744973681867123 0.03674162179231644
			vertex -0.055555559694767 0.028094032779335976 0.010084248147904873
			vertex -0.055555559694767 0.015153207816183567 0.02333477884531021
		endloop
	endfacet
	facet normal -1 0 0
		outer loop
			vertex -0.055555559694767 0.07596323639154434 -0.024691574275493622
			vertex -0.055555559694767 0.07681740075349808 -0.02359738200902939
			vertex -0.055555559694767 0.0768294408917427 -0.023609213531017303
		endloop
	endfacet
	facet normal -1 0 0
		outer loop
			vertex -0.055555559694767 0.05252719670534134 -0.01493366900831461
			vertex -0.055555559694767 0.04552415758371353 -0.007763021159917116
			vertex -0.055555559694767 0.03152843564748764 0.01131702121347189
		endloop
	endfacet
	facet normal -1 0 0
		outer loop
			vertex -0.055555559694767 0.05252719670534134 -0.01493366900831461
			vertex -0.055555559694767 0.03152843564748764 0.01131702121347189
			vertex -0.055555559694767 0.03861076384782791 0.013859218917787075
		endloop
	endfacet
	facet normal -1 0 0
		outer loop
			vertex -0.055555559694767 0.05252719670534134 -0.01493366900831461
			vertex -0.055555559694767 0.03861076384782791 0.013859218917787075
			vertex -0.055555559694767 0.04360703378915787 0.008960998617112637
		endloop
	endfacet
	facet normal -1 0 0
		outer loop
			vertex -0.055555559694767 0.05252719670534134 -0.01493366900831461
			vertex -0.055555559694767 0.04360703378915787 0.008960998617112637
			vertex -0.055555559694767 0.0715104416012764 -0.028810076415538788
		endloop
	endfacet
	facet normal -1 0 0
		outer loop
			vertex -0.055555559694767 0.05252719670534134 -0.01493366900831461
			vertex -0.055555559694767 0.0715104416012764 -0.028810076415538788
			vertex -0.055555559694767 0.06822598725557327 -0.027359120547771454
		endloop
	endfacet
	facet normal -1 0 0
		outer loop
			vertex -0.055555559694767 0.014283576048910618 0.03674162179231644
			vertex -0.055555559694767 0.01527013722807169 0.03674162179231644
			vertex -0.055555559694767 0.03861076384782791 0.013859218917787075
		endloop
	endfacet
	facet normal -1 0 0
		outer loop
			vertex -0.055555559694767 0.014283576048910618 0.03674162179231644
			vertex -0.055555559694767 0.03861076384782791 0.013859218917787075
			vertex -0.055555559694767 0.03152843564748764 0.01131702121347189
		endloop
	endfacet
	facet normal -1 0 0
		outer loop
			vertex -0.055555559694767 0.014283576048910618 0.03674162179231644
			vertex -0.055555559694767 0.03152843564748764 0.01131702121347189
			vertex -0.055555559694767 0.012938910163939 0.036659665405750275
		endloop
	endfacet
	facet normal -1 0 0
		outer loop
			vertex -0.055555559694767 0.04360703378915787 0.008960998617112637
			vertex -0.055555559694767 0.07681740075349808 -0.02359738200902939
			vertex -0.055555559694767 0.0724307969212532 -0.029216669499874115
		endloop
	endfacet
	facet normal -1 0 0
		outer loop
			vertex -0.055555559694767 0.04360703378915787 0.008960998617112637
			vertex -0.055555559694767 0.0724307969212532 -0.029216669499874115
			vertex -0.055555559694767 0.0715104416012764 -0.028810076415538788
		endloop
	endfacet
	facet normal -1 0 0
		outer loop
			vertex -0.055555559694767 0.012878798879683018 0.03674162179231644
			vertex -0.055555559694767 0.014283576048910618 0.03674162179231644
			vertex -0.055555559694767 0.012938910163939 0.036659665405750275
		endloop
	endfacet
	facet normal -1 0 0
		outer loop
			vertex -0.055555559694767 0.0768294408917427 -0.023609213531017303
			vertex -0.055555559694767 0.08247119933366776 -0.016389183700084686
			vertex -0.055555559694767 0.08247930556535721 -0.016406528651714325
		endloop
	endfacet
	facet normal -1 0 0
		outer loop
			vertex -0.055555559694767 0.0768294408917427 -0.023609213531017303
			vertex -0.055555559694767 0.08247930556535721 -0.016406528651714325
			vertex -0.055555559694767 0.07913956791162491 -0.020722590386867523
		endloop
	endfacet
	facet normal -1 0 0
		outer loop
			vertex -0.055555559694767 0.0768294408917427 -0.023609213531017303
			vertex -0.055555559694767 0.07681740075349808 -0.02359738200902939
			vertex -0.055555559694767 0.0824611559510231 -0.016367696225643158
		endloop
	endfacet
	facet normal -1 0 0
		outer loop
			vertex -0.055555559694767 0.0768294408917427 -0.023609213531017303
			vertex -0.055555559694767 0.0824611559510231 -0.016367696225643158
			vertex -0.055555559694767 0.08247119933366776 -0.016389183700084686
		endloop
	endfacet
	facet normal -1 0 0
		outer loop
			vertex -0.055555559694767 0.07681740075349808 -0.02359738200902939
			vertex -0.055555559694767 0.03861076384782791 0.013859218917787075
			vertex -0.055555559694767 0.06408361345529556 0.02300260215997696
		endloop
	endfacet
	facet normal -1 0 0
		outer loop
			vertex -0.055555559694767 0.07681740075349808 -0.02359738200902939
			vertex -0.055555559694767 0.06408361345529556 0.02300260215997696
			vertex -0.055555559694767 0.0824611559510231 -0.016367696225643158
		endloop
	endfacet
	facet normal -1 0 0
		outer loop
			vertex -0.055555559694767 0.01527013722807169 0.03674162179231644
			vertex -0.055555559694767 0.057670362293720245 0.03674162179231644
			vertex -0.055555559694767 0.06408361345529556 0.02300260215997696
		endloop
	endfacet
	facet normal -1 0 0
		outer loop
			vertex -0.055555559694767 0.01527013722807169 0.03674162179231644
			vertex -0.055555559694767 0.06408361345529556 0.02300260215997696
			vertex -0.055555559694767 0.03861076384782791 0.013859218917787075
		endloop
	endfacet
	facet normal -1 0 0
		outer loop
			vertex -0.055555559694767 0.06784195452928543 0.01495105680078268
			vertex -0.055555559694767 0.06408361345529556 0.02300260215997696
			vertex -0.055555559694767 0.06847143918275833 0.02457759529352188
		endloop
	endfacet
	facet normal -1 0 0
		outer loop
			vertex -0.055555559694767 0.057670362293720245 0.03674162179231644
			vertex -0.055555559694767 0.06926686316728592 0.03674162179231644
			vertex -0.055555559694767 0.06847143918275833 0.02457759529352188
		endloop
	endfacet
	facet normal -1 0 0
		outer loop
			vertex -0.055555559694767 0.057670362293720245 0.03674162179231644
			vertex -0.055555559694767 0.06847143918275833 0.02457759529352188
			vertex -0.055555559694767 0.06408361345529556 0.02300260215997696
		endloop
	endfacet
	facet normal -1 0 0
		outer loop
			vertex -0.055555559694767 0.08008069545030594 -0.011268013156950474
			vertex -0.055555559694767 0.06784195452928543 0.01495105680078268
			vertex -0.055555559694767 0.06847143918275833 0.02457759529352188
		endloop
	endfacet
	facet normal -1 0 0
		outer loop
			vertex -0.055555559694767 0.08008069545030594 -0.011268013156950474
			vertex -0.055555559694767 0.06847143918275833 0.02457759529352188
			vertex -0.055555559694767 0.09216365963220596 0.03308183699846268
		endloop
	endfacet
	facet normal -1 0 0
		outer loop
			vertex -0.055555559694767 0.06926686316728592 0.03674162179231644
			vertex -0.055555559694767 0.09316075593233109 0.03674162179231644
			vertex -0.055555559694767 0.09216365963220596 0.03308183699846268
		endloop
	endfacet
	facet normal -1 0 0
		outer loop
			vertex -0.055555559694767 0.06926686316728592 0.03674162179231644
			vertex -0.055555559694767 0.09216365963220596 0.03308183699846268
			vertex -0.055555559694767 0.06847143918275833 0.02457759529352188
		endloop
	endfacet
	facet normal -1 0 0
		outer loop
			vertex -0.055555559694767 0.10117540508508682 0.007545448374003172
			vertex -0.055555559694767 0.10202724486589432 0.00863546784967184
			vertex -0.055555559694767 0.10202724486589432 0.00862229522317648
		endloop
	endfacet
	facet normal -1 0 0
		outer loop
			vertex -0.055555559694767 0.08247930556535721 -0.016406528651714325
			vertex -0.055555559694767 0.08247119933366776 -0.016389183700084686
			vertex -0.055555559694767 0.08466244488954544 -0.01358520332723856
		endloop
	endfacet
	facet normal -1 0 0
		outer loop
			vertex -0.055555559694767 0.08247119933366776 -0.016389183700084686
			vertex -0.055555559694767 0.0824611559510231 -0.016367696225643158
			vertex -0.055555559694767 0.09762180596590042 0.0030531655065715313
		endloop
	endfacet
	facet normal -1 0 0
		outer loop
			vertex -0.055555559694767 0.08247119933366776 -0.016389183700084686
			vertex -0.055555559694767 0.09762180596590042 0.0030531655065715313
			vertex -0.055555559694767 0.09826440364122391 0.0038654874078929424
		endloop
	endfacet
	facet normal -1 0 0
		outer loop
			vertex -0.055555559694767 0.08247119933366776 -0.016389183700084686
			vertex -0.055555559694767 0.09826440364122391 0.0038654874078929424
			vertex -0.055555559694767 0.09493578225374222 -0.0004390111134853214
		endloop
	endfacet
	facet normal -1 0 0
		outer loop
			vertex -0.055555559694767 0.09762180596590042 0.0030531655065715313
			vertex -0.055555559694767 0.10202724486589432 0.008696532808244228
			vertex -0.055555559694767 0.10202724486589432 0.00863546784967184
		endloop
	endfacet
	facet normal -1 0 0
		outer loop
			vertex -0.055555559694767 0.09762180596590042 0.0030531655065715313
			vertex -0.055555559694767 0.10202724486589432 0.00863546784967184
			vertex -0.055555559694767 0.10117540508508682 0.007545448374003172
		endloop
	endfacet
	facet normal -1 0 0
		outer loop
			vertex -0.055555559694767 0.0824611559510231 -0.016367696225643158
			vertex -0.055555559694767 0.08240554481744766 -0.016248516738414764
			vertex -0.055555559694767 0.08580205589532852 -0.011888795532286167
		endloop
	endfacet
	facet normal -1 0 0
		outer loop
			vertex -0.055555559694767 0.0824611559510231 -0.016367696225643158
			vertex -0.055555559694767 0.08580205589532852 -0.011888795532286167
			vertex -0.055555559694767 0.09762180596590042 0.0030531655065715313
		endloop
	endfacet
	facet normal -1 0 0
		outer loop
			vertex -0.055555559694767 0.08580205589532852 -0.011888795532286167
			vertex -0.055555559694767 0.10202724486589432 0.008937514387071133
			vertex -0.055555559694767 0.10202724486589432 0.008696532808244228
		endloop
	endfacet
	facet normal -1 0 0
		outer loop
			vertex -0.055555559694767 0.08580205589532852 -0.011888795532286167
			vertex -0.055555559694767 0.10202724486589432 0.008696532808244228
			vertex -0.055555559694767 0.09762180596590042 0.0030531655065715313
		endloop
	endfacet
	facet normal -1 0 0
		outer loop
			vertex -0.055555559694767 0.08240554481744766 -0.016248516738414764
			vertex -0.055555559694767 0.08190945535898209 -0.015185737051069736
			vertex -0.055555559694767 0.10202724486589432 0.010627842508256435
		endloop
	endfacet
	facet normal -1 0 0
		outer loop
			vertex -0.055555559694767 0.08240554481744766 -0.016248516738414764
			vertex -0.055555559694767 0.10202724486589432 0.010627842508256435
			vertex -0.055555559694767 0.10202724486589432 0.008937514387071133
		endloop
	endfacet
	facet normal -1 0 0
		outer loop
			vertex -0.055555559694767 0.08190945535898209 -0.015185737051069736
			vertex -0.055555559694767 0.08008069545030594 -0.011268013156950474
			vertex -0.055555559694767 0.09135065227746964 0.030097760260105133
		endloop
	endfacet
	facet normal -1 0 0
		outer loop
			vertex -0.055555559694767 0.08190945535898209 -0.015185737051069736
			vertex -0.055555559694767 0.09135065227746964 0.030097760260105133
			vertex -0.055555559694767 0.10202724486589432 0.021869339048862457
		endloop
	endfacet
	facet normal -1 0 0
		outer loop
			vertex -0.055555559694767 0.08190945535898209 -0.015185737051069736
			vertex -0.055555559694767 0.10202724486589432 0.021869339048862457
			vertex -0.055555559694767 0.10202724486589432 0.010627842508256435
		endloop
	endfacet
	facet normal -1 0 0
		outer loop
			vertex -0.055555559694767 0.09135065227746964 0.030097760260105133
			vertex -0.055555559694767 0.09216365963220596 0.03308183699846268
			vertex -0.055555559694767 0.10202724486589432 0.03662235289812088
		endloop
	endfacet
	facet normal -1 0 0
		outer loop
			vertex -0.055555559694767 0.09135065227746964 0.030097760260105133
			vertex -0.055555559694767 0.10202724486589432 0.03662235289812088
			vertex -0.055555559694767 0.10202724486589432 0.021869339048862457
		endloop
	endfacet
	facet normal -1 0 0
		outer loop
			vertex -0.055555559694767 0.09316075593233109 0.03674162179231644
			vertex -0.055555559694767 0.10202724486589432 0.03674162179231644
			vertex -0.055555559694767 0.10202724486589432 0.03662235289812088
		endloop
	endfacet
	facet normal -1 0 0
		outer loop
			vertex -0.055555559694767 0.09316075593233109 0.03674162179231644
			vertex -0.055555559694767 0.10202724486589432 0.03662235289812088
			vertex -0.055555559694767 0.09216365963220596 0.03308183699846268
		endloop
	endfacet
	facet normal 0 0 1
		outer loop
			vertex -0.010068447329103947 -0.010991550050675869 0.03674162179231644
			vertex -0.01192102674394846 -0.010580114088952541 0.03674162179231644
			vertex -0.010018945671617985 -0.011019266210496426 0.03674162179231644
		endloop
	endfacet
	facet normal 0 0 1
		outer loop
			vertex -0.01218565646559 -0.009806028567254543 0.03674162179231644
			vertex -0.013394900597631931 -0.010252824984490871 0.03674162179231644
			vertex -0.010068447329103947 -0.010991550050675869 0.03674162179231644
		endloop
	endfacet
	facet normal 0 0 1
		outer loop
			vertex -0.013394900597631931 -0.010252824984490871 0.03674162179231644
			vertex -0.010968142189085484 -0.009356207214295864 0.03674162179231644
			vertex -0.014670916832983494 -0.00996944960206747 0.03674162179231644
		endloop
	endfacet
	facet normal 0 0 1
		outer loop
			vertex -0.055555559694767 0.012878798879683018 0.03674162179231644
			vertex -0.055555559694767 0.0025744973681867123 0.03674162179231644
			vertex -0.020358197391033173 -0.008706442080438137 0.03674162179231644
		endloop
	endfacet
	facet normal 0 0 1
		outer loop
			vertex -0.055555559694767 0.012878798879683018 0.03674162179231644
			vertex -0.020358197391033173 -0.008706442080438137 0.03674162179231644
			vertex -0.014670916832983494 -0.00996944960206747 0.03674162179231644
		endloop
	endfacet
	facet normal 0 0 1
		outer loop
			vertex -0.055555559694767 0.012878798879683018 0.03674162179231644
			vertex -0.014670916832983494 -0.00996944960206747 0.03674162179231644
			vertex -0.0076274508610367775 -0.0088029270991683 0.03674162179231644
		endloop
	endfacet
	facet normal 0 0 1
		outer loop
			vertex 0.0555555522441864 0.0016612051986157894 0.03674162179231644
			vertex 0.0555555522441864 0.007791826035827398 0.03674162179231644
			vertex 0.04275628924369812 -0.0004585595161188394 0.03674162179231644
		endloop
	endfacet
	facet normal 0 0 1
		outer loop
			vertex 0.0555555522441864 0.007791826035827398 0.03674162179231644
			vertex 0.0555555522441864 0.009734787978231907 0.03674162179231644
			vertex 0.03852365165948868 -0.0011595548130571842 0.03674162179231644
		endloop
	endfacet
	facet normal 0 0 1
		outer loop
			vertex 0.0555555522441864 0.007791826035827398 0.03674162179231644
			vertex 0.03852365165948868 -0.0011595548130571842 0.03674162179231644
			vertex 0.04275628924369812 -0.0004585595161188394 0.03674162179231644
		endloop
	endfacet
	facet normal 0 0 1
		outer loop
			vertex -0.006383390165865421 -0.008596903644502163 0.03674162179231644
			vertex -0.004496336914598942 -0.008284381590783596 0.03674162179231644
			vertex -0.0039091939106583595 -0.007202586624771357 0.03674162179231644
		endloop
	endfacet
	facet normal 0 0 1
		outer loop
			vertex 0.0555555522441864 0.009734787978231907 0.03674162179231644
			vertex 0.0555555522441864 0.015362420119345188 0.03674162179231644
			vertex 0.036103256046772 0.015346252359449863 0.03674162179231644
		endloop
	endfacet
	facet normal 0 0 1
		outer loop
			vertex 0.0555555522441864 0.009734787978231907 0.03674162179231644
			vertex 0.036103256046772 0.015346252359449863 0.03674162179231644
			vertex -0.0039091939106583595 -0.007202586624771357 0.03674162179231644
		endloop
	endfacet
	facet normal 0 0 1
		outer loop
			vertex 0.0555555522441864 0.009734787978231907 0.03674162179231644
			vertex -0.0039091939106583595 -0.007202586624771357 0.03674162179231644
			vertex -0.004496336914598942 -0.008284381590783596 0.03674162179231644
		endloop
	endfacet
	facet normal 0 0 1
		outer loop
			vertex 0.0555555522441864 0.009734787978231907 0.03674162179231644
			vertex -0.004496336914598942 -0.008284381590783596 0.03674162179231644
			vertex 0.03852365165948868 -0.0011595548130571842 0.03674162179231644
		endloop
	endfacet
	facet normal 0 0 1
		outer loop
			vertex -0.055555559694767 0.01527013722807169 0.03674162179231644
			vertex -0.055555559694767 0.014283576048910618 0.03674162179231644
			vertex -0.05541151016950607 0.012813651002943516 0.03674162179231644
		endloop
	endfacet
	facet normal 0 0 1
		outer loop
			vertex -0.055555559694767 0.01527013722807169 0.03674162179231644
			vertex -0.05541151016950607 0.012813651002943516 0.03674162179231644
			vertex -0.0076274508610367775 -0.0088029270991683 0.03674162179231644
		endloop
	endfacet
	facet normal 0 0 1
		outer loop
			vertex -0.055555559694767 0.01527013722807169 0.03674162179231644
			vertex -0.0076274508610367775 -0.0088029270991683 0.03674162179231644
			vertex -0.006383390165865421 -0.008596903644502163 0.03674162179231644
		endloop
	endfacet
	facet normal 0 0 1
		outer loop
			vertex -0.055555559694767 0.01527013722807169 0.03674162179231644
			vertex -0.006383390165865421 -0.008596903644502163 0.03674162179231644
			vertex -0.0039091939106583595 -0.007202586624771357 0.03674162179231644
		endloop
	endfacet
	facet normal 0 0 1
		outer loop
			vertex -0.055555559694767 0.01527013722807169 0.03674162179231644
			vertex -0.0039091939106583595 -0.007202586624771357 0.03674162179231644
			vertex 0.006758629344403744 0.012452610768377781 0.03674162179231644
		endloop
	endfacet
	facet normal 0 0 1
		outer loop
			vertex -0.055555559694767 0.01527013722807169 0.03674162179231644
			vertex 0.006758629344403744 0.012452610768377781 0.03674162179231644
			vertex -0.009977557696402073 0.015307986177504063 0.03674162179231644
		endloop
	endfacet
	facet normal 0 0 1
		outer loop
			vertex 0.006758629344403744 0.012452610768377781 0.03674162179231644
			vertex -0.0039091939106583595 -0.007202586624771357 0.03674162179231644
			vertex 0.02534237504005432 0.009282016195356846 0.03674162179231644
		endloop
	endfacet
	facet normal 0 0 1
		outer loop
			vertex 0.006758629344403744 0.012452610768377781 0.03674162179231644
			vertex 0.008316642604768276 0.015323185361921787 0.03674162179231644
			vertex -0.009977557696402073 0.015307986177504063 0.03674162179231644
		endloop
	endfacet
	facet normal 0 0 1
		outer loop
			vertex 0.036103256046772 0.015346252359449863 0.03674162179231644
			vertex 0.008316642604768276 0.015323185361921787 0.03674162179231644
			vertex 0.006758629344403744 0.012452610768377781 0.03674162179231644
		endloop
	endfacet
	facet normal 0 0 1
		outer loop
			vertex 0.036103256046772 0.015346252359449863 0.03674162179231644
			vertex 0.006758629344403744 0.012452610768377781 0.03674162179231644
			vertex 0.02534237504005432 0.009282016195356846 0.03674162179231644
		endloop
	endfacet
	facet normal 0 0 1
		outer loop
			vertex -0.055555559694767 0.014283576048910618 0.03674162179231644
			vertex -0.055555559694767 0.012878798879683018 0.03674162179231644
			vertex -0.05541151016950607 0.012813651002943516 0.03674162179231644
		endloop
	endfacet
	facet normal 0 0 1
		outer loop
			vertex 0.0555555522441864 0.015362420119345188 0.03674162179231644
			vertex 0.0555555522441864 0.026308516040444374 0.03674162179231644
			vertex 0.036103256046772 0.015346252359449863 0.03674162179231644
		endloop
	endfacet
	facet normal 0 0 1
		outer loop
			vertex -0.055555559694767 0.057670362293720245 0.03674162179231644
			vertex -0.055555559694767 0.01527013722807169 0.03674162179231644
			vertex 0.008316642604768276 0.015323185361921787 0.03674162179231644
		endloop
	endfacet
	facet normal 0 0 1
		outer loop
			vertex -0.055555559694767 0.057670362293720245 0.03674162179231644
			vertex 0.008316642604768276 0.015323185361921787 0.03674162179231644
			vertex 0.020453698933124542 0.03768538683652878 0.03674162179231644
		endloop
	endfacet
	facet normal 0 0 1
		outer loop
			vertex 0.0555555522441864 0.026308516040444374 0.03674162179231644
			vertex 0.0555555522441864 0.028456086292862892 0.03674162179231644
			vertex 0.020453698933124542 0.03768538683652878 0.03674162179231644
		endloop
	endfacet
	facet normal 0 0 1
		outer loop
			vertex 0.0555555522441864 0.026308516040444374 0.03674162179231644
			vertex 0.020453698933124542 0.03768538683652878 0.03674162179231644
			vertex 0.008316642604768276 0.015323185361921787 0.03674162179231644
		endloop
	endfacet
	facet normal 0 0 1
		outer loop
			vertex 0.0555555522441864 0.026308516040444374 0.03674162179231644
			vertex 0.008316642604768276 0.015323185361921787 0.03674162179231644
			vertex 0.036103256046772 0.015346252359449863 0.03674162179231644
		endloop
	endfacet
	facet normal 0 0 1
		outer loop
			vertex 0.0555555522441864 0.028456086292862892 0.03674162179231644
			vertex 0.0555555522441864 0.04097691923379898 0.03674162179231644
			vertex 0.023754455149173737 0.03681749850511551 0.03674162179231644
		endloop
	endfacet
	facet normal 0 0 1
		outer loop
			vertex -0.055555559694767 0.06926686316728592 0.03674162179231644
			vertex -0.055555559694767 0.057670362293720245 0.03674162179231644
			vertex 0.020453698933124542 0.03768538683652878 0.03674162179231644
		endloop
	endfacet
	facet normal 0 0 1
		outer loop
			vertex -0.055555559694767 0.06926686316728592 0.03674162179231644
			vertex 0.020453698933124542 0.03768538683652878 0.03674162179231644
			vertex 0.03226690739393234 0.0594509020447731 0.03674162179231644
		endloop
	endfacet
	facet normal 0 0 1
		outer loop
			vertex 0.0555555522441864 0.04097691923379898 0.03674162179231644
			vertex 0.0555555522441864 0.05684790760278702 0.03674162179231644
			vertex 0.03226690739393234 0.0594509020447731 0.03674162179231644
		endloop
	endfacet
	facet normal 0 0 1
		outer loop
			vertex 0.0555555522441864 0.04097691923379898 0.03674162179231644
			vertex 0.03226690739393234 0.0594509020447731 0.03674162179231644
			vertex 0.020453698933124542 0.03768538683652878 0.03674162179231644
		endloop
	endfacet
	facet normal 0 0 1
		outer loop
			vertex 0.0555555522441864 0.04097691923379898 0.03674162179231644
			vertex 0.020453698933124542 0.03768538683652878 0.03674162179231644
			vertex 0.023754455149173737 0.03681749850511551 0.03674162179231644
		endloop
	endfacet
	facet normal 0 0 1
		outer loop
			vertex -0.055555559694767 0.09316075593233109 0.03674162179231644
			vertex -0.055555559694767 0.06926686316728592 0.03674162179231644
			vertex 0.03226690739393234 0.0594509020447731 0.03674162179231644
		endloop
	endfacet
	facet normal 0 0 1
		outer loop
			vertex -0.055555559694767 0.09316075593233109 0.03674162179231644
			vertex 0.03226690739393234 0.0594509020447731 0.03674162179231644
			vertex 0.039746664464473724 0.07323215156793594 0.03674162179231644
		endloop
	endfacet
	facet normal 0 0 1
		outer loop
			vertex 0.0555555522441864 0.05684790760278702 0.03674162179231644
			vertex 0.0555555522441864 0.06992635875940323 0.03674162179231644
			vertex 0.039746664464473724 0.07323215156793594 0.03674162179231644
		endloop
	endfacet
	facet normal 0 0 1
		outer loop
			vertex 0.0555555522441864 0.05684790760278702 0.03674162179231644
			vertex 0.039746664464473724 0.07323215156793594 0.03674162179231644
			vertex 0.03226690739393234 0.0594509020447731 0.03674162179231644
		endloop
	endfacet
	facet normal 0 0 1
		outer loop
			vertex -0.055555559694767 0.10202724486589432 0.03674162179231644
			vertex -0.055555559694767 0.09316075593233109 0.03674162179231644
			vertex -0.048490069806575775 0.0916832759976387 0.03674162179231644
		endloop
	endfacet
	facet normal 0 0 1
		outer loop
			vertex -0.055555559694767 0.10202724486589432 0.03674162179231644
			vertex -0.048490069806575775 0.0916832759976387 0.03674162179231644
			vertex -0.046230800449848175 0.10202724486589432 0.03674162179231644
		endloop
	endfacet
	facet normal 0 0 1
		outer loop
			vertex -0.048490069806575775 0.0916832759976387 0.03674162179231644
			vertex 0.039746664464473724 0.07323215156793594 0.03674162179231644
			vertex 0.04322192817926407 0.07963521033525467 0.03674162179231644
		endloop
	endfacet
	facet normal 0 0 1
		outer loop
			vertex -0.048490069806575775 0.0916832759976387 0.03674162179231644
			vertex 0.04322192817926407 0.07963521033525467 0.03674162179231644
			vertex 0.01078025158494711 0.10202724486589432 0.03674162179231644
		endloop
	endfacet
	facet normal 0 0 1
		outer loop
			vertex -0.048490069806575775 0.0916832759976387 0.03674162179231644
			vertex 0.01078025158494711 0.10202724486589432 0.03674162179231644
			vertex -0.046230800449848175 0.10202724486589432 0.03674162179231644
		endloop
	endfacet
	facet normal 0 0 1
		outer loop
			vertex 0.0555555522441864 0.06992635875940323 0.03674162179231644
			vertex 0.0555555522441864 0.07112226635217667 0.03674162179231644
			vertex 0.04322192817926407 0.07963521033525467 0.03674162179231644
		endloop
	endfacet
	facet normal 0 0 1
		outer loop
			vertex 0.0555555522441864 0.06992635875940323 0.03674162179231644
			vertex 0.04322192817926407 0.07963521033525467 0.03674162179231644
			vertex 0.039746664464473724 0.07323215156793594 0.03674162179231644
		endloop
	endfacet
	facet normal 0 0 1
		outer loop
			vertex 0.04322192817926407 0.07963521033525467 0.03674162179231644
			vertex 0.05537516996264458 0.10202724486589432 0.03674162179231644
			vertex 0.01078025158494711 0.10202724486589432 0.03674162179231644
		endloop
	endfacet
	facet normal 0 0 1
		outer loop
			vertex 0.0555555522441864 0.07112226635217667 0.03674162179231644
			vertex 0.0555555522441864 0.10202724486589432 0.03674162179231644
			vertex 0.05537516996264458 0.10202724486589432 0.03674162179231644
		endloop
	endfacet
	facet normal 0 0 1
		outer loop
			vertex 0.0555555522441864 0.07112226635217667 0.03674162179231644
			vertex 0.05537516996264458 0.10202724486589432 0.03674162179231644
			vertex 0.04322192817926407 0.07963521033525467 0.03674162179231644
		endloop
	endfacet
endsolid exported
