solid exported
	facet normal -0.2704354701072848 -0.9617216399516055 -0.04422831397019638
		outer loop
			vertex -0.0555555522441864 -0.09590063244104385 0.036741629242897034
			vertex -0.0555555522441864 -0.0952579453587532 0.022766733542084694
			vertex -0.0479017049074173 -0.09787378460168839 0.032847095280885696
		endloop
	endfacet
	facet normal -0.27043446217962686 -0.9617220234087901 -0.04422613883348543
		outer loop
			vertex -0.0555555522441864 -0.09590063244104385 0.036741629242897034
			vertex -0.0479017049074173 -0.09787378460168839 0.032847095280885696
			vertex -0.05116762965917587 -0.09713450819253922 0.036741629242897034
		endloop
	endfacet
	facet normal -0.27043583712123287 -0.9617215798811508 -0.04422737604065601
		outer loop
			vertex -0.05116762965917587 -0.09713450819253922 0.036741629242897034
			vertex -0.0479017049074173 -0.09787378460168839 0.032847095280885696
			vertex -0.04580060392618179 -0.0985918715596199 0.03561431169509888
		endloop
	endfacet
	facet normal -0.270439363783109 -0.9617197043464231 -0.04424659069821981
		outer loop
			vertex -0.05116762965917587 -0.09713450819253922 0.036741629242897034
			vertex -0.04580060392618179 -0.0985918715596199 0.03561431169509888
			vertex -0.046376220881938934 -0.09848187118768692 0.036741629242897034
		endloop
	endfacet
	facet normal -0.045521156095197406 -0.9962213671736703 0.07396493719581052
		outer loop
			vertex -0.046376220881938934 -0.09848187118768692 0.036741629242897034
			vertex -0.04580060392618179 -0.0985918715596199 0.03561431169509888
			vertex -0.04497851803898811 -0.09854573756456375 0.036741629242897034
		endloop
	endfacet
	facet normal -0.266977005276671 -0.9282654575223163 -0.25893342585380025
		outer loop
			vertex -0.0555555522441864 -0.08620346337556839 -0.030527573078870773
			vertex -0.026088401675224304 -0.1023596003651619 -0.002991026733070612
			vertex -0.0555555522441864 -0.09411070495843887 -0.0021804440766572952
		endloop
	endfacet
	facet normal -0.2704363592966339 -0.961721490293238 -0.044226131173047474
		outer loop
			vertex -0.0555555522441864 -0.09411070495843887 -0.0021804440766572952
			vertex -0.026088401675224304 -0.1023596003651619 -0.002991026733070612
			vertex -0.038916897028684616 -0.09990758448839188 0.02213292568922043
		endloop
	endfacet
	facet normal -0.27043501812524023 -0.9617218215898504 -0.044227127981601305
		outer loop
			vertex -0.0555555522441864 -0.09411070495843887 -0.0021804440766572952
			vertex -0.038916897028684616 -0.09990758448839188 0.02213292568922043
			vertex -0.0479017049074173 -0.09787378460168839 0.032847095280885696
		endloop
	endfacet
	facet normal -0.2704377274669264 -0.961721090558913 -0.044226457428781465
		outer loop
			vertex -0.0555555522441864 -0.09411070495843887 -0.0021804440766572952
			vertex -0.0479017049074173 -0.09787378460168839 0.032847095280885696
			vertex -0.0555555522441864 -0.0952579453587532 0.022766733542084694
		endloop
	endfacet
	facet normal 0.19249256265253678 -0.9812582564949756 -0.008879604940543828
		outer loop
			vertex -0.023892542347311974 -0.10198653489351273 0.00338459643535316
			vertex -0.026088401675224304 -0.1023596003651619 -0.002991026733070612
			vertex -0.020244846120476723 -0.10122255235910416 -0.0019658415112644434
		endloop
	endfacet
	facet normal 0.0008513148343459401 -0.8621099406854583 -0.5067205595141846
		outer loop
			vertex -0.003023301949724555 -0.08249930292367935 -0.036741629242897034
			vertex -0.015789907425642014 -0.09841928631067276 -0.00967758521437645
			vertex -0.026088401675224304 -0.1023596003651619 -0.002991026733070612
		endloop
	endfacet
	facet normal 0.0008488713020087008 -0.8621092131930359 -0.5067218013320495
		outer loop
			vertex -0.003023301949724555 -0.08249930292367935 -0.036741629242897034
			vertex -0.026088401675224304 -0.1023596003651619 -0.002991026733070612
			vertex -0.0555555522441864 -0.08620346337556839 -0.030527573078870773
		endloop
	endfacet
	facet normal 0.0008485653657723607 -0.8621080876753275 -0.5067237167348788
		outer loop
			vertex -0.003023301949724555 -0.08249930292367935 -0.036741629242897034
			vertex -0.0555555522441864 -0.08620346337556839 -0.030527573078870773
			vertex -0.0555555522441864 -0.082551009953022 -0.036741629242897034
		endloop
	endfacet
	facet normal 0.23275073368505808 -0.9247908650466093 -0.30097998587183755
		outer loop
			vertex -0.020244846120476723 -0.10122255235910416 -0.0019658415112644434
			vertex -0.026088401675224304 -0.1023596003651619 -0.002991026733070612
			vertex -0.01888185739517212 -0.10004637390375137 -0.004525754135102034
		endloop
	endfacet
	facet normal 0.276799108976478 -0.9514853522626986 -0.13437960298853446
		outer loop
			vertex -0.026088401675224304 -0.1023596003651619 -0.002991026733070612
			vertex -0.015789907425642014 -0.09841928631067276 -0.00967758521437645
			vertex -0.01888185739517212 -0.10004637390375137 -0.004525754135102034
		endloop
	endfacet
	facet normal -0.0455363737258079 -0.9962198085343575 0.07397656217797405
		outer loop
			vertex -0.038916897028684616 -0.09990758448839188 0.02213292568922043
			vertex -0.026088401675224304 -0.1023596003651619 -0.002991026733070612
			vertex -0.023892542347311974 -0.10198653489351273 0.00338459643535316
		endloop
	endfacet
	facet normal -0.27043555325439306 -0.9617216489679148 -0.04422760950385627
		outer loop
			vertex -0.038916897028684616 -0.09990758448839188 0.02213292568922043
			vertex -0.04580060392618179 -0.0985918715596199 0.03561431169509888
			vertex -0.0479017049074173 -0.09787378460168839 0.032847095280885696
		endloop
	endfacet
	facet normal 0.19248884783242828 -0.9812589596091976 -0.008882434734891876
		outer loop
			vertex 0.001029898994602263 -0.09739957004785538 0.036741629242897034
			vertex -0.012403883971273899 -0.10003481060266495 0.036741629242897034
			vertex -0.023892542347311974 -0.10198653489351273 0.00338459643535316
		endloop
	endfacet
	facet normal 0.1924887153867125 -0.9812589865196742 -0.008882332078639062
		outer loop
			vertex 0.001029898994602263 -0.09739957004785538 0.036741629242897034
			vertex -0.023892542347311974 -0.10198653489351273 0.00338459643535316
			vertex -0.020244846120476723 -0.10122255235910416 -0.0019658415112644434
		endloop
	endfacet
	facet normal 0.19248916906766447 -0.9812588951843636 -0.008882590455631901
		outer loop
			vertex 0.001029898994602263 -0.09739957004785538 0.036741629242897034
			vertex -0.020244846120476723 -0.10122255235910416 -0.0019658415112644434
			vertex 0.003735482692718506 -0.09655652195215225 0.0022412335965782404
		endloop
	endfacet
	facet normal 0.0008484407339628461 -0.8621091397930273 -0.5067219269319688
		outer loop
			vertex 0.001745923887938261 -0.0824945941567421 -0.036741629242897034
			vertex 0.003736787475645542 -0.0909482017159462 -0.022355787456035614
			vertex -0.015789907425642014 -0.09841928631067276 -0.00967758521437645
		endloop
	endfacet
	facet normal 0.0008511810498874632 -0.8621099132202968 -0.5067206064668309
		outer loop
			vertex 0.001745923887938261 -0.0824945941567421 -0.036741629242897034
			vertex -0.015789907425642014 -0.09841928631067276 -0.00967758521437645
			vertex -0.003023301949724555 -0.08249930292367935 -0.036741629242897034
		endloop
	endfacet
	facet normal 0.23274730581809341 -0.9247910988077568 -0.30098191839437916
		outer loop
			vertex 0.003735482692718506 -0.09655652195215225 0.0022412335965782404
			vertex -0.020244846120476723 -0.10122255235910416 -0.0019658415112644434
			vertex -0.01888185739517212 -0.10004637390375137 -0.004525754135102034
		endloop
	endfacet
	facet normal 0.23274783223561507 -0.9247902514675073 -0.30098411483047877
		outer loop
			vertex 0.003735482692718506 -0.09655652195215225 0.0022412335965782404
			vertex -0.01888185739517212 -0.10004637390375137 -0.004525754135102034
			vertex 0.0033427064772695303 -0.09291256219148636 -0.009258762933313847
		endloop
	endfacet
	facet normal 0.2767970744975598 -0.9514858600758226 -0.13438019804035403
		outer loop
			vertex -0.015789907425642014 -0.09841928631067276 -0.00967758521437645
			vertex 0.003736787475645542 -0.0909482017159462 -0.022355787456035614
			vertex 0.0033427064772695303 -0.09291256219148636 -0.009258762933313847
		endloop
	endfacet
	facet normal 0.27679706131623427 -0.9514857563608652 -0.1343809595481798
		outer loop
			vertex -0.015789907425642014 -0.09841928631067276 -0.00967758521437645
			vertex 0.0033427064772695303 -0.09291256219148636 -0.009258762933313847
			vertex -0.01888185739517212 -0.10004637390375137 -0.004525754135102034
		endloop
	endfacet
	facet normal -0.045535280815854014 -0.9962199611272561 0.07397517997700076
		outer loop
			vertex -0.04497851803898811 -0.09854573756456375 0.036741629242897034
			vertex -0.04580060392618179 -0.0985918715596199 0.03561431169509888
			vertex -0.038916897028684616 -0.09990758448839188 0.02213292568922043
		endloop
	endfacet
	facet normal -0.04554116379929798 -0.9962198740712201 0.0739727308224327
		outer loop
			vertex -0.04497851803898811 -0.09854573756456375 0.036741629242897034
			vertex -0.038916897028684616 -0.09990758448839188 0.02213292568922043
			vertex -0.023892542347311974 -0.10198653489351273 0.00338459643535316
		endloop
	endfacet
	facet normal -0.04553985622830878 -0.9962198724819439 0.07397355721313342
		outer loop
			vertex -0.04497851803898811 -0.09854573756456375 0.036741629242897034
			vertex -0.023892542347311974 -0.10198653489351273 0.00338459643535316
			vertex -0.012403883971273899 -0.10003481060266495 0.036741629242897034
		endloop
	endfacet
	facet normal 0.19248947251718987 -0.9812588346815284 -0.008882698323330052
		outer loop
			vertex 0.001029898994602263 -0.09739957004785538 0.036741629242897034
			vertex 0.0035015232861042023 -0.09662941843271255 0.005224582273513079
			vertex 0.04855464771389961 -0.08807683736085892 0.036741629242897034
		endloop
	endfacet
	facet normal 1 0 0
		outer loop
			vertex 0.0555555522441864 0.04537259787321091 0.036741629242897034
			vertex 0.0555555522441864 -0.07865390926599503 0.036741629242897034
			vertex 0.0555555522441864 -0.04408343881368637 0.015823600813746452
		endloop
	endfacet
	facet normal 1 0 0
		outer loop
			vertex 0.0555555522441864 0.04537259787321091 0.036741629242897034
			vertex 0.0555555522441864 -0.04408343881368637 0.015823600813746452
			vertex 0.0555555522441864 0.1023595854640007 -0.036741629242897034
		endloop
	endfacet
	facet normal 1 0 0
		outer loop
			vertex 0.0555555522441864 0.04537259787321091 0.036741629242897034
			vertex 0.0555555522441864 0.1023595854640007 -0.036741629242897034
			vertex 0.0555555522441864 0.1023595854640007 -0.016475770622491837
		endloop
	endfacet
	facet normal 1 0 0
		outer loop
			vertex 0.0555555522441864 0.042789213359355927 -0.036741629242897034
			vertex 0.0555555522441864 0.1023595854640007 -0.036741629242897034
			vertex 0.0555555522441864 -0.04408343881368637 0.015823600813746452
		endloop
	endfacet
	facet normal 1 0 0
		outer loop
			vertex 0.0555555522441864 0.1023595854640007 0.036741629242897034
			vertex 0.0555555522441864 0.04537259787321091 0.036741629242897034
			vertex 0.0555555522441864 0.1023595854640007 -0.016475770622491837
		endloop
	endfacet
	facet normal 0.1924871079617109 -0.9812593303326523 -0.008879183726650414
		outer loop
			vertex 0.0555555522441864 -0.08670351654291153 0.036741629242897034
			vertex 0.04855464771389961 -0.08807683736085892 0.036741629242897034
			vertex 0.0035015232861042023 -0.09662941843271255 0.005224582273513079
		endloop
	endfacet
	facet normal 0.19248831360343618 -0.9812590750811641 -0.0088812553709442
		outer loop
			vertex 0.0555555522441864 -0.08670351654291153 0.036741629242897034
			vertex 0.0035015232861042023 -0.09662941843271255 0.005224582273513079
			vertex 0.003735482692718506 -0.09655652195215225 0.0022412335965782404
		endloop
	endfacet
	facet normal 0.19248928100735987 -0.9812588716317797 -0.008882766528295257
		outer loop
			vertex 0.0555555522441864 -0.08670351654291153 0.036741629242897034
			vertex 0.003735482692718506 -0.09655652195215225 0.0022412335965782404
			vertex 0.0555555522441864 -0.0864735022187233 0.01133247371762991
		endloop
	endfacet
	facet normal 0.0008480007634858751 -0.8621091667151589 -0.5067218818645979
		outer loop
			vertex 0.025893550366163254 -0.0824708417057991 -0.036741629242897034
			vertex 0.003736787475645542 -0.0909482017159462 -0.022355787456035614
			vertex 0.001745923887938261 -0.0824945941567421 -0.036741629242897034
		endloop
	endfacet
	facet normal 0.23274761905819016 -0.9247903022516146 -0.3009841236412833
		outer loop
			vertex 0.0555555522441864 -0.0864735022187233 0.01133247371762991
			vertex 0.003735482692718506 -0.09655652195215225 0.0022412335965782404
			vertex 0.0033427064772695303 -0.09291256219148636 -0.009258762933313847
		endloop
	endfacet
	facet normal 0.23274783997662327 -0.9247900373768339 -0.3009847666490296
		outer loop
			vertex 0.0555555522441864 -0.0864735022187233 0.01133247371762991
			vertex 0.0033427064772695303 -0.09291256219148636 -0.009258762933313847
			vertex 0.0555555522441864 -0.07615286856889725 -0.02037816494703293
		endloop
	endfacet
	facet normal 0.27679798108762393 -0.9514859004883485 -0.1343780444778539
		outer loop
			vertex 0.003736787475645542 -0.0909482017159462 -0.022355787456035614
			vertex 0.025893550366163254 -0.0824708417057991 -0.036741629242897034
			vertex 0.04346906766295433 -0.07735792547464371 -0.036741629242897034
		endloop
	endfacet
	facet normal 0.2767981465520928 -0.9514859149630271 -0.13437760115546443
		outer loop
			vertex 0.003736787475645542 -0.0909482017159462 -0.022355787456035614
			vertex 0.04346906766295433 -0.07735792547464371 -0.036741629242897034
			vertex 0.0555555522441864 -0.07432631403207779 -0.0333111397922039
		endloop
	endfacet
	facet normal 0.2767974496634244 -0.9514856985357 -0.13438056906359339
		outer loop
			vertex 0.003736787475645542 -0.0909482017159462 -0.022355787456035614
			vertex 0.0555555522441864 -0.07432631403207779 -0.0333111397922039
			vertex 0.0555555522441864 -0.07615286856889725 -0.02037816494703293
		endloop
	endfacet
	facet normal 0.2767974504576847 -0.9514857545382969 -0.134380170898885
		outer loop
			vertex 0.003736787475645542 -0.0909482017159462 -0.022355787456035614
			vertex 0.0555555522441864 -0.07615286856889725 -0.02037816494703293
			vertex 0.0033427064772695303 -0.09291256219148636 -0.009258762933313847
		endloop
	endfacet
	facet normal 0.2678517478786861 0.022063213108795884 -0.9632074832483648
		outer loop
			vertex 0.0555555522441864 -0.07196129113435745 -0.03325696662068367
			vertex 0.0555555522441864 -0.07432631403207779 -0.0333111397922039
			vertex 0.04346906766295433 -0.07735792547464371 -0.036741629242897034
		endloop
	endfacet
	facet normal 0.26785200525553854 0.022062599538953016 -0.9632074257303932
		outer loop
			vertex 0.0555555522441864 -0.07196129113435745 -0.03325696662068367
			vertex 0.04346906766295433 -0.07735792547464371 -0.036741629242897034
			vertex 0.043315015733242035 -0.0754876509308815 -0.036741629242897034
		endloop
	endfacet
	facet normal 0.26785157242512003 0.022064185011775796 -0.9632075097761422
		outer loop
			vertex 0.0555555522441864 -0.07196129113435745 -0.03325696662068367
			vertex 0.043315015733242035 -0.0754876509308815 -0.036741629242897034
			vertex 0.049614567309617996 -0.07291174679994583 -0.03493082523345947
		endloop
	endfacet
	facet normal 0.4468464854632452 -0.750387476990098 -0.4870799244534529
		outer loop
			vertex 0.04791002348065376 -0.07275138050317764 -0.036741629242897034
			vertex 0.049614567309617996 -0.07291174679994583 -0.03493082523345947
			vertex 0.043315015733242035 -0.0754876509308815 -0.036741629242897034
		endloop
	endfacet
	facet normal 1 0 0
		outer loop
			vertex 0.0555555522441864 -0.07196129113435745 -0.03325696662068367
			vertex 0.0555555522441864 -0.07615286856889725 -0.02037816494703293
			vertex 0.0555555522441864 -0.07432631403207779 -0.0333111397922039
		endloop
	endfacet
	facet normal 0.26785176925658866 0.02206290973335629 -0.9632074842525951
		outer loop
			vertex 0.0555555522441864 -0.07196129113435745 -0.03325696662068367
			vertex 0.049614567309617996 -0.07291174679994583 -0.03493082523345947
			vertex 0.0555555522441864 -0.07048244029283524 -0.033223092555999756
		endloop
	endfacet
	facet normal 0.44684854672771596 -0.750386339843417 -0.4870797853162542
		outer loop
			vertex 0.0555555522441864 -0.0681985393166542 -0.036741629242897034
			vertex 0.0555555522441864 -0.07048244029283524 -0.033223092555999756
			vertex 0.049614567309617996 -0.07291174679994583 -0.03493082523345947
		endloop
	endfacet
	facet normal 0.4468478369948844 -0.7503859350023796 -0.4870810601158683
		outer loop
			vertex 0.0555555522441864 -0.0681985393166542 -0.036741629242897034
			vertex 0.049614567309617996 -0.07291174679994583 -0.03493082523345947
			vertex 0.04791002348065376 -0.07275138050317764 -0.036741629242897034
		endloop
	endfacet
	facet normal 1 0 0
		outer loop
			vertex 0.0555555522441864 -0.0681985393166542 -0.036741629242897034
			vertex 0.0555555522441864 0.042789213359355927 -0.036741629242897034
			vertex 0.0555555522441864 0.033054761588573456 -0.030851462855935097
		endloop
	endfacet
	facet normal 1 0 0
		outer loop
			vertex 0.0555555522441864 -0.0681985393166542 -0.036741629242897034
			vertex 0.0555555522441864 0.033054761588573456 -0.030851462855935097
			vertex 0.0555555522441864 -0.07048244029283524 -0.033223092555999756
		endloop
	endfacet
	facet normal 1 0 0
		outer loop
			vertex 0.0555555522441864 -0.07865390926599503 0.036741629242897034
			vertex 0.0555555522441864 -0.08670351654291153 0.036741629242897034
			vertex 0.0555555522441864 -0.08665246516466141 0.03110361099243164
		endloop
	endfacet
	facet normal 1 0 0
		outer loop
			vertex 0.0555555522441864 -0.07865390926599503 0.036741629242897034
			vertex 0.0555555522441864 -0.08665246516466141 0.03110361099243164
			vertex 0.0555555522441864 -0.04408343881368637 0.015823600813746452
		endloop
	endfacet
	facet normal 1 0 0
		outer loop
			vertex 0.0555555522441864 0.033054761588573456 -0.030851462855935097
			vertex 0.0555555522441864 -0.04408343881368637 0.015823600813746452
			vertex 0.0555555522441864 -0.08665246516466141 0.03110361099243164
		endloop
	endfacet
	facet normal 1 0 0
		outer loop
			vertex 0.0555555522441864 0.033054761588573456 -0.030851462855935097
			vertex 0.0555555522441864 -0.08665246516466141 0.03110361099243164
			vertex 0.0555555522441864 -0.0864735022187233 0.01133247371762991
		endloop
	endfacet
	facet normal 1 0 0
		outer loop
			vertex 0.0555555522441864 0.033054761588573456 -0.030851462855935097
			vertex 0.0555555522441864 -0.0864735022187233 0.01133247371762991
			vertex 0.0555555522441864 -0.07196129113435745 -0.03325696662068367
		endloop
	endfacet
	facet normal -1 0 0
		outer loop
			vertex -0.0555555522441864 -0.09590063244104385 0.036741629242897034
			vertex -0.0555555522441864 -0.08782867342233658 0.036741629242897034
			vertex -0.0555555522441864 -0.0709034875035286 0.026087792590260506
		endloop
	endfacet
	facet normal -1 0 0
		outer loop
			vertex -0.0555555522441864 -0.09590063244104385 0.036741629242897034
			vertex -0.0555555522441864 -0.0709034875035286 0.026087792590260506
			vertex -0.0555555522441864 -0.0952579453587532 0.022766733542084694
		endloop
	endfacet
	facet normal -1 0 0
		outer loop
			vertex -0.0555555522441864 -0.08782867342233658 0.036741629242897034
			vertex -0.0555555522441864 0.007224729750305414 0.036741629242897034
			vertex -0.0555555522441864 -0.0709034875035286 0.026087792590260506
		endloop
	endfacet
	facet normal -1 0 0
		outer loop
			vertex -0.0555555522441864 0.028910284861922264 -0.036741629242897034
			vertex -0.0555555522441864 -0.082551009953022 -0.036741629242897034
			vertex -0.0555555522441864 -0.08600208908319473 -0.030870158225297928
		endloop
	endfacet
	facet normal -1 0 0
		outer loop
			vertex -0.0555555522441864 0.028910284861922264 -0.036741629242897034
			vertex -0.0555555522441864 -0.08600208908319473 -0.030870158225297928
			vertex -0.0555555522441864 -0.018760958686470985 -0.0067341807298362255
		endloop
	endfacet
	facet normal -1 0 0
		outer loop
			vertex -0.0555555522441864 -0.0952579453587532 0.022766733542084694
			vertex -0.0555555522441864 -0.0709034875035286 0.026087792590260506
			vertex -0.0555555522441864 -0.018760958686470985 -0.0067341807298362255
		endloop
	endfacet
	facet normal -1 0 0
		outer loop
			vertex -0.0555555522441864 -0.0952579453587532 0.022766733542084694
			vertex -0.0555555522441864 -0.018760958686470985 -0.0067341807298362255
			vertex -0.0555555522441864 -0.08600208908319473 -0.030870158225297928
		endloop
	endfacet
	facet normal -1 0 0
		outer loop
			vertex -0.0555555522441864 -0.0952579453587532 0.022766733542084694
			vertex -0.0555555522441864 -0.08600208908319473 -0.030870158225297928
			vertex -0.0555555522441864 -0.08620346337556839 -0.030527573078870773
		endloop
	endfacet
	facet normal -1 0 0
		outer loop
			vertex -0.0555555522441864 -0.0952579453587532 0.022766733542084694
			vertex -0.0555555522441864 -0.08620346337556839 -0.030527573078870773
			vertex -0.0555555522441864 -0.09411070495843887 -0.0021804440766572952
		endloop
	endfacet
	facet normal -1 0 0
		outer loop
			vertex -0.0555555522441864 0.06635340303182602 -0.036741629242897034
			vertex -0.0555555522441864 0.028910284861922264 -0.036741629242897034
			vertex -0.0555555522441864 -0.018760958686470985 -0.0067341807298362255
		endloop
	endfacet
	facet normal -1 0 0
		outer loop
			vertex -0.0555555522441864 0.06635340303182602 -0.036741629242897034
			vertex -0.0555555522441864 -0.018760958686470985 -0.0067341807298362255
			vertex -0.0555555522441864 0.05358291417360306 0.01923340931534767
		endloop
	endfacet
	facet normal -1 0 0
		outer loop
			vertex -0.0555555522441864 -0.0709034875035286 0.026087792590260506
			vertex -0.0555555522441864 0.007224729750305414 0.036741629242897034
			vertex -0.0555555522441864 0.04958847910165787 0.036741629242897034
		endloop
	endfacet
	facet normal -1 0 0
		outer loop
			vertex -0.0555555522441864 -0.0709034875035286 0.026087792590260506
			vertex -0.0555555522441864 0.04958847910165787 0.036741629242897034
			vertex -0.0555555522441864 0.05358291417360306 0.01923340931534767
		endloop
	endfacet
	facet normal -1 0 0
		outer loop
			vertex -0.0555555522441864 -0.0709034875035286 0.026087792590260506
			vertex -0.0555555522441864 0.05358291417360306 0.01923340931534767
			vertex -0.0555555522441864 -0.018760958686470985 -0.0067341807298362255
		endloop
	endfacet
	facet normal -1 0 0
		outer loop
			vertex -0.0555555522441864 0.1023595854640007 -0.036741629242897034
			vertex -0.0555555522441864 0.06635340303182602 -0.036741629242897034
			vertex -0.0555555522441864 0.05358291417360306 0.01923340931534767
		endloop
	endfacet
	facet normal -1 0 0
		outer loop
			vertex -0.0555555522441864 0.1023595854640007 -0.036741629242897034
			vertex -0.0555555522441864 0.05358291417360306 0.01923340931534767
			vertex -0.0555555522441864 0.1023595854640007 0.036741629242897034
		endloop
	endfacet
	facet normal -1 0 0
		outer loop
			vertex -0.0555555522441864 0.04958847910165787 0.036741629242897034
			vertex -0.0555555522441864 0.1023595854640007 0.036741629242897034
			vertex -0.0555555522441864 0.05358291417360306 0.01923340931534767
		endloop
	endfacet
	facet normal 0 1 0
		outer loop
			vertex -0.0555555522441864 0.1023595854640007 -0.036741629242897034
			vertex -0.0555555522441864 0.1023595854640007 0.036741629242897034
			vertex 0.0555555522441864 0.1023595854640007 -0.036741629242897034
		endloop
	endfacet
	facet normal 0 1 0
		outer loop
			vertex -0.0555555522441864 0.1023595854640007 0.036741629242897034
			vertex -0.05389934778213501 0.1023595854640007 0.036741629242897034
			vertex 0.0555555522441864 0.1023595854640007 -0.016475770622491837
		endloop
	endfacet
	facet normal 0 1 0
		outer loop
			vertex -0.0555555522441864 0.1023595854640007 0.036741629242897034
			vertex 0.0555555522441864 0.1023595854640007 -0.016475770622491837
			vertex 0.0555555522441864 0.1023595854640007 -0.036741629242897034
		endloop
	endfacet
	facet normal 0 1 0
		outer loop
			vertex -0.05389934778213501 0.1023595854640007 0.036741629242897034
			vertex 0.0555555522441864 0.1023595854640007 0.036741629242897034
			vertex 0.0555555522441864 0.1023595854640007 -0.016475770622491837
		endloop
	endfacet
	facet normal 0 0 1
		outer loop
			vertex -0.0555555522441864 -0.08782867342233658 0.036741629242897034
			vertex -0.0555555522441864 -0.09590063244104385 0.036741629242897034
			vertex -0.05251414328813553 -0.09675586968660355 0.036741629242897034
		endloop
	endfacet
	facet normal 0 0 1
		outer loop
			vertex -0.0555555522441864 -0.08782867342233658 0.036741629242897034
			vertex -0.05251414328813553 -0.09675586968660355 0.036741629242897034
			vertex -0.051889143884181976 -0.09560433775186539 0.036741629242897034
		endloop
	endfacet
	facet normal 0 0 1
		outer loop
			vertex -0.05116762965917587 -0.09713450819253922 0.036741629242897034
			vertex -0.051889143884181976 -0.09560433775186539 0.036741629242897034
			vertex -0.05251414328813553 -0.09675586968660355 0.036741629242897034
		endloop
	endfacet
	facet normal 0 0 1
		outer loop
			vertex -0.0555555522441864 0.007224729750305414 0.036741629242897034
			vertex -0.0555555522441864 -0.08782867342233658 0.036741629242897034
			vertex -0.051889143884181976 -0.09560433775186539 0.036741629242897034
		endloop
	endfacet
	facet normal 0 0 1
		outer loop
			vertex -0.0555555522441864 0.007224729750305414 0.036741629242897034
			vertex -0.051889143884181976 -0.09560433775186539 0.036741629242897034
			vertex -0.04630206525325775 -0.08531028777360916 0.036741629242897034
		endloop
	endfacet
	facet normal 0 0 1
		outer loop
			vertex -0.04497851803898811 -0.09854573756456375 0.036741629242897034
			vertex -0.04630206525325775 -0.08531028777360916 0.036741629242897034
			vertex -0.051889143884181976 -0.09560433775186539 0.036741629242897034
		endloop
	endfacet
	facet normal 0 0 1
		outer loop
			vertex -0.04497851803898811 -0.09854573756456375 0.036741629242897034
			vertex -0.051889143884181976 -0.09560433775186539 0.036741629242897034
			vertex -0.05116762965917587 -0.09713450819253922 0.036741629242897034
		endloop
	endfacet
	facet normal 0 0 1
		outer loop
			vertex -0.04497851803898811 -0.09854573756456375 0.036741629242897034
			vertex -0.05116762965917587 -0.09713450819253922 0.036741629242897034
			vertex -0.046376220881938934 -0.09848187118768692 0.036741629242897034
		endloop
	endfacet
	facet normal 0 0 1
		outer loop
			vertex -0.0555555522441864 0.04958847910165787 0.036741629242897034
			vertex -0.0555555522441864 0.007224729750305414 0.036741629242897034
			vertex -0.04630206525325775 -0.08531028777360916 0.036741629242897034
		endloop
	endfacet
	facet normal 0 0 1
		outer loop
			vertex -0.0555555522441864 0.04958847910165787 0.036741629242897034
			vertex -0.04630206525325775 -0.08531028777360916 0.036741629242897034
			vertex -0.021333802491426468 -0.039306946098804474 0.036741629242897034
		endloop
	endfacet
	facet normal 0 0 1
		outer loop
			vertex -0.012403883971273899 -0.10003481060266495 0.036741629242897034
			vertex 0.001029898994602263 -0.09739957004785538 0.036741629242897034
			vertex -0.021333802491426468 -0.039306946098804474 0.036741629242897034
		endloop
	endfacet
	facet normal 0 0 1
		outer loop
			vertex -0.012403883971273899 -0.10003481060266495 0.036741629242897034
			vertex -0.021333802491426468 -0.039306946098804474 0.036741629242897034
			vertex -0.04630206525325775 -0.08531028777360916 0.036741629242897034
		endloop
	endfacet
	facet normal 0 0 1
		outer loop
			vertex -0.012403883971273899 -0.10003481060266495 0.036741629242897034
			vertex -0.04630206525325775 -0.08531028777360916 0.036741629242897034
			vertex -0.04497851803898811 -0.09854573756456375 0.036741629242897034
		endloop
	endfacet
	facet normal 0 0 1
		outer loop
			vertex -0.0555555522441864 0.1023595854640007 0.036741629242897034
			vertex -0.0555555522441864 0.04958847910165787 0.036741629242897034
			vertex -0.021333802491426468 -0.039306946098804474 0.036741629242897034
		endloop
	endfacet
	facet normal 0 0 1
		outer loop
			vertex -0.0555555522441864 0.1023595854640007 0.036741629242897034
			vertex -0.021333802491426468 -0.039306946098804474 0.036741629242897034
			vertex 0.031440369784832 0.057928018271923065 0.036741629242897034
		endloop
	endfacet
	facet normal 0 0 1
		outer loop
			vertex -0.0555555522441864 0.1023595854640007 0.036741629242897034
			vertex 0.031440369784832 0.057928018271923065 0.036741629242897034
			vertex -0.05389934778213501 0.1023595854640007 0.036741629242897034
		endloop
	endfacet
	facet normal 0 0 1
		outer loop
			vertex 0.04855464771389961 -0.08807683736085892 0.036741629242897034
			vertex 0.0555555522441864 -0.07865390926599503 0.036741629242897034
			vertex 0.0555555522441864 0.04537259787321091 0.036741629242897034
		endloop
	endfacet
	facet normal 0 0 1
		outer loop
			vertex 0.04855464771389961 -0.08807683736085892 0.036741629242897034
			vertex 0.0555555522441864 0.04537259787321091 0.036741629242897034
			vertex 0.031440369784832 0.057928018271923065 0.036741629242897034
		endloop
	endfacet
	facet normal 0 0 1
		outer loop
			vertex 0.04855464771389961 -0.08807683736085892 0.036741629242897034
			vertex 0.031440369784832 0.057928018271923065 0.036741629242897034
			vertex -0.021333802491426468 -0.039306946098804474 0.036741629242897034
		endloop
	endfacet
	facet normal 0 0 1
		outer loop
			vertex 0.04855464771389961 -0.08807683736085892 0.036741629242897034
			vertex -0.021333802491426468 -0.039306946098804474 0.036741629242897034
			vertex 0.001029898994602263 -0.09739957004785538 0.036741629242897034
		endloop
	endfacet
	facet normal 0 0 1
		outer loop
			vertex 0.031440369784832 0.057928018271923065 0.036741629242897034
			vertex 0.0555555522441864 0.1023595854640007 0.036741629242897034
			vertex -0.05389934778213501 0.1023595854640007 0.036741629242897034
		endloop
	endfacet
	facet normal 0 0 1
		outer loop
			vertex 0.0555555522441864 0.04537259787321091 0.036741629242897034
			vertex 0.0555555522441864 0.1023595854640007 0.036741629242897034
			vertex 0.031440369784832 0.057928018271923065 0.036741629242897034
		endloop
	endfacet
	facet normal 0 0 1
		outer loop
			vertex 0.0555555522441864 -0.08670351654291153 0.036741629242897034
			vertex 0.0555555522441864 -0.07865390926599503 0.036741629242897034
			vertex 0.04855464771389961 -0.08807683736085892 0.036741629242897034
		endloop
	endfacet
	facet normal 0 0 -1
		outer loop
			vertex -0.0555555522441864 -0.082551009953022 -0.036741629242897034
			vertex -0.0555555522441864 0.028910284861922264 -0.036741629242897034
			vertex -0.003023301949724555 -0.08249930292367935 -0.036741629242897034
		endloop
	endfacet
	facet normal 0 0 -1
		outer loop
			vertex -0.003023301949724555 -0.08249930292367935 -0.036741629242897034
			vertex -0.0555555522441864 0.028910284861922264 -0.036741629242897034
			vertex -0.0555555522441864 0.06635340303182602 -0.036741629242897034
		endloop
	endfacet
	facet normal 0 0 -1
		outer loop
			vertex -0.003023301949724555 -0.08249930292367935 -0.036741629242897034
			vertex -0.0555555522441864 0.06635340303182602 -0.036741629242897034
			vertex 0.001745923887938261 -0.0824945941567421 -0.036741629242897034
		endloop
	endfacet
	facet normal 0 0 -1
		outer loop
			vertex 0.0555555522441864 0.1023595854640007 -0.036741629242897034
			vertex 0.0555555522441864 0.042789213359355927 -0.036741629242897034
			vertex 0.010031982325017452 -0.01848364807665348 -0.036741629242897034
		endloop
	endfacet
	facet normal 0 0 -1
		outer loop
			vertex 0.0555555522441864 0.1023595854640007 -0.036741629242897034
			vertex 0.010031982325017452 -0.01848364807665348 -0.036741629242897034
			vertex -0.0555555522441864 0.1023595854640007 -0.036741629242897034
		endloop
	endfacet
	facet normal 0 0 -1
		outer loop
			vertex -0.01165766641497612 -0.047677017748355865 -0.036741629242897034
			vertex -0.0555555522441864 0.06635340303182602 -0.036741629242897034
			vertex -0.0555555522441864 0.1023595854640007 -0.036741629242897034
		endloop
	endfacet
	facet normal 0 0 -1
		outer loop
			vertex -0.01165766641497612 -0.047677017748355865 -0.036741629242897034
			vertex -0.0555555522441864 0.1023595854640007 -0.036741629242897034
			vertex 0.010031982325017452 -0.01848364807665348 -0.036741629242897034
		endloop
	endfacet
	facet normal 0 0 -1
		outer loop
			vertex 0.043315015733242035 -0.0754876509308815 -0.036741629242897034
			vertex 0.04318752512335777 -0.07393992692232132 -0.036741629242897034
			vertex 0.04791002348065376 -0.07275138050317764 -0.036741629242897034
		endloop
	endfacet
	facet normal 0 0 -1
		outer loop
			vertex 0.04346906766295433 -0.07735792547464371 -0.036741629242897034
			vertex 0.04218817129731178 -0.07773054391145706 -0.036741629242897034
			vertex 0.040498167276382446 -0.07461676746606827 -0.036741629242897034
		endloop
	endfacet
	facet normal 0 0 -1
		outer loop
			vertex 0.04346906766295433 -0.07735792547464371 -0.036741629242897034
			vertex 0.040498167276382446 -0.07461676746606827 -0.036741629242897034
			vertex 0.04318752512335777 -0.07393992692232132 -0.036741629242897034
		endloop
	endfacet
	facet normal 0 0 -1
		outer loop
			vertex 0.040498167276382446 -0.07461676746606827 -0.036741629242897034
			vertex 0.04218817129731178 -0.07773054391145706 -0.036741629242897034
			vertex 0.025893550366163254 -0.0824708417057991 -0.036741629242897034
		endloop
	endfacet
	facet normal 0 0 -1
		outer loop
			vertex 0.040498167276382446 -0.07461676746606827 -0.036741629242897034
			vertex 0.025893550366163254 -0.0824708417057991 -0.036741629242897034
			vertex 0.00922595988959074 -0.08248723298311234 -0.036741629242897034
		endloop
	endfacet
	facet normal 0 0 -1
		outer loop
			vertex 0.0555555522441864 0.042789213359355927 -0.036741629242897034
			vertex 0.0555555522441864 -0.0681985393166542 -0.036741629242897034
			vertex 0.04791002348065376 -0.07275138050317764 -0.036741629242897034
		endloop
	endfacet
	facet normal 0 0 -1
		outer loop
			vertex 0.0555555522441864 0.042789213359355927 -0.036741629242897034
			vertex 0.04791002348065376 -0.07275138050317764 -0.036741629242897034
			vertex 0.04318752512335777 -0.07393992692232132 -0.036741629242897034
		endloop
	endfacet
	facet normal 0 0 -1
		outer loop
			vertex 0.0555555522441864 0.042789213359355927 -0.036741629242897034
			vertex 0.04318752512335777 -0.07393992692232132 -0.036741629242897034
			vertex 0.03576638549566269 0.016153788194060326 -0.036741629242897034
		endloop
	endfacet
	facet normal 0 0 -1
		outer loop
			vertex 0.04318752512335777 -0.07393992692232132 -0.036741629242897034
			vertex 0.040498167276382446 -0.07461676746606827 -0.036741629242897034
			vertex 0.010031982325017452 -0.01848364807665348 -0.036741629242897034
		endloop
	endfacet
	facet normal 0 0 -1
		outer loop
			vertex 0.04318752512335777 -0.07393992692232132 -0.036741629242897034
			vertex 0.010031982325017452 -0.01848364807665348 -0.036741629242897034
			vertex 0.03576638549566269 0.016153788194060326 -0.036741629242897034
		endloop
	endfacet
	facet normal 0 0 -1
		outer loop
			vertex 0.001745923887938261 -0.0824945941567421 -0.036741629242897034
			vertex -0.01165766641497612 -0.047677017748355865 -0.036741629242897034
			vertex 0.010031982325017452 -0.01848364807665348 -0.036741629242897034
		endloop
	endfacet
	facet normal 0 0 -1
		outer loop
			vertex 0.001745923887938261 -0.0824945941567421 -0.036741629242897034
			vertex 0.010031982325017452 -0.01848364807665348 -0.036741629242897034
			vertex 0.040498167276382446 -0.07461676746606827 -0.036741629242897034
		endloop
	endfacet
	facet normal 0 0 -1
		outer loop
			vertex 0.001745923887938261 -0.0824945941567421 -0.036741629242897034
			vertex 0.040498167276382446 -0.07461676746606827 -0.036741629242897034
			vertex 0.00922595988959074 -0.08248723298311234 -0.036741629242897034
		endloop
	endfacet
endsolid exported
