solid exported
	facet normal -0.04553899184113805 -0.9962198740043781 0.07397406884033218
		outer loop
			vertex -0.0555555522441864 -0.09260577708482742 0.036741629242897034
			vertex -0.0555555522441864 -0.09642920643091202 -0.014749066904187202
			vertex -0.018462207168340683 -0.09430138021707535 0.036741629242897034
		endloop
	endfacet
	facet normal -0.2704342489922355 -0.9617220817585183 -0.04422617358609515
		outer loop
			vertex -0.0555555522441864 -0.09590063244104385 -0.036741625517606735
			vertex -0.051167625933885574 -0.09713450819253922 -0.036741625517606735
			vertex -0.0555555522441864 -0.0961412563920021 -0.03150912746787071
		endloop
	endfacet
	facet normal -0.2704397441143718 -0.9617203091247929 -0.04423111823440534
		outer loop
			vertex -0.0555555522441864 -0.0961412563920021 -0.03150912746787071
			vertex -0.051167625933885574 -0.09713450819253922 -0.036741625517606735
			vertex -0.046376220881938934 -0.09848187118768692 -0.036741625517606735
		endloop
	endfacet
	facet normal -0.27043740245696396 -0.9617211743262601 -0.04422662325850365
		outer loop
			vertex -0.0555555522441864 -0.0961412563920021 -0.03150912746787071
			vertex -0.046376220881938934 -0.09848187118768692 -0.036741625517606735
			vertex -0.0555555522441864 -0.09672734886407852 -0.018764371052384377
		endloop
	endfacet
	facet normal -0.04553452873102006 -0.996220315393651 0.07397087190386852
		outer loop
			vertex -0.018462207168340683 -0.09430138021707535 0.036741629242897034
			vertex -0.0555555522441864 -0.09642920643091202 -0.014749066904187202
			vertex -0.0555555522441864 -0.09672734886407852 -0.018764371052384377
		endloop
	endfacet
	facet normal -0.04554021662314838 -0.9962197749097682 0.07397464936481689
		outer loop
			vertex -0.018462207168340683 -0.09430138021707535 0.036741629242897034
			vertex -0.0555555522441864 -0.09672734886407852 -0.018764371052384377
			vertex -0.046376220881938934 -0.09848187118768692 -0.036741625517606735
		endloop
	endfacet
	facet normal -0.04552126838904548 -0.9962211694716958 0.07396753085441946
		outer loop
			vertex -0.018462207168340683 -0.09430138021707535 0.036741629242897034
			vertex -0.046376220881938934 -0.09848187118768692 -0.036741625517606735
			vertex -0.04497852176427841 -0.09854573756456375 -0.036741625517606735
		endloop
	endfacet
	facet normal -0.04553904261421465 -0.9962198864077343 0.07397387054590224
		outer loop
			vertex -0.018462207168340683 -0.09430138021707535 0.036741629242897034
			vertex -0.04497852176427841 -0.09854573756456375 -0.036741625517606735
			vertex 0.008608505129814148 -0.09553883224725723 0.036741629242897034
		endloop
	endfacet
	facet normal 0.19248881981407331 -0.9812589698409627 -0.008881911575683858
		outer loop
			vertex 0.0010298992274329066 -0.09739957004785538 -0.036741625517606735
			vertex -0.0014616107800975442 -0.09817589074373245 -0.004971006885170937
			vertex -0.012403885833919048 -0.10003481060266495 -0.036741625517606735
		endloop
	endfacet
	facet normal -0.045539851844731805 -0.9962198335524688 0.07397408418257984
		outer loop
			vertex -0.04497852176427841 -0.09854573756456375 -0.036741625517606735
			vertex -0.012403885833919048 -0.10003481060266495 -0.036741625517606735
			vertex -0.0014616107800975442 -0.09817589074373245 -0.004971006885170937
		endloop
	endfacet
	facet normal -0.045540194230883436 -0.9962197831209667 0.07397455256929664
		outer loop
			vertex -0.04497852176427841 -0.09854573756456375 -0.036741625517606735
			vertex -0.0014616107800975442 -0.09817589074373245 -0.004971006885170937
			vertex -0.004305971786379814 -0.09626350551843643 0.019032156094908714
		endloop
	endfacet
	facet normal 0.19248869828313042 -0.9812589935895711 -0.008881921686664079
		outer loop
			vertex 0.012904842384159565 -0.09573525935411453 0.036741629242897034
			vertex -0.0014616107800975442 -0.09817589074373245 -0.004971006885170937
			vertex 0.0010298992274329066 -0.09739957004785538 -0.036741625517606735
		endloop
	endfacet
	facet normal 0.19248947453281315 -0.9812588401492968 -0.008882050604377075
		outer loop
			vertex 0.012904842384159565 -0.09573525935411453 0.036741629242897034
			vertex 0.0010298992274329066 -0.09739957004785538 -0.036741625517606735
			vertex 0.04855464771389961 -0.08807683736085892 -0.036741625517606735
		endloop
	endfacet
	facet normal 0.19248918265867618 -0.981258896070502 -0.008882198032854328
		outer loop
			vertex 0.012904842384159565 -0.09573525935411453 0.036741629242897034
			vertex 0.04855464771389961 -0.08807683736085892 -0.036741625517606735
			vertex 0.0555555522441864 -0.08674783259630203 -0.0318441167473793
		endloop
	endfacet
	facet normal 0.19249081338905638 -0.9812585857228795 -0.008881143279657588
		outer loop
			vertex 0.012904842384159565 -0.09573525935411453 0.036741629242897034
			vertex 0.0555555522441864 -0.08674783259630203 -0.0318441167473793
			vertex 0.0555555522441864 -0.08686528354883194 -0.018867211416363716
		endloop
	endfacet
	facet normal 0.19249168652085674 -0.9812584207415759 -0.008880447291918966
		outer loop
			vertex 0.012904842384159565 -0.09573525935411453 0.036741629242897034
			vertex 0.0555555522441864 -0.08686528354883194 -0.018867211416363716
			vertex 0.023680083453655243 -0.09362149983644485 0.036741629242897034
		endloop
	endfacet
	facet normal 0.4809028233902037 -0.8598984610442468 0.1711931983142634
		outer loop
			vertex 0.0555555522441864 -0.07605717331171036 0.03542460501194
			vertex 0.05166218429803848 -0.07797235995531082 0.036741629242897034
			vertex 0.023680083453655243 -0.09362149983644485 0.036741629242897034
		endloop
	endfacet
	facet normal 0.4809033005380132 -0.8599000114151453 0.17118407022815782
		outer loop
			vertex 0.0555555522441864 -0.07605717331171036 0.03542460501194
			vertex 0.023680083453655243 -0.09362149983644485 0.036741629242897034
			vertex 0.0555555522441864 -0.08686528354883194 -0.018867211416363716
		endloop
	endfacet
	facet normal 0.5007875422293823 -0.8121199548146794 0.2994545316732712
		outer loop
			vertex 0.0555555522441864 -0.07557154446840286 0.036741629242897034
			vertex 0.05166218429803848 -0.07797235995531082 0.036741629242897034
			vertex 0.0555555522441864 -0.07605717331171036 0.03542460501194
		endloop
	endfacet
	facet normal -0.04554681624931626 -0.9962193436516039 0.07397639396401336
		outer loop
			vertex -0.0014616107800975442 -0.09817589074373245 -0.004971006885170937
			vertex 0.012904842384159565 -0.09573525935411453 0.036741629242897034
			vertex 0.008608505129814148 -0.09553883224725723 0.036741629242897034
		endloop
	endfacet
	facet normal -0.045539443886853256 -0.9962198106558264 0.07397464367839594
		outer loop
			vertex -0.0014616107800975442 -0.09817589074373245 -0.004971006885170937
			vertex 0.008608505129814148 -0.09553883224725723 0.036741629242897034
			vertex -0.004305971786379814 -0.09626350551843643 0.019032156094908714
		endloop
	endfacet
	facet normal 1 0 0
		outer loop
			vertex 0.0555555522441864 -0.033315740525722504 0.036741629242897034
			vertex 0.0555555522441864 -0.07557154446840286 0.036741629242897034
			vertex 0.0555555522441864 -0.07605717331171036 0.03542460501194
		endloop
	endfacet
	facet normal 1 0 0
		outer loop
			vertex 0.0555555522441864 -0.033315740525722504 0.036741629242897034
			vertex 0.0555555522441864 -0.07605717331171036 0.03542460501194
			vertex 0.0555555522441864 -0.07756660133600235 0.02784227393567562
		endloop
	endfacet
	facet normal 1 0 0
		outer loop
			vertex 0.0555555522441864 -0.033315740525722504 0.036741629242897034
			vertex 0.0555555522441864 -0.07756660133600235 0.02784227393567562
			vertex 0.0555555522441864 0.009792349301278591 -0.0035149247851222754
		endloop
	endfacet
	facet normal 1 0 0
		outer loop
			vertex 0.0555555522441864 -0.08674783259630203 -0.0318441167473793
			vertex 0.0555555522441864 -0.07865390926599503 -0.036741625517606735
			vertex 0.0555555522441864 0.04537259787321091 -0.036741625517606735
		endloop
	endfacet
	facet normal 1 0 0
		outer loop
			vertex 0.0555555522441864 -0.08674783259630203 -0.0318441167473793
			vertex 0.0555555522441864 0.04537259787321091 -0.036741625517606735
			vertex 0.0555555522441864 0.009792349301278591 -0.0035149247851222754
		endloop
	endfacet
	facet normal 1 0 0
		outer loop
			vertex 0.0555555522441864 -0.08674783259630203 -0.0318441167473793
			vertex 0.0555555522441864 0.009792349301278591 -0.0035149247851222754
			vertex 0.0555555522441864 -0.07756660133600235 0.02784227393567562
		endloop
	endfacet
	facet normal 1 0 0
		outer loop
			vertex 0.0555555522441864 -0.08674783259630203 -0.0318441167473793
			vertex 0.0555555522441864 -0.07756660133600235 0.02784227393567562
			vertex 0.0555555522441864 -0.08686528354883194 -0.018867211416363716
		endloop
	endfacet
	facet normal 1 0 0
		outer loop
			vertex 0.0555555522441864 0.1023595854640007 0.036741629242897034
			vertex 0.0555555522441864 0.07607116550207138 0.036741629242897034
			vertex 0.0555555522441864 0.1023595854640007 0.03415137529373169
		endloop
	endfacet
	facet normal 1 0 0
		outer loop
			vertex 0.0555555522441864 -0.0010560541413724422 0.006615867838263512
			vertex 0.0555555522441864 0.009792349301278591 -0.0035149247851222754
			vertex 0.0555555522441864 0.1023595854640007 -0.036741625517606735
		endloop
	endfacet
	facet normal 1 0 0
		outer loop
			vertex 0.0555555522441864 -0.0010560541413724422 0.006615867838263512
			vertex 0.0555555522441864 0.1023595854640007 -0.036741625517606735
			vertex 0.0555555522441864 0.1023595854640007 -0.030944524332880974
		endloop
	endfacet
	facet normal 1 0 0
		outer loop
			vertex 0.0555555522441864 0.04537259787321091 -0.036741625517606735
			vertex 0.0555555522441864 0.1023595854640007 -0.036741625517606735
			vertex 0.0555555522441864 0.009792349301278591 -0.0035149247851222754
		endloop
	endfacet
	facet normal 1 0 0
		outer loop
			vertex 0.0555555522441864 0.05684234946966171 0.036741629242897034
			vertex 0.0555555522441864 -0.033315740525722504 0.036741629242897034
			vertex 0.0555555522441864 -0.0010560541413724422 0.006615867838263512
		endloop
	endfacet
	facet normal 1 0 0
		outer loop
			vertex 0.0555555522441864 0.05684234946966171 0.036741629242897034
			vertex 0.0555555522441864 -0.0010560541413724422 0.006615867838263512
			vertex 0.0555555522441864 0.10160350799560547 -0.030669918283820152
		endloop
	endfacet
	facet normal 1 0 0
		outer loop
			vertex 0.0555555522441864 0.05684234946966171 0.036741629242897034
			vertex 0.0555555522441864 0.10160350799560547 -0.030669918283820152
			vertex 0.0555555522441864 0.1023595854640007 -0.025323370471596718
		endloop
	endfacet
	facet normal 1 0 0
		outer loop
			vertex 0.0555555522441864 0.05684234946966171 0.036741629242897034
			vertex 0.0555555522441864 0.1023595854640007 -0.025323370471596718
			vertex 0.0555555522441864 0.1023595854640007 0.014657778665423393
		endloop
	endfacet
	facet normal 1 0 0
		outer loop
			vertex 0.0555555522441864 0.10160350799560547 -0.030669918283820152
			vertex 0.0555555522441864 0.1023595854640007 -0.030944524332880974
			vertex 0.0555555522441864 0.1023595854640007 -0.025323370471596718
		endloop
	endfacet
	facet normal 1 0 0
		outer loop
			vertex 0.0555555522441864 0.07607116550207138 0.036741629242897034
			vertex 0.0555555522441864 0.05684234946966171 0.036741629242897034
			vertex 0.0555555522441864 0.1023595854640007 0.014657778665423393
		endloop
	endfacet
	facet normal 1 0 0
		outer loop
			vertex 0.0555555522441864 0.07607116550207138 0.036741629242897034
			vertex 0.0555555522441864 0.1023595854640007 0.014657778665423393
			vertex 0.0555555522441864 0.1023595854640007 0.03415137529373169
		endloop
	endfacet
	facet normal 0.1924871080801193 -0.9812593309362738 -0.00887911445183215
		outer loop
			vertex 0.0555555522441864 -0.08670351654291153 -0.036741625517606735
			vertex 0.0555555522441864 -0.08674783259630203 -0.0318441167473793
			vertex 0.04855464771389961 -0.08807683736085892 -0.036741625517606735
		endloop
	endfacet
	facet normal 1 0 0
		outer loop
			vertex 0.0555555522441864 -0.08670351654291153 -0.036741625517606735
			vertex 0.0555555522441864 -0.07865390926599503 -0.036741625517606735
			vertex 0.0555555522441864 -0.08674783259630203 -0.0318441167473793
		endloop
	endfacet
	facet normal -1 0 0
		outer loop
			vertex -0.0555555522441864 -0.03006576932966709 -0.010792003944516182
			vertex -0.0555555522441864 0.05722086876630783 0.020539237186312675
			vertex -0.0555555522441864 0.04178640991449356 -0.0065076593309640884
		endloop
	endfacet
	facet normal -1 0 0
		outer loop
			vertex -0.0555555522441864 -0.09260577708482742 0.036741629242897034
			vertex -0.0555555522441864 0.06646684557199478 0.036741629242897034
			vertex -0.0555555522441864 0.05722086876630783 0.020539237186312675
		endloop
	endfacet
	facet normal -1 0 0
		outer loop
			vertex -0.0555555522441864 -0.09260577708482742 0.036741629242897034
			vertex -0.0555555522441864 0.05722086876630783 0.020539237186312675
			vertex -0.0555555522441864 -0.03006576932966709 -0.010792003944516182
		endloop
	endfacet
	facet normal -1 0 0
		outer loop
			vertex -0.0555555522441864 -0.09260577708482742 0.036741629242897034
			vertex -0.0555555522441864 -0.03006576932966709 -0.010792003944516182
			vertex -0.0555555522441864 -0.09642920643091202 -0.014749066904187202
		endloop
	endfacet
	facet normal -1 0 0
		outer loop
			vertex -0.0555555522441864 0.05722086876630783 0.020539237186312675
			vertex -0.0555555522441864 0.1023595854640007 0.036741629242897034
			vertex -0.0555555522441864 0.1023595854640007 -0.0028958560433238745
		endloop
	endfacet
	facet normal -1 0 0
		outer loop
			vertex -0.0555555522441864 0.05722086876630783 0.020539237186312675
			vertex -0.0555555522441864 0.1023595854640007 -0.0028958560433238745
			vertex -0.0555555522441864 0.04178640991449356 -0.0065076593309640884
		endloop
	endfacet
	facet normal -1 0 0
		outer loop
			vertex -0.0555555522441864 0.06646684557199478 0.036741629242897034
			vertex -0.0555555522441864 0.1023595854640007 0.036741629242897034
			vertex -0.0555555522441864 0.05722086876630783 0.020539237186312675
		endloop
	endfacet
	facet normal -1 0 0
		outer loop
			vertex -0.0555555522441864 -0.08782867342233658 -0.036741625517606735
			vertex -0.0555555522441864 -0.09590063244104385 -0.036741625517606735
			vertex -0.0555555522441864 -0.09600553661584854 -0.03446085378527641
		endloop
	endfacet
	facet normal -1 0 0
		outer loop
			vertex -0.0555555522441864 -0.08782867342233658 -0.036741625517606735
			vertex -0.0555555522441864 -0.09600553661584854 -0.03446085378527641
			vertex -0.0555555522441864 -0.09310562163591385 -0.03341995179653168
		endloop
	endfacet
	facet normal -1 0 0
		outer loop
			vertex -0.0555555522441864 -0.0961412563920021 -0.03150912746787071
			vertex -0.0555555522441864 -0.09310562163591385 -0.03341995179653168
			vertex -0.0555555522441864 -0.09600553661584854 -0.03446085378527641
		endloop
	endfacet
	facet normal -1 0 0
		outer loop
			vertex -0.0555555522441864 0.007224729750305414 -0.036741625517606735
			vertex -0.0555555522441864 -0.08782867342233658 -0.036741625517606735
			vertex -0.0555555522441864 -0.09310562163591385 -0.03341995179653168
		endloop
	endfacet
	facet normal -1 0 0
		outer loop
			vertex -0.0555555522441864 0.007224729750305414 -0.036741625517606735
			vertex -0.0555555522441864 -0.09310562163591385 -0.03341995179653168
			vertex -0.0555555522441864 -0.03006576932966709 -0.010792003944516182
		endloop
	endfacet
	facet normal -1 0 0
		outer loop
			vertex -0.0555555522441864 0.007224729750305414 -0.036741625517606735
			vertex -0.0555555522441864 -0.03006576932966709 -0.010792003944516182
			vertex -0.0555555522441864 0.1023595854640007 -0.0028958560433238745
		endloop
	endfacet
	facet normal -1 0 0
		outer loop
			vertex -0.0555555522441864 0.007224729750305414 -0.036741625517606735
			vertex -0.0555555522441864 0.1023595854640007 -0.0028958560433238745
			vertex -0.0555555522441864 0.1023595854640007 -0.023768706247210503
		endloop
	endfacet
	facet normal -1 0 0
		outer loop
			vertex -0.0555555522441864 -0.09642920643091202 -0.014749066904187202
			vertex -0.0555555522441864 -0.03006576932966709 -0.010792003944516182
			vertex -0.0555555522441864 -0.09310562163591385 -0.03341995179653168
		endloop
	endfacet
	facet normal -1 0 0
		outer loop
			vertex -0.0555555522441864 -0.09642920643091202 -0.014749066904187202
			vertex -0.0555555522441864 -0.09310562163591385 -0.03341995179653168
			vertex -0.0555555522441864 -0.0961412563920021 -0.03150912746787071
		endloop
	endfacet
	facet normal -1 0 0
		outer loop
			vertex -0.0555555522441864 -0.09642920643091202 -0.014749066904187202
			vertex -0.0555555522441864 -0.0961412563920021 -0.03150912746787071
			vertex -0.0555555522441864 -0.09672734886407852 -0.018764371052384377
		endloop
	endfacet
	facet normal -1 0 0
		outer loop
			vertex -0.0555555522441864 0.04958847910165787 -0.036741625517606735
			vertex -0.0555555522441864 0.007224729750305414 -0.036741625517606735
			vertex -0.0555555522441864 0.048310287296772 -0.031139055266976357
		endloop
	endfacet
	facet normal -1 0 0
		outer loop
			vertex -0.0555555522441864 0.1023595854640007 -0.036741625517606735
			vertex -0.0555555522441864 0.04958847910165787 -0.036741625517606735
			vertex -0.0555555522441864 0.048310287296772 -0.031139055266976357
		endloop
	endfacet
	facet normal -1 0 0
		outer loop
			vertex -0.0555555522441864 0.1023595854640007 -0.036741625517606735
			vertex -0.0555555522441864 0.048310287296772 -0.031139055266976357
			vertex -0.0555555522441864 0.09099022299051285 -0.02531907521188259
		endloop
	endfacet
	facet normal -1 0 0
		outer loop
			vertex -0.0555555522441864 0.1023595854640007 -0.036741625517606735
			vertex -0.0555555522441864 0.09099022299051285 -0.02531907521188259
			vertex -0.0555555522441864 0.1023595854640007 -0.035936370491981506
		endloop
	endfacet
	facet normal -1 0 0
		outer loop
			vertex -0.0555555522441864 0.09099022299051285 -0.02531907521188259
			vertex -0.0555555522441864 0.0950613021850586 -0.0247639287263155
			vertex -0.0555555522441864 0.1023595854640007 -0.027414651587605476
		endloop
	endfacet
	facet normal -1 0 0
		outer loop
			vertex -0.0555555522441864 0.09099022299051285 -0.02531907521188259
			vertex -0.0555555522441864 0.1023595854640007 -0.027414651587605476
			vertex -0.0555555522441864 0.1023595854640007 -0.035936370491981506
		endloop
	endfacet
	facet normal -1 0 0
		outer loop
			vertex -0.0555555522441864 0.0950613021850586 -0.0247639287263155
			vertex -0.0555555522441864 0.10063967853784561 -0.024003243073821068
			vertex -0.0555555522441864 0.10026483982801437 -0.026653846725821495
		endloop
	endfacet
	facet normal -1 0 0
		outer loop
			vertex -0.0555555522441864 0.10063967853784561 -0.024003243073821068
			vertex -0.0555555522441864 0.1023595854640007 -0.023768706247210503
			vertex -0.0555555522441864 0.1023595854640007 -0.027414651587605476
		endloop
	endfacet
	facet normal -1 0 0
		outer loop
			vertex -0.0555555522441864 0.10063967853784561 -0.024003243073821068
			vertex -0.0555555522441864 0.1023595854640007 -0.027414651587605476
			vertex -0.0555555522441864 0.10026483982801437 -0.026653846725821495
		endloop
	endfacet
	facet normal 0 1 0
		outer loop
			vertex -0.0555555522441864 0.1023595854640007 -0.0028958560433238745
			vertex -0.0555555522441864 0.1023595854640007 0.036741629242897034
			vertex -0.036183033138513565 0.1023595854640007 0.023929623886942863
		endloop
	endfacet
	facet normal 0 1 0
		outer loop
			vertex -0.0555555522441864 0.1023595854640007 0.036741629242897034
			vertex -0.02693060226738453 0.1023595854640007 0.036741629242897034
			vertex -0.036183033138513565 0.1023595854640007 0.023929623886942863
		endloop
	endfacet
	facet normal 0 1 0
		outer loop
			vertex -0.0555555522441864 0.1023595854640007 -0.023768706247210503
			vertex -0.0555555522441864 0.1023595854640007 -0.0028958560433238745
			vertex -0.036183033138513565 0.1023595854640007 0.023929623886942863
		endloop
	endfacet
	facet normal 0 1 0
		outer loop
			vertex -0.0555555522441864 0.1023595854640007 -0.023768706247210503
			vertex -0.036183033138513565 0.1023595854640007 0.023929623886942863
			vertex -0.025673696771264076 0.1023595854640007 0.016979282721877098
		endloop
	endfacet
	facet normal 0 1 0
		outer loop
			vertex -0.02693060226738453 0.1023595854640007 0.036741629242897034
			vertex -0.011181310750544071 0.1023595854640007 0.036741629242897034
			vertex -0.025673696771264076 0.1023595854640007 0.016979282721877098
		endloop
	endfacet
	facet normal 0 1 0
		outer loop
			vertex -0.02693060226738453 0.1023595854640007 0.036741629242897034
			vertex -0.025673696771264076 0.1023595854640007 0.016979282721877098
			vertex -0.036183033138513565 0.1023595854640007 0.023929623886942863
		endloop
	endfacet
	facet normal 0 1 0
		outer loop
			vertex -0.0555555522441864 0.1023595854640007 -0.036741625517606735
			vertex -0.0555555522441864 0.1023595854640007 -0.035936370491981506
			vertex -0.05389934033155441 0.1023595854640007 -0.036741625517606735
		endloop
	endfacet
	facet normal 0 1 0
		outer loop
			vertex 0.05139246955513954 0.1023595854640007 0.036741629242897034
			vertex 0.0555555522441864 0.1023595854640007 0.036741629242897034
			vertex 0.0555555522441864 0.1023595854640007 0.03415137529373169
		endloop
	endfacet
	facet normal 0 1 0
		outer loop
			vertex -0.0555555522441864 0.1023595854640007 -0.035936370491981506
			vertex -0.0555555522441864 0.1023595854640007 -0.027414651587605476
			vertex 0.046347666531801224 0.1023595854640007 -0.03065199963748455
		endloop
	endfacet
	facet normal 0 1 0
		outer loop
			vertex -0.0555555522441864 0.1023595854640007 -0.035936370491981506
			vertex 0.046347666531801224 0.1023595854640007 -0.03065199963748455
			vertex 0.0555555522441864 0.1023595854640007 -0.036741625517606735
		endloop
	endfacet
	facet normal 0 1 0
		outer loop
			vertex -0.0555555522441864 0.1023595854640007 -0.035936370491981506
			vertex 0.0555555522441864 0.1023595854640007 -0.036741625517606735
			vertex -0.05389934033155441 0.1023595854640007 -0.036741625517606735
		endloop
	endfacet
	facet normal 0 1 0
		outer loop
			vertex 0.0555555522441864 0.1023595854640007 -0.030944524332880974
			vertex 0.0555555522441864 0.1023595854640007 -0.036741625517606735
			vertex 0.046347666531801224 0.1023595854640007 -0.03065199963748455
		endloop
	endfacet
	facet normal 0 1 0
		outer loop
			vertex -0.04752323031425476 0.1023595854640007 -0.012815536931157112
			vertex -0.025673696771264076 0.1023595854640007 0.016979282721877098
			vertex 0.03441089764237404 0.1023595854640007 -0.022757625207304955
		endloop
	endfacet
	facet normal 0 1 0
		outer loop
			vertex -0.011181310750544071 0.1023595854640007 0.036741629242897034
			vertex 0.0026969045866280794 0.1023595854640007 0.036741629242897034
			vertex 0.0555555522441864 0.1023595854640007 0.014657778665423393
		endloop
	endfacet
	facet normal 0 1 0
		outer loop
			vertex -0.011181310750544071 0.1023595854640007 0.036741629242897034
			vertex 0.0555555522441864 0.1023595854640007 0.014657778665423393
			vertex 0.0555555522441864 0.1023595854640007 -0.025323370471596718
		endloop
	endfacet
	facet normal 0 1 0
		outer loop
			vertex -0.011181310750544071 0.1023595854640007 0.036741629242897034
			vertex 0.0555555522441864 0.1023595854640007 -0.025323370471596718
			vertex 0.03441089764237404 0.1023595854640007 -0.022757625207304955
		endloop
	endfacet
	facet normal 0 1 0
		outer loop
			vertex -0.011181310750544071 0.1023595854640007 0.036741629242897034
			vertex 0.03441089764237404 0.1023595854640007 -0.022757625207304955
			vertex -0.025673696771264076 0.1023595854640007 0.016979282721877098
		endloop
	endfacet
	facet normal 0 1 0
		outer loop
			vertex -0.0555555522441864 0.1023595854640007 -0.027414651587605476
			vertex -0.0555555522441864 0.1023595854640007 -0.023768706247210503
			vertex -0.04752323031425476 0.1023595854640007 -0.012815536931157112
		endloop
	endfacet
	facet normal 0 1 0
		outer loop
			vertex -0.0555555522441864 0.1023595854640007 -0.027414651587605476
			vertex -0.04752323031425476 0.1023595854640007 -0.012815536931157112
			vertex 0.03441089764237404 0.1023595854640007 -0.022757625207304955
		endloop
	endfacet
	facet normal 0 1 0
		outer loop
			vertex -0.0555555522441864 0.1023595854640007 -0.027414651587605476
			vertex 0.03441089764237404 0.1023595854640007 -0.022757625207304955
			vertex 0.046347666531801224 0.1023595854640007 -0.03065199963748455
		endloop
	endfacet
	facet normal 0 1 0
		outer loop
			vertex 0.0555555522441864 0.1023595854640007 -0.025323370471596718
			vertex 0.0555555522441864 0.1023595854640007 -0.030944524332880974
			vertex 0.046347666531801224 0.1023595854640007 -0.03065199963748455
		endloop
	endfacet
	facet normal 0 1 0
		outer loop
			vertex 0.0555555522441864 0.1023595854640007 -0.025323370471596718
			vertex 0.046347666531801224 0.1023595854640007 -0.03065199963748455
			vertex 0.03441089764237404 0.1023595854640007 -0.022757625207304955
		endloop
	endfacet
	facet normal 0 1 0
		outer loop
			vertex 0.0026969045866280794 0.1023595854640007 0.036741629242897034
			vertex 0.05139246955513954 0.1023595854640007 0.036741629242897034
			vertex 0.0555555522441864 0.1023595854640007 0.03415137529373169
		endloop
	endfacet
	facet normal 0 1 0
		outer loop
			vertex 0.0026969045866280794 0.1023595854640007 0.036741629242897034
			vertex 0.0555555522441864 0.1023595854640007 0.03415137529373169
			vertex 0.0555555522441864 0.1023595854640007 0.014657778665423393
		endloop
	endfacet
	facet normal 0 0 1
		outer loop
			vertex -0.0555555522441864 0.06646684557199478 0.036741629242897034
			vertex -0.0555555522441864 -0.09260577708482742 0.036741629242897034
			vertex -0.0503898523747921 -0.09284193068742752 0.036741629242897034
		endloop
	endfacet
	facet normal 0 0 1
		outer loop
			vertex -0.0555555522441864 0.06646684557199478 0.036741629242897034
			vertex -0.0503898523747921 -0.09284193068742752 0.036741629242897034
			vertex -0.020867325365543365 -0.03844747692346573 0.036741629242897034
		endloop
	endfacet
	facet normal 0 0 1
		outer loop
			vertex -0.0555555522441864 0.06646684557199478 0.036741629242897034
			vertex -0.020867325365543365 -0.03844747692346573 0.036741629242897034
			vertex -0.02502952516078949 0.058211006224155426 0.036741629242897034
		endloop
	endfacet
	facet normal 0 0 1
		outer loop
			vertex -0.018462207168340683 -0.09430138021707535 0.036741629242897034
			vertex -0.020867325365543365 -0.03844747692346573 0.036741629242897034
			vertex -0.0503898523747921 -0.09284193068742752 0.036741629242897034
		endloop
	endfacet
	facet normal 0 0 1
		outer loop
			vertex -0.0555555522441864 0.1023595854640007 0.036741629242897034
			vertex -0.0555555522441864 0.06646684557199478 0.036741629242897034
			vertex -0.02502952516078949 0.058211006224155426 0.036741629242897034
		endloop
	endfacet
	facet normal 0 0 1
		outer loop
			vertex -0.0555555522441864 0.1023595854640007 0.036741629242897034
			vertex -0.02502952516078949 0.058211006224155426 0.036741629242897034
			vertex -0.02693060226738453 0.1023595854640007 0.036741629242897034
		endloop
	endfacet
	facet normal 0 0 1
		outer loop
			vertex -0.020867325365543365 -0.03844747692346573 0.036741629242897034
			vertex -0.0007982851238921285 -0.001470813062041998 0.036741629242897034
			vertex -0.011181310750544071 0.1023595854640007 0.036741629242897034
		endloop
	endfacet
	facet normal 0 0 1
		outer loop
			vertex -0.020867325365543365 -0.03844747692346573 0.036741629242897034
			vertex -0.011181310750544071 0.1023595854640007 0.036741629242897034
			vertex -0.02693060226738453 0.1023595854640007 0.036741629242897034
		endloop
	endfacet
	facet normal 0 0 1
		outer loop
			vertex 0.008608505129814148 -0.09553883224725723 0.036741629242897034
			vertex -0.0007982851238921285 -0.001470813062041998 0.036741629242897034
			vertex -0.020867325365543365 -0.03844747692346573 0.036741629242897034
		endloop
	endfacet
	facet normal 0 0 1
		outer loop
			vertex 0.008608505129814148 -0.09553883224725723 0.036741629242897034
			vertex -0.020867325365543365 -0.03844747692346573 0.036741629242897034
			vertex -0.018462207168340683 -0.09430138021707535 0.036741629242897034
		endloop
	endfacet
	facet normal 0 0 1
		outer loop
			vertex 0.0555555522441864 -0.07557154446840286 0.036741629242897034
			vertex 0.0555555522441864 -0.033315740525722504 0.036741629242897034
			vertex -0.000534062972292304 -0.004113057162612677 0.036741629242897034
		endloop
	endfacet
	facet normal 0 0 1
		outer loop
			vertex 0.0555555522441864 -0.07557154446840286 0.036741629242897034
			vertex -0.000534062972292304 -0.004113057162612677 0.036741629242897034
			vertex 0.008608505129814148 -0.09553883224725723 0.036741629242897034
		endloop
	endfacet
	facet normal 0 0 1
		outer loop
			vertex 0.0555555522441864 -0.07557154446840286 0.036741629242897034
			vertex 0.008608505129814148 -0.09553883224725723 0.036741629242897034
			vertex 0.012904842384159565 -0.09573525935411453 0.036741629242897034
		endloop
	endfacet
	facet normal 0 0 1
		outer loop
			vertex 0.0555555522441864 -0.07557154446840286 0.036741629242897034
			vertex 0.012904842384159565 -0.09573525935411453 0.036741629242897034
			vertex 0.023680083453655243 -0.09362149983644485 0.036741629242897034
		endloop
	endfacet
	facet normal 0 0 1
		outer loop
			vertex 0.0555555522441864 -0.07557154446840286 0.036741629242897034
			vertex 0.023680083453655243 -0.09362149983644485 0.036741629242897034
			vertex 0.05166218429803848 -0.07797235995531082 0.036741629242897034
		endloop
	endfacet
	facet normal 0 0 1
		outer loop
			vertex 0.0523327961564064 0.0964217409491539 0.036741629242897034
			vertex 0.0555555522441864 0.1023595854640007 0.036741629242897034
			vertex 0.05139246955513954 0.1023595854640007 0.036741629242897034
		endloop
	endfacet
	facet normal 0 0 1
		outer loop
			vertex 0.0555555522441864 0.07607116550207138 0.036741629242897034
			vertex 0.0555555522441864 0.1023595854640007 0.036741629242897034
			vertex 0.0523327961564064 0.0964217409491539 0.036741629242897034
		endloop
	endfacet
	facet normal 0 0 1
		outer loop
			vertex -0.0007982851238921285 -0.001470813062041998 0.036741629242897034
			vertex 0.038719672709703445 0.0713399276137352 0.036741629242897034
			vertex 0.0026969045866280794 0.1023595854640007 0.036741629242897034
		endloop
	endfacet
	facet normal 0 0 1
		outer loop
			vertex -0.0007982851238921285 -0.001470813062041998 0.036741629242897034
			vertex 0.0026969045866280794 0.1023595854640007 0.036741629242897034
			vertex -0.011181310750544071 0.1023595854640007 0.036741629242897034
		endloop
	endfacet
	facet normal 0 0 1
		outer loop
			vertex 0.0555555522441864 -0.033315740525722504 0.036741629242897034
			vertex 0.0555555522441864 0.05684234946966171 0.036741629242897034
			vertex 0.038719672709703445 0.0713399276137352 0.036741629242897034
		endloop
	endfacet
	facet normal 0 0 1
		outer loop
			vertex 0.0555555522441864 -0.033315740525722504 0.036741629242897034
			vertex 0.038719672709703445 0.0713399276137352 0.036741629242897034
			vertex -0.0007982851238921285 -0.001470813062041998 0.036741629242897034
		endloop
	endfacet
	facet normal 0 0 1
		outer loop
			vertex 0.0555555522441864 -0.033315740525722504 0.036741629242897034
			vertex -0.0007982851238921285 -0.001470813062041998 0.036741629242897034
			vertex -0.000534062972292304 -0.004113057162612677 0.036741629242897034
		endloop
	endfacet
	facet normal 0 0 1
		outer loop
			vertex 0.038719672709703445 0.0713399276137352 0.036741629242897034
			vertex 0.0523327961564064 0.0964217409491539 0.036741629242897034
			vertex 0.05139246955513954 0.1023595854640007 0.036741629242897034
		endloop
	endfacet
	facet normal 0 0 1
		outer loop
			vertex 0.038719672709703445 0.0713399276137352 0.036741629242897034
			vertex 0.05139246955513954 0.1023595854640007 0.036741629242897034
			vertex 0.0026969045866280794 0.1023595854640007 0.036741629242897034
		endloop
	endfacet
	facet normal 0 0 1
		outer loop
			vertex 0.0555555522441864 0.05684234946966171 0.036741629242897034
			vertex 0.0555555522441864 0.07607116550207138 0.036741629242897034
			vertex 0.0523327961564064 0.0964217409491539 0.036741629242897034
		endloop
	endfacet
	facet normal 0 0 1
		outer loop
			vertex 0.0555555522441864 0.05684234946966171 0.036741629242897034
			vertex 0.0523327961564064 0.0964217409491539 0.036741629242897034
			vertex 0.038719672709703445 0.0713399276137352 0.036741629242897034
		endloop
	endfacet
	facet normal 0 0 -1
		outer loop
			vertex -0.0555555522441864 -0.09590063244104385 -0.036741625517606735
			vertex -0.0555555522441864 -0.08782867342233658 -0.036741625517606735
			vertex -0.051167625933885574 -0.09713450819253922 -0.036741625517606735
		endloop
	endfacet
	facet normal 0 0 -1
		outer loop
			vertex -0.051167625933885574 -0.09713450819253922 -0.036741625517606735
			vertex -0.0555555522441864 -0.08782867342233658 -0.036741625517606735
			vertex -0.0555555522441864 0.007224729750305414 -0.036741625517606735
		endloop
	endfacet
	facet normal 0 0 -1
		outer loop
			vertex -0.051167625933885574 -0.09713450819253922 -0.036741625517606735
			vertex -0.0555555522441864 0.007224729750305414 -0.036741625517606735
			vertex -0.04497852176427841 -0.09854573756456375 -0.036741625517606735
		endloop
	endfacet
	facet normal 0 0 -1
		outer loop
			vertex -0.051167625933885574 -0.09713450819253922 -0.036741625517606735
			vertex -0.04497852176427841 -0.09854573756456375 -0.036741625517606735
			vertex -0.046376220881938934 -0.09848187118768692 -0.036741625517606735
		endloop
	endfacet
	facet normal 0 0 -1
		outer loop
			vertex -0.04497852176427841 -0.09854573756456375 -0.036741625517606735
			vertex -0.0555555522441864 0.007224729750305414 -0.036741625517606735
			vertex -0.0555555522441864 0.04958847910165787 -0.036741625517606735
		endloop
	endfacet
	facet normal 0 0 -1
		outer loop
			vertex -0.04497852176427841 -0.09854573756456375 -0.036741625517606735
			vertex -0.0555555522441864 0.04958847910165787 -0.036741625517606735
			vertex 0.0010298992274329066 -0.09739957004785538 -0.036741625517606735
		endloop
	endfacet
	facet normal 0 0 -1
		outer loop
			vertex -0.04497852176427841 -0.09854573756456375 -0.036741625517606735
			vertex 0.0010298992274329066 -0.09739957004785538 -0.036741625517606735
			vertex -0.012403885833919048 -0.10003481060266495 -0.036741625517606735
		endloop
	endfacet
	facet normal 0 0 -1
		outer loop
			vertex 0.0555555522441864 0.04537259787321091 -0.036741625517606735
			vertex 0.0555555522441864 -0.07865390926599503 -0.036741625517606735
			vertex 0.04855464771389961 -0.08807683736085892 -0.036741625517606735
		endloop
	endfacet
	facet normal 0 0 -1
		outer loop
			vertex 0.0555555522441864 0.04537259787321091 -0.036741625517606735
			vertex 0.04855464771389961 -0.08807683736085892 -0.036741625517606735
			vertex 0.04787587374448776 -0.08820999413728714 -0.036741625517606735
		endloop
	endfacet
	facet normal 0 0 -1
		outer loop
			vertex 0.0555555522441864 0.04537259787321091 -0.036741625517606735
			vertex 0.04787587374448776 -0.08820999413728714 -0.036741625517606735
			vertex -0.0555555522441864 0.1023595854640007 -0.036741625517606735
		endloop
	endfacet
	facet normal 0 0 -1
		outer loop
			vertex 0.0555555522441864 0.04537259787321091 -0.036741625517606735
			vertex -0.0555555522441864 0.1023595854640007 -0.036741625517606735
			vertex -0.05389934033155441 0.1023595854640007 -0.036741625517606735
		endloop
	endfacet
	facet normal 0 0 -1
		outer loop
			vertex 0.0010298992274329066 -0.09739957004785538 -0.036741625517606735
			vertex -0.0555555522441864 0.04958847910165787 -0.036741625517606735
			vertex -0.0555555522441864 0.1023595854640007 -0.036741625517606735
		endloop
	endfacet
	facet normal 0 0 -1
		outer loop
			vertex 0.0010298992274329066 -0.09739957004785538 -0.036741625517606735
			vertex -0.0555555522441864 0.1023595854640007 -0.036741625517606735
			vertex 0.04787587374448776 -0.08820999413728714 -0.036741625517606735
		endloop
	endfacet
	facet normal 0 0 -1
		outer loop
			vertex 0.0555555522441864 0.1023595854640007 -0.036741625517606735
			vertex 0.0555555522441864 0.04537259787321091 -0.036741625517606735
			vertex -0.05389934033155441 0.1023595854640007 -0.036741625517606735
		endloop
	endfacet
	facet normal 0 0 -1
		outer loop
			vertex 0.0555555522441864 -0.07865390926599503 -0.036741625517606735
			vertex 0.0555555522441864 -0.08670351654291153 -0.036741625517606735
			vertex 0.04855464771389961 -0.08807683736085892 -0.036741625517606735
		endloop
	endfacet
endsolid exported
