solid exported
	facet normal -0.07912158432769935 -0.8240475292651127 0.5609683096267899
		outer loop
			vertex -0.0555555522441864 -0.031072357669472694 0.03674163296818733
			vertex -0.0555555522441864 -0.04187949746847153 0.020866231992840767
			vertex -0.031826894730329514 -0.033350683748722076 0.03674163296818733
		endloop
	endfacet
	facet normal 0.392292016381041 -0.7508061776040544 0.5314104417070539
		outer loop
			vertex 0.052074797451496124 -0.013264604844152927 0.03674163296818733
			vertex 0.053516194224357605 -0.013366916216909885 0.035533029586076736
			vertex 0.05537225306034088 -0.011541702784597874 0.03674163296818733
		endloop
	endfacet
	facet normal 0.5501690790568469 -0.7713277685751394 0.3199491488887526
		outer loop
			vertex 0.0555555522441864 -0.011410959996283054 0.03674163296818733
			vertex 0.05537225306034088 -0.011541702784597874 0.03674163296818733
			vertex 0.053516194224357605 -0.013366916216909885 0.035533029586076736
		endloop
	endfacet
	facet normal 0.550133754373464 -0.771328048860107 0.32000920821222867
		outer loop
			vertex 0.0555555522441864 -0.011410959996283054 0.03674163296818733
			vertex 0.053516194224357605 -0.013366916216909885 0.035533029586076736
			vertex 0.0555555522441864 -0.01246910635381937 0.03419115021824837
		endloop
	endfacet
	facet normal 1 0 0
		outer loop
			vertex 0.0555555522441864 -0.011103489436209202 0.03674163296818733
			vertex 0.0555555522441864 -0.011410959996283054 0.03674163296818733
			vertex 0.0555555522441864 -0.01246910635381937 0.03419115021824837
		endloop
	endfacet
	facet normal 1 0 0
		outer loop
			vertex 0.0555555522441864 -0.011103489436209202 0.03674163296818733
			vertex 0.0555555522441864 -0.01246910635381937 0.03419115021824837
			vertex 0.0555555522441864 -0.012224623002111912 0.03427745774388313
		endloop
	endfacet
	facet normal 1 0 0
		outer loop
			vertex 0.0555555522441864 -0.005245083477348089 0.03674163296818733
			vertex 0.0555555522441864 -0.011103489436209202 0.03674163296818733
			vertex 0.0555555522441864 -0.012224623002111912 0.03427745774388313
		endloop
	endfacet
	facet normal -0.06467464101772268 -0.9406273105980381 0.3332228283991522
		outer loop
			vertex -0.0555555522441864 -0.06847143918275833 -0.036741625517606735
			vertex -0.02772667072713375 -0.07038486748933792 -0.036741625517606735
			vertex 0.008474576286971569 -0.05766034871339798 0.006203609053045511
		endloop
	endfacet
	facet normal -0.06467445912732589 -0.9406274102858503 0.33322258230126417
		outer loop
			vertex -0.0555555522441864 -0.06847143918275833 -0.036741625517606735
			vertex 0.008474576286971569 -0.05766034871339798 0.006203609053045511
			vertex -0.0555555522441864 -0.05490041524171829 0.0015669339336454868
		endloop
	endfacet
	facet normal -0.07601052321900442 -0.8265721253065899 0.5576745664149663
		outer loop
			vertex -0.031826894730329514 -0.033350683748722076 0.03674163296818733
			vertex -0.0555555522441864 -0.04187949746847153 0.020866231992840767
			vertex -0.0555555522441864 -0.05490041524171829 0.0015669339336454868
		endloop
	endfacet
	facet normal -0.07601173283568373 -0.8265716570707924 0.557675095551667
		outer loop
			vertex -0.031826894730329514 -0.033350683748722076 0.03674163296818733
			vertex -0.0555555522441864 -0.05490041524171829 0.0015669339336454868
			vertex 0.008474576286971569 -0.05766034871339798 0.006203609053045511
		endloop
	endfacet
	facet normal -0.07601179360579378 -0.8265716886376081 0.5576750404811058
		outer loop
			vertex -0.031826894730329514 -0.033350683748722076 0.03674163296818733
			vertex 0.008474576286971569 -0.05766034871339798 0.006203609053045511
			vertex 0.0068288142792880535 -0.036905474960803986 0.03674163296818733
		endloop
	endfacet
	facet normal 0.39229160506660726 -0.7508019209987682 0.5314167592566352
		outer loop
			vertex 0.0068288142792880535 -0.036905474960803986 0.03674163296818733
			vertex 0.008474576286971569 -0.05766034871339798 0.006203609053045511
			vertex 0.053516194224357605 -0.013366916216909885 0.035533029586076736
		endloop
	endfacet
	facet normal 0.39229298506070237 -0.7508049286278221 0.5314114912385078
		outer loop
			vertex 0.0068288142792880535 -0.036905474960803986 0.03674163296818733
			vertex 0.053516194224357605 -0.013366916216909885 0.035533029586076736
			vertex 0.052074797451496124 -0.013264604844152927 0.03674163296818733
		endloop
	endfacet
	facet normal 0.4673386795205314 -0.804704579808633 0.3661216981537936
		outer loop
			vertex 0.0555555522441864 -0.02958177961409092 -0.0038721091113984585
			vertex 0.0555555522441864 -0.014592432416975498 0.029073210433125496
			vertex 0.03769972547888756 -0.05180398374795914 -0.02992243878543377
		endloop
	endfacet
	facet normal 0.5501345593519936 -0.7713265515241208 0.32001143342151966
		outer loop
			vertex 0.0555555522441864 -0.01246910635381937 0.03419115021824837
			vertex 0.053516194224357605 -0.013366916216909885 0.035533029586076736
			vertex 0.008474576286971569 -0.05766034871339798 0.006203609053045511
		endloop
	endfacet
	facet normal 0.5501362010413621 -0.7713265364707148 0.32000864744545465
		outer loop
			vertex 0.0555555522441864 -0.01246910635381937 0.03419115021824837
			vertex 0.008474576286971569 -0.05766034871339798 0.006203609053045511
			vertex 0.011951095424592495 -0.07299793511629105 -0.036741625517606735
		endloop
	endfacet
	facet normal 0.5501368416563559 -0.7713263196904728 0.3200080686562764
		outer loop
			vertex 0.0555555522441864 -0.01246910635381937 0.03419115021824837
			vertex 0.011951095424592495 -0.07299793511629105 -0.036741625517606735
			vertex 0.03304005414247513 -0.05795655399560928 -0.036741625517606735
		endloop
	endfacet
	facet normal 0.5501331338225057 -0.771328022820864 0.3200103377734629
		outer loop
			vertex 0.0555555522441864 -0.01246910635381937 0.03419115021824837
			vertex 0.03304005414247513 -0.05795655399560928 -0.036741625517606735
			vertex 0.03769972547888756 -0.05180398374795914 -0.02992243878543377
		endloop
	endfacet
	facet normal 0.5501398077592838 -0.771324843211812 0.32000652831286386
		outer loop
			vertex 0.0555555522441864 -0.01246910635381937 0.03419115021824837
			vertex 0.03769972547888756 -0.05180398374795914 -0.02992243878543377
			vertex 0.0555555522441864 -0.014592432416975498 0.029073210433125496
		endloop
	endfacet
	facet normal -0.06200606684935087 -0.941509124909398 0.33123377754421973
		outer loop
			vertex 0.011951095424592495 -0.07299793511629105 -0.036741625517606735
			vertex 0.008474576286971569 -0.05766034871339798 0.006203609053045511
			vertex 0.001556390430778265 -0.06009203940629959 -0.0020033693872392178
		endloop
	endfacet
	facet normal -0.06200633358543677 -0.9415091342072642 0.3312337011832872
		outer loop
			vertex 0.011951095424592495 -0.07299793511629105 -0.036741625517606735
			vertex 0.001556390430778265 -0.06009203940629959 -0.0020033693872392178
			vertex 0.007098714355379343 -0.07267836481332779 -0.036741625517606735
		endloop
	endfacet
	facet normal 1 0 0
		outer loop
			vertex 0.0555555522441864 -0.012224623002111912 0.03427745774388313
			vertex 0.0555555522441864 -0.01246910635381937 0.03419115021824837
			vertex 0.0555555522441864 -0.014592432416975498 0.029073210433125496
		endloop
	endfacet
	facet normal -0.06200502020838807 -0.9415091455391905 0.33123391483213366
		outer loop
			vertex 0.007098714355379343 -0.07267836481332779 -0.036741625517606735
			vertex 0.001556390430778265 -0.06009203940629959 -0.0020033693872392178
			vertex -0.02772667072713375 -0.07038486748933792 -0.036741625517606735
		endloop
	endfacet
	facet normal 1 0 0
		outer loop
			vertex 0.0555555522441864 -0.005533584859222174 0.03663976863026619
			vertex 0.0555555522441864 -0.012224623002111912 0.03427745774388313
			vertex 0.0555555522441864 -0.023914525285363197 0.008584024384617805
		endloop
	endfacet
	facet normal 1 0 0
		outer loop
			vertex 0.0555555522441864 -0.005533584859222174 0.03663976863026619
			vertex 0.0555555522441864 -0.023914525285363197 0.008584024384617805
			vertex 0.0555555522441864 0.005036687944084406 -0.0018078959546983242
		endloop
	endfacet
	facet normal 1 0 0
		outer loop
			vertex 0.0555555522441864 -0.005533584859222174 0.03663976863026619
			vertex 0.0555555522441864 0.005036687944084406 -0.0018078959546983242
			vertex 0.0555555522441864 0.10156995803117752 0.003948094788938761
		endloop
	endfacet
	facet normal 1 0 0
		outer loop
			vertex 0.0555555522441864 -0.005533584859222174 0.03663976863026619
			vertex 0.0555555522441864 0.10156995803117752 0.003948094788938761
			vertex 0.0555555522441864 0.1023595854640007 0.005331816617399454
		endloop
	endfacet
	facet normal 1 0 0
		outer loop
			vertex 0.0555555522441864 -0.005533584859222174 0.03663976863026619
			vertex 0.0555555522441864 0.1023595854640007 0.005331816617399454
			vertex 0.0555555522441864 0.1023595854640007 0.012066172435879707
		endloop
	endfacet
	facet normal 1 0 0
		outer loop
			vertex 0.0555555522441864 -0.02958177961409092 -0.0038721091113984585
			vertex 0.0555555522441864 0.005036687944084406 -0.0018078959546983242
			vertex 0.0555555522441864 -0.023914525285363197 0.008584024384617805
		endloop
	endfacet
	facet normal 1 0 0
		outer loop
			vertex 0.0555555522441864 0.10156995803117752 0.003948094788938761
			vertex 0.0555555522441864 0.1023595854640007 0.003995182458311319
			vertex 0.0555555522441864 0.1023595854640007 0.005331816617399454
		endloop
	endfacet
	facet normal 1 0 0
		outer loop
			vertex 0.0555555522441864 0.1023595854640007 0.03674163296818733
			vertex 0.0555555522441864 -0.005245083477348089 0.03674163296818733
			vertex 0.0555555522441864 -0.005533584859222174 0.03663976863026619
		endloop
	endfacet
	facet normal 1 0 0
		outer loop
			vertex 0.0555555522441864 0.1023595854640007 0.03674163296818733
			vertex 0.0555555522441864 -0.005533584859222174 0.03663976863026619
			vertex 0.0555555522441864 0.1023595854640007 0.012066172435879707
		endloop
	endfacet
	facet normal 0.46733901127084715 -0.8047045155431098 0.36612141593864184
		outer loop
			vertex 0.0555555522441864 -0.04453662782907486 -0.036741625517606735
			vertex 0.0555555522441864 -0.02958177961409092 -0.0038721091113984585
			vertex 0.03769972547888756 -0.05180398374795914 -0.02992243878543377
		endloop
	endfacet
	facet normal 0.46733916965577244 -0.8047039706727691 0.3661224113448025
		outer loop
			vertex 0.0555555522441864 -0.04453662782907486 -0.036741625517606735
			vertex 0.03769972547888756 -0.05180398374795914 -0.02992243878543377
			vertex 0.035635802894830704 -0.05610520392656326 -0.036741625517606735
		endloop
	endfacet
	facet normal 0.550130233506842 -0.7713289297006365 0.32001313783746194
		outer loop
			vertex 0.03304005414247513 -0.05795655399560928 -0.036741625517606735
			vertex 0.035635802894830704 -0.05610520392656326 -0.036741625517606735
			vertex 0.03769972547888756 -0.05180398374795914 -0.02992243878543377
		endloop
	endfacet
	facet normal 1 0 0
		outer loop
			vertex 0.0555555522441864 0.005036687944084406 -0.0018078959546983242
			vertex 0.0555555522441864 0.0669846162199974 -0.02404390089213848
			vertex 0.0555555522441864 0.1023595854640007 -0.019220052286982536
		endloop
	endfacet
	facet normal 1 0 0
		outer loop
			vertex 0.0555555522441864 0.005036687944084406 -0.0018078959546983242
			vertex 0.0555555522441864 0.1023595854640007 -0.019220052286982536
			vertex 0.0555555522441864 0.1023595854640007 0.003995182458311319
		endloop
	endfacet
	facet normal 1 0 0
		outer loop
			vertex 0.0555555522441864 -0.04453662782907486 -0.036741625517606735
			vertex 0.0555555522441864 -0.02613217569887638 -0.036741625517606735
			vertex 0.0555555522441864 0.0669846162199974 -0.02404390089213848
		endloop
	endfacet
	facet normal 1 0 0
		outer loop
			vertex 0.0555555522441864 -0.04453662782907486 -0.036741625517606735
			vertex 0.0555555522441864 0.0669846162199974 -0.02404390089213848
			vertex 0.0555555522441864 0.005036687944084406 -0.0018078959546983242
		endloop
	endfacet
	facet normal 1 0 0
		outer loop
			vertex 0.0555555522441864 -0.04453662782907486 -0.036741625517606735
			vertex 0.0555555522441864 0.005036687944084406 -0.0018078959546983242
			vertex 0.0555555522441864 -0.02958177961409092 -0.0038721091113984585
		endloop
	endfacet
	facet normal 1 0 0
		outer loop
			vertex 0.0555555522441864 0.0669846162199974 -0.02404390089213848
			vertex 0.0555555522441864 0.1023595854640007 -0.036741625517606735
			vertex 0.0555555522441864 0.1023595854640007 -0.019220052286982536
		endloop
	endfacet
	facet normal 1 0 0
		outer loop
			vertex 0.0555555522441864 -0.02613217569887638 -0.036741625517606735
			vertex 0.0555555522441864 0.1023595854640007 -0.036741625517606735
			vertex 0.0555555522441864 0.0669846162199974 -0.02404390089213848
		endloop
	endfacet
	facet normal -1 0 0
		outer loop
			vertex -0.0555555522441864 0.1023595854640007 -0.036741625517606735
			vertex -0.0555555522441864 -0.06847143918275833 -0.036741625517606735
			vertex -0.0555555522441864 -0.06353450566530228 -0.02280549518764019
		endloop
	endfacet
	facet normal -1 0 0
		outer loop
			vertex -0.0555555522441864 0.1023595854640007 -0.036741625517606735
			vertex -0.0555555522441864 -0.06353450566530228 -0.02280549518764019
			vertex -0.0555555522441864 0.1023595854640007 0.03674163296818733
		endloop
	endfacet
	facet normal -1 0 0
		outer loop
			vertex -0.0555555522441864 -0.031072357669472694 0.03674163296818733
			vertex -0.0555555522441864 0.1023595854640007 0.03674163296818733
			vertex -0.0555555522441864 -0.06353450566530228 -0.02280549518764019
		endloop
	endfacet
	facet normal -1 0 0
		outer loop
			vertex -0.0555555522441864 -0.031072357669472694 0.03674163296818733
			vertex -0.0555555522441864 -0.06353450566530228 -0.02280549518764019
			vertex -0.0555555522441864 -0.05490041524171829 0.0015669339336454868
		endloop
	endfacet
	facet normal -1 0 0
		outer loop
			vertex -0.0555555522441864 -0.031072357669472694 0.03674163296818733
			vertex -0.0555555522441864 -0.05490041524171829 0.0015669339336454868
			vertex -0.0555555522441864 -0.04187949746847153 0.020866231992840767
		endloop
	endfacet
	facet normal 0 1 0
		outer loop
			vertex -0.0555555522441864 0.1023595854640007 -0.036741625517606735
			vertex -0.0555555522441864 0.1023595854640007 0.03674163296818733
			vertex 0.018495678901672363 0.1023595854640007 -0.012232093140482903
		endloop
	endfacet
	facet normal 0 1 0
		outer loop
			vertex -0.0555555522441864 0.1023595854640007 -0.036741625517606735
			vertex 0.018495678901672363 0.1023595854640007 -0.012232093140482903
			vertex -0.033219385892152786 0.1023595854640007 -0.036741625517606735
		endloop
	endfacet
	facet normal 0 1 0
		outer loop
			vertex -0.0555555522441864 0.1023595854640007 0.03674163296818733
			vertex 0.006662288680672646 0.1023595854640007 0.03674163296818733
			vertex 0.0555555522441864 0.1023595854640007 0.012066172435879707
		endloop
	endfacet
	facet normal 0 1 0
		outer loop
			vertex -0.0555555522441864 0.1023595854640007 0.03674163296818733
			vertex 0.0555555522441864 0.1023595854640007 0.012066172435879707
			vertex 0.0555555522441864 0.1023595854640007 0.005331816617399454
		endloop
	endfacet
	facet normal 0 1 0
		outer loop
			vertex -0.0555555522441864 0.1023595854640007 0.03674163296818733
			vertex 0.0555555522441864 0.1023595854640007 0.005331816617399454
			vertex 0.018495678901672363 0.1023595854640007 -0.012232093140482903
		endloop
	endfacet
	facet normal 0 1 0
		outer loop
			vertex 0.018495678901672363 0.1023595854640007 -0.012232093140482903
			vertex 0.035645741969347 0.1023595854640007 -0.023574290797114372
			vertex 0.026136700063943863 0.1023595854640007 -0.036741625517606735
		endloop
	endfacet
	facet normal 0 1 0
		outer loop
			vertex 0.018495678901672363 0.1023595854640007 -0.012232093140482903
			vertex 0.026136700063943863 0.1023595854640007 -0.036741625517606735
			vertex -0.033219385892152786 0.1023595854640007 -0.036741625517606735
		endloop
	endfacet
	facet normal 0 1 0
		outer loop
			vertex 0.0555555522441864 0.1023595854640007 0.005331816617399454
			vertex 0.0555555522441864 0.1023595854640007 0.003995182458311319
			vertex 0.035645741969347 0.1023595854640007 -0.023574290797114372
		endloop
	endfacet
	facet normal 0 1 0
		outer loop
			vertex 0.0555555522441864 0.1023595854640007 0.005331816617399454
			vertex 0.035645741969347 0.1023595854640007 -0.023574290797114372
			vertex 0.018495678901672363 0.1023595854640007 -0.012232093140482903
		endloop
	endfacet
	facet normal 0 1 0
		outer loop
			vertex 0.006662288680672646 0.1023595854640007 0.03674163296818733
			vertex 0.0555555522441864 0.1023595854640007 0.03674163296818733
			vertex 0.0555555522441864 0.1023595854640007 0.012066172435879707
		endloop
	endfacet
	facet normal 0 1 0
		outer loop
			vertex 0.035645741969347 0.1023595854640007 -0.023574290797114372
			vertex 0.0469028614461422 0.1023595854640007 -0.031019164249300957
			vertex 0.04270639643073082 0.1023595854640007 -0.036741625517606735
		endloop
	endfacet
	facet normal 0 1 0
		outer loop
			vertex 0.035645741969347 0.1023595854640007 -0.023574290797114372
			vertex 0.04270639643073082 0.1023595854640007 -0.036741625517606735
			vertex 0.026136700063943863 0.1023595854640007 -0.036741625517606735
		endloop
	endfacet
	facet normal 0 1 0
		outer loop
			vertex 0.0555555522441864 0.1023595854640007 0.003995182458311319
			vertex 0.0555555522441864 0.1023595854640007 -0.019220052286982536
			vertex 0.0469028614461422 0.1023595854640007 -0.031019164249300957
		endloop
	endfacet
	facet normal 0 1 0
		outer loop
			vertex 0.0555555522441864 0.1023595854640007 0.003995182458311319
			vertex 0.0469028614461422 0.1023595854640007 -0.031019164249300957
			vertex 0.035645741969347 0.1023595854640007 -0.023574290797114372
		endloop
	endfacet
	facet normal 0 1 0
		outer loop
			vertex 0.0469028614461422 0.1023595854640007 -0.031019164249300957
			vertex 0.0555555522441864 0.1023595854640007 -0.036741625517606735
			vertex 0.04270639643073082 0.1023595854640007 -0.036741625517606735
		endloop
	endfacet
	facet normal 0 1 0
		outer loop
			vertex 0.0555555522441864 0.1023595854640007 -0.019220052286982536
			vertex 0.0555555522441864 0.1023595854640007 -0.036741625517606735
			vertex 0.0469028614461422 0.1023595854640007 -0.031019164249300957
		endloop
	endfacet
	facet normal 0 0 1
		outer loop
			vertex 0.0555555522441864 -0.011410959996283054 0.03674163296818733
			vertex 0.0555555522441864 -0.011103489436209202 0.03674163296818733
			vertex 0.05215582624077797 -0.01307790819555521 0.03674163296818733
		endloop
	endfacet
	facet normal 0 0 1
		outer loop
			vertex 0.0555555522441864 -0.011410959996283054 0.03674163296818733
			vertex 0.05215582624077797 -0.01307790819555521 0.03674163296818733
			vertex 0.052074797451496124 -0.013264604844152927 0.03674163296818733
		endloop
	endfacet
	facet normal 0 0 1
		outer loop
			vertex 0.0555555522441864 -0.011410959996283054 0.03674163296818733
			vertex 0.052074797451496124 -0.013264604844152927 0.03674163296818733
			vertex 0.05537225306034088 -0.011541702784597874 0.03674163296818733
		endloop
	endfacet
	facet normal 0 0 1
		outer loop
			vertex 0.0555555522441864 -0.011103489436209202 0.03674163296818733
			vertex 0.0555555522441864 -0.005245083477348089 0.03674163296818733
			vertex 0.05215582624077797 -0.01307790819555521 0.03674163296818733
		endloop
	endfacet
	facet normal 0 0 1
		outer loop
			vertex 0.049678217619657516 -0.014516809023916721 0.03674163296818733
			vertex 0.052074797451496124 -0.013264604844152927 0.03674163296818733
			vertex 0.05215582624077797 -0.01307790819555521 0.03674163296818733
		endloop
	endfacet
	facet normal 0 0 1
		outer loop
			vertex -0.0555555522441864 0.1023595854640007 0.03674163296818733
			vertex -0.0555555522441864 -0.031072357669472694 0.03674163296818733
			vertex -0.031826894730329514 -0.033350683748722076 0.03674163296818733
		endloop
	endfacet
	facet normal 0 0 1
		outer loop
			vertex -0.0555555522441864 0.1023595854640007 0.03674163296818733
			vertex -0.031826894730329514 -0.033350683748722076 0.03674163296818733
			vertex -0.018753554672002792 -0.034552909433841705 0.03674163296818733
		endloop
	endfacet
	facet normal 0 0 1
		outer loop
			vertex -0.0555555522441864 0.1023595854640007 0.03674163296818733
			vertex -0.018753554672002792 -0.034552909433841705 0.03674163296818733
			vertex 0.028859734535217285 0.05317326635122299 0.03674163296818733
		endloop
	endfacet
	facet normal 0 0 1
		outer loop
			vertex -0.0555555522441864 0.1023595854640007 0.03674163296818733
			vertex 0.028859734535217285 0.05317326635122299 0.03674163296818733
			vertex 0.006662288680672646 0.1023595854640007 0.03674163296818733
		endloop
	endfacet
	facet normal 0 0 1
		outer loop
			vertex 0.028859734535217285 0.05317326635122299 0.03674163296818733
			vertex -0.018753554672002792 -0.034552909433841705 0.03674163296818733
			vertex 0.0068288142792880535 -0.036905474960803986 0.03674163296818733
		endloop
	endfacet
	facet normal 0 0 1
		outer loop
			vertex 0.028859734535217285 0.05317326635122299 0.03674163296818733
			vertex 0.0068288142792880535 -0.036905474960803986 0.03674163296818733
			vertex 0.049678217619657516 -0.014516809023916721 0.03674163296818733
		endloop
	endfacet
	facet normal 0 0 1
		outer loop
			vertex 0.028859734535217285 0.05317326635122299 0.03674163296818733
			vertex 0.049678217619657516 -0.014516809023916721 0.03674163296818733
			vertex 0.05215582624077797 -0.01307790819555521 0.03674163296818733
		endloop
	endfacet
	facet normal 0 0 1
		outer loop
			vertex 0.028859734535217285 0.05317326635122299 0.03674163296818733
			vertex 0.05215582624077797 -0.01307790819555521 0.03674163296818733
			vertex 0.055392786860466 -0.005620101001113653 0.03674163296818733
		endloop
	endfacet
	facet normal 0 0 1
		outer loop
			vertex 0.028859734535217285 0.05317326635122299 0.03674163296818733
			vertex 0.0555555522441864 0.1023595854640007 0.03674163296818733
			vertex 0.006662288680672646 0.1023595854640007 0.03674163296818733
		endloop
	endfacet
	facet normal 0 0 1
		outer loop
			vertex 0.0555555522441864 -0.005245083477348089 0.03674163296818733
			vertex 0.0555555522441864 0.1023595854640007 0.03674163296818733
			vertex 0.028859734535217285 0.05317326635122299 0.03674163296818733
		endloop
	endfacet
	facet normal 0 0 1
		outer loop
			vertex 0.0555555522441864 -0.005245083477348089 0.03674163296818733
			vertex 0.028859734535217285 0.05317326635122299 0.03674163296818733
			vertex 0.055392786860466 -0.005620101001113653 0.03674163296818733
		endloop
	endfacet
	facet normal 0 0 -1
		outer loop
			vertex 0.03189797326922417 -0.05877114087343216 -0.036741625517606735
			vertex 0.031693629920482635 -0.058394648134708405 -0.036741625517606735
			vertex 0.03302560746669769 -0.057621069252491 -0.036741625517606735
		endloop
	endfacet
	facet normal 0 0 -1
		outer loop
			vertex 0.03189797326922417 -0.05877114087343216 -0.036741625517606735
			vertex 0.03302560746669769 -0.057621069252491 -0.036741625517606735
			vertex 0.03304005414247513 -0.05795655399560928 -0.036741625517606735
		endloop
	endfacet
	facet normal 0 0 -1
		outer loop
			vertex 0.031693629920482635 -0.058394648134708405 -0.036741625517606735
			vertex 0.03189797326922417 -0.05877114087343216 -0.036741625517606735
			vertex 0.011951095424592495 -0.07299793511629105 -0.036741625517606735
		endloop
	endfacet
	facet normal 0 0 -1
		outer loop
			vertex 0.031693629920482635 -0.058394648134708405 -0.036741625517606735
			vertex 0.011951095424592495 -0.07299793511629105 -0.036741625517606735
			vertex 0.007098714355379343 -0.07267836481332779 -0.036741625517606735
		endloop
	endfacet
	facet normal 0 0 -1
		outer loop
			vertex 0.031693629920482635 -0.058394648134708405 -0.036741625517606735
			vertex -0.0555555522441864 0.1023595854640007 -0.036741625517606735
			vertex -0.033219385892152786 0.1023595854640007 -0.036741625517606735
		endloop
	endfacet
	facet normal 0 0 -1
		outer loop
			vertex 0.031693629920482635 -0.058394648134708405 -0.036741625517606735
			vertex -0.033219385892152786 0.1023595854640007 -0.036741625517606735
			vertex 0.026836104691028595 0.08611739426851273 -0.036741625517606735
		endloop
	endfacet
	facet normal 0 0 -1
		outer loop
			vertex 0.031693629920482635 -0.058394648134708405 -0.036741625517606735
			vertex 0.026836104691028595 0.08611739426851273 -0.036741625517606735
			vertex 0.03302560746669769 -0.057621069252491 -0.036741625517606735
		endloop
	endfacet
	facet normal 0 0 -1
		outer loop
			vertex -0.0555555522441864 -0.06847143918275833 -0.036741625517606735
			vertex -0.0555555522441864 0.1023595854640007 -0.036741625517606735
			vertex 0.031693629920482635 -0.058394648134708405 -0.036741625517606735
		endloop
	endfacet
	facet normal 0 0 -1
		outer loop
			vertex -0.0555555522441864 -0.06847143918275833 -0.036741625517606735
			vertex 0.031693629920482635 -0.058394648134708405 -0.036741625517606735
			vertex 0.007098714355379343 -0.07267836481332779 -0.036741625517606735
		endloop
	endfacet
	facet normal 0 0 -1
		outer loop
			vertex -0.0555555522441864 -0.06847143918275833 -0.036741625517606735
			vertex 0.007098714355379343 -0.07267836481332779 -0.036741625517606735
			vertex -0.02772667072713375 -0.07038486748933792 -0.036741625517606735
		endloop
	endfacet
	facet normal 0 0 -1
		outer loop
			vertex -0.033219385892152786 0.1023595854640007 -0.036741625517606735
			vertex 0.026136700063943863 0.1023595854640007 -0.036741625517606735
			vertex 0.026836104691028595 0.08611739426851273 -0.036741625517606735
		endloop
	endfacet
	facet normal 0 0 -1
		outer loop
			vertex 0.03304005414247513 -0.05795655399560928 -0.036741625517606735
			vertex 0.03302560746669769 -0.057621069252491 -0.036741625517606735
			vertex 0.035635802894830704 -0.05610520392656326 -0.036741625517606735
		endloop
	endfacet
	facet normal 0 0 -1
		outer loop
			vertex 0.0555555522441864 -0.02613217569887638 -0.036741625517606735
			vertex 0.0555555522441864 -0.04453662782907486 -0.036741625517606735
			vertex 0.03302560746669769 -0.057621069252491 -0.036741625517606735
		endloop
	endfacet
	facet normal 0 0 -1
		outer loop
			vertex 0.0555555522441864 -0.02613217569887638 -0.036741625517606735
			vertex 0.03302560746669769 -0.057621069252491 -0.036741625517606735
			vertex 0.026136700063943863 0.1023595854640007 -0.036741625517606735
		endloop
	endfacet
	facet normal 0 0 -1
		outer loop
			vertex 0.0555555522441864 -0.02613217569887638 -0.036741625517606735
			vertex 0.026136700063943863 0.1023595854640007 -0.036741625517606735
			vertex 0.04270639643073082 0.1023595854640007 -0.036741625517606735
		endloop
	endfacet
	facet normal 0 0 -1
		outer loop
			vertex 0.0555555522441864 0.1023595854640007 -0.036741625517606735
			vertex 0.0555555522441864 -0.02613217569887638 -0.036741625517606735
			vertex 0.04270639643073082 0.1023595854640007 -0.036741625517606735
		endloop
	endfacet
endsolid exported
