solid exported
	facet normal 1 0 0
		outer loop
			vertex 0.0555555522441864 0.07461098581552505 0.036741625517606735
			vertex 0.0555555522441864 0.07167781889438629 0.036741625517606735
			vertex 0.0555555522441864 0.0719534307718277 0.036276157945394516
		endloop
	endfacet
	facet normal 1 0 0
		outer loop
			vertex 0.0555555522441864 0.07167781889438629 0.036741625517606735
			vertex 0.0555555522441864 -0.07886611670255661 0.036741625517606735
			vertex 0.0555555522441864 -0.061303455382585526 0.022004660218954086
		endloop
	endfacet
	facet normal 1 0 0
		outer loop
			vertex 0.0555555522441864 0.07167781889438629 0.036741625517606735
			vertex 0.0555555522441864 -0.061303455382585526 0.022004660218954086
			vertex 0.0555555522441864 -0.044325463473796844 0.015910472720861435
		endloop
	endfacet
	facet normal 1 0 0
		outer loop
			vertex 0.0555555522441864 0.07167781889438629 0.036741625517606735
			vertex 0.0555555522441864 -0.044325463473796844 0.015910472720861435
			vertex 0.0555555522441864 0.0719534307718277 0.036276157945394516
		endloop
	endfacet
	facet normal 1 0 0
		outer loop
			vertex 0.0555555522441864 -0.044325463473796844 0.015910472720861435
			vertex 0.0555555522441864 -0.061303455382585526 0.022004660218954086
			vertex 0.0555555522441864 -0.052363071590662 0.014502715319395065
		endloop
	endfacet
	facet normal 1 0 0
		outer loop
			vertex 0.0555555522441864 -0.04704468697309494 0.01543421670794487
			vertex 0.0555555522441864 -0.052363071590662 0.014502715319395065
			vertex 0.0555555522441864 -0.04899027943611145 0.011672597378492355
		endloop
	endfacet
	facet normal 1 0 0
		outer loop
			vertex 0.0555555522441864 0.1023595854640007 0.036741625517606735
			vertex 0.0555555522441864 0.09417123347520828 0.036741625517606735
			vertex 0.0555555522441864 0.1023595854640007 0.01571696624159813
		endloop
	endfacet
	facet normal 1 0 0
		outer loop
			vertex 0.0555555522441864 0.09417123347520828 0.036741625517606735
			vertex 0.0555555522441864 0.07461098581552505 0.036741625517606735
			vertex 0.0555555522441864 0.015973124653100967 0.02647147700190544
		endloop
	endfacet
	facet normal 1 0 0
		outer loop
			vertex 0.0555555522441864 0.09417123347520828 0.036741625517606735
			vertex 0.0555555522441864 0.015973124653100967 0.02647147700190544
			vertex 0.0555555522441864 0.1023595854640007 -0.021184328943490982
		endloop
	endfacet
	facet normal 1 0 0
		outer loop
			vertex 0.0555555522441864 0.09417123347520828 0.036741625517606735
			vertex 0.0555555522441864 0.1023595854640007 -0.021184328943490982
			vertex 0.0555555522441864 0.1023595854640007 0.01571696624159813
		endloop
	endfacet
	facet normal 1 0 0
		outer loop
			vertex 0.0555555522441864 0.015973124653100967 0.02647147700190544
			vertex 0.0555555522441864 0.008510581217706203 0.025164451450109482
			vertex 0.0555555522441864 0.1023595854640007 -0.02213289961218834
		endloop
	endfacet
	facet normal 1 0 0
		outer loop
			vertex 0.0555555522441864 0.015973124653100967 0.02647147700190544
			vertex 0.0555555522441864 0.1023595854640007 -0.02213289961218834
			vertex 0.0555555522441864 0.1023595854640007 -0.021184328943490982
		endloop
	endfacet
	facet normal 1 0 0
		outer loop
			vertex 0.0555555522441864 0.07753458619117737 -0.02783077582716942
			vertex 0.0555555522441864 0.1023595854640007 -0.036741625517606735
			vertex 0.0555555522441864 0.1023595854640007 -0.02213289961218834
		endloop
	endfacet
	facet normal 1 0 0
		outer loop
			vertex 0.0555555522441864 0.07753458619117737 -0.02783077582716942
			vertex 0.0555555522441864 0.1023595854640007 -0.02213289961218834
			vertex 0.0555555522441864 0.08863380551338196 -0.015215490013360977
		endloop
	endfacet
	facet normal 1 0 0
		outer loop
			vertex 0.0555555522441864 0.06969461590051651 -0.036741625517606735
			vertex 0.0555555522441864 0.1023595854640007 -0.036741625517606735
			vertex 0.0555555522441864 0.07753458619117737 -0.02783077582716942
		endloop
	endfacet
	facet normal 1 0 0
		outer loop
			vertex 0.0555555522441864 0.008510581217706203 0.025164451450109482
			vertex 0.0555555522441864 -0.044325463473796844 0.015910472720861435
			vertex 0.0555555522441864 0.07753458619117737 -0.02783077582716942
		endloop
	endfacet
	facet normal 1 0 0
		outer loop
			vertex 0.0555555522441864 0.008510581217706203 0.025164451450109482
			vertex 0.0555555522441864 0.07753458619117737 -0.02783077582716942
			vertex 0.0555555522441864 0.08863380551338196 -0.015215490013360977
		endloop
	endfacet
	facet normal 1 0 0
		outer loop
			vertex 0.0555555522441864 0.008706999011337757 -0.036741625517606735
			vertex 0.0555555522441864 0.06969461590051651 -0.036741625517606735
			vertex 0.0555555522441864 0.07753458619117737 -0.02783077582716942
		endloop
	endfacet
	facet normal 1 0 0
		outer loop
			vertex 0.0555555522441864 0.008706999011337757 -0.036741625517606735
			vertex 0.0555555522441864 0.07753458619117737 -0.02783077582716942
			vertex 0.0555555522441864 -0.044325463473796844 0.015910472720861435
		endloop
	endfacet
	facet normal 1 0 0
		outer loop
			vertex 0.0555555522441864 0.008706999011337757 -0.036741625517606735
			vertex 0.0555555522441864 -0.044325463473796844 0.015910472720861435
			vertex 0.0555555522441864 -0.04704468697309494 0.01543421670794487
		endloop
	endfacet
	facet normal 1 0 0
		outer loop
			vertex 0.0555555522441864 0.008706999011337757 -0.036741625517606735
			vertex 0.0555555522441864 -0.04704468697309494 0.01543421670794487
			vertex 0.0555555522441864 -0.04899027943611145 0.011672597378492355
		endloop
	endfacet
	facet normal 1 0 0
		outer loop
			vertex 0.0555555522441864 -0.07551064342260361 -0.030660416930913925
			vertex 0.0555555522441864 -0.07385732233524323 -0.036405693739652634
			vertex 0.0555555522441864 -0.07175146043300629 -0.03233420476317406
		endloop
	endfacet
	facet normal 1 0 0
		outer loop
			vertex 0.0555555522441864 -0.07886611670255661 0.036741625517606735
			vertex 0.0555555522441864 -0.09490702301263809 0.036741625517606735
			vertex 0.0555555522441864 -0.09404853731393814 0.03375839814543724
		endloop
	endfacet
	facet normal 1 0 0
		outer loop
			vertex 0.0555555522441864 -0.07886611670255661 0.036741625517606735
			vertex 0.0555555522441864 -0.09404853731393814 0.03375839814543724
			vertex 0.0555555522441864 -0.061303455382585526 0.022004660218954086
		endloop
	endfacet
	facet normal 1 0 0
		outer loop
			vertex 0.0555555522441864 -0.04899027943611145 0.011672597378492355
			vertex 0.0555555522441864 -0.061303455382585526 0.022004660218954086
			vertex 0.0555555522441864 -0.09404853731393814 0.03375839814543724
		endloop
	endfacet
	facet normal 1 0 0
		outer loop
			vertex 0.0555555522441864 -0.04899027943611145 0.011672597378492355
			vertex 0.0555555522441864 -0.09404853731393814 0.03375839814543724
			vertex 0.0555555522441864 -0.07551064342260361 -0.030660416930913925
		endloop
	endfacet
	facet normal 1 0 0
		outer loop
			vertex 0.0555555522441864 -0.04899027943611145 0.011672597378492355
			vertex 0.0555555522441864 -0.07551064342260361 -0.030660416930913925
			vertex 0.0555555522441864 -0.07175146043300629 -0.03233420476317406
		endloop
	endfacet
	facet normal 1 0 0
		outer loop
			vertex 0.0555555522441864 -0.07376064360141754 -0.036741625517606735
			vertex 0.0555555522441864 0.008706999011337757 -0.036741625517606735
			vertex 0.0555555522441864 -0.04899027943611145 0.011672597378492355
		endloop
	endfacet
	facet normal 1 0 0
		outer loop
			vertex 0.0555555522441864 -0.07376064360141754 -0.036741625517606735
			vertex 0.0555555522441864 -0.04899027943611145 0.011672597378492355
			vertex 0.0555555522441864 -0.07385732233524323 -0.036405693739652634
		endloop
	endfacet
	facet normal 1 0 0
		outer loop
			vertex 0.0555555522441864 -0.09490702301263809 0.036741625517606735
			vertex 0.0555555522441864 -0.1023595854640007 0.036741625517606735
			vertex 0.0555555522441864 -0.09404853731393814 0.03375839814543724
		endloop
	endfacet
	facet normal 1 0 0
		outer loop
			vertex 0.0555555522441864 -0.1023595854640007 0.036741625517606735
			vertex 0.0555555522441864 -0.1023595854640007 -0.036741625517606735
			vertex 0.0555555522441864 -0.09358282387256622 -0.036741625517606735
		endloop
	endfacet
	facet normal 1 0 0
		outer loop
			vertex 0.0555555522441864 -0.1023595854640007 0.036741625517606735
			vertex 0.0555555522441864 -0.09358282387256622 -0.036741625517606735
			vertex 0.0555555522441864 -0.08705159276723862 0.009444128721952438
		endloop
	endfacet
	facet normal 1 0 0
		outer loop
			vertex 0.0555555522441864 -0.1023595854640007 0.036741625517606735
			vertex 0.0555555522441864 -0.08705159276723862 0.009444128721952438
			vertex 0.0555555522441864 -0.09404853731393814 0.03375839814543724
		endloop
	endfacet
	facet normal 1 0 0
		outer loop
			vertex 0.0555555522441864 -0.09358282387256622 -0.036741625517606735
			vertex 0.0555555522441864 -0.07376064360141754 -0.036741625517606735
			vertex 0.0555555522441864 -0.08705159276723862 0.009444128721952438
		endloop
	endfacet
	facet normal -1 0 0
		outer loop
			vertex -0.0555555522441864 0.1023595854640007 -0.036741625517606735
			vertex -0.0555555522441864 -0.015151490457355976 -0.036741625517606735
			vertex -0.0555555522441864 -0.004770398139953613 -0.0017123108264058828
		endloop
	endfacet
	facet normal -1 0 0
		outer loop
			vertex -0.0555555522441864 0.1023595854640007 -0.036741625517606735
			vertex -0.0555555522441864 -0.004770398139953613 -0.0017123108264058828
			vertex -0.0555555522441864 0.1023595854640007 0.036741625517606735
		endloop
	endfacet
	facet normal -1 0 0
		outer loop
			vertex -0.0555555522441864 0.006625600624829531 0.036741625517606735
			vertex -0.0555555522441864 0.1023595854640007 0.036741625517606735
			vertex -0.0555555522441864 -0.004770398139953613 -0.0017123108264058828
		endloop
	endfacet
	facet normal -1 0 0
		outer loop
			vertex -0.0555555522441864 -0.1023595854640007 0.02615576609969139
			vertex -0.0555555522441864 -0.1023595854640007 0.036741625517606735
			vertex -0.0555555522441864 -0.09631871432065964 0.036741625517606735
		endloop
	endfacet
	facet normal -1 0 0
		outer loop
			vertex -0.0555555522441864 -0.057836540043354034 -0.036741625517606735
			vertex -0.0555555522441864 -0.1023595854640007 -0.036741625517606735
			vertex -0.0555555522441864 -0.049975454807281494 -0.017938513308763504
		endloop
	endfacet
	facet normal -1 0 0
		outer loop
			vertex -0.0555555522441864 -0.1023595854640007 -0.036741625517606735
			vertex -0.0555555522441864 -0.1023595854640007 0.02615576609969139
			vertex -0.0555555522441864 -0.09631871432065964 0.036741625517606735
		endloop
	endfacet
	facet normal -1 0 0
		outer loop
			vertex -0.0555555522441864 -0.1023595854640007 -0.036741625517606735
			vertex -0.0555555522441864 -0.09631871432065964 0.036741625517606735
			vertex -0.0555555522441864 -0.027115102857351303 0.036741625517606735
		endloop
	endfacet
	facet normal -1 0 0
		outer loop
			vertex -0.0555555522441864 -0.1023595854640007 -0.036741625517606735
			vertex -0.0555555522441864 -0.027115102857351303 0.036741625517606735
			vertex -0.0555555522441864 -0.049975454807281494 -0.017938513308763504
		endloop
	endfacet
	facet normal -1 0 0
		outer loop
			vertex -0.0555555522441864 -0.015151490457355976 -0.036741625517606735
			vertex -0.0555555522441864 -0.057836540043354034 -0.036741625517606735
			vertex -0.0555555522441864 -0.049975454807281494 -0.017938513308763504
		endloop
	endfacet
	facet normal -1 0 0
		outer loop
			vertex -0.0555555522441864 -0.015151490457355976 -0.036741625517606735
			vertex -0.0555555522441864 -0.049975454807281494 -0.017938513308763504
			vertex -0.0555555522441864 -0.004770398139953613 -0.0017123108264058828
		endloop
	endfacet
	facet normal -1 0 0
		outer loop
			vertex -0.0555555522441864 -0.027115102857351303 0.036741625517606735
			vertex -0.0555555522441864 0.006625600624829531 0.036741625517606735
			vertex -0.0555555522441864 -0.004770398139953613 -0.0017123108264058828
		endloop
	endfacet
	facet normal -1 0 0
		outer loop
			vertex -0.0555555522441864 -0.027115102857351303 0.036741625517606735
			vertex -0.0555555522441864 -0.004770398139953613 -0.0017123108264058828
			vertex -0.0555555522441864 -0.049975454807281494 -0.017938513308763504
		endloop
	endfacet
	facet normal 0 1 0
		outer loop
			vertex -0.0555555522441864 0.1023595854640007 -0.036741625517606735
			vertex -0.0555555522441864 0.1023595854640007 0.036741625517606735
			vertex -0.006234637927263975 0.1023595854640007 0.004123267251998186
		endloop
	endfacet
	facet normal 0 1 0
		outer loop
			vertex -0.0555555522441864 0.1023595854640007 -0.036741625517606735
			vertex -0.006234637927263975 0.1023595854640007 0.004123267251998186
			vertex -0.03574598953127861 0.1023595854640007 -0.036741625517606735
		endloop
	endfacet
	facet normal 0 1 0
		outer loop
			vertex -0.0555555522441864 0.1023595854640007 0.036741625517606735
			vertex -0.001244102604687214 0.1023595854640007 0.036741625517606735
			vertex 0.0022618607617914677 0.1023595854640007 0.015888523310422897
		endloop
	endfacet
	facet normal 0 1 0
		outer loop
			vertex -0.0555555522441864 0.1023595854640007 0.036741625517606735
			vertex 0.0022618607617914677 0.1023595854640007 0.015888523310422897
			vertex -0.006234637927263975 0.1023595854640007 0.004123267251998186
		endloop
	endfacet
	facet normal 0 1 0
		outer loop
			vertex -0.001244102604687214 0.1023595854640007 0.036741625517606735
			vertex 0.01732131466269493 0.1023595854640007 0.036741625517606735
			vertex 0.0022618607617914677 0.1023595854640007 0.015888523310422897
		endloop
	endfacet
	facet normal 0 1 0
		outer loop
			vertex -0.006234637927263975 0.1023595854640007 0.004123267251998186
			vertex -0.0031713000498712063 0.1023595854640007 0.002097334945574403
			vertex -0.006207925733178854 0.1023595854640007 -0.0020435189362615347
		endloop
	endfacet
	facet normal 0 1 0
		outer loop
			vertex -0.006234637927263975 0.1023595854640007 0.004123267251998186
			vertex -0.006207925733178854 0.1023595854640007 -0.0020435189362615347
			vertex -0.008795192465186119 0.1023595854640007 0.0005776251782663167
		endloop
	endfacet
	facet normal 0 1 0
		outer loop
			vertex 0.01732131466269493 0.1023595854640007 0.036741625517606735
			vertex 0.02223450504243374 0.1023595854640007 0.036741625517606735
			vertex -0.0031713000498712063 0.1023595854640007 0.002097334945574403
		endloop
	endfacet
	facet normal 0 1 0
		outer loop
			vertex 0.01732131466269493 0.1023595854640007 0.036741625517606735
			vertex -0.0031713000498712063 0.1023595854640007 0.002097334945574403
			vertex -0.006234637927263975 0.1023595854640007 0.004123267251998186
		endloop
	endfacet
	facet normal 0 1 0
		outer loop
			vertex -0.006207925733178854 0.1023595854640007 -0.0020435189362615347
			vertex -0.03165319934487343 0.1023595854640007 -0.036741625517606735
			vertex -0.03574598953127861 0.1023595854640007 -0.036741625517606735
		endloop
	endfacet
	facet normal 0 1 0
		outer loop
			vertex -0.006207925733178854 0.1023595854640007 -0.0020435189362615347
			vertex -0.03574598953127861 0.1023595854640007 -0.036741625517606735
			vertex -0.008795192465186119 0.1023595854640007 0.0005776251782663167
		endloop
	endfacet
	facet normal 0 1 0
		outer loop
			vertex 0.0436389334499836 0.1023595854640007 0.036741625517606735
			vertex 0.0555555522441864 0.1023595854640007 0.036741625517606735
			vertex 0.0555555522441864 0.1023595854640007 0.01571696624159813
		endloop
	endfacet
	facet normal 0 1 0
		outer loop
			vertex 0.02223450504243374 0.1023595854640007 0.036741625517606735
			vertex 0.0436389334499836 0.1023595854640007 0.036741625517606735
			vertex 0.0555555522441864 0.1023595854640007 0.01571696624159813
		endloop
	endfacet
	facet normal 0 1 0
		outer loop
			vertex 0.02223450504243374 0.1023595854640007 0.036741625517606735
			vertex 0.0555555522441864 0.1023595854640007 0.01571696624159813
			vertex 0.0555555522441864 0.1023595854640007 -0.021184328943490982
		endloop
	endfacet
	facet normal 0 1 0
		outer loop
			vertex 0.02223450504243374 0.1023595854640007 0.036741625517606735
			vertex 0.0555555522441864 0.1023595854640007 -0.021184328943490982
			vertex 0.008344088681042194 0.1023595854640007 0.01780014857649803
		endloop
	endfacet
	facet normal 0 1 0
		outer loop
			vertex 0.0555555522441864 0.1023595854640007 -0.021184328943490982
			vertex 0.0555555522441864 0.1023595854640007 -0.02213289961218834
			vertex 0.006902687251567841 0.1023595854640007 0.015834596008062363
		endloop
	endfacet
	facet normal 0 1 0
		outer loop
			vertex 0.0555555522441864 0.1023595854640007 -0.021184328943490982
			vertex 0.006902687251567841 0.1023595854640007 0.015834596008062363
			vertex 0.008344088681042194 0.1023595854640007 0.01780014857649803
		endloop
	endfacet
	facet normal 0 1 0
		outer loop
			vertex 0.024770714342594147 0.1023595854640007 -0.016382087022066116
			vertex 0.0555555522441864 0.1023595854640007 -0.036741625517606735
			vertex 0.018972745165228844 0.1023595854640007 -0.036741625517606735
		endloop
	endfacet
	facet normal 0 1 0
		outer loop
			vertex 0.024770714342594147 0.1023595854640007 -0.016382087022066116
			vertex 0.018972745165228844 0.1023595854640007 -0.036741625517606735
			vertex 0.004230878781527281 0.1023595854640007 -0.02756929025053978
		endloop
	endfacet
	facet normal 0 1 0
		outer loop
			vertex 0.0555555522441864 0.1023595854640007 -0.02213289961218834
			vertex 0.0555555522441864 0.1023595854640007 -0.036741625517606735
			vertex 0.024770714342594147 0.1023595854640007 -0.016382087022066116
		endloop
	endfacet
	facet normal 0 1 0
		outer loop
			vertex 0.0555555522441864 0.1023595854640007 -0.02213289961218834
			vertex 0.024770714342594147 0.1023595854640007 -0.016382087022066116
			vertex 0.03856124356389046 0.1023595854640007 -0.008870963007211685
		endloop
	endfacet
	facet normal 0 1 0
		outer loop
			vertex -0.0031713000498712063 0.1023595854640007 0.002097334945574403
			vertex 0.024770714342594147 0.1023595854640007 -0.016382087022066116
			vertex 0.004230878781527281 0.1023595854640007 -0.02756929025053978
		endloop
	endfacet
	facet normal 0 1 0
		outer loop
			vertex -0.0031713000498712063 0.1023595854640007 0.002097334945574403
			vertex 0.004230878781527281 0.1023595854640007 -0.02756929025053978
			vertex -0.015791211277246475 0.1023595854640007 -0.015111628919839859
		endloop
	endfacet
	facet normal 0 1 0
		outer loop
			vertex 0.024770714342594147 0.1023595854640007 -0.016382087022066116
			vertex -0.0031713000498712063 0.1023595854640007 0.002097334945574403
			vertex 0.006902687251567841 0.1023595854640007 0.015834596008062363
		endloop
	endfacet
	facet normal 0 1 0
		outer loop
			vertex 0.024770714342594147 0.1023595854640007 -0.016382087022066116
			vertex 0.006902687251567841 0.1023595854640007 0.015834596008062363
			vertex 0.03856124356389046 0.1023595854640007 -0.008870963007211685
		endloop
	endfacet
	facet normal 0 1 0
		outer loop
			vertex 0.018972745165228844 0.1023595854640007 -0.036741625517606735
			vertex -0.012609620578587055 0.1023595854640007 -0.036741625517606735
			vertex 0.004230878781527281 0.1023595854640007 -0.02756929025053978
		endloop
	endfacet
	facet normal 0 1 0
		outer loop
			vertex -0.012609620578587055 0.1023595854640007 -0.036741625517606735
			vertex -0.03165319934487343 0.1023595854640007 -0.036741625517606735
			vertex -0.015791211277246475 0.1023595854640007 -0.015111628919839859
		endloop
	endfacet
	facet normal 0 1 0
		outer loop
			vertex -0.012609620578587055 0.1023595854640007 -0.036741625517606735
			vertex -0.015791211277246475 0.1023595854640007 -0.015111628919839859
			vertex 0.004230878781527281 0.1023595854640007 -0.02756929025053978
		endloop
	endfacet
	facet normal 0 -1 0
		outer loop
			vertex -0.0555555522441864 -0.1023595854640007 0.036741625517606735
			vertex -0.0555555522441864 -0.1023595854640007 0.02615576609969139
			vertex -0.03321942314505577 -0.1023595854640007 0.036741625517606735
		endloop
	endfacet
	facet normal 0 -1 0
		outer loop
			vertex -0.0555555522441864 -0.1023595854640007 0.02615576609969139
			vertex -0.0555555522441864 -0.1023595854640007 -0.036741625517606735
			vertex -0.0007598671945743263 -0.1023595854640007 -0.0005025301943533123
		endloop
	endfacet
	facet normal 0 -1 0
		outer loop
			vertex -0.0555555522441864 -0.1023595854640007 0.02615576609969139
			vertex -0.0007598671945743263 -0.1023595854640007 -0.0005025301943533123
			vertex 0.026136700063943863 -0.1023595854640007 0.036741625517606735
		endloop
	endfacet
	facet normal 0 -1 0
		outer loop
			vertex -0.0555555522441864 -0.1023595854640007 0.02615576609969139
			vertex 0.026136700063943863 -0.1023595854640007 0.036741625517606735
			vertex -0.03321942314505577 -0.1023595854640007 0.036741625517606735
		endloop
	endfacet
	facet normal 0 -1 0
		outer loop
			vertex -0.0555555522441864 -0.1023595854640007 -0.036741625517606735
			vertex -0.02693060226738453 -0.1023595854640007 -0.036741625517606735
			vertex -0.0007598671945743263 -0.1023595854640007 -0.0005025301943533123
		endloop
	endfacet
	facet normal 0 -1 0
		outer loop
			vertex -0.0007598671945743263 -0.1023595854640007 -0.0005025301943533123
			vertex 0.03060624748468399 -0.1023595854640007 0.020241420716047287
			vertex 0.04270639643073082 -0.1023595854640007 0.036741625517606735
		endloop
	endfacet
	facet normal 0 -1 0
		outer loop
			vertex -0.0007598671945743263 -0.1023595854640007 -0.0005025301943533123
			vertex 0.04270639643073082 -0.1023595854640007 0.036741625517606735
			vertex 0.026136700063943863 -0.1023595854640007 0.036741625517606735
		endloop
	endfacet
	facet normal 0 -1 0
		outer loop
			vertex -0.02693060226738453 -0.1023595854640007 -0.036741625517606735
			vertex -0.011181311681866646 -0.1023595854640007 -0.036741625517606735
			vertex 0.03060624748468399 -0.1023595854640007 0.020241420716047287
		endloop
	endfacet
	facet normal 0 -1 0
		outer loop
			vertex -0.02693060226738453 -0.1023595854640007 -0.036741625517606735
			vertex 0.03060624748468399 -0.1023595854640007 0.020241420716047287
			vertex -0.0007598671945743263 -0.1023595854640007 -0.0005025301943533123
		endloop
	endfacet
	facet normal 0 -1 0
		outer loop
			vertex 0.03060624748468399 -0.1023595854640007 0.020241420716047287
			vertex 0.0555555522441864 -0.1023595854640007 0.036741625517606735
			vertex 0.04270639643073082 -0.1023595854640007 0.036741625517606735
		endloop
	endfacet
	facet normal 0 -1 0
		outer loop
			vertex 0.05139246955513954 -0.1023595854640007 -0.036741625517606735
			vertex 0.0555555522441864 -0.1023595854640007 -0.036741625517606735
			vertex 0.0555555522441864 -0.1023595854640007 0.036741625517606735
		endloop
	endfacet
	facet normal 0 -1 0
		outer loop
			vertex 0.05139246955513954 -0.1023595854640007 -0.036741625517606735
			vertex 0.0555555522441864 -0.1023595854640007 0.036741625517606735
			vertex 0.03060624748468399 -0.1023595854640007 0.020241420716047287
		endloop
	endfacet
	facet normal 0 -1 0
		outer loop
			vertex 0.05139246955513954 -0.1023595854640007 -0.036741625517606735
			vertex 0.03060624748468399 -0.1023595854640007 0.020241420716047287
			vertex 0.008424140512943268 -0.1023595854640007 -0.01000690832734108
		endloop
	endfacet
	facet normal 0 -1 0
		outer loop
			vertex -0.011181311681866646 -0.1023595854640007 -0.036741625517606735
			vertex 0.0026968931779265404 -0.1023595854640007 -0.036741625517606735
			vertex -0.00792651530355215 -0.1023595854640007 -0.03230326995253563
		endloop
	endfacet
	facet normal 0 -1 0
		outer loop
			vertex 0.0026968931779265404 -0.1023595854640007 -0.036741625517606735
			vertex 0.05139246955513954 -0.1023595854640007 -0.036741625517606735
			vertex 0.008424140512943268 -0.1023595854640007 -0.01000690832734108
		endloop
	endfacet
	facet normal 0 -1 0
		outer loop
			vertex 0.0026968931779265404 -0.1023595854640007 -0.036741625517606735
			vertex 0.008424140512943268 -0.1023595854640007 -0.01000690832734108
			vertex -0.00792651530355215 -0.1023595854640007 -0.03230326995253563
		endloop
	endfacet
	facet normal 0 0 1
		outer loop
			vertex -0.0555555522441864 0.1023595854640007 0.036741625517606735
			vertex -0.0555555522441864 0.006625600624829531 0.036741625517606735
			vertex -0.001244102604687214 0.1023595854640007 0.036741625517606735
		endloop
	endfacet
	facet normal 0 0 1
		outer loop
			vertex -0.0555555522441864 -0.09631871432065964 0.036741625517606735
			vertex -0.0555555522441864 -0.1023595854640007 0.036741625517606735
			vertex -0.05269654840230942 -0.09709194302558899 0.036741625517606735
		endloop
	endfacet
	facet normal 0 0 1
		outer loop
			vertex -0.0555555522441864 -0.1023595854640007 0.036741625517606735
			vertex -0.03321942314505577 -0.1023595854640007 0.036741625517606735
			vertex -0.05269654840230942 -0.09709194302558899 0.036741625517606735
		endloop
	endfacet
	facet normal 0 0 1
		outer loop
			vertex -0.0555555522441864 -0.027115102857351303 0.036741625517606735
			vertex -0.0555555522441864 -0.09631871432065964 0.036741625517606735
			vertex -0.05269654840230942 -0.09709194302558899 0.036741625517606735
		endloop
	endfacet
	facet normal 0 0 1
		outer loop
			vertex -0.0555555522441864 -0.027115102857351303 0.036741625517606735
			vertex -0.05269654840230942 -0.09709194302558899 0.036741625517606735
			vertex -0.02650640718638897 -0.0488373301923275 0.036741625517606735
		endloop
	endfacet
	facet normal 0 0 1
		outer loop
			vertex -0.03321942314505577 -0.1023595854640007 0.036741625517606735
			vertex 0.026136700063943863 -0.1023595854640007 0.036741625517606735
			vertex 0.025506803765892982 -0.0877314954996109 0.036741625517606735
		endloop
	endfacet
	facet normal 0 0 1
		outer loop
			vertex -0.03321942314505577 -0.1023595854640007 0.036741625517606735
			vertex 0.025506803765892982 -0.0877314954996109 0.036741625517606735
			vertex -0.02650640718638897 -0.0488373301923275 0.036741625517606735
		endloop
	endfacet
	facet normal 0 0 1
		outer loop
			vertex -0.03321942314505577 -0.1023595854640007 0.036741625517606735
			vertex -0.02650640718638897 -0.0488373301923275 0.036741625517606735
			vertex -0.05269654840230942 -0.09709194302558899 0.036741625517606735
		endloop
	endfacet
	facet normal 0 0 1
		outer loop
			vertex -0.0555555522441864 0.006625600624829531 0.036741625517606735
			vertex -0.0555555522441864 -0.027115102857351303 0.036741625517606735
			vertex -0.02650640718638897 -0.0488373301923275 0.036741625517606735
		endloop
	endfacet
	facet normal 0 0 1
		outer loop
			vertex -0.0555555522441864 0.006625600624829531 0.036741625517606735
			vertex -0.02650640718638897 -0.0488373301923275 0.036741625517606735
			vertex 0.020131783559918404 0.03709225729107857 0.036741625517606735
		endloop
	endfacet
	facet normal 0 0 1
		outer loop
			vertex -0.0555555522441864 0.006625600624829531 0.036741625517606735
			vertex 0.020131783559918404 0.03709225729107857 0.036741625517606735
			vertex 0.01732131466269493 0.1023595854640007 0.036741625517606735
		endloop
	endfacet
	facet normal 0 0 1
		outer loop
			vertex -0.0555555522441864 0.006625600624829531 0.036741625517606735
			vertex 0.01732131466269493 0.1023595854640007 0.036741625517606735
			vertex -0.001244102604687214 0.1023595854640007 0.036741625517606735
		endloop
	endfacet
	facet normal 0 0 1
		outer loop
			vertex 0.025506803765892982 -0.0877314954996109 0.036741625517606735
			vertex 0.020131783559918404 0.03709225729107857 0.036741625517606735
			vertex -0.02650640718638897 -0.0488373301923275 0.036741625517606735
		endloop
	endfacet
	facet normal 0 0 1
		outer loop
			vertex 0.025484252721071243 0.046954039484262466 0.036741625517606735
			vertex 0.027418646961450577 0.05051810294389725 0.036741625517606735
			vertex 0.02223450504243374 0.1023595854640007 0.036741625517606735
		endloop
	endfacet
	facet normal 0 0 1
		outer loop
			vertex 0.025484252721071243 0.046954039484262466 0.036741625517606735
			vertex 0.02223450504243374 0.1023595854640007 0.036741625517606735
			vertex 0.01732131466269493 0.1023595854640007 0.036741625517606735
		endloop
	endfacet
	facet normal 0 0 1
		outer loop
			vertex 0.025484252721071243 0.046954039484262466 0.036741625517606735
			vertex 0.01732131466269493 0.1023595854640007 0.036741625517606735
			vertex 0.01950320415198803 0.05168971046805382 0.036741625517606735
		endloop
	endfacet
	facet normal 0 0 1
		outer loop
			vertex 0.027972029522061348 0.04498427361249924 0.036741625517606735
			vertex 0.027418646961450577 0.05051810294389725 0.036741625517606735
			vertex 0.025484252721071243 0.046954039484262466 0.036741625517606735
		endloop
	endfacet
	facet normal 0 0 1
		outer loop
			vertex 0.020131783559918404 0.03709225729107857 0.036741625517606735
			vertex 0.025484252721071243 0.046954039484262466 0.036741625517606735
			vertex 0.01950320415198803 0.05168971046805382 0.036741625517606735
		endloop
	endfacet
	facet normal 0 0 1
		outer loop
			vertex 0.026136700063943863 -0.1023595854640007 0.036741625517606735
			vertex 0.04270639643073082 -0.1023595854640007 0.036741625517606735
			vertex 0.027972029522061348 0.04498427361249924 0.036741625517606735
		endloop
	endfacet
	facet normal 0 0 1
		outer loop
			vertex 0.026136700063943863 -0.1023595854640007 0.036741625517606735
			vertex 0.027972029522061348 0.04498427361249924 0.036741625517606735
			vertex 0.025484252721071243 0.046954039484262466 0.036741625517606735
		endloop
	endfacet
	facet normal 0 0 1
		outer loop
			vertex 0.026136700063943863 -0.1023595854640007 0.036741625517606735
			vertex 0.025484252721071243 0.046954039484262466 0.036741625517606735
			vertex 0.020131783559918404 0.03709225729107857 0.036741625517606735
		endloop
	endfacet
	facet normal 0 0 1
		outer loop
			vertex 0.0555555522441864 0.07167781889438629 0.036741625517606735
			vertex 0.0555555522441864 0.07461098581552505 0.036741625517606735
			vertex 0.05512150749564171 0.07215432822704315 0.036741625517606735
		endloop
	endfacet
	facet normal 0 0 1
		outer loop
			vertex 0.0555555522441864 -0.07886611670255661 0.036741625517606735
			vertex 0.0555555522441864 0.07167781889438629 0.036741625517606735
			vertex 0.05512150749564171 0.07215432822704315 0.036741625517606735
		endloop
	endfacet
	facet normal 0 0 1
		outer loop
			vertex 0.0555555522441864 -0.07886611670255661 0.036741625517606735
			vertex 0.05512150749564171 0.07215432822704315 0.036741625517606735
			vertex 0.03604958951473236 -0.03579140827059746 0.036741625517606735
		endloop
	endfacet
	facet normal 0 0 1
		outer loop
			vertex 0.0555555522441864 -0.07886611670255661 0.036741625517606735
			vertex 0.03604958951473236 -0.03579140827059746 0.036741625517606735
			vertex 0.03811129182577133 -0.05640847608447075 0.036741625517606735
		endloop
	endfacet
	facet normal 0 0 1
		outer loop
			vertex 0.05231855437159538 0.09639550745487213 0.036741625517606735
			vertex 0.0555555522441864 0.1023595854640007 0.036741625517606735
			vertex 0.0436389334499836 0.1023595854640007 0.036741625517606735
		endloop
	endfacet
	facet normal 0 0 1
		outer loop
			vertex 0.0555555522441864 0.09417123347520828 0.036741625517606735
			vertex 0.0555555522441864 0.1023595854640007 0.036741625517606735
			vertex 0.05231855437159538 0.09639550745487213 0.036741625517606735
		endloop
	endfacet
	facet normal 0 0 1
		outer loop
			vertex 0.027418646961450577 0.05051810294389725 0.036741625517606735
			vertex 0.05231855437159538 0.09639550745487213 0.036741625517606735
			vertex 0.0436389334499836 0.1023595854640007 0.036741625517606735
		endloop
	endfacet
	facet normal 0 0 1
		outer loop
			vertex 0.027418646961450577 0.05051810294389725 0.036741625517606735
			vertex 0.0436389334499836 0.1023595854640007 0.036741625517606735
			vertex 0.02223450504243374 0.1023595854640007 0.036741625517606735
		endloop
	endfacet
	facet normal 0 0 1
		outer loop
			vertex 0.0555555522441864 0.07461098581552505 0.036741625517606735
			vertex 0.0555555522441864 0.09417123347520828 0.036741625517606735
			vertex 0.05231855437159538 0.09639550745487213 0.036741625517606735
		endloop
	endfacet
	facet normal 0 0 1
		outer loop
			vertex 0.0555555522441864 0.07461098581552505 0.036741625517606735
			vertex 0.05231855437159538 0.09639550745487213 0.036741625517606735
			vertex 0.027418646961450577 0.05051810294389725 0.036741625517606735
		endloop
	endfacet
	facet normal 0 0 1
		outer loop
			vertex 0.0555555522441864 0.07461098581552505 0.036741625517606735
			vertex 0.027418646961450577 0.05051810294389725 0.036741625517606735
			vertex 0.028717635199427605 0.03752822056412697 0.036741625517606735
		endloop
	endfacet
	facet normal 0 0 1
		outer loop
			vertex 0.0555555522441864 0.07461098581552505 0.036741625517606735
			vertex 0.028717635199427605 0.03752822056412697 0.036741625517606735
			vertex 0.04476091265678406 0.013514077290892601 0.036741625517606735
		endloop
	endfacet
	facet normal 0 0 1
		outer loop
			vertex 0.028717635199427605 0.03752822056412697 0.036741625517606735
			vertex 0.029952004551887512 0.02518451027572155 0.036741625517606735
			vertex 0.04319878667593002 0.004672565497457981 0.036741625517606735
		endloop
	endfacet
	facet normal 0 0 1
		outer loop
			vertex 0.028717635199427605 0.03752822056412697 0.036741625517606735
			vertex 0.04319878667593002 0.004672565497457981 0.036741625517606735
			vertex 0.04476091265678406 0.013514077290892601 0.036741625517606735
		endloop
	endfacet
	facet normal 0 0 1
		outer loop
			vertex 0.029952004551887512 0.02518451027572155 0.036741625517606735
			vertex 0.03604958951473236 -0.03579140827059746 0.036741625517606735
			vertex 0.04319878667593002 0.004672565497457981 0.036741625517606735
		endloop
	endfacet
	facet normal 0 0 1
		outer loop
			vertex 0.0555555522441864 -0.09490702301263809 0.036741625517606735
			vertex 0.0555555522441864 -0.07886611670255661 0.036741625517606735
			vertex 0.03811129182577133 -0.05640847608447075 0.036741625517606735
		endloop
	endfacet
	facet normal 0 0 1
		outer loop
			vertex 0.0555555522441864 -0.09490702301263809 0.036741625517606735
			vertex 0.03811129182577133 -0.05640847608447075 0.036741625517606735
			vertex 0.04163263365626335 -0.09162195771932602 0.036741625517606735
		endloop
	endfacet
	facet normal 0 0 1
		outer loop
			vertex 0.04270639643073082 -0.1023595854640007 0.036741625517606735
			vertex 0.0555555522441864 -0.1023595854640007 0.036741625517606735
			vertex 0.0555555522441864 -0.09490702301263809 0.036741625517606735
		endloop
	endfacet
	facet normal 0 0 1
		outer loop
			vertex 0.04270639643073082 -0.1023595854640007 0.036741625517606735
			vertex 0.0555555522441864 -0.09490702301263809 0.036741625517606735
			vertex 0.04163263365626335 -0.09162195771932602 0.036741625517606735
		endloop
	endfacet
	facet normal 0 0 -1
		outer loop
			vertex -0.03403889015316963 0.06271571666002274 -0.036741625517606735
			vertex -0.0555555522441864 0.1023595854640007 -0.036741625517606735
			vertex -0.03574598953127861 0.1023595854640007 -0.036741625517606735
		endloop
	endfacet
	facet normal 0 0 -1
		outer loop
			vertex -0.0555555522441864 -0.015151490457355976 -0.036741625517606735
			vertex -0.0555555522441864 0.1023595854640007 -0.036741625517606735
			vertex -0.03403889015316963 0.06271571666002274 -0.036741625517606735
		endloop
	endfacet
	facet normal 0 0 -1
		outer loop
			vertex -0.0555555522441864 -0.015151490457355976 -0.036741625517606735
			vertex -0.03403889015316963 0.06271571666002274 -0.036741625517606735
			vertex -0.032440364360809326 0.025593308731913567 -0.036741625517606735
		endloop
	endfacet
	facet normal 0 0 -1
		outer loop
			vertex -0.02693060226738453 -0.1023595854640007 -0.036741625517606735
			vertex -0.0555555522441864 -0.1023595854640007 -0.036741625517606735
			vertex -0.0555555522441864 -0.057836540043354034 -0.036741625517606735
		endloop
	endfacet
	facet normal 0 0 -1
		outer loop
			vertex -0.02693060226738453 -0.1023595854640007 -0.036741625517606735
			vertex -0.0555555522441864 -0.057836540043354034 -0.036741625517606735
			vertex -0.027959205210208893 -0.07847239822149277 -0.036741625517606735
		endloop
	endfacet
	facet normal 0 0 -1
		outer loop
			vertex -0.0555555522441864 -0.057836540043354034 -0.036741625517606735
			vertex -0.0555555522441864 -0.015151490457355976 -0.036741625517606735
			vertex -0.032440364360809326 0.025593308731913567 -0.036741625517606735
		endloop
	endfacet
	facet normal 0 0 -1
		outer loop
			vertex -0.0555555522441864 -0.057836540043354034 -0.036741625517606735
			vertex -0.032440364360809326 0.025593308731913567 -0.036741625517606735
			vertex -0.027959205210208893 -0.07847239822149277 -0.036741625517606735
		endloop
	endfacet
	facet normal 0 0 -1
		outer loop
			vertex -0.02625458501279354 0.048373352736234665 -0.036741625517606735
			vertex -0.03403889015316963 0.06271571666002274 -0.036741625517606735
			vertex -0.03574598953127861 0.1023595854640007 -0.036741625517606735
		endloop
	endfacet
	facet normal 0 0 -1
		outer loop
			vertex -0.02625458501279354 0.048373352736234665 -0.036741625517606735
			vertex -0.03574598953127861 0.1023595854640007 -0.036741625517606735
			vertex -0.03165319934487343 0.1023595854640007 -0.036741625517606735
		endloop
	endfacet
	facet normal 0 0 -1
		outer loop
			vertex -0.011181311681866646 -0.1023595854640007 -0.036741625517606735
			vertex -0.02693060226738453 -0.1023595854640007 -0.036741625517606735
			vertex -0.03403889015316963 0.06271571666002274 -0.036741625517606735
		endloop
	endfacet
	facet normal 0 0 -1
		outer loop
			vertex -0.011181311681866646 -0.1023595854640007 -0.036741625517606735
			vertex -0.03403889015316963 0.06271571666002274 -0.036741625517606735
			vertex -0.02625458501279354 0.048373352736234665 -0.036741625517606735
		endloop
	endfacet
	facet normal 0 0 -1
		outer loop
			vertex 0.0555555522441864 0.1023595854640007 -0.036741625517606735
			vertex 0.0555555522441864 0.06969461590051651 -0.036741625517606735
			vertex 0.021566268056631088 0.08598238974809647 -0.036741625517606735
		endloop
	endfacet
	facet normal 0 0 -1
		outer loop
			vertex 0.0555555522441864 0.1023595854640007 -0.036741625517606735
			vertex 0.021566268056631088 0.08598238974809647 -0.036741625517606735
			vertex 0.018972745165228844 0.1023595854640007 -0.036741625517606735
		endloop
	endfacet
	facet normal 0 0 -1
		outer loop
			vertex 0.0555555522441864 0.06969461590051651 -0.036741625517606735
			vertex 0.0555555522441864 0.008706999011337757 -0.036741625517606735
			vertex 0.0282334852963686 0.04388127103447914 -0.036741625517606735
		endloop
	endfacet
	facet normal 0 0 -1
		outer loop
			vertex 0.0555555522441864 0.06969461590051651 -0.036741625517606735
			vertex 0.0282334852963686 0.04388127103447914 -0.036741625517606735
			vertex 0.021566268056631088 0.08598238974809647 -0.036741625517606735
		endloop
	endfacet
	facet normal 0 0 -1
		outer loop
			vertex 0.0555555522441864 0.008706999011337757 -0.036741625517606735
			vertex 0.0555555522441864 -0.07376064360141754 -0.036741625517606735
			vertex 0.04652610048651695 -0.07163017243146896 -0.036741625517606735
		endloop
	endfacet
	facet normal 0 0 -1
		outer loop
			vertex 0.0555555522441864 0.008706999011337757 -0.036741625517606735
			vertex 0.04652610048651695 -0.07163017243146896 -0.036741625517606735
			vertex 0.0282334852963686 0.04388127103447914 -0.036741625517606735
		endloop
	endfacet
	facet normal 0 0 -1
		outer loop
			vertex 0.0555555522441864 -0.09358282387256622 -0.036741625517606735
			vertex 0.0555555522441864 -0.1023595854640007 -0.036741625517606735
			vertex 0.05083593353629112 -0.09366381168365479 -0.036741625517606735
		endloop
	endfacet
	facet normal 0 0 -1
		outer loop
			vertex 0.0555555522441864 -0.1023595854640007 -0.036741625517606735
			vertex 0.05139246955513954 -0.1023595854640007 -0.036741625517606735
			vertex 0.050017617642879486 -0.09367785602807999 -0.036741625517606735
		endloop
	endfacet
	facet normal 0 0 -1
		outer loop
			vertex 0.0555555522441864 -0.1023595854640007 -0.036741625517606735
			vertex 0.050017617642879486 -0.09367785602807999 -0.036741625517606735
			vertex 0.05083593353629112 -0.09366381168365479 -0.036741625517606735
		endloop
	endfacet
	facet normal 0 0 -1
		outer loop
			vertex 0.0555555522441864 -0.07376064360141754 -0.036741625517606735
			vertex 0.0555555522441864 -0.09358282387256622 -0.036741625517606735
			vertex 0.05083593353629112 -0.09366381168365479 -0.036741625517606735
		endloop
	endfacet
	facet normal 0 0 -1
		outer loop
			vertex 0.0555555522441864 -0.07376064360141754 -0.036741625517606735
			vertex 0.05083593353629112 -0.09366381168365479 -0.036741625517606735
			vertex 0.04967733472585678 -0.09152913093566895 -0.036741625517606735
		endloop
	endfacet
	facet normal 0 0 -1
		outer loop
			vertex 0.0555555522441864 -0.07376064360141754 -0.036741625517606735
			vertex 0.04967733472585678 -0.09152913093566895 -0.036741625517606735
			vertex 0.04652610048651695 -0.07163017243146896 -0.036741625517606735
		endloop
	endfacet
	facet normal 0 0 -1
		outer loop
			vertex 0.050017617642879486 -0.09367785602807999 -0.036741625517606735
			vertex 0.04967733472585678 -0.09152913093566895 -0.036741625517606735
			vertex 0.05083593353629112 -0.09366381168365479 -0.036741625517606735
		endloop
	endfacet
	facet normal 0 0 -1
		outer loop
			vertex -0.012609620578587055 0.1023595854640007 -0.036741625517606735
			vertex 0.018972745165228844 0.1023595854640007 -0.036741625517606735
			vertex 0.021566268056631088 0.08598238974809647 -0.036741625517606735
		endloop
	endfacet
	facet normal 0 0 -1
		outer loop
			vertex 0.03775382041931152 -0.06956037878990173 -0.036741625517606735
			vertex -0.02625458501279354 0.048373352736234665 -0.036741625517606735
			vertex -0.03165319934487343 0.1023595854640007 -0.036741625517606735
		endloop
	endfacet
	facet normal 0 0 -1
		outer loop
			vertex 0.03775382041931152 -0.06956037878990173 -0.036741625517606735
			vertex -0.03165319934487343 0.1023595854640007 -0.036741625517606735
			vertex -0.012609620578587055 0.1023595854640007 -0.036741625517606735
		endloop
	endfacet
	facet normal 0 0 -1
		outer loop
			vertex 0.03775382041931152 -0.06956037878990173 -0.036741625517606735
			vertex -0.012609620578587055 0.1023595854640007 -0.036741625517606735
			vertex 0.021566268056631088 0.08598238974809647 -0.036741625517606735
		endloop
	endfacet
	facet normal 0 0 -1
		outer loop
			vertex 0.03775382041931152 -0.06956037878990173 -0.036741625517606735
			vertex 0.021566268056631088 0.08598238974809647 -0.036741625517606735
			vertex 0.04652610048651695 -0.07163017243146896 -0.036741625517606735
		endloop
	endfacet
	facet normal 0 0 -1
		outer loop
			vertex -0.01572299562394619 -0.05694267898797989 -0.036741625517606735
			vertex -0.02625458501279354 0.048373352736234665 -0.036741625517606735
			vertex 0.03775382041931152 -0.06956037878990173 -0.036741625517606735
		endloop
	endfacet
	facet normal 0 0 -1
		outer loop
			vertex 0.0026968931779265404 -0.1023595854640007 -0.036741625517606735
			vertex -0.011181311681866646 -0.1023595854640007 -0.036741625517606735
			vertex -0.01194316241890192 -0.09474106878042221 -0.036741625517606735
		endloop
	endfacet
	facet normal 0 0 -1
		outer loop
			vertex 0.0026968931779265404 -0.1023595854640007 -0.036741625517606735
			vertex -0.01194316241890192 -0.09474106878042221 -0.036741625517606735
			vertex -0.006263588555157185 -0.09464360773563385 -0.036741625517606735
		endloop
	endfacet
	facet normal 0 0 -1
		outer loop
			vertex -0.01194316241890192 -0.09474106878042221 -0.036741625517606735
			vertex -0.012488984502851963 -0.08928284049034119 -0.036741625517606735
			vertex -0.006263588555157185 -0.09464360773563385 -0.036741625517606735
		endloop
	endfacet
	facet normal 0 0 -1
		outer loop
			vertex 0.04967733472585678 -0.09152913093566895 -0.036741625517606735
			vertex 0.03775382041931152 -0.06956037878990173 -0.036741625517606735
			vertex 0.04652610048651695 -0.07163017243146896 -0.036741625517606735
		endloop
	endfacet
	facet normal 0 0 -1
		outer loop
			vertex 0.05139246955513954 -0.1023595854640007 -0.036741625517606735
			vertex 0.0026968931779265404 -0.1023595854640007 -0.036741625517606735
			vertex -0.012488984502851963 -0.08928284049034119 -0.036741625517606735
		endloop
	endfacet
	facet normal 0 0 -1
		outer loop
			vertex 0.05139246955513954 -0.1023595854640007 -0.036741625517606735
			vertex -0.012488984502851963 -0.08928284049034119 -0.036741625517606735
			vertex -0.01572299562394619 -0.05694267898797989 -0.036741625517606735
		endloop
	endfacet
	facet normal 0 0 -1
		outer loop
			vertex 0.05139246955513954 -0.1023595854640007 -0.036741625517606735
			vertex -0.01572299562394619 -0.05694267898797989 -0.036741625517606735
			vertex 0.03775382041931152 -0.06956037878990173 -0.036741625517606735
		endloop
	endfacet
	facet normal 0 0 -1
		outer loop
			vertex 0.05139246955513954 -0.1023595854640007 -0.036741625517606735
			vertex 0.03775382041931152 -0.06956037878990173 -0.036741625517606735
			vertex 0.04967733472585678 -0.09152913093566895 -0.036741625517606735
		endloop
	endfacet
endsolid exported
