solid exported
	facet normal 1 0 0
		outer loop
			vertex 0.0555555522441864 -0.054553546011447906 0.036741625517606735
			vertex 0.0555555522441864 -0.1023595854640007 0.036741625517606735
			vertex 0.0555555522441864 -0.05919414013624191 0.021247537806630135
		endloop
	endfacet
	facet normal 1 0 0
		outer loop
			vertex 0.0555555522441864 -0.1023595854640007 0.036741625517606735
			vertex 0.0555555522441864 -0.1023595854640007 -0.036741629242897034
			vertex 0.0555555522441864 -0.07656233757734299 -0.036741629242897034
		endloop
	endfacet
	facet normal 1 0 0
		outer loop
			vertex 0.0555555522441864 -0.1023595854640007 0.036741625517606735
			vertex 0.0555555522441864 -0.07656233757734299 -0.036741629242897034
			vertex 0.0555555522441864 -0.05919414013624191 0.021247537806630135
		endloop
	endfacet
	facet normal 1 0 0
		outer loop
			vertex 0.0555555522441864 -0.07656233757734299 -0.036741629242897034
			vertex 0.0555555522441864 -0.0693603977560997 -0.036741629242897034
			vertex 0.0555555522441864 -0.07374744862318039 -0.02734324149787426
		endloop
	endfacet
	facet normal 0 1 0
		outer loop
			vertex -0.0555555522441864 0.10202724486589432 -0.036741629242897034
			vertex -0.0555555522441864 0.10202724486589432 0.036741625517606735
			vertex 0.04545726627111435 0.10202724486589432 0.036741625517606735
		endloop
	endfacet
	facet normal 0 1 0
		outer loop
			vertex -0.0555555522441864 0.10202724486589432 -0.036741629242897034
			vertex 0.04545726627111435 0.10202724486589432 0.036741625517606735
			vertex 0.0555555522441864 0.10202724486589432 0.019946789368987083
		endloop
	endfacet
	facet normal 0 1 0
		outer loop
			vertex -0.0555555522441864 0.10202724486589432 -0.036741629242897034
			vertex 0.0555555522441864 0.10202724486589432 0.019946789368987083
			vertex 0.0555555522441864 0.10202724486589432 -0.036741629242897034
		endloop
	endfacet
	facet normal 0 1 0
		outer loop
			vertex 0.0555555522441864 0.10202724486589432 0.036741625517606735
			vertex 0.0555555522441864 0.10202724486589432 0.019946789368987083
			vertex 0.04545726627111435 0.10202724486589432 0.036741625517606735
		endloop
	endfacet
	facet normal 1 0 0
		outer loop
			vertex 0.0555555522441864 -0.01712215505540371 0.036741625517606735
			vertex 0.0555555522441864 -0.054553546011447906 0.036741625517606735
			vertex 0.0555555522441864 -0.05919414013624191 0.021247537806630135
		endloop
	endfacet
	facet normal 1 0 0
		outer loop
			vertex 0.0555555522441864 -0.01712215505540371 0.036741625517606735
			vertex 0.0555555522441864 -0.05919414013624191 0.021247537806630135
			vertex 0.0555555522441864 -0.02648540399968624 0.009506845846772194
		endloop
	endfacet
	facet normal 1 0 0
		outer loop
			vertex 0.0555555522441864 -0.0693603977560997 -0.036741629242897034
			vertex 0.0555555522441864 -0.0423855260014534 -0.036741629242897034
			vertex 0.0555555522441864 -0.02648540399968624 0.009506845846772194
		endloop
	endfacet
	facet normal 1 0 0
		outer loop
			vertex 0.0555555522441864 -0.0693603977560997 -0.036741629242897034
			vertex 0.0555555522441864 -0.02648540399968624 0.009506845846772194
			vertex 0.0555555522441864 -0.05919414013624191 0.021247537806630135
		endloop
	endfacet
	facet normal 1 0 0
		outer loop
			vertex 0.0555555522441864 -0.0693603977560997 -0.036741629242897034
			vertex 0.0555555522441864 -0.05919414013624191 0.021247537806630135
			vertex 0.0555555522441864 -0.07374744862318039 -0.02734324149787426
		endloop
	endfacet
	facet normal 1 0 0
		outer loop
			vertex 0.0555555522441864 -0.013327634893357754 0.036741625517606735
			vertex 0.0555555522441864 -0.01712215505540371 0.036741625517606735
			vertex 0.0555555522441864 -0.020625626668334007 0.026551084592938423
		endloop
	endfacet
	facet normal 1 0 0
		outer loop
			vertex 0.0555555522441864 0.0071945576928555965 0.036741625517606735
			vertex 0.0555555522441864 -0.013327634893357754 0.036741625517606735
			vertex 0.0555555522441864 -0.020625626668334007 0.026551084592938423
		endloop
	endfacet
	facet normal 1 0 0
		outer loop
			vertex 0.0555555522441864 0.0071945576928555965 0.036741625517606735
			vertex 0.0555555522441864 -0.020625626668334007 0.026551084592938423
			vertex 0.0555555522441864 -0.02648540399968624 0.009506845846772194
		endloop
	endfacet
	facet normal 1 0 0
		outer loop
			vertex 0.0555555522441864 0.0071945576928555965 0.036741625517606735
			vertex 0.0555555522441864 -0.02648540399968624 0.009506845846772194
			vertex 0.0555555522441864 -0.009714490734040737 0.003486985107883811
		endloop
	endfacet
	facet normal 1 0 0
		outer loop
			vertex 0.0555555522441864 -0.0423855260014534 -0.036741629242897034
			vertex 0.0555555522441864 -0.030169596895575523 -0.036741629242897034
			vertex 0.0555555522441864 -0.009714490734040737 0.003486985107883811
		endloop
	endfacet
	facet normal 1 0 0
		outer loop
			vertex 0.0555555522441864 -0.0423855260014534 -0.036741629242897034
			vertex 0.0555555522441864 -0.009714490734040737 0.003486985107883811
			vertex 0.0555555522441864 -0.02648540399968624 0.009506845846772194
		endloop
	endfacet
	facet normal 1 0 0
		outer loop
			vertex 0.0555555522441864 -0.030169596895575523 -0.036741629242897034
			vertex 0.0555555522441864 -0.018153807148337364 -0.036741629242897034
			vertex 0.0555555522441864 -0.024118592962622643 -0.024841254577040672
		endloop
	endfacet
	facet normal 1 0 0
		outer loop
			vertex 0.0555555522441864 -0.020910164341330528 -0.01853129081428051
			vertex 0.0555555522441864 -0.024118592962622643 -0.024841254577040672
			vertex 0.0555555522441864 -0.022984227165579796 -0.027104435488581657
		endloop
	endfacet
	facet normal 1 0 0
		outer loop
			vertex 0.0555555522441864 0.05884454399347305 0.036741625517606735
			vertex 0.0555555522441864 0.0071945576928555965 0.036741625517606735
			vertex 0.0555555522441864 -0.009714490734040737 0.003486985107883811
		endloop
	endfacet
	facet normal 1 0 0
		outer loop
			vertex 0.0555555522441864 0.05884454399347305 0.036741625517606735
			vertex 0.0555555522441864 -0.009714490734040737 0.003486985107883811
			vertex 0.0555555522441864 0.04409816116094589 -0.015828890725970268
		endloop
	endfacet
	facet normal 1 0 0
		outer loop
			vertex 0.0555555522441864 0.05884454399347305 0.036741625517606735
			vertex 0.0555555522441864 0.04409816116094589 -0.015828890725970268
			vertex 0.0555555522441864 0.05810604244470596 0.025448115542531013
		endloop
	endfacet
	facet normal 1 0 0
		outer loop
			vertex 0.0555555522441864 -0.018153807148337364 -0.036741629242897034
			vertex 0.0555555522441864 0.037001170217990875 -0.036741629242897034
			vertex 0.0555555522441864 0.04409816116094589 -0.015828890725970268
		endloop
	endfacet
	facet normal 1 0 0
		outer loop
			vertex 0.0555555522441864 -0.018153807148337364 -0.036741629242897034
			vertex 0.0555555522441864 0.04409816116094589 -0.015828890725970268
			vertex 0.0555555522441864 -0.009714490734040737 0.003486985107883811
		endloop
	endfacet
	facet normal 1 0 0
		outer loop
			vertex 0.0555555522441864 -0.018153807148337364 -0.036741629242897034
			vertex 0.0555555522441864 -0.009714490734040737 0.003486985107883811
			vertex 0.0555555522441864 -0.020910164341330528 -0.01853129081428051
		endloop
	endfacet
	facet normal 1 0 0
		outer loop
			vertex 0.0555555522441864 -0.018153807148337364 -0.036741629242897034
			vertex 0.0555555522441864 -0.020910164341330528 -0.01853129081428051
			vertex 0.0555555522441864 -0.022984227165579796 -0.027104435488581657
		endloop
	endfacet
	facet normal 1 0 0
		outer loop
			vertex 0.0555555522441864 0.04409816116094589 -0.015828890725970268
			vertex 0.0555555522441864 0.055147506296634674 -0.019795013591647148
			vertex 0.0555555522441864 0.05810604244470596 0.025448115542531013
		endloop
	endfacet
	facet normal 1 0 0
		outer loop
			vertex 0.0555555522441864 0.037001170217990875 -0.036741629242897034
			vertex 0.0555555522441864 0.05403933674097061 -0.036741629242897034
			vertex 0.0555555522441864 0.055147506296634674 -0.019795013591647148
		endloop
	endfacet
	facet normal 1 0 0
		outer loop
			vertex 0.0555555522441864 0.037001170217990875 -0.036741629242897034
			vertex 0.0555555522441864 0.055147506296634674 -0.019795013591647148
			vertex 0.0555555522441864 0.04409816116094589 -0.015828890725970268
		endloop
	endfacet
	facet normal 1 0 0
		outer loop
			vertex 0.0555555522441864 0.06193862110376358 0.036741625517606735
			vertex 0.0555555522441864 0.05884454399347305 0.036741625517606735
			vertex 0.0555555522441864 0.05810604244470596 0.025448115542531013
		endloop
	endfacet
	facet normal 1 0 0
		outer loop
			vertex 0.0555555522441864 0.10202724486589432 0.036741625517606735
			vertex 0.0555555522441864 0.06193862110376358 0.036741625517606735
			vertex 0.0555555522441864 0.05810604244470596 0.025448115542531013
		endloop
	endfacet
	facet normal 1 0 0
		outer loop
			vertex 0.0555555522441864 0.10202724486589432 0.036741625517606735
			vertex 0.0555555522441864 0.05810604244470596 0.025448115542531013
			vertex 0.0555555522441864 0.055147506296634674 -0.019795013591647148
		endloop
	endfacet
	facet normal 1 0 0
		outer loop
			vertex 0.0555555522441864 0.10202724486589432 0.036741625517606735
			vertex 0.0555555522441864 0.055147506296634674 -0.019795013591647148
			vertex 0.0555555522441864 0.08812455087900162 -0.03163200616836548
		endloop
	endfacet
	facet normal 1 0 0
		outer loop
			vertex 0.0555555522441864 0.10202724486589432 0.036741625517606735
			vertex 0.0555555522441864 0.08812455087900162 -0.03163200616836548
			vertex 0.0555555522441864 0.10202724486589432 0.019397126510739326
		endloop
	endfacet
	facet normal 1 0 0
		outer loop
			vertex 0.0555555522441864 0.05403933674097061 -0.036741629242897034
			vertex 0.0555555522441864 0.0867324247956276 -0.036741629242897034
			vertex 0.0555555522441864 0.08812455087900162 -0.03163200616836548
		endloop
	endfacet
	facet normal 1 0 0
		outer loop
			vertex 0.0555555522441864 0.05403933674097061 -0.036741629242897034
			vertex 0.0555555522441864 0.08812455087900162 -0.03163200616836548
			vertex 0.0555555522441864 0.055147506296634674 -0.019795013591647148
		endloop
	endfacet
	facet normal 1 0 0
		outer loop
			vertex 0.0555555522441864 0.08812455087900162 -0.03163200616836548
			vertex 0.0555555522441864 0.10202724486589432 -0.03662233054637909
			vertex 0.0555555522441864 0.10202724486589432 0.019397126510739326
		endloop
	endfacet
	facet normal 1 0 0
		outer loop
			vertex 0.0555555522441864 0.0867324247956276 -0.036741629242897034
			vertex 0.0555555522441864 0.10202724486589432 -0.036741629242897034
			vertex 0.0555555522441864 0.10202724486589432 -0.03662233054637909
		endloop
	endfacet
	facet normal 1 0 0
		outer loop
			vertex 0.0555555522441864 0.0867324247956276 -0.036741629242897034
			vertex 0.0555555522441864 0.10202724486589432 -0.03662233054637909
			vertex 0.0555555522441864 0.08812455087900162 -0.03163200616836548
		endloop
	endfacet
	facet normal -1 0 0
		outer loop
			vertex -0.0555555522441864 -0.052107103168964386 -0.036741629242897034
			vertex -0.0555555522441864 -0.1023595854640007 -0.036741629242897034
			vertex -0.0555555522441864 -0.046053819358348846 -0.016530869528651237
		endloop
	endfacet
	facet normal -1 0 0
		outer loop
			vertex -0.0555555522441864 -0.1023595854640007 -0.036741629242897034
			vertex -0.0555555522441864 -0.1023595854640007 0.036741625517606735
			vertex -0.0555555522441864 -0.030098309740424156 0.036741625517606735
		endloop
	endfacet
	facet normal -1 0 0
		outer loop
			vertex -0.0555555522441864 -0.1023595854640007 -0.036741629242897034
			vertex -0.0555555522441864 -0.030098309740424156 0.036741625517606735
			vertex -0.0555555522441864 -0.046053819358348846 -0.016530869528651237
		endloop
	endfacet
	facet normal -1 0 0
		outer loop
			vertex -0.0555555522441864 -0.040146104991436005 -0.036741629242897034
			vertex -0.0555555522441864 -0.052107103168964386 -0.036741629242897034
			vertex -0.0555555522441864 -0.04743213206529617 -0.02113277278840542
		endloop
	endfacet
	facet normal -1 0 0
		outer loop
			vertex -0.0555555522441864 -0.03473428636789322 -0.036741629242897034
			vertex -0.0555555522441864 -0.040146104991436005 -0.036741629242897034
			vertex -0.0555555522441864 -0.04743213206529617 -0.02113277278840542
		endloop
	endfacet
	facet normal -1 0 0
		outer loop
			vertex -0.0555555522441864 -0.03473428636789322 -0.036741629242897034
			vertex -0.0555555522441864 -0.04743213206529617 -0.02113277278840542
			vertex -0.0555555522441864 -0.046053819358348846 -0.016530869528651237
		endloop
	endfacet
	facet normal -1 0 0
		outer loop
			vertex -0.0555555522441864 -0.03473428636789322 -0.036741629242897034
			vertex -0.0555555522441864 -0.046053819358348846 -0.016530869528651237
			vertex -0.0555555522441864 -0.019636055454611778 -0.007048299536108971
		endloop
	endfacet
	facet normal -1 0 0
		outer loop
			vertex -0.0555555522441864 -0.030098309740424156 0.036741625517606735
			vertex -0.0555555522441864 0.00262987008318305 0.036741625517606735
			vertex -0.0555555522441864 -0.019636055454611778 -0.007048299536108971
		endloop
	endfacet
	facet normal -1 0 0
		outer loop
			vertex -0.0555555522441864 -0.030098309740424156 0.036741625517606735
			vertex -0.0555555522441864 -0.019636055454611778 -0.007048299536108971
			vertex -0.0555555522441864 -0.046053819358348846 -0.016530869528651237
		endloop
	endfacet
	facet normal -1 0 0
		outer loop
			vertex -0.0555555522441864 -0.03268658369779587 -0.036741629242897034
			vertex -0.0555555522441864 -0.03473428636789322 -0.036741629242897034
			vertex -0.0555555522441864 -0.033703096210956573 -0.03471359610557556
		endloop
	endfacet
	facet normal -1 0 0
		outer loop
			vertex -0.0555555522441864 -0.010660088621079922 -0.036741629242897034
			vertex -0.0555555522441864 -0.03268658369779587 -0.036741629242897034
			vertex -0.0555555522441864 -0.033703096210956573 -0.03471359610557556
		endloop
	endfacet
	facet normal -1 0 0
		outer loop
			vertex -0.0555555522441864 -0.010660088621079922 -0.036741629242897034
			vertex -0.0555555522441864 -0.033703096210956573 -0.03471359610557556
			vertex -0.0555555522441864 -0.019636055454611778 -0.007048299536108971
		endloop
	endfacet
	facet normal -1 0 0
		outer loop
			vertex -0.0555555522441864 -0.010660088621079922 -0.036741629242897034
			vertex -0.0555555522441864 -0.019636055454611778 -0.007048299536108971
			vertex -0.0555555522441864 0.0020595132373273373 0.0007392558036372066
		endloop
	endfacet
	facet normal -1 0 0
		outer loop
			vertex -0.0555555522441864 0.00262987008318305 0.036741625517606735
			vertex -0.0555555522441864 0.014277377165853977 0.036741625517606735
			vertex -0.0555555522441864 0.0020595132373273373 0.0007392558036372066
		endloop
	endfacet
	facet normal -1 0 0
		outer loop
			vertex -0.0555555522441864 0.00262987008318305 0.036741625517606735
			vertex -0.0555555522441864 0.0020595132373273373 0.0007392558036372066
			vertex -0.0555555522441864 -0.019636055454611778 -0.007048299536108971
		endloop
	endfacet
	facet normal -1 0 0
		outer loop
			vertex -0.0555555522441864 0.06645829230546951 -0.036741629242897034
			vertex -0.0555555522441864 -0.010660088621079922 -0.036741629242897034
			vertex -0.0555555522441864 0.0020595132373273373 0.0007392558036372066
		endloop
	endfacet
	facet normal -1 0 0
		outer loop
			vertex -0.0555555522441864 0.06645829230546951 -0.036741629242897034
			vertex -0.0555555522441864 0.0020595132373273373 0.0007392558036372066
			vertex -0.0555555522441864 0.07051605731248856 0.025311505421996117
		endloop
	endfacet
	facet normal -1 0 0
		outer loop
			vertex -0.0555555522441864 0.014277377165853977 0.036741625517606735
			vertex -0.0555555522441864 0.07126349955797195 0.036741625517606735
			vertex -0.0555555522441864 0.07051605731248856 0.025311505421996117
		endloop
	endfacet
	facet normal -1 0 0
		outer loop
			vertex -0.0555555522441864 0.014277377165853977 0.036741625517606735
			vertex -0.0555555522441864 0.07051605731248856 0.025311505421996117
			vertex -0.0555555522441864 0.0020595132373273373 0.0007392558036372066
		endloop
	endfacet
	facet normal -1 0 0
		outer loop
			vertex -0.0555555522441864 0.10202724486589432 -0.036741629242897034
			vertex -0.0555555522441864 0.06645829230546951 -0.036741629242897034
			vertex -0.0555555522441864 0.07051605731248856 0.025311505421996117
		endloop
	endfacet
	facet normal -1 0 0
		outer loop
			vertex -0.0555555522441864 0.10202724486589432 -0.036741629242897034
			vertex -0.0555555522441864 0.07051605731248856 0.025311505421996117
			vertex -0.0555555522441864 0.10202724486589432 0.03662233054637909
		endloop
	endfacet
	facet normal -1 0 0
		outer loop
			vertex -0.0555555522441864 0.07126349955797195 0.036741625517606735
			vertex -0.0555555522441864 0.10202724486589432 0.036741625517606735
			vertex -0.0555555522441864 0.10202724486589432 0.03662233054637909
		endloop
	endfacet
	facet normal -1 0 0
		outer loop
			vertex -0.0555555522441864 0.07126349955797195 0.036741625517606735
			vertex -0.0555555522441864 0.10202724486589432 0.03662233054637909
			vertex -0.0555555522441864 0.07051605731248856 0.025311505421996117
		endloop
	endfacet
	facet normal 0 -1 0
		outer loop
			vertex -0.0555555522441864 -0.1023595854640007 0.036741625517606735
			vertex -0.0555555522441864 -0.1023595854640007 -0.036741629242897034
			vertex 0.0555555522441864 -0.1023595854640007 0.036741625517606735
		endloop
	endfacet
	facet normal 0 -1 0
		outer loop
			vertex -0.0555555522441864 -0.1023595854640007 -0.036741629242897034
			vertex 0.0555555522441864 -0.1023595854640007 -0.036741629242897034
			vertex 0.0555555522441864 -0.1023595854640007 0.036741625517606735
		endloop
	endfacet
	facet normal 0 0 1
		outer loop
			vertex -0.0555555522441864 -0.030098309740424156 0.036741625517606735
			vertex -0.0555555522441864 -0.1023595854640007 0.036741625517606735
			vertex -0.020520970225334167 -0.03780931979417801 0.036741625517606735
		endloop
	endfacet
	facet normal 0 0 1
		outer loop
			vertex -0.0555555522441864 -0.1023595854640007 0.036741625517606735
			vertex 0.0555555522441864 -0.1023595854640007 0.036741625517606735
			vertex 0.0555555522441864 -0.054553546011447906 0.036741625517606735
		endloop
	endfacet
	facet normal 0 0 1
		outer loop
			vertex -0.0555555522441864 -0.1023595854640007 0.036741625517606735
			vertex 0.0555555522441864 -0.054553546011447906 0.036741625517606735
			vertex -0.020520970225334167 -0.03780931979417801 0.036741625517606735
		endloop
	endfacet
	facet normal 0 0 1
		outer loop
			vertex -0.034126222133636475 -0.03481484204530716 0.036741625517606735
			vertex -0.020520970225334167 -0.03780931979417801 0.036741625517606735
			vertex -0.01706935465335846 -0.031449802219867706 0.036741625517606735
		endloop
	endfacet
	facet normal 0 0 1
		outer loop
			vertex 0.0555555522441864 -0.054553546011447906 0.036741625517606735
			vertex 0.0555555522441864 -0.01712215505540371 0.036741625517606735
			vertex -0.01706935465335846 -0.031449802219867706 0.036741625517606735
		endloop
	endfacet
	facet normal 0 0 1
		outer loop
			vertex 0.0555555522441864 -0.054553546011447906 0.036741625517606735
			vertex -0.01706935465335846 -0.031449802219867706 0.036741625517606735
			vertex -0.020520970225334167 -0.03780931979417801 0.036741625517606735
		endloop
	endfacet
	facet normal 0 0 1
		outer loop
			vertex -0.019888876006007195 -0.03200606256723404 0.036741625517606735
			vertex -0.01706935465335846 -0.031449802219867706 0.036741625517606735
			vertex -0.01698043942451477 -0.03128599375486374 0.036741625517606735
		endloop
	endfacet
	facet normal 0 0 1
		outer loop
			vertex 0.0555555522441864 -0.01712215505540371 0.036741625517606735
			vertex 0.0555555522441864 -0.013327634893357754 0.036741625517606735
			vertex -0.01698043942451477 -0.03128599375486374 0.036741625517606735
		endloop
	endfacet
	facet normal 0 0 1
		outer loop
			vertex 0.0555555522441864 -0.01712215505540371 0.036741625517606735
			vertex -0.01698043942451477 -0.03128599375486374 0.036741625517606735
			vertex -0.01706935465335846 -0.031449802219867706 0.036741625517606735
		endloop
	endfacet
	facet normal 0 0 1
		outer loop
			vertex -0.0555555522441864 0.00262987008318305 0.036741625517606735
			vertex -0.0555555522441864 -0.030098309740424156 0.036741625517606735
			vertex -0.034126222133636475 -0.03481484204530716 0.036741625517606735
		endloop
	endfacet
	facet normal 0 0 1
		outer loop
			vertex -0.0555555522441864 0.00262987008318305 0.036741625517606735
			vertex -0.034126222133636475 -0.03481484204530716 0.036741625517606735
			vertex -0.019888876006007195 -0.03200606256723404 0.036741625517606735
		endloop
	endfacet
	facet normal 0 0 1
		outer loop
			vertex -0.0555555522441864 0.00262987008318305 0.036741625517606735
			vertex -0.019888876006007195 -0.03200606256723404 0.036741625517606735
			vertex -0.01698043942451477 -0.03128599375486374 0.036741625517606735
		endloop
	endfacet
	facet normal 0 0 1
		outer loop
			vertex -0.0555555522441864 0.00262987008318305 0.036741625517606735
			vertex -0.01698043942451477 -0.03128599375486374 0.036741625517606735
			vertex 0.0027269022539258003 0.005024248268455267 0.036741625517606735
		endloop
	endfacet
	facet normal 0 0 1
		outer loop
			vertex 0.0555555522441864 -0.013327634893357754 0.036741625517606735
			vertex 0.0555555522441864 0.0071945576928555965 0.036741625517606735
			vertex 0.0027269022539258003 0.005024248268455267 0.036741625517606735
		endloop
	endfacet
	facet normal 0 0 1
		outer loop
			vertex 0.0555555522441864 -0.013327634893357754 0.036741625517606735
			vertex 0.0027269022539258003 0.005024248268455267 0.036741625517606735
			vertex -0.01698043942451477 -0.03128599375486374 0.036741625517606735
		endloop
	endfacet
	facet normal 0 0 1
		outer loop
			vertex -0.0555555522441864 0.014277377165853977 0.036741625517606735
			vertex -0.0555555522441864 0.00262987008318305 0.036741625517606735
			vertex 0.0027269022539258003 0.005024248268455267 0.036741625517606735
		endloop
	endfacet
	facet normal 0 0 1
		outer loop
			vertex -0.0555555522441864 0.014277377165853977 0.036741625517606735
			vertex 0.0027269022539258003 0.005024248268455267 0.036741625517606735
			vertex 0.026959622278809547 0.04967237263917923 0.036741625517606735
		endloop
	endfacet
	facet normal 0 0 1
		outer loop
			vertex 0.0555555522441864 0.0071945576928555965 0.036741625517606735
			vertex 0.0555555522441864 0.05884454399347305 0.036741625517606735
			vertex 0.04983340576291084 0.059484101831912994 0.036741625517606735
		endloop
	endfacet
	facet normal 0 0 1
		outer loop
			vertex 0.0555555522441864 0.0071945576928555965 0.036741625517606735
			vertex 0.04983340576291084 0.059484101831912994 0.036741625517606735
			vertex 0.026959622278809547 0.04967237263917923 0.036741625517606735
		endloop
	endfacet
	facet normal 0 0 1
		outer loop
			vertex 0.0555555522441864 0.0071945576928555965 0.036741625517606735
			vertex 0.026959622278809547 0.04967237263917923 0.036741625517606735
			vertex 0.0027269022539258003 0.005024248268455267 0.036741625517606735
		endloop
	endfacet
	facet normal 0 0 1
		outer loop
			vertex -0.0555555522441864 0.07126349955797195 0.036741625517606735
			vertex -0.0555555522441864 0.014277377165853977 0.036741625517606735
			vertex 0.026959622278809547 0.04967237263917923 0.036741625517606735
		endloop
	endfacet
	facet normal 0 0 1
		outer loop
			vertex -0.0555555522441864 0.07126349955797195 0.036741625517606735
			vertex 0.026959622278809547 0.04967237263917923 0.036741625517606735
			vertex 0.03328859806060791 0.06133333593606949 0.036741625517606735
		endloop
	endfacet
	facet normal 0 0 1
		outer loop
			vertex 0.04983340576291084 0.059484101831912994 0.036741625517606735
			vertex 0.03328859806060791 0.06133333593606949 0.036741625517606735
			vertex 0.026959622278809547 0.04967237263917923 0.036741625517606735
		endloop
	endfacet
	facet normal 0 0 1
		outer loop
			vertex 0.0555555522441864 0.05884454399347305 0.036741625517606735
			vertex 0.0555555522441864 0.06193862110376358 0.036741625517606735
			vertex 0.04983340576291084 0.059484101831912994 0.036741625517606735
		endloop
	endfacet
	facet normal 0 0 1
		outer loop
			vertex -0.0555555522441864 0.10202724486589432 0.036741625517606735
			vertex -0.0555555522441864 0.07126349955797195 0.036741625517606735
			vertex 0.03328859806060791 0.06133333593606949 0.036741625517606735
		endloop
	endfacet
	facet normal 0 0 1
		outer loop
			vertex -0.0555555522441864 0.10202724486589432 0.036741625517606735
			vertex 0.03328859806060791 0.06133333593606949 0.036741625517606735
			vertex 0.05537516996264458 0.10202724486589432 0.036741625517606735
		endloop
	endfacet
	facet normal 0 0 1
		outer loop
			vertex 0.0555555522441864 0.06193862110376358 0.036741625517606735
			vertex 0.0555555522441864 0.10202724486589432 0.036741625517606735
			vertex 0.05537516996264458 0.10202724486589432 0.036741625517606735
		endloop
	endfacet
	facet normal 0 0 1
		outer loop
			vertex 0.0555555522441864 0.06193862110376358 0.036741625517606735
			vertex 0.05537516996264458 0.10202724486589432 0.036741625517606735
			vertex 0.03328859806060791 0.06133333593606949 0.036741625517606735
		endloop
	endfacet
	facet normal 0 0 1
		outer loop
			vertex 0.0555555522441864 0.06193862110376358 0.036741625517606735
			vertex 0.03328859806060791 0.06133333593606949 0.036741625517606735
			vertex 0.04983340576291084 0.059484101831912994 0.036741625517606735
		endloop
	endfacet
	facet normal 0 0 -1
		outer loop
			vertex 0.0555555522441864 -0.07656233757734299 -0.036741629242897034
			vertex 0.0555555522441864 -0.1023595854640007 -0.036741629242897034
			vertex 0.03965464234352112 -0.07306259125471115 -0.036741629242897034
		endloop
	endfacet
	facet normal 0 0 -1
		outer loop
			vertex 0.0555555522441864 -0.1023595854640007 -0.036741629242897034
			vertex -0.0555555522441864 -0.1023595854640007 -0.036741629242897034
			vertex -0.0555555522441864 -0.052107103168964386 -0.036741629242897034
		endloop
	endfacet
	facet normal 0 0 -1
		outer loop
			vertex 0.0555555522441864 -0.1023595854640007 -0.036741629242897034
			vertex -0.0555555522441864 -0.052107103168964386 -0.036741629242897034
			vertex 0.03965464234352112 -0.07306259125471115 -0.036741629242897034
		endloop
	endfacet
	facet normal 0 0 -1
		outer loop
			vertex 0.0555555522441864 -0.0693603977560997 -0.036741629242897034
			vertex 0.0555555522441864 -0.07656233757734299 -0.036741629242897034
			vertex 0.03965464234352112 -0.07306259125471115 -0.036741629242897034
		endloop
	endfacet
	facet normal 0 0 -1
		outer loop
			vertex 0.0555555522441864 -0.0693603977560997 -0.036741629242897034
			vertex 0.03965464234352112 -0.07306259125471115 -0.036741629242897034
			vertex 0.034663960337638855 -0.06386739760637283 -0.036741629242897034
		endloop
	endfacet
	facet normal 0 0 -1
		outer loop
			vertex -0.0555555522441864 -0.052107103168964386 -0.036741629242897034
			vertex -0.0555555522441864 -0.040146104991436005 -0.036741629242897034
			vertex 0.034663960337638855 -0.06386739760637283 -0.036741629242897034
		endloop
	endfacet
	facet normal 0 0 -1
		outer loop
			vertex -0.0555555522441864 -0.052107103168964386 -0.036741629242897034
			vertex 0.034663960337638855 -0.06386739760637283 -0.036741629242897034
			vertex 0.03965464234352112 -0.07306259125471115 -0.036741629242897034
		endloop
	endfacet
	facet normal 0 0 -1
		outer loop
			vertex 0.0555555522441864 -0.0423855260014534 -0.036741629242897034
			vertex 0.0555555522441864 -0.0693603977560997 -0.036741629242897034
			vertex 0.034663960337638855 -0.06386739760637283 -0.036741629242897034
		endloop
	endfacet
	facet normal 0 0 -1
		outer loop
			vertex 0.0555555522441864 -0.0423855260014534 -0.036741629242897034
			vertex 0.034663960337638855 -0.06386739760637283 -0.036741629242897034
			vertex 0.02615298330783844 -0.04818614572286606 -0.036741629242897034
		endloop
	endfacet
	facet normal 0 0 -1
		outer loop
			vertex 0.02615298330783844 -0.04818614572286606 -0.036741629242897034
			vertex 0.034663960337638855 -0.06386739760637283 -0.036741629242897034
			vertex -0.0030584956984966993 -0.053949080407619476 -0.036741629242897034
		endloop
	endfacet
	facet normal 0 0 -1
		outer loop
			vertex 0.0555555522441864 -0.030169596895575523 -0.036741629242897034
			vertex 0.0555555522441864 -0.0423855260014534 -0.036741629242897034
			vertex 0.02615298330783844 -0.04818614572286606 -0.036741629242897034
		endloop
	endfacet
	facet normal 0 0 -1
		outer loop
			vertex 0.0555555522441864 -0.030169596895575523 -0.036741629242897034
			vertex 0.02615298330783844 -0.04818614572286606 -0.036741629242897034
			vertex 0.017229096964001656 -0.03174414485692978 -0.036741629242897034
		endloop
	endfacet
	facet normal 0 0 -1
		outer loop
			vertex -0.0555555522441864 -0.040146104991436005 -0.036741629242897034
			vertex -0.0555555522441864 -0.03473428636789322 -0.036741629242897034
			vertex 0.017229096964001656 -0.03174414485692978 -0.036741629242897034
		endloop
	endfacet
	facet normal 0 0 -1
		outer loop
			vertex -0.0555555522441864 -0.040146104991436005 -0.036741629242897034
			vertex 0.017229096964001656 -0.03174414485692978 -0.036741629242897034
			vertex 0.02615298330783844 -0.04818614572286606 -0.036741629242897034
		endloop
	endfacet
	facet normal 0 0 -1
		outer loop
			vertex -0.0555555522441864 -0.040146104991436005 -0.036741629242897034
			vertex 0.02615298330783844 -0.04818614572286606 -0.036741629242897034
			vertex -0.0030584956984966993 -0.053949080407619476 -0.036741629242897034
		endloop
	endfacet
	facet normal 0 0 -1
		outer loop
			vertex -0.0555555522441864 -0.03473428636789322 -0.036741629242897034
			vertex -0.0555555522441864 -0.03268658369779587 -0.036741629242897034
			vertex -0.00431743124499917 -0.025984903797507286 -0.036741629242897034
		endloop
	endfacet
	facet normal 0 0 -1
		outer loop
			vertex -0.0555555522441864 -0.03473428636789322 -0.036741629242897034
			vertex -0.00431743124499917 -0.025984903797507286 -0.036741629242897034
			vertex 0.013898449949920177 -0.03188096731901169 -0.036741629242897034
		endloop
	endfacet
	facet normal 0 0 -1
		outer loop
			vertex -0.00431743124499917 -0.025984903797507286 -0.036741629242897034
			vertex -0.0029608746990561485 -0.025807475671172142 -0.036741629242897034
			vertex 0.014977378770709038 -0.03183663636445999 -0.036741629242897034
		endloop
	endfacet
	facet normal 0 0 -1
		outer loop
			vertex -0.00431743124499917 -0.025984903797507286 -0.036741629242897034
			vertex 0.014977378770709038 -0.03183663636445999 -0.036741629242897034
			vertex 0.013898449949920177 -0.03188096731901169 -0.036741629242897034
		endloop
	endfacet
	facet normal 0 0 -1
		outer loop
			vertex 0.0555555522441864 -0.018153807148337364 -0.036741629242897034
			vertex 0.0555555522441864 -0.030169596895575523 -0.036741629242897034
			vertex 0.017229096964001656 -0.03174414485692978 -0.036741629242897034
		endloop
	endfacet
	facet normal 0 0 -1
		outer loop
			vertex 0.0555555522441864 -0.018153807148337364 -0.036741629242897034
			vertex 0.017229096964001656 -0.03174414485692978 -0.036741629242897034
			vertex 0.012882288545370102 -0.023735245689749718 -0.036741629242897034
		endloop
	endfacet
	facet normal 0 0 -1
		outer loop
			vertex -0.0029608746990561485 -0.025807475671172142 -0.036741629242897034
			vertex 0.012882288545370102 -0.023735245689749718 -0.036741629242897034
			vertex 0.017229096964001656 -0.03174414485692978 -0.036741629242897034
		endloop
	endfacet
	facet normal 0 0 -1
		outer loop
			vertex -0.0029608746990561485 -0.025807475671172142 -0.036741629242897034
			vertex 0.017229096964001656 -0.03174414485692978 -0.036741629242897034
			vertex 0.014977378770709038 -0.03183663636445999 -0.036741629242897034
		endloop
	endfacet
	facet normal 0 0 -1
		outer loop
			vertex 0.0555555522441864 0.037001170217990875 -0.036741629242897034
			vertex 0.0555555522441864 -0.018153807148337364 -0.036741629242897034
			vertex 0.012882288545370102 -0.023735245689749718 -0.036741629242897034
		endloop
	endfacet
	facet normal 0 0 -1
		outer loop
			vertex 0.0555555522441864 0.037001170217990875 -0.036741629242897034
			vertex 0.012882288545370102 -0.023735245689749718 -0.036741629242897034
			vertex -0.005798362195491791 0.01068332139402628 -0.036741629242897034
		endloop
	endfacet
	facet normal 0 0 -1
		outer loop
			vertex -0.0555555522441864 -0.03268658369779587 -0.036741629242897034
			vertex -0.0555555522441864 -0.010660088621079922 -0.036741629242897034
			vertex -0.005798362195491791 0.01068332139402628 -0.036741629242897034
		endloop
	endfacet
	facet normal 0 0 -1
		outer loop
			vertex -0.0555555522441864 -0.03268658369779587 -0.036741629242897034
			vertex -0.005798362195491791 0.01068332139402628 -0.036741629242897034
			vertex 0.012882288545370102 -0.023735245689749718 -0.036741629242897034
		endloop
	endfacet
	facet normal 0 0 -1
		outer loop
			vertex 0.0555555522441864 0.05403933674097061 -0.036741629242897034
			vertex 0.0555555522441864 0.037001170217990875 -0.036741629242897034
			vertex -0.005798362195491791 0.01068332139402628 -0.036741629242897034
		endloop
	endfacet
	facet normal 0 0 -1
		outer loop
			vertex 0.0555555522441864 0.05403933674097061 -0.036741629242897034
			vertex -0.005798362195491791 0.01068332139402628 -0.036741629242897034
			vertex -0.03481178358197212 0.06413976103067398 -0.036741629242897034
		endloop
	endfacet
	facet normal 0 0 -1
		outer loop
			vertex -0.0555555522441864 -0.010660088621079922 -0.036741629242897034
			vertex -0.0555555522441864 0.06645829230546951 -0.036741629242897034
			vertex -0.03481178358197212 0.06413976103067398 -0.036741629242897034
		endloop
	endfacet
	facet normal 0 0 -1
		outer loop
			vertex -0.0555555522441864 -0.010660088621079922 -0.036741629242897034
			vertex -0.03481178358197212 0.06413976103067398 -0.036741629242897034
			vertex -0.005798362195491791 0.01068332139402628 -0.036741629242897034
		endloop
	endfacet
	facet normal 0 0 -1
		outer loop
			vertex 0.0555555522441864 0.0867324247956276 -0.036741629242897034
			vertex 0.0555555522441864 0.05403933674097061 -0.036741629242897034
			vertex -0.03481178358197212 0.06413976103067398 -0.036741629242897034
		endloop
	endfacet
	facet normal 0 0 -1
		outer loop
			vertex 0.0555555522441864 0.0867324247956276 -0.036741629242897034
			vertex -0.03481178358197212 0.06413976103067398 -0.036741629242897034
			vertex -0.05537516996264458 0.10202724486589432 -0.036741629242897034
		endloop
	endfacet
	facet normal 0 0 -1
		outer loop
			vertex 0.0555555522441864 0.0867324247956276 -0.036741629242897034
			vertex -0.05537516996264458 0.10202724486589432 -0.036741629242897034
			vertex -0.017586948350071907 0.10202724486589432 -0.036741629242897034
		endloop
	endfacet
	facet normal 0 0 -1
		outer loop
			vertex -0.0555555522441864 0.06645829230546951 -0.036741629242897034
			vertex -0.0555555522441864 0.10202724486589432 -0.036741629242897034
			vertex -0.05537516996264458 0.10202724486589432 -0.036741629242897034
		endloop
	endfacet
	facet normal 0 0 -1
		outer loop
			vertex -0.0555555522441864 0.06645829230546951 -0.036741629242897034
			vertex -0.05537516996264458 0.10202724486589432 -0.036741629242897034
			vertex -0.03481178358197212 0.06413976103067398 -0.036741629242897034
		endloop
	endfacet
	facet normal 0 0 -1
		outer loop
			vertex 0.0555555522441864 0.10202724486589432 -0.036741629242897034
			vertex 0.0555555522441864 0.0867324247956276 -0.036741629242897034
			vertex -0.017586948350071907 0.10202724486589432 -0.036741629242897034
		endloop
	endfacet
endsolid exported
