solid exported
	facet normal 0.17569373850601905 -0.8046718117627696 -0.5671287204896263
		outer loop
			vertex 0.0555555522441864 -0.0710933580994606 0.036741625517606735
			vertex 0.03634228929877281 -0.07528842240571976 0.036741625517606735
			vertex 0.0555555522441864 -0.050978802144527435 0.008202044293284416
		endloop
	endfacet
	facet normal -0.5813254666525232 0.06412129106484236 -0.8111406547901565
		outer loop
			vertex 0.0555555522441864 -0.038078583776950836 0.007928473874926567
			vertex 0.012660307809710503 -0.062478892505168915 0.036741625517606735
			vertex 0.012984986416995525 -0.059535346925258636 0.036741625517606735
		endloop
	endfacet
	facet normal -0.5813256100112268 0.06412176362088619 -0.8111405146922587
		outer loop
			vertex 0.0555555522441864 -0.038078583776950836 0.007928473874926567
			vertex 0.012984986416995525 -0.059535346925258636 0.036741625517606735
			vertex 0.0555555522441864 -0.030704474076628685 0.008511407300829887
		endloop
	endfacet
	facet normal 0.0005817396004871591 -0.7000629258665906 -0.7140809207688901
		outer loop
			vertex 0.0555555522441864 -0.014437681995332241 -0.007436054293066263
			vertex 0.0555555522441864 -0.030704474076628685 0.008511407300829887
			vertex 0.012984986416995525 -0.059535346925258636 0.036741625517606735
		endloop
	endfacet
	facet normal 0.0005811708533772515 -0.7000626522329375 -0.7140811894939009
		outer loop
			vertex 0.0555555522441864 -0.014437681995332241 -0.007436054293066263
			vertex 0.012984986416995525 -0.059535346925258636 0.036741625517606735
			vertex -0.005431236233562231 -0.059550635516643524 0.036741625517606735
		endloop
	endfacet
	facet normal 0.0005814786572214061 -0.7000628644042014 -0.7140809812372515
		outer loop
			vertex 0.0555555522441864 -0.014437681995332241 -0.007436054293066263
			vertex -0.005431236233562231 -0.059550635516643524 0.036741625517606735
			vertex 0.020032696425914764 0.0028076856397092342 -0.024371804669499397
		endloop
	endfacet
	facet normal 0.5274316785503591 0.0516828055210361 -0.8480240044214702
		outer loop
			vertex -0.0555555522441864 -0.051064930856227875 0.02838168852031231
			vertex -0.041279710829257965 -0.05958040803670883 0.036741625517606735
			vertex -0.041030701249837875 -0.062121592462062836 0.036741625517606735
		endloop
	endfacet
	facet normal 0.5274313517330267 0.05168219433738058 -0.8480242449349816
		outer loop
			vertex -0.0555555522441864 -0.051064930856227875 0.02838168852031231
			vertex -0.041030701249837875 -0.062121592462062836 0.036741625517606735
			vertex -0.0555555522441864 -0.054674066603183746 0.028161732479929924
		endloop
	endfacet
	facet normal 0.1557902062644892 -0.9406697197314688 -0.30144633023539713
		outer loop
			vertex -0.0555555522441864 -0.004615104291588068 -0.017156274989247322
			vertex -0.0555555522441864 0.0016612051986157894 -0.03674163296818733
			vertex -0.00173876469489187 0.010574140585958958 -0.03674163296818733
		endloop
	endfacet
	facet normal 0.1557875014397314 -0.9406681708497883 -0.30145256135133314
		outer loop
			vertex -0.0555555522441864 -0.004615104291588068 -0.017156274989247322
			vertex -0.00173876469489187 0.010574140585958958 -0.03674163296818733
			vertex 0.0069002918899059296 0.011939712800085545 -0.0365382619202137
		endloop
	endfacet
	facet normal 0.15579056462235227 -0.9406702559832191 -0.30144447164131927
		outer loop
			vertex -0.0555555522441864 -0.004615104291588068 -0.017156274989247322
			vertex 0.0069002918899059296 0.011939712800085545 -0.0365382619202137
			vertex 0.005166145972907543 0.010025002993643284 -0.03145955875515938
		endloop
	endfacet
	facet normal 0.08909028984063311 -0.42980042422583764 -0.8985179550745784
		outer loop
			vertex 0.006198033224791288 0.012219303287565708 -0.03674163296818733
			vertex 0.0069002918899059296 0.011939712800085545 -0.0365382619202137
			vertex -0.00173876469489187 0.010574140585958958 -0.03674163296818733
		endloop
	endfacet
	facet normal 0.1620171135855893 -0.5928270678145049 -0.7888640710362279
		outer loop
			vertex -0.0555555522441864 -0.06609117239713669 0.036741625517606735
			vertex -0.0555555522441864 -0.054674066603183746 0.028161732479929924
			vertex -0.041030701249837875 -0.062121592462062836 0.036741625517606735
		endloop
	endfacet
	facet normal 0.5274336727065483 0.051687264059782204 -0.8480224924076579
		outer loop
			vertex -0.0555555522441864 -0.05008230358362198 0.028441576287150383
			vertex -0.04134826362133026 -0.058880873024463654 0.036741625517606735
			vertex -0.041279710829257965 -0.05958040803670883 0.036741625517606735
		endloop
	endfacet
	facet normal 0.5274322242670199 0.051684133031801895 -0.8480235841045315
		outer loop
			vertex -0.0555555522441864 -0.05008230358362198 0.028441576287150383
			vertex -0.041279710829257965 -0.05958040803670883 0.036741625517606735
			vertex -0.0555555522441864 -0.051064930856227875 0.02838168852031231
		endloop
	endfacet
	facet normal 0.15579077034507424 -0.9406703144276082 -0.30144418294263603
		outer loop
			vertex 0.0049823266454041 0.009822049178183079 -0.0309212077409029
			vertex -0.0555555522441864 -0.005255302879959345 -0.015158506110310555
			vertex -0.0555555522441864 -0.004615104291588068 -0.017156274989247322
		endloop
	endfacet
	facet normal 0.15579483434848593 -0.9406740974088673 -0.30143027726879185
		outer loop
			vertex 0.0049823266454041 0.009822049178183079 -0.0309212077409029
			vertex -0.0555555522441864 -0.004615104291588068 -0.017156274989247322
			vertex 0.005166145972907543 0.010025002993643284 -0.03145955875515938
		endloop
	endfacet
	facet normal -0.013000468711448457 -0.6971698120077994 -0.7167881423672495
		outer loop
			vertex 0.020032696425914764 0.0028076856397092342 -0.024371804669499397
			vertex -0.005431236233562231 -0.059550635516643524 0.036741625517606735
			vertex -0.04134826362133026 -0.058880873024463654 0.036741625517606735
		endloop
	endfacet
	facet normal -0.013001291289618869 -0.6971693876477779 -0.7167885401927301
		outer loop
			vertex 0.020032696425914764 0.0028076856397092342 -0.024371804669499397
			vertex -0.04134826362133026 -0.058880873024463654 0.036741625517606735
			vertex -0.0555555522441864 -0.05008230358362198 0.028441576287150383
		endloop
	endfacet
	facet normal -0.01300086788003144 -0.6971696985153734 -0.7167882455135195
		outer loop
			vertex 0.020032696425914764 0.0028076856397092342 -0.024371804669499397
			vertex -0.0555555522441864 -0.05008230358362198 0.028441576287150383
			vertex -0.0555555522441864 -0.005255302879959345 -0.015158506110310555
		endloop
	endfacet
	facet normal -0.013000850530586031 -0.6971697757183928 -0.7167881707382227
		outer loop
			vertex 0.020032696425914764 0.0028076856397092342 -0.024371804669499397
			vertex -0.0555555522441864 -0.005255302879959345 -0.015158506110310555
			vertex 0.0049823266454041 0.009822049178183079 -0.0309212077409029
		endloop
	endfacet
	facet normal 1 0 0
		outer loop
			vertex 0.0555555522441864 -0.0249741580337286 0.008964402601122856
			vertex 0.0555555522441864 -0.02151336334645748 0.007722151931375265
			vertex 0.0555555522441864 -0.022195732221007347 0.009184015914797783
		endloop
	endfacet
	facet normal 1 0 0
		outer loop
			vertex 0.0555555522441864 -0.014437681995332241 -0.007436054293066263
			vertex 0.0555555522441864 -0.02151336334645748 0.007722151931375265
			vertex 0.0555555522441864 -0.0249741580337286 0.008964402601122856
		endloop
	endfacet
	facet normal 1 0 0
		outer loop
			vertex 0.0555555522441864 -0.014437681995332241 -0.007436054293066263
			vertex 0.0555555522441864 -0.0249741580337286 0.008964402601122856
			vertex 0.0555555522441864 -0.030704474076628685 0.008511407300829887
		endloop
	endfacet
	facet normal -0.4450012930183176 0.8071442723626516 0.3879329488509468
		outer loop
			vertex 0.0555555522441864 -0.050978802144527435 0.008202044293284416
			vertex 0.03634228929877281 -0.07528842240571976 0.036741625517606735
			vertex 0.03931577503681183 -0.07364905625581741 0.036741625517606735
		endloop
	endfacet
	facet normal -0.4450018374967492 0.8071441628819738 0.3879325520629519
		outer loop
			vertex 0.0555555522441864 -0.050978802144527435 0.008202044293284416
			vertex 0.03931577503681183 -0.07364905625581741 0.036741625517606735
			vertex 0.0555555522441864 -0.05704570561647415 0.02082502655684948
		endloop
	endfacet
	facet normal -0.22934576607029242 -0.5472899670612448 -0.8049063371223588
		outer loop
			vertex 0.0555555522441864 -0.05704570561647415 0.02082502655684948
			vertex 0.03931577503681183 -0.07364905625581741 0.036741625517606735
			vertex 0.012660307809710503 -0.062478892505168915 0.036741625517606735
		endloop
	endfacet
	facet normal -0.2293457467324853 -0.5472900234850594 -0.8049063042674234
		outer loop
			vertex 0.0555555522441864 -0.05704570561647415 0.02082502655684948
			vertex 0.012660307809710503 -0.062478892505168915 0.036741625517606735
			vertex 0.0555555522441864 -0.038078583776950836 0.007928473874926567
		endloop
	endfacet
	facet normal 1 0 0
		outer loop
			vertex 0.0555555522441864 -0.06004475802183151 0.02706497721374035
			vertex 0.0555555522441864 -0.05704570561647415 0.02082502655684948
			vertex 0.0555555522441864 -0.05595948547124863 0.02008648030459881
		endloop
	endfacet
	facet normal 1 0 0
		outer loop
			vertex 0.0555555522441864 -0.06004475802183151 0.02706497721374035
			vertex 0.0555555522441864 -0.05595948547124863 0.02008648030459881
			vertex 0.0555555522441864 -0.02535725198686123 0.009101895615458488
		endloop
	endfacet
	facet normal 1 0 0
		outer loop
			vertex 0.0555555522441864 -0.02535725198686123 0.009101895615458488
			vertex 0.0555555522441864 -0.05595948547124863 0.02008648030459881
			vertex 0.0555555522441864 -0.038078583776950836 0.007928473874926567
		endloop
	endfacet
	facet normal 1 0 0
		outer loop
			vertex 0.0555555522441864 -0.02535725198686123 0.009101895615458488
			vertex 0.0555555522441864 -0.038078583776950836 0.007928473874926567
			vertex 0.0555555522441864 -0.025076156482100487 0.008956341072916985
		endloop
	endfacet
	facet normal 1 0 0
		outer loop
			vertex 0.0555555522441864 -0.035059310495853424 0.036741625517606735
			vertex 0.0555555522441864 -0.0646955743432045 0.036741625517606735
			vertex 0.0555555522441864 -0.06004475802183151 0.02706497721374035
		endloop
	endfacet
	facet normal 1 0 0
		outer loop
			vertex 0.0555555522441864 -0.035059310495853424 0.036741625517606735
			vertex 0.0555555522441864 -0.06004475802183151 0.02706497721374035
			vertex 0.0555555522441864 -0.02535725198686123 0.009101895615458488
		endloop
	endfacet
	facet normal 1 0 0
		outer loop
			vertex 0.0555555522441864 -0.035059310495853424 0.036741625517606735
			vertex 0.0555555522441864 -0.02535725198686123 0.009101895615458488
			vertex 0.0555555522441864 -0.0249741580337286 0.008964402601122856
		endloop
	endfacet
	facet normal 1 0 0
		outer loop
			vertex 0.0555555522441864 -0.035059310495853424 0.036741625517606735
			vertex 0.0555555522441864 -0.0249741580337286 0.008964402601122856
			vertex 0.0555555522441864 -0.022195732221007347 0.009184015914797783
		endloop
	endfacet
	facet normal 1 0 0
		outer loop
			vertex 0.0555555522441864 -0.0249741580337286 0.008964402601122856
			vertex 0.0555555522441864 -0.02535725198686123 0.009101895615458488
			vertex 0.0555555522441864 -0.025076156482100487 0.008956341072916985
		endloop
	endfacet
	facet normal 1 0 0
		outer loop
			vertex 0.0555555522441864 -0.0646955743432045 0.036741625517606735
			vertex 0.0555555522441864 -0.0710933580994606 0.036741625517606735
			vertex 0.0555555522441864 -0.06050477176904678 0.021717993542551994
		endloop
	endfacet
	facet normal 1 0 0
		outer loop
			vertex 0.0555555522441864 -0.0646955743432045 0.036741625517606735
			vertex 0.0555555522441864 -0.06050477176904678 0.021717993542551994
			vertex 0.0555555522441864 -0.05684318393468857 0.020403681322932243
		endloop
	endfacet
	facet normal 1 0 0
		outer loop
			vertex 0.0555555522441864 -0.05684318393468857 0.020403681322932243
			vertex 0.0555555522441864 -0.06050477176904678 0.021717993542551994
			vertex 0.0555555522441864 -0.050978802144527435 0.008202044293284416
		endloop
	endfacet
	facet normal 0 1 0
		outer loop
			vertex -0.0555555522441864 0.10202724486589432 -0.03674163296818733
			vertex -0.0555555522441864 0.10202724486589432 0.036741625517606735
			vertex 0.0555555522441864 0.10202724486589432 0.036741625517606735
		endloop
	endfacet
	facet normal 0 1 0
		outer loop
			vertex -0.0555555522441864 0.10202724486589432 -0.03674163296818733
			vertex 0.0555555522441864 0.10202724486589432 0.036741625517606735
			vertex 0.0555555522441864 0.10202724486589432 -0.03674163296818733
		endloop
	endfacet
	facet normal -0.29272900433430005 -0.9043845909868412 -0.31048066221105186
		outer loop
			vertex 0.0555555522441864 0.0050901263020932674 -0.03674163296818733
			vertex 0.0555555522441864 -0.00016794216935522854 -0.021425651386380196
			vertex 0.024925224483013153 0.014788963831961155 -0.03611387684941292
		endloop
	endfacet
	facet normal -0.2927299995583385 -0.9043885391646227 -0.3104682231505424
		outer loop
			vertex 0.0555555522441864 0.0050901263020932674 -0.03674163296818733
			vertex 0.024925224483013153 0.014788963831961155 -0.03611387684941292
			vertex 0.028610961511731148 0.013811477459967136 -0.03674163296818733
		endloop
	endfacet
	facet normal 0.0005818095301833677 -0.7000625170308562 -0.7140813215216408
		outer loop
			vertex 0.0555555522441864 -0.00016794216935522854 -0.021425651386380196
			vertex 0.0555555522441864 -0.014437681995332241 -0.007436054293066263
			vertex 0.020032696425914764 0.0028076856397092342 -0.024371804669499397
		endloop
	endfacet
	facet normal 0.0005818287507386112 -0.7000624005878283 -0.7140814356629865
		outer loop
			vertex 0.0555555522441864 -0.00016794216935522854 -0.021425651386380196
			vertex 0.020032696425914764 0.0028076856397092342 -0.024371804669499397
			vertex 0.024925224483013153 0.014788963831961155 -0.03611387684941292
		endloop
	endfacet
	facet normal 0.15579164563858802 -0.9406702017829589 -0.30144408208957807
		outer loop
			vertex 0.024925224483013153 0.014788963831961155 -0.03611387684941292
			vertex 0.005166145972907543 0.010025002993643284 -0.03145955875515938
			vertex 0.0069002918899059296 0.011939712800085545 -0.0365382619202137
		endloop
	endfacet
	facet normal 0.08910088771590939 -0.42984238299426 -0.8984968322648962
		outer loop
			vertex 0.021670786663889885 0.015426554717123508 -0.03674163296818733
			vertex 0.024925224483013153 0.014788963831961155 -0.03611387684941292
			vertex 0.0069002918899059296 0.011939712800085545 -0.0365382619202137
		endloop
	endfacet
	facet normal 0.08909056441528007 -0.42979989789507 -0.8985181796166143
		outer loop
			vertex 0.021670786663889885 0.015426554717123508 -0.03674163296818733
			vertex 0.0069002918899059296 0.011939712800085545 -0.0365382619202137
			vertex 0.006198033224791288 0.012219303287565708 -0.03674163296818733
		endloop
	endfacet
	facet normal 0.15579591534319398 -0.9406740431982713 -0.30142988772746654
		outer loop
			vertex 0.024925224483013153 0.014788963831961155 -0.03611387684941292
			vertex 0.0049823266454041 0.009822049178183079 -0.0309212077409029
			vertex 0.005166145972907543 0.010025002993643284 -0.03145955875515938
		endloop
	endfacet
	facet normal -0.013000414243347146 -0.6971692890020146 -0.7167886520460036
		outer loop
			vertex 0.024925224483013153 0.014788963831961155 -0.03611387684941292
			vertex 0.020032696425914764 0.0028076856397092342 -0.024371804669499397
			vertex 0.0049823266454041 0.009822049178183079 -0.0309212077409029
		endloop
	endfacet
	facet normal 1 0 0
		outer loop
			vertex 0.0555555522441864 -0.022195732221007347 0.009184015914797783
			vertex 0.0555555522441864 -0.02151336334645748 0.007722151931375265
			vertex 0.0555555522441864 -0.008580929599702358 0.0030800974927842617
		endloop
	endfacet
	facet normal 1 0 0
		outer loop
			vertex 0.0555555522441864 -0.022195732221007347 0.009184015914797783
			vertex 0.0555555522441864 -0.008580929599702358 0.0030800974927842617
			vertex 0.0555555522441864 -0.010980806313455105 0.01007056050002575
		endloop
	endfacet
	facet normal 1 0 0
		outer loop
			vertex 0.0555555522441864 -0.00016794216935522854 -0.021425651386380196
			vertex 0.0555555522441864 -0.008580929599702358 0.0030800974927842617
			vertex 0.0555555522441864 -0.02151336334645748 0.007722151931375265
		endloop
	endfacet
	facet normal 1 0 0
		outer loop
			vertex 0.0555555522441864 -0.00016794216935522854 -0.021425651386380196
			vertex 0.0555555522441864 -0.02151336334645748 0.007722151931375265
			vertex 0.0555555522441864 -0.014437681995332241 -0.007436054293066263
		endloop
	endfacet
	facet normal 0.08910333213415803 -0.4298337388730455 -0.898500725168883
		outer loop
			vertex 0.022859737277030945 0.015673020854592323 -0.03674163296818733
			vertex 0.024925224483013153 0.014788963831961155 -0.03611387684941292
			vertex 0.021670786663889885 0.015426554717123508 -0.03674163296818733
		endloop
	endfacet
	facet normal 1 0 0
		outer loop
			vertex 0.0555555522441864 -0.02013716660439968 0.036741625517606735
			vertex 0.0555555522441864 -0.035059310495853424 0.036741625517606735
			vertex 0.0555555522441864 -0.022195732221007347 0.009184015914797783
		endloop
	endfacet
	facet normal 1 0 0
		outer loop
			vertex 0.0555555522441864 -0.02013716660439968 0.036741625517606735
			vertex 0.0555555522441864 -0.022195732221007347 0.009184015914797783
			vertex 0.0555555522441864 -0.010980806313455105 0.01007056050002575
		endloop
	endfacet
	facet normal -0.39624743295426806 -0.5740832463900658 -0.7165308074963671
		outer loop
			vertex 0.025417238473892212 0.01523288432508707 -0.03674163296818733
			vertex 0.024925224483013153 0.014788963831961155 -0.03611387684941292
			vertex 0.024834102019667625 0.015635380521416664 -0.03674163296818733
		endloop
	endfacet
	facet normal -0.20916315880873837 -0.5969566836809895 -0.7745279148008454
		outer loop
			vertex 0.024834102019667625 0.015635380521416664 -0.03674163296818733
			vertex 0.024925224483013153 0.014788963831961155 -0.03611387684941292
			vertex 0.02403274178504944 0.015916163101792336 -0.03674163296818733
		endloop
	endfacet
	facet normal 0.08909844393650078 -0.42984252057592726 -0.898497008783573
		outer loop
			vertex 0.02403274178504944 0.015916163101792336 -0.03674163296818733
			vertex 0.024925224483013153 0.014788963831961155 -0.03611387684941292
			vertex 0.022859737277030945 0.015673020854592323 -0.03674163296818733
		endloop
	endfacet
	facet normal -0.29262880239517647 -0.657500234928045 -0.694306722622164
		outer loop
			vertex 0.028610961511731148 0.013811477459967136 -0.03674163296818733
			vertex 0.024925224483013153 0.014788963831961155 -0.03611387684941292
			vertex 0.025417238473892212 0.01523288432508707 -0.03674163296818733
		endloop
	endfacet
	facet normal 1 0 0
		outer loop
			vertex 0.0555555522441864 -0.01997864805161953 0.036741625517606735
			vertex 0.0555555522441864 -0.02013716660439968 0.036741625517606735
			vertex 0.0555555522441864 -0.008580929599702358 0.0030800974927842617
		endloop
	endfacet
	facet normal 1 0 0
		outer loop
			vertex 0.0555555522441864 -0.01997864805161953 0.036741625517606735
			vertex 0.0555555522441864 -0.008580929599702358 0.0030800974927842617
			vertex 0.0555555522441864 -0.008258960209786892 0.002964538987725973
		endloop
	endfacet
	facet normal 1 0 0
		outer loop
			vertex 0.0555555522441864 0.0050901263020932674 -0.03674163296818733
			vertex 0.0555555522441864 0.0055179535411298275 -0.03674163296818733
			vertex 0.0555555522441864 -0.008258960209786892 0.002964538987725973
		endloop
	endfacet
	facet normal 1 0 0
		outer loop
			vertex 0.0555555522441864 0.0050901263020932674 -0.03674163296818733
			vertex 0.0555555522441864 -0.008258960209786892 0.002964538987725973
			vertex 0.0555555522441864 -0.008580929599702358 0.0030800974927842617
		endloop
	endfacet
	facet normal 1 0 0
		outer loop
			vertex 0.0555555522441864 0.01867794431746006 0.036741625517606735
			vertex 0.0555555522441864 -0.01997864805161953 0.036741625517606735
			vertex 0.0555555522441864 -0.008258960209786892 0.002964538987725973
		endloop
	endfacet
	facet normal 1 0 0
		outer loop
			vertex 0.0555555522441864 0.01867794431746006 0.036741625517606735
			vertex 0.0555555522441864 -0.008258960209786892 0.002964538987725973
			vertex 0.0555555522441864 0.04523160308599472 -0.016235725954174995
		endloop
	endfacet
	facet normal 1 0 0
		outer loop
			vertex 0.0555555522441864 0.0055179535411298275 -0.03674163296818733
			vertex 0.0555555522441864 0.044428952038288116 -0.03674163296818733
			vertex 0.0555555522441864 0.045707739889621735 -0.017185674980282784
		endloop
	endfacet
	facet normal 1 0 0
		outer loop
			vertex 0.0555555522441864 0.0055179535411298275 -0.03674163296818733
			vertex 0.0555555522441864 0.045707739889621735 -0.017185674980282784
			vertex 0.0555555522441864 0.04523160308599472 -0.016235725954174995
		endloop
	endfacet
	facet normal 1 0 0
		outer loop
			vertex 0.0555555522441864 0.0055179535411298275 -0.03674163296818733
			vertex 0.0555555522441864 0.04523160308599472 -0.016235725954174995
			vertex 0.0555555522441864 -0.008258960209786892 0.002964538987725973
		endloop
	endfacet
	facet normal 1 0 0
		outer loop
			vertex 0.0555555522441864 0.028756270185112953 0.016634298488497734
			vertex 0.0555555522441864 0.04523160308599472 -0.016235725954174995
			vertex 0.0555555522441864 0.045757509768009186 -0.01642450876533985
		endloop
	endfacet
	facet normal 1 0 0
		outer loop
			vertex 0.0555555522441864 0.028756270185112953 0.016634298488497734
			vertex 0.0555555522441864 0.045757509768009186 -0.01642450876533985
			vertex 0.0555555522441864 0.04686859995126724 0.0005667037912644446
		endloop
	endfacet
	facet normal 1 0 0
		outer loop
			vertex 0.0555555522441864 0.045707739889621735 -0.017185674980282784
			vertex 0.0555555522441864 0.045757509768009186 -0.01642450876533985
			vertex 0.0555555522441864 0.04523160308599472 -0.016235725954174995
		endloop
	endfacet
	facet normal 1 0 0
		outer loop
			vertex 0.0555555522441864 0.04923412948846817 0.036741625517606735
			vertex 0.0555555522441864 0.01867794431746006 0.036741625517606735
			vertex 0.0555555522441864 0.028756270185112953 0.016634298488497734
		endloop
	endfacet
	facet normal 1 0 0
		outer loop
			vertex 0.0555555522441864 0.04923412948846817 0.036741625517606735
			vertex 0.0555555522441864 0.028756270185112953 0.016634298488497734
			vertex 0.0555555522441864 0.04686859995126724 0.0005667037912644446
		endloop
	endfacet
	facet normal 1 0 0
		outer loop
			vertex 0.0555555522441864 0.044428952038288116 -0.03674163296818733
			vertex 0.0555555522441864 0.04669196158647537 -0.03674163296818733
			vertex 0.0555555522441864 0.049797095358371735 -0.025344373658299446
		endloop
	endfacet
	facet normal 1 0 0
		outer loop
			vertex 0.0555555522441864 0.044428952038288116 -0.03674163296818733
			vertex 0.0555555522441864 0.049797095358371735 -0.025344373658299446
			vertex 0.0555555522441864 0.045707739889621735 -0.017185674980282784
		endloop
	endfacet
	facet normal 1 0 0
		outer loop
			vertex 0.0555555522441864 0.045933909714221954 -0.013727085664868355
			vertex 0.0555555522441864 0.045757509768009186 -0.01642450876533985
			vertex 0.0555555522441864 0.05165094882249832 -0.018539922311902046
		endloop
	endfacet
	facet normal 1 0 0
		outer loop
			vertex 0.0555555522441864 0.045933909714221954 -0.013727085664868355
			vertex 0.0555555522441864 0.05165094882249832 -0.018539922311902046
			vertex 0.0555555522441864 0.05189106613397598 -0.01765860803425312
		endloop
	endfacet
	facet normal 1 0 0
		outer loop
			vertex 0.0555555522441864 0.049797095358371735 -0.025344373658299446
			vertex 0.0555555522441864 0.05165094882249832 -0.018539922311902046
			vertex 0.0555555522441864 0.045757509768009186 -0.01642450876533985
		endloop
	endfacet
	facet normal 1 0 0
		outer loop
			vertex 0.0555555522441864 0.049797095358371735 -0.025344373658299446
			vertex 0.0555555522441864 0.045757509768009186 -0.01642450876533985
			vertex 0.0555555522441864 0.045707739889621735 -0.017185674980282784
		endloop
	endfacet
	facet normal 1 0 0
		outer loop
			vertex 0.0555555522441864 0.04686859995126724 0.0005667037912644446
			vertex 0.0555555522441864 0.045933909714221954 -0.013727085664868355
			vertex 0.0555555522441864 0.05189106613397598 -0.01765860803425312
		endloop
	endfacet
	facet normal 1 0 0
		outer loop
			vertex 0.0555555522441864 0.04686859995126724 0.0005667037912644446
			vertex 0.0555555522441864 0.05189106613397598 -0.01765860803425312
			vertex 0.0555555522441864 0.05491236597299576 -0.00656900042667985
		endloop
	endfacet
	facet normal 1 0 0
		outer loop
			vertex 0.0555555522441864 0.06671220809221268 0.036741625517606735
			vertex 0.0555555522441864 0.04923412948846817 0.036741625517606735
			vertex 0.0555555522441864 0.04686859995126724 0.0005667037912644446
		endloop
	endfacet
	facet normal 1 0 0
		outer loop
			vertex 0.0555555522441864 0.06671220809221268 0.036741625517606735
			vertex 0.0555555522441864 0.04686859995126724 0.0005667037912644446
			vertex 0.0555555522441864 0.05491236597299576 -0.00656900042667985
		endloop
	endfacet
	facet normal 1 0 0
		outer loop
			vertex 0.0555555522441864 0.10202724486589432 0.036741625517606735
			vertex 0.0555555522441864 0.06671220809221268 0.036741625517606735
			vertex 0.0555555522441864 0.05165094882249832 -0.018539922311902046
		endloop
	endfacet
	facet normal 1 0 0
		outer loop
			vertex 0.0555555522441864 0.10202724486589432 0.036741625517606735
			vertex 0.0555555522441864 0.05165094882249832 -0.018539922311902046
			vertex 0.0555555522441864 0.10202724486589432 -0.03662233427166939
		endloop
	endfacet
	facet normal 1 0 0
		outer loop
			vertex 0.0555555522441864 0.04669196158647537 -0.03674163296818733
			vertex 0.0555555522441864 0.10202724486589432 -0.03674163296818733
			vertex 0.0555555522441864 0.10202724486589432 -0.03662233427166939
		endloop
	endfacet
	facet normal 1 0 0
		outer loop
			vertex 0.0555555522441864 0.04669196158647537 -0.03674163296818733
			vertex 0.0555555522441864 0.10202724486589432 -0.03662233427166939
			vertex 0.0555555522441864 0.05165094882249832 -0.018539922311902046
		endloop
	endfacet
	facet normal -1 0 0
		outer loop
			vertex -0.0555555522441864 0.007791840936988592 -0.03674163296818733
			vertex -0.0555555522441864 0.0016612051986157894 -0.03674163296818733
			vertex -0.0555555522441864 0.00007037209434201941 -0.03177740052342415
		endloop
	endfacet
	facet normal -1 0 0
		outer loop
			vertex -0.0555555522441864 0.009734787978231907 -0.03674163296818733
			vertex -0.0555555522441864 0.007791840936988592 -0.03674163296818733
			vertex -0.0555555522441864 0.00007037209434201941 -0.03177740052342415
		endloop
	endfacet
	facet normal -1 0 0
		outer loop
			vertex -0.0555555522441864 0.009734787978231907 -0.03674163296818733
			vertex -0.0555555522441864 0.00007037209434201941 -0.03177740052342415
			vertex -0.0555555522441864 -0.0005042763077653944 -0.029984192922711372
		endloop
	endfacet
	facet normal -1 0 0
		outer loop
			vertex -0.0555555522441864 0.015362420119345188 -0.03674163296818733
			vertex -0.0555555522441864 0.009734787978231907 -0.03674163296818733
			vertex -0.0555555522441864 -0.0005042763077653944 -0.029984192922711372
		endloop
	endfacet
	facet normal -1 0 0
		outer loop
			vertex -0.0555555522441864 0.015362420119345188 -0.03674163296818733
			vertex -0.0555555522441864 -0.0005042763077653944 -0.029984192922711372
			vertex -0.0555555522441864 -0.004615104291588068 -0.017156274989247322
		endloop
	endfacet
	facet normal -1 0 0
		outer loop
			vertex -0.0555555522441864 -0.06609117239713669 0.036741625517606735
			vertex -0.0555555522441864 -0.059592269361019135 0.036741625517606735
			vertex -0.0555555522441864 -0.051064930856227875 0.02838168852031231
		endloop
	endfacet
	facet normal -1 0 0
		outer loop
			vertex -0.0555555522441864 -0.06609117239713669 0.036741625517606735
			vertex -0.0555555522441864 -0.051064930856227875 0.02838168852031231
			vertex -0.0555555522441864 -0.054674066603183746 0.028161732479929924
		endloop
	endfacet
	facet normal -1 0 0
		outer loop
			vertex -0.0555555522441864 -0.015222541056573391 -0.005464079324156046
			vertex -0.0555555522441864 -0.009069717489182949 -0.003255548421293497
			vertex -0.0555555522441864 -0.005255302879959345 -0.015158506110310555
		endloop
	endfacet
	facet normal -1 0 0
		outer loop
			vertex -0.0555555522441864 -0.009069717489182949 -0.003255548421293497
			vertex -0.0555555522441864 -0.015222541056573391 -0.005464079324156046
			vertex -0.0555555522441864 -0.05008230358362198 0.028441576287150383
		endloop
	endfacet
	facet normal -1 0 0
		outer loop
			vertex -0.0555555522441864 -0.009069717489182949 -0.003255548421293497
			vertex -0.0555555522441864 -0.05008230358362198 0.028441576287150383
			vertex -0.0555555522441864 -0.019818415865302086 0.030286042019724846
		endloop
	endfacet
	facet normal -1 0 0
		outer loop
			vertex -0.0555555522441864 0.026308516040444374 -0.03674163296818733
			vertex -0.0555555522441864 0.015362420119345188 -0.03674163296818733
			vertex -0.0555555522441864 -0.004615104291588068 -0.017156274989247322
		endloop
	endfacet
	facet normal -1 0 0
		outer loop
			vertex -0.0555555522441864 0.026308516040444374 -0.03674163296818733
			vertex -0.0555555522441864 -0.004615104291588068 -0.017156274989247322
			vertex -0.0555555522441864 -0.008128679357469082 -0.006192075554281473
		endloop
	endfacet
	facet normal -1 0 0
		outer loop
			vertex -0.0555555522441864 0.028456086292862892 -0.03674163296818733
			vertex -0.0555555522441864 0.026308516040444374 -0.03674163296818733
			vertex -0.0555555522441864 -0.008128679357469082 -0.006192075554281473
		endloop
	endfacet
	facet normal -1 0 0
		outer loop
			vertex -0.0555555522441864 0.028456086292862892 -0.03674163296818733
			vertex -0.0555555522441864 -0.008128679357469082 -0.006192075554281473
			vertex -0.0555555522441864 -0.009069717489182949 -0.003255548421293497
		endloop
	endfacet
	facet normal -1 0 0
		outer loop
			vertex -0.0555555522441864 0.028456086292862892 -0.03674163296818733
			vertex -0.0555555522441864 -0.009069717489182949 -0.003255548421293497
			vertex -0.0555555522441864 0.009683125652372837 0.003475723322480917
		endloop
	endfacet
	facet normal -1 0 0
		outer loop
			vertex -0.0555555522441864 -0.003301492426544428 0.031292688101530075
			vertex -0.0555555522441864 0.009683125652372837 0.003475723322480917
			vertex -0.0555555522441864 -0.009069717489182949 -0.003255548421293497
		endloop
	endfacet
	facet normal -1 0 0
		outer loop
			vertex -0.0555555522441864 -0.003301492426544428 0.031292688101530075
			vertex -0.0555555522441864 -0.009069717489182949 -0.003255548421293497
			vertex -0.0555555522441864 -0.019818415865302086 0.030286042019724846
		endloop
	endfacet
	facet normal -1 0 0
		outer loop
			vertex -0.0555555522441864 -0.059592269361019135 0.036741625517606735
			vertex -0.0555555522441864 -0.005845001433044672 0.036741625517606735
			vertex -0.0555555522441864 -0.003301492426544428 0.031292688101530075
		endloop
	endfacet
	facet normal -1 0 0
		outer loop
			vertex -0.0555555522441864 -0.059592269361019135 0.036741625517606735
			vertex -0.0555555522441864 -0.003301492426544428 0.031292688101530075
			vertex -0.0555555522441864 -0.051064930856227875 0.02838168852031231
		endloop
	endfacet
	facet normal -1 0 0
		outer loop
			vertex -0.0555555522441864 0.04097691923379898 -0.03674163296818733
			vertex -0.0555555522441864 0.028456086292862892 -0.03674163296818733
			vertex -0.0555555522441864 0.009683125652372837 0.003475723322480917
		endloop
	endfacet
	facet normal -1 0 0
		outer loop
			vertex -0.0555555522441864 0.04097691923379898 -0.03674163296818733
			vertex -0.0555555522441864 0.009683125652372837 0.003475723322480917
			vertex -0.0555555522441864 0.019120940938591957 0.006863398011773825
		endloop
	endfacet
	facet normal -1 0 0
		outer loop
			vertex -0.0555555522441864 -0.005845001433044672 0.036741625517606735
			vertex -0.0555555522441864 0.0041451542638242245 0.036741625517606735
			vertex -0.0555555522441864 0.019120940938591957 0.006863398011773825
		endloop
	endfacet
	facet normal -1 0 0
		outer loop
			vertex -0.0555555522441864 -0.005845001433044672 0.036741625517606735
			vertex -0.0555555522441864 0.019120940938591957 0.006863398011773825
			vertex -0.0555555522441864 0.009683125652372837 0.003475723322480917
		endloop
	endfacet
	facet normal -1 0 0
		outer loop
			vertex -0.0555555522441864 0.05684790760278702 -0.03674163296818733
			vertex -0.0555555522441864 0.04097691923379898 -0.03674163296818733
			vertex -0.0555555522441864 0.019120940938591957 0.006863398011773825
		endloop
	endfacet
	facet normal -1 0 0
		outer loop
			vertex -0.0555555522441864 0.05684790760278702 -0.03674163296818733
			vertex -0.0555555522441864 0.019120940938591957 0.006863398011773825
			vertex -0.0555555522441864 0.060674674808979034 0.02177896909415722
		endloop
	endfacet
	facet normal -1 0 0
		outer loop
			vertex -0.0555555522441864 0.0041451542638242245 0.036741625517606735
			vertex -0.0555555522441864 0.06165311485528946 0.036741625517606735
			vertex -0.0555555522441864 0.060674674808979034 0.02177896909415722
		endloop
	endfacet
	facet normal -1 0 0
		outer loop
			vertex -0.0555555522441864 0.0041451542638242245 0.036741625517606735
			vertex -0.0555555522441864 0.060674674808979034 0.02177896909415722
			vertex -0.0555555522441864 0.019120940938591957 0.006863398011773825
		endloop
	endfacet
	facet normal -1 0 0
		outer loop
			vertex -0.0555555522441864 0.06992635875940323 -0.03674163296818733
			vertex -0.0555555522441864 0.05684790760278702 -0.03674163296818733
			vertex -0.0555555522441864 0.060674674808979034 0.02177896909415722
		endloop
	endfacet
	facet normal -1 0 0
		outer loop
			vertex -0.0555555522441864 0.06992635875940323 -0.03674163296818733
			vertex -0.0555555522441864 0.060674674808979034 0.02177896909415722
			vertex -0.0555555522441864 0.08860109001398087 0.03180306777358055
		endloop
	endfacet
	facet normal -1 0 0
		outer loop
			vertex -0.0555555522441864 0.06165311485528946 0.036741625517606735
			vertex -0.0555555522441864 0.08994657546281815 0.036741625517606735
			vertex -0.0555555522441864 0.08860109001398087 0.03180306777358055
		endloop
	endfacet
	facet normal -1 0 0
		outer loop
			vertex -0.0555555522441864 0.06165311485528946 0.036741625517606735
			vertex -0.0555555522441864 0.08860109001398087 0.03180306777358055
			vertex -0.0555555522441864 0.060674674808979034 0.02177896909415722
		endloop
	endfacet
	facet normal -1 0 0
		outer loop
			vertex -0.0555555522441864 0.07112226635217667 -0.03674163296818733
			vertex -0.0555555522441864 0.06992635875940323 -0.03674163296818733
			vertex -0.0555555522441864 0.07014060765504837 -0.03595517948269844
		endloop
	endfacet
	facet normal -1 0 0
		outer loop
			vertex -0.0555555522441864 0.10202724486589432 -0.03674163296818733
			vertex -0.0555555522441864 0.07112226635217667 -0.03674163296818733
			vertex -0.0555555522441864 0.07014060765504837 -0.03595517948269844
		endloop
	endfacet
	facet normal -1 0 0
		outer loop
			vertex -0.0555555522441864 0.10202724486589432 -0.03674163296818733
			vertex -0.0555555522441864 0.07014060765504837 -0.03595517948269844
			vertex -0.0555555522441864 0.08860109001398087 0.03180306777358055
		endloop
	endfacet
	facet normal -1 0 0
		outer loop
			vertex -0.0555555522441864 0.10202724486589432 -0.03674163296818733
			vertex -0.0555555522441864 0.08860109001398087 0.03180306777358055
			vertex -0.0555555522441864 0.10202724486589432 0.036622341722249985
		endloop
	endfacet
	facet normal -1 0 0
		outer loop
			vertex -0.0555555522441864 0.08994657546281815 0.036741625517606735
			vertex -0.0555555522441864 0.10202724486589432 0.036741625517606735
			vertex -0.0555555522441864 0.10202724486589432 0.036622341722249985
		endloop
	endfacet
	facet normal -1 0 0
		outer loop
			vertex -0.0555555522441864 0.08994657546281815 0.036741625517606735
			vertex -0.0555555522441864 0.10202724486589432 0.036622341722249985
			vertex -0.0555555522441864 0.08860109001398087 0.03180306777358055
		endloop
	endfacet
	facet normal 0 0 1
		outer loop
			vertex -0.0555555522441864 -0.059592269361019135 0.036741625517606735
			vertex -0.0555555522441864 -0.06609117239713669 0.036741625517606735
			vertex -0.041030701249837875 -0.062121592462062836 0.036741625517606735
		endloop
	endfacet
	facet normal 0 0 1
		outer loop
			vertex -0.0555555522441864 -0.059592269361019135 0.036741625517606735
			vertex -0.041030701249837875 -0.062121592462062836 0.036741625517606735
			vertex -0.041279710829257965 -0.05958040803670883 0.036741625517606735
		endloop
	endfacet
	facet normal 0 0 1
		outer loop
			vertex -0.03205161914229393 -0.05905421823263168 0.036741625517606735
			vertex -0.009714137762784958 -0.017898013815283775 0.036741625517606735
			vertex -0.018121495842933655 -0.015687501057982445 0.036741625517606735
		endloop
	endfacet
	facet normal 0 0 1
		outer loop
			vertex -0.03205161914229393 -0.05905421823263168 0.036741625517606735
			vertex -0.018121495842933655 -0.015687501057982445 0.036741625517606735
			vertex -0.04514231160283089 -0.02016257308423519 0.036741625517606735
		endloop
	endfacet
	facet normal 0 0 1
		outer loop
			vertex -0.03205161914229393 -0.05905421823263168 0.036741625517606735
			vertex -0.04514231160283089 -0.02016257308423519 0.036741625517606735
			vertex -0.04134826362133026 -0.058880873024463654 0.036741625517606735
		endloop
	endfacet
	facet normal 0 0 1
		outer loop
			vertex 0.016808440908789635 -0.02487156353890896 0.036741625517606735
			vertex -0.009714137762784958 -0.017898013815283775 0.036741625517606735
			vertex -0.03205161914229393 -0.05905421823263168 0.036741625517606735
		endloop
	endfacet
	facet normal 0 0 1
		outer loop
			vertex 0.016808440908789635 -0.02487156353890896 0.036741625517606735
			vertex -0.03205161914229393 -0.05905421823263168 0.036741625517606735
			vertex -0.005431236233562231 -0.059550635516643524 0.036741625517606735
		endloop
	endfacet
	facet normal 0 0 1
		outer loop
			vertex 0.016808440908789635 -0.02487156353890896 0.036741625517606735
			vertex -0.005431236233562231 -0.059550635516643524 0.036741625517606735
			vertex 0.012984986416995525 -0.059535346925258636 0.036741625517606735
		endloop
	endfacet
	facet normal 0 0 1
		outer loop
			vertex -0.018121495842933655 -0.015687501057982445 0.036741625517606735
			vertex -0.046307019889354706 -0.008276707492768764 0.036741625517606735
			vertex -0.04514231160283089 -0.02016257308423519 0.036741625517606735
		endloop
	endfacet
	facet normal 0 0 1
		outer loop
			vertex -0.0555555522441864 -0.005845001433044672 0.036741625517606735
			vertex -0.0555555522441864 -0.059592269361019135 0.036741625517606735
			vertex -0.041279710829257965 -0.05958040803670883 0.036741625517606735
		endloop
	endfacet
	facet normal 0 0 1
		outer loop
			vertex -0.0555555522441864 -0.005845001433044672 0.036741625517606735
			vertex -0.041279710829257965 -0.05958040803670883 0.036741625517606735
			vertex -0.046307019889354706 -0.008276707492768764 0.036741625517606735
		endloop
	endfacet
	facet normal 0 0 1
		outer loop
			vertex 0.013238501735031605 -0.05723694711923599 0.036741625517606735
			vertex 0.012660307809710503 -0.062478892505168915 0.036741625517606735
			vertex 0.03931577503681183 -0.07364905625581741 0.036741625517606735
		endloop
	endfacet
	facet normal 0 0 1
		outer loop
			vertex 0.013238501735031605 -0.05723694711923599 0.036741625517606735
			vertex 0.03931577503681183 -0.07364905625581741 0.036741625517606735
			vertex 0.04230545461177826 -0.07200074940919876 0.036741625517606735
		endloop
	endfacet
	facet normal 0 0 1
		outer loop
			vertex 0.0555555522441864 -0.0646955743432045 0.036741625517606735
			vertex 0.0555555522441864 -0.035059310495853424 0.036741625517606735
			vertex 0.016808440908789635 -0.02487156353890896 0.036741625517606735
		endloop
	endfacet
	facet normal 0 0 1
		outer loop
			vertex 0.0555555522441864 -0.0646955743432045 0.036741625517606735
			vertex 0.016808440908789635 -0.02487156353890896 0.036741625517606735
			vertex 0.013238501735031605 -0.05723694711923599 0.036741625517606735
		endloop
	endfacet
	facet normal 0 0 1
		outer loop
			vertex 0.0555555522441864 -0.0646955743432045 0.036741625517606735
			vertex 0.013238501735031605 -0.05723694711923599 0.036741625517606735
			vertex 0.04230545461177826 -0.07200074940919876 0.036741625517606735
		endloop
	endfacet
	facet normal 0 0 1
		outer loop
			vertex 0.0555555522441864 -0.0710933580994606 0.036741625517606735
			vertex 0.0555555522441864 -0.0646955743432045 0.036741625517606735
			vertex 0.03634228929877281 -0.07528842240571976 0.036741625517606735
		endloop
	endfacet
	facet normal 0 0 1
		outer loop
			vertex -0.018121495842933655 -0.015687501057982445 0.036741625517606735
			vertex -0.009714137762784958 -0.017898013815283775 0.036741625517606735
			vertex -0.007565516047179699 -0.01393925305455923 0.036741625517606735
		endloop
	endfacet
	facet normal 0 0 1
		outer loop
			vertex -0.007565516047179699 -0.01393925305455923 0.036741625517606735
			vertex -0.009714137762784958 -0.017898013815283775 0.036741625517606735
			vertex 0.016808440908789635 -0.02487156353890896 0.036741625517606735
		endloop
	endfacet
	facet normal 0 0 1
		outer loop
			vertex -0.007565516047179699 -0.01393925305455923 0.036741625517606735
			vertex 0.016808440908789635 -0.02487156353890896 0.036741625517606735
			vertex 0.018490266054868698 -0.009623981080949306 0.036741625517606735
		endloop
	endfacet
	facet normal 0 0 1
		outer loop
			vertex -0.0555555522441864 0.0041451542638242245 0.036741625517606735
			vertex -0.0555555522441864 -0.005845001433044672 0.036741625517606735
			vertex -0.018121495842933655 -0.015687501057982445 0.036741625517606735
		endloop
	endfacet
	facet normal 0 0 1
		outer loop
			vertex -0.0555555522441864 0.0041451542638242245 0.036741625517606735
			vertex -0.018121495842933655 -0.015687501057982445 0.036741625517606735
			vertex -0.007565516047179699 -0.01393925305455923 0.036741625517606735
		endloop
	endfacet
	facet normal 0 0 1
		outer loop
			vertex -0.0555555522441864 0.0041451542638242245 0.036741625517606735
			vertex -0.007565516047179699 -0.01393925305455923 0.036741625517606735
			vertex -0.0009948910446837544 -0.0018330574966967106 0.036741625517606735
		endloop
	endfacet
	facet normal 0 0 1
		outer loop
			vertex -0.0555555522441864 0.0041451542638242245 0.036741625517606735
			vertex -0.0009948910446837544 -0.0018330574966967106 0.036741625517606735
			vertex -0.0298514012247324 0.007507154252380133 0.036741625517606735
		endloop
	endfacet
	facet normal 0 0 1
		outer loop
			vertex 0.018648313358426094 -0.008191115222871304 0.036741625517606735
			vertex -0.0009948910446837544 -0.0018330574966967106 0.036741625517606735
			vertex -0.007565516047179699 -0.01393925305455923 0.036741625517606735
		endloop
	endfacet
	facet normal 0 0 1
		outer loop
			vertex 0.018648313358426094 -0.008191115222871304 0.036741625517606735
			vertex -0.007565516047179699 -0.01393925305455923 0.036741625517606735
			vertex 0.018490266054868698 -0.009623981080949306 0.036741625517606735
		endloop
	endfacet
	facet normal 0 0 1
		outer loop
			vertex 0.0555555522441864 -0.035059310495853424 0.036741625517606735
			vertex 0.0555555522441864 -0.02013716660439968 0.036741625517606735
			vertex 0.018648313358426094 -0.008191115222871304 0.036741625517606735
		endloop
	endfacet
	facet normal 0 0 1
		outer loop
			vertex 0.0555555522441864 -0.035059310495853424 0.036741625517606735
			vertex 0.018648313358426094 -0.008191115222871304 0.036741625517606735
			vertex 0.016808440908789635 -0.02487156353890896 0.036741625517606735
		endloop
	endfacet
	facet normal 0 0 1
		outer loop
			vertex -0.0009948910446837544 -0.0018330574966967106 0.036741625517606735
			vertex -0.0005994911771267653 -0.0011045397259294987 0.036741625517606735
			vertex -0.02723824232816696 0.007848926819860935 0.036741625517606735
		endloop
	endfacet
	facet normal 0 0 1
		outer loop
			vertex -0.0009948910446837544 -0.0018330574966967106 0.036741625517606735
			vertex -0.02723824232816696 0.007848926819860935 0.036741625517606735
			vertex -0.0298514012247324 0.007507154252380133 0.036741625517606735
		endloop
	endfacet
	facet normal 0 0 1
		outer loop
			vertex 0.0555555522441864 -0.02013716660439968 0.036741625517606735
			vertex 0.0555555522441864 -0.01997864805161953 0.036741625517606735
			vertex -0.0005994911771267653 -0.0011045397259294987 0.036741625517606735
		endloop
	endfacet
	facet normal 0 0 1
		outer loop
			vertex 0.0555555522441864 -0.02013716660439968 0.036741625517606735
			vertex -0.0005994911771267653 -0.0011045397259294987 0.036741625517606735
			vertex -0.0009948910446837544 -0.0018330574966967106 0.036741625517606735
		endloop
	endfacet
	facet normal 0 0 1
		outer loop
			vertex -0.0005994911771267653 -0.0011045397259294987 0.036741625517606735
			vertex 0.006666881497949362 0.012283542193472385 0.036741625517606735
			vertex -0.02723824232816696 0.007848926819860935 0.036741625517606735
		endloop
	endfacet
	facet normal 0 0 1
		outer loop
			vertex 0.0555555522441864 -0.01997864805161953 0.036741625517606735
			vertex 0.0555555522441864 0.01867794431746006 0.036741625517606735
			vertex 0.006666881497949362 0.012283542193472385 0.036741625517606735
		endloop
	endfacet
	facet normal 0 0 1
		outer loop
			vertex 0.0555555522441864 -0.01997864805161953 0.036741625517606735
			vertex 0.006666881497949362 0.012283542193472385 0.036741625517606735
			vertex -0.0005994911771267653 -0.0011045397259294987 0.036741625517606735
		endloop
	endfacet
	facet normal 0 0 1
		outer loop
			vertex -0.0555555522441864 0.06165311485528946 0.036741625517606735
			vertex -0.0555555522441864 0.0041451542638242245 0.036741625517606735
			vertex 0.006666881497949362 0.012283542193472385 0.036741625517606735
		endloop
	endfacet
	facet normal 0 0 1
		outer loop
			vertex -0.0555555522441864 0.06165311485528946 0.036741625517606735
			vertex 0.006666881497949362 0.012283542193472385 0.036741625517606735
			vertex 0.02837088704109192 0.05227259546518326 0.036741625517606735
		endloop
	endfacet
	facet normal 0 0 1
		outer loop
			vertex 0.0555555522441864 0.01867794431746006 0.036741625517606735
			vertex 0.0555555522441864 0.04923412948846817 0.036741625517606735
			vertex 0.02837088704109192 0.05227259546518326 0.036741625517606735
		endloop
	endfacet
	facet normal 0 0 1
		outer loop
			vertex 0.0555555522441864 0.01867794431746006 0.036741625517606735
			vertex 0.02837088704109192 0.05227259546518326 0.036741625517606735
			vertex 0.006666881497949362 0.012283542193472385 0.036741625517606735
		endloop
	endfacet
	facet normal 0 0 1
		outer loop
			vertex -0.0555555522441864 0.08994657546281815 0.036741625517606735
			vertex -0.0555555522441864 0.06165311485528946 0.036741625517606735
			vertex 0.02837088704109192 0.05227259546518326 0.036741625517606735
		endloop
	endfacet
	facet normal 0 0 1
		outer loop
			vertex -0.0555555522441864 0.08994657546281815 0.036741625517606735
			vertex 0.02837088704109192 0.05227259546518326 0.036741625517606735
			vertex 0.038179997354745865 0.07034558802843094 0.036741625517606735
		endloop
	endfacet
	facet normal 0 0 1
		outer loop
			vertex 0.0555555522441864 0.04923412948846817 0.036741625517606735
			vertex 0.0555555522441864 0.06671220809221268 0.036741625517606735
			vertex 0.038179997354745865 0.07034558802843094 0.036741625517606735
		endloop
	endfacet
	facet normal 0 0 1
		outer loop
			vertex 0.0555555522441864 0.04923412948846817 0.036741625517606735
			vertex 0.038179997354745865 0.07034558802843094 0.036741625517606735
			vertex 0.02837088704109192 0.05227259546518326 0.036741625517606735
		endloop
	endfacet
	facet normal 0 0 1
		outer loop
			vertex -0.0555555522441864 0.10202724486589432 0.036741625517606735
			vertex -0.0555555522441864 0.08994657546281815 0.036741625517606735
			vertex 0.038179997354745865 0.07034558802843094 0.036741625517606735
		endloop
	endfacet
	facet normal 0 0 1
		outer loop
			vertex -0.0555555522441864 0.10202724486589432 0.036741625517606735
			vertex 0.038179997354745865 0.07034558802843094 0.036741625517606735
			vertex 0.05537516996264458 0.10202724486589432 0.036741625517606735
		endloop
	endfacet
	facet normal 0 0 1
		outer loop
			vertex 0.0555555522441864 0.06671220809221268 0.036741625517606735
			vertex 0.0555555522441864 0.10202724486589432 0.036741625517606735
			vertex 0.05537516996264458 0.10202724486589432 0.036741625517606735
		endloop
	endfacet
	facet normal 0 0 1
		outer loop
			vertex 0.0555555522441864 0.06671220809221268 0.036741625517606735
			vertex 0.05537516996264458 0.10202724486589432 0.036741625517606735
			vertex 0.038179997354745865 0.07034558802843094 0.036741625517606735
		endloop
	endfacet
	facet normal 0 0 -1
		outer loop
			vertex -0.005409171339124441 0.009966247715055943 -0.03674163296818733
			vertex -0.008359212428331375 0.015401625074446201 -0.03674163296818733
			vertex -0.005913042929023504 0.015403666533529758 -0.03674163296818733
		endloop
	endfacet
	facet normal 0 0 -1
		outer loop
			vertex -0.005409171339124441 0.009966247715055943 -0.03674163296818733
			vertex -0.005913042929023504 0.015403666533529758 -0.03674163296818733
			vertex 0.006198033224791288 0.012219303287565708 -0.03674163296818733
		endloop
	endfacet
	facet normal 0 0 -1
		outer loop
			vertex -0.005409171339124441 0.009966247715055943 -0.03674163296818733
			vertex 0.006198033224791288 0.012219303287565708 -0.03674163296818733
			vertex -0.00173876469489187 0.010574140585958958 -0.03674163296818733
		endloop
	endfacet
	facet normal 0 0 -1
		outer loop
			vertex -0.0555555522441864 0.0016612051986157894 -0.03674163296818733
			vertex -0.0555555522441864 0.007791840936988592 -0.03674163296818733
			vertex -0.04379575327038765 0.015372180379927158 -0.03674163296818733
		endloop
	endfacet
	facet normal 0 0 -1
		outer loop
			vertex -0.0555555522441864 0.0016612051986157894 -0.03674163296818733
			vertex -0.04379575327038765 0.015372180379927158 -0.03674163296818733
			vertex -0.008359212428331375 0.015401625074446201 -0.03674163296818733
		endloop
	endfacet
	facet normal 0 0 -1
		outer loop
			vertex -0.0555555522441864 0.0016612051986157894 -0.03674163296818733
			vertex -0.008359212428331375 0.015401625074446201 -0.03674163296818733
			vertex -0.005409171339124441 0.009966247715055943 -0.03674163296818733
		endloop
	endfacet
	facet normal 0 0 -1
		outer loop
			vertex -0.0555555522441864 0.007791840936988592 -0.03674163296818733
			vertex -0.0555555522441864 0.009734787978231907 -0.03674163296818733
			vertex -0.046746015548706055 0.015369736589491367 -0.03674163296818733
		endloop
	endfacet
	facet normal 0 0 -1
		outer loop
			vertex -0.0555555522441864 0.007791840936988592 -0.03674163296818733
			vertex -0.046746015548706055 0.015369736589491367 -0.03674163296818733
			vertex -0.04379575327038765 0.015372180379927158 -0.03674163296818733
		endloop
	endfacet
	facet normal 0 0 -1
		outer loop
			vertex -0.0555555522441864 0.009734787978231907 -0.03674163296818733
			vertex -0.0555555522441864 0.015362420119345188 -0.03674163296818733
			vertex -0.046746015548706055 0.015369736589491367 -0.03674163296818733
		endloop
	endfacet
	facet normal 0 0 -1
		outer loop
			vertex -0.008359212428331375 0.015401625074446201 -0.03674163296818733
			vertex -0.008767683990299702 0.016154224053025246 -0.03674163296818733
			vertex -0.005913042929023504 0.015403666533529758 -0.03674163296818733
		endloop
	endfacet
	facet normal 0 0 -1
		outer loop
			vertex -0.0555555522441864 0.015362420119345188 -0.03674163296818733
			vertex -0.0555555522441864 0.026308516040444374 -0.03674163296818733
			vertex -0.05295708030462265 0.02777288295328617 -0.03674163296818733
		endloop
	endfacet
	facet normal 0 0 -1
		outer loop
			vertex -0.0555555522441864 0.015362420119345188 -0.03674163296818733
			vertex -0.05295708030462265 0.02777288295328617 -0.03674163296818733
			vertex -0.008767683990299702 0.016154224053025246 -0.03674163296818733
		endloop
	endfacet
	facet normal 0 0 -1
		outer loop
			vertex -0.0555555522441864 0.015362420119345188 -0.03674163296818733
			vertex -0.008767683990299702 0.016154224053025246 -0.03674163296818733
			vertex -0.008359212428331375 0.015401625074446201 -0.03674163296818733
		endloop
	endfacet
	facet normal 0 0 -1
		outer loop
			vertex -0.0555555522441864 0.026308516040444374 -0.03674163296818733
			vertex -0.0555555522441864 0.028456086292862892 -0.03674163296818733
			vertex -0.05295708030462265 0.02777288295328617 -0.03674163296818733
		endloop
	endfacet
	facet normal 0 0 -1
		outer loop
			vertex 0.006198033224791288 0.012219303287565708 -0.03674163296818733
			vertex -0.005913042929023504 0.015403666533529758 -0.03674163296818733
			vertex 0.021670786663889885 0.015426554717123508 -0.03674163296818733
		endloop
	endfacet
	facet normal 0 0 -1
		outer loop
			vertex -0.005913042929023504 0.015403666533529758 -0.03674163296818733
			vertex -0.008767683990299702 0.016154224053025246 -0.03674163296818733
			vertex -0.015191114507615566 0.02798921801149845 -0.03674163296818733
		endloop
	endfacet
	facet normal 0 0 -1
		outer loop
			vertex -0.005913042929023504 0.015403666533529758 -0.03674163296818733
			vertex -0.015191114507615566 0.02798921801149845 -0.03674163296818733
			vertex 0.022859737277030945 0.015673020854592323 -0.03674163296818733
		endloop
	endfacet
	facet normal 0 0 -1
		outer loop
			vertex -0.005913042929023504 0.015403666533529758 -0.03674163296818733
			vertex 0.022859737277030945 0.015673020854592323 -0.03674163296818733
			vertex 0.021670786663889885 0.015426554717123508 -0.03674163296818733
		endloop
	endfacet
	facet normal 0 0 -1
		outer loop
			vertex -0.03893543407320976 0.03567471355199814 -0.03674163296818733
			vertex -0.015191114507615566 0.02798921801149845 -0.03674163296818733
			vertex -0.008767683990299702 0.016154224053025246 -0.03674163296818733
		endloop
	endfacet
	facet normal 0 0 -1
		outer loop
			vertex -0.03893543407320976 0.03567471355199814 -0.03674163296818733
			vertex -0.008767683990299702 0.016154224053025246 -0.03674163296818733
			vertex -0.05295708030462265 0.02777288295328617 -0.03674163296818733
		endloop
	endfacet
	facet normal 0 0 -1
		outer loop
			vertex -0.0555555522441864 0.028456086292862892 -0.03674163296818733
			vertex -0.0555555522441864 0.04097691923379898 -0.03674163296818733
			vertex -0.055385369807481766 0.04099919646978378 -0.03674163296818733
		endloop
	endfacet
	facet normal 0 0 -1
		outer loop
			vertex -0.0555555522441864 0.028456086292862892 -0.03674163296818733
			vertex -0.055385369807481766 0.04099919646978378 -0.03674163296818733
			vertex -0.03893543407320976 0.03567471355199814 -0.03674163296818733
		endloop
	endfacet
	facet normal 0 0 -1
		outer loop
			vertex -0.0555555522441864 0.028456086292862892 -0.03674163296818733
			vertex -0.03893543407320976 0.03567471355199814 -0.03674163296818733
			vertex -0.05295708030462265 0.02777288295328617 -0.03674163296818733
		endloop
	endfacet
	facet normal 0 0 -1
		outer loop
			vertex 0.022859737277030945 0.015673020854592323 -0.03674163296818733
			vertex -0.015191114507615566 0.02798921801149845 -0.03674163296818733
			vertex -0.016058895736932755 0.029588082805275917 -0.03674163296818733
		endloop
	endfacet
	facet normal 0 0 -1
		outer loop
			vertex 0.022859737277030945 0.015673020854592323 -0.03674163296818733
			vertex -0.016058895736932755 0.029588082805275917 -0.03674163296818733
			vertex 0.01022491417825222 0.020753899589180946 -0.03674163296818733
		endloop
	endfacet
	facet normal 0 0 -1
		outer loop
			vertex 0.022859737277030945 0.015673020854592323 -0.03674163296818733
			vertex 0.01022491417825222 0.020753899589180946 -0.03674163296818733
			vertex 0.02403274178504944 0.015916163101792336 -0.03674163296818733
		endloop
	endfacet
	facet normal 0 0 -1
		outer loop
			vertex -0.03715437650680542 0.03667842596769333 -0.03674163296818733
			vertex -0.016058895736932755 0.029588082805275917 -0.03674163296818733
			vertex -0.015191114507615566 0.02798921801149845 -0.03674163296818733
		endloop
	endfacet
	facet normal 0 0 -1
		outer loop
			vertex -0.03715437650680542 0.03667842596769333 -0.03674163296818733
			vertex -0.015191114507615566 0.02798921801149845 -0.03674163296818733
			vertex -0.03893543407320976 0.03567471355199814 -0.03674163296818733
		endloop
	endfacet
	facet normal 0 0 -1
		outer loop
			vertex -0.055385369807481766 0.04099919646978378 -0.03674163296818733
			vertex -0.0515156127512455 0.04150532931089401 -0.03674163296818733
			vertex -0.03715437650680542 0.03667842596769333 -0.03674163296818733
		endloop
	endfacet
	facet normal 0 0 -1
		outer loop
			vertex -0.055385369807481766 0.04099919646978378 -0.03674163296818733
			vertex -0.03715437650680542 0.03667842596769333 -0.03674163296818733
			vertex -0.03893543407320976 0.03567471355199814 -0.03674163296818733
		endloop
	endfacet
	facet normal 0 0 -1
		outer loop
			vertex 0.01022491417825222 0.020753899589180946 -0.03674163296818733
			vertex 0.02424600161612034 0.016041303053498268 -0.03674163296818733
			vertex 0.024834102019667625 0.015635380521416664 -0.03674163296818733
		endloop
	endfacet
	facet normal 0 0 -1
		outer loop
			vertex 0.0555555522441864 0.0055179535411298275 -0.03674163296818733
			vertex 0.0555555522441864 0.0050901263020932674 -0.03674163296818733
			vertex 0.028610961511731148 0.013811477459967136 -0.03674163296818733
		endloop
	endfacet
	facet normal 0 0 -1
		outer loop
			vertex 0.0555555522441864 0.0055179535411298275 -0.03674163296818733
			vertex 0.028610961511731148 0.013811477459967136 -0.03674163296818733
			vertex 0.025417238473892212 0.01523288432508707 -0.03674163296818733
		endloop
	endfacet
	facet normal 0 0 -1
		outer loop
			vertex 0.0555555522441864 0.0055179535411298275 -0.03674163296818733
			vertex 0.025417238473892212 0.01523288432508707 -0.03674163296818733
			vertex 0.02424600161612034 0.016041303053498268 -0.03674163296818733
		endloop
	endfacet
	facet normal 0 0 -1
		outer loop
			vertex 0.01022491417825222 0.020753899589180946 -0.03674163296818733
			vertex -0.016058895736932755 0.029588082805275917 -0.03674163296818733
			vertex -0.01631000265479088 0.0300507340580225 -0.03674163296818733
		endloop
	endfacet
	facet normal 0 0 -1
		outer loop
			vertex -0.036415353417396545 0.03709489852190018 -0.03674163296818733
			vertex -0.01631000265479088 0.0300507340580225 -0.03674163296818733
			vertex -0.016058895736932755 0.029588082805275917 -0.03674163296818733
		endloop
	endfacet
	facet normal 0 0 -1
		outer loop
			vertex -0.036415353417396545 0.03709489852190018 -0.03674163296818733
			vertex -0.016058895736932755 0.029588082805275917 -0.03674163296818733
			vertex -0.03715437650680542 0.03667842596769333 -0.03674163296818733
		endloop
	endfacet
	facet normal 0 0 -1
		outer loop
			vertex -0.0515156127512455 0.04150532931089401 -0.03674163296818733
			vertex -0.04968643933534622 0.04174458235502243 -0.03674163296818733
			vertex -0.036415353417396545 0.03709489852190018 -0.03674163296818733
		endloop
	endfacet
	facet normal 0 0 -1
		outer loop
			vertex -0.0515156127512455 0.04150532931089401 -0.03674163296818733
			vertex -0.036415353417396545 0.03709489852190018 -0.03674163296818733
			vertex -0.03715437650680542 0.03667842596769333 -0.03674163296818733
		endloop
	endfacet
	facet normal 0 0 -1
		outer loop
			vertex 0.02424600161612034 0.016041303053498268 -0.03674163296818733
			vertex 0.01022491417825222 0.020753899589180946 -0.03674163296818733
			vertex -0.01631000265479088 0.0300507340580225 -0.03674163296818733
		endloop
	endfacet
	facet normal 0 0 -1
		outer loop
			vertex 0.02424600161612034 0.016041303053498268 -0.03674163296818733
			vertex -0.01631000265479088 0.0300507340580225 -0.03674163296818733
			vertex -0.024448439478874207 0.045045576989650726 -0.03674163296818733
		endloop
	endfacet
	facet normal 0 0 -1
		outer loop
			vertex 0.02424600161612034 0.016041303053498268 -0.03674163296818733
			vertex -0.024448439478874207 0.045045576989650726 -0.03674163296818733
			vertex -0.018838584423065186 0.04577932506799698 -0.03674163296818733
		endloop
	endfacet
	facet normal 0 0 -1
		outer loop
			vertex -0.04968643933534622 0.04174458235502243 -0.03674163296818733
			vertex -0.024448439478874207 0.045045576989650726 -0.03674163296818733
			vertex -0.01631000265479088 0.0300507340580225 -0.03674163296818733
		endloop
	endfacet
	facet normal 0 0 -1
		outer loop
			vertex 0.0555555522441864 0.044428952038288116 -0.03674163296818733
			vertex 0.0555555522441864 0.0055179535411298275 -0.03674163296818733
			vertex 0.02424600161612034 0.016041303053498268 -0.03674163296818733
		endloop
	endfacet
	facet normal 0 0 -1
		outer loop
			vertex 0.0555555522441864 0.044428952038288116 -0.03674163296818733
			vertex 0.02424600161612034 0.016041303053498268 -0.03674163296818733
			vertex -0.018838584423065186 0.04577932506799698 -0.03674163296818733
		endloop
	endfacet
	facet normal 0 0 -1
		outer loop
			vertex 0.0555555522441864 0.044428952038288116 -0.03674163296818733
			vertex -0.018838584423065186 0.04577932506799698 -0.03674163296818733
			vertex 0.009874052368104458 0.04953480511903763 -0.03674163296818733
		endloop
	endfacet
	facet normal 0 0 -1
		outer loop
			vertex -0.010333208367228508 0.05179337412118912 -0.03674163296818733
			vertex 0.009874052368104458 0.04953480511903763 -0.03674163296818733
			vertex -0.021659795194864273 0.04541034251451492 -0.03674163296818733
		endloop
	endfacet
	facet normal 0 0 -1
		outer loop
			vertex -0.024448439478874207 0.045045576989650726 -0.03674163296818733
			vertex -0.029258891940116882 0.05390871316194534 -0.03674163296818733
			vertex -0.010333208367228508 0.05179337412118912 -0.03674163296818733
		endloop
	endfacet
	facet normal 0 0 -1
		outer loop
			vertex -0.024448439478874207 0.045045576989650726 -0.03674163296818733
			vertex -0.010333208367228508 0.05179337412118912 -0.03674163296818733
			vertex -0.021659795194864273 0.04541034251451492 -0.03674163296818733
		endloop
	endfacet
	facet normal 0 0 -1
		outer loop
			vertex -0.0555555522441864 0.04097691923379898 -0.03674163296818733
			vertex -0.0555555522441864 0.05684790760278702 -0.03674163296818733
			vertex -0.029258891940116882 0.05390871316194534 -0.03674163296818733
		endloop
	endfacet
	facet normal 0 0 -1
		outer loop
			vertex -0.0555555522441864 0.04097691923379898 -0.03674163296818733
			vertex -0.029258891940116882 0.05390871316194534 -0.03674163296818733
			vertex -0.024448439478874207 0.045045576989650726 -0.03674163296818733
		endloop
	endfacet
	facet normal 0 0 -1
		outer loop
			vertex 0.0555555522441864 0.04669196158647537 -0.03674163296818733
			vertex 0.0555555522441864 0.044428952038288116 -0.03674163296818733
			vertex 0.009874052368104458 0.04953480511903763 -0.03674163296818733
		endloop
	endfacet
	facet normal 0 0 -1
		outer loop
			vertex 0.0555555522441864 0.04669196158647537 -0.03674163296818733
			vertex 0.009874052368104458 0.04953480511903763 -0.03674163296818733
			vertex 0.029613737016916275 0.05211663991212845 -0.03674163296818733
		endloop
	endfacet
	facet normal 0 0 -1
		outer loop
			vertex 0.009874052368104458 0.04953480511903763 -0.03674163296818733
			vertex 0.007143755443394184 0.04983995109796524 -0.03674163296818733
			vertex 0.015362135134637356 0.05509678274393082 -0.03674163296818733
		endloop
	endfacet
	facet normal 0 0 -1
		outer loop
			vertex 0.009874052368104458 0.04953480511903763 -0.03674163296818733
			vertex 0.015362135134637356 0.05509678274393082 -0.03674163296818733
			vertex 0.029613737016916275 0.05211663991212845 -0.03674163296818733
		endloop
	endfacet
	facet normal 0 0 -1
		outer loop
			vertex 0.007143755443394184 0.04983995109796524 -0.03674163296818733
			vertex -0.010333208367228508 0.05179337412118912 -0.03674163296818733
			vertex 0.0008963284781202674 0.05812171846628189 -0.03674163296818733
		endloop
	endfacet
	facet normal 0 0 -1
		outer loop
			vertex 0.007143755443394184 0.04983995109796524 -0.03674163296818733
			vertex 0.0008963284781202674 0.05812171846628189 -0.03674163296818733
			vertex 0.015362135134637356 0.05509678274393082 -0.03674163296818733
		endloop
	endfacet
	facet normal 0 0 -1
		outer loop
			vertex -0.010333208367228508 0.05179337412118912 -0.03674163296818733
			vertex -0.029258891940116882 0.05390871316194534 -0.03674163296818733
			vertex -0.03569883480668068 0.06577412039041519 -0.03674163296818733
		endloop
	endfacet
	facet normal 0 0 -1
		outer loop
			vertex -0.010333208367228508 0.05179337412118912 -0.03674163296818733
			vertex -0.03569883480668068 0.06577412039041519 -0.03674163296818733
			vertex 0.0008963284781202674 0.05812171846628189 -0.03674163296818733
		endloop
	endfacet
	facet normal 0 0 -1
		outer loop
			vertex -0.0555555522441864 0.05684790760278702 -0.03674163296818733
			vertex -0.0555555522441864 0.06992635875940323 -0.03674163296818733
			vertex -0.03569883480668068 0.06577412039041519 -0.03674163296818733
		endloop
	endfacet
	facet normal 0 0 -1
		outer loop
			vertex -0.0555555522441864 0.05684790760278702 -0.03674163296818733
			vertex -0.03569883480668068 0.06577412039041519 -0.03674163296818733
			vertex -0.029258891940116882 0.05390871316194534 -0.03674163296818733
		endloop
	endfacet
	facet normal 0 0 -1
		outer loop
			vertex -0.0555555522441864 0.06992635875940323 -0.03674163296818733
			vertex -0.0555555522441864 0.07112226635217667 -0.03674163296818733
			vertex -0.05306987464427948 0.06940657645463943 -0.03674163296818733
		endloop
	endfacet
	facet normal 0 0 -1
		outer loop
			vertex 0.0555555522441864 0.10202724486589432 -0.03674163296818733
			vertex 0.0555555522441864 0.04669196158647537 -0.03674163296818733
			vertex -0.03569883480668068 0.06577412039041519 -0.03674163296818733
		endloop
	endfacet
	facet normal 0 0 -1
		outer loop
			vertex 0.0555555522441864 0.10202724486589432 -0.03674163296818733
			vertex -0.03569883480668068 0.06577412039041519 -0.03674163296818733
			vertex -0.05537516996264458 0.10202724486589432 -0.03674163296818733
		endloop
	endfacet
	facet normal 0 0 -1
		outer loop
			vertex -0.0555555522441864 0.07112226635217667 -0.03674163296818733
			vertex -0.0555555522441864 0.10202724486589432 -0.03674163296818733
			vertex -0.05537516996264458 0.10202724486589432 -0.03674163296818733
		endloop
	endfacet
	facet normal 0 0 -1
		outer loop
			vertex -0.0555555522441864 0.07112226635217667 -0.03674163296818733
			vertex -0.05537516996264458 0.10202724486589432 -0.03674163296818733
			vertex -0.03569883480668068 0.06577412039041519 -0.03674163296818733
		endloop
	endfacet
	facet normal 0 0 -1
		outer loop
			vertex -0.0555555522441864 0.07112226635217667 -0.03674163296818733
			vertex -0.03569883480668068 0.06577412039041519 -0.03674163296818733
			vertex -0.05306987464427948 0.06940657645463943 -0.03674163296818733
		endloop
	endfacet
endsolid exported
