solid exported
	facet normal 0.15579039837545275 -0.9406708797078921 -0.30144261119423393
		outer loop
			vertex -0.0555555522441864 0.0016612051986157894 0.03674162179231644
			vertex -0.0555555522441864 0.0020672171376645565 0.035474635660648346
			vertex -0.00173876469489187 0.010574140585958958 0.03674162179231644
		endloop
	endfacet
	facet normal 0.08909887646460142 -0.42984184888200216 -0.8984972872315463
		outer loop
			vertex 0.006198033224791288 0.012219303287565708 0.03674162179231644
			vertex -0.00173876469489187 0.010574140585958958 0.03674162179231644
			vertex -0.0555555522441864 0.0020672171376645565 0.035474635660648346
		endloop
	endfacet
	facet normal 0.0890973135057691 -0.4298317174126896 -0.8985022890522386
		outer loop
			vertex 0.006198033224791288 0.012219303287565708 0.03674162179231644
			vertex -0.0555555522441864 0.0020672171376645565 0.035474635660648346
			vertex -0.0555555522441864 0.030556688085198402 0.02184564620256424
		endloop
	endfacet
	facet normal 0.08909726077981718 -0.4298318483416117 -0.8985022316459581
		outer loop
			vertex 0.006198033224791288 0.012219303287565708 0.03674162179231644
			vertex -0.0555555522441864 0.030556688085198402 0.02184564620256424
			vertex -0.024656090885400772 0.024502897635102272 0.02780575305223465
		endloop
	endfacet
	facet normal 0.08909697103473575 -0.4298328729544434 -0.8985017702153762
		outer loop
			vertex -0.0555555522441864 0.030556688085198402 0.02184564620256424
			vertex -0.0555555522441864 0.036804549396038055 0.01885674148797989
			vertex -0.024656090885400772 0.024502897635102272 0.02780575305223465
		endloop
	endfacet
	facet normal 0 1 0
		outer loop
			vertex -0.0555555522441864 0.10202724486589432 0.03674162179231644
			vertex 0.0555555522441864 0.10202724486589432 0.03674162179231644
			vertex 0.0555555522441864 0.10202724486589432 0.00862229522317648
		endloop
	endfacet
	facet normal 0 1 0
		outer loop
			vertex -0.0555555522441864 0.10202724486589432 0.03674162179231644
			vertex 0.0555555522441864 0.10202724486589432 0.00862229522317648
			vertex -0.0555555522441864 0.10202724486589432 0.00862229522317648
		endloop
	endfacet
	facet normal -0.2927285494606109 -0.9043840590916288 -0.310482640403028
		outer loop
			vertex 0.0555555522441864 0.0050901263020932674 0.03674162179231644
			vertex 0.028610961511731148 0.013811477459967136 0.03674162179231644
			vertex 0.0555555522441864 0.0066655962727963924 0.03215254098176956
		endloop
	endfacet
	facet normal 0.08909720814108947 -0.4298319492429682 -0.8985021885958063
		outer loop
			vertex 0.021670786663889885 0.015426554717123508 0.03674162179231644
			vertex 0.006198033224791288 0.012219303287565708 0.03674162179231644
			vertex -0.024656090885400772 0.024502897635102272 0.02780575305223465
		endloop
	endfacet
	facet normal 0.08910141073685826 -0.42982447006832813 -0.8985053497532349
		outer loop
			vertex -0.0555555522441864 0.04923591762781143 0.01290974672883749
			vertex 0.022859737277030945 0.015673020854592323 0.03674162179231644
			vertex 0.021670786663889885 0.015426554717123508 0.03674162179231644
		endloop
	endfacet
	facet normal 0.08909725362096325 -0.4298317884148279 -0.8985022610240403
		outer loop
			vertex -0.0555555522441864 0.04923591762781143 0.01290974672883749
			vertex 0.021670786663889885 0.015426554717123508 0.03674162179231644
			vertex -0.024656090885400772 0.024502897635102272 0.02780575305223465
		endloop
	endfacet
	facet normal 0.08909785638385692 -0.4298311758607446 -0.8985024942903451
		outer loop
			vertex -0.0555555522441864 0.04923591762781143 0.01290974672883749
			vertex -0.024656090885400772 0.024502897635102272 0.02780575305223465
			vertex -0.0555555522441864 0.036804549396038055 0.01885674148797989
		endloop
	endfacet
	facet normal -0.39622518820158825 -0.5740510181943187 -0.7165689281183507
		outer loop
			vertex 0.025417238473892212 0.01523288432508707 0.03674162179231644
			vertex 0.024834102019667625 0.015635380521416664 0.03674162179231644
			vertex 0.024802368134260178 0.01593015529215336 0.03652302175760269
		endloop
	endfacet
	facet normal -0.3962305118706777 -0.5740540327284138 -0.7165635693858196
		outer loop
			vertex 0.025417238473892212 0.01523288432508707 0.03674162179231644
			vertex 0.024802368134260178 0.01593015529215336 0.03652302175760269
			vertex 0.025938471779227257 0.01570321060717106 0.036076612770557404
		endloop
	endfacet
	facet normal -0.2091495375414699 -0.5969178082567397 -0.7745615541273396
		outer loop
			vertex 0.024802368134260178 0.01593015529215336 0.03652302175760269
			vertex 0.024834102019667625 0.015635380521416664 0.03674162179231644
			vertex 0.02403274178504944 0.015916163101792336 0.03674162179231644
		endloop
	endfacet
	facet normal -0.2091457745813691 -0.5969348979169622 -0.7745493997309826
		outer loop
			vertex 0.024802368134260178 0.01593015529215336 0.03652302175760269
			vertex 0.02403274178504944 0.015916163101792336 0.03674162179231644
			vertex 0.0237444881349802 0.01628022827208042 0.036538876593112946
		endloop
	endfacet
	facet normal 0.08909652265798605 -0.42983325164638136 -0.8985016335151284
		outer loop
			vertex 0.02403274178504944 0.015916163101792336 0.03674162179231644
			vertex 0.022859737277030945 0.015673020854592323 0.03674162179231644
			vertex -0.0555555522441864 0.04923591762781143 0.01290974672883749
		endloop
	endfacet
	facet normal 0.08908995821273968 -0.42984528105837116 -0.8984965295968051
		outer loop
			vertex 0.02403274178504944 0.015916163101792336 0.03674162179231644
			vertex -0.0555555522441864 0.04923591762781143 0.01290974672883749
			vertex -0.0555555522441864 0.051509566605091095 0.011822021566331387
		endloop
	endfacet
	facet normal 0.08910295923568966 -0.4298228278873051 -0.8985059817733009
		outer loop
			vertex 0.02403274178504944 0.015916163101792336 0.03674162179231644
			vertex -0.0555555522441864 0.051509566605091095 0.011822021566331387
			vertex 0.0237444881349802 0.01628022827208042 0.036538876593112946
		endloop
	endfacet
	facet normal -0.29262403538956844 -0.6574921764919773 -0.694316362880904
		outer loop
			vertex 0.0555555522441864 0.007327818777412176 0.03152544051408768
			vertex 0.0555555522441864 0.0066655962727963924 0.03215254098176956
			vertex 0.028610961511731148 0.013811477459967136 0.03674162179231644
		endloop
	endfacet
	facet normal -0.2926238758575649 -0.6574891656156244 -0.6943192812936759
		outer loop
			vertex 0.0555555522441864 0.007327818777412176 0.03152544051408768
			vertex 0.028610961511731148 0.013811477459967136 0.03674162179231644
			vertex 0.025417238473892212 0.01523288432508707 0.03674162179231644
		endloop
	endfacet
	facet normal -0.29262144072371027 -0.6574626146404502 -0.694345449167
		outer loop
			vertex 0.0555555522441864 0.007327818777412176 0.03152544051408768
			vertex 0.025417238473892212 0.01523288432508707 0.03674162179231644
			vertex 0.025938471779227257 0.01570321060717106 0.036076612770557404
		endloop
	endfacet
	facet normal 1 0 0
		outer loop
			vertex 0.0555555522441864 0.0055179535411298275 0.03674162179231644
			vertex 0.0555555522441864 0.0050901263020932674 0.03674162179231644
			vertex 0.0555555522441864 0.0066655962727963924 0.03215254098176956
		endloop
	endfacet
	facet normal 1 0 0
		outer loop
			vertex 0.0555555522441864 0.0055179535411298275 0.03674162179231644
			vertex 0.0555555522441864 0.0066655962727963924 0.03215254098176956
			vertex 0.0555555522441864 0.007327818777412176 0.03152544051408768
		endloop
	endfacet
	facet normal -0.3962325473691697 -0.5740694013006996 -0.7165501314601759
		outer loop
			vertex 0.024802368134260178 0.01593015529215336 0.03652302175760269
			vertex 0.021486710757017136 0.046728916466236115 0.013681835494935513
			vertex 0.02575480379164219 0.04612896591424942 0.011802352033555508
		endloop
	endfacet
	facet normal -0.3962365060759231 -0.5740682436789464 -0.7165488698282307
		outer loop
			vertex 0.024802368134260178 0.01593015529215336 0.03652302175760269
			vertex 0.02575480379164219 0.04612896591424942 0.011802352033555508
			vertex 0.051298629492521286 0.03858565539121628 0.0037205289117991924
		endloop
	endfacet
	facet normal -0.3962284767748688 -0.5740755673659866 -0.7165474423554159
		outer loop
			vertex 0.024802368134260178 0.01593015529215336 0.03652302175760269
			vertex 0.051298629492521286 0.03858565539121628 0.0037205289117991924
			vertex 0.025938471779227257 0.01570321060717106 0.036076612770557404
		endloop
	endfacet
	facet normal -0.20914724200351478 -0.5969395112701049 -0.7745454480189858
		outer loop
			vertex 0.021486710757017136 0.046728916466236115 0.013681835494935513
			vertex 0.024802368134260178 0.01593015529215336 0.03652302175760269
			vertex 0.0237444881349802 0.01628022827208042 0.036538876593112946
		endloop
	endfacet
	facet normal -0.2091456092521351 -0.5969396442350036 -0.7745457864265617
		outer loop
			vertex 0.021486710757017136 0.046728916466236115 0.013681835494935513
			vertex 0.0237444881349802 0.01628022827208042 0.036538876593112946
			vertex -0.0027259946800768375 0.04971236735582352 0.01792050153017044
		endloop
	endfacet
	facet normal 0.08909372928739763 -0.42981991349653226 -0.8985082912046486
		outer loop
			vertex -0.0555555522441864 0.051509566605091095 0.011822021566331387
			vertex -0.0555555522441864 0.05408478528261185 0.010590112768113613
			vertex -0.05066435784101486 0.05460653454065323 0.010825521312654018
		endloop
	endfacet
	facet normal 0.08909842308310897 -0.42982620799674026 -0.8985048146355402
		outer loop
			vertex -0.0555555522441864 0.051509566605091095 0.011822021566331387
			vertex -0.05066435784101486 0.05460653454065323 0.010825521312654018
			vertex -0.0027259946800768375 0.04971236735582352 0.01792050153017044
		endloop
	endfacet
	facet normal 0.08909795404590158 -0.4298315239576187 -0.8985023180810976
		outer loop
			vertex -0.0555555522441864 0.051509566605091095 0.011822021566331387
			vertex -0.0027259946800768375 0.04971236735582352 0.01792050153017044
			vertex 0.0237444881349802 0.01628022827208042 0.036538876593112946
		endloop
	endfacet
	facet normal -0.29262368475069434 -0.6574800194865434 -0.6943280226945336
		outer loop
			vertex 0.0555555522441864 0.03748949617147446 0.0029644439928233624
			vertex 0.0555555522441864 0.007327818777412176 0.03152544051408768
			vertex 0.025938471779227257 0.01570321060717106 0.036076612770557404
		endloop
	endfacet
	facet normal -0.2926231344780718 -0.657480470672432 -0.6943278273644128
		outer loop
			vertex 0.0555555522441864 0.03748949617147446 0.0029644439928233624
			vertex 0.025938471779227257 0.01570321060717106 0.036076612770557404
			vertex 0.051298629492521286 0.03858565539121628 0.0037205289117991924
		endloop
	endfacet
	facet normal 1 0 0
		outer loop
			vertex 0.0555555522441864 0.044428952038288116 0.03674162179231644
			vertex 0.0555555522441864 0.0055179535411298275 0.03674162179231644
			vertex 0.0555555522441864 0.007327818777412176 0.03152544051408768
		endloop
	endfacet
	facet normal 1 0 0
		outer loop
			vertex 0.0555555522441864 0.044428952038288116 0.03674162179231644
			vertex 0.0555555522441864 0.007327818777412176 0.03152544051408768
			vertex 0.0555555522441864 0.03748949617147446 0.0029644439928233624
		endloop
	endfacet
	facet normal 1 0 0
		outer loop
			vertex 0.0555555522441864 0.044428952038288116 0.03674162179231644
			vertex 0.0555555522441864 0.03748949617147446 0.0029644439928233624
			vertex 0.0555555522441864 0.043714217841625214 0.02581203728914261
		endloop
	endfacet
	facet normal 0.08909562045218117 -0.4298426303103952 -0.8984972362695847
		outer loop
			vertex -0.0555555522441864 0.05408478528261185 0.010590112768113613
			vertex -0.0555555522441864 0.055105872452259064 0.0101016229018569
			vertex -0.05066435784101486 0.05460653454065323 0.010825521312654018
		endloop
	endfacet
	facet normal -0.39623300312009047 -0.574066730916188 -0.7165520188329914
		outer loop
			vertex 0.021486710757017136 0.046728916466236115 0.013681835494935513
			vertex 0.021413275972008705 0.04741106182336807 0.013175941072404385
			vertex 0.02575480379164219 0.04612896591424942 0.011802352033555508
		endloop
	endfacet
	facet normal -0.20914563689032095 -0.5969371701091516 -0.7745476857571909
		outer loop
			vertex 0.021413275972008705 0.04741106182336807 0.013175941072404385
			vertex 0.021486710757017136 0.046728916466236115 0.013681835494935513
			vertex -0.0027259946800768375 0.04971236735582352 0.01792050153017044
		endloop
	endfacet
	facet normal -0.20914537410219985 -0.5969420990060113 -0.7745439580333376
		outer loop
			vertex 0.021413275972008705 0.04741106182336807 0.013175941072404385
			vertex -0.0027259946800768375 0.04971236735582352 0.01792050153017044
			vertex -0.005968891549855471 0.05380813032388687 0.015639550983905792
		endloop
	endfacet
	facet normal 0.08909607536611293 -0.4298358339942274 -0.898500442497856
		outer loop
			vertex -0.026755783706903458 0.05715683847665787 0.011976308189332485
			vertex -0.005968891549855471 0.05380813032388687 0.015639550983905792
			vertex -0.0027259946800768375 0.04971236735582352 0.01792050153017044
		endloop
	endfacet
	facet normal 0.08909726996851863 -0.4298329753385336 -0.8985016915931658
		outer loop
			vertex -0.026755783706903458 0.05715683847665787 0.011976308189332485
			vertex -0.0027259946800768375 0.04971236735582352 0.01792050153017044
			vertex -0.05066435784101486 0.05460653454065323 0.010825521312654018
		endloop
	endfacet
	facet normal 1 0 0
		outer loop
			vertex 0.0555555522441864 0.04669196158647537 0.03674162179231644
			vertex 0.0555555522441864 0.044428952038288116 0.03674162179231644
			vertex 0.0555555522441864 0.043714217841625214 0.02581203728914261
		endloop
	endfacet
	facet normal 0.08909791143925246 -0.42983316545307343 -0.8985015370347199
		outer loop
			vertex -0.042728208005428314 0.059729911386966705 0.00916150864213705
			vertex -0.026755783706903458 0.05715683847665787 0.011976308189332485
			vertex -0.045286040753126144 0.055180229246616364 0.01108438428491354
		endloop
	endfacet
	facet normal 0.3502908535773825 -0.6215767235364404 -0.7006701753733581
		outer loop
			vertex -0.0555555522441864 0.061436332762241364 0.0055794189684093
			vertex -0.05203884840011597 0.06122986227273941 0.007520712446421385
			vertex -0.0555555522441864 0.05778161436319351 0.008821583352982998
		endloop
	endfacet
	facet normal 0.08909777245432246 -0.4298316156989409 -0.8985022922003681
		outer loop
			vertex -0.0555555522441864 0.055105872452259064 0.0101016229018569
			vertex -0.0555555522441864 0.05778161436319351 0.008821583352982998
			vertex -0.05203884840011597 0.06122986227273941 0.007520712446421385
		endloop
	endfacet
	facet normal 0.0890954370054491 -0.4298305808124003 -0.8985030188615301
		outer loop
			vertex -0.0555555522441864 0.055105872452259064 0.0101016229018569
			vertex -0.05203884840011597 0.06122986227273941 0.007520712446421385
			vertex -0.042728208005428314 0.059729911386966705 0.00916150864213705
		endloop
	endfacet
	facet normal 0.08909616581347884 -0.42983240996860383 -0.8985020715490418
		outer loop
			vertex -0.0555555522441864 0.055105872452259064 0.0101016229018569
			vertex -0.042728208005428314 0.059729911386966705 0.00916150864213705
			vertex -0.045286040753126144 0.055180229246616364 0.01108438428491354
		endloop
	endfacet
	facet normal 0.0890958204273069 -0.429841456692424 -0.8984977778998232
		outer loop
			vertex -0.0555555522441864 0.055105872452259064 0.0101016229018569
			vertex -0.045286040753126144 0.055180229246616364 0.01108438428491354
			vertex -0.05066435784101486 0.05460653454065323 0.010825521312654018
		endloop
	endfacet
	facet normal -0.3962340422870015 -0.5740696515113175 -0.7165491043512491
		outer loop
			vertex 0.0555555522441864 0.043167226016521454 -0.002304010558873415
			vertex 0.0555555522441864 0.04242666810750961 -0.0017107060411944985
			vertex 0.051298629492521286 0.03858565539121628 0.0037205289117991924
		endloop
	endfacet
	facet normal -0.396240097594917 -0.5740647674632622 -0.7165496687706454
		outer loop
			vertex 0.0555555522441864 0.043167226016521454 -0.002304010558873415
			vertex 0.051298629492521286 0.03858565539121628 0.0037205289117991924
			vertex 0.04950597137212753 0.03911503404378891 0.00428772671148181
		endloop
	endfacet
	facet normal -0.3962326738319897 -0.5740724787354208 -0.716547596009171
		outer loop
			vertex 0.0555555522441864 0.043167226016521454 -0.002304010558873415
			vertex 0.04950597137212753 0.03911503404378891 0.00428772671148181
			vertex 0.04842787981033325 0.04202035814523697 0.0025562415830790997
		endloop
	endfacet
	facet normal -0.29262307026885187 -0.6574796979368076 -0.6943285861516539
		outer loop
			vertex 0.0555555522441864 0.03748949617147446 0.0029644439928233624
			vertex 0.051298629492521286 0.03858565539121628 0.0037205289117991924
			vertex 0.0555555522441864 0.04242666810750961 -0.0017107060411944985
		endloop
	endfacet
	facet normal 1 0 0
		outer loop
			vertex 0.0555555522441864 0.03828845173120499 0.005897022318094969
			vertex 0.0555555522441864 0.03748949617147446 0.0029644439928233624
			vertex 0.0555555522441864 0.04242666810750961 -0.0017107060411944985
		endloop
	endfacet
	facet normal 1 0 0
		outer loop
			vertex 0.0555555522441864 0.03828845173120499 0.005897022318094969
			vertex 0.0555555522441864 0.04242666810750961 -0.0017107060411944985
			vertex 0.0555555522441864 0.043167226016521454 -0.002304010558873415
		endloop
	endfacet
	facet normal 1 0 0
		outer loop
			vertex 0.0555555522441864 0.03828845173120499 0.005897022318094969
			vertex 0.0555555522441864 0.043167226016521454 -0.002304010558873415
			vertex 0.0555555522441864 0.04233958572149277 0.0037749777548015118
		endloop
	endfacet
	facet normal -0.3962369379611287 -0.5740725985546915 -0.7165451420419042
		outer loop
			vertex 0.04950597137212753 0.03911503404378891 0.00428772671148181
			vertex 0.04275737702846527 0.04110796004533768 0.00642291409894824
			vertex 0.04842787981033325 0.04202035814523697 0.0025562415830790997
		endloop
	endfacet
	facet normal 1 0 0
		outer loop
			vertex 0.0555555522441864 0.04079707711935043 0.015104777179658413
			vertex 0.0555555522441864 0.03828845173120499 0.005897022318094969
			vertex 0.0555555522441864 0.04233958572149277 0.0037749777548015118
		endloop
	endfacet
	facet normal -0.3962362898616198 -0.574040262680933 -0.7165714056658304
		outer loop
			vertex 0.03442582115530968 0.0797543004155159 -0.01993175595998764
			vertex 0.0555555522441864 0.07416269928216934 -0.027136288583278656
			vertex 0.0555555522441864 0.07410816103219986 -0.027092598378658295
		endloop
	endfacet
	facet normal -0.3962352872614142 -0.5743119533073348 -0.7163542262157586
		outer loop
			vertex 0.03442582115530968 0.0797543004155159 -0.01993175595998764
			vertex 0.0555555522441864 0.07410816103219986 -0.027092598378658295
			vertex 0.034446511417627335 0.07969854027032852 -0.019898496568202972
		endloop
	endfacet
	facet normal -0.023101518255541006 -0.8214625652807349 0.569794325784913
		outer loop
			vertex 0.034100573509931564 0.07972878962755203 -0.019981615245342255
			vertex 0.0555555522441864 0.07410035282373428 -0.027226172387599945
			vertex 0.0555555522441864 0.07416269928216934 -0.027136288583278656
		endloop
	endfacet
	facet normal -0.022969514558135336 -0.8212865943039575 0.5700532706840392
		outer loop
			vertex 0.034100573509931564 0.07972878962755203 -0.019981615245342255
			vertex 0.0555555522441864 0.07416269928216934 -0.027136288583278656
			vertex 0.03442582115530968 0.0797543004155159 -0.01993175595998764
		endloop
	endfacet
	facet normal -0.00017759187829440343 0.7894257162852288 -0.6138460775542008
		outer loop
			vertex 0.0555555522441864 0.07416734844446182 -0.027140013873577118
			vertex 0.0555555522441864 0.07410035282373428 -0.027226172387599945
			vertex 0.034100573509931564 0.07972878962755203 -0.019981615245342255
		endloop
	endfacet
	facet normal -0.00027930729654375663 0.7892778964036209 -0.6140360935939427
		outer loop
			vertex 0.0555555522441864 0.07416734844446182 -0.027140013873577118
			vertex 0.034100573509931564 0.07972878962755203 -0.019981615245342255
			vertex 0.03442242741584778 0.07976344972848892 -0.01993720978498459
		endloop
	endfacet
	facet normal 1 0 0
		outer loop
			vertex 0.0555555522441864 0.07416734844446182 -0.027140013873577118
			vertex 0.0555555522441864 0.07416269928216934 -0.027136288583278656
			vertex 0.0555555522441864 0.07410035282373428 -0.027226172387599945
		endloop
	endfacet
	facet normal -0.0002424830899203418 0.7893302898593283 -0.6139687571143505
		outer loop
			vertex 0.0555555522441864 0.08203906565904617 -0.017019979655742645
			vertex 0.0555555522441864 0.07416734844446182 -0.027140013873577118
			vertex 0.03442242741584778 0.07976344972848892 -0.01993720978498459
		endloop
	endfacet
	facet normal 1 0 0
		outer loop
			vertex 0.0555555522441864 0.07440755516290665 -0.02670832723379135
			vertex 0.0555555522441864 0.0744822695851326 -0.026735149323940277
			vertex 0.0555555522441864 0.08203906565904617 -0.017019979655742645
		endloop
	endfacet
	facet normal 1 0 0
		outer loop
			vertex 0.0555555522441864 0.07440755516290665 -0.02670832723379135
			vertex 0.0555555522441864 0.08203906565904617 -0.017019979655742645
			vertex 0.0555555522441864 0.08197969943284988 -0.01698886603116989
		endloop
	endfacet
	facet normal 1 0 0
		outer loop
			vertex 0.0555555522441864 0.0744822695851326 -0.026735149323940277
			vertex 0.0555555522441864 0.07440755516290665 -0.02670832723379135
			vertex 0.0555555522441864 0.07410816103219986 -0.027092598378658295
		endloop
	endfacet
	facet normal 1 0 0
		outer loop
			vertex 0.0555555522441864 0.0744822695851326 -0.026735149323940277
			vertex 0.0555555522441864 0.07410816103219986 -0.027092598378658295
			vertex 0.0555555522441864 0.07416734844446182 -0.027140013873577118
		endloop
	endfacet
	facet normal -0.3962348551860569 -0.5741187516427044 -0.716509315046153
		outer loop
			vertex 0.0555555522441864 0.07410816103219986 -0.027092598378658295
			vertex 0.0555555522441864 0.07378948479890823 -0.02683725208044052
			vertex 0.034596510231494904 0.07929430156946182 -0.01965760439634323
		endloop
	endfacet
	facet normal -0.39623715780765795 -0.5740438463700034 -0.7165680548400418
		outer loop
			vertex 0.0555555522441864 0.07410816103219986 -0.027092598378658295
			vertex 0.034596510231494904 0.07929430156946182 -0.01965760439634323
			vertex 0.034446511417627335 0.07969854027032852 -0.019898496568202972
		endloop
	endfacet
	facet normal 1 0 0
		outer loop
			vertex 0.0555555522441864 0.07400307804346085 -0.026563160121440887
			vertex 0.0555555522441864 0.07440755516290665 -0.02670832723379135
			vertex 0.0555555522441864 0.08197969943284988 -0.01698886603116989
		endloop
	endfacet
	facet normal 1 0 0
		outer loop
			vertex 0.0555555522441864 0.07400307804346085 -0.026563160121440887
			vertex 0.0555555522441864 0.08197969943284988 -0.01698886603116989
			vertex 0.0555555522441864 0.08161405473947525 -0.01679735630750656
		endloop
	endfacet
	facet normal 1 0 0
		outer loop
			vertex 0.0555555522441864 0.07410816103219986 -0.027092598378658295
			vertex 0.0555555522441864 0.07440755516290665 -0.02670832723379135
			vertex 0.0555555522441864 0.07400307804346085 -0.026563160121440887
		endloop
	endfacet
	facet normal 1 0 0
		outer loop
			vertex 0.0555555522441864 0.07410816103219986 -0.027092598378658295
			vertex 0.0555555522441864 0.07400307804346085 -0.026563160121440887
			vertex 0.0555555522441864 0.07378948479890823 -0.02683725208044052
		endloop
	endfacet
	facet normal -0.3962345801759741 -0.574068766703033 -0.7165495157829836
		outer loop
			vertex 0.0555555522441864 0.07378948479890823 -0.02683725208044052
			vertex 0.0555555522441864 0.043167226016521454 -0.002304010558873415
			vertex 0.04842787981033325 0.04202035814523697 0.0025562415830790997
		endloop
	endfacet
	facet normal -0.396235354933304 -0.57406843923141 -0.7165493497166066
		outer loop
			vertex 0.0555555522441864 0.07378948479890823 -0.02683725208044052
			vertex 0.04842787981033325 0.04202035814523697 0.0025562415830790997
			vertex 0.034596510231494904 0.07929430156946182 -0.01965760439634323
		endloop
	endfacet
	facet normal 1 0 0
		outer loop
			vertex 0.0555555522441864 0.04233958572149277 0.0037749777548015118
			vertex 0.0555555522441864 0.043167226016521454 -0.002304010558873415
			vertex 0.0555555522441864 0.07299623638391495 -0.026201747357845306
		endloop
	endfacet
	facet normal 1 0 0
		outer loop
			vertex 0.0555555522441864 0.04233958572149277 0.0037749777548015118
			vertex 0.0555555522441864 0.07299623638391495 -0.026201747357845306
			vertex 0.0555555522441864 0.07400307804346085 -0.026563160121440887
		endloop
	endfacet
	facet normal 1 0 0
		outer loop
			vertex 0.0555555522441864 0.04233958572149277 0.0037749777548015118
			vertex 0.0555555522441864 0.07400307804346085 -0.026563160121440887
			vertex 0.0555555522441864 0.08161405473947525 -0.01679735630750656
		endloop
	endfacet
	facet normal 1 0 0
		outer loop
			vertex 0.0555555522441864 0.07378948479890823 -0.02683725208044052
			vertex 0.0555555522441864 0.07400307804346085 -0.026563160121440887
			vertex 0.0555555522441864 0.07299623638391495 -0.026201747357845306
		endloop
	endfacet
	facet normal -0.39623602111771566 -0.5740917660188591 -0.7165302922822934
		outer loop
			vertex 0.017452849075198174 0.08419901877641678 -0.01410698238760233
			vertex 0.017447656020522118 0.08424723893404007 -0.014142745174467564
			vertex 0.03442582115530968 0.0797543004155159 -0.01993175595998764
		endloop
	endfacet
	facet normal -0.39623358345236215 -0.5743119058955306 -0.7163552066476123
		outer loop
			vertex 0.017452849075198174 0.08419901877641678 -0.01410698238760233
			vertex 0.03442582115530968 0.0797543004155159 -0.01993175595998764
			vertex 0.034446511417627335 0.07969854027032852 -0.019898496568202972
		endloop
	endfacet
	facet normal -0.023006170653680057 -0.8213358054004415 0.5699808864155551
		outer loop
			vertex 0.017447656020522118 0.08424723893404007 -0.014142745174467564
			vertex 0.01877700164914131 0.08374873548746109 -0.014807426370680332
			vertex 0.034100573509931564 0.07972878962755203 -0.019981615245342255
		endloop
	endfacet
	facet normal -0.02296893733163004 -0.8212885348517391 0.570050498148137
		outer loop
			vertex 0.017447656020522118 0.08424723893404007 -0.014142745174467564
			vertex 0.034100573509931564 0.07972878962755203 -0.019981615245342255
			vertex 0.03442582115530968 0.0797543004155159 -0.01993175595998764
		endloop
	endfacet
	facet normal 0.3291785785899434 -0.5110031947033326 -0.7940511308476884
		outer loop
			vertex -0.0555555522441864 0.08512631803750992 -0.01297768298536539
			vertex -0.046527083963155746 0.08707211166620255 -0.010487073101103306
			vertex -0.04679781198501587 0.08694953471422195 -0.010520421899855137
		endloop
	endfacet
	facet normal 0.3291755128041925 -0.5108794164500449 -0.7941320441952703
		outer loop
			vertex -0.0555555522441864 0.08512631803750992 -0.01297768298536539
			vertex -0.04679781198501587 0.08694953471422195 -0.010520421899855137
			vertex -0.0555555522441864 0.08506164699792862 -0.012936078943312168
		endloop
	endfacet
	facet normal 0.3322310938584144 -0.5196206039721261 -0.7871574989805308
		outer loop
			vertex -0.046527083963155746 0.08707211166620255 -0.010487073101103306
			vertex -0.046379465609788895 0.08704058080911636 -0.010403954423964024
			vertex -0.04679781198501587 0.08694953471422195 -0.010520421899855137
		endloop
	endfacet
	facet normal -0.20914635384878455 -0.5969593504799904 -0.7745303974320616
		outer loop
			vertex 0.017447656020522118 0.08424723893404007 -0.014142745174467564
			vertex 0.017452849075198174 0.08419901877641678 -0.01410698238760233
			vertex 0.017127972096204758 0.08424157649278641 -0.014052056707441807
		endloop
	endfacet
	facet normal -0.27340452975562424 0.059743490761302864 -0.9600420190912272
		outer loop
			vertex -0.0196601040661335 0.09281057864427567 -0.0030421544797718525
			vertex 0.017447656020522118 0.08424723893404007 -0.014142745174467564
			vertex 0.017127972096204758 0.08424157649278641 -0.014052056707441807
		endloop
	endfacet
	facet normal -0.27339863983052515 0.05976890018912765 -0.9600421148621561
		outer loop
			vertex -0.0196601040661335 0.09281057864427567 -0.0030421544797718525
			vertex 0.017127972096204758 0.08424157649278641 -0.014052056707441807
			vertex -0.019674265757203102 0.09279654175043106 -0.003038995433598757
		endloop
	endfacet
	facet normal -0.0006835191260484367 0.7906748100494065 -0.6122359655842993
		outer loop
			vertex -0.017105059698224068 0.09335944801568985 -0.0023361672647297382
			vertex 0.017447656020522118 0.08424723893404007 -0.014142745174467564
			vertex -0.0196601040661335 0.09281057864427567 -0.0030421544797718525
		endloop
	endfacet
	facet normal -0.27315855867147304 0.0608331298439576 -0.960043609497981
		outer loop
			vertex -0.02144550159573555 0.09320826083421707 -0.0025089611299335957
			vertex -0.02143569104373455 0.09322033077478409 -0.002510987687855959
			vertex -0.0196601040661335 0.09281057864427567 -0.0030421544797718525
		endloop
	endfacet
	facet normal -0.27339605806660167 0.059766090643271264 -0.9600430249956842
		outer loop
			vertex -0.02144550159573555 0.09320826083421707 -0.0025089611299335957
			vertex -0.0196601040661335 0.09281057864427567 -0.0030421544797718525
			vertex -0.019674265757203102 0.09279654175043106 -0.003038995433598757
		endloop
	endfacet
	facet normal -0.00013635784236623268 0.7882633967467033 -0.6153379549124923
		outer loop
			vertex -0.0555555522441864 0.08606240898370743 -0.011778526939451694
			vertex -0.046527083963155746 0.08707211166620255 -0.010487073101103306
			vertex -0.0555555522441864 0.08512631803750992 -0.01297768298536539
		endloop
	endfacet
	facet normal -0.0001929430823368554 0.788455115887976 -0.6150922638133614
		outer loop
			vertex -0.0555555522441864 0.0862320140004158 -0.011561118997633457
			vertex -0.046527083963155746 0.08707211166620255 -0.010487073101103306
			vertex -0.0555555522441864 0.08606240898370743 -0.011778526939451694
		endloop
	endfacet
	facet normal 0.0016733284498390696 0.7807932483498589 -0.624787246431275
		outer loop
			vertex -0.0555555522441864 0.08647597581148148 -0.011256241239607334
			vertex -0.046527083963155746 0.08707211166620255 -0.010487073101103306
			vertex -0.0555555522441864 0.0862320140004158 -0.011561118997633457
		endloop
	endfacet
	facet normal 0.00007457345791844141 0.7879486904714615 -0.6157408997485131
		outer loop
			vertex -0.0555555522441864 0.08766306191682816 -0.009731941856443882
			vertex -0.046527083963155746 0.08707211166620255 -0.010487073101103306
			vertex -0.0555555522441864 0.08689103275537491 -0.010719888843595982
		endloop
	endfacet
	facet normal -0.00008007731102617836 0.7908547461086992 -0.6120038922629246
		outer loop
			vertex -0.0555555522441864 0.08689103275537491 -0.010719888843595982
			vertex -0.046527083963155746 0.08707211166620255 -0.010487073101103306
			vertex -0.0555555522441864 0.08647597581148148 -0.011256241239607334
		endloop
	endfacet
	facet normal 2.61684933008946e-7 0.7842764349844131 -0.6204115356181501
		outer loop
			vertex -0.0555555522441864 0.1003018394112587 0.006441123317927122
			vertex -0.0555555522441864 0.10130471736192703 0.007708884309977293
			vertex -0.05117771774530411 0.10026741772890091 0.006397611927241087
		endloop
	endfacet
	facet normal 2.9991067859066483e-7 0.7842783063276261 -0.620409170002975
		outer loop
			vertex -0.0555555522441864 0.09904906898736954 0.004857457708567381
			vertex -0.0555555522441864 0.1003018394112587 0.006441123317927122
			vertex -0.05117771774530411 0.10026741772890091 0.006397611927241087
		endloop
	endfacet
	facet normal -0.0000027213806832282286 0.7842824849606463 -0.6204038876220455
		outer loop
			vertex -0.0555555522441864 0.09904906898736954 0.004857457708567381
			vertex -0.05117771774530411 0.10026741772890091 0.006397611927241087
			vertex -0.04652535542845726 0.09916508942842484 0.005004085134714842
		endloop
	endfacet
	facet normal 0.000610078707378879 0.7910431875695367 -0.6117600045800621
		outer loop
			vertex -0.0555555522441864 0.08798003941774368 -0.009322070516645908
			vertex -0.046527083963155746 0.08707211166620255 -0.010487073101103306
			vertex -0.0555555522441864 0.08766306191682816 -0.009731941856443882
		endloop
	endfacet
	facet normal 0.36806876100765146 -0.43836020944663956 -0.8199790936018982
		outer loop
			vertex -0.046379465609788895 0.08704058080911636 -0.010403954423964024
			vertex -0.046527083963155746 0.08707211166620255 -0.010487073101103306
			vertex -0.02143569104373455 0.09322033077478409 -0.002510987687855959
		endloop
	endfacet
	facet normal 0.3679678942970694 -0.43690125569805127 -0.8208026081440329
		outer loop
			vertex -0.046379465609788895 0.08704058080911636 -0.010403954423964024
			vertex -0.02143569104373455 0.09322033077478409 -0.002510987687855959
			vertex -0.02144550159573555 0.09320826083421707 -0.0025089611299335957
		endloop
	endfacet
	facet normal 4.856898955534604e-7 0.7842858825570973 -0.6203995925380668
		outer loop
			vertex -0.02143569104373455 0.09322033077478409 -0.002510987687855959
			vertex -0.0555555522441864 0.09440536051988602 -0.0010129442671313882
			vertex -0.0555555522441864 0.09904906898736954 0.004857457708567381
		endloop
	endfacet
	facet normal -0.000002602550518687204 0.7842789244513843 -0.6204083886075419
		outer loop
			vertex -0.02143569104373455 0.09322033077478409 -0.002510987687855959
			vertex -0.0555555522441864 0.09904906898736954 0.004857457708567381
			vertex -0.04652535542845726 0.09916508942842484 0.005004085134714842
		endloop
	endfacet
	facet normal 0.0006176267506439643 0.7910714090324287 -0.6117235031847679
		outer loop
			vertex -0.046527083963155746 0.08707211166620255 -0.010487073101103306
			vertex -0.0555555522441864 0.08798003941774368 -0.009322070516645908
			vertex -0.0555555522441864 0.09440536051988602 -0.0010129442671313882
		endloop
	endfacet
	facet normal 0.0006170588882454053 0.7910711475319159 -0.6117238419261312
		outer loop
			vertex -0.046527083963155746 0.08707211166620255 -0.010487073101103306
			vertex -0.0555555522441864 0.09440536051988602 -0.0010129442671313882
			vertex -0.02143569104373455 0.09322033077478409 -0.002510987687855959
		endloop
	endfacet
	facet normal -0.0007109503690782649 0.7909863397620378 -0.6118333963256883
		outer loop
			vertex -0.02143569104373455 0.09322033077478409 -0.002510987687855959
			vertex -0.017227184027433395 0.09339163452386856 -0.002294414211064577
			vertex -0.017105059698224068 0.09335944801568985 -0.0023361672647297382
		endloop
	endfacet
	facet normal -0.0006848944394373309 0.7906772151195781 -0.612232857996331
		outer loop
			vertex -0.02143569104373455 0.09322033077478409 -0.002510987687855959
			vertex -0.017105059698224068 0.09335944801568985 -0.0023361672647297382
			vertex -0.0196601040661335 0.09281057864427567 -0.0030421544797718525
		endloop
	endfacet
	facet normal 0.0000025103863390916907 0.784286825606708 -0.6203984003633886
		outer loop
			vertex -0.017227184027433395 0.09339163452386856 -0.002294414211064577
			vertex -0.02143569104373455 0.09322033077478409 -0.002510987687855959
			vertex -0.0555555522441864 0.10130471736192703 0.007708884309977293
		endloop
	endfacet
	facet normal 0.000005329703617266867 0.7842920816751212 -0.6203917557425306
		outer loop
			vertex -0.017227184027433395 0.09339163452386856 -0.002294414211064577
			vertex -0.0555555522441864 0.10130471736192703 0.007708884309977293
			vertex -0.0555555522441864 0.10202724486589432 0.00862229522317648
		endloop
	endfacet
	facet normal 0 0.7842829768010862 -0.6204032658682793
		outer loop
			vertex -0.017227184027433395 0.09339163452386856 -0.002294414211064577
			vertex -0.0555555522441864 0.10202724486589432 0.00862229522317648
			vertex -0.053303997963666916 0.10202724486589432 0.00862229522317648
		endloop
	endfacet
	facet normal -0.000011909641724934678 0.7842638257894101 -0.6204274747432759
		outer loop
			vertex -0.017227184027433395 0.09339163452386856 -0.002294414211064577
			vertex -0.053303997963666916 0.10202724486589432 0.00862229522317648
			vertex -0.027384424582123756 0.09611121565103531 0.001143521978519857
		endloop
	endfacet
	facet normal -0.0002793893027817243 0.7892781840946059 -0.6140357237603843
		outer loop
			vertex 0.03442242741584778 0.07976344972848892 -0.01993720978498459
			vertex 0.034100573509931564 0.07972878962755203 -0.019981615245342255
			vertex 0.01877700164914131 0.08374873548746109 -0.014807426370680332
		endloop
	endfacet
	facet normal -0.0002705014931248564 0.7892913300437192 -0.614018829635345
		outer loop
			vertex 0.03442242741584778 0.07976344972848892 -0.01993720978498459
			vertex 0.01877700164914131 0.08374873548746109 -0.014807426370680332
			vertex 0.01920471340417862 0.08379314094781876 -0.014750533737242222
		endloop
	endfacet
	facet normal 0 0.784283645885424 -0.6204024200441736
		outer loop
			vertex -0.053303997963666916 0.10202724486589432 0.00862229522317648
			vertex -0.0494801327586174 0.10202724486589432 0.00862229522317648
			vertex -0.03377076983451843 0.09782112389802933 0.0033051143400371075
		endloop
	endfacet
	facet normal -0.00001573416442654041 0.7842555206052646 -0.6204379728486981
		outer loop
			vertex -0.053303997963666916 0.10202724486589432 0.00862229522317648
			vertex -0.03377076983451843 0.09782112389802933 0.0033051143400371075
			vertex -0.03479356691241264 0.0978022888302803 0.0032813320867717266
		endloop
	endfacet
	facet normal -0.002557778093199722 0.7975395624857405 -0.6032612237176196
		outer loop
			vertex 0.01877700164914131 0.08374873548746109 -0.014807426370680332
			vertex 0.017447656020522118 0.08424723893404007 -0.014142745174467564
			vertex 0.01920471340417862 0.08379314094781876 -0.014750533737242222
		endloop
	endfacet
	facet normal -0.000016021321295794052 0.7842615271737761 -0.6204303802509783
		outer loop
			vertex -0.03377076983451843 0.09782112389802933 0.0033051143400371075
			vertex -0.027384424582123756 0.09611121565103531 0.001143521978519857
			vertex -0.03479356691241264 0.0978022888302803 0.0032813320867717266
		endloop
	endfacet
	facet normal -0.0002431765375044831 0.7893327216085336 -0.6139656305227816
		outer loop
			vertex 0.0555555522441864 0.08756536990404129 -0.00991519633680582
			vertex 0.0555555522441864 0.08203906565904617 -0.017019979655742645
			vertex 0.03442242741584778 0.07976344972848892 -0.01993720978498459
		endloop
	endfacet
	facet normal -0.00024214777961911808 0.7893316708365897 -0.613966981831084
		outer loop
			vertex 0.0555555522441864 0.08756536990404129 -0.00991519633680582
			vertex 0.03442242741584778 0.07976344972848892 -0.01993720978498459
			vertex 0.01920471340417862 0.08379314094781876 -0.014750533737242222
		endloop
	endfacet
	facet normal -7.893515307424739e-8 0.7842842911158353 -0.6204016043732684
		outer loop
			vertex 0.0555555522441864 0.10202724486589432 0.00862229522317648
			vertex 0.0555555522441864 0.0994640663266182 0.005382038187235594
			vertex -0.03377076983451843 0.09782112389802933 0.0033051143400371075
		endloop
	endfacet
	facet normal 0 0.7842836458854238 -0.6204024200441736
		outer loop
			vertex 0.0555555522441864 0.10202724486589432 0.00862229522317648
			vertex -0.03377076983451843 0.09782112389802933 0.0033051143400371075
			vertex -0.0494801327586174 0.10202724486589432 0.00862229522317648
		endloop
	endfacet
	facet normal 1 0 0
		outer loop
			vertex 0.0555555522441864 0.10202724486589432 0.00862229522317648
			vertex 0.0555555522441864 0.10202724486589432 0.008677310310304165
			vertex 0.0555555522441864 0.0994640663266182 0.005382038187235594
		endloop
	endfacet
	facet normal -0.0025267664271912673 0.7975694103992594 -0.6032218920486889
		outer loop
			vertex 0.017447656020522118 0.08424723893404007 -0.014142745174467564
			vertex 0.0555555522441864 0.08806515485048294 -0.009254389442503452
			vertex 0.0555555522441864 0.08756536990404129 -0.00991519633680582
		endloop
	endfacet
	facet normal -0.0025291523713429124 0.797579612787544 -0.6032083923935028
		outer loop
			vertex 0.017447656020522118 0.08424723893404007 -0.014142745174467564
			vertex 0.0555555522441864 0.08756536990404129 -0.00991519633680582
			vertex 0.01920471340417862 0.08379314094781876 -0.014750533737242222
		endloop
	endfacet
	facet normal -0.0006809888430779441 0.7906796748987681 -0.6122296856214781
		outer loop
			vertex -0.017227184027433395 0.09339163452386856 -0.002294414211064577
			vertex 0.0555555522441864 0.09635437279939651 0.001450932933948934
			vertex 0.0555555522441864 0.08806515485048294 -0.009254389442503452
		endloop
	endfacet
	facet normal -0.0006809996719092957 0.7906796198355909 -0.612229756722174
		outer loop
			vertex -0.017227184027433395 0.09339163452386856 -0.002294414211064577
			vertex 0.0555555522441864 0.08806515485048294 -0.009254389442503452
			vertex 0.017447656020522118 0.08424723893404007 -0.014142745174467564
		endloop
	endfacet
	facet normal 1.2547508927063807e-7 0.7842818431657625 -0.6204046989510141
		outer loop
			vertex 0.0555555522441864 0.0994640663266182 0.005382038187235594
			vertex 0.0555555522441864 0.09635437279939651 0.001450932933948934
			vertex -0.017227184027433395 0.09339163452386856 -0.002294414211064577
		endloop
	endfacet
	facet normal 1.3315400791177628e-8 0.7842823605961714 -0.6204040448431143
		outer loop
			vertex 0.0555555522441864 0.0994640663266182 0.005382038187235594
			vertex -0.017227184027433395 0.09339163452386856 -0.002294414211064577
			vertex -0.03377076983451843 0.09782112389802933 0.0033051143400371075
		endloop
	endfacet
	facet normal 1 0 0
		outer loop
			vertex 0.0555555522441864 0.0994640663266182 0.005382038187235594
			vertex 0.0555555522441864 0.10202724486589432 0.008677310310304165
			vertex 0.0555555522441864 0.10202724486589432 0.008743799291551113
		endloop
	endfacet
	facet normal 1 0 0
		outer loop
			vertex 0.0555555522441864 0.0994640663266182 0.005382038187235594
			vertex 0.0555555522441864 0.10202724486589432 0.008743799291551113
			vertex 0.0555555522441864 0.09778351336717606 0.0032965908758342266
		endloop
	endfacet
	facet normal 1 0 0
		outer loop
			vertex 0.0555555522441864 0.0994640663266182 0.005382038187235594
			vertex 0.0555555522441864 0.09778351336717606 0.0032965908758342266
			vertex 0.0555555522441864 0.09635437279939651 0.001450932933948934
		endloop
	endfacet
	facet normal 1 0 0
		outer loop
			vertex 0.0555555522441864 0.09778351336717606 0.0032965908758342266
			vertex 0.0555555522441864 0.09005267173051834 -0.006626539397984743
			vertex 0.0555555522441864 0.08806515485048294 -0.009254389442503452
		endloop
	endfacet
	facet normal 1 0 0
		outer loop
			vertex 0.0555555522441864 0.08197969943284988 -0.01698886603116989
			vertex 0.0555555522441864 0.08203906565904617 -0.017019979655742645
			vertex 0.0555555522441864 0.08756536990404129 -0.00991519633680582
		endloop
	endfacet
	facet normal 1 0 0
		outer loop
			vertex 0.0555555522441864 0.08197969943284988 -0.01698886603116989
			vertex 0.0555555522441864 0.08756536990404129 -0.00991519633680582
			vertex 0.0555555522441864 0.09005267173051834 -0.006626539397984743
		endloop
	endfacet
	facet normal -0.3962352401993531 -0.5740747421360562 -0.7165443635013687
		outer loop
			vertex 0.017497379332780838 0.08378536254167557 -0.013800197280943394
			vertex 0.017452849075198174 0.08419901877641678 -0.01410698238760233
			vertex 0.034446511417627335 0.07969854027032852 -0.019898496568202972
		endloop
	endfacet
	facet normal -0.39623645535892427 -0.5740438266168727 -0.7165684590935142
		outer loop
			vertex 0.017497379332780838 0.08378536254167557 -0.013800197280943394
			vertex 0.034446511417627335 0.07969854027032852 -0.019898496568202972
			vertex 0.034596510231494904 0.07929430156946182 -0.01965760439634323
		endloop
	endfacet
	facet normal 0.3291675385235293 -0.5106466686506524 -0.7942850315713824
		outer loop
			vertex -0.0555555522441864 0.08506164699792862 -0.012936078943312168
			vertex -0.04679781198501587 0.08694953471422195 -0.010520421899855137
			vertex -0.04931231588125229 0.08581099659204483 -0.010830515064299107
		endloop
	endfacet
	facet normal 0.3291674741518968 -0.5106474266206997 -0.7942845709480435
		outer loop
			vertex -0.0555555522441864 0.08506164699792862 -0.012936078943312168
			vertex -0.04931231588125229 0.08581099659204483 -0.010830515064299107
			vertex -0.0555555522441864 0.0844496563076973 -0.012542628683149815
		endloop
	endfacet
	facet normal -0.20913728193193945 -0.596947232262951 -0.7745421868431204
		outer loop
			vertex 0.017452849075198174 0.08419901877641678 -0.01410698238760233
			vertex 0.017497379332780838 0.08378536254167557 -0.013800197280943394
			vertex 0.01433864701539278 0.08419210463762283 -0.013260775245726109
		endloop
	endfacet
	facet normal -0.20914631501216419 -0.5969014170139385 -0.7745750559394389
		outer loop
			vertex 0.017452849075198174 0.08419901877641678 -0.01410698238760233
			vertex 0.01433864701539278 0.08419210463762283 -0.013260775245726109
			vertex 0.017127972096204758 0.08424157649278641 -0.014052056707441807
		endloop
	endfacet
	facet normal -0.2734061749678206 0.059736332111827745 -0.9600419960164718
		outer loop
			vertex -0.019674265757203102 0.09279654175043106 -0.003038995433598757
			vertex 0.017127972096204758 0.08424157649278641 -0.014052056707441807
			vertex 0.01433864701539278 0.08419210463762283 -0.013260775245726109
		endloop
	endfacet
	facet normal -0.2734136798590512 0.05970634279679678 -0.9600417242473184
		outer loop
			vertex -0.019674265757203102 0.09279654175043106 -0.003038995433598757
			vertex 0.01433864701539278 0.08419210463762283 -0.013260775245726109
			vertex -0.020350398495793343 0.09212604910135269 -0.002888136077672243
		endloop
	endfacet
	facet normal -0.2734064673546246 0.059721097675145135 -0.9600428605542257
		outer loop
			vertex -0.022016014903783798 0.0925070121884346 -0.0023901094682514668
			vertex -0.02144550159573555 0.09320826083421707 -0.0025089611299335957
			vertex -0.019674265757203102 0.09279654175043106 -0.003038995433598757
		endloop
	endfacet
	facet normal -0.2734039706708437 0.059695782041349246 -0.9600451460363144
		outer loop
			vertex -0.022016014903783798 0.0925070121884346 -0.0023901094682514668
			vertex -0.019674265757203102 0.09279654175043106 -0.003038995433598757
			vertex -0.020350398495793343 0.09212604910135269 -0.002888136077672243
		endloop
	endfacet
	facet normal 0.3323040087388361 -0.5195397313164692 -0.7871801022381796
		outer loop
			vertex -0.046379465609788895 0.08704058080911636 -0.010403954423964024
			vertex -0.04503277316689491 0.08675292879343033 -0.009645604528486729
			vertex -0.04931231588125229 0.08581099659204483 -0.010830515064299107
		endloop
	endfacet
	facet normal 0.33222028764269385 -0.5192648713235525 -0.7873967703057593
		outer loop
			vertex -0.046379465609788895 0.08704058080911636 -0.010403954423964024
			vertex -0.04931231588125229 0.08581099659204483 -0.010830515064299107
			vertex -0.04679781198501587 0.08694953471422195 -0.010520421899855137
		endloop
	endfacet
	facet normal 0.3680733208777704 -0.43843631582613074 -0.8199363557147711
		outer loop
			vertex -0.04503277316689491 0.08675292879343033 -0.009645604528486729
			vertex -0.046379465609788895 0.08704058080911636 -0.010403954423964024
			vertex -0.02144550159573555 0.09320826083421707 -0.0025089611299335957
		endloop
	endfacet
	facet normal 0.368071755000797 -0.43842042107664037 -0.8199455576766149
		outer loop
			vertex -0.04503277316689491 0.08675292879343033 -0.009645604528486729
			vertex -0.02144550159573555 0.09320826083421707 -0.0025089611299335957
			vertex -0.022016014903783798 0.0925070121884346 -0.0023901094682514668
		endloop
	endfacet
	facet normal 1 0 0
		outer loop
			vertex 0.0555555522441864 0.08161405473947525 -0.01679735630750656
			vertex 0.0555555522441864 0.08197969943284988 -0.01698886603116989
			vertex 0.0555555522441864 0.10202724486589432 0.008743799291551113
		endloop
	endfacet
	facet normal 1 0 0
		outer loop
			vertex 0.0555555522441864 0.08161405473947525 -0.01679735630750656
			vertex 0.0555555522441864 0.10202724486589432 0.008743799291551113
			vertex 0.0555555522441864 0.10202724486589432 0.009395248256623745
		endloop
	endfacet
	facet normal -0.3962362109132617 -0.5740685018544934 -0.7165488262077042
		outer loop
			vertex 0.021413275972008705 0.04741106182336807 0.013175941072404385
			vertex 0.017497379332780838 0.08378536254167557 -0.013800197280943394
			vertex 0.034596510231494904 0.07929430156946182 -0.01965760439634323
		endloop
	endfacet
	facet normal -0.3962362789718812 -0.5740684651988404 -0.716548817939689
		outer loop
			vertex 0.021413275972008705 0.04741106182336807 0.013175941072404385
			vertex 0.034596510231494904 0.07929430156946182 -0.01965760439634323
			vertex 0.04842787981033325 0.04202035814523697 0.0025562415830790997
		endloop
	endfacet
	facet normal -0.3962356493079379 -0.5740751077964314 -0.7165438443152188
		outer loop
			vertex 0.021413275972008705 0.04741106182336807 0.013175941072404385
			vertex 0.04842787981033325 0.04202035814523697 0.0025562415830790997
			vertex 0.04275737702846527 0.04110796004533768 0.00642291409894824
		endloop
	endfacet
	facet normal 0.3291674701333504 -0.5106473194140929 -0.7942846415367804
		outer loop
			vertex -0.0555555522441864 0.0844496563076973 -0.012542628683149815
			vertex -0.04931231588125229 0.08581099659204483 -0.010830515064299107
			vertex -0.0555555522441864 0.0829840674996376 -0.01160039845854044
		endloop
	endfacet
	facet normal -0.20914494390747673 -0.5969394167346719 -0.7745461414185784
		outer loop
			vertex 0.017497379332780838 0.08378536254167557 -0.013800197280943394
			vertex 0.021413275972008705 0.04741106182336807 0.013175941072404385
			vertex -0.005968891549855471 0.05380813032388687 0.015639550983905792
		endloop
	endfacet
	facet normal -0.20914517951907802 -0.5969392761913974 -0.7745461861141808
		outer loop
			vertex 0.017497379332780838 0.08378536254167557 -0.013800197280943394
			vertex -0.005968891549855471 0.05380813032388687 0.015639550983905792
			vertex -0.029039908200502396 0.08294675499200821 -0.0005877545336261392
		endloop
	endfacet
	facet normal -0.20914994119331304 -0.5969176282941708 -0.7745615838204836
		outer loop
			vertex 0.017497379332780838 0.08378536254167557 -0.013800197280943394
			vertex -0.029039908200502396 0.08294675499200821 -0.0005877545336261392
			vertex -0.029128529131412506 0.08342144638299942 -0.0009296467760577798
		endloop
	endfacet
	facet normal -0.2091371932658159 -0.5969797366408163 -0.774517158256135
		outer loop
			vertex 0.017497379332780838 0.08378536254167557 -0.013800197280943394
			vertex -0.029128529131412506 0.08342144638299942 -0.0009296467760577798
			vertex 0.01433864701539278 0.08419210463762283 -0.013260775245726109
		endloop
	endfacet
	facet normal 0.08909741238386681 -0.42983166388552163 -0.8985023048539738
		outer loop
			vertex -0.029039908200502396 0.08294675499200821 -0.0005877545336261392
			vertex -0.005968891549855471 0.05380813032388687 0.015639550983905792
			vertex -0.04127805307507515 0.05949632078409195 0.009417063556611538
		endloop
	endfacet
	facet normal -0.2734113485690551 0.059716571968012465 -0.9600417519597988
		outer loop
			vertex -0.020350398495793343 0.09212604910135269 -0.002888136077672243
			vertex 0.01433864701539278 0.08419210463762283 -0.013260775245726109
			vertex -0.029128529131412506 0.08342144638299942 -0.0009296467760577798
		endloop
	endfacet
	facet normal -0.2091124797421675 -0.5969178155175628 -0.774571554043797
		outer loop
			vertex -0.029039908200502396 0.08294675499200821 -0.0005877545336261392
			vertex -0.029411764815449715 0.0834164097905159 -0.0008492997149005532
			vertex -0.029128529131412506 0.08342144638299942 -0.0009296467760577798
		endloop
	endfacet
	facet normal 0.3323083051967737 -0.519519513642409 -0.7871916318419567
		outer loop
			vertex -0.04503277316689491 0.08675292879343033 -0.009645604528486729
			vertex -0.029411764815449715 0.0834164097905159 -0.0008492997149005532
			vertex -0.0555555522441864 0.0744636133313179 -0.005977206397801638
		endloop
	endfacet
	facet normal 0.33230703726698013 -0.5195187401285548 -0.7871926775815951
		outer loop
			vertex -0.04503277316689491 0.08675292879343033 -0.009645604528486729
			vertex -0.0555555522441864 0.0744636133313179 -0.005977206397801638
			vertex -0.0555555522441864 0.0829840674996376 -0.01160039845854044
		endloop
	endfacet
	facet normal 0.33230263145098327 -0.5194985703114952 -0.7872078483952409
		outer loop
			vertex -0.04503277316689491 0.08675292879343033 -0.009645604528486729
			vertex -0.0555555522441864 0.0829840674996376 -0.01160039845854044
			vertex -0.04931231588125229 0.08581099659204483 -0.010830515064299107
		endloop
	endfacet
	facet normal 0.08908950685328844 -0.4298285152639709 -0.898504594999162
		outer loop
			vertex -0.029411764815449715 0.0834164097905159 -0.0008492997149005532
			vertex -0.029039908200502396 0.08294675499200821 -0.0005877545336261392
			vertex -0.04127805307507515 0.05949632078409195 0.009417063556611538
		endloop
	endfacet
	facet normal 0.08910179432523374 -0.42983313862636796 -0.8985011648220772
		outer loop
			vertex -0.029411764815449715 0.0834164097905159 -0.0008492997149005532
			vertex -0.04127805307507515 0.05949632078409195 0.009417063556611538
			vertex -0.042728208005428314 0.059729911386966705 0.00916150864213705
		endloop
	endfacet
	facet normal 0.3502867595311281 -0.6215746617424267 -0.7006740511657111
		outer loop
			vertex -0.0555555522441864 0.061436332762241364 0.0055794189684093
			vertex -0.0555555522441864 0.0744636133313179 -0.005977206397801638
			vertex -0.029411764815449715 0.0834164097905159 -0.0008492997149005532
		endloop
	endfacet
	facet normal 0.3502904322387195 -0.6215777038409206 -0.700669516369779
		outer loop
			vertex -0.0555555522441864 0.061436332762241364 0.0055794189684093
			vertex -0.029411764815449715 0.0834164097905159 -0.0008492997149005532
			vertex -0.05203884840011597 0.06122986227273941 0.007520712446421385
		endloop
	endfacet
	facet normal 0.0890954792707179 -0.429830405576617 -0.8985030985007021
		outer loop
			vertex -0.05203884840011597 0.06122986227273941 0.007520712446421385
			vertex -0.029411764815449715 0.0834164097905159 -0.0008492997149005532
			vertex -0.042728208005428314 0.059729911386966705 0.00916150864213705
		endloop
	endfacet
	facet normal 0.3680728178714483 -0.43842293739286514 -0.8199437350891728
		outer loop
			vertex -0.029411764815449715 0.0834164097905159 -0.0008492997149005532
			vertex -0.04503277316689491 0.08675292879343033 -0.009645604528486729
			vertex -0.031608693301677704 0.09010890871286392 -0.005413972306996584
		endloop
	endfacet
	facet normal -0.2734016483591994 0.05970597168250449 -0.9600451737391947
		outer loop
			vertex -0.029411764815449715 0.0834164097905159 -0.0008492997149005532
			vertex -0.022016014903783798 0.0925070121884346 -0.0023901094682514668
			vertex -0.020350398495793343 0.09212604910135269 -0.002888136077672243
		endloop
	endfacet
	facet normal -0.27340302073512696 0.05970751341351758 -0.9600446870301833
		outer loop
			vertex -0.029411764815449715 0.0834164097905159 -0.0008492997149005532
			vertex -0.020350398495793343 0.09212604910135269 -0.002888136077672243
			vertex -0.029128529131412506 0.08342144638299942 -0.0009296467760577798
		endloop
	endfacet
	facet normal 0.36807076643216785 -0.4384238910996777 -0.8199441460313346
		outer loop
			vertex -0.029411764815449715 0.0834164097905159 -0.0008492997149005532
			vertex -0.031608693301677704 0.09010890871286392 -0.005413972306996584
			vertex -0.022016014903783798 0.0925070121884346 -0.0023901094682514668
		endloop
	endfacet
	facet normal 1 0 0
		outer loop
			vertex 0.0555555522441864 0.10202724486589432 0.03674162179231644
			vertex 0.0555555522441864 0.04669196158647537 0.03674162179231644
			vertex 0.0555555522441864 0.04079707711935043 0.015104777179658413
		endloop
	endfacet
	facet normal 1 0 0
		outer loop
			vertex 0.0555555522441864 0.10202724486589432 0.03674162179231644
			vertex 0.0555555522441864 0.04079707711935043 0.015104777179658413
			vertex 0.0555555522441864 0.04233958572149277 0.0037749777548015118
		endloop
	endfacet
	facet normal 1 0 0
		outer loop
			vertex 0.0555555522441864 0.10202724486589432 0.03674162179231644
			vertex 0.0555555522441864 0.04233958572149277 0.0037749777548015118
			vertex 0.0555555522441864 0.08161405473947525 -0.01679735630750656
		endloop
	endfacet
	facet normal 1 0 0
		outer loop
			vertex 0.0555555522441864 0.10202724486589432 0.03674162179231644
			vertex 0.0555555522441864 0.08161405473947525 -0.01679735630750656
			vertex 0.0555555522441864 0.10202724486589432 0.009395248256623745
		endloop
	endfacet
	facet normal -1 0 0
		outer loop
			vertex -0.0555555522441864 0.0016612051986157894 0.03674162179231644
			vertex -0.0555555522441864 0.007791840936988592 0.03674162179231644
			vertex -0.0555555522441864 0.029785702005028725 0.022601492702960968
		endloop
	endfacet
	facet normal -1 0 0
		outer loop
			vertex -0.0555555522441864 0.0016612051986157894 0.03674162179231644
			vertex -0.0555555522441864 0.029785702005028725 0.022601492702960968
			vertex -0.0555555522441864 0.030556688085198402 0.02184564620256424
		endloop
	endfacet
	facet normal -1 0 0
		outer loop
			vertex -0.0555555522441864 0.0016612051986157894 0.03674162179231644
			vertex -0.0555555522441864 0.030556688085198402 0.02184564620256424
			vertex -0.0555555522441864 0.0020672171376645565 0.035474635660648346
		endloop
	endfacet
	facet normal -1 0 0
		outer loop
			vertex -0.0555555522441864 0.007791840936988592 0.03674162179231644
			vertex -0.0555555522441864 0.009734787978231907 0.03674162179231644
			vertex -0.0555555522441864 0.026954228058457375 0.02537740021944046
		endloop
	endfacet
	facet normal -1 0 0
		outer loop
			vertex -0.0555555522441864 0.007791840936988592 0.03674162179231644
			vertex -0.0555555522441864 0.026954228058457375 0.02537740021944046
			vertex -0.0555555522441864 0.029785702005028725 0.022601492702960968
		endloop
	endfacet
	facet normal -1 0 0
		outer loop
			vertex -0.0555555522441864 0.009734787978231907 0.03674162179231644
			vertex -0.0555555522441864 0.015362420119345188 0.03674162179231644
			vertex -0.0555555522441864 0.026954228058457375 0.02537740021944046
		endloop
	endfacet
	facet normal -1 0 0
		outer loop
			vertex -0.0555555522441864 0.015362420119345188 0.03674162179231644
			vertex -0.0555555522441864 0.026308516040444374 0.03674162179231644
			vertex -0.0555555522441864 0.029973873868584633 0.03349006921052933
		endloop
	endfacet
	facet normal -1 0 0
		outer loop
			vertex -0.0555555522441864 0.015362420119345188 0.03674162179231644
			vertex -0.0555555522441864 0.029973873868584633 0.03349006921052933
			vertex -0.0555555522441864 0.036804549396038055 0.01885674148797989
		endloop
	endfacet
	facet normal -1 0 0
		outer loop
			vertex -0.0555555522441864 0.015362420119345188 0.03674162179231644
			vertex -0.0555555522441864 0.036804549396038055 0.01885674148797989
			vertex -0.0555555522441864 0.030556688085198402 0.02184564620256424
		endloop
	endfacet
	facet normal -1 0 0
		outer loop
			vertex -0.0555555522441864 0.026308516040444374 0.03674162179231644
			vertex -0.0555555522441864 0.028456086292862892 0.03674162179231644
			vertex -0.0555555522441864 0.029973873868584633 0.03349006921052933
		endloop
	endfacet
	facet normal -1 0 0
		outer loop
			vertex -0.0555555522441864 0.04354722052812576 0.015631116926670074
			vertex -0.0555555522441864 0.04778004437685013 0.01715046912431717
			vertex -0.0555555522441864 0.04923591762781143 0.01290974672883749
		endloop
	endfacet
	facet normal -1 0 0
		outer loop
			vertex -0.0555555522441864 0.04751170426607132 0.017932094633579254
			vertex -0.0555555522441864 0.04778004437685013 0.01715046912431717
			vertex -0.0555555522441864 0.04354722052812576 0.015631116926670074
		endloop
	endfacet
	facet normal -1 0 0
		outer loop
			vertex -0.0555555522441864 0.04751170426607132 0.017932094633579254
			vertex -0.0555555522441864 0.04354722052812576 0.015631116926670074
			vertex -0.0555555522441864 0.036804549396038055 0.01885674148797989
		endloop
	endfacet
	facet normal -1 0 0
		outer loop
			vertex -0.0555555522441864 0.04751170426607132 0.017932094633579254
			vertex -0.0555555522441864 0.036804549396038055 0.01885674148797989
			vertex -0.0555555522441864 0.029973873868584633 0.03349006921052933
		endloop
	endfacet
	facet normal -1 0 0
		outer loop
			vertex -0.0555555522441864 0.028456086292862892 0.03674162179231644
			vertex -0.0555555522441864 0.04097691923379898 0.03674162179231644
			vertex -0.0555555522441864 0.04122240096330643 0.03625188022851944
		endloop
	endfacet
	facet normal -1 0 0
		outer loop
			vertex -0.0555555522441864 0.028456086292862892 0.03674162179231644
			vertex -0.0555555522441864 0.04122240096330643 0.03625188022851944
			vertex -0.0555555522441864 0.04751170426607132 0.017932094633579254
		endloop
	endfacet
	facet normal -1 0 0
		outer loop
			vertex -0.0555555522441864 0.028456086292862892 0.03674162179231644
			vertex -0.0555555522441864 0.04751170426607132 0.017932094633579254
			vertex -0.0555555522441864 0.029973873868584633 0.03349006921052933
		endloop
	endfacet
	facet normal -1 0 0
		outer loop
			vertex -0.0555555522441864 0.04778004437685013 0.01715046912431717
			vertex -0.0555555522441864 0.048216260969638824 0.017307080328464508
			vertex -0.0555555522441864 0.050224579870700836 0.01552546676248312
		endloop
	endfacet
	facet normal -1 0 0
		outer loop
			vertex -0.0555555522441864 0.04778004437685013 0.01715046912431717
			vertex -0.0555555522441864 0.050224579870700836 0.01552546676248312
			vertex -0.0555555522441864 0.051509566605091095 0.011822021566331387
		endloop
	endfacet
	facet normal -1 0 0
		outer loop
			vertex -0.0555555522441864 0.04778004437685013 0.01715046912431717
			vertex -0.0555555522441864 0.051509566605091095 0.011822021566331387
			vertex -0.0555555522441864 0.04923591762781143 0.01290974672883749
		endloop
	endfacet
	facet normal -1 0 0
		outer loop
			vertex -0.0555555522441864 0.048216260969638824 0.017307080328464508
			vertex -0.0555555522441864 0.04778004437685013 0.01715046912431717
			vertex -0.0555555522441864 0.04751170426607132 0.017932094633579254
		endloop
	endfacet
	facet normal -1 0 0
		outer loop
			vertex -0.0555555522441864 0.048216260969638824 0.017307080328464508
			vertex -0.0555555522441864 0.049452461302280426 0.017750807106494904
			vertex -0.0555555522441864 0.050224579870700836 0.01552546676248312
		endloop
	endfacet
	facet normal -1 0 0
		outer loop
			vertex -0.0555555522441864 0.04122240096330643 0.03625188022851944
			vertex -0.0555555522441864 0.04710603505373001 0.02451346069574356
			vertex -0.0555555522441864 0.049452461302280426 0.017750807106494904
		endloop
	endfacet
	facet normal -1 0 0
		outer loop
			vertex -0.0555555522441864 0.04122240096330643 0.03625188022851944
			vertex -0.0555555522441864 0.049452461302280426 0.017750807106494904
			vertex -0.0555555522441864 0.048216260969638824 0.017307080328464508
		endloop
	endfacet
	facet normal -1 0 0
		outer loop
			vertex -0.0555555522441864 0.04122240096330643 0.03625188022851944
			vertex -0.0555555522441864 0.048216260969638824 0.017307080328464508
			vertex -0.0555555522441864 0.04751170426607132 0.017932094633579254
		endloop
	endfacet
	facet normal -1 0 0
		outer loop
			vertex -0.0555555522441864 0.0527210608124733 0.013310826383531094
			vertex -0.0555555522441864 0.05408478528261185 0.010590112768113613
			vertex -0.0555555522441864 0.051509566605091095 0.011822021566331387
		endloop
	endfacet
	facet normal -1 0 0
		outer loop
			vertex -0.0555555522441864 0.0527210608124733 0.013310826383531094
			vertex -0.0555555522441864 0.051509566605091095 0.011822021566331387
			vertex -0.0555555522441864 0.050224579870700836 0.01552546676248312
		endloop
	endfacet
	facet normal -1 0 0
		outer loop
			vertex -0.0555555522441864 0.049452461302280426 0.017750807106494904
			vertex -0.0555555522441864 0.050336576998233795 0.018068142235279083
			vertex -0.0555555522441864 0.0527210608124733 0.013310826383531094
		endloop
	endfacet
	facet normal -1 0 0
		outer loop
			vertex -0.0555555522441864 0.049452461302280426 0.017750807106494904
			vertex -0.0555555522441864 0.0527210608124733 0.013310826383531094
			vertex -0.0555555522441864 0.050224579870700836 0.01552546676248312
		endloop
	endfacet
	facet normal -1 0 0
		outer loop
			vertex -0.0555555522441864 0.04710603505373001 0.02451346069574356
			vertex -0.0555555522441864 0.050336576998233795 0.018068142235279083
			vertex -0.0555555522441864 0.049452461302280426 0.017750807106494904
		endloop
	endfacet
	facet normal -1 0 0
		outer loop
			vertex -0.0555555522441864 0.05517346411943436 0.011135286651551723
			vertex -0.0555555522441864 0.055105872452259064 0.0101016229018569
			vertex -0.0555555522441864 0.05408478528261185 0.010590112768113613
		endloop
	endfacet
	facet normal -1 0 0
		outer loop
			vertex -0.0555555522441864 0.05517346411943436 0.011135286651551723
			vertex -0.0555555522441864 0.05408478528261185 0.010590112768113613
			vertex -0.0555555522441864 0.0527210608124733 0.013310826383531094
		endloop
	endfacet
	facet normal -1 0 0
		outer loop
			vertex -0.0555555522441864 0.050336576998233795 0.018068142235279083
			vertex -0.0555555522441864 0.055753953754901886 0.020012684166431427
			vertex -0.0555555522441864 0.05517346411943436 0.011135286651551723
		endloop
	endfacet
	facet normal -1 0 0
		outer loop
			vertex -0.0555555522441864 0.050336576998233795 0.018068142235279083
			vertex -0.0555555522441864 0.05517346411943436 0.011135286651551723
			vertex -0.0555555522441864 0.0527210608124733 0.013310826383531094
		endloop
	endfacet
	facet normal -1 0 0
		outer loop
			vertex -0.0555555522441864 0.04097691923379898 0.03674162179231644
			vertex -0.0555555522441864 0.05684790760278702 0.03674162179231644
			vertex -0.0555555522441864 0.055753953754901886 0.020012684166431427
		endloop
	endfacet
	facet normal -1 0 0
		outer loop
			vertex -0.0555555522441864 0.04097691923379898 0.03674162179231644
			vertex -0.0555555522441864 0.055753953754901886 0.020012684166431427
			vertex -0.0555555522441864 0.050336576998233795 0.018068142235279083
		endloop
	endfacet
	facet normal -1 0 0
		outer loop
			vertex -0.0555555522441864 0.055105872452259064 0.0101016229018569
			vertex -0.0555555522441864 0.05517346411943436 0.011135286651551723
			vertex -0.0555555522441864 0.05778161436319351 0.008821583352982998
		endloop
	endfacet
	facet normal -1 0 0
		outer loop
			vertex -0.0555555522441864 0.05517346411943436 0.011135286651551723
			vertex -0.0555555522441864 0.055753953754901886 0.020012684166431427
			vertex -0.0555555522441864 0.06641078740358353 0.02383793145418167
		endloop
	endfacet
	facet normal -1 0 0
		outer loop
			vertex -0.0555555522441864 0.05517346411943436 0.011135286651551723
			vertex -0.0555555522441864 0.06641078740358353 0.02383793145418167
			vertex -0.0555555522441864 0.061436332762241364 0.0055794189684093
		endloop
	endfacet
	facet normal -1 0 0
		outer loop
			vertex -0.0555555522441864 0.05684790760278702 0.03674162179231644
			vertex -0.0555555522441864 0.06992635875940323 0.03674162179231644
			vertex -0.0555555522441864 0.06641078740358353 0.02383793145418167
		endloop
	endfacet
	facet normal -1 0 0
		outer loop
			vertex -0.0555555522441864 0.05684790760278702 0.03674162179231644
			vertex -0.0555555522441864 0.06641078740358353 0.02383793145418167
			vertex -0.0555555522441864 0.055753953754901886 0.020012684166431427
		endloop
	endfacet
	facet normal -1 0 0
		outer loop
			vertex -0.0555555522441864 0.08778984099626541 -0.009568029083311558
			vertex -0.0555555522441864 0.08623728901147842 -0.011554532684385777
			vertex -0.0555555522441864 0.08798003941774368 -0.009322070516645908
		endloop
	endfacet
	facet normal -1 0 0
		outer loop
			vertex -0.0555555522441864 0.1012919619679451 0.007708109449595213
			vertex -0.0555555522441864 0.10130471736192703 0.007708884309977293
			vertex -0.0555555522441864 0.10029364377260208 0.006430752109736204
		endloop
	endfacet
	facet normal -1 0 0
		outer loop
			vertex -0.0555555522441864 0.08647597581148148 -0.011256241239607334
			vertex -0.0555555522441864 0.08623728901147842 -0.011554532684385777
			vertex -0.0555555522441864 0.08703387528657913 -0.010535293258726597
		endloop
	endfacet
	facet normal -1 0 0
		outer loop
			vertex -0.0555555522441864 0.10127351433038712 0.007706947159022093
			vertex -0.0555555522441864 0.1012919619679451 0.007708109449595213
			vertex -0.0555555522441864 0.10029364377260208 0.006430752109736204
		endloop
	endfacet
	facet normal -1 0 0
		outer loop
			vertex -0.0555555522441864 0.10127351433038712 0.007706947159022093
			vertex -0.0555555522441864 0.10029364377260208 0.006430752109736204
			vertex -0.0555555522441864 0.09904906898736954 0.004857457708567381
		endloop
	endfacet
	facet normal -1 0 0
		outer loop
			vertex -0.0555555522441864 0.08506164699792862 -0.012936078943312168
			vertex -0.0555555522441864 0.09078792482614517 -0.005585931707173586
			vertex -0.0555555522441864 0.09440536051988602 -0.0010129442671313882
		endloop
	endfacet
	facet normal -1 0 0
		outer loop
			vertex -0.0555555522441864 0.08506164699792862 -0.012936078943312168
			vertex -0.0555555522441864 0.09440536051988602 -0.0010129442671313882
			vertex -0.0555555522441864 0.08798003941774368 -0.009322070516645908
		endloop
	endfacet
	facet normal -1 0 0
		outer loop
			vertex -0.0555555522441864 0.08506164699792862 -0.012936078943312168
			vertex -0.0555555522441864 0.08798003941774368 -0.009322070516645908
			vertex -0.0555555522441864 0.08512631803750992 -0.01297768298536539
		endloop
	endfacet
	facet normal -1 0 0
		outer loop
			vertex -0.0555555522441864 0.09078792482614517 -0.005585931707173586
			vertex -0.0555555522441864 0.10113740712404251 0.007698483299463987
			vertex -0.0555555522441864 0.10127351433038712 0.007706947159022093
		endloop
	endfacet
	facet normal -1 0 0
		outer loop
			vertex -0.0555555522441864 0.09078792482614517 -0.005585931707173586
			vertex -0.0555555522441864 0.10127351433038712 0.007706947159022093
			vertex -0.0555555522441864 0.09904906898736954 0.004857457708567381
		endloop
	endfacet
	facet normal -1 0 0
		outer loop
			vertex -0.0555555522441864 0.10113740712404251 0.007698483299463987
			vertex -0.0555555522441864 0.10202724486589432 0.008840656839311123
			vertex -0.0555555522441864 0.10202724486589432 0.00862229522317648
		endloop
	endfacet
	facet normal -1 0 0
		outer loop
			vertex -0.0555555522441864 0.10113740712404251 0.007698483299463987
			vertex -0.0555555522441864 0.10202724486589432 0.00862229522317648
			vertex -0.0555555522441864 0.10130471736192703 0.007708884309977293
		endloop
	endfacet
	facet normal -1 0 0
		outer loop
			vertex -0.0555555522441864 0.0844496563076973 -0.012542628683149815
			vertex -0.0555555522441864 0.10017804056406021 0.007638819050043821
			vertex -0.0555555522441864 0.10113740712404251 0.007698483299463987
		endloop
	endfacet
	facet normal -1 0 0
		outer loop
			vertex -0.0555555522441864 0.0844496563076973 -0.012542628683149815
			vertex -0.0555555522441864 0.10113740712404251 0.007698483299463987
			vertex -0.0555555522441864 0.08506164699792862 -0.012936078943312168
		endloop
	endfacet
	facet normal -1 0 0
		outer loop
			vertex -0.0555555522441864 0.10017804056406021 0.007638819050043821
			vertex -0.0555555522441864 0.10202724486589432 0.010011560283601284
			vertex -0.0555555522441864 0.10202724486589432 0.008840656839311123
		endloop
	endfacet
	facet normal -1 0 0
		outer loop
			vertex -0.0555555522441864 0.10017804056406021 0.007638819050043821
			vertex -0.0555555522441864 0.10202724486589432 0.008840656839311123
			vertex -0.0555555522441864 0.10113740712404251 0.007698483299463987
		endloop
	endfacet
	facet normal -1 0 0
		outer loop
			vertex -0.0555555522441864 0.061436332762241364 0.0055794189684093
			vertex -0.0555555522441864 0.06539265066385269 0.020100928843021393
			vertex -0.0555555522441864 0.09319258481264114 -0.0013243785360828042
		endloop
	endfacet
	facet normal -1 0 0
		outer loop
			vertex -0.0555555522441864 0.061436332762241364 0.0055794189684093
			vertex -0.0555555522441864 0.09319258481264114 -0.0013243785360828042
			vertex -0.0555555522441864 0.0844496563076973 -0.012542628683149815
		endloop
	endfacet
	facet normal -1 0 0
		outer loop
			vertex -0.0555555522441864 0.061436332762241364 0.0055794189684093
			vertex -0.0555555522441864 0.0844496563076973 -0.012542628683149815
			vertex -0.0555555522441864 0.0829840674996376 -0.01160039845854044
		endloop
	endfacet
	facet normal -1 0 0
		outer loop
			vertex -0.0555555522441864 0.061436332762241364 0.0055794189684093
			vertex -0.0555555522441864 0.0829840674996376 -0.01160039845854044
			vertex -0.0555555522441864 0.0744636133313179 -0.005977206397801638
		endloop
	endfacet
	facet normal -1 0 0
		outer loop
			vertex -0.0555555522441864 0.10017804056406021 0.007638819050043821
			vertex -0.0555555522441864 0.09319258481264114 -0.0013243785360828042
			vertex -0.0555555522441864 0.08295286446809769 0.0065673659555613995
		endloop
	endfacet
	facet normal -1 0 0
		outer loop
			vertex -0.0555555522441864 0.06539265066385269 0.020100928843021393
			vertex -0.0555555522441864 0.06641078740358353 0.02383793145418167
			vertex -0.0555555522441864 0.08078736811876297 0.028998352587223053
		endloop
	endfacet
	facet normal -1 0 0
		outer loop
			vertex -0.0555555522441864 0.06539265066385269 0.020100928843021393
			vertex -0.0555555522441864 0.08078736811876297 0.028998352587223053
			vertex -0.0555555522441864 0.10202724486589432 0.011981851421296597
		endloop
	endfacet
	facet normal -1 0 0
		outer loop
			vertex -0.0555555522441864 0.06539265066385269 0.020100928843021393
			vertex -0.0555555522441864 0.10202724486589432 0.011981851421296597
			vertex -0.0555555522441864 0.10202724486589432 0.010011560283601284
		endloop
	endfacet
	facet normal -1 0 0
		outer loop
			vertex -0.0555555522441864 0.06539265066385269 0.020100928843021393
			vertex -0.0555555522441864 0.10202724486589432 0.010011560283601284
			vertex -0.0555555522441864 0.10017804056406021 0.007638819050043821
		endloop
	endfacet
	facet normal -1 0 0
		outer loop
			vertex -0.0555555522441864 0.06539265066385269 0.020100928843021393
			vertex -0.0555555522441864 0.10017804056406021 0.007638819050043821
			vertex -0.0555555522441864 0.08295286446809769 0.0065673659555613995
		endloop
	endfacet
	facet normal -1 0 0
		outer loop
			vertex -0.0555555522441864 0.06992635875940323 0.03674162179231644
			vertex -0.0555555522441864 0.07112226635217667 0.03674162179231644
			vertex -0.0555555522441864 0.08078736811876297 0.028998352587223053
		endloop
	endfacet
	facet normal -1 0 0
		outer loop
			vertex -0.0555555522441864 0.06992635875940323 0.03674162179231644
			vertex -0.0555555522441864 0.08078736811876297 0.028998352587223053
			vertex -0.0555555522441864 0.06641078740358353 0.02383793145418167
		endloop
	endfacet
	facet normal -1 0 0
		outer loop
			vertex -0.0555555522441864 0.08078736811876297 0.028998352587223053
			vertex -0.0555555522441864 0.10202724486589432 0.03662235289812088
			vertex -0.0555555522441864 0.10202724486589432 0.011981851421296597
		endloop
	endfacet
	facet normal -1 0 0
		outer loop
			vertex -0.0555555522441864 0.07112226635217667 0.03674162179231644
			vertex -0.0555555522441864 0.10202724486589432 0.03674162179231644
			vertex -0.0555555522441864 0.10202724486589432 0.03662235289812088
		endloop
	endfacet
	facet normal -1 0 0
		outer loop
			vertex -0.0555555522441864 0.07112226635217667 0.03674162179231644
			vertex -0.0555555522441864 0.10202724486589432 0.03662235289812088
			vertex -0.0555555522441864 0.08078736811876297 0.028998352587223053
		endloop
	endfacet
	facet normal 0 0 1
		outer loop
			vertex -0.0555555522441864 0.007791840936988592 0.03674162179231644
			vertex -0.0555555522441864 0.0016612051986157894 0.03674162179231644
			vertex -0.00173876469489187 0.010574140585958958 0.03674162179231644
		endloop
	endfacet
	facet normal 0 0 1
		outer loop
			vertex -0.0555555522441864 0.007791840936988592 0.03674162179231644
			vertex -0.00173876469489187 0.010574140585958958 0.03674162179231644
			vertex 0.006198033224791288 0.012219303287565708 0.03674162179231644
		endloop
	endfacet
	facet normal 0 0 1
		outer loop
			vertex -0.0555555522441864 0.007791840936988592 0.03674162179231644
			vertex 0.006198033224791288 0.012219303287565708 0.03674162179231644
			vertex -0.005913042929023504 0.015403666533529758 0.03674162179231644
		endloop
	endfacet
	facet normal 0 0 1
		outer loop
			vertex -0.0555555522441864 0.007791840936988592 0.03674162179231644
			vertex -0.005913042929023504 0.015403666533529758 0.03674162179231644
			vertex -0.04379575327038765 0.015372180379927158 0.03674162179231644
		endloop
	endfacet
	facet normal 0 0 1
		outer loop
			vertex -0.0555555522441864 0.009734787978231907 0.03674162179231644
			vertex -0.0555555522441864 0.007791840936988592 0.03674162179231644
			vertex -0.04379575327038765 0.015372180379927158 0.03674162179231644
		endloop
	endfacet
	facet normal 0 0 1
		outer loop
			vertex -0.0555555522441864 0.009734787978231907 0.03674162179231644
			vertex -0.04379575327038765 0.015372180379927158 0.03674162179231644
			vertex -0.046746015548706055 0.015369736589491367 0.03674162179231644
		endloop
	endfacet
	facet normal 0 0 1
		outer loop
			vertex -0.0555555522441864 0.015362420119345188 0.03674162179231644
			vertex -0.0555555522441864 0.009734787978231907 0.03674162179231644
			vertex -0.046746015548706055 0.015369736589491367 0.03674162179231644
		endloop
	endfacet
	facet normal 0 0 1
		outer loop
			vertex -0.0555555522441864 0.026308516040444374 0.03674162179231644
			vertex -0.0555555522441864 0.015362420119345188 0.03674162179231644
			vertex -0.005913042929023504 0.015403666533529758 0.03674162179231644
		endloop
	endfacet
	facet normal 0 0 1
		outer loop
			vertex -0.0555555522441864 0.026308516040444374 0.03674162179231644
			vertex -0.005913042929023504 0.015403666533529758 0.03674162179231644
			vertex -0.05295708030462265 0.02777288295328617 0.03674162179231644
		endloop
	endfacet
	facet normal 0 0 1
		outer loop
			vertex -0.0555555522441864 0.028456086292862892 0.03674162179231644
			vertex -0.0555555522441864 0.026308516040444374 0.03674162179231644
			vertex -0.05295708030462265 0.02777288295328617 0.03674162179231644
		endloop
	endfacet
	facet normal 0 0 1
		outer loop
			vertex -0.005913042929023504 0.015403666533529758 0.03674162179231644
			vertex 0.006198033224791288 0.012219303287565708 0.03674162179231644
			vertex 0.006687026470899582 0.01232066098600626 0.03674162179231644
		endloop
	endfacet
	facet normal 0 0 1
		outer loop
			vertex -0.005913042929023504 0.015403666533529758 0.03674162179231644
			vertex 0.006687026470899582 0.01232066098600626 0.03674162179231644
			vertex 0.008366752415895462 0.015415512956678867 0.03674162179231644
		endloop
	endfacet
	facet normal 0 0 1
		outer loop
			vertex 0.021670786663889885 0.015426554717123508 0.03674162179231644
			vertex 0.008366752415895462 0.015415512956678867 0.03674162179231644
			vertex 0.006687026470899582 0.01232066098600626 0.03674162179231644
		endloop
	endfacet
	facet normal 0 0 1
		outer loop
			vertex -0.05295708030462265 0.02777288295328617 0.03674162179231644
			vertex -0.005913042929023504 0.015403666533529758 0.03674162179231644
			vertex 0.008366752415895462 0.015415512956678867 0.03674162179231644
		endloop
	endfacet
	facet normal 0 0 1
		outer loop
			vertex -0.05295708030462265 0.02777288295328617 0.03674162179231644
			vertex 0.008366752415895462 0.015415512956678867 0.03674162179231644
			vertex 0.010651244781911373 0.01962464489042759 0.03674162179231644
		endloop
	endfacet
	facet normal 0 0 1
		outer loop
			vertex -0.05295708030462265 0.02777288295328617 0.03674162179231644
			vertex 0.010651244781911373 0.01962464489042759 0.03674162179231644
			vertex -0.03893543407320976 0.03567471355199814 0.03674162179231644
		endloop
	endfacet
	facet normal 0 0 1
		outer loop
			vertex 0.022859737277030945 0.015673020854592323 0.03674162179231644
			vertex 0.010651244781911373 0.01962464489042759 0.03674162179231644
			vertex 0.008366752415895462 0.015415512956678867 0.03674162179231644
		endloop
	endfacet
	facet normal 0 0 1
		outer loop
			vertex 0.022859737277030945 0.015673020854592323 0.03674162179231644
			vertex 0.008366752415895462 0.015415512956678867 0.03674162179231644
			vertex 0.021670786663889885 0.015426554717123508 0.03674162179231644
		endloop
	endfacet
	facet normal 0 0 1
		outer loop
			vertex -0.0555555522441864 0.04097691923379898 0.03674162179231644
			vertex -0.0555555522441864 0.028456086292862892 0.03674162179231644
			vertex -0.05295708030462265 0.02777288295328617 0.03674162179231644
		endloop
	endfacet
	facet normal 0 0 1
		outer loop
			vertex -0.0555555522441864 0.04097691923379898 0.03674162179231644
			vertex -0.05295708030462265 0.02777288295328617 0.03674162179231644
			vertex -0.03893543407320976 0.03567471355199814 0.03674162179231644
		endloop
	endfacet
	facet normal 0 0 1
		outer loop
			vertex -0.0555555522441864 0.04097691923379898 0.03674162179231644
			vertex -0.03893543407320976 0.03567471355199814 0.03674162179231644
			vertex -0.055385369807481766 0.04099919646978378 0.03674162179231644
		endloop
	endfacet
	facet normal 0 0 1
		outer loop
			vertex 0.010651244781911373 0.01962464489042759 0.03674162179231644
			vertex 0.011098110117018223 0.020447978749871254 0.03674162179231644
			vertex 0.01022491417825222 0.020753899589180946 0.03674162179231644
		endloop
	endfacet
	facet normal 0 0 1
		outer loop
			vertex 0.010651244781911373 0.01962464489042759 0.03674162179231644
			vertex 0.01022491417825222 0.020753899589180946 0.03674162179231644
			vertex -0.03715437650680542 0.03667842596769333 0.03674162179231644
		endloop
	endfacet
	facet normal 0 0 1
		outer loop
			vertex 0.010651244781911373 0.01962464489042759 0.03674162179231644
			vertex -0.03715437650680542 0.03667842596769333 0.03674162179231644
			vertex -0.03893543407320976 0.03567471355199814 0.03674162179231644
		endloop
	endfacet
	facet normal 0 0 1
		outer loop
			vertex 0.011098110117018223 0.020447978749871254 0.03674162179231644
			vertex 0.010651244781911373 0.01962464489042759 0.03674162179231644
			vertex 0.022859737277030945 0.015673020854592323 0.03674162179231644
		endloop
	endfacet
	facet normal 0 0 1
		outer loop
			vertex 0.011098110117018223 0.020447978749871254 0.03674162179231644
			vertex 0.022859737277030945 0.015673020854592323 0.03674162179231644
			vertex 0.02403274178504944 0.015916163101792336 0.03674162179231644
		endloop
	endfacet
	facet normal 0 0 1
		outer loop
			vertex -0.03715437650680542 0.03667842596769333 0.03674162179231644
			vertex -0.0515156127512455 0.04150532931089401 0.03674162179231644
			vertex -0.055385369807481766 0.04099919646978378 0.03674162179231644
		endloop
	endfacet
	facet normal 0 0 1
		outer loop
			vertex -0.03715437650680542 0.03667842596769333 0.03674162179231644
			vertex -0.055385369807481766 0.04099919646978378 0.03674162179231644
			vertex -0.03893543407320976 0.03567471355199814 0.03674162179231644
		endloop
	endfacet
	facet normal 0 0 1
		outer loop
			vertex 0.011098110117018223 0.020447978749871254 0.03674162179231644
			vertex 0.011103823781013489 0.020458484068512917 0.03674162179231644
			vertex 0.01022491417825222 0.020753899589180946 0.03674162179231644
		endloop
	endfacet
	facet normal 0 0 1
		outer loop
			vertex 0.02424600161612034 0.016041303053498268 0.03674162179231644
			vertex 0.011103823781013489 0.020458484068512917 0.03674162179231644
			vertex 0.011098110117018223 0.020447978749871254 0.03674162179231644
		endloop
	endfacet
	facet normal 0 0 1
		outer loop
			vertex 0.02424600161612034 0.016041303053498268 0.03674162179231644
			vertex 0.011098110117018223 0.020447978749871254 0.03674162179231644
			vertex 0.024834102019667625 0.015635380521416664 0.03674162179231644
		endloop
	endfacet
	facet normal 0 0 1
		outer loop
			vertex 0.0555555522441864 0.0050901263020932674 0.03674162179231644
			vertex 0.0555555522441864 0.0055179535411298275 0.03674162179231644
			vertex 0.02424600161612034 0.016041303053498268 0.03674162179231644
		endloop
	endfacet
	facet normal 0 0 1
		outer loop
			vertex 0.0555555522441864 0.0050901263020932674 0.03674162179231644
			vertex 0.02424600161612034 0.016041303053498268 0.03674162179231644
			vertex 0.025417238473892212 0.01523288432508707 0.03674162179231644
		endloop
	endfacet
	facet normal 0 0 1
		outer loop
			vertex 0.0555555522441864 0.0050901263020932674 0.03674162179231644
			vertex 0.025417238473892212 0.01523288432508707 0.03674162179231644
			vertex 0.028610961511731148 0.013811477459967136 0.03674162179231644
		endloop
	endfacet
	facet normal 0 0 1
		outer loop
			vertex -0.03715437650680542 0.03667842596769333 0.03674162179231644
			vertex 0.01022491417825222 0.020753899589180946 0.03674162179231644
			vertex -0.036415353417396545 0.03709489852190018 0.03674162179231644
		endloop
	endfacet
	facet normal 0 0 1
		outer loop
			vertex -0.04968643933534622 0.04174458235502243 0.03674162179231644
			vertex -0.0515156127512455 0.04150532931089401 0.03674162179231644
			vertex -0.03715437650680542 0.03667842596769333 0.03674162179231644
		endloop
	endfacet
	facet normal 0 0 1
		outer loop
			vertex -0.04968643933534622 0.04174458235502243 0.03674162179231644
			vertex -0.03715437650680542 0.03667842596769333 0.03674162179231644
			vertex -0.036415353417396545 0.03709489852190018 0.03674162179231644
		endloop
	endfacet
	facet normal 0 0 1
		outer loop
			vertex 0.011103823781013489 0.020458484068512917 0.03674162179231644
			vertex 0.012941337190568447 0.023844072595238686 0.03674162179231644
			vertex -0.018838584423065186 0.04577932506799698 0.03674162179231644
		endloop
	endfacet
	facet normal 0 0 1
		outer loop
			vertex 0.011103823781013489 0.020458484068512917 0.03674162179231644
			vertex -0.018838584423065186 0.04577932506799698 0.03674162179231644
			vertex -0.04968643933534622 0.04174458235502243 0.03674162179231644
		endloop
	endfacet
	facet normal 0 0 1
		outer loop
			vertex 0.011103823781013489 0.020458484068512917 0.03674162179231644
			vertex -0.04968643933534622 0.04174458235502243 0.03674162179231644
			vertex 0.01022491417825222 0.020753899589180946 0.03674162179231644
		endloop
	endfacet
	facet normal 0 0 1
		outer loop
			vertex 0.012941337190568447 0.023844072595238686 0.03674162179231644
			vertex 0.011103823781013489 0.020458484068512917 0.03674162179231644
			vertex 0.02424600161612034 0.016041303053498268 0.03674162179231644
		endloop
	endfacet
	facet normal 0 0 1
		outer loop
			vertex 0.012941337190568447 0.023844072595238686 0.03674162179231644
			vertex 0.025912033393979073 0.04774222522974014 0.03674162179231644
			vertex 0.009874052368104458 0.04953480511903763 0.03674162179231644
		endloop
	endfacet
	facet normal 0 0 1
		outer loop
			vertex 0.012941337190568447 0.023844072595238686 0.03674162179231644
			vertex 0.009874052368104458 0.04953480511903763 0.03674162179231644
			vertex -0.018838584423065186 0.04577932506799698 0.03674162179231644
		endloop
	endfacet
	facet normal 0 0 1
		outer loop
			vertex 0.0555555522441864 0.0055179535411298275 0.03674162179231644
			vertex 0.0555555522441864 0.044428952038288116 0.03674162179231644
			vertex 0.025912033393979073 0.04774222522974014 0.03674162179231644
		endloop
	endfacet
	facet normal 0 0 1
		outer loop
			vertex 0.0555555522441864 0.0055179535411298275 0.03674162179231644
			vertex 0.025912033393979073 0.04774222522974014 0.03674162179231644
			vertex 0.012941337190568447 0.023844072595238686 0.03674162179231644
		endloop
	endfacet
	facet normal 0 0 1
		outer loop
			vertex 0.0555555522441864 0.0055179535411298275 0.03674162179231644
			vertex 0.012941337190568447 0.023844072595238686 0.03674162179231644
			vertex 0.02424600161612034 0.016041303053498268 0.03674162179231644
		endloop
	endfacet
	facet normal 0 0 1
		outer loop
			vertex -0.021659795194864273 0.04541034251451492 0.03674162179231644
			vertex 0.009874052368104458 0.04953480511903763 0.03674162179231644
			vertex -0.010333208367228508 0.05179337412118912 0.03674162179231644
		endloop
	endfacet
	facet normal 0 0 1
		outer loop
			vertex -0.0555555522441864 0.05684790760278702 0.03674162179231644
			vertex -0.0555555522441864 0.04097691923379898 0.03674162179231644
			vertex -0.021659795194864273 0.04541034251451492 0.03674162179231644
		endloop
	endfacet
	facet normal 0 0 1
		outer loop
			vertex -0.0555555522441864 0.05684790760278702 0.03674162179231644
			vertex -0.021659795194864273 0.04541034251451492 0.03674162179231644
			vertex -0.010333208367228508 0.05179337412118912 0.03674162179231644
		endloop
	endfacet
	facet normal 0 0 1
		outer loop
			vertex 0.009874052368104458 0.04953480511903763 0.03674162179231644
			vertex 0.025912033393979073 0.04774222522974014 0.03674162179231644
			vertex 0.028184812515974045 0.05192974954843521 0.03674162179231644
		endloop
	endfacet
	facet normal 0 0 1
		outer loop
			vertex 0.0555555522441864 0.044428952038288116 0.03674162179231644
			vertex 0.0555555522441864 0.04669196158647537 0.03674162179231644
			vertex 0.029613737016916275 0.05211663991212845 0.03674162179231644
		endloop
	endfacet
	facet normal 0 0 1
		outer loop
			vertex 0.0555555522441864 0.044428952038288116 0.03674162179231644
			vertex 0.029613737016916275 0.05211663991212845 0.03674162179231644
			vertex 0.028184812515974045 0.05192974954843521 0.03674162179231644
		endloop
	endfacet
	facet normal 0 0 1
		outer loop
			vertex 0.0555555522441864 0.044428952038288116 0.03674162179231644
			vertex 0.028184812515974045 0.05192974954843521 0.03674162179231644
			vertex 0.025912033393979073 0.04774222522974014 0.03674162179231644
		endloop
	endfacet
	facet normal 0 0 1
		outer loop
			vertex 0.007143755443394184 0.04983995109796524 0.03674162179231644
			vertex 0.009874052368104458 0.04953480511903763 0.03674162179231644
			vertex 0.028184812515974045 0.05192974954843521 0.03674162179231644
		endloop
	endfacet
	facet normal 0 0 1
		outer loop
			vertex 0.007143755443394184 0.04983995109796524 0.03674162179231644
			vertex 0.028184812515974045 0.05192974954843521 0.03674162179231644
			vertex 0.0284215547144413 0.05236593633890152 0.03674162179231644
		endloop
	endfacet
	facet normal 0 0 1
		outer loop
			vertex 0.007143755443394184 0.04983995109796524 0.03674162179231644
			vertex 0.0284215547144413 0.05236593633890152 0.03674162179231644
			vertex 0.015362135134637356 0.05509678274393082 0.03674162179231644
		endloop
	endfacet
	facet normal 0 0 1
		outer loop
			vertex 0.029613737016916275 0.05211663991212845 0.03674162179231644
			vertex 0.0284215547144413 0.05236593633890152 0.03674162179231644
			vertex 0.028184812515974045 0.05192974954843521 0.03674162179231644
		endloop
	endfacet
	facet normal 0 0 1
		outer loop
			vertex -0.010333208367228508 0.05179337412118912 0.03674162179231644
			vertex 0.007143755443394184 0.04983995109796524 0.03674162179231644
			vertex 0.015362135134637356 0.05509678274393082 0.03674162179231644
		endloop
	endfacet
	facet normal 0 0 1
		outer loop
			vertex -0.010333208367228508 0.05179337412118912 0.03674162179231644
			vertex 0.015362135134637356 0.05509678274393082 0.03674162179231644
			vertex 0.0008963284781202674 0.05812171846628189 0.03674162179231644
		endloop
	endfacet
	facet normal 0 0 1
		outer loop
			vertex -0.0555555522441864 0.06992635875940323 0.03674162179231644
			vertex -0.0555555522441864 0.05684790760278702 0.03674162179231644
			vertex -0.010333208367228508 0.05179337412118912 0.03674162179231644
		endloop
	endfacet
	facet normal 0 0 1
		outer loop
			vertex -0.0555555522441864 0.06992635875940323 0.03674162179231644
			vertex -0.010333208367228508 0.05179337412118912 0.03674162179231644
			vertex 0.0008963284781202674 0.05812171846628189 0.03674162179231644
		endloop
	endfacet
	facet normal 0 0 1
		outer loop
			vertex -0.0555555522441864 0.07112226635217667 0.03674162179231644
			vertex -0.0555555522441864 0.06992635875940323 0.03674162179231644
			vertex -0.05306987464427948 0.06940657645463943 0.03674162179231644
		endloop
	endfacet
	facet normal 0 0 1
		outer loop
			vertex -0.0555555522441864 0.10202724486589432 0.03674162179231644
			vertex -0.0555555522441864 0.07112226635217667 0.03674162179231644
			vertex -0.05306987464427948 0.06940657645463943 0.03674162179231644
		endloop
	endfacet
	facet normal 0 0 1
		outer loop
			vertex -0.0555555522441864 0.10202724486589432 0.03674162179231644
			vertex -0.05306987464427948 0.06940657645463943 0.03674162179231644
			vertex 0.0284215547144413 0.05236593633890152 0.03674162179231644
		endloop
	endfacet
	facet normal 0 0 1
		outer loop
			vertex -0.0555555522441864 0.10202724486589432 0.03674162179231644
			vertex 0.0284215547144413 0.05236593633890152 0.03674162179231644
			vertex 0.05537516996264458 0.10202724486589432 0.03674162179231644
		endloop
	endfacet
	facet normal 0 0 1
		outer loop
			vertex 0.0555555522441864 0.04669196158647537 0.03674162179231644
			vertex 0.0555555522441864 0.10202724486589432 0.03674162179231644
			vertex 0.05537516996264458 0.10202724486589432 0.03674162179231644
		endloop
	endfacet
	facet normal 0 0 1
		outer loop
			vertex 0.0555555522441864 0.04669196158647537 0.03674162179231644
			vertex 0.05537516996264458 0.10202724486589432 0.03674162179231644
			vertex 0.0284215547144413 0.05236593633890152 0.03674162179231644
		endloop
	endfacet
endsolid exported
