solid exported
	facet normal 0 1 0
		outer loop
			vertex 0.055555567145347595 0.10202724486589432 0.036741625517606735
			vertex 0.055555567145347595 0.10202724486589432 -0.03674163296818733
			vertex -0.009820861741900444 0.10202724486589432 -0.03674163296818733
		endloop
	endfacet
	facet normal 0 1 0
		outer loop
			vertex 0.055555567145347595 0.10202724486589432 0.036741625517606735
			vertex -0.009820861741900444 0.10202724486589432 -0.03674163296818733
			vertex 0.035874977707862854 0.10202724486589432 0.036741625517606735
		endloop
	endfacet
	facet normal 0 1 0
		outer loop
			vertex 0.035874977707862854 0.10202724486589432 0.036741625517606735
			vertex -0.009820861741900444 0.10202724486589432 -0.03674163296818733
			vertex -0.02971014194190502 0.10202724486589432 -0.03674163296818733
		endloop
	endfacet
	facet normal 0 1 0
		outer loop
			vertex 0.035874977707862854 0.10202724486589432 0.036741625517606735
			vertex -0.02971014194190502 0.10202724486589432 -0.03674163296818733
			vertex -0.035990238189697266 0.10202724486589432 0.036741625517606735
		endloop
	endfacet
	facet normal 0 1 0
		outer loop
			vertex -0.0555555522441864 0.10202724486589432 -0.03674163296818733
			vertex -0.0555555522441864 0.10202724486589432 -0.017879711464047432
			vertex -0.0442143976688385 0.10202724486589432 -0.03674163296818733
		endloop
	endfacet
	facet normal 0 1 0
		outer loop
			vertex -0.0555555522441864 0.10202724486589432 0.036741625517606735
			vertex -0.035990238189697266 0.10202724486589432 0.036741625517606735
			vertex -0.02971014194190502 0.10202724486589432 -0.03674163296818733
		endloop
	endfacet
	facet normal 0 1 0
		outer loop
			vertex -0.0555555522441864 0.10202724486589432 0.036741625517606735
			vertex -0.02971014194190502 0.10202724486589432 -0.03674163296818733
			vertex -0.0442143976688385 0.10202724486589432 -0.03674163296818733
		endloop
	endfacet
	facet normal 0 1 0
		outer loop
			vertex -0.0555555522441864 0.10202724486589432 0.036741625517606735
			vertex -0.0442143976688385 0.10202724486589432 -0.03674163296818733
			vertex -0.0555555522441864 0.10202724486589432 -0.017879711464047432
		endloop
	endfacet
	facet normal 0.18192731034273157 -0.8038311239366005 -0.5663549928642645
		outer loop
			vertex -0.0555555522441864 0.005546295549720526 -0.03674163296818733
			vertex -0.014421356841921806 0.014856004156172276 -0.03674163296818733
			vertex 0.016096847131848335 0.012179979123175144 -0.023140328004956245
		endloop
	endfacet
	facet normal 0.1819274550731303 -0.8038302555854527 -0.5663561788274585
		outer loop
			vertex -0.0555555522441864 0.005546295549720526 -0.03674163296818733
			vertex 0.016096847131848335 0.012179979123175144 -0.023140328004956245
			vertex -0.0555555522441864 -0.03824564069509506 0.025412334129214287
		endloop
	endfacet
	facet normal 0.39244216522564873 -0.8632698745864441 -0.31741813209788416
		outer loop
			vertex 0.03078632242977619 0.01325772050768137 -0.007909970358014107
			vertex -0.015003575012087822 -0.023976420983672142 0.036741625517606735
			vertex -0.0555555522441864 -0.042411334812641144 0.036741625517606735
		endloop
	endfacet
	facet normal 0.3924423771725386 -0.8632699118481589 -0.3174177687163068
		outer loop
			vertex 0.03078632242977619 0.01325772050768137 -0.007909970358014107
			vertex -0.0555555522441864 -0.042411334812641144 0.036741625517606735
			vertex -0.0555555522441864 -0.03824564069509506 0.025412334129214287
		endloop
	endfacet
	facet normal 0.3924422745628945 -0.8632698792568514 -0.3174179842160226
		outer loop
			vertex 0.03078632242977619 0.01325772050768137 -0.007909970358014107
			vertex -0.0555555522441864 -0.03824564069509506 0.025412334129214287
			vertex 0.016096847131848335 0.012179979123175144 -0.023140328004956245
		endloop
	endfacet
	facet normal 0.05555609163614683 -0.7941137717328768 -0.605224617994262
		outer loop
			vertex 0.04973979294300079 0.010687270201742649 -0.0027974569238722324
			vertex 0.020107300952076912 -0.021520068868994713 0.036741625517606735
			vertex -0.015003575012087822 -0.023976420983672142 0.036741625517606735
		endloop
	endfacet
	facet normal 0.05555640955755993 -0.794113996239208 -0.6052242942364987
		outer loop
			vertex 0.04973979294300079 0.010687270201742649 -0.0027974569238722324
			vertex -0.015003575012087822 -0.023976420983672142 0.036741625517606735
			vertex 0.03078632242977619 0.01325772050768137 -0.007909970358014107
		endloop
	endfacet
	facet normal 0.28353793275599876 -0.836506639653471 -0.4688953854583269
		outer loop
			vertex 0.055555567145347595 0.010513641871511936 0.001029042061418295
			vertex 0.055555567145347595 -0.006795248482376337 0.031908001750707626
			vertex 0.04647587239742279 -0.012582293711602688 0.036741625517606735
		endloop
	endfacet
	facet normal 0.28353858450510905 -0.8365065456867898 -0.4688951589854536
		outer loop
			vertex 0.055555567145347595 0.010513641871511936 0.001029042061418295
			vertex 0.04647587239742279 -0.012582293711602688 0.036741625517606735
			vertex 0.020107300952076912 -0.021520068868994713 0.036741625517606735
		endloop
	endfacet
	facet normal 0.2835374065043075 -0.8365063752441771 -0.46889617538284417
		outer loop
			vertex 0.055555567145347595 0.010513641871511936 0.001029042061418295
			vertex 0.020107300952076912 -0.021520068868994713 0.036741625517606735
			vertex 0.04973979294300079 0.010687270201742649 -0.0027974569238722324
		endloop
	endfacet
	facet normal 0.3978421124137113 -0.8692714557265202 -0.2934089123549119
		outer loop
			vertex 0.04647587239742279 -0.012582293711602688 0.036741625517606735
			vertex 0.055555567145347595 -0.006795248482376337 0.031908001750707626
			vertex 0.055555567145347595 -0.00842676218599081 0.036741625517606735
		endloop
	endfacet
	facet normal 1 0 0
		outer loop
			vertex 0.055555567145347595 0.008099772967398167 0.036741625517606735
			vertex 0.055555567145347595 -0.00842676218599081 0.036741625517606735
			vertex 0.055555567145347595 -0.006795248482376337 0.031908001750707626
		endloop
	endfacet
	facet normal 1 0 0
		outer loop
			vertex 0.055555567145347595 0.008099772967398167 0.036741625517606735
			vertex 0.055555567145347595 -0.006795248482376337 0.031908001750707626
			vertex 0.055555567145347595 0.010513641871511936 0.001029042061418295
		endloop
	endfacet
	facet normal 1 0 0
		outer loop
			vertex 0.055555567145347595 0.008099772967398167 0.036741625517606735
			vertex 0.055555567145347595 0.010513641871511936 0.001029042061418295
			vertex 0.055555567145347595 0.015075021423399448 0.017771286889910698
		endloop
	endfacet
	facet normal 1 0 0
		outer loop
			vertex 0.055555567145347595 0.02024340070784092 0.036741625517606735
			vertex 0.055555567145347595 0.008099772967398167 0.036741625517606735
			vertex 0.055555567145347595 0.015075021423399448 0.017771286889910698
		endloop
	endfacet
	facet normal 0.18192765718493076 -0.8038305734293567 -0.5663556627874697
		outer loop
			vertex -0.014421356841921806 0.014856004156172276 -0.03674163296818733
			vertex 0.03616918623447418 0.026305953040719032 -0.03674163296818733
			vertex 0.016096847131848335 0.012179979123175144 -0.023140328004956245
		endloop
	endfacet
	facet normal 0.3924427806868113 -0.863270006232045 -0.31741701313402965
		outer loop
			vertex 0.055555567145347595 0.035118989646434784 -0.03674163296818733
			vertex 0.055555567145347595 0.033398859202861786 -0.03206344321370125
			vertex 0.041774556040763855 0.02219281531870365 -0.01862502284348011
		endloop
	endfacet
	facet normal 0.39244212311092114 -0.8632700973415064 -0.3174175783477951
		outer loop
			vertex 0.055555567145347595 0.035118989646434784 -0.03674163296818733
			vertex 0.041774556040763855 0.02219281531870365 -0.01862502284348011
			vertex 0.021509231999516487 0.012577095068991184 -0.017528684809803963
		endloop
	endfacet
	facet normal 0.3924424500238772 -0.863270142326664 -0.3174170518207207
		outer loop
			vertex 0.055555567145347595 0.035118989646434784 -0.03674163296818733
			vertex 0.021509231999516487 0.012577095068991184 -0.017528684809803963
			vertex 0.016096847131848335 0.012179979123175144 -0.023140328004956245
		endloop
	endfacet
	facet normal 0.3924419856176683 -0.8632699668658345 -0.3174181031887175
		outer loop
			vertex 0.055555567145347595 0.035118989646434784 -0.03674163296818733
			vertex 0.016096847131848335 0.012179979123175144 -0.023140328004956245
			vertex 0.03616918623447418 0.026305953040719032 -0.03674163296818733
		endloop
	endfacet
	facet normal 0.05555542628433558 -0.7941137657428741 -0.6052246869287784
		outer loop
			vertex 0.055555567145347595 0.020398253574967384 -0.015005381777882576
			vertex 0.041774556040763855 0.02219281531870365 -0.01862502284348011
			vertex 0.055555567145347595 0.033398859202861786 -0.03206344321370125
		endloop
	endfacet
	facet normal 1 0 0
		outer loop
			vertex 0.055555567145347595 0.033398859202861786 -0.03206344321370125
			vertex 0.055555567145347595 0.02873178757727146 -0.019370557740330696
			vertex 0.055555567145347595 0.020398253574967384 -0.015005381777882576
		endloop
	endfacet
	facet normal 1 0 0
		outer loop
			vertex 0.055555567145347595 0.035118989646434784 -0.03674163296818733
			vertex 0.055555567145347595 0.05297718197107315 -0.03674163296818733
			vertex 0.055555567145347595 0.05229238420724869 -0.03171180561184883
		endloop
	endfacet
	facet normal 1 0 0
		outer loop
			vertex 0.055555567145347595 0.035118989646434784 -0.03674163296818733
			vertex 0.055555567145347595 0.05229238420724869 -0.03171180561184883
			vertex 0.055555567145347595 0.02873178757727146 -0.019370557740330696
		endloop
	endfacet
	facet normal 0.3924419812640796 -0.8632698844161669 -0.3174183328064426
		outer loop
			vertex 0.041774556040763855 0.02219281531870365 -0.01862502284348011
			vertex 0.03078632242977619 0.01325772050768137 -0.007909970358014107
			vertex 0.021509231999516487 0.012577095068991184 -0.017528684809803963
		endloop
	endfacet
	facet normal 0.055556516350150666 -0.7941143431172586 -0.6052238292949813
		outer loop
			vertex 0.055555567145347595 0.020398253574967384 -0.015005381777882576
			vertex 0.055555567145347595 0.017008373513817787 -0.010557519271969795
			vertex 0.04973979294300079 0.010687270201742649 -0.0027974569238722324
		endloop
	endfacet
	facet normal 0.05555626569899336 -0.7941142973772473 -0.6052239123189234
		outer loop
			vertex 0.055555567145347595 0.020398253574967384 -0.015005381777882576
			vertex 0.04973979294300079 0.010687270201742649 -0.0027974569238722324
			vertex 0.03078632242977619 0.01325772050768137 -0.007909970358014107
		endloop
	endfacet
	facet normal 0.055555619236891486 -0.7941133495996495 -0.60522521523713
		outer loop
			vertex 0.055555567145347595 0.020398253574967384 -0.015005381777882576
			vertex 0.03078632242977619 0.01325772050768137 -0.007909970358014107
			vertex 0.041774556040763855 0.02219281531870365 -0.01862502284348011
		endloop
	endfacet
	facet normal 0.2835370043084029 -0.8365068423395542 -0.4688955852926378
		outer loop
			vertex 0.055555567145347595 0.010513641871511936 0.001029042061418295
			vertex 0.04973979294300079 0.010687270201742649 -0.0027974569238722324
			vertex 0.055555567145347595 0.017008373513817787 -0.010557519271969795
		endloop
	endfacet
	facet normal 1 0 0
		outer loop
			vertex 0.055555567145347595 0.015075021423399448 0.017771286889910698
			vertex 0.055555567145347595 0.010513641871511936 0.001029042061418295
			vertex 0.055555567145347595 0.013883971609175205 -0.004983606282621622
		endloop
	endfacet
	facet normal 1 0 0
		outer loop
			vertex 0.055555567145347595 0.015075021423399448 0.017771286889910698
			vertex 0.055555567145347595 0.013883971609175205 -0.004983606282621622
			vertex 0.055555567145347595 0.02489508129656315 -0.008935989812016487
		endloop
	endfacet
	facet normal 1 0 0
		outer loop
			vertex 0.055555567145347595 0.02489508129656315 -0.008935989812016487
			vertex 0.055555567145347595 0.013883971609175205 -0.004983606282621622
			vertex 0.055555567145347595 0.017008373513817787 -0.010557519271969795
		endloop
	endfacet
	facet normal 1 0 0
		outer loop
			vertex 0.055555567145347595 0.02489508129656315 -0.008935989812016487
			vertex 0.055555567145347595 0.017008373513817787 -0.010557519271969795
			vertex 0.055555567145347595 0.020398253574967384 -0.015005381777882576
		endloop
	endfacet
	facet normal 1 0 0
		outer loop
			vertex 0.055555567145347595 0.02489508129656315 -0.008935989812016487
			vertex 0.055555567145347595 0.020398253574967384 -0.015005381777882576
			vertex 0.055555567145347595 0.02873178757727146 -0.019370557740330696
		endloop
	endfacet
	facet normal 1 0 0
		outer loop
			vertex 0.055555567145347595 0.042972661554813385 0.036741625517606735
			vertex 0.055555567145347595 0.02024340070784092 0.036741625517606735
			vertex 0.055555567145347595 0.015075021423399448 0.017771286889910698
		endloop
	endfacet
	facet normal 1 0 0
		outer loop
			vertex 0.055555567145347595 0.042972661554813385 0.036741625517606735
			vertex 0.055555567145347595 0.015075021423399448 0.017771286889910698
			vertex 0.055555567145347595 0.02489508129656315 -0.008935989812016487
		endloop
	endfacet
	facet normal 1 0 0
		outer loop
			vertex 0.055555567145347595 0.042972661554813385 0.036741625517606735
			vertex 0.055555567145347595 0.02489508129656315 -0.008935989812016487
			vertex 0.055555567145347595 0.05043987184762955 -0.018105225637555122
		endloop
	endfacet
	facet normal 1 0 0
		outer loop
			vertex 0.055555567145347595 0.05229238420724869 -0.03171180561184883
			vertex 0.055555567145347595 0.05043987184762955 -0.018105225637555122
			vertex 0.055555567145347595 0.02489508129656315 -0.008935989812016487
		endloop
	endfacet
	facet normal 1 0 0
		outer loop
			vertex 0.055555567145347595 0.05229238420724869 -0.03171180561184883
			vertex 0.055555567145347595 0.02489508129656315 -0.008935989812016487
			vertex 0.055555567145347595 0.02873178757727146 -0.019370557740330696
		endloop
	endfacet
	facet normal 1 0 0
		outer loop
			vertex 0.055555567145347595 0.05297718197107315 -0.03674163296818733
			vertex 0.055555567145347595 0.06189475208520889 -0.03674163296818733
			vertex 0.055555567145347595 0.05229238420724869 -0.03171180561184883
		endloop
	endfacet
	facet normal 1 0 0
		outer loop
			vertex 0.055555567145347595 0.06689814478158951 0.036741625517606735
			vertex 0.055555567145347595 0.042972661554813385 0.036741625517606735
			vertex 0.055555567145347595 0.05043987184762955 -0.018105225637555122
		endloop
	endfacet
	facet normal 1 0 0
		outer loop
			vertex 0.055555567145347595 0.06689814478158951 0.036741625517606735
			vertex 0.055555567145347595 0.05043987184762955 -0.018105225637555122
			vertex 0.055555567145347595 0.06797007471323013 -0.02439761348068714
		endloop
	endfacet
	facet normal 1 0 0
		outer loop
			vertex 0.055555567145347595 0.06189475208520889 -0.03674163296818733
			vertex 0.055555567145347595 0.06818649917840958 -0.03674163296818733
			vertex 0.055555567145347595 0.06797007471323013 -0.02439761348068714
		endloop
	endfacet
	facet normal 1 0 0
		outer loop
			vertex 0.055555567145347595 0.06189475208520889 -0.03674163296818733
			vertex 0.055555567145347595 0.06797007471323013 -0.02439761348068714
			vertex 0.055555567145347595 0.05043987184762955 -0.018105225637555122
		endloop
	endfacet
	facet normal 1 0 0
		outer loop
			vertex 0.055555567145347595 0.06189475208520889 -0.03674163296818733
			vertex 0.055555567145347595 0.05043987184762955 -0.018105225637555122
			vertex 0.055555567145347595 0.05229238420724869 -0.03171180561184883
		endloop
	endfacet
	facet normal 1 0 0
		outer loop
			vertex 0.055555567145347595 0.10202724486589432 0.036741625517606735
			vertex 0.055555567145347595 0.06689814478158951 0.036741625517606735
			vertex 0.055555567145347595 0.06797007471323013 -0.02439761348068714
		endloop
	endfacet
	facet normal 1 0 0
		outer loop
			vertex 0.055555567145347595 0.10202724486589432 0.036741625517606735
			vertex 0.055555567145347595 0.06797007471323013 -0.02439761348068714
			vertex 0.055555567145347595 0.10202724486589432 -0.03662233427166939
		endloop
	endfacet
	facet normal 1 0 0
		outer loop
			vertex 0.055555567145347595 0.06818649917840958 -0.03674163296818733
			vertex 0.055555567145347595 0.10202724486589432 -0.03674163296818733
			vertex 0.055555567145347595 0.10202724486589432 -0.03662233427166939
		endloop
	endfacet
	facet normal 1 0 0
		outer loop
			vertex 0.055555567145347595 0.06818649917840958 -0.03674163296818733
			vertex 0.055555567145347595 0.10202724486589432 -0.03662233427166939
			vertex 0.055555567145347595 0.06797007471323013 -0.02439761348068714
		endloop
	endfacet
	facet normal -1 0 0
		outer loop
			vertex -0.0555555522441864 0.023457566276192665 -0.03674163296818733
			vertex -0.0555555522441864 0.005546295549720526 -0.03674163296818733
			vertex -0.0555555522441864 -0.016234954819083214 -0.005827473942190409
		endloop
	endfacet
	facet normal -1 0 0
		outer loop
			vertex -0.0555555522441864 0.023457566276192665 -0.03674163296818733
			vertex -0.0555555522441864 -0.016234954819083214 -0.005827473942190409
			vertex -0.0555555522441864 0.03523973375558853 0.012649176642298698
		endloop
	endfacet
	facet normal -1 0 0
		outer loop
			vertex -0.0555555522441864 0.023457566276192665 -0.03674163296818733
			vertex -0.0555555522441864 0.03523973375558853 0.012649176642298698
			vertex -0.0555555522441864 0.03471096605062485 0.0045634484849870205
		endloop
	endfacet
	facet normal -1 0 0
		outer loop
			vertex -0.0555555522441864 -0.042411334812641144 0.036741625517606735
			vertex -0.0555555522441864 0.033210717141628265 0.036741625517606735
			vertex -0.0555555522441864 0.03639919310808182 0.030380291864275932
		endloop
	endfacet
	facet normal -1 0 0
		outer loop
			vertex -0.0555555522441864 -0.042411334812641144 0.036741625517606735
			vertex -0.0555555522441864 0.03639919310808182 0.030380291864275932
			vertex -0.0555555522441864 0.03523973375558853 0.012649176642298698
		endloop
	endfacet
	facet normal -1 0 0
		outer loop
			vertex -0.0555555522441864 -0.042411334812641144 0.036741625517606735
			vertex -0.0555555522441864 0.03523973375558853 0.012649176642298698
			vertex -0.0555555522441864 -0.016234954819083214 -0.005827473942190409
		endloop
	endfacet
	facet normal -1 0 0
		outer loop
			vertex -0.0555555522441864 -0.042411334812641144 0.036741625517606735
			vertex -0.0555555522441864 -0.016234954819083214 -0.005827473942190409
			vertex -0.0555555522441864 -0.03824564069509506 0.025412334129214287
		endloop
	endfacet
	facet normal -1 0 0
		outer loop
			vertex -0.0555555522441864 0.033210717141628265 0.036741625517606735
			vertex -0.0555555522441864 0.03681162744760513 0.036741625517606735
			vertex -0.0555555522441864 0.03680054098367691 0.036517973989248276
		endloop
	endfacet
	facet normal -1 0 0
		outer loop
			vertex -0.0555555522441864 0.033210717141628265 0.036741625517606735
			vertex -0.0555555522441864 0.03680054098367691 0.036517973989248276
			vertex -0.0555555522441864 0.03639919310808182 0.030380291864275932
		endloop
	endfacet
	facet normal -1 0 0
		outer loop
			vertex -0.0555555522441864 0.03681162744760513 0.036741625517606735
			vertex -0.0555555522441864 0.036815159022808075 0.036741625517606735
			vertex -0.0555555522441864 0.03680054098367691 0.036517973989248276
		endloop
	endfacet
	facet normal -1 0 0
		outer loop
			vertex -0.0555555522441864 0.03523973375558853 0.012649176642298698
			vertex -0.0555555522441864 0.03709537535905838 0.013315258547663689
			vertex -0.0555555522441864 0.03471096605062485 0.0045634484849870205
		endloop
	endfacet
	facet normal -1 0 0
		outer loop
			vertex -0.0555555522441864 0.03986228257417679 0.023471055552363396
			vertex -0.0555555522441864 0.03709537535905838 0.013315258547663689
			vertex -0.0555555522441864 0.03523973375558853 0.012649176642298698
		endloop
	endfacet
	facet normal -1 0 0
		outer loop
			vertex -0.0555555522441864 0.03986228257417679 0.023471055552363396
			vertex -0.0555555522441864 0.03523973375558853 0.012649176642298698
			vertex -0.0555555522441864 0.03639919310808182 0.030380291864275932
		endloop
	endfacet
	facet normal -1 0 0
		outer loop
			vertex -0.0555555522441864 0.036815159022808075 0.036741625517606735
			vertex -0.0555555522441864 0.04053362458944321 0.036741625517606735
			vertex -0.0555555522441864 0.043029092252254486 0.03509470447897911
		endloop
	endfacet
	facet normal -1 0 0
		outer loop
			vertex -0.0555555522441864 0.036815159022808075 0.036741625517606735
			vertex -0.0555555522441864 0.043029092252254486 0.03509470447897911
			vertex -0.0555555522441864 0.03986228257417679 0.023471055552363396
		endloop
	endfacet
	facet normal -1 0 0
		outer loop
			vertex -0.0555555522441864 0.036815159022808075 0.036741625517606735
			vertex -0.0555555522441864 0.03986228257417679 0.023471055552363396
			vertex -0.0555555522441864 0.03639919310808182 0.030380291864275932
		endloop
	endfacet
	facet normal -1 0 0
		outer loop
			vertex -0.0555555522441864 0.04053362458944321 0.036741625517606735
			vertex -0.0555555522441864 0.04347781091928482 0.036741625517606735
			vertex -0.0555555522441864 0.043029092252254486 0.03509470447897911
		endloop
	endfacet
	facet normal -1 0 0
		outer loop
			vertex -0.0555555522441864 0.04541424661874771 -0.03674163296818733
			vertex -0.0555555522441864 0.023457566276192665 -0.03674163296818733
			vertex -0.0555555522441864 0.03709537535905838 0.013315258547663689
		endloop
	endfacet
	facet normal -1 0 0
		outer loop
			vertex -0.0555555522441864 0.04541424661874771 -0.03674163296818733
			vertex -0.0555555522441864 0.03709537535905838 0.013315258547663689
			vertex -0.0555555522441864 0.03852907568216324 0.013829870149493217
		endloop
	endfacet
	facet normal -1 0 0
		outer loop
			vertex -0.0555555522441864 0.03852907568216324 0.013829870149493217
			vertex -0.0555555522441864 0.03709537535905838 0.013315258547663689
			vertex -0.0555555522441864 0.03809807449579239 0.016995621845126152
		endloop
	endfacet
	facet normal -1 0 0
		outer loop
			vertex -0.0555555522441864 0.04379510134458542 -0.024849073961377144
			vertex -0.0555555522441864 0.03852907568216324 0.013829870149493217
			vertex -0.0555555522441864 0.043088264763355255 0.015466375276446342
		endloop
	endfacet
	facet normal -1 0 0
		outer loop
			vertex -0.0555555522441864 0.043088264763355255 0.015466375276446342
			vertex -0.0555555522441864 0.03852907568216324 0.013829870149493217
			vertex -0.0555555522441864 0.03809807449579239 0.016995621845126152
		endloop
	endfacet
	facet normal -1 0 0
		outer loop
			vertex -0.0555555522441864 0.043088264763355255 0.015466375276446342
			vertex -0.0555555522441864 0.03809807449579239 0.016995621845126152
			vertex -0.0555555522441864 0.04276134818792343 0.03411191329360008
		endloop
	endfacet
	facet normal -1 0 0
		outer loop
			vertex -0.0555555522441864 0.10202724486589432 -0.03674163296818733
			vertex -0.0555555522441864 0.04541424661874771 -0.03674163296818733
			vertex -0.0555555522441864 0.04379510134458542 -0.024849073961377144
		endloop
	endfacet
	facet normal -1 0 0
		outer loop
			vertex -0.0555555522441864 0.10202724486589432 -0.03674163296818733
			vertex -0.0555555522441864 0.04379510134458542 -0.024849073961377144
			vertex -0.0555555522441864 0.043088264763355255 0.015466375276446342
		endloop
	endfacet
	facet normal -1 0 0
		outer loop
			vertex -0.0555555522441864 0.10202724486589432 -0.03674163296818733
			vertex -0.0555555522441864 0.043088264763355255 0.015466375276446342
			vertex -0.0555555522441864 0.10202724486589432 0.036622341722249985
		endloop
	endfacet
	facet normal -1 0 0
		outer loop
			vertex -0.0555555522441864 0.04347781091928482 0.036741625517606735
			vertex -0.0555555522441864 0.10202724486589432 0.036741625517606735
			vertex -0.0555555522441864 0.10202724486589432 0.036622341722249985
		endloop
	endfacet
	facet normal -1 0 0
		outer loop
			vertex -0.0555555522441864 0.04347781091928482 0.036741625517606735
			vertex -0.0555555522441864 0.10202724486589432 0.036622341722249985
			vertex -0.0555555522441864 0.043088264763355255 0.015466375276446342
		endloop
	endfacet
	facet normal -1 0 0
		outer loop
			vertex -0.0555555522441864 0.04347781091928482 0.036741625517606735
			vertex -0.0555555522441864 0.043088264763355255 0.015466375276446342
			vertex -0.0555555522441864 0.04276134818792343 0.03411191329360008
		endloop
	endfacet
	facet normal 0 0 1
		outer loop
			vertex -0.01293460838496685 -0.0238316860049963 0.036741625517606735
			vertex -0.012361211702227592 -0.0227751936763525 0.036741625517606735
			vertex -0.015003575012087822 -0.023976420983672142 0.036741625517606735
		endloop
	endfacet
	facet normal 0 0 1
		outer loop
			vertex 0.055555567145347595 -0.00842676218599081 0.036741625517606735
			vertex 0.055555567145347595 0.008099772967398167 0.036741625517606735
			vertex -0.012361211702227592 -0.0227751936763525 0.036741625517606735
		endloop
	endfacet
	facet normal 0 0 1
		outer loop
			vertex 0.055555567145347595 -0.00842676218599081 0.036741625517606735
			vertex -0.012361211702227592 -0.0227751936763525 0.036741625517606735
			vertex -0.01293460838496685 -0.0238316860049963 0.036741625517606735
		endloop
	endfacet
	facet normal 0 0 1
		outer loop
			vertex 0.055555567145347595 -0.00842676218599081 0.036741625517606735
			vertex -0.01293460838496685 -0.0238316860049963 0.036741625517606735
			vertex 0.020107300952076912 -0.021520068868994713 0.036741625517606735
		endloop
	endfacet
	facet normal 0 0 1
		outer loop
			vertex 0.055555567145347595 -0.00842676218599081 0.036741625517606735
			vertex 0.020107300952076912 -0.021520068868994713 0.036741625517606735
			vertex 0.04647587239742279 -0.012582293711602688 0.036741625517606735
		endloop
	endfacet
	facet normal 0 0 1
		outer loop
			vertex -0.0555555522441864 0.033210717141628265 0.036741625517606735
			vertex -0.0555555522441864 -0.042411334812641144 0.036741625517606735
			vertex -0.012361211702227592 -0.0227751936763525 0.036741625517606735
		endloop
	endfacet
	facet normal 0 0 1
		outer loop
			vertex -0.0555555522441864 0.033210717141628265 0.036741625517606735
			vertex -0.012361211702227592 -0.0227751936763525 0.036741625517606735
			vertex 0.015529783442616463 0.028613189235329628 0.036741625517606735
		endloop
	endfacet
	facet normal 0 0 1
		outer loop
			vertex -0.0555555522441864 0.033210717141628265 0.036741625517606735
			vertex 0.015529783442616463 0.028613189235329628 0.036741625517606735
			vertex 0.01289236731827259 0.029164696112275124 0.036741625517606735
		endloop
	endfacet
	facet normal 0 0 1
		outer loop
			vertex -0.0555555522441864 0.033210717141628265 0.036741625517606735
			vertex 0.01289236731827259 0.029164696112275124 0.036741625517606735
			vertex -0.04069586098194122 0.03515429049730301 0.036741625517606735
		endloop
	endfacet
	facet normal 0 0 1
		outer loop
			vertex 0.055555567145347595 0.008099772967398167 0.036741625517606735
			vertex 0.055555567145347595 0.02024340070784092 0.036741625517606735
			vertex 0.015529783442616463 0.028613189235329628 0.036741625517606735
		endloop
	endfacet
	facet normal 0 0 1
		outer loop
			vertex 0.055555567145347595 0.008099772967398167 0.036741625517606735
			vertex 0.015529783442616463 0.028613189235329628 0.036741625517606735
			vertex -0.012361211702227592 -0.0227751936763525 0.036741625517606735
		endloop
	endfacet
	facet normal 0 0 1
		outer loop
			vertex -0.0555555522441864 0.03681162744760513 0.036741625517606735
			vertex -0.0555555522441864 0.033210717141628265 0.036741625517606735
			vertex -0.043138399720191956 0.034834809601306915 0.036741625517606735
		endloop
	endfacet
	facet normal 0 0 1
		outer loop
			vertex -0.0555555522441864 0.036815159022808075 0.036741625517606735
			vertex -0.0555555522441864 0.03681162744760513 0.036741625517606735
			vertex -0.043138399720191956 0.034834809601306915 0.036741625517606735
		endloop
	endfacet
	facet normal 0 0 1
		outer loop
			vertex -0.0555555522441864 0.036815159022808075 0.036741625517606735
			vertex -0.043138399720191956 0.034834809601306915 0.036741625517606735
			vertex -0.04069586098194122 0.03515429049730301 0.036741625517606735
		endloop
	endfacet
	facet normal 0 0 1
		outer loop
			vertex -0.04069586098194122 0.03515429049730301 0.036741625517606735
			vertex 0.01289236731827259 0.029164696112275124 0.036741625517606735
			vertex -0.025349734351038933 0.03716147691011429 0.036741625517606735
		endloop
	endfacet
	facet normal 0 0 1
		outer loop
			vertex -0.0555555522441864 0.04053362458944321 0.036741625517606735
			vertex -0.0555555522441864 0.036815159022808075 0.036741625517606735
			vertex -0.04069586098194122 0.03515429049730301 0.036741625517606735
		endloop
	endfacet
	facet normal 0 0 1
		outer loop
			vertex -0.0555555522441864 0.04053362458944321 0.036741625517606735
			vertex -0.04069586098194122 0.03515429049730301 0.036741625517606735
			vertex -0.025349734351038933 0.03716147691011429 0.036741625517606735
		endloop
	endfacet
	facet normal 0 0 1
		outer loop
			vertex -0.0555555522441864 0.04053362458944321 0.036741625517606735
			vertex -0.025349734351038933 0.03716147691011429 0.036741625517606735
			vertex -0.0520867258310318 0.042752452194690704 0.036741625517606735
		endloop
	endfacet
	facet normal 0 0 1
		outer loop
			vertex -0.0555555522441864 0.04347781091928482 0.036741625517606735
			vertex -0.0555555522441864 0.04053362458944321 0.036741625517606735
			vertex -0.0520867258310318 0.042752452194690704 0.036741625517606735
		endloop
	endfacet
	facet normal 0 0 1
		outer loop
			vertex -0.025349734351038933 0.03716147691011429 0.036741625517606735
			vertex 0.015529783442616463 0.028613189235329628 0.036741625517606735
			vertex 0.022086935117840767 0.040694572031497955 0.036741625517606735
		endloop
	endfacet
	facet normal 0 0 1
		outer loop
			vertex -0.025349734351038933 0.03716147691011429 0.036741625517606735
			vertex 0.022086935117840767 0.040694572031497955 0.036741625517606735
			vertex -0.02049962989985943 0.03779584914445877 0.036741625517606735
		endloop
	endfacet
	facet normal 0 0 1
		outer loop
			vertex 0.055555567145347595 0.02024340070784092 0.036741625517606735
			vertex 0.055555567145347595 0.042972661554813385 0.036741625517606735
			vertex 0.022086935117840767 0.040694572031497955 0.036741625517606735
		endloop
	endfacet
	facet normal 0 0 1
		outer loop
			vertex 0.055555567145347595 0.02024340070784092 0.036741625517606735
			vertex 0.022086935117840767 0.040694572031497955 0.036741625517606735
			vertex 0.015529783442616463 0.028613189235329628 0.036741625517606735
		endloop
	endfacet
	facet normal 0 0 1
		outer loop
			vertex -0.026447368785738945 0.037390999495983124 0.036741625517606735
			vertex -0.025349734351038933 0.03716147691011429 0.036741625517606735
			vertex -0.02049962989985943 0.03779584914445877 0.036741625517606735
		endloop
	endfacet
	facet normal 0 0 1
		outer loop
			vertex -0.05376867949962616 0.0431041494011879 0.036741625517606735
			vertex -0.026447368785738945 0.037390999495983124 0.036741625517606735
			vertex 0.022086935117840767 0.040694572031497955 0.036741625517606735
		endloop
	endfacet
	facet normal 0 0 1
		outer loop
			vertex -0.05376867949962616 0.0431041494011879 0.036741625517606735
			vertex 0.022086935117840767 0.040694572031497955 0.036741625517606735
			vertex 0.03373079001903534 0.0621480718255043 0.036741625517606735
		endloop
	endfacet
	facet normal 0 0 1
		outer loop
			vertex 0.055555567145347595 0.042972661554813385 0.036741625517606735
			vertex 0.055555567145347595 0.06689814478158951 0.036741625517606735
			vertex 0.03373079001903534 0.0621480718255043 0.036741625517606735
		endloop
	endfacet
	facet normal 0 0 1
		outer loop
			vertex 0.055555567145347595 0.042972661554813385 0.036741625517606735
			vertex 0.03373079001903534 0.0621480718255043 0.036741625517606735
			vertex 0.022086935117840767 0.040694572031497955 0.036741625517606735
		endloop
	endfacet
	facet normal 0 0 1
		outer loop
			vertex -0.0555555522441864 0.10202724486589432 0.036741625517606735
			vertex -0.0555555522441864 0.04347781091928482 0.036741625517606735
			vertex -0.05376867949962616 0.0431041494011879 0.036741625517606735
		endloop
	endfacet
	facet normal 0 0 1
		outer loop
			vertex -0.0555555522441864 0.10202724486589432 0.036741625517606735
			vertex -0.05376867949962616 0.0431041494011879 0.036741625517606735
			vertex 0.03373079001903534 0.0621480718255043 0.036741625517606735
		endloop
	endfacet
	facet normal 0 0 1
		outer loop
			vertex -0.0555555522441864 0.10202724486589432 0.036741625517606735
			vertex 0.03373079001903534 0.0621480718255043 0.036741625517606735
			vertex 0.055375173687934875 0.10202724486589432 0.036741625517606735
		endloop
	endfacet
	facet normal 0 0 1
		outer loop
			vertex 0.055555567145347595 0.06689814478158951 0.036741625517606735
			vertex 0.055555567145347595 0.10202724486589432 0.036741625517606735
			vertex 0.055375173687934875 0.10202724486589432 0.036741625517606735
		endloop
	endfacet
	facet normal 0 0 1
		outer loop
			vertex 0.055555567145347595 0.06689814478158951 0.036741625517606735
			vertex 0.055375173687934875 0.10202724486589432 0.036741625517606735
			vertex 0.03373079001903534 0.0621480718255043 0.036741625517606735
		endloop
	endfacet
	facet normal 0 0 -1
		outer loop
			vertex -0.0555555522441864 0.005546295549720526 -0.03674163296818733
			vertex -0.0555555522441864 0.023457566276192665 -0.03674163296818733
			vertex -0.014421356841921806 0.014856004156172276 -0.03674163296818733
		endloop
	endfacet
	facet normal 0 0 -1
		outer loop
			vertex 0.055555567145347595 0.05297718197107315 -0.03674163296818733
			vertex 0.055555567145347595 0.035118989646434784 -0.03674163296818733
			vertex 0.03616918623447418 0.026305953040719032 -0.03674163296818733
		endloop
	endfacet
	facet normal 0 0 -1
		outer loop
			vertex 0.055555567145347595 0.05297718197107315 -0.03674163296818733
			vertex 0.03616918623447418 0.026305953040719032 -0.03674163296818733
			vertex -0.008758677169680595 0.0161376241594553 -0.03674163296818733
		endloop
	endfacet
	facet normal 0 0 -1
		outer loop
			vertex 0.055555567145347595 0.05297718197107315 -0.03674163296818733
			vertex -0.008758677169680595 0.0161376241594553 -0.03674163296818733
			vertex -0.018643958494067192 0.03435099869966507 -0.03674163296818733
		endloop
	endfacet
	facet normal 0 0 -1
		outer loop
			vertex 0.055555567145347595 0.05297718197107315 -0.03674163296818733
			vertex -0.018643958494067192 0.03435099869966507 -0.03674163296818733
			vertex 0.02613873966038227 0.05097488313913345 -0.03674163296818733
		endloop
	endfacet
	facet normal 0 0 -1
		outer loop
			vertex -0.018643958494067192 0.03435099869966507 -0.03674163296818733
			vertex -0.008758677169680595 0.0161376241594553 -0.03674163296818733
			vertex -0.014421356841921806 0.014856004156172276 -0.03674163296818733
		endloop
	endfacet
	facet normal 0 0 -1
		outer loop
			vertex -0.018643958494067192 0.03435099869966507 -0.03674163296818733
			vertex -0.014421356841921806 0.014856004156172276 -0.03674163296818733
			vertex -0.0507158488035202 0.022445524111390114 -0.03674163296818733
		endloop
	endfacet
	facet normal 0 0 -1
		outer loop
			vertex -0.018643958494067192 0.03435099869966507 -0.03674163296818733
			vertex -0.025749651715159416 0.04744300991296768 -0.03674163296818733
			vertex 0.02613873966038227 0.05097488313913345 -0.03674163296818733
		endloop
	endfacet
	facet normal 0 0 -1
		outer loop
			vertex -0.0555555522441864 0.023457566276192665 -0.03674163296818733
			vertex -0.0555555522441864 0.04541424661874771 -0.03674163296818733
			vertex -0.025749651715159416 0.04744300991296768 -0.03674163296818733
		endloop
	endfacet
	facet normal 0 0 -1
		outer loop
			vertex -0.0555555522441864 0.023457566276192665 -0.03674163296818733
			vertex -0.025749651715159416 0.04744300991296768 -0.03674163296818733
			vertex -0.018643958494067192 0.03435099869966507 -0.03674163296818733
		endloop
	endfacet
	facet normal 0 0 -1
		outer loop
			vertex -0.0555555522441864 0.023457566276192665 -0.03674163296818733
			vertex -0.018643958494067192 0.03435099869966507 -0.03674163296818733
			vertex -0.0507158488035202 0.022445524111390114 -0.03674163296818733
		endloop
	endfacet
	facet normal 0 0 -1
		outer loop
			vertex 0.055555567145347595 0.06189475208520889 -0.03674163296818733
			vertex 0.055555567145347595 0.05297718197107315 -0.03674163296818733
			vertex 0.02613873966038227 0.05097488313913345 -0.03674163296818733
		endloop
	endfacet
	facet normal 0 0 -1
		outer loop
			vertex 0.055555567145347595 0.06818649917840958 -0.03674163296818733
			vertex 0.055555567145347595 0.06189475208520889 -0.03674163296818733
			vertex 0.02613873966038227 0.05097488313913345 -0.03674163296818733
		endloop
	endfacet
	facet normal 0 0 -1
		outer loop
			vertex 0.055555567145347595 0.06818649917840958 -0.03674163296818733
			vertex 0.02613873966038227 0.05097488313913345 -0.03674163296818733
			vertex -0.025749651715159416 0.04744300991296768 -0.03674163296818733
		endloop
	endfacet
	facet normal 0 0 -1
		outer loop
			vertex 0.055555567145347595 0.06818649917840958 -0.03674163296818733
			vertex -0.025749651715159416 0.04744300991296768 -0.03674163296818733
			vertex -0.027229024097323418 0.05016876012086868 -0.03674163296818733
		endloop
	endfacet
	facet normal 0 0 -1
		outer loop
			vertex -0.027229024097323418 0.05016876012086868 -0.03674163296818733
			vertex -0.025749651715159416 0.04744300991296768 -0.03674163296818733
			vertex -0.04612496495246887 0.04605612903833389 -0.03674163296818733
		endloop
	endfacet
	facet normal 0 0 -1
		outer loop
			vertex 0.055555567145347595 0.10202724486589432 -0.03674163296818733
			vertex 0.055555567145347595 0.06818649917840958 -0.03674163296818733
			vertex -0.027229024097323418 0.05016876012086868 -0.03674163296818733
		endloop
	endfacet
	facet normal 0 0 -1
		outer loop
			vertex 0.055555567145347595 0.10202724486589432 -0.03674163296818733
			vertex -0.027229024097323418 0.05016876012086868 -0.03674163296818733
			vertex -0.055375173687934875 0.10202724486589432 -0.03674163296818733
		endloop
	endfacet
	facet normal 0 0 -1
		outer loop
			vertex -0.0555555522441864 0.04541424661874771 -0.03674163296818733
			vertex -0.0555555522441864 0.10202724486589432 -0.03674163296818733
			vertex -0.055375173687934875 0.10202724486589432 -0.03674163296818733
		endloop
	endfacet
	facet normal 0 0 -1
		outer loop
			vertex -0.0555555522441864 0.04541424661874771 -0.03674163296818733
			vertex -0.055375173687934875 0.10202724486589432 -0.03674163296818733
			vertex -0.027229024097323418 0.05016876012086868 -0.03674163296818733
		endloop
	endfacet
	facet normal 0 0 -1
		outer loop
			vertex -0.0555555522441864 0.04541424661874771 -0.03674163296818733
			vertex -0.027229024097323418 0.05016876012086868 -0.03674163296818733
			vertex -0.04612496495246887 0.04605612903833389 -0.03674163296818733
		endloop
	endfacet
endsolid exported
