solid exported
	facet normal 0.33784573974687854 -0.6238096640878141 0.7047849027366668
		outer loop
			vertex -0.04788636043667793 0.06978587061166763 0.036741629242897034
			vertex 0.0029910008888691664 0.07610500603914261 0.017946161329746246
			vertex -0.018752774223685265 0.08556417375802994 0.036741629242897034
		endloop
	endfacet
	facet normal 0.4317904462301975 -0.2216694376975081 0.8743109692410348
		outer loop
			vertex 0.01322914194315672 0.08287260681390762 0.014605746604502201
			vertex 0.0029910008888691664 0.07610500603914261 0.017946161329746246
			vertex 0.026899078860878944 0.08149159699678421 0.007504525128751993
		endloop
	endfacet
	facet normal 0.5044302845781091 -0.3805434460991531 0.7750721086656576
		outer loop
			vertex -0.018752774223685265 0.08556417375802994 0.036741629242897034
			vertex 0.0029910008888691664 0.07610500603914261 0.017946161329746246
			vertex 0.01322914194315672 0.08287260681390762 0.014605746604502201
		endloop
	endfacet
	facet normal 0.5044298437654395 -0.380544954124637 0.7750716551448984
		outer loop
			vertex -0.018752774223685265 0.08556417375802994 0.036741629242897034
			vertex 0.01322914194315672 0.08287260681390762 0.014605746604502201
			vertex -0.009768028743565083 0.0974738672375679 0.036741629242897034
		endloop
	endfacet
	facet normal 0.21263417673290425 -0.976981612452177 -0.017135805071966426
		outer loop
			vertex 0.026899078860878944 0.08149159699678421 0.007504525128751993
			vertex 0.0029910008888691664 0.07610500603914261 0.017946161329746246
			vertex -0.002614994766190648 0.07493791729211807 0.014923132956027985
		endloop
	endfacet
	facet normal 0.15575714816365863 -0.9836016128268735 0.09092622306187244
		outer loop
			vertex 0.0029910008888691664 0.07610500603914261 0.017946161329746246
			vertex -0.04788636043667793 0.06978587061166763 0.036741629242897034
			vertex -0.055555541068315506 0.06857142597436905 0.036741629242897034
		endloop
	endfacet
	facet normal 0.15575255744341127 -0.9836037403879292 0.09091107052890822
		outer loop
			vertex 0.0029910008888691664 0.07610500603914261 0.017946161329746246
			vertex -0.055555541068315506 0.06857142597436905 0.036741629242897034
			vertex -0.055555541068315506 0.06816709786653519 0.0323670394718647
		endloop
	endfacet
	facet normal 0.1557514250156988 -0.983604377011247 0.09090612262051348
		outer loop
			vertex 0.0029910008888691664 0.07610500603914261 0.017946161329746246
			vertex -0.055555541068315506 0.06816709786653519 0.0323670394718647
			vertex -0.002614994766190648 0.07493791729211807 0.014923132956027985
		endloop
	endfacet
	facet normal 0.21743345659436786 0.9335449036166967 0.2849852713469901
		outer loop
			vertex 0.0555555634200573 0.10202724486589432 -0.005033491645008326
			vertex 0.042206715792417526 0.10202724486589432 0.0051511963829398155
			vertex 0.0555555634200573 0.10100943595170975 -0.0016993883764371276
		endloop
	endfacet
	facet normal 0.4317913099526959 -0.22167123298356747 0.8743100875072185
		outer loop
			vertex 0.0555555634200573 0.08794797211885452 -0.005010971799492836
			vertex 0.0555555634200573 0.10100943595170975 -0.0016993883764371276
			vertex 0.042206715792417526 0.10202724486589432 0.0051511963829398155
		endloop
	endfacet
	facet normal 0.43179085518096505 -0.2216717344948007 0.8743101849504886
		outer loop
			vertex 0.0555555634200573 0.08794797211885452 -0.005010971799492836
			vertex 0.042206715792417526 0.10202724486589432 0.0051511963829398155
			vertex 0.01322914194315672 0.08287260681390762 0.014605746604502201
		endloop
	endfacet
	facet normal 0.43179084645531746 -0.2216672768188428 0.8743113194424051
		outer loop
			vertex 0.0555555634200573 0.08794797211885452 -0.005010971799492836
			vertex 0.01322914194315672 0.08287260681390762 0.014605746604502201
			vertex 0.026899078860878944 0.08149159699678421 0.007504525128751993
		endloop
	endfacet
	facet normal 0.5044298738514806 -0.38054490994144696 0.7750716572574664
		outer loop
			vertex -0.009768028743565083 0.0974738672375679 0.036741629242897034
			vertex 0.01322914194315672 0.08287260681390762 0.014605746604502201
			vertex 0.042206715792417526 0.10202724486589432 0.0051511963829398155
		endloop
	endfacet
	facet normal 0.5044295464411083 -0.38054707737719345 0.775070806169923
		outer loop
			vertex -0.009768028743565083 0.0974738672375679 0.036741629242897034
			vertex 0.042206715792417526 0.10202724486589432 0.0051511963829398155
			vertex -0.006457378622144461 0.10186225920915604 0.036741629242897034
		endloop
	endfacet
	facet normal 0.010880073713200355 0.9996991736765962 0.021981495543434815
		outer loop
			vertex -0.02161683700978756 0.10202724486589432 0.036741629242897034
			vertex -0.006457378622144461 0.10186225920915604 0.036741629242897034
			vertex 0.042206715792417526 0.10202724486589432 0.0051511963829398155
		endloop
	endfacet
	facet normal 0 1 0
		outer loop
			vertex -0.02161683700978756 0.10202724486589432 0.036741629242897034
			vertex 0.042206715792417526 0.10202724486589432 0.0051511963829398155
			vertex -0.02175905369222164 0.10202724486589432 0.036741629242897034
		endloop
	endfacet
	facet normal 0.41121227861596527 -0.5990611595669522 0.687044532045605
		outer loop
			vertex 0.0555555634200573 0.05327928811311722 -0.036741629242897034
			vertex 0.0555555634200573 0.06808597594499588 -0.023831095546483994
			vertex 0.02475903369486332 0.047025568783283234 -0.023762047290802002
		endloop
	endfacet
	facet normal 0.4112126471564905 -0.5990583527337592 0.6870467588443064
		outer loop
			vertex 0.0555555634200573 0.05327928811311722 -0.036741629242897034
			vertex 0.02475903369486332 0.047025568783283234 -0.023762047290802002
			vertex 0.04606879875063896 0.04676727205514908 -0.036741629242897034
		endloop
	endfacet
	facet normal 0.21263650503600054 -0.9769812741763227 -0.017126197327014595
		outer loop
			vertex 0.0555555634200573 0.08797390013933182 -0.006490061990916729
			vertex 0.0555555634200573 0.08794797211885452 -0.005010971799492836
			vertex 0.026899078860878944 0.08149159699678421 0.007504525128751993
		endloop
	endfacet
	facet normal 0.2126393060483352 -0.9769807691672748 -0.01712022781982281
		outer loop
			vertex 0.0555555634200573 0.08797390013933182 -0.006490061990916729
			vertex 0.026899078860878944 0.08149159699678421 0.007504525128751993
			vertex 0.010648558847606182 0.07788310199975967 0.011589220724999905
		endloop
	endfacet
	facet normal 1 0 0
		outer loop
			vertex 0.0555555634200573 0.08797390013933182 -0.006490061990916729
			vertex 0.0555555634200573 0.0903763547539711 -0.0043952856212854385
			vertex 0.0555555634200573 0.08794797211885452 -0.005010971799492836
		endloop
	endfacet
	facet normal 0 1 0
		outer loop
			vertex 0.0555555634200573 0.10202724486589432 -0.005033491645008326
			vertex 0.0555555634200573 0.10202724486589432 -0.036741629242897034
			vertex 0.04563088342547417 0.10202724486589432 -0.036741629242897034
		endloop
	endfacet
	facet normal 0 1 0
		outer loop
			vertex 0.0555555634200573 0.10202724486589432 -0.005033491645008326
			vertex 0.04563088342547417 0.10202724486589432 -0.036741629242897034
			vertex 0.042206715792417526 0.10202724486589432 0.0051511963829398155
		endloop
	endfacet
	facet normal 0 1 0
		outer loop
			vertex 0.04563088342547417 0.10202724486589432 -0.036741629242897034
			vertex 0.016155490651726723 0.10202724486589432 -0.036741629242897034
			vertex 0.042206715792417526 0.10202724486589432 0.0051511963829398155
		endloop
	endfacet
	facet normal 0 1 0
		outer loop
			vertex -0.055555541068315506 0.10202724486589432 -0.036741629242897034
			vertex -0.055555541068315506 0.10202724486589432 0.036741629242897034
			vertex -0.02175905369222164 0.10202724486589432 0.036741629242897034
		endloop
	endfacet
	facet normal 0 1 0
		outer loop
			vertex -0.055555541068315506 0.10202724486589432 -0.036741629242897034
			vertex -0.02175905369222164 0.10202724486589432 0.036741629242897034
			vertex 0.042206715792417526 0.10202724486589432 0.0051511963829398155
		endloop
	endfacet
	facet normal 0 1 0
		outer loop
			vertex -0.055555541068315506 0.10202724486589432 -0.036741629242897034
			vertex 0.042206715792417526 0.10202724486589432 0.0051511963829398155
			vertex 0.016155490651726723 0.10202724486589432 -0.036741629242897034
		endloop
	endfacet
	facet normal 0.1833997723857598 -0.9296331319600789 0.3196040729573795
		outer loop
			vertex 0.04606879875063896 0.04676727205514908 -0.036741629242897034
			vertex 0.02475903369486332 0.047025568783283234 -0.023762047290802002
			vertex 0.02703789807856083 0.043012820184230804 -0.036741629242897034
		endloop
	endfacet
	facet normal 0.36378217729311585 -0.6788782489482249 0.6377984404095639
		outer loop
			vertex -0.055555541068315506 0.03139079362154007 -0.0194444190710783
			vertex -0.02376209758222103 0.03217702358961105 -0.036741629242897034
			vertex -0.02135848067700863 0.03346502035856247 -0.036741629242897034
		endloop
	endfacet
	facet normal 0.36378019990765365 -0.6788835821315337 0.6377938915256283
		outer loop
			vertex -0.055555541068315506 0.03139079362154007 -0.0194444190710783
			vertex -0.02135848067700863 0.03346502035856247 -0.036741629242897034
			vertex -0.055555541068315506 0.03340081125497818 -0.017304906621575356
		endloop
	endfacet
	facet normal 0.15024002968174702 -0.9609288057849685 0.23247314617800988
		outer loop
			vertex -0.02376209758222103 0.03217702358961105 -0.036741629242897034
			vertex -0.055555541068315506 0.03139079362154007 -0.0194444190710783
			vertex -0.055555541068315506 0.028364161029458046 -0.031955018639564514
		endloop
	endfacet
	facet normal 0.15024036595690346 -0.960928071297872 0.23247596484128782
		outer loop
			vertex -0.02376209758222103 0.03217702358961105 -0.036741629242897034
			vertex -0.055555541068315506 0.028364161029458046 -0.031955018639564514
			vertex -0.043643105775117874 0.02906864322721958 -0.036741629242897034
		endloop
	endfacet
	facet normal -0.19777034394523363 -0.9457760001521339 0.25767159057997674
		outer loop
			vertex -0.008052279241383076 0.05035049468278885 -0.036741629242897034
			vertex 0.02703789807856083 0.043012820184230804 -0.036741629242897034
			vertex 0.02475903369486332 0.047025568783283234 -0.023762047290802002
		endloop
	endfacet
	facet normal -0.1977707830844592 -0.9457755762991296 0.257672809264403
		outer loop
			vertex -0.008052279241383076 0.05035049468278885 -0.036741629242897034
			vertex 0.02475903369486332 0.047025568783283234 -0.023762047290802002
			vertex -0.04569624736905098 0.06596872955560684 -0.008308407850563526
		endloop
	endfacet
	facet normal 0.36378339645928126 -0.6788770337273757 0.6377990385208094
		outer loop
			vertex -0.055555541068315506 0.035418011248111725 -0.015157787129282951
			vertex -0.055555541068315506 0.03340081125497818 -0.017304906621575356
			vertex -0.04311134293675423 0.03342419117689133 -0.02437785640358925
		endloop
	endfacet
	facet normal 0.15024115105268485 -0.9609274538650611 0.23247800958106915
		outer loop
			vertex -0.043643105775117874 0.02906864322721958 -0.036741629242897034
			vertex -0.055555541068315506 0.028364161029458046 -0.031955018639564514
			vertex -0.055555541068315506 0.02720613218843937 -0.036741629242897034
		endloop
	endfacet
	facet normal 0.3637802036383132 -0.6788818206345653 0.6377957643734907
		outer loop
			vertex -0.055555541068315506 0.03768124431371689 -0.012748759239912033
			vertex -0.055555541068315506 0.035418011248111725 -0.015157787129282951
			vertex -0.04311134293675423 0.03342419117689133 -0.02437785640358925
		endloop
	endfacet
	facet normal 0.363781414653264 -0.6788804318582439 0.6377965518822083
		outer loop
			vertex -0.055555541068315506 0.03768124431371689 -0.012748759239912033
			vertex -0.04311134293675423 0.03342419117689133 -0.02437785640358925
			vertex -0.028369417414069176 0.0334518626332283 -0.03275678679347038
		endloop
	endfacet
	facet normal 0.1557535390229024 -0.9836033715657856 0.0909133792478326
		outer loop
			vertex -0.055555541068315506 0.06816709786653519 0.0323670394718647
			vertex -0.055555541068315506 0.06546840816736221 0.003169573610648513
			vertex -0.04569624736905098 0.06596872955560684 -0.008308407850563526
		endloop
	endfacet
	facet normal 0.1557533072078635 -0.9836034132589105 0.09091332531171506
		outer loop
			vertex -0.055555541068315506 0.06816709786653519 0.0323670394718647
			vertex -0.04569624736905098 0.06596872955560684 -0.008308407850563526
			vertex -0.029909273609519005 0.07144711166620255 0.023916592821478844
		endloop
	endfacet
	facet normal 0.5976059794615575 -0.018881025029088463 0.8015675892934067
		outer loop
			vertex -0.00836579967290163 0.04042721539735794 -0.036741629242897034
			vertex -0.008052279241383076 0.05035049468278885 -0.036741629242897034
			vertex -0.04569624736905098 0.06596872955560684 -0.008308407850563526
		endloop
	endfacet
	facet normal 0.5976061585933788 -0.01888062503449203 0.8015674651640824
		outer loop
			vertex -0.00836579967290163 0.04042721539735794 -0.036741629242897034
			vertex -0.04569624736905098 0.06596872955560684 -0.008308407850563526
			vertex -0.05250914767384529 0.04785642772912979 -0.003655699547380209
		endloop
	endfacet
	facet normal 0.7557501131661928 -0.11884591976943497 0.6439855695614957
		outer loop
			vertex -0.055555541068315506 0.048809714615345 0.0000953261333052069
			vertex -0.05250914767384529 0.04785642772912979 -0.003655699547380209
			vertex -0.04569624736905098 0.06596872955560684 -0.008308407850563526
		endloop
	endfacet
	facet normal 0.7557482709032836 -0.1188435920013891 0.6439881611232496
		outer loop
			vertex -0.055555541068315506 0.048809714615345 0.0000953261333052069
			vertex -0.04569624736905098 0.06596872955560684 -0.008308407850563526
			vertex -0.055555541068315506 0.06546840816736221 0.003169573610648513
		endloop
	endfacet
	facet normal 0.24390195044896873 -0.8740330734319015 0.42021188121514735
		outer loop
			vertex -0.055555541068315506 0.048101045191287994 -0.0013786933850497007
			vertex -0.05250914767384529 0.04785642772912979 -0.003655699547380209
			vertex -0.055555541068315506 0.048809714615345 0.0000953261333052069
		endloop
	endfacet
	facet normal 0.363781612915227 -0.6788805003924173 0.6377963658502118
		outer loop
			vertex -0.02135848067700863 0.03346502035856247 -0.036741629242897034
			vertex -0.00836579967290163 0.04042721539735794 -0.036741629242897034
			vertex -0.05250914767384529 0.04785642772912979 -0.003655699547380209
		endloop
	endfacet
	facet normal 0.36378397274357815 -0.678878120893185 0.6377975526351898
		outer loop
			vertex -0.02135848067700863 0.03346502035856247 -0.036741629242897034
			vertex -0.05250914767384529 0.04785642772912979 -0.003655699547380209
			vertex -0.055555541068315506 0.04557160288095474 -0.004350102506577969
		endloop
	endfacet
	facet normal 0.36378039716762534 -0.6788821637284217 0.6377952887941252
		outer loop
			vertex -0.02135848067700863 0.03346502035856247 -0.036741629242897034
			vertex -0.055555541068315506 0.04557160288095474 -0.004350102506577969
			vertex -0.055555541068315506 0.03768124431371689 -0.012748759239912033
		endloop
	endfacet
	facet normal 0.3637823876528227 -0.6788789605857749 0.6377975629520619
		outer loop
			vertex -0.02135848067700863 0.03346502035856247 -0.036741629242897034
			vertex -0.055555541068315506 0.03768124431371689 -0.012748759239912033
			vertex -0.028369417414069176 0.0334518626332283 -0.03275678679347038
		endloop
	endfacet
	facet normal 0.3801458276765673 -0.6930193744174513 0.6125465667050483
		outer loop
			vertex -0.055555541068315506 0.04557160288095474 -0.004350102506577969
			vertex -0.05250914767384529 0.04785642772912979 -0.003655699547380209
			vertex -0.055555541068315506 0.047985441982746124 -0.0016191472532227635
		endloop
	endfacet
	facet normal 0.24390059033438696 -0.8740342662246043 0.42021018966673723
		outer loop
			vertex -0.055555541068315506 0.047985441982746124 -0.0016191472532227635
			vertex -0.05250914767384529 0.04785642772912979 -0.003655699547380209
			vertex -0.055555541068315506 0.048101045191287994 -0.0013786933850497007
		endloop
	endfacet
	facet normal 0.2126353922867859 -0.9769814508406394 -0.017129934628140973
		outer loop
			vertex 0.0555555634200573 0.08819759637117386 -0.01924825832247734
			vertex 0.0555555634200573 0.08797390013933182 -0.006490061990916729
			vertex 0.027831295505166054 0.08174414187669754 0.004671549890190363
		endloop
	endfacet
	facet normal 0.2126354112154033 -0.9769814471231723 -0.017129911685960144
		outer loop
			vertex 0.0555555634200573 0.08819759637117386 -0.01924825832247734
			vertex 0.027831295505166054 0.08174414187669754 0.004671549890190363
			vertex 0.05222875997424126 0.08746723085641861 -0.01888880878686905
		endloop
	endfacet
	facet normal 0.15232321700530305 -0.21958215368641154 0.9636292416399538
		outer loop
			vertex 0.011127243749797344 0.050690747797489166 -0.02077205292880535
			vertex 0.02475903369486332 0.047025568783283234 -0.023762047290802002
			vertex 0.0555555634200573 0.06808597594499588 -0.023831095546483994
		endloop
	endfacet
	facet normal 0.15232326961048476 -0.21958229517484623 0.9636292010835488
		outer loop
			vertex 0.011127243749797344 0.050690747797489166 -0.02077205292880535
			vertex 0.0555555634200573 0.06808597594499588 -0.023831095546483994
			vertex 0.0555555634200573 0.08819759637117386 -0.01924825832247734
		endloop
	endfacet
	facet normal 0.1523239650367723 -0.21958310695303476 0.9636289061751564
		outer loop
			vertex 0.011127243749797344 0.050690747797489166 -0.02077205292880535
			vertex 0.0555555634200573 0.08819759637117386 -0.01924825832247734
			vertex 0.05222875997424126 0.08746723085641861 -0.01888880878686905
		endloop
	endfacet
	facet normal 1 0 0
		outer loop
			vertex 0.0555555634200573 0.06759191304445267 -0.02426188997924328
			vertex 0.0555555634200573 0.08318454772233963 -0.029858814552426338
			vertex 0.0555555634200573 0.0882476344704628 -0.022101491689682007
		endloop
	endfacet
	facet normal 1 0 0
		outer loop
			vertex 0.0555555634200573 0.06759191304445267 -0.02426188997924328
			vertex 0.0555555634200573 0.0882476344704628 -0.022101491689682007
			vertex 0.0555555634200573 0.08819759637117386 -0.01924825832247734
		endloop
	endfacet
	facet normal 1 0 0
		outer loop
			vertex 0.0555555634200573 0.06759191304445267 -0.02426188997924328
			vertex 0.0555555634200573 0.08819759637117386 -0.01924825832247734
			vertex 0.0555555634200573 0.06808597594499588 -0.023831095546483994
		endloop
	endfacet
	facet normal 1 0 0
		outer loop
			vertex 0.0555555634200573 0.05327928811311722 -0.036741629242897034
			vertex 0.0555555634200573 0.07869226485490799 -0.036741629242897034
			vertex 0.0555555634200573 0.08318454772233963 -0.029858814552426338
		endloop
	endfacet
	facet normal 1 0 0
		outer loop
			vertex 0.0555555634200573 0.05327928811311722 -0.036741629242897034
			vertex 0.0555555634200573 0.08318454772233963 -0.029858814552426338
			vertex 0.0555555634200573 0.06759191304445267 -0.02426188997924328
		endloop
	endfacet
	facet normal 1 0 0
		outer loop
			vertex 0.0555555634200573 0.0882476344704628 -0.022101491689682007
			vertex 0.0555555634200573 0.10118607431650162 -0.002278014086186886
			vertex 0.0555555634200573 0.10100943595170975 -0.0016993883764371276
		endloop
	endfacet
	facet normal 1 0 0
		outer loop
			vertex 0.0555555634200573 0.0882476344704628 -0.022101491689682007
			vertex 0.0555555634200573 0.10100943595170975 -0.0016993883764371276
			vertex 0.0555555634200573 0.0903763547539711 -0.0043952856212854385
		endloop
	endfacet
	facet normal 1 0 0
		outer loop
			vertex 0.0555555634200573 0.0882476344704628 -0.022101491689682007
			vertex 0.0555555634200573 0.0903763547539711 -0.0043952856212854385
			vertex 0.0555555634200573 0.08797390013933182 -0.006490061990916729
		endloop
	endfacet
	facet normal 0.21263089331234897 -0.9769822084763623 -0.017142564856010956
		outer loop
			vertex 0.027831295505166054 0.08174414187669754 0.004671549890190363
			vertex 0.010648558847606182 0.07788310199975967 0.011589220724999905
			vertex -0.002614994766190648 0.07493791729211807 0.014923132956027985
		endloop
	endfacet
	facet normal 0.2126358887305468 -0.9769813909784409 -0.017127186155383233
		outer loop
			vertex 0.027831295505166054 0.08174414187669754 0.004671549890190363
			vertex -0.002614994766190648 0.07493791729211807 0.014923132956027985
			vertex -0.04569624736905098 0.06596872955560684 -0.008308407850563526
		endloop
	endfacet
	facet normal 0.2126361978849198 -0.9769812908562586 -0.017129059106790863
		outer loop
			vertex 0.027831295505166054 0.08174414187669754 0.004671549890190363
			vertex -0.04569624736905098 0.06596872955560684 -0.008308407850563526
			vertex 0.05222875997424126 0.08746723085641861 -0.01888880878686905
		endloop
	endfacet
	facet normal 0.15232348828514486 -0.21958258409409806 0.9636291006809643
		outer loop
			vertex -0.04569624736905098 0.06596872955560684 -0.008308407850563526
			vertex 0.011127243749797344 0.050690747797489166 -0.02077205292880535
			vertex 0.05222875997424126 0.08746723085641861 -0.01888880878686905
		endloop
	endfacet
	facet normal 1 0 0
		outer loop
			vertex 0.0555555634200573 0.08318454772233963 -0.029858814552426338
			vertex 0.0555555634200573 0.08841655403375626 -0.0317368246614933
			vertex 0.0555555634200573 0.0882476344704628 -0.022101491689682007
		endloop
	endfacet
	facet normal 1 0 0
		outer loop
			vertex 0.0555555634200573 0.07869226485490799 -0.036741629242897034
			vertex 0.0555555634200573 0.08850432187318802 -0.036741629242897034
			vertex 0.0555555634200573 0.08841655403375626 -0.0317368246614933
		endloop
	endfacet
	facet normal 1 0 0
		outer loop
			vertex 0.0555555634200573 0.07869226485490799 -0.036741629242897034
			vertex 0.0555555634200573 0.08841655403375626 -0.0317368246614933
			vertex 0.0555555634200573 0.08318454772233963 -0.029858814552426338
		endloop
	endfacet
	facet normal 0.155753910866486 -0.983603346059541 0.0909130181562007
		outer loop
			vertex -0.04569624736905098 0.06596872955560684 -0.008308407850563526
			vertex -0.002614994766190648 0.07493791729211807 0.014923132956027985
			vertex -0.029909273609519005 0.07144711166620255 0.023916592821478844
		endloop
	endfacet
	facet normal 1 0 0
		outer loop
			vertex 0.0555555634200573 0.08841655403375626 -0.0317368246614933
			vertex 0.0555555634200573 0.10202724486589432 -0.03662233054637909
			vertex 0.0555555634200573 0.10202724486589432 -0.005033491645008326
		endloop
	endfacet
	facet normal 1 0 0
		outer loop
			vertex 0.0555555634200573 0.08841655403375626 -0.0317368246614933
			vertex 0.0555555634200573 0.10202724486589432 -0.005033491645008326
			vertex 0.0555555634200573 0.10118607431650162 -0.002278014086186886
		endloop
	endfacet
	facet normal 1 0 0
		outer loop
			vertex 0.0555555634200573 0.08841655403375626 -0.0317368246614933
			vertex 0.0555555634200573 0.10118607431650162 -0.002278014086186886
			vertex 0.0555555634200573 0.0882476344704628 -0.022101491689682007
		endloop
	endfacet
	facet normal 1 0 0
		outer loop
			vertex 0.0555555634200573 0.08850432187318802 -0.036741629242897034
			vertex 0.0555555634200573 0.10202724486589432 -0.036741629242897034
			vertex 0.0555555634200573 0.10202724486589432 -0.03662233054637909
		endloop
	endfacet
	facet normal 1 0 0
		outer loop
			vertex 0.0555555634200573 0.08850432187318802 -0.036741629242897034
			vertex 0.0555555634200573 0.10202724486589432 -0.03662233054637909
			vertex 0.0555555634200573 0.08841655403375626 -0.0317368246614933
		endloop
	endfacet
	facet normal -1 0 0
		outer loop
			vertex -0.055555541068315506 0.06857142597436905 0.036741629242897034
			vertex -0.055555541068315506 0.07343841344118118 0.036741629242897034
			vertex -0.055555541068315506 0.06816709786653519 0.0323670394718647
		endloop
	endfacet
	facet normal -1 0 0
		outer loop
			vertex -0.055555541068315506 0.03139079362154007 -0.0194444190710783
			vertex -0.055555541068315506 0.03340081125497818 -0.017304906621575356
			vertex -0.055555541068315506 0.028364161029458046 -0.031955018639564514
		endloop
	endfacet
	facet normal -1 0 0
		outer loop
			vertex -0.055555541068315506 0.03400658816099167 -0.036741629242897034
			vertex -0.055555541068315506 0.02720613218843937 -0.036741629242897034
			vertex -0.055555541068315506 0.028364161029458046 -0.031955018639564514
		endloop
	endfacet
	facet normal -1 0 0
		outer loop
			vertex -0.055555541068315506 0.03400658816099167 -0.036741629242897034
			vertex -0.055555541068315506 0.028364161029458046 -0.031955018639564514
			vertex -0.055555541068315506 0.03340081125497818 -0.017304906621575356
		endloop
	endfacet
	facet normal -1 0 0
		outer loop
			vertex -0.055555541068315506 0.03400658816099167 -0.036741629242897034
			vertex -0.055555541068315506 0.03340081125497818 -0.017304906621575356
			vertex -0.055555541068315506 0.035418011248111725 -0.015157787129282951
		endloop
	endfacet
	facet normal -1 0 0
		outer loop
			vertex -0.055555541068315506 0.03569760173559189 -0.036741629242897034
			vertex -0.055555541068315506 0.03400658816099167 -0.036741629242897034
			vertex -0.055555541068315506 0.035418011248111725 -0.015157787129282951
		endloop
	endfacet
	facet normal -1 0 0
		outer loop
			vertex -0.055555541068315506 0.03569760173559189 -0.036741629242897034
			vertex -0.055555541068315506 0.035418011248111725 -0.015157787129282951
			vertex -0.055555541068315506 0.03768124431371689 -0.012748759239912033
		endloop
	endfacet
	facet normal -1 0 0
		outer loop
			vertex -0.055555541068315506 0.06546840816736221 0.003169573610648513
			vertex -0.055555541068315506 0.06508500128984451 -0.0009786606533452868
			vertex -0.055555541068315506 0.048101045191287994 -0.0013786933850497007
		endloop
	endfacet
	facet normal -1 0 0
		outer loop
			vertex -0.055555541068315506 0.06546840816736221 0.003169573610648513
			vertex -0.055555541068315506 0.048101045191287994 -0.0013786933850497007
			vertex -0.055555541068315506 0.048809714615345 0.0000953261333052069
		endloop
	endfacet
	facet normal -1 0 0
		outer loop
			vertex -0.055555541068315506 0.048101045191287994 -0.0013786933850497007
			vertex -0.055555541068315506 0.04820004850625992 -0.0013763618189841509
			vertex -0.055555541068315506 0.047985441982746124 -0.0016191472532227635
		endloop
	endfacet
	facet normal -1 0 0
		outer loop
			vertex -0.055555541068315506 0.04820004850625992 -0.0013763618189841509
			vertex -0.055555541068315506 0.048369117081165314 -0.001372379483655095
			vertex -0.055555541068315506 0.04557160288095474 -0.004350102506577969
		endloop
	endfacet
	facet normal -1 0 0
		outer loop
			vertex -0.055555541068315506 0.060283906757831573 -0.036741629242897034
			vertex -0.055555541068315506 0.03569760173559189 -0.036741629242897034
			vertex -0.055555541068315506 0.03768124431371689 -0.012748759239912033
		endloop
	endfacet
	facet normal -1 0 0
		outer loop
			vertex -0.055555541068315506 0.060283906757831573 -0.036741629242897034
			vertex -0.055555541068315506 0.03768124431371689 -0.012748759239912033
			vertex -0.055555541068315506 0.048369117081165314 -0.001372379483655095
		endloop
	endfacet
	facet normal -1 0 0
		outer loop
			vertex -0.055555541068315506 0.060283906757831573 -0.036741629242897034
			vertex -0.055555541068315506 0.048369117081165314 -0.001372379483655095
			vertex -0.055555541068315506 0.06508500128984451 -0.0009786606533452868
		endloop
	endfacet
	facet normal -1 0 0
		outer loop
			vertex -0.055555541068315506 0.060283906757831573 -0.036741629242897034
			vertex -0.055555541068315506 0.06508500128984451 -0.0009786606533452868
			vertex -0.055555541068315506 0.06254739314317703 -0.028433557599782944
		endloop
	endfacet
	facet normal -1 0 0
		outer loop
			vertex -0.055555541068315506 0.06741199642419815 0.024197304621338844
			vertex -0.055555541068315506 0.07791347056627274 0.02796676941215992
			vertex -0.055555541068315506 0.07301396876573563 0.009983415715396404
		endloop
	endfacet
	facet normal -1 0 0
		outer loop
			vertex -0.055555541068315506 0.06741199642419815 0.024197304621338844
			vertex -0.055555541068315506 0.07301396876573563 0.009983415715396404
			vertex -0.055555541068315506 0.06626234203577042 0.011759095825254917
		endloop
	endfacet
	facet normal -1 0 0
		outer loop
			vertex -0.055555541068315506 0.07343841344118118 0.036741629242897034
			vertex -0.055555541068315506 0.08030412346124649 0.036741629242897034
			vertex -0.055555541068315506 0.07791347056627274 0.02796676941215992
		endloop
	endfacet
	facet normal -1 0 0
		outer loop
			vertex -0.055555541068315506 0.07343841344118118 0.036741629242897034
			vertex -0.055555541068315506 0.07791347056627274 0.02796676941215992
			vertex -0.055555541068315506 0.06741199642419815 0.024197304621338844
		endloop
	endfacet
	facet normal -1 0 0
		outer loop
			vertex -0.055555541068315506 0.07343841344118118 0.036741629242897034
			vertex -0.055555541068315506 0.06741199642419815 0.024197304621338844
			vertex -0.055555541068315506 0.06816709786653519 0.0323670394718647
		endloop
	endfacet
	facet normal -1 0 0
		outer loop
			vertex -0.055555541068315506 0.07301396876573563 0.009983415715396404
			vertex -0.055555541068315506 0.06254739314317703 -0.028433557599782944
			vertex -0.055555541068315506 0.06626234203577042 0.011759095825254917
		endloop
	endfacet
	facet normal -1 0 0
		outer loop
			vertex -0.055555541068315506 0.06432143598794937 -0.036741629242897034
			vertex -0.055555541068315506 0.060283906757831573 -0.036741629242897034
			vertex -0.055555541068315506 0.06407729536294937 -0.022818101570010185
		endloop
	endfacet
	facet normal -1 0 0
		outer loop
			vertex -0.055555541068315506 0.10202724486589432 -0.036741629242897034
			vertex -0.055555541068315506 0.06432143598794937 -0.036741629242897034
			vertex -0.055555541068315506 0.06407729536294937 -0.022818101570010185
		endloop
	endfacet
	facet normal -1 0 0
		outer loop
			vertex -0.055555541068315506 0.10202724486589432 -0.036741629242897034
			vertex -0.055555541068315506 0.06407729536294937 -0.022818101570010185
			vertex -0.055555541068315506 0.07791347056627274 0.02796676941215992
		endloop
	endfacet
	facet normal -1 0 0
		outer loop
			vertex -0.055555541068315506 0.10202724486589432 -0.036741629242897034
			vertex -0.055555541068315506 0.07791347056627274 0.02796676941215992
			vertex -0.055555541068315506 0.10202724486589432 0.03662233054637909
		endloop
	endfacet
	facet normal -1 0 0
		outer loop
			vertex -0.055555541068315506 0.08030412346124649 0.036741629242897034
			vertex -0.055555541068315506 0.10202724486589432 0.036741629242897034
			vertex -0.055555541068315506 0.10202724486589432 0.03662233054637909
		endloop
	endfacet
	facet normal -1 0 0
		outer loop
			vertex -0.055555541068315506 0.08030412346124649 0.036741629242897034
			vertex -0.055555541068315506 0.10202724486589432 0.03662233054637909
			vertex -0.055555541068315506 0.07791347056627274 0.02796676941215992
		endloop
	endfacet
	facet normal 0 0 1
		outer loop
			vertex -0.03462343290448189 0.07696882635354996 0.036741629242897034
			vertex -0.018752774223685265 0.08556417375802994 0.036741629242897034
			vertex -0.009768028743565083 0.0974738672375679 0.036741629242897034
		endloop
	endfacet
	facet normal 0 0 1
		outer loop
			vertex -0.03462343290448189 0.07696882635354996 0.036741629242897034
			vertex -0.009768028743565083 0.0974738672375679 0.036741629242897034
			vertex -0.029382547363638878 0.08717752248048782 0.036741629242897034
		endloop
	endfacet
	facet normal 0 0 1
		outer loop
			vertex -0.055555541068315506 0.07343841344118118 0.036741629242897034
			vertex -0.055555541068315506 0.06857142597436905 0.036741629242897034
			vertex -0.04788636043667793 0.06978587061166763 0.036741629242897034
		endloop
	endfacet
	facet normal 0 0 1
		outer loop
			vertex -0.055555541068315506 0.07343841344118118 0.036741629242897034
			vertex -0.04788636043667793 0.06978587061166763 0.036741629242897034
			vertex -0.03462343290448189 0.07696882635354996 0.036741629242897034
		endloop
	endfacet
	facet normal 0 0 1
		outer loop
			vertex -0.055555541068315506 0.07343841344118118 0.036741629242897034
			vertex -0.03462343290448189 0.07696882635354996 0.036741629242897034
			vertex -0.029382547363638878 0.08717752248048782 0.036741629242897034
		endloop
	endfacet
	facet normal 0 0 1
		outer loop
			vertex -0.029382547363638878 0.08717752248048782 0.036741629242897034
			vertex -0.009768028743565083 0.0974738672375679 0.036741629242897034
			vertex -0.006457378622144461 0.10186225920915604 0.036741629242897034
		endloop
	endfacet
	facet normal 0 0 1
		outer loop
			vertex -0.029382547363638878 0.08717752248048782 0.036741629242897034
			vertex -0.006457378622144461 0.10186225920915604 0.036741629242897034
			vertex -0.02175827883183956 0.10202879458665848 0.036741629242897034
		endloop
	endfacet
	facet normal 0 0 1
		outer loop
			vertex -0.055555541068315506 0.08030412346124649 0.036741629242897034
			vertex -0.055555541068315506 0.07343841344118118 0.036741629242897034
			vertex -0.04620226100087166 0.07834825664758682 0.036741629242897034
		endloop
	endfacet
	facet normal 0 0 1
		outer loop
			vertex -0.055555541068315506 0.10202724486589432 0.036741629242897034
			vertex -0.055555541068315506 0.08030412346124649 0.036741629242897034
			vertex -0.04620226100087166 0.07834825664758682 0.036741629242897034
		endloop
	endfacet
	facet normal 0 0 1
		outer loop
			vertex -0.055555541068315506 0.10202724486589432 0.036741629242897034
			vertex -0.04620226100087166 0.07834825664758682 0.036741629242897034
			vertex -0.029382547363638878 0.08717752248048782 0.036741629242897034
		endloop
	endfacet
	facet normal 0 0 1
		outer loop
			vertex -0.055555541068315506 0.10202724486589432 0.036741629242897034
			vertex -0.029382547363638878 0.08717752248048782 0.036741629242897034
			vertex -0.02175905369222164 0.10202724486589432 0.036741629242897034
		endloop
	endfacet
	facet normal 0 0 -1
		outer loop
			vertex -0.043643105775117874 0.02906864322721958 -0.036741629242897034
			vertex -0.02135848067700863 0.03346502035856247 -0.036741629242897034
			vertex -0.02376209758222103 0.03217702358961105 -0.036741629242897034
		endloop
	endfacet
	facet normal 0 0 -1
		outer loop
			vertex -0.055555541068315506 0.02720613218843937 -0.036741629242897034
			vertex -0.055555541068315506 0.03400658816099167 -0.036741629242897034
			vertex -0.03197364881634712 0.031370826065540314 -0.036741629242897034
		endloop
	endfacet
	facet normal 0 0 -1
		outer loop
			vertex -0.055555541068315506 0.02720613218843937 -0.036741629242897034
			vertex -0.03197364881634712 0.031370826065540314 -0.036741629242897034
			vertex -0.043643105775117874 0.02906864322721958 -0.036741629242897034
		endloop
	endfacet
	facet normal 0 0 -1
		outer loop
			vertex -0.055555541068315506 0.03400658816099167 -0.036741629242897034
			vertex -0.055555541068315506 0.03569760173559189 -0.036741629242897034
			vertex -0.02480604313313961 0.03278488665819168 -0.036741629242897034
		endloop
	endfacet
	facet normal 0 0 -1
		outer loop
			vertex -0.055555541068315506 0.03400658816099167 -0.036741629242897034
			vertex -0.02480604313313961 0.03278488665819168 -0.036741629242897034
			vertex -0.03197364881634712 0.031370826065540314 -0.036741629242897034
		endloop
	endfacet
	facet normal 0 0 -1
		outer loop
			vertex -0.01888304017484188 0.0347914919257164 -0.036741629242897034
			vertex -0.02979539893567562 0.05489719659090042 -0.036741629242897034
			vertex -0.008052279241383076 0.05035049468278885 -0.036741629242897034
		endloop
	endfacet
	facet normal 0 0 -1
		outer loop
			vertex -0.01888304017484188 0.0347914919257164 -0.036741629242897034
			vertex -0.008052279241383076 0.05035049468278885 -0.036741629242897034
			vertex -0.00836579967290163 0.04042721539735794 -0.036741629242897034
		endloop
	endfacet
	facet normal 0 0 -1
		outer loop
			vertex -0.055555541068315506 0.03569760173559189 -0.036741629242897034
			vertex -0.055555541068315506 0.060283906757831573 -0.036741629242897034
			vertex -0.02979539893567562 0.05489719659090042 -0.036741629242897034
		endloop
	endfacet
	facet normal 0 0 -1
		outer loop
			vertex -0.055555541068315506 0.03569760173559189 -0.036741629242897034
			vertex -0.02979539893567562 0.05489719659090042 -0.036741629242897034
			vertex -0.01888304017484188 0.0347914919257164 -0.036741629242897034
		endloop
	endfacet
	facet normal 0 0 -1
		outer loop
			vertex -0.055555541068315506 0.03569760173559189 -0.036741629242897034
			vertex -0.01888304017484188 0.0347914919257164 -0.036741629242897034
			vertex -0.02135848067700863 0.03346502035856247 -0.036741629242897034
		endloop
	endfacet
	facet normal 0 0 -1
		outer loop
			vertex -0.055555541068315506 0.03569760173559189 -0.036741629242897034
			vertex -0.02135848067700863 0.03346502035856247 -0.036741629242897034
			vertex -0.02480604313313961 0.03278488665819168 -0.036741629242897034
		endloop
	endfacet
	facet normal 0 0 -1
		outer loop
			vertex 0.0555555634200573 0.07869226485490799 -0.036741629242897034
			vertex 0.0555555634200573 0.05327928811311722 -0.036741629242897034
			vertex 0.04606879875063896 0.04676727205514908 -0.036741629242897034
		endloop
	endfacet
	facet normal 0 0 -1
		outer loop
			vertex 0.0555555634200573 0.07869226485490799 -0.036741629242897034
			vertex 0.04606879875063896 0.04676727205514908 -0.036741629242897034
			vertex 0.02703789807856083 0.043012820184230804 -0.036741629242897034
		endloop
	endfacet
	facet normal 0 0 -1
		outer loop
			vertex 0.0555555634200573 0.07869226485490799 -0.036741629242897034
			vertex 0.02703789807856083 0.043012820184230804 -0.036741629242897034
			vertex 0.016781220212578773 0.04515758901834488 -0.036741629242897034
		endloop
	endfacet
	facet normal 0 0 -1
		outer loop
			vertex 0.0555555634200573 0.08850432187318802 -0.036741629242897034
			vertex 0.0555555634200573 0.07869226485490799 -0.036741629242897034
			vertex 0.016781220212578773 0.04515758901834488 -0.036741629242897034
		endloop
	endfacet
	facet normal 0 0 -1
		outer loop
			vertex 0.0555555634200573 0.08850432187318802 -0.036741629242897034
			vertex 0.016781220212578773 0.04515758901834488 -0.036741629242897034
			vertex -0.02979539893567562 0.05489719659090042 -0.036741629242897034
		endloop
	endfacet
	facet normal 0 0 -1
		outer loop
			vertex 0.0555555634200573 0.08850432187318802 -0.036741629242897034
			vertex -0.02979539893567562 0.05489719659090042 -0.036741629242897034
			vertex -0.03709148243069649 0.06834004074335098 -0.036741629242897034
		endloop
	endfacet
	facet normal 0 0 -1
		outer loop
			vertex -0.055555541068315506 0.060283906757831573 -0.036741629242897034
			vertex -0.055555541068315506 0.06432143598794937 -0.036741629242897034
			vertex -0.03709148243069649 0.06834004074335098 -0.036741629242897034
		endloop
	endfacet
	facet normal 0 0 -1
		outer loop
			vertex -0.055555541068315506 0.060283906757831573 -0.036741629242897034
			vertex -0.03709148243069649 0.06834004074335098 -0.036741629242897034
			vertex -0.02979539893567562 0.05489719659090042 -0.036741629242897034
		endloop
	endfacet
	facet normal 0 0 -1
		outer loop
			vertex 0.0555555634200573 0.10202724486589432 -0.036741629242897034
			vertex 0.0555555634200573 0.08850432187318802 -0.036741629242897034
			vertex -0.03709148243069649 0.06834004074335098 -0.036741629242897034
		endloop
	endfacet
	facet normal 0 0 -1
		outer loop
			vertex 0.0555555634200573 0.10202724486589432 -0.036741629242897034
			vertex -0.03709148243069649 0.06834004074335098 -0.036741629242897034
			vertex -0.055375177413225174 0.10202724486589432 -0.036741629242897034
		endloop
	endfacet
	facet normal 0 0 -1
		outer loop
			vertex -0.055555541068315506 0.06432143598794937 -0.036741629242897034
			vertex -0.055555541068315506 0.10202724486589432 -0.036741629242897034
			vertex -0.055375177413225174 0.10202724486589432 -0.036741629242897034
		endloop
	endfacet
	facet normal 0 0 -1
		outer loop
			vertex -0.055555541068315506 0.06432143598794937 -0.036741629242897034
			vertex -0.055375177413225174 0.10202724486589432 -0.036741629242897034
			vertex -0.03709148243069649 0.06834004074335098 -0.036741629242897034
		endloop
	endfacet
endsolid exported
