solid exported
	facet normal 0 1 0
		outer loop
			vertex 0.0555555634200573 0.10202724486589432 0.036741625517606735
			vertex 0.0555555634200573 0.10202724486589432 -0.011197280138731003
			vertex 0.051637183874845505 0.10202724486589432 0.036741625517606735
		endloop
	endfacet
	facet normal 0 1 0
		outer loop
			vertex 0.051637183874845505 0.10202724486589432 0.036741625517606735
			vertex 0.0555555634200573 0.10202724486589432 -0.011197280138731003
			vertex 0.0555555634200573 0.10202724486589432 -0.036741625517606735
		endloop
	endfacet
	facet normal 0 1 0
		outer loop
			vertex 0.051637183874845505 0.10202724486589432 0.036741625517606735
			vertex 0.0555555634200573 0.10202724486589432 -0.036741625517606735
			vertex -0.055555541068315506 0.10202724486589432 -0.036741625517606735
		endloop
	endfacet
	facet normal 0 1 0
		outer loop
			vertex 0.051637183874845505 0.10202724486589432 0.036741625517606735
			vertex -0.055555541068315506 0.10202724486589432 -0.036741625517606735
			vertex -0.055555541068315506 0.10202724486589432 -0.0050933328457176685
		endloop
	endfacet
	facet normal 0 1 0
		outer loop
			vertex 0.051637183874845505 0.10202724486589432 0.036741625517606735
			vertex -0.055555541068315506 0.10202724486589432 -0.0050933328457176685
			vertex -0.029540320858359337 0.10202724486589432 0.036741625517606735
		endloop
	endfacet
	facet normal 0 1 0
		outer loop
			vertex -0.055555541068315506 0.10202724486589432 0.036741625517606735
			vertex -0.029540320858359337 0.10202724486589432 0.036741625517606735
			vertex -0.055555541068315506 0.10202724486589432 -0.0050933328457176685
		endloop
	endfacet
	facet normal 0.533766498232046 -0.6345718512302885 0.5589381817260867
		outer loop
			vertex -0.055555541068315506 -0.007871261797845364 0.00961397960782051
			vertex -0.055555541068315506 -0.00815074797719717 0.009296674281358719
			vertex -0.055089373141527176 -0.007971457205712795 0.009055051952600479
		endloop
	endfacet
	facet normal 0.4284802985669746 -0.8841324278669515 0.1863182324251878
		outer loop
			vertex -0.042296189814805984 -0.0010035992600023746 0.02198120579123497
			vertex -0.055555541068315506 -0.008922061882913113 0.01489870622754097
			vertex -0.055555541068315506 -0.010716444812715054 0.006383854430168867
		endloop
	endfacet
	facet normal 0.42847923251683906 -0.884132715750659 0.18631931794944115
		outer loop
			vertex -0.042296189814805984 -0.0010035992600023746 0.02198120579123497
			vertex -0.055555541068315506 -0.010716444812715054 0.006383854430168867
			vertex -0.05071212723851204 -0.008912271820008755 0.0038066988345235586
		endloop
	endfacet
	facet normal -0.5174123471714382 0.855651841143261 0.01201622830554152
		outer loop
			vertex -0.055555541068315506 -0.008832520805299282 0.00852266326546669
			vertex -0.055555541068315506 -0.008922061882913113 0.01489870622754097
			vertex -0.042296189814805984 -0.0010035992600023746 0.02198120579123497
		endloop
	endfacet
	facet normal -0.5174123632851224 0.8556518310942895 0.012016250026289269
		outer loop
			vertex -0.055555541068315506 -0.008832520805299282 0.00852266326546669
			vertex -0.042296189814805984 -0.0010035992600023746 0.02198120579123497
			vertex -0.05438803508877754 -0.008122197352349758 0.00821411982178688
		endloop
	endfacet
	facet normal 0.4435700292186034 -0.8715037714556367 0.2091095538649748
		outer loop
			vertex -0.055555541068315506 -0.008544406853616238 0.007656026165932417
			vertex -0.055089373141527176 -0.007971457205712795 0.009055051952600479
			vertex -0.055555541068315506 -0.00815074797719717 0.009296674281358719
		endloop
	endfacet
	facet normal 0.42847932419375906 -0.884132621039626 0.18631955654751067
		outer loop
			vertex -0.055555541068315506 -0.010716444812715054 0.006383854430168867
			vertex -0.055555541068315506 -0.013463742099702358 -0.00665275426581502
			vertex -0.05071212723851204 -0.008912271820008755 0.0038066988345235586
		endloop
	endfacet
	facet normal -0.5174131549811816 0.8556514080921886 0.012012280477686127
		outer loop
			vertex -0.055555541068315506 -0.008809528313577175 0.006884876172989607
			vertex -0.055555541068315506 -0.008832520805299282 0.00852266326546669
			vertex -0.05438803508877754 -0.008122197352349758 0.00821411982178688
		endloop
	endfacet
	facet normal 0.11614174888187985 -0.8879399437754775 -0.44505477237600793
		outer loop
			vertex -0.011761476285755634 0.01663977839052677 0.036741625517606735
			vertex -0.012759109027683735 0.016509288921952248 0.036741625517606735
			vertex 0.00031981864594854414 0.022409582510590553 0.028382886201143265
		endloop
	endfacet
	facet normal 0.11613663473291372 -0.8879376881642902 -0.44506060712038936
		outer loop
			vertex -0.011761476285755634 0.01663977839052677 0.036741625517606735
			vertex 0.00031981864594854414 0.022409582510590553 0.028382886201143265
			vertex 0.00689650559797883 0.021858597174286842 0.03119831159710884
		endloop
	endfacet
	facet normal 0.5424804634595791 -0.787292580469187 0.29306200624244894
		outer loop
			vertex -0.012759109027683735 0.016509288921952248 0.036741625517606735
			vertex -0.013188143260776997 0.016213664785027504 0.036741625517606735
			vertex 0.006492594722658396 0.020502308383584023 0.011832226067781448
		endloop
	endfacet
	facet normal 0.54244611786428 -0.7873282535579565 0.2930297431377057
		outer loop
			vertex -0.012759109027683735 0.016509288921952248 0.036741625517606735
			vertex 0.006492594722658396 0.020502308383584023 0.011832226067781448
			vertex 0.00642375135794282 0.020685577765107155 0.012452084571123123
		endloop
	endfacet
	facet normal 0.5424652445657464 -0.7873081677915995 0.29304830210540317
		outer loop
			vertex -0.012759109027683735 0.016509288921952248 0.036741625517606735
			vertex 0.00642375135794282 0.020685577765107155 0.012452084571123123
			vertex 0.00031981864594854414 0.022409582510590553 0.028382886201143265
		endloop
	endfacet
	facet normal 0.18790267777031627 -0.878584588197612 0.43906913472524733
		outer loop
			vertex -0.055555541068315506 0.006874063517898321 0.036741625517606735
			vertex -0.055555541068315506 -0.005124425981193781 0.012732449918985367
			vertex -0.05250914767384529 -0.006979054305702448 0.007717582862824202
		endloop
	endfacet
	facet normal 0.1879014202660215 -0.8785848586010371 0.439069131799319
		outer loop
			vertex -0.055555541068315506 0.006874063517898321 0.036741625517606735
			vertex -0.05250914767384529 -0.006979054305702448 0.007717582862824202
			vertex -0.014353950507938862 0.015685776248574257 0.036741625517606735
		endloop
	endfacet
	facet normal 0.5337905539081976 -0.6345391127354689 0.5589523762962849
		outer loop
			vertex -0.055555541068315506 -0.007871261797845364 0.00961397960782051
			vertex -0.055089373141527176 -0.007971457205712795 0.009055051952600479
			vertex -0.05250914767384529 -0.006979054305702448 0.007717582862824202
		endloop
	endfacet
	facet normal 0.5337857704606648 -0.6345575432129582 0.5589360210303583
		outer loop
			vertex -0.055555541068315506 -0.007871261797845364 0.00961397960782051
			vertex -0.05250914767384529 -0.006979054305702448 0.007717582862824202
			vertex -0.055555541068315506 -0.005124425981193781 0.012732449918985367
		endloop
	endfacet
	facet normal 0.4284440479461759 -0.8841349332111328 0.18638969299626204
		outer loop
			vertex -0.014217008836567402 0.015715057030320168 0.036741625517606735
			vertex -0.01466276217252016 0.015499048866331577 0.036741625517606735
			vertex -0.042296189814805984 -0.0010035992600023746 0.02198120579123497
		endloop
	endfacet
	facet normal 0.4284797843825802 -0.8841325200941347 0.18631897726064314
		outer loop
			vertex -0.014217008836567402 0.015715057030320168 0.036741625517606735
			vertex -0.042296189814805984 -0.0010035992600023746 0.02198120579123497
			vertex -0.05071212723851204 -0.008912271820008755 0.0038066988345235586
		endloop
	endfacet
	facet normal 0.4284764962157787 -0.8841332333894737 0.1863231542426341
		outer loop
			vertex -0.014217008836567402 0.015715057030320168 0.036741625517606735
			vertex -0.05071212723851204 -0.008912271820008755 0.0038066988345235586
			vertex -0.049856919795274734 -0.00859371479600668 0.003351632272824645
		endloop
	endfacet
	facet normal -0.5174141450276852 0.855650705124763 0.01201970651743826
		outer loop
			vertex -0.014353950507938862 0.015685776248574257 0.036741625517606735
			vertex -0.05250914767384529 -0.006979054305702448 0.007717582862824202
			vertex -0.05438803508877754 -0.008122197352349758 0.00821411982178688
		endloop
	endfacet
	facet normal -0.5174123405949184 0.8556518451973287 0.012016222804820252
		outer loop
			vertex -0.014353950507938862 0.015685776248574257 0.036741625517606735
			vertex -0.05438803508877754 -0.008122197352349758 0.00821411982178688
			vertex -0.042296189814805984 -0.0010035992600023746 0.02198120579123497
		endloop
	endfacet
	facet normal -0.5173905542550039 0.8556658181523474 0.01195918113307971
		outer loop
			vertex -0.014353950507938862 0.015685776248574257 0.036741625517606735
			vertex -0.042296189814805984 -0.0010035992600023746 0.02198120579123497
			vertex -0.01466276217252016 0.015499048866331577 0.036741625517606735
		endloop
	endfacet
	facet normal 0.4435842194725877 -0.8714991759248214 0.20909860496247343
		outer loop
			vertex -0.055555541068315506 -0.008544406853616238 0.007656026165932417
			vertex -0.055555541068315506 -0.008805087767541409 0.006569537799805403
			vertex -0.05250914767384529 -0.006979054305702448 0.007717582862824202
		endloop
	endfacet
	facet normal 0.443583743433948 -0.8714984140670856 0.20910279012887428
		outer loop
			vertex -0.055555541068315506 -0.008544406853616238 0.007656026165932417
			vertex -0.05250914767384529 -0.006979054305702448 0.007717582862824202
			vertex -0.055089373141527176 -0.007971457205712795 0.009055051952600479
		endloop
	endfacet
	facet normal 0.4284749116381535 -0.8841348703674851 0.18631903042079992
		outer loop
			vertex -0.05071212723851204 -0.008912271820008755 0.0038066988345235586
			vertex -0.051739651709795 -0.009877852164208889 0.0015877371188253164
			vertex -0.049856919795274734 -0.00859371479600668 0.003351632272824645
		endloop
	endfacet
	facet normal -0.5174218320525807 0.8556456437377692 0.012049069172755658
		outer loop
			vertex -0.05250914767384529 -0.006979054305702448 0.007717582862824202
			vertex -0.055555541068315506 -0.008805087767541409 0.006569537799805403
			vertex -0.055555541068315506 -0.008809528313577175 0.006884876172989607
		endloop
	endfacet
	facet normal -0.5174151489741214 0.8556501687324979 0.012014672701994262
		outer loop
			vertex -0.05250914767384529 -0.006979054305702448 0.007717582862824202
			vertex -0.055555541068315506 -0.008809528313577175 0.006884876172989607
			vertex -0.05438803508877754 -0.008122197352349758 0.00821411982178688
		endloop
	endfacet
	facet normal 0.4284773579432172 -0.8841331337050294 0.1863216455888176
		outer loop
			vertex -0.04191546514630318 -0.0031771124340593815 0.010791737586259842
			vertex -0.051739651709795 -0.009877852164208889 0.0015877371188253164
			vertex -0.055555541068315506 -0.013463742099702358 -0.00665275426581502
		endloop
	endfacet
	facet normal 0.42848033443928824 -0.8841322868943992 0.18631881888224694
		outer loop
			vertex -0.04191546514630318 -0.0031771124340593815 0.010791737586259842
			vertex -0.055555541068315506 -0.013463742099702358 -0.00665275426581502
			vertex -0.055555541068315506 -0.016348322853446007 -0.020340856164693832
		endloop
	endfacet
	facet normal 0.4284799743381576 -0.8841324165994865 0.18631903152690518
		outer loop
			vertex -0.04191546514630318 -0.0031771124340593815 0.010791737586259842
			vertex -0.055555541068315506 -0.016348322853446007 -0.020340856164693832
			vertex 0.002947221277281642 0.01038473192602396 -0.02802499756217003
		endloop
	endfacet
	facet normal 0.4284801692015165 -0.8841322634232257 0.18631931025839388
		outer loop
			vertex -0.04191546514630318 -0.0031771124340593815 0.010791737586259842
			vertex 0.002947221277281642 0.01038473192602396 -0.02802499756217003
			vertex 0.006177912000566721 0.01960431970655918 0.00829463079571724
		endloop
	endfacet
	facet normal 0.39784241680030974 -0.8692710748229073 -0.29340962811522814
		outer loop
			vertex -0.055555541068315506 -0.00842676218599081 -0.036741625517606735
			vertex -0.031465936452150345 0.0025984137319028378 -0.036741625517606735
			vertex -0.055555541068315506 -0.010891771875321865 -0.029438655823469162
		endloop
	endfacet
	facet normal 0.3084994538299067 -0.8157537720458161 -0.48925849035011343
		outer loop
			vertex -0.055555541068315506 -0.010891771875321865 -0.029438655823469162
			vertex -0.031465936452150345 0.0025984137319028378 -0.036741625517606735
			vertex -0.009998341090977192 0.010716968216001987 -0.036741625517606735
		endloop
	endfacet
	facet normal 0.30849842005608485 -0.8157525189654236 -0.4892612314750329
		outer loop
			vertex -0.055555541068315506 -0.010891771875321865 -0.029438655823469162
			vertex -0.009998341090977192 0.010716968216001987 -0.036741625517606735
			vertex 0.002947221277281642 0.01038473192602396 -0.02802499756217003
		endloop
	endfacet
	facet normal 0.308498497510912 -0.8157527621200923 -0.48926077722105427
		outer loop
			vertex -0.055555541068315506 -0.010891771875321865 -0.029438655823469162
			vertex 0.002947221277281642 0.01038473192602396 -0.02802499756217003
			vertex -0.055555541068315506 -0.016348322853446007 -0.020340856164693832
		endloop
	endfacet
	facet normal 0.4284705138932254 -0.8841390006954856 0.18630954396719437
		outer loop
			vertex 0.006492594722658396 0.020502308383584023 0.011832226067781448
			vertex -0.013188143260776997 0.016213664785027504 0.036741625517606735
			vertex -0.014217008836567402 0.015715057030320168 0.036741625517606735
		endloop
	endfacet
	facet normal 0.4284799551145033 -0.8841325081835568 0.1863186411450189
		outer loop
			vertex 0.006492594722658396 0.020502308383584023 0.011832226067781448
			vertex -0.014217008836567402 0.015715057030320168 0.036741625517606735
			vertex -0.04191546514630318 -0.0031771124340593815 0.010791737586259842
		endloop
	endfacet
	facet normal 0.4284803467891033 -0.8841331379863492 0.18631475177747248
		outer loop
			vertex 0.006492594722658396 0.020502308383584023 0.011832226067781448
			vertex -0.04191546514630318 -0.0031771124340593815 0.010791737586259842
			vertex 0.006177912000566721 0.01960431970655918 0.00829463079571724
		endloop
	endfacet
	facet normal 0.2899310517909259 -0.9538779533973387 0.07782567204921709
		outer loop
			vertex 0.006680528167635202 0.022245222702622414 0.036741625517606735
			vertex -0.011761476285755634 0.01663977839052677 0.036741625517606735
			vertex 0.00689650559797883 0.021858597174286842 0.03119831159710884
		endloop
	endfacet
	facet normal 0.11613572502211465 -0.8879404159473753 -0.4450554022824464
		outer loop
			vertex 0.00031981864594854414 0.022409582510590553 0.028382886201143265
			vertex 0.0023725132923573256 0.023335585370659828 0.027071040123701096
			vertex 0.010379443876445293 0.022832805290818214 0.030163530260324478
		endloop
	endfacet
	facet normal 0.1161364824417281 -0.8879378686848769 -0.4450602867044201
		outer loop
			vertex 0.00031981864594854414 0.022409582510590553 0.028382886201143265
			vertex 0.010379443876445293 0.022832805290818214 0.030163530260324478
			vertex 0.00689650559797883 0.021858597174286842 0.03119831159710884
		endloop
	endfacet
	facet normal 0.5424614910767205 -0.787311707460495 0.29304574044756465
		outer loop
			vertex 0.00642375135794282 0.020685577765107155 0.012452084571123123
			vertex 0.005843559745699167 0.022230008617043495 0.017675433307886124
			vertex 0.0023725132923573256 0.023335585370659828 0.027071040123701096
		endloop
	endfacet
	facet normal 0.5424520893241036 -0.7873186842605714 0.2930443997112344
		outer loop
			vertex 0.00642375135794282 0.020685577765107155 0.012452084571123123
			vertex 0.0023725132923573256 0.023335585370659828 0.027071040123701096
			vertex 0.00031981864594854414 0.022409582510590553 0.028382886201143265
		endloop
	endfacet
	facet normal 0.2899316602836835 -0.9538777675690051 0.07782568279634876
		outer loop
			vertex 0.010397355072200298 0.023374954238533974 0.036741625517606735
			vertex 0.006680528167635202 0.022245222702622414 0.036741625517606735
			vertex 0.00689650559797883 0.021858597174286842 0.03119831159710884
		endloop
	endfacet
	facet normal 0.2899302997090941 -0.9538781035109892 0.07782663395569357
		outer loop
			vertex 0.010397355072200298 0.023374954238533974 0.036741625517606735
			vertex 0.00689650559797883 0.021858597174286842 0.03119831159710884
			vertex 0.010379443876445293 0.022832805290818214 0.030163530260324478
		endloop
	endfacet
	facet normal 0.1161370756664404 -0.8879406020205615 -0.4450546785946765
		outer loop
			vertex 0.0023725132923573256 0.023335585370659828 0.027071040123701096
			vertex 0.004985342267900705 0.024514297023415565 0.025401178747415543
			vertex 0.01362819503992796 0.023741522803902626 0.029198314994573593
		endloop
	endfacet
	facet normal 0.11613819745207073 -0.8879371501014894 -0.44506127281783214
		outer loop
			vertex 0.0023725132923573256 0.023335585370659828 0.027071040123701096
			vertex 0.01362819503992796 0.023741522803902626 0.029198314994573593
			vertex 0.010379443876445293 0.022832805290818214 0.030163530260324478
		endloop
	endfacet
	facet normal 0.5424615382074012 -0.7873116701409552 0.2930457534678164
		outer loop
			vertex 0.005843559745699167 0.022230008617043495 0.017675433307886124
			vertex 0.004985342267900705 0.024514297023415565 0.025401178747415543
			vertex 0.0023725132923573256 0.023335585370659828 0.027071040123701096
		endloop
	endfacet
	facet normal 0.28993148809999536 -0.953877744974901 0.07782660117029648
		outer loop
			vertex 0.016434291377663612 0.025209883227944374 0.036741625517606735
			vertex 0.010397355072200298 0.023374954238533974 0.036741625517606735
			vertex 0.010379443876445293 0.022832805290818214 0.030163530260324478
		endloop
	endfacet
	facet normal 0.28993365631739676 -0.9538772629827301 0.07782443124752823
		outer loop
			vertex 0.016434291377663612 0.025209883227944374 0.036741625517606735
			vertex 0.010379443876445293 0.022832805290818214 0.030163530260324478
			vertex 0.01362819503992796 0.023741522803902626 0.029198314994573593
		endloop
	endfacet
	facet normal 0.11613726765248128 -0.8879378636556404 -0.44506009184027423
		outer loop
			vertex 0.0555555634200573 0.036763615906238556 0.014158818870782852
			vertex 0.0555555634200573 0.03546903282403946 0.016741637140512466
			vertex 0.01362819503992796 0.023741522803902626 0.029198314994573593
		endloop
	endfacet
	facet normal 0.11613880694340757 -0.8879392231914266 -0.44505697774551056
		outer loop
			vertex 0.0555555634200573 0.036763615906238556 0.014158818870782852
			vertex 0.01362819503992796 0.023741522803902626 0.029198314994573593
			vertex 0.006324122194200754 0.024394595995545387 0.025989342480897903
		endloop
	endfacet
	facet normal 0.837752880235795 -0.5254028029070192 -0.1487346844353327
		outer loop
			vertex 0.04334576055407524 0.031343720853328705 -0.036741625517606735
			vertex 0.044296544045209885 0.0317620113492012 -0.032863911241292953
			vertex 0.04204053804278374 0.02824857272207737 -0.0331597737967968
		endloop
	endfacet
	facet normal 0.8377652150602196 -0.525388022462291 -0.14871741756857992
		outer loop
			vertex 0.04334576055407524 0.031343720853328705 -0.036741625517606735
			vertex 0.04204053804278374 0.02824857272207737 -0.0331597737967968
			vertex 0.0429731123149395 0.03074950911104679 -0.036741625517606735
		endloop
	endfacet
	facet normal 0.8402606829798128 -0.541619034511321 0.02471449156513716
		outer loop
			vertex 0.04428808018565178 0.032006196677684784 -0.027224820107221603
			vertex 0.04204053804278374 0.02824857272207737 -0.0331597737967968
			vertex 0.044296544045209885 0.0317620113492012 -0.032863911241292953
		endloop
	endfacet
	facet normal 0.542462474824017 -0.7873111000003654 0.2930455514489469
		outer loop
			vertex 0.006492594722658396 0.020502308383584023 0.011832226067781448
			vertex 0.04204053804278374 0.02824857272207737 -0.0331597737967968
			vertex 0.04428808018565178 0.032006196677684784 -0.027224820107221603
		endloop
	endfacet
	facet normal 0.5424627392010692 -0.7873107884630176 0.29304589904691486
		outer loop
			vertex 0.006492594722658396 0.020502308383584023 0.011832226067781448
			vertex 0.04428808018565178 0.032006196677684784 -0.027224820107221603
			vertex 0.005181292537599802 0.023992711678147316 0.023637082427740097
		endloop
	endfacet
	facet normal 0.4284800532330513 -0.8841323993027733 0.1863189321688033
		outer loop
			vertex 0.04204053804278374 0.02824857272207737 -0.0331597737967968
			vertex 0.006492594722658396 0.020502308383584023 0.011832226067781448
			vertex 0.002947221277281642 0.01038473192602396 -0.02802499756217003
		endloop
	endfacet
	facet normal 0.30849874866529275 -0.8157540861304011 -0.4892584113058283
		outer loop
			vertex -0.009998341090977192 0.010716968216001987 -0.036741625517606735
			vertex 0.0429731123149395 0.03074950911104679 -0.036741625517606735
			vertex 0.04204053804278374 0.02824857272207737 -0.0331597737967968
		endloop
	endfacet
	facet normal 0.30849841607818757 -0.8157525239002626 -0.4892612257553228
		outer loop
			vertex -0.009998341090977192 0.010716968216001987 -0.036741625517606735
			vertex 0.04204053804278374 0.02824857272207737 -0.0331597737967968
			vertex 0.002947221277281642 0.01038473192602396 -0.02802499756217003
		endloop
	endfacet
	facet normal 0.2899323273659699 -0.9538776209015702 0.07782499528629859
		outer loop
			vertex 0.0555555634200573 0.03710084408521652 0.036741625517606735
			vertex 0.016434291377663612 0.025209883227944374 0.036741625517606735
			vertex 0.01362819503992796 0.023741522803902626 0.029198314994573593
		endloop
	endfacet
	facet normal 0.2899318660766686 -0.9538775606293587 0.07782745249001188
		outer loop
			vertex 0.0555555634200573 0.03710084408521652 0.036741625517606735
			vertex 0.01362819503992796 0.023741522803902626 0.029198314994573593
			vertex 0.0555555634200573 0.03546903282403946 0.016741637140512466
		endloop
	endfacet
	facet normal 1 0 0
		outer loop
			vertex 0.0555555634200573 0.037750355899333954 0.036741625517606735
			vertex 0.0555555634200573 0.03710084408521652 0.036741625517606735
			vertex 0.0555555634200573 0.03546903282403946 0.016741637140512466
		endloop
	endfacet
	facet normal 1 0 0
		outer loop
			vertex 0.0555555634200573 0.037750355899333954 0.036741625517606735
			vertex 0.0555555634200573 0.03546903282403946 0.016741637140512466
			vertex 0.0555555634200573 0.036763615906238556 0.014158818870782852
		endloop
	endfacet
	facet normal 0.06729532281089554 -0.9886131352199728 -0.13459349314997843
		outer loop
			vertex 0.0555555634200573 0.04615724831819534 -0.004582476336508989
			vertex 0.052675288170576096 0.046028561890125275 -0.005077358800917864
			vertex 0.0555555634200573 0.04671201854944229 -0.008657362312078476
		endloop
	endfacet
	facet normal 0.11614029724431343 -0.8879396946742134 -0.44505564818106425
		outer loop
			vertex 0.004985342267900705 0.024514297023415565 0.025401178747415543
			vertex 0.052675288170576096 0.046028561890125275 -0.005077358800917864
			vertex 0.0555555634200573 0.04615724831819534 -0.004582476336508989
		endloop
	endfacet
	facet normal 0.11613826564151564 -0.8879386286461554 -0.44505830518232764
		outer loop
			vertex 0.004985342267900705 0.024514297023415565 0.025401178747415543
			vertex 0.0555555634200573 0.04615724831819534 -0.004582476336508989
			vertex 0.0555555634200573 0.036763615906238556 0.014158818870782852
		endloop
	endfacet
	facet normal 0.11613716704395384 -0.8879371195624816 -0.4450616026283196
		outer loop
			vertex 0.004985342267900705 0.024514297023415565 0.025401178747415543
			vertex 0.0555555634200573 0.036763615906238556 0.014158818870782852
			vertex 0.006324122194200754 0.024394595995545387 0.025989342480897903
		endloop
	endfacet
	facet normal 0.8377259192487102 -0.5254429209613414 -0.14874481849972823
		outer loop
			vertex 0.055374275892972946 0.05052325874567032 -0.036741625517606735
			vertex 0.0555555634200573 0.05027920752763748 -0.03485850617289543
			vertex 0.0555555634200573 0.04929656535387039 -0.03138731047511101
		endloop
	endfacet
	facet normal 0.8377540231910354 -0.5254005878371374 -0.1487360713735061
		outer loop
			vertex 0.055374275892972946 0.05052325874567032 -0.036741625517606735
			vertex 0.0555555634200573 0.04929656535387039 -0.03138731047511101
			vertex 0.044296544045209885 0.0317620113492012 -0.032863911241292953
		endloop
	endfacet
	facet normal 0.8377542061806501 -0.525400527157317 -0.1487352550320276
		outer loop
			vertex 0.055374275892972946 0.05052325874567032 -0.036741625517606735
			vertex 0.044296544045209885 0.0317620113492012 -0.032863911241292953
			vertex 0.04334576055407524 0.031343720853328705 -0.036741625517606735
		endloop
	endfacet
	facet normal 0.8402616301965423 -0.5416176711305003 0.024712165801938666
		outer loop
			vertex 0.0555555634200573 0.04942459613084793 -0.028581272810697556
			vertex 0.052675288170576096 0.046028561890125275 -0.005077358800917864
			vertex 0.04428808018565178 0.032006196677684784 -0.027224820107221603
		endloop
	endfacet
	facet normal 0.8402616633701506 -0.5416175164759243 0.024714427302283938
		outer loop
			vertex 0.0555555634200573 0.04942459613084793 -0.028581272810697556
			vertex 0.04428808018565178 0.032006196677684784 -0.027224820107221603
			vertex 0.044296544045209885 0.0317620113492012 -0.032863911241292953
		endloop
	endfacet
	facet normal 0.8402619422486398 -0.5416171805037351 0.02471230850665441
		outer loop
			vertex 0.0555555634200573 0.04942459613084793 -0.028581272810697556
			vertex 0.044296544045209885 0.0317620113492012 -0.032863911241292953
			vertex 0.0555555634200573 0.04929656535387039 -0.03138731047511101
		endloop
	endfacet
	facet normal 0.5424626804760463 -0.7873109657009664 0.29304553157786684
		outer loop
			vertex 0.04428808018565178 0.032006196677684784 -0.027224820107221603
			vertex 0.052675288170576096 0.046028561890125275 -0.005077358800917864
			vertex 0.004985342267900705 0.024514297023415565 0.025401178747415543
		endloop
	endfacet
	facet normal 0.5424548432595419 -0.7873189680981828 0.29303853926928886
		outer loop
			vertex 0.04428808018565178 0.032006196677684784 -0.027224820107221603
			vertex 0.004985342267900705 0.024514297023415565 0.025401178747415543
			vertex 0.005181292537599802 0.023992711678147316 0.023637082427740097
		endloop
	endfacet
	facet normal 1 0 0
		outer loop
			vertex 0.0555555634200573 0.05027920752763748 -0.03485850617289543
			vertex 0.0555555634200573 0.04942459613084793 -0.028581272810697556
			vertex 0.0555555634200573 0.04929656535387039 -0.03138731047511101
		endloop
	endfacet
	facet normal 1 0 0
		outer loop
			vertex 0.0555555634200573 0.04053109139204025 0.036741625517606735
			vertex 0.0555555634200573 0.037750355899333954 0.036741625517606735
			vertex 0.0555555634200573 0.036763615906238556 0.014158818870782852
		endloop
	endfacet
	facet normal 1 0 0
		outer loop
			vertex 0.0555555634200573 0.04053109139204025 0.036741625517606735
			vertex 0.0555555634200573 0.036763615906238556 0.014158818870782852
			vertex 0.0555555634200573 0.04615724831819534 -0.004582476336508989
		endloop
	endfacet
	facet normal 0.8377439917162728 -0.5254146511609534 -0.1487428945822263
		outer loop
			vertex 0.0555555634200573 0.050812311470508575 -0.036741625517606735
			vertex 0.0555555634200573 0.05027920752763748 -0.03485850617289543
			vertex 0.055374275892972946 0.05052325874567032 -0.036741625517606735
		endloop
	endfacet
	facet normal 0.8402626102383075 -0.5416161350917923 0.024712507839868333
		outer loop
			vertex 0.0555555634200573 0.05015034228563309 -0.012675326317548752
			vertex 0.052675288170576096 0.046028561890125275 -0.005077358800917864
			vertex 0.0555555634200573 0.04942459613084793 -0.028581272810697556
		endloop
	endfacet
	facet normal -0.5317274843069564 -0.6434727170760207 -0.5506439365065223
		outer loop
			vertex 0.0555555634200573 0.05015034228563309 -0.012675326317548752
			vertex 0.0555555634200573 0.04671201854944229 -0.008657362312078476
			vertex 0.052675288170576096 0.046028561890125275 -0.005077358800917864
		endloop
	endfacet
	facet normal 1 0 0
		outer loop
			vertex 0.0555555634200573 0.052405066788196564 0.036741625517606735
			vertex 0.0555555634200573 0.04053109139204025 0.036741625517606735
			vertex 0.0555555634200573 0.04671201854944229 -0.008657362312078476
		endloop
	endfacet
	facet normal 1 0 0
		outer loop
			vertex 0.0555555634200573 0.052405066788196564 0.036741625517606735
			vertex 0.0555555634200573 0.04671201854944229 -0.008657362312078476
			vertex 0.0555555634200573 0.05015034228563309 -0.012675326317548752
		endloop
	endfacet
	facet normal 1 0 0
		outer loop
			vertex 0.0555555634200573 0.08979267627000809 0.036741625517606735
			vertex 0.0555555634200573 0.052405066788196564 0.036741625517606735
			vertex 0.0555555634200573 0.04991123825311661 -0.01791546866297722
		endloop
	endfacet
	facet normal 1 0 0
		outer loop
			vertex 0.0555555634200573 0.08979267627000809 0.036741625517606735
			vertex 0.0555555634200573 0.04991123825311661 -0.01791546866297722
			vertex 0.0555555634200573 0.09100959450006485 -0.03266758844256401
		endloop
	endfacet
	facet normal 1 0 0
		outer loop
			vertex 0.0555555634200573 0.050812311470508575 -0.036741625517606735
			vertex 0.0555555634200573 0.09108103066682816 -0.036741625517606735
			vertex 0.0555555634200573 0.09100959450006485 -0.03266758844256401
		endloop
	endfacet
	facet normal 1 0 0
		outer loop
			vertex 0.0555555634200573 0.050812311470508575 -0.036741625517606735
			vertex 0.0555555634200573 0.09100959450006485 -0.03266758844256401
			vertex 0.0555555634200573 0.04991123825311661 -0.01791546866297722
		endloop
	endfacet
	facet normal 1 0 0
		outer loop
			vertex 0.0555555634200573 0.050812311470508575 -0.036741625517606735
			vertex 0.0555555634200573 0.04991123825311661 -0.01791546866297722
			vertex 0.0555555634200573 0.04942459613084793 -0.028581272810697556
		endloop
	endfacet
	facet normal 1 0 0
		outer loop
			vertex 0.0555555634200573 0.050812311470508575 -0.036741625517606735
			vertex 0.0555555634200573 0.04942459613084793 -0.028581272810697556
			vertex 0.0555555634200573 0.05027920752763748 -0.03485850617289543
		endloop
	endfacet
	facet normal 1 0 0
		outer loop
			vertex 0.0555555634200573 0.10202724486589432 0.036741625517606735
			vertex 0.0555555634200573 0.08979267627000809 0.036741625517606735
			vertex 0.0555555634200573 0.09100959450006485 -0.03266758844256401
		endloop
	endfacet
	facet normal 1 0 0
		outer loop
			vertex 0.0555555634200573 0.10202724486589432 0.036741625517606735
			vertex 0.0555555634200573 0.09100959450006485 -0.03266758844256401
			vertex 0.0555555634200573 0.10202724486589432 -0.03662232682108879
		endloop
	endfacet
	facet normal 1 0 0
		outer loop
			vertex 0.0555555634200573 0.09108103066682816 -0.036741625517606735
			vertex 0.0555555634200573 0.10202724486589432 -0.036741625517606735
			vertex 0.0555555634200573 0.10202724486589432 -0.03662232682108879
		endloop
	endfacet
	facet normal 1 0 0
		outer loop
			vertex 0.0555555634200573 0.09108103066682816 -0.036741625517606735
			vertex 0.0555555634200573 0.10202724486589432 -0.03662232682108879
			vertex 0.0555555634200573 0.09100959450006485 -0.03266758844256401
		endloop
	endfacet
	facet normal -1 0 0
		outer loop
			vertex -0.055555541068315506 -0.008832520805299282 0.00852266326546669
			vertex -0.055555541068315506 -0.010716444812715054 0.006383854430168867
			vertex -0.055555541068315506 -0.008922061882913113 0.01489870622754097
		endloop
	endfacet
	facet normal -1 0 0
		outer loop
			vertex -0.055555541068315506 -0.013048804365098476 -0.004683819133788347
			vertex -0.055555541068315506 -0.012749931775033474 -0.004576545674353838
			vertex -0.055555541068315506 -0.013463742099702358 -0.00665275426581502
		endloop
	endfacet
	facet normal -1 0 0
		outer loop
			vertex -0.055555541068315506 -0.008809528313577175 0.006884876172989607
			vertex -0.055555541068315506 -0.012749931775033474 -0.004576545674353838
			vertex -0.055555541068315506 -0.013048804365098476 -0.004683819133788347
		endloop
	endfacet
	facet normal -1 0 0
		outer loop
			vertex -0.055555541068315506 -0.008809528313577175 0.006884876172989607
			vertex -0.055555541068315506 -0.013048804365098476 -0.004683819133788347
			vertex -0.055555541068315506 -0.010716444812715054 0.006383854430168867
		endloop
	endfacet
	facet normal -1 0 0
		outer loop
			vertex -0.055555541068315506 -0.008809528313577175 0.006884876172989607
			vertex -0.055555541068315506 -0.010716444812715054 0.006383854430168867
			vertex -0.055555541068315506 -0.008832520805299282 0.00852266326546669
		endloop
	endfacet
	facet normal -1 0 0
		outer loop
			vertex -0.055555541068315506 -0.007871261797845364 0.00961397960782051
			vertex -0.055555541068315506 -0.008544406853616238 0.007656026165932417
			vertex -0.055555541068315506 -0.00815074797719717 0.009296674281358719
		endloop
	endfacet
	facet normal -1 0 0
		outer loop
			vertex -0.055555541068315506 -0.009359917603433132 0.00425716070458293
			vertex -0.055555541068315506 -0.01049115415662527 0.0019935553427785635
			vertex -0.055555541068315506 -0.008809528313577175 0.006884876172989607
		endloop
	endfacet
	facet normal -1 0 0
		outer loop
			vertex -0.055555541068315506 -0.009359917603433132 0.00425716070458293
			vertex -0.055555541068315506 -0.008809528313577175 0.006884876172989607
			vertex -0.055555541068315506 -0.008805087767541409 0.006569537799805403
		endloop
	endfacet
	facet normal -1 0 0
		outer loop
			vertex -0.055555541068315506 -0.005124425981193781 0.012732449918985367
			vertex -0.055555541068315506 -0.009359917603433132 0.00425716070458293
			vertex -0.055555541068315506 -0.008544406853616238 0.007656026165932417
		endloop
	endfacet
	facet normal -1 0 0
		outer loop
			vertex -0.055555541068315506 -0.005124425981193781 0.012732449918985367
			vertex -0.055555541068315506 -0.008544406853616238 0.007656026165932417
			vertex -0.055555541068315506 -0.007871261797845364 0.00961397960782051
		endloop
	endfacet
	facet normal -1 0 0
		outer loop
			vertex -0.055555541068315506 -0.016348322853446007 -0.020340856164693832
			vertex -0.055555541068315506 -0.015431336127221584 -0.015989523380994797
			vertex -0.055555541068315506 -0.010891771875321865 -0.029438655823469162
		endloop
	endfacet
	facet normal -1 0 0
		outer loop
			vertex -0.055555541068315506 0.008099772967398167 -0.036741625517606735
			vertex -0.055555541068315506 -0.00842676218599081 -0.036741625517606735
			vertex -0.055555541068315506 -0.015431336127221584 -0.015989523380994797
		endloop
	endfacet
	facet normal -1 0 0
		outer loop
			vertex -0.055555541068315506 0.008099772967398167 -0.036741625517606735
			vertex -0.055555541068315506 -0.015431336127221584 -0.015989523380994797
			vertex -0.055555541068315506 -0.013463742099702358 -0.00665275426581502
		endloop
	endfacet
	facet normal -1 0 0
		outer loop
			vertex -0.055555541068315506 0.008099772967398167 -0.036741625517606735
			vertex -0.055555541068315506 -0.013463742099702358 -0.00665275426581502
			vertex -0.055555541068315506 -0.012749931775033474 -0.004576545674353838
		endloop
	endfacet
	facet normal -1 0 0
		outer loop
			vertex -0.055555541068315506 0.008099772967398167 -0.036741625517606735
			vertex -0.055555541068315506 -0.012749931775033474 -0.004576545674353838
			vertex -0.055555541068315506 -0.0047790915705263615 -0.001715447986498475
		endloop
	endfacet
	facet normal -1 0 0
		outer loop
			vertex -0.055555541068315506 -0.0047790915705263615 -0.001715447986498475
			vertex -0.055555541068315506 -0.012749931775033474 -0.004576545674353838
			vertex -0.055555541068315506 -0.01049115415662527 0.0019935553427785635
		endloop
	endfacet
	facet normal -1 0 0
		outer loop
			vertex -0.055555541068315506 -0.0047790915705263615 -0.001715447986498475
			vertex -0.055555541068315506 -0.01049115415662527 0.0019935553427785635
			vertex -0.055555541068315506 -0.007986045442521572 0.007006350439041853
		endloop
	endfacet
	facet normal -1 0 0
		outer loop
			vertex -0.055555541068315506 0.02024340070784092 -0.036741625517606735
			vertex -0.055555541068315506 0.008099772967398167 -0.036741625517606735
			vertex -0.055555541068315506 -0.0047790915705263615 -0.001715447986498475
		endloop
	endfacet
	facet normal -1 0 0
		outer loop
			vertex -0.055555541068315506 0.02024340070784092 -0.036741625517606735
			vertex -0.055555541068315506 -0.0047790915705263615 -0.001715447986498475
			vertex -0.055555541068315506 0.024855727329850197 0.008921880275011063
		endloop
	endfacet
	facet normal -1 0 0
		outer loop
			vertex -0.055555541068315506 0.02024340070784092 -0.036741625517606735
			vertex -0.055555541068315506 0.024855727329850197 0.008921880275011063
			vertex -0.055555541068315506 0.027090633288025856 0.004462990444153547
		endloop
	endfacet
	facet normal -1 0 0
		outer loop
			vertex -0.055555541068315506 0.02024340070784092 -0.036741625517606735
			vertex -0.055555541068315506 0.027090633288025856 0.004462990444153547
			vertex -0.055555541068315506 0.02570771612226963 -0.016685139387845993
		endloop
	endfacet
	facet normal -1 0 0
		outer loop
			vertex -0.055555541068315506 0.006874063517898321 0.036741625517606735
			vertex -0.055555541068315506 0.010911726392805576 0.036741625517606735
			vertex -0.055555541068315506 0.024855727329850197 0.008921880275011063
		endloop
	endfacet
	facet normal -1 0 0
		outer loop
			vertex -0.055555541068315506 0.006874063517898321 0.036741625517606735
			vertex -0.055555541068315506 0.024855727329850197 0.008921880275011063
			vertex -0.055555541068315506 -0.0047790915705263615 -0.001715447986498475
		endloop
	endfacet
	facet normal -1 0 0
		outer loop
			vertex -0.055555541068315506 0.006874063517898321 0.036741625517606735
			vertex -0.055555541068315506 -0.0047790915705263615 -0.001715447986498475
			vertex -0.055555541068315506 -0.007986045442521572 0.007006350439041853
		endloop
	endfacet
	facet normal -1 0 0
		outer loop
			vertex -0.055555541068315506 0.010911726392805576 0.036741625517606735
			vertex -0.055555541068315506 0.022766077890992165 0.036741625517606735
			vertex -0.055555541068315506 0.02169899083673954 0.015219870954751968
		endloop
	endfacet
	facet normal -1 0 0
		outer loop
			vertex -0.055555541068315506 0.024855727329850197 0.008921880275011063
			vertex -0.055555541068315506 0.02744295634329319 0.009850550442934036
			vertex -0.055555541068315506 0.027090633288025856 0.004462990444153547
		endloop
	endfacet
	facet normal -1 0 0
		outer loop
			vertex -0.055555541068315506 0.022766077890992165 0.036741625517606735
			vertex -0.055555541068315506 0.02920139767229557 0.036741625517606735
			vertex -0.055555541068315506 0.02744295634329319 0.009850550442934036
		endloop
	endfacet
	facet normal -1 0 0
		outer loop
			vertex -0.055555541068315506 0.022766077890992165 0.036741625517606735
			vertex -0.055555541068315506 0.02744295634329319 0.009850550442934036
			vertex -0.055555541068315506 0.024855727329850197 0.008921880275011063
		endloop
	endfacet
	facet normal -1 0 0
		outer loop
			vertex -0.055555541068315506 0.022766077890992165 0.036741625517606735
			vertex -0.055555541068315506 0.024855727329850197 0.008921880275011063
			vertex -0.055555541068315506 0.02169899083673954 0.015219870954751968
		endloop
	endfacet
	facet normal -1 0 0
		outer loop
			vertex -0.055555541068315506 0.02920139767229557 0.036741625517606735
			vertex -0.055555541068315506 0.02962229587137699 0.036741625517606735
			vertex -0.055555541068315506 0.027608970180153847 0.012389633804559708
		endloop
	endfacet
	facet normal -1 0 0
		outer loop
			vertex -0.055555541068315506 0.02992747165262699 -0.0011967832688242197
			vertex -0.055555541068315506 0.02570771612226963 -0.016685139387845993
			vertex -0.055555541068315506 0.027090633288025856 0.004462990444153547
		endloop
	endfacet
	facet normal -1 0 0
		outer loop
			vertex -0.055555541068315506 0.02744295634329319 0.009850550442934036
			vertex -0.055555541068315506 0.033532820641994476 0.012036491185426712
			vertex -0.055555541068315506 0.02992747165262699 -0.0011967832688242197
		endloop
	endfacet
	facet normal -1 0 0
		outer loop
			vertex -0.055555541068315506 0.02744295634329319 0.009850550442934036
			vertex -0.055555541068315506 0.02992747165262699 -0.0011967832688242197
			vertex -0.055555541068315506 0.027090633288025856 0.004462990444153547
		endloop
	endfacet
	facet normal -1 0 0
		outer loop
			vertex -0.055555541068315506 0.02962229587137699 0.036741625517606735
			vertex -0.055555541068315506 0.040263645350933075 0.036741625517606735
			vertex -0.055555541068315506 0.033532820641994476 0.012036491185426712
		endloop
	endfacet
	facet normal -1 0 0
		outer loop
			vertex -0.055555541068315506 0.02962229587137699 0.036741625517606735
			vertex -0.055555541068315506 0.033532820641994476 0.012036491185426712
			vertex -0.055555541068315506 0.02744295634329319 0.009850550442934036
		endloop
	endfacet
	facet normal -1 0 0
		outer loop
			vertex -0.055555541068315506 0.02962229587137699 0.036741625517606735
			vertex -0.055555541068315506 0.02744295634329319 0.009850550442934036
			vertex -0.055555541068315506 0.027608970180153847 0.012389633804559708
		endloop
	endfacet
	facet normal -1 0 0
		outer loop
			vertex -0.055555541068315506 0.042972661554813385 -0.036741625517606735
			vertex -0.055555541068315506 0.02024340070784092 -0.036741625517606735
			vertex -0.055555541068315506 0.02992747165262699 -0.0011967832688242197
		endloop
	endfacet
	facet normal -1 0 0
		outer loop
			vertex -0.055555541068315506 0.042972661554813385 -0.036741625517606735
			vertex -0.055555541068315506 0.02992747165262699 -0.0011967832688242197
			vertex -0.055555541068315506 0.04119352251291275 -0.02367372438311577
		endloop
	endfacet
	facet normal -1 0 0
		outer loop
			vertex -0.055555541068315506 0.02992747165262699 -0.0011967832688242197
			vertex -0.055555541068315506 0.033532820641994476 0.012036491185426712
			vertex -0.055555541068315506 0.03620126098394394 0.012994322925806046
		endloop
	endfacet
	facet normal -1 0 0
		outer loop
			vertex -0.055555541068315506 0.02992747165262699 -0.0011967832688242197
			vertex -0.055555541068315506 0.03620126098394394 0.012994322925806046
			vertex -0.055555541068315506 0.04119352251291275 -0.02367372438311577
		endloop
	endfacet
	facet normal -1 0 0
		outer loop
			vertex -0.055555541068315506 0.03620126098394394 0.012994322925806046
			vertex -0.055555541068315506 0.033532820641994476 0.012036491185426712
			vertex -0.055555541068315506 0.035399071872234344 0.018886450678110123
		endloop
	endfacet
	facet normal -1 0 0
		outer loop
			vertex -0.055555541068315506 0.06689814478158951 -0.036741625517606735
			vertex -0.055555541068315506 0.042972661554813385 -0.036741625517606735
			vertex -0.055555541068315506 0.03620126098394394 0.012994322925806046
		endloop
	endfacet
	facet normal -1 0 0
		outer loop
			vertex -0.055555541068315506 0.06689814478158951 -0.036741625517606735
			vertex -0.055555541068315506 0.03620126098394394 0.012994322925806046
			vertex -0.055555541068315506 0.06583959609270096 0.023632902652025223
		endloop
	endfacet
	facet normal -1 0 0
		outer loop
			vertex -0.055555541068315506 0.040263645350933075 0.036741625517606735
			vertex -0.055555541068315506 0.06560976058244705 0.036741625517606735
			vertex -0.055555541068315506 0.06583959609270096 0.023632902652025223
		endloop
	endfacet
	facet normal -1 0 0
		outer loop
			vertex -0.055555541068315506 0.040263645350933075 0.036741625517606735
			vertex -0.055555541068315506 0.06583959609270096 0.023632902652025223
			vertex -0.055555541068315506 0.03620126098394394 0.012994322925806046
		endloop
	endfacet
	facet normal -1 0 0
		outer loop
			vertex -0.055555541068315506 0.040263645350933075 0.036741625517606735
			vertex -0.055555541068315506 0.03620126098394394 0.012994322925806046
			vertex -0.055555541068315506 0.035399071872234344 0.018886450678110123
		endloop
	endfacet
	facet normal -1 0 0
		outer loop
			vertex -0.055555541068315506 0.10202724486589432 -0.036741625517606735
			vertex -0.055555541068315506 0.06689814478158951 -0.036741625517606735
			vertex -0.055555541068315506 0.06583959609270096 0.023632902652025223
		endloop
	endfacet
	facet normal -1 0 0
		outer loop
			vertex -0.055555541068315506 0.10202724486589432 -0.036741625517606735
			vertex -0.055555541068315506 0.06583959609270096 0.023632902652025223
			vertex -0.055555541068315506 0.10202724486589432 0.03662232682108879
		endloop
	endfacet
	facet normal -1 0 0
		outer loop
			vertex -0.055555541068315506 0.06560976058244705 0.036741625517606735
			vertex -0.055555541068315506 0.10202724486589432 0.036741625517606735
			vertex -0.055555541068315506 0.10202724486589432 0.03662232682108879
		endloop
	endfacet
	facet normal -1 0 0
		outer loop
			vertex -0.055555541068315506 0.06560976058244705 0.036741625517606735
			vertex -0.055555541068315506 0.10202724486589432 0.03662232682108879
			vertex -0.055555541068315506 0.06583959609270096 0.023632902652025223
		endloop
	endfacet
	facet normal 0 0 1
		outer loop
			vertex -0.01466276217252016 0.015499048866331577 0.036741625517606735
			vertex -0.014217008836567402 0.015715057030320168 0.036741625517606735
			vertex -0.014353950507938862 0.015685776248574257 0.036741625517606735
		endloop
	endfacet
	facet normal 0 0 1
		outer loop
			vertex -0.055555541068315506 0.010911726392805576 0.036741625517606735
			vertex -0.055555541068315506 0.006874063517898321 0.036741625517606735
			vertex -0.014217008836567402 0.015715057030320168 0.036741625517606735
		endloop
	endfacet
	facet normal 0 0 1
		outer loop
			vertex -0.055555541068315506 0.010911726392805576 0.036741625517606735
			vertex -0.014217008836567402 0.015715057030320168 0.036741625517606735
			vertex -0.013188143260776997 0.016213664785027504 0.036741625517606735
		endloop
	endfacet
	facet normal 0 0 1
		outer loop
			vertex -0.055555541068315506 0.010911726392805576 0.036741625517606735
			vertex -0.013188143260776997 0.016213664785027504 0.036741625517606735
			vertex -0.012759109027683735 0.016509288921952248 0.036741625517606735
		endloop
	endfacet
	facet normal 0 0 1
		outer loop
			vertex -0.055555541068315506 0.022766077890992165 0.036741625517606735
			vertex -0.055555541068315506 0.010911726392805576 0.036741625517606735
			vertex -0.014677842147648335 0.01625833846628666 0.036741625517606735
		endloop
	endfacet
	facet normal 0 0 1
		outer loop
			vertex -0.055555541068315506 0.02920139767229557 0.036741625517606735
			vertex -0.055555541068315506 0.022766077890992165 0.036741625517606735
			vertex -0.014677842147648335 0.01625833846628666 0.036741625517606735
		endloop
	endfacet
	facet normal 0 0 1
		outer loop
			vertex -0.055555541068315506 0.02920139767229557 0.036741625517606735
			vertex -0.014677842147648335 0.01625833846628666 0.036741625517606735
			vertex -0.011761476285755634 0.01663977839052677 0.036741625517606735
		endloop
	endfacet
	facet normal 0 0 1
		outer loop
			vertex -0.055555541068315506 0.02920139767229557 0.036741625517606735
			vertex -0.011761476285755634 0.01663977839052677 0.036741625517606735
			vertex 0.006680528167635202 0.022245222702622414 0.036741625517606735
		endloop
	endfacet
	facet normal 0 0 1
		outer loop
			vertex -0.055555541068315506 0.02962229587137699 0.036741625517606735
			vertex -0.055555541068315506 0.02920139767229557 0.036741625517606735
			vertex 0.006680528167635202 0.022245222702622414 0.036741625517606735
		endloop
	endfacet
	facet normal 0 0 1
		outer loop
			vertex -0.055555541068315506 0.02962229587137699 0.036741625517606735
			vertex 0.006680528167635202 0.022245222702622414 0.036741625517606735
			vertex 0.010397355072200298 0.023374954238533974 0.036741625517606735
		endloop
	endfacet
	facet normal 0 0 1
		outer loop
			vertex -0.055555541068315506 0.040263645350933075 0.036741625517606735
			vertex -0.055555541068315506 0.02962229587137699 0.036741625517606735
			vertex 0.010397355072200298 0.023374954238533974 0.036741625517606735
		endloop
	endfacet
	facet normal 0 0 1
		outer loop
			vertex -0.055555541068315506 0.040263645350933075 0.036741625517606735
			vertex 0.010397355072200298 0.023374954238533974 0.036741625517606735
			vertex 0.013139049522578716 0.024208316579461098 0.036741625517606735
		endloop
	endfacet
	facet normal 0 0 1
		outer loop
			vertex -0.055555541068315506 0.040263645350933075 0.036741625517606735
			vertex 0.013139049522578716 0.024208316579461098 0.036741625517606735
			vertex 0.013963083736598492 0.025726640596985817 0.036741625517606735
		endloop
	endfacet
	facet normal 0 0 1
		outer loop
			vertex 0.013963083736598492 0.025726640596985817 0.036741625517606735
			vertex 0.013139049522578716 0.024208316579461098 0.036741625517606735
			vertex 0.016434291377663612 0.025209883227944374 0.036741625517606735
		endloop
	endfacet
	facet normal 0 0 1
		outer loop
			vertex 0.011547843925654888 0.026231685653328896 0.036741625517606735
			vertex 0.013963083736598492 0.025726640596985817 0.036741625517606735
			vertex 0.014682541601359844 0.02705218829214573 0.036741625517606735
		endloop
	endfacet
	facet normal 0 0 1
		outer loop
			vertex 0.0555555634200573 0.03710084408521652 0.036741625517606735
			vertex 0.0555555634200573 0.037750355899333954 0.036741625517606735
			vertex 0.014682541601359844 0.02705218829214573 0.036741625517606735
		endloop
	endfacet
	facet normal 0 0 1
		outer loop
			vertex 0.0555555634200573 0.03710084408521652 0.036741625517606735
			vertex 0.014682541601359844 0.02705218829214573 0.036741625517606735
			vertex 0.013963083736598492 0.025726640596985817 0.036741625517606735
		endloop
	endfacet
	facet normal 0 0 1
		outer loop
			vertex 0.0555555634200573 0.03710084408521652 0.036741625517606735
			vertex 0.013963083736598492 0.025726640596985817 0.036741625517606735
			vertex 0.016434291377663612 0.025209883227944374 0.036741625517606735
		endloop
	endfacet
	facet normal 0 0 1
		outer loop
			vertex -0.02923472784459591 0.03475972265005112 0.036741625517606735
			vertex 0.011547843925654888 0.026231685653328896 0.036741625517606735
			vertex 0.014682541601359844 0.02705218829214573 0.036741625517606735
		endloop
	endfacet
	facet normal 0 0 1
		outer loop
			vertex -0.02923472784459591 0.03475972265005112 0.036741625517606735
			vertex 0.014682541601359844 0.02705218829214573 0.036741625517606735
			vertex 0.020710954442620277 0.03815934807062149 0.036741625517606735
		endloop
	endfacet
	facet normal 0 0 1
		outer loop
			vertex 0.0555555634200573 0.037750355899333954 0.036741625517606735
			vertex 0.0555555634200573 0.04053109139204025 0.036741625517606735
			vertex 0.020710954442620277 0.03815934807062149 0.036741625517606735
		endloop
	endfacet
	facet normal 0 0 1
		outer loop
			vertex 0.0555555634200573 0.037750355899333954 0.036741625517606735
			vertex 0.020710954442620277 0.03815934807062149 0.036741625517606735
			vertex 0.014682541601359844 0.02705218829214573 0.036741625517606735
		endloop
	endfacet
	facet normal 0 0 1
		outer loop
			vertex 0.0555555634200573 0.04053109139204025 0.036741625517606735
			vertex 0.0555555634200573 0.052405066788196564 0.036741625517606735
			vertex 0.04755060002207756 0.03998623043298721 0.036741625517606735
		endloop
	endfacet
	facet normal 0 0 1
		outer loop
			vertex -0.055555541068315506 0.06560976058244705 0.036741625517606735
			vertex -0.055555541068315506 0.040263645350933075 0.036741625517606735
			vertex -0.02923472784459591 0.03475972265005112 0.036741625517606735
		endloop
	endfacet
	facet normal 0 0 1
		outer loop
			vertex -0.055555541068315506 0.06560976058244705 0.036741625517606735
			vertex -0.02923472784459591 0.03475972265005112 0.036741625517606735
			vertex 0.020710954442620277 0.03815934807062149 0.036741625517606735
		endloop
	endfacet
	facet normal 0 0 1
		outer loop
			vertex -0.055555541068315506 0.06560976058244705 0.036741625517606735
			vertex 0.020710954442620277 0.03815934807062149 0.036741625517606735
			vertex 0.04782126471400261 0.0881093218922615 0.036741625517606735
		endloop
	endfacet
	facet normal 0 0 1
		outer loop
			vertex 0.0555555634200573 0.052405066788196564 0.036741625517606735
			vertex 0.0555555634200573 0.08979267627000809 0.036741625517606735
			vertex 0.04782126471400261 0.0881093218922615 0.036741625517606735
		endloop
	endfacet
	facet normal 0 0 1
		outer loop
			vertex 0.0555555634200573 0.052405066788196564 0.036741625517606735
			vertex 0.04782126471400261 0.0881093218922615 0.036741625517606735
			vertex 0.020710954442620277 0.03815934807062149 0.036741625517606735
		endloop
	endfacet
	facet normal 0 0 1
		outer loop
			vertex 0.0555555634200573 0.052405066788196564 0.036741625517606735
			vertex 0.020710954442620277 0.03815934807062149 0.036741625517606735
			vertex 0.04755060002207756 0.03998623043298721 0.036741625517606735
		endloop
	endfacet
	facet normal 0 0 1
		outer loop
			vertex -0.055555541068315506 0.10202724486589432 0.036741625517606735
			vertex -0.055555541068315506 0.06560976058244705 0.036741625517606735
			vertex 0.04782126471400261 0.0881093218922615 0.036741625517606735
		endloop
	endfacet
	facet normal 0 0 1
		outer loop
			vertex -0.055555541068315506 0.10202724486589432 0.036741625517606735
			vertex 0.04782126471400261 0.0881093218922615 0.036741625517606735
			vertex 0.055375199764966965 0.10202724486589432 0.036741625517606735
		endloop
	endfacet
	facet normal 0 0 1
		outer loop
			vertex 0.0555555634200573 0.08979267627000809 0.036741625517606735
			vertex 0.0555555634200573 0.10202724486589432 0.036741625517606735
			vertex 0.055375199764966965 0.10202724486589432 0.036741625517606735
		endloop
	endfacet
	facet normal 0 0 1
		outer loop
			vertex 0.0555555634200573 0.08979267627000809 0.036741625517606735
			vertex 0.055375199764966965 0.10202724486589432 0.036741625517606735
			vertex 0.04782126471400261 0.0881093218922615 0.036741625517606735
		endloop
	endfacet
	facet normal 0 0 -1
		outer loop
			vertex -0.031465936452150345 0.0025984137319028378 -0.036741625517606735
			vertex -0.012557794339954853 0.011252173222601414 -0.036741625517606735
			vertex -0.009998341090977192 0.010716968216001987 -0.036741625517606735
		endloop
	endfacet
	facet normal 0 0 -1
		outer loop
			vertex -0.055555541068315506 -0.00842676218599081 -0.036741625517606735
			vertex -0.055555541068315506 0.008099772967398167 -0.036741625517606735
			vertex -0.03725891187787056 0.016417423263192177 -0.036741625517606735
		endloop
	endfacet
	facet normal 0 0 -1
		outer loop
			vertex -0.055555541068315506 -0.00842676218599081 -0.036741625517606735
			vertex -0.03725891187787056 0.016417423263192177 -0.036741625517606735
			vertex -0.012557794339954853 0.011252173222601414 -0.036741625517606735
		endloop
	endfacet
	facet normal 0 0 -1
		outer loop
			vertex -0.055555541068315506 0.008099772967398167 -0.036741625517606735
			vertex -0.055555541068315506 0.02024340070784092 -0.036741625517606735
			vertex -0.03725891187787056 0.016417423263192177 -0.036741625517606735
		endloop
	endfacet
	facet normal 0 0 -1
		outer loop
			vertex -0.006528755184262991 0.012029075063765049 -0.036741625517606735
			vertex -0.007390608545392752 0.013617047108709812 -0.036741625517606735
			vertex 0.015305290929973125 0.024004364386200905 -0.036741625517606735
		endloop
	endfacet
	facet normal 0 0 -1
		outer loop
			vertex -0.006528755184262991 0.012029075063765049 -0.036741625517606735
			vertex 0.015305290929973125 0.024004364386200905 -0.036741625517606735
			vertex 0.04334576055407524 0.031343720853328705 -0.036741625517606735
		endloop
	endfacet
	facet normal 0 0 -1
		outer loop
			vertex -0.006528755184262991 0.012029075063765049 -0.036741625517606735
			vertex 0.04334576055407524 0.031343720853328705 -0.036741625517606735
			vertex 0.0429731123149395 0.03074950911104679 -0.036741625517606735
		endloop
	endfacet
	facet normal 0 0 -1
		outer loop
			vertex -0.007390608545392752 0.013617047108709812 -0.036741625517606735
			vertex -0.006528755184262991 0.012029075063765049 -0.036741625517606735
			vertex -0.009998341090977192 0.010716968216001987 -0.036741625517606735
		endloop
	endfacet
	facet normal 0 0 -1
		outer loop
			vertex -0.007390608545392752 0.013617047108709812 -0.036741625517606735
			vertex -0.009998341090977192 0.010716968216001987 -0.036741625517606735
			vertex -0.012557794339954853 0.011252173222601414 -0.036741625517606735
		endloop
	endfacet
	facet normal 0 0 -1
		outer loop
			vertex -0.007390608545392752 0.013617047108709812 -0.036741625517606735
			vertex -0.009503950364887714 0.017510751262307167 -0.036741625517606735
			vertex 0.015305290929973125 0.024004364386200905 -0.036741625517606735
		endloop
	endfacet
	facet normal 0 0 -1
		outer loop
			vertex -0.009503950364887714 0.017510751262307167 -0.036741625517606735
			vertex -0.007390608545392752 0.013617047108709812 -0.036741625517606735
			vertex -0.012557794339954853 0.011252173222601414 -0.036741625517606735
		endloop
	endfacet
	facet normal 0 0 -1
		outer loop
			vertex -0.009503950364887714 0.017510751262307167 -0.036741625517606735
			vertex -0.012557794339954853 0.011252173222601414 -0.036741625517606735
			vertex -0.024152209982275963 0.013676666654646397 -0.036741625517606735
		endloop
	endfacet
	facet normal 0 0 -1
		outer loop
			vertex 0.04334576055407524 0.031343720853328705 -0.036741625517606735
			vertex 0.015305290929973125 0.024004364386200905 -0.036741625517606735
			vertex 0.04817850515246391 0.03904957324266434 -0.036741625517606735
		endloop
	endfacet
	facet normal 0 0 -1
		outer loop
			vertex 0.015305290929973125 0.024004364386200905 -0.036741625517606735
			vertex -0.009503950364887714 0.017510751262307167 -0.036741625517606735
			vertex -0.01452078390866518 0.026754165068268776 -0.036741625517606735
		endloop
	endfacet
	facet normal 0 0 -1
		outer loop
			vertex 0.015305290929973125 0.024004364386200905 -0.036741625517606735
			vertex -0.01452078390866518 0.026754165068268776 -0.036741625517606735
			vertex 0.03466407582163811 0.04911357909440994 -0.036741625517606735
		endloop
	endfacet
	facet normal 0 0 -1
		outer loop
			vertex 0.015305290929973125 0.024004364386200905 -0.036741625517606735
			vertex 0.03466407582163811 0.04911357909440994 -0.036741625517606735
			vertex 0.055374275892972946 0.05052325874567032 -0.036741625517606735
		endloop
	endfacet
	facet normal 0 0 -1
		outer loop
			vertex 0.015305290929973125 0.024004364386200905 -0.036741625517606735
			vertex 0.055374275892972946 0.05052325874567032 -0.036741625517606735
			vertex 0.04817850515246391 0.03904957324266434 -0.036741625517606735
		endloop
	endfacet
	facet normal 0 0 -1
		outer loop
			vertex -0.01452078390866518 0.026754165068268776 -0.036741625517606735
			vertex -0.009503950364887714 0.017510751262307167 -0.036741625517606735
			vertex -0.024152209982275963 0.013676666654646397 -0.036741625517606735
		endloop
	endfacet
	facet normal 0 0 -1
		outer loop
			vertex -0.01452078390866518 0.026754165068268776 -0.036741625517606735
			vertex -0.024152209982275963 0.013676666654646397 -0.036741625517606735
			vertex -0.03725891187787056 0.016417423263192177 -0.036741625517606735
		endloop
	endfacet
	facet normal 0 0 -1
		outer loop
			vertex -0.01452078390866518 0.026754165068268776 -0.036741625517606735
			vertex -0.024471690878272057 0.04508841782808304 -0.036741625517606735
			vertex 0.03466407582163811 0.04911357909440994 -0.036741625517606735
		endloop
	endfacet
	facet normal 0 0 -1
		outer loop
			vertex -0.055555541068315506 0.02024340070784092 -0.036741625517606735
			vertex -0.055555541068315506 0.042972661554813385 -0.036741625517606735
			vertex -0.024471690878272057 0.04508841782808304 -0.036741625517606735
		endloop
	endfacet
	facet normal 0 0 -1
		outer loop
			vertex -0.055555541068315506 0.02024340070784092 -0.036741625517606735
			vertex -0.024471690878272057 0.04508841782808304 -0.036741625517606735
			vertex -0.01452078390866518 0.026754165068268776 -0.036741625517606735
		endloop
	endfacet
	facet normal 0 0 -1
		outer loop
			vertex -0.055555541068315506 0.02024340070784092 -0.036741625517606735
			vertex -0.01452078390866518 0.026754165068268776 -0.036741625517606735
			vertex -0.03725891187787056 0.016417423263192177 -0.036741625517606735
		endloop
	endfacet
	facet normal 0 0 -1
		outer loop
			vertex 0.0555555634200573 0.09108103066682816 -0.036741625517606735
			vertex 0.0555555634200573 0.050812311470508575 -0.036741625517606735
			vertex 0.055374275892972946 0.05052325874567032 -0.036741625517606735
		endloop
	endfacet
	facet normal 0 0 -1
		outer loop
			vertex 0.0555555634200573 0.09108103066682816 -0.036741625517606735
			vertex 0.055374275892972946 0.05052325874567032 -0.036741625517606735
			vertex -0.024471690878272057 0.04508841782808304 -0.036741625517606735
		endloop
	endfacet
	facet normal 0 0 -1
		outer loop
			vertex 0.0555555634200573 0.09108103066682816 -0.036741625517606735
			vertex -0.024471690878272057 0.04508841782808304 -0.036741625517606735
			vertex -0.03834225609898567 0.07064453512430191 -0.036741625517606735
		endloop
	endfacet
	facet normal 0 0 -1
		outer loop
			vertex -0.055555541068315506 0.042972661554813385 -0.036741625517606735
			vertex -0.055555541068315506 0.06689814478158951 -0.036741625517606735
			vertex -0.03834225609898567 0.07064453512430191 -0.036741625517606735
		endloop
	endfacet
	facet normal 0 0 -1
		outer loop
			vertex -0.055555541068315506 0.042972661554813385 -0.036741625517606735
			vertex -0.03834225609898567 0.07064453512430191 -0.036741625517606735
			vertex -0.024471690878272057 0.04508841782808304 -0.036741625517606735
		endloop
	endfacet
	facet normal 0 0 -1
		outer loop
			vertex 0.0555555634200573 0.10202724486589432 -0.036741625517606735
			vertex 0.0555555634200573 0.09108103066682816 -0.036741625517606735
			vertex -0.03834225609898567 0.07064453512430191 -0.036741625517606735
		endloop
	endfacet
	facet normal 0 0 -1
		outer loop
			vertex 0.0555555634200573 0.10202724486589432 -0.036741625517606735
			vertex -0.03834225609898567 0.07064453512430191 -0.036741625517606735
			vertex -0.055375177413225174 0.10202724486589432 -0.036741625517606735
		endloop
	endfacet
	facet normal 0 0 -1
		outer loop
			vertex -0.055555541068315506 0.06689814478158951 -0.036741625517606735
			vertex -0.055555541068315506 0.10202724486589432 -0.036741625517606735
			vertex -0.055375177413225174 0.10202724486589432 -0.036741625517606735
		endloop
	endfacet
	facet normal 0 0 -1
		outer loop
			vertex -0.055555541068315506 0.06689814478158951 -0.036741625517606735
			vertex -0.055375177413225174 0.10202724486589432 -0.036741625517606735
			vertex -0.03834225609898567 0.07064453512430191 -0.036741625517606735
		endloop
	endfacet
endsolid exported
