solid exported
	facet normal 0 1 0
		outer loop
			vertex 0.0555555634200573 0.10202724486589432 0.036741625517606735
			vertex 0.0555555634200573 0.10202724486589432 -0.03580482676625252
			vertex 0.049301695078611374 0.10202724486589432 -0.03674163296818733
		endloop
	endfacet
	facet normal 0 1 0
		outer loop
			vertex 0.0555555634200573 0.10202724486589432 0.036741625517606735
			vertex 0.049301695078611374 0.10202724486589432 -0.03674163296818733
			vertex -0.055555541068315506 0.10202724486589432 -0.03674163296818733
		endloop
	endfacet
	facet normal 0 1 0
		outer loop
			vertex 0.0555555634200573 0.10202724486589432 0.036741625517606735
			vertex -0.055555541068315506 0.10202724486589432 -0.03674163296818733
			vertex -0.055555541068315506 0.10202724486589432 0.036741625517606735
		endloop
	endfacet
	facet normal 0 1 0
		outer loop
			vertex 0.0555555634200573 0.10202724486589432 -0.03674163296818733
			vertex 0.049301695078611374 0.10202724486589432 -0.03674163296818733
			vertex 0.0555555634200573 0.10202724486589432 -0.03580482676625252
		endloop
	endfacet
	facet normal 0.28353865033813225 -0.8365064545771466 -0.4688952817156542
		outer loop
			vertex -0.055555541068315506 0.010513641871511936 0.001029042061418295
			vertex -0.029613574966788292 0.009739198721945286 0.01809762232005596
			vertex -0.055555541068315506 -0.006795248482376337 0.031908001750707626
		endloop
	endfacet
	facet normal 0.3978430205529162 -0.8692710826046676 -0.2934087864134971
		outer loop
			vertex -0.055555541068315506 -0.00842676218599081 0.036741625517606735
			vertex -0.055555541068315506 -0.006795248482376337 0.031908001750707626
			vertex -0.029613574966788292 0.009739198721945286 0.01809762232005596
		endloop
	endfacet
	facet normal 0.3978419100814153 -0.8692710725890942 -0.29341032180647136
		outer loop
			vertex -0.055555541068315506 -0.00842676218599081 0.036741625517606735
			vertex -0.029613574966788292 0.009739198721945286 0.01809762232005596
			vertex -0.016663094982504845 0.010887988843023777 0.03225402161478996
		endloop
	endfacet
	facet normal 0.3978428473300121 -0.869272015514501 -0.29340625738335274
		outer loop
			vertex -0.055555541068315506 -0.00842676218599081 0.036741625517606735
			vertex -0.016663094982504845 0.010887988843023777 0.03225402161478996
			vertex -0.031465936452150345 0.0025984137319028378 0.036741625517606735
		endloop
	endfacet
	facet normal 0.3084999466931569 -0.8157550753060018 -0.4892560066088292
		outer loop
			vertex -0.031465936452150345 0.0025984137319028378 0.036741625517606735
			vertex -0.016663094982504845 0.010887988843023777 0.03225402161478996
			vertex -0.009998341090977192 0.010716968216001987 0.036741625517606735
		endloop
	endfacet
	facet normal 0.8377612582918306 -0.525385541052605 -0.14874847010356185
		outer loop
			vertex 0.04334576055407524 0.031343720853328705 0.036741625517606735
			vertex 0.0429731123149395 0.03074950911104679 0.036741625517606735
			vertex 0.04316500946879387 0.031264208257198334 0.03600446507334709
		endloop
	endfacet
	facet normal 0.28353839382854545 -0.8365054967729062 -0.4688971455381682
		outer loop
			vertex -0.02536829374730587 0.012444996275007725 0.01583760790526867
			vertex -0.029613574966788292 0.009739198721945286 0.01809762232005596
			vertex -0.034899670630693436 0.009897016920149326 0.01461961679160595
		endloop
	endfacet
	facet normal 0.39784260257556786 -0.8692701814999059 -0.2934120228126647
		outer loop
			vertex -0.029613574966788292 0.009739198721945286 0.01809762232005596
			vertex -0.02536829374730587 0.012444996275007725 0.01583760790526867
			vertex -0.0020475287456065416 0.019072705879807472 0.027823222801089287
		endloop
	endfacet
	facet normal 0.3978423377222695 -0.8692707355902287 -0.29341074036596293
		outer loop
			vertex -0.029613574966788292 0.009739198721945286 0.01809762232005596
			vertex -0.0020475287456065416 0.019072705879807472 0.027823222801089287
			vertex -0.016663094982504845 0.010887988843023777 0.03225402161478996
		endloop
	endfacet
	facet normal 0.3085008498397232 -0.8157539549032489 -0.48925730521666916
		outer loop
			vertex -0.009998341090977192 0.010716968216001987 0.036741625517606735
			vertex -0.016663094982504845 0.010887988843023777 0.03225402161478996
			vertex -0.0020475287456065416 0.019072705879807472 0.027823222801089287
		endloop
	endfacet
	facet normal 0.30849871915549004 -0.8157537413958666 -0.48925900469799016
		outer loop
			vertex -0.009998341090977192 0.010716968216001987 0.036741625517606735
			vertex -0.0020475287456065416 0.019072705879807472 0.027823222801089287
			vertex 0.04316500946879387 0.031264208257198334 0.03600446507334709
		endloop
	endfacet
	facet normal 0.30849752998890106 -0.8157508636205837 -0.4892645526635044
		outer loop
			vertex -0.009998341090977192 0.010716968216001987 0.036741625517606735
			vertex 0.04316500946879387 0.031264208257198334 0.03600446507334709
			vertex 0.0429731123149395 0.03074950911104679 0.036741625517606735
		endloop
	endfacet
	facet normal 0.8377529763738664 -0.5253997558796227 -0.1487449061257597
		outer loop
			vertex 0.055374275892972946 0.05052325874567032 0.036741625517606735
			vertex 0.04334576055407524 0.031343720853328705 0.036741625517606735
			vertex 0.04316500946879387 0.031264208257198334 0.03600446507334709
		endloop
	endfacet
	facet normal 0.8377541248909605 -0.5254008841274752 -0.1487344519143051
		outer loop
			vertex 0.055374275892972946 0.05052325874567032 0.036741625517606735
			vertex 0.04316500946879387 0.031264208257198334 0.03600446507334709
			vertex 0.04935194179415703 0.04785642772912979 0.012241048738360405
		endloop
	endfacet
	facet normal 0.8377554861616242 -0.5253985468249142 -0.14873504092973241
		outer loop
			vertex 0.055374275892972946 0.05052325874567032 0.036741625517606735
			vertex 0.04935194179415703 0.04785642772912979 0.012241048738360405
			vertex 0.054099779576063156 0.0522390678524971 0.02350197546184063
		endloop
	endfacet
	facet normal -0.09265210841946557 -0.914077466965748 0.3948138437174027
		outer loop
			vertex 0.0555555634200573 0.052279032766819 0.023936135694384575
			vertex 0.054099779576063156 0.0522390678524971 0.02350197546184063
			vertex 0.04935194179415703 0.04785642772912979 0.012241048738360405
		endloop
	endfacet
	facet normal -0.0926471460666022 -0.914078876632443 0.39481174453159895
		outer loop
			vertex 0.0555555634200573 0.052279032766819 0.023936135694384575
			vertex 0.04935194179415703 0.04785642772912979 0.012241048738360405
			vertex 0.0555555634200573 0.04883263260126114 0.015956936404109
		endloop
	endfacet
	facet normal 0.5259145002588892 -0.7422171444887395 -0.41536447710947144
		outer loop
			vertex 0.05475426837801933 0.05450228601694107 0.007205692585557699
			vertex 0.04935194179415703 0.04785642772912979 0.012241048738360405
			vertex 0.05215213820338249 0.05486101657152176 0.0032699829898774624
		endloop
	endfacet
	facet normal 0.4272869346866529 -0.7404336541828049 -0.5188293353305906
		outer loop
			vertex 0.0555555634200573 0.05445847660303116 0.007928160950541496
			vertex 0.0555555634200573 0.04883263260126114 0.015956936404109
			vertex 0.04935194179415703 0.04785642772912979 0.012241048738360405
		endloop
	endfacet
	facet normal 0.4272973777687801 -0.7404358248131012 -0.5188176368294231
		outer loop
			vertex 0.0555555634200573 0.05445847660303116 0.007928160950541496
			vertex 0.04935194179415703 0.04785642772912979 0.012241048738360405
			vertex 0.05475426837801933 0.05450228601694107 0.007205692585557699
		endloop
	endfacet
	facet normal 1 0 0
		outer loop
			vertex 0.0555555634200573 0.05445847660303116 0.007928160950541496
			vertex 0.0555555634200573 0.054391808807849884 0.008417723700404167
			vertex 0.0555555634200573 0.04941637068986893 0.017308441922068596
		endloop
	endfacet
	facet normal 1 0 0
		outer loop
			vertex 0.0555555634200573 0.05445847660303116 0.007928160950541496
			vertex 0.0555555634200573 0.04941637068986893 0.017308441922068596
			vertex 0.0555555634200573 0.04883263260126114 0.015956936404109
		endloop
	endfacet
	facet normal 1 0 0
		outer loop
			vertex 0.0555555634200573 0.054391808807849884 0.008417723700404167
			vertex 0.0555555634200573 0.052279032766819 0.023936135694384575
			vertex 0.0555555634200573 0.04941637068986893 0.017308441922068596
		endloop
	endfacet
	facet normal 0.16974791645107817 -0.45727472811894476 -0.8729750671607197
		outer loop
			vertex 0.039803992956876755 0.05656329542398453 -0.01540684886276722
			vertex 0.027583906427025795 0.046194739639759064 -0.01235184259712696
			vertex 0.0340847484767437 0.056307144463062286 -0.01638476736843586
		endloop
	endfacet
	facet normal 0.3924394525691531 -0.8632713390012433 -0.3174175031818885
		outer loop
			vertex -0.050758082419633865 0.03729989379644394 -0.03674163296818733
			vertex -0.055555541068315506 0.033398859202861786 -0.03206344321370125
			vertex -0.055555541068315506 0.035118989646434784 -0.03674163296818733
		endloop
	endfacet
	facet normal 0.055557699150931464 -0.7941144510088715 -0.6052235791539633
		outer loop
			vertex -0.03593190386891365 0.03833714872598648 -0.03674163296818733
			vertex -0.05277036502957344 0.020035574212670326 -0.014273839071393013
			vertex -0.055555541068315506 0.020398253574967384 -0.015005381777882576
		endloop
	endfacet
	facet normal 0.05555584438833397 -0.7941137472400657 -0.6052246728270755
		outer loop
			vertex -0.03593190386891365 0.03833714872598648 -0.03674163296818733
			vertex -0.055555541068315506 0.020398253574967384 -0.015005381777882576
			vertex -0.055555541068315506 0.033398859202861786 -0.03206344321370125
		endloop
	endfacet
	facet normal 0.055557189912685594 -0.7941160788553917 -0.6052214899954752
		outer loop
			vertex -0.03593190386891365 0.03833714872598648 -0.03674163296818733
			vertex -0.055555541068315506 0.033398859202861786 -0.03206344321370125
			vertex -0.050758082419633865 0.03729989379644394 -0.03674163296818733
		endloop
	endfacet
	facet normal 0.2835384987133089 -0.8365066091466153 -0.4688950976513134
		outer loop
			vertex 0.020318875089287758 0.05740366131067276 -0.03674163296818733
			vertex 0.027583906427025795 0.046194739639759064 -0.01235184259712696
			vertex -0.05277036502957344 0.020035574212670326 -0.014273839071393013
		endloop
	endfacet
	facet normal 0.28353855575805303 -0.8365066529724968 -0.46889498497146304
		outer loop
			vertex 0.020318875089287758 0.05740366131067276 -0.03674163296818733
			vertex -0.05277036502957344 0.020035574212670326 -0.014273839071393013
			vertex -0.03593190386891365 0.03833714872598648 -0.03674163296818733
		endloop
	endfacet
	facet normal 0.645840845635396 -0.6022968376215885 -0.4691781340812789
		outer loop
			vertex 0.021053770557045937 0.0581916943192482 -0.03674163296818733
			vertex 0.0340847484767437 0.056307144463062286 -0.01638476736843586
			vertex 0.027583906427025795 0.046194739639759064 -0.01235184259712696
		endloop
	endfacet
	facet normal 0.6458437669303504 -0.6022941323929926 -0.4691775855709518
		outer loop
			vertex 0.021053770557045937 0.0581916943192482 -0.03674163296818733
			vertex 0.027583906427025795 0.046194739639759064 -0.01235184259712696
			vertex 0.020318875089287758 0.05740366131067276 -0.03674163296818733
		endloop
	endfacet
	facet normal 0.5259195066388078 -0.7422161163430621 -0.4153599754158017
		outer loop
			vertex 0.04935194179415703 0.04785642772912979 0.012241048738360405
			vertex 0.027583906427025795 0.046194739639759064 -0.01235184259712696
			vertex 0.039803992956876755 0.05656329542398453 -0.01540684886276722
		endloop
	endfacet
	facet normal 0.5259216119891014 -0.7422145021308596 -0.4153601941320635
		outer loop
			vertex 0.04935194179415703 0.04785642772912979 0.012241048738360405
			vertex 0.039803992956876755 0.05656329542398453 -0.01540684886276722
			vertex 0.05215213820338249 0.05486101657152176 0.0032699829898774624
		endloop
	endfacet
	facet normal 0.05555777500429974 -0.7941142874151127 -0.6052237868423215
		outer loop
			vertex -0.055555541068315506 0.020398253574967384 -0.015005381777882576
			vertex -0.05277036502957344 0.020035574212670326 -0.014273839071393013
			vertex -0.055555541068315506 0.017008373513817787 -0.010557519271969795
		endloop
	endfacet
	facet normal 0.28353843305088366 -0.8365065704475937 -0.46889520639590127
		outer loop
			vertex 0.027583906427025795 0.046194739639759064 -0.01235184259712696
			vertex -0.02536829374730587 0.012444996275007725 0.01583760790526867
			vertex -0.034899670630693436 0.009897016920149326 0.01461961679160595
		endloop
	endfacet
	facet normal 0.2835387010456559 -0.836506717038286 -0.46889478282357866
		outer loop
			vertex 0.027583906427025795 0.046194739639759064 -0.01235184259712696
			vertex -0.034899670630693436 0.009897016920149326 0.01461961679160595
			vertex -0.055555541068315506 0.010513641871511936 0.001029042061418295
		endloop
	endfacet
	facet normal 0.2835384953206051 -0.8365064577836131 -0.4688953697336323
		outer loop
			vertex 0.027583906427025795 0.046194739639759064 -0.01235184259712696
			vertex -0.055555541068315506 0.010513641871511936 0.001029042061418295
			vertex -0.055555541068315506 0.017008373513817787 -0.010557519271969795
		endloop
	endfacet
	facet normal 0.2835383630948816 -0.83650612278611 -0.46889604732267093
		outer loop
			vertex 0.027583906427025795 0.046194739639759064 -0.01235184259712696
			vertex -0.055555541068315506 0.017008373513817787 -0.010557519271969795
			vertex -0.05277036502957344 0.020035574212670326 -0.014273839071393013
		endloop
	endfacet
	facet normal 0.3978423158575876 -0.8692711626957407 -0.29340950464950316
		outer loop
			vertex -0.02536829374730587 0.012444996275007725 0.01583760790526867
			vertex 0.027583906427025795 0.046194739639759064 -0.01235184259712696
			vertex 0.04935194179415703 0.04785642772912979 0.012241048738360405
		endloop
	endfacet
	facet normal 0.39784211201830794 -0.8692708536473265 -0.2934106966421985
		outer loop
			vertex -0.02536829374730587 0.012444996275007725 0.01583760790526867
			vertex 0.04935194179415703 0.04785642772912979 0.012241048738360405
			vertex -0.0020475287456065416 0.019072705879807472 0.027823222801089287
		endloop
	endfacet
	facet normal 0.30849873920205195 -0.8157530446506667 -0.4892601537565799
		outer loop
			vertex -0.0020475287456065416 0.019072705879807472 0.027823222801089287
			vertex 0.04935194179415703 0.04785642772912979 0.012241048738360405
			vertex 0.04316500946879387 0.031264208257198334 0.03600446507334709
		endloop
	endfacet
	facet normal 0.8377444642558953 -0.525414947527437 -0.1487391862400208
		outer loop
			vertex 0.0555555634200573 0.05358285456895828 0.02695479802787304
			vertex 0.0555555634200573 0.050812311470508575 0.036741625517606735
			vertex 0.055374275892972946 0.05052325874567032 0.036741625517606735
		endloop
	endfacet
	facet normal 0.837752529093506 -0.5254031727540018 -0.14873535577482372
		outer loop
			vertex 0.0555555634200573 0.05358285456895828 0.02695479802787304
			vertex 0.055374275892972946 0.05052325874567032 0.036741625517606735
			vertex 0.054099779576063156 0.0522390678524971 0.02350197546184063
		endloop
	endfacet
	facet normal -0.09265077389331863 -0.9140794559262473 0.39480955200013224
		outer loop
			vertex 0.0555555634200573 0.05358285456895828 0.02695479802787304
			vertex 0.054099779576063156 0.0522390678524971 0.02350197546184063
			vertex 0.0555555634200573 0.052279032766819 0.023936135694384575
		endloop
	endfacet
	facet normal 0.5259131005794783 -0.742219416511579 -0.415362189410749
		outer loop
			vertex 0.0555555634200573 0.05607882887125015 0.005403114017099142
			vertex 0.05430815741419792 0.054563768208026886 0.006530997809022665
			vertex 0.05215213820338249 0.05486101657152176 0.0032699829898774624
		endloop
	endfacet
	facet normal 0.525913205995696 -0.742219168434671 -0.41536249923106244
		outer loop
			vertex 0.0555555634200573 0.05607882887125015 0.005403114017099142
			vertex 0.05215213820338249 0.05486101657152176 0.0032699829898774624
			vertex 0.0555555634200573 0.06337440758943558 -0.007633494678884745
		endloop
	endfacet
	facet normal 1 0 0
		outer loop
			vertex 0.0555555634200573 0.06337440758943558 -0.007633494678884745
			vertex 0.0555555634200573 0.062132783234119415 -0.0032475017942488194
			vertex 0.0555555634200573 0.05607882887125015 0.005403114017099142
		endloop
	endfacet
	facet normal 0.525926579583473 -0.7422139679086089 -0.415354858800264
		outer loop
			vertex 0.0555555634200573 0.05607882887125015 0.005403114017099142
			vertex 0.0555555634200573 0.05548805743455887 0.006458786781877279
			vertex 0.05475426837801933 0.05450228601694107 0.007205692585557699
		endloop
	endfacet
	facet normal 0.5259081014279021 -0.7422196723158365 -0.4153680619400962
		outer loop
			vertex 0.0555555634200573 0.05607882887125015 0.005403114017099142
			vertex 0.05475426837801933 0.05450228601694107 0.007205692585557699
			vertex 0.05430815741419792 0.054563768208026886 0.006530997809022665
		endloop
	endfacet
	facet normal 0.4272978331216592 -0.740435233292236 -0.5188181059957401
		outer loop
			vertex 0.0555555634200573 0.05548805743455887 0.006458786781877279
			vertex 0.0555555634200573 0.05445847660303116 0.007928160950541496
			vertex 0.05475426837801933 0.05450228601694107 0.007205692585557699
		endloop
	endfacet
	facet normal 1 0 0
		outer loop
			vertex 0.0555555634200573 0.054391808807849884 0.008417723700404167
			vertex 0.0555555634200573 0.05445847660303116 0.007928160950541496
			vertex 0.0555555634200573 0.05548805743455887 0.006458786781877279
		endloop
	endfacet
	facet normal 1 0 0
		outer loop
			vertex 0.0555555634200573 0.052279032766819 0.023936135694384575
			vertex 0.0555555634200573 0.054391808807849884 0.008417723700404167
			vertex 0.0555555634200573 0.05607882887125015 0.005403114017099142
		endloop
	endfacet
	facet normal 1 0 0
		outer loop
			vertex 0.0555555634200573 0.052279032766819 0.023936135694384575
			vertex 0.0555555634200573 0.05607882887125015 0.005403114017099142
			vertex 0.0555555634200573 0.062132783234119415 -0.0032475017942488194
		endloop
	endfacet
	facet normal 1 0 0
		outer loop
			vertex 0.0555555634200573 0.052279032766819 0.023936135694384575
			vertex 0.0555555634200573 0.062132783234119415 -0.0032475017942488194
			vertex 0.0555555634200573 0.05358285456895828 0.02695479802787304
		endloop
	endfacet
	facet normal 0.16974584927831673 -0.4572728481532294 -0.8729764538603642
		outer loop
			vertex 0.0555555634200573 0.08970621973276138 -0.029704617336392403
			vertex 0.0555555634200573 0.06992826610803604 -0.019344748929142952
			vertex 0.05062512680888176 0.06574488431215286 -0.01811215467751026
		endloop
	endfacet
	facet normal 0.1697456808122623 -0.4572728331409351 -0.8729764944812914
		outer loop
			vertex 0.0555555634200573 0.08970621973276138 -0.029704617336392403
			vertex 0.05062512680888176 0.06574488431215286 -0.01811215467751026
			vertex 0.04219628497958183 0.06892511993646622 -0.021416934207081795
		endloop
	endfacet
	facet normal 0.6458387569890308 -0.602298515369608 -0.46917885539997434
		outer loop
			vertex 0.040082287043333054 0.07859594374895096 -0.03674163296818733
			vertex 0.0479213111102581 0.07783064991235733 -0.024968551471829414
			vertex 0.04219628497958183 0.06892511993646622 -0.021416934207081795
		endloop
	endfacet
	facet normal 0.6458411268881354 -0.6022966409249704 -0.469177999431304
		outer loop
			vertex 0.040082287043333054 0.07859594374895096 -0.03674163296818733
			vertex 0.04219628497958183 0.06892511993646622 -0.021416934207081795
			vertex 0.026336530223488808 0.05742768198251724 -0.02848890610039234
		endloop
	endfacet
	facet normal 0.6458418334247403 -0.6022966939899634 -0.46917695873447407
		outer loop
			vertex 0.040082287043333054 0.07859594374895096 -0.03674163296818733
			vertex 0.026336530223488808 0.05742768198251724 -0.02848890610039234
			vertex 0.021053770557045937 0.0581916943192482 -0.03674163296818733
		endloop
	endfacet
	facet normal 0.6458453525186151 -0.6022944644879495 -0.46917497661030466
		outer loop
			vertex 0.0555555634200573 0.09518790990114212 -0.03674163296818733
			vertex 0.0555555634200573 0.08970621973276138 -0.029704617336392403
			vertex 0.0479213111102581 0.07783064991235733 -0.024968551471829414
		endloop
	endfacet
	facet normal 0.6458406043229609 -0.6022957179598665 -0.46917990359238737
		outer loop
			vertex 0.0555555634200573 0.09518790990114212 -0.03674163296818733
			vertex 0.0479213111102581 0.07783064991235733 -0.024968551471829414
			vertex 0.040082287043333054 0.07859594374895096 -0.03674163296818733
		endloop
	endfacet
	facet normal 1 0 0
		outer loop
			vertex 0.0555555634200573 0.09240428358316422 -0.033168185502290726
			vertex 0.0555555634200573 0.10202724486589432 -0.03662233427166939
			vertex 0.0555555634200573 0.10202724486589432 -0.03649251535534859
		endloop
	endfacet
	facet normal 1 0 0
		outer loop
			vertex 0.0555555634200573 0.09240428358316422 -0.033168185502290726
			vertex 0.0555555634200573 0.10202724486589432 -0.03649251535534859
			vertex 0.0555555634200573 0.10100803524255753 -0.03562464192509651
		endloop
	endfacet
	facet normal 1 0 0
		outer loop
			vertex 0.0555555634200573 0.09240428358316422 -0.033168185502290726
			vertex 0.0555555634200573 0.10100803524255753 -0.03562464192509651
			vertex 0.0555555634200573 0.08970621973276138 -0.029704617336392403
		endloop
	endfacet
	facet normal 1 0 0
		outer loop
			vertex 0.0555555634200573 0.09518790990114212 -0.03674163296818733
			vertex 0.0555555634200573 0.10202724486589432 -0.03674163296818733
			vertex 0.0555555634200573 0.10202724486589432 -0.03662233427166939
		endloop
	endfacet
	facet normal 1 0 0
		outer loop
			vertex 0.0555555634200573 0.09518790990114212 -0.03674163296818733
			vertex 0.0555555634200573 0.10202724486589432 -0.03662233427166939
			vertex 0.0555555634200573 0.09240428358316422 -0.033168185502290726
		endloop
	endfacet
	facet normal 0.5259193305354611 -0.7422175452593269 -0.4153576450221563
		outer loop
			vertex 0.0555555634200573 0.06804303079843521 -0.01597595401108265
			vertex 0.05062512680888176 0.06574488431215286 -0.01811215467751026
			vertex 0.0555555634200573 0.06992826610803604 -0.019344748929142952
		endloop
	endfacet
	facet normal 1 0 0
		outer loop
			vertex 0.0555555634200573 0.06992826610803604 -0.019344748929142952
			vertex 0.0555555634200573 0.10100803524255753 -0.03562464192509651
			vertex 0.0555555634200573 0.0773978903889656 -0.015519129112362862
		endloop
	endfacet
	facet normal 1 0 0
		outer loop
			vertex 0.0555555634200573 0.06992826610803604 -0.019344748929142952
			vertex 0.0555555634200573 0.0773978903889656 -0.015519129112362862
			vertex 0.0555555634200573 0.06804303079843521 -0.01597595401108265
		endloop
	endfacet
	facet normal 1 0 0
		outer loop
			vertex 0.0555555634200573 0.10202724486589432 -0.03649251535534859
			vertex 0.0555555634200573 0.10202724486589432 -0.014316366985440254
			vertex 0.0555555634200573 0.0773978903889656 -0.015519129112362862
		endloop
	endfacet
	facet normal 0.16974783449278416 -0.45727661930318286 -0.8729740924699096
		outer loop
			vertex 0.05062512680888176 0.06574488431215286 -0.01811215467751026
			vertex 0.039803992956876755 0.05656329542398453 -0.01540684886276722
			vertex 0.0340847484767437 0.056307144463062286 -0.01638476736843586
		endloop
	endfacet
	facet normal 0.16974556017785739 -0.45727305595884427 -0.8729764012239765
		outer loop
			vertex 0.05062512680888176 0.06574488431215286 -0.01811215467751026
			vertex 0.0340847484767437 0.056307144463062286 -0.01638476736843586
			vertex 0.04219628497958183 0.06892511993646622 -0.021416934207081795
		endloop
	endfacet
	facet normal 0.6458410352122449 -0.6022956709249578 -0.46917937083916095
		outer loop
			vertex 0.04219628497958183 0.06892511993646622 -0.021416934207081795
			vertex 0.0340847484767437 0.056307144463062286 -0.01638476736843586
			vertex 0.026336530223488808 0.05742768198251724 -0.02848890610039234
		endloop
	endfacet
	facet normal 0.525919254988915 -0.7422169209549737 -0.4153588562677133
		outer loop
			vertex 0.0555555634200573 0.06337440758943558 -0.007633494678884745
			vertex 0.05215213820338249 0.05486101657152176 0.0032699829898774624
			vertex 0.039803992956876755 0.05656329542398453 -0.01540684886276722
		endloop
	endfacet
	facet normal 0.5259195176386172 -0.7422159713876341 -0.41536022051211774
		outer loop
			vertex 0.0555555634200573 0.06337440758943558 -0.007633494678884745
			vertex 0.039803992956876755 0.05656329542398453 -0.01540684886276722
			vertex 0.05062512680888176 0.06574488431215286 -0.01811215467751026
		endloop
	endfacet
	facet normal 0.5259196697826294 -0.7422158401358295 -0.4153602624074612
		outer loop
			vertex 0.0555555634200573 0.06337440758943558 -0.007633494678884745
			vertex 0.05062512680888176 0.06574488431215286 -0.01811215467751026
			vertex 0.0555555634200573 0.06804303079843521 -0.01597595401108265
		endloop
	endfacet
	facet normal 1 0 0
		outer loop
			vertex 0.0555555634200573 0.09108103066682816 0.036741625517606735
			vertex 0.0555555634200573 0.050812311470508575 0.036741625517606735
			vertex 0.0555555634200573 0.06337440758943558 -0.007633494678884745
		endloop
	endfacet
	facet normal 1 0 0
		outer loop
			vertex 0.0555555634200573 0.09108103066682816 0.036741625517606735
			vertex 0.0555555634200573 0.06337440758943558 -0.007633494678884745
			vertex 0.0555555634200573 0.06804303079843521 -0.01597595401108265
		endloop
	endfacet
	facet normal 1 0 0
		outer loop
			vertex 0.0555555634200573 0.09108103066682816 0.036741625517606735
			vertex 0.0555555634200573 0.06804303079843521 -0.01597595401108265
			vertex 0.0555555634200573 0.09198478609323502 -0.014806779101490974
		endloop
	endfacet
	facet normal 1 0 0
		outer loop
			vertex 0.0555555634200573 0.10202724486589432 0.036741625517606735
			vertex 0.0555555634200573 0.09108103066682816 0.036741625517606735
			vertex 0.0555555634200573 0.09198478609323502 -0.014806779101490974
		endloop
	endfacet
	facet normal 1 0 0
		outer loop
			vertex 0.0555555634200573 0.10202724486589432 0.036741625517606735
			vertex 0.0555555634200573 0.09198478609323502 -0.014806779101490974
			vertex 0.0555555634200573 0.10202724486589432 -0.014316366985440254
		endloop
	endfacet
	facet normal -1 0 0
		outer loop
			vertex -0.055555541068315506 0.009232782758772373 0.0033140755258500576
			vertex -0.055555541068315506 0.011342518962919712 0.0040713525377213955
			vertex -0.055555541068315506 0.010513641871511936 0.001029042061418295
		endloop
	endfacet
	facet normal -1 0 0
		outer loop
			vertex -0.055555541068315506 -0.00842676218599081 0.036741625517606735
			vertex -0.055555541068315506 0.008099772967398167 0.036741625517606735
			vertex -0.055555541068315506 0.015075021423399448 0.017771286889910698
		endloop
	endfacet
	facet normal -1 0 0
		outer loop
			vertex -0.055555541068315506 -0.00842676218599081 0.036741625517606735
			vertex -0.055555541068315506 0.015075021423399448 0.017771286889910698
			vertex -0.055555541068315506 0.011342518962919712 0.0040713525377213955
		endloop
	endfacet
	facet normal -1 0 0
		outer loop
			vertex -0.055555541068315506 -0.00842676218599081 0.036741625517606735
			vertex -0.055555541068315506 0.011342518962919712 0.0040713525377213955
			vertex -0.055555541068315506 0.009232782758772373 0.0033140755258500576
		endloop
	endfacet
	facet normal -1 0 0
		outer loop
			vertex -0.055555541068315506 -0.00842676218599081 0.036741625517606735
			vertex -0.055555541068315506 0.009232782758772373 0.0033140755258500576
			vertex -0.055555541068315506 -0.006795248482376337 0.031908001750707626
		endloop
	endfacet
	facet normal -1 0 0
		outer loop
			vertex -0.055555541068315506 0.008099772967398167 0.036741625517606735
			vertex -0.055555541068315506 0.02024340070784092 0.036741625517606735
			vertex -0.055555541068315506 0.015075021423399448 0.017771286889910698
		endloop
	endfacet
	facet normal -1 0 0
		outer loop
			vertex -0.055555541068315506 0.020398253574967384 -0.015005381777882576
			vertex -0.055555541068315506 0.02873178757727146 -0.019370557740330696
			vertex -0.055555541068315506 0.033398859202861786 -0.03206344321370125
		endloop
	endfacet
	facet normal -1 0 0
		outer loop
			vertex -0.055555541068315506 0.05297718197107315 -0.03674163296818733
			vertex -0.055555541068315506 0.035118989646434784 -0.03674163296818733
			vertex -0.055555541068315506 0.02873178757727146 -0.019370557740330696
		endloop
	endfacet
	facet normal -1 0 0
		outer loop
			vertex -0.055555541068315506 0.05297718197107315 -0.03674163296818733
			vertex -0.055555541068315506 0.02873178757727146 -0.019370557740330696
			vertex -0.055555541068315506 0.05229238420724869 -0.03171180561184883
		endloop
	endfacet
	facet normal -1 0 0
		outer loop
			vertex -0.055555541068315506 0.010513641871511936 0.001029042061418295
			vertex -0.055555541068315506 0.011342518962919712 0.0040713525377213955
			vertex -0.055555541068315506 0.01908985711634159 0.006852251943200827
		endloop
	endfacet
	facet normal -1 0 0
		outer loop
			vertex -0.055555541068315506 0.010513641871511936 0.001029042061418295
			vertex -0.055555541068315506 0.01908985711634159 0.006852251943200827
			vertex -0.055555541068315506 0.02873178757727146 -0.019370557740330696
		endloop
	endfacet
	facet normal -1 0 0
		outer loop
			vertex -0.055555541068315506 0.010513641871511936 0.001029042061418295
			vertex -0.055555541068315506 0.02873178757727146 -0.019370557740330696
			vertex -0.055555541068315506 0.020398253574967384 -0.015005381777882576
		endloop
	endfacet
	facet normal -1 0 0
		outer loop
			vertex -0.055555541068315506 0.010513641871511936 0.001029042061418295
			vertex -0.055555541068315506 0.020398253574967384 -0.015005381777882576
			vertex -0.055555541068315506 0.017008373513817787 -0.010557519271969795
		endloop
	endfacet
	facet normal -1 0 0
		outer loop
			vertex -0.055555541068315506 0.01908985711634159 0.006852251943200827
			vertex -0.055555541068315506 0.011342518962919712 0.0040713525377213955
			vertex -0.055555541068315506 0.015075021423399448 0.017771286889910698
		endloop
	endfacet
	facet normal -1 0 0
		outer loop
			vertex -0.055555541068315506 0.01908985711634159 0.006852251943200827
			vertex -0.055555541068315506 0.045739658176898956 0.0164180975407362
			vertex -0.055555541068315506 0.05229238420724869 -0.03171180561184883
		endloop
	endfacet
	facet normal -1 0 0
		outer loop
			vertex -0.055555541068315506 0.01908985711634159 0.006852251943200827
			vertex -0.055555541068315506 0.05229238420724869 -0.03171180561184883
			vertex -0.055555541068315506 0.02873178757727146 -0.019370557740330696
		endloop
	endfacet
	facet normal -1 0 0
		outer loop
			vertex -0.055555541068315506 0.02024340070784092 0.036741625517606735
			vertex -0.055555541068315506 0.042972661554813385 0.036741625517606735
			vertex -0.055555541068315506 0.045739658176898956 0.0164180975407362
		endloop
	endfacet
	facet normal -1 0 0
		outer loop
			vertex -0.055555541068315506 0.02024340070784092 0.036741625517606735
			vertex -0.055555541068315506 0.045739658176898956 0.0164180975407362
			vertex -0.055555541068315506 0.01908985711634159 0.006852251943200827
		endloop
	endfacet
	facet normal -1 0 0
		outer loop
			vertex -0.055555541068315506 0.02024340070784092 0.036741625517606735
			vertex -0.055555541068315506 0.01908985711634159 0.006852251943200827
			vertex -0.055555541068315506 0.015075021423399448 0.017771286889910698
		endloop
	endfacet
	facet normal -1 0 0
		outer loop
			vertex -0.055555541068315506 0.06189475208520889 -0.03674163296818733
			vertex -0.055555541068315506 0.05297718197107315 -0.03674163296818733
			vertex -0.055555541068315506 0.05229238420724869 -0.03171180561184883
		endloop
	endfacet
	facet normal -1 0 0
		outer loop
			vertex -0.055555541068315506 0.06818649917840958 -0.03674163296818733
			vertex -0.055555541068315506 0.06189475208520889 -0.03674163296818733
			vertex -0.055555541068315506 0.05229238420724869 -0.03171180561184883
		endloop
	endfacet
	facet normal -1 0 0
		outer loop
			vertex -0.055555541068315506 0.06818649917840958 -0.03674163296818733
			vertex -0.055555541068315506 0.05229238420724869 -0.03171180561184883
			vertex -0.055555541068315506 0.045739658176898956 0.0164180975407362
		endloop
	endfacet
	facet normal -1 0 0
		outer loop
			vertex -0.055555541068315506 0.06818649917840958 -0.03674163296818733
			vertex -0.055555541068315506 0.045739658176898956 0.0164180975407362
			vertex -0.055555541068315506 0.06711990386247635 0.024092478677630424
		endloop
	endfacet
	facet normal -1 0 0
		outer loop
			vertex -0.055555541068315506 0.042972661554813385 0.036741625517606735
			vertex -0.055555541068315506 0.06689814478158951 0.036741625517606735
			vertex -0.055555541068315506 0.06711990386247635 0.024092478677630424
		endloop
	endfacet
	facet normal -1 0 0
		outer loop
			vertex -0.055555541068315506 0.042972661554813385 0.036741625517606735
			vertex -0.055555541068315506 0.06711990386247635 0.024092478677630424
			vertex -0.055555541068315506 0.045739658176898956 0.0164180975407362
		endloop
	endfacet
	facet normal -1 0 0
		outer loop
			vertex -0.055555541068315506 0.10202724486589432 -0.03674163296818733
			vertex -0.055555541068315506 0.06818649917840958 -0.03674163296818733
			vertex -0.055555541068315506 0.06711990386247635 0.024092478677630424
		endloop
	endfacet
	facet normal -1 0 0
		outer loop
			vertex -0.055555541068315506 0.10202724486589432 -0.03674163296818733
			vertex -0.055555541068315506 0.06711990386247635 0.024092478677630424
			vertex -0.055555541068315506 0.10202724486589432 0.036622341722249985
		endloop
	endfacet
	facet normal -1 0 0
		outer loop
			vertex -0.055555541068315506 0.06689814478158951 0.036741625517606735
			vertex -0.055555541068315506 0.10202724486589432 0.036741625517606735
			vertex -0.055555541068315506 0.10202724486589432 0.036622341722249985
		endloop
	endfacet
	facet normal -1 0 0
		outer loop
			vertex -0.055555541068315506 0.06689814478158951 0.036741625517606735
			vertex -0.055555541068315506 0.10202724486589432 0.036622341722249985
			vertex -0.055555541068315506 0.06711990386247635 0.024092478677630424
		endloop
	endfacet
	facet normal 0 0 1
		outer loop
			vertex -0.009998341090977192 0.010716968216001987 0.036741625517606735
			vertex -0.012557794339954853 0.011252173222601414 0.036741625517606735
			vertex -0.031465936452150345 0.0025984137319028378 0.036741625517606735
		endloop
	endfacet
	facet normal 0 0 1
		outer loop
			vertex -0.055555541068315506 0.008099772967398167 0.036741625517606735
			vertex -0.055555541068315506 -0.00842676218599081 0.036741625517606735
			vertex -0.012557794339954853 0.011252173222601414 0.036741625517606735
		endloop
	endfacet
	facet normal 0 0 1
		outer loop
			vertex -0.055555541068315506 0.008099772967398167 0.036741625517606735
			vertex -0.012557794339954853 0.011252173222601414 0.036741625517606735
			vertex -0.03725891187787056 0.016417423263192177 0.036741625517606735
		endloop
	endfacet
	facet normal 0 0 1
		outer loop
			vertex -0.055555541068315506 0.02024340070784092 0.036741625517606735
			vertex -0.055555541068315506 0.008099772967398167 0.036741625517606735
			vertex -0.03725891187787056 0.016417423263192177 0.036741625517606735
		endloop
	endfacet
	facet normal 0 0 1
		outer loop
			vertex -0.012557794339954853 0.011252173222601414 0.036741625517606735
			vertex -0.009998341090977192 0.010716968216001987 0.036741625517606735
			vertex 0.009901056997478008 0.01824244298040867 0.036741625517606735
		endloop
	endfacet
	facet normal 0 0 1
		outer loop
			vertex -0.012557794339954853 0.011252173222601414 0.036741625517606735
			vertex 0.009901056997478008 0.01824244298040867 0.036741625517606735
			vertex 0.012275825254619122 0.022617870941758156 0.036741625517606735
		endloop
	endfacet
	facet normal 0 0 1
		outer loop
			vertex 0.04334576055407524 0.031343720853328705 0.036741625517606735
			vertex 0.015305290929973125 0.024004364386200905 0.036741625517606735
			vertex 0.012275825254619122 0.022617870941758156 0.036741625517606735
		endloop
	endfacet
	facet normal 0 0 1
		outer loop
			vertex 0.04334576055407524 0.031343720853328705 0.036741625517606735
			vertex 0.012275825254619122 0.022617870941758156 0.036741625517606735
			vertex 0.009901056997478008 0.01824244298040867 0.036741625517606735
		endloop
	endfacet
	facet normal 0 0 1
		outer loop
			vertex 0.04334576055407524 0.031343720853328705 0.036741625517606735
			vertex 0.009901056997478008 0.01824244298040867 0.036741625517606735
			vertex 0.0429731123149395 0.03074950911104679 0.036741625517606735
		endloop
	endfacet
	facet normal 0 0 1
		outer loop
			vertex -0.024152209982275963 0.013676666654646397 0.036741625517606735
			vertex -0.012557794339954853 0.011252173222601414 0.036741625517606735
			vertex 0.012275825254619122 0.022617870941758156 0.036741625517606735
		endloop
	endfacet
	facet normal 0 0 1
		outer loop
			vertex -0.024152209982275963 0.013676666654646397 0.036741625517606735
			vertex 0.012275825254619122 0.022617870941758156 0.036741625517606735
			vertex 0.012651304714381695 0.023309702053666115 0.036741625517606735
		endloop
	endfacet
	facet normal 0 0 1
		outer loop
			vertex 0.015305290929973125 0.024004364386200905 0.036741625517606735
			vertex 0.012651304714381695 0.023309702053666115 0.036741625517606735
			vertex 0.012275825254619122 0.022617870941758156 0.036741625517606735
		endloop
	endfacet
	facet normal 0 0 1
		outer loop
			vertex 0.015305290929973125 0.024004364386200905 0.036741625517606735
			vertex 0.04334576055407524 0.031343720853328705 0.036741625517606735
			vertex 0.04817850515246391 0.03904957324266434 0.036741625517606735
		endloop
	endfacet
	facet normal 0 0 1
		outer loop
			vertex -0.03725891187787056 0.016417423263192177 0.036741625517606735
			vertex -0.024152209982275963 0.013676666654646397 0.036741625517606735
			vertex 0.012651304714381695 0.023309702053666115 0.036741625517606735
		endloop
	endfacet
	facet normal 0 0 1
		outer loop
			vertex -0.03725891187787056 0.016417423263192177 0.036741625517606735
			vertex 0.012651304714381695 0.023309702053666115 0.036741625517606735
			vertex 0.024033406749367714 0.044280894100666046 0.036741625517606735
		endloop
	endfacet
	facet normal 0 0 1
		outer loop
			vertex 0.055374275892972946 0.05052325874567032 0.036741625517606735
			vertex 0.03466407582163811 0.04911357909440994 0.036741625517606735
			vertex 0.024033406749367714 0.044280894100666046 0.036741625517606735
		endloop
	endfacet
	facet normal 0 0 1
		outer loop
			vertex 0.055374275892972946 0.05052325874567032 0.036741625517606735
			vertex 0.024033406749367714 0.044280894100666046 0.036741625517606735
			vertex 0.012651304714381695 0.023309702053666115 0.036741625517606735
		endloop
	endfacet
	facet normal 0 0 1
		outer loop
			vertex 0.055374275892972946 0.05052325874567032 0.036741625517606735
			vertex 0.012651304714381695 0.023309702053666115 0.036741625517606735
			vertex 0.015305290929973125 0.024004364386200905 0.036741625517606735
		endloop
	endfacet
	facet normal 0 0 1
		outer loop
			vertex 0.055374275892972946 0.05052325874567032 0.036741625517606735
			vertex 0.015305290929973125 0.024004364386200905 0.036741625517606735
			vertex 0.04817850515246391 0.03904957324266434 0.036741625517606735
		endloop
	endfacet
	facet normal 0 0 1
		outer loop
			vertex -0.055555541068315506 0.042972661554813385 0.036741625517606735
			vertex -0.055555541068315506 0.02024340070784092 0.036741625517606735
			vertex -0.03725891187787056 0.016417423263192177 0.036741625517606735
		endloop
	endfacet
	facet normal 0 0 1
		outer loop
			vertex -0.055555541068315506 0.042972661554813385 0.036741625517606735
			vertex -0.03725891187787056 0.016417423263192177 0.036741625517606735
			vertex 0.024033406749367714 0.044280894100666046 0.036741625517606735
		endloop
	endfacet
	facet normal 0 0 1
		outer loop
			vertex -0.055555541068315506 0.042972661554813385 0.036741625517606735
			vertex 0.024033406749367714 0.044280894100666046 0.036741625517606735
			vertex 0.02634916640818119 0.04854763299226761 0.036741625517606735
		endloop
	endfacet
	facet normal 0 0 1
		outer loop
			vertex 0.03466407582163811 0.04911357909440994 0.036741625517606735
			vertex 0.02634916640818119 0.04854763299226761 0.036741625517606735
			vertex 0.024033406749367714 0.044280894100666046 0.036741625517606735
		endloop
	endfacet
	facet normal 0 0 1
		outer loop
			vertex -0.055555541068315506 0.06689814478158951 0.036741625517606735
			vertex -0.055555541068315506 0.042972661554813385 0.036741625517606735
			vertex 0.02634916640818119 0.04854763299226761 0.036741625517606735
		endloop
	endfacet
	facet normal 0 0 1
		outer loop
			vertex -0.055555541068315506 0.06689814478158951 0.036741625517606735
			vertex 0.02634916640818119 0.04854763299226761 0.036741625517606735
			vertex 0.04861418530344963 0.08957026153802872 0.036741625517606735
		endloop
	endfacet
	facet normal 0 0 1
		outer loop
			vertex 0.0555555634200573 0.050812311470508575 0.036741625517606735
			vertex 0.0555555634200573 0.09108103066682816 0.036741625517606735
			vertex 0.04861418530344963 0.08957026153802872 0.036741625517606735
		endloop
	endfacet
	facet normal 0 0 1
		outer loop
			vertex 0.0555555634200573 0.050812311470508575 0.036741625517606735
			vertex 0.04861418530344963 0.08957026153802872 0.036741625517606735
			vertex 0.02634916640818119 0.04854763299226761 0.036741625517606735
		endloop
	endfacet
	facet normal 0 0 1
		outer loop
			vertex 0.0555555634200573 0.050812311470508575 0.036741625517606735
			vertex 0.02634916640818119 0.04854763299226761 0.036741625517606735
			vertex 0.055374275892972946 0.05052325874567032 0.036741625517606735
		endloop
	endfacet
	facet normal 0 0 1
		outer loop
			vertex -0.055555541068315506 0.10202724486589432 0.036741625517606735
			vertex -0.055555541068315506 0.06689814478158951 0.036741625517606735
			vertex 0.04861418530344963 0.08957026153802872 0.036741625517606735
		endloop
	endfacet
	facet normal 0 0 1
		outer loop
			vertex -0.055555541068315506 0.10202724486589432 0.036741625517606735
			vertex 0.04861418530344963 0.08957026153802872 0.036741625517606735
			vertex 0.055375199764966965 0.10202724486589432 0.036741625517606735
		endloop
	endfacet
	facet normal 0 0 1
		outer loop
			vertex 0.0555555634200573 0.09108103066682816 0.036741625517606735
			vertex 0.0555555634200573 0.10202724486589432 0.036741625517606735
			vertex 0.055375199764966965 0.10202724486589432 0.036741625517606735
		endloop
	endfacet
	facet normal 0 0 1
		outer loop
			vertex 0.0555555634200573 0.09108103066682816 0.036741625517606735
			vertex 0.055375199764966965 0.10202724486589432 0.036741625517606735
			vertex 0.04861418530344963 0.08957026153802872 0.036741625517606735
		endloop
	endfacet
	facet normal 0 0 -1
		outer loop
			vertex -0.023157497867941856 0.042667098343372345 -0.03674163296818733
			vertex -0.026283254846930504 0.04842618852853775 -0.03674163296818733
			vertex -0.009354670532047749 0.05612189322710037 -0.03674163296818733
		endloop
	endfacet
	facet normal 0 0 -1
		outer loop
			vertex -0.023157497867941856 0.042667098343372345 -0.03674163296818733
			vertex -0.009354670532047749 0.05612189322710037 -0.03674163296818733
			vertex 0.021053770557045937 0.0581916943192482 -0.03674163296818733
		endloop
	endfacet
	facet normal 0 0 -1
		outer loop
			vertex -0.023157497867941856 0.042667098343372345 -0.03674163296818733
			vertex 0.021053770557045937 0.0581916943192482 -0.03674163296818733
			vertex 0.020318875089287758 0.05740366131067276 -0.03674163296818733
		endloop
	endfacet
	facet normal 0 0 -1
		outer loop
			vertex -0.050758082419633865 0.03729989379644394 -0.03674163296818733
			vertex -0.026283254846930504 0.04842618852853775 -0.03674163296818733
			vertex -0.023157497867941856 0.042667098343372345 -0.03674163296818733
		endloop
	endfacet
	facet normal 0 0 -1
		outer loop
			vertex -0.050758082419633865 0.03729989379644394 -0.03674163296818733
			vertex -0.023157497867941856 0.042667098343372345 -0.03674163296818733
			vertex -0.03593190386891365 0.03833714872598648 -0.03674163296818733
		endloop
	endfacet
	facet normal 0 0 -1
		outer loop
			vertex -0.026283254846930504 0.04842618852853775 -0.03674163296818733
			vertex -0.029708167538046837 0.05473650246858597 -0.03674163296818733
			vertex -0.009354670532047749 0.05612189322710037 -0.03674163296818733
		endloop
	endfacet
	facet normal 0 0 -1
		outer loop
			vertex -0.055555541068315506 0.035118989646434784 -0.03674163296818733
			vertex -0.055555541068315506 0.05297718197107315 -0.03674163296818733
			vertex -0.029708167538046837 0.05473650246858597 -0.03674163296818733
		endloop
	endfacet
	facet normal 0 0 -1
		outer loop
			vertex -0.055555541068315506 0.035118989646434784 -0.03674163296818733
			vertex -0.029708167538046837 0.05473650246858597 -0.03674163296818733
			vertex -0.026283254846930504 0.04842618852853775 -0.03674163296818733
		endloop
	endfacet
	facet normal 0 0 -1
		outer loop
			vertex 0.021053770557045937 0.0581916943192482 -0.03674163296818733
			vertex 0.006261626724153757 0.0571848526597023 -0.03674163296818733
			vertex 0.005580405239015818 0.06291136890649796 -0.03674163296818733
		endloop
	endfacet
	facet normal 0 0 -1
		outer loop
			vertex 0.021053770557045937 0.0581916943192482 -0.03674163296818733
			vertex 0.005580405239015818 0.06291136890649796 -0.03674163296818733
			vertex 0.040082287043333054 0.07859594374895096 -0.03674163296818733
		endloop
	endfacet
	facet normal 0 0 -1
		outer loop
			vertex 0.0555555634200573 0.10202724486589432 -0.03674163296818733
			vertex 0.0555555634200573 0.09518790990114212 -0.03674163296818733
			vertex 0.040082287043333054 0.07859594374895096 -0.03674163296818733
		endloop
	endfacet
	facet normal 0 0 -1
		outer loop
			vertex 0.0555555634200573 0.10202724486589432 -0.03674163296818733
			vertex 0.040082287043333054 0.07859594374895096 -0.03674163296818733
			vertex 0.005580405239015818 0.06291136890649796 -0.03674163296818733
		endloop
	endfacet
	facet normal 0 0 -1
		outer loop
			vertex 0.0555555634200573 0.10202724486589432 -0.03674163296818733
			vertex 0.005580405239015818 0.06291136890649796 -0.03674163296818733
			vertex 0.004550198558717966 0.0715714767575264 -0.03674163296818733
		endloop
	endfacet
	facet normal 0 0 -1
		outer loop
			vertex 0.0555555634200573 0.10202724486589432 -0.03674163296818733
			vertex 0.004550198558717966 0.0715714767575264 -0.03674163296818733
			vertex 0.05507032200694084 0.10202724486589432 -0.03674163296818733
		endloop
	endfacet
	facet normal 0 0 -1
		outer loop
			vertex 0.004550198558717966 0.0715714767575264 -0.03674163296818733
			vertex 0.0009271602029912174 0.10202724486589432 -0.03674163296818733
			vertex 0.05507032200694084 0.10202724486589432 -0.03674163296818733
		endloop
	endfacet
	facet normal 0 0 -1
		outer loop
			vertex 0.006261626724153757 0.0571848526597023 -0.03674163296818733
			vertex -0.029708167538046837 0.05473650246858597 -0.03674163296818733
			vertex -0.03727613762021065 0.06868026405572891 -0.03674163296818733
		endloop
	endfacet
	facet normal 0 0 -1
		outer loop
			vertex 0.006261626724153757 0.0571848526597023 -0.03674163296818733
			vertex -0.03727613762021065 0.06868026405572891 -0.03674163296818733
			vertex 0.0031106870155781507 0.08367232233285904 -0.03674163296818733
		endloop
	endfacet
	facet normal 0 0 -1
		outer loop
			vertex -0.055555541068315506 0.05297718197107315 -0.03674163296818733
			vertex -0.055555541068315506 0.06189475208520889 -0.03674163296818733
			vertex -0.03727613762021065 0.06868026405572891 -0.03674163296818733
		endloop
	endfacet
	facet normal 0 0 -1
		outer loop
			vertex -0.055555541068315506 0.05297718197107315 -0.03674163296818733
			vertex -0.03727613762021065 0.06868026405572891 -0.03674163296818733
			vertex -0.029708167538046837 0.05473650246858597 -0.03674163296818733
		endloop
	endfacet
	facet normal 0 0 -1
		outer loop
			vertex -0.03727613762021065 0.06868026405572891 -0.03674163296818733
			vertex -0.03896762803196907 0.07179678231477737 -0.03674163296818733
			vertex -0.01458453107625246 0.07710368186235428 -0.03674163296818733
		endloop
	endfacet
	facet normal 0 0 -1
		outer loop
			vertex -0.055555541068315506 0.06189475208520889 -0.03674163296818733
			vertex -0.055555541068315506 0.06818649917840958 -0.03674163296818733
			vertex -0.03896762803196907 0.07179678231477737 -0.03674163296818733
		endloop
	endfacet
	facet normal 0 0 -1
		outer loop
			vertex -0.055555541068315506 0.06189475208520889 -0.03674163296818733
			vertex -0.03896762803196907 0.07179678231477737 -0.03674163296818733
			vertex -0.03727613762021065 0.06868026405572891 -0.03674163296818733
		endloop
	endfacet
	facet normal 0 0 -1
		outer loop
			vertex -0.03896762803196907 0.07179678231477737 -0.03674163296818733
			vertex -0.055375177413225174 0.10202724486589432 -0.03674163296818733
			vertex 0.0009271602029912174 0.10202724486589432 -0.03674163296818733
		endloop
	endfacet
	facet normal 0 0 -1
		outer loop
			vertex -0.03896762803196907 0.07179678231477737 -0.03674163296818733
			vertex 0.0009271602029912174 0.10202724486589432 -0.03674163296818733
			vertex 0.0031106870155781507 0.08367232233285904 -0.03674163296818733
		endloop
	endfacet
	facet normal 0 0 -1
		outer loop
			vertex -0.03896762803196907 0.07179678231477737 -0.03674163296818733
			vertex 0.0031106870155781507 0.08367232233285904 -0.03674163296818733
			vertex -0.01458453107625246 0.07710368186235428 -0.03674163296818733
		endloop
	endfacet
	facet normal 0 0 -1
		outer loop
			vertex -0.055555541068315506 0.06818649917840958 -0.03674163296818733
			vertex -0.055555541068315506 0.10202724486589432 -0.03674163296818733
			vertex -0.055375177413225174 0.10202724486589432 -0.03674163296818733
		endloop
	endfacet
	facet normal 0 0 -1
		outer loop
			vertex -0.055555541068315506 0.06818649917840958 -0.03674163296818733
			vertex -0.055375177413225174 0.10202724486589432 -0.03674163296818733
			vertex -0.03896762803196907 0.07179678231477737 -0.03674163296818733
		endloop
	endfacet
endsolid exported
