solid exported
	facet normal 0 1 0
		outer loop
			vertex -0.04934981092810631 0.10202724486589432 0.03674162179231644
			vertex -0.0555555485188961 0.10202724486589432 0.029058344662189484
			vertex -0.0555555485188961 0.10202724486589432 0.03674162179231644
		endloop
	endfacet
	facet normal 0.739943076155463 -0.3087116569556479 -0.5976465150147613
		outer loop
			vertex -0.04955240711569786 0.1015416756272316 0.03674162179231644
			vertex -0.0555555485188961 0.10002157837152481 0.030094362795352936
			vertex -0.0555555485188961 0.10202724486589432 0.029058344662189484
		endloop
	endfacet
	facet normal 0.7399384497934244 -0.30872777153966113 -0.5976439187320982
		outer loop
			vertex -0.04955240711569786 0.1015416756272316 0.03674162179231644
			vertex -0.0555555485188961 0.10202724486589432 0.029058344662189484
			vertex -0.04934981092810631 0.10202724486589432 0.03674162179231644
		endloop
	endfacet
	facet normal 0.6458402736132804 -0.6022968168067039 -0.4691789482102056
		outer loop
			vertex -0.0555555485188961 0.09518790990114212 0.03674162179231644
			vertex -0.0555555485188961 0.09935734421014786 0.03138921409845352
			vertex -0.04988452419638634 0.10126892477273941 0.03674162179231644
		endloop
	endfacet
	facet normal 0.5899862067722652 -0.7184010367428019 -0.3685325307558903
		outer loop
			vertex -0.0555555485188961 0.10002157837152481 0.030094362795352936
			vertex -0.04955240711569786 0.1015416756272316 0.03674162179231644
			vertex -0.04988452419638634 0.10126892477273941 0.03674162179231644
		endloop
	endfacet
	facet normal 0.5899826949217308 -0.7184059286815728 -0.36852861670168696
		outer loop
			vertex -0.0555555485188961 0.10002157837152481 0.030094362795352936
			vertex -0.04988452419638634 0.10126892477273941 0.03674162179231644
			vertex -0.0555555485188961 0.09935734421014786 0.03138921409845352
		endloop
	endfacet
	facet normal -1 0 0
		outer loop
			vertex -0.0555555485188961 0.09935734421014786 0.03138921409845352
			vertex -0.0555555485188961 0.10059792548418045 0.029796667397022247
			vertex -0.0555555485188961 0.10002157837152481 0.030094362795352936
		endloop
	endfacet
	facet normal -1 0 0
		outer loop
			vertex -0.0555555485188961 0.09675503522157669 0.03472987562417984
			vertex -0.0555555485188961 0.10202724486589432 0.03662235289812088
			vertex -0.0555555485188961 0.10202724486589432 0.029058344662189484
		endloop
	endfacet
	facet normal -1 0 0
		outer loop
			vertex -0.0555555485188961 0.09675503522157669 0.03472987562417984
			vertex -0.0555555485188961 0.10202724486589432 0.029058344662189484
			vertex -0.0555555485188961 0.10059792548418045 0.029796667397022247
		endloop
	endfacet
	facet normal -1 0 0
		outer loop
			vertex -0.0555555485188961 0.09518790990114212 0.03674162179231644
			vertex -0.0555555485188961 0.10202724486589432 0.03674162179231644
			vertex -0.0555555485188961 0.10202724486589432 0.03662235289812088
		endloop
	endfacet
	facet normal -1 0 0
		outer loop
			vertex -0.0555555485188961 0.09518790990114212 0.03674162179231644
			vertex -0.0555555485188961 0.10202724486589432 0.03662235289812088
			vertex -0.0555555485188961 0.09675503522157669 0.03472987562417984
		endloop
	endfacet
	facet normal 0 0 1
		outer loop
			vertex -0.04955240711569786 0.1015416756272316 0.03674162179231644
			vertex -0.04948946461081505 0.1016925647854805 0.03674162179231644
			vertex -0.04988452419638634 0.10126892477273941 0.03674162179231644
		endloop
	endfacet
	facet normal 0 0 1
		outer loop
			vertex -0.0555555485188961 0.10202724486589432 0.03674162179231644
			vertex -0.0555555485188961 0.09518790990114212 0.03674162179231644
			vertex -0.04948946461081505 0.1016925647854805 0.03674162179231644
		endloop
	endfacet
	facet normal 0 0 1
		outer loop
			vertex -0.0555555485188961 0.10202724486589432 0.03674162179231644
			vertex -0.04948946461081505 0.1016925647854805 0.03674162179231644
			vertex -0.04934981092810631 0.10202724486589432 0.03674162179231644
		endloop
	endfacet
endsolid exported
