solid exported
	facet normal 0.21743015501072277 0.9335467848982762 0.28498162765010826
		outer loop
			vertex -0.0014820960350334644 0.09911257773637772 0.036741625517606735
			vertex 0.02082640305161476 0.10202724486589432 0.01017318107187748
			vertex -0.013996358960866928 0.10202724486589432 0.036741625517606735
		endloop
	endfacet
	facet normal 0.6605419248008512 -0.5667159610350572 0.49246054165638325
		outer loop
			vertex 0.02082640305161476 0.10202724486589432 0.01017318107187748
			vertex -0.0014820960350334644 0.09911257773637772 0.036741625517606735
			vertex -0.019672837108373642 0.0779101625084877 0.036741625517606735
		endloop
	endfacet
	facet normal 0.6605419562682345 -0.5667155900229335 0.4924609264036004
		outer loop
			vertex 0.02082640305161476 0.10202724486589432 0.01017318107187748
			vertex -0.019672837108373642 0.0779101625084877 0.036741625517606735
			vertex -0.031516578048467636 0.04636091738939285 0.01632140390574932
		endloop
	endfacet
	facet normal 0.411212179103772 -0.5990594688367091 0.6870460658164104
		outer loop
			vertex -0.0555555485188961 0.05327928811311722 0.036741625517606735
			vertex -0.0555555485188961 0.04665229469537735 0.030963318422436714
			vertex -0.031516578048467636 0.04636091738939285 0.01632140390574932
		endloop
	endfacet
	facet normal 0.4112114928029789 -0.5990604754053225 0.687045598918947
		outer loop
			vertex -0.0555555485188961 0.05327928811311722 0.036741625517606735
			vertex -0.031516578048467636 0.04636091738939285 0.01632140390574932
			vertex -0.019672837108373642 0.0779101625084877 0.036741625517606735
		endloop
	endfacet
	facet normal 0 1 0
		outer loop
			vertex -0.0555555485188961 0.10202724486589432 -0.036741629242897034
			vertex -0.0555555485188961 0.10202724486589432 0.036741625517606735
			vertex -0.013996358960866928 0.10202724486589432 0.036741625517606735
		endloop
	endfacet
	facet normal 0 1 0
		outer loop
			vertex -0.0555555485188961 0.10202724486589432 -0.036741629242897034
			vertex -0.013996358960866928 0.10202724486589432 0.036741625517606735
			vertex 0.02082640305161476 0.10202724486589432 0.01017318107187748
		endloop
	endfacet
	facet normal 0 1 0
		outer loop
			vertex -0.0555555485188961 0.10202724486589432 -0.036741629242897034
			vertex 0.02082640305161476 0.10202724486589432 0.01017318107187748
			vertex 0.0040769013576209545 0.10202724486589432 -0.036741629242897034
		endloop
	endfacet
	facet normal 0 1 0
		outer loop
			vertex 0.011099640280008316 0.10202724486589432 -0.036741629242897034
			vertex 0.0040769013576209545 0.10202724486589432 -0.036741629242897034
			vertex 0.02082640305161476 0.10202724486589432 0.01017318107187748
		endloop
	endfacet
	facet normal 0.5866073209825696 -0.6781684833200562 0.44269556040356617
		outer loop
			vertex 0.0270577110350132 0.10218045860528946 -0.036741629242897034
			vertex 0.024648252874612808 0.1021934226155281 -0.033529043197631836
			vertex 0.02454141154885292 0.10202724486589432 -0.03364203870296478
		endloop
	endfacet
	facet normal 0.586582628621858 -0.6782040740183474 0.4426737554723428
		outer loop
			vertex 0.0270577110350132 0.10218045860528946 -0.036741629242897034
			vertex 0.02454141154885292 0.10202724486589432 -0.03364203870296478
			vertex 0.026880566030740738 0.10202724486589432 -0.036741629242897034
		endloop
	endfacet
	facet normal 0.8170383504639117 -0.5724065794792003 0.06927511559089991
		outer loop
			vertex 0.02454141154885292 0.10202724486589432 -0.03364203870296478
			vertex 0.024648252874612808 0.1021934226155281 -0.033529043197631836
			vertex 0.02082640305161476 0.10202724486589432 0.01017318107187748
		endloop
	endfacet
	facet normal -0.012898325348734993 0.9999132372027655 0.0026741858358430605
		outer loop
			vertex 0.01450074091553688 0.10202724486589432 -0.02033720724284649
			vertex 0.02082640305161476 0.10202724486589432 0.01017318107187748
			vertex 0.024648252874612808 0.1021934226155281 -0.033529043197631836
		endloop
	endfacet
	facet normal -0.012898136487323797 0.9999132397388515 0.0026741484828929642
		outer loop
			vertex 0.023691270500421524 0.10218966752290726 -0.036741629242897034
			vertex 0.011099640280008316 0.10202724486589432 -0.036741629242897034
			vertex 0.01450074091553688 0.10202724486589432 -0.02033720724284649
		endloop
	endfacet
	facet normal -0.012899010425672095 0.9999132297748933 0.0026736587628273653
		outer loop
			vertex 0.023691270500421524 0.10218966752290726 -0.036741629242897034
			vertex 0.01450074091553688 0.10202724486589432 -0.02033720724284649
			vertex 0.024648252874612808 0.1021934226155281 -0.033529043197631836
		endloop
	endfacet
	facet normal 0.003783207559647373 0.9999921261305978 -0.0011979221040055964
		outer loop
			vertex 0.025111977010965347 0.10218781977891922 -0.036741629242897034
			vertex 0.024648252874612808 0.1021934226155281 -0.033529043197631836
			vertex 0.0270577110350132 0.10218045860528946 -0.036741629242897034
		endloop
	endfacet
	facet normal 0.0013005783910563229 0.9999979432265479 -0.001556289986796924
		outer loop
			vertex 0.025111977010965347 0.10218781977891922 -0.036741629242897034
			vertex 0.023691270500421524 0.10218966752290726 -0.036741629242897034
			vertex 0.024648252874612808 0.1021934226155281 -0.033529043197631836
		endloop
	endfacet
	facet normal 0.1834005225609309 -0.9296325598735024 0.3196053065069736
		outer loop
			vertex -0.0555555485188961 0.03984331339597702 0.011158106848597527
			vertex -0.031516578048467636 0.04636091738939285 0.01632140390574932
			vertex -0.0555555485188961 0.04665229469537735 0.030963318422436714
		endloop
	endfacet
	facet normal 0.2529857316715772 -0.9665477904457871 0.04223255089340422
		outer loop
			vertex -0.018378134816884995 0.047481246292591095 -0.036741629242897034
			vertex -0.031516578048467636 0.04636091738939285 0.01632140390574932
			vertex -0.0555555485188961 0.03984331339597702 0.011158106848597527
		endloop
	endfacet
	facet normal 0.252986151682052 -0.9665476653962236 0.042232896824816554
		outer loop
			vertex -0.018378134816884995 0.047481246292591095 -0.036741629242897034
			vertex -0.0555555485188961 0.03984331339597702 0.011158106848597527
			vertex -0.0555555485188961 0.038499243557453156 -0.019602453336119652
		endloop
	endfacet
	facet normal 0.2529861798732263 -0.9665476551099019 0.04223296336633091
		outer loop
			vertex -0.018378134816884995 0.047481246292591095 -0.036741629242897034
			vertex -0.0555555485188961 0.038499243557453156 -0.019602453336119652
			vertex -0.040167566388845444 0.04177803546190262 -0.036741629242897034
		endloop
	endfacet
	facet normal 0.28993195238062797 -0.9538775181196157 0.07782765199284712
		outer loop
			vertex -0.040167566388845444 0.04177803546190262 -0.036741629242897034
			vertex -0.0555555485188961 0.038499243557453156 -0.019602453336119652
			vertex -0.0555555485188961 0.03710084408521652 -0.036741629242897034
		endloop
	endfacet
	facet normal 0.5865702915741857 -0.6782208210189019 0.4426644451263522
		outer loop
			vertex 0.026880566030740738 0.10202724486589432 -0.036741629242897034
			vertex 0.02454141154885292 0.10202724486589432 -0.03364203870296478
			vertex 0.021610114723443985 0.09746900945901871 -0.036741629242897034
		endloop
	endfacet
	facet normal 0.7274897081073884 -0.6657165550732759 0.1660728541911562
		outer loop
			vertex -0.018378134816884995 0.047481246292591095 -0.036741629242897034
			vertex 0.00279715983197093 0.07062143832445145 -0.036741629242897034
			vertex 0.02082640305161476 0.10202724486589432 0.01017318107187748
		endloop
	endfacet
	facet normal 0.7274903907535587 -0.6657160871174822 0.16607173966157932
		outer loop
			vertex -0.018378134816884995 0.047481246292591095 -0.036741629242897034
			vertex 0.02082640305161476 0.10202724486589432 0.01017318107187748
			vertex -0.031516578048467636 0.04636091738939285 0.01632140390574932
		endloop
	endfacet
	facet normal 0.8169830174375494 -0.5724862251826901 0.06926955460165156
		outer loop
			vertex 0.00279715983197093 0.07062143832445145 -0.036741629242897034
			vertex 0.021610114723443985 0.09746900945901871 -0.036741629242897034
			vertex 0.02454141154885292 0.10202724486589432 -0.03364203870296478
		endloop
	endfacet
	facet normal 0.8169829281031832 -0.5724862483892927 0.06927041643517043
		outer loop
			vertex 0.00279715983197093 0.07062143832445145 -0.036741629242897034
			vertex 0.02454141154885292 0.10202724486589432 -0.03364203870296478
			vertex 0.02082640305161476 0.10202724486589432 0.01017318107187748
		endloop
	endfacet
	facet normal -1 0 0
		outer loop
			vertex -0.0555555485188961 0.037750355899333954 -0.036741629242897034
			vertex -0.0555555485188961 0.03710084408521652 -0.036741629242897034
			vertex -0.0555555485188961 0.038499243557453156 -0.019602453336119652
		endloop
	endfacet
	facet normal -1 0 0
		outer loop
			vertex -0.0555555485188961 0.04053109139204025 -0.036741629242897034
			vertex -0.0555555485188961 0.037750355899333954 -0.036741629242897034
			vertex -0.0555555485188961 0.03842597454786301 -0.021279437467455864
		endloop
	endfacet
	facet normal -1 0 0
		outer loop
			vertex -0.0555555485188961 0.038839660584926605 -0.024318022653460503
			vertex -0.0555555485188961 0.03842597454786301 -0.021279437467455864
			vertex -0.0555555485188961 0.03984331339597702 0.011158106848597527
		endloop
	endfacet
	facet normal -1 0 0
		outer loop
			vertex -0.0555555485188961 0.038839660584926605 -0.024318022653460503
			vertex -0.0555555485188961 0.03984331339597702 0.011158106848597527
			vertex -0.0555555485188961 0.041076190769672394 0.014744153246283531
		endloop
	endfacet
	facet normal -1 0 0
		outer loop
			vertex -0.0555555485188961 0.038839660584926605 -0.024318022653460503
			vertex -0.0555555485188961 0.041076190769672394 0.014744153246283531
			vertex -0.0555555485188961 0.07145107537508011 0.025647113099694252
		endloop
	endfacet
	facet normal -1 0 0
		outer loop
			vertex -0.0555555485188961 0.05327928811311722 0.036741625517606735
			vertex -0.0555555485188961 0.07869226485490799 0.036741625517606735
			vertex -0.0555555485188961 0.07145107537508011 0.025647113099694252
		endloop
	endfacet
	facet normal -1 0 0
		outer loop
			vertex -0.0555555485188961 0.05327928811311722 0.036741625517606735
			vertex -0.0555555485188961 0.07145107537508011 0.025647113099694252
			vertex -0.0555555485188961 0.041076190769672394 0.014744153246283531
		endloop
	endfacet
	facet normal -1 0 0
		outer loop
			vertex -0.0555555485188961 0.05327928811311722 0.036741625517606735
			vertex -0.0555555485188961 0.041076190769672394 0.014744153246283531
			vertex -0.0555555485188961 0.04665229469537735 0.030963318422436714
		endloop
	endfacet
	facet normal -1 0 0
		outer loop
			vertex -0.0555555485188961 0.052405066788196564 -0.036741629242897034
			vertex -0.0555555485188961 0.04053109139204025 -0.036741629242897034
			vertex -0.0555555485188961 0.038839660584926605 -0.024318022653460503
		endloop
	endfacet
	facet normal -1 0 0
		outer loop
			vertex -0.0555555485188961 0.052405066788196564 -0.036741629242897034
			vertex -0.0555555485188961 0.038839660584926605 -0.024318022653460503
			vertex -0.0555555485188961 0.054034121334552765 -0.0010380205931141973
		endloop
	endfacet
	facet normal -1 0 0
		outer loop
			vertex -0.0555555485188961 0.08979267627000809 -0.036741629242897034
			vertex -0.0555555485188961 0.052405066788196564 -0.036741629242897034
			vertex -0.0555555485188961 0.054034121334552765 -0.0010380205931141973
		endloop
	endfacet
	facet normal -1 0 0
		outer loop
			vertex -0.0555555485188961 0.08979267627000809 -0.036741629242897034
			vertex -0.0555555485188961 0.054034121334552765 -0.0010380205931141973
			vertex -0.0555555485188961 0.07145107537508011 0.025647113099694252
		endloop
	endfacet
	facet normal -1 0 0
		outer loop
			vertex -0.0555555485188961 0.08979267627000809 -0.036741629242897034
			vertex -0.0555555485188961 0.07145107537508011 0.025647113099694252
			vertex -0.0555555485188961 0.08859095722436905 0.031799424439668655
		endloop
	endfacet
	facet normal -1 0 0
		outer loop
			vertex -0.0555555485188961 0.07869226485490799 0.036741625517606735
			vertex -0.0555555485188961 0.08850432187318802 0.036741625517606735
			vertex -0.0555555485188961 0.08859095722436905 0.031799424439668655
		endloop
	endfacet
	facet normal -1 0 0
		outer loop
			vertex -0.0555555485188961 0.07869226485490799 0.036741625517606735
			vertex -0.0555555485188961 0.08859095722436905 0.031799424439668655
			vertex -0.0555555485188961 0.07145107537508011 0.025647113099694252
		endloop
	endfacet
	facet normal -1 0 0
		outer loop
			vertex -0.0555555485188961 0.10202724486589432 -0.036741629242897034
			vertex -0.0555555485188961 0.08979267627000809 -0.036741629242897034
			vertex -0.0555555485188961 0.08859095722436905 0.031799424439668655
		endloop
	endfacet
	facet normal -1 0 0
		outer loop
			vertex -0.0555555485188961 0.10202724486589432 -0.036741629242897034
			vertex -0.0555555485188961 0.08859095722436905 0.031799424439668655
			vertex -0.0555555485188961 0.10202724486589432 0.03662233054637909
		endloop
	endfacet
	facet normal -1 0 0
		outer loop
			vertex -0.0555555485188961 0.08850432187318802 0.036741625517606735
			vertex -0.0555555485188961 0.10202724486589432 0.036741625517606735
			vertex -0.0555555485188961 0.10202724486589432 0.03662233054637909
		endloop
	endfacet
	facet normal -1 0 0
		outer loop
			vertex -0.0555555485188961 0.08850432187318802 0.036741625517606735
			vertex -0.0555555485188961 0.10202724486589432 0.03662233054637909
			vertex -0.0555555485188961 0.08859095722436905 0.031799424439668655
		endloop
	endfacet
	facet normal 0 0 1
		outer loop
			vertex -0.0555555485188961 0.07869226485490799 0.036741625517606735
			vertex -0.0555555485188961 0.05327928811311722 0.036741625517606735
			vertex -0.019672837108373642 0.0779101625084877 0.036741625517606735
		endloop
	endfacet
	facet normal 0 0 1
		outer loop
			vertex -0.0555555485188961 0.07869226485490799 0.036741625517606735
			vertex -0.019672837108373642 0.0779101625084877 0.036741625517606735
			vertex -0.0014820960350334644 0.09911257773637772 0.036741625517606735
		endloop
	endfacet
	facet normal 0 0 1
		outer loop
			vertex -0.0555555485188961 0.07869226485490799 0.036741625517606735
			vertex -0.0014820960350334644 0.09911257773637772 0.036741625517606735
			vertex -0.0040580895729362965 0.09971252828836441 0.036741625517606735
		endloop
	endfacet
	facet normal 0 0 1
		outer loop
			vertex -0.0555555485188961 0.07869226485490799 0.036741625517606735
			vertex -0.0040580895729362965 0.09971252828836441 0.036741625517606735
			vertex -0.040395285934209824 0.0918038859963417 0.036741625517606735
		endloop
	endfacet
	facet normal 0 0 1
		outer loop
			vertex -0.0040580895729362965 0.09971252828836441 0.036741625517606735
			vertex -0.013996358960866928 0.10202724486589432 0.036741625517606735
			vertex -0.02857455238699913 0.10202724486589432 0.036741625517606735
		endloop
	endfacet
	facet normal 0 0 1
		outer loop
			vertex -0.0040580895729362965 0.09971252828836441 0.036741625517606735
			vertex -0.02857455238699913 0.10202724486589432 0.036741625517606735
			vertex -0.040395285934209824 0.0918038859963417 0.036741625517606735
		endloop
	endfacet
	facet normal 0 0 1
		outer loop
			vertex -0.0555555485188961 0.08850432187318802 0.036741625517606735
			vertex -0.0555555485188961 0.07869226485490799 0.036741625517606735
			vertex -0.040395285934209824 0.0918038859963417 0.036741625517606735
		endloop
	endfacet
	facet normal 0 0 1
		outer loop
			vertex -0.0555555485188961 0.10202724486589432 0.036741625517606735
			vertex -0.0555555485188961 0.08850432187318802 0.036741625517606735
			vertex -0.040395285934209824 0.0918038859963417 0.036741625517606735
		endloop
	endfacet
	facet normal 0 0 1
		outer loop
			vertex -0.0555555485188961 0.10202724486589432 0.036741625517606735
			vertex -0.040395285934209824 0.0918038859963417 0.036741625517606735
			vertex -0.02857455238699913 0.10202724486589432 0.036741625517606735
		endloop
	endfacet
	facet normal 0 0 -1
		outer loop
			vertex 0.026880566030740738 0.10202724486589432 -0.036741629242897034
			vertex 0.011099640280008316 0.10202724486589432 -0.036741629242897034
			vertex 0.023691270500421524 0.10218966752290726 -0.036741629242897034
		endloop
	endfacet
	facet normal 0 0 -1
		outer loop
			vertex 0.026880566030740738 0.10202724486589432 -0.036741629242897034
			vertex 0.023691270500421524 0.10218966752290726 -0.036741629242897034
			vertex 0.025111977010965347 0.10218781977891922 -0.036741629242897034
		endloop
	endfacet
	facet normal 0 0 -1
		outer loop
			vertex 0.026880566030740738 0.10202724486589432 -0.036741629242897034
			vertex 0.025111977010965347 0.10218781977891922 -0.036741629242897034
			vertex 0.0270577110350132 0.10218045860528946 -0.036741629242897034
		endloop
	endfacet
	facet normal 0 0 -1
		outer loop
			vertex -0.0555555485188961 0.03710084408521652 -0.036741629242897034
			vertex -0.0555555485188961 0.037750355899333954 -0.036741629242897034
			vertex -0.040167566388845444 0.04177803546190262 -0.036741629242897034
		endloop
	endfacet
	facet normal 0 0 -1
		outer loop
			vertex -0.0555555485188961 0.037750355899333954 -0.036741629242897034
			vertex -0.0555555485188961 0.04053109139204025 -0.036741629242897034
			vertex -0.04119780287146568 0.04150836914777756 -0.036741629242897034
		endloop
	endfacet
	facet normal 0 0 -1
		outer loop
			vertex -0.018378134816884995 0.047481246292591095 -0.036741629242897034
			vertex -0.024850841611623764 0.04578704386949539 -0.036741629242897034
			vertex -0.029098358005285263 0.05361292511224747 -0.036741629242897034
		endloop
	endfacet
	facet normal 0 0 -1
		outer loop
			vertex -0.018378134816884995 0.047481246292591095 -0.036741629242897034
			vertex -0.029098358005285263 0.05361292511224747 -0.036741629242897034
			vertex 0.021610114723443985 0.09746900945901871 -0.036741629242897034
		endloop
	endfacet
	facet normal 0 0 -1
		outer loop
			vertex -0.018378134816884995 0.047481246292591095 -0.036741629242897034
			vertex 0.021610114723443985 0.09746900945901871 -0.036741629242897034
			vertex 0.00279715983197093 0.07062143832445145 -0.036741629242897034
		endloop
	endfacet
	facet normal 0 0 -1
		outer loop
			vertex -0.029098358005285263 0.05361292511224747 -0.036741629242897034
			vertex -0.024850841611623764 0.04578704386949539 -0.036741629242897034
			vertex -0.04119780287146568 0.04150836914777756 -0.036741629242897034
		endloop
	endfacet
	facet normal 0 0 -1
		outer loop
			vertex -0.029098358005285263 0.05361292511224747 -0.036741629242897034
			vertex -0.04119780287146568 0.04150836914777756 -0.036741629242897034
			vertex -0.04325621947646141 0.041368268430233 -0.036741629242897034
		endloop
	endfacet
	facet normal 0 0 -1
		outer loop
			vertex -0.029098358005285263 0.05361292511224747 -0.036741629242897034
			vertex -0.03450518473982811 0.06357491761445999 -0.036741629242897034
			vertex -0.02044704183936119 0.08599067479372025 -0.036741629242897034
		endloop
	endfacet
	facet normal 0 0 -1
		outer loop
			vertex -0.029098358005285263 0.05361292511224747 -0.036741629242897034
			vertex -0.02044704183936119 0.08599067479372025 -0.036741629242897034
			vertex 0.005318764131516218 0.08337918668985367 -0.036741629242897034
		endloop
	endfacet
	facet normal 0 0 -1
		outer loop
			vertex -0.03450518473982811 0.06357491761445999 -0.036741629242897034
			vertex -0.029098358005285263 0.05361292511224747 -0.036741629242897034
			vertex -0.04325621947646141 0.041368268430233 -0.036741629242897034
		endloop
	endfacet
	facet normal 0 0 -1
		outer loop
			vertex -0.03450518473982811 0.06357491761445999 -0.036741629242897034
			vertex -0.04325621947646141 0.041368268430233 -0.036741629242897034
			vertex -0.04866298660635948 0.04100023955106735 -0.036741629242897034
		endloop
	endfacet
	facet normal 0 0 -1
		outer loop
			vertex -0.02044704183936119 0.08599067479372025 -0.036741629242897034
			vertex -0.010389652103185654 0.10202724486589432 -0.036741629242897034
			vertex 0.026880566030740738 0.10202724486589432 -0.036741629242897034
		endloop
	endfacet
	facet normal 0 0 -1
		outer loop
			vertex -0.02044704183936119 0.08599067479372025 -0.036741629242897034
			vertex 0.026880566030740738 0.10202724486589432 -0.036741629242897034
			vertex 0.005318764131516218 0.08337918668985367 -0.036741629242897034
		endloop
	endfacet
	facet normal 0 0 -1
		outer loop
			vertex -0.03450518473982811 0.06357491761445999 -0.036741629242897034
			vertex -0.04083650931715965 0.07524014264345169 -0.036741629242897034
			vertex -0.023570027202367783 0.10202724486589432 -0.036741629242897034
		endloop
	endfacet
	facet normal 0 0 -1
		outer loop
			vertex -0.03450518473982811 0.06357491761445999 -0.036741629242897034
			vertex -0.023570027202367783 0.10202724486589432 -0.036741629242897034
			vertex -0.010389652103185654 0.10202724486589432 -0.036741629242897034
		endloop
	endfacet
	facet normal 0 0 -1
		outer loop
			vertex -0.0555555485188961 0.04053109139204025 -0.036741629242897034
			vertex -0.0555555485188961 0.052405066788196564 -0.036741629242897034
			vertex -0.04083650931715965 0.07524014264345169 -0.036741629242897034
		endloop
	endfacet
	facet normal 0 0 -1
		outer loop
			vertex -0.0555555485188961 0.04053109139204025 -0.036741629242897034
			vertex -0.04083650931715965 0.07524014264345169 -0.036741629242897034
			vertex -0.03450518473982811 0.06357491761445999 -0.036741629242897034
		endloop
	endfacet
	facet normal 0 0 -1
		outer loop
			vertex -0.0555555485188961 0.04053109139204025 -0.036741629242897034
			vertex -0.03450518473982811 0.06357491761445999 -0.036741629242897034
			vertex -0.04866298660635948 0.04100023955106735 -0.036741629242897034
		endloop
	endfacet
	facet normal 0 0 -1
		outer loop
			vertex -0.04083650931715965 0.07524014264345169 -0.036741629242897034
			vertex -0.04945546016097069 0.09112031012773514 -0.036741629242897034
			vertex -0.027523573487997055 0.09589368849992752 -0.036741629242897034
		endloop
	endfacet
	facet normal 0 0 -1
		outer loop
			vertex -0.0555555485188961 0.052405066788196564 -0.036741629242897034
			vertex -0.0555555485188961 0.08979267627000809 -0.036741629242897034
			vertex -0.04945546016097069 0.09112031012773514 -0.036741629242897034
		endloop
	endfacet
	facet normal 0 0 -1
		outer loop
			vertex -0.0555555485188961 0.052405066788196564 -0.036741629242897034
			vertex -0.04945546016097069 0.09112031012773514 -0.036741629242897034
			vertex -0.04083650931715965 0.07524014264345169 -0.036741629242897034
		endloop
	endfacet
	facet normal 0 0 -1
		outer loop
			vertex -0.04945546016097069 0.09112031012773514 -0.036741629242897034
			vertex -0.05537515506148338 0.10202724486589432 -0.036741629242897034
			vertex -0.023570027202367783 0.10202724486589432 -0.036741629242897034
		endloop
	endfacet
	facet normal 0 0 -1
		outer loop
			vertex -0.04945546016097069 0.09112031012773514 -0.036741629242897034
			vertex -0.023570027202367783 0.10202724486589432 -0.036741629242897034
			vertex -0.027523573487997055 0.09589368849992752 -0.036741629242897034
		endloop
	endfacet
	facet normal 0 0 -1
		outer loop
			vertex -0.0555555485188961 0.08979267627000809 -0.036741629242897034
			vertex -0.0555555485188961 0.10202724486589432 -0.036741629242897034
			vertex -0.05537515506148338 0.10202724486589432 -0.036741629242897034
		endloop
	endfacet
	facet normal 0 0 -1
		outer loop
			vertex -0.0555555485188961 0.08979267627000809 -0.036741629242897034
			vertex -0.05537515506148338 0.10202724486589432 -0.036741629242897034
			vertex -0.04945546016097069 0.09112031012773514 -0.036741629242897034
		endloop
	endfacet
endsolid exported
