solid exported
	facet normal 0.24089451060013403 -0.9705513045494873 1.012363960860967e-7
		outer loop
			vertex -0.01610242761671543 -0.0688522607088089 -0.0714285671710968
			vertex -0.016878092661499977 -0.06904476881027222 0.0714285671710968
			vertex -0.019205087795853615 -0.06962233781814575 0.0714285671710968
		endloop
	endfacet
	facet normal 0.24089011981560468 -0.9705523943483029 0
		outer loop
			vertex -0.01610242761671543 -0.0688522607088089 -0.0714285671710968
			vertex -0.019205087795853615 -0.06962233781814575 0.0714285671710968
			vertex -0.019205087795853615 -0.06962233781814575 -0.0714285671710968
		endloop
	endfacet
	facet normal 0.24089160448073033 -0.9705520258547154 8.448516872545493e-8
		outer loop
			vertex -0.016878092661499977 -0.06904476881027222 0.0714285671710968
			vertex -0.01610242761671543 -0.0688522607088089 -0.0714285671710968
			vertex -0.013775402680039406 -0.06827469170093536 -0.0714285671710968
		endloop
	endfacet
	facet normal 0.24088794025451338 -0.9705529353105569 0
		outer loop
			vertex -0.016878092661499977 -0.06904476881027222 0.0714285671710968
			vertex -0.013775402680039406 -0.06827469170093536 -0.0714285671710968
			vertex -0.013775402680039406 -0.06827469170093536 0.0714285671710968
		endloop
	endfacet
	facet normal 0.34639190901080885 -0.9380898919463064 -1.2193806926548774e-7
		outer loop
			vertex -0.009528780356049538 -0.0667065978050232 -0.0714285671710968
			vertex -0.010590428486466408 -0.06709863245487213 0.0714285671710968
			vertex -0.013775402680039406 -0.06827469170093536 0.0714285671710968
		endloop
	endfacet
	facet normal 0.34639551883122915 -0.9380885590037029 0
		outer loop
			vertex -0.009528780356049538 -0.0667065978050232 -0.0714285671710968
			vertex -0.013775402680039406 -0.06827469170093536 0.0714285671710968
			vertex -0.013775402680039406 -0.06827469170093536 -0.0714285671710968
		endloop
	endfacet
	facet normal 0.3463919535785806 -0.9380898754895503 -1.215617008719632e-7
		outer loop
			vertex -0.010590428486466408 -0.06709863245487213 0.0714285671710968
			vertex -0.009528780356049538 -0.0667065978050232 -0.0714285671710968
			vertex -0.006343806628137827 -0.06553053855895996 -0.0714285671710968
		endloop
	endfacet
	facet normal 0.34639555225738844 -0.9380885466608678 0
		outer loop
			vertex -0.010590428486466408 -0.06709863245487213 0.0714285671710968
			vertex -0.006343806628137827 -0.06553053855895996 -0.0714285671710968
			vertex -0.006343806628137827 -0.06553053855895996 0.0714285671710968
		endloop
	endfacet
	facet normal 0.4025058300671306 -0.9154174221424688 8.769866929292267e-8
		outer loop
			vertex -0.0004676826065406203 -0.06294684112071991 -0.0714285671710968
			vertex -0.0019367284839972854 -0.06359276175498962 0.0714285671710968
			vertex -0.006343806628137827 -0.06553053855895996 0.0714285671710968
		endloop
	endfacet
	facet normal 0.4025040434031165 -0.9154182077302931 0
		outer loop
			vertex -0.0004676826065406203 -0.06294684112071991 -0.0714285671710968
			vertex -0.006343806628137827 -0.06553053855895996 0.0714285671710968
			vertex -0.006343806628137827 -0.06553053855895996 -0.0714285671710968
		endloop
	endfacet
	facet normal 0.4025064963221868 -0.9154171291921668 9.587454300107969e-8
		outer loop
			vertex -0.0019367284839972854 -0.06359276175498962 0.0714285671710968
			vertex -0.0004676826065406203 -0.06294684112071991 -0.0714285671710968
			vertex 0.003939395304769278 -0.061009060591459274 -0.0714285671710968
		endloop
	endfacet
	facet normal 0.40250454309399186 -0.9154179880189689 0
		outer loop
			vertex -0.0019367284839972854 -0.06359276175498962 0.0714285671710968
			vertex 0.003939395304769278 -0.061009060591459274 -0.0714285671710968
			vertex 0.003939395304769278 -0.061009060591459274 0.0714285671710968
		endloop
	endfacet
	facet normal 0.4274653271376844 -0.9040317439642661 -4.644594882174449e-10
		outer loop
			vertex 0.011952763423323631 -0.05721999332308769 -0.0714285671710968
			vertex 0.009949421510100365 -0.05816726014018059 0.0714285671710968
			vertex 0.003939395304769278 -0.061009060591459274 0.0714285671710968
		endloop
	endfacet
	facet normal 0.4274653339047758 -0.9040317407644926 0
		outer loop
			vertex 0.011952763423323631 -0.05721999332308769 -0.0714285671710968
			vertex 0.003939395304769278 -0.061009060591459274 0.0714285671710968
			vertex 0.003939395304769278 -0.061009060591459274 -0.0714285671710968
		endloop
	endfacet
	facet normal 0.4274626561486062 -0.9040330069186504 -4.6295276269386766e-8
		outer loop
			vertex 0.009949421510100365 -0.05816726014018059 0.0714285671710968
			vertex 0.011952763423323631 -0.05721999332308769 -0.0714285671710968
			vertex 0.017962804064154625 -0.0543782077729702 -0.0714285671710968
		endloop
	endfacet
	facet normal 0.4274633306627843 -0.9040326879812917 0
		outer loop
			vertex 0.009949421510100365 -0.05816726014018059 0.0714285671710968
			vertex 0.017962804064154625 -0.0543782077729702 -0.0714285671710968
			vertex 0.017962804064154625 -0.0543782077729702 0.0714285671710968
		endloop
	endfacet
	facet normal 0.43910127567301216 -0.8984375713995534 7.844706878584802e-8
		outer loop
			vertex 0.028615659102797508 -0.04917175695300102 -0.0714285671710968
			vertex 0.025952449068427086 -0.05047335848212242 0.0714285671710968
			vertex 0.017962804064154625 -0.0543782077729702 0.0714285671710968
		endloop
	endfacet
	facet normal 0.4391004265145378 -0.8984379864157298 0
		outer loop
			vertex 0.028615659102797508 -0.04917175695300102 -0.0714285671710968
			vertex 0.017962804064154625 -0.0543782077729702 0.0714285671710968
			vertex 0.017962804064154625 -0.0543782077729702 -0.0714285671710968
		endloop
	endfacet
	facet normal 0.4391013583040529 -0.8984375310145548 8.035547184923784e-8
		outer loop
			vertex 0.025952449068427086 -0.05047335848212242 0.0714285671710968
			vertex 0.028615659102797508 -0.04917175695300102 -0.0714285671710968
			vertex 0.03660530224442482 -0.045266907662153244 -0.0714285671710968
		endloop
	endfacet
	facet normal 0.43910048848778227 -0.8984379561270724 0
		outer loop
			vertex 0.025952449068427086 -0.05047335848212242 0.0714285671710968
			vertex 0.03660530224442482 -0.045266907662153244 -0.0714285671710968
			vertex 0.03660530224442482 -0.045266907662153244 0.0714285671710968
		endloop
	endfacet
	facet normal 0.4429584623870994 -0.8965421354290344 -6.234442514250469e-8
		outer loop
			vertex 0.046962443739175797 -0.04014969989657402 -0.0714285671710968
			vertex 0.04437315836548805 -0.04142900928854942 0.0714285671710968
			vertex 0.03660530224442482 -0.045266907662153244 0.0714285671710968
		endloop
	endfacet
	facet normal 0.4429591535824566 -0.8965417939268161 0
		outer loop
			vertex 0.046962443739175797 -0.04014969989657402 -0.0714285671710968
			vertex 0.03660530224442482 -0.045266907662153244 0.0714285671710968
			vertex 0.03660530224442482 -0.045266907662153244 -0.0714285671710968
		endloop
	endfacet
	facet normal 0.4429584623870994 -0.8965421354290344 -6.234442514250469e-8
		outer loop
			vertex 0.04437315836548805 -0.04142900928854942 0.0714285671710968
			vertex 0.046962443739175797 -0.04014969989657402 -0.0714285671710968
			vertex 0.05473029986023903 -0.0363118015229702 -0.0714285671710968
		endloop
	endfacet
	facet normal 0.4429591535824566 -0.8965417939268161 0
		outer loop
			vertex 0.04437315836548805 -0.04142900928854942 0.0714285671710968
			vertex 0.05473029986023903 -0.0363118015229702 -0.0714285671710968
			vertex 0.05473029986023903 -0.0363118015229702 0.0714285671710968
		endloop
	endfacet
	facet normal 0.44374068321819793 -0.89615523546819 -3.015850327490709e-10
		outer loop
			vertex 0.05817887559533119 -0.03460420295596123 -0.0714285671710968
			vertex 0.057316724210977554 -0.03503110632300377 0.0714285671710968
			vertex 0.05473029986023903 -0.0363118015229702 0.0714285671710968
		endloop
	endfacet
	facet normal 0.44374069325137416 -0.8961552305001573 0
		outer loop
			vertex 0.05817887559533119 -0.03460420295596123 -0.0714285671710968
			vertex 0.05473029986023903 -0.0363118015229702 0.0714285671710968
			vertex 0.05473029986023903 -0.0363118015229702 -0.0714285671710968
		endloop
	endfacet
	facet normal 0.44374068321819793 -0.89615523546819 -3.015850327490709e-10
		outer loop
			vertex 0.057316724210977554 -0.03503110632300377 0.0714285671710968
			vertex 0.05817887559533119 -0.03460420295596123 -0.0714285671710968
			vertex 0.06076529994606972 -0.0333235077559948 -0.0714285671710968
		endloop
	endfacet
	facet normal 0.44374069325137416 -0.8961552305001573 0
		outer loop
			vertex 0.057316724210977554 -0.03503110632300377 0.0714285671710968
			vertex 0.06076529994606972 -0.0333235077559948 -0.0714285671710968
			vertex 0.06076529994606972 -0.0333235077559948 0.0714285671710968
		endloop
	endfacet
	facet normal 0.44412952433657854 -0.8959625916368188 0
		outer loop
			vertex 0.0620824433863163 -0.03267059847712517 -0.0714285671710968
			vertex 0.061753157526254654 -0.032833825796842575 0.0714285671710968
			vertex 0.06076529994606972 -0.0333235077559948 0.0714285671710968
		endloop
	endfacet
	facet normal 0.4441295243365785 -0.8959625916368186 0
		outer loop
			vertex 0.0620824433863163 -0.03267059847712517 -0.0714285671710968
			vertex 0.06076529994606972 -0.0333235077559948 0.0714285671710968
			vertex 0.06076529994606972 -0.0333235077559948 -0.0714285671710968
		endloop
	endfacet
	facet normal 0.4441390288855321 -0.8959578801598966 2.7291288912619465e-8
		outer loop
			vertex 0.061753157526254654 -0.032833825796842575 0.0714285671710968
			vertex 0.0620824433863163 -0.03267059847712517 -0.0714285671710968
			vertex 0.06307030469179153 -0.03218090161681175 -0.0714285671710968
		endloop
	endfacet
	facet normal 0.4441366527690712 -0.895959058030603 0
		outer loop
			vertex 0.061753157526254654 -0.032833825796842575 0.0714285671710968
			vertex 0.06307030469179153 -0.03218090161681175 -0.0714285671710968
			vertex 0.06307030469179153 -0.03218090161681175 0.0714285671710968
		endloop
	endfacet
	facet normal 0.4497206305152756 -0.8931692753834198 0
		outer loop
			vertex 0.0659726932644844 -0.030719516798853874 -0.0714285671710968
			vertex 0.0659726932644844 -0.030719516798853874 0.0714285671710968
			vertex 0.06307030469179153 -0.03218090161681175 0.0714285671710968
		endloop
	endfacet
	facet normal 0.4497206305152756 -0.8931692753834198 0
		outer loop
			vertex 0.0659726932644844 -0.030719516798853874 -0.0714285671710968
			vertex 0.06307030469179153 -0.03218090161681175 0.0714285671710968
			vertex 0.06307030469179153 -0.03218090161681175 -0.0714285671710968
		endloop
	endfacet
	facet normal 0.8949532449265077 0.4461599370130734 -6.809340093260475e-8
		outer loop
			vertex 0.04633786156773567 0.05967720225453377 -0.0714285671710968
			vertex 0.047742728143930435 0.056859198957681656 0.0714285671710968
			vertex 0.05161804333329201 0.049085695296525955 0.0714285671710968
		endloop
	endfacet
	facet normal 0.8949528782016923 0.44616067262647313 0
		outer loop
			vertex 0.04633786156773567 0.05967720225453377 -0.0714285671710968
			vertex 0.05161804333329201 0.049085695296525955 0.0714285671710968
			vertex 0.05161804333329201 0.049085695296525955 -0.0714285671710968
		endloop
	endfacet
	facet normal 0.8949527338100408 0.44616096226130364 -4.2842976091652506e-8
		outer loop
			vertex 0.047742728143930435 0.056859198957681656 0.0714285671710968
			vertex 0.04633786156773567 0.05967720225453377 -0.0714285671710968
			vertex 0.04212329164147377 0.06813119351863861 -0.0714285671710968
		endloop
	endfacet
	facet normal 0.8949525170034068 0.4461613971527198 0
		outer loop
			vertex 0.047742728143930435 0.056859198957681656 0.0714285671710968
			vertex 0.04212329164147377 0.06813119351863861 -0.0714285671710968
			vertex 0.04212329164147377 0.06813119351863861 0.0714285671710968
		endloop
	endfacet
	facet normal 0.9305515233486983 0.3661609787967813 0
		outer loop
			vertex 0.041413579136133194 0.06993483752012253 -0.0714285671710968
			vertex 0.041413579136133194 0.06993483752012253 0.0714285671710968
			vertex 0.04212329164147377 0.06813119351863861 0.0714285671710968
		endloop
	endfacet
	facet normal 0.9305515233486983 0.3661609787967813 0
		outer loop
			vertex 0.041413579136133194 0.06993483752012253 -0.0714285671710968
			vertex 0.04212329164147377 0.06813119351863861 0.0714285671710968
			vertex 0.04212329164147377 0.06813119351863861 -0.0714285671710968
		endloop
	endfacet
	facet normal 0.7903244127851157 0.6126886016206456 0
		outer loop
			vertex 0.0659726932644844 0.027016179636120796 0.0714285671710968
			vertex 0.0659726932644844 0.027016179636120796 -0.0714285671710968
			vertex 0.06348029524087906 0.03023119457066059 -0.0714285671710968
		endloop
	endfacet
	facet normal 0.7903244127851157 0.6126886016206456 0
		outer loop
			vertex 0.0659726932644844 0.027016179636120796 0.0714285671710968
			vertex 0.06348029524087906 0.03023119457066059 -0.0714285671710968
			vertex 0.06348029524087906 0.03023119457066059 0.0714285671710968
		endloop
	endfacet
	facet normal 0.8445502821524083 0.5354762561648139 4.512464984306852e-8
		outer loop
			vertex 0.05689573660492897 0.04061633720993996 -0.0714285671710968
			vertex 0.05854186788201332 0.0380200557410717 0.0714285671710968
			vertex 0.06348029524087906 0.03023119457066059 0.0714285671710968
		endloop
	endfacet
	facet normal 0.844550562869599 0.5354758134189103 0
		outer loop
			vertex 0.05689573660492897 0.04061633720993996 -0.0714285671710968
			vertex 0.06348029524087906 0.03023119457066059 0.0714285671710968
			vertex 0.06348029524087906 0.03023119457066059 -0.0714285671710968
		endloop
	endfacet
	facet normal 0.8445496762181829 0.5354772118398295 6.947519159021642e-8
		outer loop
			vertex 0.05854186788201332 0.0380200557410717 0.0714285671710968
			vertex 0.05689573660492897 0.04061633720993996 -0.0714285671710968
			vertex 0.05195729807019234 0.04840519651770592 -0.0714285671710968
		endloop
	endfacet
	facet normal 0.8445501084188572 0.5354765301763434 0
		outer loop
			vertex 0.05854186788201332 0.0380200557410717 0.0714285671710968
			vertex 0.05195729807019234 0.04840519651770592 -0.0714285671710968
			vertex 0.05195729807019234 0.04840519651770592 0.0714285671710968
		endloop
	endfacet
	facet normal 0.8949498209392156 0.44616680513106965 0
		outer loop
			vertex 0.05161804333329201 0.049085695296525955 -0.0714285671710968
			vertex 0.05161804333329201 0.049085695296525955 0.0714285671710968
			vertex 0.05195729807019234 0.04840519651770592 0.0714285671710968
		endloop
	endfacet
	facet normal 0.8949498209392156 0.44616680513106965 0
		outer loop
			vertex 0.05161804333329201 0.049085695296525955 -0.0714285671710968
			vertex 0.05195729807019234 0.04840519651770592 0.0714285671710968
			vertex 0.05195729807019234 0.04840519651770592 -0.0714285671710968
		endloop
	endfacet
	facet normal 1 0 0
		outer loop
			vertex 0.0659726932644844 0.027016179636120796 0.0714285671710968
			vertex 0.0659726932644844 0.025965513661503792 0.0714285671710968
			vertex 0.0659726932644844 0.025965513661503792 -0.02652011066675186
		endloop
	endfacet
	facet normal 1 0 0
		outer loop
			vertex 0.0659726932644844 0.027016179636120796 0.0714285671710968
			vertex 0.0659726932644844 0.025965513661503792 -0.02652011066675186
			vertex 0.0659726932644844 0.027016179636120796 -0.0275932177901268
		endloop
	endfacet
	facet normal 1 0 0
		outer loop
			vertex 0.0659726932644844 0.025965513661503792 -0.0714285671710968
			vertex 0.0659726932644844 0.027016179636120796 -0.0714285671710968
			vertex 0.0659726932644844 0.027016179636120796 -0.0275932177901268
		endloop
	endfacet
	facet normal 1 0 0
		outer loop
			vertex 0.0659726932644844 0.025965513661503792 -0.0714285671710968
			vertex 0.0659726932644844 0.027016179636120796 -0.0275932177901268
			vertex 0.0659726932644844 0.025965513661503792 -0.02652011066675186
		endloop
	endfacet
	facet normal 1 0 0
		outer loop
			vertex 0.0659726932644844 0.025965513661503792 0.0714285671710968
			vertex 0.0659726932644844 0.025433020666241646 0.0714285671710968
			vertex 0.0659726932644844 0.025433020666241646 -0.02597624622285366
		endloop
	endfacet
	facet normal 1 0 0
		outer loop
			vertex 0.0659726932644844 0.025965513661503792 0.0714285671710968
			vertex 0.0659726932644844 0.025433020666241646 -0.02597624622285366
			vertex 0.0659726932644844 0.025965513661503792 -0.02652011066675186
		endloop
	endfacet
	facet normal 1 0 0
		outer loop
			vertex 0.0659726932644844 0.025433020666241646 -0.0714285671710968
			vertex 0.0659726932644844 0.025965513661503792 -0.0714285671710968
			vertex 0.0659726932644844 0.025965513661503792 -0.02652011066675186
		endloop
	endfacet
	facet normal 1 0 0
		outer loop
			vertex 0.0659726932644844 0.025433020666241646 -0.0714285671710968
			vertex 0.0659726932644844 0.025965513661503792 -0.02652011066675186
			vertex 0.0659726932644844 0.025433020666241646 -0.02597624622285366
		endloop
	endfacet
	facet normal 1 0 0
		outer loop
			vertex 0.0659726932644844 0.025433020666241646 0.0714285671710968
			vertex 0.0659726932644844 0.02538898028433323 0.0714285671710968
			vertex 0.0659726932644844 0.02538898028433323 -0.025931255891919136
		endloop
	endfacet
	facet normal 1 0 0
		outer loop
			vertex 0.0659726932644844 0.025433020666241646 0.0714285671710968
			vertex 0.0659726932644844 0.02538898028433323 -0.025931255891919136
			vertex 0.0659726932644844 0.025433020666241646 -0.02597624622285366
		endloop
	endfacet
	facet normal 1 0 0
		outer loop
			vertex 0.0659726932644844 0.02538898028433323 -0.0714285671710968
			vertex 0.0659726932644844 0.025433020666241646 -0.0714285671710968
			vertex 0.0659726932644844 0.025433020666241646 -0.02597624622285366
		endloop
	endfacet
	facet normal 1 0 0
		outer loop
			vertex 0.0659726932644844 0.02538898028433323 -0.0714285671710968
			vertex 0.0659726932644844 0.025433020666241646 -0.02597624622285366
			vertex 0.0659726932644844 0.02538898028433323 -0.025931255891919136
		endloop
	endfacet
	facet normal -0.7005770340548741 0.7135767788786822 0
		outer loop
			vertex -0.017224544659256935 0.06993483752012253 0.0714285671710968
			vertex -0.017224544659256935 0.06993483752012253 -0.0714285671710968
			vertex -0.017828190699219704 0.06934218853712082 -0.0714285671710968
		endloop
	endfacet
	facet normal -0.7005770340548741 0.7135767788786822 0
		outer loop
			vertex -0.017224544659256935 0.06993483752012253 0.0714285671710968
			vertex -0.017828190699219704 0.06934218853712082 -0.0714285671710968
			vertex -0.017828190699219704 0.06934218853712082 0.0714285671710968
		endloop
	endfacet
	facet normal -0.7023042652432223 0.7118768987831938 1.2375758559754894e-8
		outer loop
			vertex -0.01990410126745701 0.06729419529438019 -0.0714285671710968
			vertex -0.019385123625397682 0.0678061917424202 0.0714285671710968
			vertex -0.017828190699219704 0.06934218853712082 0.0714285671710968
		endloop
	endfacet
	facet normal -0.7023038336493087 0.7118773245731909 0
		outer loop
			vertex -0.01990410126745701 0.06729419529438019 -0.0714285671710968
			vertex -0.017828190699219704 0.06934218853712082 0.0714285671710968
			vertex -0.017828190699219704 0.06934218853712082 -0.0714285671710968
		endloop
	endfacet
	facet normal -0.7023128042671738 0.7118684744827327 7.358918321226916e-8
		outer loop
			vertex -0.019385123625397682 0.0678061917424202 0.0714285671710968
			vertex -0.01990410126745701 0.06729419529438019 -0.0714285671710968
			vertex -0.0214610043913126 0.06575819104909897 -0.0714285671710968
		endloop
	endfacet
	facet normal -0.7023102379203425 0.7118710063714296 0
		outer loop
			vertex -0.019385123625397682 0.0678061917424202 0.0714285671710968
			vertex -0.0214610043913126 0.06575819104909897 -0.0714285671710968
			vertex -0.0214610043913126 0.06575819104909897 0.0714285671710968
		endloop
	endfacet
	facet normal -0.7175054898246738 0.6965528494460752 -9.227718100242827e-8
		outer loop
			vertex -0.027571463957428932 0.05946390703320503 -0.0714285671710968
			vertex -0.026043856516480446 0.06103748455643654 0.0714285671710968
			vertex -0.0214610043913126 0.06575819104909897 0.0714285671710968
		endloop
	endfacet
	facet normal -0.7175065365422514 0.6965517712411211 0
		outer loop
			vertex -0.027571463957428932 0.05946390703320503 -0.0714285671710968
			vertex -0.0214610043913126 0.06575819104909897 0.0714285671710968
			vertex -0.0214610043913126 0.06575819104909897 -0.0714285671710968
		endloop
	endfacet
	facet normal -0.7175061724855661 0.6965521462497314 -7.723157736783148e-8
		outer loop
			vertex -0.026043856516480446 0.06103748455643654 0.0714285671710968
			vertex -0.027571463957428932 0.05946390703320503 -0.0714285671710968
			vertex -0.03215431794524193 0.05474318936467171 -0.0714285671710968
		endloop
	endfacet
	facet normal -0.7175070485363015 0.6965512438440733 0
		outer loop
			vertex -0.026043856516480446 0.06103748455643654 0.0714285671710968
			vertex -0.03215431794524193 0.05474318936467171 -0.0714285671710968
			vertex -0.03215431794524193 0.05474318936467171 0.0714285671710968
		endloop
	endfacet
	facet normal -0.755206029549732 0.6554874925822228 0
		outer loop
			vertex -0.033907052129507065 0.05272381380200386 -0.0714285671710968
			vertex -0.033907052129507065 0.05272381380200386 0.0714285671710968
			vertex -0.03215431794524193 0.05474318936467171 0.0714285671710968
		endloop
	endfacet
	facet normal -0.755206029549732 0.6554874925822228 0
		outer loop
			vertex -0.033907052129507065 0.05272381380200386 -0.0714285671710968
			vertex -0.03215431794524193 0.05474318936467171 0.0714285671710968
			vertex -0.03215431794524193 0.05474318936467171 -0.0714285671710968
		endloop
	endfacet
	facet normal -0.7552062366914859 0.6554872539281594 6.588320351752125e-8
		outer loop
			vertex -0.03784069046378136 0.04819176718592644 -0.0714285671710968
			vertex -0.0364190898835659 0.049829620867967606 0.0714285671710968
			vertex -0.033907052129507065 0.05272381380200386 0.0714285671710968
		endloop
	endfacet
	facet normal -0.7552052086470342 0.6554884383666805 0
		outer loop
			vertex -0.03784069046378136 0.04819176718592644 -0.0714285671710968
			vertex -0.033907052129507065 0.05272381380200386 0.0714285671710968
			vertex -0.033907052129507065 0.05272381380200386 -0.0714285671710968
		endloop
	endfacet
	facet normal -0.7552038840567583 0.655489964458333 1.1395489237457694e-8
		outer loop
			vertex -0.0364190898835659 0.049829620867967606 0.0714285671710968
			vertex -0.03784069046378136 0.04819176718592644 -0.0714285671710968
			vertex -0.04210549220442772 0.043278198689222336 -0.0714285671710968
		endloop
	endfacet
	facet normal -0.7552037610498334 0.6554901061771917 0
		outer loop
			vertex -0.0364190898835659 0.049829620867967606 0.0714285671710968
			vertex -0.04210549220442772 0.043278198689222336 -0.0714285671710968
			vertex -0.04210549220442772 0.043278198689222336 0.0714285671710968
		endloop
	endfacet
	facet normal -0.8211759322735974 0.5706751162041183 6.702456257164244e-8
		outer loop
			vertex -0.04626288637518883 0.03729591146111488 -0.0714285671710968
			vertex -0.045223530381917953 0.0387914814054966 0.0714285671710968
			vertex -0.04210549220442772 0.043278198689222336 0.0714285671710968
		endloop
	endfacet
	facet normal -0.8211751822173677 0.5706761954999288 0
		outer loop
			vertex -0.04626288637518883 0.03729591146111488 -0.0714285671710968
			vertex -0.04210549220442772 0.043278198689222336 0.0714285671710968
			vertex -0.04210549220442772 0.043278198689222336 -0.0714285671710968
		endloop
	endfacet
	facet normal -0.8211780443112845 0.5706720770644742 1.1420739994051439e-7
		outer loop
			vertex -0.045223530381917953 0.0387914814054966 0.0714285671710968
			vertex -0.04626288637518883 0.03729591146111488 -0.0714285671710968
			vertex -0.049380894750356674 0.03280920162796974 -0.0714285671710968
		endloop
	endfacet
	facet normal -0.8211767662448398 0.5706739161549861 0
		outer loop
			vertex -0.045223530381917953 0.0387914814054966 0.0714285671710968
			vertex -0.049380894750356674 0.03280920162796974 -0.0714285671710968
			vertex -0.049380894750356674 0.03280920162796974 0.0714285671710968
		endloop
	endfacet
	facet normal -0.8738758563214764 0.48614914145596766 -1.8019183292503174e-7
		outer loop
			vertex -0.0521375797688961 0.02785387821495533 -0.0714285671710968
			vertex -0.051448430866003036 0.029092708602547646 0.0714285671710968
			vertex -0.049380894750356674 0.03280920162796974 0.0714285671710968
		endloop
	endfacet
	facet normal -0.8738780632264032 0.48614517441981353 0
		outer loop
			vertex -0.0521375797688961 0.02785387821495533 -0.0714285671710968
			vertex -0.049380894750356674 0.03280920162796974 0.0714285671710968
			vertex -0.049380894750356674 0.03280920162796974 -0.0714285671710968
		endloop
	endfacet
	facet normal -0.8738757528106342 0.4861493275215078 -1.8230469925057406e-7
		outer loop
			vertex -0.051448430866003036 0.029092708602547646 0.0714285671710968
			vertex -0.0521375797688961 0.02785387821495533 -0.0714285671710968
			vertex -0.054205115884542465 0.024137387052178383 -0.0714285671710968
		endloop
	endfacet
	facet normal -0.8738779855943442 0.4861453139685411 0
		outer loop
			vertex -0.051448430866003036 0.029092708602547646 0.0714285671710968
			vertex -0.054205115884542465 0.024137387052178383 -0.0714285671710968
			vertex -0.054205115884542465 0.024137387052178383 0.0714285671710968
		endloop
	endfacet
	facet normal -0.8985432606285906 0.4388849607573044 -7.62987859154298e-9
		outer loop
			vertex -0.05503099784255028 0.0224465299397707 -0.0714285671710968
			vertex -0.054824527353048325 0.02286924608051777 0.0714285671710968
			vertex -0.054205115884542465 0.024137387052178383 0.0714285671710968
		endloop
	endfacet
	facet normal -0.8985435148441973 0.43888444029315543 0
		outer loop
			vertex -0.05503099784255028 0.0224465299397707 -0.0714285671710968
			vertex -0.054205115884542465 0.024137387052178383 0.0714285671710968
			vertex -0.054205115884542465 0.024137387052178383 -0.0714285671710968
		endloop
	endfacet
	facet normal -0.8985422437571208 0.4388870426247723 -1.5259829568323298e-8
		outer loop
			vertex -0.054824527353048325 0.02286924608051777 0.0714285671710968
			vertex -0.05503099784255028 0.0224465299397707 -0.0714285671710968
			vertex -0.05565040931105614 0.02117839641869068 -0.0714285671710968
		endloop
	endfacet
	facet normal -0.8985427521946647 0.4388860016888641 0
		outer loop
			vertex -0.054824527353048325 0.02286924608051777 0.0714285671710968
			vertex -0.05565040931105614 0.02117839641869068 -0.0714285671710968
			vertex -0.05565040931105614 0.02117839641869068 0.0714285671710968
		endloop
	endfacet
	facet normal -0.8980378008501473 0.4399182972373684 7.774411750581389e-8
		outer loop
			vertex -0.05645957216620445 0.019526617601513863 -0.0714285671710968
			vertex -0.05625727400183678 0.01993955858051777 0.0714285671710968
			vertex -0.05565040931105614 0.02117839641869068 0.0714285671710968
		endloop
	endfacet
	facet normal -0.8980351444982031 0.43992371980389017 0
		outer loop
			vertex -0.05645957216620445 0.019526617601513863 -0.0714285671710968
			vertex -0.05565040931105614 0.02117839641869068 0.0714285671710968
			vertex -0.05565040931105614 0.02117839641869068 -0.0714285671710968
		endloop
	endfacet
	facet normal -0.8980282205759312 0.4399378536216527 7.648182806640755e-9
		outer loop
			vertex -0.05625727400183678 0.01993955858051777 0.0714285671710968
			vertex -0.05645957216620445 0.019526617601513863 -0.0714285671710968
			vertex -0.05706646665930748 0.018287787213921547 -0.0714285671710968
		endloop
	endfacet
	facet normal -0.8980279592444599 0.4399383870671335 0
		outer loop
			vertex -0.05625727400183678 0.01993955858051777 0.0714285671710968
			vertex -0.05706646665930748 0.018287787213921547 -0.0714285671710968
			vertex -0.05706646665930748 0.018287787213921547 0.0714285671710968
		endloop
	endfacet
	facet normal -0.9110622859834163 0.4122687364555695 0
		outer loop
			vertex -0.05711882933974266 0.018172072246670723 -0.0714285671710968
			vertex -0.05711882933974266 0.018172072246670723 0.0714285671710968
			vertex -0.05706646665930748 0.018287787213921547 0.0714285671710968
		endloop
	endfacet
	facet normal -0.9110622859834163 0.4122687364555695 0
		outer loop
			vertex -0.05711882933974266 0.018172072246670723 -0.0714285671710968
			vertex -0.05706646665930748 0.018287787213921547 0.0714285671710968
			vertex -0.05706646665930748 0.018287787213921547 -0.0714285671710968
		endloop
	endfacet
	facet normal -0.9110529704654124 0.4122893219647328 -9.7565659488976e-8
		outer loop
			vertex -0.05935439094901085 0.013232024386525154 -0.0714285671710968
			vertex -0.0587824247777462 0.014495955780148506 0.0714285671710968
			vertex -0.05711882933974266 0.018172072246670723 0.0714285671710968
		endloop
	endfacet
	facet normal -0.9110540302381693 0.41228698013251525 0
		outer loop
			vertex -0.05935439094901085 0.013232024386525154 -0.0714285671710968
			vertex -0.05711882933974266 0.018172072246670723 0.0714285671710968
			vertex -0.05711882933974266 0.018172072246670723 -0.0714285671710968
		endloop
	endfacet
	facet normal -0.9110529504595066 0.41228936617261686 -9.803688855415688e-8
		outer loop
			vertex -0.0587824247777462 0.014495955780148506 0.0714285671710968
			vertex -0.05935439094901085 0.013232024386525154 -0.0714285671710968
			vertex -0.06107034906744957 0.00944020040333271 -0.0714285671710968
		endloop
	endfacet
	facet normal -0.9110539909795262 0.4122870668845648 0
		outer loop
			vertex -0.0587824247777462 0.014495955780148506 0.0714285671710968
			vertex -0.06107034906744957 0.00944020040333271 -0.0714285671710968
			vertex -0.06107034906744957 0.00944020040333271 0.0714285671710968
		endloop
	endfacet
	facet normal -0.9452651986337097 0.32630308648857964 6.692245363803482e-9
		outer loop
			vertex -0.06285607069730759 0.004267158452421427 -0.0714285671710968
			vertex -0.06240963563323021 0.005560430232435465 0.0714285671710968
			vertex -0.06107034906744957 0.00944020040333271 0.0714285671710968
		endloop
	endfacet
	facet normal -0.945265141630052 0.3263032516220424 0
		outer loop
			vertex -0.06285607069730759 0.004267158452421427 -0.0714285671710968
			vertex -0.06107034906744957 0.00944020040333271 0.0714285671710968
			vertex -0.06107034906744957 0.00944020040333271 -0.0714285671710968
		endloop
	endfacet
	facet normal -0.945265216753423 0.32630303399770033 7.224065133298557e-9
		outer loop
			vertex -0.06240963563323021 0.005560430232435465 0.0714285671710968
			vertex -0.06285607069730759 0.004267158452421427 -0.0714285671710968
			vertex -0.06419535726308823 0.0003873875830322504 -0.0714285671710968
		endloop
	endfacet
	facet normal -0.9452651552198111 0.32630321225398085 0
		outer loop
			vertex -0.06240963563323021 0.005560430232435465 0.0714285671710968
			vertex -0.06419535726308823 0.0003873875830322504 -0.0714285671710968
			vertex -0.06419535726308823 0.0003873875830322504 0.0714285671710968
		endloop
	endfacet
	facet normal -0.9866614535063796 0.16278567555123216 -8.532577012868813e-8
		outer loop
			vertex -0.06501566618680954 -0.0045846677385270596 -0.0714285671710968
			vertex -0.06481059640645981 -0.0033416429068893194 0.0714285671710968
			vertex -0.06419535726308823 0.0003873875830322504 0.0714285671710968
		endloop
	endfacet
	facet normal -0.9866618472627022 0.16278328893394545 0
		outer loop
			vertex -0.06501566618680954 -0.0045846677385270596 -0.0714285671710968
			vertex -0.06419535726308823 0.0003873875830322504 0.0714285671710968
			vertex -0.06419535726308823 0.0003873875830322504 -0.0714285671710968
		endloop
	endfacet
	facet normal -0.9866615612486351 0.16278502251251417 -7.948890361853641e-8
		outer loop
			vertex -0.06481059640645981 -0.0033416429068893194 0.0714285671710968
			vertex -0.06501566618680954 -0.0045846677385270596 -0.0714285671710968
			vertex -0.06563090533018112 -0.00831371359527111 -0.0714285671710968
		endloop
	endfacet
	facet normal -0.9866619280669394 0.16278279916265706 0
		outer loop
			vertex -0.06481059640645981 -0.0033416429068893194 0.0714285671710968
			vertex -0.06563090533018112 -0.00831371359527111 -0.0714285671710968
			vertex -0.06563090533018112 -0.00831371359527111 0.0714285671710968
		endloop
	endfacet
	facet normal -0.9990970043571588 0.042487361468245714 1.3599740809904488e-7
		outer loop
			vertex -0.06582622975111008 -0.012906340882182121 -0.0714285671710968
			vertex -0.06577738374471664 -0.011758176609873772 0.0714285671710968
			vertex -0.06563090533018112 -0.00831371359527111 0.0714285671710968
		endloop
	endfacet
	facet normal -0.9990968247762094 0.04249158413258195 0
		outer loop
			vertex -0.06582622975111008 -0.012906340882182121 -0.0714285671710968
			vertex -0.06563090533018112 -0.00831371359527111 0.0714285671710968
			vertex -0.06563090533018112 -0.00831371359527111 -0.0714285671710968
		endloop
	endfacet
	facet normal -0.9990970043571588 0.042487361468245714 1.3599740809904488e-7
		outer loop
			vertex -0.06577738374471664 -0.011758176609873772 0.0714285671710968
			vertex -0.06582622975111008 -0.012906340882182121 -0.0714285671710968
			vertex -0.0659727081656456 -0.016350803896784782 -0.0714285671710968
		endloop
	endfacet
	facet normal -0.9990968247762094 0.04249158413258195 0
		outer loop
			vertex -0.06577738374471664 -0.011758176609873772 0.0714285671710968
			vertex -0.0659727081656456 -0.016350803896784782 -0.0714285671710968
			vertex -0.0659727081656456 -0.016350803896784782 0.0714285671710968
		endloop
	endfacet
	facet normal -1 0 0
		outer loop
			vertex -0.0659727081656456 -0.01930840127170086 -0.0714285671710968
			vertex -0.0659727081656456 -0.01856900565326214 0.0714285671710968
			vertex -0.0659727081656456 -0.016350803896784782 0.0714285671710968
		endloop
	endfacet
	facet normal -1 0 0
		outer loop
			vertex -0.0659727081656456 -0.01930840127170086 -0.0714285671710968
			vertex -0.0659727081656456 -0.016350803896784782 0.0714285671710968
			vertex -0.0659727081656456 -0.016350803896784782 -0.0714285671710968
		endloop
	endfacet
	facet normal -1 0 0
		outer loop
			vertex -0.0659727081656456 -0.01856900565326214 0.0714285671710968
			vertex -0.0659727081656456 -0.01930840127170086 -0.0714285671710968
			vertex -0.0659727081656456 -0.021526603028178215 -0.0714285671710968
		endloop
	endfacet
	facet normal -1 0 0
		outer loop
			vertex -0.0659727081656456 -0.01856900565326214 0.0714285671710968
			vertex -0.0659727081656456 -0.021526603028178215 -0.0714285671710968
			vertex -0.0659727081656456 -0.021526603028178215 0.0714285671710968
		endloop
	endfacet
	facet normal -0.9994705582686909 -0.03253618222942579 7.176446531289427e-8
		outer loop
			vertex -0.0658332034945488 -0.02581232599914074 -0.0714285671710968
			vertex -0.0658680722117424 -0.02474088780581951 0.0714285671710968
			vertex -0.0659727081656456 -0.021526603028178215 0.0714285671710968
		endloop
	endfacet
	facet normal -0.9994706360558642 -0.03253379261762456 0
		outer loop
			vertex -0.0658332034945488 -0.02581232599914074 -0.0714285671710968
			vertex -0.0659727081656456 -0.021526603028178215 0.0714285671710968
			vertex -0.0659727081656456 -0.021526603028178215 -0.0714285671710968
		endloop
	endfacet
	facet normal -0.9994705582686909 -0.03253618222942579 7.176446531289427e-8
		outer loop
			vertex -0.0658680722117424 -0.02474088780581951 0.0714285671710968
			vertex -0.0658332034945488 -0.02581232599914074 -0.0714285671710968
			vertex -0.0657285675406456 -0.029026610776782036 -0.0714285671710968
		endloop
	endfacet
	facet normal -0.9994706360558642 -0.03253379261762456 0
		outer loop
			vertex -0.0658680722117424 -0.02474088780581951 0.0714285671710968
			vertex -0.0657285675406456 -0.029026610776782036 -0.0714285671710968
			vertex -0.0657285675406456 -0.029026610776782036 0.0714285671710968
		endloop
	endfacet
	facet normal -0.9909534783376436 -0.1342058261421951 -1.2790355714376546e-7
		outer loop
			vertex -0.0651760920882225 -0.03310586139559746 -0.0714285671710968
			vertex -0.06531422585248947 -0.03208604082465172 0.0714285671710968
			vertex -0.0657285675406456 -0.029026610776782036 0.0714285671710968
		endloop
	endfacet
	facet normal -0.990952882626595 -0.13421022470006547 0
		outer loop
			vertex -0.0651760920882225 -0.03310586139559746 -0.0714285671710968
			vertex -0.0657285675406456 -0.029026610776782036 0.0714285671710968
			vertex -0.0657285675406456 -0.029026610776782036 -0.0714285671710968
		endloop
	endfacet
	facet normal -0.9909535761344347 -0.1342051040249863 -1.3315313061787106e-7
		outer loop
			vertex -0.06531422585248947 -0.03208604082465172 0.0714285671710968
			vertex -0.0651760920882225 -0.03310586139559746 -0.0714285671710968
			vertex -0.06476175040006638 -0.03616530820727348 -0.0714285671710968
		endloop
	endfacet
	facet normal -0.9909529559789109 -0.13420968309573925 0
		outer loop
			vertex -0.06531422585248947 -0.03208604082465172 0.0714285671710968
			vertex -0.06476175040006638 -0.03616530820727348 -0.0714285671710968
			vertex -0.06476175040006638 -0.03616530820727348 0.0714285671710968
		endloop
	endfacet
	facet normal -0.9417810850547224 -0.33622669113731857 1.1690392982194552e-8
		outer loop
			vertex -0.06361221522092819 -0.039385195821523666 -0.0714285671710968
			vertex -0.06389959901571274 -0.03858022019267082 0.0714285671710968
			vertex -0.06476175040006638 -0.03616530820727348 0.0714285671710968
		endloop
	endfacet
	facet normal -0.9417812492921976 -0.3362262311028507 0
		outer loop
			vertex -0.06361221522092819 -0.039385195821523666 -0.0714285671710968
			vertex -0.06476175040006638 -0.03616530820727348 0.0714285671710968
			vertex -0.06476175040006638 -0.03616530820727348 -0.0714285671710968
		endloop
	endfacet
	facet normal -0.9417774047322265 -0.33623699965326 7.718078091737311e-8
		outer loop
			vertex -0.06389959901571274 -0.03858022019267082 0.0714285671710968
			vertex -0.06361221522092819 -0.039385195821523666 -0.0714285671710968
			vertex -0.06275003403425217 -0.041800107806921005 -0.0714285671710968
		endloop
	endfacet
	facet normal -0.9417784890652812 -0.33623396249325577 0
		outer loop
			vertex -0.06389959901571274 -0.03858022019267082 0.0714285671710968
			vertex -0.06275003403425217 -0.041800107806921005 -0.0714285671710968
			vertex -0.06275003403425217 -0.041800107806921005 0.0714285671710968
		endloop
	endfacet
	facet normal -0.8636331053897607 -0.5041208776422793 1.3013291717356532e-7
		outer loop
			vertex -0.06134938821196556 -0.04419965669512749 -0.0714285671710968
			vertex -0.06169953569769859 -0.04359976574778557 0.0714285671710968
			vertex -0.06275003403425217 -0.041800107806921005 0.0714285671710968
		endloop
	endfacet
	facet normal -0.8636364784389164 -0.5041150990692772 0
		outer loop
			vertex -0.06134938821196556 -0.04419965669512749 -0.0714285671710968
			vertex -0.06275003403425217 -0.041800107806921005 0.0714285671710968
			vertex -0.06275003403425217 -0.041800107806921005 -0.0714285671710968
		endloop
	endfacet
	facet normal -0.8636305097262076 -0.5041253243688785 1.551678313588703e-7
		outer loop
			vertex -0.06169953569769859 -0.04359976574778557 0.0714285671710968
			vertex -0.06134938821196556 -0.04419965669512749 -0.0714285671710968
			vertex -0.06029888615012169 -0.045999299734830856 -0.0714285671710968
		endloop
	endfacet
	facet normal -0.8636345317280522 -0.5041184341073712 0
		outer loop
			vertex -0.06169953569769859 -0.04359976574778557 0.0714285671710968
			vertex -0.06029888615012169 -0.045999299734830856 -0.0714285671710968
			vertex -0.06029888615012169 -0.045999299734830856 0.0714285671710968
		endloop
	endfacet
	facet normal -0.8189518647453047 -0.5738622162420061 -3.990566485254001e-8
		outer loop
			vertex -0.05976315960288048 -0.046763818711042404 -0.0714285671710968
			vertex -0.05989709123969078 -0.046572696417570114 0.0714285671710968
			vertex -0.06029888615012169 -0.045999299734830856 0.0714285671710968
		endloop
	endfacet
	facet normal -0.8189483603405845 -0.5738672173033308 0
		outer loop
			vertex -0.05976315960288048 -0.046763818711042404 -0.0714285671710968
			vertex -0.06029888615012169 -0.045999299734830856 0.0714285671710968
			vertex -0.06029888615012169 -0.045999299734830856 -0.0714285671710968
		endloop
	endfacet
	facet normal -0.8189448558442426 -0.5738722184304207 -1.9953180196141736e-8
		outer loop
			vertex -0.05989709123969078 -0.046572696417570114 0.0714285671710968
			vertex -0.05976315960288048 -0.046763818711042404 -0.0714285671710968
			vertex -0.05936136469244957 -0.04733720049262047 -0.0714285671710968
		endloop
	endfacet
	facet normal -0.8189431035617133 -0.5738747190186281 0
		outer loop
			vertex -0.05989709123969078 -0.046572696417570114 0.0714285671710968
			vertex -0.05936136469244957 -0.04733720049262047 -0.0714285671710968
			vertex -0.05936136469244957 -0.04733720049262047 0.0714285671710968
		endloop
	endfacet
	facet normal -0.8153006844116605 -0.5790378174159889 -7.682778053287931e-8
		outer loop
			vertex -0.057966288179159164 -0.04930148646235466 -0.0714285671710968
			vertex -0.05831506475806236 -0.04881041869521141 0.0714285671710968
			vertex -0.05936136469244957 -0.04733720049262047 0.0714285671710968
		endloop
	endfacet
	facet normal -0.8152980466215873 -0.5790415314768227 0
		outer loop
			vertex -0.057966288179159164 -0.04930148646235466 -0.0714285671710968
			vertex -0.05936136469244957 -0.04733720049262047 0.0714285671710968
			vertex -0.05936136469244957 -0.04733720049262047 -0.0714285671710968
		endloop
	endfacet
	facet normal -0.8153006844116605 -0.5790378174159889 -7.682778053287931e-8
		outer loop
			vertex -0.05831506475806236 -0.04881041869521141 0.0714285671710968
			vertex -0.057966288179159164 -0.04930148646235466 -0.0714285671710968
			vertex -0.05691998824477196 -0.0507747046649456 -0.0714285671710968
		endloop
	endfacet
	facet normal -0.8152980466215873 -0.5790415314768227 0
		outer loop
			vertex -0.05831506475806236 -0.04881041869521141 0.0714285671710968
			vertex -0.05691998824477196 -0.0507747046649456 -0.0714285671710968
			vertex -0.05691998824477196 -0.0507747046649456 0.0714285671710968
		endloop
	endfacet
	facet normal -0.6959182210249579 -0.7181210410825302 -2.6512578559590704e-8
		outer loop
			vertex -0.049698974937200546 -0.057772453874349594 -0.0714285671710968
			vertex -0.0515042208135128 -0.05602302774786949 0.0714285671710968
			vertex -0.05691998824477196 -0.0507747046649456 0.0714285671710968
		endloop
	endfacet
	facet normal -0.6959179505349055 -0.7181213032094904 0
		outer loop
			vertex -0.049698974937200546 -0.057772453874349594 -0.0714285671710968
			vertex -0.05691998824477196 -0.0507747046649456 0.0714285671710968
			vertex -0.05691998824477196 -0.0507747046649456 -0.0714285671710968
		endloop
	endfacet
	facet normal -0.6959184757624369 -0.7181207942209202 -3.275468846613208e-8
		outer loop
			vertex -0.0515042208135128 -0.05602302774786949 0.0714285671710968
			vertex -0.049698974937200546 -0.057772453874349594 -0.0714285671710968
			vertex -0.04428320750594139 -0.06302078068256378 -0.0714285671710968
		endloop
	endfacet
	facet normal -0.6959181415885116 -0.7181211180629578 0
		outer loop
			vertex -0.0515042208135128 -0.05602302774786949 0.0714285671710968
			vertex -0.04428320750594139 -0.06302078068256378 -0.0714285671710968
			vertex -0.04428320750594139 -0.06302078068256378 0.0714285671710968
		endloop
	endfacet
	facet normal -0.4090948660835012 -0.912491857796068 -5.361707018981088e-8
		outer loop
			vertex -0.036453988403081894 -0.06653082370758057 -0.0714285671710968
			vertex -0.03841131553053856 -0.06565330922603607 0.0714285671710968
			vertex -0.04428320750594139 -0.06302078068256378 0.0714285671710968
		endloop
	endfacet
	facet normal -0.4090940514827198 -0.9124922230032724 0
		outer loop
			vertex -0.036453988403081894 -0.06653082370758057 -0.0714285671710968
			vertex -0.04428320750594139 -0.06302078068256378 0.0714285671710968
			vertex -0.04428320750594139 -0.06302078068256378 -0.0714285671710968
		endloop
	endfacet
	facet normal -0.40909475803120754 -0.9124919062388365 -5.1839049669256565e-8
		outer loop
			vertex -0.03841131553053856 -0.06565330922603607 0.0714285671710968
			vertex -0.036453988403081894 -0.06653082370758057 -0.0714285671710968
			vertex -0.030582094565033913 -0.06916335225105286 -0.0714285671710968
		endloop
	endfacet
	facet normal -0.4090939704438997 -0.9124922593350837 0
		outer loop
			vertex -0.03841131553053856 -0.06565330922603607 0.0714285671710968
			vertex -0.030582094565033913 -0.06916335225105286 -0.0714285671710968
			vertex -0.030582094565033913 -0.06916335225105286 0.0714285671710968
		endloop
	endfacet
	facet normal -0.13323369013148678 -0.9910846501757281 4.372430214167901e-8
		outer loop
			vertex -0.02888011373579502 -0.06939215958118439 -0.0714285671710968
			vertex -0.029305601492524147 -0.0693349540233612 0.0714285671710968
			vertex -0.030582094565033913 -0.06916335225105286 0.0714285671710968
		endloop
	endfacet
	facet normal -0.1332372950158498 -0.991084165556518 0
		outer loop
			vertex -0.02888011373579502 -0.06939215958118439 -0.0714285671710968
			vertex -0.030582094565033913 -0.06916335225105286 0.0714285671710968
			vertex -0.030582094565033913 -0.06916335225105286 -0.0714285671710968
		endloop
	endfacet
	facet normal -0.13321927096196512 -0.9910865884696225 8.744673368767173e-8
		outer loop
			vertex -0.029305601492524147 -0.0693349540233612 0.0714285671710968
			vertex -0.02888011373579502 -0.06939215958118439 -0.0714285671710968
			vertex -0.027603590860962868 -0.06956374645233154 -0.0714285671710968
		endloop
	endfacet
	facet normal -0.13322648047314103 -0.991085619359266 0
		outer loop
			vertex -0.029305601492524147 -0.0693349540233612 0.0714285671710968
			vertex -0.027603590860962868 -0.06956374645233154 -0.0714285671710968
			vertex -0.027603590860962868 -0.06956374645233154 0.0714285671710968
		endloop
	endfacet
	facet normal -0.1346760534772131 -0.9908896813570128 2.508741280370484e-8
		outer loop
			vertex -0.027028793469071388 -0.06964187324047089 -0.0714285671710968
			vertex -0.027172500267624855 -0.06962233781814575 0.0714285671710968
			vertex -0.027603590860962868 -0.06956374645233154 0.0714285671710968
		endloop
	endfacet
	facet normal -0.13468217547384057 -0.9908888492710138 0
		outer loop
			vertex -0.027028793469071388 -0.06964187324047089 -0.0714285671710968
			vertex -0.027603590860962868 -0.06956374645233154 0.0714285671710968
			vertex -0.027603590860962868 -0.06956374645233154 -0.0714285671710968
		endloop
	endfacet
	facet normal -0.1346760534772131 -0.9908896813570128 2.508741280370484e-8
		outer loop
			vertex -0.027172500267624855 -0.06962233781814575 0.0714285671710968
			vertex -0.027028793469071388 -0.06964187324047089 -0.0714285671710968
			vertex -0.026597702875733376 -0.0697004646062851 -0.0714285671710968
		endloop
	endfacet
	facet normal -0.13468217547384057 -0.9908888492710138 0
		outer loop
			vertex -0.027172500267624855 -0.06962233781814575 0.0714285671710968
			vertex -0.026597702875733376 -0.0697004646062851 -0.0714285671710968
			vertex -0.026597702875733376 -0.0697004646062851 0.0714285671710968
		endloop
	endfacet
	facet normal -0.07647663936603252 -0.9970713733887248 0
		outer loop
			vertex -0.026571864262223244 -0.06970244646072388 -0.0714285671710968
			vertex -0.026571864262223244 -0.06970244646072388 0.0714285671710968
			vertex -0.026597702875733376 -0.0697004646062851 0.0714285671710968
		endloop
	endfacet
	facet normal -0.07647663936603252 -0.9970713733887248 0
		outer loop
			vertex -0.026571864262223244 -0.06970244646072388 -0.0714285671710968
			vertex -0.026597702875733376 -0.0697004646062851 0.0714285671710968
			vertex -0.026597702875733376 -0.0697004646062851 -0.0714285671710968
		endloop
	endfacet
	facet normal -0.07620791132463264 -0.9970919487447168 1.099738476854633e-8
		outer loop
			vertex -0.02484547533094883 -0.0698343962430954 -0.0714285671710968
			vertex -0.025283539667725563 -0.06980091333389282 0.0714285671710968
			vertex -0.026571864262223244 -0.06970244646072388 0.0714285671710968
		endloop
	endfacet
	facet normal -0.07620881606316078 -0.9970918795949808 0
		outer loop
			vertex -0.02484547533094883 -0.0698343962430954 -0.0714285671710968
			vertex -0.026571864262223244 -0.06970244646072388 0.0714285671710968
			vertex -0.026571864262223244 -0.06970244646072388 -0.0714285671710968
		endloop
	endfacet
	facet normal -0.07621319512084877 -0.9970915448891701 -5.299770808662636e-9
		outer loop
			vertex -0.025283539667725563 -0.06980091333389282 0.0714285671710968
			vertex -0.02484547533094883 -0.0698343962430954 -0.0714285671710968
			vertex -0.023531312122941017 -0.06993484497070312 -0.0714285671710968
		endloop
	endfacet
	facet normal -0.07621276554623502 -0.9970915777238291 0
		outer loop
			vertex -0.025283539667725563 -0.06980091333389282 0.0714285671710968
			vertex -0.023531312122941017 -0.06993484497070312 -0.0714285671710968
			vertex -0.023531312122941017 -0.06993484497070312 0.0714285671710968
		endloop
	endfacet
	facet normal 0.0720479778606639 -0.9974011674778557 5.010126780325254e-9
		outer loop
			vertex -0.021059179678559303 -0.06975626945495605 -0.0714285671710968
			vertex -0.02167722024023533 -0.06980091333389282 0.0714285671710968
			vertex -0.023531312122941017 -0.06993484497070312 0.0714285671710968
		endloop
	endfacet
	facet normal 0.07204768984329842 -0.9974011882829518 0
		outer loop
			vertex -0.021059179678559303 -0.06975626945495605 -0.0714285671710968
			vertex -0.023531312122941017 -0.06993484497070312 0.0714285671710968
			vertex -0.023531312122941017 -0.06993484497070312 -0.0714285671710968
		endloop
	endfacet
	facet normal 0.0720479778606639 -0.9974011674778557 5.010126780325254e-9
		outer loop
			vertex -0.02167722024023533 -0.06980091333389282 0.0714285671710968
			vertex -0.021059179678559303 -0.06975626945495605 -0.0714285671710968
			vertex -0.019205087795853615 -0.06962233781814575 -0.0714285671710968
		endloop
	endfacet
	facet normal 0.07204768984329842 -0.9974011882829518 0
		outer loop
			vertex -0.02167722024023533 -0.06980091333389282 0.0714285671710968
			vertex -0.019205087795853615 -0.06962233781814575 -0.0714285671710968
			vertex -0.019205087795853615 -0.06962233781814575 0.0714285671710968
		endloop
	endfacet
	facet normal 1 0 0
		outer loop
			vertex 0.0659726932644844 -0.008831826969981194 0.0714285671710968
			vertex 0.0659726932644844 -0.030719516798853874 0.0714285671710968
			vertex 0.0659726932644844 -0.030719516798853874 0.03137565776705742
		endloop
	endfacet
	facet normal 1 0 0
		outer loop
			vertex 0.0659726932644844 -0.008831826969981194 0.0714285671710968
			vertex 0.0659726932644844 -0.030719516798853874 0.03137565776705742
			vertex 0.0659726932644844 -0.008831826969981194 0.009020463563501835
		endloop
	endfacet
	facet normal 1 0 0
		outer loop
			vertex 0.0659726932644844 -0.030719516798853874 -0.0714285671710968
			vertex 0.0659726932644844 -0.008831826969981194 -0.0714285671710968
			vertex 0.0659726932644844 -0.008831826969981194 0.009020463563501835
		endloop
	endfacet
	facet normal 1 0 0
		outer loop
			vertex 0.0659726932644844 -0.030719516798853874 -0.0714285671710968
			vertex 0.0659726932644844 -0.008831826969981194 0.009020463563501835
			vertex 0.0659726932644844 -0.030719516798853874 0.03137565776705742
		endloop
	endfacet
	facet normal 1 0 0
		outer loop
			vertex 0.0659726932644844 0.02538898028433323 0.0714285671710968
			vertex 0.0659726932644844 -0.008831826969981194 0.0714285671710968
			vertex 0.0659726932644844 -0.008831826969981194 0.009020463563501835
		endloop
	endfacet
	facet normal 1 0 0
		outer loop
			vertex 0.0659726932644844 0.02538898028433323 0.0714285671710968
			vertex 0.0659726932644844 -0.008831826969981194 0.009020463563501835
			vertex 0.0659726932644844 0.02538898028433323 -0.025931255891919136
		endloop
	endfacet
	facet normal 1 0 0
		outer loop
			vertex 0.0659726932644844 -0.008831826969981194 -0.0714285671710968
			vertex 0.0659726932644844 0.02538898028433323 -0.0714285671710968
			vertex 0.0659726932644844 0.02538898028433323 -0.025931255891919136
		endloop
	endfacet
	facet normal 1 0 0
		outer loop
			vertex 0.0659726932644844 -0.008831826969981194 -0.0714285671710968
			vertex 0.0659726932644844 0.02538898028433323 -0.025931255891919136
			vertex 0.0659726932644844 -0.008831826969981194 0.009020463563501835
		endloop
	endfacet
	facet normal 0 1 0
		outer loop
			vertex 0.041224125772714615 0.06993483752012253 -0.04463331773877144
			vertex 0.041413579136133194 0.06993483752012253 -0.04483843967318535
			vertex 0.041413579136133194 0.06993483752012253 -0.0714285671710968
		endloop
	endfacet
	facet normal 0 1 0
		outer loop
			vertex 0.041224125772714615 0.06993483752012253 -0.04463331773877144
			vertex 0.041413579136133194 0.06993483752012253 -0.0714285671710968
			vertex 0.041224125772714615 0.06993483752012253 -0.0714285671710968
		endloop
	endfacet
	facet normal 0 1 0
		outer loop
			vertex 0.041224125772714615 0.06993483752012253 0.0714285671710968
			vertex 0.041413579136133194 0.06993483752012253 0.0714285671710968
			vertex 0.041413579136133194 0.06993483752012253 -0.04483843967318535
		endloop
	endfacet
	facet normal 0 1 0
		outer loop
			vertex 0.041224125772714615 0.06993483752012253 0.0714285671710968
			vertex 0.041413579136133194 0.06993483752012253 -0.04483843967318535
			vertex 0.041224125772714615 0.06993483752012253 -0.04463331773877144
		endloop
	endfacet
	facet normal 0 1 0
		outer loop
			vertex 0.03582489863038063 0.06993483752012253 -0.038787592202425
			vertex 0.041224125772714615 0.06993483752012253 -0.04463331773877144
			vertex 0.041224125772714615 0.06993483752012253 -0.0714285671710968
		endloop
	endfacet
	facet normal 0 1 0
		outer loop
			vertex 0.03582489863038063 0.06993483752012253 -0.038787592202425
			vertex 0.041224125772714615 0.06993483752012253 -0.0714285671710968
			vertex 0.03582489863038063 0.06993483752012253 -0.0714285671710968
		endloop
	endfacet
	facet normal 0 1 0
		outer loop
			vertex 0.03582489863038063 0.06993483752012253 0.0714285671710968
			vertex 0.041224125772714615 0.06993483752012253 0.0714285671710968
			vertex 0.041224125772714615 0.06993483752012253 -0.04463331773877144
		endloop
	endfacet
	facet normal 0 1 0
		outer loop
			vertex 0.03582489863038063 0.06993483752012253 0.0714285671710968
			vertex 0.041224125772714615 0.06993483752012253 -0.04463331773877144
			vertex 0.03582489863038063 0.06993483752012253 -0.038787592202425
		endloop
	endfacet
	facet normal 0 1 0
		outer loop
			vertex 0.032700542360544205 0.06993483752012253 -0.035404838621616364
			vertex 0.03582489863038063 0.06993483752012253 -0.038787592202425
			vertex 0.03582489863038063 0.06993483752012253 -0.0714285671710968
		endloop
	endfacet
	facet normal 0 1 0
		outer loop
			vertex 0.032700542360544205 0.06993483752012253 -0.035404838621616364
			vertex 0.03582489863038063 0.06993483752012253 -0.0714285671710968
			vertex 0.032700542360544205 0.06993483752012253 -0.0714285671710968
		endloop
	endfacet
	facet normal 0 1 0
		outer loop
			vertex 0.032700542360544205 0.06993483752012253 0.0714285671710968
			vertex 0.03582489863038063 0.06993483752012253 0.0714285671710968
			vertex 0.03582489863038063 0.06993483752012253 -0.038787592202425
		endloop
	endfacet
	facet normal 0 1 0
		outer loop
			vertex 0.032700542360544205 0.06993483752012253 0.0714285671710968
			vertex 0.03582489863038063 0.06993483752012253 -0.038787592202425
			vertex 0.032700542360544205 0.06993483752012253 -0.035404838621616364
		endloop
	endfacet
	facet normal 0 1 0
		outer loop
			vertex 0.0256399717181921 0.06993483752012253 -0.027760369703173637
			vertex 0.032700542360544205 0.06993483752012253 -0.035404838621616364
			vertex 0.032700542360544205 0.06993483752012253 -0.0714285671710968
		endloop
	endfacet
	facet normal 0 1 0
		outer loop
			vertex 0.0256399717181921 0.06993483752012253 -0.027760369703173637
			vertex 0.032700542360544205 0.06993483752012253 -0.0714285671710968
			vertex 0.0256399717181921 0.06993483752012253 -0.0714285671710968
		endloop
	endfacet
	facet normal 0 1 0
		outer loop
			vertex 0.0256399717181921 0.06993483752012253 0.0714285671710968
			vertex 0.032700542360544205 0.06993483752012253 0.0714285671710968
			vertex 0.032700542360544205 0.06993483752012253 -0.035404838621616364
		endloop
	endfacet
	facet normal 0 1 0
		outer loop
			vertex 0.0256399717181921 0.06993483752012253 0.0714285671710968
			vertex 0.032700542360544205 0.06993483752012253 -0.035404838621616364
			vertex 0.0256399717181921 0.06993483752012253 -0.027760369703173637
		endloop
	endfacet
	facet normal 0 1 0
		outer loop
			vertex 0.02344517968595028 0.06993483752012253 -0.025384074077010155
			vertex 0.0256399717181921 0.06993483752012253 -0.027760369703173637
			vertex 0.0256399717181921 0.06993483752012253 -0.0714285671710968
		endloop
	endfacet
	facet normal 0 1 0
		outer loop
			vertex 0.02344517968595028 0.06993483752012253 -0.025384074077010155
			vertex 0.0256399717181921 0.06993483752012253 -0.0714285671710968
			vertex 0.02344517968595028 0.06993483752012253 -0.0714285671710968
		endloop
	endfacet
	facet normal 0 1 0
		outer loop
			vertex 0.02344517968595028 0.06993483752012253 0.0714285671710968
			vertex 0.0256399717181921 0.06993483752012253 0.0714285671710968
			vertex 0.0256399717181921 0.06993483752012253 -0.027760369703173637
		endloop
	endfacet
	facet normal 0 1 0
		outer loop
			vertex 0.02344517968595028 0.06993483752012253 0.0714285671710968
			vertex 0.0256399717181921 0.06993483752012253 -0.027760369703173637
			vertex 0.02344517968595028 0.06993483752012253 -0.025384074077010155
		endloop
	endfacet
	facet normal 0 1 0
		outer loop
			vertex 0.023220768198370934 0.06993483752012253 -0.025141103193163872
			vertex 0.02344517968595028 0.06993483752012253 -0.025384074077010155
			vertex 0.02344517968595028 0.06993483752012253 -0.0714285671710968
		endloop
	endfacet
	facet normal 0 1 0
		outer loop
			vertex 0.023220768198370934 0.06993483752012253 -0.025141103193163872
			vertex 0.02344517968595028 0.06993483752012253 -0.0714285671710968
			vertex 0.023220768198370934 0.06993483752012253 -0.0714285671710968
		endloop
	endfacet
	facet normal 0 1 0
		outer loop
			vertex 0.023220768198370934 0.06993483752012253 0.0714285671710968
			vertex 0.02344517968595028 0.06993483752012253 0.0714285671710968
			vertex 0.02344517968595028 0.06993483752012253 -0.025384074077010155
		endloop
	endfacet
	facet normal 0 1 0
		outer loop
			vertex 0.023220768198370934 0.06993483752012253 0.0714285671710968
			vertex 0.02344517968595028 0.06993483752012253 -0.025384074077010155
			vertex 0.023220768198370934 0.06993483752012253 -0.025141103193163872
		endloop
	endfacet
	facet normal 0 1 0
		outer loop
			vertex -0.017224544659256935 0.06993483752012253 0.018648993223905563
			vertex -0.01713486947119236 0.06993483752012253 0.018551914021372795
			vertex -0.01713486947119236 0.06993483752012253 -0.0714285671710968
		endloop
	endfacet
	facet normal 0 1 0
		outer loop
			vertex -0.017224544659256935 0.06993483752012253 0.018648993223905563
			vertex -0.01713486947119236 0.06993483752012253 -0.0714285671710968
			vertex -0.017224544659256935 0.06993483752012253 -0.0714285671710968
		endloop
	endfacet
	facet normal 0 1 0
		outer loop
			vertex -0.017224544659256935 0.06993483752012253 0.0714285671710968
			vertex -0.01713486947119236 0.06993483752012253 0.0714285671710968
			vertex -0.01713486947119236 0.06993483752012253 0.018551914021372795
		endloop
	endfacet
	facet normal 0 1 0
		outer loop
			vertex -0.017224544659256935 0.06993483752012253 0.0714285671710968
			vertex -0.01713486947119236 0.06993483752012253 0.018551914021372795
			vertex -0.017224544659256935 0.06993483752012253 0.018648993223905563
		endloop
	endfacet
	facet normal 0 1 0
		outer loop
			vertex -0.01713486947119236 0.06993483752012253 0.018551914021372795
			vertex -0.005873496178537607 0.06993483752012253 0.006359236780554056
			vertex -0.005873496178537607 0.06993483752012253 -0.0714285671710968
		endloop
	endfacet
	facet normal 0 1 0
		outer loop
			vertex -0.01713486947119236 0.06993483752012253 0.018551914021372795
			vertex -0.005873496178537607 0.06993483752012253 -0.0714285671710968
			vertex -0.01713486947119236 0.06993483752012253 -0.0714285671710968
		endloop
	endfacet
	facet normal 0 1 0
		outer loop
			vertex -0.01713486947119236 0.06993483752012253 0.0714285671710968
			vertex -0.005873496178537607 0.06993483752012253 0.0714285671710968
			vertex -0.005873496178537607 0.06993483752012253 0.006359236780554056
		endloop
	endfacet
	facet normal 0 1 0
		outer loop
			vertex -0.01713486947119236 0.06993483752012253 0.0714285671710968
			vertex -0.005873496178537607 0.06993483752012253 0.006359236780554056
			vertex -0.01713486947119236 0.06993483752012253 0.018551914021372795
		endloop
	endfacet
	facet normal 0 1 0
		outer loop
			vertex -0.005873496178537607 0.06993483752012253 0.006359236780554056
			vertex 0.01145998202264309 0.06993483752012253 -0.01240769773721695
			vertex 0.01145998202264309 0.06993483752012253 -0.0714285671710968
		endloop
	endfacet
	facet normal 0 1 0
		outer loop
			vertex -0.005873496178537607 0.06993483752012253 0.006359236780554056
			vertex 0.01145998202264309 0.06993483752012253 -0.0714285671710968
			vertex -0.005873496178537607 0.06993483752012253 -0.0714285671710968
		endloop
	endfacet
	facet normal 0 1 0
		outer loop
			vertex -0.005873496178537607 0.06993483752012253 0.0714285671710968
			vertex 0.01145998202264309 0.06993483752012253 0.0714285671710968
			vertex 0.01145998202264309 0.06993483752012253 -0.01240769773721695
		endloop
	endfacet
	facet normal 0 1 0
		outer loop
			vertex -0.005873496178537607 0.06993483752012253 0.0714285671710968
			vertex 0.01145998202264309 0.06993483752012253 -0.01240769773721695
			vertex -0.005873496178537607 0.06993483752012253 0.006359236780554056
		endloop
	endfacet
	facet normal 0 1 0
		outer loop
			vertex 0.01145998202264309 0.06993483752012253 -0.01240769773721695
			vertex 0.023220768198370934 0.06993483752012253 -0.025141103193163872
			vertex 0.023220768198370934 0.06993483752012253 -0.0714285671710968
		endloop
	endfacet
	facet normal 0 1 0
		outer loop
			vertex 0.01145998202264309 0.06993483752012253 -0.01240769773721695
			vertex 0.023220768198370934 0.06993483752012253 -0.0714285671710968
			vertex 0.01145998202264309 0.06993483752012253 -0.0714285671710968
		endloop
	endfacet
	facet normal 0 1 0
		outer loop
			vertex 0.01145998202264309 0.06993483752012253 0.0714285671710968
			vertex 0.023220768198370934 0.06993483752012253 0.0714285671710968
			vertex 0.023220768198370934 0.06993483752012253 -0.025141103193163872
		endloop
	endfacet
	facet normal 0 1 0
		outer loop
			vertex 0.01145998202264309 0.06993483752012253 0.0714285671710968
			vertex 0.023220768198370934 0.06993483752012253 -0.025141103193163872
			vertex 0.01145998202264309 0.06993483752012253 -0.01240769773721695
		endloop
	endfacet
	facet normal 0 0 1
		outer loop
			vertex 0.041413579136133194 0.06993483752012253 0.0714285671710968
			vertex 0.041224125772714615 0.06993483752012253 0.0714285671710968
			vertex 0.04212329164147377 0.06813119351863861 0.0714285671710968
		endloop
	endfacet
	facet normal 0 0 1
		outer loop
			vertex 0.049251679331064224 0.05220961198210716 0.0714285671710968
			vertex 0.04978096857666969 0.052770692855119705 0.0714285671710968
			vertex 0.041224125772714615 0.06993483752012253 0.0714285671710968
		endloop
	endfacet
	facet normal 0 0 1
		outer loop
			vertex 0.049251679331064224 0.05220961198210716 0.0714285671710968
			vertex 0.041224125772714615 0.06993483752012253 0.0714285671710968
			vertex 0.03582489863038063 0.06993483752012253 0.0714285671710968
		endloop
	endfacet
	facet normal 0 0 1
		outer loop
			vertex 0.04978096857666969 0.052770692855119705 0.0714285671710968
			vertex 0.049251679331064224 0.05220961198210716 0.0714285671710968
			vertex 0.05161804333329201 0.049085695296525955 0.0714285671710968
		endloop
	endfacet
	facet normal 0 0 1
		outer loop
			vertex 0.05161804333329201 0.049085695296525955 0.0714285671710968
			vertex 0.051052276045084 0.049832601100206375 0.0714285671710968
			vertex 0.05195729807019234 0.04840519651770592 0.0714285671710968
		endloop
	endfacet
	facet normal 0 0 1
		outer loop
			vertex 0.04770931974053383 0.05057461932301521 0.0714285671710968
			vertex 0.049251679331064224 0.05220961198210716 0.0714285671710968
			vertex 0.03582489863038063 0.06993483752012253 0.0714285671710968
		endloop
	endfacet
	facet normal 0 0 1
		outer loop
			vertex 0.04770931974053383 0.05057461932301521 0.0714285671710968
			vertex 0.03582489863038063 0.06993483752012253 0.0714285671710968
			vertex 0.032700542360544205 0.06993483752012253 0.0714285671710968
		endloop
	endfacet
	facet normal 0 0 1
		outer loop
			vertex 0.051052276045084 0.049832601100206375 0.0714285671710968
			vertex 0.049251679331064224 0.05220961198210716 0.0714285671710968
			vertex 0.04770931974053383 0.05057461932301521 0.0714285671710968
		endloop
	endfacet
	facet normal 0 0 1
		outer loop
			vertex 0.051052276045084 0.049832601100206375 0.0714285671710968
			vertex 0.04770931974053383 0.05057461932301521 0.0714285671710968
			vertex 0.06348029524087906 0.03023119457066059 0.0714285671710968
		endloop
	endfacet
	facet normal 0 0 1
		outer loop
			vertex 0.04552396014332771 0.048258017748594284 0.0714285671710968
			vertex 0.04770931974053383 0.05057461932301521 0.0714285671710968
			vertex 0.032700542360544205 0.06993483752012253 0.0714285671710968
		endloop
	endfacet
	facet normal 0 0 1
		outer loop
			vertex 0.04552396014332771 0.048258017748594284 0.0714285671710968
			vertex 0.032700542360544205 0.06993483752012253 0.0714285671710968
			vertex 0.0256399717181921 0.06993483752012253 0.0714285671710968
		endloop
	endfacet
	facet normal 0 0 1
		outer loop
			vertex 0.0659726932644844 0.025965513661503792 0.0714285671710968
			vertex 0.0659726932644844 0.027016179636120796 0.0714285671710968
			vertex 0.04770931974053383 0.05057461932301521 0.0714285671710968
		endloop
	endfacet
	facet normal 0 0 1
		outer loop
			vertex 0.0659726932644844 0.025965513661503792 0.0714285671710968
			vertex 0.04770931974053383 0.05057461932301521 0.0714285671710968
			vertex 0.04552396014332771 0.048258017748594284 0.0714285671710968
		endloop
	endfacet
	facet normal 0 0 1
		outer loop
			vertex 0.0448465533554554 0.047539930790662766 0.0714285671710968
			vertex 0.04552396014332771 0.048258017748594284 0.0714285671710968
			vertex 0.0256399717181921 0.06993483752012253 0.0714285671710968
		endloop
	endfacet
	facet normal 0 0 1
		outer loop
			vertex 0.0448465533554554 0.047539930790662766 0.0714285671710968
			vertex 0.0256399717181921 0.06993483752012253 0.0714285671710968
			vertex 0.02344517968595028 0.06993483752012253 0.0714285671710968
		endloop
	endfacet
	facet normal 0 0 1
		outer loop
			vertex 0.0659726932644844 0.025433020666241646 0.0714285671710968
			vertex 0.0659726932644844 0.025965513661503792 0.0714285671710968
			vertex 0.04552396014332771 0.048258017748594284 0.0714285671710968
		endloop
	endfacet
	facet normal 0 0 1
		outer loop
			vertex 0.0659726932644844 0.025433020666241646 0.0714285671710968
			vertex 0.04552396014332771 0.048258017748594284 0.0714285671710968
			vertex 0.0448465533554554 0.047539930790662766 0.0714285671710968
		endloop
	endfacet
	facet normal 0 0 1
		outer loop
			vertex 0.04478074982762337 0.04747017100453377 0.0714285671710968
			vertex 0.0448465533554554 0.047539930790662766 0.0714285671710968
			vertex 0.02344517968595028 0.06993483752012253 0.0714285671710968
		endloop
	endfacet
	facet normal 0 0 1
		outer loop
			vertex 0.04478074982762337 0.04747017100453377 0.0714285671710968
			vertex 0.02344517968595028 0.06993483752012253 0.0714285671710968
			vertex 0.023220768198370934 0.06993483752012253 0.0714285671710968
		endloop
	endfacet
	facet normal 0 0 1
		outer loop
			vertex 0.0659726932644844 0.02538898028433323 0.0714285671710968
			vertex 0.0659726932644844 0.025433020666241646 0.0714285671710968
			vertex 0.0448465533554554 0.047539930790662766 0.0714285671710968
		endloop
	endfacet
	facet normal 0 0 1
		outer loop
			vertex 0.0659726932644844 0.02538898028433323 0.0714285671710968
			vertex 0.0448465533554554 0.047539930790662766 0.0714285671710968
			vertex 0.04478074982762337 0.04747017100453377 0.0714285671710968
		endloop
	endfacet
	facet normal 0 0 1
		outer loop
			vertex -0.033907052129507065 0.05272381380200386 0.0714285671710968
			vertex -0.01713486947119236 0.06993483752012253 0.0714285671710968
			vertex -0.017224544659256935 0.06993483752012253 0.0714285671710968
		endloop
	endfacet
	facet normal 0 0 1
		outer loop
			vertex -0.033907052129507065 0.05272381380200386 0.0714285671710968
			vertex -0.017224544659256935 0.06993483752012253 0.0714285671710968
			vertex -0.017828190699219704 0.06934218853712082 0.0714285671710968
		endloop
	endfacet
	facet normal 0 0 1
		outer loop
			vertex -0.033907052129507065 0.05272381380200386 0.0714285671710968
			vertex -0.017828190699219704 0.06934218853712082 0.0714285671710968
			vertex -0.0214610043913126 0.06575819104909897 0.0714285671710968
		endloop
	endfacet
	facet normal 0 0 1
		outer loop
			vertex -0.033907052129507065 0.05272381380200386 0.0714285671710968
			vertex -0.0214610043913126 0.06575819104909897 0.0714285671710968
			vertex -0.03215431794524193 0.05474318936467171 0.0714285671710968
		endloop
	endfacet
	facet normal 0 0 1
		outer loop
			vertex -0.05711882933974266 0.018172072246670723 0.0714285671710968
			vertex -0.05565040931105614 0.02117839641869068 0.0714285671710968
			vertex -0.05706646665930748 0.018287787213921547 0.0714285671710968
		endloop
	endfacet
	facet normal 0 0 1
		outer loop
			vertex -0.026571864262223244 -0.06970244646072388 0.0714285671710968
			vertex -0.027603590860962868 -0.06956374645233154 0.0714285671710968
			vertex -0.026597702875733376 -0.0697004646062851 0.0714285671710968
		endloop
	endfacet
	facet normal 0 0 1
		outer loop
			vertex -0.0659727081656456 -0.0163507591933012 0.0714285671710968
			vertex -0.0659727081656456 -0.02152666263282299 0.0714285671710968
			vertex -0.0657285675406456 -0.029026610776782036 0.0714285671710968
		endloop
	endfacet
	facet normal 0 0 1
		outer loop
			vertex -0.0659727081656456 -0.0163507591933012 0.0714285671710968
			vertex -0.0657285675406456 -0.029026610776782036 0.0714285671710968
			vertex -0.06476175040006638 -0.03616530820727348 0.0714285671710968
		endloop
	endfacet
	facet normal 0 0 1
		outer loop
			vertex -0.0659727081656456 -0.0163507591933012 0.0714285671710968
			vertex -0.06476175040006638 -0.03616530820727348 0.0714285671710968
			vertex -0.06275003403425217 -0.041800107806921005 0.0714285671710968
		endloop
	endfacet
	facet normal 0 0 1
		outer loop
			vertex -0.0659727081656456 -0.0163507591933012 0.0714285671710968
			vertex -0.06275003403425217 -0.041800107806921005 0.0714285671710968
			vertex -0.06029888615012169 -0.045999299734830856 0.0714285671710968
		endloop
	endfacet
	facet normal 0 0 1
		outer loop
			vertex -0.0659727081656456 -0.0163507591933012 0.0714285671710968
			vertex -0.06029888615012169 -0.045999299734830856 0.0714285671710968
			vertex -0.05936136469244957 -0.04733720049262047 0.0714285671710968
		endloop
	endfacet
	facet normal 0 0 1
		outer loop
			vertex -0.0659727081656456 -0.0163507591933012 0.0714285671710968
			vertex -0.05936136469244957 -0.04733720049262047 0.0714285671710968
			vertex -0.05691998824477196 -0.0507747046649456 0.0714285671710968
		endloop
	endfacet
	facet normal 0 0 1
		outer loop
			vertex -0.0659727081656456 -0.0163507591933012 0.0714285671710968
			vertex -0.05691998824477196 -0.0507747046649456 0.0714285671710968
			vertex -0.05220678076148033 -0.0553421787917614 0.0714285671710968
		endloop
	endfacet
	facet normal 0 0 1
		outer loop
			vertex -0.0659727081656456 -0.0163507591933012 0.0714285671710968
			vertex -0.05220678076148033 -0.0553421787917614 0.0714285671710968
			vertex 0.01091337762773037 0.011568816378712654 0.0714285671710968
		endloop
	endfacet
	facet normal 0 0 1
		outer loop
			vertex -0.0659727081656456 -0.0163507591933012 0.0714285671710968
			vertex 0.01091337762773037 0.011568816378712654 0.0714285671710968
			vertex -0.005873496178537607 0.06993483752012253 0.0714285671710968
		endloop
	endfacet
	facet normal 0 0 1
		outer loop
			vertex -0.0659727081656456 -0.0163507591933012 0.0714285671710968
			vertex -0.005873496178537607 0.06993483752012253 0.0714285671710968
			vertex -0.01713486947119236 0.06993483752012253 0.0714285671710968
		endloop
	endfacet
	facet normal 0 0 1
		outer loop
			vertex -0.0659727081656456 -0.0163507591933012 0.0714285671710968
			vertex -0.01713486947119236 0.06993483752012253 0.0714285671710968
			vertex -0.033907052129507065 0.05272381380200386 0.0714285671710968
		endloop
	endfacet
	facet normal 0 0 1
		outer loop
			vertex -0.0659727081656456 -0.0163507591933012 0.0714285671710968
			vertex -0.033907052129507065 0.05272381380200386 0.0714285671710968
			vertex -0.04210549220442772 0.043278198689222336 0.0714285671710968
		endloop
	endfacet
	facet normal 0 0 1
		outer loop
			vertex -0.0659727081656456 -0.0163507591933012 0.0714285671710968
			vertex -0.04210549220442772 0.043278198689222336 0.0714285671710968
			vertex -0.049380894750356674 0.03280920162796974 0.0714285671710968
		endloop
	endfacet
	facet normal 0 0 1
		outer loop
			vertex -0.0659727081656456 -0.0163507591933012 0.0714285671710968
			vertex -0.049380894750356674 0.03280920162796974 0.0714285671710968
			vertex -0.054205115884542465 0.024137387052178383 0.0714285671710968
		endloop
	endfacet
	facet normal 0 0 1
		outer loop
			vertex -0.0659727081656456 -0.0163507591933012 0.0714285671710968
			vertex -0.054205115884542465 0.024137387052178383 0.0714285671710968
			vertex -0.05711882933974266 0.018172072246670723 0.0714285671710968
		endloop
	endfacet
	facet normal 0 0 1
		outer loop
			vertex -0.0659727081656456 -0.0163507591933012 0.0714285671710968
			vertex -0.05711882933974266 0.018172072246670723 0.0714285671710968
			vertex -0.06107034906744957 0.00944020040333271 0.0714285671710968
		endloop
	endfacet
	facet normal 0 0 1
		outer loop
			vertex -0.0659727081656456 -0.0163507591933012 0.0714285671710968
			vertex -0.06107034906744957 0.00944020040333271 0.0714285671710968
			vertex -0.06419535726308823 0.0003873875830322504 0.0714285671710968
		endloop
	endfacet
	facet normal 0 0 1
		outer loop
			vertex -0.0659727081656456 -0.0163507591933012 0.0714285671710968
			vertex -0.06419535726308823 0.0003873875830322504 0.0714285671710968
			vertex -0.06563090533018112 -0.00831371359527111 0.0714285671710968
		endloop
	endfacet
	facet normal 0 0 1
		outer loop
			vertex -0.02353128232061863 -0.06993484497070312 0.0714285671710968
			vertex -0.019205087795853615 -0.06962233781814575 0.0714285671710968
			vertex -0.013775402680039406 -0.06827469170093536 0.0714285671710968
		endloop
	endfacet
	facet normal 0 0 1
		outer loop
			vertex -0.02353128232061863 -0.06993484497070312 0.0714285671710968
			vertex -0.013775402680039406 -0.06827469170093536 0.0714285671710968
			vertex -0.006343806628137827 -0.06553053855895996 0.0714285671710968
		endloop
	endfacet
	facet normal 0 0 1
		outer loop
			vertex -0.02353128232061863 -0.06993484497070312 0.0714285671710968
			vertex -0.006343806628137827 -0.06553053855895996 0.0714285671710968
			vertex 0.003939395304769278 -0.061009060591459274 0.0714285671710968
		endloop
	endfacet
	facet normal 0 0 1
		outer loop
			vertex -0.02353128232061863 -0.06993484497070312 0.0714285671710968
			vertex 0.003939395304769278 -0.061009060591459274 0.0714285671710968
			vertex 0.017962804064154625 -0.0543782077729702 0.0714285671710968
		endloop
	endfacet
	facet normal 0 0 1
		outer loop
			vertex -0.02353128232061863 -0.06993484497070312 0.0714285671710968
			vertex 0.017962804064154625 -0.0543782077729702 0.0714285671710968
			vertex 0.028411870822310448 -0.0492713563144207 0.0714285671710968
		endloop
	endfacet
	facet normal 0 0 1
		outer loop
			vertex -0.02353128232061863 -0.06993484497070312 0.0714285671710968
			vertex 0.028411870822310448 -0.0492713563144207 0.0714285671710968
			vertex 0.01091337762773037 0.011568816378712654 0.0714285671710968
		endloop
	endfacet
	facet normal 0 0 1
		outer loop
			vertex -0.02353128232061863 -0.06993484497070312 0.0714285671710968
			vertex 0.01091337762773037 0.011568816378712654 0.0714285671710968
			vertex -0.05220678076148033 -0.0553421787917614 0.0714285671710968
		endloop
	endfacet
	facet normal 0 0 1
		outer loop
			vertex -0.02353128232061863 -0.06993484497070312 0.0714285671710968
			vertex -0.05220678076148033 -0.0553421787917614 0.0714285671710968
			vertex -0.04428320750594139 -0.06302078068256378 0.0714285671710968
		endloop
	endfacet
	facet normal 0 0 1
		outer loop
			vertex -0.02353128232061863 -0.06993484497070312 0.0714285671710968
			vertex -0.04428320750594139 -0.06302078068256378 0.0714285671710968
			vertex -0.030582094565033913 -0.06916335225105286 0.0714285671710968
		endloop
	endfacet
	facet normal 0 0 1
		outer loop
			vertex -0.02353128232061863 -0.06993484497070312 0.0714285671710968
			vertex -0.030582094565033913 -0.06916335225105286 0.0714285671710968
			vertex -0.026571864262223244 -0.06970244646072388 0.0714285671710968
		endloop
	endfacet
	facet normal 0 0 1
		outer loop
			vertex 0.01091337762773037 0.011568816378712654 0.0714285671710968
			vertex 0.03452866151928902 0.03660237416625023 0.0714285671710968
			vertex 0.01145998202264309 0.06993483752012253 0.0714285671710968
		endloop
	endfacet
	facet normal 0 0 1
		outer loop
			vertex 0.01091337762773037 0.011568816378712654 0.0714285671710968
			vertex 0.01145998202264309 0.06993483752012253 0.0714285671710968
			vertex -0.005873496178537607 0.06993483752012253 0.0714285671710968
		endloop
	endfacet
	facet normal 0 0 1
		outer loop
			vertex 0.028411870822310448 -0.0492713563144207 0.0714285671710968
			vertex 0.03660530224442482 -0.045266907662153244 0.0714285671710968
			vertex 0.05473029986023903 -0.0363118015229702 0.0714285671710968
		endloop
	endfacet
	facet normal 0 0 1
		outer loop
			vertex 0.028411870822310448 -0.0492713563144207 0.0714285671710968
			vertex 0.05473029986023903 -0.0363118015229702 0.0714285671710968
			vertex 0.06076529994606972 -0.0333235077559948 0.0714285671710968
		endloop
	endfacet
	facet normal 0 0 1
		outer loop
			vertex 0.028411870822310448 -0.0492713563144207 0.0714285671710968
			vertex 0.06076529994606972 -0.0333235077559948 0.0714285671710968
			vertex 0.06307030469179153 -0.03218090161681175 0.0714285671710968
		endloop
	endfacet
	facet normal 0 0 1
		outer loop
			vertex 0.028411870822310448 -0.0492713563144207 0.0714285671710968
			vertex 0.06307030469179153 -0.03218090161681175 0.0714285671710968
			vertex 0.0659726932644844 -0.030719516798853874 0.0714285671710968
		endloop
	endfacet
	facet normal 0 0 1
		outer loop
			vertex 0.028411870822310448 -0.0492713563144207 0.0714285671710968
			vertex 0.0659726932644844 -0.030719516798853874 0.0714285671710968
			vertex 0.0659726932644844 -0.008831826969981194 0.0714285671710968
		endloop
	endfacet
	facet normal 0 0 1
		outer loop
			vertex 0.028411870822310448 -0.0492713563144207 0.0714285671710968
			vertex 0.0659726932644844 -0.008831826969981194 0.0714285671710968
			vertex 0.03452866151928902 0.03660237416625023 0.0714285671710968
		endloop
	endfacet
	facet normal 0 0 1
		outer loop
			vertex 0.028411870822310448 -0.0492713563144207 0.0714285671710968
			vertex 0.03452866151928902 0.03660237416625023 0.0714285671710968
			vertex 0.01091337762773037 0.011568816378712654 0.0714285671710968
		endloop
	endfacet
	facet normal 0 0 1
		outer loop
			vertex 0.03452866151928902 0.03660237416625023 0.0714285671710968
			vertex 0.04478074982762337 0.04747017100453377 0.0714285671710968
			vertex 0.023220768198370934 0.06993483752012253 0.0714285671710968
		endloop
	endfacet
	facet normal 0 0 1
		outer loop
			vertex 0.03452866151928902 0.03660237416625023 0.0714285671710968
			vertex 0.023220768198370934 0.06993483752012253 0.0714285671710968
			vertex 0.01145998202264309 0.06993483752012253 0.0714285671710968
		endloop
	endfacet
	facet normal 0 0 1
		outer loop
			vertex 0.0659726932644844 -0.008831826969981194 0.0714285671710968
			vertex 0.0659726932644844 0.02538898028433323 0.0714285671710968
			vertex 0.04478074982762337 0.04747017100453377 0.0714285671710968
		endloop
	endfacet
	facet normal 0 0 1
		outer loop
			vertex 0.0659726932644844 -0.008831826969981194 0.0714285671710968
			vertex 0.04478074982762337 0.04747017100453377 0.0714285671710968
			vertex 0.03452866151928902 0.03660237416625023 0.0714285671710968
		endloop
	endfacet
	facet normal 0 0 -1
		outer loop
			vertex 0.04212329164147377 0.06813119351863861 -0.0714285671710968
			vertex 0.041224125772714615 0.06993483752012253 -0.0714285671710968
			vertex 0.041413579136133194 0.06993483752012253 -0.0714285671710968
		endloop
	endfacet
	facet normal 0 0 -1
		outer loop
			vertex 0.05161804333329201 0.049085695296525955 -0.0714285671710968
			vertex 0.03582489863038063 0.06993483752012253 -0.0714285671710968
			vertex 0.041224125772714615 0.06993483752012253 -0.0714285671710968
		endloop
	endfacet
	facet normal 0 0 -1
		outer loop
			vertex 0.05195729807019234 0.04840519651770592 -0.0714285671710968
			vertex 0.051052276045084 0.049832601100206375 -0.0714285671710968
			vertex 0.05161804333329201 0.049085695296525955 -0.0714285671710968
		endloop
	endfacet
	facet normal 0 0 -1
		outer loop
			vertex 0.06348029524087906 0.03023119457066059 -0.0714285671710968
			vertex 0.032700542360544205 0.06993483752012253 -0.0714285671710968
			vertex 0.03582489863038063 0.06993483752012253 -0.0714285671710968
		endloop
	endfacet
	facet normal 0 0 -1
		outer loop
			vertex 0.06348029524087906 0.03023119457066059 -0.0714285671710968
			vertex 0.03582489863038063 0.06993483752012253 -0.0714285671710968
			vertex 0.051052276045084 0.049832601100206375 -0.0714285671710968
		endloop
	endfacet
	facet normal 0 0 -1
		outer loop
			vertex 0.0659726932644844 0.027016179636120796 -0.0714285671710968
			vertex 0.0659726932644844 0.025965513661503792 -0.0714285671710968
			vertex 0.0256399717181921 0.06993483752012253 -0.0714285671710968
		endloop
	endfacet
	facet normal 0 0 -1
		outer loop
			vertex 0.0659726932644844 0.027016179636120796 -0.0714285671710968
			vertex 0.0256399717181921 0.06993483752012253 -0.0714285671710968
			vertex 0.032700542360544205 0.06993483752012253 -0.0714285671710968
		endloop
	endfacet
	facet normal 0 0 -1
		outer loop
			vertex 0.0659726932644844 0.025965513661503792 -0.0714285671710968
			vertex 0.0659726932644844 0.025433020666241646 -0.0714285671710968
			vertex 0.02344517968595028 0.06993483752012253 -0.0714285671710968
		endloop
	endfacet
	facet normal 0 0 -1
		outer loop
			vertex 0.0659726932644844 0.025965513661503792 -0.0714285671710968
			vertex 0.02344517968595028 0.06993483752012253 -0.0714285671710968
			vertex 0.0256399717181921 0.06993483752012253 -0.0714285671710968
		endloop
	endfacet
	facet normal 0 0 -1
		outer loop
			vertex 0.0659726932644844 0.025433020666241646 -0.0714285671710968
			vertex 0.0659726932644844 0.02538898028433323 -0.0714285671710968
			vertex 0.023220768198370934 0.06993483752012253 -0.0714285671710968
		endloop
	endfacet
	facet normal 0 0 -1
		outer loop
			vertex 0.0659726932644844 0.025433020666241646 -0.0714285671710968
			vertex 0.023220768198370934 0.06993483752012253 -0.0714285671710968
			vertex 0.02344517968595028 0.06993483752012253 -0.0714285671710968
		endloop
	endfacet
	facet normal 0 0 -1
		outer loop
			vertex -0.03215431794524193 0.05474318936467171 -0.0714285671710968
			vertex -0.0214610043913126 0.06575819104909897 -0.0714285671710968
			vertex -0.017828190699219704 0.06934218853712082 -0.0714285671710968
		endloop
	endfacet
	facet normal 0 0 -1
		outer loop
			vertex -0.03215431794524193 0.05474318936467171 -0.0714285671710968
			vertex -0.017828190699219704 0.06934218853712082 -0.0714285671710968
			vertex -0.017224544659256935 0.06993483752012253 -0.0714285671710968
		endloop
	endfacet
	facet normal 0 0 -1
		outer loop
			vertex -0.03215431794524193 0.05474318936467171 -0.0714285671710968
			vertex -0.017224544659256935 0.06993483752012253 -0.0714285671710968
			vertex -0.01713486947119236 0.06993483752012253 -0.0714285671710968
		endloop
	endfacet
	facet normal 0 0 -1
		outer loop
			vertex -0.03215431794524193 0.05474318936467171 -0.0714285671710968
			vertex -0.01713486947119236 0.06993483752012253 -0.0714285671710968
			vertex -0.033907052129507065 0.05272381380200386 -0.0714285671710968
		endloop
	endfacet
	facet normal 0 0 -1
		outer loop
			vertex -0.05706646665930748 0.018287787213921547 -0.0714285671710968
			vertex -0.05565040931105614 0.02117839641869068 -0.0714285671710968
			vertex -0.05711882933974266 0.018172072246670723 -0.0714285671710968
		endloop
	endfacet
	facet normal 0 0 -1
		outer loop
			vertex -0.026597702875733376 -0.0697004646062851 -0.0714285671710968
			vertex -0.027603590860962868 -0.06956374645233154 -0.0714285671710968
			vertex -0.026571864262223244 -0.06970244646072388 -0.0714285671710968
		endloop
	endfacet
	facet normal 0 0 -1
		outer loop
			vertex 0.020486941561102867 -0.021717337891459465 -0.0714285671710968
			vertex -0.0414925180375576 0.043984439224004745 -0.0714285671710968
			vertex -0.033907052129507065 0.05272381380200386 -0.0714285671710968
		endloop
	endfacet
	facet normal 0 0 -1
		outer loop
			vertex 0.020486941561102867 -0.021717337891459465 -0.0714285671710968
			vertex -0.033907052129507065 0.05272381380200386 -0.0714285671710968
			vertex -0.01713486947119236 0.06993483752012253 -0.0714285671710968
		endloop
	endfacet
	facet normal 0 0 -1
		outer loop
			vertex 0.020486941561102867 -0.021717337891459465 -0.0714285671710968
			vertex -0.01713486947119236 0.06993483752012253 -0.0714285671710968
			vertex -0.005873496178537607 0.06993483752012253 -0.0714285671710968
		endloop
	endfacet
	facet normal 0 0 -1
		outer loop
			vertex -0.02353128232061863 -0.06993484497070312 -0.0714285671710968
			vertex -0.026571864262223244 -0.06970244646072388 -0.0714285671710968
			vertex -0.030582094565033913 -0.06916335225105286 -0.0714285671710968
		endloop
	endfacet
	facet normal 0 0 -1
		outer loop
			vertex -0.02353128232061863 -0.06993484497070312 -0.0714285671710968
			vertex -0.030582094565033913 -0.06916335225105286 -0.0714285671710968
			vertex -0.04428320750594139 -0.06302078068256378 -0.0714285671710968
		endloop
	endfacet
	facet normal 0 0 -1
		outer loop
			vertex -0.02353128232061863 -0.06993484497070312 -0.0714285671710968
			vertex -0.04428320750594139 -0.06302078068256378 -0.0714285671710968
			vertex -0.05691998824477196 -0.0507747046649456 -0.0714285671710968
		endloop
	endfacet
	facet normal 0 0 -1
		outer loop
			vertex -0.02353128232061863 -0.06993484497070312 -0.0714285671710968
			vertex -0.05691998824477196 -0.0507747046649456 -0.0714285671710968
			vertex -0.05936136469244957 -0.04733720049262047 -0.0714285671710968
		endloop
	endfacet
	facet normal 0 0 -1
		outer loop
			vertex -0.02353128232061863 -0.06993484497070312 -0.0714285671710968
			vertex -0.05936136469244957 -0.04733720049262047 -0.0714285671710968
			vertex -0.06029888615012169 -0.045999299734830856 -0.0714285671710968
		endloop
	endfacet
	facet normal 0 0 -1
		outer loop
			vertex -0.02353128232061863 -0.06993484497070312 -0.0714285671710968
			vertex -0.06029888615012169 -0.045999299734830856 -0.0714285671710968
			vertex -0.06275003403425217 -0.041800107806921005 -0.0714285671710968
		endloop
	endfacet
	facet normal 0 0 -1
		outer loop
			vertex -0.02353128232061863 -0.06993484497070312 -0.0714285671710968
			vertex -0.06275003403425217 -0.041800107806921005 -0.0714285671710968
			vertex -0.06476175040006638 -0.03616530820727348 -0.0714285671710968
		endloop
	endfacet
	facet normal 0 0 -1
		outer loop
			vertex -0.02353128232061863 -0.06993484497070312 -0.0714285671710968
			vertex -0.06476175040006638 -0.03616530820727348 -0.0714285671710968
			vertex -0.0657285675406456 -0.029026610776782036 -0.0714285671710968
		endloop
	endfacet
	facet normal 0 0 -1
		outer loop
			vertex -0.02353128232061863 -0.06993484497070312 -0.0714285671710968
			vertex -0.0657285675406456 -0.029026610776782036 -0.0714285671710968
			vertex -0.0659727081656456 -0.02152666263282299 -0.0714285671710968
		endloop
	endfacet
	facet normal 0 0 -1
		outer loop
			vertex -0.02353128232061863 -0.06993484497070312 -0.0714285671710968
			vertex -0.0659727081656456 -0.02152666263282299 -0.0714285671710968
			vertex -0.0659727081656456 -0.0163507591933012 -0.0714285671710968
		endloop
	endfacet
	facet normal 0 0 -1
		outer loop
			vertex -0.02353128232061863 -0.06993484497070312 -0.0714285671710968
			vertex -0.0659727081656456 -0.0163507591933012 -0.0714285671710968
			vertex -0.06563090533018112 -0.00831371359527111 -0.0714285671710968
		endloop
	endfacet
	facet normal 0 0 -1
		outer loop
			vertex -0.02353128232061863 -0.06993484497070312 -0.0714285671710968
			vertex -0.06563090533018112 -0.00831371359527111 -0.0714285671710968
			vertex -0.06419535726308823 0.0003873875830322504 -0.0714285671710968
		endloop
	endfacet
	facet normal 0 0 -1
		outer loop
			vertex -0.02353128232061863 -0.06993484497070312 -0.0714285671710968
			vertex -0.06419535726308823 0.0003873875830322504 -0.0714285671710968
			vertex -0.06107034906744957 0.00944020040333271 -0.0714285671710968
		endloop
	endfacet
	facet normal 0 0 -1
		outer loop
			vertex -0.02353128232061863 -0.06993484497070312 -0.0714285671710968
			vertex -0.06107034906744957 0.00944020040333271 -0.0714285671710968
			vertex -0.05711882933974266 0.018172072246670723 -0.0714285671710968
		endloop
	endfacet
	facet normal 0 0 -1
		outer loop
			vertex -0.02353128232061863 -0.06993484497070312 -0.0714285671710968
			vertex -0.05711882933974266 0.018172072246670723 -0.0714285671710968
			vertex -0.054205115884542465 0.024137387052178383 -0.0714285671710968
		endloop
	endfacet
	facet normal 0 0 -1
		outer loop
			vertex -0.02353128232061863 -0.06993484497070312 -0.0714285671710968
			vertex -0.054205115884542465 0.024137387052178383 -0.0714285671710968
			vertex -0.049380894750356674 0.03280920162796974 -0.0714285671710968
		endloop
	endfacet
	facet normal 0 0 -1
		outer loop
			vertex -0.02353128232061863 -0.06993484497070312 -0.0714285671710968
			vertex -0.049380894750356674 0.03280920162796974 -0.0714285671710968
			vertex -0.04210549220442772 0.043278198689222336 -0.0714285671710968
		endloop
	endfacet
	facet normal 0 0 -1
		outer loop
			vertex -0.02353128232061863 -0.06993484497070312 -0.0714285671710968
			vertex -0.04210549220442772 0.043278198689222336 -0.0714285671710968
			vertex -0.0414925180375576 0.043984439224004745 -0.0714285671710968
		endloop
	endfacet
	facet normal 0 0 -1
		outer loop
			vertex -0.02353128232061863 -0.06993484497070312 -0.0714285671710968
			vertex -0.0414925180375576 0.043984439224004745 -0.0714285671710968
			vertex 0.020486941561102867 -0.021717337891459465 -0.0714285671710968
		endloop
	endfacet
	facet normal 0 0 -1
		outer loop
			vertex -0.02353128232061863 -0.06993484497070312 -0.0714285671710968
			vertex 0.020486941561102867 -0.021717337891459465 -0.0714285671710968
			vertex 0.028411870822310448 -0.0492713563144207 -0.0714285671710968
		endloop
	endfacet
	facet normal 0 0 -1
		outer loop
			vertex -0.02353128232061863 -0.06993484497070312 -0.0714285671710968
			vertex 0.028411870822310448 -0.0492713563144207 -0.0714285671710968
			vertex 0.017962804064154625 -0.0543782077729702 -0.0714285671710968
		endloop
	endfacet
	facet normal 0 0 -1
		outer loop
			vertex -0.02353128232061863 -0.06993484497070312 -0.0714285671710968
			vertex 0.017962804064154625 -0.0543782077729702 -0.0714285671710968
			vertex 0.003939395304769278 -0.061009060591459274 -0.0714285671710968
		endloop
	endfacet
	facet normal 0 0 -1
		outer loop
			vertex -0.02353128232061863 -0.06993484497070312 -0.0714285671710968
			vertex 0.003939395304769278 -0.061009060591459274 -0.0714285671710968
			vertex -0.006343806628137827 -0.06553053855895996 -0.0714285671710968
		endloop
	endfacet
	facet normal 0 0 -1
		outer loop
			vertex -0.02353128232061863 -0.06993484497070312 -0.0714285671710968
			vertex -0.006343806628137827 -0.06553053855895996 -0.0714285671710968
			vertex -0.013775402680039406 -0.06827469170093536 -0.0714285671710968
		endloop
	endfacet
	facet normal 0 0 -1
		outer loop
			vertex -0.02353128232061863 -0.06993484497070312 -0.0714285671710968
			vertex -0.013775402680039406 -0.06827469170093536 -0.0714285671710968
			vertex -0.019205087795853615 -0.06962233781814575 -0.0714285671710968
		endloop
	endfacet
	facet normal 0 0 -1
		outer loop
			vertex 0.0659726932644844 -0.008831826969981194 -0.0714285671710968
			vertex 0.0659726932644844 -0.030719516798853874 -0.0714285671710968
			vertex 0.06307030469179153 -0.03218090161681175 -0.0714285671710968
		endloop
	endfacet
	facet normal 0 0 -1
		outer loop
			vertex 0.0659726932644844 -0.008831826969981194 -0.0714285671710968
			vertex 0.06307030469179153 -0.03218090161681175 -0.0714285671710968
			vertex 0.06076529994606972 -0.0333235077559948 -0.0714285671710968
		endloop
	endfacet
	facet normal 0 0 -1
		outer loop
			vertex 0.0659726932644844 -0.008831826969981194 -0.0714285671710968
			vertex 0.06076529994606972 -0.0333235077559948 -0.0714285671710968
			vertex 0.05473029986023903 -0.0363118015229702 -0.0714285671710968
		endloop
	endfacet
	facet normal 0 0 -1
		outer loop
			vertex 0.0659726932644844 -0.008831826969981194 -0.0714285671710968
			vertex 0.05473029986023903 -0.0363118015229702 -0.0714285671710968
			vertex 0.04076400771737099 -0.04321218654513359 -0.0714285671710968
		endloop
	endfacet
	facet normal 0 0 -1
		outer loop
			vertex 0.0659726932644844 -0.008831826969981194 -0.0714285671710968
			vertex 0.04076400771737099 -0.04321218654513359 -0.0714285671710968
			vertex 0.020486941561102867 -0.021717337891459465 -0.0714285671710968
		endloop
	endfacet
	facet normal 0 0 -1
		outer loop
			vertex 0.0659726932644844 -0.008831826969981194 -0.0714285671710968
			vertex 0.020486941561102867 -0.021717337891459465 -0.0714285671710968
			vertex -0.005873496178537607 0.06993483752012253 -0.0714285671710968
		endloop
	endfacet
	facet normal 0 0 -1
		outer loop
			vertex 0.0659726932644844 -0.008831826969981194 -0.0714285671710968
			vertex -0.005873496178537607 0.06993483752012253 -0.0714285671710968
			vertex 0.01145998202264309 0.06993483752012253 -0.0714285671710968
		endloop
	endfacet
	facet normal 0 0 -1
		outer loop
			vertex 0.020486941561102867 -0.021717337891459465 -0.0714285671710968
			vertex 0.04076400771737099 -0.04321218654513359 -0.0714285671710968
			vertex 0.03660530224442482 -0.045266907662153244 -0.0714285671710968
		endloop
	endfacet
	facet normal 0 0 -1
		outer loop
			vertex 0.020486941561102867 -0.021717337891459465 -0.0714285671710968
			vertex 0.03660530224442482 -0.045266907662153244 -0.0714285671710968
			vertex 0.028411870822310448 -0.0492713563144207 -0.0714285671710968
		endloop
	endfacet
	facet normal 0 0 -1
		outer loop
			vertex 0.0659726932644844 0.02538898028433323 -0.0714285671710968
			vertex 0.0659726932644844 -0.008831826969981194 -0.0714285671710968
			vertex 0.01145998202264309 0.06993483752012253 -0.0714285671710968
		endloop
	endfacet
	facet normal 0 0 -1
		outer loop
			vertex 0.0659726932644844 0.02538898028433323 -0.0714285671710968
			vertex 0.01145998202264309 0.06993483752012253 -0.0714285671710968
			vertex 0.023220768198370934 0.06993483752012253 -0.0714285671710968
		endloop
	endfacet
endsolid exported
