solid exported
	facet normal 0.006523940892504492 0.9999787188711724 0
		outer loop
			vertex 0.0659726932644844 0.012623129412531853 0.071428582072258
			vertex 0.0659726932644844 0.012623129412531853 -0.0714285671710968
			vertex 0.06341230124235153 0.012639833614230156 -0.0714285671710968
		endloop
	endfacet
	facet normal 0.006523940892504492 0.9999787188711724 0
		outer loop
			vertex 0.0659726932644844 0.012623129412531853 0.071428582072258
			vertex 0.06341230124235153 0.012639833614230156 -0.0714285671710968
			vertex 0.06341230124235153 0.012639833614230156 0.071428582072258
		endloop
	endfacet
	facet normal 0.007738271385793093 0.9999700591297522 0
		outer loop
			vertex 0.06267287582159042 0.012645555660128593 -0.0714285671710968
			vertex 0.06304258853197098 0.012642694637179375 0.071428582072258
			vertex 0.06341230124235153 0.012639833614230156 0.071428582072258
		endloop
	endfacet
	facet normal 0.007738271385793093 0.9999700591297522 0
		outer loop
			vertex 0.06267287582159042 0.012645555660128593 -0.0714285671710968
			vertex 0.06341230124235153 0.012639833614230156 0.071428582072258
			vertex 0.06341230124235153 0.012639833614230156 -0.0714285671710968
		endloop
	endfacet
	facet normal 0.007722073145093769 0.9999701843486836 4.192337421193876e-8
		outer loop
			vertex 0.06304258853197098 0.012642694637179375 0.071428582072258
			vertex 0.06267287582159042 0.012645555660128593 -0.0714285671710968
			vertex 0.06082429364323616 0.0126598309725523 -0.0714285671710968
		endloop
	endfacet
	facet normal 0.007724772829630731 0.9999701634972569 0
		outer loop
			vertex 0.06304258853197098 0.012642694637179375 0.071428582072258
			vertex 0.06082429364323616 0.0126598309725523 -0.0714285671710968
			vertex 0.06082429364323616 0.0126598309725523 0.071428582072258
		endloop
	endfacet
	facet normal -0.06562493199874163 0.9978443607598135 0
		outer loop
			vertex 0.060781244188547134 0.012656999751925468 -0.0714285671710968
			vertex 0.060781244188547134 0.012656999751925468 0.071428582072258
			vertex 0.06082429364323616 0.0126598309725523 0.071428582072258
		endloop
	endfacet
	facet normal -0.06562493199874163 0.9978443607598135 0
		outer loop
			vertex 0.060781244188547134 0.012656999751925468 -0.0714285671710968
			vertex 0.06082429364323616 0.0126598309725523 0.071428582072258
			vertex 0.06082429364323616 0.0126598309725523 -0.0714285671710968
		endloop
	endfacet
	facet normal -0.06526089503351956 0.9978682355798513 -4.2243159917321817e-7
		outer loop
			vertex 0.058606017380952835 0.01251467876136303 -0.0714285671710968
			vertex 0.0597151555120945 0.012587277218699455 0.071428582072258
			vertex 0.060781244188547134 0.012656999751925468 0.071428582072258
		endloop
	endfacet
	facet normal -0.06528851982743494 0.9978664285257535 0
		outer loop
			vertex 0.058606017380952835 0.01251467876136303 -0.0714285671710968
			vertex 0.060781244188547134 0.012656999751925468 0.071428582072258
			vertex 0.060781244188547134 0.012656999751925468 -0.0714285671710968
		endloop
	endfacet
	facet normal -0.06529069459689454 0.9978662862322883 -1.9007814796512863e-7
		outer loop
			vertex 0.0597151555120945 0.012587277218699455 0.071428582072258
			vertex 0.058606017380952835 0.01251467876136303 -0.0714285671710968
			vertex 0.053060296922922134 0.012151820585131645 -0.0714285671710968
		endloop
	endfacet
	facet normal -0.06529475753181564 0.997866020384932 0
		outer loop
			vertex 0.0597151555120945 0.012587277218699455 0.071428582072258
			vertex 0.053060296922922134 0.012151820585131645 -0.0714285671710968
			vertex 0.053060296922922134 0.012151820585131645 0.071428582072258
		endloop
	endfacet
	facet normal -0.19717416899847798 0.9803684751559684 3.479149237351009e-7
		outer loop
			vertex 0.05059114471077919 0.01165526919066906 -0.0714285671710968
			vertex 0.051825735718011856 0.011903522536158562 0.071428582072258
			vertex 0.053060296922922134 0.012151820585131645 0.071428582072258
		endloop
	endfacet
	facet normal -0.19715482222998607 0.9803723660280632 0
		outer loop
			vertex 0.05059114471077919 0.01165526919066906 -0.0714285671710968
			vertex 0.053060296922922134 0.012151820585131645 0.071428582072258
			vertex 0.053060296922922134 0.012151820585131645 -0.0714285671710968
		endloop
	endfacet
	facet normal -0.19716142360748729 0.9803710384548365 2.3331308051618703e-7
		outer loop
			vertex 0.051825735718011856 0.011903522536158562 0.071428582072258
			vertex 0.05059114471077919 0.01165526919066906 -0.0714285671710968
			vertex 0.04441829398274422 0.010413853451609612 -0.0714285671710968
		endloop
	endfacet
	facet normal -0.19715709892381422 0.98037190817768 0
		outer loop
			vertex 0.051825735718011856 0.011903522536158562 0.071428582072258
			vertex 0.04441829398274422 0.010413853451609612 -0.0714285671710968
			vertex 0.04441829398274422 0.010413853451609612 0.071428582072258
		endloop
	endfacet
	facet normal -0.40143229909183237 0.9158886991582799 0
		outer loop
			vertex 0.04240657761693001 0.009532121941447258 -0.0714285671710968
			vertex 0.04341243579983711 0.009972987696528435 0.071428582072258
			vertex 0.04441829398274422 0.010413853451609612 0.071428582072258
		endloop
	endfacet
	facet normal -0.40143229909183237 0.9158886991582799 0
		outer loop
			vertex 0.04240657761693001 0.009532121941447258 -0.0714285671710968
			vertex 0.04441829398274422 0.010413853451609612 0.071428582072258
			vertex 0.04441829398274422 0.010413853451609612 -0.0714285671710968
		endloop
	endfacet
	facet normal -0.40142653882474194 0.9158912238509472 -4.834943413328466e-8
		outer loop
			vertex 0.04341243579983711 0.009972987696528435 0.071428582072258
			vertex 0.04240657761693001 0.009532121941447258 -0.0714285671710968
			vertex 0.03737730160355568 0.0073278374038636684 -0.0714285671710968
		endloop
	endfacet
	facet normal -0.4014274988749358 0.9158908030693471 0
		outer loop
			vertex 0.04341243579983711 0.009972987696528435 0.071428582072258
			vertex 0.03737730160355568 0.0073278374038636684 -0.0714285671710968
			vertex 0.03737730160355568 0.0073278374038636684 0.071428582072258
		endloop
	endfacet
	facet normal -0.637178315237152 0.7707164164538854 -1.6078396660093213e-7
		outer loop
			vertex 0.035797957330942154 0.006022108253091574 -0.0714285671710968
			vertex 0.03658762946724892 0.006674987729638815 0.071428582072258
			vertex 0.03737730160355568 0.0073278374038636684 0.071428582072258
		endloop
	endfacet
	facet normal -0.6371869539908372 0.7707092744114858 0
		outer loop
			vertex 0.035797957330942154 0.006022108253091574 -0.0714285671710968
			vertex 0.03737730160355568 0.0073278374038636684 0.071428582072258
			vertex 0.03737730160355568 0.0073278374038636684 -0.0714285671710968
		endloop
	endfacet
	facet normal -0.6371817437712636 0.7707135819515545 -1.288779242460255e-7
		outer loop
			vertex 0.03658762946724892 0.006674987729638815 0.071428582072258
			vertex 0.035797957330942154 0.006022108253091574 -0.0714285671710968
			vertex 0.03184959664940834 0.002757830312475562 -0.0714285671710968
		endloop
	endfacet
	facet normal -0.6371840519363117 0.7707116736873938 0
		outer loop
			vertex 0.03658762946724892 0.006674987729638815 0.071428582072258
			vertex 0.03184959664940834 0.002757830312475562 -0.0714285671710968
			vertex 0.03184959664940834 0.002757830312475562 0.071428582072258
		endloop
	endfacet
	facet normal -0.8306370814961734 0.556814186999076 2.7861460263700085e-7
		outer loop
			vertex 0.03067491017282009 0.0010055431630462408 -0.0714285671710968
			vertex 0.031262267380952835 0.0018816718365997076 0.071428582072258
			vertex 0.03184959664940834 0.002757830312475562 0.071428582072258
		endloop
	endfacet
	facet normal -0.8306265758492036 0.5568298586579454 0
		outer loop
			vertex 0.03067491017282009 0.0010055431630462408 -0.0714285671710968
			vertex 0.03184959664940834 0.002757830312475562 0.071428582072258
			vertex 0.03184959664940834 0.002757830312475562 -0.0714285671710968
		endloop
	endfacet
	facet normal -0.8306274742737989 0.5568285184700105 1.512210208108626e-7
		outer loop
			vertex 0.031262267380952835 0.0018816718365997076 0.071428582072258
			vertex 0.03067491017282009 0.0010055431630462408 -0.0714285671710968
			vertex 0.02773820422589779 -0.0033751747105270624 -0.0714285671710968
		endloop
	endfacet
	facet normal -0.8306255735600475 0.5568313537760262 0
		outer loop
			vertex 0.031262267380952835 0.0018816718365997076 0.071428582072258
			vertex 0.02773820422589779 -0.0033751747105270624 -0.0714285671710968
			vertex 0.02773820422589779 -0.0033751747105270624 0.071428582072258
		endloop
	endfacet
	facet normal -0.941153191501208 0.33798028067785424 -9.761907837468506e-8
		outer loop
			vertex 0.026934629306197166 -0.005612882319837809 -0.0714285671710968
			vertex 0.02733640931546688 -0.004494028631597757 0.071428582072258
			vertex 0.02773820422589779 -0.0033751747105270624 0.071428582072258
		endloop
	endfacet
	facet normal -0.9411551738606082 0.3379747604709688 0
		outer loop
			vertex 0.026934629306197166 -0.005612882319837809 -0.0714285671710968
			vertex 0.02773820422589779 -0.0033751747105270624 0.071428582072258
			vertex 0.02773820422589779 -0.0033751747105270624 -0.0714285671710968
		endloop
	endfacet
	facet normal -0.9411558387860316 0.33797290885359516 -3.243774911247124e-8
		outer loop
			vertex 0.02733640931546688 -0.004494028631597757 0.071428582072258
			vertex 0.026934629306197166 -0.005612882319837809 -0.0714285671710968
			vertex 0.024925699457526207 -0.011207165196537971 -0.0714285671710968
		endloop
	endfacet
	facet normal -0.9411560583546896 0.3379722974183893 0
		outer loop
			vertex 0.02733640931546688 -0.004494028631597757 0.071428582072258
			vertex 0.024925699457526207 -0.011207165196537971 -0.0714285671710968
			vertex 0.024925699457526207 -0.011207165196537971 0.071428582072258
		endloop
	endfacet
	facet normal -0.9869033759913668 0.16131251178014522 -1.5342065571338907e-7
		outer loop
			vertex 0.02447650395333767 -0.013955460861325264 -0.0714285671710968
			vertex 0.02470109425485134 -0.012581290677189827 0.071428582072258
			vertex 0.024925699457526207 -0.011207165196537971 0.071428582072258
		endloop
	endfacet
	facet normal -0.9869046455569954 0.16130474443742038 0
		outer loop
			vertex 0.02447650395333767 -0.013955460861325264 -0.0714285671710968
			vertex 0.024925699457526207 -0.011207165196537971 0.071428582072258
			vertex 0.024925699457526207 -0.011207165196537971 -0.0714285671710968
		endloop
	endfacet
	facet normal -0.9869039673714132 0.1613088936994828 -1.1768791975972878e-7
		outer loop
			vertex 0.02470109425485134 -0.012581290677189827 0.071428582072258
			vertex 0.02447650395333767 -0.013955460861325264 -0.0714285671710968
			vertex 0.023353492841124535 -0.020826155319809914 -0.0714285671710968
		endloop
	endfacet
	facet normal -0.9869042919957096 0.16130690760301353 0
		outer loop
			vertex 0.02470109425485134 -0.012581290677189827 0.071428582072258
			vertex 0.023353492841124535 -0.020826155319809914 -0.0714285671710968
			vertex 0.023353492841124535 -0.020826155319809914 0.071428582072258
		endloop
	endfacet
	facet normal -0.9109422414384545 0.4125339171024424 -0.0000017888451294641995
		outer loop
			vertex 0.01547536812722683 -0.06696087121963501 -0.0714285671710968
			vertex 0.015981784090399742 -0.06584200263023376 0.071428582072258
			vertex 0.016003688797354698 -0.06579363346099854 0.071428582072258
		endloop
	endfacet
	facet normal -0.9110245053721854 0.41235221669267774 0
		outer loop
			vertex 0.01547536812722683 -0.06696087121963501 -0.0714285671710968
			vertex 0.016003688797354698 -0.06579363346099854 0.071428582072258
			vertex 0.016003688797354698 -0.06579363346099854 -0.0714285671710968
		endloop
	endfacet
	facet normal -0.9110268891005626 0.4123469501957677 -2.4436923030659073e-8
		outer loop
			vertex 0.015981784090399742 -0.06584200263023376 0.071428582072258
			vertex 0.01547536812722683 -0.06696087121963501 -0.0714285671710968
			vertex 0.01412930153310299 -0.06993483006954193 -0.0714285671710968
		endloop
	endfacet
	facet normal -0.9110272095199814 0.4123462422700564 0
		outer loop
			vertex 0.015981784090399742 -0.06584200263023376 0.071428582072258
			vertex 0.01412930153310299 -0.06993483006954193 -0.0714285671710968
			vertex 0.01412930153310299 -0.06993483006954193 0.071428582072258
		endloop
	endfacet
	facet normal -0.9985898590080687 0.05308760200127473 2.7687340780833255e-9
		outer loop
			vertex 0.023222362622618675 -0.02329273708164692 -0.0714285671710968
			vertex 0.023287927731871605 -0.022059449926018715 0.071428582072258
			vertex 0.023353492841124535 -0.020826155319809914 0.071428582072258
		endloop
	endfacet
	facet normal -0.9985898505070959 0.053087761906261084 0
		outer loop
			vertex 0.023222362622618675 -0.02329273708164692 -0.0714285671710968
			vertex 0.023353492841124535 -0.020826155319809914 0.071428582072258
			vertex 0.023353492841124535 -0.020826155319809914 -0.0714285671710968
		endloop
	endfacet
	facet normal -0.9985894514019271 0.05309526861025008 -6.360424877896455e-8
		outer loop
			vertex 0.023287927731871605 -0.022059449926018715 0.071428582072258
			vertex 0.023222362622618675 -0.02329273708164692 -0.0714285671710968
			vertex 0.022894492372870445 -0.029459157958626747 -0.0714285671710968
		endloop
	endfacet
	facet normal -0.9985895165064786 0.05309404414204298 0
		outer loop
			vertex 0.023287927731871605 -0.022059449926018715 0.071428582072258
			vertex 0.022894492372870445 -0.029459157958626747 -0.0714285671710968
			vertex 0.022894492372870445 -0.029459157958626747 0.071428582072258
		endloop
	endfacet
	facet normal -0.9723033963429812 0.23372228276290566 0
		outer loop
			vertex 0.021725362166762352 -0.049647871404886246 -0.0714285671710968
			vertex 0.0218482818454504 -0.04913651570677757 0.035240333527326584
			vertex 0.0218482818454504 -0.04913651570677757 -0.0714285671710968
		endloop
	endfacet
	facet normal -0.9723075520368154 0.23370499406768275 0
		outer loop
			vertex 0.021725362166762352 -0.049647871404886246 -0.0714285671710968
			vertex 0.020902296528220177 -0.05307215824723244 -0.0714285671710968
			vertex 0.020902296528220177 -0.05307215824723244 0.071428582072258
		endloop
	endfacet
	facet normal -0.9723070121053502 0.23370724039011592 5.695515716790704e-8
		outer loop
			vertex 0.021725362166762352 -0.049647871404886246 -0.0714285671710968
			vertex 0.020902296528220177 -0.05307215824723244 0.071428582072258
			vertex 0.0218482818454504 -0.04913651570677757 0.071428582072258
		endloop
	endfacet
	facet normal -0.9723033963429814 0.2337222827629057 0
		outer loop
			vertex 0.021725362166762352 -0.049647871404886246 -0.0714285671710968
			vertex 0.0218482818454504 -0.04913651570677757 0.071428582072258
			vertex 0.0218482818454504 -0.04913651570677757 0.035240333527326584
		endloop
	endfacet
	facet normal -0.9471288682126866 0.32085340421780534 -3.346761657479089e-8
		outer loop
			vertex 0.020386120304465294 -0.05459587648510933 -0.0714285671710968
			vertex 0.020644208416342735 -0.053834009915590286 0.071428582072258
			vertex 0.020902296528220177 -0.05307215824723244 0.071428582072258
		endloop
	endfacet
	facet normal -0.9471298217470668 0.32085058946084194 0
		outer loop
			vertex 0.020386120304465294 -0.05459587648510933 -0.0714285671710968
			vertex 0.020902296528220177 -0.05307215824723244 0.071428582072258
			vertex 0.020902296528220177 -0.05307215824723244 -0.0714285671710968
		endloop
	endfacet
	facet normal -0.9471305662327567 0.32084839177969693 -3.6682831643492897e-9
		outer loop
			vertex 0.020644208416342735 -0.053834009915590286 0.071428582072258
			vertex 0.020386120304465294 -0.05459587648510933 -0.0714285671710968
			vertex 0.01909569464623928 -0.058405157178640366 -0.0714285671710968
		endloop
	endfacet
	facet normal -0.9471306010704414 0.3208482889403409 0
		outer loop
			vertex 0.020644208416342735 -0.053834009915590286 0.071428582072258
			vertex 0.01909569464623928 -0.058405157178640366 -0.0714285671710968
			vertex 0.01909569464623928 -0.058405157178640366 0.071428582072258
		endloop
	endfacet
	facet normal -0.9243715417023644 0.3814934506525516 5.96892990586742e-8
		outer loop
			vertex 0.018350696191191673 -0.06021029129624367 -0.0714285671710968
			vertex 0.018723195418715477 -0.05930773541331291 0.071428582072258
			vertex 0.01909569464623928 -0.058405157178640366 0.071428582072258
		endloop
	endfacet
	facet normal -0.9243698758974029 0.3814974869293635 0
		outer loop
			vertex 0.018350696191191673 -0.06021029129624367 -0.0714285671710968
			vertex 0.01909569464623928 -0.058405157178640366 0.071428582072258
			vertex 0.01909569464623928 -0.058405157178640366 -0.0714285671710968
		endloop
	endfacet
	facet normal -0.9243705422257322 0.3814958724092625 4.178277458041542e-8
		outer loop
			vertex 0.018723195418715477 -0.05930773541331291 0.071428582072258
			vertex 0.018350696191191673 -0.06021029129624367 -0.0714285671710968
			vertex 0.016488200053572655 -0.06472314894199371 -0.0714285671710968
		endloop
	endfacet
	facet normal -0.9243701535352352 0.3814968142111355 0
		outer loop
			vertex 0.018723195418715477 -0.05930773541331291 0.071428582072258
			vertex 0.016488200053572655 -0.06472314894199371 -0.0714285671710968
			vertex 0.016488200053572655 -0.06472314894199371 0.071428582072258
		endloop
	endfacet
	facet normal -0.9110297821633327 0.4123405582906327 0
		outer loop
			vertex 0.016003688797354698 -0.06579363346099854 -0.0714285671710968
			vertex 0.016003688797354698 -0.06579363346099854 0.071428582072258
			vertex 0.016488200053572655 -0.06472314894199371 0.071428582072258
		endloop
	endfacet
	facet normal -0.9110297821633327 0.4123405582906327 0
		outer loop
			vertex 0.016003688797354698 -0.06579363346099854 -0.0714285671710968
			vertex 0.016488200053572655 -0.06472314894199371 0.071428582072258
			vertex 0.016488200053572655 -0.06472314894199371 -0.0714285671710968
		endloop
	endfacet
	facet normal -0.9999482510451209 -0.010173260627939136 1.0611537279503462e-9
		outer loop
			vertex 0.022902866825461388 -0.030282313004136086 -0.0714285671710968
			vertex 0.022898679599165916 -0.02987072803080082 0.071428582072258
			vertex 0.022894492372870445 -0.029459157958626747 0.071428582072258
		endloop
	endfacet
	facet normal -0.9999482529185291 -0.010173076485585223 0
		outer loop
			vertex 0.022902866825461388 -0.030282313004136086 -0.0714285671710968
			vertex 0.022894492372870445 -0.029459157958626747 0.071428582072258
			vertex 0.022894492372870445 -0.029459157958626747 -0.0714285671710968
		endloop
	endfacet
	facet normal -0.9999482515134825 -0.010173214591725729 9.285053102493906e-10
		outer loop
			vertex 0.022898679599165916 -0.02987072803080082 0.071428582072258
			vertex 0.022902866825461388 -0.030282313004136086 -0.0714285671710968
			vertex 0.022923802956938744 -0.03234017267823219 -0.0714285671710968
		endloop
	endfacet
	facet normal -0.9999482520598962 -0.01017316088333665 0
		outer loop
			vertex 0.022898679599165916 -0.02987072803080082 0.071428582072258
			vertex 0.022923802956938744 -0.03234017267823219 -0.0714285671710968
			vertex 0.022923802956938744 -0.03234017267823219 0.071428582072258
		endloop
	endfacet
	facet normal -0.9999792005396112 -0.006449688997169279 -6.727549577045453e-10
		outer loop
			vertex 0.0229265745729208 -0.03276987746357918 -0.0714285671710968
			vertex 0.02292518876492977 -0.03255503252148628 0.071428582072258
			vertex 0.022923802956938744 -0.03234017267823219 0.071428582072258
		endloop
	endfacet
	facet normal -0.9999791990970776 -0.006449912648058274 0
		outer loop
			vertex 0.0229265745729208 -0.03276987746357918 -0.0714285671710968
			vertex 0.022923802956938744 -0.03234017267823219 0.071428582072258
			vertex 0.022923802956938744 -0.03234017267823219 -0.0714285671710968
		endloop
	endfacet
	facet normal -0.9999791996741091 -0.006449823185841453 -4.709382682712125e-10
		outer loop
			vertex 0.02292518876492977 -0.03255503252148628 0.071428582072258
			vertex 0.0229265745729208 -0.03276987746357918 -0.0714285671710968
			vertex 0.02293350361287594 -0.033844154328107834 -0.0714285671710968
		endloop
	endfacet
	facet normal -0.9999791993375102 -0.006449875371833002 0
		outer loop
			vertex 0.02292518876492977 -0.03255503252148628 0.071428582072258
			vertex 0.02293350361287594 -0.033844154328107834 -0.0714285671710968
			vertex 0.02293350361287594 -0.033844154328107834 0.071428582072258
		endloop
	endfacet
	facet normal -1 0 0
		outer loop
			vertex 0.02293350361287594 -0.035138729959726334 -0.0714285671710968
			vertex 0.02293350361287594 -0.03449143096804619 0.071428582072258
			vertex 0.02293350361287594 -0.033844154328107834 0.071428582072258
		endloop
	endfacet
	facet normal -1 0 0
		outer loop
			vertex 0.02293350361287594 -0.035138729959726334 -0.0714285671710968
			vertex 0.02293350361287594 -0.033844154328107834 0.071428582072258
			vertex 0.02293350361287594 -0.033844154328107834 -0.0714285671710968
		endloop
	endfacet
	facet normal -1 0 0
		outer loop
			vertex 0.02293350361287594 -0.03449143096804619 0.071428582072258
			vertex 0.02293350361287594 -0.035138729959726334 -0.0714285671710968
			vertex 0.02293350361287594 -0.03837515786290169 -0.0714285671710968
		endloop
	endfacet
	facet normal -1 0 0
		outer loop
			vertex 0.02293350361287594 -0.03449143096804619 0.071428582072258
			vertex 0.02293350361287594 -0.03837515786290169 -0.0714285671710968
			vertex 0.02293350361287594 -0.03837515786290169 0.071428582072258
		endloop
	endfacet
	facet normal -0.9988804480792748 0.04730592399412478 -9.678975707661125e-8
		outer loop
			vertex 0.022863751277327538 -0.039848294109106064 -0.0714285671710968
			vertex 0.02289861999452114 -0.03911173716187477 0.071428582072258
			vertex 0.02293350361287594 -0.03837515786290169 0.071428582072258
		endloop
	endfacet
	facet normal -0.9988808915599627 0.047296558821695076 0
		outer loop
			vertex 0.022863751277327538 -0.039848294109106064 -0.0714285671710968
			vertex 0.02293350361287594 -0.03837515786290169 0.071428582072258
			vertex 0.02293350361287594 -0.03837515786290169 -0.0714285671710968
		endloop
	endfacet
	facet normal -0.9988811937672039 0.04729017591641636 -1.5412260152114914e-8
		outer loop
			vertex 0.02289861999452114 -0.03911173716187477 0.071428582072258
			vertex 0.022863751277327538 -0.039848294109106064 -0.0714285671710968
			vertex 0.022689392790198326 -0.043531160801649094 -0.0714285671710968
		endloop
	endfacet
	facet normal -0.9988812173006307 0.04728967883175223 0
		outer loop
			vertex 0.02289861999452114 -0.03911173716187477 0.071428582072258
			vertex 0.022689392790198326 -0.043531160801649094 -0.0714285671710968
			vertex 0.022689392790198326 -0.043531160801649094 0.071428582072258
		endloop
	endfacet
	facet normal -0.9911789471094792 0.13253035428511242 8.265202733601022e-8
		outer loop
			vertex 0.022508030757308006 -0.04488745704293251 -0.0714285671710968
			vertex 0.022598719224333763 -0.04420929774641991 0.071428582072258
			vertex 0.022689392790198326 -0.043531160801649094 0.071428582072258
		endloop
	endfacet
	facet normal -0.9911778034891403 0.13253890700637036 0
		outer loop
			vertex 0.022508030757308006 -0.04488745704293251 -0.0714285671710968
			vertex 0.022689392790198326 -0.043531160801649094 0.071428582072258
			vertex 0.022689392790198326 -0.043531160801649094 -0.0714285671710968
		endloop
	endfacet
	facet normal -0.9911762389241843 0.13255060690961837 -1.5208715611367145e-8
		outer loop
			vertex 0.022598719224333763 -0.04420929774641991 0.071428582072258
			vertex 0.022508030757308006 -0.04488745704293251 -0.0714285671710968
			vertex 0.022054588422179222 -0.04827817156910896 -0.0714285671710968
		endloop
	endfacet
	facet normal -0.991176309078125 0.1325500823170827 0
		outer loop
			vertex 0.022598719224333763 -0.04420929774641991 0.071428582072258
			vertex 0.022054588422179222 -0.04827817156910896 -0.0714285671710968
			vertex 0.022054588422179222 -0.04827817156910896 0.071428582072258
		endloop
	endfacet
	facet normal -0.9723175187409991 0.23366352464462042 0
		outer loop
			vertex 0.0218482818454504 -0.04913651570677757 -0.0714285671710968
			vertex 0.0218482818454504 -0.04913651570677757 0.035240333527326584
			vertex 0.021889975294470787 -0.048963021486997604 0.071428582072258
		endloop
	endfacet
	facet normal -0.972306974291636 0.23370739770884588 -5.635950004440633e-8
		outer loop
			vertex 0.0218482818454504 -0.04913651570677757 -0.0714285671710968
			vertex 0.021889975294470787 -0.048963021486997604 0.071428582072258
			vertex 0.022054588422179222 -0.04827817156910896 0.071428582072258
		endloop
	endfacet
	facet normal -0.972309105746986 0.23369852990871962 0
		outer loop
			vertex 0.0218482818454504 -0.04913651570677757 -0.0714285671710968
			vertex 0.022054588422179222 -0.04827817156910896 0.071428582072258
			vertex 0.022054588422179222 -0.04827817156910896 -0.0714285671710968
		endloop
	endfacet
	facet normal -0.9723175187409991 0.23366352464462042 0
		outer loop
			vertex 0.0218482818454504 -0.04913651570677757 0.071428582072258
			vertex 0.021889975294470787 -0.048963021486997604 0.071428582072258
			vertex 0.0218482818454504 -0.04913651570677757 0.035240333527326584
		endloop
	endfacet
	facet normal 1 0 0
		outer loop
			vertex 0.0659726932644844 0.012623129412531853 0.071428582072258
			vertex 0.0659726932644844 -0.06993483006954193 0.071428582072258
			vertex 0.0659726932644844 0.012623129412531853 -0.012892739847302437
		endloop
	endfacet
	facet normal 1 0 0
		outer loop
			vertex 0.0659726932644844 -0.06993483006954193 0.071428582072258
			vertex 0.0659726932644844 -0.06993483006954193 -0.0714285671710968
			vertex 0.0659726932644844 0.012623129412531853 -0.0714285671710968
		endloop
	endfacet
	facet normal 1 0 0
		outer loop
			vertex 0.0659726932644844 -0.06993483006954193 0.071428582072258
			vertex 0.0659726932644844 0.012623129412531853 -0.0714285671710968
			vertex 0.0659726932644844 0.012623129412531853 -0.012892739847302437
		endloop
	endfacet
	facet normal 0 -1 0
		outer loop
			vertex 0.01412930153310299 -0.06993483006954193 0.01529778353869915
			vertex 0.015326818451285362 -0.06993483006954193 0.016594333574175835
			vertex 0.015326818451285362 -0.06993483006954193 0.071428582072258
		endloop
	endfacet
	facet normal 0 -1 0
		outer loop
			vertex 0.01412930153310299 -0.06993483006954193 0.01529778353869915
			vertex 0.015326818451285362 -0.06993483006954193 0.071428582072258
			vertex 0.01412930153310299 -0.06993483006954193 0.071428582072258
		endloop
	endfacet
	facet normal 0 -1 0
		outer loop
			vertex 0.01412930153310299 -0.06993483006954193 -0.0714285671710968
			vertex 0.015326818451285362 -0.06993483006954193 -0.0714285671710968
			vertex 0.015326818451285362 -0.06993483006954193 0.016594333574175835
		endloop
	endfacet
	facet normal 0 -1 0
		outer loop
			vertex 0.01412930153310299 -0.06993483006954193 -0.0714285671710968
			vertex 0.015326818451285362 -0.06993483006954193 0.016594333574175835
			vertex 0.01412930153310299 -0.06993483006954193 0.01529778353869915
		endloop
	endfacet
	facet normal 0 -1 0
		outer loop
			vertex 0.015326818451285362 -0.06993483006954193 0.016594333574175835
			vertex 0.016849135980010033 -0.06993483006954193 0.018242551013827324
			vertex 0.016849135980010033 -0.06993483006954193 0.071428582072258
		endloop
	endfacet
	facet normal 0 -1 0
		outer loop
			vertex 0.015326818451285362 -0.06993483006954193 0.016594333574175835
			vertex 0.016849135980010033 -0.06993483006954193 0.071428582072258
			vertex 0.015326818451285362 -0.06993483006954193 0.071428582072258
		endloop
	endfacet
	facet normal 0 -1 0
		outer loop
			vertex 0.015326818451285362 -0.06993483006954193 -0.0714285671710968
			vertex 0.016849135980010033 -0.06993483006954193 -0.0714285671710968
			vertex 0.016849135980010033 -0.06993483006954193 0.018242551013827324
		endloop
	endfacet
	facet normal 0 -1 0
		outer loop
			vertex 0.015326818451285362 -0.06993483006954193 -0.0714285671710968
			vertex 0.016849135980010033 -0.06993483006954193 0.018242551013827324
			vertex 0.015326818451285362 -0.06993483006954193 0.016594333574175835
		endloop
	endfacet
	facet normal 0 -1 0
		outer loop
			vertex 0.016849135980010033 -0.06993483006954193 0.018242551013827324
			vertex 0.020742466673254967 -0.06993483006954193 0.022457851096987724
			vertex 0.020742466673254967 -0.06993483006954193 0.071428582072258
		endloop
	endfacet
	facet normal 0 -1 0
		outer loop
			vertex 0.016849135980010033 -0.06993483006954193 0.018242551013827324
			vertex 0.020742466673254967 -0.06993483006954193 0.071428582072258
			vertex 0.016849135980010033 -0.06993483006954193 0.071428582072258
		endloop
	endfacet
	facet normal 0 -1 0
		outer loop
			vertex 0.016849135980010033 -0.06993483006954193 -0.0714285671710968
			vertex 0.020742466673254967 -0.06993483006954193 -0.0714285671710968
			vertex 0.020742466673254967 -0.06993483006954193 0.022457851096987724
		endloop
	endfacet
	facet normal 0 -1 0
		outer loop
			vertex 0.016849135980010033 -0.06993483006954193 -0.0714285671710968
			vertex 0.020742466673254967 -0.06993483006954193 0.022457851096987724
			vertex 0.016849135980010033 -0.06993483006954193 0.018242551013827324
		endloop
	endfacet
	facet normal 0 -1 0
		outer loop
			vertex 0.020742466673254967 -0.06993483006954193 0.022457851096987724
			vertex 0.021439364179968834 -0.06993483006954193 0.023212386295199394
			vertex 0.021439364179968834 -0.06993483006954193 0.071428582072258
		endloop
	endfacet
	facet normal 0 -1 0
		outer loop
			vertex 0.020742466673254967 -0.06993483006954193 0.022457851096987724
			vertex 0.021439364179968834 -0.06993483006954193 0.071428582072258
			vertex 0.020742466673254967 -0.06993483006954193 0.071428582072258
		endloop
	endfacet
	facet normal 0 -1 0
		outer loop
			vertex 0.020742466673254967 -0.06993483006954193 -0.0714285671710968
			vertex 0.021439364179968834 -0.06993483006954193 -0.0714285671710968
			vertex 0.021439364179968834 -0.06993483006954193 0.023212386295199394
		endloop
	endfacet
	facet normal 0 -1 0
		outer loop
			vertex 0.020742466673254967 -0.06993483006954193 -0.0714285671710968
			vertex 0.021439364179968834 -0.06993483006954193 0.023212386295199394
			vertex 0.020742466673254967 -0.06993483006954193 0.022457851096987724
		endloop
	endfacet
	facet normal 0 -1 0
		outer loop
			vertex 0.021439364179968834 -0.06993483006954193 0.023212386295199394
			vertex 0.02293350361287594 -0.06993483006954193 0.024830086156725883
			vertex 0.02293350361287594 -0.06993483006954193 0.071428582072258
		endloop
	endfacet
	facet normal 0 -1 0
		outer loop
			vertex 0.021439364179968834 -0.06993483006954193 0.023212386295199394
			vertex 0.02293350361287594 -0.06993483006954193 0.071428582072258
			vertex 0.021439364179968834 -0.06993483006954193 0.071428582072258
		endloop
	endfacet
	facet normal 0 -1 0
		outer loop
			vertex 0.021439364179968834 -0.06993483006954193 -0.0714285671710968
			vertex 0.02293350361287594 -0.06993483006954193 -0.0714285671710968
			vertex 0.02293350361287594 -0.06993483006954193 0.024830086156725883
		endloop
	endfacet
	facet normal 0 -1 0
		outer loop
			vertex 0.021439364179968834 -0.06993483006954193 -0.0714285671710968
			vertex 0.02293350361287594 -0.06993483006954193 0.024830086156725883
			vertex 0.021439364179968834 -0.06993483006954193 0.023212386295199394
		endloop
	endfacet
	facet normal 0 -1 0
		outer loop
			vertex 0.02293350361287594 -0.06993483006954193 0.024830086156725883
			vertex 0.023166244849562645 -0.06993483006954193 0.025082064792513847
			vertex 0.023166244849562645 -0.06993483006954193 0.071428582072258
		endloop
	endfacet
	facet normal 0 -1 0
		outer loop
			vertex 0.02293350361287594 -0.06993483006954193 0.024830086156725883
			vertex 0.023166244849562645 -0.06993483006954193 0.071428582072258
			vertex 0.02293350361287594 -0.06993483006954193 0.071428582072258
		endloop
	endfacet
	facet normal 0 -1 0
		outer loop
			vertex 0.02293350361287594 -0.06993483006954193 -0.0714285671710968
			vertex 0.023166244849562645 -0.06993483006954193 -0.0714285671710968
			vertex 0.023166244849562645 -0.06993483006954193 0.025082064792513847
		endloop
	endfacet
	facet normal 0 -1 0
		outer loop
			vertex 0.02293350361287594 -0.06993483006954193 -0.0714285671710968
			vertex 0.023166244849562645 -0.06993483006954193 0.025082064792513847
			vertex 0.02293350361287594 -0.06993483006954193 0.024830086156725883
		endloop
	endfacet
	facet normal 0 -1 0
		outer loop
			vertex 0.023166244849562645 -0.06993483006954193 0.025082064792513847
			vertex 0.02330622635781765 -0.06993483006954193 0.025233639404177666
			vertex 0.02330622635781765 -0.06993483006954193 0.071428582072258
		endloop
	endfacet
	facet normal 0 -1 0
		outer loop
			vertex 0.023166244849562645 -0.06993483006954193 0.025082064792513847
			vertex 0.02330622635781765 -0.06993483006954193 0.071428582072258
			vertex 0.023166244849562645 -0.06993483006954193 0.071428582072258
		endloop
	endfacet
	facet normal 0 -1 0
		outer loop
			vertex 0.023166244849562645 -0.06993483006954193 -0.0714285671710968
			vertex 0.02330622635781765 -0.06993483006954193 -0.0714285671710968
			vertex 0.02330622635781765 -0.06993483006954193 0.025233639404177666
		endloop
	endfacet
	facet normal 0 -1 0
		outer loop
			vertex 0.023166244849562645 -0.06993483006954193 -0.0714285671710968
			vertex 0.02330622635781765 -0.06993483006954193 0.025233639404177666
			vertex 0.023166244849562645 -0.06993483006954193 0.025082064792513847
		endloop
	endfacet
	facet normal 0 -1 0
		outer loop
			vertex 0.02330622635781765 -0.06993483006954193 0.025233639404177666
			vertex 0.0659726932644844 -0.06993483006954193 0.071428582072258
			vertex 0.02330622635781765 -0.06993483006954193 0.071428582072258
		endloop
	endfacet
	facet normal 0 -1 0
		outer loop
			vertex 0.02330622635781765 -0.06993483006954193 -0.0714285671710968
			vertex 0.0659726932644844 -0.06993483006954193 -0.0714285671710968
			vertex 0.0659726932644844 -0.06993483006954193 0.071428582072258
		endloop
	endfacet
	facet normal 0 -1 0
		outer loop
			vertex 0.02330622635781765 -0.06993483006954193 -0.0714285671710968
			vertex 0.0659726932644844 -0.06993483006954193 0.071428582072258
			vertex 0.02330622635781765 -0.06993483006954193 0.025233639404177666
		endloop
	endfacet
	facet normal 0 0 1
		outer loop
			vertex 0.060781244188547134 0.012656999751925468 0.071428582072258
			vertex 0.06341230124235153 0.012639833614230156 0.071428582072258
			vertex 0.06082429364323616 0.0126598309725523 0.071428582072258
		endloop
	endfacet
	facet normal 0 0 1
		outer loop
			vertex 0.01412930153310299 -0.06993483006954193 0.071428582072258
			vertex 0.015326818451285362 -0.06993483006954193 0.071428582072258
			vertex 0.016003688797354698 -0.06579363346099854 0.071428582072258
		endloop
	endfacet
	facet normal 0 0 1
		outer loop
			vertex 0.016003688797354698 -0.06579363346099854 0.071428582072258
			vertex 0.01597565971314907 -0.06596502661705017 0.071428582072258
			vertex 0.016488200053572655 -0.06472314894199371 0.071428582072258
		endloop
	endfacet
	facet normal 0 0 1
		outer loop
			vertex 0.01597565971314907 -0.06596502661705017 0.071428582072258
			vertex 0.015454446896910667 -0.06915396451950073 0.071428582072258
			vertex 0.01909569464623928 -0.058405157178640366 0.071428582072258
		endloop
	endfacet
	facet normal 0 0 1
		outer loop
			vertex 0.015326818451285362 -0.06993483006954193 0.071428582072258
			vertex 0.016849135980010033 -0.06993483006954193 0.071428582072258
			vertex 0.020902296528220177 -0.05307215824723244 0.071428582072258
		endloop
	endfacet
	facet normal 0 0 1
		outer loop
			vertex 0.015326818451285362 -0.06993483006954193 0.071428582072258
			vertex 0.020902296528220177 -0.05307215824723244 0.071428582072258
			vertex 0.015454446896910667 -0.06915396451950073 0.071428582072258
		endloop
	endfacet
	facet normal 0 0 1
		outer loop
			vertex 0.016849135980010033 -0.06993483006954193 0.071428582072258
			vertex 0.020742466673254967 -0.06993483006954193 0.071428582072258
			vertex 0.0218482818454504 -0.04913651570677757 0.071428582072258
		endloop
	endfacet
	facet normal 0 0 1
		outer loop
			vertex 0.0218482818454504 -0.04913651570677757 0.071428582072258
			vertex 0.021787872537970543 -0.05027269944548607 0.071428582072258
			vertex 0.022054588422179222 -0.04827817156910896 0.071428582072258
		endloop
	endfacet
	facet normal 0 0 1
		outer loop
			vertex 0.020742466673254967 -0.06993483006954193 0.071428582072258
			vertex 0.021439364179968834 -0.06993483006954193 0.071428582072258
			vertex 0.022689392790198326 -0.043531160801649094 0.071428582072258
		endloop
	endfacet
	facet normal 0 0 1
		outer loop
			vertex 0.020742466673254967 -0.06993483006954193 0.071428582072258
			vertex 0.022689392790198326 -0.043531160801649094 0.071428582072258
			vertex 0.021787872537970543 -0.05027269944548607 0.071428582072258
		endloop
	endfacet
	facet normal 0 0 1
		outer loop
			vertex 0.021439364179968834 -0.06993483006954193 0.071428582072258
			vertex 0.02293350361287594 -0.06993483006954193 0.071428582072258
			vertex 0.02293350361287594 -0.03837515786290169 0.071428582072258
		endloop
	endfacet
	facet normal 0 0 1
		outer loop
			vertex 0.02293350361287594 -0.06993483006954193 0.071428582072258
			vertex 0.023166244849562645 -0.06993483006954193 0.071428582072258
			vertex 0.02293350361287594 -0.033844154328107834 0.071428582072258
		endloop
	endfacet
	facet normal 0 0 1
		outer loop
			vertex 0.023166244849562645 -0.06993483006954193 0.071428582072258
			vertex 0.02330622635781765 -0.06993483006954193 0.071428582072258
			vertex 0.022923802956938744 -0.03234017267823219 0.071428582072258
		endloop
	endfacet
	facet normal 0 0 1
		outer loop
			vertex 0.02330622635781765 -0.06993483006954193 0.071428582072258
			vertex 0.0659726932644844 -0.06993483006954193 0.071428582072258
			vertex 0.0659726932644844 0.012623129412531853 0.071428582072258
		endloop
	endfacet
	facet normal 0 0 1
		outer loop
			vertex 0.02330622635781765 -0.06993483006954193 0.071428582072258
			vertex 0.0659726932644844 0.012623129412531853 0.071428582072258
			vertex 0.060781244188547134 0.012656999751925468 0.071428582072258
		endloop
	endfacet
	facet normal 0 0 1
		outer loop
			vertex 0.02330622635781765 -0.06993483006954193 0.071428582072258
			vertex 0.060781244188547134 0.012656999751925468 0.071428582072258
			vertex 0.053060296922922134 0.012151820585131645 0.071428582072258
		endloop
	endfacet
	facet normal 0 0 1
		outer loop
			vertex 0.02330622635781765 -0.06993483006954193 0.071428582072258
			vertex 0.053060296922922134 0.012151820585131645 0.071428582072258
			vertex 0.04441829398274422 0.010413853451609612 0.071428582072258
		endloop
	endfacet
	facet normal 0 0 1
		outer loop
			vertex 0.02330622635781765 -0.06993483006954193 0.071428582072258
			vertex 0.04441829398274422 0.010413853451609612 0.071428582072258
			vertex 0.03737730160355568 0.0073278374038636684 0.071428582072258
		endloop
	endfacet
	facet normal 0 0 1
		outer loop
			vertex 0.02330622635781765 -0.06993483006954193 0.071428582072258
			vertex 0.03737730160355568 0.0073278374038636684 0.071428582072258
			vertex 0.03184959664940834 0.002757830312475562 0.071428582072258
		endloop
	endfacet
	facet normal 0 0 1
		outer loop
			vertex 0.02330622635781765 -0.06993483006954193 0.071428582072258
			vertex 0.03184959664940834 0.002757830312475562 0.071428582072258
			vertex 0.02773820422589779 -0.0033751747105270624 0.071428582072258
		endloop
	endfacet
	facet normal 0 0 1
		outer loop
			vertex 0.02330622635781765 -0.06993483006954193 0.071428582072258
			vertex 0.02773820422589779 -0.0033751747105270624 0.071428582072258
			vertex 0.024925699457526207 -0.011207165196537971 0.071428582072258
		endloop
	endfacet
	facet normal 0 0 1
		outer loop
			vertex 0.02330622635781765 -0.06993483006954193 0.071428582072258
			vertex 0.024925699457526207 -0.011207165196537971 0.071428582072258
			vertex 0.023353492841124535 -0.020826155319809914 0.071428582072258
		endloop
	endfacet
	facet normal 0 0 1
		outer loop
			vertex 0.02330622635781765 -0.06993483006954193 0.071428582072258
			vertex 0.023353492841124535 -0.020826155319809914 0.071428582072258
			vertex 0.022894492372870445 -0.029459157958626747 0.071428582072258
		endloop
	endfacet
	facet normal 0 0 -1
		outer loop
			vertex 0.06341230124235153 0.012639833614230156 -0.0714285671710968
			vertex 0.060781244188547134 0.012656999751925468 -0.0714285671710968
			vertex 0.06082429364323616 0.0126598309725523 -0.0714285671710968
		endloop
	endfacet
	facet normal 0 0 -1
		outer loop
			vertex 0.015326818451285362 -0.06993483006954193 -0.0714285671710968
			vertex 0.01412930153310299 -0.06993483006954193 -0.0714285671710968
			vertex 0.016003688797354698 -0.06579363346099854 -0.0714285671710968
		endloop
	endfacet
	facet normal 0 0 -1
		outer loop
			vertex 0.01597565971314907 -0.06596502661705017 -0.0714285671710968
			vertex 0.016003688797354698 -0.06579363346099854 -0.0714285671710968
			vertex 0.016488200053572655 -0.06472314894199371 -0.0714285671710968
		endloop
	endfacet
	facet normal 0 0 -1
		outer loop
			vertex 0.015454446896910667 -0.06915396451950073 -0.0714285671710968
			vertex 0.01597565971314907 -0.06596502661705017 -0.0714285671710968
			vertex 0.01909569464623928 -0.058405157178640366 -0.0714285671710968
		endloop
	endfacet
	facet normal 0 0 -1
		outer loop
			vertex 0.016849135980010033 -0.06993483006954193 -0.0714285671710968
			vertex 0.015326818451285362 -0.06993483006954193 -0.0714285671710968
			vertex 0.015454446896910667 -0.06915396451950073 -0.0714285671710968
		endloop
	endfacet
	facet normal 0 0 -1
		outer loop
			vertex 0.016849135980010033 -0.06993483006954193 -0.0714285671710968
			vertex 0.015454446896910667 -0.06915396451950073 -0.0714285671710968
			vertex 0.020902296528220177 -0.05307215824723244 -0.0714285671710968
		endloop
	endfacet
	facet normal 0 0 -1
		outer loop
			vertex 0.020742466673254967 -0.06993483006954193 -0.0714285671710968
			vertex 0.016849135980010033 -0.06993483006954193 -0.0714285671710968
			vertex 0.0218482818454504 -0.04913651570677757 -0.0714285671710968
		endloop
	endfacet
	facet normal 0 0 -1
		outer loop
			vertex 0.021787872537970543 -0.05027269944548607 -0.0714285671710968
			vertex 0.0218482818454504 -0.04913651570677757 -0.0714285671710968
			vertex 0.022054588422179222 -0.04827817156910896 -0.0714285671710968
		endloop
	endfacet
	facet normal 0 0 -1
		outer loop
			vertex 0.021439364179968834 -0.06993483006954193 -0.0714285671710968
			vertex 0.020742466673254967 -0.06993483006954193 -0.0714285671710968
			vertex 0.021787872537970543 -0.05027269944548607 -0.0714285671710968
		endloop
	endfacet
	facet normal 0 0 -1
		outer loop
			vertex 0.021439364179968834 -0.06993483006954193 -0.0714285671710968
			vertex 0.021787872537970543 -0.05027269944548607 -0.0714285671710968
			vertex 0.022689392790198326 -0.043531160801649094 -0.0714285671710968
		endloop
	endfacet
	facet normal 0 0 -1
		outer loop
			vertex 0.02293350361287594 -0.06993483006954193 -0.0714285671710968
			vertex 0.021439364179968834 -0.06993483006954193 -0.0714285671710968
			vertex 0.02293350361287594 -0.03837515786290169 -0.0714285671710968
		endloop
	endfacet
	facet normal 0 0 -1
		outer loop
			vertex 0.023166244849562645 -0.06993483006954193 -0.0714285671710968
			vertex 0.02293350361287594 -0.06993483006954193 -0.0714285671710968
			vertex 0.02293350361287594 -0.033844154328107834 -0.0714285671710968
		endloop
	endfacet
	facet normal 0 0 -1
		outer loop
			vertex 0.02330622635781765 -0.06993483006954193 -0.0714285671710968
			vertex 0.023166244849562645 -0.06993483006954193 -0.0714285671710968
			vertex 0.022923802956938744 -0.03234017267823219 -0.0714285671710968
		endloop
	endfacet
	facet normal 0 0 -1
		outer loop
			vertex 0.0659726932644844 0.012623129412531853 -0.0714285671710968
			vertex 0.0659726932644844 -0.06993483006954193 -0.0714285671710968
			vertex 0.0231556948274374 -0.024546364322304726 -0.0714285671710968
		endloop
	endfacet
	facet normal 0 0 -1
		outer loop
			vertex 0.0659726932644844 0.012623129412531853 -0.0714285671710968
			vertex 0.0231556948274374 -0.024546364322304726 -0.0714285671710968
			vertex 0.023353492841124535 -0.020826155319809914 -0.0714285671710968
		endloop
	endfacet
	facet normal 0 0 -1
		outer loop
			vertex 0.0659726932644844 0.012623129412531853 -0.0714285671710968
			vertex 0.023353492841124535 -0.020826155319809914 -0.0714285671710968
			vertex 0.024925699457526207 -0.011207165196537971 -0.0714285671710968
		endloop
	endfacet
	facet normal 0 0 -1
		outer loop
			vertex 0.0659726932644844 0.012623129412531853 -0.0714285671710968
			vertex 0.024925699457526207 -0.011207165196537971 -0.0714285671710968
			vertex 0.02773820422589779 -0.0033751747105270624 -0.0714285671710968
		endloop
	endfacet
	facet normal 0 0 -1
		outer loop
			vertex 0.0659726932644844 0.012623129412531853 -0.0714285671710968
			vertex 0.02773820422589779 -0.0033751747105270624 -0.0714285671710968
			vertex 0.03184959664940834 0.002757830312475562 -0.0714285671710968
		endloop
	endfacet
	facet normal 0 0 -1
		outer loop
			vertex 0.0659726932644844 0.012623129412531853 -0.0714285671710968
			vertex 0.03184959664940834 0.002757830312475562 -0.0714285671710968
			vertex 0.03737730160355568 0.0073278374038636684 -0.0714285671710968
		endloop
	endfacet
	facet normal 0 0 -1
		outer loop
			vertex 0.0659726932644844 0.012623129412531853 -0.0714285671710968
			vertex 0.03737730160355568 0.0073278374038636684 -0.0714285671710968
			vertex 0.04441829398274422 0.010413853451609612 -0.0714285671710968
		endloop
	endfacet
	facet normal 0 0 -1
		outer loop
			vertex 0.0659726932644844 0.012623129412531853 -0.0714285671710968
			vertex 0.04441829398274422 0.010413853451609612 -0.0714285671710968
			vertex 0.053060296922922134 0.012151820585131645 -0.0714285671710968
		endloop
	endfacet
	facet normal 0 0 -1
		outer loop
			vertex 0.0659726932644844 0.012623129412531853 -0.0714285671710968
			vertex 0.053060296922922134 0.012151820585131645 -0.0714285671710968
			vertex 0.060781244188547134 0.012656999751925468 -0.0714285671710968
		endloop
	endfacet
	facet normal 0 0 -1
		outer loop
			vertex 0.0659726932644844 -0.06993483006954193 -0.0714285671710968
			vertex 0.02330622635781765 -0.06993483006954193 -0.0714285671710968
			vertex 0.022894492372870445 -0.029459157958626747 -0.0714285671710968
		endloop
	endfacet
	facet normal 0 0 -1
		outer loop
			vertex 0.0659726932644844 -0.06993483006954193 -0.0714285671710968
			vertex 0.022894492372870445 -0.029459157958626747 -0.0714285671710968
			vertex 0.0231556948274374 -0.024546364322304726 -0.0714285671710968
		endloop
	endfacet
endsolid exported
