solid exported
	facet normal -0.21535302076753796 0.9547225962238385 0.20525067772338731
		outer loop
			vertex -0.10000000149011612 -0.06276171654462814 0.29066964983940125
			vertex -0.10119641572237015 -0.06380857527256012 0.29428380727767944
			vertex -0.10000000149011612 -0.06343255937099457 0.2937900722026825
		endloop
	endfacet
	facet normal -0.5801479428616785 0.09249736886259924 0.8092419917100563
		outer loop
			vertex -0.10119641572237015 -0.06380857527256012 0.29428380727767944
			vertex -0.11878291517496109 -0.06467551738023758 0.2817750871181488
			vertex -0.11894669383764267 -0.0651085302233696 0.28170716762542725
		endloop
	endfacet
	facet normal -0.35791623052257276 0.8201544878104677 0.4463659799456743
		outer loop
			vertex -0.10119641572237015 -0.06380857527256012 0.29428380727767944
			vertex -0.11070486903190613 -0.06065645441412926 0.2808677852153778
			vertex -0.11878291517496109 -0.06467551738023758 0.2817750871181488
		endloop
	endfacet
	facet normal 0.07343949237650665 0.9511650574864974 0.29981940293481596
		outer loop
			vertex -0.10822279751300812 -0.058983225375413895 0.28069666028022766
			vertex -0.10119641572237015 -0.06380857527256012 0.29428380727767944
			vertex -0.10734715312719345 -0.05898589268326759 0.2804906368255615
		endloop
	endfacet
	facet normal -0.46053197069670565 0.7341770418392227 0.4988931500856842
		outer loop
			vertex -0.11070486903190613 -0.06065645441412926 0.2808677852153778
			vertex -0.10119641572237015 -0.06380857527256012 0.29428380727767944
			vertex -0.10822279751300812 -0.058983225375413895 0.28069666028022766
		endloop
	endfacet
	facet normal 0.07343911830292235 0.9511647224592946 0.29982055742030533
		outer loop
			vertex -0.10119641572237015 -0.06380857527256012 0.29428380727767944
			vertex -0.10000000149011612 -0.06276171654462814 0.29066964983940125
			vertex -0.10000000149011612 -0.059008270502090454 0.2787620425224304
		endloop
	endfacet
	facet normal 0.07343702084601364 0.9511649164509806 0.2998204557432018
		outer loop
			vertex -0.10119641572237015 -0.06380857527256012 0.29428380727767944
			vertex -0.10000000149011612 -0.059008270502090454 0.2787620425224304
			vertex -0.10734715312719345 -0.05898589268326759 0.2804906368255615
		endloop
	endfacet
	facet normal -0.24806068465935127 0.9599823139789654 0.12999943682156992
		outer loop
			vertex -0.10000000149011612 -0.06343255937099457 0.2937900722026825
			vertex -0.10119641572237015 -0.06380857527256012 0.29428380727767944
			vertex -0.10000000149011612 -0.06352068483829498 0.2944408357143402
		endloop
	endfacet
	facet normal -0.22467719733970234 0.46732437497837115 0.8550602818203237
		outer loop
			vertex -0.10000000149011612 -0.06352068483829498 0.2944408357143402
			vertex -0.10119641572237015 -0.06380857527256012 0.29428380727767944
			vertex -0.10000000149011612 -0.06357935816049576 0.29447290301322937
		endloop
	endfacet
	facet normal 1 0 0
		outer loop
			vertex -0.10000000149011612 -0.06357935816049576 0.29447290301322937
			vertex -0.10000000149011612 -0.06343255937099457 0.2937900722026825
			vertex -0.10000000149011612 -0.06352068483829498 0.2944408357143402
		endloop
	endfacet
	facet normal 1 0 0
		outer loop
			vertex -0.10000000149011612 -0.060141872614622116 0.2784835994243622
			vertex -0.10000000149011612 -0.059008270502090454 0.2787620425224304
			vertex -0.10000000149011612 -0.06276171654462814 0.29066964983940125
		endloop
	endfacet
	facet normal -0.5801482698699731 0.09243351115886611 0.8092490537416283
		outer loop
			vertex -0.10000000149011612 -0.06506702303886414 0.29528525471687317
			vertex -0.10119641572237015 -0.06380857527256012 0.29428380727767944
			vertex -0.11894669383764267 -0.0651085302233696 0.28170716762542725
		endloop
	endfacet
	facet normal -0.5801486342946567 0.09242658629449906 0.809249583424045
		outer loop
			vertex -0.10000000149011612 -0.06506702303886414 0.29528525471687317
			vertex -0.11894669383764267 -0.0651085302233696 0.28170716762542725
			vertex -0.12234403938055038 -0.07409112900495529 0.28029754757881165
		endloop
	endfacet
	facet normal -0.5801491184400438 0.09242877708805536 0.8092489861218528
		outer loop
			vertex -0.10000000149011612 -0.06506702303886414 0.29528525471687317
			vertex -0.12234403938055038 -0.07409112900495529 0.28029754757881165
			vertex -0.10000000149011612 -0.08091699331998825 0.29709556698799133
		endloop
	endfacet
	facet normal -0.5958098698629847 0.0251264579498607 0.8027323713945683
		outer loop
			vertex -0.13035866618156433 -0.1023595854640007 0.2752337157726288
			vertex -0.10000000149011612 -0.1023595854640007 0.2977667450904846
			vertex -0.10000000149011612 -0.08091699331998825 0.29709556698799133
		endloop
	endfacet
	facet normal -0.59580998396596 0.025126714016358142 0.8027322786889928
		outer loop
			vertex -0.13035866618156433 -0.1023595854640007 0.2752337157726288
			vertex -0.10000000149011612 -0.08091699331998825 0.29709556698799133
			vertex -0.12234403938055038 -0.07409112900495529 0.28029754757881165
		endloop
	endfacet
	facet normal -0.22464551321490833 0.4670108176479841 0.855239901777374
		outer loop
			vertex -0.10000000149011612 -0.06357935816049576 0.29447290301322937
			vertex -0.10119641572237015 -0.06380857527256012 0.29428380727767944
			vertex -0.10000000149011612 -0.06506702303886414 0.29528525471687317
		endloop
	endfacet
	facet normal 1 0 0
		outer loop
			vertex -0.10000000149011612 -0.1023595854640007 0.2977667450904846
			vertex -0.10000000149011612 -0.1023595854640007 0.26839298009872437
			vertex -0.10000000149011612 -0.10118851810693741 0.26840144395828247
		endloop
	endfacet
	facet normal 1 0 0
		outer loop
			vertex -0.10000000149011612 -0.1023595854640007 0.2977667450904846
			vertex -0.10000000149011612 -0.10118851810693741 0.26840144395828247
			vertex -0.10000000149011612 -0.060141872614622116 0.2784835994243622
		endloop
	endfacet
	facet normal 1 0 0
		outer loop
			vertex -0.10000000149011612 -0.1023595854640007 0.2977667450904846
			vertex -0.10000000149011612 -0.060141872614622116 0.2784835994243622
			vertex -0.10000000149011612 -0.06357935816049576 0.29447290301322937
		endloop
	endfacet
	facet normal 1 0 0
		outer loop
			vertex -0.10000000149011612 -0.1023595854640007 0.2977667450904846
			vertex -0.10000000149011612 -0.06357935816049576 0.29447290301322937
			vertex -0.10000000149011612 -0.06506702303886414 0.29528525471687317
		endloop
	endfacet
	facet normal 1 0 0
		outer loop
			vertex -0.10000000149011612 -0.1023595854640007 0.2977667450904846
			vertex -0.10000000149011612 -0.06506702303886414 0.29528525471687317
			vertex -0.10000000149011612 -0.08091699331998825 0.29709556698799133
		endloop
	endfacet
	facet normal -0.5801487064536841 0.09242550710030956 0.8092496549504165
		outer loop
			vertex -0.11878291517496109 -0.06467551738023758 0.2817750871181488
			vertex -0.13833482563495636 -0.06563933938741684 0.2678684592247009
			vertex -0.1389254480600357 -0.0690256804227829 0.26783180236816406
		endloop
	endfacet
	facet normal -0.5801491270291957 0.09243010359790636 0.809248828455218
		outer loop
			vertex -0.11878291517496109 -0.06467551738023758 0.2817750871181488
			vertex -0.1389254480600357 -0.0690256804227829 0.26783180236816406
			vertex -0.12234403938055038 -0.07409112900495529 0.28029754757881165
		endloop
	endfacet
	facet normal -0.3579148999675458 0.8201562374912599 0.446363831963794
		outer loop
			vertex -0.11070486903190613 -0.06065645441412926 0.2808677852153778
			vertex -0.11960382014513016 -0.05770639330148697 0.2683117091655731
			vertex -0.13833482563495636 -0.06563933938741684 0.2678684592247009
		endloop
	endfacet
	facet normal -0.3579159495209259 0.8201541245567882 0.44636687270789127
		outer loop
			vertex -0.11070486903190613 -0.06065645441412926 0.2808677852153778
			vertex -0.13833482563495636 -0.06563933938741684 0.2678684592247009
			vertex -0.11878291517496109 -0.06467551738023758 0.2817750871181488
		endloop
	endfacet
	facet normal 0.07343400271915522 0.9511647788480959 0.29982163151363156
		outer loop
			vertex -0.11270523071289062 -0.054784711450338364 0.2684749960899353
			vertex -0.11456224322319031 -0.054629627615213394 0.26843783259391785
			vertex -0.10872438549995422 -0.058638762682676315 0.27972671389579773
		endloop
	endfacet
	facet normal 0.07343625984598262 0.9511648487580948 0.29982085689095095
		outer loop
			vertex -0.11270523071289062 -0.054784711450338364 0.2684749960899353
			vertex -0.10872438549995422 -0.058638762682676315 0.27972671389579773
			vertex -0.1082816869020462 -0.058253128081560135 0.278394877910614
		endloop
	endfacet
	facet normal -0.46052620532782484 0.7341835673854576 0.49888886897536366
		outer loop
			vertex -0.11960382014513016 -0.05770639330148697 0.2683117091655731
			vertex -0.11070486903190613 -0.06065645441412926 0.2808677852153778
			vertex -0.1096421480178833 -0.05994005128741264 0.28079450130462646
		endloop
	endfacet
	facet normal -0.4605343238121581 0.7341751017495238 0.4988938329564264
		outer loop
			vertex -0.11960382014513016 -0.05770639330148697 0.2683117091655731
			vertex -0.1096421480178833 -0.05994005128741264 0.28079450130462646
			vertex -0.10872438549995422 -0.058638762682676315 0.27972671389579773
		endloop
	endfacet
	facet normal -0.4605329068120154 0.7341768133212946 0.49889262223915926
		outer loop
			vertex -0.11960382014513016 -0.05770639330148697 0.2683117091655731
			vertex -0.10872438549995422 -0.058638762682676315 0.27972671389579773
			vertex -0.11456224322319031 -0.054629627615213394 0.26843783259391785
		endloop
	endfacet
	facet normal 0.07343767876500709 0.9511649297297505 0.2998202524677189
		outer loop
			vertex -0.10503537952899933 -0.055425237864255905 0.26862838864326477
			vertex -0.11270523071289062 -0.054784711450338364 0.2684749960899353
			vertex -0.1082816869020462 -0.058253128081560135 0.278394877910614
		endloop
	endfacet
	facet normal -0.5958127704740473 0.02512392101852784 0.8027302978788674
		outer loop
			vertex -0.1403568834066391 -0.09583640098571777 0.2676085829734802
			vertex -0.13859301805496216 -0.1023595854640007 0.2691219449043274
			vertex -0.13250473141670227 -0.1023595854640007 0.27364087104797363
		endloop
	endfacet
	facet normal -0.5958111536317271 0.025126891054521795 0.8027314049879727
		outer loop
			vertex -0.1403568834066391 -0.09583640098571777 0.2676085829734802
			vertex -0.13250473141670227 -0.1023595854640007 0.27364087104797363
			vertex -0.12766090035438538 -0.09284423291683197 0.276938259601593
		endloop
	endfacet
	facet normal -0.5958114035500602 0.025128707114815813 0.8027311626431638
		outer loop
			vertex -0.1403568834066391 -0.09583640098571777 0.2676085829734802
			vertex -0.12766090035438538 -0.09284423291683197 0.276938259601593
			vertex -0.12234403938055038 -0.07409112900495529 0.28029754757881165
		endloop
	endfacet
	facet normal -0.5958102342107604 0.02512720458526918 0.802732077594666
		outer loop
			vertex -0.1403568834066391 -0.09583640098571777 0.2676085829734802
			vertex -0.12234403938055038 -0.07409112900495529 0.28029754757881165
			vertex -0.1389254480600357 -0.0690256804227829 0.26783180236816406
		endloop
	endfacet
	facet normal -0.8172798949281725 -0.08890636465575484 0.5693410503994011
		outer loop
			vertex -0.13859301805496216 -0.1023595854640007 0.2691219449043274
			vertex -0.1403568834066391 -0.09583640098571777 0.2676085829734802
			vertex -0.1396702527999878 -0.1023595854640007 0.26757559180259705
		endloop
	endfacet
	facet normal 0.07343760532784764 0.951164903863879 0.2998203525135168
		outer loop
			vertex -0.10000000149011612 -0.055845752358436584 0.2687290906906128
			vertex -0.10503537952899933 -0.055425237864255905 0.26862838864326477
			vertex -0.10872438549995422 -0.058638762682676315 0.27972671389579773
		endloop
	endfacet
	facet normal 0.0734343276745507 0.9511658970154111 0.2998180045858738
		outer loop
			vertex -0.10000000149011612 -0.055845752358436584 0.2687290906906128
			vertex -0.10872438549995422 -0.058638762682676315 0.27972671389579773
			vertex -0.10822279751300812 -0.058983225375413895 0.28069666028022766
		endloop
	endfacet
	facet normal 0.07343714221099881 0.9511651332612556 0.29981973819610286
		outer loop
			vertex -0.10000000149011612 -0.055845752358436584 0.2687290906906128
			vertex -0.10822279751300812 -0.058983225375413895 0.28069666028022766
			vertex -0.10000000149011612 -0.059008270502090454 0.2787620425224304
		endloop
	endfacet
	facet normal -0.4605386428724626 0.7341749996131697 0.49888999625588093
		outer loop
			vertex -0.1096421480178833 -0.05994005128741264 0.28079450130462646
			vertex -0.10822279751300812 -0.058983225375413895 0.28069666028022766
			vertex -0.10872438549995422 -0.058638762682676315 0.27972671389579773
		endloop
	endfacet
	facet normal 1 0 0
		outer loop
			vertex -0.10000000149011612 -0.05804137885570526 0.26871323585510254
			vertex -0.10000000149011612 -0.055845752358436584 0.2687290906906128
			vertex -0.10000000149011612 -0.059008270502090454 0.2787620425224304
		endloop
	endfacet
	facet normal 1 0 0
		outer loop
			vertex -0.10000000149011612 -0.05804137885570526 0.26871323585510254
			vertex -0.10000000149011612 -0.059008270502090454 0.2787620425224304
			vertex -0.10000000149011612 -0.060141872614622116 0.2784835994243622
		endloop
	endfacet
	facet normal -0.5958042869131575 0.025121571672869953 0.8027366681126438
		outer loop
			vertex -0.13250473141670227 -0.1023595854640007 0.27364087104797363
			vertex -0.13035866618156433 -0.1023595854640007 0.2752337157726288
			vertex -0.12766090035438538 -0.09284423291683197 0.276938259601593
		endloop
	endfacet
	facet normal 1 0 0
		outer loop
			vertex -0.10000000149011612 -0.10118851810693741 0.26840144395828247
			vertex -0.10000000149011612 -0.05804137885570526 0.26871323585510254
			vertex -0.10000000149011612 -0.060141872614622116 0.2784835994243622
		endloop
	endfacet
	facet normal -0.580149486964812 0.09242564946477366 0.8092490791440423
		outer loop
			vertex -0.13833482563495636 -0.06563933938741684 0.2678684592247009
			vertex -0.14838816225528717 -0.06613492965698242 0.26071783900260925
			vertex -0.1389254480600357 -0.0690256804227829 0.26783180236816406
		endloop
	endfacet
	facet normal -0.3579147481974795 0.8201559405666743 0.44636449923345034
		outer loop
			vertex -0.11960382014513016 -0.05770639330148697 0.2683117091655731
			vertex -0.14236532151699066 -0.05016079917550087 0.23619616031646729
			vertex -0.1547340303659439 -0.05555848404765129 0.23619616031646729
		endloop
	endfacet
	facet normal -0.3579150088511987 0.8201556810872842 0.44636476700037564
		outer loop
			vertex -0.11960382014513016 -0.05770639330148697 0.2683117091655731
			vertex -0.1547340303659439 -0.05555848404765129 0.23619616031646729
			vertex -0.14838816225528717 -0.06613492965698242 0.26071783900260925
		endloop
	endfacet
	facet normal -0.35791491452430424 0.8201562765213952 0.4463637485768989
		outer loop
			vertex -0.11960382014513016 -0.05770639330148697 0.2683117091655731
			vertex -0.14838816225528717 -0.06613492965698242 0.26071783900260925
			vertex -0.13833482563495636 -0.06563933938741684 0.2678684592247009
		endloop
	endfacet
	facet normal -0.7135288259777698 0.30367246463888203 0.631395002133318
		outer loop
			vertex -0.10608766227960587 0.030160386115312576 0.23619616031646729
			vertex -0.10000000149011612 0.038224395364522934 0.23919729888439178
			vertex -0.10000000149011612 0.04089495912194252 0.2379128783941269
		endloop
	endfacet
	facet normal -0.713527840378618 0.3036716661570424 0.6313964999729023
		outer loop
			vertex -0.10608766227960587 0.030160386115312576 0.23619616031646729
			vertex -0.10000000149011612 0.04089495912194252 0.2379128783941269
			vertex -0.10309907793998718 0.03718256950378418 0.23619616031646729
		endloop
	endfacet
	facet normal 0.9575253158764554 -0.07253166144703352 -0.2790778162868335
		outer loop
			vertex -0.15402597188949585 -0.046211063861846924 0.23619616031646729
			vertex -0.14838816225528717 -0.06613492965698242 0.26071783900260925
			vertex -0.1547340303659439 -0.05555848404765129 0.23619616031646729
		endloop
	endfacet
	facet normal 0.07343973045834111 0.9511650381266717 0.29981940603585633
		outer loop
			vertex -0.1167563870549202 -0.053122811019420624 0.26419496536254883
			vertex -0.11456224322319031 -0.054629627615213394 0.26843783259391785
			vertex -0.11365927755832672 -0.05470503866672516 0.2684558928012848
		endloop
	endfacet
	facet normal -0.4605328758238196 0.7341766557468155 0.4988928827332221
		outer loop
			vertex -0.13950923085212708 -0.048369236290454865 0.23619616031646729
			vertex -0.14236532151699066 -0.05016079917550087 0.23619616031646729
			vertex -0.11960382014513016 -0.05770639330148697 0.2683117091655731
		endloop
	endfacet
	facet normal -0.4605328373625103 0.734176689419253 0.49889286868447186
		outer loop
			vertex -0.13950923085212708 -0.048369236290454865 0.23619616031646729
			vertex -0.11960382014513016 -0.05770639330148697 0.2683117091655731
			vertex -0.11456224322319031 -0.054629627615213394 0.26843783259391785
		endloop
	endfacet
	facet normal -0.4605377125569013 0.7341717232395598 0.49889567657809214
		outer loop
			vertex -0.13950923085212708 -0.048369236290454865 0.23619616031646729
			vertex -0.11456224322319031 -0.054629627615213394 0.26843783259391785
			vertex -0.1167563870549202 -0.053122811019420624 0.26419496536254883
		endloop
	endfacet
	facet normal -0.9480289061560364 0.10248148107610622 0.3012287156448352
		outer loop
			vertex -0.15505139529705048 -0.05569698289036751 0.23619616031646729
			vertex -0.14838816225528717 -0.06613492965698242 0.26071783900260925
			vertex -0.15402597188949585 -0.046211063861846924 0.23619616031646729
		endloop
	endfacet
	facet normal 0.07344846409494823 0.9511662257502537 0.2998134988857413
		outer loop
			vertex -0.11885486543178558 -0.051681678742170334 0.26013702154159546
			vertex -0.1167563870549202 -0.053122811019420624 0.26419496536254883
			vertex -0.11365927755832672 -0.05470503866672516 0.2684558928012848
		endloop
	endfacet
	facet normal 0.0733836726894046 0.9511592679205457 0.2998514359336405
		outer loop
			vertex -0.11885486543178558 -0.051681678742170334 0.26013702154159546
			vertex -0.11365927755832672 -0.05470503866672516 0.2684558928012848
			vertex -0.11359816789627075 -0.05471013858914375 0.2684571146965027
		endloop
	endfacet
	facet normal 0.07343628072717827 0.9511650248132981 0.29982029325060255
		outer loop
			vertex -0.11885486543178558 -0.051681678742170334 0.26013702154159546
			vertex -0.11359816789627075 -0.05471013858914375 0.2684571146965027
			vertex -0.11660086363554001 -0.052173223346471786 0.26114434003829956
		endloop
	endfacet
	facet normal -0.46052709005535886 0.7341832857521612 0.4988884667411184
		outer loop
			vertex -0.12044649571180344 -0.05235186219215393 0.25965404510498047
			vertex -0.1167563870549202 -0.053122811019420624 0.26419496536254883
			vertex -0.11885486543178558 -0.051681678742170334 0.26013702154159546
		endloop
	endfacet
	facet normal 0.07343769414507288 0.951165027144305 0.29981993965750275
		outer loop
			vertex -0.12291453778743744 -0.04683893918991089 0.24576802551746368
			vertex -0.1287803202867508 -0.044865403324365616 0.24094383418560028
			vertex -0.11885486543178558 -0.051681678742170334 0.26013702154159546
		endloop
	endfacet
	facet normal 0.07343625672498853 0.9511650117467886 0.2998203405824114
		outer loop
			vertex -0.12291453778743744 -0.04683893918991089 0.24576802551746368
			vertex -0.11885486543178558 -0.051681678742170334 0.26013702154159546
			vertex -0.11660086363554001 -0.052173223346471786 0.26114434003829956
		endloop
	endfacet
	facet normal -0.6433089382247493 -0.0436146836124622 0.7643633752172656
		outer loop
			vertex -0.1194663718342781 -0.04247870668768883 0.24891889095306396
			vertex -0.1287803202867508 -0.044865403324365616 0.24094383418560028
			vertex -0.12291453778743744 -0.04683893918991089 0.24576802551746368
		endloop
	endfacet
	facet normal -0.6696853255233528 0.24459125097946113 0.7012108703685244
		outer loop
			vertex -0.10000000149011612 0.003464557696133852 0.2513219714164734
			vertex -0.10000000149011612 0.038224395364522934 0.23919729888439178
			vertex -0.10608766227960587 0.030160386115312576 0.23619616031646729
		endloop
	endfacet
	facet normal -0.6696850073577602 0.24459145531607038 0.7012111029544553
		outer loop
			vertex -0.10000000149011612 0.003464557696133852 0.2513219714164734
			vertex -0.10608766227960587 0.030160386115312576 0.23619616031646729
			vertex -0.13203348219394684 -0.04087859019637108 0.23619616031646729
		endloop
	endfacet
	facet normal -0.6696849568926945 0.24459139527630006 0.7012111720932737
		outer loop
			vertex -0.10000000149011612 0.003464557696133852 0.2513219714164734
			vertex -0.13203348219394684 -0.04087859019637108 0.23619616031646729
			vertex -0.11841683834791183 -0.039588991552591324 0.24875077605247498
		endloop
	endfacet
	facet normal -0.6646913185741897 0.281674827277582 0.6919860856189591
		outer loop
			vertex -0.1329522728919983 -0.04304676875472069 0.23619616031646729
			vertex -0.1287803202867508 -0.044865403324365616 0.24094383418560028
			vertex -0.1194663718342781 -0.04247870668768883 0.24891889095306396
		endloop
	endfacet
	facet normal -0.6646919539016081 0.2816712850510479 0.6919869172145915
		outer loop
			vertex -0.1329522728919983 -0.04304676875472069 0.23619616031646729
			vertex -0.1194663718342781 -0.04247870668768883 0.24891889095306396
			vertex -0.11841683834791183 -0.039588991552591324 0.24875077605247498
		endloop
	endfacet
	facet normal -0.6646919778163969 0.2816709001826837 0.6919870509025464
		outer loop
			vertex -0.1329522728919983 -0.04304676875472069 0.23619616031646729
			vertex -0.11841683834791183 -0.039588991552591324 0.24875077605247498
			vertex -0.13203348219394684 -0.04087859019637108 0.23619616031646729
		endloop
	endfacet
	facet normal 1 0 0
		outer loop
			vertex -0.10000000149011612 0.003464557696133852 0.2513219714164734
			vertex -0.10000000149011612 0.017615284770727158 0.2411142885684967
			vertex -0.10000000149011612 0.04089495912194252 0.2379128783941269
		endloop
	endfacet
	facet normal 1 0 0
		outer loop
			vertex -0.10000000149011612 0.003464557696133852 0.2513219714164734
			vertex -0.10000000149011612 0.04089495912194252 0.2379128783941269
			vertex -0.10000000149011612 0.038224395364522934 0.23919729888439178
		endloop
	endfacet
	facet normal -0.6646929582704508 0.28167101022696245 0.691986064327454
		outer loop
			vertex -0.13365034759044647 -0.04469409957528114 0.23619616031646729
			vertex -0.1287803202867508 -0.044865403324365616 0.24094383418560028
			vertex -0.1329522728919983 -0.04304676875472069 0.23619616031646729
		endloop
	endfacet
	facet normal -0.4605320201260552 0.734177679171578 0.4988921665498972
		outer loop
			vertex -0.13365034759044647 -0.04469409957528114 0.23619616031646729
			vertex -0.13950923085212708 -0.048369236290454865 0.23619616031646729
			vertex -0.12044649571180344 -0.05235186219215393 0.25965404510498047
		endloop
	endfacet
	facet normal -0.46052712108360444 0.7341817278927758 0.49889073069643747
		outer loop
			vertex -0.13365034759044647 -0.04469409957528114 0.23619616031646729
			vertex -0.12044649571180344 -0.05235186219215393 0.25965404510498047
			vertex -0.11885486543178558 -0.051681678742170334 0.26013702154159546
		endloop
	endfacet
	facet normal -0.4605347112683372 0.7341750948384012 0.49889348546159035
		outer loop
			vertex -0.13365034759044647 -0.04469409957528114 0.23619616031646729
			vertex -0.11885486543178558 -0.051681678742170334 0.26013702154159546
			vertex -0.1287803202867508 -0.044865403324365616 0.24094383418560028
		endloop
	endfacet
	facet normal -0.5958094401223313 0.025127157269083163 0.8027326684698269
		outer loop
			vertex -0.14838816225528717 -0.06613492965698242 0.26071783900260925
			vertex -0.1403568834066391 -0.09583640098571777 0.2676085829734802
			vertex -0.1389254480600357 -0.0690256804227829 0.26783180236816406
		endloop
	endfacet
	facet normal -0.8172822617878956 -0.08890674630436773 0.5693375931979483
		outer loop
			vertex -0.14838816225528717 -0.06613492965698242 0.26071783900260925
			vertex -0.16117674112319946 -0.1023595854640007 0.23670309782028198
			vertex -0.1396702527999878 -0.1023595854640007 0.26757559180259705
		endloop
	endfacet
	facet normal -0.8172819133168554 -0.08890656230176776 0.569338122160129
		outer loop
			vertex -0.14838816225528717 -0.06613492965698242 0.26071783900260925
			vertex -0.1396702527999878 -0.1023595854640007 0.26757559180259705
			vertex -0.1403568834066391 -0.09583640098571777 0.2676085829734802
		endloop
	endfacet
	facet normal -0.9480285482711189 0.10248307870293685 0.3012292984464202
		outer loop
			vertex -0.15767623484134674 -0.07997828722000122 0.23619616031646729
			vertex -0.14838816225528717 -0.06613492965698242 0.26071783900260925
			vertex -0.15505139529705048 -0.05569698289036751 0.23619616031646729
		endloop
	endfacet
	facet normal -0.9496745907677798 0.15470486120633303 0.27236845920403374
		outer loop
			vertex -0.16132213175296783 -0.1023595854640007 0.23619616031646729
			vertex -0.16117674112319946 -0.1023595854640007 0.23670309782028198
			vertex -0.14838816225528717 -0.06613492965698242 0.26071783900260925
		endloop
	endfacet
	facet normal -0.949673750289737 0.1547011507322754 0.27237349719224946
		outer loop
			vertex -0.16132213175296783 -0.1023595854640007 0.23619616031646729
			vertex -0.14838816225528717 -0.06613492965698242 0.26071783900260925
			vertex -0.15767623484134674 -0.07997828722000122 0.23619616031646729
		endloop
	endfacet
	facet normal -0.7135282142504199 0.303672318791744 0.6313957635811728
		outer loop
			vertex -0.10309907793998718 0.03718256950378418 0.23619616031646729
			vertex -0.10000000149011612 0.04089495912194252 0.2379128783941269
			vertex -0.10000000149011612 0.044464360922575 0.23619616031646729
		endloop
	endfacet
	facet normal 1 0 0
		outer loop
			vertex -0.10000000149011612 0.02443317510187626 0.23619616031646729
			vertex -0.10000000149011612 0.044464360922575 0.23619616031646729
			vertex -0.10000000149011612 0.04089495912194252 0.2379128783941269
		endloop
	endfacet
	facet normal 1 0 0
		outer loop
			vertex -0.10000000149011612 0.02443317510187626 0.23619616031646729
			vertex -0.10000000149011612 0.04089495912194252 0.2379128783941269
			vertex -0.10000000149011612 0.017615284770727158 0.2411142885684967
		endloop
	endfacet
	facet normal 0.07343743390502895 0.9511650710095819 0.29981986423981594
		outer loop
			vertex -0.10798034816980362 -0.05186352878808975 0.2580503523349762
			vertex -0.12291453778743744 -0.04683893918991089 0.24576802551746368
			vertex -0.11359816789627075 -0.05471013858914375 0.2684571146965027
		endloop
	endfacet
	facet normal 0.07343753943381653 0.9511650469772827 0.29981991463311863
		outer loop
			vertex -0.10798034816980362 -0.05186352878808975 0.2580503523349762
			vertex -0.11359816789627075 -0.05471013858914375 0.2684571146965027
			vertex -0.10657864063978195 -0.05529635772109032 0.2685975134372711
		endloop
	endfacet
	facet normal -0.6433111130413374 -0.04361176149907253 0.764361711558385
		outer loop
			vertex -0.10793261975049973 -0.039523180574178696 0.2587946951389313
			vertex -0.1194663718342781 -0.04247870668768883 0.24891889095306396
			vertex -0.12291453778743744 -0.04683893918991089 0.24576802551746368
		endloop
	endfacet
	facet normal -0.6433096179706687 -0.04361657477356522 0.7643626952118049
		outer loop
			vertex -0.10793261975049973 -0.039523180574178696 0.2587946951389313
			vertex -0.12291453778743744 -0.04683893918991089 0.24576802551746368
			vertex -0.10798034816980362 -0.05186352878808975 0.2580503523349762
		endloop
	endfacet
	facet normal -0.6696861314094508 0.24459204326585343 0.7012098243527959
		outer loop
			vertex -0.10917198657989502 -0.0179770365357399 0.2500414550304413
			vertex -0.11841683834791183 -0.039588991552591324 0.24875077605247498
			vertex -0.10799339413642883 -0.03860181197524071 0.258361279964447
		endloop
	endfacet
	facet normal -0.6646931001644624 0.28166924548772765 0.6919866463596896
		outer loop
			vertex -0.1194663718342781 -0.04247870668768883 0.24891889095306396
			vertex -0.10793261975049973 -0.039523180574178696 0.2587946951389313
			vertex -0.10799339413642883 -0.03860181197524071 0.258361279964447
		endloop
	endfacet
	facet normal -0.6646931040424388 0.2816716303287974 0.6919856718938225
		outer loop
			vertex -0.1194663718342781 -0.04247870668768883 0.24891889095306396
			vertex -0.10799339413642883 -0.03860181197524071 0.258361279964447
			vertex -0.11841683834791183 -0.039588991552591324 0.24875077605247498
		endloop
	endfacet
	facet normal -0.36198071856014846 0.2041307669865092 0.9095606573286789
		outer loop
			vertex -0.10000000149011612 -0.028229134157299995 0.26237714290618896
			vertex -0.1021934226155281 -0.0380525104701519 0.26370885968208313
			vertex -0.10000000149011612 -0.034948430955410004 0.26388514041900635
		endloop
	endfacet
	facet normal 0.073434826124823 0.9511643682804438 0.2998227323364279
		outer loop
			vertex -0.10699887573719025 -0.054267190396785736 0.26543548703193665
			vertex -0.10657864063978195 -0.05529635772109032 0.2685975134372711
			vertex -0.10503537952899933 -0.055425237864255905 0.26862838864326477
		endloop
	endfacet
	facet normal 0.07344055442554931 0.951164967854704 0.2998194271417847
		outer loop
			vertex -0.10699887573719025 -0.054267190396785736 0.26543548703193665
			vertex -0.10503537952899933 -0.055425237864255905 0.26862838864326477
			vertex -0.1043652817606926 -0.05484151467680931 0.2666124105453491
		endloop
	endfacet
	facet normal 0.0734356108755241 0.9511654365467084 0.2998191511132146
		outer loop
			vertex -0.10290637612342834 -0.05357065424323082 0.26222336292266846
			vertex -0.10798034816980362 -0.05186352878808975 0.2580503523349762
			vertex -0.10699887573719025 -0.054267190396785736 0.26543548703193665
		endloop
	endfacet
	facet normal 0.07343879445958597 0.9511640097235221 0.2998228978497043
		outer loop
			vertex -0.10290637612342834 -0.05357065424323082 0.26222336292266846
			vertex -0.10699887573719025 -0.054267190396785736 0.26543548703193665
			vertex -0.1043652817606926 -0.05484151467680931 0.2666124105453491
		endloop
	endfacet
	facet normal -0.6433080914353649 -0.04361374389034119 0.7643641415174157
		outer loop
			vertex -0.10000000149011612 -0.04762212559580803 0.2650088667869568
			vertex -0.10000000149011612 -0.04264243692159653 0.2652930021286011
			vertex -0.1021934226155281 -0.0380525104701519 0.26370885968208313
		endloop
	endfacet
	facet normal -0.6433078794173865 -0.04361367048483235 0.76436432414546
		outer loop
			vertex -0.10000000149011612 -0.04762212559580803 0.2650088667869568
			vertex -0.1021934226155281 -0.0380525104701519 0.26370885968208313
			vertex -0.10793261975049973 -0.039523180574178696 0.2587946951389313
		endloop
	endfacet
	facet normal -0.6433095891080542 -0.043616576345004085 0.7643627194137393
		outer loop
			vertex -0.10000000149011612 -0.04762212559580803 0.2650088667869568
			vertex -0.10793261975049973 -0.039523180574178696 0.2587946951389313
			vertex -0.10798034816980362 -0.05186352878808975 0.2580503523349762
		endloop
	endfacet
	facet normal -0.6433109629528909 -0.04361247806899162 0.7643617969923051
		outer loop
			vertex -0.10000000149011612 -0.04762212559580803 0.2650088667869568
			vertex -0.10798034816980362 -0.05186352878808975 0.2580503523349762
			vertex -0.10290637612342834 -0.05357065424323082 0.26222336292266846
		endloop
	endfacet
	facet normal -0.6696847259695139 0.2445916170555285 0.7012113152747173
		outer loop
			vertex -0.1021934226155281 -0.0380525104701519 0.26370885968208313
			vertex -0.10000000149011612 -0.028229134157299995 0.26237714290618896
			vertex -0.10000000149011612 0.003464557696133852 0.2513219714164734
		endloop
	endfacet
	facet normal -0.6696852974740143 0.24459149690709037 0.701210811374076
		outer loop
			vertex -0.1021934226155281 -0.0380525104701519 0.26370885968208313
			vertex -0.10000000149011612 0.003464557696133852 0.2513219714164734
			vertex -0.10917198657989502 -0.0179770365357399 0.2500414550304413
		endloop
	endfacet
	facet normal -0.6696832191403682 0.2445931727238051 0.701212211715324
		outer loop
			vertex -0.1021934226155281 -0.0380525104701519 0.26370885968208313
			vertex -0.10917198657989502 -0.0179770365357399 0.2500414550304413
			vertex -0.10799339413642883 -0.03860181197524071 0.258361279964447
		endloop
	endfacet
	facet normal -0.6646905627935259 0.28167034821679754 0.6919886347828654
		outer loop
			vertex -0.10793261975049973 -0.039523180574178696 0.2587946951389313
			vertex -0.1021934226155281 -0.0380525104701519 0.26370885968208313
			vertex -0.10799339413642883 -0.03860181197524071 0.258361279964447
		endloop
	endfacet
	facet normal -0.1563908602760603 0.05450397496722019 0.9861902532143006
		outer loop
			vertex -0.10000000149011612 -0.034948430955410004 0.26388514041900635
			vertex -0.1021934226155281 -0.0380525104701519 0.26370885968208313
			vertex -0.10000000149011612 -0.038435161113739014 0.2640778422355652
		endloop
	endfacet
	facet normal 0.2576241949764287 0.42295144770580395 0.8687587968166492
		outer loop
			vertex -0.10000000149011612 -0.040365662425756454 0.2641845643520355
			vertex -0.1021934226155281 -0.0380525104701519 0.26370885968208313
			vertex -0.10000000149011612 -0.04264243692159653 0.2652930021286011
		endloop
	endfacet
	facet normal 1 0 0
		outer loop
			vertex -0.10000000149011612 -0.04264243692159653 0.2652930021286011
			vertex -0.10000000149011612 -0.04762212559580803 0.2650088667869568
			vertex -0.10000000149011612 -0.04774551838636398 0.2645924687385559
		endloop
	endfacet
	facet normal 1 0 0
		outer loop
			vertex -0.10000000149011612 -0.04264243692159653 0.2652930021286011
			vertex -0.10000000149011612 -0.04774551838636398 0.2645924687385559
			vertex -0.10000000149011612 -0.040365662425756454 0.2641845643520355
		endloop
	endfacet
	facet normal -0.22867214924558077 -0.8455125921476513 0.48251166273901225
		outer loop
			vertex -0.10000000149011612 -0.038435161113739014 0.2640778422355652
			vertex -0.1021934226155281 -0.0380525104701519 0.26370885968208313
			vertex -0.10000000149011612 -0.038807231932878494 0.2634258568286896
		endloop
	endfacet
	facet normal 0.25762048776670043 0.4229484578145688 0.8687613517618779
		outer loop
			vertex -0.10000000149011612 -0.038807231932878494 0.2634258568286896
			vertex -0.1021934226155281 -0.0380525104701519 0.26370885968208313
			vertex -0.10000000149011612 -0.040365662425756454 0.2641845643520355
		endloop
	endfacet
	facet normal 1 0 0
		outer loop
			vertex -0.10000000149011612 -0.040365662425756454 0.2641845643520355
			vertex -0.10000000149011612 -0.04774551838636398 0.2645924687385559
			vertex -0.10000000149011612 -0.05103888735175133 0.253479540348053
		endloop
	endfacet
	facet normal 1 0 0
		outer loop
			vertex -0.10000000149011612 -0.040365662425756454 0.2641845643520355
			vertex -0.10000000149011612 -0.05103888735175133 0.253479540348053
			vertex -0.10000000149011612 -0.05007544159889221 0.25042304396629333
		endloop
	endfacet
	facet normal 1 0 0
		outer loop
			vertex -0.10000000149011612 -0.040365662425756454 0.2641845643520355
			vertex -0.10000000149011612 -0.05007544159889221 0.25042304396629333
			vertex -0.10000000149011612 -0.04650735482573509 0.24993237853050232
		endloop
	endfacet
	facet normal 1 0 0
		outer loop
			vertex -0.10000000149011612 -0.040365662425756454 0.2641845643520355
			vertex -0.10000000149011612 -0.04650735482573509 0.24993237853050232
			vertex -0.10000000149011612 -0.038807231932878494 0.2634258568286896
		endloop
	endfacet
	facet normal 1 0 0
		outer loop
			vertex -0.10000000149011612 0.017615284770727158 0.2411142885684967
			vertex -0.10000000149011612 0.003464557696133852 0.2513219714164734
			vertex -0.10000000149011612 -0.028229134157299995 0.26237714290618896
		endloop
	endfacet
	facet normal 1 0 0
		outer loop
			vertex -0.10000000149011612 0.017615284770727158 0.2411142885684967
			vertex -0.10000000149011612 -0.028229134157299995 0.26237714290618896
			vertex -0.10000000149011612 -0.034948430955410004 0.26388514041900635
		endloop
	endfacet
	facet normal 1 0 0
		outer loop
			vertex -0.10000000149011612 0.017615284770727158 0.2411142885684967
			vertex -0.10000000149011612 -0.034948430955410004 0.26388514041900635
			vertex -0.10000000149011612 -0.038435161113739014 0.2640778422355652
		endloop
	endfacet
	facet normal 1 0 0
		outer loop
			vertex -0.10000000149011612 0.017615284770727158 0.2411142885684967
			vertex -0.10000000149011612 -0.038435161113739014 0.2640778422355652
			vertex -0.10000000149011612 -0.04650735482573509 0.24993237853050232
		endloop
	endfacet
	facet normal 1 0 0
		outer loop
			vertex -0.10000000149011612 -0.05103888735175133 0.253479540348053
			vertex -0.10000000149011612 -0.05187149718403816 0.25067004561424255
			vertex -0.10000000149011612 -0.05007544159889221 0.25042304396629333
		endloop
	endfacet
	facet normal 1 0 0
		outer loop
			vertex -0.10000000149011612 -0.05616089701652527 0.23619616031646729
			vertex -0.10000000149011612 0.02443317510187626 0.23619616031646729
			vertex -0.10000000149011612 0.017615284770727158 0.2411142885684967
		endloop
	endfacet
	facet normal 1 0 0
		outer loop
			vertex -0.10000000149011612 -0.05616089701652527 0.23619616031646729
			vertex -0.10000000149011612 0.017615284770727158 0.2411142885684967
			vertex -0.10000000149011612 -0.05187149718403816 0.25067004561424255
		endloop
	endfacet
	facet normal 0.07343813291159462 0.9511646419566275 0.29982105417395144
		outer loop
			vertex -0.10000000149011612 -0.055845752358436584 0.2687290906906128
			vertex -0.10000000149011612 -0.05454849824309349 0.26461362838745117
			vertex -0.10290637612342834 -0.05357065424323082 0.26222336292266846
		endloop
	endfacet
	facet normal 0.07343756181690918 0.951164609235649 0.2998212978625482
		outer loop
			vertex -0.10000000149011612 -0.055845752358436584 0.2687290906906128
			vertex -0.10290637612342834 -0.05357065424323082 0.26222336292266846
			vertex -0.10503537952899933 -0.055425237864255905 0.26862838864326477
		endloop
	endfacet
	facet normal -0.6433058476288489 -0.04361687582623363 0.7643658512451268
		outer loop
			vertex -0.10000000149011612 -0.04762212559580803 0.2650088667869568
			vertex -0.10290637612342834 -0.05357065424323082 0.26222336292266846
			vertex -0.10000000149011612 -0.05454849824309349 0.26461362838745117
		endloop
	endfacet
	facet normal 1 0 0
		outer loop
			vertex -0.10000000149011612 -0.04774551838636398 0.2645924687385559
			vertex -0.10000000149011612 -0.04762212559580803 0.2650088667869568
			vertex -0.10000000149011612 -0.05138932168483734 0.26479390263557434
		endloop
	endfacet
	facet normal 1 0 0
		outer loop
			vertex -0.10000000149011612 -0.05103888735175133 0.253479540348053
			vertex -0.10000000149011612 -0.04774551838636398 0.2645924687385559
			vertex -0.10000000149011612 -0.05138932168483734 0.26479390263557434
		endloop
	endfacet
	facet normal 1 0 0
		outer loop
			vertex -0.10000000149011612 -0.05103888735175133 0.253479540348053
			vertex -0.10000000149011612 -0.05138932168483734 0.26479390263557434
			vertex -0.10000000149011612 -0.05454849824309349 0.26461362838745117
		endloop
	endfacet
	facet normal 1 0 0
		outer loop
			vertex -0.10000000149011612 -0.1023595854640007 0.26839298009872437
			vertex -0.10000000149011612 -0.1023595854640007 0.23619616031646729
			vertex -0.10000000149011612 -0.05616089701652527 0.23619616031646729
		endloop
	endfacet
	facet normal 1 0 0
		outer loop
			vertex -0.10000000149011612 -0.1023595854640007 0.26839298009872437
			vertex -0.10000000149011612 -0.05616089701652527 0.23619616031646729
			vertex -0.10000000149011612 -0.05103888735175133 0.253479540348053
		endloop
	endfacet
	facet normal 1 0 0
		outer loop
			vertex -0.10000000149011612 -0.1023595854640007 0.26839298009872437
			vertex -0.10000000149011612 -0.05103888735175133 0.253479540348053
			vertex -0.10000000149011612 -0.055845752358436584 0.2687290906906128
		endloop
	endfacet
	facet normal 0 -1 0
		outer loop
			vertex -0.10000000149011612 -0.1023595854640007 0.26839298009872437
			vertex -0.10000000149011612 -0.1023595854640007 0.2977667450904846
			vertex -0.13035866618156433 -0.1023595854640007 0.2752337157726288
		endloop
	endfacet
	facet normal 0 -1 0
		outer loop
			vertex -0.10000000149011612 -0.1023595854640007 0.26839298009872437
			vertex -0.13035866618156433 -0.1023595854640007 0.2752337157726288
			vertex -0.10109426826238632 -0.1023595854640007 0.2683704197406769
		endloop
	endfacet
	facet normal 0 -1 0
		outer loop
			vertex -0.1396702527999878 -0.1023595854640007 0.26757559180259705
			vertex -0.13151325285434723 -0.1023595854640007 0.26774367690086365
			vertex -0.13250473141670227 -0.1023595854640007 0.27364087104797363
		endloop
	endfacet
	facet normal 0 -1 0
		outer loop
			vertex -0.1396702527999878 -0.1023595854640007 0.26757559180259705
			vertex -0.13250473141670227 -0.1023595854640007 0.27364087104797363
			vertex -0.13859301805496216 -0.1023595854640007 0.2691219449043274
		endloop
	endfacet
	facet normal 0 -1 0
		outer loop
			vertex -0.13151325285434723 -0.1023595854640007 0.26774367690086365
			vertex -0.10109426826238632 -0.1023595854640007 0.2683704197406769
			vertex -0.13035866618156433 -0.1023595854640007 0.2752337157726288
		endloop
	endfacet
	facet normal 0 -1 0
		outer loop
			vertex -0.13151325285434723 -0.1023595854640007 0.26774367690086365
			vertex -0.13035866618156433 -0.1023595854640007 0.2752337157726288
			vertex -0.13250473141670227 -0.1023595854640007 0.27364087104797363
		endloop
	endfacet
	facet normal 0 -1 0
		outer loop
			vertex -0.16132213175296783 -0.1023595854640007 0.23619616031646729
			vertex -0.160095676779747 -0.1023595854640007 0.23619616031646729
			vertex -0.1588928997516632 -0.1023595854640007 0.239981546998024
		endloop
	endfacet
	facet normal 0 -1 0
		outer loop
			vertex -0.16132213175296783 -0.1023595854640007 0.23619616031646729
			vertex -0.1588928997516632 -0.1023595854640007 0.239981546998024
			vertex -0.16117674112319946 -0.1023595854640007 0.23670309782028198
		endloop
	endfacet
	facet normal 0 -1 0
		outer loop
			vertex -0.160095676779747 -0.1023595854640007 0.23619616031646729
			vertex -0.15009061992168427 -0.1023595854640007 0.23619616031646729
			vertex -0.13282807171344757 -0.1023595854640007 0.26771658658981323
		endloop
	endfacet
	facet normal 0 -1 0
		outer loop
			vertex -0.160095676779747 -0.1023595854640007 0.23619616031646729
			vertex -0.13282807171344757 -0.1023595854640007 0.26771658658981323
			vertex -0.1396702527999878 -0.1023595854640007 0.26757559180259705
		endloop
	endfacet
	facet normal 0 -1 0
		outer loop
			vertex -0.160095676779747 -0.1023595854640007 0.23619616031646729
			vertex -0.1396702527999878 -0.1023595854640007 0.26757559180259705
			vertex -0.1588928997516632 -0.1023595854640007 0.239981546998024
		endloop
	endfacet
	facet normal 0 -1 0
		outer loop
			vertex -0.15009061992168427 -0.1023595854640007 0.23619616031646729
			vertex -0.11065039783716202 -0.1023595854640007 0.23619616031646729
			vertex -0.1064315214753151 -0.1023595854640007 0.26826047897338867
		endloop
	endfacet
	facet normal 0 -1 0
		outer loop
			vertex -0.15009061992168427 -0.1023595854640007 0.23619616031646729
			vertex -0.1064315214753151 -0.1023595854640007 0.26826047897338867
			vertex -0.13282807171344757 -0.1023595854640007 0.26771658658981323
		endloop
	endfacet
	facet normal 0 -1 0
		outer loop
			vertex -0.11065039783716202 -0.1023595854640007 0.23619616031646729
			vertex -0.10000000149011612 -0.1023595854640007 0.23619616031646729
			vertex -0.10000000149011612 -0.1023595854640007 0.26839298009872437
		endloop
	endfacet
	facet normal 0 -1 0
		outer loop
			vertex -0.11065039783716202 -0.1023595854640007 0.23619616031646729
			vertex -0.10000000149011612 -0.1023595854640007 0.26839298009872437
			vertex -0.1064315214753151 -0.1023595854640007 0.26826047897338867
		endloop
	endfacet
	facet normal 0 0 -1
		outer loop
			vertex -0.13950923085212708 -0.048369236290454865 0.23619616031646729
			vertex -0.13979417085647583 -0.04903874918818474 0.23619616031646729
			vertex -0.14236532151699066 -0.05016079917550087 0.23619616031646729
		endloop
	endfacet
	facet normal 0 0 -1
		outer loop
			vertex -0.15408556163311005 -0.046997830271720886 0.23619616031646729
			vertex -0.15410847961902618 -0.04697437211871147 0.23619616031646729
			vertex -0.15402597188949585 -0.046211063861846924 0.23619616031646729
		endloop
	endfacet
	facet normal 0 0 -1
		outer loop
			vertex -0.15410847961902618 -0.04697437211871147 0.23619616031646729
			vertex -0.15408556163311005 -0.046997830271720886 0.23619616031646729
			vertex -0.1547340303659439 -0.05555848404765129 0.23619616031646729
		endloop
	endfacet
	facet normal 0 0 -1
		outer loop
			vertex -0.15410847961902618 -0.04697437211871147 0.23619616031646729
			vertex -0.1547340303659439 -0.05555848404765129 0.23619616031646729
			vertex -0.15505139529705048 -0.05569698289036751 0.23619616031646729
		endloop
	endfacet
	facet normal 0 0 -1
		outer loop
			vertex -0.13282884657382965 -0.04305629804730415 0.23619616031646729
			vertex -0.1329522728919983 -0.04304676875472069 0.23619616031646729
			vertex -0.13203348219394684 -0.04087859019637108 0.23619616031646729
		endloop
	endfacet
	facet normal 0 0 -1
		outer loop
			vertex -0.10309907793998718 0.03718256950378418 0.23619616031646729
			vertex -0.11074129492044449 -0.0027559155132621527 0.23619616031646729
			vertex -0.12678249180316925 -0.04336046800017357 0.23619616031646729
		endloop
	endfacet
	facet normal 0 0 -1
		outer loop
			vertex -0.10309907793998718 0.03718256950378418 0.23619616031646729
			vertex -0.12678249180316925 -0.04336046800017357 0.23619616031646729
			vertex -0.1270991712808609 -0.04349867254495621 0.23619616031646729
		endloop
	endfacet
	facet normal 0 0 -1
		outer loop
			vertex -0.10309907793998718 0.03718256950378418 0.23619616031646729
			vertex -0.1270991712808609 -0.04349867254495621 0.23619616031646729
			vertex -0.13282884657382965 -0.04305629804730415 0.23619616031646729
		endloop
	endfacet
	facet normal 0 0 -1
		outer loop
			vertex -0.10309907793998718 0.03718256950378418 0.23619616031646729
			vertex -0.13282884657382965 -0.04305629804730415 0.23619616031646729
			vertex -0.10608766227960587 0.030160386115312576 0.23619616031646729
		endloop
	endfacet
	facet normal 0 0 -1
		outer loop
			vertex -0.13451522588729858 -0.046735022217035294 0.23619616031646729
			vertex -0.13979417085647583 -0.04903874918818474 0.23619616031646729
			vertex -0.13950923085212708 -0.048369236290454865 0.23619616031646729
		endloop
	endfacet
	facet normal 0 0 -1
		outer loop
			vertex -0.13451522588729858 -0.046735022217035294 0.23619616031646729
			vertex -0.13950923085212708 -0.048369236290454865 0.23619616031646729
			vertex -0.13365034759044647 -0.04469409957528114 0.23619616031646729
		endloop
	endfacet
	facet normal 0 0 -1
		outer loop
			vertex -0.13410745561122894 -0.046557068824768066 0.23619616031646729
			vertex -0.13451522588729858 -0.046735022217035294 0.23619616031646729
			vertex -0.1329522728919983 -0.04304676875472069 0.23619616031646729
		endloop
	endfacet
	facet normal 0 0 -1
		outer loop
			vertex -0.13410745561122894 -0.046557068824768066 0.23619616031646729
			vertex -0.1329522728919983 -0.04304676875472069 0.23619616031646729
			vertex -0.13282884657382965 -0.04305629804730415 0.23619616031646729
		endloop
	endfacet
	facet normal 0 0 -1
		outer loop
			vertex -0.1270991712808609 -0.04349867254495621 0.23619616031646729
			vertex -0.13410745561122894 -0.046557068824768066 0.23619616031646729
			vertex -0.13282884657382965 -0.04305629804730415 0.23619616031646729
		endloop
	endfacet
	facet normal 0 0 -1
		outer loop
			vertex -0.160095676779747 -0.1023595854640007 0.23619616031646729
			vertex -0.16132213175296783 -0.1023595854640007 0.23619616031646729
			vertex -0.15767623484134674 -0.07997828722000122 0.23619616031646729
		endloop
	endfacet
	facet normal 0 0 -1
		outer loop
			vertex -0.12678249180316925 -0.04336046800017357 0.23619616031646729
			vertex -0.13566741347312927 -0.06585057079792023 0.23619616031646729
			vertex -0.14841590821743011 -0.05280126631259918 0.23619616031646729
		endloop
	endfacet
	facet normal 0 0 -1
		outer loop
			vertex -0.15009061992168427 -0.1023595854640007 0.23619616031646729
			vertex -0.160095676779747 -0.1023595854640007 0.23619616031646729
			vertex -0.15505139529705048 -0.05569698289036751 0.23619616031646729
		endloop
	endfacet
	facet normal 0 0 -1
		outer loop
			vertex -0.15009061992168427 -0.1023595854640007 0.23619616031646729
			vertex -0.15505139529705048 -0.05569698289036751 0.23619616031646729
			vertex -0.14841590821743011 -0.05280126631259918 0.23619616031646729
		endloop
	endfacet
	facet normal 0 0 -1
		outer loop
			vertex -0.15009061992168427 -0.1023595854640007 0.23619616031646729
			vertex -0.14841590821743011 -0.05280126631259918 0.23619616031646729
			vertex -0.13566741347312927 -0.06585057079792023 0.23619616031646729
		endloop
	endfacet
	facet normal 0 0 -1
		outer loop
			vertex -0.10000000149011612 0.044464360922575 0.23619616031646729
			vertex -0.10000000149011612 0.02443317510187626 0.23619616031646729
			vertex -0.11074129492044449 -0.0027559155132621527 0.23619616031646729
		endloop
	endfacet
	facet normal 0 0 -1
		outer loop
			vertex -0.10000000149011612 0.044464360922575 0.23619616031646729
			vertex -0.11074129492044449 -0.0027559155132621527 0.23619616031646729
			vertex -0.10309907793998718 0.03718256950378418 0.23619616031646729
		endloop
	endfacet
	facet normal 0 0 -1
		outer loop
			vertex -0.1268448531627655 -0.0435183085501194 0.23619616031646729
			vertex -0.11812622100114822 -0.021449130028486252 0.23619616031646729
			vertex -0.12491751462221146 -0.04366711154580116 0.23619616031646729
		endloop
	endfacet
	facet normal 0 0 -1
		outer loop
			vertex -0.11812622100114822 -0.021449130028486252 0.23619616031646729
			vertex -0.11105240136384964 -0.003543420461937785 0.23619616031646729
			vertex -0.11088476330041885 -0.04475054517388344 0.23619616031646729
		endloop
	endfacet
	facet normal 0 0 -1
		outer loop
			vertex -0.11812622100114822 -0.021449130028486252 0.23619616031646729
			vertex -0.11088476330041885 -0.04475054517388344 0.23619616031646729
			vertex -0.12491751462221146 -0.04366711154580116 0.23619616031646729
		endloop
	endfacet
	facet normal 0 0 -1
		outer loop
			vertex -0.11069493740797043 -0.09141229838132858 0.23619616031646729
			vertex -0.13566741347312927 -0.06585057079792023 0.23619616031646729
			vertex -0.1268448531627655 -0.0435183085501194 0.23619616031646729
		endloop
	endfacet
	facet normal 0 0 -1
		outer loop
			vertex -0.11069493740797043 -0.09141229838132858 0.23619616031646729
			vertex -0.1268448531627655 -0.0435183085501194 0.23619616031646729
			vertex -0.11088476330041885 -0.04475054517388344 0.23619616031646729
		endloop
	endfacet
	facet normal 0 0 -1
		outer loop
			vertex -0.11065039783716202 -0.1023595854640007 0.23619616031646729
			vertex -0.15009061992168427 -0.1023595854640007 0.23619616031646729
			vertex -0.13566741347312927 -0.06585057079792023 0.23619616031646729
		endloop
	endfacet
	facet normal 0 0 -1
		outer loop
			vertex -0.11065039783716202 -0.1023595854640007 0.23619616031646729
			vertex -0.13566741347312927 -0.06585057079792023 0.23619616031646729
			vertex -0.11069493740797043 -0.09141229838132858 0.23619616031646729
		endloop
	endfacet
	facet normal 0 0 -1
		outer loop
			vertex -0.11104906350374222 -0.004364336840808392 0.23619616031646729
			vertex -0.11105240136384964 -0.003543420461937785 0.23619616031646729
			vertex -0.11074129492044449 -0.0027559155132621527 0.23619616031646729
		endloop
	endfacet
	facet normal 0 0 -1
		outer loop
			vertex -0.10000000149011612 0.02443317510187626 0.23619616031646729
			vertex -0.10000000149011612 -0.05616089701652527 0.23619616031646729
			vertex -0.11076117306947708 -0.07512945681810379 0.23619616031646729
		endloop
	endfacet
	facet normal 0 0 -1
		outer loop
			vertex -0.10000000149011612 0.02443317510187626 0.23619616031646729
			vertex -0.11076117306947708 -0.07512945681810379 0.23619616031646729
			vertex -0.11104906350374222 -0.004364336840808392 0.23619616031646729
		endloop
	endfacet
	facet normal 0 0 -1
		outer loop
			vertex -0.10000000149011612 0.02443317510187626 0.23619616031646729
			vertex -0.11104906350374222 -0.004364336840808392 0.23619616031646729
			vertex -0.11074129492044449 -0.0027559155132621527 0.23619616031646729
		endloop
	endfacet
	facet normal 0 0 -1
		outer loop
			vertex -0.10000000149011612 -0.05616089701652527 0.23619616031646729
			vertex -0.10000000149011612 -0.1023595854640007 0.23619616031646729
			vertex -0.11069493740797043 -0.09141229838132858 0.23619616031646729
		endloop
	endfacet
	facet normal 0 0 -1
		outer loop
			vertex -0.10000000149011612 -0.05616089701652527 0.23619616031646729
			vertex -0.11069493740797043 -0.09141229838132858 0.23619616031646729
			vertex -0.11076117306947708 -0.07512945681810379 0.23619616031646729
		endloop
	endfacet
	facet normal 0 0 -1
		outer loop
			vertex -0.10000000149011612 -0.1023595854640007 0.23619616031646729
			vertex -0.11065039783716202 -0.1023595854640007 0.23619616031646729
			vertex -0.11069493740797043 -0.09141229838132858 0.23619616031646729
		endloop
	endfacet
endsolid exported
