solid exported
	facet normal -0.28380610650219046 -0.4701490833914817 -0.8357116328604127
		outer loop
			vertex -0.25656363368034363 0.2691924273967743 -0.2924559712409973
			vertex -0.2025589793920517 0.2814888656139374 -0.31771349906921387
			vertex -0.18760384619235992 0.2786640226840973 -0.3212030529975891
		endloop
	endfacet
	facet normal -0.4958316152219214 -0.5337602279369859 -0.6850189985825776
		outer loop
			vertex -0.25656363368034363 0.2691924273967743 -0.2924559712409973
			vertex -0.27056074142456055 0.2940201759338379 -0.301670104265213
			vertex -0.24858757853507996 0.28630775213241577 -0.3115653097629547
		endloop
	endfacet
	facet normal 0.23391204073865204 -0.13561797013526994 -0.9627527841423614
		outer loop
			vertex -0.2949484884738922 0.29145893454551697 -0.3049185872077942
			vertex -0.2751460373401642 0.2948624789714813 -0.3005867898464203
			vertex -0.25656363368034363 0.2691924273967743 -0.2924559712409973
		endloop
	endfacet
	facet normal -0.00134303451117859 0.7892920333577685 -0.6140165163383319
		outer loop
			vertex -0.2751460373401642 0.2948624789714813 -0.3005867898464203
			vertex -0.2949484884738922 0.29145893454551697 -0.3049185872077942
			vertex -0.28755417466163635 0.29712793231010437 -0.29764750599861145
		endloop
	endfacet
	facet normal -0.25288442371286646 -0.7650224157958273 -0.5922754186806405
		outer loop
			vertex -0.29999998211860657 0.2922951281070709 -0.30384182929992676
			vertex -0.2949484884738922 0.29145893454551697 -0.3049185872077942
			vertex -0.29999998211860657 0.2922915518283844 -0.30383720993995667
		endloop
	endfacet
	facet normal 0.0005398441130716965 0.7883642908176672 -0.6152084634755038
		outer loop
			vertex -0.29999998211860657 0.2927103638648987 -0.30331936478614807
			vertex -0.2944718599319458 0.2918243408203125 -0.3044499158859253
			vertex -0.2949484884738922 0.29145893454551697 -0.3049185872077942
		endloop
	endfacet
	facet normal 0.0005296366552426573 0.7883486733692299 -0.6152284849403421
		outer loop
			vertex -0.29999998211860657 0.2927103638648987 -0.30331936478614807
			vertex -0.2949484884738922 0.29145893454551697 -0.3049185872077942
			vertex -0.29999998211860657 0.2923685908317566 -0.30375730991363525
		endloop
	endfacet
	facet normal -0.014895367402958415 0.7546650061769763 -0.6559411989514268
		outer loop
			vertex -0.29999998211860657 0.2923685908317566 -0.30375730991363525
			vertex -0.2949484884738922 0.29145893454551697 -0.3049185872077942
			vertex -0.29999998211860657 0.2922951281070709 -0.30384182929992676
		endloop
	endfacet
	facet normal 0.0005384073024043566 0.7883652513582601 -0.6152072338394635
		outer loop
			vertex -0.29999998211860657 0.29942587018013 -0.29471367597579956
			vertex -0.28755417466163635 0.29712793231010437 -0.29764750599861145
			vertex -0.2944718599319458 0.2918243408203125 -0.3044499158859253
		endloop
	endfacet
	facet normal 0.0005404919477788726 0.7883658244371872 -0.6152064976314282
		outer loop
			vertex -0.29999998211860657 0.29942587018013 -0.29471367597579956
			vertex -0.2944718599319458 0.2918243408203125 -0.3044499158859253
			vertex -0.29999998211860657 0.2927103638648987 -0.30331936478614807
		endloop
	endfacet
	facet normal -0.24637483966506374 -0.7426709497181164 -0.622687159675551
		outer loop
			vertex -0.29999998211860657 0.28257235884666443 -0.2912278473377228
			vertex -0.25656363368034363 0.2691924273967743 -0.2924559712409973
			vertex -0.29999998211860657 0.28201648592948914 -0.2905648648738861
		endloop
	endfacet
	facet normal -0.2527518749733485 -0.7663108191045716 -0.5906642178266239
		outer loop
			vertex -0.29999998211860657 0.2922915518283844 -0.30383720993995667
			vertex -0.2949484884738922 0.29145893454551697 -0.3049185872077942
			vertex -0.25656363368034363 0.2691924273967743 -0.2924559712409973
		endloop
	endfacet
	facet normal -0.2527511416078558 -0.7663100721542335 -0.5906655007116118
		outer loop
			vertex -0.29999998211860657 0.2922915518283844 -0.30383720993995667
			vertex -0.25656363368034363 0.2691924273967743 -0.2924559712409973
			vertex -0.29999998211860657 0.28257235884666443 -0.2912278473377228
		endloop
	endfacet
	facet normal -0.2378724898730436 -0.7075741702760486 -0.6653987316788035
		outer loop
			vertex -0.29999998211860657 0.28201648592948914 -0.2905648648738861
			vertex -0.25656363368034363 0.2691924273967743 -0.2924559712409973
			vertex -0.29999998211860657 0.2707441747188568 -0.2785780727863312
		endloop
	endfacet
	facet normal 0.0006057602731326707 0.7893794845998261 -0.6139052551879681
		outer loop
			vertex -0.2548043131828308 0.29111695289611816 -0.30538761615753174
			vertex -0.24858757853507996 0.28630775213241577 -0.3115653097629547
			vertex -0.27056074142456055 0.2940201759338379 -0.301670104265213
		endloop
	endfacet
	facet normal 0.0019455666807863961 0.7900308242256534 -0.6130640354348196
		outer loop
			vertex -0.23430724442005157 0.2873217463493347 -0.3102132976055145
			vertex -0.24858757853507996 0.28630775213241577 -0.3115653097629547
			vertex -0.2548043131828308 0.29111695289611816 -0.30538761615753174
		endloop
	endfacet
	facet normal 0.11439913300749496 -0.7632677860793361 -0.6358735134448379
		outer loop
			vertex -0.25656363368034363 0.2691924273967743 -0.2924559712409973
			vertex -0.24858757853507996 0.28630775213241577 -0.3115653097629547
			vertex -0.23430724442005157 0.2873217463493347 -0.3102132976055145
		endloop
	endfacet
	facet normal -0.4297858440095978 0.03424070094257271 -0.9022813877543518
		outer loop
			vertex -0.22050514817237854 0.2883017659187317 -0.308906614780426
			vertex -0.2025589793920517 0.2814888656139374 -0.31771349906921387
			vertex -0.25656363368034363 0.2691924273967743 -0.2924559712409973
		endloop
	endfacet
	facet normal -0.4958331119541518 -0.5337605705963098 -0.6850176482154045
		outer loop
			vertex -0.25656363368034363 0.2691924273967743 -0.2924559712409973
			vertex -0.2736789584159851 0.295114666223526 -0.3002658784389496
			vertex -0.27056074142456055 0.2940201759338379 -0.301670104265213
		endloop
	endfacet
	facet normal 0.23390737399842443 -0.13562154786117797 -0.9627534139876627
		outer loop
			vertex -0.2751460373401642 0.2948624789714813 -0.3005867898464203
			vertex -0.2736789584159851 0.295114666223526 -0.3002658784389496
			vertex -0.25656363368034363 0.2691924273967743 -0.2924559712409973
		endloop
	endfacet
	facet normal -0.0013550930698345146 0.7892672630844194 -0.6140483296500384
		outer loop
			vertex -0.2736789584159851 0.295114666223526 -0.3002658784389496
			vertex -0.2751460373401642 0.2948624789714813 -0.3005867898464203
			vertex -0.28755417466163635 0.29712793231010437 -0.29764750599861145
		endloop
	endfacet
	facet normal -0.0013437665912800314 0.7892964922648757 -0.6140107829588268
		outer loop
			vertex -0.2736789584159851 0.295114666223526 -0.3002658784389496
			vertex -0.28755417466163635 0.29712793231010437 -0.29764750599861145
			vertex -0.2850130498409271 0.299076110124588 -0.29514873027801514
		endloop
	endfacet
	facet normal 0.0005407909098032322 0.7883681607562182 -0.6152035034450386
		outer loop
			vertex -0.29999998211860657 0.3043467700481415 -0.28840768337249756
			vertex -0.2850130498409271 0.299076110124588 -0.29514873027801514
			vertex -0.28755417466163635 0.29712793231010437 -0.29764750599861145
		endloop
	endfacet
	facet normal 0.000539373283472229 0.78836723564933 -0.6152046901894481
		outer loop
			vertex -0.29999998211860657 0.3043467700481415 -0.28840768337249756
			vertex -0.28755417466163635 0.29712793231010437 -0.29764750599861145
			vertex -0.29999998211860657 0.29942587018013 -0.29471367597579956
		endloop
	endfacet
	facet normal -0.23787206153462848 -0.7075757400786535 -0.6653972154986912
		outer loop
			vertex -0.29999998211860657 0.2707441747188568 -0.2785780727863312
			vertex -0.25656363368034363 0.2691924273967743 -0.2924559712409973
			vertex -0.29999998211860657 0.2645052373409271 -0.2719436585903168
		endloop
	endfacet
	facet normal 0.0006064974478505842 0.7893791289109966 -0.6139057118162058
		outer loop
			vertex -0.2736789584159851 0.295114666223526 -0.3002658784389496
			vertex -0.27500829100608826 0.3067464232444763 -0.2853107154369354
			vertex -0.2548043131828308 0.29111695289611816 -0.30538761615753174
		endloop
	endfacet
	facet normal 0.000599512826369167 0.7893666755607263 -0.6139217312480297
		outer loop
			vertex -0.2736789584159851 0.295114666223526 -0.3002658784389496
			vertex -0.2548043131828308 0.29111695289611816 -0.30538761615753174
			vertex -0.27056074142456055 0.2940201759338379 -0.301670104265213
		endloop
	endfacet
	facet normal 0.00007711311994462132 0.7879515082506157 -0.6157372935750659
		outer loop
			vertex -0.27500829100608826 0.3067464232444763 -0.2853107154369354
			vertex -0.2672504186630249 0.3062386214733124 -0.2859595715999603
			vertex -0.2648908197879791 0.3053332269191742 -0.2871178984642029
		endloop
	endfacet
	facet normal 0 0.7842519521825704 -0.6204424836339205
		outer loop
			vertex -0.2679401636123657 0.3065009117126465 -0.2856210470199585
			vertex -0.27500829100608826 0.3067464232444763 -0.2853107154369354
			vertex -0.2685720920562744 0.3067464232444763 -0.2853107154369354
		endloop
	endfacet
	facet normal 0.0006226413548784174 0.7911036832149041 -0.6116817593500365
		outer loop
			vertex -0.2672504186630249 0.3062386214733124 -0.2859595715999603
			vertex -0.27500829100608826 0.3067464232444763 -0.2853107154369354
			vertex -0.2679401636123657 0.3065009117126465 -0.2856210470199585
		endloop
	endfacet
	facet normal 0 1 0
		outer loop
			vertex -0.27500829100608826 0.3067464232444763 -0.2853107154369354
			vertex -0.2685854136943817 0.3067464232444763 -0.28530439734458923
			vertex -0.2685720920562744 0.3067464232444763 -0.2853107154369354
		endloop
	endfacet
	facet normal -0.0013456497117952044 0.7892944651502031 -0.614013384634332
		outer loop
			vertex -0.27500829100608826 0.3067464232444763 -0.2853107154369354
			vertex -0.2736789584159851 0.295114666223526 -0.3002658784389496
			vertex -0.2850130498409271 0.299076110124588 -0.29514873027801514
		endloop
	endfacet
	facet normal 0.0031389989162158754 0.9999675109619878 0.007424534079045629
		outer loop
			vertex -0.29999998211860657 0.30682373046875 -0.28515660762786865
			vertex -0.27500829100608826 0.3067464232444763 -0.2853107154369354
			vertex -0.29999998211860657 0.30682429671287537 -0.28523287177085876
		endloop
	endfacet
	facet normal 0.000540290999862013 0.7883654520102286 -0.615206975059893
		outer loop
			vertex -0.29999998211860657 0.30682429671287537 -0.28523287177085876
			vertex -0.27500829100608826 0.3067464232444763 -0.2853107154369354
			vertex -0.2850130498409271 0.299076110124588 -0.29514873027801514
		endloop
	endfacet
	facet normal 0.0005339968627368629 0.7883608430751502 -0.6152128866930449
		outer loop
			vertex -0.29999998211860657 0.30682429671287537 -0.28523287177085876
			vertex -0.2850130498409271 0.299076110124588 -0.29514873027801514
			vertex -0.29999998211860657 0.3043467700481415 -0.28840768337249756
		endloop
	endfacet
	facet normal 0.0019446151792787626 0.790028878078035 -0.6130665463671673
		outer loop
			vertex -0.22050514817237854 0.2883017659187317 -0.308906614780426
			vertex -0.23430724442005157 0.2873217463493347 -0.3102132976055145
			vertex -0.2548043131828308 0.29111695289611816 -0.30538761615753174
		endloop
	endfacet
	facet normal 0.001944800944555516 0.7900297446847313 -0.6130654290225998
		outer loop
			vertex -0.22050514817237854 0.2883017659187317 -0.308906614780426
			vertex -0.2548043131828308 0.29111695289611816 -0.30538761615753174
			vertex -0.27500829100608826 0.3067464232444763 -0.2853107154369354
		endloop
	endfacet
	facet normal 0.00007173213179024224 0.7879368962859692 -0.6157559925211733
		outer loop
			vertex -0.22050514817237854 0.2883017659187317 -0.308906614780426
			vertex -0.27500829100608826 0.3067464232444763 -0.2853107154369354
			vertex -0.2648908197879791 0.3053332269191742 -0.2871178984642029
		endloop
	endfacet
	facet normal 0 1 0
		outer loop
			vertex -0.27500829100608826 0.3067464232444763 -0.2853107154369354
			vertex -0.2686147093772888 0.3067464232444763 -0.2852904498577118
			vertex -0.2685854136943817 0.3067464232444763 -0.28530439734458923
		endloop
	endfacet
	facet normal 0.0031368635345821235 0.999970037833567 0.007076971266036266
		outer loop
			vertex -0.29999998211860657 0.3067464232444763 -0.2742331624031067
			vertex -0.27500829100608826 0.3067464232444763 -0.2853107154369354
			vertex -0.29999998211860657 0.30682373046875 -0.28515660762786865
		endloop
	endfacet
	facet normal 0 1 0
		outer loop
			vertex -0.2751864194869995 0.3067464232444763 -0.2821601331233978
			vertex -0.27500829100608826 0.3067464232444763 -0.2853107154369354
			vertex -0.27633318305015564 0.3067464232444763 -0.28161388635635376
		endloop
	endfacet
	facet normal 0 1 0
		outer loop
			vertex -0.27500829100608826 0.3067464232444763 -0.2853107154369354
			vertex -0.2737225592136383 0.3067464232444763 -0.28285738825798035
			vertex -0.2686147093772888 0.3067464232444763 -0.2852904498577118
		endloop
	endfacet
	facet normal 0 1 0
		outer loop
			vertex -0.2737225592136383 0.3067464232444763 -0.28285738825798035
			vertex -0.27500829100608826 0.3067464232444763 -0.2853107154369354
			vertex -0.2751864194869995 0.3067464232444763 -0.2821601331233978
		endloop
	endfacet
	facet normal 0 1 0
		outer loop
			vertex -0.29999998211860657 0.3067464232444763 -0.27034059166908264
			vertex -0.27633318305015564 0.3067464232444763 -0.28161388635635376
			vertex -0.27500829100608826 0.3067464232444763 -0.2853107154369354
		endloop
	endfacet
	facet normal 0 1 0
		outer loop
			vertex -0.29999998211860657 0.3067464232444763 -0.27034059166908264
			vertex -0.27500829100608826 0.3067464232444763 -0.2853107154369354
			vertex -0.29999998211860657 0.3067464232444763 -0.2742331624031067
		endloop
	endfacet
	facet normal 0.1143959574831102 -0.7632662514795459 -0.635875926784373
		outer loop
			vertex -0.25656363368034363 0.2691924273967743 -0.2924559712409973
			vertex -0.23430724442005157 0.2873217463493347 -0.3102132976055145
			vertex -0.22050514817237854 0.2883017659187317 -0.308906614780426
		endloop
	endfacet
	facet normal 0.15578986508004514 -0.940670131473935 -0.30144522170893895
		outer loop
			vertex -0.12077991664409637 0.194599449634552 -0.2541372776031494
			vertex -0.12329676747322083 0.19607841968536377 -0.26005318760871887
			vertex -0.11692598462104797 0.1970854550600052 -0.2599031925201416
		endloop
	endfacet
	facet normal 0.32375962093959704 -0.8762804223223974 -0.3568085331147914
		outer loop
			vertex -0.12329676747322083 0.19108866155147552 -0.24779891967773438
			vertex -0.12329676747322083 0.19607841968536377 -0.26005318760871887
			vertex -0.12077991664409637 0.194599449634552 -0.2541372776031494
		endloop
	endfacet
	facet normal -0.18247343199605903 -0.821676034680952 -0.5399554987650065
		outer loop
			vertex -0.13337747752666473 0.1826397031545639 -0.23619616031646729
			vertex -0.12329676747322083 0.19607841968536377 -0.26005318760871887
			vertex -0.12109070271253586 0.17991112172603607 -0.23619616031646729
		endloop
	endfacet
	facet normal -0.1895108302781191 -0.8208688809272268 -0.5387577614592483
		outer loop
			vertex -0.12109070271253586 0.17991112172603607 -0.23619616031646729
			vertex -0.12329676747322083 0.19607841968536377 -0.26005318760871887
			vertex -0.11093410849571228 0.18250738084316254 -0.2437245398759842
		endloop
	endfacet
	facet normal -0.1895121339321533 -0.8208676942285252 -0.5387591109804328
		outer loop
			vertex -0.12109070271253586 0.17991112172603607 -0.23619616031646729
			vertex -0.11093410849571228 0.18250738084316254 -0.2437245398759842
			vertex -0.113557830452919 0.1781720221042633 -0.23619616031646729
		endloop
	endfacet
	facet normal 0.46036290309029954 0.8221833968976718 0.3347841981397526
		outer loop
			vertex -0.12329676747322083 0.19607841968536377 -0.26005318760871887
			vertex -0.1113075539469719 0.1827666014432907 -0.24384762346744537
			vertex -0.11093410849571228 0.18250738084316254 -0.2437245398759842
		endloop
	endfacet
	facet normal 0.4603667807894868 0.8221826452180817 0.33478071188125924
		outer loop
			vertex -0.12329676747322083 0.19607841968536377 -0.26005318760871887
			vertex -0.12329676747322083 0.19108866155147552 -0.24779891967773438
			vertex -0.1113075539469719 0.1827666014432907 -0.24384762346744537
		endloop
	endfacet
	facet normal -0.18247437796314767 -0.8216756896542156 -0.5399557041260254
		outer loop
			vertex -0.14401474595069885 0.18500198423862457 -0.23619616031646729
			vertex -0.12329676747322083 0.19607841968536377 -0.26005318760871887
			vertex -0.13337747752666473 0.1826397031545639 -0.23619616031646729
		endloop
	endfacet
	facet normal 0.35029085912925606 -0.6215726930448586 -0.7006737480963945
		outer loop
			vertex -0.11985395103693008 0.19945421814918518 -0.26132670044898987
			vertex -0.12329676747322083 0.19607841968536377 -0.26005318760871887
			vertex -0.126444473862648 0.2149094045162201 -0.2783319354057312
		endloop
	endfacet
	facet normal 0.08909750743889958 -0.4298255165304997 -0.8985052362159412
		outer loop
			vertex -0.11692598462104797 0.1970854550600052 -0.2599031925201416
			vertex -0.12329676747322083 0.19607841968536377 -0.26005318760871887
			vertex -0.11985395103693008 0.19945421814918518 -0.26132670044898987
		endloop
	endfacet
	facet normal -0.18247386407656999 -0.8216760018018583 -0.5399554027805245
		outer loop
			vertex -0.1914261281490326 0.19553087651729584 -0.23619616031646729
			vertex -0.12329676747322083 0.19607841968536377 -0.26005318760871887
			vertex -0.14401474595069885 0.18500198423862457 -0.23619616031646729
		endloop
	endfacet
	facet normal -0.2276010196477449 -0.710131531679683 -0.6662664508810078
		outer loop
			vertex -0.2643274962902069 0.21889616549015045 -0.23619616031646729
			vertex -0.25656363368034363 0.2691924273967743 -0.2924559712409973
			vertex -0.12329676747322083 0.19607841968536377 -0.26005318760871887
		endloop
	endfacet
	facet normal -0.22760102158167445 -0.7101314211397 -0.666266568037965
		outer loop
			vertex -0.2643274962902069 0.21889616549015045 -0.23619616031646729
			vertex -0.12329676747322083 0.19607841968536377 -0.26005318760871887
			vertex -0.1914261281490326 0.19553087651729584 -0.23619616031646729
		endloop
	endfacet
	facet normal -0.21729679096537038 -0.6983232464831551 -0.6820020147018473
		outer loop
			vertex -0.25656363368034363 0.2691924273967743 -0.2924559712409973
			vertex -0.17605938017368317 0.2584945559501648 -0.30715203285217285
			vertex -0.126444473862648 0.2149094045162201 -0.2783319354057312
		endloop
	endfacet
	facet normal -0.21729699941291164 -0.6983236273827931 -0.682001558271741
		outer loop
			vertex -0.25656363368034363 0.2691924273967743 -0.2924559712409973
			vertex -0.126444473862648 0.2149094045162201 -0.2783319354057312
			vertex -0.12329676747322083 0.19607841968536377 -0.26005318760871887
		endloop
	endfacet
	facet normal -0.23787253756210772 -0.7075748280852694 -0.6653980151261839
		outer loop
			vertex -0.29999998211860657 0.23088856041431427 -0.23619616031646729
			vertex -0.29999998211860657 0.2645052373409271 -0.2719436585903168
			vertex -0.25656363368034363 0.2691924273967743 -0.2924559712409973
		endloop
	endfacet
	facet normal -0.23787281500217364 -0.7075746484156277 -0.6653981070024492
		outer loop
			vertex -0.29999998211860657 0.23088856041431427 -0.23619616031646729
			vertex -0.25656363368034363 0.2691924273967743 -0.2924559712409973
			vertex -0.2643274962902069 0.21889616549015045 -0.23619616031646729
		endloop
	endfacet
	facet normal -0.13595481681232063 -0.7968504256655161 -0.588681311833673
		outer loop
			vertex -0.25656363368034363 0.2691924273967743 -0.2924559712409973
			vertex -0.20394563674926758 0.2764194905757904 -0.3143906891345978
			vertex -0.20389798283576965 0.2745121717453003 -0.3118199110031128
		endloop
	endfacet
	facet normal -0.22007967882467822 -0.6054028708010378 -0.7648871151969344
		outer loop
			vertex -0.17605938017368317 0.2584945559501648 -0.30715203285217285
			vertex -0.25656363368034363 0.2691924273967743 -0.2924559712409973
			vertex -0.20389798283576965 0.2745121717453003 -0.3118199110031128
		endloop
	endfacet
	facet normal 0.1557914703879751 -0.9406692862899126 -0.30144702948474955
		outer loop
			vertex -0.10000000149011612 0.19229155778884888 -0.23619616031646729
			vertex -0.11314707249403 0.19011417031288147 -0.23619616031646729
			vertex -0.12077991664409637 0.194599449634552 -0.2541372776031494
		endloop
	endfacet
	facet normal 0.15578983355128806 -0.9406701301282598 -0.30144524220253494
		outer loop
			vertex -0.10000000149011612 0.19229155778884888 -0.23619616031646729
			vertex -0.12077991664409637 0.194599449634552 -0.2541372776031494
			vertex -0.11692598462104797 0.1970854550600052 -0.2599031925201416
		endloop
	endfacet
	facet normal 0.155790179288783 -0.9406700020640372 -0.3014454631504897
		outer loop
			vertex -0.10000000149011612 0.19229155778884888 -0.23619616031646729
			vertex -0.11692598462104797 0.1970854550600052 -0.2599031925201416
			vertex -0.10000000149011612 0.19976097345352173 -0.2595047056674957
		endloop
	endfacet
	facet normal 0.3237597356043958 -0.8762804028815169 -0.35680847681519307
		outer loop
			vertex -0.12329676747322083 0.18636418879032135 -0.23619616031646729
			vertex -0.12329676747322083 0.19108866155147552 -0.24779891967773438
			vertex -0.12077991664409637 0.194599449634552 -0.2541372776031494
		endloop
	endfacet
	facet normal 0.3237572892854456 -0.8762810466579407 -0.35680911549819533
		outer loop
			vertex -0.12329676747322083 0.18636418879032135 -0.23619616031646729
			vertex -0.12077991664409637 0.194599449634552 -0.2541372776031494
			vertex -0.11314707249403 0.19011417031288147 -0.23619616031646729
		endloop
	endfacet
	facet normal -0.18951001627890093 -0.8208684005502414 -0.5387587797039222
		outer loop
			vertex -0.113557830452919 0.1781720221042633 -0.23619616031646729
			vertex -0.11093410849571228 0.18250738084316254 -0.2437245398759842
			vertex -0.10523425787687302 0.1762503981590271 -0.23619616031646729
		endloop
	endfacet
	facet normal 0.4603669508988503 0.8221825793706148 0.3347806396725746
		outer loop
			vertex -0.12329676747322083 0.19108866155147552 -0.24779891967773438
			vertex -0.12329676747322083 0.18636418879032135 -0.23619616031646729
			vertex -0.10523425787687302 0.1762503981590271 -0.23619616031646729
		endloop
	endfacet
	facet normal 0.46036633824132656 0.8221825495779085 0.3347815553220378
		outer loop
			vertex -0.12329676747322083 0.19108866155147552 -0.24779891967773438
			vertex -0.10523425787687302 0.1762503981590271 -0.23619616031646729
			vertex -0.11093410849571228 0.18250738084316254 -0.2437245398759842
		endloop
	endfacet
	facet normal 0.3291665198348077 -0.5106530139489771 -0.7942813743030029
		outer loop
			vertex -0.10000000149011612 0.2675790786743164 -0.3110140264034271
			vertex -0.13276836276054382 0.2527417838573456 -0.31505483388900757
			vertex -0.1236291155219078 0.27517446875572205 -0.3256895840167999
		endloop
	endfacet
	facet normal 0.329166141133374 -0.5106536746219794 -0.7942811064896568
		outer loop
			vertex -0.10000000149011612 0.2675790786743164 -0.3110140264034271
			vertex -0.1236291155219078 0.27517446875572205 -0.3256895840167999
			vertex -0.11066266894340515 0.27796897292137146 -0.32211264967918396
		endloop
	endfacet
	facet normal 0.3291621836997846 -0.5106571209905898 -0.794280530797269
		outer loop
			vertex -0.10000000149011612 0.2675790786743164 -0.3110140264034271
			vertex -0.11066266894340515 0.27796897292137146 -0.32211264967918396
			vertex -0.10000000149011612 0.2710162401199341 -0.31322383880615234
		endloop
	endfacet
	facet normal 0.33230714884554685 -0.5195199004792755 -0.7871918646887476
		outer loop
			vertex -0.10000000149011612 0.26396310329437256 -0.3086276054382324
			vertex -0.13276836276054382 0.2527417838573456 -0.31505483388900757
			vertex -0.10000000149011612 0.2675790786743164 -0.3110140264034271
		endloop
	endfacet
	facet normal 0.3502855485564264 -0.6215745679183746 -0.7006747397970113
		outer loop
			vertex -0.13276836276054382 0.2527417838573456 -0.31505483388900757
			vertex -0.10000000149011612 0.26396310329437256 -0.3086276054382324
			vertex -0.10000000149011612 0.21892161667346954 -0.268670916557312
		endloop
	endfacet
	facet normal 0.3502850287546451 -0.6215749559049601 -0.7006746554729266
		outer loop
			vertex -0.13276836276054382 0.2527417838573456 -0.31505483388900757
			vertex -0.10000000149011612 0.21892161667346954 -0.268670916557312
			vertex -0.11985395103693008 0.19945421814918518 -0.26132670044898987
		endloop
	endfacet
	facet normal 0.35029120185276585 -0.6215725236839339 -0.7006737269983302
		outer loop
			vertex -0.13276836276054382 0.2527417838573456 -0.31505483388900757
			vertex -0.11985395103693008 0.19945421814918518 -0.26132670044898987
			vertex -0.126444473862648 0.2149094045162201 -0.2783319354057312
		endloop
	endfacet
	facet normal 0.08909677238089689 -0.42982625626058885 -0.8985049552341452
		outer loop
			vertex -0.10000000149011612 0.19976097345352173 -0.2595047056674957
			vertex -0.11692598462104797 0.1970854550600052 -0.2599031925201416
			vertex -0.11985395103693008 0.19945421814918518 -0.26132670044898987
		endloop
	endfacet
	facet normal 0.08909660652210345 -0.4298321390226551 -0.8985021574651085
		outer loop
			vertex -0.10000000149011612 0.19976097345352173 -0.2595047056674957
			vertex -0.11985395103693008 0.19945421814918518 -0.26132670044898987
			vertex -0.10000000149011612 0.21892161667346954 -0.268670916557312
		endloop
	endfacet
	facet normal 1 0 0
		outer loop
			vertex -0.10000000149011612 0.19625452160835266 -0.2485627382993698
			vertex -0.10000000149011612 0.19976097345352173 -0.2595047056674957
			vertex -0.10000000149011612 0.21892161667346954 -0.268670916557312
		endloop
	endfacet
	facet normal -0.00013015600740666087 0.7882449939093283 -0.6153615300262899
		outer loop
			vertex -0.17431040108203888 0.27750080823898315 -0.32269856333732605
			vertex -0.13810688257217407 0.2815496027469635 -0.3175199329853058
			vertex -0.13244807720184326 0.28155216574668884 -0.31751784682273865
		endloop
	endfacet
	facet normal -0.00013347846900687834 0.7882580071863862 -0.615344859643798
		outer loop
			vertex -0.17431040108203888 0.27750080823898315 -0.32269856333732605
			vertex -0.13244807720184326 0.28155216574668884 -0.31751784682273865
			vertex -0.11066266894340515 0.27796897292137146 -0.32211264967918396
		endloop
	endfacet
	facet normal -0.00013344788590408826 0.7882564099840418 -0.6153469056643839
		outer loop
			vertex -0.17431040108203888 0.27750080823898315 -0.32269856333732605
			vertex -0.11066266894340515 0.27796897292137146 -0.32211264967918396
			vertex -0.1236291155219078 0.27517446875572205 -0.3256895840167999
		endloop
	endfacet
	facet normal -0.00019909684672765577 0.7884836110627181 -0.6150557336095177
		outer loop
			vertex -0.17431040108203888 0.27750080823898315 -0.32269856333732605
			vertex -0.18760384619235992 0.2786640226840973 -0.3212030529975891
			vertex -0.15669365227222443 0.2815402150154114 -0.31752586364746094
		endloop
	endfacet
	facet normal -0.00020199669510091405 0.7884883980923328 -0.6150495957816102
		outer loop
			vertex -0.17431040108203888 0.27750080823898315 -0.32269856333732605
			vertex -0.15669365227222443 0.2815402150154114 -0.31752586364746094
			vertex -0.13810688257217407 0.2815496027469635 -0.3175199329853058
		endloop
	endfacet
	facet normal 0.0016820606432313505 0.780760663509346 -0.6248279419075609
		outer loop
			vertex -0.15669365227222443 0.2815402150154114 -0.31752586364746094
			vertex -0.18760384619235992 0.2786640226840973 -0.3212030529975891
			vertex -0.2025589793920517 0.2814888656139374 -0.31771349906921387
		endloop
	endfacet
	facet normal 0.001681797362359866 0.7808029113457257 -0.6247751477064936
		outer loop
			vertex -0.15669365227222443 0.2815402150154114 -0.31752586364746094
			vertex -0.2025589793920517 0.2814888656139374 -0.31771349906921387
			vertex -0.20121334493160248 0.2815777063369751 -0.3175988495349884
		endloop
	endfacet
	facet normal -0.0000743372381564251 0.7908795753361881 -0.6119718063685827
		outer loop
			vertex -0.2025589793920517 0.2814888656139374 -0.31771349906921387
			vertex -0.20279130339622498 0.28157705068588257 -0.31759950518608093
			vertex -0.20121334493160248 0.2815777063369751 -0.3175988495349884
		endloop
	endfacet
	facet normal -0.2172972485073041 -0.6983234995716447 -0.6820016097760813
		outer loop
			vertex -0.17605938017368317 0.2584945559501648 -0.30715203285217285
			vertex -0.13276836276054382 0.2527417838573456 -0.31505483388900757
			vertex -0.126444473862648 0.2149094045162201 -0.2783319354057312
		endloop
	endfacet
	facet normal -0.13595305036248095 -0.7968540393422617 -0.5886768282182152
		outer loop
			vertex -0.20394563674926758 0.2764194905757904 -0.3143906891345978
			vertex -0.18760384619235992 0.2786640226840973 -0.3212030529975891
			vertex -0.17431040108203888 0.27750080823898315 -0.32269856333732605
		endloop
	endfacet
	facet normal -0.13595444748290078 -0.7968504631019516 -0.5886813464547901
		outer loop
			vertex -0.20394563674926758 0.2764194905757904 -0.3143906891345978
			vertex -0.17431040108203888 0.27750080823898315 -0.32269856333732605
			vertex -0.20389798283576965 0.2745121717453003 -0.3118199110031128
		endloop
	endfacet
	facet normal -0.2200801723241191 -0.6054023383368219 -0.7648873946445283
		outer loop
			vertex -0.17431040108203888 0.27750080823898315 -0.32269856333732605
			vertex -0.13276836276054382 0.2527417838573456 -0.31505483388900757
			vertex -0.17605938017368317 0.2584945559501648 -0.30715203285217285
		endloop
	endfacet
	facet normal -0.2200793972680168 -0.605402492355792 -0.7648874957453166
		outer loop
			vertex -0.17431040108203888 0.27750080823898315 -0.32269856333732605
			vertex -0.17605938017368317 0.2584945559501648 -0.30715203285217285
			vertex -0.20389798283576965 0.2745121717453003 -0.3118199110031128
		endloop
	endfacet
	facet normal -0.07234210804846829 -0.40303568574948656 -0.9123205880695365
		outer loop
			vertex -0.12595750391483307 0.2694593071937561 -0.32298019528388977
			vertex -0.13276836276054382 0.2527417838573456 -0.31505483388900757
			vertex -0.17431040108203888 0.27750080823898315 -0.32269856333732605
		endloop
	endfacet
	facet normal 1 0 0
		outer loop
			vertex -0.10000000149011612 0.19862905144691467 -0.23619616031646729
			vertex -0.10000000149011612 0.19229155778884888 -0.23619616031646729
			vertex -0.10000000149011612 0.19625452160835266 -0.2485627382993698
		endloop
	endfacet
	facet normal 1 0 0
		outer loop
			vertex -0.10000000149011612 0.19862905144691467 -0.23619616031646729
			vertex -0.10000000149011612 0.19625452160835266 -0.2485627382993698
			vertex -0.10000000149011612 0.23629610240459442 -0.2840839624404907
		endloop
	endfacet
	facet normal 1 0 0
		outer loop
			vertex -0.10000000149011612 0.19862905144691467 -0.23619616031646729
			vertex -0.10000000149011612 0.23629610240459442 -0.2840839624404907
			vertex -0.10000000149011612 0.2069333791732788 -0.24433745443820953
		endloop
	endfacet
	facet normal -0.07234158408447249 -0.40303248420778426 -0.912322043954574
		outer loop
			vertex -0.1236291155219078 0.27517446875572205 -0.3256895840167999
			vertex -0.12595750391483307 0.2694593071937561 -0.32298019528388977
			vertex -0.17431040108203888 0.27750080823898315 -0.32269856333732605
		endloop
	endfacet
	facet normal 1 0 0
		outer loop
			vertex -0.10000000149011612 0.23629610240459442 -0.2840839624404907
			vertex -0.10000000149011612 0.26396310329437256 -0.3086276054382324
			vertex -0.10000000149011612 0.2675790786743164 -0.3110140264034271
		endloop
	endfacet
	facet normal 1 0 0
		outer loop
			vertex -0.10000000149011612 0.23629610240459442 -0.2840839624404907
			vertex -0.10000000149011612 0.2675790786743164 -0.3110140264034271
			vertex -0.10000000149011612 0.2710162401199341 -0.31322383880615234
		endloop
	endfacet
	facet normal 1 0 0
		outer loop
			vertex -0.10000000149011612 0.23629610240459442 -0.2840839624404907
			vertex -0.10000000149011612 0.2710162401199341 -0.31322383880615234
			vertex -0.10000000149011612 0.26579952239990234 -0.302047997713089
		endloop
	endfacet
	facet normal 1 0 0
		outer loop
			vertex -0.10000000149011612 0.23629610240459442 -0.2840839624404907
			vertex -0.10000000149011612 0.26579952239990234 -0.302047997713089
			vertex -0.10000000149011612 0.2069333791732788 -0.24433745443820953
		endloop
	endfacet
	facet normal -0.000130172744725843 0.7882630850316256 -0.6153383555666597
		outer loop
			vertex -0.13810688257217407 0.2815496027469635 -0.3175199329853058
			vertex -0.1347290724515915 0.28192734718322754 -0.3170367479324341
			vertex -0.13244807720184326 0.28155216574668884 -0.31751784682273865
		endloop
	endfacet
	facet normal -0.00020096951504238166 0.7884838732926649 -0.61505539682914
		outer loop
			vertex -0.15669365227222443 0.2815402150154114 -0.31752586364746094
			vertex -0.1411641389131546 0.28298527002334595 -0.3156784176826477
			vertex -0.1347290724515915 0.28192734718322754 -0.3170367479324341
		endloop
	endfacet
	facet normal -0.00020201322185553074 0.7885064769912987 -0.6150264180776535
		outer loop
			vertex -0.15669365227222443 0.2815402150154114 -0.31752586364746094
			vertex -0.1347290724515915 0.28192734718322754 -0.3170367479324341
			vertex -0.13810688257217407 0.2815496027469635 -0.3175199329853058
		endloop
	endfacet
	facet normal 0.0016818562604782588 0.780754095000919 -0.6248361501216262
		outer loop
			vertex -0.1411641389131546 0.28298527002334595 -0.3156784176826477
			vertex -0.15669365227222443 0.2815402150154114 -0.31752586364746094
			vertex -0.20121334493160248 0.2815777063369751 -0.3175988495349884
		endloop
	endfacet
	facet normal 0.0016816506249127726 0.780757338656438 -0.6248320975952596
		outer loop
			vertex -0.1411641389131546 0.28298527002334595 -0.3156784176826477
			vertex -0.20121334493160248 0.2815777063369751 -0.3175988495349884
			vertex -0.15214526653289795 0.28481757640838623 -0.3134184181690216
		endloop
	endfacet
	facet normal 0.0000754602806549472 0.7879412606901004 -0.6157504072331919
		outer loop
			vertex -0.22050514817237854 0.2883017659187317 -0.308906614780426
			vertex -0.24111494421958923 0.29621005058288574 -0.2987893521785736
			vertex -0.2363176792860031 0.2986578345298767 -0.2956564724445343
		endloop
	endfacet
	facet normal 0.00007534789822778284 0.7879411956308295 -0.6157504904996448
		outer loop
			vertex -0.22050514817237854 0.2883017659187317 -0.308906614780426
			vertex -0.2363176792860031 0.2986578345298767 -0.2956564724445343
			vertex -0.1785304695367813 0.2891436517238617 -0.30782416462898254
		endloop
	endfacet
	facet normal -0.00008083065670564689 0.7908757937862164 -0.6119766925867577
		outer loop
			vertex -0.20279130339622498 0.28157705068588257 -0.31759950518608093
			vertex -0.22050514817237854 0.2883017659187317 -0.308906614780426
			vertex -0.1785304695367813 0.2891436517238617 -0.30782416462898254
		endloop
	endfacet
	facet normal -0.00008162035299343407 0.7908767422049348 -0.6119754668100895
		outer loop
			vertex -0.20279130339622498 0.28157705068588257 -0.31759950518608093
			vertex -0.1785304695367813 0.2891436517238617 -0.30782416462898254
			vertex -0.15214526653289795 0.28481757640838623 -0.3134184181690216
		endloop
	endfacet
	facet normal -0.00007429365150816106 0.7908338122933435 -0.6120309435102363
		outer loop
			vertex -0.20279130339622498 0.28157705068588257 -0.31759950518608093
			vertex -0.15214526653289795 0.28481757640838623 -0.3134184181690216
			vertex -0.20121334493160248 0.2815777063369751 -0.3175988495349884
		endloop
	endfacet
	facet normal 1 0 0
		outer loop
			vertex -0.10000000149011612 0.2350606620311737 -0.23619616031646729
			vertex -0.10000000149011612 0.19862905144691467 -0.23619616031646729
			vertex -0.10000000149011612 0.26579952239990234 -0.302047997713089
		endloop
	endfacet
	facet normal 0.00007627688879519486 0.787940653914153 -0.6157511835889343
		outer loop
			vertex -0.24111494421958923 0.29621005058288574 -0.2987893521785736
			vertex -0.25589361786842346 0.3018808662891388 -0.29153457283973694
			vertex -0.2363176792860031 0.2986578345298767 -0.2956564724445343
		endloop
	endfacet
	facet normal 0 1 0
		outer loop
			vertex -0.29999998211860657 0.3067464232444763 -0.23619616031646729
			vertex -0.2947215139865875 0.3067464232444763 -0.23619616031646729
			vertex -0.29999998211860657 0.3067464232444763 -0.24350537359714508
		endloop
	endfacet
	facet normal 0 1 0
		outer loop
			vertex -0.27698102593421936 0.3067464232444763 -0.2504182755947113
			vertex -0.2751864194869995 0.3067464232444763 -0.2821601331233978
			vertex -0.27633318305015564 0.3067464232444763 -0.28161388635635376
		endloop
	endfacet
	facet normal 0 1 0
		outer loop
			vertex -0.27698102593421936 0.3067464232444763 -0.2504182755947113
			vertex -0.27633318305015564 0.3067464232444763 -0.28161388635635376
			vertex -0.2836832106113434 0.3067464232444763 -0.26110485196113586
		endloop
	endfacet
	facet normal 0 1 0
		outer loop
			vertex -0.2737225592136383 0.3067464232444763 -0.28285738825798035
			vertex -0.24926860630512238 0.3067464232444763 -0.23619616031646729
			vertex -0.10000000149011612 0.3067464232444763 -0.23619616031646729
		endloop
	endfacet
	facet normal 0 1 0
		outer loop
			vertex -0.2737225592136383 0.3067464232444763 -0.28285738825798035
			vertex -0.10000000149011612 0.3067464232444763 -0.23619616031646729
			vertex -0.10000000149011612 0.3067464232444763 -0.2853107154369354
		endloop
	endfacet
	facet normal 0 1 0
		outer loop
			vertex -0.2737225592136383 0.3067464232444763 -0.28285738825798035
			vertex -0.10000000149011612 0.3067464232444763 -0.2853107154369354
			vertex -0.2685720920562744 0.3067464232444763 -0.2853107154369354
		endloop
	endfacet
	facet normal 0 1 0
		outer loop
			vertex -0.26806148886680603 0.3067464232444763 -0.23619616031646729
			vertex -0.24926860630512238 0.3067464232444763 -0.23619616031646729
			vertex -0.2737225592136383 0.3067464232444763 -0.28285738825798035
		endloop
	endfacet
	facet normal 0 1 0
		outer loop
			vertex -0.26806148886680603 0.3067464232444763 -0.23619616031646729
			vertex -0.2737225592136383 0.3067464232444763 -0.28285738825798035
			vertex -0.2751864194869995 0.3067464232444763 -0.2821601331233978
		endloop
	endfacet
	facet normal 0 1 0
		outer loop
			vertex -0.26806148886680603 0.3067464232444763 -0.23619616031646729
			vertex -0.2751864194869995 0.3067464232444763 -0.2821601331233978
			vertex -0.27698102593421936 0.3067464232444763 -0.2504182755947113
		endloop
	endfacet
	facet normal 0 1 0
		outer loop
			vertex -0.2836832106113434 0.3067464232444763 -0.26110485196113586
			vertex -0.27633318305015564 0.3067464232444763 -0.28161388635635376
			vertex -0.29189637303352356 0.3067464232444763 -0.2742006182670593
		endloop
	endfacet
	facet normal 1 0 0
		outer loop
			vertex -0.10000000149011612 0.26790758967399597 -0.23619616031646729
			vertex -0.10000000149011612 0.2350606620311737 -0.23619616031646729
			vertex -0.10000000149011612 0.2638714909553528 -0.2979176342487335
		endloop
	endfacet
	facet normal 0.00007540550109938084 0.7879421774681222 -0.615749234088687
		outer loop
			vertex -0.25589361786842346 0.3018808662891388 -0.29153457283973694
			vertex -0.2672504186630249 0.3062386214733124 -0.2859595715999603
			vertex -0.23819194734096527 0.3043366074562073 -0.2883899211883545
		endloop
	endfacet
	facet normal 0.0000758134135660916 0.7879410630955349 -0.6157506600404136
		outer loop
			vertex -0.25589361786842346 0.3018808662891388 -0.29153457283973694
			vertex -0.23819194734096527 0.3043366074562073 -0.2883899211883545
			vertex -0.20384229719638824 0.2933110296726227 -0.30249449610710144
		endloop
	endfacet
	facet normal 0 0.7842552767366973 -0.6204382813065668
		outer loop
			vertex -0.2685720920562744 0.3067464232444763 -0.2853107154369354
			vertex -0.24570418894290924 0.3067464232444763 -0.2853107154369354
			vertex -0.244963601231575 0.30651018023490906 -0.28560933470726013
		endloop
	endfacet
	facet normal -0.000003682951066404886 0.7842483029859896 -0.6204470962540088
		outer loop
			vertex -0.24212342500686646 0.3056042790412903 -0.2867545485496521
			vertex -0.2679401636123657 0.3065009117126465 -0.2856210470199585
			vertex -0.2685720920562744 0.3067464232444763 -0.2853107154369354
		endloop
	endfacet
	facet normal 8.748106034239589e-7 0.7842889283258174 -0.6203957421717011
		outer loop
			vertex -0.24212342500686646 0.3056042790412903 -0.2867545485496521
			vertex -0.2685720920562744 0.3067464232444763 -0.2853107154369354
			vertex -0.244963601231575 0.30651018023490906 -0.28560933470726013
		endloop
	endfacet
	facet normal 0.0006225075302313586 0.7911035514378756 -0.611681929916812
		outer loop
			vertex -0.23819194734096527 0.3043366074562073 -0.2883899211883545
			vertex -0.2672504186630249 0.3062386214733124 -0.2859595715999603
			vertex -0.2679401636123657 0.3065009117126465 -0.2856210470199585
		endloop
	endfacet
	facet normal 0.0006163069145143504 0.7910714479396959 -0.6117234542016354
		outer loop
			vertex -0.23819194734096527 0.3043366074562073 -0.2883899211883545
			vertex -0.2679401636123657 0.3065009117126465 -0.2856210470199585
			vertex -0.24212342500686646 0.3056042790412903 -0.2867545485496521
		endloop
	endfacet
	facet normal 1 0 0
		outer loop
			vertex -0.10000000149011612 0.2896593511104584 -0.23619616031646729
			vertex -0.10000000149011612 0.26790758967399597 -0.23619616031646729
			vertex -0.10000000149011612 0.2638714909553528 -0.2979176342487335
		endloop
	endfacet
	facet normal 1 0 0
		outer loop
			vertex -0.10000000149011612 0.2896593511104584 -0.23619616031646729
			vertex -0.10000000149011612 0.2638714909553528 -0.2979176342487335
			vertex -0.10000000149011612 0.2695368826389313 -0.31005460023880005
		endloop
	endfacet
	facet normal 0.329165003596705 -0.5105867606644037 -0.7943245937533422
		outer loop
			vertex -0.11066266894340515 0.27796897292137146 -0.32211264967918396
			vertex -0.10000000149011612 0.28026697039604187 -0.3191712200641632
			vertex -0.10000000149011612 0.28019997477531433 -0.319128155708313
		endloop
	endfacet
	facet normal 0.32916965050294555 -0.5107639258313141 -0.7942087592422742
		outer loop
			vertex -0.11066266894340515 0.27796897292137146 -0.32211264967918396
			vertex -0.10000000149011612 0.28019997477531433 -0.319128155708313
			vertex -0.1105848103761673 0.2779182195663452 -0.32204774022102356
		endloop
	endfacet
	facet normal -0.00013318135247622208 0.7882593479914063 -0.6153431421303812
		outer loop
			vertex -0.1347290724515915 0.28192734718322754 -0.3170367479324341
			vertex -0.10000000149011612 0.2858112156391144 -0.31206899881362915
			vertex -0.10000000149011612 0.28026697039604187 -0.3191712200641632
		endloop
	endfacet
	facet normal -0.00013334143771120093 0.788258082887232 -0.6153447627005586
		outer loop
			vertex -0.1347290724515915 0.28192734718322754 -0.3170367479324341
			vertex -0.10000000149011612 0.28026697039604187 -0.3191712200641632
			vertex -0.11066266894340515 0.27796897292137146 -0.32211264967918396
		endloop
	endfacet
	facet normal -0.00019965749713659638 0.7884837042578225 -0.6150556139543372
		outer loop
			vertex -0.1411641389131546 0.28298527002334595 -0.3156784176826477
			vertex -0.10000000149011612 0.2868156135082245 -0.3107813894748688
			vertex -0.10000000149011612 0.2858112156391144 -0.31206899881362915
		endloop
	endfacet
	facet normal -0.00020006473286477642 0.788485953382556 -0.6150527304975602
		outer loop
			vertex -0.1411641389131546 0.28298527002334595 -0.3156784176826477
			vertex -0.10000000149011612 0.2858112156391144 -0.31206899881362915
			vertex -0.1347290724515915 0.28192734718322754 -0.3170367479324341
		endloop
	endfacet
	facet normal 0.0016817896116586622 0.7807595700528257 -0.6248293089753624
		outer loop
			vertex -0.10000000149011612 0.2882606089115143 -0.30897578597068787
			vertex -0.10000000149011612 0.2868156135082245 -0.3107813894748688
			vertex -0.1411641389131546 0.28298527002334595 -0.3156784176826477
		endloop
	endfacet
	facet normal 0.0016821438790968156 0.7807585012748345 -0.624830643517941
		outer loop
			vertex -0.10000000149011612 0.2882606089115143 -0.30897578597068787
			vertex -0.1411641389131546 0.28298527002334595 -0.3156784176826477
			vertex -0.15214526653289795 0.28481757640838623 -0.3134184181690216
		endloop
	endfacet
	facet normal 0.0000750183916742964 0.7879400957536863 -0.6157518979880718
		outer loop
			vertex -0.23819194734096527 0.3043366074562073 -0.2883899211883545
			vertex -0.10000000149011612 0.29529133439064026 -0.2999477684497833
			vertex -0.10000000149011612 0.29071876406669617 -0.3057990074157715
		endloop
	endfacet
	facet normal 0.00007511353802695988 0.7879404620493795 -0.6157514292499586
		outer loop
			vertex -0.23819194734096527 0.3043366074562073 -0.2883899211883545
			vertex -0.10000000149011612 0.29071876406669617 -0.3057990074157715
			vertex -0.1785304695367813 0.2891436517238617 -0.30782416462898254
		endloop
	endfacet
	facet normal 0.00007438001813630824 0.7879393697070675 -0.6157528271418996
		outer loop
			vertex -0.23819194734096527 0.3043366074562073 -0.2883899211883545
			vertex -0.1785304695367813 0.2891436517238617 -0.30782416462898254
			vertex -0.20384229719638824 0.2933110296726227 -0.30249449610710144
		endloop
	endfacet
	facet normal -0.00008125969362971213 0.7908786920847213 -0.6119729469537218
		outer loop
			vertex -0.1785304695367813 0.2891436517238617 -0.30782416462898254
			vertex -0.10000000149011612 0.29071876406669617 -0.3057990074157715
			vertex -0.10000000149011612 0.2882606089115143 -0.30897578597068787
		endloop
	endfacet
	facet normal -0.00008129622429883679 0.7908774823090807 -0.6119745103902398
		outer loop
			vertex -0.1785304695367813 0.2891436517238617 -0.30782416462898254
			vertex -0.10000000149011612 0.2882606089115143 -0.30897578597068787
			vertex -0.15214526653289795 0.28481757640838623 -0.3134184181690216
		endloop
	endfacet
	facet normal -7.239459563010657e-7 0.7842544031191625 -0.6204393855870872
		outer loop
			vertex -0.10000000149011612 0.3053704500198364 -0.28705015778541565
			vertex -0.244963601231575 0.30651018023490906 -0.28560933470726013
			vertex -0.24570418894290924 0.3067464232444763 -0.2853107154369354
		endloop
	endfacet
	facet normal 0 0.784283910302417 -0.6204020857804644
		outer loop
			vertex -0.10000000149011612 0.3053704500198364 -0.28705015778541565
			vertex -0.24570418894290924 0.3067464232444763 -0.2853107154369354
			vertex -0.10000000149011612 0.3067464232444763 -0.2853107154369354
		endloop
	endfacet
	facet normal 1 0 0
		outer loop
			vertex -0.10000000149011612 0.3067464232444763 -0.2853107154369354
			vertex -0.10000000149011612 0.3067464232444763 -0.2852894067764282
			vertex -0.10000000149011612 0.3053704500198364 -0.28705015778541565
		endloop
	endfacet
	facet normal 1 0 0
		outer loop
			vertex -0.10000000149011612 0.29071876406669617 -0.3057990074157715
			vertex -0.10000000149011612 0.2872236371040344 -0.3102715313434601
			vertex -0.10000000149011612 0.2882606089115143 -0.30897578597068787
		endloop
	endfacet
	facet normal 7.958358657447492e-8 0.7842860540779348 -0.6203993757079841
		outer loop
			vertex -0.10000000149011612 0.30319735407829285 -0.28979727625846863
			vertex -0.15316081047058105 0.3025144934654236 -0.2906605303287506
			vertex -0.24212342500686646 0.3056042790412903 -0.2867545485496521
		endloop
	endfacet
	facet normal 1.6855164134650327e-7 0.7842880760754272 -0.6203968195646047
		outer loop
			vertex -0.10000000149011612 0.30319735407829285 -0.28979727625846863
			vertex -0.24212342500686646 0.3056042790412903 -0.2867545485496521
			vertex -0.244963601231575 0.30651018023490906 -0.28560933470726013
		endloop
	endfacet
	facet normal -1.4348241817627086e-7 0.7842828206693073 -0.6204034632422475
		outer loop
			vertex -0.10000000149011612 0.30319735407829285 -0.28979727625846863
			vertex -0.244963601231575 0.30651018023490906 -0.28560933470726013
			vertex -0.10000000149011612 0.3053704500198364 -0.28705015778541565
		endloop
	endfacet
	facet normal 0.0006164562039864883 0.7910688749405326 -0.6117267814000534
		outer loop
			vertex -0.10000000149011612 0.2971685826778412 -0.29752016067504883
			vertex -0.10000000149011612 0.29529133439064026 -0.2999477684497833
			vertex -0.23819194734096527 0.3043366074562073 -0.2883899211883545
		endloop
	endfacet
	facet normal 0.0006169049312027087 0.7910721427200085 -0.611722555118479
		outer loop
			vertex -0.10000000149011612 0.2971685826778412 -0.29752016067504883
			vertex -0.23819194734096527 0.3043366074562073 -0.2883899211883545
			vertex -0.24212342500686646 0.3056042790412903 -0.2867545485496521
		endloop
	endfacet
	facet normal 0.0006164928688432895 0.7910695235095645 -0.6117259426498874
		outer loop
			vertex -0.10000000149011612 0.2971685826778412 -0.29752016067504883
			vertex -0.24212342500686646 0.3056042790412903 -0.2867545485496521
			vertex -0.15316081047058105 0.3025144934654236 -0.2906605303287506
		endloop
	endfacet
	facet normal 1 0 0
		outer loop
			vertex -0.10000000149011612 0.2971685826778412 -0.29752016067504883
			vertex -0.10000000149011612 0.2868468463420868 -0.3107423484325409
			vertex -0.10000000149011612 0.2872236371040344 -0.3102715313434601
		endloop
	endfacet
	facet normal 1 0 0
		outer loop
			vertex -0.10000000149011612 0.2971685826778412 -0.29752016067504883
			vertex -0.10000000149011612 0.2872236371040344 -0.3102715313434601
			vertex -0.10000000149011612 0.29529133439064026 -0.2999477684497833
		endloop
	endfacet
	facet normal 1 0 0
		outer loop
			vertex -0.10000000149011612 0.3067464232444763 -0.2852894067764282
			vertex -0.10000000149011612 0.3067464232444763 -0.2852509319782257
			vertex -0.10000000149011612 0.30319735407829285 -0.28979727625846863
		endloop
	endfacet
	facet normal 1 0 0
		outer loop
			vertex -0.10000000149011612 0.3067464232444763 -0.2852894067764282
			vertex -0.10000000149011612 0.30319735407829285 -0.28979727625846863
			vertex -0.10000000149011612 0.3053704500198364 -0.28705015778541565
		endloop
	endfacet
	facet normal 1.2402911735933796e-7 0.7842847223092485 -0.6204010592772145
		outer loop
			vertex -0.10000000149011612 0.3006681501865387 -0.29299458861351013
			vertex -0.15316081047058105 0.3025144934654236 -0.2906605303287506
			vertex -0.10000000149011612 0.30319735407829285 -0.28979727625846863
		endloop
	endfacet
	facet normal 0.0006167397593526654 0.7910704465965555 -0.6117247486848933
		outer loop
			vertex -0.10000000149011612 0.2971685826778412 -0.29752016067504883
			vertex -0.15316081047058105 0.3025144934654236 -0.2906605303287506
			vertex -0.10000000149011612 0.3006681501865387 -0.29299458861351013
		endloop
	endfacet
	facet normal 1 0 0
		outer loop
			vertex -0.10000000149011612 0.2806917130947113 -0.3184969425201416
			vertex -0.10000000149011612 0.28076642751693726 -0.31853142380714417
			vertex -0.10000000149011612 0.2971685826778412 -0.29752016067504883
		endloop
	endfacet
	facet normal 1 0 0
		outer loop
			vertex -0.10000000149011612 0.2806917130947113 -0.3184969425201416
			vertex -0.10000000149011612 0.2971685826778412 -0.29752016067504883
			vertex -0.10000000149011612 0.3006681501865387 -0.29299458861351013
		endloop
	endfacet
	facet normal 1 0 0
		outer loop
			vertex -0.10000000149011612 0.2806917130947113 -0.3184969425201416
			vertex -0.10000000149011612 0.3006681501865387 -0.29299458861351013
			vertex -0.10000000149011612 0.293512761592865 -0.30204007029533386
		endloop
	endfacet
	facet normal 1 0 0
		outer loop
			vertex -0.10000000149011612 0.28076642751693726 -0.31853142380714417
			vertex -0.10000000149011612 0.2806917130947113 -0.3184969425201416
			vertex -0.10000000149011612 0.28019997477531433 -0.319128155708313
		endloop
	endfacet
	facet normal 1 0 0
		outer loop
			vertex -0.10000000149011612 0.28076642751693726 -0.31853142380714417
			vertex -0.10000000149011612 0.28019997477531433 -0.319128155708313
			vertex -0.10000000149011612 0.28026697039604187 -0.3191712200641632
		endloop
	endfacet
	facet normal 1 0 0
		outer loop
			vertex -0.10000000149011612 0.30319735407829285 -0.28979727625846863
			vertex -0.10000000149011612 0.3067464232444763 -0.2852509319782257
			vertex -0.10000000149011612 0.3067464232444763 -0.2850536108016968
		endloop
	endfacet
	facet normal 1 0 0
		outer loop
			vertex -0.10000000149011612 0.30319735407829285 -0.28979727625846863
			vertex -0.10000000149011612 0.3067464232444763 -0.2850536108016968
			vertex -0.10000000149011612 0.293512761592865 -0.30204007029533386
		endloop
	endfacet
	facet normal 0.32916746075829034 -0.5106667457430628 -0.7942721558572537
		outer loop
			vertex -0.10000000149011612 0.28019997477531433 -0.319128155708313
			vertex -0.10000000149011612 0.2794778347015381 -0.3186638653278351
			vertex -0.1097247302532196 0.2773573696613312 -0.321330726146698
		endloop
	endfacet
	facet normal 0.3291659259218357 -0.5106553004613574 -0.7942801504020741
		outer loop
			vertex -0.10000000149011612 0.28019997477531433 -0.319128155708313
			vertex -0.1097247302532196 0.2773573696613312 -0.321330726146698
			vertex -0.1105848103761673 0.2779182195663452 -0.32204774022102356
		endloop
	endfacet
	facet normal 1 0 0
		outer loop
			vertex -0.10000000149011612 0.27989462018013 -0.3181290924549103
			vertex -0.10000000149011612 0.2806917130947113 -0.3184969425201416
			vertex -0.10000000149011612 0.3067464232444763 -0.2850536108016968
		endloop
	endfacet
	facet normal 1 0 0
		outer loop
			vertex -0.10000000149011612 0.27989462018013 -0.3181290924549103
			vertex -0.10000000149011612 0.3067464232444763 -0.2850536108016968
			vertex -0.10000000149011612 0.3067464232444763 -0.2836749255657196
		endloop
	endfacet
	facet normal 1 0 0
		outer loop
			vertex -0.10000000149011612 0.2806917130947113 -0.3184969425201416
			vertex -0.10000000149011612 0.27989462018013 -0.3181290924549103
			vertex -0.10000000149011612 0.2794778347015381 -0.3186638653278351
		endloop
	endfacet
	facet normal 1 0 0
		outer loop
			vertex -0.10000000149011612 0.2806917130947113 -0.3184969425201416
			vertex -0.10000000149011612 0.2794778347015381 -0.3186638653278351
			vertex -0.10000000149011612 0.28019997477531433 -0.319128155708313
		endloop
	endfacet
	facet normal 0.3291668590065217 -0.5106506894590955 -0.7942827281810496
		outer loop
			vertex -0.10000000149011612 0.2794778347015381 -0.3186638653278351
			vertex -0.10000000149011612 0.2710162401199341 -0.31322383880615234
			vertex -0.1097247302532196 0.2773573696613312 -0.321330726146698
		endloop
	endfacet
	facet normal 1 0 0
		outer loop
			vertex -0.10000000149011612 0.2804950475692749 -0.26983335614204407
			vertex -0.10000000149011612 0.2695368826389313 -0.31005460023880005
			vertex -0.10000000149011612 0.2710162401199341 -0.31322383880615234
		endloop
	endfacet
	facet normal 1 0 0
		outer loop
			vertex -0.10000000149011612 0.2804950475692749 -0.26983335614204407
			vertex -0.10000000149011612 0.2710162401199341 -0.31322383880615234
			vertex -0.10000000149011612 0.27546945214271545 -0.31608685851097107
		endloop
	endfacet
	facet normal 1 0 0
		outer loop
			vertex -0.10000000149011612 0.2804950475692749 -0.26983335614204407
			vertex -0.10000000149011612 0.27546945214271545 -0.31608685851097107
			vertex -0.10000000149011612 0.27989462018013 -0.3181290924549103
		endloop
	endfacet
	facet normal 1 0 0
		outer loop
			vertex -0.10000000149011612 0.2804950475692749 -0.26983335614204407
			vertex -0.10000000149011612 0.27989462018013 -0.3181290924549103
			vertex -0.10000000149011612 0.30363503098487854 -0.28766724467277527
		endloop
	endfacet
	facet normal 1 0 0
		outer loop
			vertex -0.10000000149011612 0.27989462018013 -0.3181290924549103
			vertex -0.10000000149011612 0.27546945214271545 -0.31608685851097107
			vertex -0.10000000149011612 0.2794778347015381 -0.3186638653278351
		endloop
	endfacet
	facet normal 1 0 0
		outer loop
			vertex -0.10000000149011612 0.28688400983810425 -0.2747572958469391
			vertex -0.10000000149011612 0.30363503098487854 -0.28766724467277527
			vertex -0.10000000149011612 0.3067464232444763 -0.2836749255657196
		endloop
	endfacet
	facet normal 1 0 0
		outer loop
			vertex -0.10000000149011612 0.28688400983810425 -0.2747572958469391
			vertex -0.10000000149011612 0.3067464232444763 -0.2836749255657196
			vertex -0.10000000149011612 0.3067464232444763 -0.2735218107700348
		endloop
	endfacet
	facet normal 1 0 0
		outer loop
			vertex -0.10000000149011612 0.28798460960388184 -0.24234318733215332
			vertex -0.10000000149011612 0.2804950475692749 -0.26983335614204407
			vertex -0.10000000149011612 0.28688400983810425 -0.2747572958469391
		endloop
	endfacet
	facet normal 1 0 0
		outer loop
			vertex -0.10000000149011612 0.28798460960388184 -0.24234318733215332
			vertex -0.10000000149011612 0.28688400983810425 -0.2747572958469391
			vertex -0.10000000149011612 0.3067464232444763 -0.2735218107700348
		endloop
	endfacet
	facet normal 1 0 0
		outer loop
			vertex -0.10000000149011612 0.28798460960388184 -0.24234318733215332
			vertex -0.10000000149011612 0.3067464232444763 -0.2735218107700348
			vertex -0.10000000149011612 0.3067464232444763 -0.2573743462562561
		endloop
	endfacet
	facet normal 1 0 0
		outer loop
			vertex -0.10000000149011612 0.3067464232444763 -0.23619616031646729
			vertex -0.10000000149011612 0.2896593511104584 -0.23619616031646729
			vertex -0.10000000149011612 0.28798460960388184 -0.24234318733215332
		endloop
	endfacet
	facet normal 1 0 0
		outer loop
			vertex -0.10000000149011612 0.3067464232444763 -0.23619616031646729
			vertex -0.10000000149011612 0.28798460960388184 -0.24234318733215332
			vertex -0.10000000149011612 0.3067464232444763 -0.2573743462562561
		endloop
	endfacet
	facet normal 0 1 0
		outer loop
			vertex -0.2777850925922394 0.3067464232444763 -0.23619616031646729
			vertex -0.27698102593421936 0.3067464232444763 -0.2504182755947113
			vertex -0.2836832106113434 0.3067464232444763 -0.26110485196113586
		endloop
	endfacet
	facet normal 0 1 0
		outer loop
			vertex -0.2777850925922394 0.3067464232444763 -0.23619616031646729
			vertex -0.2836832106113434 0.3067464232444763 -0.26110485196113586
			vertex -0.2926100492477417 0.3067464232444763 -0.23619616031646729
		endloop
	endfacet
	facet normal 0 1 0
		outer loop
			vertex -0.26806148886680603 0.3067464232444763 -0.23619616031646729
			vertex -0.27698102593421936 0.3067464232444763 -0.2504182755947113
			vertex -0.2777850925922394 0.3067464232444763 -0.23619616031646729
		endloop
	endfacet
	facet normal 0 1 0
		outer loop
			vertex -0.29999998211860657 0.3067464232444763 -0.24350537359714508
			vertex -0.2947215139865875 0.3067464232444763 -0.23619616031646729
			vertex -0.2926100492477417 0.3067464232444763 -0.23619616031646729
		endloop
	endfacet
	facet normal 0 1 0
		outer loop
			vertex -0.29999998211860657 0.3067464232444763 -0.24350537359714508
			vertex -0.2926100492477417 0.3067464232444763 -0.23619616031646729
			vertex -0.2836832106113434 0.3067464232444763 -0.26110485196113586
		endloop
	endfacet
	facet normal 0 1 0
		outer loop
			vertex -0.29999998211860657 0.3067464232444763 -0.24350537359714508
			vertex -0.2836832106113434 0.3067464232444763 -0.26110485196113586
			vertex -0.29189637303352356 0.3067464232444763 -0.2742006182670593
		endloop
	endfacet
	facet normal 0 1 0
		outer loop
			vertex -0.29999998211860657 0.3067464232444763 -0.24350537359714508
			vertex -0.29189637303352356 0.3067464232444763 -0.2742006182670593
			vertex -0.29999998211860657 0.3067464232444763 -0.27034059166908264
		endloop
	endfacet
	facet normal -1 0 0
		outer loop
			vertex -0.29999998211860657 0.2922951281070709 -0.30384182929992676
			vertex -0.29999998211860657 0.2922915518283844 -0.30383720993995667
			vertex -0.29999998211860657 0.2927020788192749 -0.30330950021743774
		endloop
	endfacet
	facet normal -1 0 0
		outer loop
			vertex -0.29999998211860657 0.2922951281070709 -0.30384182929992676
			vertex -0.29999998211860657 0.2927020788192749 -0.30330950021743774
			vertex -0.29999998211860657 0.2927103638648987 -0.30331936478614807
		endloop
	endfacet
	facet normal -1 0 0
		outer loop
			vertex -0.29999998211860657 0.2922951281070709 -0.30384182929992676
			vertex -0.29999998211860657 0.2927103638648987 -0.30331936478614807
			vertex -0.29999998211860657 0.2923685908317566 -0.30375730991363525
		endloop
	endfacet
	facet normal -1 0 0
		outer loop
			vertex -0.29999998211860657 0.2994002401828766 -0.2946992516517639
			vertex -0.29999998211860657 0.29942587018013 -0.29471367597579956
			vertex -0.29999998211860657 0.2927103638648987 -0.30331936478614807
		endloop
	endfacet
	facet normal -1 0 0
		outer loop
			vertex -0.29999998211860657 0.2994002401828766 -0.2946992516517639
			vertex -0.29999998211860657 0.2927103638648987 -0.30331936478614807
			vertex -0.29999998211860657 0.2927020788192749 -0.30330950021743774
		endloop
	endfacet
	facet normal -1 0 0
		outer loop
			vertex -0.29999998211860657 0.2707441747188568 -0.2785780727863312
			vertex -0.29999998211860657 0.27305740118026733 -0.2798794209957123
			vertex -0.29999998211860657 0.28201648592948914 -0.2905648648738861
		endloop
	endfacet
	facet normal -1 0 0
		outer loop
			vertex -0.29999998211860657 0.28257235884666443 -0.2912278473377228
			vertex -0.29999998211860657 0.2927020788192749 -0.30330950021743774
			vertex -0.29999998211860657 0.2922915518283844 -0.30383720993995667
		endloop
	endfacet
	facet normal -1 0 0
		outer loop
			vertex -0.29999998211860657 0.27305740118026733 -0.2798794209957123
			vertex -0.29999998211860657 0.2994002401828766 -0.2946992516517639
			vertex -0.29999998211860657 0.2927020788192749 -0.30330950021743774
		endloop
	endfacet
	facet normal -1 0 0
		outer loop
			vertex -0.29999998211860657 0.29942587018013 -0.29471367597579956
			vertex -0.29999998211860657 0.2994002401828766 -0.2946992516517639
			vertex -0.29999998211860657 0.3043142855167389 -0.2883824110031128
		endloop
	endfacet
	facet normal -1 0 0
		outer loop
			vertex -0.29999998211860657 0.29942587018013 -0.29471367597579956
			vertex -0.29999998211860657 0.3043142855167389 -0.2883824110031128
			vertex -0.29999998211860657 0.3043467700481415 -0.28840768337249756
		endloop
	endfacet
	facet normal -1 0 0
		outer loop
			vertex -0.29999998211860657 0.2994002401828766 -0.2946992516517639
			vertex -0.29999998211860657 0.2707441747188568 -0.2785780727863312
			vertex -0.29999998211860657 0.2645052373409271 -0.2719436585903168
		endloop
	endfacet
	facet normal -1 0 0
		outer loop
			vertex -0.29999998211860657 0.2994002401828766 -0.2946992516517639
			vertex -0.29999998211860657 0.2645052373409271 -0.2719436585903168
			vertex -0.29999998211860657 0.28234803676605225 -0.27126652002334595
		endloop
	endfacet
	facet normal -1 0 0
		outer loop
			vertex -0.29999998211860657 0.2994002401828766 -0.2946992516517639
			vertex -0.29999998211860657 0.28234803676605225 -0.27126652002334595
			vertex -0.29999998211860657 0.2960996925830841 -0.2819816470146179
		endloop
	endfacet
	facet normal -1 0 0
		outer loop
			vertex -0.29999998211860657 0.2994002401828766 -0.2946992516517639
			vertex -0.29999998211860657 0.2960996925830841 -0.2819816470146179
			vertex -0.29999998211860657 0.3025028705596924 -0.2907109558582306
		endloop
	endfacet
	facet normal -1 0 0
		outer loop
			vertex -0.29999998211860657 0.2960996925830841 -0.2819816470146179
			vertex -0.29999998211860657 0.3043142855167389 -0.2883824110031128
			vertex -0.29999998211860657 0.3025028705596924 -0.2907109558582306
		endloop
	endfacet
	facet normal -1 0 0
		outer loop
			vertex -0.29999998211860657 0.30682429671287537 -0.2852352261543274
			vertex -0.29999998211860657 0.3043467700481415 -0.28840768337249756
			vertex -0.29999998211860657 0.3043142855167389 -0.2883824110031128
		endloop
	endfacet
	facet normal -1 0 0
		outer loop
			vertex -0.29999998211860657 0.30682429671287537 -0.2852352261543274
			vertex -0.29999998211860657 0.3043142855167389 -0.2883824110031128
			vertex -0.29999998211860657 0.30682373046875 -0.28515660762786865
		endloop
	endfacet
	facet normal -1 0 0
		outer loop
			vertex -0.29999998211860657 0.3067464232444763 -0.2742331624031067
			vertex -0.29999998211860657 0.3067188560962677 -0.2703416347503662
			vertex -0.29999998211860657 0.3067464232444763 -0.27034059166908264
		endloop
	endfacet
	facet normal -1 0 0
		outer loop
			vertex -0.29999998211860657 0.30682373046875 -0.28515660762786865
			vertex -0.29999998211860657 0.3043142855167389 -0.2883824110031128
			vertex -0.29999998211860657 0.28234803676605225 -0.27126652002334595
		endloop
	endfacet
	facet normal -1 0 0
		outer loop
			vertex -0.29999998211860657 0.30682373046875 -0.28515660762786865
			vertex -0.29999998211860657 0.28234803676605225 -0.27126652002334595
			vertex -0.29999998211860657 0.3067188560962677 -0.2703416347503662
		endloop
	endfacet
	facet normal -1 0 0
		outer loop
			vertex -0.29999998211860657 0.23088856041431427 -0.23619616031646729
			vertex -0.29999998211860657 0.23504123091697693 -0.23619616031646729
			vertex -0.29999998211860657 0.25025519728660583 -0.2567903697490692
		endloop
	endfacet
	facet normal -1 0 0
		outer loop
			vertex -0.29999998211860657 0.25394728779792786 -0.2607164978981018
			vertex -0.29999998211860657 0.27378541231155396 -0.25156113505363464
			vertex -0.29999998211860657 0.28808027505874634 -0.27104896306991577
		endloop
	endfacet
	facet normal -1 0 0
		outer loop
			vertex -0.29999998211860657 0.25394728779792786 -0.2607164978981018
			vertex -0.29999998211860657 0.28808027505874634 -0.27104896306991577
			vertex -0.29999998211860657 0.2645052373409271 -0.2719436585903168
		endloop
	endfacet
	facet normal -1 0 0
		outer loop
			vertex -0.29999998211860657 0.23504123091697693 -0.23619616031646729
			vertex -0.29999998211860657 0.26251479983329773 -0.23619616031646729
			vertex -0.29999998211860657 0.27378541231155396 -0.25156113505363464
		endloop
	endfacet
	facet normal -1 0 0
		outer loop
			vertex -0.29999998211860657 0.23504123091697693 -0.23619616031646729
			vertex -0.29999998211860657 0.27378541231155396 -0.25156113505363464
			vertex -0.29999998211860657 0.25394728779792786 -0.2607164978981018
		endloop
	endfacet
	facet normal -1 0 0
		outer loop
			vertex -0.29999998211860657 0.23504123091697693 -0.23619616031646729
			vertex -0.29999998211860657 0.25394728779792786 -0.2607164978981018
			vertex -0.29999998211860657 0.25025519728660583 -0.2567903697490692
		endloop
	endfacet
	facet normal -1 0 0
		outer loop
			vertex -0.29999998211860657 0.27378541231155396 -0.25156113505363464
			vertex -0.29999998211860657 0.29109060764312744 -0.24357473850250244
			vertex -0.29999998211860657 0.30363962054252625 -0.27045848965644836
		endloop
	endfacet
	facet normal -1 0 0
		outer loop
			vertex -0.29999998211860657 0.27378541231155396 -0.25156113505363464
			vertex -0.29999998211860657 0.30363962054252625 -0.27045848965644836
			vertex -0.29999998211860657 0.28808027505874634 -0.27104896306991577
		endloop
	endfacet
	facet normal -1 0 0
		outer loop
			vertex -0.29999998211860657 0.26251479983329773 -0.23619616031646729
			vertex -0.29999998211860657 0.2876463830471039 -0.23619616031646729
			vertex -0.29999998211860657 0.29109060764312744 -0.24357473850250244
		endloop
	endfacet
	facet normal -1 0 0
		outer loop
			vertex -0.29999998211860657 0.26251479983329773 -0.23619616031646729
			vertex -0.29999998211860657 0.29109060764312744 -0.24357473850250244
			vertex -0.29999998211860657 0.27378541231155396 -0.25156113505363464
		endloop
	endfacet
	facet normal -1 0 0
		outer loop
			vertex -0.29999998211860657 0.29109060764312744 -0.24357473850250244
			vertex -0.29999998211860657 0.3067464232444763 -0.23634955286979675
			vertex -0.29999998211860657 0.3067464232444763 -0.24350537359714508
		endloop
	endfacet
	facet normal -1 0 0
		outer loop
			vertex -0.29999998211860657 0.29109060764312744 -0.24357473850250244
			vertex -0.29999998211860657 0.3067464232444763 -0.24350537359714508
			vertex -0.29999998211860657 0.291483074426651 -0.2444154918193817
		endloop
	endfacet
	facet normal -1 0 0
		outer loop
			vertex -0.29999998211860657 0.2876463830471039 -0.23619616031646729
			vertex -0.29999998211860657 0.3067464232444763 -0.23619616031646729
			vertex -0.29999998211860657 0.3067464232444763 -0.23634955286979675
		endloop
	endfacet
	facet normal -1 0 0
		outer loop
			vertex -0.29999998211860657 0.2876463830471039 -0.23619616031646729
			vertex -0.29999998211860657 0.3067464232444763 -0.23634955286979675
			vertex -0.29999998211860657 0.29109060764312744 -0.24357473850250244
		endloop
	endfacet
	facet normal -1 0 0
		outer loop
			vertex -0.29999998211860657 0.3067464232444763 -0.27034059166908264
			vertex -0.29999998211860657 0.30363962054252625 -0.27045848965644836
			vertex -0.29999998211860657 0.291483074426651 -0.2444154918193817
		endloop
	endfacet
	facet normal -1 0 0
		outer loop
			vertex -0.29999998211860657 0.3067464232444763 -0.27034059166908264
			vertex -0.29999998211860657 0.291483074426651 -0.2444154918193817
			vertex -0.29999998211860657 0.3067464232444763 -0.24350537359714508
		endloop
	endfacet
	facet normal 0 0 1
		outer loop
			vertex -0.113557830452919 0.1781720221042633 -0.23619616031646729
			vertex -0.11384537070989609 0.1783021092414856 -0.23619616031646729
			vertex -0.12109070271253586 0.17991112172603607 -0.23619616031646729
		endloop
	endfacet
	facet normal 0 0 1
		outer loop
			vertex -0.11384537070989609 0.1783021092414856 -0.23619616031646729
			vertex -0.1279040277004242 0.18466195464134216 -0.23619616031646729
			vertex -0.13337747752666473 0.1826397031545639 -0.23619616031646729
		endloop
	endfacet
	facet normal 0 0 1
		outer loop
			vertex -0.1279040277004242 0.18466195464134216 -0.23619616031646729
			vertex -0.13277171552181244 0.18686401844024658 -0.23619616031646729
			vertex -0.14401474595069885 0.18500198423862457 -0.23619616031646729
		endloop
	endfacet
	facet normal 0 0 1
		outer loop
			vertex -0.1279040277004242 0.18466195464134216 -0.23619616031646729
			vertex -0.14401474595069885 0.18500198423862457 -0.23619616031646729
			vertex -0.13337747752666473 0.1826397031545639 -0.23619616031646729
		endloop
	endfacet
	facet normal 0 0 1
		outer loop
			vertex -0.29999998211860657 0.23504123091697693 -0.23619616031646729
			vertex -0.29999998211860657 0.23088856041431427 -0.23619616031646729
			vertex -0.2643274962902069 0.21889616549015045 -0.23619616031646729
		endloop
	endfacet
	facet normal 0 0 1
		outer loop
			vertex -0.29999998211860657 0.23504123091697693 -0.23619616031646729
			vertex -0.2643274962902069 0.21889616549015045 -0.23619616031646729
			vertex -0.20479154586791992 0.199814572930336 -0.23619616031646729
		endloop
	endfacet
	facet normal 0 0 1
		outer loop
			vertex -0.29999998211860657 0.23504123091697693 -0.23619616031646729
			vertex -0.20479154586791992 0.199814572930336 -0.23619616031646729
			vertex -0.1914920061826706 0.21342793107032776 -0.23619616031646729
		endloop
	endfacet
	facet normal 0 0 1
		outer loop
			vertex -0.29999998211860657 0.23504123091697693 -0.23619616031646729
			vertex -0.1914920061826706 0.21342793107032776 -0.23619616031646729
			vertex -0.20249617099761963 0.21840599179267883 -0.23619616031646729
		endloop
	endfacet
	facet normal 0 0 1
		outer loop
			vertex -0.13277171552181244 0.18686401844024658 -0.23619616031646729
			vertex -0.1914920061826706 0.21342793107032776 -0.23619616031646729
			vertex -0.20479154586791992 0.199814572930336 -0.23619616031646729
		endloop
	endfacet
	facet normal 0 0 1
		outer loop
			vertex -0.13277171552181244 0.18686401844024658 -0.23619616031646729
			vertex -0.20479154586791992 0.199814572930336 -0.23619616031646729
			vertex -0.1914261281490326 0.19553087651729584 -0.23619616031646729
		endloop
	endfacet
	facet normal 0 0 1
		outer loop
			vertex -0.13277171552181244 0.18686401844024658 -0.23619616031646729
			vertex -0.1914261281490326 0.19553087651729584 -0.23619616031646729
			vertex -0.14401474595069885 0.18500198423862457 -0.23619616031646729
		endloop
	endfacet
	facet normal 0 0 1
		outer loop
			vertex -0.29999998211860657 0.26251479983329773 -0.23619616031646729
			vertex -0.29999998211860657 0.23504123091697693 -0.23619616031646729
			vertex -0.20249617099761963 0.21840599179267883 -0.23619616031646729
		endloop
	endfacet
	facet normal 0 0 1
		outer loop
			vertex -0.12329676747322083 0.18636418879032135 -0.23619616031646729
			vertex -0.1279040277004242 0.18466195464134216 -0.23619616031646729
			vertex -0.113557830452919 0.1781720221042633 -0.23619616031646729
		endloop
	endfacet
	facet normal 0 0 1
		outer loop
			vertex -0.12329676747322083 0.18636418879032135 -0.23619616031646729
			vertex -0.113557830452919 0.1781720221042633 -0.23619616031646729
			vertex -0.10523425787687302 0.1762503981590271 -0.23619616031646729
		endloop
	endfacet
	facet normal 0 0 1
		outer loop
			vertex -0.11314707249403 0.19011417031288147 -0.23619616031646729
			vertex -0.12980860471725464 0.18735474348068237 -0.23619616031646729
			vertex -0.12962083518505096 0.1854386180639267 -0.23619616031646729
		endloop
	endfacet
	facet normal 0 0 1
		outer loop
			vertex -0.11314707249403 0.19011417031288147 -0.23619616031646729
			vertex -0.12962083518505096 0.1854386180639267 -0.23619616031646729
			vertex -0.1279040277004242 0.18466195464134216 -0.23619616031646729
		endloop
	endfacet
	facet normal 0 0 1
		outer loop
			vertex -0.10000000149011612 0.19229155778884888 -0.23619616031646729
			vertex -0.10000000149011612 0.19862905144691467 -0.23619616031646729
			vertex -0.13091087341308594 0.19860339164733887 -0.23619616031646729
		endloop
	endfacet
	facet normal 0 0 1
		outer loop
			vertex -0.10000000149011612 0.19229155778884888 -0.23619616031646729
			vertex -0.13091087341308594 0.19860339164733887 -0.23619616031646729
			vertex -0.12980860471725464 0.18735474348068237 -0.23619616031646729
		endloop
	endfacet
	facet normal 0 0 1
		outer loop
			vertex -0.13091087341308594 0.19860339164733887 -0.23619616031646729
			vertex -0.14513397216796875 0.19859157502651215 -0.23619616031646729
			vertex -0.13008393347263336 0.19016456604003906 -0.23619616031646729
		endloop
	endfacet
	facet normal 0 0 1
		outer loop
			vertex -0.14513397216796875 0.19859157502651215 -0.23619616031646729
			vertex -0.15867096185684204 0.1985803246498108 -0.23619616031646729
			vertex -0.12962083518505096 0.1854386180639267 -0.23619616031646729
		endloop
	endfacet
	facet normal 0 0 1
		outer loop
			vertex -0.14513397216796875 0.19859157502651215 -0.23619616031646729
			vertex -0.12962083518505096 0.1854386180639267 -0.23619616031646729
			vertex -0.13008393347263336 0.19016456604003906 -0.23619616031646729
		endloop
	endfacet
	facet normal 0 0 1
		outer loop
			vertex -0.10000000149011612 0.19862905144691467 -0.23619616031646729
			vertex -0.10000000149011612 0.2350606620311737 -0.23619616031646729
			vertex -0.13539530336856842 0.2443671077489853 -0.23619616031646729
		endloop
	endfacet
	facet normal 0 0 1
		outer loop
			vertex -0.10000000149011612 0.19862905144691467 -0.23619616031646729
			vertex -0.13539530336856842 0.2443671077489853 -0.23619616031646729
			vertex -0.13091087341308594 0.19860339164733887 -0.23619616031646729
		endloop
	endfacet
	facet normal 0 0 1
		outer loop
			vertex -0.29999998211860657 0.2876463830471039 -0.23619616031646729
			vertex -0.29999998211860657 0.26251479983329773 -0.23619616031646729
			vertex -0.1914920061826706 0.21342793107032776 -0.23619616031646729
		endloop
	endfacet
	facet normal 0 0 1
		outer loop
			vertex -0.29999998211860657 0.2876463830471039 -0.23619616031646729
			vertex -0.1914920061826706 0.21342793107032776 -0.23619616031646729
			vertex -0.15597879886627197 0.2497790902853012 -0.23619616031646729
		endloop
	endfacet
	facet normal 0 0 1
		outer loop
			vertex -0.13539530336856842 0.2443671077489853 -0.23619616031646729
			vertex -0.15597879886627197 0.2497790902853012 -0.23619616031646729
			vertex -0.1914920061826706 0.21342793107032776 -0.23619616031646729
		endloop
	endfacet
	facet normal 0 0 1
		outer loop
			vertex -0.13539530336856842 0.2443671077489853 -0.23619616031646729
			vertex -0.1914920061826706 0.21342793107032776 -0.23619616031646729
			vertex -0.15867096185684204 0.1985803246498108 -0.23619616031646729
		endloop
	endfacet
	facet normal 0 0 1
		outer loop
			vertex -0.13539530336856842 0.2443671077489853 -0.23619616031646729
			vertex -0.15867096185684204 0.1985803246498108 -0.23619616031646729
			vertex -0.13091087341308594 0.19860339164733887 -0.23619616031646729
		endloop
	endfacet
	facet normal 0 0 1
		outer loop
			vertex -0.29999998211860657 0.3067464232444763 -0.23619616031646729
			vertex -0.29999998211860657 0.2876463830471039 -0.23619616031646729
			vertex -0.29382917284965515 0.28602391481399536 -0.23619616031646729
		endloop
	endfacet
	facet normal 0 0 1
		outer loop
			vertex -0.29999998211860657 0.3067464232444763 -0.23619616031646729
			vertex -0.29382917284965515 0.28602391481399536 -0.23619616031646729
			vertex -0.2947215139865875 0.3067464232444763 -0.23619616031646729
		endloop
	endfacet
	facet normal 0 0 1
		outer loop
			vertex -0.26782330870628357 0.2791862189769745 -0.23619616031646729
			vertex -0.15597879886627197 0.2497790902853012 -0.23619616031646729
			vertex -0.1345009058713913 0.27176377177238464 -0.23619616031646729
		endloop
	endfacet
	facet normal 0 0 1
		outer loop
			vertex -0.26782330870628357 0.2791862189769745 -0.23619616031646729
			vertex -0.1345009058713913 0.27176377177238464 -0.23619616031646729
			vertex -0.26788800954818726 0.28667253255844116 -0.23619616031646729
		endloop
	endfacet
	facet normal 0 0 1
		outer loop
			vertex -0.10000000149011612 0.2350606620311737 -0.23619616031646729
			vertex -0.10000000149011612 0.26790758967399597 -0.23619616031646729
			vertex -0.1345009058713913 0.27176377177238464 -0.23619616031646729
		endloop
	endfacet
	facet normal 0 0 1
		outer loop
			vertex -0.10000000149011612 0.2350606620311737 -0.23619616031646729
			vertex -0.1345009058713913 0.27176377177238464 -0.23619616031646729
			vertex -0.15597879886627197 0.2497790902853012 -0.23619616031646729
		endloop
	endfacet
	facet normal 0 0 1
		outer loop
			vertex -0.1345009058713913 0.27176377177238464 -0.23619616031646729
			vertex -0.11413103342056274 0.29261428117752075 -0.23619616031646729
			vertex -0.18171340227127075 0.3067464232444763 -0.23619616031646729
		endloop
	endfacet
	facet normal 0 0 1
		outer loop
			vertex -0.1345009058713913 0.27176377177238464 -0.23619616031646729
			vertex -0.18171340227127075 0.3067464232444763 -0.23619616031646729
			vertex -0.26806148886680603 0.3067464232444763 -0.23619616031646729
		endloop
	endfacet
	facet normal 0 0 1
		outer loop
			vertex -0.1345009058713913 0.27176377177238464 -0.23619616031646729
			vertex -0.26806148886680603 0.3067464232444763 -0.23619616031646729
			vertex -0.26788800954818726 0.28667253255844116 -0.23619616031646729
		endloop
	endfacet
	facet normal 0 0 1
		outer loop
			vertex -0.10000000149011612 0.26790758967399597 -0.23619616031646729
			vertex -0.10000000149011612 0.2896593511104584 -0.23619616031646729
			vertex -0.11413103342056274 0.29261428117752075 -0.23619616031646729
		endloop
	endfacet
	facet normal 0 0 1
		outer loop
			vertex -0.10000000149011612 0.26790758967399597 -0.23619616031646729
			vertex -0.11413103342056274 0.29261428117752075 -0.23619616031646729
			vertex -0.1345009058713913 0.27176377177238464 -0.23619616031646729
		endloop
	endfacet
	facet normal 0 0 1
		outer loop
			vertex -0.1382983773946762 0.3067464232444763 -0.23619616031646729
			vertex -0.18171340227127075 0.3067464232444763 -0.23619616031646729
			vertex -0.11942864954471588 0.2937220633029938 -0.23619616031646729
		endloop
	endfacet
	facet normal 0 0 1
		outer loop
			vertex -0.11413103342056274 0.29261428117752075 -0.23619616031646729
			vertex -0.10032469034194946 0.3067464232444763 -0.23619616031646729
			vertex -0.1382983773946762 0.3067464232444763 -0.23619616031646729
		endloop
	endfacet
	facet normal 0 0 1
		outer loop
			vertex -0.11413103342056274 0.29261428117752075 -0.23619616031646729
			vertex -0.1382983773946762 0.3067464232444763 -0.23619616031646729
			vertex -0.11942864954471588 0.2937220633029938 -0.23619616031646729
		endloop
	endfacet
	facet normal 0 0 1
		outer loop
			vertex -0.10000000149011612 0.2896593511104584 -0.23619616031646729
			vertex -0.10000000149011612 0.3067464232444763 -0.23619616031646729
			vertex -0.10032469034194946 0.3067464232444763 -0.23619616031646729
		endloop
	endfacet
	facet normal 0 0 1
		outer loop
			vertex -0.10000000149011612 0.2896593511104584 -0.23619616031646729
			vertex -0.10032469034194946 0.3067464232444763 -0.23619616031646729
			vertex -0.11413103342056274 0.29261428117752075 -0.23619616031646729
		endloop
	endfacet
	facet normal 0 0 1
		outer loop
			vertex -0.29382917284965515 0.28602391481399536 -0.23619616031646729
			vertex -0.26782330870628357 0.2791862189769745 -0.23619616031646729
			vertex -0.26806148886680603 0.3067464232444763 -0.23619616031646729
		endloop
	endfacet
	facet normal 0 0 1
		outer loop
			vertex -0.29382917284965515 0.28602391481399536 -0.23619616031646729
			vertex -0.26806148886680603 0.3067464232444763 -0.23619616031646729
			vertex -0.2947215139865875 0.3067464232444763 -0.23619616031646729
		endloop
	endfacet
endsolid exported
