solid exported
	facet normal 0 0 1
		outer loop
			vertex -0.04571109637618065 -0.06760416179895401 0.0714285746216774
			vertex -0.065972700715065 -0.05824841186404228 0.0714285746216774
			vertex -0.065972700715065 -0.06084555760025978 0.0714285746216774
		endloop
	endfacet
	facet normal 0 0 1
		outer loop
			vertex -0.04571109637618065 -0.06760416179895401 0.0714285746216774
			vertex -0.065972700715065 -0.06084555760025978 0.0714285746216774
			vertex -0.0486891083419323 -0.06986916065216064 0.0714285746216774
		endloop
	endfacet
	facet normal 0 0 1
		outer loop
			vertex -0.065972700715065 -0.05631844326853752 0.0714285746216774
			vertex -0.065972700715065 -0.056798119097948074 0.0714285746216774
			vertex -0.04571109637618065 -0.06760416179895401 0.0714285746216774
		endloop
	endfacet
	facet normal 0 0 1
		outer loop
			vertex -0.065972700715065 -0.05540207400918007 0.0714285746216774
			vertex -0.04571109637618065 -0.06760416179895401 0.0714285746216774
			vertex -0.065972700715065 0.0036372372414916754 0.0714285746216774
		endloop
	endfacet
	facet normal 0 0 1
		outer loop
			vertex -0.065972700715065 -0.05631844326853752 0.0714285746216774
			vertex -0.04571109637618065 -0.06760416179895401 0.0714285746216774
			vertex -0.065972700715065 -0.05540207400918007 0.0714285746216774
		endloop
	endfacet
	facet normal 0 0 1
		outer loop
			vertex -0.04571109637618065 -0.06760416179895401 0.0714285746216774
			vertex -0.03910910710692406 0.00815783254802227 0.0714285746216774
			vertex -0.06118009611964226 0.012591851875185966 0.0714285746216774
		endloop
	endfacet
	facet normal 0 0 1
		outer loop
			vertex -0.042986106127500534 -0.06699816137552261 0.0714285746216774
			vertex -0.04080910608172417 -0.06699816137552261 0.0714285746216774
			vertex -0.03910910710692406 0.00815783254802227 0.0714285746216774
		endloop
	endfacet
	facet normal 0 0 1
		outer loop
			vertex -0.01464856881648302 -0.06993483006954193 0.0714285746216774
			vertex 0.03339989110827446 -0.05966416373848915 0.0714285746216774
			vertex -0.03340482339262962 -0.06993483006954193 0.0714285746216774
		endloop
	endfacet
	facet normal 0 0 1
		outer loop
			vertex 0.025382885709404945 -0.04354117438197136 0.0714285746216774
			vertex -0.03358554467558861 -0.06993483006954193 0.0714285746216774
			vertex -0.03354303166270256 -0.06993483006954193 0.0714285746216774
		endloop
	endfacet
	facet normal 0 0 1
		outer loop
			vertex 0.025382885709404945 -0.04354117438197136 0.0714285746216774
			vertex -0.03354303166270256 -0.06993483006954193 0.0714285746216774
			vertex 0.029102900996804237 -0.05059216544032097 0.0714285746216774
		endloop
	endfacet
	facet normal 0 0 1
		outer loop
			vertex -0.012283113785088062 -0.004381152335554361 0.0714285746216774
			vertex -0.036990102380514145 -0.0677211582660675 0.0714285746216774
			vertex 0.010821896605193615 -0.024225162342190742 0.0714285746216774
		endloop
	endfacet
	facet normal 0 0 1
		outer loop
			vertex -0.04080910608172417 -0.06699816137552261 0.0714285746216774
			vertex -0.036990102380514145 -0.0677211582660675 0.0714285746216774
			vertex -0.012283113785088062 -0.004381152335554361 0.0714285746216774
		endloop
	endfacet
	facet normal 0 0 1
		outer loop
			vertex -0.033875104039907455 -0.06964515894651413 0.0714285746216774
			vertex 0.025382885709404945 -0.04354117438197136 0.0714285746216774
			vertex 0.010821896605193615 -0.024225162342190742 0.0714285746216774
		endloop
	endfacet
	facet normal 0 0 1
		outer loop
			vertex -0.036990102380514145 -0.0677211582660675 0.0714285746216774
			vertex -0.034148093312978745 -0.06924416124820709 0.0714285746216774
			vertex 0.010821896605193615 -0.024225162342190742 0.0714285746216774
		endloop
	endfacet
	facet normal 0 0 1
		outer loop
			vertex 0.03782198205590248 -0.06993483006954193 0.0714285746216774
			vertex 0.03339989110827446 -0.05966416373848915 0.0714285746216774
			vertex -0.01464856881648302 -0.06993483006954193 0.0714285746216774
		endloop
	endfacet
	facet normal 0 0 1
		outer loop
			vertex -0.03340482339262962 -0.06993483006954193 0.0714285746216774
			vertex 0.03339989110827446 -0.05966416373848915 0.0714285746216774
			vertex 0.03024590201675892 -0.05281916633248329 0.0714285746216774
		endloop
	endfacet
	facet normal 0 0 1
		outer loop
			vertex -0.03340482339262962 -0.06993483006954193 0.0714285746216774
			vertex 0.03024590201675892 -0.05281916633248329 0.0714285746216774
			vertex -0.03352242335677147 -0.06993483006954193 0.0714285746216774
		endloop
	endfacet
	facet normal 0 0 1
		outer loop
			vertex -0.03352242335677147 -0.06993483006954193 0.0714285746216774
			vertex 0.03024590201675892 -0.05281916633248329 0.0714285746216774
			vertex 0.029102900996804237 -0.05059216544032097 0.0714285746216774
		endloop
	endfacet
	facet normal 0 0 1
		outer loop
			vertex -0.03352242335677147 -0.06993483006954193 0.0714285746216774
			vertex 0.029102900996804237 -0.05059216544032097 0.0714285746216774
			vertex -0.03354303166270256 -0.06993483006954193 0.0714285746216774
		endloop
	endfacet
	facet normal 0 0 1
		outer loop
			vertex -0.033875104039907455 -0.06964515894651413 0.0714285746216774
			vertex -0.0337049625813961 -0.06993483006954193 0.0714285746216774
			vertex -0.03358554467558861 -0.06993483006954193 0.0714285746216774
		endloop
	endfacet
	facet normal 0 0 1
		outer loop
			vertex -0.033875104039907455 -0.06964515894651413 0.0714285746216774
			vertex -0.03358554467558861 -0.06993483006954193 0.0714285746216774
			vertex 0.025382885709404945 -0.04354117438197136 0.0714285746216774
		endloop
	endfacet
	facet normal 0 0 1
		outer loop
			vertex -0.034148093312978745 -0.06924416124820709 0.0714285746216774
			vertex -0.033875104039907455 -0.06964515894651413 0.0714285746216774
			vertex 0.010821896605193615 -0.024225162342190742 0.0714285746216774
		endloop
	endfacet
	facet normal 0 0 1
		outer loop
			vertex -0.04080910608172417 -0.06699816137552261 0.0714285746216774
			vertex -0.012283113785088062 -0.004381152335554361 0.0714285746216774
			vertex -0.03910910710692406 0.00815783254802227 0.0714285746216774
		endloop
	endfacet
	facet normal 0 0 1
		outer loop
			vertex -0.042986106127500534 -0.06699816137552261 0.0714285746216774
			vertex -0.03910910710692406 0.00815783254802227 0.0714285746216774
			vertex -0.04571109637618065 -0.06760416179895401 0.0714285746216774
		endloop
	endfacet
	facet normal 0 0 1
		outer loop
			vertex -0.065972700715065 0.0036372372414916754 0.0714285746216774
			vertex -0.04571109637618065 -0.06760416179895401 0.0714285746216774
			vertex -0.06118009611964226 0.012591851875185966 0.0714285746216774
		endloop
	endfacet
	facet normal 0 0 1
		outer loop
			vertex -0.065972700715065 0.0036372372414916754 0.0714285746216774
			vertex -0.06118009611964226 0.012591851875185966 0.0714285746216774
			vertex -0.065972700715065 0.012623129412531853 0.0714285746216774
		endloop
	endfacet
	facet normal 0 0 1
		outer loop
			vertex -0.065972700715065 -0.056798119097948074 0.0714285746216774
			vertex -0.065972700715065 -0.05824841186404228 0.0714285746216774
			vertex -0.04571109637618065 -0.06760416179895401 0.0714285746216774
		endloop
	endfacet
	facet normal 0 0 1
		outer loop
			vertex -0.065972700715065 -0.06084555760025978 0.0714285746216774
			vertex -0.065972700715065 -0.06235325708985329 0.0714285746216774
			vertex -0.0486891083419323 -0.06986916065216064 0.0714285746216774
		endloop
	endfacet
	facet normal 0 0 1
		outer loop
			vertex -0.065972700715065 -0.06235325708985329 0.0714285746216774
			vertex -0.065972700715065 -0.06377178430557251 0.0714285746216774
			vertex -0.0486891083419323 -0.06986916065216064 0.0714285746216774
		endloop
	endfacet
	facet normal 0 0 1
		outer loop
			vertex -0.065972700715065 -0.06377178430557251 0.0714285746216774
			vertex -0.065972700715065 -0.0680377408862114 0.0714285746216774
			vertex -0.0617561899125576 -0.06993483006954193 0.0714285746216774
		endloop
	endfacet
	facet normal 0 0 1
		outer loop
			vertex -0.065972700715065 -0.06377178430557251 0.0714285746216774
			vertex -0.0617561899125576 -0.06993483006954193 0.0714285746216774
			vertex -0.04873177036643028 -0.06993483006954193 0.0714285746216774
		endloop
	endfacet
	facet normal 0 0 1
		outer loop
			vertex -0.065972700715065 -0.06377178430557251 0.0714285746216774
			vertex -0.04873177036643028 -0.06993483006954193 0.0714285746216774
			vertex -0.0486891083419323 -0.06986916065216064 0.0714285746216774
		endloop
	endfacet
	facet normal 0 0 1
		outer loop
			vertex -0.065972700715065 -0.06931694597005844 0.0714285746216774
			vertex -0.06425836682319641 -0.06993483006954193 0.0714285746216774
			vertex -0.0617561899125576 -0.06993483006954193 0.0714285746216774
		endloop
	endfacet
	facet normal 0 0 1
		outer loop
			vertex -0.065972700715065 -0.06931694597005844 0.0714285746216774
			vertex -0.0617561899125576 -0.06993483006954193 0.0714285746216774
			vertex -0.065972700715065 -0.0680377408862114 0.0714285746216774
		endloop
	endfacet
	facet normal 0 0 1
		outer loop
			vertex -0.065972700715065 -0.06993483006954193 0.0714285746216774
			vertex -0.06425836682319641 -0.06993483006954193 0.0714285746216774
			vertex -0.065972700715065 -0.06931694597005844 0.0714285746216774
		endloop
	endfacet
	facet normal 0.9184816407499301 0.3954636210896222 0
		outer loop
			vertex 0.03782198205590248 -0.06993483006954193 -0.0714285597205162
			vertex 0.037677887827157974 -0.0696001648902893 -0.0714285597205162
			vertex 0.03782198205590248 -0.06993483006954193 -0.04255815967917442
		endloop
	endfacet
	facet normal 0.9184840369914186 0.39545805566702125 -7.647409521025039e-8
		outer loop
			vertex 0.03782198205590248 -0.06993483006954193 -0.04255815967917442
			vertex 0.037677887827157974 -0.0696001648902893 -0.0714285597205162
			vertex 0.03339989110827446 -0.05966416373848915 -0.0714285597205162
		endloop
	endfacet
	facet normal 0.9184839589112725 0.395458237014575 0
		outer loop
			vertex 0.03782198205590248 -0.06993483006954193 -0.04255815967917442
			vertex 0.03339989110827446 -0.05966416373848915 -0.0714285597205162
			vertex 0.03339989110827446 -0.05966416373848915 0.0714285746216774
		endloop
	endfacet
	facet normal 0.9184839589112725 0.395458237014575 0
		outer loop
			vertex 0.03782198205590248 -0.06993483006954193 -0.04255815967917442
			vertex 0.03339989110827446 -0.05966416373848915 0.0714285746216774
			vertex 0.03782198205590248 -0.06993483006954193 0.0714285746216774
		endloop
	endfacet
	facet normal 0.9082227052158476 0.41848717749819714 0
		outer loop
			vertex 0.03294931724667549 -0.058686304837465286 -0.0714285597205162
			vertex 0.03339989110827446 -0.05966416373848915 0.0714285746216774
			vertex 0.03339989110827446 -0.05966416373848915 -0.0714285597205162
		endloop
	endfacet
	facet normal 0.9082250452963712 0.4184820988960041 0
		outer loop
			vertex 0.03221319988369942 -0.0570887066423893 -0.0714285597205162
			vertex 0.03221319988369942 -0.0570887066423893 0.0714285746216774
			vertex 0.03339989110827446 -0.05966416373848915 0.0714285746216774
		endloop
	endfacet
	facet normal 0.9082264776062557 0.4184789903626336 -6.79392313382105e-8
		outer loop
			vertex 0.03221319988369942 -0.0570887066423893 -0.0714285597205162
			vertex 0.03339989110827446 -0.05966416373848915 0.0714285746216774
			vertex 0.03294931724667549 -0.058686304837465286 -0.0714285597205162
		endloop
	endfacet
	facet normal 0.908222997457087 0.41848654326043083 0
		outer loop
			vertex 0.03024590201675892 -0.05281916633248329 -0.0714285597205162
			vertex 0.03024590201675892 -0.05281916633248329 0.0714285746216774
			vertex 0.03221319988369942 -0.0570887066423893 0.0714285746216774
		endloop
	endfacet
	facet normal 0.908222997457087 0.41848654326043083 0
		outer loop
			vertex 0.03024590201675892 -0.05281916633248329 -0.0714285597205162
			vertex 0.03221319988369942 -0.0570887066423893 0.0714285746216774
			vertex 0.03221319988369942 -0.0570887066423893 -0.0714285597205162
		endloop
	endfacet
	facet normal 0.8896562404963642 0.45663089442773735 0
		outer loop
			vertex 0.03008260764181614 -0.05250101909041405 -0.0714285597205162
			vertex 0.03024590201675892 -0.05281916633248329 0.0714285746216774
			vertex 0.03024590201675892 -0.05281916633248329 -0.0714285597205162
		endloop
	endfacet
	facet normal 0.8896646296206119 0.45661454948568997 0
		outer loop
			vertex 0.03008260764181614 -0.05250101909041405 -0.0714285597205162
			vertex 0.029102900996804237 -0.05059216544032097 -0.0714285597205162
			vertex 0.029102900996804237 -0.05059216544032097 0.0714285746216774
		endloop
	endfacet
	facet normal 0.8896634311669512 0.45661688453696736 -3.9419831533330617e-8
		outer loop
			vertex 0.03008260764181614 -0.05250101909041405 -0.0714285597205162
			vertex 0.029102900996804237 -0.05059216544032097 0.0714285746216774
			vertex 0.03024590201675892 -0.05281916633248329 0.0714285746216774
		endloop
	endfacet
	facet normal 0.884456156026924 0.4666233042466671 0
		outer loop
			vertex 0.02857147343456745 -0.049584876745939255 -0.0714285597205162
			vertex 0.029102900996804237 -0.05059216544032097 0.0714285746216774
			vertex 0.029102900996804237 -0.05059216544032097 -0.0714285597205162
		endloop
	endfacet
	facet normal 0.8844538564082505 0.46662766300828545 0
		outer loop
			vertex 0.02857147343456745 -0.049584876745939255 -0.0714285597205162
			vertex 0.025382885709404945 -0.04354117438197136 -0.0714285597205162
			vertex 0.025382885709404945 -0.04354117438197136 0.0714285746216774
		endloop
	endfacet
	facet normal 0.8844541849271749 0.4666270403275037 3.367566306514177e-8
		outer loop
			vertex 0.02857147343456745 -0.049584876745939255 -0.0714285597205162
			vertex 0.025382885709404945 -0.04354117438197136 0.0714285746216774
			vertex 0.029102900996804237 -0.05059216544032097 0.0714285746216774
		endloop
	endfacet
	facet normal 0.7985316632625267 0.6019528077575373 0
		outer loop
			vertex 0.023302750661969185 -0.04078173264861107 -0.0714285597205162
			vertex 0.025382885709404945 -0.04354117438197136 0.0714285746216774
			vertex 0.025382885709404945 -0.04354117438197136 -0.0714285597205162
		endloop
	endfacet
	facet normal 0.7985292487446012 0.6019560107677161 0
		outer loop
			vertex 0.023302750661969185 -0.04078173264861107 -0.0714285597205162
			vertex 0.010821896605193615 -0.024225162342190742 -0.0714285597205162
			vertex 0.010821896605193615 -0.024225162342190742 0.0714285746216774
		endloop
	endfacet
	facet normal 0.7985295936770536 0.601955553194713 8.316624332238585e-8
		outer loop
			vertex 0.023302750661969185 -0.04078173264861107 -0.0714285597205162
			vertex 0.010821896605193615 -0.024225162342190742 0.0714285746216774
			vertex 0.025382885709404945 -0.04354117438197136 0.0714285746216774
		endloop
	endfacet
	facet normal 0.6515411419884741 0.7586133008960197 0
		outer loop
			vertex 0.007521177642047405 -0.021390313282608986 -0.0714285597205162
			vertex 0.010821896605193615 -0.024225162342190742 0.0714285746216774
			vertex 0.010821896605193615 -0.024225162342190742 -0.0714285597205162
		endloop
	endfacet
	facet normal 0.6515419274425589 0.7586126263017479 0
		outer loop
			vertex 0.0023665453772991896 -0.016963200643658638 -0.0714285597205162
			vertex 0.0023665453772991896 -0.016963200643658638 0.0714285746216774
			vertex 0.010821896605193615 -0.024225162342190742 0.0714285746216774
		endloop
	endfacet
	facet normal 0.6515424303993913 0.7586121943320263 -5.172737278318894e-8
		outer loop
			vertex 0.0023665453772991896 -0.016963200643658638 -0.0714285597205162
			vertex 0.010821896605193615 -0.024225162342190742 0.0714285746216774
			vertex 0.007521177642047405 -0.021390313282608986 -0.0714285597205162
		endloop
	endfacet
	facet normal 0.6515438809684908 0.7586109484923859 0
		outer loop
			vertex -0.012039479799568653 -0.004590379539877176 -0.0714285597205162
			vertex -0.012039479799568653 -0.004590379539877176 0.0714285746216774
			vertex 0.0023665453772991896 -0.016963200643658638 0.0714285746216774
		endloop
	endfacet
	facet normal 0.6515438809684908 0.7586109484923859 0
		outer loop
			vertex -0.012039479799568653 -0.004590379539877176 -0.0714285597205162
			vertex 0.0023665453772991896 -0.016963200643658638 0.0714285746216774
			vertex 0.0023665453772991896 -0.016963200643658638 -0.0714285597205162
		endloop
	endfacet
	facet normal 0.6515056488042923 0.7586437830603362 0
		outer loop
			vertex -0.012283113785088062 -0.004381152335554361 -0.0714285597205162
			vertex -0.012283113785088062 -0.004381152335554361 0.0714285746216774
			vertex -0.012039479799568653 -0.004590379539877176 0.0714285746216774
		endloop
	endfacet
	facet normal 0.6515056488042923 0.7586437830603362 0
		outer loop
			vertex -0.012283113785088062 -0.004381152335554361 -0.0714285597205162
			vertex -0.012039479799568653 -0.004590379539877176 0.0714285746216774
			vertex -0.012039479799568653 -0.004590379539877176 -0.0714285597205162
		endloop
	endfacet
	facet normal 0.423440620822018 0.9059238602873114 0
		outer loop
			vertex -0.012991202063858509 -0.004050182644277811 -0.0714285597205162
			vertex -0.012991202063858509 -0.004050182644277811 0.04503322020173073
			vertex -0.012283113785088062 -0.004381152335554361 0.0714285746216774
		endloop
	endfacet
	facet normal 0.423440620822018 0.9059238602873114 0
		outer loop
			vertex -0.012991202063858509 -0.004050182644277811 -0.0714285597205162
			vertex -0.012283113785088062 -0.004381152335554361 0.0714285746216774
			vertex -0.012283113785088062 -0.004381152335554361 -0.0714285597205162
		endloop
	endfacet
	facet normal 0.4234406208220181 0.9059238602873115 0
		outer loop
			vertex -0.012991202063858509 -0.004050182644277811 0.0714285746216774
			vertex -0.012283113785088062 -0.004381152335554361 0.0714285746216774
			vertex -0.012991202063858509 -0.004050182644277811 0.04503322020173073
		endloop
	endfacet
	facet normal 0.8385783607115264 -0.544780995397572 0
		outer loop
			vertex -0.04873177036643028 -0.06993483006954193 -0.0714285597205162
			vertex -0.0486891083419323 -0.06986916065216064 -0.0714285597205162
			vertex -0.0486891083419323 -0.06986916065216064 0.0714285746216774
		endloop
	endfacet
	facet normal 0.8385783607115264 -0.544780995397572 0
		outer loop
			vertex -0.04873177036643028 -0.06993483006954193 -0.0714285597205162
			vertex -0.0486891083419323 -0.06986916065216064 0.0714285746216774
			vertex -0.04873177036643028 -0.06993483006954193 0.0714285746216774
		endloop
	endfacet
	facet normal 0.6053659784954029 -0.795947254584312 0
		outer loop
			vertex -0.048263680189847946 -0.06954559683799744 -0.0714285597205162
			vertex -0.0486891083419323 -0.06986916065216064 0.0714285746216774
			vertex -0.0486891083419323 -0.06986916065216064 -0.0714285597205162
		endloop
	endfacet
	facet normal 0.6053740424797389 -0.7959411213725166 0
		outer loop
			vertex -0.048263680189847946 -0.06954559683799744 -0.0714285597205162
			vertex -0.04571109637618065 -0.06760416179895401 -0.0714285597205162
			vertex -0.04571109637618065 -0.06760416179895401 0.0714285746216774
		endloop
	endfacet
	facet normal 0.6053728904991535 -0.7959419975404607 3.2490852934954625e-8
		outer loop
			vertex -0.048263680189847946 -0.06954559683799744 -0.0714285597205162
			vertex -0.04571109637618065 -0.06760416179895401 0.0714285746216774
			vertex -0.0486891083419323 -0.06986916065216064 0.0714285746216774
		endloop
	endfacet
	facet normal 0.21707882102672812 -0.9761540787507093 0
		outer loop
			vertex -0.04532181844115257 -0.06751759350299835 -0.0714285597205162
			vertex -0.04571109637618065 -0.06760416179895401 0.0714285746216774
			vertex -0.04571109637618065 -0.06760416179895401 -0.0714285597205162
		endloop
	endfacet
	facet normal 0.21708376327394907 -0.9761529796721516 0
		outer loop
			vertex -0.04532181844115257 -0.06751759350299835 -0.0714285597205162
			vertex -0.042986106127500534 -0.06699816137552261 -0.0714285597205162
			vertex -0.042986106127500534 -0.06699816137552261 0.0714285746216774
		endloop
	endfacet
	facet normal 0.21708305725123636 -0.9761531366821787 1.2114354695781735e-8
		outer loop
			vertex -0.04532181844115257 -0.06751759350299835 -0.0714285597205162
			vertex -0.042986106127500534 -0.06699816137552261 0.0714285746216774
			vertex -0.04571109637618065 -0.06760416179895401 0.0714285746216774
		endloop
	endfacet
	facet normal 0 -1 0
		outer loop
			vertex -0.04267510399222374 -0.06699816137552261 -0.0714285597205162
			vertex -0.042986106127500534 -0.06699816137552261 0.0714285746216774
			vertex -0.042986106127500534 -0.06699816137552261 -0.0714285597205162
		endloop
	endfacet
	facet normal 0 -1 0
		outer loop
			vertex -0.04267510399222374 -0.06699816137552261 -0.0714285597205162
			vertex -0.04080910608172417 -0.06699816137552261 -0.0714285597205162
			vertex -0.04080910608172417 -0.06699816137552261 0.0714285746216774
		endloop
	endfacet
	facet normal 0 -1 0
		outer loop
			vertex -0.04267510399222374 -0.06699816137552261 -0.0714285597205162
			vertex -0.04080910608172417 -0.06699816137552261 0.0714285746216774
			vertex -0.042986106127500534 -0.06699816137552261 0.0714285746216774
		endloop
	endfacet
	facet normal -0.1860009038259674 -0.9825495731900367 0
		outer loop
			vertex -0.04026352986693382 -0.06710144132375717 -0.0714285597205162
			vertex -0.04080910608172417 -0.06699816137552261 0.0714285746216774
			vertex -0.04080910608172417 -0.06699816137552261 -0.0714285597205162
		endloop
	endfacet
	facet normal -0.18601333356109437 -0.9825472201057257 0
		outer loop
			vertex -0.04026352986693382 -0.06710144132375717 -0.0714285597205162
			vertex -0.036990102380514145 -0.0677211582660675 -0.0714285597205162
			vertex -0.036990102380514145 -0.0677211582660675 0.0714285746216774
		endloop
	endfacet
	facet normal -0.18601155787625828 -0.9825475562721867 -4.214632771936497e-8
		outer loop
			vertex -0.04026352986693382 -0.06710144132375717 -0.0714285597205162
			vertex -0.036990102380514145 -0.0677211582660675 0.0714285746216774
			vertex -0.04080910608172417 -0.06699816137552261 0.0714285746216774
		endloop
	endfacet
	facet normal -0.4723452940549373 -0.8814135937141855 0
		outer loop
			vertex -0.03658410534262657 -0.06793873012065887 -0.0714285597205162
			vertex -0.036990102380514145 -0.0677211582660675 0.0714285746216774
			vertex -0.036990102380514145 -0.0677211582660675 -0.0714285597205162
		endloop
	endfacet
	facet normal -0.4723408046214763 -0.8814159995652091 0
		outer loop
			vertex -0.03658410534262657 -0.06793873012065887 -0.0714285597205162
			vertex -0.034148093312978745 -0.06924416124820709 -0.0714285597205162
			vertex -0.034148093312978745 -0.06924416124820709 0.0714285746216774
		endloop
	endfacet
	facet normal -0.47234144596463884 -0.8814156558764055 1.407687288875534e-8
		outer loop
			vertex -0.03658410534262657 -0.06793873012065887 -0.0714285597205162
			vertex -0.034148093312978745 -0.06924416124820709 0.0714285746216774
			vertex -0.036990102380514145 -0.0677211582660675 0.0714285746216774
		endloop
	endfacet
	facet normal -0.8266184032711875 -0.5627628411448224 0
		outer loop
			vertex -0.034109096974134445 -0.06930144131183624 -0.0714285597205162
			vertex -0.034148093312978745 -0.06924416124820709 0.0714285746216774
			vertex -0.034148093312978745 -0.06924416124820709 -0.0714285597205162
		endloop
	endfacet
	facet normal -0.8266301061419875 -0.5627456509113923 0
		outer loop
			vertex -0.034109096974134445 -0.06930144131183624 -0.0714285597205162
			vertex -0.033875104039907455 -0.06964515894651413 -0.0714285597205162
			vertex -0.033875104039907455 -0.06964515894651413 0.0714285746216774
		endloop
	endfacet
	facet normal -0.8266284344602157 -0.562748106475582 -8.646277581361678e-9
		outer loop
			vertex -0.034109096974134445 -0.06930144131183624 -0.0714285597205162
			vertex -0.033875104039907455 -0.06964515894651413 0.0714285746216774
			vertex -0.034148093312978745 -0.06924416124820709 0.0714285746216774
		endloop
	endfacet
	facet normal -0.8623656490149023 -0.5062859739308473 0
		outer loop
			vertex -0.033847253769636154 -0.06969259679317474 -0.0714285597205162
			vertex -0.033875104039907455 -0.06964515894651413 0.0714285746216774
			vertex -0.033875104039907455 -0.06964515894651413 -0.0714285597205162
		endloop
	endfacet
	facet normal -0.8622435772655469 -0.5064938434614116 0
		outer loop
			vertex -0.033847253769636154 -0.06969259679317474 -0.0714285597205162
			vertex -0.0337049625813961 -0.06993483006954193 -0.0714285597205162
			vertex -0.0337049625813961 -0.06993483006954193 0.0714285746216774
		endloop
	endfacet
	facet normal -0.8622635693487629 -0.5064598078563839 7.762477839322501e-8
		outer loop
			vertex -0.033847253769636154 -0.06969259679317474 -0.0714285597205162
			vertex -0.0337049625813961 -0.06993483006954193 0.0714285746216774
			vertex -0.033875104039907455 -0.06964515894651413 0.0714285746216774
		endloop
	endfacet
	facet normal 0.4234431106604135 0.9059226965002218 0
		outer loop
			vertex -0.016115395352244377 -0.002589883515611291 -0.0714285597205162
			vertex -0.012991202063858509 -0.004050182644277811 0.04503322020173073
			vertex -0.012991202063858509 -0.004050182644277811 -0.0714285597205162
		endloop
	endfacet
	facet normal 0.4234502208295367 0.9059193730566847 0
		outer loop
			vertex -0.016468552872538567 -0.002424778649583459 -0.0714285597205162
			vertex -0.016468552872538567 -0.002424778649583459 0.0714285746216774
			vertex -0.012991202063858509 -0.004050182644277811 0.0714285746216774
		endloop
	endfacet
	facet normal 0.4234502208295367 0.9059193730566847 0
		outer loop
			vertex -0.016468552872538567 -0.002424778649583459 -0.0714285597205162
			vertex -0.012991202063858509 -0.004050182644277811 0.0714285746216774
			vertex -0.012991202063858509 -0.004050182644277811 0.04503322020173073
		endloop
	endfacet
	facet normal 0.4235131172351475 0.9058899709813173 -0.000002288331140449639
		outer loop
			vertex -0.016468552872538567 -0.002424778649583459 -0.0714285597205162
			vertex -0.012991202063858509 -0.004050182644277811 0.04503322020173073
			vertex -0.016115395352244377 -0.002589883515611291 -0.0714285597205162
		endloop
	endfacet
	facet normal 0.42344459541733603 0.9059220024990279 0
		outer loop
			vertex -0.03910910710692406 0.00815783254802227 -0.0714285597205162
			vertex -0.03910910710692406 0.00815783254802227 0.0714285746216774
			vertex -0.016468552872538567 -0.002424778649583459 0.0714285746216774
		endloop
	endfacet
	facet normal 0.42344459541733603 0.9059220024990279 0
		outer loop
			vertex -0.03910910710692406 0.00815783254802227 -0.0714285597205162
			vertex -0.016468552872538567 -0.002424778649583459 0.0714285746216774
			vertex -0.016468552872538567 -0.002424778649583459 -0.0714285597205162
		endloop
	endfacet
	facet normal 0.19696344916041228 0.9804108320978681 0
		outer loop
			vertex -0.04226210340857506 0.00879126600921154 -0.0714285597205162
			vertex -0.03910910710692406 0.00815783254802227 0.0714285746216774
			vertex -0.03910910710692406 0.00815783254802227 -0.0714285597205162
		endloop
	endfacet
	facet normal 0.19696340673853138 0.9804108406203759 0
		outer loop
			vertex -0.05865800008177757 0.012085182592272758 -0.0714285597205162
			vertex -0.05865800008177757 0.012085182592272758 0.0714285746216774
			vertex -0.03910910710692406 0.00815783254802227 0.0714285746216774
		endloop
	endfacet
	facet normal 0.19696339858063439 0.9804108422592879 1.161401120230056e-9
		outer loop
			vertex -0.05865800008177757 0.012085182592272758 -0.0714285597205162
			vertex -0.03910910710692406 0.00815783254802227 0.0714285746216774
			vertex -0.04226210340857506 0.00879126600921154 -0.0714285597205162
		endloop
	endfacet
	facet normal 0.19695709161006034 0.98041210930124 0
		outer loop
			vertex -0.06118009611964226 0.012591851875185966 -0.0714285597205162
			vertex -0.06118009611964226 0.012591851875185966 0.0714285746216774
			vertex -0.05865800008177757 0.012085182592272758 0.0714285746216774
		endloop
	endfacet
	facet normal 0.19695709161006034 0.98041210930124 0
		outer loop
			vertex -0.06118009611964226 0.012591851875185966 -0.0714285597205162
			vertex -0.05865800008177757 0.012085182592272758 0.0714285746216774
			vertex -0.05865800008177757 0.012085182592272758 -0.0714285597205162
		endloop
	endfacet
	facet normal 0.0065395165831817065 0.9999786171328157 0
		outer loop
			vertex -0.06223052367568016 0.01259872131049633 -0.0714285597205162
			vertex -0.06118009611964226 0.012591851875185966 0.0714285746216774
			vertex -0.06118009611964226 0.012591851875185966 -0.0714285597205162
		endloop
	endfacet
	facet normal 0.006522295072821777 0.9999787296072769 0
		outer loop
			vertex -0.06223052367568016 0.01259872131049633 -0.0714285597205162
			vertex -0.065972700715065 0.012623129412531853 -0.0714285597205162
			vertex -0.065972700715065 0.012623129412531853 0.0714285746216774
		endloop
	endfacet
	facet normal 0.006526069628193673 0.9999787049808602 9.887959460851164e-8
		outer loop
			vertex -0.06223052367568016 0.01259872131049633 -0.0714285597205162
			vertex -0.065972700715065 0.012623129412531853 0.0714285746216774
			vertex -0.06118009611964226 0.012591851875185966 0.0714285746216774
		endloop
	endfacet
	facet normal -1 0 0
		outer loop
			vertex -0.065972700715065 0.012623129412531853 -0.0714285597205162
			vertex -0.065972700715065 -0.06993483006954193 -0.0714285597205162
			vertex -0.065972700715065 0.012623129412531853 0.012892757542431355
		endloop
	endfacet
	facet normal -1 0 0
		outer loop
			vertex -0.065972700715065 -0.06993483006954193 -0.0714285597205162
			vertex -0.065972700715065 -0.06993483006954193 0.0714285746216774
			vertex -0.065972700715065 0.012623129412531853 0.0714285746216774
		endloop
	endfacet
	facet normal -1 0 0
		outer loop
			vertex -0.065972700715065 -0.06993483006954193 -0.0714285597205162
			vertex -0.065972700715065 0.012623129412531853 0.0714285746216774
			vertex -0.065972700715065 0.012623129412531853 0.012892757542431355
		endloop
	endfacet
	facet normal 0 -1 0
		outer loop
			vertex 0.03593183681368828 -0.06993483006954193 0.038903359323740005
			vertex 0.03782198205590248 -0.06993483006954193 0.04094982519745827
			vertex 0.03782198205590248 -0.06993483006954193 0.0714285746216774
		endloop
	endfacet
	facet normal 0 -1 0
		outer loop
			vertex 0.03593183681368828 -0.06993483006954193 0.038903359323740005
			vertex 0.03782198205590248 -0.06993483006954193 0.0714285746216774
			vertex 0.03593183681368828 -0.06993483006954193 0.0714285746216774
		endloop
	endfacet
	facet normal 0 -1 0
		outer loop
			vertex 0.03593183681368828 -0.06993483006954193 -0.0714285597205162
			vertex 0.03782198205590248 -0.06993483006954193 -0.0714285597205162
			vertex 0.03782198205590248 -0.06993483006954193 0.04094982519745827
		endloop
	endfacet
	facet normal 0 -1 0
		outer loop
			vertex 0.03593183681368828 -0.06993483006954193 -0.0714285597205162
			vertex 0.03782198205590248 -0.06993483006954193 0.04094982519745827
			vertex 0.03593183681368828 -0.06993483006954193 0.038903359323740005
		endloop
	endfacet
	facet normal 0 -1 0
		outer loop
			vertex 0.03136521205306053 -0.06993483006954193 0.03395909443497658
			vertex 0.03593183681368828 -0.06993483006954193 0.038903359323740005
			vertex 0.03593183681368828 -0.06993483006954193 0.0714285746216774
		endloop
	endfacet
	facet normal 0 -1 0
		outer loop
			vertex 0.03136521205306053 -0.06993483006954193 0.03395909443497658
			vertex 0.03593183681368828 -0.06993483006954193 0.0714285746216774
			vertex 0.03136521205306053 -0.06993483006954193 0.0714285746216774
		endloop
	endfacet
	facet normal 0 -1 0
		outer loop
			vertex 0.03136521205306053 -0.06993483006954193 -0.0714285597205162
			vertex 0.03593183681368828 -0.06993483006954193 -0.0714285597205162
			vertex 0.03593183681368828 -0.06993483006954193 0.038903359323740005
		endloop
	endfacet
	facet normal 0 -1 0
		outer loop
			vertex 0.03136521205306053 -0.06993483006954193 -0.0714285597205162
			vertex 0.03593183681368828 -0.06993483006954193 0.038903359323740005
			vertex 0.03136521205306053 -0.06993483006954193 0.03395909443497658
		endloop
	endfacet
	facet normal 0 -1 0
		outer loop
			vertex 0.02819637395441532 -0.06993483006954193 0.030528191477060318
			vertex 0.03136521205306053 -0.06993483006954193 0.03395909443497658
			vertex 0.03136521205306053 -0.06993483006954193 0.0714285746216774
		endloop
	endfacet
	facet normal 0 -1 0
		outer loop
			vertex 0.02819637395441532 -0.06993483006954193 0.030528191477060318
			vertex 0.03136521205306053 -0.06993483006954193 0.0714285746216774
			vertex 0.02819637395441532 -0.06993483006954193 0.0714285746216774
		endloop
	endfacet
	facet normal 0 -1 0
		outer loop
			vertex 0.02819637395441532 -0.06993483006954193 -0.0714285597205162
			vertex 0.03136521205306053 -0.06993483006954193 -0.0714285597205162
			vertex 0.03136521205306053 -0.06993483006954193 0.03395909443497658
		endloop
	endfacet
	facet normal 0 -1 0
		outer loop
			vertex 0.02819637395441532 -0.06993483006954193 -0.0714285597205162
			vertex 0.03136521205306053 -0.06993483006954193 0.03395909443497658
			vertex 0.02819637395441532 -0.06993483006954193 0.030528191477060318
		endloop
	endfacet
	facet normal 0 -1 0
		outer loop
			vertex -0.006048542447388172 -0.06993483006954193 -0.006548758130520582
			vertex 0.02819637395441532 -0.06993483006954193 0.030528191477060318
			vertex 0.02819637395441532 -0.06993483006954193 0.0714285746216774
		endloop
	endfacet
	facet normal 0 -1 0
		outer loop
			vertex -0.006048542447388172 -0.06993483006954193 -0.006548758130520582
			vertex 0.02819637395441532 -0.06993483006954193 0.0714285746216774
			vertex -0.006048542447388172 -0.06993483006954193 0.0714285746216774
		endloop
	endfacet
	facet normal 0 -1 0
		outer loop
			vertex -0.006048542447388172 -0.06993483006954193 -0.0714285597205162
			vertex 0.02819637395441532 -0.06993483006954193 -0.0714285597205162
			vertex 0.02819637395441532 -0.06993483006954193 0.030528191477060318
		endloop
	endfacet
	facet normal 0 -1 0
		outer loop
			vertex -0.006048542447388172 -0.06993483006954193 -0.0714285597205162
			vertex 0.02819637395441532 -0.06993483006954193 0.030528191477060318
			vertex -0.006048542447388172 -0.06993483006954193 -0.006548758130520582
		endloop
	endfacet
	facet normal 0 -1 0
		outer loop
			vertex -0.01867852918803692 -0.06993483006954193 -0.02022319659590721
			vertex -0.006048542447388172 -0.06993483006954193 -0.006548758130520582
			vertex -0.006048542447388172 -0.06993483006954193 0.0714285746216774
		endloop
	endfacet
	facet normal 0 -1 0
		outer loop
			vertex -0.01867852918803692 -0.06993483006954193 -0.02022319659590721
			vertex -0.006048542447388172 -0.06993483006954193 0.0714285746216774
			vertex -0.01867852918803692 -0.06993483006954193 0.0714285746216774
		endloop
	endfacet
	facet normal 0 -1 0
		outer loop
			vertex -0.01867852918803692 -0.06993483006954193 -0.0714285597205162
			vertex -0.006048542447388172 -0.06993483006954193 -0.0714285597205162
			vertex -0.006048542447388172 -0.06993483006954193 -0.006548758130520582
		endloop
	endfacet
	facet normal 0 -1 0
		outer loop
			vertex -0.01867852918803692 -0.06993483006954193 -0.0714285597205162
			vertex -0.006048542447388172 -0.06993483006954193 -0.006548758130520582
			vertex -0.01867852918803692 -0.06993483006954193 -0.02022319659590721
		endloop
	endfacet
	facet normal 0 -1 0
		outer loop
			vertex -0.019453002139925957 -0.06993483006954193 -0.021061744540929794
			vertex -0.01867852918803692 -0.06993483006954193 -0.02022319659590721
			vertex -0.01867852918803692 -0.06993483006954193 0.0714285746216774
		endloop
	endfacet
	facet normal 0 -1 0
		outer loop
			vertex -0.019453002139925957 -0.06993483006954193 -0.021061744540929794
			vertex -0.01867852918803692 -0.06993483006954193 0.0714285746216774
			vertex -0.019453002139925957 -0.06993483006954193 0.0714285746216774
		endloop
	endfacet
	facet normal 0 -1 0
		outer loop
			vertex -0.019453002139925957 -0.06993483006954193 -0.0714285597205162
			vertex -0.01867852918803692 -0.06993483006954193 -0.0714285597205162
			vertex -0.01867852918803692 -0.06993483006954193 -0.02022319659590721
		endloop
	endfacet
	facet normal 0 -1 0
		outer loop
			vertex -0.019453002139925957 -0.06993483006954193 -0.0714285597205162
			vertex -0.01867852918803692 -0.06993483006954193 -0.02022319659590721
			vertex -0.019453002139925957 -0.06993483006954193 -0.021061744540929794
		endloop
	endfacet
	facet normal 0 -1 0
		outer loop
			vertex -0.0337049625813961 -0.06993483006954193 -0.03649234399199486
			vertex -0.033677902072668076 -0.06993483006954193 -0.036463018506765366
			vertex -0.033677902072668076 -0.06993483006954193 0.0714285746216774
		endloop
	endfacet
	facet normal 0 -1 0
		outer loop
			vertex -0.0337049625813961 -0.06993483006954193 -0.03649234399199486
			vertex -0.033677902072668076 -0.06993483006954193 0.0714285746216774
			vertex -0.0337049625813961 -0.06993483006954193 0.0714285746216774
		endloop
	endfacet
	facet normal 0 -1 0
		outer loop
			vertex -0.0337049625813961 -0.06993483006954193 -0.0714285597205162
			vertex -0.033677902072668076 -0.06993483006954193 -0.0714285597205162
			vertex -0.033677902072668076 -0.06993483006954193 -0.036463018506765366
		endloop
	endfacet
	facet normal 0 -1 0
		outer loop
			vertex -0.0337049625813961 -0.06993483006954193 -0.0714285597205162
			vertex -0.033677902072668076 -0.06993483006954193 -0.036463018506765366
			vertex -0.0337049625813961 -0.06993483006954193 -0.03649234399199486
		endloop
	endfacet
	facet normal 0 -1 0
		outer loop
			vertex -0.033677902072668076 -0.06993483006954193 -0.036463018506765366
			vertex -0.03285926207900047 -0.06993483006954193 -0.03557669743895531
			vertex -0.03285926207900047 -0.06993483006954193 0.0714285746216774
		endloop
	endfacet
	facet normal 0 -1 0
		outer loop
			vertex -0.033677902072668076 -0.06993483006954193 -0.036463018506765366
			vertex -0.03285926207900047 -0.06993483006954193 0.0714285746216774
			vertex -0.033677902072668076 -0.06993483006954193 0.0714285746216774
		endloop
	endfacet
	facet normal 0 -1 0
		outer loop
			vertex -0.033677902072668076 -0.06993483006954193 -0.0714285597205162
			vertex -0.03285926207900047 -0.06993483006954193 -0.0714285597205162
			vertex -0.03285926207900047 -0.06993483006954193 -0.03557669743895531
		endloop
	endfacet
	facet normal 0 -1 0
		outer loop
			vertex -0.033677902072668076 -0.06993483006954193 -0.0714285597205162
			vertex -0.03285926207900047 -0.06993483006954193 -0.03557669743895531
			vertex -0.033677902072668076 -0.06993483006954193 -0.036463018506765366
		endloop
	endfacet
	facet normal 0 -1 0
		outer loop
			vertex -0.03285926207900047 -0.06993483006954193 -0.03557669743895531
			vertex -0.02529716305434704 -0.06993483006954193 -0.02738916501402855
			vertex -0.02529716305434704 -0.06993483006954193 0.0714285746216774
		endloop
	endfacet
	facet normal 0 -1 0
		outer loop
			vertex -0.03285926207900047 -0.06993483006954193 -0.03557669743895531
			vertex -0.02529716305434704 -0.06993483006954193 0.0714285746216774
			vertex -0.03285926207900047 -0.06993483006954193 0.0714285746216774
		endloop
	endfacet
	facet normal 0 -1 0
		outer loop
			vertex -0.03285926207900047 -0.06993483006954193 -0.0714285597205162
			vertex -0.02529716305434704 -0.06993483006954193 -0.0714285597205162
			vertex -0.02529716305434704 -0.06993483006954193 -0.02738916501402855
		endloop
	endfacet
	facet normal 0 -1 0
		outer loop
			vertex -0.03285926207900047 -0.06993483006954193 -0.0714285597205162
			vertex -0.02529716305434704 -0.06993483006954193 -0.02738916501402855
			vertex -0.03285926207900047 -0.06993483006954193 -0.03557669743895531
		endloop
	endfacet
	facet normal 0 -1 0
		outer loop
			vertex -0.02529716305434704 -0.06993483006954193 -0.02738916501402855
			vertex -0.019453002139925957 -0.06993483006954193 -0.021061744540929794
			vertex -0.019453002139925957 -0.06993483006954193 0.0714285746216774
		endloop
	endfacet
	facet normal 0 -1 0
		outer loop
			vertex -0.02529716305434704 -0.06993483006954193 -0.02738916501402855
			vertex -0.019453002139925957 -0.06993483006954193 0.0714285746216774
			vertex -0.02529716305434704 -0.06993483006954193 0.0714285746216774
		endloop
	endfacet
	facet normal 0 -1 0
		outer loop
			vertex -0.02529716305434704 -0.06993483006954193 -0.0714285597205162
			vertex -0.019453002139925957 -0.06993483006954193 -0.0714285597205162
			vertex -0.019453002139925957 -0.06993483006954193 -0.021061744540929794
		endloop
	endfacet
	facet normal 0 -1 0
		outer loop
			vertex -0.02529716305434704 -0.06993483006954193 -0.0714285597205162
			vertex -0.019453002139925957 -0.06993483006954193 -0.021061744540929794
			vertex -0.02529716305434704 -0.06993483006954193 -0.02738916501402855
		endloop
	endfacet
	facet normal 0 -1 0
		outer loop
			vertex -0.04946209117770195 -0.06993483006954193 -0.0535525344312191
			vertex -0.04873177036643028 -0.06993483006954193 -0.05276184901595116
			vertex -0.04873177036643028 -0.06993483006954193 0.0714285746216774
		endloop
	endfacet
	facet normal 0 -1 0
		outer loop
			vertex -0.04946209117770195 -0.06993483006954193 -0.0535525344312191
			vertex -0.04873177036643028 -0.06993483006954193 0.0714285746216774
			vertex -0.04946209117770195 -0.06993483006954193 0.0714285746216774
		endloop
	endfacet
	facet normal 0 -1 0
		outer loop
			vertex -0.04946209117770195 -0.06993483006954193 -0.0714285597205162
			vertex -0.04873177036643028 -0.06993483006954193 -0.0714285597205162
			vertex -0.04873177036643028 -0.06993483006954193 -0.05276184901595116
		endloop
	endfacet
	facet normal 0 -1 0
		outer loop
			vertex -0.04946209117770195 -0.06993483006954193 -0.0714285597205162
			vertex -0.04873177036643028 -0.06993483006954193 -0.05276184901595116
			vertex -0.04946209117770195 -0.06993483006954193 -0.0535525344312191
		endloop
	endfacet
	facet normal 0 -1 0
		outer loop
			vertex -0.053809236735105515 -0.06993483006954193 -0.058259185403585434
			vertex -0.04946209117770195 -0.06993483006954193 -0.0535525344312191
			vertex -0.04946209117770195 -0.06993483006954193 0.0714285746216774
		endloop
	endfacet
	facet normal 0 -1 0
		outer loop
			vertex -0.053809236735105515 -0.06993483006954193 -0.058259185403585434
			vertex -0.04946209117770195 -0.06993483006954193 0.0714285746216774
			vertex -0.053809236735105515 -0.06993483006954193 0.0714285746216774
		endloop
	endfacet
	facet normal 0 -1 0
		outer loop
			vertex -0.053809236735105515 -0.06993483006954193 -0.0714285597205162
			vertex -0.04946209117770195 -0.06993483006954193 -0.0714285597205162
			vertex -0.04946209117770195 -0.06993483006954193 -0.0535525344312191
		endloop
	endfacet
	facet normal 0 -1 0
		outer loop
			vertex -0.053809236735105515 -0.06993483006954193 -0.0714285597205162
			vertex -0.04946209117770195 -0.06993483006954193 -0.0535525344312191
			vertex -0.053809236735105515 -0.06993483006954193 -0.058259185403585434
		endloop
	endfacet
	facet normal 0 -1 0
		outer loop
			vertex -0.058110009878873825 -0.06993483006954193 -0.06291564553976059
			vertex -0.053809236735105515 -0.06993483006954193 -0.058259185403585434
			vertex -0.053809236735105515 -0.06993483006954193 0.0714285746216774
		endloop
	endfacet
	facet normal 0 -1 0
		outer loop
			vertex -0.058110009878873825 -0.06993483006954193 -0.06291564553976059
			vertex -0.053809236735105515 -0.06993483006954193 0.0714285746216774
			vertex -0.058110009878873825 -0.06993483006954193 0.0714285746216774
		endloop
	endfacet
	facet normal 0 -1 0
		outer loop
			vertex -0.058110009878873825 -0.06993483006954193 -0.0714285597205162
			vertex -0.053809236735105515 -0.06993483006954193 -0.0714285597205162
			vertex -0.053809236735105515 -0.06993483006954193 -0.058259185403585434
		endloop
	endfacet
	facet normal 0 -1 0
		outer loop
			vertex -0.058110009878873825 -0.06993483006954193 -0.0714285597205162
			vertex -0.053809236735105515 -0.06993483006954193 -0.058259185403585434
			vertex -0.058110009878873825 -0.06993483006954193 -0.06291564553976059
		endloop
	endfacet
	facet normal 0 -1 0
		outer loop
			vertex -0.065972700715065 -0.06993483006954193 0.0714285746216774
			vertex -0.065972700715065 -0.06993483006954193 -0.0714285597205162
			vertex -0.058110009878873825 -0.06993483006954193 -0.06291564553976059
		endloop
	endfacet
	facet normal 0 -1 0
		outer loop
			vertex -0.065972700715065 -0.06993483006954193 0.0714285746216774
			vertex -0.058110009878873825 -0.06993483006954193 -0.06291564553976059
			vertex -0.058110009878873825 -0.06993483006954193 0.0714285746216774
		endloop
	endfacet
	facet normal 0 -1 0
		outer loop
			vertex -0.065972700715065 -0.06993483006954193 -0.0714285597205162
			vertex -0.058110009878873825 -0.06993483006954193 -0.0714285597205162
			vertex -0.058110009878873825 -0.06993483006954193 -0.06291564553976059
		endloop
	endfacet
	facet normal 0 0 -1
		outer loop
			vertex 0.03782198205590248 -0.06993483006954193 -0.0714285597205162
			vertex 0.03593183681368828 -0.06993483006954193 -0.0714285597205162
			vertex 0.03145693615078926 -0.05950729921460152 -0.0714285597205162
		endloop
	endfacet
	facet normal 0 0 -1
		outer loop
			vertex 0.03782198205590248 -0.06993483006954193 -0.0714285597205162
			vertex 0.03145693615078926 -0.05950729921460152 -0.0714285597205162
			vertex 0.03221319988369942 -0.0570887066423893 -0.0714285597205162
		endloop
	endfacet
	facet normal 0 0 -1
		outer loop
			vertex 0.03782198205590248 -0.06993483006954193 -0.0714285597205162
			vertex 0.03221319988369942 -0.0570887066423893 -0.0714285597205162
			vertex 0.03339989110827446 -0.05966416373848915 -0.0714285597205162
		endloop
	endfacet
	facet normal 0 0 -1
		outer loop
			vertex 0.03593183681368828 -0.06993483006954193 -0.0714285597205162
			vertex 0.03136521205306053 -0.06993483006954193 -0.0714285597205162
			vertex 0.029378721490502357 -0.06615360826253891 -0.0714285597205162
		endloop
	endfacet
	facet normal 0 0 -1
		outer loop
			vertex 0.03593183681368828 -0.06993483006954193 -0.0714285597205162
			vertex 0.029378721490502357 -0.06615360826253891 -0.0714285597205162
			vertex 0.03145693615078926 -0.05950729921460152 -0.0714285597205162
		endloop
	endfacet
	facet normal 0 0 -1
		outer loop
			vertex 0.03136521205306053 -0.06993483006954193 -0.0714285597205162
			vertex 0.02819637395441532 -0.06993483006954193 -0.0714285597205162
			vertex 0.029378721490502357 -0.06615360826253891 -0.0714285597205162
		endloop
	endfacet
	facet normal 0 0 -1
		outer loop
			vertex 0.02819637395441532 -0.06993483006954193 -0.0714285597205162
			vertex -0.006048542447388172 -0.06993483006954193 -0.0714285597205162
			vertex 0.0023665453772991896 -0.016963200643658638 -0.0714285597205162
		endloop
	endfacet
	facet normal 0 0 -1
		outer loop
			vertex 0.02819637395441532 -0.06993483006954193 -0.0714285597205162
			vertex 0.0023665453772991896 -0.016963200643658638 -0.0714285597205162
			vertex 0.010821896605193615 -0.024225162342190742 -0.0714285597205162
		endloop
	endfacet
	facet normal 0 0 -1
		outer loop
			vertex 0.02819637395441532 -0.06993483006954193 -0.0714285597205162
			vertex 0.010821896605193615 -0.024225162342190742 -0.0714285597205162
			vertex 0.025382885709404945 -0.04354117438197136 -0.0714285597205162
		endloop
	endfacet
	facet normal 0 0 -1
		outer loop
			vertex 0.02819637395441532 -0.06993483006954193 -0.0714285597205162
			vertex 0.025382885709404945 -0.04354117438197136 -0.0714285597205162
			vertex 0.029102900996804237 -0.05059216544032097 -0.0714285597205162
		endloop
	endfacet
	facet normal 0 0 -1
		outer loop
			vertex 0.02819637395441532 -0.06993483006954193 -0.0714285597205162
			vertex 0.029102900996804237 -0.05059216544032097 -0.0714285597205162
			vertex 0.03024590201675892 -0.05281916633248329 -0.0714285597205162
		endloop
	endfacet
	facet normal 0 0 -1
		outer loop
			vertex 0.02819637395441532 -0.06993483006954193 -0.0714285597205162
			vertex 0.03024590201675892 -0.05281916633248329 -0.0714285597205162
			vertex 0.03221319988369942 -0.0570887066423893 -0.0714285597205162
		endloop
	endfacet
	facet normal 0 0 -1
		outer loop
			vertex -0.006048542447388172 -0.06993483006954193 -0.0714285597205162
			vertex -0.01867852918803692 -0.06993483006954193 -0.0714285597205162
			vertex -0.012039479799568653 -0.004590379539877176 -0.0714285597205162
		endloop
	endfacet
	facet normal 0 0 -1
		outer loop
			vertex -0.006048542447388172 -0.06993483006954193 -0.0714285597205162
			vertex -0.012039479799568653 -0.004590379539877176 -0.0714285597205162
			vertex 0.0023665453772991896 -0.016963200643658638 -0.0714285597205162
		endloop
	endfacet
	facet normal 0 0 -1
		outer loop
			vertex -0.01867852918803692 -0.06993483006954193 -0.0714285597205162
			vertex -0.019453002139925957 -0.06993483006954193 -0.0714285597205162
			vertex -0.012991202063858509 -0.004050182644277811 -0.0714285597205162
		endloop
	endfacet
	facet normal 0 0 -1
		outer loop
			vertex -0.01867852918803692 -0.06993483006954193 -0.0714285597205162
			vertex -0.012991202063858509 -0.004050182644277811 -0.0714285597205162
			vertex -0.012283113785088062 -0.004381152335554361 -0.0714285597205162
		endloop
	endfacet
	facet normal 0 0 -1
		outer loop
			vertex -0.01867852918803692 -0.06993483006954193 -0.0714285597205162
			vertex -0.012283113785088062 -0.004381152335554361 -0.0714285597205162
			vertex -0.012039479799568653 -0.004590379539877176 -0.0714285597205162
		endloop
	endfacet
	facet normal 0 0 -1
		outer loop
			vertex -0.033677902072668076 -0.06993483006954193 -0.0714285597205162
			vertex -0.0337049625813961 -0.06993483006954193 -0.0714285597205162
			vertex -0.033875104039907455 -0.06964515894651413 -0.0714285597205162
		endloop
	endfacet
	facet normal 0 0 -1
		outer loop
			vertex -0.03285926207900047 -0.06993483006954193 -0.0714285597205162
			vertex -0.033677902072668076 -0.06993483006954193 -0.0714285597205162
			vertex -0.034148093312978745 -0.06924416124820709 -0.0714285597205162
		endloop
	endfacet
	facet normal 0 0 -1
		outer loop
			vertex -0.02529716305434704 -0.06993483006954193 -0.0714285597205162
			vertex -0.03285926207900047 -0.06993483006954193 -0.0714285597205162
			vertex -0.036990102380514145 -0.0677211582660675 -0.0714285597205162
		endloop
	endfacet
	facet normal 0 0 -1
		outer loop
			vertex -0.019453002139925957 -0.06993483006954193 -0.0714285597205162
			vertex -0.02529716305434704 -0.06993483006954193 -0.0714285597205162
			vertex -0.04080910608172417 -0.06699816137552261 -0.0714285597205162
		endloop
	endfacet
	facet normal 0 0 -1
		outer loop
			vertex -0.019453002139925957 -0.06993483006954193 -0.0714285597205162
			vertex -0.04080910608172417 -0.06699816137552261 -0.0714285597205162
			vertex -0.019164977595210075 -0.06699816137552261 -0.0714285597205162
		endloop
	endfacet
	facet normal 0 0 -1
		outer loop
			vertex -0.042986106127500534 -0.06699816137552261 -0.0714285597205162
			vertex -0.01863384060561657 -0.06158255413174629 -0.0714285597205162
			vertex -0.019164977595210075 -0.06699816137552261 -0.0714285597205162
		endloop
	endfacet
	facet normal 0 0 -1
		outer loop
			vertex -0.04571109637618065 -0.06760416179895401 -0.0714285597205162
			vertex -0.017089365050196648 -0.04583515599370003 -0.0714285597205162
			vertex -0.01863384060561657 -0.06158255413174629 -0.0714285597205162
		endloop
	endfacet
	facet normal 0 0 -1
		outer loop
			vertex -0.0486891083419323 -0.06986916065216064 -0.0714285597205162
			vertex -0.014248085208237171 -0.016865471377968788 -0.0714285597205162
			vertex -0.017089365050196648 -0.04583515599370003 -0.0714285597205162
		endloop
	endfacet
	facet normal 0 0 -1
		outer loop
			vertex -0.04873177036643028 -0.06993483006954193 -0.0714285597205162
			vertex -0.04946209117770195 -0.06993483006954193 -0.0714285597205162
			vertex -0.016468552872538567 -0.002424778649583459 -0.0714285597205162
		endloop
	endfacet
	facet normal 0 0 -1
		outer loop
			vertex -0.04873177036643028 -0.06993483006954193 -0.0714285597205162
			vertex -0.016468552872538567 -0.002424778649583459 -0.0714285597205162
			vertex -0.012991202063858509 -0.004050182644277811 -0.0714285597205162
		endloop
	endfacet
	facet normal 0 0 -1
		outer loop
			vertex -0.04873177036643028 -0.06993483006954193 -0.0714285597205162
			vertex -0.012991202063858509 -0.004050182644277811 -0.0714285597205162
			vertex -0.014248085208237171 -0.016865471377968788 -0.0714285597205162
		endloop
	endfacet
	facet normal 0 0 -1
		outer loop
			vertex -0.04946209117770195 -0.06993483006954193 -0.0714285597205162
			vertex -0.053809236735105515 -0.06993483006954193 -0.0714285597205162
			vertex -0.05865800008177757 0.012085182592272758 -0.0714285597205162
		endloop
	endfacet
	facet normal 0 0 -1
		outer loop
			vertex -0.04946209117770195 -0.06993483006954193 -0.0714285597205162
			vertex -0.05865800008177757 0.012085182592272758 -0.0714285597205162
			vertex -0.03910910710692406 0.00815783254802227 -0.0714285597205162
		endloop
	endfacet
	facet normal 0 0 -1
		outer loop
			vertex -0.04946209117770195 -0.06993483006954193 -0.0714285597205162
			vertex -0.03910910710692406 0.00815783254802227 -0.0714285597205162
			vertex -0.016468552872538567 -0.002424778649583459 -0.0714285597205162
		endloop
	endfacet
	facet normal 0 0 -1
		outer loop
			vertex -0.053809236735105515 -0.06993483006954193 -0.0714285597205162
			vertex -0.058110009878873825 -0.06993483006954193 -0.0714285597205162
			vertex -0.05435287579894066 -0.06073899194598198 -0.0714285597205162
		endloop
	endfacet
	facet normal 0 0 -1
		outer loop
			vertex -0.058110009878873825 -0.06993483006954193 -0.0714285597205162
			vertex -0.065972700715065 -0.06993483006954193 -0.0714285597205162
			vertex -0.065972700715065 0.012623129412531853 -0.0714285597205162
		endloop
	endfacet
	facet normal 0 0 -1
		outer loop
			vertex -0.058110009878873825 -0.06993483006954193 -0.0714285597205162
			vertex -0.065972700715065 0.012623129412531853 -0.0714285597205162
			vertex -0.06118009611964226 0.012591851875185966 -0.0714285597205162
		endloop
	endfacet
	facet normal 0 0 -1
		outer loop
			vertex -0.058110009878873825 -0.06993483006954193 -0.0714285597205162
			vertex -0.06118009611964226 0.012591851875185966 -0.0714285597205162
			vertex -0.05865800008177757 0.012085182592272758 -0.0714285597205162
		endloop
	endfacet
	facet normal 0 0 -1
		outer loop
			vertex -0.058110009878873825 -0.06993483006954193 -0.0714285597205162
			vertex -0.05865800008177757 0.012085182592272758 -0.0714285597205162
			vertex -0.05435287579894066 -0.06073899194598198 -0.0714285597205162
		endloop
	endfacet
endsolid exported
