solid exported
	facet normal -0.40320904861862605 -0.6601950357924653 0.6336915478583
		outer loop
			vertex -0.10000000149011612 -0.2349785566329956 0.23619616031646729
			vertex -0.10000000149011612 -0.2446851283311844 0.22608362138271332
			vertex -0.08790295571088791 -0.25822532176971436 0.21967430412769318
		endloop
	endfacet
	facet normal -0.40321049873936 -0.6601950925789623 0.6336905660028497
		outer loop
			vertex -0.10000000149011612 -0.2349785566329956 0.23619616031646729
			vertex -0.08790295571088791 -0.25822532176971436 0.21967430412769318
			vertex -0.0789441466331482 -0.24783830344676971 0.23619616031646729
		endloop
	endfacet
	facet normal -0.0791221675486144 -0.8240475062014514 0.560968261246194
		outer loop
			vertex -0.0789441466331482 -0.24783830344676971 0.23619616031646729
			vertex -0.08790295571088791 -0.25822532176971436 0.21967430412769318
			vertex -0.06449148058891296 -0.24981053173542023 0.235337495803833
		endloop
	endfacet
	facet normal -0.07912150682698087 -0.8240445778126847 0.5609726561383741
		outer loop
			vertex -0.0789441466331482 -0.24783830344676971 0.23619616031646729
			vertex -0.06449148058891296 -0.24981053173542023 0.235337495803833
			vertex -0.06421727687120438 -0.2492523193359375 0.23619616031646729
		endloop
	endfacet
	facet normal -0.5924253535042066 -0.7492041026899154 0.29618476165733915
		outer loop
			vertex -0.10000000149011612 -0.2738381326198578 0.14171770215034485
			vertex -0.09635500609874725 -0.2767203748226166 0.14171770215034485
			vertex -0.10000000149011612 -0.2700214684009552 0.1513720154762268
		endloop
	endfacet
	facet normal -0.6647634298247467 -0.7074794243649757 0.23992175071852484
		outer loop
			vertex -0.08790295571088791 -0.25822532176971436 0.21967430412769318
			vertex -0.10000000149011612 -0.2446851283311844 0.22608362138271332
			vertex -0.10000000149011612 -0.2700214684009552 0.1513720154762268
		endloop
	endfacet
	facet normal -0.6647633373974661 -0.7074795116508991 0.23992174942340724
		outer loop
			vertex -0.08790295571088791 -0.25822532176971436 0.21967430412769318
			vertex -0.10000000149011612 -0.2700214684009552 0.1513720154762268
			vertex -0.09635500609874725 -0.2767203748226166 0.14171770215034485
		endloop
	endfacet
	facet normal -0.6647740159420734 -0.7074698614964702 0.23992061771013598
		outer loop
			vertex -0.08790295571088791 -0.25822532176971436 0.21967430412769318
			vertex -0.09635500609874725 -0.2767203748226166 0.14171770215034485
			vertex -0.09582673758268356 -0.27721676230430603 0.14171770215034485
		endloop
	endfacet
	facet normal -0.6647617645347235 -0.707480884928456 0.2399220579136689
		outer loop
			vertex -0.08790295571088791 -0.25822532176971436 0.21967430412769318
			vertex -0.09582673758268356 -0.27721676230430603 0.14171770215034485
			vertex -0.0869910940527916 -0.2768769860267639 0.16720090806484222
		endloop
	endfacet
	facet normal -0.06467472222178682 -0.9406275638493491 0.3332220977551959
		outer loop
			vertex -0.08005828410387039 -0.25856345891952515 0.22024236619472504
			vertex -0.08790295571088791 -0.25822532176971436 0.21967430412769318
			vertex -0.0869910940527916 -0.2768769860267639 0.16720090806484222
		endloop
	endfacet
	facet normal -0.06467912330823626 -0.9406271126384605 0.3332225172126141
		outer loop
			vertex -0.08005828410387039 -0.25856345891952515 0.22024236619472504
			vertex -0.0869910940527916 -0.2768769860267639 0.16720090806484222
			vertex -0.08226948976516724 -0.27217936515808105 0.18137791752815247
		endloop
	endfacet
	facet normal -0.07601207191059685 -0.8265694404062224 0.5576783348045744
		outer loop
			vertex -0.0815345048904419 -0.25593629479408264 0.22393503785133362
			vertex -0.08790295571088791 -0.25822532176971436 0.21967430412769318
			vertex -0.08005828410387039 -0.25856345891952515 0.22024236619472504
		endloop
	endfacet
	facet normal -0.06467411734939355 -0.9406275085978955 0.33322237111873676
		outer loop
			vertex -0.06906057894229889 -0.25903749465942383 0.22103875875473022
			vertex -0.08005828410387039 -0.25856345891952515 0.22024236619472504
			vertex -0.08226948976516724 -0.27217936515808105 0.18137791752815247
		endloop
	endfacet
	facet normal -0.07601486327737857 -0.8265697756665547 0.5576774574209211
		outer loop
			vertex -0.06449148058891296 -0.24981053173542023 0.235337495803833
			vertex -0.0815345048904419 -0.25593629479408264 0.22393503785133362
			vertex -0.08005828410387039 -0.25856345891952515 0.22024236619472504
		endloop
	endfacet
	facet normal -0.07601156979237363 -0.8265716404925142 0.5576751423465215
		outer loop
			vertex -0.06449148058891296 -0.24981053173542023 0.235337495803833
			vertex -0.08005828410387039 -0.25856345891952515 0.22024236619472504
			vertex -0.06906057894229889 -0.25903749465942383 0.22103875875473022
		endloop
	endfacet
	facet normal -0.07912123078925222 -0.8240446377840795 0.5609726069762222
		outer loop
			vertex -0.06421727687120438 -0.2492523193359375 0.23619616031646729
			vertex -0.06449148058891296 -0.24981053173542023 0.235337495803833
			vertex -0.06320804357528687 -0.2493492215871811 0.23619616031646729
		endloop
	endfacet
	facet normal -0.6647628771657588 -0.7074797139481102 0.23992242807666553
		outer loop
			vertex -0.09582673758268356 -0.27721676230430603 0.14171770215034485
			vertex -0.08654826134443283 -0.28593501448631287 0.14171770215034485
			vertex -0.0869910940527916 -0.2768769860267639 0.16720090806484222
		endloop
	endfacet
	facet normal -0.06467990172881444 -0.9406269825428686 0.33322273335510727
		outer loop
			vertex -0.08452597260475159 -0.28607407212257385 0.14171770215034485
			vertex -0.08226948976516724 -0.27217936515808105 0.18137791752815247
			vertex -0.0869910940527916 -0.2768769860267639 0.16720090806484222
		endloop
	endfacet
	facet normal -0.06467986612423765 -0.9406269836317751 0.33322273719231577
		outer loop
			vertex -0.08452597260475159 -0.28607407212257385 0.14171770215034485
			vertex -0.0869910940527916 -0.2768769860267639 0.16720090806484222
			vertex -0.08654826134443283 -0.28593501448631287 0.14171770215034485
		endloop
	endfacet
	facet normal -0.06467415742751131 -0.9406275028062668 0.3332223796888317
		outer loop
			vertex -0.06312304735183716 -0.28754565119743347 0.14171770215034485
			vertex 0.008474576286971569 -0.26237952709198 0.22665336728096008
			vertex -0.06906057894229889 -0.25903749465942383 0.22103875875473022
		endloop
	endfacet
	facet normal -0.06467415043721335 -0.9406275030681819 0.3332223803062192
		outer loop
			vertex -0.06312304735183716 -0.28754565119743347 0.14171770215034485
			vertex -0.06906057894229889 -0.25903749465942383 0.22103875875473022
			vertex -0.08226948976516724 -0.27217936515808105 0.18137791752815247
		endloop
	endfacet
	facet normal -0.06467376225578302 -0.9406274681619324 0.33322255418106894
		outer loop
			vertex -0.06312304735183716 -0.28754565119743347 0.14171770215034485
			vertex -0.08226948976516724 -0.27217936515808105 0.18137791752815247
			vertex -0.08452597260475159 -0.28607407212257385 0.14171770215034485
		endloop
	endfacet
	facet normal -0.0760056473294458 -0.8265729094623848 0.5576740687148007
		outer loop
			vertex -0.06320804357528687 -0.2493492215871811 0.23619616031646729
			vertex -0.06449148058891296 -0.24981053173542023 0.235337495803833
			vertex -0.06906057894229889 -0.25903749465942383 0.22103875875473022
		endloop
	endfacet
	facet normal -0.07601142603632657 -0.8265714863757289 0.5576753903683958
		outer loop
			vertex -0.06320804357528687 -0.2493492215871811 0.23619616031646729
			vertex -0.06906057894229889 -0.25903749465942383 0.22103875875473022
			vertex 0.008474576286971569 -0.26237952709198 0.22665336728096008
		endloop
	endfacet
	facet normal -0.07601145640094972 -0.8265715650204265 0.5576752696646043
		outer loop
			vertex -0.06320804357528687 -0.2493492215871811 0.23619616031646729
			vertex 0.008474576286971569 -0.26237952709198 0.22665336728096008
			vertex 0.00796029344201088 -0.25589385628700256 0.23619616031646729
		endloop
	endfacet
	facet normal 0.3922921569683788 -0.7508015722127948 0.5314168446181328
		outer loop
			vertex 0.00796029344201088 -0.25589385628700256 0.23619616031646729
			vertex 0.008474576286971569 -0.26237952709198 0.22665336728096008
			vertex 0.023129597306251526 -0.247967928647995 0.23619616031646729
		endloop
	endfacet
	facet normal 0.46733950245904343 -0.8047043065250749 0.36612124836088444
		outer loop
			vertex 0.06900278478860855 -0.2175653874874115 0.23619616031646729
			vertex 0.05152202025055885 -0.22771750390529633 0.23619616031646729
			vertex 0.03769972547888756 -0.25652316212654114 0.1905273199081421
		endloop
	endfacet
	facet normal 0.5501367151818454 -0.7713261266967215 0.3200087512615277
		outer loop
			vertex 0.023129597306251526 -0.247967928647995 0.23619616031646729
			vertex 0.008474576286971569 -0.26237952709198 0.22665336728096008
			vertex 0.014184864237904549 -0.2875719964504242 0.15611451864242554
		endloop
	endfacet
	facet normal 0.5501363884421143 -0.7713263075006336 0.3200088771726586
		outer loop
			vertex 0.023129597306251526 -0.247967928647995 0.23619616031646729
			vertex 0.014184864237904549 -0.2875719964504242 0.15611451864242554
			vertex 0.03769972547888756 -0.25652316212654114 0.1905273199081421
		endloop
	endfacet
	facet normal 0.5501359441095001 -0.7713266561312228 0.3200088007230045
		outer loop
			vertex 0.023129597306251526 -0.247967928647995 0.23619616031646729
			vertex 0.03769972547888756 -0.25652316212654114 0.1905273199081421
			vertex 0.05152202025055885 -0.22771750390529633 0.23619616031646729
		endloop
	endfacet
	facet normal -0.06200633697865449 -0.9415090362502248 0.331233978984135
		outer loop
			vertex 0.014184864237904549 -0.2875719964504242 0.15611451864242554
			vertex 0.008474576286971569 -0.26237952709198 0.22665336728096008
			vertex 0.001556390430778265 -0.2648112177848816 0.21844638884067535
		endloop
	endfacet
	facet normal -0.06201018561735692 -0.9415090547238716 0.3312332059933951
		outer loop
			vertex 0.014184864237904549 -0.2875719964504242 0.15611451864242554
			vertex 0.001556390430778265 -0.2648112177848816 0.21844638884067535
			vertex 0.011994107626378536 -0.28851473331451416 0.15302471816539764
		endloop
	endfacet
	facet normal -0.06200518403633869 -0.9415091600707037 0.33123384285966034
		outer loop
			vertex 0.001556390430778265 -0.2648112177848816 0.21844638884067535
			vertex -0.06312304735183716 -0.28754565119743347 0.14171770215034485
			vertex 0.003977084998041391 -0.29196467995643616 0.14171770215034485
		endloop
	endfacet
	facet normal -0.06200673598777929 -0.9415090844967776 0.33123376715271924
		outer loop
			vertex 0.001556390430778265 -0.2648112177848816 0.21844638884067535
			vertex 0.003977084998041391 -0.29196467995643616 0.14171770215034485
			vertex 0.011994107626378536 -0.28851473331451416 0.15302471816539764
		endloop
	endfacet
	facet normal 0.4673382860694157 -0.8047046152670965 0.3661221224421376
		outer loop
			vertex 0.06836427748203278 -0.218360036611557 0.2352646440267563
			vertex 0.03769972547888756 -0.25652316212654114 0.1905273199081421
			vertex 0.02292683534324169 -0.2873098850250244 0.14171770215034485
		endloop
	endfacet
	facet normal 0.467340658058763 -0.8047039762051674 0.36612049929605917
		outer loop
			vertex 0.06836427748203278 -0.218360036611557 0.2352646440267563
			vertex 0.02292683534324169 -0.2873098850250244 0.14171770215034485
			vertex 0.029997767880558968 -0.2832033634185791 0.14171770215034485
		endloop
	endfacet
	facet normal 0.4673388329805127 -0.8047045231015556 0.36612162690601974
		outer loop
			vertex 0.06836427748203278 -0.218360036611557 0.2352646440267563
			vertex 0.029997767880558968 -0.2832033634185791 0.14171770215034485
			vertex 0.08374485373497009 -0.21437300741672516 0.22439514100551605
		endloop
	endfacet
	facet normal 0.5501356770298191 -0.7713271766674972 0.32000800520157374
		outer loop
			vertex 0.014184864237904549 -0.2875719964504242 0.15611451864242554
			vertex 0.015350321307778358 -0.2927137017250061 0.14171770215034485
			vertex 0.02292683534324169 -0.2873098850250244 0.14171770215034485
		endloop
	endfacet
	facet normal 0.5501366571823804 -0.7713262234679804 0.3200086177196161
		outer loop
			vertex 0.014184864237904549 -0.2875719964504242 0.15611451864242554
			vertex 0.02292683534324169 -0.2873098850250244 0.14171770215034485
			vertex 0.03769972547888756 -0.25652316212654114 0.1905273199081421
		endloop
	endfacet
	facet normal -0.06200296175090997 -0.9415095511879978 0.33123314712735275
		outer loop
			vertex 0.013798089697957039 -0.2926114797592163 0.14171770215034485
			vertex 0.015350321307778358 -0.2927137017250061 0.14171770215034485
			vertex 0.014184864237904549 -0.2875719964504242 0.15611451864242554
		endloop
	endfacet
	facet normal -0.062010130106130865 -0.9415090705302364 0.3312331714570736
		outer loop
			vertex 0.013798089697957039 -0.2926114797592163 0.14171770215034485
			vertex 0.014184864237904549 -0.2875719964504242 0.15611451864242554
			vertex 0.011994107626378536 -0.28851473331451416 0.15302471816539764
		endloop
	endfacet
	facet normal -0.062006680477083194 -0.9415091003028512 0.3312337326166051
		outer loop
			vertex 0.013798089697957039 -0.2926114797592163 0.14171770215034485
			vertex 0.011994107626378536 -0.28851473331451416 0.15302471816539764
			vertex 0.003977084998041391 -0.29196467995643616 0.14171770215034485
		endloop
	endfacet
	facet normal 0.6293147321071791 -0.14723880168949155 0.7630751622415134
		outer loop
			vertex 0.09007725864648819 -0.1975291222333908 0.23619616031646729
			vertex 0.0904795452952385 -0.1973295956850052 0.23590289056301117
			vertex 0.09052373468875885 -0.1956208348274231 0.23619616031646729
		endloop
	endfacet
	facet normal 0.6481731763597331 -0.5777832416854357 0.49602223647252325
		outer loop
			vertex 0.0904795452952385 -0.1973295956850052 0.23590289056301117
			vertex 0.09007725864648819 -0.1975291222333908 0.23619616031646729
			vertex 0.08361904323101044 -0.20477412641048431 0.23619616031646729
		endloop
	endfacet
	facet normal 0.64815874215245 -0.5777685214032517 0.49605824320018543
		outer loop
			vertex 0.0904795452952385 -0.1973295956850052 0.23590289056301117
			vertex 0.08361904323101044 -0.20477412641048431 0.23619616031646729
			vertex 0.0888325423002243 -0.20160624384880066 0.23307380080223083
		endloop
	endfacet
	facet normal 0.46733803574364363 -0.8047052039450724 0.36612114810673335
		outer loop
			vertex 0.08408224582672119 -0.21394093334674835 0.22491413354873657
			vertex 0.07566677778959274 -0.213695228099823 0.23619616031646729
			vertex 0.06900278478860855 -0.2175653874874115 0.23619616031646729
		endloop
	endfacet
	facet normal 0.46734147645723867 -0.804700413069367 0.3661272860478421
		outer loop
			vertex 0.08408224582672119 -0.21394093334674835 0.22491413354873657
			vertex 0.06900278478860855 -0.2175653874874115 0.23619616031646729
			vertex 0.06836427748203278 -0.218360036611557 0.2352646440267563
		endloop
	endfacet
	facet normal 0.4673394056586286 -0.8047036813407008 0.36612274602292033
		outer loop
			vertex 0.08408224582672119 -0.21394093334674835 0.22491413354873657
			vertex 0.06836427748203278 -0.218360036611557 0.2352646440267563
			vertex 0.08374485373497009 -0.21437300741672516 0.22439514100551605
		endloop
	endfacet
	facet normal 0.6481594401990639 -0.577768990458144 0.4960567847996975
		outer loop
			vertex 0.08361904323101044 -0.20477412641048431 0.23619616031646729
			vertex 0.07566677778959274 -0.213695228099823 0.23619616031646729
			vertex 0.08408224582672119 -0.21394093334674835 0.22491413354873657
		endloop
	endfacet
	facet normal 0.6481586927928985 -0.5777694998877849 0.49605716803249594
		outer loop
			vertex 0.08361904323101044 -0.20477412641048431 0.23619616031646729
			vertex 0.08408224582672119 -0.21394093334674835 0.22491413354873657
			vertex 0.0888325423002243 -0.20160624384880066 0.23307380080223083
		endloop
	endfacet
	facet normal 0.46733999532371073 -0.8047046061199261 0.3661199607508565
		outer loop
			vertex 0.0524703711271286 -0.27015218138694763 0.14171770215034485
			vertex 0.03717518597841263 -0.2740117311477661 0.15275849401950836
			vertex 0.029997767880558968 -0.2832033634185791 0.14171770215034485
		endloop
	endfacet
	facet normal 1 0 0
		outer loop
			vertex 0.10000000149011612 -0.17752575874328613 0.21848253905773163
			vertex 0.10000000149011612 -0.1023595929145813 0.155410036444664
			vertex 0.10000000149011612 -0.1023595929145813 0.23132359981536865
		endloop
	endfacet
	facet normal 0.6086112009399656 -0.26415866440248553 0.7482062590699894
		outer loop
			vertex 0.09395229071378708 -0.18096676468849182 0.23619616031646729
			vertex 0.10000000149011612 -0.18139205873012543 0.23112663626670837
			vertex 0.10000000149011612 -0.16703307628631592 0.23619616031646729
		endloop
	endfacet
	facet normal 0.6293046165905852 -0.14723691754105653 0.7630838680320694
		outer loop
			vertex 0.09217519313097 -0.18856224417686462 0.23619616031646729
			vertex 0.10000000149011612 -0.19049996137619019 0.22936926782131195
			vertex 0.10000000149011612 -0.18139205873012543 0.23112663626670837
		endloop
	endfacet
	facet normal 0.6293046726451177 -0.14723702622396453 0.7630838008343155
		outer loop
			vertex 0.09217519313097 -0.18856224417686462 0.23619616031646729
			vertex 0.10000000149011612 -0.18139205873012543 0.23112663626670837
			vertex 0.09395229071378708 -0.18096676468849182 0.23619616031646729
		endloop
	endfacet
	facet normal 1 0 0
		outer loop
			vertex 0.10000000149011612 -0.19049996137619019 0.22936926782131195
			vertex 0.10000000149011612 -0.1892767697572708 0.22834289073944092
			vertex 0.10000000149011612 -0.18139205873012543 0.23112663626670837
		endloop
	endfacet
	facet normal 1 0 0
		outer loop
			vertex 0.10000000149011612 -0.1023595929145813 0.23619616031646729
			vertex 0.10000000149011612 -0.16703307628631592 0.23619616031646729
			vertex 0.10000000149011612 -0.1892767697572708 0.22834289073944092
		endloop
	endfacet
	facet normal 1 0 0
		outer loop
			vertex 0.10000000149011612 -0.1023595929145813 0.23619616031646729
			vertex 0.10000000149011612 -0.1892767697572708 0.22834289073944092
			vertex 0.10000000149011612 -0.17752575874328613 0.21848253905773163
		endloop
	endfacet
	facet normal 1 0 0
		outer loop
			vertex 0.10000000149011612 -0.1023595929145813 0.23619616031646729
			vertex 0.10000000149011612 -0.17752575874328613 0.21848253905773163
			vertex 0.10000000149011612 -0.1023595929145813 0.23132359981536865
		endloop
	endfacet
	facet normal 0.6293057290198768 -0.1472398097844442 0.7630823925615124
		outer loop
			vertex 0.09052373468875885 -0.1956208348274231 0.23619616031646729
			vertex 0.0904795452952385 -0.1973295956850052 0.23590289056301117
			vertex 0.10000000149011612 -0.1926080733537674 0.2289625108242035
		endloop
	endfacet
	facet normal 0.6293053093428344 -0.14723580206768774 0.7630835119581635
		outer loop
			vertex 0.09052373468875885 -0.1956208348274231 0.23619616031646729
			vertex 0.10000000149011612 -0.1926080733537674 0.2289625108242035
			vertex 0.10000000149011612 -0.19049996137619019 0.22936926782131195
		endloop
	endfacet
	facet normal 0.62930509366352 -0.1472349454880023 0.7630838551013206
		outer loop
			vertex 0.09052373468875885 -0.1956208348274231 0.23619616031646729
			vertex 0.10000000149011612 -0.19049996137619019 0.22936926782131195
			vertex 0.09217519313097 -0.18856224417686462 0.23619616031646729
		endloop
	endfacet
	facet normal 0.46733908638621907 -0.8047044863209802 0.3661213842847501
		outer loop
			vertex 0.06442161649465561 -0.2632113993167877 0.14171770215034485
			vertex 0.10000000149011612 -0.2358144372701645 0.1565195918083191
			vertex 0.10000000149011612 -0.21440568566322327 0.2035742551088333
		endloop
	endfacet
	facet normal 0.46733934146621137 -0.804704426432233 0.3661211903158553
		outer loop
			vertex 0.06442161649465561 -0.2632113993167877 0.14171770215034485
			vertex 0.10000000149011612 -0.21440568566322327 0.2035742551088333
			vertex 0.08408224582672119 -0.21394093334674835 0.22491413354873657
		endloop
	endfacet
	facet normal 0.46733972136610746 -0.8047042848079012 0.36612101666696656
		outer loop
			vertex 0.06442161649465561 -0.2632113993167877 0.14171770215034485
			vertex 0.08408224582672119 -0.21394093334674835 0.22491413354873657
			vertex 0.03717518597841263 -0.2740117311477661 0.15275849401950836
		endloop
	endfacet
	facet normal 0.46733928212675174 -0.8047056331869612 0.3661186137011122
		outer loop
			vertex 0.06442161649465561 -0.2632113993167877 0.14171770215034485
			vertex 0.03717518597841263 -0.2740117311477661 0.15275849401950836
			vertex 0.0524703711271286 -0.27015218138694763 0.14171770215034485
		endloop
	endfacet
	facet normal 0.5007892951652406 -0.8121214992117217 0.29944741168693884
		outer loop
			vertex 0.10000000149011612 -0.2412722259759903 0.14171770215034485
			vertex 0.10000000149011612 -0.2358144372701645 0.1565195918083191
			vertex 0.06442161649465561 -0.2632113993167877 0.14171770215034485
		endloop
	endfacet
	facet normal 0.6481593210954394 -0.5777690813425764 0.4960568345680306
		outer loop
			vertex 0.10000000149011612 -0.1926080733537674 0.2289625108242035
			vertex 0.0904795452952385 -0.1973295956850052 0.23590289056301117
			vertex 0.08408224582672119 -0.21394093334674835 0.22491413354873657
		endloop
	endfacet
	facet normal 0.6481598997909569 -0.5777693174596158 0.49605580341855354
		outer loop
			vertex 0.10000000149011612 -0.1926080733537674 0.2289625108242035
			vertex 0.08408224582672119 -0.21394093334674835 0.22491413354873657
			vertex 0.10000000149011612 -0.21440568566322327 0.2035742551088333
		endloop
	endfacet
	facet normal 1 0 0
		outer loop
			vertex 0.10000000149011612 -0.21822115778923035 0.19518813490867615
			vertex 0.10000000149011612 -0.1023595929145813 0.14171770215034485
			vertex 0.10000000149011612 -0.1023595929145813 0.155410036444664
		endloop
	endfacet
	facet normal 1 0 0
		outer loop
			vertex 0.10000000149011612 -0.21822115778923035 0.19518813490867615
			vertex 0.10000000149011612 -0.1023595929145813 0.155410036444664
			vertex 0.10000000149011612 -0.19049996137619019 0.22936926782131195
		endloop
	endfacet
	facet normal 1 0 0
		outer loop
			vertex 0.10000000149011612 -0.21822115778923035 0.19518813490867615
			vertex 0.10000000149011612 -0.19049996137619019 0.22936926782131195
			vertex 0.10000000149011612 -0.1926080733537674 0.2289625108242035
		endloop
	endfacet
	facet normal 1 0 0
		outer loop
			vertex 0.10000000149011612 -0.21822115778923035 0.19518813490867615
			vertex 0.10000000149011612 -0.1926080733537674 0.2289625108242035
			vertex 0.10000000149011612 -0.21440568566322327 0.2035742551088333
		endloop
	endfacet
	facet normal 1 0 0
		outer loop
			vertex 0.10000000149011612 -0.2412722259759903 0.14171770215034485
			vertex 0.10000000149011612 -0.1023595929145813 0.14171770215034485
			vertex 0.10000000149011612 -0.21822115778923035 0.19518813490867615
		endloop
	endfacet
	facet normal 1 0 0
		outer loop
			vertex 0.10000000149011612 -0.2412722259759903 0.14171770215034485
			vertex 0.10000000149011612 -0.21822115778923035 0.19518813490867615
			vertex 0.10000000149011612 -0.2358144372701645 0.1565195918083191
		endloop
	endfacet
	facet normal -1 0 0
		outer loop
			vertex -0.10000000149011612 -0.2670271396636963 0.16020163893699646
			vertex -0.10000000149011612 -0.26642006635665894 0.160481795668602
			vertex -0.10000000149011612 -0.2700214684009552 0.1513720154762268
		endloop
	endfacet
	facet normal -1 0 0
		outer loop
			vertex -0.10000000149011612 -0.26642006635665894 0.160481795668602
			vertex -0.10000000149011612 -0.2670271396636963 0.16020163893699646
			vertex -0.10000000149011612 -0.2446851283311844 0.22608362138271332
		endloop
	endfacet
	facet normal -1 0 0
		outer loop
			vertex -0.10000000149011612 -0.26642006635665894 0.160481795668602
			vertex -0.10000000149011612 -0.2446851283311844 0.22608362138271332
			vertex -0.10000000149011612 -0.23754450678825378 0.23352287709712982
		endloop
	endfacet
	facet normal -1 0 0
		outer loop
			vertex -0.10000000149011612 -0.18017855286598206 0.14171770215034485
			vertex -0.10000000149011612 -0.2738381326198578 0.14171770215034485
			vertex -0.10000000149011612 -0.26642006635665894 0.160481795668602
		endloop
	endfacet
	facet normal -1 0 0
		outer loop
			vertex -0.10000000149011612 -0.18017855286598206 0.14171770215034485
			vertex -0.10000000149011612 -0.26642006635665894 0.160481795668602
			vertex -0.10000000149011612 -0.1023595929145813 0.23619616031646729
		endloop
	endfacet
	facet normal -1 0 0
		outer loop
			vertex -0.10000000149011612 -0.18017855286598206 0.14171770215034485
			vertex -0.10000000149011612 -0.1023595929145813 0.23619616031646729
			vertex -0.10000000149011612 -0.1023595929145813 0.15135416388511658
		endloop
	endfacet
	facet normal -1 0 0
		outer loop
			vertex -0.10000000149011612 -0.2349785566329956 0.23619616031646729
			vertex -0.10000000149011612 -0.1023595929145813 0.23619616031646729
			vertex -0.10000000149011612 -0.26642006635665894 0.160481795668602
		endloop
	endfacet
	facet normal -1 0 0
		outer loop
			vertex -0.10000000149011612 -0.2349785566329956 0.23619616031646729
			vertex -0.10000000149011612 -0.26642006635665894 0.160481795668602
			vertex -0.10000000149011612 -0.23754450678825378 0.23352287709712982
		endloop
	endfacet
	facet normal -1 0 0
		outer loop
			vertex -0.10000000149011612 -0.10826065391302109 0.14171770215034485
			vertex -0.10000000149011612 -0.18017855286598206 0.14171770215034485
			vertex -0.10000000149011612 -0.10279210656881332 0.1513006091117859
		endloop
	endfacet
	facet normal -1 0 0
		outer loop
			vertex -0.10000000149011612 -0.1023595929145813 0.14171770215034485
			vertex -0.10000000149011612 -0.10826065391302109 0.14171770215034485
			vertex -0.10000000149011612 -0.10279210656881332 0.1513006091117859
		endloop
	endfacet
	facet normal -1 0 0
		outer loop
			vertex -0.10000000149011612 -0.1023595929145813 0.14171770215034485
			vertex -0.10000000149011612 -0.10279210656881332 0.1513006091117859
			vertex -0.10000000149011612 -0.1023595929145813 0.15135416388511658
		endloop
	endfacet
	facet normal 0 1 0
		outer loop
			vertex -0.10000000149011612 -0.1023595929145813 0.15135416388511658
			vertex -0.10000000149011612 -0.1023595929145813 0.23619616031646729
			vertex -0.0746874138712883 -0.1023595929145813 0.22423869371414185
		endloop
	endfacet
	facet normal 0 1 0
		outer loop
			vertex -0.10000000149011612 -0.1023595929145813 0.23619616031646729
			vertex -0.0705346092581749 -0.1023595929145813 0.23619616031646729
			vertex -0.0746874138712883 -0.1023595929145813 0.22423869371414185
		endloop
	endfacet
	facet normal 0 1 0
		outer loop
			vertex -0.09970717877149582 -0.1023595929145813 0.15219730138778687
			vertex -0.0746874138712883 -0.1023595929145813 0.22423869371414185
			vertex -0.011090245097875595 -0.1023595929145813 0.19419586658477783
		endloop
	endfacet
	facet normal 0 1 0
		outer loop
			vertex -0.0705346092581749 -0.1023595929145813 0.23619616031646729
			vertex 0.04826333373785019 -0.1023595929145813 0.23619616031646729
			vertex 0.059827279299497604 -0.1023595929145813 0.23036007583141327
		endloop
	endfacet
	facet normal 0 1 0
		outer loop
			vertex -0.0705346092581749 -0.1023595929145813 0.23619616031646729
			vertex 0.059827279299497604 -0.1023595929145813 0.23036007583141327
			vertex 0.057023126631975174 -0.1023595929145813 0.22647711634635925
		endloop
	endfacet
	facet normal 0 1 0
		outer loop
			vertex -0.0705346092581749 -0.1023595929145813 0.23619616031646729
			vertex 0.057023126631975174 -0.1023595929145813 0.22647711634635925
			vertex -0.011090245097875595 -0.1023595929145813 0.19419586658477783
		endloop
	endfacet
	facet normal 0 1 0
		outer loop
			vertex -0.0705346092581749 -0.1023595929145813 0.23619616031646729
			vertex -0.011090245097875595 -0.1023595929145813 0.19419586658477783
			vertex -0.0746874138712883 -0.1023595929145813 0.22423869371414185
		endloop
	endfacet
	facet normal 0 1 0
		outer loop
			vertex -0.10000000149011612 -0.1023595929145813 0.14171770215034485
			vertex -0.10000000149011612 -0.1023595929145813 0.15135416388511658
			vertex -0.09970717877149582 -0.1023595929145813 0.15219730138778687
		endloop
	endfacet
	facet normal 0 1 0
		outer loop
			vertex -0.10000000149011612 -0.1023595929145813 0.14171770215034485
			vertex -0.09970717877149582 -0.1023595929145813 0.15219730138778687
			vertex -0.011090245097875595 -0.1023595929145813 0.19419586658477783
		endloop
	endfacet
	facet normal 0 1 0
		outer loop
			vertex -0.10000000149011612 -0.1023595929145813 0.14171770215034485
			vertex -0.011090245097875595 -0.1023595929145813 0.19419586658477783
			vertex 0.0223146490752697 -0.1023595929145813 0.17841565608978271
		endloop
	endfacet
	facet normal 0 1 0
		outer loop
			vertex -0.10000000149011612 -0.1023595929145813 0.14171770215034485
			vertex 0.0223146490752697 -0.1023595929145813 0.17841565608978271
			vertex -0.004187475889921188 -0.1023595929145813 0.14171770215034485
		endloop
	endfacet
	facet normal 0 1 0
		outer loop
			vertex 0.057023126631975174 -0.1023595929145813 0.22647711634635925
			vertex 0.0223146490752697 -0.1023595929145813 0.17841565608978271
			vertex -0.011090245097875595 -0.1023595929145813 0.19419586658477783
		endloop
	endfacet
	facet normal 0 1 0
		outer loop
			vertex 0.04826333373785019 -0.1023595929145813 0.23619616031646729
			vertex 0.06404192000627518 -0.1023595929145813 0.23619616031646729
			vertex 0.059827279299497604 -0.1023595929145813 0.23036007583141327
		endloop
	endfacet
	facet normal 0 1 0
		outer loop
			vertex 0.0223146490752697 -0.1023595929145813 0.17841565608978271
			vertex 0.03457723930478096 -0.1023595929145813 0.1726229190826416
			vertex 0.011913415975868702 -0.1023595929145813 0.14171770215034485
		endloop
	endfacet
	facet normal 0 1 0
		outer loop
			vertex 0.0223146490752697 -0.1023595929145813 0.17841565608978271
			vertex 0.011913415975868702 -0.1023595929145813 0.14171770215034485
			vertex -0.004187475889921188 -0.1023595929145813 0.14171770215034485
		endloop
	endfacet
	facet normal 0 1 0
		outer loop
			vertex 0.06404192000627518 -0.1023595929145813 0.23619616031646729
			vertex 0.08119761943817139 -0.1023595929145813 0.23619616031646729
			vertex 0.03457723930478096 -0.1023595929145813 0.1726229190826416
		endloop
	endfacet
	facet normal 0 1 0
		outer loop
			vertex 0.06404192000627518 -0.1023595929145813 0.23619616031646729
			vertex 0.03457723930478096 -0.1023595929145813 0.1726229190826416
			vertex 0.0223146490752697 -0.1023595929145813 0.17841565608978271
		endloop
	endfacet
	facet normal 0 1 0
		outer loop
			vertex 0.08119761943817139 -0.1023595929145813 0.23619616031646729
			vertex 0.09351178258657455 -0.1023595929145813 0.23619616031646729
			vertex 0.10000000149011612 -0.1023595929145813 0.23132359981536865
		endloop
	endfacet
	facet normal 0 1 0
		outer loop
			vertex 0.08119761943817139 -0.1023595929145813 0.23619616031646729
			vertex 0.10000000149011612 -0.1023595929145813 0.23132359981536865
			vertex 0.10000000149011612 -0.1023595929145813 0.155410036444664
		endloop
	endfacet
	facet normal 0 1 0
		outer loop
			vertex 0.08119761943817139 -0.1023595929145813 0.23619616031646729
			vertex 0.10000000149011612 -0.1023595929145813 0.155410036444664
			vertex 0.056452471762895584 -0.1023595929145813 0.20245276391506195
		endloop
	endfacet
	facet normal 0 1 0
		outer loop
			vertex 0.09351178258657455 -0.1023595929145813 0.23619616031646729
			vertex 0.10000000149011612 -0.1023595929145813 0.23619616031646729
			vertex 0.10000000149011612 -0.1023595929145813 0.23132359981536865
		endloop
	endfacet
	facet normal 0 1 0
		outer loop
			vertex 0.03457723930478096 -0.1023595929145813 0.1726229190826416
			vertex 0.10000000149011612 -0.1023595929145813 0.14171770215034485
			vertex 0.011913415975868702 -0.1023595929145813 0.14171770215034485
		endloop
	endfacet
	facet normal 0 1 0
		outer loop
			vertex 0.10000000149011612 -0.1023595929145813 0.155410036444664
			vertex 0.10000000149011612 -0.1023595929145813 0.14171770215034485
			vertex 0.03457723930478096 -0.1023595929145813 0.1726229190826416
		endloop
	endfacet
	facet normal 0 1 0
		outer loop
			vertex 0.10000000149011612 -0.1023595929145813 0.155410036444664
			vertex 0.03457723930478096 -0.1023595929145813 0.1726229190826416
			vertex 0.056452471762895584 -0.1023595929145813 0.20245276391506195
		endloop
	endfacet
	facet normal 0 0 1
		outer loop
			vertex -0.10000000149011612 -0.1023595929145813 0.23619616031646729
			vertex -0.10000000149011612 -0.2349785566329956 0.23619616031646729
			vertex -0.0789441466331482 -0.24783830344676971 0.23619616031646729
		endloop
	endfacet
	facet normal 0 0 1
		outer loop
			vertex -0.10000000149011612 -0.1023595929145813 0.23619616031646729
			vertex -0.0789441466331482 -0.24783830344676971 0.23619616031646729
			vertex -0.06421727687120438 -0.2492523193359375 0.23619616031646729
		endloop
	endfacet
	facet normal 0 0 1
		outer loop
			vertex -0.10000000149011612 -0.1023595929145813 0.23619616031646729
			vertex -0.06421727687120438 -0.2492523193359375 0.23619616031646729
			vertex -0.0705346092581749 -0.1023595929145813 0.23619616031646729
		endloop
	endfacet
	facet normal 0 0 1
		outer loop
			vertex 0.05152202025055885 -0.22771750390529633 0.23619616031646729
			vertex 0.003682908369228244 -0.2555004954338074 0.23619616031646729
			vertex 0.00796029344201088 -0.25589385628700256 0.23619616031646729
		endloop
	endfacet
	facet normal 0 0 1
		outer loop
			vertex 0.05152202025055885 -0.22771750390529633 0.23619616031646729
			vertex 0.00796029344201088 -0.25589385628700256 0.23619616031646729
			vertex 0.023129597306251526 -0.247967928647995 0.23619616031646729
		endloop
	endfacet
	facet normal 0 0 1
		outer loop
			vertex -0.045217495411634445 -0.251003623008728 0.23619616031646729
			vertex 0.06461099535226822 -0.13858364522457123 0.23619616031646729
			vertex 0.04826333373785019 -0.1023595929145813 0.23619616031646729
		endloop
	endfacet
	facet normal 0 0 1
		outer loop
			vertex -0.045217495411634445 -0.251003623008728 0.23619616031646729
			vertex 0.04826333373785019 -0.1023595929145813 0.23619616031646729
			vertex -0.0705346092581749 -0.1023595929145813 0.23619616031646729
		endloop
	endfacet
	facet normal 0 0 1
		outer loop
			vertex -0.045217495411634445 -0.251003623008728 0.23619616031646729
			vertex -0.0705346092581749 -0.1023595929145813 0.23619616031646729
			vertex -0.06421727687120438 -0.2492523193359375 0.23619616031646729
		endloop
	endfacet
	facet normal 0 0 1
		outer loop
			vertex -0.045217495411634445 -0.251003623008728 0.23619616031646729
			vertex -0.06421727687120438 -0.2492523193359375 0.23619616031646729
			vertex -0.06320804357528687 -0.2493492215871811 0.23619616031646729
		endloop
	endfacet
	facet normal 0 0 1
		outer loop
			vertex 0.06900278478860855 -0.2175653874874115 0.23619616031646729
			vertex 0.065706267952919 -0.1410105973482132 0.23619616031646729
			vertex 0.06461099535226822 -0.13858364522457123 0.23619616031646729
		endloop
	endfacet
	facet normal 0 0 1
		outer loop
			vertex 0.06900278478860855 -0.2175653874874115 0.23619616031646729
			vertex 0.06461099535226822 -0.13858364522457123 0.23619616031646729
			vertex -0.045217495411634445 -0.251003623008728 0.23619616031646729
		endloop
	endfacet
	facet normal 0 0 1
		outer loop
			vertex 0.06900278478860855 -0.2175653874874115 0.23619616031646729
			vertex -0.045217495411634445 -0.251003623008728 0.23619616031646729
			vertex 0.003682908369228244 -0.2555004954338074 0.23619616031646729
		endloop
	endfacet
	facet normal 0 0 1
		outer loop
			vertex 0.06461099535226822 -0.13858364522457123 0.23619616031646729
			vertex 0.06555993109941483 -0.13761229813098907 0.23619616031646729
			vertex 0.06404192000627518 -0.1023595929145813 0.23619616031646729
		endloop
	endfacet
	facet normal 0 0 1
		outer loop
			vertex 0.06461099535226822 -0.13858364522457123 0.23619616031646729
			vertex 0.06404192000627518 -0.1023595929145813 0.23619616031646729
			vertex 0.04826333373785019 -0.1023595929145813 0.23619616031646729
		endloop
	endfacet
	facet normal 0 0 1
		outer loop
			vertex 0.065706267952919 -0.1410105973482132 0.23619616031646729
			vertex 0.06555993109941483 -0.13761229813098907 0.23619616031646729
			vertex 0.06461099535226822 -0.13858364522457123 0.23619616031646729
		endloop
	endfacet
	facet normal 0 0 1
		outer loop
			vertex 0.06555993109941483 -0.13761229813098907 0.23619616031646729
			vertex 0.08294351398944855 -0.1198185458779335 0.23619616031646729
			vertex 0.08119761943817139 -0.1023595929145813 0.23619616031646729
		endloop
	endfacet
	facet normal 0 0 1
		outer loop
			vertex 0.06555993109941483 -0.13761229813098907 0.23619616031646729
			vertex 0.08119761943817139 -0.1023595929145813 0.23619616031646729
			vertex 0.06404192000627518 -0.1023595929145813 0.23619616031646729
		endloop
	endfacet
	facet normal 0 0 1
		outer loop
			vertex 0.08495788276195526 -0.13996227085590363 0.23619616031646729
			vertex 0.08294351398944855 -0.1198185458779335 0.23619616031646729
			vertex 0.06555993109941483 -0.13761229813098907 0.23619616031646729
		endloop
	endfacet
	facet normal 0 0 1
		outer loop
			vertex 0.08495788276195526 -0.13996227085590363 0.23619616031646729
			vertex 0.06555993109941483 -0.13761229813098907 0.23619616031646729
			vertex 0.06873250007629395 -0.21128854155540466 0.23619616031646729
		endloop
	endfacet
	facet normal 0 0 1
		outer loop
			vertex 0.09052373468875885 -0.1956208348274231 0.23619616031646729
			vertex 0.08997473120689392 -0.19013087451457977 0.23619616031646729
			vertex 0.08361904323101044 -0.20477412641048431 0.23619616031646729
		endloop
	endfacet
	facet normal 0 0 1
		outer loop
			vertex 0.09052373468875885 -0.1956208348274231 0.23619616031646729
			vertex 0.08361904323101044 -0.20477412641048431 0.23619616031646729
			vertex 0.09007725864648819 -0.1975291222333908 0.23619616031646729
		endloop
	endfacet
	facet normal 0 0 1
		outer loop
			vertex 0.08997473120689392 -0.19013087451457977 0.23619616031646729
			vertex 0.08495788276195526 -0.13996227085590363 0.23619616031646729
			vertex 0.06873250007629395 -0.21128854155540466 0.23619616031646729
		endloop
	endfacet
	facet normal 0 0 1
		outer loop
			vertex 0.08997473120689392 -0.19013087451457977 0.23619616031646729
			vertex 0.06873250007629395 -0.21128854155540466 0.23619616031646729
			vertex 0.06900278478860855 -0.2175653874874115 0.23619616031646729
		endloop
	endfacet
	facet normal 0 0 1
		outer loop
			vertex 0.08997473120689392 -0.19013087451457977 0.23619616031646729
			vertex 0.06900278478860855 -0.2175653874874115 0.23619616031646729
			vertex 0.07566677778959274 -0.213695228099823 0.23619616031646729
		endloop
	endfacet
	facet normal 0 0 1
		outer loop
			vertex 0.08997473120689392 -0.19013087451457977 0.23619616031646729
			vertex 0.07566677778959274 -0.213695228099823 0.23619616031646729
			vertex 0.08361904323101044 -0.20477412641048431 0.23619616031646729
		endloop
	endfacet
	facet normal 0 0 1
		outer loop
			vertex 0.08294351398944855 -0.1198185458779335 0.23619616031646729
			vertex 0.09154245257377625 -0.11101670563220978 0.23619616031646729
			vertex 0.09351178258657455 -0.1023595929145813 0.23619616031646729
		endloop
	endfacet
	facet normal 0 0 1
		outer loop
			vertex 0.08294351398944855 -0.1198185458779335 0.23619616031646729
			vertex 0.09351178258657455 -0.1023595929145813 0.23619616031646729
			vertex 0.08119761943817139 -0.1023595929145813 0.23619616031646729
		endloop
	endfacet
	facet normal 0 0 1
		outer loop
			vertex 0.09154245257377625 -0.11101670563220978 0.23619616031646729
			vertex 0.08294351398944855 -0.1198185458779335 0.23619616031646729
			vertex 0.08495788276195526 -0.13996227085590363 0.23619616031646729
		endloop
	endfacet
	facet normal 0 0 1
		outer loop
			vertex 0.09395229071378708 -0.18096676468849182 0.23619616031646729
			vertex 0.0912003144621849 -0.187307208776474 0.23619616031646729
			vertex 0.09217519313097 -0.18856224417686462 0.23619616031646729
		endloop
	endfacet
	facet normal 0 0 1
		outer loop
			vertex 0.09154245257377625 -0.11101670563220978 0.23619616031646729
			vertex 0.10000000149011612 -0.1023595929145813 0.23619616031646729
			vertex 0.09351178258657455 -0.1023595929145813 0.23619616031646729
		endloop
	endfacet
	facet normal 0 0 1
		outer loop
			vertex 0.10000000149011612 -0.16703307628631592 0.23619616031646729
			vertex 0.10000000149011612 -0.1023595929145813 0.23619616031646729
			vertex 0.09154245257377625 -0.11101670563220978 0.23619616031646729
		endloop
	endfacet
	facet normal 0 0 1
		outer loop
			vertex 0.10000000149011612 -0.16703307628631592 0.23619616031646729
			vertex 0.09154245257377625 -0.11101670563220978 0.23619616031646729
			vertex 0.08495788276195526 -0.13996227085590363 0.23619616031646729
		endloop
	endfacet
	facet normal 0 0 1
		outer loop
			vertex 0.10000000149011612 -0.16703307628631592 0.23619616031646729
			vertex 0.08495788276195526 -0.13996227085590363 0.23619616031646729
			vertex 0.0894695520401001 -0.18507903814315796 0.23619616031646729
		endloop
	endfacet
	facet normal 0 0 1
		outer loop
			vertex 0.10000000149011612 -0.16703307628631592 0.23619616031646729
			vertex 0.0894695520401001 -0.18507903814315796 0.23619616031646729
			vertex 0.0912003144621849 -0.187307208776474 0.23619616031646729
		endloop
	endfacet
	facet normal 0 0 1
		outer loop
			vertex 0.09217519313097 -0.18856224417686462 0.23619616031646729
			vertex 0.0894695520401001 -0.18507903814315796 0.23619616031646729
			vertex 0.09052373468875885 -0.1956208348274231 0.23619616031646729
		endloop
	endfacet
	facet normal 0 0 -1
		outer loop
			vertex -0.09635500609874725 -0.2767203748226166 0.14171770215034485
			vertex -0.09583023190498352 -0.27713531255722046 0.14171770215034485
			vertex -0.09582673758268356 -0.27721676230430603 0.14171770215034485
		endloop
	endfacet
	facet normal 0 0 -1
		outer loop
			vertex -0.10000000149011612 -0.2738381326198578 0.14171770215034485
			vertex -0.10000000149011612 -0.18017855286598206 0.14171770215034485
			vertex -0.09583023190498352 -0.27713531255722046 0.14171770215034485
		endloop
	endfacet
	facet normal 0 0 -1
		outer loop
			vertex -0.08654826134443283 -0.28593501448631287 0.14171770215034485
			vertex -0.09582673758268356 -0.27721676230430603 0.14171770215034485
			vertex -0.09583023190498352 -0.27713531255722046 0.14171770215034485
		endloop
	endfacet
	facet normal 0 0 -1
		outer loop
			vertex -0.08654826134443283 -0.28593501448631287 0.14171770215034485
			vertex -0.09583023190498352 -0.27713531255722046 0.14171770215034485
			vertex -0.08452597260475159 -0.28607407212257385 0.14171770215034485
		endloop
	endfacet
	facet normal 0 0 -1
		outer loop
			vertex 0.00023037148639559746 -0.20495499670505524 0.14171770215034485
			vertex -0.09216476231813431 -0.11037971079349518 0.14171770215034485
			vertex -0.0028014022391289473 -0.13454829156398773 0.14171770215034485
		endloop
	endfacet
	facet normal 0 0 -1
		outer loop
			vertex -0.08452597260475159 -0.28607407212257385 0.14171770215034485
			vertex -0.09583023190498352 -0.27713531255722046 0.14171770215034485
			vertex -0.10000000149011612 -0.18017855286598206 0.14171770215034485
		endloop
	endfacet
	facet normal 0 0 -1
		outer loop
			vertex -0.08452597260475159 -0.28607407212257385 0.14171770215034485
			vertex -0.10000000149011612 -0.18017855286598206 0.14171770215034485
			vertex -0.10000000149011612 -0.10826065391302109 0.14171770215034485
		endloop
	endfacet
	facet normal 0 0 -1
		outer loop
			vertex -0.08452597260475159 -0.28607407212257385 0.14171770215034485
			vertex -0.10000000149011612 -0.10826065391302109 0.14171770215034485
			vertex -0.09216476231813431 -0.11037971079349518 0.14171770215034485
		endloop
	endfacet
	facet normal 0 0 -1
		outer loop
			vertex -0.08452597260475159 -0.28607407212257385 0.14171770215034485
			vertex -0.09216476231813431 -0.11037971079349518 0.14171770215034485
			vertex 0.00023037148639559746 -0.20495499670505524 0.14171770215034485
		endloop
	endfacet
	facet normal 0 0 -1
		outer loop
			vertex -0.08452597260475159 -0.28607407212257385 0.14171770215034485
			vertex 0.00023037148639559746 -0.20495499670505524 0.14171770215034485
			vertex 0.003977084998041391 -0.29196467995643616 0.14171770215034485
		endloop
	endfacet
	facet normal 0 0 -1
		outer loop
			vertex -0.08452597260475159 -0.28607407212257385 0.14171770215034485
			vertex 0.003977084998041391 -0.29196467995643616 0.14171770215034485
			vertex -0.06312304735183716 -0.28754565119743347 0.14171770215034485
		endloop
	endfacet
	facet normal 0 0 -1
		outer loop
			vertex -0.09216476231813431 -0.11037971079349518 0.14171770215034485
			vertex -0.10000000149011612 -0.1023595929145813 0.14171770215034485
			vertex -0.004187475889921188 -0.1023595929145813 0.14171770215034485
		endloop
	endfacet
	facet normal 0 0 -1
		outer loop
			vertex -0.09216476231813431 -0.11037971079349518 0.14171770215034485
			vertex -0.004187475889921188 -0.1023595929145813 0.14171770215034485
			vertex -0.0028014022391289473 -0.13454829156398773 0.14171770215034485
		endloop
	endfacet
	facet normal 0 0 -1
		outer loop
			vertex -0.10000000149011612 -0.10826065391302109 0.14171770215034485
			vertex -0.10000000149011612 -0.1023595929145813 0.14171770215034485
			vertex -0.09216476231813431 -0.11037971079349518 0.14171770215034485
		endloop
	endfacet
	facet normal 0 0 -1
		outer loop
			vertex 0.013798089697957039 -0.2926114797592163 0.14171770215034485
			vertex 0.02292683534324169 -0.2873098850250244 0.14171770215034485
			vertex 0.015350321307778358 -0.2927137017250061 0.14171770215034485
		endloop
	endfacet
	facet normal 0 0 -1
		outer loop
			vertex 0.024675089865922928 -0.22997650504112244 0.14171770215034485
			vertex 0.00023037148639559746 -0.20495499670505524 0.14171770215034485
			vertex -0.004187475889921188 -0.1023595929145813 0.14171770215034485
		endloop
	endfacet
	facet normal 0 0 -1
		outer loop
			vertex 0.024675089865922928 -0.22997650504112244 0.14171770215034485
			vertex -0.004187475889921188 -0.1023595929145813 0.14171770215034485
			vertex 0.011913415975868702 -0.1023595929145813 0.14171770215034485
		endloop
	endfacet
	facet normal 0 0 -1
		outer loop
			vertex 0.003977084998041391 -0.29196467995643616 0.14171770215034485
			vertex 0.00023037148639559746 -0.20495499670505524 0.14171770215034485
			vertex 0.024675089865922928 -0.22997650504112244 0.14171770215034485
		endloop
	endfacet
	facet normal 0 0 -1
		outer loop
			vertex 0.003977084998041391 -0.29196467995643616 0.14171770215034485
			vertex 0.024675089865922928 -0.22997650504112244 0.14171770215034485
			vertex 0.029997767880558968 -0.2832033634185791 0.14171770215034485
		endloop
	endfacet
	facet normal 0 0 -1
		outer loop
			vertex 0.003977084998041391 -0.29196467995643616 0.14171770215034485
			vertex 0.029997767880558968 -0.2832033634185791 0.14171770215034485
			vertex 0.013798089697957039 -0.2926114797592163 0.14171770215034485
		endloop
	endfacet
	facet normal 0 0 -1
		outer loop
			vertex 0.029997767880558968 -0.2832033634185791 0.14171770215034485
			vertex 0.02738668955862522 -0.25709253549575806 0.14171770215034485
			vertex 0.0524703711271286 -0.27015218138694763 0.14171770215034485
		endloop
	endfacet
	facet normal 0 0 -1
		outer loop
			vertex 0.10000000149011612 -0.1023595929145813 0.14171770215034485
			vertex 0.10000000149011612 -0.2412722259759903 0.14171770215034485
			vertex 0.06442161649465561 -0.2632113993167877 0.14171770215034485
		endloop
	endfacet
	facet normal 0 0 -1
		outer loop
			vertex 0.10000000149011612 -0.1023595929145813 0.14171770215034485
			vertex 0.06442161649465561 -0.2632113993167877 0.14171770215034485
			vertex 0.05977833271026611 -0.26590803265571594 0.14171770215034485
		endloop
	endfacet
	facet normal 0 0 -1
		outer loop
			vertex 0.10000000149011612 -0.1023595929145813 0.14171770215034485
			vertex 0.05977833271026611 -0.26590803265571594 0.14171770215034485
			vertex 0.024675089865922928 -0.22997650504112244 0.14171770215034485
		endloop
	endfacet
	facet normal 0 0 -1
		outer loop
			vertex 0.10000000149011612 -0.1023595929145813 0.14171770215034485
			vertex 0.024675089865922928 -0.22997650504112244 0.14171770215034485
			vertex 0.011913415975868702 -0.1023595929145813 0.14171770215034485
		endloop
	endfacet
	facet normal 0 0 -1
		outer loop
			vertex 0.02738668955862522 -0.25709253549575806 0.14171770215034485
			vertex 0.024675089865922928 -0.22997650504112244 0.14171770215034485
			vertex 0.05977833271026611 -0.26590803265571594 0.14171770215034485
		endloop
	endfacet
	facet normal 0 0 -1
		outer loop
			vertex 0.02738668955862522 -0.25709253549575806 0.14171770215034485
			vertex 0.05977833271026611 -0.26590803265571594 0.14171770215034485
			vertex 0.0524703711271286 -0.27015218138694763 0.14171770215034485
		endloop
	endfacet
endsolid exported
