solid exported
	facet normal 0.6086115592021478 -0.2641585729182022 0.748205999948777
		outer loop
			vertex 0.10000000149011612 -0.16703307628631592 0.23619616031646729
			vertex 0.10000000149011612 -0.18139205873012543 0.23112663626670837
			vertex 0.11112188547849655 -0.1821741908788681 0.22180365025997162
		endloop
	endfacet
	facet normal 0.6086112038624402 -0.2641589740610314 0.748206147365908
		outer loop
			vertex 0.10000000149011612 -0.16703307628631592 0.23619616031646729
			vertex 0.11112188547849655 -0.1821741908788681 0.22180365025997162
			vertex 0.1053069680929184 -0.15480604767799377 0.23619616031646729
		endloop
	endfacet
	facet normal 0.6293042754253783 -0.14723407323160348 0.7630846981895066
		outer loop
			vertex 0.10000000149011612 -0.19049996137619019 0.22936926782131195
			vertex 0.10283512622117996 -0.1912020444869995 0.22689571976661682
			vertex 0.1117405891418457 -0.1867855191230774 0.22040367126464844
		endloop
	endfacet
	facet normal 0.6293043787898656 -0.14723506983261017 0.763084420655597
		outer loop
			vertex 0.10000000149011612 -0.19049996137619019 0.22936926782131195
			vertex 0.1117405891418457 -0.1867855191230774 0.22040367126464844
			vertex 0.11112188547849655 -0.1821741908788681 0.22180365025997162
		endloop
	endfacet
	facet normal 0.629305081326548 -0.14723684624513028 0.7630834985271105
		outer loop
			vertex 0.10000000149011612 -0.19049996137619019 0.22936926782131195
			vertex 0.11112188547849655 -0.1821741908788681 0.22180365025997162
			vertex 0.10000000149011612 -0.18139205873012543 0.23112663626670837
		endloop
	endfacet
	facet normal 0.6481590389240883 -0.5777700154562257 0.49605611527398275
		outer loop
			vertex 0.1117405891418457 -0.1867855191230774 0.22040367126464844
			vertex 0.10283512622117996 -0.1912020444869995 0.22689571976661682
			vertex 0.10666751116514206 -0.19076912105083466 0.2223924696445465
		endloop
	endfacet
	facet normal 0.6481595371430016 -0.5777723080588382 0.49605279401585184
		outer loop
			vertex 0.1117405891418457 -0.1867855191230774 0.22040367126464844
			vertex 0.10666751116514206 -0.19076912105083466 0.2223924696445465
			vertex 0.11222992092370987 -0.18738920986652374 0.21906115114688873
		endloop
	endfacet
	facet normal 0.6481596215888428 -0.5777706341120863 0.49605463338177364
		outer loop
			vertex 0.10666751116514206 -0.19076912105083466 0.2223924696445465
			vertex 0.11427311599254608 -0.1899099349975586 0.21345548331737518
			vertex 0.11222992092370987 -0.18738920986652374 0.21906115114688873
		endloop
	endfacet
	facet normal 0.6293038012215179 -0.14723603342935254 0.7630847110433672
		outer loop
			vertex 0.10000000149011612 -0.1926080733537674 0.2289625108242035
			vertex 0.10283512622117996 -0.1912020444869995 0.22689571976661682
			vertex 0.10000000149011612 -0.19049996137619019 0.22936926782131195
		endloop
	endfacet
	facet normal 0.46733940350893205 -0.8047043337349588 0.36612131486174293
		outer loop
			vertex 0.10000000149011612 -0.2358144372701645 0.1565195918083191
			vertex 0.12678630650043488 -0.21518775820732117 0.16766366362571716
			vertex 0.10000000149011612 -0.21440568566322327 0.2035742551088333
		endloop
	endfacet
	facet normal 0.9877818476342707 -0.011955949035305719 0.15538364382035805
		outer loop
			vertex 0.13078178465366364 -0.22229082882404327 0.14171770215034485
			vertex 0.13089023530483246 -0.21333080530166626 0.14171770215034485
			vertex 0.12420203536748886 -0.19489744305610657 0.18565328419208527
		endloop
	endfacet
	facet normal 0.9877817259940396 -0.01195707902577421 0.15538433014113023
		outer loop
			vertex 0.13078178465366364 -0.22229082882404327 0.14171770215034485
			vertex 0.12420203536748886 -0.19489744305610657 0.18565328419208527
			vertex 0.12389995157718658 -0.2017868310213089 0.18704348802566528
		endloop
	endfacet
	facet normal 0.9877817884179926 -0.011956311418587152 0.1553839923769954
		outer loop
			vertex 0.13078178465366364 -0.22229082882404327 0.14171770215034485
			vertex 0.12389995157718658 -0.2017868310213089 0.18704348802566528
			vertex 0.12678630650043488 -0.21518775820732117 0.16766366362571716
		endloop
	endfacet
	facet normal 0.8835564514304605 -0.42258018255630664 0.20187616611747758
		outer loop
			vertex 0.13919158279895782 -0.17703568935394287 0.14171770215034485
			vertex 0.13386406004428864 -0.18081004917621613 0.1571340709924698
			vertex 0.13764014840126038 -0.18027952313423157 0.14171770215034485
		endloop
	endfacet
	facet normal 0.9541959897665631 -0.19487110894083137 0.22701379696745247
		outer loop
			vertex 0.12420203536748886 -0.19489744305610657 0.18565328419208527
			vertex 0.13089023530483246 -0.21333080530166626 0.14171770215034485
			vertex 0.13764014840126038 -0.18027952313423157 0.14171770215034485
		endloop
	endfacet
	facet normal 0.9541963795894388 -0.19486776523069918 0.22701502869281737
		outer loop
			vertex 0.12420203536748886 -0.19489744305610657 0.18565328419208527
			vertex 0.13764014840126038 -0.18027952313423157 0.14171770215034485
			vertex 0.13386406004428864 -0.18081004917621613 0.1571340709924698
		endloop
	endfacet
	facet normal 0.500789614729519 -0.8121213290546695 0.2994473387317662
		outer loop
			vertex 0.13078178465366364 -0.22229082882404327 0.14171770215034485
			vertex 0.12678630650043488 -0.21518775820732117 0.16766366362571716
			vertex 0.10000000149011612 -0.2358144372701645 0.1565195918083191
		endloop
	endfacet
	facet normal 0.5007896168777081 -0.8121213245730138 0.2994473472937303
		outer loop
			vertex 0.13078178465366364 -0.22229082882404327 0.14171770215034485
			vertex 0.10000000149011612 -0.2358144372701645 0.1565195918083191
			vertex 0.10000000149011612 -0.2412722259759903 0.14171770215034485
		endloop
	endfacet
	facet normal 0.648157828980535 -0.5777706547665608 0.49605695159110436
		outer loop
			vertex 0.10283512622117996 -0.1912020444869995 0.22689571976661682
			vertex 0.10000000149011612 -0.1926080733537674 0.2289625108242035
			vertex 0.10000000149011612 -0.21440568566322327 0.2035742551088333
		endloop
	endfacet
	facet normal 0.6481595511462135 -0.5777697097804857 0.4960558020204105
		outer loop
			vertex 0.10283512622117996 -0.1912020444869995 0.22689571976661682
			vertex 0.10000000149011612 -0.21440568566322327 0.2035742551088333
			vertex 0.12678630650043488 -0.21518775820732117 0.16766366362571716
		endloop
	endfacet
	facet normal 0.6481590046534135 -0.5777703054730706 0.496055822262224
		outer loop
			vertex 0.10283512622117996 -0.1912020444869995 0.22689571976661682
			vertex 0.12678630650043488 -0.21518775820732117 0.16766366362571716
			vertex 0.12389995157718658 -0.2017868310213089 0.18704348802566528
		endloop
	endfacet
	facet normal 0.6481603262898771 -0.5777686097307247 0.4960560704533568
		outer loop
			vertex 0.10283512622117996 -0.1912020444869995 0.22689571976661682
			vertex 0.12389995157718658 -0.2017868310213089 0.18704348802566528
			vertex 0.11427311599254608 -0.1899099349975586 0.21345548331737518
		endloop
	endfacet
	facet normal 0.9009388000465238 -0.04090022139799104 0.4320144100146723
		outer loop
			vertex 0.13405142724514008 -0.1023595929145813 0.18144141137599945
			vertex 0.11020120978355408 -0.1023595929145813 0.23117953538894653
			vertex 0.1500471532344818 -0.1524112969636917 0.14334477484226227
		endloop
	endfacet
	facet normal 0.9009366318429544 -0.04090407801586236 0.4320185665051278
		outer loop
			vertex 0.13405142724514008 -0.1023595929145813 0.18144141137599945
			vertex 0.1500471532344818 -0.1524112969636917 0.14334477484226227
			vertex 0.15026655793190002 -0.15217512845993042 0.14290958642959595
		endloop
	endfacet
	facet normal 0.6086118605592745 -0.2641586019663735 0.7482057445607788
		outer loop
			vertex 0.11112188547849655 -0.1821741908788681 0.22180365025997162
			vertex 0.11980724334716797 -0.18278497457504272 0.2145230919122696
			vertex 0.1092604547739029 -0.14569735527038574 0.23619616031646729
		endloop
	endfacet
	facet normal 0.608611515900567 -0.2641587144970349 0.7482059851862239
		outer loop
			vertex 0.11112188547849655 -0.1821741908788681 0.22180365025997162
			vertex 0.1092604547739029 -0.14569735527038574 0.23619616031646729
			vertex 0.1054273322224617 -0.15452872216701508 0.23619616031646729
		endloop
	endfacet
	facet normal 0.6085004993643119 -0.26421773919415886 0.7482754362990346
		outer loop
			vertex 0.11112188547849655 -0.1821741908788681 0.22180365025997162
			vertex 0.1054273322224617 -0.15452872216701508 0.23619616031646729
			vertex 0.10932646691799164 -0.1737239956855774 0.22624747455120087
		endloop
	endfacet
	facet normal 0.629305677784058 -0.14723459795681648 0.7630834404396694
		outer loop
			vertex 0.1117405891418457 -0.1867855191230774 0.22040367126464844
			vertex 0.11980724334716797 -0.18278497457504272 0.2145230919122696
			vertex 0.11112188547849655 -0.1821741908788681 0.22180365025997162
		endloop
	endfacet
	facet normal 0.6481597573644351 -0.5777720801012185 0.4960527717781527
		outer loop
			vertex 0.11980724334716797 -0.18278497457504272 0.2145230919122696
			vertex 0.1117405891418457 -0.1867855191230774 0.22040367126464844
			vertex 0.11222992092370987 -0.18738920986652374 0.21906115114688873
		endloop
	endfacet
	facet normal 0.9159444246535329 0.026470500035179263 0.4004311720807916
		outer loop
			vertex 0.1500471532344818 -0.1524112969636917 0.14334477484226227
			vertex 0.11020120978355408 -0.1023595929145813 0.23117953538894653
			vertex 0.10800804942846298 -0.1023595929145813 0.23619616031646729
		endloop
	endfacet
	facet normal 0.9159442703670625 0.026469606135055255 0.4004315840849778
		outer loop
			vertex 0.1500471532344818 -0.1524112969636917 0.14334477484226227
			vertex 0.10800804942846298 -0.1023595929145813 0.23619616031646729
			vertex 0.1092604547739029 -0.14569735527038574 0.23619616031646729
		endloop
	endfacet
	facet normal 0.9159442700322981 0.026469459052419108 0.4004315945732468
		outer loop
			vertex 0.1500471532344818 -0.1524112969636917 0.14334477484226227
			vertex 0.1092604547739029 -0.14569735527038574 0.23619616031646729
			vertex 0.11980724334716797 -0.18278497457504272 0.2145230919122696
		endloop
	endfacet
	facet normal 0.9159449580438116 0.02646567260034597 0.4004302710933969
		outer loop
			vertex 0.1500471532344818 -0.1524112969636917 0.14334477484226227
			vertex 0.11980724334716797 -0.18278497457504272 0.2145230919122696
			vertex 0.14817099273204803 -0.15534113347530365 0.14782994985580444
		endloop
	endfacet
	facet normal 0.987782125648352 -0.011952007072919543 0.15538217972648
		outer loop
			vertex 0.12147673219442368 -0.18738625943660736 0.20355603098869324
			vertex 0.11980724334716797 -0.18278497457504272 0.2145230919122696
			vertex 0.12117395550012589 -0.18913038074970245 0.20534665882587433
		endloop
	endfacet
	facet normal 0.8835560150505358 -0.4225814771603855 0.20187536607759698
		outer loop
			vertex 0.14817099273204803 -0.15534113347530365 0.14782994985580444
			vertex 0.11980724334716797 -0.18278497457504272 0.2145230919122696
			vertex 0.12432260811328888 -0.18215058743953705 0.19608846306800842
		endloop
	endfacet
	facet normal 0.9541959570244954 -0.19487101328120007 0.2270140167057215
		outer loop
			vertex 0.11980724334716797 -0.18278497457504272 0.2145230919122696
			vertex 0.12147673219442368 -0.18738625943660736 0.20355603098869324
			vertex 0.12432260811328888 -0.18215058743953705 0.19608846306800842
		endloop
	endfacet
	facet normal 0.6481597358256764 -0.5777725070335359 0.49605230265625455
		outer loop
			vertex 0.11980724334716797 -0.18278497457504272 0.2145230919122696
			vertex 0.11222992092370987 -0.18738920986652374 0.21906115114688873
			vertex 0.11252984404563904 -0.18775922060012817 0.21823829412460327
		endloop
	endfacet
	facet normal 0.6481595931846971 -0.5777698324838639 0.496055604175798
		outer loop
			vertex 0.11980724334716797 -0.18278497457504272 0.2145230919122696
			vertex 0.11252984404563904 -0.18775922060012817 0.21823829412460327
			vertex 0.11532203108072281 -0.18979144096374512 0.21222296357154846
		endloop
	endfacet
	facet normal 0.6481589166663607 -0.5777697291213 0.49605660852062966
		outer loop
			vertex 0.11980724334716797 -0.18278497457504272 0.2145230919122696
			vertex 0.11532203108072281 -0.18979144096374512 0.21222296357154846
			vertex 0.12117395550012589 -0.18913038074970245 0.20534665882587433
		endloop
	endfacet
	facet normal 0.9130887689720965 -0.01788215274913781 0.40736854148311213
		outer loop
			vertex 0.15036141872406006 -0.15205037593841553 0.14270241558551788
			vertex 0.14098350703716278 -0.1023595929145813 0.16590362787246704
			vertex 0.13405142724514008 -0.1023595929145813 0.18144141137599945
		endloop
	endfacet
	facet normal 0.9131006523206053 -0.017858301959938316 0.407342951065552
		outer loop
			vertex 0.15036141872406006 -0.15205037593841553 0.14270241558551788
			vertex 0.13405142724514008 -0.1023595929145813 0.18144141137599945
			vertex 0.15026655793190002 -0.15217512845993042 0.14290958642959595
		endloop
	endfacet
	facet normal 0.9797782225349492 0.10553940957197129 0.16998843394024005
		outer loop
			vertex 0.14517968893051147 -0.1023595929145813 0.14171770215034485
			vertex 0.14098350703716278 -0.1023595929145813 0.16590362787246704
			vertex 0.15036141872406006 -0.15205037593841553 0.14270241558551788
		endloop
	endfacet
	facet normal 0.9797781871015422 0.10553940991991638 0.1699886379549277
		outer loop
			vertex 0.14517968893051147 -0.1023595929145813 0.14171770215034485
			vertex 0.15036141872406006 -0.15205037593841553 0.14270241558551788
			vertex 0.15041300654411316 -0.15094324946403503 0.14171770215034485
		endloop
	endfacet
	facet normal 0.6086230115426983 -0.26415304796819866 0.7481986347687406
		outer loop
			vertex 0.1053069680929184 -0.15480604767799377 0.23619616031646729
			vertex 0.10932646691799164 -0.1737239956855774 0.22624747455120087
			vertex 0.1054273322224617 -0.15452872216701508 0.23619616031646729
		endloop
	endfacet
	facet normal 0.648156186694585 -0.5777738470791809 0.49605537924798077
		outer loop
			vertex 0.11252984404563904 -0.18775922060012817 0.21823829412460327
			vertex 0.11427311599254608 -0.1899099349975586 0.21345548331737518
			vertex 0.11532203108072281 -0.18979144096374512 0.21222296357154846
		endloop
	endfacet
	facet normal 0.9009374429197083 -0.040908766351495075 0.4320164311468906
		outer loop
			vertex 0.1500471532344818 -0.1524112969636917 0.14334477484226227
			vertex 0.15054835379123688 -0.15304087102413177 0.14223994314670563
			vertex 0.15026655793190002 -0.15217512845993042 0.14290958642959595
		endloop
	endfacet
	facet normal 0.9159445740793228 0.026467116868634077 0.4004310539147906
		outer loop
			vertex 0.15054835379123688 -0.15304087102413177 0.14223994314670563
			vertex 0.1500471532344818 -0.1524112969636917 0.14334477484226227
			vertex 0.14817099273204803 -0.15534113347530365 0.14782994985580444
		endloop
	endfacet
	facet normal 0.9877820554702991 -0.011951496549395367 0.15538266512420612
		outer loop
			vertex 0.12240992486476898 -0.18995821475982666 0.19742581248283386
			vertex 0.12147673219442368 -0.18738625943660736 0.20355603098869324
			vertex 0.12117395550012589 -0.18913038074970245 0.20534665882587433
		endloop
	endfacet
	facet normal 0.9877819322896284 -0.011955918249792795 0.15538310802970945
		outer loop
			vertex 0.12240992486476898 -0.18995821475982666 0.19742581248283386
			vertex 0.12117395550012589 -0.18913038074970245 0.20534665882587433
			vertex 0.1224307045340538 -0.19496531784534454 0.19690844416618347
		endloop
	endfacet
	facet normal 0.8835555751272743 -0.4225828706483996 0.20187437454037957
		outer loop
			vertex 0.15054835379123688 -0.15304087102413177 0.14223994314670563
			vertex 0.14817099273204803 -0.15534113347530365 0.14782994985580444
			vertex 0.12432260811328888 -0.18215058743953705 0.19608846306800842
		endloop
	endfacet
	facet normal 0.8835563696615983 -0.4225803817946593 0.2018761069386299
		outer loop
			vertex 0.15054835379123688 -0.15304087102413177 0.14223994314670563
			vertex 0.12432260811328888 -0.18215058743953705 0.19608846306800842
			vertex 0.12527374923229218 -0.18201695382595062 0.1922053098678589
		endloop
	endfacet
	facet normal 0.9541959027336995 -0.19487085535092957 0.22701438047184946
		outer loop
			vertex 0.12147673219442368 -0.18738625943660736 0.20355603098869324
			vertex 0.12240992486476898 -0.18995821475982666 0.19742581248283386
			vertex 0.12527374923229218 -0.18201695382595062 0.1922053098678589
		endloop
	endfacet
	facet normal 0.9541960029155274 -0.19486967569629338 0.22701497200416645
		outer loop
			vertex 0.12147673219442368 -0.18738625943660736 0.20355603098869324
			vertex 0.12527374923229218 -0.18201695382595062 0.1922053098678589
			vertex 0.12432260811328888 -0.18215058743953705 0.19608846306800842
		endloop
	endfacet
	facet normal 0.6481584499321337 -0.5777706715299593 0.4960561207175995
		outer loop
			vertex 0.1224307045340538 -0.19496531784534454 0.19690844416618347
			vertex 0.12117395550012589 -0.18913038074970245 0.20534665882587433
			vertex 0.11532203108072281 -0.18979144096374512 0.21222296357154846
		endloop
	endfacet
	facet normal 0.9131016008059645 -0.017862887873600318 0.4073406238547787
		outer loop
			vertex 0.15054835379123688 -0.15304087102413177 0.14223994314670563
			vertex 0.15036141872406006 -0.15205037593841553 0.14270241558551788
			vertex 0.15026655793190002 -0.15217512845993042 0.14290958642959595
		endloop
	endfacet
	facet normal 0.9797774992696399 0.10554170224879589 0.1699911792163269
		outer loop
			vertex 0.15041300654411316 -0.15094324946403503 0.14171770215034485
			vertex 0.15036141872406006 -0.15205037593841553 0.14270241558551788
			vertex 0.15054835379123688 -0.15304087102413177 0.14223994314670563
		endloop
	endfacet
	facet normal 0.979774370818378 0.10554541547068123 0.17000690444971034
		outer loop
			vertex 0.15041300654411316 -0.15094324946403503 0.14171770215034485
			vertex 0.15054835379123688 -0.15304087102413177 0.14223994314670563
			vertex 0.15057404339313507 -0.15243814885616302 0.14171770215034485
		endloop
	endfacet
	facet normal 0.9950450187175018 0.019060586878187884 0.09758127255444939
		outer loop
			vertex 0.15059460699558258 -0.15278185904026031 0.14171770215034485
			vertex 0.15054835379123688 -0.15304087102413177 0.14223994314670563
			vertex 0.15060219168663025 -0.15317781269550323 0.14171770215034485
		endloop
	endfacet
	facet normal 0.9913339755387574 0.05930984506388126 0.11721472271443167
		outer loop
			vertex 0.15057404339313507 -0.15243814885616302 0.14171770215034485
			vertex 0.15054835379123688 -0.15304087102413177 0.14223994314670563
			vertex 0.15059460699558258 -0.15278185904026031 0.14171770215034485
		endloop
	endfacet
	facet normal 0.9877817214334865 -0.011956056527125156 0.15538443781221542
		outer loop
			vertex 0.12420203536748886 -0.19489744305610657 0.18565328419208527
			vertex 0.12240992486476898 -0.18995821475982666 0.19742581248283386
			vertex 0.1224307045340538 -0.19496531784534454 0.19690844416618347
		endloop
	endfacet
	facet normal 0.9877817105291284 -0.01195705818602815 0.1553844300555409
		outer loop
			vertex 0.12420203536748886 -0.19489744305610657 0.18565328419208527
			vertex 0.1224307045340538 -0.19496531784534454 0.19690844416618347
			vertex 0.12389995157718658 -0.2017868310213089 0.18704348802566528
		endloop
	endfacet
	facet normal 0.8835522546303222 -0.4225803223708653 0.20189424083566657
		outer loop
			vertex 0.13919158279895782 -0.17703568935394287 0.14171770215034485
			vertex 0.15060219168663025 -0.15317781269550323 0.14171770215034485
			vertex 0.15054835379123688 -0.15304087102413177 0.14223994314670563
		endloop
	endfacet
	facet normal 0.8835559715282598 -0.4225816663065139 0.2018751606274617
		outer loop
			vertex 0.13919158279895782 -0.17703568935394287 0.14171770215034485
			vertex 0.15054835379123688 -0.15304087102413177 0.14223994314670563
			vertex 0.12527374923229218 -0.18201695382595062 0.1922053098678589
		endloop
	endfacet
	facet normal 0.8835548119728213 -0.42258437093735746 0.20187457412747734
		outer loop
			vertex 0.13919158279895782 -0.17703568935394287 0.14171770215034485
			vertex 0.12527374923229218 -0.18201695382595062 0.1922053098678589
			vertex 0.13386406004428864 -0.18081004917621613 0.1571340709924698
		endloop
	endfacet
	facet normal 0.954196239282109 -0.19486951390718615 0.2270141173792007
		outer loop
			vertex 0.12240992486476898 -0.18995821475982666 0.19742581248283386
			vertex 0.12420203536748886 -0.19489744305610657 0.18565328419208527
			vertex 0.13386406004428864 -0.18081004917621613 0.1571340709924698
		endloop
	endfacet
	facet normal 0.9541959763215424 -0.1948713829587327 0.227013618260072
		outer loop
			vertex 0.12240992486476898 -0.18995821475982666 0.19742581248283386
			vertex 0.13386406004428864 -0.18081004917621613 0.1571340709924698
			vertex 0.12527374923229218 -0.18201695382595062 0.1922053098678589
		endloop
	endfacet
	facet normal 0.6481586831191232 -0.5777703106204489 0.4960562363914341
		outer loop
			vertex 0.11427311599254608 -0.1899099349975586 0.21345548331737518
			vertex 0.12389995157718658 -0.2017868310213089 0.18704348802566528
			vertex 0.1224307045340538 -0.19496531784534454 0.19690844416618347
		endloop
	endfacet
	facet normal 0.6481567913484279 -0.5777726261923734 0.49605601120405624
		outer loop
			vertex 0.11427311599254608 -0.1899099349975586 0.21345548331737518
			vertex 0.1224307045340538 -0.19496531784534454 0.19690844416618347
			vertex 0.11532203108072281 -0.18979144096374512 0.21222296357154846
		endloop
	endfacet
	facet normal -1 0 0
		outer loop
			vertex 0.10000000149011612 -0.16447362303733826 0.20753037929534912
			vertex 0.10000000149011612 -0.11912301182746887 0.22845980525016785
			vertex 0.10000000149011612 -0.1023595929145813 0.23132359981536865
		endloop
	endfacet
	facet normal -1 0 0
		outer loop
			vertex 0.10000000149011612 -0.16447362303733826 0.20753037929534912
			vertex 0.10000000149011612 -0.1023595929145813 0.23132359981536865
			vertex 0.10000000149011612 -0.1023595929145813 0.155410036444664
		endloop
	endfacet
	facet normal -1 0 0
		outer loop
			vertex 0.10000000149011612 -0.11912301182746887 0.22845980525016785
			vertex 0.10000000149011612 -0.16447362303733826 0.20753037929534912
			vertex 0.10000000149011612 -0.17752575874328613 0.21848253905773163
		endloop
	endfacet
	facet normal -1 0 0
		outer loop
			vertex 0.10000000149011612 -0.18139205873012543 0.23112663626670837
			vertex 0.10000000149011612 -0.1892767697572708 0.22834289073944092
			vertex 0.10000000149011612 -0.19049996137619019 0.22936926782131195
		endloop
	endfacet
	facet normal -1 0 0
		outer loop
			vertex 0.10000000149011612 -0.11912301182746887 0.22845980525016785
			vertex 0.10000000149011612 -0.1023595929145813 0.23619616031646729
			vertex 0.10000000149011612 -0.1023595929145813 0.23132359981536865
		endloop
	endfacet
	facet normal -1 0 0
		outer loop
			vertex 0.10000000149011612 -0.16703307628631592 0.23619616031646729
			vertex 0.10000000149011612 -0.1023595929145813 0.23619616031646729
			vertex 0.10000000149011612 -0.11912301182746887 0.22845980525016785
		endloop
	endfacet
	facet normal -1 0 0
		outer loop
			vertex 0.10000000149011612 -0.16703307628631592 0.23619616031646729
			vertex 0.10000000149011612 -0.11912301182746887 0.22845980525016785
			vertex 0.10000000149011612 -0.17752575874328613 0.21848253905773163
		endloop
	endfacet
	facet normal -1 0 0
		outer loop
			vertex 0.10000000149011612 -0.16703307628631592 0.23619616031646729
			vertex 0.10000000149011612 -0.17752575874328613 0.21848253905773163
			vertex 0.10000000149011612 -0.1892767697572708 0.22834289073944092
		endloop
	endfacet
	facet normal -1 0 0
		outer loop
			vertex 0.10000000149011612 -0.1023595929145813 0.14171770215034485
			vertex 0.10000000149011612 -0.2412722259759903 0.14171770215034485
			vertex 0.10000000149011612 -0.2358144372701645 0.1565195918083191
		endloop
	endfacet
	facet normal -1 0 0
		outer loop
			vertex 0.10000000149011612 -0.1023595929145813 0.14171770215034485
			vertex 0.10000000149011612 -0.2358144372701645 0.1565195918083191
			vertex 0.10000000149011612 -0.2253982573747635 0.17941348254680634
		endloop
	endfacet
	facet normal -1 0 0
		outer loop
			vertex 0.10000000149011612 -0.1023595929145813 0.14171770215034485
			vertex 0.10000000149011612 -0.2253982573747635 0.17941348254680634
			vertex 0.10000000149011612 -0.16447362303733826 0.20753037929534912
		endloop
	endfacet
	facet normal -1 0 0
		outer loop
			vertex 0.10000000149011612 -0.1023595929145813 0.14171770215034485
			vertex 0.10000000149011612 -0.16447362303733826 0.20753037929534912
			vertex 0.10000000149011612 -0.1023595929145813 0.155410036444664
		endloop
	endfacet
	facet normal -1 0 0
		outer loop
			vertex 0.10000000149011612 -0.19049996137619019 0.22936926782131195
			vertex 0.10000000149011612 -0.16447362303733826 0.20753037929534912
			vertex 0.10000000149011612 -0.2253982573747635 0.17941348254680634
		endloop
	endfacet
	facet normal -1 0 0
		outer loop
			vertex 0.10000000149011612 -0.19049996137619019 0.22936926782131195
			vertex 0.10000000149011612 -0.2253982573747635 0.17941348254680634
			vertex 0.10000000149011612 -0.21440568566322327 0.2035742551088333
		endloop
	endfacet
	facet normal -1 0 0
		outer loop
			vertex 0.10000000149011612 -0.19049996137619019 0.22936926782131195
			vertex 0.10000000149011612 -0.21440568566322327 0.2035742551088333
			vertex 0.10000000149011612 -0.1926080733537674 0.2289625108242035
		endloop
	endfacet
	facet normal 0 1 0
		outer loop
			vertex 0.10000000149011612 -0.1023595929145813 0.155410036444664
			vertex 0.10000000149011612 -0.1023595929145813 0.23132359981536865
			vertex 0.10760749876499176 -0.1023595929145813 0.22561044991016388
		endloop
	endfacet
	facet normal 0 1 0
		outer loop
			vertex 0.10000000149011612 -0.1023595929145813 0.155410036444664
			vertex 0.10760749876499176 -0.1023595929145813 0.22561044991016388
			vertex 0.13715803623199463 -0.1023595929145813 0.14171770215034485
		endloop
	endfacet
	facet normal 0 1 0
		outer loop
			vertex 0.10000000149011612 -0.1023595929145813 0.155410036444664
			vertex 0.13715803623199463 -0.1023595929145813 0.14171770215034485
			vertex 0.1126750186085701 -0.1023595929145813 0.14171770215034485
		endloop
	endfacet
	facet normal 0 1 0
		outer loop
			vertex 0.10000000149011612 -0.1023595929145813 0.23132359981536865
			vertex 0.10000000149011612 -0.1023595929145813 0.23619616031646729
			vertex 0.1046530082821846 -0.1023595929145813 0.2339981198310852
		endloop
	endfacet
	facet normal 0 1 0
		outer loop
			vertex 0.10000000149011612 -0.1023595929145813 0.23132359981536865
			vertex 0.1046530082821846 -0.1023595929145813 0.2339981198310852
			vertex 0.10760749876499176 -0.1023595929145813 0.22561044991016388
		endloop
	endfacet
	facet normal 0 1 0
		outer loop
			vertex 0.10000000149011612 -0.1023595929145813 0.23619616031646729
			vertex 0.10387877374887466 -0.1023595929145813 0.23619616031646729
			vertex 0.1046530082821846 -0.1023595929145813 0.2339981198310852
		endloop
	endfacet
	facet normal 0 1 0
		outer loop
			vertex 0.10000000149011612 -0.1023595929145813 0.14171770215034485
			vertex 0.10000000149011612 -0.1023595929145813 0.155410036444664
			vertex 0.1126750186085701 -0.1023595929145813 0.14171770215034485
		endloop
	endfacet
	facet normal 0 1 0
		outer loop
			vertex 0.11007868498563766 -0.1023595929145813 0.23143509030342102
			vertex 0.11009231209754944 -0.1023595929145813 0.2314286231994629
			vertex 0.11020120978355408 -0.1023595929145813 0.23117953538894653
		endloop
	endfacet
	facet normal 0 1 0
		outer loop
			vertex 0.10779566317796707 -0.1023595929145813 0.23619616031646729
			vertex 0.10800804942846298 -0.1023595929145813 0.23619616031646729
			vertex 0.11009231209754944 -0.1023595929145813 0.2314286231994629
		endloop
	endfacet
	facet normal 0 1 0
		outer loop
			vertex 0.10779566317796707 -0.1023595929145813 0.23619616031646729
			vertex 0.11009231209754944 -0.1023595929145813 0.2314286231994629
			vertex 0.11007868498563766 -0.1023595929145813 0.23143509030342102
		endloop
	endfacet
	facet normal 0 1 0
		outer loop
			vertex 0.11583419889211655 -0.1023595929145813 0.2194323092699051
			vertex 0.13405142724514008 -0.1023595929145813 0.18144141137599945
			vertex 0.14098350703716278 -0.1023595929145813 0.16590362787246704
		endloop
	endfacet
	facet normal 0 1 0
		outer loop
			vertex 0.11583419889211655 -0.1023595929145813 0.2194323092699051
			vertex 0.14098350703716278 -0.1023595929145813 0.16590362787246704
			vertex 0.14517968893051147 -0.1023595929145813 0.14171770215034485
		endloop
	endfacet
	facet normal 0 1 0
		outer loop
			vertex 0.11583419889211655 -0.1023595929145813 0.2194323092699051
			vertex 0.14517968893051147 -0.1023595929145813 0.14171770215034485
			vertex 0.13715803623199463 -0.1023595929145813 0.14171770215034485
		endloop
	endfacet
	facet normal 0 1 0
		outer loop
			vertex 0.11583419889211655 -0.1023595929145813 0.2194323092699051
			vertex 0.13715803623199463 -0.1023595929145813 0.14171770215034485
			vertex 0.10760749876499176 -0.1023595929145813 0.22561044991016388
		endloop
	endfacet
	facet normal 0 1 0
		outer loop
			vertex 0.1046530082821846 -0.1023595929145813 0.2339981198310852
			vertex 0.11007868498563766 -0.1023595929145813 0.23143509030342102
			vertex 0.11583419889211655 -0.1023595929145813 0.2194323092699051
		endloop
	endfacet
	facet normal 0 1 0
		outer loop
			vertex 0.1046530082821846 -0.1023595929145813 0.2339981198310852
			vertex 0.11583419889211655 -0.1023595929145813 0.2194323092699051
			vertex 0.10760749876499176 -0.1023595929145813 0.22561044991016388
		endloop
	endfacet
	facet normal 0 1 0
		outer loop
			vertex 0.10387877374887466 -0.1023595929145813 0.23619616031646729
			vertex 0.10779566317796707 -0.1023595929145813 0.23619616031646729
			vertex 0.11007868498563766 -0.1023595929145813 0.23143509030342102
		endloop
	endfacet
	facet normal 0 1 0
		outer loop
			vertex 0.10387877374887466 -0.1023595929145813 0.23619616031646729
			vertex 0.11007868498563766 -0.1023595929145813 0.23143509030342102
			vertex 0.1046530082821846 -0.1023595929145813 0.2339981198310852
		endloop
	endfacet
	facet normal 0 0 1
		outer loop
			vertex 0.10000000149011612 -0.1023595929145813 0.23619616031646729
			vertex 0.10000000149011612 -0.16703307628631592 0.23619616031646729
			vertex 0.1053069680929184 -0.15480604767799377 0.23619616031646729
		endloop
	endfacet
	facet normal 0 0 1
		outer loop
			vertex 0.10000000149011612 -0.1023595929145813 0.23619616031646729
			vertex 0.1053069680929184 -0.15480604767799377 0.23619616031646729
			vertex 0.10387877374887466 -0.1023595929145813 0.23619616031646729
		endloop
	endfacet
	facet normal 0 0 1
		outer loop
			vertex 0.10800804942846298 -0.1023595929145813 0.23619616031646729
			vertex 0.10779566317796707 -0.1023595929145813 0.23619616031646729
			vertex 0.1054273322224617 -0.15452872216701508 0.23619616031646729
		endloop
	endfacet
	facet normal 0 0 1
		outer loop
			vertex 0.10800804942846298 -0.1023595929145813 0.23619616031646729
			vertex 0.1054273322224617 -0.15452872216701508 0.23619616031646729
			vertex 0.1092604547739029 -0.14569735527038574 0.23619616031646729
		endloop
	endfacet
	facet normal 0 0 1
		outer loop
			vertex 0.10779566317796707 -0.1023595929145813 0.23619616031646729
			vertex 0.10387877374887466 -0.1023595929145813 0.23619616031646729
			vertex 0.1053069680929184 -0.15480604767799377 0.23619616031646729
		endloop
	endfacet
	facet normal 0 0 1
		outer loop
			vertex 0.10779566317796707 -0.1023595929145813 0.23619616031646729
			vertex 0.1053069680929184 -0.15480604767799377 0.23619616031646729
			vertex 0.1054273322224617 -0.15452872216701508 0.23619616031646729
		endloop
	endfacet
	facet normal 0 0 -1
		outer loop
			vertex 0.1126750186085701 -0.1023595929145813 0.14171770215034485
			vertex 0.13715803623199463 -0.1023595929145813 0.14171770215034485
			vertex 0.13804754614830017 -0.1350240260362625 0.14171770215034485
		endloop
	endfacet
	facet normal 0 0 -1
		outer loop
			vertex 0.13089023530483246 -0.21333080530166626 0.14171770215034485
			vertex 0.13112542033195496 -0.19390083849430084 0.14171770215034485
			vertex 0.13764014840126038 -0.18027952313423157 0.14171770215034485
		endloop
	endfacet
	facet normal 0 0 -1
		outer loop
			vertex 0.13822348415851593 -0.14148499071598053 0.14171770215034485
			vertex 0.13183897733688354 -0.13494984805583954 0.14171770215034485
			vertex 0.13193336129188538 -0.12715266644954681 0.14171770215034485
		endloop
	endfacet
	facet normal 0 0 -1
		outer loop
			vertex 0.13822348415851593 -0.14148499071598053 0.14171770215034485
			vertex 0.13193336129188538 -0.12715266644954681 0.14171770215034485
			vertex 0.13804754614830017 -0.1350240260362625 0.14171770215034485
		endloop
	endfacet
	facet normal 0 0 -1
		outer loop
			vertex 0.13183897733688354 -0.13494984805583954 0.14171770215034485
			vertex 0.13822348415851593 -0.14148499071598053 0.14171770215034485
			vertex 0.13919158279895782 -0.17703568935394287 0.14171770215034485
		endloop
	endfacet
	facet normal 0 0 -1
		outer loop
			vertex 0.13183897733688354 -0.13494984805583954 0.14171770215034485
			vertex 0.13919158279895782 -0.17703568935394287 0.14171770215034485
			vertex 0.13112542033195496 -0.19390083849430084 0.14171770215034485
		endloop
	endfacet
	facet normal 0 0 -1
		outer loop
			vertex 0.13183897733688354 -0.13494984805583954 0.14171770215034485
			vertex 0.10000000149011612 -0.1023595929145813 0.14171770215034485
			vertex 0.1126750186085701 -0.1023595929145813 0.14171770215034485
		endloop
	endfacet
	facet normal 0 0 -1
		outer loop
			vertex 0.13183897733688354 -0.13494984805583954 0.14171770215034485
			vertex 0.1126750186085701 -0.1023595929145813 0.14171770215034485
			vertex 0.13193336129188538 -0.12715266644954681 0.14171770215034485
		endloop
	endfacet
	facet normal 0 0 -1
		outer loop
			vertex 0.10000000149011612 -0.2412722259759903 0.14171770215034485
			vertex 0.10000000149011612 -0.1023595929145813 0.14171770215034485
			vertex 0.13183897733688354 -0.13494984805583954 0.14171770215034485
		endloop
	endfacet
	facet normal 0 0 -1
		outer loop
			vertex 0.10000000149011612 -0.2412722259759903 0.14171770215034485
			vertex 0.13183897733688354 -0.13494984805583954 0.14171770215034485
			vertex 0.13078178465366364 -0.22229082882404327 0.14171770215034485
		endloop
	endfacet
	facet normal 0 0 -1
		outer loop
			vertex 0.15041300654411316 -0.15094324946403503 0.14171770215034485
			vertex 0.13804754614830017 -0.1350240260362625 0.14171770215034485
			vertex 0.13715803623199463 -0.1023595929145813 0.14171770215034485
		endloop
	endfacet
	facet normal 0 0 -1
		outer loop
			vertex 0.15041300654411316 -0.15094324946403503 0.14171770215034485
			vertex 0.13715803623199463 -0.1023595929145813 0.14171770215034485
			vertex 0.14517968893051147 -0.1023595929145813 0.14171770215034485
		endloop
	endfacet
	facet normal 0 0 -1
		outer loop
			vertex 0.1502881795167923 -0.15383437275886536 0.14171770215034485
			vertex 0.13822348415851593 -0.14148499071598053 0.14171770215034485
			vertex 0.13804754614830017 -0.1350240260362625 0.14171770215034485
		endloop
	endfacet
	facet normal 0 0 -1
		outer loop
			vertex 0.1502881795167923 -0.15383437275886536 0.14171770215034485
			vertex 0.13804754614830017 -0.1350240260362625 0.14171770215034485
			vertex 0.15041300654411316 -0.15094324946403503 0.14171770215034485
		endloop
	endfacet
	facet normal 0 0 -1
		outer loop
			vertex 0.1502881795167923 -0.15383437275886536 0.14171770215034485
			vertex 0.15041300654411316 -0.15094324946403503 0.14171770215034485
			vertex 0.15057404339313507 -0.15243814885616302 0.14171770215034485
		endloop
	endfacet
	facet normal 0 0 -1
		outer loop
			vertex 0.1502881795167923 -0.15383437275886536 0.14171770215034485
			vertex 0.15057404339313507 -0.15243814885616302 0.14171770215034485
			vertex 0.15059460699558258 -0.15278185904026031 0.14171770215034485
		endloop
	endfacet
	facet normal 0 0 -1
		outer loop
			vertex 0.1502881795167923 -0.15383437275886536 0.14171770215034485
			vertex 0.15059460699558258 -0.15278185904026031 0.14171770215034485
			vertex 0.15060219168663025 -0.15317781269550323 0.14171770215034485
		endloop
	endfacet
	facet normal 0 0 -1
		outer loop
			vertex 0.13919158279895782 -0.17703568935394287 0.14171770215034485
			vertex 0.13822348415851593 -0.14148499071598053 0.14171770215034485
			vertex 0.1502881795167923 -0.15383437275886536 0.14171770215034485
		endloop
	endfacet
endsolid exported
