solid exported
	facet normal 0.7547364297365101 0.590138920299268 0.2865466390949307
		outer loop
			vertex 0.10000000149011612 0.08382531255483627 0.17144522070884705
			vertex 0.12927882373332977 0.060319043695926666 0.1427384465932846
			vertex 0.10000000149011612 0.08780194818973541 0.16325539350509644
		endloop
	endfacet
	facet normal 0.7164695082679897 0.5102943052824934 0.47567968815000133
		outer loop
			vertex 0.1268097311258316 0.06000954657793045 0.14678941667079926
			vertex 0.12927882373332977 0.060319043695926666 0.1427384465932846
			vertex 0.12695598602294922 0.061387550085783005 0.14509084820747375
		endloop
	endfacet
	facet normal 0.7398047579042513 0.6448646947350721 0.19193344071962704
		outer loop
			vertex 0.12696366012096405 0.06249219551682472 0.14436078071594238
			vertex 0.12927882373332977 0.060319043695926666 0.1427384465932846
			vertex 0.1270819902420044 0.06257467716932297 0.14362755417823792
		endloop
	endfacet
	facet normal 0.7245857428432566 0.06456259957405863 0.6861538981923266
		outer loop
			vertex 0.12927882373332977 0.060319043695926666 0.1427384465932846
			vertex 0.12685810029506683 0.062262509018182755 0.14511188864707947
			vertex 0.12695598602294922 0.061387550085783005 0.14509084820747375
		endloop
	endfacet
	facet normal 0.8373027570562488 -0.238150887752941 0.49214657134688117
		outer loop
			vertex 0.12927882373332977 0.060319043695926666 0.1427384465932846
			vertex 0.1268097311258316 0.06000954657793045 0.14678941667079926
			vertex 0.12697356939315796 0.0594070702791214 0.1462191343307495
		endloop
	endfacet
	facet normal 0.7614391097609686 0.28930082363841214 0.5800995738393193
		outer loop
			vertex 0.12927882373332977 0.039503954350948334 0.15311911702156067
			vertex 0.12927882373332977 0.060319043695926666 0.1427384465932846
			vertex 0.12697356939315796 0.0594070702791214 0.1462191343307495
		endloop
	endfacet
	facet normal 0.7614372532328445 0.28930136058599004 0.5801017429316312
		outer loop
			vertex 0.12927882373332977 0.039503954350948334 0.15311911702156067
			vertex 0.12697356939315796 0.0594070702791214 0.1462191343307495
			vertex 0.12767881155014038 0.03370850905776024 0.15810951590538025
		endloop
	endfacet
	facet normal 0.989357959851929 0.10788438003905473 0.09763087534800455
		outer loop
			vertex 0.12951791286468506 0.05905019864439964 0.14171770215034485
			vertex 0.12927882373332977 0.060319043695926666 0.1427384465932846
			vertex 0.12953586876392365 0.05888553336262703 0.14171770215034485
		endloop
	endfacet
	facet normal 0.9865809840391812 0.0728652338993658 0.1461116683262217
		outer loop
			vertex 0.1332986205816269 0.007938611321151257 0.14171770215034485
			vertex 0.12953586876392365 0.05888553336262703 0.14171770215034485
			vertex 0.12927882373332977 0.060319043695926666 0.1427384465932846
		endloop
	endfacet
	facet normal 0.9865815229485633 0.07286534726987427 0.14610797289584956
		outer loop
			vertex 0.1332986205816269 0.007938611321151257 0.14171770215034485
			vertex 0.12927882373332977 0.060319043695926666 0.1427384465932846
			vertex 0.12927882373332977 0.039503954350948334 0.15311911702156067
		endloop
	endfacet
	facet normal 0.9865814015875803 0.07286496739073292 0.14610898182053478
		outer loop
			vertex 0.1332986205816269 0.007938611321151257 0.14171770215034485
			vertex 0.12927882373332977 0.039503954350948334 0.15311911702156067
			vertex 0.13296687602996826 0.005253726616501808 0.14529672265052795
		endloop
	endfacet
	facet normal 0.7398029678747516 0.6448651751126113 0.19193872629224823
		outer loop
			vertex 0.12927882373332977 0.060319043695926666 0.1427384465932846
			vertex 0.1291276067495346 0.0607963390648365 0.14171770215034485
			vertex 0.12739020586013794 0.06278952211141586 0.14171770215034485
		endloop
	endfacet
	facet normal 0.7398047770183517 0.6448645478066243 0.1919338606994218
		outer loop
			vertex 0.12927882373332977 0.060319043695926666 0.1427384465932846
			vertex 0.12739020586013794 0.06278952211141586 0.14171770215034485
			vertex 0.1270819902420044 0.06257467716932297 0.14362755417823792
		endloop
	endfacet
	facet normal 0.9893584431643692 0.10792080676197251 0.09758570800696739
		outer loop
			vertex 0.12946867942810059 0.05950154364109039 0.14171770215034485
			vertex 0.12927882373332977 0.060319043695926666 0.1427384465932846
			vertex 0.12951791286468506 0.05905019864439964 0.14171770215034485
		endloop
	endfacet
	facet normal 0.9667307595473229 0.2546544755749641 -0.024139938166792482
		outer loop
			vertex 0.1291276067495346 0.0607963390648365 0.14171770215034485
			vertex 0.12927882373332977 0.060319043695926666 0.1427384465932846
			vertex 0.12946867942810059 0.05950154364109039 0.14171770215034485
		endloop
	endfacet
	facet normal 0.6866999181598561 0.6255088379923617 0.37038077162926875
		outer loop
			vertex 0.11861135810613632 0.0008650739910081029 0.1863907277584076
			vertex 0.10000000149011612 0.009332221001386642 0.20659734308719635
			vertex 0.10000000149011612 -0.0006923323962837458 0.22352707386016846
		endloop
	endfacet
	facet normal 0.6866998868265523 0.6255088806303021 0.3703807577143109
		outer loop
			vertex 0.11861135810613632 0.0008650739910081029 0.1863907277584076
			vertex 0.10000000149011612 -0.0006923323962837458 0.22352707386016846
			vertex 0.1076548770070076 -0.005831270013004541 0.21801342070102692
		endloop
	endfacet
	facet normal 0.7164687693137662 0.5102949298122123 0.47568013118687946
		outer loop
			vertex 0.10000000149011612 0.056648995727300644 0.1907752901315689
			vertex 0.1268097311258316 0.06000954657793045 0.14678941667079926
			vertex 0.12695598602294922 0.061387550085783005 0.14509084820747375
		endloop
	endfacet
	facet normal 0.7164697580862739 0.5102931680376092 0.47568053187190323
		outer loop
			vertex 0.10000000149011612 0.056648995727300644 0.1907752901315689
			vertex 0.12695598602294922 0.061387550085783005 0.14509084820747375
			vertex 0.10000000149011612 0.07378730177879333 0.1723899245262146
		endloop
	endfacet
	facet normal 0.7398053155417625 0.644864049806945 0.19193345816386276
		outer loop
			vertex 0.10000000149011612 0.08780194818973541 0.16325539350509644
			vertex 0.12696366012096405 0.06249219551682472 0.14436078071594238
			vertex 0.1270819902420044 0.06257467716932297 0.14362755417823792
		endloop
	endfacet
	facet normal 0.7398053353982198 0.6448639997074617 0.19193354995316086
		outer loop
			vertex 0.10000000149011612 0.08780194818973541 0.16325539350509644
			vertex 0.1270819902420044 0.06257467716932297 0.14362755417823792
			vertex 0.10000000149011612 0.09038162976503372 0.15458810329437256
		endloop
	endfacet
	facet normal 0.7245879117172171 0.06457543398768488 0.6861504000717222
		outer loop
			vertex 0.12685810029506683 0.062262509018182755 0.14511188864707947
			vertex 0.10000000149011612 0.08382531255483627 0.17144522070884705
			vertex 0.10000000149011612 0.07378730177879333 0.1723899245262146
		endloop
	endfacet
	facet normal 0.7245858486593594 0.06456261413226032 0.6861537850795585
		outer loop
			vertex 0.12685810029506683 0.062262509018182755 0.14511188864707947
			vertex 0.10000000149011612 0.07378730177879333 0.1723899245262146
			vertex 0.12695598602294922 0.061387550085783005 0.14509084820747375
		endloop
	endfacet
	facet normal 0.8373022286337207 -0.23815134249384018 0.49214725031578344
		outer loop
			vertex 0.1268097311258316 0.06000954657793045 0.14678941667079926
			vertex 0.10000000149011612 0.056648995727300644 0.1907752901315689
			vertex 0.10000000149011612 0.04873621091246605 0.18694627285003662
		endloop
	endfacet
	facet normal 0.837302206697002 -0.23815159827416094 0.4921471638644215
		outer loop
			vertex 0.1268097311258316 0.06000954657793045 0.14678941667079926
			vertex 0.10000000149011612 0.04873621091246605 0.18694627285003662
			vertex 0.12697356939315796 0.0594070702791214 0.1462191343307495
		endloop
	endfacet
	facet normal 0.7614390504277052 0.2893002599580128 0.58009993283225
		outer loop
			vertex 0.12697356939315796 0.0594070702791214 0.1462191343307495
			vertex 0.10000000149011612 0.04873621091246605 0.18694627285003662
			vertex 0.10000000149011612 0.009332221001386642 0.20659734308719635
		endloop
	endfacet
	facet normal 0.761438825257903 0.2893005582507371 0.5801000796290902
		outer loop
			vertex 0.12697356939315796 0.0594070702791214 0.1462191343307495
			vertex 0.10000000149011612 0.009332221001386642 0.20659734308719635
			vertex 0.11861135810613632 0.0008650739910081029 0.1863907277584076
		endloop
	endfacet
	facet normal 0.7614386239651588 0.2893007147523475 0.580100265797066
		outer loop
			vertex 0.12697356939315796 0.0594070702791214 0.1462191343307495
			vertex 0.11861135810613632 0.0008650739910081029 0.1863907277584076
			vertex 0.12767881155014038 0.03370850905776024 0.15810951590538025
		endloop
	endfacet
	facet normal 0.7398053503560723 0.6448638847208867 0.191933878633284
		outer loop
			vertex 0.10000000149011612 0.09038162976503372 0.15458810329437256
			vertex 0.1270819902420044 0.06257467716932297 0.14362755417823792
			vertex 0.12739020586013794 0.06278952211141586 0.14171770215034485
		endloop
	endfacet
	facet normal 0.7398052646592109 0.6448643063471006 0.1919327923570852
		outer loop
			vertex 0.10000000149011612 0.09038162976503372 0.15458810329437256
			vertex 0.12739020586013794 0.06278952211141586 0.14171770215034485
			vertex 0.10114515572786331 0.09289853274822235 0.14171770215034485
		endloop
	endfacet
	facet normal 0.7398041148686334 0.6448655816362876 0.19193293944586554
		outer loop
			vertex 0.10000000149011612 0.09038162976503372 0.15458810329437256
			vertex 0.10114515572786331 0.09289853274822235 0.14171770215034485
			vertex 0.10000000149011612 0.0938260555267334 0.14301535487174988
		endloop
	endfacet
	facet normal 0.9865812460806415 0.07286581971729475 0.14610960679878493
		outer loop
			vertex 0.13465431332588196 -0.010417059995234013 0.14171770215034485
			vertex 0.1332986205816269 0.007938611321151257 0.14171770215034485
			vertex 0.13296687602996826 0.005253726616501808 0.14529672265052795
		endloop
	endfacet
	facet normal 0.6609732273878086 0.21235916623976586 0.7197346574887831
		outer loop
			vertex 0.10249058902263641 -0.05138283222913742 0.23619616031646729
			vertex 0.1076548770070076 -0.005831270013004541 0.21801342070102692
			vertex 0.10000000149011612 -0.0006923323962837458 0.22352707386016846
		endloop
	endfacet
	facet normal 0.6609734398149518 0.21235913055136937 0.7197344729347461
		outer loop
			vertex 0.10249058902263641 -0.05138283222913742 0.23619616031646729
			vertex 0.10000000149011612 -0.0006923323962837458 0.22352707386016846
			vertex 0.10000000149011612 -0.04363081231713295 0.23619616031646729
		endloop
	endfacet
	facet normal 0.7398040420719137 0.6448657120052014 0.1919327820203805
		outer loop
			vertex 0.10000000149011612 0.09421227872371674 0.14171770215034485
			vertex 0.10000000149011612 0.0938260555267334 0.14301535487174988
			vertex 0.10114515572786331 0.09289853274822235 0.14171770215034485
		endloop
	endfacet
	facet normal 0.9009387236493037 -0.04090039138595054 0.4320145532428735
		outer loop
			vertex 0.13405142724514008 -0.1023595854640007 0.18144141137599945
			vertex 0.11831173300743103 -0.05400465056300163 0.218843474984169
			vertex 0.10968524217605591 -0.06073629856109619 0.23619616031646729
		endloop
	endfacet
	facet normal 0.9009388248004899 -0.04090009196822796 0.4320143706453557
		outer loop
			vertex 0.13405142724514008 -0.1023595854640007 0.18144141137599945
			vertex 0.10968524217605591 -0.06073629856109619 0.23619616031646729
			vertex 0.10792543739080429 -0.09950091689825058 0.23619616031646729
		endloop
	endfacet
	facet normal 0.9009387626381005 -0.040901176480648435 0.43201439760571325
		outer loop
			vertex 0.13405142724514008 -0.1023595854640007 0.18144141137599945
			vertex 0.10792543739080429 -0.09950091689825058 0.23619616031646729
			vertex 0.11020120233297348 -0.1023595854640007 0.23117955029010773
		endloop
	endfacet
	facet normal 0.9159445072815707 0.02646967998857929 0.4004310372861013
		outer loop
			vertex 0.10800804942846298 -0.1023595854640007 0.23619616031646729
			vertex 0.11020120233297348 -0.1023595854640007 0.23117955029010773
			vertex 0.10792543739080429 -0.09950091689825058 0.23619616031646729
		endloop
	endfacet
	facet normal 0.7661402466277941 0.09199489281086855 0.6360550779561621
		outer loop
			vertex 0.11831173300743103 -0.05400465056300163 0.218843474984169
			vertex 0.12495844811201096 -0.017447656020522118 0.20555001497268677
			vertex 0.10451976954936981 -0.056331004947423935 0.2357926219701767
		endloop
	endfacet
	facet normal 0.5292978615491717 0.6684923777745309 0.5224573806702589
		outer loop
			vertex 0.10968524217605591 -0.06073629856109619 0.23619616031646729
			vertex 0.11831173300743103 -0.05400465056300163 0.218843474984169
			vertex 0.10451976954936981 -0.056331004947423935 0.2357926219701767
		endloop
	endfacet
	facet normal 0.5292978262409598 0.6684923436498745 0.5224574601037799
		outer loop
			vertex 0.10968524217605591 -0.06073629856109619 0.23619616031646729
			vertex 0.10451976954936981 -0.056331004947423935 0.2357926219701767
			vertex 0.10437213629484177 -0.05652949586510658 0.23619616031646729
		endloop
	endfacet
	facet normal 0.47333405553435015 0.7094585247163729 0.5221335782907212
		outer loop
			vertex 0.10437213629484177 -0.05652949586510658 0.23619616031646729
			vertex 0.10451976954936981 -0.056331004947423935 0.2357926219701767
			vertex 0.10419433563947678 -0.05641087144613266 0.23619616031646729
		endloop
	endfacet
	facet normal 0.9130888511209543 -0.017881839454530715 0.40736837110450574
		outer loop
			vertex 0.14098350703716278 -0.1023595854640007 0.16590362787246704
			vertex 0.12495844811201096 -0.017447656020522118 0.20555001497268677
			vertex 0.11831173300743103 -0.05400465056300163 0.218843474984169
		endloop
	endfacet
	facet normal 0.9130887704129503 -0.01788206453274071 0.40736854212593965
		outer loop
			vertex 0.14098350703716278 -0.1023595854640007 0.16590362787246704
			vertex 0.11831173300743103 -0.05400465056300163 0.218843474984169
			vertex 0.13405142724514008 -0.1023595854640007 0.18144141137599945
		endloop
	endfacet
	facet normal -0.5949782038252129 0.1353320896563835 -0.7922664718907143
		outer loop
			vertex 0.10399457067251205 -0.056277595460414886 0.23619616031646729
			vertex 0.10451976954936981 -0.056331004947423935 0.2357926219701767
			vertex 0.10397327691316605 -0.056371212005615234 0.23619616031646729
		endloop
	endfacet
	facet normal 0.9797781774372574 0.10553958483687069 0.16998858505849002
		outer loop
			vertex 0.14068390429019928 -0.06062287092208862 0.14171770215034485
			vertex 0.12495844811201096 -0.017447656020522118 0.20555001497268677
			vertex 0.14098350703716278 -0.1023595854640007 0.16590362787246704
		endloop
	endfacet
	facet normal 0.9797782134334859 0.1055394966089966 0.16998843236116484
		outer loop
			vertex 0.14068390429019928 -0.06062287092208862 0.14171770215034485
			vertex 0.14098350703716278 -0.1023595854640007 0.16590362787246704
			vertex 0.14517968893051147 -0.1023595854640007 0.14171770215034485
		endloop
	endfacet
	facet normal 0.6867071461117825 0.6255021095932899 0.3703787336947884
		outer loop
			vertex 0.12927882373332977 -0.0039880359545350075 0.17480890452861786
			vertex 0.1287061721086502 -0.003727508243173361 0.17543065547943115
			vertex 0.12495844811201096 -0.017447656020522118 0.20555001497268677
		endloop
	endfacet
	facet normal 0.7614375910827587 0.28930102819359715 0.580101465238809
		outer loop
			vertex 0.12927882373332977 -0.0039880359545350075 0.17480890452861786
			vertex 0.12927882373332977 0.039503954350948334 0.15311911702156067
			vertex 0.12767881155014038 0.03370850905776024 0.15810951590538025
		endloop
	endfacet
	facet normal 0.7614457107453926 0.28929744338111746 0.5800925950575417
		outer loop
			vertex 0.12927882373332977 -0.0039880359545350075 0.17480890452861786
			vertex 0.12767881155014038 0.03370850905776024 0.15810951590538025
			vertex 0.1287061721086502 -0.003727508243173361 0.17543065547943115
		endloop
	endfacet
	facet normal 0.9865814845241436 0.07286530189432336 0.14610825498234664
		outer loop
			vertex 0.12927882373332977 -0.0039880359545350075 0.17480890452861786
			vertex 0.13252384960651398 0.009368055500090122 0.14623640477657318
			vertex 0.12927882373332977 0.039503954350948334 0.15311911702156067
		endloop
	endfacet
	facet normal 0.986853694410535 0.04054862498352056 0.15644677957767025
		outer loop
			vertex 0.13135004043579102 -0.007831742987036705 0.1627400666475296
			vertex 0.12927882373332977 -0.0039880359545350075 0.17480890452861786
			vertex 0.12495844811201096 -0.017447656020522118 0.20555001497268677
		endloop
	endfacet
	facet normal 0.9865815639009514 0.07286485758602552 0.14610794057723644
		outer loop
			vertex 0.12927882373332977 -0.0039880359545350075 0.17480890452861786
			vertex 0.13135004043579102 -0.007831742987036705 0.1627400666475296
			vertex 0.13296687602996826 0.005253726616501808 0.14529672265052795
		endloop
	endfacet
	facet normal 0.9865816516776517 0.0728641140111323 0.146107718695385
		outer loop
			vertex 0.12927882373332977 -0.0039880359545350075 0.17480890452861786
			vertex 0.13296687602996826 0.005253726616501808 0.14529672265052795
			vertex 0.13252384960651398 0.009368055500090122 0.14623640477657318
		endloop
	endfacet
	facet normal 0.6866994123948453 0.6255094299311058 0.3703807096540496
		outer loop
			vertex 0.1287061721086502 -0.003727508243173361 0.17543065547943115
			vertex 0.11861135810613632 0.0008650739910081029 0.1863907277584076
			vertex 0.1076548770070076 -0.005831270013004541 0.21801342070102692
		endloop
	endfacet
	facet normal 0.6866998438541525 0.6255088470175874 0.37038089415277775
		outer loop
			vertex 0.1287061721086502 -0.003727508243173361 0.17543065547943115
			vertex 0.1076548770070076 -0.005831270013004541 0.21801342070102692
			vertex 0.12495844811201096 -0.017447656020522118 0.20555001497268677
		endloop
	endfacet
	facet normal 0.7614384919615612 0.2893008446241225 0.5801003742966151
		outer loop
			vertex 0.12767881155014038 0.03370850905776024 0.15810951590538025
			vertex 0.11861135810613632 0.0008650739910081029 0.1863907277584076
			vertex 0.1287061721086502 -0.003727508243173361 0.17543065547943115
		endloop
	endfacet
	facet normal 0.5807387951534237 0.1455648217832671 0.8009702456789239
		outer loop
			vertex 0.10397327691316605 -0.056371212005615234 0.23619616031646729
			vertex 0.10451976954936981 -0.056331004947423935 0.2357926219701767
			vertex 0.10354744642972946 -0.05467233806848526 0.23619616031646729
		endloop
	endfacet
	facet normal 0.9787662990492274 0.15008701813259975 0.13960809014359854
		outer loop
			vertex 0.13544923067092896 -0.026485860347747803 0.14171770215034485
			vertex 0.12495844811201096 -0.017447656020522118 0.20555001497268677
			vertex 0.14068390429019928 -0.06062287092208862 0.14171770215034485
		endloop
	endfacet
	facet normal 0.9868535895172775 0.040550024957792766 0.15644707837728133
		outer loop
			vertex 0.13495784997940063 -0.01452698651701212 0.14171770215034485
			vertex 0.13135004043579102 -0.007831742987036705 0.1627400666475296
			vertex 0.12495844811201096 -0.017447656020522118 0.20555001497268677
		endloop
	endfacet
	facet normal 0.9868536361025574 0.04054903739338813 0.1564470404885664
		outer loop
			vertex 0.13495784997940063 -0.01452698651701212 0.14171770215034485
			vertex 0.12495844811201096 -0.017447656020522118 0.20555001497268677
			vertex 0.13544923067092896 -0.026485860347747803 0.14171770215034485
		endloop
	endfacet
	facet normal 0.9865814890110636 0.07286350303614 0.14610912177552512
		outer loop
			vertex 0.13135004043579102 -0.007831742987036705 0.1627400666475296
			vertex 0.13495784997940063 -0.01452698651701212 0.14171770215034485
			vertex 0.13465431332588196 -0.010417059995234013 0.14171770215034485
		endloop
	endfacet
	facet normal 0.986581352283733 0.07286601745762109 0.14610879106291508
		outer loop
			vertex 0.13135004043579102 -0.007831742987036705 0.1627400666475296
			vertex 0.13465431332588196 -0.010417059995234013 0.14171770215034485
			vertex 0.13296687602996826 0.005253726616501808 0.14529672265052795
		endloop
	endfacet
	facet normal 0.6609730365100505 0.21235924819899113 0.719734808600392
		outer loop
			vertex 0.12495844811201096 -0.017447656020522118 0.20555001497268677
			vertex 0.1076548770070076 -0.005831270013004541 0.21801342070102692
			vertex 0.10249058902263641 -0.05138283222913742 0.23619616031646729
		endloop
	endfacet
	facet normal 0.6609735916961041 0.2123585943885771 0.7197344916492885
		outer loop
			vertex 0.12495844811201096 -0.017447656020522118 0.20555001497268677
			vertex 0.10249058902263641 -0.05138283222913742 0.23619616031646729
			vertex 0.10354744642972946 -0.05467233806848526 0.23619616031646729
		endloop
	endfacet
	facet normal 0.6609711614353393 0.21236119736466796 0.7197359554758003
		outer loop
			vertex 0.12495844811201096 -0.017447656020522118 0.20555001497268677
			vertex 0.10354744642972946 -0.05467233806848526 0.23619616031646729
			vertex 0.10451976954936981 -0.056331004947423935 0.2357926219701767
		endloop
	endfacet
	facet normal 0.47332892376002084 0.7094641717270616 0.5221305573971085
		outer loop
			vertex 0.10419433563947678 -0.05641087144613266 0.23619616031646729
			vertex 0.10451976954936981 -0.056331004947423935 0.2357926219701767
			vertex 0.10399457067251205 -0.056277595460414886 0.23619616031646729
		endloop
	endfacet
	facet normal -1 0 0
		outer loop
			vertex 0.10000000149011612 0.08382531255483627 0.17144522070884705
			vertex 0.10000000149011612 0.08780194818973541 0.16325539350509644
			vertex 0.10000000149011612 0.09038162976503372 0.15458810329437256
		endloop
	endfacet
	facet normal -1 0 0
		outer loop
			vertex 0.10000000149011612 0.08382531255483627 0.17144522070884705
			vertex 0.10000000149011612 0.09038162976503372 0.15458810329437256
			vertex 0.10000000149011612 0.07378730177879333 0.1723899245262146
		endloop
	endfacet
	facet normal -1 0 0
		outer loop
			vertex 0.10000000149011612 0.027152586728334427 0.17650185525417328
			vertex 0.10000000149011612 0.015532932244241238 0.19612541794776917
			vertex 0.10000000149011612 0.02321830578148365 0.19967225193977356
		endloop
	endfacet
	facet normal -1 0 0
		outer loop
			vertex 0.10000000149011612 0.027152586728334427 0.17650185525417328
			vertex 0.10000000149011612 0.02321830578148365 0.19967225193977356
			vertex 0.10000000149011612 0.04873621091246605 0.18694627285003662
		endloop
	endfacet
	facet normal -1 0 0
		outer loop
			vertex 0.10000000149011612 0.02321830578148365 0.19967225193977356
			vertex 0.10000000149011612 0.015532932244241238 0.19612541794776917
			vertex 0.10000000149011612 0.009332221001386642 0.20659734308719635
		endloop
	endfacet
	facet normal -1 0 0
		outer loop
			vertex 0.10000000149011612 0.0864170491695404 0.14171770215034485
			vertex 0.10000000149011612 0.04774922877550125 0.14171770215034485
			vertex 0.10000000149011612 0.027152586728334427 0.17650185525417328
		endloop
	endfacet
	facet normal -1 0 0
		outer loop
			vertex 0.10000000149011612 0.0864170491695404 0.14171770215034485
			vertex 0.10000000149011612 0.027152586728334427 0.17650185525417328
			vertex 0.10000000149011612 0.056648995727300644 0.1907752901315689
		endloop
	endfacet
	facet normal -1 0 0
		outer loop
			vertex 0.10000000149011612 0.0864170491695404 0.14171770215034485
			vertex 0.10000000149011612 0.056648995727300644 0.1907752901315689
			vertex 0.10000000149011612 0.09038162976503372 0.15458810329437256
		endloop
	endfacet
	facet normal -1 0 0
		outer loop
			vertex 0.10000000149011612 0.0864170491695404 0.14171770215034485
			vertex 0.10000000149011612 0.09038162976503372 0.15458810329437256
			vertex 0.10000000149011612 0.0938260555267334 0.14301535487174988
		endloop
	endfacet
	facet normal -1 0 0
		outer loop
			vertex 0.10000000149011612 0.04774922877550125 0.14171770215034485
			vertex 0.10000000149011612 -0.08604184538125992 0.14171770215034485
			vertex 0.10000000149011612 -0.09183195978403091 0.14657622575759888
		endloop
	endfacet
	facet normal -1 0 0
		outer loop
			vertex 0.10000000149011612 0.04774922877550125 0.14171770215034485
			vertex 0.10000000149011612 -0.09183195978403091 0.14657622575759888
			vertex 0.10000000149011612 0.015532932244241238 0.19612541794776917
		endloop
	endfacet
	facet normal -1 0 0
		outer loop
			vertex 0.10000000149011612 -0.1023595854640007 0.155410036444664
			vertex 0.10000000149011612 -0.1023595854640007 0.23132359981536865
			vertex 0.10000000149011612 -0.07383759319782257 0.23619616031646729
		endloop
	endfacet
	facet normal -1 0 0
		outer loop
			vertex 0.10000000149011612 -0.1023595854640007 0.155410036444664
			vertex 0.10000000149011612 -0.07383759319782257 0.23619616031646729
			vertex 0.10000000149011612 -0.04363081231713295 0.23619616031646729
		endloop
	endfacet
	facet normal -1 0 0
		outer loop
			vertex 0.10000000149011612 -0.1023595854640007 0.155410036444664
			vertex 0.10000000149011612 -0.04363081231713295 0.23619616031646729
			vertex 0.10000000149011612 -0.0006923323962837458 0.22352707386016846
		endloop
	endfacet
	facet normal -1 0 0
		outer loop
			vertex 0.10000000149011612 -0.1023595854640007 0.155410036444664
			vertex 0.10000000149011612 -0.0006923323962837458 0.22352707386016846
			vertex 0.10000000149011612 0.015532932244241238 0.19612541794776917
		endloop
	endfacet
	facet normal -1 0 0
		outer loop
			vertex 0.10000000149011612 -0.1023595854640007 0.155410036444664
			vertex 0.10000000149011612 0.015532932244241238 0.19612541794776917
			vertex 0.10000000149011612 -0.09183195978403091 0.14657622575759888
		endloop
	endfacet
	facet normal -1 0 0
		outer loop
			vertex 0.10000000149011612 0.09421227872371674 0.14171770215034485
			vertex 0.10000000149011612 0.0864170491695404 0.14171770215034485
			vertex 0.10000000149011612 0.0938260555267334 0.14301535487174988
		endloop
	endfacet
	facet normal -1 0 0
		outer loop
			vertex 0.10000000149011612 -0.1023595854640007 0.23132359981536865
			vertex 0.10000000149011612 -0.1023595854640007 0.23619616031646729
			vertex 0.10000000149011612 -0.07383759319782257 0.23619616031646729
		endloop
	endfacet
	facet normal -1 0 0
		outer loop
			vertex 0.10000000149011612 -0.08604184538125992 0.14171770215034485
			vertex 0.10000000149011612 -0.0933099240064621 0.14171770215034485
			vertex 0.10000000149011612 -0.09437087923288345 0.14540450274944305
		endloop
	endfacet
	facet normal -1 0 0
		outer loop
			vertex 0.10000000149011612 -0.08604184538125992 0.14171770215034485
			vertex 0.10000000149011612 -0.09437087923288345 0.14540450274944305
			vertex 0.10000000149011612 -0.09183195978403091 0.14657622575759888
		endloop
	endfacet
	facet normal -1 0 0
		outer loop
			vertex 0.10000000149011612 -0.09562364965677261 0.14975786209106445
			vertex 0.10000000149011612 -0.09183195978403091 0.14657622575759888
			vertex 0.10000000149011612 -0.09437087923288345 0.14540450274944305
		endloop
	endfacet
	facet normal -1 0 0
		outer loop
			vertex 0.10000000149011612 -0.0933099240064621 0.14171770215034485
			vertex 0.10000000149011612 -0.1023595854640007 0.14171770215034485
			vertex 0.10000000149011612 -0.09437087923288345 0.14540450274944305
		endloop
	endfacet
	facet normal -1 0 0
		outer loop
			vertex 0.10000000149011612 -0.1023595854640007 0.14171770215034485
			vertex 0.10000000149011612 -0.1023595854640007 0.155410036444664
			vertex 0.10000000149011612 -0.09562364965677261 0.14975786209106445
		endloop
	endfacet
	facet normal -1 0 0
		outer loop
			vertex 0.10000000149011612 -0.1023595854640007 0.14171770215034485
			vertex 0.10000000149011612 -0.09562364965677261 0.14975786209106445
			vertex 0.10000000149011612 -0.09437087923288345 0.14540450274944305
		endloop
	endfacet
	facet normal 0 -1 0
		outer loop
			vertex 0.10000000149011612 -0.1023595854640007 0.23132359981536865
			vertex 0.10000000149011612 -0.1023595854640007 0.155410036444664
			vertex 0.1088186651468277 -0.1023595854640007 0.14588356018066406
		endloop
	endfacet
	facet normal 0 -1 0
		outer loop
			vertex 0.10000000149011612 -0.1023595854640007 0.23132359981536865
			vertex 0.1088186651468277 -0.1023595854640007 0.14588356018066406
			vertex 0.13185712695121765 -0.1023595854640007 0.15676675736904144
		endloop
	endfacet
	facet normal 0 -1 0
		outer loop
			vertex 0.10000000149011612 -0.1023595854640007 0.23132359981536865
			vertex 0.13185712695121765 -0.1023595854640007 0.15676675736904144
			vertex 0.10760749876499176 -0.1023595854640007 0.22561044991016388
		endloop
	endfacet
	facet normal 0 -1 0
		outer loop
			vertex 0.1126750186085701 -0.1023595854640007 0.14171770215034485
			vertex 0.13715803623199463 -0.1023595854640007 0.14171770215034485
			vertex 0.13185712695121765 -0.1023595854640007 0.15676675736904144
		endloop
	endfacet
	facet normal 0 -1 0
		outer loop
			vertex 0.1126750186085701 -0.1023595854640007 0.14171770215034485
			vertex 0.13185712695121765 -0.1023595854640007 0.15676675736904144
			vertex 0.1088186651468277 -0.1023595854640007 0.14588356018066406
		endloop
	endfacet
	facet normal 0 -1 0
		outer loop
			vertex 0.10000000149011612 -0.1023595854640007 0.23619616031646729
			vertex 0.10000000149011612 -0.1023595854640007 0.23132359981536865
			vertex 0.10760749876499176 -0.1023595854640007 0.22561044991016388
		endloop
	endfacet
	facet normal 0 -1 0
		outer loop
			vertex 0.10000000149011612 -0.1023595854640007 0.23619616031646729
			vertex 0.10760749876499176 -0.1023595854640007 0.22561044991016388
			vertex 0.10387875884771347 -0.1023595854640007 0.23619616031646729
		endloop
	endfacet
	facet normal 0 -1 0
		outer loop
			vertex 0.10000000149011612 -0.1023595854640007 0.155410036444664
			vertex 0.10000000149011612 -0.1023595854640007 0.14171770215034485
			vertex 0.1088186651468277 -0.1023595854640007 0.14588356018066406
		endloop
	endfacet
	facet normal 0 -1 0
		outer loop
			vertex 0.10000000149011612 -0.1023595854640007 0.14171770215034485
			vertex 0.1126750186085701 -0.1023595854640007 0.14171770215034485
			vertex 0.1088186651468277 -0.1023595854640007 0.14588356018066406
		endloop
	endfacet
	facet normal 0 -1 0
		outer loop
			vertex 0.10800804942846298 -0.1023595854640007 0.23619616031646729
			vertex 0.10779566317796707 -0.1023595854640007 0.23619616031646729
			vertex 0.11020120233297348 -0.1023595854640007 0.23117955029010773
		endloop
	endfacet
	facet normal 0 -1 0
		outer loop
			vertex 0.13185712695121765 -0.1023595854640007 0.15676675736904144
			vertex 0.1417573094367981 -0.1023595854640007 0.1614435315132141
			vertex 0.14098350703716278 -0.1023595854640007 0.16590362787246704
		endloop
	endfacet
	facet normal 0 -1 0
		outer loop
			vertex 0.13185712695121765 -0.1023595854640007 0.15676675736904144
			vertex 0.14098350703716278 -0.1023595854640007 0.16590362787246704
			vertex 0.13405142724514008 -0.1023595854640007 0.18144141137599945
		endloop
	endfacet
	facet normal 0 -1 0
		outer loop
			vertex 0.13185712695121765 -0.1023595854640007 0.15676675736904144
			vertex 0.13405142724514008 -0.1023595854640007 0.18144141137599945
			vertex 0.11583419889211655 -0.1023595854640007 0.2194323092699051
		endloop
	endfacet
	facet normal 0 -1 0
		outer loop
			vertex 0.13185712695121765 -0.1023595854640007 0.15676675736904144
			vertex 0.11583419889211655 -0.1023595854640007 0.2194323092699051
			vertex 0.10760749876499176 -0.1023595854640007 0.22561044991016388
		endloop
	endfacet
	facet normal 0 -1 0
		outer loop
			vertex 0.13715803623199463 -0.1023595854640007 0.14171770215034485
			vertex 0.14517968893051147 -0.1023595854640007 0.14171770215034485
			vertex 0.1417573094367981 -0.1023595854640007 0.1614435315132141
		endloop
	endfacet
	facet normal 0 -1 0
		outer loop
			vertex 0.13715803623199463 -0.1023595854640007 0.14171770215034485
			vertex 0.1417573094367981 -0.1023595854640007 0.1614435315132141
			vertex 0.13185712695121765 -0.1023595854640007 0.15676675736904144
		endloop
	endfacet
	facet normal 0 -1 0
		outer loop
			vertex 0.11583419889211655 -0.1023595854640007 0.2194323092699051
			vertex 0.10779566317796707 -0.1023595854640007 0.23619616031646729
			vertex 0.10387875884771347 -0.1023595854640007 0.23619616031646729
		endloop
	endfacet
	facet normal 0 -1 0
		outer loop
			vertex 0.11583419889211655 -0.1023595854640007 0.2194323092699051
			vertex 0.10387875884771347 -0.1023595854640007 0.23619616031646729
			vertex 0.10760749876499176 -0.1023595854640007 0.22561044991016388
		endloop
	endfacet
	facet normal 0 0 1
		outer loop
			vertex 0.10000000149011612 -0.04363081231713295 0.23619616031646729
			vertex 0.10000000149011612 -0.07383759319782257 0.23619616031646729
			vertex 0.10277043282985687 -0.06165890395641327 0.23619616031646729
		endloop
	endfacet
	facet normal 0 0 1
		outer loop
			vertex 0.10000000149011612 -0.04363081231713295 0.23619616031646729
			vertex 0.10277043282985687 -0.06165890395641327 0.23619616031646729
			vertex 0.10249058902263641 -0.05138283222913742 0.23619616031646729
		endloop
	endfacet
	facet normal 0 0 1
		outer loop
			vertex 0.10000000149011612 -0.07383759319782257 0.23619616031646729
			vertex 0.10000000149011612 -0.1023595854640007 0.23619616031646729
			vertex 0.1037735790014267 -0.09849695861339569 0.23619616031646729
		endloop
	endfacet
	facet normal 0 0 1
		outer loop
			vertex 0.10000000149011612 -0.07383759319782257 0.23619616031646729
			vertex 0.1037735790014267 -0.09849695861339569 0.23619616031646729
			vertex 0.10277043282985687 -0.06165890395641327 0.23619616031646729
		endloop
	endfacet
	facet normal 0 0 1
		outer loop
			vertex 0.10000000149011612 -0.1023595854640007 0.23619616031646729
			vertex 0.10387875884771347 -0.1023595854640007 0.23619616031646729
			vertex 0.1037735790014267 -0.09849695861339569 0.23619616031646729
		endloop
	endfacet
	facet normal 0 0 1
		outer loop
			vertex 0.10779566317796707 -0.1023595854640007 0.23619616031646729
			vertex 0.10800804942846298 -0.1023595854640007 0.23619616031646729
			vertex 0.10792543739080429 -0.09950091689825058 0.23619616031646729
		endloop
	endfacet
	facet normal 0 0 1
		outer loop
			vertex 0.10419433563947678 -0.05641087144613266 0.23619616031646729
			vertex 0.10832130908966064 -0.09078071266412735 0.23619616031646729
			vertex 0.10968524217605591 -0.06073629856109619 0.23619616031646729
		endloop
	endfacet
	facet normal 0 0 1
		outer loop
			vertex 0.10419433563947678 -0.05641087144613266 0.23619616031646729
			vertex 0.10968524217605591 -0.06073629856109619 0.23619616031646729
			vertex 0.10437213629484177 -0.05652949586510658 0.23619616031646729
		endloop
	endfacet
	facet normal 0 0 1
		outer loop
			vertex 0.10249058902263641 -0.05138283222913742 0.23619616031646729
			vertex 0.10277043282985687 -0.06165890395641327 0.23619616031646729
			vertex 0.10397327691316605 -0.056371212005615234 0.23619616031646729
		endloop
	endfacet
	facet normal 0 0 1
		outer loop
			vertex 0.10249058902263641 -0.05138283222913742 0.23619616031646729
			vertex 0.10397327691316605 -0.056371212005615234 0.23619616031646729
			vertex 0.10354744642972946 -0.05467233806848526 0.23619616031646729
		endloop
	endfacet
	facet normal 0 0 1
		outer loop
			vertex 0.10277043282985687 -0.06165890395641327 0.23619616031646729
			vertex 0.1037735790014267 -0.09849695861339569 0.23619616031646729
			vertex 0.10817556083202362 -0.09399110823869705 0.23619616031646729
		endloop
	endfacet
	facet normal 0 0 1
		outer loop
			vertex 0.10277043282985687 -0.06165890395641327 0.23619616031646729
			vertex 0.10817556083202362 -0.09399110823869705 0.23619616031646729
			vertex 0.10832130908966064 -0.09078071266412735 0.23619616031646729
		endloop
	endfacet
	facet normal 0 0 1
		outer loop
			vertex 0.10277043282985687 -0.06165890395641327 0.23619616031646729
			vertex 0.10832130908966064 -0.09078071266412735 0.23619616031646729
			vertex 0.10419433563947678 -0.05641087144613266 0.23619616031646729
		endloop
	endfacet
	facet normal 0 0 1
		outer loop
			vertex 0.10277043282985687 -0.06165890395641327 0.23619616031646729
			vertex 0.10419433563947678 -0.05641087144613266 0.23619616031646729
			vertex 0.10399457067251205 -0.056277595460414886 0.23619616031646729
		endloop
	endfacet
	facet normal 0 0 1
		outer loop
			vertex 0.10387875884771347 -0.1023595854640007 0.23619616031646729
			vertex 0.10779566317796707 -0.1023595854640007 0.23619616031646729
			vertex 0.10817556083202362 -0.09399110823869705 0.23619616031646729
		endloop
	endfacet
	facet normal 0 0 1
		outer loop
			vertex 0.10387875884771347 -0.1023595854640007 0.23619616031646729
			vertex 0.10817556083202362 -0.09399110823869705 0.23619616031646729
			vertex 0.1037735790014267 -0.09849695861339569 0.23619616031646729
		endloop
	endfacet
	facet normal 0 0 -1
		outer loop
			vertex 0.1332986205816269 0.007938611321151257 0.14171770215034485
			vertex 0.1282668113708496 0.05465155467391014 0.14171770215034485
			vertex 0.12951791286468506 0.05905019864439964 0.14171770215034485
		endloop
	endfacet
	facet normal 0 0 -1
		outer loop
			vertex 0.1332986205816269 0.007938611321151257 0.14171770215034485
			vertex 0.12951791286468506 0.05905019864439964 0.14171770215034485
			vertex 0.12953586876392365 0.05888553336262703 0.14171770215034485
		endloop
	endfacet
	facet normal 0 0 -1
		outer loop
			vertex 0.12951791286468506 0.05905019864439964 0.14171770215034485
			vertex 0.1282668113708496 0.05465155467391014 0.14171770215034485
			vertex 0.12739020586013794 0.06278952211141586 0.14171770215034485
		endloop
	endfacet
	facet normal 0 0 -1
		outer loop
			vertex 0.12951791286468506 0.05905019864439964 0.14171770215034485
			vertex 0.12739020586013794 0.06278952211141586 0.14171770215034485
			vertex 0.1291276067495346 0.0607963390648365 0.14171770215034485
		endloop
	endfacet
	facet normal 0 0 -1
		outer loop
			vertex 0.12951791286468506 0.05905019864439964 0.14171770215034485
			vertex 0.1291276067495346 0.0607963390648365 0.14171770215034485
			vertex 0.12946867942810059 0.05950154364109039 0.14171770215034485
		endloop
	endfacet
	facet normal 0 0 -1
		outer loop
			vertex 0.1282668113708496 0.05465155467391014 0.14171770215034485
			vertex 0.13290102779865265 0.011629616841673851 0.14171770215034485
			vertex 0.12004461139440536 0.02574373222887516 0.14171770215034485
		endloop
	endfacet
	facet normal 0 0 -1
		outer loop
			vertex 0.10000000149011612 0.04774922877550125 0.14171770215034485
			vertex 0.10000000149011612 0.0864170491695404 0.14171770215034485
			vertex 0.10114515572786331 0.09289853274822235 0.14171770215034485
		endloop
	endfacet
	facet normal 0 0 -1
		outer loop
			vertex 0.10000000149011612 0.04774922877550125 0.14171770215034485
			vertex 0.10114515572786331 0.09289853274822235 0.14171770215034485
			vertex 0.12739020586013794 0.06278952211141586 0.14171770215034485
		endloop
	endfacet
	facet normal 0 0 -1
		outer loop
			vertex 0.10000000149011612 0.04774922877550125 0.14171770215034485
			vertex 0.12739020586013794 0.06278952211141586 0.14171770215034485
			vertex 0.1282668113708496 0.05465155467391014 0.14171770215034485
		endloop
	endfacet
	facet normal 0 0 -1
		outer loop
			vertex 0.10000000149011612 0.04774922877550125 0.14171770215034485
			vertex 0.1282668113708496 0.05465155467391014 0.14171770215034485
			vertex 0.12004461139440536 0.02574373222887516 0.14171770215034485
		endloop
	endfacet
	facet normal 0 0 -1
		outer loop
			vertex 0.12893718481063843 0.01598123461008072 0.14171770215034485
			vertex 0.13290102779865265 0.011629616841673851 0.14171770215034485
			vertex 0.1332986205816269 0.007938611321151257 0.14171770215034485
		endloop
	endfacet
	facet normal 0 0 -1
		outer loop
			vertex 0.12893718481063843 0.01598123461008072 0.14171770215034485
			vertex 0.1332986205816269 0.007938611321151257 0.14171770215034485
			vertex 0.13465431332588196 -0.010417059995234013 0.14171770215034485
		endloop
	endfacet
	facet normal 0 0 -1
		outer loop
			vertex 0.12893718481063843 0.01598123461008072 0.14171770215034485
			vertex 0.13465431332588196 -0.010417059995234013 0.14171770215034485
			vertex 0.13501471281051636 -0.023652294650673866 0.14171770215034485
		endloop
	endfacet
	facet normal 0 0 -1
		outer loop
			vertex 0.13715803623199463 -0.1023595854640007 0.14171770215034485
			vertex 0.1126750186085701 -0.1023595854640007 0.14171770215034485
			vertex 0.10000000149011612 -0.08604184538125992 0.14171770215034485
		endloop
	endfacet
	facet normal 0 0 -1
		outer loop
			vertex 0.13715803623199463 -0.1023595854640007 0.14171770215034485
			vertex 0.10000000149011612 -0.08604184538125992 0.14171770215034485
			vertex 0.10000000149011612 0.04774922877550125 0.14171770215034485
		endloop
	endfacet
	facet normal 0 0 -1
		outer loop
			vertex 0.13715803623199463 -0.1023595854640007 0.14171770215034485
			vertex 0.10000000149011612 0.04774922877550125 0.14171770215034485
			vertex 0.12893718481063843 0.01598123461008072 0.14171770215034485
		endloop
	endfacet
	facet normal 0 0 -1
		outer loop
			vertex 0.13715803623199463 -0.1023595854640007 0.14171770215034485
			vertex 0.12893718481063843 0.01598123461008072 0.14171770215034485
			vertex 0.13501471281051636 -0.023652294650673866 0.14171770215034485
		endloop
	endfacet
	facet normal 0 0 -1
		outer loop
			vertex 0.10000000149011612 0.0864170491695404 0.14171770215034485
			vertex 0.10000000149011612 0.09421227872371674 0.14171770215034485
			vertex 0.10114515572786331 0.09289853274822235 0.14171770215034485
		endloop
	endfacet
	facet normal 0 0 -1
		outer loop
			vertex 0.10000000149011612 -0.0933099240064621 0.14171770215034485
			vertex 0.10000000149011612 -0.08604184538125992 0.14171770215034485
			vertex 0.10691244900226593 -0.09494089335203171 0.14171770215034485
		endloop
	endfacet
	facet normal 0 0 -1
		outer loop
			vertex 0.1126750186085701 -0.1023595854640007 0.14171770215034485
			vertex 0.10000000149011612 -0.1023595854640007 0.14171770215034485
			vertex 0.10000000149011612 -0.0933099240064621 0.14171770215034485
		endloop
	endfacet
	facet normal 0 0 -1
		outer loop
			vertex 0.1126750186085701 -0.1023595854640007 0.14171770215034485
			vertex 0.10000000149011612 -0.0933099240064621 0.14171770215034485
			vertex 0.10691244900226593 -0.09494089335203171 0.14171770215034485
		endloop
	endfacet
	facet normal 0 0 -1
		outer loop
			vertex 0.13501471281051636 -0.023652294650673866 0.14171770215034485
			vertex 0.13465431332588196 -0.010417059995234013 0.14171770215034485
			vertex 0.13495784997940063 -0.01452698651701212 0.14171770215034485
		endloop
	endfacet
	facet normal 0 0 -1
		outer loop
			vertex 0.13501471281051636 -0.023652294650673866 0.14171770215034485
			vertex 0.13495784997940063 -0.01452698651701212 0.14171770215034485
			vertex 0.13544923067092896 -0.026485860347747803 0.14171770215034485
		endloop
	endfacet
	facet normal 0 0 -1
		outer loop
			vertex 0.14517968893051147 -0.1023595854640007 0.14171770215034485
			vertex 0.13715803623199463 -0.1023595854640007 0.14171770215034485
			vertex 0.13501471281051636 -0.023652294650673866 0.14171770215034485
		endloop
	endfacet
	facet normal 0 0 -1
		outer loop
			vertex 0.14517968893051147 -0.1023595854640007 0.14171770215034485
			vertex 0.13501471281051636 -0.023652294650673866 0.14171770215034485
			vertex 0.14068390429019928 -0.06062287092208862 0.14171770215034485
		endloop
	endfacet
endsolid exported
