solid exported
	facet normal 0.18191852901086447 -0.8038333829840115 -0.5663546072938782
		outer loop
			vertex 0.10000000149011612 0.1851169466972351 -0.24291299283504486
			vertex 0.10000000149011612 0.18657873570919037 -0.24498772621154785
			vertex 0.10076291859149933 0.18564540147781372 -0.24341797828674316
		endloop
	endfacet
	facet normal 0.18192872159238507 -0.8038301541540088 -0.5663559159508296
		outer loop
			vertex 0.10427282005548477 0.18135151267051697 -0.23619616031646729
			vertex 0.10000000149011612 0.18038445711135864 -0.23619616031646729
			vertex 0.10000000149011612 0.1851169466972351 -0.24291299283504486
		endloop
	endfacet
	facet normal 0.18192028855487347 -0.8038342318323142 -0.5663528373255186
		outer loop
			vertex 0.10427282005548477 0.18135151267051697 -0.23619616031646729
			vertex 0.10000000149011612 0.1851169466972351 -0.24291299283504486
			vertex 0.10076291859149933 0.18564540147781372 -0.24341797828674316
		endloop
	endfacet
	facet normal 0 1 0
		outer loop
			vertex 0.29999998211860657 0.3067464232444763 -0.23619616031646729
			vertex 0.29999998211860657 0.3067464232444763 -0.26956963539123535
			vertex 0.19491524994373322 0.3067464232444763 -0.2853107154369354
		endloop
	endfacet
	facet normal 0 1 0
		outer loop
			vertex 0.29999998211860657 0.3067464232444763 -0.23619616031646729
			vertex 0.19491524994373322 0.3067464232444763 -0.2853107154369354
			vertex 0.2254573106765747 0.3067464232444763 -0.23619616031646729
		endloop
	endfacet
	facet normal 0 1 0
		outer loop
			vertex 0.2254573106765747 0.3067464232444763 -0.23619616031646729
			vertex 0.19491524994373322 0.3067464232444763 -0.2853107154369354
			vertex 0.19071777164936066 0.3067464232444763 -0.23619616031646729
		endloop
	endfacet
	facet normal 0 1 0
		outer loop
			vertex 0.29999998211860657 0.3067464232444763 -0.2853107154369354
			vertex 0.19491524994373322 0.3067464232444763 -0.2853107154369354
			vertex 0.29999998211860657 0.3067464232444763 -0.26956963539123535
		endloop
	endfacet
	facet normal 0 1 0
		outer loop
			vertex 0.10000000149011612 0.3067464232444763 -0.23619616031646729
			vertex 0.1653839647769928 0.3067464232444763 -0.23619616031646729
			vertex 0.19491524994373322 0.3067464232444763 -0.2853107154369354
		endloop
	endfacet
	facet normal 0 1 0
		outer loop
			vertex 0.10000000149011612 0.3067464232444763 -0.23619616031646729
			vertex 0.19491524994373322 0.3067464232444763 -0.2853107154369354
			vertex 0.10000000149011612 0.3067464232444763 -0.2853107154369354
		endloop
	endfacet
	facet normal 0 1 0
		outer loop
			vertex 0.19071777164936066 0.3067464232444763 -0.23619616031646729
			vertex 0.19491524994373322 0.3067464232444763 -0.2853107154369354
			vertex 0.1653839647769928 0.3067464232444763 -0.23619616031646729
		endloop
	endfacet
	facet normal 0.18192858920990393 -0.8038296237834571 -0.5663567112308635
		outer loop
			vertex 0.10000000149011612 0.1954173445701599 -0.25753235816955566
			vertex 0.1065419465303421 0.18964850902557373 -0.24724321067333221
			vertex 0.10076291859149933 0.18564540147781372 -0.24341797828674316
		endloop
	endfacet
	facet normal 0.18192736447517271 -0.8038298414416154 -0.5663567957242721
		outer loop
			vertex 0.10000000149011612 0.1954173445701599 -0.25753235816955566
			vertex 0.10076291859149933 0.18564540147781372 -0.24341797828674316
			vertex 0.10000000149011612 0.18657873570919037 -0.24498772621154785
		endloop
	endfacet
	facet normal 0.18192681230261545 -0.8038304955725729 -0.5663560446865212
		outer loop
			vertex 0.1065419465303421 0.18964850902557373 -0.24724321067333221
			vertex 0.11356576532125473 0.1834547370672226 -0.23619616031646729
			vertex 0.10427282005548477 0.18135151267051697 -0.23619616031646729
		endloop
	endfacet
	facet normal 0.18193003937018354 -0.8038303233610051 -0.5663552524874343
		outer loop
			vertex 0.1065419465303421 0.18964850902557373 -0.24724321067333221
			vertex 0.10427282005548477 0.18135151267051697 -0.23619616031646729
			vertex 0.10076291859149933 0.18564540147781372 -0.24341797828674316
		endloop
	endfacet
	facet normal 0.13364533133097828 -0.7219396094577989 -0.6789271873399637
		outer loop
			vertex 0.15779590606689453 0.22395993769168854 -0.27947747707366943
			vertex 0.10000000149011612 0.20376478135585785 -0.2693798840045929
			vertex 0.10000000149011612 0.20482321083545685 -0.2705053687095642
		endloop
	endfacet
	facet normal 0.13364585105033666 -0.7219406248876508 -0.678926005271458
		outer loop
			vertex 0.15779590606689453 0.22395993769168854 -0.27947747707366943
			vertex 0.10000000149011612 0.20482321083545685 -0.2705053687095642
			vertex 0.1416938155889511 0.22590109705924988 -0.2847113013267517
		endloop
	endfacet
	facet normal 0.07436646134744045 -0.6543094162258228 -0.7525615039748463
		outer loop
			vertex 0.10000000149011612 0.20482321083545685 -0.2705053687095642
			vertex 0.10000000149011612 0.23204244673252106 -0.29417094588279724
			vertex 0.1416938155889511 0.22590109705924988 -0.2847113013267517
		endloop
	endfacet
	facet normal 0.18192755664379612 -0.8038301295657668 -0.566356325060382
		outer loop
			vertex 0.11356576532125473 0.1834547370672226 -0.23619616031646729
			vertex 0.10000000149011612 0.1954173445701599 -0.25753235816955566
			vertex 0.10000000149011612 0.20376478135585785 -0.2693798840045929
		endloop
	endfacet
	facet normal 0.18192713442245698 -0.803830281304819 -0.5663562453246621
		outer loop
			vertex 0.11356576532125473 0.1834547370672226 -0.23619616031646729
			vertex 0.10000000149011612 0.20376478135585785 -0.2693798840045929
			vertex 0.15779590606689453 0.22395993769168854 -0.27947747707366943
		endloop
	endfacet
	facet normal 0.18192740594173942 -0.8038303620861653 -0.566356043452998
		outer loop
			vertex 0.11356576532125473 0.1834547370672226 -0.23619616031646729
			vertex 0.15779590606689453 0.22395993769168854 -0.27947747707366943
			vertex 0.23831906914710999 0.21689915657043457 -0.2435900866985321
		endloop
	endfacet
	facet normal 0.18192738699159963 -0.8038303093061021 -0.5663561244510956
		outer loop
			vertex 0.11356576532125473 0.1834547370672226 -0.23619616031646729
			vertex 0.23831906914710999 0.21689915657043457 -0.2435900866985321
			vertex 0.22740736603736877 0.2092200070619583 -0.23619616031646729
		endloop
	endfacet
	facet normal 0.39244179748559066 -0.8632698606118073 -0.3174186247616067
		outer loop
			vertex 0.24545042216777802 0.21742236614227295 -0.23619616031646729
			vertex 0.22740736603736877 0.2092200070619583 -0.23619616031646729
			vertex 0.23831906914710999 0.21689915657043457 -0.2435900866985321
		endloop
	endfacet
	facet normal 0.13364589873048185 -0.7219405160666683 -0.6789261116011923
		outer loop
			vertex 0.2688489258289337 0.2627643048763275 -0.2988796830177307
			vertex 0.15779590606689453 0.22395993769168854 -0.27947747707366943
			vertex 0.1416938155889511 0.22590109705924988 -0.2847113013267517
		endloop
	endfacet
	facet normal 0.13364549535050294 -0.7219395500058937 -0.6789272182714481
		outer loop
			vertex 0.2688489258289337 0.2627643048763275 -0.2988796830177307
			vertex 0.1416938155889511 0.22590109705924988 -0.2847113013267517
			vertex 0.20888939499855042 0.2598711848258972 -0.30760619044303894
		endloop
	endfacet
	facet normal 0.0743669265286711 -0.6543097043950599 -0.7525612074596516
		outer loop
			vertex 0.10000000149011612 0.23204244673252106 -0.29417094588279724
			vertex 0.10000000149011612 0.25312599539756775 -0.3125019073486328
			vertex 0.20888939499855042 0.2598711848258972 -0.30760619044303894
		endloop
	endfacet
	facet normal 0.0743666332781667 -0.6543089060502456 -0.752561930553361
		outer loop
			vertex 0.10000000149011612 0.23204244673252106 -0.29417094588279724
			vertex 0.20888939499855042 0.2598711848258972 -0.30760619044303894
			vertex 0.1416938155889511 0.22590109705924988 -0.2847113013267517
		endloop
	endfacet
	facet normal 0.18192739949447786 -0.8038305911973064 -0.5663557203459375
		outer loop
			vertex 0.15779590606689453 0.22395993769168854 -0.27947747707366943
			vertex 0.2688489258289337 0.2627643048763275 -0.2988796830177307
			vertex 0.29999998211860657 0.263703852891922 -0.2902067005634308
		endloop
	endfacet
	facet normal 0.18192826983192317 -0.8038327880592613 -0.5663523227433942
		outer loop
			vertex 0.15779590606689453 0.22395993769168854 -0.27947747707366943
			vertex 0.29999998211860657 0.263703852891922 -0.2902067005634308
			vertex 0.29999998211860657 0.26030731201171875 -0.28538593649864197
		endloop
	endfacet
	facet normal 0.18192746598376727 -0.803830266787356 -0.5663561594238146
		outer loop
			vertex 0.15779590606689453 0.22395993769168854 -0.27947747707366943
			vertex 0.29999998211860657 0.26030731201171875 -0.28538593649864197
			vertex 0.23831906914710999 0.21689915657043457 -0.2435900866985321
		endloop
	endfacet
	facet normal 0.39244190418544306 -0.8632698905616069 -0.31741841138953314
		outer loop
			vertex 0.29999998211860657 0.2561880648136139 -0.2741829752922058
			vertex 0.26399677991867065 0.2269119918346405 -0.23907478153705597
			vertex 0.24373145401477814 0.2172962725162506 -0.23797844350337982
		endloop
	endfacet
	facet normal 0.3924426752941363 -0.8632699551598226 -0.31741728233720834
		outer loop
			vertex 0.29999998211860657 0.2561880648136139 -0.2741829752922058
			vertex 0.24373145401477814 0.2172962725162506 -0.23797844350337982
			vertex 0.23831906914710999 0.21689915657043457 -0.2435900866985321
		endloop
	endfacet
	facet normal 0.39244224572348285 -0.8632698714942563 -0.31741804098349496
		outer loop
			vertex 0.29999998211860657 0.2561880648136139 -0.2741829752922058
			vertex 0.23831906914710999 0.21689915657043457 -0.2435900866985321
			vertex 0.29999998211860657 0.26030731201171875 -0.28538593649864197
		endloop
	endfacet
	facet normal 0.05555520801595952 -0.7941134054296638 -0.605225179729996
		outer loop
			vertex 0.29999998211860657 0.24588070809841156 -0.26065871119499207
			vertex 0.2816665768623352 0.22595424950122833 -0.23619616031646729
			vertex 0.27495646476745605 0.22548481822013855 -0.23619616031646729
		endloop
	endfacet
	facet normal 0.05555585877265217 -0.794113688056531 -0.6052247491612416
		outer loop
			vertex 0.29999998211860657 0.24588070809841156 -0.26065871119499207
			vertex 0.27495646476745605 0.22548481822013855 -0.23619616031646729
			vertex 0.26399677991867065 0.2269119918346405 -0.23907478153705597
		endloop
	endfacet
	facet normal 0.055556152399968584 -0.794113899306071 -0.6052244450279737
		outer loop
			vertex 0.29999998211860657 0.24588070809841156 -0.26065871119499207
			vertex 0.26399677991867065 0.2269119918346405 -0.23907478153705597
			vertex 0.29999998211860657 0.2561880648136139 -0.2741829752922058
		endloop
	endfacet
	facet normal 0.283538781883962 -0.836506342893234 -0.46889540141394687
		outer loop
			vertex 0.29999998211860657 0.23216846585273743 -0.23619616031646729
			vertex 0.2816665768623352 0.22595424950122833 -0.23619616031646729
			vertex 0.29999998211860657 0.24588070809841156 -0.26065871119499207
		endloop
	endfacet
	facet normal 1 0 0
		outer loop
			vertex 0.29999998211860657 0.23478126525878906 -0.23619616031646729
			vertex 0.29999998211860657 0.23216846585273743 -0.23619616031646729
			vertex 0.29999998211860657 0.24588070809841156 -0.26065871119499207
		endloop
	endfacet
	facet normal 1 0 0
		outer loop
			vertex 0.29999998211860657 0.23478126525878906 -0.23619616031646729
			vertex 0.29999998211860657 0.24588070809841156 -0.26065871119499207
			vertex 0.29999998211860657 0.2561880648136139 -0.2741829752922058
		endloop
	endfacet
	facet normal 1 0 0
		outer loop
			vertex 0.29999998211860657 0.23478126525878906 -0.23619616031646729
			vertex 0.29999998211860657 0.2561880648136139 -0.2741829752922058
			vertex 0.29999998211860657 0.24399520456790924 -0.2410225123167038
		endloop
	endfacet
	facet normal 1 0 0
		outer loop
			vertex 0.29999998211860657 0.26030731201171875 -0.28538593649864197
			vertex 0.29999998211860657 0.263703852891922 -0.2902067005634308
			vertex 0.29999998211860657 0.25800684094429016 -0.24836193025112152
		endloop
	endfacet
	facet normal 1 0 0
		outer loop
			vertex 0.29999998211860657 0.26030731201171875 -0.28538593649864197
			vertex 0.29999998211860657 0.25800684094429016 -0.24836193025112152
			vertex 0.29999998211860657 0.24399520456790924 -0.2410225123167038
		endloop
	endfacet
	facet normal 0.39244294853749434 -0.863270054862049 -0.3174166733517199
		outer loop
			vertex 0.26399677991867065 0.2269119918346405 -0.23907478153705597
			vertex 0.26104477047920227 0.22451156377792358 -0.23619616031646729
			vertex 0.24545042216777802 0.21742236614227295 -0.23619616031646729
		endloop
	endfacet
	facet normal 0.39244074092546133 -0.8632681443928544 -0.3174245985086745
		outer loop
			vertex 0.26399677991867065 0.2269119918346405 -0.23907478153705597
			vertex 0.24545042216777802 0.21742236614227295 -0.23619616031646729
			vertex 0.24373145401477814 0.2172962725162506 -0.23797844350337982
		endloop
	endfacet
	facet normal 0.05555576829313051 -0.7941138831939563 -0.6052245014273427
		outer loop
			vertex 0.27495646476745605 0.22548481822013855 -0.23619616031646729
			vertex 0.26104477047920227 0.22451156377792358 -0.23619616031646729
			vertex 0.26399677991867065 0.2269119918346405 -0.23907478153705597
		endloop
	endfacet
	facet normal 1 0 0
		outer loop
			vertex 0.29999998211860657 0.24222059547901154 -0.23619616031646729
			vertex 0.29999998211860657 0.23478126525878906 -0.23619616031646729
			vertex 0.29999998211860657 0.24399520456790924 -0.2410225123167038
		endloop
	endfacet
	facet normal 1 0 0
		outer loop
			vertex 0.29999998211860657 0.25635048747062683 -0.23619616031646729
			vertex 0.29999998211860657 0.24222059547901154 -0.23619616031646729
			vertex 0.29999998211860657 0.24399520456790924 -0.2410225123167038
		endloop
	endfacet
	facet normal 1 0 0
		outer loop
			vertex 0.29999998211860657 0.25635048747062683 -0.23619616031646729
			vertex 0.29999998211860657 0.24399520456790924 -0.2410225123167038
			vertex 0.29999998211860657 0.25800684094429016 -0.24836193025112152
		endloop
	endfacet
	facet normal 0.37936623825132165 0.045127667200480004 -0.9241454165487617
		outer loop
			vertex 0.1711532026529312 0.27517446875572205 -0.3256895840167999
			vertex 0.1859421581029892 0.28015950322151184 -0.319375216960907
			vertex 0.21319374442100525 0.2620472013950348 -0.3090727627277374
		endloop
	endfacet
	facet normal -0.2537394936435197 -0.7376636558498862 -0.6256745161853013
		outer loop
			vertex 0.21319374442100525 0.2620472013950348 -0.3090727627277374
			vertex 0.1859421581029892 0.28015950322151184 -0.319375216960907
			vertex 0.20804253220558167 0.2765038311481476 -0.3240279257297516
		endloop
	endfacet
	facet normal 0.3640298427525665 -0.6038549675559207 -0.7091131445288402
		outer loop
			vertex 0.21319374442100525 0.2620472013950348 -0.3090727627277374
			vertex 0.20804253220558167 0.2765038311481476 -0.3240279257297516
			vertex 0.22981056571006775 0.28182119131088257 -0.3173811733722687
		endloop
	endfacet
	facet normal -0.3430166542818601 -0.10401638805846146 -0.933552444108284
		outer loop
			vertex 0.22937999665737152 0.2813088297843933 -0.31716588139533997
			vertex 0.22981056571006775 0.28182119131088257 -0.3173811733722687
			vertex 0.24609503149986267 0.27733466029167175 -0.32286471128463745
		endloop
	endfacet
	facet normal -0.3430024552017356 -0.10393641418058897 -0.9335665683457514
		outer loop
			vertex 0.22937999665737152 0.2813088297843933 -0.31716588139533997
			vertex 0.24609503149986267 0.27733466029167175 -0.32286471128463745
			vertex 0.24567772448062897 0.2771407663822174 -0.32268980145454407
		endloop
	endfacet
	facet normal 0.0024495896438774685 0.7908560925601911 -0.6119972551989128
		outer loop
			vertex 0.29999998211860657 0.2844799757003784 -0.31366440653800964
			vertex 0.29999998211860657 0.2835523188114166 -0.3148631751537323
			vertex 0.22981056571006775 0.28182119131088257 -0.3173811733722687
		endloop
	endfacet
	facet normal 0.0024492234269401798 0.7908595381002672 -0.6119928041247192
		outer loop
			vertex 0.29999998211860657 0.2844799757003784 -0.31366440653800964
			vertex 0.22981056571006775 0.28182119131088257 -0.3173811733722687
			vertex 0.2688137888908386 0.2910880446434021 -0.30524981021881104
		endloop
	endfacet
	facet normal -0.0007660991280110558 0.7850912987942928 -0.6193795812340092
		outer loop
			vertex 0.29999998211860657 0.29866117238998413 -0.29568910598754883
			vertex 0.29999998211860657 0.2844799757003784 -0.31366440653800964
			vertex 0.2688137888908386 0.2910880446434021 -0.30524981021881104
		endloop
	endfacet
	facet normal 1 0 0
		outer loop
			vertex 0.29999998211860657 0.29866117238998413 -0.29568910598754883
			vertex 0.29999998211860657 0.29849761724472046 -0.29554983973503113
			vertex 0.29999998211860657 0.2844799757003784 -0.31366440653800964
		endloop
	endfacet
	facet normal 0.16532973012951657 -0.8327649368575909 -0.5283641171350245
		outer loop
			vertex 0.24609503149986267 0.27733466029167175 -0.32286471128463745
			vertex 0.29999998211860657 0.2832208275794983 -0.3152746856212616
			vertex 0.29999998211860657 0.2832108438014984 -0.3152589499950409
		endloop
	endfacet
	facet normal 0.16534225281328177 -0.8326495522119979 -0.5285420159606883
		outer loop
			vertex 0.24609503149986267 0.27733466029167175 -0.32286471128463745
			vertex 0.29999998211860657 0.2832108438014984 -0.3152589499950409
			vertex 0.24567772448062897 0.2771407663822174 -0.32268980145454407
		endloop
	endfacet
	facet normal 0.003293272268750861 0.7787527474349426 -0.627322335582189
		outer loop
			vertex 0.29999998211860657 0.2835523188114166 -0.3148631751537323
			vertex 0.29999998211860657 0.2832208275794983 -0.3152746856212616
			vertex 0.24609503149986267 0.27733466029167175 -0.32286471128463745
		endloop
	endfacet
	facet normal 0.003299262848933369 0.7787327371385925 -0.6273471439110004
		outer loop
			vertex 0.29999998211860657 0.2835523188114166 -0.3148631751537323
			vertex 0.24609503149986267 0.27733466029167175 -0.32286471128463745
			vertex 0.22981056571006775 0.28182119131088257 -0.3173811733722687
		endloop
	endfacet
	facet normal 1 0 0
		outer loop
			vertex 0.29999998211860657 0.2835523188114166 -0.3148631751537323
			vertex 0.29999998211860657 0.29849761724472046 -0.29554983973503113
			vertex 0.29999998211860657 0.2984601855278015 -0.2955179512500763
		endloop
	endfacet
	facet normal 1 0 0
		outer loop
			vertex 0.29999998211860657 0.2835523188114166 -0.3148631751537323
			vertex 0.29999998211860657 0.2984601855278015 -0.2955179512500763
			vertex 0.29999998211860657 0.2832108438014984 -0.3152589499950409
		endloop
	endfacet
	facet normal 1 0 0
		outer loop
			vertex 0.29999998211860657 0.2835523188114166 -0.3148631751537323
			vertex 0.29999998211860657 0.2832108438014984 -0.3152589499950409
			vertex 0.29999998211860657 0.2832208275794983 -0.3152746856212616
		endloop
	endfacet
	facet normal -0.34301508965726013 -0.10400158839630061 -0.9335546678574687
		outer loop
			vertex 0.21319374442100525 0.2620472013950348 -0.3090727627277374
			vertex 0.22937999665737152 0.2813088297843933 -0.31716588139533997
			vertex 0.24567772448062897 0.2771407663822174 -0.32268980145454407
		endloop
	endfacet
	facet normal 0.1336454736082656 -0.7219381763405053 -0.6789286832401235
		outer loop
			vertex 0.21319374442100525 0.2620472013950348 -0.3090727627277374
			vertex 0.29999998211860657 0.279315710067749 -0.31034761667251587
			vertex 0.29999998211860657 0.2736491858959198 -0.30432212352752686
		endloop
	endfacet
	facet normal 0.13364555375295548 -0.7219392498655806 -0.6789275259301163
		outer loop
			vertex 0.21319374442100525 0.2620472013950348 -0.3090727627277374
			vertex 0.29999998211860657 0.2736491858959198 -0.30432212352752686
			vertex 0.2688489258289337 0.2627643048763275 -0.2988796830177307
		endloop
	endfacet
	facet normal 0.1336456295161037 -0.7219388182564297 -0.6789279699686516
		outer loop
			vertex 0.21319374442100525 0.2620472013950348 -0.3090727627277374
			vertex 0.2688489258289337 0.2627643048763275 -0.2988796830177307
			vertex 0.2213829755783081 0.2604740262031555 -0.3057878911495209
		endloop
	endfacet
	facet normal 0.14278881287359607 -0.7642115174638722 -0.6289611367117327
		outer loop
			vertex 0.29999998211860657 0.279315710067749 -0.31034761667251587
			vertex 0.21319374442100525 0.2620472013950348 -0.3090727627277374
			vertex 0.29999998211860657 0.2827153503894806 -0.3144783079624176
		endloop
	endfacet
	facet normal 0.1653426056142221 -0.8326667429670922 -0.5285148228056378
		outer loop
			vertex 0.29999998211860657 0.2832108438014984 -0.3152589499950409
			vertex 0.29999998211860657 0.2827153503894806 -0.3144783079624176
			vertex 0.21319374442100525 0.2620472013950348 -0.3090727627277374
		endloop
	endfacet
	facet normal 0.16534098503362019 -0.8326622932368238 -0.5285223401992636
		outer loop
			vertex 0.29999998211860657 0.2832108438014984 -0.3152589499950409
			vertex 0.21319374442100525 0.2620472013950348 -0.3090727627277374
			vertex 0.24567772448062897 0.2771407663822174 -0.32268980145454407
		endloop
	endfacet
	facet normal 1 0 0
		outer loop
			vertex 0.29999998211860657 0.2832108438014984 -0.3152589499950409
			vertex 0.29999998211860657 0.28328201174736023 -0.31516680121421814
			vertex 0.29999998211860657 0.2827153503894806 -0.3144783079624176
		endloop
	endfacet
	facet normal 1 0 0
		outer loop
			vertex 0.29999998211860657 0.28328201174736023 -0.31516680121421814
			vertex 0.29999998211860657 0.2835371494293213 -0.3148365318775177
			vertex 0.29999998211860657 0.279315710067749 -0.31034761667251587
		endloop
	endfacet
	facet normal 0.18192754508354259 -0.8038301566462858 -0.5663562903384084
		outer loop
			vertex 0.29999998211860657 0.263703852891922 -0.2902067005634308
			vertex 0.2688489258289337 0.2627643048763275 -0.2988796830177307
			vertex 0.29999998211860657 0.2736491858959198 -0.30432212352752686
		endloop
	endfacet
	facet normal 1 0 0
		outer loop
			vertex 0.29999998211860657 0.26142504811286926 -0.2734687328338623
			vertex 0.29999998211860657 0.263703852891922 -0.2902067005634308
			vertex 0.29999998211860657 0.2736491858959198 -0.30432212352752686
		endloop
	endfacet
	facet normal 1 0 0
		outer loop
			vertex 0.29999998211860657 0.26142504811286926 -0.2734687328338623
			vertex 0.29999998211860657 0.2736491858959198 -0.30432212352752686
			vertex 0.29999998211860657 0.2835371494293213 -0.3148365318775177
		endloop
	endfacet
	facet normal 1 0 0
		outer loop
			vertex 0.29999998211860657 0.26142504811286926 -0.2734687328338623
			vertex 0.29999998211860657 0.2835371494293213 -0.3148365318775177
			vertex 0.29999998211860657 0.2984601855278015 -0.2955179512500763
		endloop
	endfacet
	facet normal 1 0 0
		outer loop
			vertex 0.29999998211860657 0.26142504811286926 -0.2734687328338623
			vertex 0.29999998211860657 0.2984601855278015 -0.2955179512500763
			vertex 0.29999998211860657 0.2719631791114807 -0.2729541063308716
		endloop
	endfacet
	facet normal 0.002449836401351382 0.7908590845067289 -0.6119933878358371
		outer loop
			vertex 0.22981056571006775 0.28182119131088257 -0.3173811733722687
			vertex 0.21737858653068542 0.2907011806964874 -0.3059556186199188
			vertex 0.23832379281520844 0.2975485920906067 -0.29702308773994446
		endloop
	endfacet
	facet normal 0.0024494645970981233 0.7908591605270487 -0.6119932910854821
		outer loop
			vertex 0.22981056571006775 0.28182119131088257 -0.3173811733722687
			vertex 0.23832379281520844 0.2975485920906067 -0.29702308773994446
			vertex 0.2688137888908386 0.2910880446434021 -0.30524981021881104
		endloop
	endfacet
	facet normal -0.00076697368674438 0.7850865253459025 -0.6193856306628865
		outer loop
			vertex 0.25488385558128357 0.3031434118747711 -0.289951890707016
			vertex 0.29999998211860657 0.3004327714443207 -0.29344356060028076
			vertex 0.29999998211860657 0.29866117238998413 -0.29568910598754883
		endloop
	endfacet
	facet normal -0.0007658379413234264 0.7850908853046431 -0.6193801056732606
		outer loop
			vertex 0.25488385558128357 0.3031434118747711 -0.289951890707016
			vertex 0.29999998211860657 0.29866117238998413 -0.29568910598754883
			vertex 0.2688137888908386 0.2910880446434021 -0.30524981021881104
		endloop
	endfacet
	facet normal -0.000765878256226938 0.7850908674217946 -0.6193801282906897
		outer loop
			vertex 0.25488385558128357 0.3031434118747711 -0.289951890707016
			vertex 0.2688137888908386 0.2910880446434021 -0.30524981021881104
			vertex 0.23832379281520844 0.2975485920906067 -0.29702308773994446
		endloop
	endfacet
	facet normal 9.901270953250046e-8 0.7899119481876944 -0.6132202818810805
		outer loop
			vertex 0.29999998211860657 0.3004327714443207 -0.29344356060028076
			vertex 0.25488385558128357 0.3031434118747711 -0.289951890707016
			vertex 0.2657611668109894 0.3067464232444763 -0.2853107154369354
		endloop
	endfacet
	facet normal 0 0.7899117462755985 -0.6132205419715119
		outer loop
			vertex 0.29999998211860657 0.3004327714443207 -0.29344356060028076
			vertex 0.2657611668109894 0.3067464232444763 -0.2853107154369354
			vertex 0.29999998211860657 0.3067464232444763 -0.2853107154369354
		endloop
	endfacet
	facet normal 1 0 0
		outer loop
			vertex 0.29999998211860657 0.3067464232444763 -0.2853107154369354
			vertex 0.29999998211860657 0.3067464232444763 -0.28489017486572266
			vertex 0.29999998211860657 0.29849761724472046 -0.29554983973503113
		endloop
	endfacet
	facet normal 1 0 0
		outer loop
			vertex 0.29999998211860657 0.3067464232444763 -0.2853107154369354
			vertex 0.29999998211860657 0.29849761724472046 -0.29554983973503113
			vertex 0.29999998211860657 0.29866117238998413 -0.29568910598754883
		endloop
	endfacet
	facet normal 1 0 0
		outer loop
			vertex 0.29999998211860657 0.3067464232444763 -0.2853107154369354
			vertex 0.29999998211860657 0.29866117238998413 -0.29568910598754883
			vertex 0.29999998211860657 0.3004327714443207 -0.29344356060028076
		endloop
	endfacet
	facet normal 0.0008208243322029499 0.788210758270465 -0.6154048478799254
		outer loop
			vertex 0.20804253220558167 0.2765038311481476 -0.3240279257297516
			vertex 0.1859421581029892 0.28015950322151184 -0.319375216960907
			vertex 0.2038709968328476 0.2861141860485077 -0.31172454357147217
		endloop
	endfacet
	facet normal -0.0041131362381647725 0.7873923449050129 -0.6164384618883477
		outer loop
			vertex 0.22981056571006775 0.28182119131088257 -0.3173811733722687
			vertex 0.20804253220558167 0.2765038311481476 -0.3240279257297516
			vertex 0.2038709968328476 0.2861141860485077 -0.31172454357147217
		endloop
	endfacet
	facet normal -0.004113598518877719 0.7873913023230189 -0.6164397905175217
		outer loop
			vertex 0.22981056571006775 0.28182119131088257 -0.3173811733722687
			vertex 0.2038709968328476 0.2861141860485077 -0.31172454357147217
			vertex 0.21737858653068542 0.2907011806964874 -0.3059556186199188
		endloop
	endfacet
	facet normal 1 0 0
		outer loop
			vertex 0.29999998211860657 0.3067464232444763 -0.28489017486572266
			vertex 0.29999998211860657 0.3067464232444763 -0.2712554931640625
			vertex 0.29999998211860657 0.2719631791114807 -0.2729541063308716
		endloop
	endfacet
	facet normal 1 0 0
		outer loop
			vertex 0.29999998211860657 0.3067464232444763 -0.28489017486572266
			vertex 0.29999998211860657 0.2719631791114807 -0.2729541063308716
			vertex 0.29999998211860657 0.29849761724472046 -0.29554983973503113
		endloop
	endfacet
	facet normal 0.002447631669713369 0.7908592487948529 -0.611993184353266
		outer loop
			vertex 0.21737858653068542 0.2907011806964874 -0.3059556186199188
			vertex 0.20097489655017853 0.3024180829524994 -0.29087984561920166
			vertex 0.21058589220046997 0.30342596769332886 -0.2895389497280121
		endloop
	endfacet
	facet normal 0.0024493873694640886 0.7908595967847388 -0.6119927276324406
		outer loop
			vertex 0.21737858653068542 0.2907011806964874 -0.3059556186199188
			vertex 0.21058589220046997 0.30342596769332886 -0.2895389497280121
			vertex 0.23832379281520844 0.2975485920906067 -0.29702308773994446
		endloop
	endfacet
	facet normal -0.0007659959895620113 0.7850910012766984 -0.619379958478231
		outer loop
			vertex 0.2246360331773758 0.3049607574939728 -0.2876109182834625
			vertex 0.25488385558128357 0.3031434118747711 -0.289951890707016
			vertex 0.23832379281520844 0.2975485920906067 -0.29702308773994446
		endloop
	endfacet
	facet normal -0.0007661900897154017 0.7850908638044793 -0.6193801324901235
		outer loop
			vertex 0.2246360331773758 0.3049607574939728 -0.2876109182834625
			vertex 0.23832379281520844 0.2975485920906067 -0.29702308773994446
			vertex 0.21058589220046997 0.30342596769332886 -0.2895389497280121
		endloop
	endfacet
	facet normal 5.042908683042675e-7 0.7899127767999216 -0.6132192145130346
		outer loop
			vertex 0.25488385558128357 0.3031434118747711 -0.289951890707016
			vertex 0.2246360331773758 0.3049607574939728 -0.2876109182834625
			vertex 0.24127593636512756 0.3067464232444763 -0.2853107154369354
		endloop
	endfacet
	facet normal 0 0.7899120605911725 -0.6132201370899428
		outer loop
			vertex 0.25488385558128357 0.3031434118747711 -0.289951890707016
			vertex 0.24127593636512756 0.3067464232444763 -0.2853107154369354
			vertex 0.2657611668109894 0.3067464232444763 -0.2853107154369354
		endloop
	endfacet
	facet normal -0.0005349211893836549 0.7888570592086213 -0.6145764834388371
		outer loop
			vertex 0.18617281317710876 0.30081406235694885 -0.29291778802871704
			vertex 0.14373545348644257 0.2720172703266144 -0.32984378933906555
			vertex 0.11814556270837784 0.271352618932724 -0.3306746482849121
		endloop
	endfacet
	facet normal -0.0005390666195522327 0.7888606763172926 -0.6145718369461811
		outer loop
			vertex 0.18617281317710876 0.30081406235694885 -0.29291778802871704
			vertex 0.11814556270837784 0.271352618932724 -0.3306746482849121
			vertex 0.18078498542308807 0.30023181438446045 -0.293660432100296
		endloop
	endfacet
	facet normal -0.004111806293097848 0.7873935884161568 -0.6164368823895405
		outer loop
			vertex 0.1997334212064743 0.3022794723510742 -0.2910486161708832
			vertex 0.20097489655017853 0.3024180829524994 -0.29087984561920166
			vertex 0.21737858653068542 0.2907011806964874 -0.3059556186199188
		endloop
	endfacet
	facet normal -0.00411379514474388 0.7873924358332728 -0.6164383413465231
		outer loop
			vertex 0.1997334212064743 0.3022794723510742 -0.2910486161708832
			vertex 0.21737858653068542 0.2907011806964874 -0.3059556186199188
			vertex 0.21360452473163605 0.289419561624527 -0.3075674772262573
		endloop
	endfacet
	facet normal 0.001597636176737392 0.7871045045680433 -0.6168175957666433
		outer loop
			vertex 0.18078498542308807 0.30023181438446045 -0.293660432100296
			vertex 0.11814556270837784 0.271352618932724 -0.3306746482849121
			vertex 0.10000000149011612 0.27152296900749207 -0.33050426840782166
		endloop
	endfacet
	facet normal 0.0015988111498833509 0.7871032495878066 -0.6168191941656989
		outer loop
			vertex 0.18078498542308807 0.30023181438446045 -0.293660432100296
			vertex 0.10000000149011612 0.27152296900749207 -0.33050426840782166
			vertex 0.10000000149011612 0.2770766019821167 -0.32341745495796204
		endloop
	endfacet
	facet normal 0.001599599098799855 0.7871022072481949 -0.6168205222167489
		outer loop
			vertex 0.18078498542308807 0.30023181438446045 -0.293660432100296
			vertex 0.10000000149011612 0.2770766019821167 -0.32341745495796204
			vertex 0.17060256004333496 0.299146443605423 -0.2950718402862549
		endloop
	endfacet
	facet normal -0.012077556308908378 -0.9368153720509119 -0.3496156336932269
		outer loop
			vertex 0.10000000149011612 0.27150678634643555 -0.33046090602874756
			vertex 0.10000000149011612 0.27152296900749207 -0.33050426840782166
			vertex 0.11814556270837784 0.271352618932724 -0.3306746482849121
		endloop
	endfacet
	facet normal -0.00024235749344895708 0.7893309458747182 -0.6139679137767448
		outer loop
			vertex 0.10000000149011612 0.29154399037361145 -0.3048178553581238
			vertex 0.17060256004333496 0.299146443605423 -0.2950718402862549
			vertex 0.10000000149011612 0.2770766019821167 -0.32341745495796204
		endloop
	endfacet
	facet normal 0.0008228510008394992 0.7882104761251704 -0.6154052065450559
		outer loop
			vertex 0.1859421581029892 0.28015950322151184 -0.319375216960907
			vertex 0.19316616654396057 0.30156394839286804 -0.2919507622718811
			vertex 0.19698728621006012 0.3019728362560272 -0.29142194986343384
		endloop
	endfacet
	facet normal 0.0008207105439580846 0.7882108878435818 -0.6154046820743533
		outer loop
			vertex 0.1859421581029892 0.28015950322151184 -0.319375216960907
			vertex 0.19698728621006012 0.3019728362560272 -0.29142194986343384
			vertex 0.2038709968328476 0.2861141860485077 -0.31172454357147217
		endloop
	endfacet
	facet normal -0.0041168075947158895 0.7873918772052317 -0.6164390347848274
		outer loop
			vertex 0.2038709968328476 0.2861141860485077 -0.31172454357147217
			vertex 0.19698728621006012 0.3019728362560272 -0.29142194986343384
			vertex 0.1997334212064743 0.3022794723510742 -0.2910486161708832
		endloop
	endfacet
	facet normal -0.004114617890669372 0.7873920971068905 -0.6164387685190047
		outer loop
			vertex 0.2038709968328476 0.2861141860485077 -0.31172454357147217
			vertex 0.1997334212064743 0.3022794723510742 -0.2910486161708832
			vertex 0.21360452473163605 0.289419561624527 -0.3075674772262573
		endloop
	endfacet
	facet normal -0.003410144477018889 0.7887467402895595 -0.614708833999675
		outer loop
			vertex 0.1859421581029892 0.28015950322151184 -0.319375216960907
			vertex 0.1711532026529312 0.27517446875572205 -0.3256895840167999
			vertex 0.19081926345825195 0.3013041913509369 -0.29227104783058167
		endloop
	endfacet
	facet normal -0.0034087807322328886 0.7887466250212036 -0.6147089894670329
		outer loop
			vertex 0.1859421581029892 0.28015950322151184 -0.319375216960907
			vertex 0.19081926345825195 0.3013041913509369 -0.29227104783058167
			vertex 0.19316616654396057 0.30156394839286804 -0.2919507622718811
		endloop
	endfacet
	facet normal -0.012083447833583257 -0.9365594708892709 -0.35030036793595054
		outer loop
			vertex 0.10000000149011612 0.27139055728912354 -0.33015015721321106
			vertex 0.10000000149011612 0.27150678634643555 -0.33046090602874756
			vertex 0.11814556270837784 0.271352618932724 -0.3306746482849121
		endloop
	endfacet
	facet normal -0.012081965833573625 -0.9365791992921473 -0.35024766887857645
		outer loop
			vertex 0.10000000149011612 0.27139055728912354 -0.33015015721321106
			vertex 0.11814556270837784 0.271352618932724 -0.3306746482849121
			vertex 0.11919213086366653 0.2712501585483551 -0.3304367661476135
		endloop
	endfacet
	facet normal 0.03930766532518555 -0.8432457765011657 -0.5360890484421681
		outer loop
			vertex 0.11814556270837784 0.271352618932724 -0.3306746482849121
			vertex 0.14373545348644257 0.2720172703266144 -0.32984378933906555
			vertex 0.1442575752735138 0.2719423472881317 -0.3296876549720764
		endloop
	endfacet
	facet normal 0.03930862573349265 -0.8432196541172929 -0.5361300652390772
		outer loop
			vertex 0.11814556270837784 0.271352618932724 -0.3306746482849121
			vertex 0.1442575752735138 0.2719423472881317 -0.3296876549720764
			vertex 0.11919213086366653 0.2712501585483551 -0.3304367661476135
		endloop
	endfacet
	facet normal 0.18539261192069417 -0.48685053011711327 -0.8535842903720222
		outer loop
			vertex 0.1711532026529312 0.27517446875572205 -0.3256895840167999
			vertex 0.1442575752735138 0.2719423472881317 -0.3296876549720764
			vertex 0.14373545348644257 0.2720172703266144 -0.32984378933906555
		endloop
	endfacet
	facet normal 0.002865435104769643 0.7869551506676867 -0.6170035495191735
		outer loop
			vertex 0.14373545348644257 0.2720172703266144 -0.32984378933906555
			vertex 0.14758390188217163 0.27462872862815857 -0.32649514079093933
			vertex 0.17153386771678925 0.275680273771286 -0.325042724609375
		endloop
	endfacet
	facet normal 0.0028719308380381063 0.7869366844687421 -0.617027071246153
		outer loop
			vertex 0.14373545348644257 0.2720172703266144 -0.32984378933906555
			vertex 0.17153386771678925 0.275680273771286 -0.325042724609375
			vertex 0.1711532026529312 0.27517446875572205 -0.3256895840167999
		endloop
	endfacet
	facet normal 0.0028694421312491195 0.7869541843746646 -0.6170047633503827
		outer loop
			vertex 0.14758390188217163 0.27462872862815857 -0.32649514079093933
			vertex 0.18617281317710876 0.30081406235694885 -0.29291778802871704
			vertex 0.19081926345825195 0.3013041913509369 -0.29227104783058167
		endloop
	endfacet
	facet normal 0.002865237761306346 0.7869567786470435 -0.6170014740290654
		outer loop
			vertex 0.14758390188217163 0.27462872862815857 -0.32649514079093933
			vertex 0.19081926345825195 0.3013041913509369 -0.29227104783058167
			vertex 0.17153386771678925 0.275680273771286 -0.325042724609375
		endloop
	endfacet
	facet normal 0.1336452874832581 -0.7219394147944923 -0.6789274029671385
		outer loop
			vertex 0.21319374442100525 0.2620472013950348 -0.3090727627277374
			vertex 0.2213829755783081 0.2604740262031555 -0.3057878911495209
			vertex 0.20888939499855042 0.2598711848258972 -0.30760619044303894
		endloop
	endfacet
	facet normal 0.0743669469707962 -0.6543097396472666 -0.7525611747897769
		outer loop
			vertex 0.10000000149011612 0.25312599539756775 -0.3125019073486328
			vertex 0.10000000149011612 0.27041053771972656 -0.3275298476219177
			vertex 0.21319374442100525 0.2620472013950348 -0.3090727627277374
		endloop
	endfacet
	facet normal 0.074366912215014 -0.6543090753250209 -0.752561755814711
		outer loop
			vertex 0.10000000149011612 0.25312599539756775 -0.3125019073486328
			vertex 0.21319374442100525 0.2620472013950348 -0.3090727627277374
			vertex 0.20888939499855042 0.2598711848258972 -0.30760619044303894
		endloop
	endfacet
	facet normal -0.012081859834202516 -0.9365656002502588 -0.3502840348785814
		outer loop
			vertex 0.21319374442100525 0.2620472013950348 -0.3090727627277374
			vertex 0.10000000149011612 0.27041053771972656 -0.3275298476219177
			vertex 0.10000000149011612 0.27139055728912354 -0.33015015721321106
		endloop
	endfacet
	facet normal -0.012082380113750514 -0.9365664908916547 -0.3502816355872502
		outer loop
			vertex 0.21319374442100525 0.2620472013950348 -0.3090727627277374
			vertex 0.10000000149011612 0.27139055728912354 -0.33015015721321106
			vertex 0.11919213086366653 0.2712501585483551 -0.3304367661476135
		endloop
	endfacet
	facet normal 0.03930924169207254 -0.8431878117423848 -0.5361800981449077
		outer loop
			vertex 0.1442575752735138 0.2719423472881317 -0.3296876549720764
			vertex 0.21319374442100525 0.2620472013950348 -0.3090727627277374
			vertex 0.11919213086366653 0.2712501585483551 -0.3304367661476135
		endloop
	endfacet
	facet normal 0.18539095881744505 -0.4868023158028257 -0.8536121471240639
		outer loop
			vertex 0.1711532026529312 0.27517446875572205 -0.3256895840167999
			vertex 0.21319374442100525 0.2620472013950348 -0.3090727627277374
			vertex 0.1442575752735138 0.2719423472881317 -0.3296876549720764
		endloop
	endfacet
	facet normal 1 0 0
		outer loop
			vertex 0.29999998211860657 0.25800684094429016 -0.24836193025112152
			vertex 0.29999998211860657 0.26142504811286926 -0.2734687328338623
			vertex 0.29999998211860657 0.30214205384254456 -0.27148035168647766
		endloop
	endfacet
	facet normal 0.0024477705488881595 0.7908587615027111 -0.6119938135093671
		outer loop
			vertex 0.20097489655017853 0.3024180829524994 -0.29087984561920166
			vertex 0.19491524994373322 0.3067464232444763 -0.2853107154369354
			vertex 0.21058589220046997 0.30342596769332886 -0.2895389497280121
		endloop
	endfacet
	facet normal -0.0007665853105707582 0.7850922592413189 -0.6193783632209989
		outer loop
			vertex 0.19491524994373322 0.3067464232444763 -0.2853107154369354
			vertex 0.2246360331773758 0.3049607574939728 -0.2876109182834625
			vertex 0.21058589220046997 0.30342596769332886 -0.2895389497280121
		endloop
	endfacet
	facet normal 0 0.7899145438987785 -0.6132169382340844
		outer loop
			vertex 0.2246360331773758 0.3049607574939728 -0.2876109182834625
			vertex 0.19491524994373322 0.3067464232444763 -0.2853107154369354
			vertex 0.24127593636512756 0.3067464232444763 -0.2853107154369354
		endloop
	endfacet
	facet normal -0.0005390474214235397 0.7888606089622822 -0.6145719234194928
		outer loop
			vertex 0.19491524994373322 0.3067464232444763 -0.2853107154369354
			vertex 0.18617281317710876 0.30081406235694885 -0.29291778802871704
			vertex 0.18078498542308807 0.30023181438446045 -0.293660432100296
		endloop
	endfacet
	facet normal -0.004111671123616967 0.7873931150566149 -0.6164374879272123
		outer loop
			vertex 0.19491524994373322 0.3067464232444763 -0.2853107154369354
			vertex 0.20097489655017853 0.3024180829524994 -0.29087984561920166
			vertex 0.1997334212064743 0.3022794723510742 -0.2910486161708832
		endloop
	endfacet
	facet normal 0.0015993660761034728 0.7871030295780002 -0.6168194734744424
		outer loop
			vertex 0.19491524994373322 0.3067464232444763 -0.2853107154369354
			vertex 0.18078498542308807 0.30023181438446045 -0.293660432100296
			vertex 0.17060256004333496 0.299146443605423 -0.2950718402862549
		endloop
	endfacet
	facet normal -0.00024238392386502508 0.7893315090659805 -0.6139671897142839
		outer loop
			vertex 0.10000000149011612 0.29689672589302063 -0.29793626070022583
			vertex 0.19491524994373322 0.3067464232444763 -0.2853107154369354
			vertex 0.17060256004333496 0.299146443605423 -0.2950718402862549
		endloop
	endfacet
	facet normal -0.00024232787426037294 0.7893308420071797 -0.6139680473228538
		outer loop
			vertex 0.10000000149011612 0.29689672589302063 -0.29793626070022583
			vertex 0.17060256004333496 0.299146443605423 -0.2950718402862549
			vertex 0.10000000149011612 0.29154399037361145 -0.3048178553581238
		endloop
	endfacet
	facet normal 0 0.7842865139044936 -0.6203987944117368
		outer loop
			vertex 0.10000000149011612 0.3067464232444763 -0.2853107154369354
			vertex 0.19491524994373322 0.3067464232444763 -0.2853107154369354
			vertex 0.10000000149011612 0.3050006926059723 -0.28751760721206665
		endloop
	endfacet
	facet normal -0.002533867781027421 0.7975954167967809 -0.6031874755155631
		outer loop
			vertex 0.10000000149011612 0.2972370982170105 -0.29748618602752686
			vertex 0.19491524994373322 0.3067464232444763 -0.2853107154369354
			vertex 0.10000000149011612 0.29689672589302063 -0.29793626070022583
		endloop
	endfacet
	facet normal -0.0006810980989718925 0.7906797186718033 -0.6122296289681332
		outer loop
			vertex 0.10000000149011612 0.30288273096084595 -0.2901949882507324
			vertex 0.19491524994373322 0.3067464232444763 -0.2853107154369354
			vertex 0.10000000149011612 0.2972370982170105 -0.29748618602752686
		endloop
	endfacet
	facet normal 3.889368872777318e-7 0.7842783746733157 -0.6204090836050282
		outer loop
			vertex 0.10000000149011612 0.3050006926059723 -0.28751760721206665
			vertex 0.19491524994373322 0.3067464232444763 -0.2853107154369354
			vertex 0.10000000149011612 0.30288273096084595 -0.2901949882507324
		endloop
	endfacet
	facet normal 0.000822868487427378 0.7882104145975448 -0.6154052853261981
		outer loop
			vertex 0.19316616654396057 0.30156394839286804 -0.2919507622718811
			vertex 0.19491524994373322 0.3067464232444763 -0.2853107154369354
			vertex 0.19698728621006012 0.3019728362560272 -0.29142194986343384
		endloop
	endfacet
	facet normal -0.004116583538111803 0.7873910926123628 -0.6164400384584727
		outer loop
			vertex 0.19698728621006012 0.3019728362560272 -0.29142194986343384
			vertex 0.19491524994373322 0.3067464232444763 -0.2853107154369354
			vertex 0.1997334212064743 0.3022794723510742 -0.2910486161708832
		endloop
	endfacet
	facet normal -0.0034087628362118555 0.7887465624492076 -0.6147090698537682
		outer loop
			vertex 0.19081926345825195 0.3013041913509369 -0.29227104783058167
			vertex 0.19491524994373322 0.3067464232444763 -0.2853107154369354
			vertex 0.19316616654396057 0.30156394839286804 -0.2919507622718811
		endloop
	endfacet
	facet normal 0.002869057538349352 0.7869555441721201 -0.617003030791263
		outer loop
			vertex 0.18617281317710876 0.30081406235694885 -0.29291778802871704
			vertex 0.19491524994373322 0.3067464232444763 -0.2853107154369354
			vertex 0.19081926345825195 0.3013041913509369 -0.29227104783058167
		endloop
	endfacet
	facet normal 1 0 0
		outer loop
			vertex 0.29999998211860657 0.27737414836883545 -0.23619616031646729
			vertex 0.29999998211860657 0.25635048747062683 -0.23619616031646729
			vertex 0.29999998211860657 0.25800684094429016 -0.24836193025112152
		endloop
	endfacet
	facet normal 1 0 0
		outer loop
			vertex 0.29999998211860657 0.27737414836883545 -0.23619616031646729
			vertex 0.29999998211860657 0.25800684094429016 -0.24836193025112152
			vertex 0.29999998211860657 0.27776893973350525 -0.2587135136127472
		endloop
	endfacet
	facet normal 1 0 0
		outer loop
			vertex 0.29999998211860657 0.3067464232444763 -0.23619616031646729
			vertex 0.29999998211860657 0.27737414836883545 -0.23619616031646729
			vertex 0.29999998211860657 0.27776893973350525 -0.2587135136127472
		endloop
	endfacet
	facet normal 1 0 0
		outer loop
			vertex 0.29999998211860657 0.3067464232444763 -0.23619616031646729
			vertex 0.29999998211860657 0.27776893973350525 -0.2587135136127472
			vertex 0.29999998211860657 0.30214205384254456 -0.27148035168647766
		endloop
	endfacet
	facet normal 1 0 0
		outer loop
			vertex 0.29999998211860657 0.3067464232444763 -0.23619616031646729
			vertex 0.29999998211860657 0.30214205384254456 -0.27148035168647766
			vertex 0.29999998211860657 0.3067464232444763 -0.2712554931640625
		endloop
	endfacet
	facet normal -1 0 0
		outer loop
			vertex 0.10000000149011612 0.18559271097183228 -0.2428753674030304
			vertex 0.10000000149011612 0.18657873570919037 -0.24498772621154785
			vertex 0.10000000149011612 0.1851169466972351 -0.24291299283504486
		endloop
	endfacet
	facet normal -1 0 0
		outer loop
			vertex 0.10000000149011612 0.18038445711135864 -0.23619616031646729
			vertex 0.10000000149011612 0.18247495591640472 -0.23619616031646729
			vertex 0.10000000149011612 0.18559271097183228 -0.2428753674030304
		endloop
	endfacet
	facet normal -1 0 0
		outer loop
			vertex 0.10000000149011612 0.18038445711135864 -0.23619616031646729
			vertex 0.10000000149011612 0.18559271097183228 -0.2428753674030304
			vertex 0.10000000149011612 0.1851169466972351 -0.24291299283504486
		endloop
	endfacet
	facet normal -1 0 0
		outer loop
			vertex 0.10000000149011612 0.19020527601242065 -0.24251075088977814
			vertex 0.10000000149011612 0.1954173445701599 -0.25753235816955566
			vertex 0.10000000149011612 0.18657873570919037 -0.24498772621154785
		endloop
	endfacet
	facet normal -1 0 0
		outer loop
			vertex 0.10000000149011612 0.19020527601242065 -0.24251075088977814
			vertex 0.10000000149011612 0.18657873570919037 -0.24498772621154785
			vertex 0.10000000149011612 0.18559271097183228 -0.2428753674030304
		endloop
	endfacet
	facet normal -1 0 0
		outer loop
			vertex 0.10000000149011612 0.18247495591640472 -0.23619616031646729
			vertex 0.10000000149011612 0.18801428377628326 -0.23619616031646729
			vertex 0.10000000149011612 0.19020527601242065 -0.24251075088977814
		endloop
	endfacet
	facet normal -1 0 0
		outer loop
			vertex 0.10000000149011612 0.18247495591640472 -0.23619616031646729
			vertex 0.10000000149011612 0.19020527601242065 -0.24251075088977814
			vertex 0.10000000149011612 0.18559271097183228 -0.2428753674030304
		endloop
	endfacet
	facet normal -1 0 0
		outer loop
			vertex 0.10000000149011612 0.21450205147266388 -0.27892056107521057
			vertex 0.10000000149011612 0.23931749165058136 -0.2674681842327118
			vertex 0.10000000149011612 0.23204244673252106 -0.29417094588279724
		endloop
	endfacet
	facet normal -1 0 0
		outer loop
			vertex 0.10000000149011612 0.18801428377628326 -0.23619616031646729
			vertex 0.10000000149011612 0.24555344879627228 -0.23619616031646729
			vertex 0.10000000149011612 0.2448320984840393 -0.24722710251808167
		endloop
	endfacet
	facet normal -1 0 0
		outer loop
			vertex 0.10000000149011612 0.18801428377628326 -0.23619616031646729
			vertex 0.10000000149011612 0.2448320984840393 -0.24722710251808167
			vertex 0.10000000149011612 0.23931749165058136 -0.2674681842327118
		endloop
	endfacet
	facet normal -1 0 0
		outer loop
			vertex 0.10000000149011612 0.18801428377628326 -0.23619616031646729
			vertex 0.10000000149011612 0.23931749165058136 -0.2674681842327118
			vertex 0.10000000149011612 0.21450205147266388 -0.27892056107521057
		endloop
	endfacet
	facet normal -1 0 0
		outer loop
			vertex 0.10000000149011612 0.18801428377628326 -0.23619616031646729
			vertex 0.10000000149011612 0.21450205147266388 -0.27892056107521057
			vertex 0.10000000149011612 0.20482321083545685 -0.2705053687095642
		endloop
	endfacet
	facet normal -1 0 0
		outer loop
			vertex 0.10000000149011612 0.18801428377628326 -0.23619616031646729
			vertex 0.10000000149011612 0.20482321083545685 -0.2705053687095642
			vertex 0.10000000149011612 0.20376478135585785 -0.2693798840045929
		endloop
	endfacet
	facet normal -1 0 0
		outer loop
			vertex 0.10000000149011612 0.18801428377628326 -0.23619616031646729
			vertex 0.10000000149011612 0.20376478135585785 -0.2693798840045929
			vertex 0.10000000149011612 0.1954173445701599 -0.25753235816955566
		endloop
	endfacet
	facet normal -1 0 0
		outer loop
			vertex 0.10000000149011612 0.24555344879627228 -0.23619616031646729
			vertex 0.10000000149011612 0.24783745408058167 -0.23619616031646729
			vertex 0.10000000149011612 0.2448320984840393 -0.24722710251808167
		endloop
	endfacet
	facet normal -1 0 0
		outer loop
			vertex 0.10000000149011612 0.23204244673252106 -0.29417094588279724
			vertex 0.10000000149011612 0.23693497478961945 -0.276213139295578
			vertex 0.10000000149011612 0.2490493208169937 -0.28255873918533325
		endloop
	endfacet
	facet normal -1 0 0
		outer loop
			vertex 0.10000000149011612 0.23204244673252106 -0.29417094588279724
			vertex 0.10000000149011612 0.2490493208169937 -0.28255873918533325
			vertex 0.10000000149011612 0.25312599539756775 -0.3125019073486328
		endloop
	endfacet
	facet normal -1 0 0
		outer loop
			vertex 0.10000000149011612 0.23693497478961945 -0.276213139295578
			vertex 0.10000000149011612 0.23931749165058136 -0.2674681842327118
			vertex 0.10000000149011612 0.24654093384742737 -0.2641345262527466
		endloop
	endfacet
	facet normal -1 0 0
		outer loop
			vertex 0.10000000149011612 0.23693497478961945 -0.276213139295578
			vertex 0.10000000149011612 0.24654093384742737 -0.2641345262527466
			vertex 0.10000000149011612 0.2490493208169937 -0.28255873918533325
		endloop
	endfacet
	facet normal -1 0 0
		outer loop
			vertex 0.10000000149011612 0.24654093384742737 -0.2641345262527466
			vertex 0.10000000149011612 0.23931749165058136 -0.2674681842327118
			vertex 0.10000000149011612 0.24443666636943817 -0.24867860972881317
		endloop
	endfacet
	facet normal -1 0 0
		outer loop
			vertex 0.10000000149011612 0.27150678634643555 -0.33046090602874756
			vertex 0.10000000149011612 0.27242547273635864 -0.3292817175388336
			vertex 0.10000000149011612 0.2724585235118866 -0.32931044697761536
		endloop
	endfacet
	facet normal -1 0 0
		outer loop
			vertex 0.10000000149011612 0.27150678634643555 -0.33046090602874756
			vertex 0.10000000149011612 0.2724585235118866 -0.32931044697761536
			vertex 0.10000000149011612 0.27152296900749207 -0.33050426840782166
		endloop
	endfacet
	facet normal -1 0 0
		outer loop
			vertex 0.10000000149011612 0.27242547273635864 -0.3292817175388336
			vertex 0.10000000149011612 0.2915017604827881 -0.3047957122325897
			vertex 0.10000000149011612 0.29154399037361145 -0.3048178553581238
		endloop
	endfacet
	facet normal -1 0 0
		outer loop
			vertex 0.10000000149011612 0.27242547273635864 -0.3292817175388336
			vertex 0.10000000149011612 0.29154399037361145 -0.3048178553581238
			vertex 0.10000000149011612 0.2770766019821167 -0.32341745495796204
		endloop
	endfacet
	facet normal -1 0 0
		outer loop
			vertex 0.10000000149011612 0.27242547273635864 -0.3292817175388336
			vertex 0.10000000149011612 0.2770766019821167 -0.32341745495796204
			vertex 0.10000000149011612 0.2724585235118866 -0.32931044697761536
		endloop
	endfacet
	facet normal -1 0 0
		outer loop
			vertex 0.10000000149011612 0.27139055728912354 -0.33015015721321106
			vertex 0.10000000149011612 0.2722119987010956 -0.32909613847732544
			vertex 0.10000000149011612 0.27242547273635864 -0.3292817175388336
		endloop
	endfacet
	facet normal -1 0 0
		outer loop
			vertex 0.10000000149011612 0.27139055728912354 -0.33015015721321106
			vertex 0.10000000149011612 0.27242547273635864 -0.3292817175388336
			vertex 0.10000000149011612 0.27150678634643555 -0.33046090602874756
		endloop
	endfacet
	facet normal -1 0 0
		outer loop
			vertex 0.10000000149011612 0.2722119987010956 -0.32909613847732544
			vertex 0.10000000149011612 0.29125234484672546 -0.30466505885124207
			vertex 0.10000000149011612 0.2915017604827881 -0.3047957122325897
		endloop
	endfacet
	facet normal -1 0 0
		outer loop
			vertex 0.10000000149011612 0.2722119987010956 -0.32909613847732544
			vertex 0.10000000149011612 0.2915017604827881 -0.3047957122325897
			vertex 0.10000000149011612 0.27242547273635864 -0.3292817175388336
		endloop
	endfacet
	facet normal -1 0 0
		outer loop
			vertex 0.10000000149011612 0.27041053771972656 -0.3275298476219177
			vertex 0.10000000149011612 0.2722119987010956 -0.32909613847732544
			vertex 0.10000000149011612 0.27139055728912354 -0.33015015721321106
		endloop
	endfacet
	facet normal -1 0 0
		outer loop
			vertex 0.10000000149011612 0.25312599539756775 -0.3125019073486328
			vertex 0.10000000149011612 0.2490493208169937 -0.28255873918533325
			vertex 0.10000000149011612 0.29125234484672546 -0.30466505885124207
		endloop
	endfacet
	facet normal -1 0 0
		outer loop
			vertex 0.10000000149011612 0.25312599539756775 -0.3125019073486328
			vertex 0.10000000149011612 0.29125234484672546 -0.30466505885124207
			vertex 0.10000000149011612 0.2722119987010956 -0.32909613847732544
		endloop
	endfacet
	facet normal -1 0 0
		outer loop
			vertex 0.10000000149011612 0.3067464232444763 -0.2852732539176941
			vertex 0.10000000149011612 0.3067464232444763 -0.2853107154369354
			vertex 0.10000000149011612 0.3050006926059723 -0.28751760721206665
		endloop
	endfacet
	facet normal -1 0 0
		outer loop
			vertex 0.10000000149011612 0.3067464232444763 -0.2852279543876648
			vertex 0.10000000149011612 0.3067464232444763 -0.2852732539176941
			vertex 0.10000000149011612 0.3050006926059723 -0.28751760721206665
		endloop
	endfacet
	facet normal -1 0 0
		outer loop
			vertex 0.10000000149011612 0.3067464232444763 -0.2852279543876648
			vertex 0.10000000149011612 0.3050006926059723 -0.28751760721206665
			vertex 0.10000000149011612 0.30288273096084595 -0.2901949882507324
		endloop
	endfacet
	facet normal -1 0 0
		outer loop
			vertex 0.10000000149011612 0.3067464232444763 -0.2852279543876648
			vertex 0.10000000149011612 0.30288273096084595 -0.2901949882507324
			vertex 0.10000000149011612 0.30385610461235046 -0.2889379560947418
		endloop
	endfacet
	facet normal -1 0 0
		outer loop
			vertex 0.10000000149011612 0.2972370982170105 -0.29748618602752686
			vertex 0.10000000149011612 0.2985907793045044 -0.2956964075565338
			vertex 0.10000000149011612 0.30385610461235046 -0.2889379560947418
		endloop
	endfacet
	facet normal -1 0 0
		outer loop
			vertex 0.10000000149011612 0.29689672589302063 -0.29793626070022583
			vertex 0.10000000149011612 0.29154399037361145 -0.3048178553581238
			vertex 0.10000000149011612 0.2915017604827881 -0.3047957122325897
		endloop
	endfacet
	facet normal -1 0 0
		outer loop
			vertex 0.10000000149011612 0.29689672589302063 -0.29793626070022583
			vertex 0.10000000149011612 0.2915017604827881 -0.3047957122325897
			vertex 0.10000000149011612 0.2985907793045044 -0.2956964075565338
		endloop
	endfacet
	facet normal -1 0 0
		outer loop
			vertex 0.10000000149011612 0.3067464232444763 -0.2847842574119568
			vertex 0.10000000149011612 0.3067464232444763 -0.2852279543876648
			vertex 0.10000000149011612 0.2915017604827881 -0.3047957122325897
		endloop
	endfacet
	facet normal -1 0 0
		outer loop
			vertex 0.10000000149011612 0.3067464232444763 -0.2847842574119568
			vertex 0.10000000149011612 0.2915017604827881 -0.3047957122325897
			vertex 0.10000000149011612 0.29125234484672546 -0.30466505885124207
		endloop
	endfacet
	facet normal -1 0 0
		outer loop
			vertex 0.10000000149011612 0.2490493208169937 -0.28255873918533325
			vertex 0.10000000149011612 0.24654093384742737 -0.2641345262527466
			vertex 0.10000000149011612 0.3067464232444763 -0.23634955286979675
		endloop
	endfacet
	facet normal -1 0 0
		outer loop
			vertex 0.10000000149011612 0.2490493208169937 -0.28255873918533325
			vertex 0.10000000149011612 0.3067464232444763 -0.23634955286979675
			vertex 0.10000000149011612 0.3067464232444763 -0.2847842574119568
		endloop
	endfacet
	facet normal -1 0 0
		outer loop
			vertex 0.10000000149011612 0.2490493208169937 -0.28255873918533325
			vertex 0.10000000149011612 0.3067464232444763 -0.2847842574119568
			vertex 0.10000000149011612 0.29125234484672546 -0.30466505885124207
		endloop
	endfacet
	facet normal -1 0 0
		outer loop
			vertex 0.10000000149011612 0.24783745408058167 -0.23619616031646729
			vertex 0.10000000149011612 0.3067464232444763 -0.23619616031646729
			vertex 0.10000000149011612 0.3067464232444763 -0.23634955286979675
		endloop
	endfacet
	facet normal -1 0 0
		outer loop
			vertex 0.10000000149011612 0.24783745408058167 -0.23619616031646729
			vertex 0.10000000149011612 0.3067464232444763 -0.23634955286979675
			vertex 0.10000000149011612 0.24654093384742737 -0.2641345262527466
		endloop
	endfacet
	facet normal -1 0 0
		outer loop
			vertex 0.10000000149011612 0.24783745408058167 -0.23619616031646729
			vertex 0.10000000149011612 0.24654093384742737 -0.2641345262527466
			vertex 0.10000000149011612 0.24443666636943817 -0.24867860972881317
		endloop
	endfacet
	facet normal 0 0 1
		outer loop
			vertex 0.10000000149011612 0.18247495591640472 -0.23619616031646729
			vertex 0.10000000149011612 0.18038445711135864 -0.23619616031646729
			vertex 0.10427282005548477 0.18135151267051697 -0.23619616031646729
		endloop
	endfacet
	facet normal 0 0 1
		outer loop
			vertex 0.10000000149011612 0.18801428377628326 -0.23619616031646729
			vertex 0.10000000149011612 0.18247495591640472 -0.23619616031646729
			vertex 0.10427282005548477 0.18135151267051697 -0.23619616031646729
		endloop
	endfacet
	facet normal 0 0 1
		outer loop
			vertex 0.10000000149011612 0.18801428377628326 -0.23619616031646729
			vertex 0.10427282005548477 0.18135151267051697 -0.23619616031646729
			vertex 0.11356576532125473 0.1834547370672226 -0.23619616031646729
		endloop
	endfacet
	facet normal 0 0 1
		outer loop
			vertex 0.10000000149011612 0.24555344879627228 -0.23619616031646729
			vertex 0.10000000149011612 0.18801428377628326 -0.23619616031646729
			vertex 0.11356576532125473 0.1834547370672226 -0.23619616031646729
		endloop
	endfacet
	facet normal 0 0 1
		outer loop
			vertex 0.10000000149011612 0.24555344879627228 -0.23619616031646729
			vertex 0.11356576532125473 0.1834547370672226 -0.23619616031646729
			vertex 0.19786500930786133 0.2025338113307953 -0.23619616031646729
		endloop
	endfacet
	facet normal 0 0 1
		outer loop
			vertex 0.10000000149011612 0.24555344879627228 -0.23619616031646729
			vertex 0.19786500930786133 0.2025338113307953 -0.23619616031646729
			vertex 0.21801510453224182 0.22315937280654907 -0.23619616031646729
		endloop
	endfacet
	facet normal 0 0 1
		outer loop
			vertex 0.10000000149011612 0.24555344879627228 -0.23619616031646729
			vertex 0.21801510453224182 0.22315937280654907 -0.23619616031646729
			vertex 0.12346450984477997 0.2429307997226715 -0.23619616031646729
		endloop
	endfacet
	facet normal 0 0 1
		outer loop
			vertex 0.24545042216777802 0.21742236614227295 -0.23619616031646729
			vertex 0.21801510453224182 0.22315937280654907 -0.23619616031646729
			vertex 0.19786500930786133 0.2025338113307953 -0.23619616031646729
		endloop
	endfacet
	facet normal 0 0 1
		outer loop
			vertex 0.24545042216777802 0.21742236614227295 -0.23619616031646729
			vertex 0.19786500930786133 0.2025338113307953 -0.23619616031646729
			vertex 0.22740736603736877 0.2092200070619583 -0.23619616031646729
		endloop
	endfacet
	facet normal 0 0 1
		outer loop
			vertex 0.10000000149011612 0.24783745408058167 -0.23619616031646729
			vertex 0.10000000149011612 0.24555344879627228 -0.23619616031646729
			vertex 0.12346450984477997 0.2429307997226715 -0.23619616031646729
		endloop
	endfacet
	facet normal 0 0 1
		outer loop
			vertex 0.29999998211860657 0.23216846585273743 -0.23619616031646729
			vertex 0.29999998211860657 0.23478126525878906 -0.23619616031646729
			vertex 0.27495646476745605 0.22548481822013855 -0.23619616031646729
		endloop
	endfacet
	facet normal 0 0 1
		outer loop
			vertex 0.29999998211860657 0.23216846585273743 -0.23619616031646729
			vertex 0.27495646476745605 0.22548481822013855 -0.23619616031646729
			vertex 0.2816665768623352 0.22595424950122833 -0.23619616031646729
		endloop
	endfacet
	facet normal 0 0 1
		outer loop
			vertex 0.29999998211860657 0.23478126525878906 -0.23619616031646729
			vertex 0.29999998211860657 0.24222059547901154 -0.23619616031646729
			vertex 0.26104477047920227 0.22451156377792358 -0.23619616031646729
		endloop
	endfacet
	facet normal 0 0 1
		outer loop
			vertex 0.29999998211860657 0.23478126525878906 -0.23619616031646729
			vertex 0.26104477047920227 0.22451156377792358 -0.23619616031646729
			vertex 0.27495646476745605 0.22548481822013855 -0.23619616031646729
		endloop
	endfacet
	facet normal 0 0 1
		outer loop
			vertex 0.11840072274208069 0.24398967623710632 -0.23619616031646729
			vertex 0.21801510453224182 0.22315937280654907 -0.23619616031646729
			vertex 0.24691082537174225 0.252736896276474 -0.23619616031646729
		endloop
	endfacet
	facet normal 0 0 1
		outer loop
			vertex 0.29999998211860657 0.24222059547901154 -0.23619616031646729
			vertex 0.29999998211860657 0.25635048747062683 -0.23619616031646729
			vertex 0.24691082537174225 0.252736896276474 -0.23619616031646729
		endloop
	endfacet
	facet normal 0 0 1
		outer loop
			vertex 0.29999998211860657 0.24222059547901154 -0.23619616031646729
			vertex 0.24691082537174225 0.252736896276474 -0.23619616031646729
			vertex 0.21801510453224182 0.22315937280654907 -0.23619616031646729
		endloop
	endfacet
	facet normal 0 0 1
		outer loop
			vertex 0.29999998211860657 0.24222059547901154 -0.23619616031646729
			vertex 0.21801510453224182 0.22315937280654907 -0.23619616031646729
			vertex 0.24545042216777802 0.21742236614227295 -0.23619616031646729
		endloop
	endfacet
	facet normal 0 0 1
		outer loop
			vertex 0.15944840013980865 0.24678364396095276 -0.23619616031646729
			vertex 0.24691082537174225 0.252736896276474 -0.23619616031646729
			vertex 0.2631433308124542 0.26935243606567383 -0.23619616031646729
		endloop
	endfacet
	facet normal 0 0 1
		outer loop
			vertex 0.29999998211860657 0.25635048747062683 -0.23619616031646729
			vertex 0.29999998211860657 0.27737414836883545 -0.23619616031646729
			vertex 0.2631433308124542 0.26935243606567383 -0.23619616031646729
		endloop
	endfacet
	facet normal 0 0 1
		outer loop
			vertex 0.29999998211860657 0.25635048747062683 -0.23619616031646729
			vertex 0.2631433308124542 0.26935243606567383 -0.23619616031646729
			vertex 0.24691082537174225 0.252736896276474 -0.23619616031646729
		endloop
	endfacet
	facet normal 0 0 1
		outer loop
			vertex 0.10000000149011612 0.3067464232444763 -0.23619616031646729
			vertex 0.10000000149011612 0.24783745408058167 -0.23619616031646729
			vertex 0.11840072274208069 0.24398967623710632 -0.23619616031646729
		endloop
	endfacet
	facet normal 0 0 1
		outer loop
			vertex 0.10000000149011612 0.3067464232444763 -0.23619616031646729
			vertex 0.11840072274208069 0.24398967623710632 -0.23619616031646729
			vertex 0.15944840013980865 0.24678364396095276 -0.23619616031646729
		endloop
	endfacet
	facet normal 0 0 1
		outer loop
			vertex 0.10000000149011612 0.3067464232444763 -0.23619616031646729
			vertex 0.15944840013980865 0.24678364396095276 -0.23619616031646729
			vertex 0.2631433308124542 0.26935243606567383 -0.23619616031646729
		endloop
	endfacet
	facet normal 0 0 1
		outer loop
			vertex 0.10000000149011612 0.3067464232444763 -0.23619616031646729
			vertex 0.2631433308124542 0.26935243606567383 -0.23619616031646729
			vertex 0.299675315618515 0.3067464232444763 -0.23619616031646729
		endloop
	endfacet
	facet normal 0 0 1
		outer loop
			vertex 0.29999998211860657 0.27737414836883545 -0.23619616031646729
			vertex 0.29999998211860657 0.3067464232444763 -0.23619616031646729
			vertex 0.299675315618515 0.3067464232444763 -0.23619616031646729
		endloop
	endfacet
	facet normal 0 0 1
		outer loop
			vertex 0.29999998211860657 0.27737414836883545 -0.23619616031646729
			vertex 0.299675315618515 0.3067464232444763 -0.23619616031646729
			vertex 0.2631433308124542 0.26935243606567383 -0.23619616031646729
		endloop
	endfacet
endsolid exported
