solid exported
	facet normal 0.9180486097012345 0.14642678401682893 0.3684371685214718
		outer loop
			vertex 0.13929472863674164 0.1023595929145813 -0.04723922908306122
			vertex 0.1424957811832428 0.1023595929145813 -0.05521541088819504
			vertex 0.14140716195106506 0.12397625297307968 -0.06109389662742615
		endloop
	endfacet
	facet normal 0.9180490400906666 0.14642620269283574 0.3684363271361312
		outer loop
			vertex 0.13929472863674164 0.1023595929145813 -0.04723922908306122
			vertex 0.14140716195106506 0.12397625297307968 -0.06109389662742615
			vertex 0.13495871424674988 0.12954512238502502 -0.04723922908306122
		endloop
	endfacet
	facet normal 0.6433313836426952 -0.24182651853430742 -0.7263915375016091
		outer loop
			vertex 0.10000000149011612 0.1023595929145813 -0.13049058616161346
			vertex 0.10000000149011612 0.10368295758962631 -0.13093115389347076
			vertex 0.10157167911529541 0.1023595929145813 -0.12909862399101257
		endloop
	endfacet
	facet normal 0.9748597490258474 -0.011420258289573113 -0.22252650949911898
		outer loop
			vertex 0.14140716195106506 0.12397625297307968 -0.06109389662742615
			vertex 0.1424957811832428 0.1023595929145813 -0.05521541088819504
			vertex 0.1332380473613739 0.1023595929145813 -0.09577234089374542
		endloop
	endfacet
	facet normal 0.9748597767683798 -0.011420482181643682 -0.22252637647219256
		outer loop
			vertex 0.14140716195106506 0.12397625297307968 -0.06109389662742615
			vertex 0.1332380473613739 0.1023595929145813 -0.09577234089374542
			vertex 0.13134577870368958 0.11315547674894333 -0.1046161949634552
		endloop
	endfacet
	facet normal 0.6433312624471631 -0.2418216128741049 -0.7263932779872802
		outer loop
			vertex 0.10000000149011612 0.11140328645706177 -0.13350129127502441
			vertex 0.12863335013389587 0.11257918924093246 -0.1085335910320282
			vertex 0.12540897727012634 0.1023595929145813 -0.10798708349466324
		endloop
	endfacet
	facet normal 0.6433313478346614 -0.2418213791423064 -0.7263932801746936
		outer loop
			vertex 0.10000000149011612 0.11140328645706177 -0.13350129127502441
			vertex 0.12540897727012634 0.1023595929145813 -0.10798708349466324
			vertex 0.10157167911529541 0.1023595929145813 -0.12909862399101257
		endloop
	endfacet
	facet normal 0.6433359411926495 -0.2418189879483406 -0.7263900080792742
		outer loop
			vertex 0.10000000149011612 0.11140328645706177 -0.13350129127502441
			vertex 0.10157167911529541 0.1023595929145813 -0.12909862399101257
			vertex 0.10000000149011612 0.10368295758962631 -0.13093115389347076
		endloop
	endfacet
	facet normal 0.8162591254895424 -0.2844252328542135 -0.50281540049095
		outer loop
			vertex 0.1311836540699005 0.11315954476594925 -0.10472176223993301
			vertex 0.13273827731609344 0.1023595929145813 -0.09608886390924454
			vertex 0.12540897727012634 0.1023595929145813 -0.10798708349466324
		endloop
	endfacet
	facet normal 0.8162596041178966 -0.28442582496206903 -0.5028142885598431
		outer loop
			vertex 0.1311836540699005 0.11315954476594925 -0.10472176223993301
			vertex 0.12540897727012634 0.1023595929145813 -0.10798708349466324
			vertex 0.12863335013389587 0.11257918924093246 -0.1085335910320282
		endloop
	endfacet
	facet normal 0.459153197995664 -0.5134109219679853 -0.7249741829709095
		outer loop
			vertex 0.13134577870368958 0.11315547674894333 -0.1046161949634552
			vertex 0.1332380473613739 0.1023595929145813 -0.09577234089374542
			vertex 0.13273827731609344 0.1023595929145813 -0.09608886390924454
		endloop
	endfacet
	facet normal 0.4591782596255418 -0.5134008087941925 -0.7249654718789907
		outer loop
			vertex 0.13134577870368958 0.11315547674894333 -0.1046161949634552
			vertex 0.13273827731609344 0.1023595929145813 -0.09608886390924454
			vertex 0.1311836540699005 0.11315954476594925 -0.10472176223993301
		endloop
	endfacet
	facet normal 0.39244217560857003 -0.8632699668842467 -0.3174178682419814
		outer loop
			vertex 0.1303986757993698 0.13038085401058197 -0.14171770215034485
			vertex 0.12633290886878967 0.11770793795585632 -0.11227837204933167
			vertex 0.10000000149011612 0.11383862048387527 -0.13431203365325928
		endloop
	endfacet
	facet normal 0.39244189471546614 -0.8632698042234488 -0.3174186579080431
		outer loop
			vertex 0.1303986757993698 0.13038085401058197 -0.14171770215034485
			vertex 0.10000000149011612 0.11383862048387527 -0.13431203365325928
			vertex 0.10000000149011612 0.1165616363286972 -0.14171770215034485
		endloop
	endfacet
	facet normal 0.6433313660755577 -0.2418218931665666 -0.7263930928971547
		outer loop
			vertex 0.10000000149011612 0.11383862048387527 -0.13431203365325928
			vertex 0.12633290886878967 0.11770793795585632 -0.11227837204933167
			vertex 0.1294611543416977 0.11520291119813919 -0.10867389291524887
		endloop
	endfacet
	facet normal 0.6433316979078066 -0.2418194790846359 -0.7263936026716465
		outer loop
			vertex 0.10000000149011612 0.11383862048387527 -0.13431203365325928
			vertex 0.1294611543416977 0.11520291119813919 -0.10867389291524887
			vertex 0.12863335013389587 0.11257918924093246 -0.1085335910320282
		endloop
	endfacet
	facet normal 0.6433311862315365 -0.24182215486130415 -0.7263931650560596
		outer loop
			vertex 0.10000000149011612 0.11383862048387527 -0.13431203365325928
			vertex 0.12863335013389587 0.11257918924093246 -0.1085335910320282
			vertex 0.10000000149011612 0.11140328645706177 -0.13350129127502441
		endloop
	endfacet
	facet normal 0.8162596892172436 -0.28442386255903734 -0.5028152604744278
		outer loop
			vertex 0.1309695988893509 0.11311083287000656 -0.10504170507192612
			vertex 0.12863335013389587 0.11257918924093246 -0.1085335910320282
			vertex 0.1294611543416977 0.11520291119813919 -0.10867389291524887
		endloop
	endfacet
	facet normal 0 1 0
		outer loop
			vertex 0.29999998211860657 0.3067464232444763 -0.14171770215034485
			vertex 0.28420907258987427 0.3067464232444763 -0.14171770215034485
			vertex 0.29999998211860657 0.3067464232444763 -0.11632440239191055
		endloop
	endfacet
	facet normal 0 1 0
		outer loop
			vertex 0.29999998211860657 0.3067464232444763 -0.04723922908306122
			vertex 0.29999998211860657 0.3067464232444763 -0.11632440239191055
			vertex 0.28420907258987427 0.3067464232444763 -0.14171770215034485
		endloop
	endfacet
	facet normal 0 1 0
		outer loop
			vertex 0.29999998211860657 0.3067464232444763 -0.04723922908306122
			vertex 0.28420907258987427 0.3067464232444763 -0.14171770215034485
			vertex 0.1826433688402176 0.3067464232444763 -0.14171770215034485
		endloop
	endfacet
	facet normal 0 1 0
		outer loop
			vertex 0.29999998211860657 0.3067464232444763 -0.04723922908306122
			vertex 0.1826433688402176 0.3067464232444763 -0.14171770215034485
			vertex 0.17456896603107452 0.3067464232444763 -0.04723922908306122
		endloop
	endfacet
	facet normal 0 1 0
		outer loop
			vertex 0.10000000149011612 0.3067464232444763 -0.14171770215034485
			vertex 0.10000000149011612 0.3067464232444763 -0.12745366990566254
			vertex 0.10857658088207245 0.3067464232444763 -0.14171770215034485
		endloop
	endfacet
	facet normal 0 1 0
		outer loop
			vertex 0.17456896603107452 0.3067464232444763 -0.04723922908306122
			vertex 0.1826433688402176 0.3067464232444763 -0.14171770215034485
			vertex 0.10857658088207245 0.3067464232444763 -0.14171770215034485
		endloop
	endfacet
	facet normal 0 1 0
		outer loop
			vertex 0.17456896603107452 0.3067464232444763 -0.04723922908306122
			vertex 0.10857658088207245 0.3067464232444763 -0.14171770215034485
			vertex 0.10000000149011612 0.3067464232444763 -0.12745366990566254
		endloop
	endfacet
	facet normal 0 1 0
		outer loop
			vertex 0.17456896603107452 0.3067464232444763 -0.04723922908306122
			vertex 0.10000000149011612 0.3067464232444763 -0.12745366990566254
			vertex 0.10000000149011612 0.3067464232444763 -0.04723922908306122
		endloop
	endfacet
	facet normal 0.5337818440446409 -0.6345590091410321 0.5589381064896668
		outer loop
			vertex 0.20262128114700317 0.2130015343427658 -0.04723922908306122
			vertex 0.16452442109584808 0.18095500767230988 -0.04723922908306122
			vertex 0.14883418381214142 0.15673570334911346 -0.05975119397044182
		endloop
	endfacet
	facet normal 0.5337825471701002 -0.6345594265850388 0.5589369610865493
		outer loop
			vertex 0.20262128114700317 0.2130015343427658 -0.04723922908306122
			vertex 0.14883418381214142 0.15673570334911346 -0.05975119397044182
			vertex 0.1591395139694214 0.15093831717967987 -0.07617449760437012
		endloop
	endfacet
	facet normal 0.5337824440767958 -0.6345594093704329 0.558937079083907
		outer loop
			vertex 0.20262128114700317 0.2130015343427658 -0.04723922908306122
			vertex 0.1591395139694214 0.15093831717967987 -0.07617449760437012
			vertex 0.2782439589500427 0.19674772024154663 -0.13791145384311676
		endloop
	endfacet
	facet normal 0.4284796167237233 -0.8841327314089168 0.18631836008214475
		outer loop
			vertex 0.28328895568847656 0.19643443822860718 -0.14171770215034485
			vertex 0.2910371422767639 0.20371557772159576 -0.12498530000448227
			vertex 0.26979196071624756 0.19102801382541656 -0.1363334208726883
		endloop
	endfacet
	facet normal 0.4284788447485109 -0.8841337231954245 0.1863154290754746
		outer loop
			vertex 0.28328895568847656 0.19643443822860718 -0.14171770215034485
			vertex 0.26979196071624756 0.19102801382541656 -0.1363334208726883
			vertex 0.27991095185279846 0.1947973519563675 -0.14171770215034485
		endloop
	endfacet
	facet normal -0.5174110655615088 0.8556526372790239 0.012014722300378826
		outer loop
			vertex 0.26979196071624756 0.19102801382541656 -0.1363334208726883
			vertex 0.2910371422767639 0.20371557772159576 -0.12498530000448227
			vertex 0.27894529700279236 0.19659698009490967 -0.13875238597393036
		endloop
	endfacet
	facet normal 0.2887958034009795 -0.5804303356427103 0.76137875555053
		outer loop
			vertex 0.13916881382465363 0.16833920776844025 -0.04723922908306122
			vertex 0.14883418381214142 0.15673570334911346 -0.05975119397044182
			vertex 0.16452442109584808 0.18095500767230988 -0.04723922908306122
		endloop
	endfacet
	facet normal 0.44358048060294464 -0.8714992069877078 0.2091064069985832
		outer loop
			vertex 0.20807091891765594 0.16011740267276764 -0.14171770215034485
			vertex 0.274273157119751 0.19381338357925415 -0.14171770215034485
			vertex 0.27736377716064453 0.19566592574119568 -0.14055298268795013
		endloop
	endfacet
	facet normal 0.44358084538557774 -0.8714998103008952 0.20910311870586723
		outer loop
			vertex 0.20807091891765594 0.16011740267276764 -0.14171770215034485
			vertex 0.27736377716064453 0.19566592574119568 -0.14055298268795013
			vertex 0.2782439589500427 0.19674772024154663 -0.13791145384311676
		endloop
	endfacet
	facet normal 0.4435804971161062 -0.8714993983085668 0.20910557459339552
		outer loop
			vertex 0.20807091891765594 0.16011740267276764 -0.14171770215034485
			vertex 0.2782439589500427 0.19674772024154663 -0.13791145384311676
			vertex 0.1591395139694214 0.15093831717967987 -0.07617449760437012
		endloop
	endfacet
	facet normal 0.44358003296410664 -0.8714997288019407 0.20910518179544554
		outer loop
			vertex 0.20807091891765594 0.16011740267276764 -0.14171770215034485
			vertex 0.1591395139694214 0.15093831717967987 -0.07617449760437012
			vertex 0.17354658246040344 0.15175817906856537 -0.10331958532333374
		endloop
	endfacet
	facet normal 0.5520580034735775 -0.7658815011527943 0.3296323512531953
		outer loop
			vertex 0.19456607103347778 0.15038292109966278 -0.14171770215034485
			vertex 0.20807091891765594 0.16011740267276764 -0.14171770215034485
			vertex 0.17354658246040344 0.15175817906856537 -0.10331958532333374
		endloop
	endfacet
	facet normal 0.4284801070207207 -0.884132419160156 0.1863187142439591
		outer loop
			vertex 0.27991095185279846 0.1947973519563675 -0.14171770215034485
			vertex 0.26979196071624756 0.19102801382541656 -0.1363334208726883
			vertex 0.2597118616104126 0.1850081980228424 -0.14171770215034485
		endloop
	endfacet
	facet normal -0.5174113309804402 0.8556525290713555 0.012010997745507441
		outer loop
			vertex 0.27736377716064453 0.19566592574119568 -0.14055298268795013
			vertex 0.274273157119751 0.19381338357925415 -0.14171770215034485
			vertex 0.2597118616104126 0.1850081980228424 -0.14171770215034485
		endloop
	endfacet
	facet normal -0.5174114762996962 0.8556523927667309 0.012014447383757976
		outer loop
			vertex 0.27736377716064453 0.19566592574119568 -0.14055298268795013
			vertex 0.2597118616104126 0.1850081980228424 -0.14171770215034485
			vertex 0.26979196071624756 0.19102801382541656 -0.1363334208726883
		endloop
	endfacet
	facet normal -0.5174107879013515 0.8556527856295959 0.012016114497448107
		outer loop
			vertex 0.27736377716064453 0.19566592574119568 -0.14055298268795013
			vertex 0.26979196071624756 0.19102801382541656 -0.1363334208726883
			vertex 0.27894529700279236 0.19659698009490967 -0.13875238597393036
		endloop
	endfacet
	facet normal 0.5337828180838122 -0.6345591385270182 0.558937029396293
		outer loop
			vertex 0.14883418381214142 0.15673570334911346 -0.05975119397044182
			vertex 0.1404120922088623 0.14373545348644257 -0.06646726280450821
			vertex 0.1591395139694214 0.15093831717967987 -0.07617449760437012
		endloop
	endfacet
	facet normal 0.9180490401898344 0.14642626753254134 0.3684363011200342
		outer loop
			vertex 0.13495871424674988 0.12954512238502502 -0.04723922908306122
			vertex 0.14140716195106506 0.12397625297307968 -0.06109389662742615
			vertex 0.1404120922088623 0.14373545348644257 -0.06646726280450821
		endloop
	endfacet
	facet normal 0.9180488008848028 0.14642685247203321 0.3684366649359282
		outer loop
			vertex 0.13495871424674988 0.12954512238502502 -0.04723922908306122
			vertex 0.1404120922088623 0.14373545348644257 -0.06646726280450821
			vertex 0.13122645020484924 0.15294520556926727 -0.04723922908306122
		endloop
	endfacet
	facet normal 0.9748598298557447 -0.01142054897486809 -0.2225261404750938
		outer loop
			vertex 0.1404120922088623 0.14373545348644257 -0.06646726280450821
			vertex 0.14140716195106506 0.12397625297307968 -0.06109389662742615
			vertex 0.1343238204717636 0.11635828018188477 -0.09173417836427689
		endloop
	endfacet
	facet normal 0.288796135387753 -0.5804303025874855 0.761378654825113
		outer loop
			vertex 0.12953563034534454 0.16354615986347198 -0.04723922908306122
			vertex 0.1404120922088623 0.14373545348644257 -0.06646726280450821
			vertex 0.14883418381214142 0.15673570334911346 -0.05975119397044182
		endloop
	endfacet
	facet normal 0.28879638028641685 -0.5804299424121437 0.7613788365097226
		outer loop
			vertex 0.12953563034534454 0.16354615986347198 -0.04723922908306122
			vertex 0.14883418381214142 0.15673570334911346 -0.05975119397044182
			vertex 0.13916881382465363 0.16833920776844025 -0.04723922908306122
		endloop
	endfacet
	facet normal 0.9180487768790419 0.14642597834703086 0.36843707215209753
		outer loop
			vertex 0.13122645020484924 0.15294520556926727 -0.04723922908306122
			vertex 0.1404120922088623 0.14373545348644257 -0.06646726280450821
			vertex 0.12953563034534454 0.16354615986347198 -0.04723922908306122
		endloop
	endfacet
	facet normal 0.9748596199416341 -0.011419609052505277 -0.2225271083179322
		outer loop
			vertex 0.1404120922088623 0.14373545348644257 -0.06646726280450821
			vertex 0.1343238204717636 0.11635828018188477 -0.09173417836427689
			vertex 0.13134577870368958 0.11315547674894333 -0.1046161949634552
		endloop
	endfacet
	facet normal 0.974859813119334 -0.011420798212316547 -0.22252620100368206
		outer loop
			vertex 0.1404120922088623 0.14373545348644257 -0.06646726280450821
			vertex 0.13134577870368958 0.11315547674894333 -0.1046161949634552
			vertex 0.13044200837612152 0.11831173300743103 -0.10884013772010803
		endloop
	endfacet
	facet normal 0.39244221409947116 -0.8632699420776417 -0.31741788811906935
		outer loop
			vertex 0.16415773332118988 0.1457277238368988 -0.14171770215034485
			vertex 0.13044200837612152 0.11831173300743103 -0.10884013772010803
			vertex 0.1276008039712906 0.12165996432304382 -0.12145894765853882
		endloop
	endfacet
	facet normal 0.392442599355515 -0.863269998090222 -0.31741725946834604
		outer loop
			vertex 0.16415773332118988 0.1457277238368988 -0.14171770215034485
			vertex 0.1276008039712906 0.12165996432304382 -0.12145894765853882
			vertex 0.1303986757993698 0.13038085401058197 -0.14171770215034485
		endloop
	endfacet
	facet normal 0.552058118026785 -0.765882017601359 0.3296309594616326
		outer loop
			vertex 0.13044200837612152 0.11831173300743103 -0.10884013772010803
			vertex 0.19068218767642975 0.14758336544036865 -0.14171770215034485
			vertex 0.19456607103347778 0.15038292109966278 -0.14171770215034485
		endloop
	endfacet
	facet normal 0.5520584756235486 -0.7658810559003761 0.3296325950283577
		outer loop
			vertex 0.13044200837612152 0.11831173300743103 -0.10884013772010803
			vertex 0.19456607103347778 0.15038292109966278 -0.14171770215034485
			vertex 0.18687264621257782 0.15088628232479095 -0.12766346335411072
		endloop
	endfacet
	facet normal 0.05555592766068586 -0.7941138335352125 -0.605224551955528
		outer loop
			vertex 0.19068218767642975 0.14758336544036865 -0.14171770215034485
			vertex 0.13044200837612152 0.11831173300743103 -0.10884013772010803
			vertex 0.16415773332118988 0.1457277238368988 -0.14171770215034485
		endloop
	endfacet
	facet normal 0.443580948907575 -0.8714991417044902 0.20910568565821616
		outer loop
			vertex 0.1591395139694214 0.15093831717967987 -0.07617449760437012
			vertex 0.1404120922088623 0.14373545348644257 -0.06646726280450821
			vertex 0.17354658246040344 0.15175817906856537 -0.10331958532333374
		endloop
	endfacet
	facet normal 0.5520584755018719 -0.7658810568593205 0.329632593004089
		outer loop
			vertex 0.13044200837612152 0.11831173300743103 -0.10884013772010803
			vertex 0.18687264621257782 0.15088628232479095 -0.12766346335411072
			vertex 0.17354658246040344 0.15175817906856537 -0.10331958532333374
		endloop
	endfacet
	facet normal 0.5520585019008344 -0.7658810761759469 0.3296325039109159
		outer loop
			vertex 0.13044200837612152 0.11831173300743103 -0.10884013772010803
			vertex 0.17354658246040344 0.15175817906856537 -0.10331958532333374
			vertex 0.1404120922088623 0.14373545348644257 -0.06646726280450821
		endloop
	endfacet
	facet normal 0.392444934114863 -0.8632686103000723 -0.31741814717839145
		outer loop
			vertex 0.13044200837612152 0.11831173300743103 -0.10884013772010803
			vertex 0.12633290886878967 0.11770793795585632 -0.11227837204933167
			vertex 0.1276008039712906 0.12165996432304382 -0.12145894765853882
		endloop
	endfacet
	facet normal 0.6433326388804496 -0.2418197218075039 -0.7263926884929793
		outer loop
			vertex 0.12633290886878967 0.11770793795585632 -0.11227837204933167
			vertex 0.13044200837612152 0.11831173300743103 -0.10884013772010803
			vertex 0.1294611543416977 0.11520291119813919 -0.10867389291524887
		endloop
	endfacet
	facet normal 0.8162635525826755 -0.2844201978435334 -0.5028110617157852
		outer loop
			vertex 0.13044200837612152 0.11831173300743103 -0.10884013772010803
			vertex 0.1311836540699005 0.11315954476594925 -0.10472176223993301
			vertex 0.1309695988893509 0.11311083287000656 -0.10504170507192612
		endloop
	endfacet
	facet normal 0.8162598560553287 -0.2844235646301209 -0.5028151581601628
		outer loop
			vertex 0.13044200837612152 0.11831173300743103 -0.10884013772010803
			vertex 0.1309695988893509 0.11311083287000656 -0.10504170507192612
			vertex 0.1294611543416977 0.11520291119813919 -0.10867389291524887
		endloop
	endfacet
	facet normal 0.45917851677357857 -0.5134000617987791 -0.7249658380079894
		outer loop
			vertex 0.13044200837612152 0.11831173300743103 -0.10884013772010803
			vertex 0.13134577870368958 0.11315547674894333 -0.1046161949634552
			vertex 0.1311836540699005 0.11315954476594925 -0.10472176223993301
		endloop
	endfacet
	facet normal 0.5337828574084973 -0.6345592825975986 0.5589368282785102
		outer loop
			vertex 0.20262128114700317 0.2130015343427658 -0.04723922908306122
			vertex 0.22100362181663513 0.20905056595802307 -0.06927982717752457
			vertex 0.2148893177509308 0.22332124412059784 -0.04723922908306122
		endloop
	endfacet
	facet normal 0.15024018110189014 -0.9609284410755263 0.23247455584349447
		outer loop
			vertex 0.29999998211860657 0.23286010324954987 -0.04723922908306122
			vertex 0.28165194392204285 0.22999140620231628 -0.04723922908306122
			vertex 0.29600754380226135 0.22653828561306 -0.07079014927148819
		endloop
	endfacet
	facet normal 0.15024487766854924 -0.960927932410496 0.2324736231223919
		outer loop
			vertex 0.29999998211860657 0.23286010324954987 -0.04723922908306122
			vertex 0.29600754380226135 0.22653828561306 -0.07079014927148819
			vertex 0.29999998211860657 0.22697670757770538 -0.07155819982290268
		endloop
	endfacet
	facet normal -0.15703199472987053 -0.9863817972088011 0.04890708298696248
		outer loop
			vertex 0.2574155628681183 0.23384983837604523 -0.04723922908306122
			vertex 0.29600754380226135 0.22653828561306 -0.07079014927148819
			vertex 0.28165194392204285 0.22999140620231628 -0.04723922908306122
		endloop
	endfacet
	facet normal 1 0 0
		outer loop
			vertex 0.29999998211860657 0.2355555295944214 -0.04723922908306122
			vertex 0.29999998211860657 0.23286010324954987 -0.04723922908306122
			vertex 0.29999998211860657 0.22697670757770538 -0.07155819982290268
		endloop
	endfacet
	facet normal 1 0 0
		outer loop
			vertex 0.29999998211860657 0.2355555295944214 -0.04723922908306122
			vertex 0.29999998211860657 0.22697670757770538 -0.07155819982290268
			vertex 0.29999998211860657 0.23466750979423523 -0.06081916391849518
		endloop
	endfacet
	facet normal 0.1879010998230604 -0.8785848229959651 0.4390693401803789
		outer loop
			vertex 0.29999998211860657 0.21744003891944885 -0.10803541541099548
			vertex 0.25983792543411255 0.21051639318466187 -0.10470226407051086
			vertex 0.2808241844177246 0.1977401226758957 -0.13924892246723175
		endloop
	endfacet
	facet normal 0.18790103342024106 -0.8785848182937964 0.4390693780067821
		outer loop
			vertex 0.29999998211860657 0.21744003891944885 -0.10803541541099548
			vertex 0.2808241844177246 0.1977401226758957 -0.13924892246723175
			vertex 0.29999998211860657 0.20913086831569672 -0.12466219812631607
		endloop
	endfacet
	facet normal 0.533788825854662 -0.6345507299526659 0.5589408381119062
		outer loop
			vertex 0.24357478320598602 0.20419926941394806 -0.09634282439947128
			vertex 0.2782439589500427 0.19674772024154663 -0.13791145384311676
			vertex 0.2808241844177246 0.1977401226758957 -0.13924892246723175
		endloop
	endfacet
	facet normal 0.5337829577136083 -0.6345590503281562 0.5589369961821644
		outer loop
			vertex 0.24357478320598602 0.20419926941394806 -0.09634282439947128
			vertex 0.2808241844177246 0.1977401226758957 -0.13924892246723175
			vertex 0.25983792543411255 0.21051639318466187 -0.10470226407051086
		endloop
	endfacet
	facet normal 0.4284799122372634 -0.8841324754311408 0.1863188951694124
		outer loop
			vertex 0.2855014204978943 0.19750665128231049 -0.14171770215034485
			vertex 0.29999998211860657 0.20739562809467316 -0.12813441455364227
			vertex 0.29999998211860657 0.209068164229393 -0.12019778788089752
		endloop
	endfacet
	facet normal 0.42847911760085133 -0.8841327200238318 0.1863195619446779
		outer loop
			vertex 0.2855014204978943 0.19750665128231049 -0.14171770215034485
			vertex 0.29999998211860657 0.209068164229393 -0.12019778788089752
			vertex 0.2910371422767639 0.20371557772159576 -0.12498530000448227
		endloop
	endfacet
	facet normal 0.4284728984700227 -0.8841351132407071 0.18632250752804821
		outer loop
			vertex 0.2855014204978943 0.19750665128231049 -0.14171770215034485
			vertex 0.2910371422767639 0.20371557772159576 -0.12498530000448227
			vertex 0.28328895568847656 0.19643443822860718 -0.14171770215034485
		endloop
	endfacet
	facet normal -0.5174140195709019 0.8556507829181588 0.012019569169663118
		outer loop
			vertex 0.29999998211860657 0.20913086831569672 -0.12466219812631607
			vertex 0.2808241844177246 0.1977401226758957 -0.13924892246723175
			vertex 0.27894529700279236 0.19659698009490967 -0.13875238597393036
		endloop
	endfacet
	facet normal -0.5174125013456092 0.8556517448736846 0.012016444811139034
		outer loop
			vertex 0.29999998211860657 0.20913086831569672 -0.12466219812631607
			vertex 0.27894529700279236 0.19659698009490967 -0.13875238597393036
			vertex 0.2910371422767639 0.20371557772159576 -0.12498530000448227
		endloop
	endfacet
	facet normal -0.5174125308246442 0.8556517065393742 0.012017905054272714
		outer loop
			vertex 0.29999998211860657 0.20913086831569672 -0.12466219812631607
			vertex 0.2910371422767639 0.20371557772159576 -0.12498530000448227
			vertex 0.29999998211860657 0.209068164229393 -0.12019778788089752
		endloop
	endfacet
	facet normal 1 0 0
		outer loop
			vertex 0.29999998211860657 0.20739562809467316 -0.12813441455364227
			vertex 0.29999998211860657 0.20913086831569672 -0.12466219812631607
			vertex 0.29999998211860657 0.209068164229393 -0.12019778788089752
		endloop
	endfacet
	facet normal 0.44358327113536256 -0.8714988626745388 0.20910192233893254
		outer loop
			vertex 0.27736377716064453 0.19566592574119568 -0.14055298268795013
			vertex 0.2808241844177246 0.1977401226758957 -0.13924892246723175
			vertex 0.2782439589500427 0.19674772024154663 -0.13791145384311676
		endloop
	endfacet
	facet normal -0.5174139515865774 0.8556508192400248 0.012019910042823167
		outer loop
			vertex 0.2808241844177246 0.1977401226758957 -0.13924892246723175
			vertex 0.27736377716064453 0.19566592574119568 -0.14055298268795013
			vertex 0.27894529700279236 0.19659698009490967 -0.13875238597393036
		endloop
	endfacet
	facet normal 0.42848012443521577 -0.8841323064750395 0.1863192089160673
		outer loop
			vertex 0.29999998211860657 0.2045331448316574 -0.14171770215034485
			vertex 0.29999998211860657 0.2056073397397995 -0.13662037253379822
			vertex 0.2914178669452667 0.20154206454753876 -0.1361747682094574
		endloop
	endfacet
	facet normal 0.42848033759152043 -0.8841321114443583 0.18631964418814653
		outer loop
			vertex 0.29999998211860657 0.2045331448316574 -0.14171770215034485
			vertex 0.2914178669452667 0.20154206454753876 -0.1361747682094574
			vertex 0.2855014204978943 0.19750665128231049 -0.14171770215034485
		endloop
	endfacet
	facet normal 1 0 0
		outer loop
			vertex 0.29999998211860657 0.2045331448316574 -0.14171770215034485
			vertex 0.29999998211860657 0.20748157799243927 -0.14171770215034485
			vertex 0.29999998211860657 0.2056073397397995 -0.13662037253379822
		endloop
	endfacet
	facet normal 0.42848018387084347 -0.8841325991768798 0.18631768327977716
		outer loop
			vertex 0.29999998211860657 0.20739562809467316 -0.12813441455364227
			vertex 0.2914178669452667 0.20154206454753876 -0.1361747682094574
			vertex 0.29999998211860657 0.2056073397397995 -0.13662037253379822
		endloop
	endfacet
	facet normal 1 0 0
		outer loop
			vertex 0.29999998211860657 0.20748157799243927 -0.14171770215034485
			vertex 0.29999998211860657 0.2293774038553238 -0.14171770215034485
			vertex 0.29999998211860657 0.22994810342788696 -0.13299033045768738
		endloop
	endfacet
	facet normal 1 0 0
		outer loop
			vertex 0.29999998211860657 0.20748157799243927 -0.14171770215034485
			vertex 0.29999998211860657 0.22994810342788696 -0.13299033045768738
			vertex 0.29999998211860657 0.21744003891944885 -0.10803541541099548
		endloop
	endfacet
	facet normal 1 0 0
		outer loop
			vertex 0.29999998211860657 0.20748157799243927 -0.14171770215034485
			vertex 0.29999998211860657 0.21744003891944885 -0.10803541541099548
			vertex 0.29999998211860657 0.20739562809467316 -0.12813441455364227
		endloop
	endfacet
	facet normal 1 0 0
		outer loop
			vertex 0.29999998211860657 0.20748157799243927 -0.14171770215034485
			vertex 0.29999998211860657 0.20739562809467316 -0.12813441455364227
			vertex 0.29999998211860657 0.2056073397397995 -0.13662037253379822
		endloop
	endfacet
	facet normal 0.15024481246718133 -0.9609280393709707 0.23247322314056726
		outer loop
			vertex 0.29999998211860657 0.22697670757770538 -0.07155819982290268
			vertex 0.29600754380226135 0.22653828561306 -0.07079014927148819
			vertex 0.29999998211860657 0.2255779504776001 -0.07733996212482452
		endloop
	endfacet
	facet normal 0.18790140048415702 -0.8785850643471325 0.43906872856335083
		outer loop
			vertex 0.29999998211860657 0.21881990134716034 -0.10527431219816208
			vertex 0.2539435923099518 0.2141047865152359 -0.09499931335449219
			vertex 0.25983792543411255 0.21051639318466187 -0.10470226407051086
		endloop
	endfacet
	facet normal 0.18790109061569402 -0.878583315345494 0.4390723609406005
		outer loop
			vertex 0.29999998211860657 0.21881990134716034 -0.10527431219816208
			vertex 0.25983792543411255 0.21051639318466187 -0.10470226407051086
			vertex 0.29999998211860657 0.21744003891944885 -0.10803541541099548
		endloop
	endfacet
	facet normal 0.5337830697878536 -0.6345581939982146 0.5589378613384316
		outer loop
			vertex 0.22100362181663513 0.20905056595802307 -0.06927982717752457
			vertex 0.24357478320598602 0.20419926941394806 -0.09634282439947128
			vertex 0.25983792543411255 0.21051639318466187 -0.10470226407051086
		endloop
	endfacet
	facet normal 0.5337825052687871 -0.6345592525888782 0.5589371986393656
		outer loop
			vertex 0.22100362181663513 0.20905056595802307 -0.06927982717752457
			vertex 0.25983792543411255 0.21051639318466187 -0.10470226407051086
			vertex 0.2539435923099518 0.2141047865152359 -0.09499931335449219
		endloop
	endfacet
	facet normal 0.5337823331213092 -0.6345596625622062 0.5589368975980302
		outer loop
			vertex 0.22100362181663513 0.20905056595802307 -0.06927982717752457
			vertex 0.2539435923099518 0.2141047865152359 -0.09499931335449219
			vertex 0.21721786260604858 0.21788646280765533 -0.055633071810007095
		endloop
	endfacet
	facet normal 1 0 0
		outer loop
			vertex 0.29999998211860657 0.21744003891944885 -0.10803541541099548
			vertex 0.29999998211860657 0.21792016923427582 -0.10899331420660019
			vertex 0.29999998211860657 0.21881990134716034 -0.10527431219816208
		endloop
	endfacet
	facet normal -0.15703249406585187 -0.9863817686201191 0.04890605628451578
		outer loop
			vertex 0.24437394738197327 0.2359260767698288 -0.04723922908306122
			vertex 0.29999998211860657 0.224784716963768 -0.09333861619234085
			vertex 0.29999998211860657 0.2255779504776001 -0.07733996212482452
		endloop
	endfacet
	facet normal -0.1570338350887425 -0.9863816795158056 0.04890354744699079
		outer loop
			vertex 0.24437394738197327 0.2359260767698288 -0.04723922908306122
			vertex 0.29999998211860657 0.2255779504776001 -0.07733996212482452
			vertex 0.29600754380226135 0.22653828561306 -0.07079014927148819
		endloop
	endfacet
	facet normal -0.157032969201022 -0.9863817223971756 0.04890546293301383
		outer loop
			vertex 0.24437394738197327 0.2359260767698288 -0.04723922908306122
			vertex 0.29600754380226135 0.22653828561306 -0.07079014927148819
			vertex 0.2574155628681183 0.23384983837604523 -0.04723922908306122
		endloop
	endfacet
	facet normal 0.1879015545496934 -0.878584573782184 0.43906964425907086
		outer loop
			vertex 0.22493045032024384 0.23176772892475128 -0.04723922908306122
			vertex 0.2539435923099518 0.2141047865152359 -0.09499931335449219
			vertex 0.29999998211860657 0.21881990134716034 -0.10527431219816208
		endloop
	endfacet
	facet normal 0.1879011759363674 -0.8785848668298272 0.43906921989516134
		outer loop
			vertex 0.22493045032024384 0.23176772892475128 -0.04723922908306122
			vertex 0.29999998211860657 0.21881990134716034 -0.10527431219816208
			vertex 0.29999998211860657 0.224784716963768 -0.09333861619234085
		endloop
	endfacet
	facet normal 0.18790141190516144 -0.8785846413973373 0.43906957000543667
		outer loop
			vertex 0.22493045032024384 0.23176772892475128 -0.04723922908306122
			vertex 0.29999998211860657 0.224784716963768 -0.09333861619234085
			vertex 0.24437394738197327 0.2359260767698288 -0.04723922908306122
		endloop
	endfacet
	facet normal 0.5337832379517997 -0.6345584441134129 0.5589374167883708
		outer loop
			vertex 0.2539435923099518 0.2141047865152359 -0.09499931335449219
			vertex 0.22493045032024384 0.23176772892475128 -0.04723922908306122
			vertex 0.2148893177509308 0.22332124412059784 -0.04723922908306122
		endloop
	endfacet
	facet normal 0.5337823877987025 -0.6345595787309601 0.5589369405547481
		outer loop
			vertex 0.2539435923099518 0.2141047865152359 -0.09499931335449219
			vertex 0.2148893177509308 0.22332124412059784 -0.04723922908306122
			vertex 0.21721786260604858 0.21788646280765533 -0.055633071810007095
		endloop
	endfacet
	facet normal 1 0 0
		outer loop
			vertex 0.29999998211860657 0.22056132555007935 -0.10178966820240021
			vertex 0.29999998211860657 0.22428058087825775 -0.10350611805915833
			vertex 0.29999998211860657 0.224784716963768 -0.09333861619234085
		endloop
	endfacet
	facet normal 1 0 0
		outer loop
			vertex 0.29999998211860657 0.22428058087825775 -0.10350611805915833
			vertex 0.29999998211860657 0.22056132555007935 -0.10178966820240021
			vertex 0.29999998211860657 0.21881990134716034 -0.10527431219816208
		endloop
	endfacet
	facet normal 1 0 0
		outer loop
			vertex 0.29999998211860657 0.22428058087825775 -0.10350611805915833
			vertex 0.29999998211860657 0.21881990134716034 -0.10527431219816208
			vertex 0.29999998211860657 0.21792016923427582 -0.10899331420660019
		endloop
	endfacet
	facet normal 1 0 0
		outer loop
			vertex 0.29999998211860657 0.22428058087825775 -0.10350611805915833
			vertex 0.29999998211860657 0.21792016923427582 -0.10899331420660019
			vertex 0.29999998211860657 0.22346048057079315 -0.12004683166742325
		endloop
	endfacet
	facet normal 1 0 0
		outer loop
			vertex 0.29999998211860657 0.22428058087825775 -0.10350611805915833
			vertex 0.29999998211860657 0.2316536158323288 -0.10690879076719284
			vertex 0.29999998211860657 0.23466750979423523 -0.06081916391849518
		endloop
	endfacet
	facet normal 1 0 0
		outer loop
			vertex 0.29999998211860657 0.22428058087825775 -0.10350611805915833
			vertex 0.29999998211860657 0.23466750979423523 -0.06081916391849518
			vertex 0.29999998211860657 0.22697670757770538 -0.07155819982290268
		endloop
	endfacet
	facet normal 1 0 0
		outer loop
			vertex 0.29999998211860657 0.22428058087825775 -0.10350611805915833
			vertex 0.29999998211860657 0.22697670757770538 -0.07155819982290268
			vertex 0.29999998211860657 0.2255779504776001 -0.07733996212482452
		endloop
	endfacet
	facet normal 1 0 0
		outer loop
			vertex 0.29999998211860657 0.22994810342788696 -0.13299033045768738
			vertex 0.29999998211860657 0.2316536158323288 -0.10690879076719284
			vertex 0.29999998211860657 0.22428058087825775 -0.10350611805915833
		endloop
	endfacet
	facet normal 1 0 0
		outer loop
			vertex 0.29999998211860657 0.22994810342788696 -0.13299033045768738
			vertex 0.29999998211860657 0.22428058087825775 -0.10350611805915833
			vertex 0.29999998211860657 0.22346048057079315 -0.12004683166742325
		endloop
	endfacet
	facet normal 1 0 0
		outer loop
			vertex 0.29999998211860657 0.23744390904903412 -0.04723922908306122
			vertex 0.29999998211860657 0.2355555295944214 -0.04723922908306122
			vertex 0.29999998211860657 0.23466750979423523 -0.06081916391849518
		endloop
	endfacet
	facet normal 1 0 0
		outer loop
			vertex 0.29999998211860657 0.23744390904903412 -0.04723922908306122
			vertex 0.29999998211860657 0.23466750979423523 -0.06081916391849518
			vertex 0.29999998211860657 0.23653697967529297 -0.05820872634649277
		endloop
	endfacet
	facet normal 1 0 0
		outer loop
			vertex 0.29999998211860657 0.2293774038553238 -0.14171770215034485
			vertex 0.29999998211860657 0.22963279485702515 -0.14171770215034485
			vertex 0.29999998211860657 0.2302968055009842 -0.13368605077266693
		endloop
	endfacet
	facet normal 1 0 0
		outer loop
			vertex 0.29999998211860657 0.2293774038553238 -0.14171770215034485
			vertex 0.29999998211860657 0.2302968055009842 -0.13368605077266693
			vertex 0.29999998211860657 0.22994810342788696 -0.13299033045768738
		endloop
	endfacet
	facet normal 1 0 0
		outer loop
			vertex 0.29999998211860657 0.23466750979423523 -0.06081916391849518
			vertex 0.29999998211860657 0.2316536158323288 -0.10690879076719284
			vertex 0.29999998211860657 0.23247916996479034 -0.10728977620601654
		endloop
	endfacet
	facet normal 1 0 0
		outer loop
			vertex 0.29999998211860657 0.23466750979423523 -0.06081916391849518
			vertex 0.29999998211860657 0.23247916996479034 -0.10728977620601654
			vertex 0.29999998211860657 0.23653697967529297 -0.05820872634649277
		endloop
	endfacet
	facet normal 1 0 0
		outer loop
			vertex 0.29999998211860657 0.2302968055009842 -0.13368605077266693
			vertex 0.29999998211860657 0.23247916996479034 -0.10728977620601654
			vertex 0.29999998211860657 0.2316536158323288 -0.10690879076719284
		endloop
	endfacet
	facet normal 1 0 0
		outer loop
			vertex 0.29999998211860657 0.2302968055009842 -0.13368605077266693
			vertex 0.29999998211860657 0.2316536158323288 -0.10690879076719284
			vertex 0.29999998211860657 0.22994810342788696 -0.13299033045768738
		endloop
	endfacet
	facet normal 1 0 0
		outer loop
			vertex 0.29999998211860657 0.22963279485702515 -0.14171770215034485
			vertex 0.29999998211860657 0.23175585269927979 -0.14171770215034485
			vertex 0.29999998211860657 0.23265968263149261 -0.13840021193027496
		endloop
	endfacet
	facet normal 1 0 0
		outer loop
			vertex 0.29999998211860657 0.22963279485702515 -0.14171770215034485
			vertex 0.29999998211860657 0.23265968263149261 -0.13840021193027496
			vertex 0.29999998211860657 0.2302968055009842 -0.13368605077266693
		endloop
	endfacet
	facet normal 1 0 0
		outer loop
			vertex 0.29999998211860657 0.2574961483478546 -0.04723922908306122
			vertex 0.29999998211860657 0.23744390904903412 -0.04723922908306122
			vertex 0.29999998211860657 0.23247916996479034 -0.10728977620601654
		endloop
	endfacet
	facet normal 1 0 0
		outer loop
			vertex 0.29999998211860657 0.2574961483478546 -0.04723922908306122
			vertex 0.29999998211860657 0.23247916996479034 -0.10728977620601654
			vertex 0.29999998211860657 0.2401687651872635 -0.11083854734897614
		endloop
	endfacet
	facet normal 1 0 0
		outer loop
			vertex 0.29999998211860657 0.23265968263149261 -0.13840021193027496
			vertex 0.29999998211860657 0.2401687651872635 -0.11083854734897614
			vertex 0.29999998211860657 0.23247916996479034 -0.10728977620601654
		endloop
	endfacet
	facet normal 1 0 0
		outer loop
			vertex 0.29999998211860657 0.23265968263149261 -0.13840021193027496
			vertex 0.29999998211860657 0.23247916996479034 -0.10728977620601654
			vertex 0.29999998211860657 0.2302968055009842 -0.13368605077266693
		endloop
	endfacet
	facet normal 1 0 0
		outer loop
			vertex 0.29999998211860657 0.23175585269927979 -0.14171770215034485
			vertex 0.29999998211860657 0.23432248830795288 -0.14171770215034485
			vertex 0.29999998211860657 0.23265968263149261 -0.13840021193027496
		endloop
	endfacet
	facet normal 1 0 0
		outer loop
			vertex 0.29999998211860657 0.23432248830795288 -0.14171770215034485
			vertex 0.29999998211860657 0.24348756670951843 -0.14171770215034485
			vertex 0.29999998211860657 0.2395784556865692 -0.11300523579120636
		endloop
	endfacet
	facet normal 1 0 0
		outer loop
			vertex 0.29999998211860657 0.23432248830795288 -0.14171770215034485
			vertex 0.29999998211860657 0.2395784556865692 -0.11300523579120636
			vertex 0.29999998211860657 0.23265968263149261 -0.13840021193027496
		endloop
	endfacet
	facet normal 1 0 0
		outer loop
			vertex 0.29999998211860657 0.2740612328052521 -0.04723922908306122
			vertex 0.29999998211860657 0.2574961483478546 -0.04723922908306122
			vertex 0.29999998211860657 0.2401687651872635 -0.11083854734897614
		endloop
	endfacet
	facet normal 1 0 0
		outer loop
			vertex 0.29999998211860657 0.2740612328052521 -0.04723922908306122
			vertex 0.29999998211860657 0.2401687651872635 -0.11083854734897614
			vertex 0.29999998211860657 0.2754618525505066 -0.12712641060352325
		endloop
	endfacet
	facet normal 1 0 0
		outer loop
			vertex 0.29999998211860657 0.24348756670951843 -0.14171770215034485
			vertex 0.29999998211860657 0.27571767568588257 -0.14171770215034485
			vertex 0.29999998211860657 0.2754618525505066 -0.12712641060352325
		endloop
	endfacet
	facet normal 1 0 0
		outer loop
			vertex 0.29999998211860657 0.24348756670951843 -0.14171770215034485
			vertex 0.29999998211860657 0.2754618525505066 -0.12712641060352325
			vertex 0.29999998211860657 0.2401687651872635 -0.11083854734897614
		endloop
	endfacet
	facet normal 1 0 0
		outer loop
			vertex 0.29999998211860657 0.24348756670951843 -0.14171770215034485
			vertex 0.29999998211860657 0.2401687651872635 -0.11083854734897614
			vertex 0.29999998211860657 0.2395784556865692 -0.11300523579120636
		endloop
	endfacet
	facet normal 1 0 0
		outer loop
			vertex 0.29999998211860657 0.3067464232444763 -0.04723922908306122
			vertex 0.29999998211860657 0.2740612328052521 -0.04723922908306122
			vertex 0.29999998211860657 0.2754618525505066 -0.12712641060352325
		endloop
	endfacet
	facet normal 1 0 0
		outer loop
			vertex 0.29999998211860657 0.3067464232444763 -0.04723922908306122
			vertex 0.29999998211860657 0.2754618525505066 -0.12712641060352325
			vertex 0.29999998211860657 0.3067464232444763 -0.14156432449817657
		endloop
	endfacet
	facet normal 1 0 0
		outer loop
			vertex 0.29999998211860657 0.27571767568588257 -0.14171770215034485
			vertex 0.29999998211860657 0.3067464232444763 -0.14171770215034485
			vertex 0.29999998211860657 0.3067464232444763 -0.14156432449817657
		endloop
	endfacet
	facet normal 1 0 0
		outer loop
			vertex 0.29999998211860657 0.27571767568588257 -0.14171770215034485
			vertex 0.29999998211860657 0.3067464232444763 -0.14156432449817657
			vertex 0.29999998211860657 0.2754618525505066 -0.12712641060352325
		endloop
	endfacet
	facet normal -1 0 0
		outer loop
			vertex 0.10000000149011612 0.1023595929145813 -0.13049058616161346
			vertex 0.10000000149011612 0.1023595929145813 -0.1297159194946289
			vertex 0.10000000149011612 0.10368295758962631 -0.13093115389347076
		endloop
	endfacet
	facet normal -1 0 0
		outer loop
			vertex 0.10000000149011612 0.1023595929145813 -0.1297159194946289
			vertex 0.10000000149011612 0.1023595929145813 -0.04723922908306122
			vertex 0.10000000149011612 0.13723942637443542 -0.04723922908306122
		endloop
	endfacet
	facet normal -1 0 0
		outer loop
			vertex 0.10000000149011612 0.1023595929145813 -0.1297159194946289
			vertex 0.10000000149011612 0.13723942637443542 -0.04723922908306122
			vertex 0.10000000149011612 0.11140328645706177 -0.13350129127502441
		endloop
	endfacet
	facet normal -1 0 0
		outer loop
			vertex 0.10000000149011612 0.1023595929145813 -0.1297159194946289
			vertex 0.10000000149011612 0.11140328645706177 -0.13350129127502441
			vertex 0.10000000149011612 0.10368295758962631 -0.13093115389347076
		endloop
	endfacet
	facet normal -1 0 0
		outer loop
			vertex 0.10000000149011612 0.11140328645706177 -0.13350129127502441
			vertex 0.10000000149011612 0.11236269772052765 -0.13029800355434418
			vertex 0.10000000149011612 0.11383862048387527 -0.13431203365325928
		endloop
	endfacet
	facet normal -1 0 0
		outer loop
			vertex 0.10000000149011612 0.13837353885173798 -0.14171770215034485
			vertex 0.10000000149011612 0.1165616363286972 -0.14171770215034485
			vertex 0.10000000149011612 0.11450129002332687 -0.13611426949501038
		endloop
	endfacet
	facet normal -1 0 0
		outer loop
			vertex 0.10000000149011612 0.13837353885173798 -0.14171770215034485
			vertex 0.10000000149011612 0.11450129002332687 -0.13611426949501038
			vertex 0.10000000149011612 0.13199035823345184 -0.1280430257320404
		endloop
	endfacet
	facet normal -1 0 0
		outer loop
			vertex 0.10000000149011612 0.13199035823345184 -0.1280430257320404
			vertex 0.10000000149011612 0.11450129002332687 -0.13611426949501038
			vertex 0.10000000149011612 0.11236269772052765 -0.13029800355434418
		endloop
	endfacet
	facet normal -1 0 0
		outer loop
			vertex 0.10000000149011612 0.13199035823345184 -0.1280430257320404
			vertex 0.10000000149011612 0.11236269772052765 -0.13029800355434418
			vertex 0.10000000149011612 0.1204456016421318 -0.10331068187952042
		endloop
	endfacet
	facet normal -1 0 0
		outer loop
			vertex 0.10000000149011612 0.13723942637443542 -0.04723922908306122
			vertex 0.10000000149011612 0.14885057508945465 -0.04723922908306122
			vertex 0.10000000149011612 0.1338038593530655 -0.058709967881441116
		endloop
	endfacet
	facet normal -1 0 0
		outer loop
			vertex 0.10000000149011612 0.16027462482452393 -0.14171770215034485
			vertex 0.10000000149011612 0.13837353885173798 -0.14171770215034485
			vertex 0.10000000149011612 0.13199035823345184 -0.1280430257320404
		endloop
	endfacet
	facet normal -1 0 0
		outer loop
			vertex 0.10000000149011612 0.16027462482452393 -0.14171770215034485
			vertex 0.10000000149011612 0.13199035823345184 -0.1280430257320404
			vertex 0.10000000149011612 0.17119653522968292 -0.1099492609500885
		endloop
	endfacet
	facet normal -1 0 0
		outer loop
			vertex 0.10000000149011612 0.14885057508945465 -0.04723922908306122
			vertex 0.10000000149011612 0.19275610148906708 -0.04723922908306122
			vertex 0.10000000149011612 0.17119653522968292 -0.1099492609500885
		endloop
	endfacet
	facet normal -1 0 0
		outer loop
			vertex 0.10000000149011612 0.14885057508945465 -0.04723922908306122
			vertex 0.10000000149011612 0.17119653522968292 -0.1099492609500885
			vertex 0.10000000149011612 0.13199035823345184 -0.1280430257320404
		endloop
	endfacet
	facet normal -1 0 0
		outer loop
			vertex 0.10000000149011612 0.14885057508945465 -0.04723922908306122
			vertex 0.10000000149011612 0.13199035823345184 -0.1280430257320404
			vertex 0.10000000149011612 0.1204456016421318 -0.10331068187952042
		endloop
	endfacet
	facet normal -1 0 0
		outer loop
			vertex 0.10000000149011612 0.14885057508945465 -0.04723922908306122
			vertex 0.10000000149011612 0.1204456016421318 -0.10331068187952042
			vertex 0.10000000149011612 0.1338038593530655 -0.058709967881441116
		endloop
	endfacet
	facet normal -1 0 0
		outer loop
			vertex 0.10000000149011612 0.19275610148906708 -0.04723922908306122
			vertex 0.10000000149011612 0.19487713277339935 -0.04723922908306122
			vertex 0.10000000149011612 0.19079777598381042 -0.052935440093278885
		endloop
	endfacet
	facet normal -1 0 0
		outer loop
			vertex 0.10000000149011612 0.16036222875118256 -0.14171770215034485
			vertex 0.10000000149011612 0.16027462482452393 -0.14171770215034485
			vertex 0.10000000149011612 0.17119653522968292 -0.1099492609500885
		endloop
	endfacet
	facet normal -1 0 0
		outer loop
			vertex 0.10000000149011612 0.16036222875118256 -0.14171770215034485
			vertex 0.10000000149011612 0.17119653522968292 -0.1099492609500885
			vertex 0.10000000149011612 0.17814646661281586 -0.10674184560775757
		endloop
	endfacet
	facet normal -1 0 0
		outer loop
			vertex 0.10000000149011612 0.19487713277339935 -0.04723922908306122
			vertex 0.10000000149011612 0.2084018886089325 -0.04723922908306122
			vertex 0.10000000149011612 0.17814646661281586 -0.10674184560775757
		endloop
	endfacet
	facet normal -1 0 0
		outer loop
			vertex 0.10000000149011612 0.19487713277339935 -0.04723922908306122
			vertex 0.10000000149011612 0.17814646661281586 -0.10674184560775757
			vertex 0.10000000149011612 0.17119653522968292 -0.1099492609500885
		endloop
	endfacet
	facet normal -1 0 0
		outer loop
			vertex 0.10000000149011612 0.19487713277339935 -0.04723922908306122
			vertex 0.10000000149011612 0.17119653522968292 -0.1099492609500885
			vertex 0.10000000149011612 0.19079777598381042 -0.052935440093278885
		endloop
	endfacet
	facet normal -1 0 0
		outer loop
			vertex 0.10000000149011612 0.20816349983215332 -0.14171770215034485
			vertex 0.10000000149011612 0.16036222875118256 -0.14171770215034485
			vertex 0.10000000149011612 0.17814646661281586 -0.10674184560775757
		endloop
	endfacet
	facet normal -1 0 0
		outer loop
			vertex 0.10000000149011612 0.20816349983215332 -0.14171770215034485
			vertex 0.10000000149011612 0.17814646661281586 -0.10674184560775757
			vertex 0.10000000149011612 0.18828700482845306 -0.10206196457147598
		endloop
	endfacet
	facet normal -1 0 0
		outer loop
			vertex 0.10000000149011612 0.18828700482845306 -0.10206196457147598
			vertex 0.10000000149011612 0.17814646661281586 -0.10674184560775757
			vertex 0.10000000149011612 0.18443438410758972 -0.09437557309865952
		endloop
	endfacet
	facet normal -1 0 0
		outer loop
			vertex 0.10000000149011612 0.18831408023834229 -0.10211598873138428
			vertex 0.10000000149011612 0.18828700482845306 -0.10206196457147598
			vertex 0.10000000149011612 0.1883321851491928 -0.10204111039638519
		endloop
	endfacet
	facet normal -1 0 0
		outer loop
			vertex 0.10000000149011612 0.1883321851491928 -0.10204111039638519
			vertex 0.10000000149011612 0.18828700482845306 -0.10206196457147598
			vertex 0.10000000149011612 0.18443438410758972 -0.09437557309865952
		endloop
	endfacet
	facet normal -1 0 0
		outer loop
			vertex 0.10000000149011612 0.1883321851491928 -0.10204111039638519
			vertex 0.10000000149011612 0.18443438410758972 -0.09437557309865952
			vertex 0.10000000149011612 0.1954076886177063 -0.0727945938706398
		endloop
	endfacet
	facet normal -1 0 0
		outer loop
			vertex 0.10000000149011612 0.2500973641872406 -0.14171770215034485
			vertex 0.10000000149011612 0.20816349983215332 -0.14171770215034485
			vertex 0.10000000149011612 0.18831408023834229 -0.10211598873138428
		endloop
	endfacet
	facet normal -1 0 0
		outer loop
			vertex 0.10000000149011612 0.2500973641872406 -0.14171770215034485
			vertex 0.10000000149011612 0.18831408023834229 -0.10211598873138428
			vertex 0.10000000149011612 0.1883321851491928 -0.10204111039638519
		endloop
	endfacet
	facet normal -1 0 0
		outer loop
			vertex 0.10000000149011612 0.2500973641872406 -0.14171770215034485
			vertex 0.10000000149011612 0.1883321851491928 -0.10204111039638519
			vertex 0.10000000149011612 0.256379634141922 -0.07063701748847961
		endloop
	endfacet
	facet normal -1 0 0
		outer loop
			vertex 0.10000000149011612 0.2500973641872406 -0.14171770215034485
			vertex 0.10000000149011612 0.256379634141922 -0.07063701748847961
			vertex 0.10000000149011612 0.25212159752845764 -0.13575288653373718
		endloop
	endfacet
	facet normal -1 0 0
		outer loop
			vertex 0.10000000149011612 0.2084018886089325 -0.04723922908306122
			vertex 0.10000000149011612 0.2579096555709839 -0.04723922908306122
			vertex 0.10000000149011612 0.256379634141922 -0.07063701748847961
		endloop
	endfacet
	facet normal -1 0 0
		outer loop
			vertex 0.10000000149011612 0.2084018886089325 -0.04723922908306122
			vertex 0.10000000149011612 0.256379634141922 -0.07063701748847961
			vertex 0.10000000149011612 0.1883321851491928 -0.10204111039638519
		endloop
	endfacet
	facet normal -1 0 0
		outer loop
			vertex 0.10000000149011612 0.2084018886089325 -0.04723922908306122
			vertex 0.10000000149011612 0.1883321851491928 -0.10204111039638519
			vertex 0.10000000149011612 0.1954076886177063 -0.0727945938706398
		endloop
	endfacet
	facet normal -1 0 0
		outer loop
			vertex 0.10000000149011612 0.2517315447330475 -0.14171770215034485
			vertex 0.10000000149011612 0.2500973641872406 -0.14171770215034485
			vertex 0.10000000149011612 0.25212159752845764 -0.13575288653373718
		endloop
	endfacet
	facet normal -1 0 0
		outer loop
			vertex 0.10000000149011612 0.25212159752845764 -0.13575288653373718
			vertex 0.10000000149011612 0.256379634141922 -0.07063701748847961
			vertex 0.10000000149011612 0.27753233909606934 -0.06087498739361763
		endloop
	endfacet
	facet normal -1 0 0
		outer loop
			vertex 0.10000000149011612 0.2579096555709839 -0.04723922908306122
			vertex 0.10000000149011612 0.28215980529785156 -0.04723922908306122
			vertex 0.10000000149011612 0.27753233909606934 -0.06087498739361763
		endloop
	endfacet
	facet normal -1 0 0
		outer loop
			vertex 0.10000000149011612 0.2579096555709839 -0.04723922908306122
			vertex 0.10000000149011612 0.27753233909606934 -0.06087498739361763
			vertex 0.10000000149011612 0.256379634141922 -0.07063701748847961
		endloop
	endfacet
	facet normal -1 0 0
		outer loop
			vertex 0.10000000149011612 0.2735777497291565 -0.14171770215034485
			vertex 0.10000000149011612 0.2517315447330475 -0.14171770215034485
			vertex 0.10000000149011612 0.25212159752845764 -0.13575288653373718
		endloop
	endfacet
	facet normal -1 0 0
		outer loop
			vertex 0.10000000149011612 0.2735777497291565 -0.14171770215034485
			vertex 0.10000000149011612 0.25212159752845764 -0.13575288653373718
			vertex 0.10000000149011612 0.27753233909606934 -0.06087498739361763
		endloop
	endfacet
	facet normal -1 0 0
		outer loop
			vertex 0.10000000149011612 0.2735777497291565 -0.14171770215034485
			vertex 0.10000000149011612 0.27753233909606934 -0.06087498739361763
			vertex 0.10000000149011612 0.29820191860198975 -0.05133591219782829
		endloop
	endfacet
	facet normal -1 0 0
		outer loop
			vertex 0.10000000149011612 0.28215980529785156 -0.04723922908306122
			vertex 0.10000000149011612 0.2993180453777313 -0.04723922908306122
			vertex 0.10000000149011612 0.29820191860198975 -0.05133591219782829
		endloop
	endfacet
	facet normal -1 0 0
		outer loop
			vertex 0.10000000149011612 0.28215980529785156 -0.04723922908306122
			vertex 0.10000000149011612 0.29820191860198975 -0.05133591219782829
			vertex 0.10000000149011612 0.27753233909606934 -0.06087498739361763
		endloop
	endfacet
	facet normal -1 0 0
		outer loop
			vertex 0.10000000149011612 0.3067464232444763 -0.14171770215034485
			vertex 0.10000000149011612 0.2735777497291565 -0.14171770215034485
			vertex 0.10000000149011612 0.29820191860198975 -0.05133591219782829
		endloop
	endfacet
	facet normal -1 0 0
		outer loop
			vertex 0.10000000149011612 0.3067464232444763 -0.14171770215034485
			vertex 0.10000000149011612 0.29820191860198975 -0.05133591219782829
			vertex 0.10000000149011612 0.3067464232444763 -0.04739261046051979
		endloop
	endfacet
	facet normal -1 0 0
		outer loop
			vertex 0.10000000149011612 0.2993180453777313 -0.04723922908306122
			vertex 0.10000000149011612 0.3067464232444763 -0.04723922908306122
			vertex 0.10000000149011612 0.3067464232444763 -0.04739261046051979
		endloop
	endfacet
	facet normal -1 0 0
		outer loop
			vertex 0.10000000149011612 0.2993180453777313 -0.04723922908306122
			vertex 0.10000000149011612 0.3067464232444763 -0.04739261046051979
			vertex 0.10000000149011612 0.29820191860198975 -0.05133591219782829
		endloop
	endfacet
	facet normal 0 -1 0
		outer loop
			vertex 0.10000000149011612 0.1023595929145813 -0.1297159194946289
			vertex 0.10000000149011612 0.1023595929145813 -0.13049058616161346
			vertex 0.10157167911529541 0.1023595929145813 -0.12909862399101257
		endloop
	endfacet
	facet normal 0 -1 0
		outer loop
			vertex 0.1332380473613739 0.1023595929145813 -0.09577234089374542
			vertex 0.13341747224330902 0.1023595929145813 -0.09498628228902817
			vertex 0.13273827731609344 0.1023595929145813 -0.09608886390924454
		endloop
	endfacet
	facet normal 0 -1 0
		outer loop
			vertex 0.10000000149011612 0.1023595929145813 -0.04723922908306122
			vertex 0.10000000149011612 0.1023595929145813 -0.1297159194946289
			vertex 0.10157167911529541 0.1023595929145813 -0.12909862399101257
		endloop
	endfacet
	facet normal 0 -1 0
		outer loop
			vertex 0.10000000149011612 0.1023595929145813 -0.04723922908306122
			vertex 0.10157167911529541 0.1023595929145813 -0.12909862399101257
			vertex 0.12540897727012634 0.1023595929145813 -0.10798708349466324
		endloop
	endfacet
	facet normal 0 -1 0
		outer loop
			vertex 0.10000000149011612 0.1023595929145813 -0.04723922908306122
			vertex 0.12540897727012634 0.1023595929145813 -0.10798708349466324
			vertex 0.13341747224330902 0.1023595929145813 -0.09498628228902817
		endloop
	endfacet
	facet normal 0 -1 0
		outer loop
			vertex 0.10000000149011612 0.1023595929145813 -0.04723922908306122
			vertex 0.13341747224330902 0.1023595929145813 -0.09498628228902817
			vertex 0.1424957811832428 0.1023595929145813 -0.05521541088819504
		endloop
	endfacet
	facet normal 0 -1 0
		outer loop
			vertex 0.10000000149011612 0.1023595929145813 -0.04723922908306122
			vertex 0.1424957811832428 0.1023595929145813 -0.05521541088819504
			vertex 0.13929472863674164 0.1023595929145813 -0.04723922908306122
		endloop
	endfacet
	facet normal 0 0 1
		outer loop
			vertex 0.10000000149011612 0.13723942637443542 -0.04723922908306122
			vertex 0.10000000149011612 0.1023595929145813 -0.04723922908306122
			vertex 0.12804538011550903 0.1310667246580124 -0.04723922908306122
		endloop
	endfacet
	facet normal 0 0 1
		outer loop
			vertex 0.10000000149011612 0.1023595929145813 -0.04723922908306122
			vertex 0.13929472863674164 0.1023595929145813 -0.04723922908306122
			vertex 0.13495871424674988 0.12954512238502502 -0.04723922908306122
		endloop
	endfacet
	facet normal 0 0 1
		outer loop
			vertex 0.10000000149011612 0.1023595929145813 -0.04723922908306122
			vertex 0.13495871424674988 0.12954512238502502 -0.04723922908306122
			vertex 0.12804538011550903 0.1310667246580124 -0.04723922908306122
		endloop
	endfacet
	facet normal 0 0 1
		outer loop
			vertex 0.20262128114700317 0.2130015343427658 -0.04723922908306122
			vertex 0.13143888115882874 0.19895847141742706 -0.04723922908306122
			vertex 0.13916881382465363 0.16833920776844025 -0.04723922908306122
		endloop
	endfacet
	facet normal 0 0 1
		outer loop
			vertex 0.20262128114700317 0.2130015343427658 -0.04723922908306122
			vertex 0.13916881382465363 0.16833920776844025 -0.04723922908306122
			vertex 0.16452442109584808 0.18095500767230988 -0.04723922908306122
		endloop
	endfacet
	facet normal 0 0 1
		outer loop
			vertex 0.10995162278413773 0.13504910469055176 -0.04723922908306122
			vertex 0.12804538011550903 0.1310667246580124 -0.04723922908306122
			vertex 0.13377980887889862 0.1369364708662033 -0.04723922908306122
		endloop
	endfacet
	facet normal 0 0 1
		outer loop
			vertex 0.10995162278413773 0.13504910469055176 -0.04723922908306122
			vertex 0.13377980887889862 0.1369364708662033 -0.04723922908306122
			vertex 0.13122645020484924 0.15294520556926727 -0.04723922908306122
		endloop
	endfacet
	facet normal 0 0 1
		outer loop
			vertex 0.13377980887889862 0.1369364708662033 -0.04723922908306122
			vertex 0.12804538011550903 0.1310667246580124 -0.04723922908306122
			vertex 0.13495871424674988 0.12954512238502502 -0.04723922908306122
		endloop
	endfacet
	facet normal 0 0 1
		outer loop
			vertex 0.10000000149011612 0.14885057508945465 -0.04723922908306122
			vertex 0.10000000149011612 0.13723942637443542 -0.04723922908306122
			vertex 0.10995162278413773 0.13504910469055176 -0.04723922908306122
		endloop
	endfacet
	facet normal 0 0 1
		outer loop
			vertex 0.10000000149011612 0.14885057508945465 -0.04723922908306122
			vertex 0.10995162278413773 0.13504910469055176 -0.04723922908306122
			vertex 0.13122645020484924 0.15294520556926727 -0.04723922908306122
		endloop
	endfacet
	facet normal 0 0 1
		outer loop
			vertex 0.10000000149011612 0.14885057508945465 -0.04723922908306122
			vertex 0.13122645020484924 0.15294520556926727 -0.04723922908306122
			vertex 0.12953563034534454 0.16354615986347198 -0.04723922908306122
		endloop
	endfacet
	facet normal 0 0 1
		outer loop
			vertex 0.10000000149011612 0.19275610148906708 -0.04723922908306122
			vertex 0.10000000149011612 0.14885057508945465 -0.04723922908306122
			vertex 0.13916881382465363 0.16833920776844025 -0.04723922908306122
		endloop
	endfacet
	facet normal 0 0 1
		outer loop
			vertex 0.10000000149011612 0.19275610148906708 -0.04723922908306122
			vertex 0.13916881382465363 0.16833920776844025 -0.04723922908306122
			vertex 0.13143888115882874 0.19895847141742706 -0.04723922908306122
		endloop
	endfacet
	facet normal 0 0 1
		outer loop
			vertex 0.13143888115882874 0.19895847141742706 -0.04723922908306122
			vertex 0.20262128114700317 0.2130015343427658 -0.04723922908306122
			vertex 0.2148893177509308 0.22332124412059784 -0.04723922908306122
		endloop
	endfacet
	facet normal 0 0 1
		outer loop
			vertex 0.13143888115882874 0.19895847141742706 -0.04723922908306122
			vertex 0.2148893177509308 0.22332124412059784 -0.04723922908306122
			vertex 0.13055922091007233 0.2024429440498352 -0.04723922908306122
		endloop
	endfacet
	facet normal 0 0 1
		outer loop
			vertex 0.29999998211860657 0.23286010324954987 -0.04723922908306122
			vertex 0.29999998211860657 0.2355555295944214 -0.04723922908306122
			vertex 0.27540746331214905 0.2383042573928833 -0.04723922908306122
		endloop
	endfacet
	facet normal 0 0 1
		outer loop
			vertex 0.29999998211860657 0.23286010324954987 -0.04723922908306122
			vertex 0.27540746331214905 0.2383042573928833 -0.04723922908306122
			vertex 0.2574155628681183 0.23384983837604523 -0.04723922908306122
		endloop
	endfacet
	facet normal 0 0 1
		outer loop
			vertex 0.29999998211860657 0.23286010324954987 -0.04723922908306122
			vertex 0.2574155628681183 0.23384983837604523 -0.04723922908306122
			vertex 0.28165194392204285 0.22999140620231628 -0.04723922908306122
		endloop
	endfacet
	facet normal 0 0 1
		outer loop
			vertex 0.1294475942850113 0.19856561720371246 -0.04723922908306122
			vertex 0.13143888115882874 0.19895847141742706 -0.04723922908306122
			vertex 0.13055922091007233 0.2024429440498352 -0.04723922908306122
		endloop
	endfacet
	facet normal 0 0 1
		outer loop
			vertex 0.1294475942850113 0.19856561720371246 -0.04723922908306122
			vertex 0.13055922091007233 0.2024429440498352 -0.04723922908306122
			vertex 0.1283344030380249 0.20189212262630463 -0.04723922908306122
		endloop
	endfacet
	facet normal 0 0 1
		outer loop
			vertex 0.10000000149011612 0.19487713277339935 -0.04723922908306122
			vertex 0.10000000149011612 0.19275610148906708 -0.04723922908306122
			vertex 0.1294475942850113 0.19856561720371246 -0.04723922908306122
		endloop
	endfacet
	facet normal 0 0 1
		outer loop
			vertex 0.10000000149011612 0.19487713277339935 -0.04723922908306122
			vertex 0.1294475942850113 0.19856561720371246 -0.04723922908306122
			vertex 0.1283344030380249 0.20189212262630463 -0.04723922908306122
		endloop
	endfacet
	facet normal 0 0 1
		outer loop
			vertex 0.10000000149011612 0.2084018886089325 -0.04723922908306122
			vertex 0.10000000149011612 0.19487713277339935 -0.04723922908306122
			vertex 0.16549628973007202 0.21109260618686676 -0.04723922908306122
		endloop
	endfacet
	facet normal 0 0 1
		outer loop
			vertex 0.15909449756145477 0.21082960069179535 -0.04723922908306122
			vertex 0.16549628973007202 0.21109260618686676 -0.04723922908306122
			vertex 0.1735849231481552 0.21309517323970795 -0.04723922908306122
		endloop
	endfacet
	facet normal 0 0 1
		outer loop
			vertex 0.11940426379442215 0.20919904112815857 -0.04723922908306122
			vertex 0.15909449756145477 0.21082960069179535 -0.04723922908306122
			vertex 0.1735849231481552 0.21309517323970795 -0.04723922908306122
		endloop
	endfacet
	facet normal 0 0 1
		outer loop
			vertex 0.11940426379442215 0.20919904112815857 -0.04723922908306122
			vertex 0.1735849231481552 0.21309517323970795 -0.04723922908306122
			vertex 0.2148893177509308 0.22332124412059784 -0.04723922908306122
		endloop
	endfacet
	facet normal 0 0 1
		outer loop
			vertex 0.11940426379442215 0.20919904112815857 -0.04723922908306122
			vertex 0.2148893177509308 0.22332124412059784 -0.04723922908306122
			vertex 0.22493045032024384 0.23176772892475128 -0.04723922908306122
		endloop
	endfacet
	facet normal 0 0 1
		outer loop
			vertex 0.10000000149011612 0.2579096555709839 -0.04723922908306122
			vertex 0.10000000149011612 0.2084018886089325 -0.04723922908306122
			vertex 0.11940426379442215 0.20919904112815857 -0.04723922908306122
		endloop
	endfacet
	facet normal 0 0 1
		outer loop
			vertex 0.10000000149011612 0.2579096555709839 -0.04723922908306122
			vertex 0.11940426379442215 0.20919904112815857 -0.04723922908306122
			vertex 0.22681976854801178 0.23217178881168365 -0.04723922908306122
		endloop
	endfacet
	facet normal 0 0 1
		outer loop
			vertex 0.10000000149011612 0.2579096555709839 -0.04723922908306122
			vertex 0.22681976854801178 0.23217178881168365 -0.04723922908306122
			vertex 0.23235656321048737 0.2378392517566681 -0.04723922908306122
		endloop
	endfacet
	facet normal 0 0 1
		outer loop
			vertex 0.10000000149011612 0.2579096555709839 -0.04723922908306122
			vertex 0.23235656321048737 0.2378392517566681 -0.04723922908306122
			vertex 0.12110070884227753 0.2555512487888336 -0.04723922908306122
		endloop
	endfacet
	facet normal 0 0 1
		outer loop
			vertex 0.23235656321048737 0.2378392517566681 -0.04723922908306122
			vertex 0.22681976854801178 0.23217178881168365 -0.04723922908306122
			vertex 0.24437394738197327 0.2359260767698288 -0.04723922908306122
		endloop
	endfacet
	facet normal 0 0 1
		outer loop
			vertex 0.23235656321048737 0.2378392517566681 -0.04723922908306122
			vertex 0.23700426518917084 0.2425966113805771 -0.04723922908306122
			vertex 0.12110070884227753 0.2555512487888336 -0.04723922908306122
		endloop
	endfacet
	facet normal 0 0 1
		outer loop
			vertex 0.27540746331214905 0.2383042573928833 -0.04723922908306122
			vertex 0.23700426518917084 0.2425966113805771 -0.04723922908306122
			vertex 0.23235656321048737 0.2378392517566681 -0.04723922908306122
		endloop
	endfacet
	facet normal 0 0 1
		outer loop
			vertex 0.27540746331214905 0.2383042573928833 -0.04723922908306122
			vertex 0.23235656321048737 0.2378392517566681 -0.04723922908306122
			vertex 0.2574155628681183 0.23384983837604523 -0.04723922908306122
		endloop
	endfacet
	facet normal 0 0 1
		outer loop
			vertex 0.29999998211860657 0.2355555295944214 -0.04723922908306122
			vertex 0.29999998211860657 0.23744390904903412 -0.04723922908306122
			vertex 0.279699444770813 0.23936685919761658 -0.04723922908306122
		endloop
	endfacet
	facet normal 0 0 1
		outer loop
			vertex 0.29999998211860657 0.2355555295944214 -0.04723922908306122
			vertex 0.279699444770813 0.23936685919761658 -0.04723922908306122
			vertex 0.27540746331214905 0.2383042573928833 -0.04723922908306122
		endloop
	endfacet
	facet normal 0 0 1
		outer loop
			vertex 0.18922188878059387 0.24793727695941925 -0.04723922908306122
			vertex 0.23700426518917084 0.2425966113805771 -0.04723922908306122
			vertex 0.23773261904716492 0.24334213137626648 -0.04723922908306122
		endloop
	endfacet
	facet normal 0 0 1
		outer loop
			vertex 0.279699444770813 0.23936685919761658 -0.04723922908306122
			vertex 0.23773261904716492 0.24334213137626648 -0.04723922908306122
			vertex 0.23700426518917084 0.2425966113805771 -0.04723922908306122
		endloop
	endfacet
	facet normal 0 0 1
		outer loop
			vertex 0.279699444770813 0.23936685919761658 -0.04723922908306122
			vertex 0.23700426518917084 0.2425966113805771 -0.04723922908306122
			vertex 0.27540746331214905 0.2383042573928833 -0.04723922908306122
		endloop
	endfacet
	facet normal 0 0 1
		outer loop
			vertex 0.17601172626018524 0.24941377341747284 -0.04723922908306122
			vertex 0.18922188878059387 0.24793727695941925 -0.04723922908306122
			vertex 0.23773261904716492 0.24334213137626648 -0.04723922908306122
		endloop
	endfacet
	facet normal 0 0 1
		outer loop
			vertex 0.17601172626018524 0.24941377341747284 -0.04723922908306122
			vertex 0.23773261904716492 0.24334213137626648 -0.04723922908306122
			vertex 0.25604546070098877 0.2620870769023895 -0.04723922908306122
		endloop
	endfacet
	facet normal 0 0 1
		outer loop
			vertex 0.29999998211860657 0.23744390904903412 -0.04723922908306122
			vertex 0.29999998211860657 0.2574961483478546 -0.04723922908306122
			vertex 0.268564909696579 0.264069527387619 -0.04723922908306122
		endloop
	endfacet
	facet normal 0 0 1
		outer loop
			vertex 0.29999998211860657 0.23744390904903412 -0.04723922908306122
			vertex 0.268564909696579 0.264069527387619 -0.04723922908306122
			vertex 0.25604546070098877 0.2620870769023895 -0.04723922908306122
		endloop
	endfacet
	facet normal 0 0 1
		outer loop
			vertex 0.29999998211860657 0.23744390904903412 -0.04723922908306122
			vertex 0.25604546070098877 0.2620870769023895 -0.04723922908306122
			vertex 0.23773261904716492 0.24334213137626648 -0.04723922908306122
		endloop
	endfacet
	facet normal 0 0 1
		outer loop
			vertex 0.10000000149011612 0.28215980529785156 -0.04723922908306122
			vertex 0.10000000149011612 0.2579096555709839 -0.04723922908306122
			vertex 0.17601172626018524 0.24941377341747284 -0.04723922908306122
		endloop
	endfacet
	facet normal 0 0 1
		outer loop
			vertex 0.10000000149011612 0.28215980529785156 -0.04723922908306122
			vertex 0.17601172626018524 0.24941377341747284 -0.04723922908306122
			vertex 0.25604546070098877 0.2620870769023895 -0.04723922908306122
		endloop
	endfacet
	facet normal 0 0 1
		outer loop
			vertex 0.10000000149011612 0.28215980529785156 -0.04723922908306122
			vertex 0.25604546070098877 0.2620870769023895 -0.04723922908306122
			vertex 0.25977739691734314 0.26590707898139954 -0.04723922908306122
		endloop
	endfacet
	facet normal 0 0 1
		outer loop
			vertex 0.10000000149011612 0.28215980529785156 -0.04723922908306122
			vertex 0.25977739691734314 0.26590707898139954 -0.04723922908306122
			vertex 0.12689125537872314 0.2936948537826538 -0.04723922908306122
		endloop
	endfacet
	facet normal 0 0 1
		outer loop
			vertex 0.268564909696579 0.264069527387619 -0.04723922908306122
			vertex 0.25977739691734314 0.26590707898139954 -0.04723922908306122
			vertex 0.25604546070098877 0.2620870769023895 -0.04723922908306122
		endloop
	endfacet
	facet normal 0 0 1
		outer loop
			vertex 0.10000000149011612 0.2993180453777313 -0.04723922908306122
			vertex 0.10000000149011612 0.28215980529785156 -0.04723922908306122
			vertex 0.12689125537872314 0.2936948537826538 -0.04723922908306122
		endloop
	endfacet
	facet normal 0 0 1
		outer loop
			vertex 0.29999998211860657 0.2574961483478546 -0.04723922908306122
			vertex 0.29999998211860657 0.2740612328052521 -0.04723922908306122
			vertex 0.2611837089061737 0.26561301946640015 -0.04723922908306122
		endloop
	endfacet
	facet normal 0 0 1
		outer loop
			vertex 0.10000000149011612 0.3067464232444763 -0.04723922908306122
			vertex 0.10000000149011612 0.2993180453777313 -0.04723922908306122
			vertex 0.25977739691734314 0.26590707898139954 -0.04723922908306122
		endloop
	endfacet
	facet normal 0 0 1
		outer loop
			vertex 0.10000000149011612 0.3067464232444763 -0.04723922908306122
			vertex 0.25977739691734314 0.26590707898139954 -0.04723922908306122
			vertex 0.299675315618515 0.3067464232444763 -0.04723922908306122
		endloop
	endfacet
	facet normal 0 0 1
		outer loop
			vertex 0.29999998211860657 0.2740612328052521 -0.04723922908306122
			vertex 0.29999998211860657 0.3067464232444763 -0.04723922908306122
			vertex 0.299675315618515 0.3067464232444763 -0.04723922908306122
		endloop
	endfacet
	facet normal 0 0 1
		outer loop
			vertex 0.29999998211860657 0.2740612328052521 -0.04723922908306122
			vertex 0.299675315618515 0.3067464232444763 -0.04723922908306122
			vertex 0.25977739691734314 0.26590707898139954 -0.04723922908306122
		endloop
	endfacet
	facet normal 0 0 1
		outer loop
			vertex 0.29999998211860657 0.2740612328052521 -0.04723922908306122
			vertex 0.25977739691734314 0.26590707898139954 -0.04723922908306122
			vertex 0.2611837089061737 0.26561301946640015 -0.04723922908306122
		endloop
	endfacet
	facet normal 0 0 -1
		outer loop
			vertex 0.10000000149011612 0.1165616363286972 -0.14171770215034485
			vertex 0.10000000149011612 0.13837353885173798 -0.14171770215034485
			vertex 0.1303986757993698 0.13038085401058197 -0.14171770215034485
		endloop
	endfacet
	facet normal 0 0 -1
		outer loop
			vertex 0.27991095185279846 0.1947973519563675 -0.14171770215034485
			vertex 0.28141844272613525 0.19606541097164154 -0.14171770215034485
			vertex 0.28328895568847656 0.19643443822860718 -0.14171770215034485
		endloop
	endfacet
	facet normal 0 0 -1
		outer loop
			vertex 0.274273157119751 0.19381338357925415 -0.14171770215034485
			vertex 0.27697569131851196 0.19518892467021942 -0.14171770215034485
			vertex 0.28141844272613525 0.19606541097164154 -0.14171770215034485
		endloop
	endfacet
	facet normal 0 0 -1
		outer loop
			vertex 0.274273157119751 0.19381338357925415 -0.14171770215034485
			vertex 0.28141844272613525 0.19606541097164154 -0.14171770215034485
			vertex 0.27991095185279846 0.1947973519563675 -0.14171770215034485
		endloop
	endfacet
	facet normal 0 0 -1
		outer loop
			vertex 0.274273157119751 0.19381338357925415 -0.14171770215034485
			vertex 0.27991095185279846 0.1947973519563675 -0.14171770215034485
			vertex 0.2597118616104126 0.1850081980228424 -0.14171770215034485
		endloop
	endfacet
	facet normal 0 0 -1
		outer loop
			vertex 0.19456607103347778 0.15038292109966278 -0.14171770215034485
			vertex 0.19392609596252441 0.15291790664196014 -0.14171770215034485
			vertex 0.20807091891765594 0.16011740267276764 -0.14171770215034485
		endloop
	endfacet
	facet normal 0 0 -1
		outer loop
			vertex 0.23178280889987946 0.17218641936779022 -0.14171770215034485
			vertex 0.2202446311712265 0.18399685621261597 -0.14171770215034485
			vertex 0.27697569131851196 0.19518892467021942 -0.14171770215034485
		endloop
	endfacet
	facet normal 0 0 -1
		outer loop
			vertex 0.19392609596252441 0.15291790664196014 -0.14171770215034485
			vertex 0.18770097196102142 0.17757654190063477 -0.14171770215034485
			vertex 0.2202446311712265 0.18399685621261597 -0.14171770215034485
		endloop
	endfacet
	facet normal 0 0 -1
		outer loop
			vertex 0.19392609596252441 0.15291790664196014 -0.14171770215034485
			vertex 0.2202446311712265 0.18399685621261597 -0.14171770215034485
			vertex 0.23178280889987946 0.17218641936779022 -0.14171770215034485
		endloop
	endfacet
	facet normal 0 0 -1
		outer loop
			vertex 0.16415773332118988 0.1457277238368988 -0.14171770215034485
			vertex 0.19248975813388824 0.15860746800899506 -0.14171770215034485
			vertex 0.19456607103347778 0.15038292109966278 -0.14171770215034485
		endloop
	endfacet
	facet normal 0 0 -1
		outer loop
			vertex 0.16415773332118988 0.1457277238368988 -0.14171770215034485
			vertex 0.19456607103347778 0.15038292109966278 -0.14171770215034485
			vertex 0.19068218767642975 0.14758336544036865 -0.14171770215034485
		endloop
	endfacet
	facet normal 0 0 -1
		outer loop
			vertex 0.1303986757993698 0.13038085401058197 -0.14171770215034485
			vertex 0.12310107797384262 0.13229960203170776 -0.14171770215034485
			vertex 0.1234830915927887 0.16490745544433594 -0.14171770215034485
		endloop
	endfacet
	facet normal 0 0 -1
		outer loop
			vertex 0.1303986757993698 0.13038085401058197 -0.14171770215034485
			vertex 0.1234830915927887 0.16490745544433594 -0.14171770215034485
			vertex 0.18770097196102142 0.17757654190063477 -0.14171770215034485
		endloop
	endfacet
	facet normal 0 0 -1
		outer loop
			vertex 0.1303986757993698 0.13038085401058197 -0.14171770215034485
			vertex 0.18770097196102142 0.17757654190063477 -0.14171770215034485
			vertex 0.19248975813388824 0.15860746800899506 -0.14171770215034485
		endloop
	endfacet
	facet normal 0 0 -1
		outer loop
			vertex 0.12310107797384262 0.13229960203170776 -0.14171770215034485
			vertex 0.10000000149011612 0.13837353885173798 -0.14171770215034485
			vertex 0.10000000149011612 0.16027462482452393 -0.14171770215034485
		endloop
	endfacet
	facet normal 0 0 -1
		outer loop
			vertex 0.12310107797384262 0.13229960203170776 -0.14171770215034485
			vertex 0.10000000149011612 0.16027462482452393 -0.14171770215034485
			vertex 0.1234830915927887 0.16490745544433594 -0.14171770215034485
		endloop
	endfacet
	facet normal 0 0 -1
		outer loop
			vertex 0.10000000149011612 0.16027462482452393 -0.14171770215034485
			vertex 0.10000000149011612 0.16036222875118256 -0.14171770215034485
			vertex 0.10056086629629135 0.16038528084754944 -0.14171770215034485
		endloop
	endfacet
	facet normal 0 0 -1
		outer loop
			vertex 0.28328895568847656 0.19643443822860718 -0.14171770215034485
			vertex 0.28141844272613525 0.19606541097164154 -0.14171770215034485
			vertex 0.2823239266872406 0.19682709872722626 -0.14171770215034485
		endloop
	endfacet
	facet normal 0 0 -1
		outer loop
			vertex 0.28328895568847656 0.19643443822860718 -0.14171770215034485
			vertex 0.2823239266872406 0.19682709872722626 -0.14171770215034485
			vertex 0.2855014204978943 0.19750665128231049 -0.14171770215034485
		endloop
	endfacet
	facet normal 0 0 -1
		outer loop
			vertex 0.28141844272613525 0.19606541097164154 -0.14171770215034485
			vertex 0.27697569131851196 0.19518892467021942 -0.14171770215034485
			vertex 0.27865079045295715 0.196041539311409 -0.14171770215034485
		endloop
	endfacet
	facet normal 0 0 -1
		outer loop
			vertex 0.28141844272613525 0.19606541097164154 -0.14171770215034485
			vertex 0.27865079045295715 0.196041539311409 -0.14171770215034485
			vertex 0.2823239266872406 0.19682709872722626 -0.14171770215034485
		endloop
	endfacet
	facet normal 0 0 -1
		outer loop
			vertex 0.27697569131851196 0.19518892467021942 -0.14171770215034485
			vertex 0.24716882407665253 0.1893085539340973 -0.14171770215034485
			vertex 0.27865079045295715 0.196041539311409 -0.14171770215034485
		endloop
	endfacet
	facet normal 0 0 -1
		outer loop
			vertex 0.29999998211860657 0.20748157799243927 -0.14171770215034485
			vertex 0.29999998211860657 0.2045331448316574 -0.14171770215034485
			vertex 0.2855014204978943 0.19750665128231049 -0.14171770215034485
		endloop
	endfacet
	facet normal 0 0 -1
		outer loop
			vertex 0.29999998211860657 0.20748157799243927 -0.14171770215034485
			vertex 0.2855014204978943 0.19750665128231049 -0.14171770215034485
			vertex 0.27144476771354675 0.1945003867149353 -0.14171770215034485
		endloop
	endfacet
	facet normal 0 0 -1
		outer loop
			vertex 0.29999998211860657 0.2293774038553238 -0.14171770215034485
			vertex 0.29999998211860657 0.20748157799243927 -0.14171770215034485
			vertex 0.27144476771354675 0.1945003867149353 -0.14171770215034485
		endloop
	endfacet
	facet normal 0 0 -1
		outer loop
			vertex 0.29999998211860657 0.2293774038553238 -0.14171770215034485
			vertex 0.27144476771354675 0.1945003867149353 -0.14171770215034485
			vertex 0.24716882407665253 0.1893085539340973 -0.14171770215034485
		endloop
	endfacet
	facet normal 0 0 -1
		outer loop
			vertex 0.29999998211860657 0.2293774038553238 -0.14171770215034485
			vertex 0.24716882407665253 0.1893085539340973 -0.14171770215034485
			vertex 0.2202446311712265 0.18399685621261597 -0.14171770215034485
		endloop
	endfacet
	facet normal 0 0 -1
		outer loop
			vertex 0.29999998211860657 0.2293774038553238 -0.14171770215034485
			vertex 0.2202446311712265 0.18399685621261597 -0.14171770215034485
			vertex 0.1856861114501953 0.21937082707881927 -0.14171770215034485
		endloop
	endfacet
	facet normal 0 0 -1
		outer loop
			vertex 0.29999998211860657 0.2293774038553238 -0.14171770215034485
			vertex 0.1856861114501953 0.21937082707881927 -0.14171770215034485
			vertex 0.2796133756637573 0.2316560298204422 -0.14171770215034485
		endloop
	endfacet
	facet normal 0 0 -1
		outer loop
			vertex 0.10000000149011612 0.16036222875118256 -0.14171770215034485
			vertex 0.10000000149011612 0.20816349983215332 -0.14171770215034485
			vertex 0.1856861114501953 0.21937082707881927 -0.14171770215034485
		endloop
	endfacet
	facet normal 0 0 -1
		outer loop
			vertex 0.10000000149011612 0.16036222875118256 -0.14171770215034485
			vertex 0.1856861114501953 0.21937082707881927 -0.14171770215034485
			vertex 0.2202446311712265 0.18399685621261597 -0.14171770215034485
		endloop
	endfacet
	facet normal 0 0 -1
		outer loop
			vertex 0.10000000149011612 0.16036222875118256 -0.14171770215034485
			vertex 0.2202446311712265 0.18399685621261597 -0.14171770215034485
			vertex 0.10056086629629135 0.16038528084754944 -0.14171770215034485
		endloop
	endfacet
	facet normal 0 0 -1
		outer loop
			vertex 0.1856861114501953 0.21937082707881927 -0.14171770215034485
			vertex 0.17469845712184906 0.2306177318096161 -0.14171770215034485
			vertex 0.19090931117534637 0.23975330591201782 -0.14171770215034485
		endloop
	endfacet
	facet normal 0 0 -1
		outer loop
			vertex 0.1856861114501953 0.21937082707881927 -0.14171770215034485
			vertex 0.19090931117534637 0.23975330591201782 -0.14171770215034485
			vertex 0.25883907079696655 0.22893886268138885 -0.14171770215034485
		endloop
	endfacet
	facet normal 0 0 -1
		outer loop
			vertex 0.17469845712184906 0.2306177318096161 -0.14171770215034485
			vertex 0.1856861114501953 0.21937082707881927 -0.14171770215034485
			vertex 0.1453881412744522 0.21410006284713745 -0.14171770215034485
		endloop
	endfacet
	facet normal 0 0 -1
		outer loop
			vertex 0.17469845712184906 0.2306177318096161 -0.14171770215034485
			vertex 0.16114407777786255 0.24449194967746735 -0.14171770215034485
			vertex 0.19090931117534637 0.23975330591201782 -0.14171770215034485
		endloop
	endfacet
	facet normal 0 0 -1
		outer loop
			vertex 0.10000000149011612 0.20816349983215332 -0.14171770215034485
			vertex 0.10000000149011612 0.2500973641872406 -0.14171770215034485
			vertex 0.10302224010229111 0.25139373540878296 -0.14171770215034485
		endloop
	endfacet
	facet normal 0 0 -1
		outer loop
			vertex 0.10000000149011612 0.20816349983215332 -0.14171770215034485
			vertex 0.10302224010229111 0.25139373540878296 -0.14171770215034485
			vertex 0.15259476006031036 0.245852991938591 -0.14171770215034485
		endloop
	endfacet
	facet normal 0 0 -1
		outer loop
			vertex 0.10000000149011612 0.20816349983215332 -0.14171770215034485
			vertex 0.15259476006031036 0.245852991938591 -0.14171770215034485
			vertex 0.16114407777786255 0.24449194967746735 -0.14171770215034485
		endloop
	endfacet
	facet normal 0 0 -1
		outer loop
			vertex 0.10000000149011612 0.20816349983215332 -0.14171770215034485
			vertex 0.16114407777786255 0.24449194967746735 -0.14171770215034485
			vertex 0.17469845712184906 0.2306177318096161 -0.14171770215034485
		endloop
	endfacet
	facet normal 0 0 -1
		outer loop
			vertex 0.10000000149011612 0.20816349983215332 -0.14171770215034485
			vertex 0.17469845712184906 0.2306177318096161 -0.14171770215034485
			vertex 0.1453881412744522 0.21410006284713745 -0.14171770215034485
		endloop
	endfacet
	facet normal 0 0 -1
		outer loop
			vertex 0.10000000149011612 0.2500973641872406 -0.14171770215034485
			vertex 0.10000000149011612 0.2517315447330475 -0.14171770215034485
			vertex 0.10302224010229111 0.25139373540878296 -0.14171770215034485
		endloop
	endfacet
	facet normal 0 0 -1
		outer loop
			vertex 0.16114407777786255 0.24449194967746735 -0.14171770215034485
			vertex 0.16069936752319336 0.2449471354484558 -0.14171770215034485
			vertex 0.2796133756637573 0.2316560298204422 -0.14171770215034485
		endloop
	endfacet
	facet normal 0 0 -1
		outer loop
			vertex 0.16114407777786255 0.24449194967746735 -0.14171770215034485
			vertex 0.2796133756637573 0.2316560298204422 -0.14171770215034485
			vertex 0.25883907079696655 0.22893886268138885 -0.14171770215034485
		endloop
	endfacet
	facet normal 0 0 -1
		outer loop
			vertex 0.15259476006031036 0.245852991938591 -0.14171770215034485
			vertex 0.16069936752319336 0.2449471354484558 -0.14171770215034485
			vertex 0.16114407777786255 0.24449194967746735 -0.14171770215034485
		endloop
	endfacet
	facet normal 0 0 -1
		outer loop
			vertex 0.29999998211860657 0.22963279485702515 -0.14171770215034485
			vertex 0.29999998211860657 0.2293774038553238 -0.14171770215034485
			vertex 0.2850182056427002 0.23105192184448242 -0.14171770215034485
		endloop
	endfacet
	facet normal 0 0 -1
		outer loop
			vertex 0.29999998211860657 0.23175585269927979 -0.14171770215034485
			vertex 0.29999998211860657 0.22963279485702515 -0.14171770215034485
			vertex 0.2850182056427002 0.23105192184448242 -0.14171770215034485
		endloop
	endfacet
	facet normal 0 0 -1
		outer loop
			vertex 0.29999998211860657 0.23175585269927979 -0.14171770215034485
			vertex 0.2850182056427002 0.23105192184448242 -0.14171770215034485
			vertex 0.2796133756637573 0.2316560298204422 -0.14171770215034485
		endloop
	endfacet
	facet normal 0 0 -1
		outer loop
			vertex 0.29999998211860657 0.23175585269927979 -0.14171770215034485
			vertex 0.2796133756637573 0.2316560298204422 -0.14171770215034485
			vertex 0.29244887828826904 0.23333483934402466 -0.14171770215034485
		endloop
	endfacet
	facet normal 0 0 -1
		outer loop
			vertex 0.2796133756637573 0.2316560298204422 -0.14171770215034485
			vertex 0.18546819686889648 0.24217872321605682 -0.14171770215034485
			vertex 0.22227999567985535 0.24800783395767212 -0.14171770215034485
		endloop
	endfacet
	facet normal 0 0 -1
		outer loop
			vertex 0.2796133756637573 0.2316560298204422 -0.14171770215034485
			vertex 0.22227999567985535 0.24800783395767212 -0.14171770215034485
			vertex 0.29244887828826904 0.23333483934402466 -0.14171770215034485
		endloop
	endfacet
	facet normal 0 0 -1
		outer loop
			vertex 0.2100827395915985 0.25055840611457825 -0.14171770215034485
			vertex 0.22227999567985535 0.24800783395767212 -0.14171770215034485
			vertex 0.19902144372463226 0.24432486295700073 -0.14171770215034485
		endloop
	endfacet
	facet normal 0 0 -1
		outer loop
			vertex 0.18546819686889648 0.24217872321605682 -0.14171770215034485
			vertex 0.16069936752319336 0.2449471354484558 -0.14171770215034485
			vertex 0.1411314606666565 0.26497676968574524 -0.14171770215034485
		endloop
	endfacet
	facet normal 0 0 -1
		outer loop
			vertex 0.18546819686889648 0.24217872321605682 -0.14171770215034485
			vertex 0.1411314606666565 0.26497676968574524 -0.14171770215034485
			vertex 0.2100827395915985 0.25055840611457825 -0.14171770215034485
		endloop
	endfacet
	facet normal 0 0 -1
		outer loop
			vertex 0.18546819686889648 0.24217872321605682 -0.14171770215034485
			vertex 0.2100827395915985 0.25055840611457825 -0.14171770215034485
			vertex 0.19902144372463226 0.24432486295700073 -0.14171770215034485
		endloop
	endfacet
	facet normal 0 0 -1
		outer loop
			vertex 0.13679960370063782 0.26588261127471924 -0.14171770215034485
			vertex 0.1411314606666565 0.26497676968574524 -0.14171770215034485
			vertex 0.16069936752319336 0.2449471354484558 -0.14171770215034485
		endloop
	endfacet
	facet normal 0 0 -1
		outer loop
			vertex 0.13679960370063782 0.26588261127471924 -0.14171770215034485
			vertex 0.16069936752319336 0.2449471354484558 -0.14171770215034485
			vertex 0.10302224010229111 0.25139373540878296 -0.14171770215034485
		endloop
	endfacet
	facet normal 0 0 -1
		outer loop
			vertex 0.10000000149011612 0.2517315447330475 -0.14171770215034485
			vertex 0.10000000149011612 0.2735777497291565 -0.14171770215034485
			vertex 0.13679960370063782 0.26588261127471924 -0.14171770215034485
		endloop
	endfacet
	facet normal 0 0 -1
		outer loop
			vertex 0.10000000149011612 0.2517315447330475 -0.14171770215034485
			vertex 0.13679960370063782 0.26588261127471924 -0.14171770215034485
			vertex 0.10302224010229111 0.25139373540878296 -0.14171770215034485
		endloop
	endfacet
	facet normal 0 0 -1
		outer loop
			vertex 0.29999998211860657 0.23432248830795288 -0.14171770215034485
			vertex 0.29999998211860657 0.23175585269927979 -0.14171770215034485
			vertex 0.29244887828826904 0.23333483934402466 -0.14171770215034485
		endloop
	endfacet
	facet normal 0 0 -1
		outer loop
			vertex 0.29999998211860657 0.24348756670951843 -0.14171770215034485
			vertex 0.29999998211860657 0.23432248830795288 -0.14171770215034485
			vertex 0.29244887828826904 0.23333483934402466 -0.14171770215034485
		endloop
	endfacet
	facet normal 0 0 -1
		outer loop
			vertex 0.29999998211860657 0.24348756670951843 -0.14171770215034485
			vertex 0.29244887828826904 0.23333483934402466 -0.14171770215034485
			vertex 0.25767412781715393 0.24060659110546112 -0.14171770215034485
		endloop
	endfacet
	facet normal 0 0 -1
		outer loop
			vertex 0.29999998211860657 0.27571767568588257 -0.14171770215034485
			vertex 0.29999998211860657 0.24348756670951843 -0.14171770215034485
			vertex 0.25767412781715393 0.24060659110546112 -0.14171770215034485
		endloop
	endfacet
	facet normal 0 0 -1
		outer loop
			vertex 0.29999998211860657 0.27571767568588257 -0.14171770215034485
			vertex 0.25767412781715393 0.24060659110546112 -0.14171770215034485
			vertex 0.1969859004020691 0.2532970607280731 -0.14171770215034485
		endloop
	endfacet
	facet normal 0 0 -1
		outer loop
			vertex 0.29999998211860657 0.3067464232444763 -0.14171770215034485
			vertex 0.29999998211860657 0.27571767568588257 -0.14171770215034485
			vertex 0.1969859004020691 0.2532970607280731 -0.14171770215034485
		endloop
	endfacet
	facet normal 0 0 -1
		outer loop
			vertex 0.29999998211860657 0.3067464232444763 -0.14171770215034485
			vertex 0.1969859004020691 0.2532970607280731 -0.14171770215034485
			vertex 0.1411314606666565 0.26497676968574524 -0.14171770215034485
		endloop
	endfacet
	facet normal 0 0 -1
		outer loop
			vertex 0.29999998211860657 0.3067464232444763 -0.14171770215034485
			vertex 0.1411314606666565 0.26497676968574524 -0.14171770215034485
			vertex 0.10032469034194946 0.3067464232444763 -0.14171770215034485
		endloop
	endfacet
	facet normal 0 0 -1
		outer loop
			vertex 0.10000000149011612 0.2735777497291565 -0.14171770215034485
			vertex 0.10000000149011612 0.3067464232444763 -0.14171770215034485
			vertex 0.10032469034194946 0.3067464232444763 -0.14171770215034485
		endloop
	endfacet
	facet normal 0 0 -1
		outer loop
			vertex 0.10000000149011612 0.2735777497291565 -0.14171770215034485
			vertex 0.10032469034194946 0.3067464232444763 -0.14171770215034485
			vertex 0.1411314606666565 0.26497676968574524 -0.14171770215034485
		endloop
	endfacet
endsolid exported
