solid exported
	facet normal 1 0 0
		outer loop
			vertex 0.06597268581390381 -0.04412121698260307 0.071428582072258
			vertex 0.06597268581390381 -0.06993483006954193 0.071428582072258
			vertex 0.06597268581390381 -0.04412121698260307 0.04506359621882439
		endloop
	endfacet
	facet normal 1 0 0
		outer loop
			vertex 0.06597268581390381 -0.06993483006954193 0.071428582072258
			vertex 0.06597268581390381 -0.06993483006954193 -0.0714285671710968
			vertex 0.06597268581390381 -0.04412121698260307 -0.0714285671710968
		endloop
	endfacet
	facet normal 1 0 0
		outer loop
			vertex 0.06597268581390381 -0.06993483006954193 0.071428582072258
			vertex 0.06597268581390381 -0.04412121698260307 -0.0714285671710968
			vertex 0.06597268581390381 -0.04412121698260307 0.04506359621882439
		endloop
	endfacet
	facet normal 1 0 0
		outer loop
			vertex 0.06597268581390381 -0.043304067105054855 0.071428582072258
			vertex 0.06597268581390381 -0.04412121698260307 0.071428582072258
			vertex 0.06597268581390381 -0.04412121698260307 0.04506359621882439
		endloop
	endfacet
	facet normal 1 0 0
		outer loop
			vertex 0.06597268581390381 -0.043304067105054855 0.071428582072258
			vertex 0.06597268581390381 -0.04412121698260307 0.04506359621882439
			vertex 0.06597268581390381 -0.043304067105054855 0.04422898218035698
		endloop
	endfacet
	facet normal 1 0 0
		outer loop
			vertex 0.06597268581390381 -0.04412121698260307 -0.0714285671710968
			vertex 0.06597268581390381 -0.043304067105054855 -0.0714285671710968
			vertex 0.06597268581390381 -0.043304067105054855 0.04422898218035698
		endloop
	endfacet
	facet normal 1 0 0
		outer loop
			vertex 0.06597268581390381 -0.04412121698260307 -0.0714285671710968
			vertex 0.06597268581390381 -0.043304067105054855 0.04422898218035698
			vertex 0.06597268581390381 -0.04412121698260307 0.04506359621882439
		endloop
	endfacet
	facet normal 1 0 0
		outer loop
			vertex 0.06597268581390381 -0.03552441671490669 0.071428582072258
			vertex 0.06597268581390381 -0.043304067105054855 0.071428582072258
			vertex 0.06597268581390381 -0.043304067105054855 0.04422898218035698
		endloop
	endfacet
	facet normal 1 0 0
		outer loop
			vertex 0.06597268581390381 -0.03552441671490669 0.071428582072258
			vertex 0.06597268581390381 -0.043304067105054855 0.04422898218035698
			vertex 0.06597268581390381 -0.03552441671490669 0.036283206194639206
		endloop
	endfacet
	facet normal 1 0 0
		outer loop
			vertex 0.06597268581390381 -0.043304067105054855 -0.0714285671710968
			vertex 0.06597268581390381 -0.03552441671490669 -0.0714285671710968
			vertex 0.06597268581390381 -0.03552441671490669 0.036283206194639206
		endloop
	endfacet
	facet normal 1 0 0
		outer loop
			vertex 0.06597268581390381 -0.043304067105054855 -0.0714285671710968
			vertex 0.06597268581390381 -0.03552441671490669 0.036283206194639206
			vertex 0.06597268581390381 -0.043304067105054855 0.04422898218035698
		endloop
	endfacet
	facet normal 0.6519367478659994 -0.7582733522826082 0
		outer loop
			vertex -0.013754027895629406 -0.06993483006954193 0.071428582072258
			vertex -0.013754027895629406 -0.06993483006954193 -0.0714285671710968
			vertex -0.002091931877657771 -0.059908170253038406 -0.0714285671710968
		endloop
	endfacet
	facet normal 0.6519367478659994 -0.7582733522826082 0
		outer loop
			vertex -0.013754027895629406 -0.06993483006954193 0.071428582072258
			vertex -0.002091931877657771 -0.059908170253038406 -0.0714285671710968
			vertex -0.002091931877657771 -0.059908170253038406 0.071428582072258
		endloop
	endfacet
	facet normal 0.6260284859258136 -0.7798001890288028 2.777492199423926e-7
		outer loop
			vertex 0.0024226580280810595 -0.05628388002514839 -0.0714285671710968
			vertex 0.0001653406652621925 -0.0580960176885128 0.071428582072258
			vertex -0.002091931877657771 -0.059908170253038406 0.071428582072258
		endloop
	endfacet
	facet normal 0.6260231414295754 -0.7798044795938568 0
		outer loop
			vertex 0.0024226580280810595 -0.05628388002514839 -0.0714285671710968
			vertex -0.002091931877657771 -0.059908170253038406 0.071428582072258
			vertex -0.002091931877657771 -0.059908170253038406 -0.0714285671710968
		endloop
	endfacet
	facet normal 0.6260249083907589 -0.77980306108293 1.8478789794600168e-7
		outer loop
			vertex 0.0001653406652621925 -0.0580960176885128 0.071428582072258
			vertex 0.0024226580280810595 -0.05628388002514839 -0.0714285671710968
			vertex 0.013709080405533314 -0.047223154455423355 -0.0714285671710968
		endloop
	endfacet
	facet normal 0.6260237231473001 -0.7798040125934163 0
		outer loop
			vertex 0.0001653406652621925 -0.0580960176885128 0.071428582072258
			vertex 0.013709080405533314 -0.047223154455423355 -0.0714285671710968
			vertex 0.013709080405533314 -0.047223154455423355 0.071428582072258
		endloop
	endfacet
	facet normal 0.5764287288832494 -0.8171474288755786 2.693715999938385e-7
		outer loop
			vertex 0.01724138669669628 -0.04473145678639412 -0.0714285671710968
			vertex 0.01547521073371172 -0.04597729817032814 0.071428582072258
			vertex 0.013709080405533314 -0.047223154455423355 0.071428582072258
		endloop
	endfacet
	facet normal 0.5764214544299993 -0.8171525603415831 0
		outer loop
			vertex 0.01724138669669628 -0.04473145678639412 -0.0714285671710968
			vertex 0.013709080405533314 -0.047223154455423355 0.071428582072258
			vertex 0.013709080405533314 -0.047223154455423355 -0.0714285671710968
		endloop
	endfacet
	facet normal 0.5764265912848153 -0.8171489367671696 2.297938207268567e-7
		outer loop
			vertex 0.01547521073371172 -0.04597729817032814 0.071428582072258
			vertex 0.01724138669669628 -0.04473145678639412 -0.0714285671710968
			vertex 0.026072097942233086 -0.03850216791033745 -0.0714285671710968
		endloop
	endfacet
	facet normal 0.5764245227367644 -0.8171503959417099 0
		outer loop
			vertex 0.01547521073371172 -0.04597729817032814 0.071428582072258
			vertex 0.026072097942233086 -0.03850216791033745 -0.0714285671710968
			vertex 0.026072097942233086 -0.03850216791033745 0.071428582072258
		endloop
	endfacet
	facet normal 0.5186486081594812 -0.8549874977180786 1.081985263472372e-7
		outer loop
			vertex 0.027603818103671074 -0.03757302090525627 -0.0714285671710968
			vertex 0.026837943121790886 -0.03803759440779686 0.071428582072258
			vertex 0.026072097942233086 -0.03850216791033745 0.071428582072258
		endloop
	endfacet
	facet normal 0.5186412313794391 -0.8549919725431456 0
		outer loop
			vertex 0.027603818103671074 -0.03757302090525627 -0.0714285671710968
			vertex 0.026072097942233086 -0.03850216791033745 0.071428582072258
			vertex 0.026072097942233086 -0.03850216791033745 -0.0714285671710968
		endloop
	endfacet
	facet normal 0.5186443664900341 -0.854990070765822 7.709081954457807e-8
		outer loop
			vertex 0.026837943121790886 -0.03803759440779686 0.071428582072258
			vertex 0.027603818103671074 -0.03757302090525627 -0.0714285671710968
			vertex 0.03143308684229851 -0.03525015339255333 -0.0714285671710968
		endloop
	endfacet
	facet normal 0.5186426145126545 -0.8549911335279907 0
		outer loop
			vertex 0.026837943121790886 -0.03803759440779686 0.071428582072258
			vertex 0.03143308684229851 -0.03525015339255333 -0.0714285671710968
			vertex 0.03143308684229851 -0.03525015339255333 0.071428582072258
		endloop
	endfacet
	facet normal 0 -1 0
		outer loop
			vertex 0.032094504684209824 -0.03525015339255333 -0.0714285671710968
			vertex 0.031763773411512375 -0.03525015339255333 0.071428582072258
			vertex 0.03143308684229851 -0.03525015339255333 0.071428582072258
		endloop
	endfacet
	facet normal 0 -1 0
		outer loop
			vertex 0.032094504684209824 -0.03525015339255333 -0.0714285671710968
			vertex 0.03143308684229851 -0.03525015339255333 0.071428582072258
			vertex 0.03143308684229851 -0.03525015339255333 -0.0714285671710968
		endloop
	endfacet
	facet normal 0 -1 0
		outer loop
			vertex 0.031763773411512375 -0.03525015339255333 0.071428582072258
			vertex 0.032094504684209824 -0.03525015339255333 -0.0714285671710968
			vertex 0.033748071640729904 -0.03525015339255333 -0.0714285671710968
		endloop
	endfacet
	facet normal 0 -1 0
		outer loop
			vertex 0.031763773411512375 -0.03525015339255333 0.071428582072258
			vertex 0.033748071640729904 -0.03525015339255333 -0.0714285671710968
			vertex 0.033748071640729904 -0.03525015339255333 0.071428582072258
		endloop
	endfacet
	facet normal -0.65744051393146 -0.7535064502985076 2.8432600336778463e-7
		outer loop
			vertex 0.034205492585897446 -0.03564931079745293 -0.0714285671710968
			vertex 0.033976804465055466 -0.03544972464442253 0.071428582072258
			vertex 0.033748071640729904 -0.03525015339255333 0.071428582072258
		endloop
	endfacet
	facet normal -0.6574909264542667 -0.7534624619915117 0
		outer loop
			vertex 0.034205492585897446 -0.03564931079745293 -0.0714285671710968
			vertex 0.033748071640729904 -0.03525015339255333 0.071428582072258
			vertex 0.033748071640729904 -0.03525015339255333 -0.0714285671710968
		endloop
	endfacet
	facet normal -0.6574571813568845 -0.7534919075094335 2.373267347922691e-7
		outer loop
			vertex 0.033976804465055466 -0.03544972464442253 0.071428582072258
			vertex 0.034205492585897446 -0.03564931079745293 -0.0714285671710968
			vertex 0.03534909710288048 -0.03664715960621834 -0.0714285671710968
		endloop
	endfacet
	facet normal -0.6574712078309801 -0.7534796685201748 0
		outer loop
			vertex 0.033976804465055466 -0.03544972464442253 0.071428582072258
			vertex 0.03534909710288048 -0.03664715960621834 -0.0714285671710968
			vertex 0.03534909710288048 -0.03664715960621834 0.071428582072258
		endloop
	endfacet
	facet normal -0.9189086205447187 0.3944704641523736 -1.1642287103947587e-7
		outer loop
			vertex 0.034899961203336716 -0.03769345209002495 -0.0714285671710968
			vertex 0.035124521702528 -0.037170302122831345 0.071428582072258
			vertex 0.03534909710288048 -0.03664715960621834 0.071428582072258
		endloop
	endfacet
	facet normal -0.9189143824926652 0.3944570415750286 0
		outer loop
			vertex 0.034899961203336716 -0.03769345209002495 -0.0714285671710968
			vertex 0.03534909710288048 -0.03664715960621834 0.071428582072258
			vertex 0.03534909710288048 -0.03664715960621834 -0.0714285671710968
		endloop
	endfacet
	facet normal -0.9189109253486009 0.3944650951287953 -9.313826514628524e-8
		outer loop
			vertex 0.035124521702528 -0.037170302122831345 0.071428582072258
			vertex 0.034899961203336716 -0.03769345209002495 -0.0714285671710968
			vertex 0.03377709910273552 -0.04030917212367058 -0.0714285671710968
		endloop
	endfacet
	facet normal -0.9189124618662259 0.3944615157742925 0
		outer loop
			vertex 0.035124521702528 -0.037170302122831345 0.071428582072258
			vertex 0.03377709910273552 -0.04030917212367058 -0.0714285671710968
			vertex 0.03377709910273552 -0.04030917212367058 0.071428582072258
		endloop
	endfacet
	facet normal -0.7360270699517772 0.6769521048775755 1.4738520654514207e-7
		outer loop
			vertex 0.032437678426504135 -0.041765447705984116 -0.0714285671710968
			vertex 0.033107396215200424 -0.041037317365407944 0.071428582072258
			vertex 0.03377709910273552 -0.04030917212367058 0.071428582072258
		endloop
	endfacet
	facet normal -0.7360198661409832 0.676959937253165 0
		outer loop
			vertex 0.032437678426504135 -0.041765447705984116 -0.0714285671710968
			vertex 0.03377709910273552 -0.04030917212367058 0.071428582072258
			vertex 0.03377709910273552 -0.04030917212367058 -0.0714285671710968
		endloop
	endfacet
	facet normal -0.7360198731003602 0.676959929686628 7.376382775733919e-8
		outer loop
			vertex 0.033107396215200424 -0.041037317365407944 0.071428582072258
			vertex 0.032437678426504135 -0.041765447705984116 -0.0714285671710968
			vertex 0.029089106246829033 -0.04540615901350975 -0.0714285671710968
		endloop
	endfacet
	facet normal -0.7360186713027564 0.676961236330209 0
		outer loop
			vertex 0.033107396215200424 -0.041037317365407944 0.071428582072258
			vertex 0.029089106246829033 -0.04540615901350975 -0.0714285671710968
			vertex 0.029089106246829033 -0.04540615901350975 0.071428582072258
		endloop
	endfacet
	facet normal -0.6371249266125389 0.7707605515910662 -5.2518024353444715e-8
		outer loop
			vertex 0.027563108131289482 -0.046667587012052536 -0.0714285671710968
			vertex 0.028326092287898064 -0.04603688046336174 0.071428582072258
			vertex 0.029089106246829033 -0.04540615901350975 0.071428582072258
		endloop
	endfacet
	facet normal -0.6371278473551022 0.7707581372419324 0
		outer loop
			vertex 0.027563108131289482 -0.046667587012052536 -0.0714285671710968
			vertex 0.029089106246829033 -0.04540615901350975 0.071428582072258
			vertex 0.029089106246829033 -0.04540615901350975 -0.0714285671710968
		endloop
	endfacet
	facet normal -0.6371234122062958 0.7707618034247692 -6.613307753688973e-8
		outer loop
			vertex 0.028326092287898064 -0.04603688046336174 0.071428582072258
			vertex 0.027563108131289482 -0.046667587012052536 -0.0714285671710968
			vertex 0.023748068138957024 -0.0498211570084095 -0.0714285671710968
		endloop
	endfacet
	facet normal -0.6371246381827966 0.7707607900123363 0
		outer loop
			vertex 0.028326092287898064 -0.04603688046336174 0.071428582072258
			vertex 0.023748068138957024 -0.0498211570084095 -0.0714285671710968
			vertex 0.023748068138957024 -0.0498211570084095 0.071428582072258
		endloop
	endfacet
	facet normal -0.5680504816571393 0.8229937121807741 -3.2659629880721e-8
		outer loop
			vertex 0.023206649348139763 -0.050194863229990005 -0.0714285671710968
			vertex 0.0234773438423872 -0.05000801756978035 0.071428582072258
			vertex 0.023748068138957024 -0.0498211570084095 0.071428582072258
		endloop
	endfacet
	facet normal -0.5680563183892237 0.8229896834943201 0
		outer loop
			vertex 0.023206649348139763 -0.050194863229990005 -0.0714285671710968
			vertex 0.023748068138957024 -0.0498211570084095 0.071428582072258
			vertex 0.023748068138957024 -0.0498211570084095 -0.0714285671710968
		endloop
	endfacet
	facet normal -0.5680643557626692 0.8229841357595806 6.1550654234549376e-9
		outer loop
			vertex 0.0234773438423872 -0.05000801756978035 0.071428582072258
			vertex 0.023206649348139763 -0.050194863229990005 -0.0714285671710968
			vertex 0.021853087469935417 -0.05112915858626366 -0.0714285671710968
		endloop
	endfacet
	facet normal -0.5680639891029503 0.8229843888461331 0
		outer loop
			vertex 0.0234773438423872 -0.05000801756978035 0.071428582072258
			vertex 0.021853087469935417 -0.05112915858626366 -0.0714285671710968
			vertex 0.021853087469935417 -0.05112915858626366 0.071428582072258
		endloop
	endfacet
	facet normal -0.5619714257642626 0.8271566457597256 -4.643581839300608e-8
		outer loop
			vertex 0.02148766629397869 -0.05137743428349495 -0.0714285671710968
			vertex 0.021670354530215263 -0.0512533076107502 0.071428582072258
			vertex 0.021853087469935417 -0.05112915858626366 0.071428582072258
		endloop
	endfacet
	facet normal -0.5619838460118591 0.8271482072891889 0
		outer loop
			vertex 0.02148766629397869 -0.05137743428349495 -0.0714285671710968
			vertex 0.021853087469935417 -0.05112915858626366 0.071428582072258
			vertex 0.021853087469935417 -0.05112915858626366 -0.0714285671710968
		endloop
	endfacet
	facet normal -0.5619998224656796 0.8271373522871184 6.642224234618878e-9
		outer loop
			vertex 0.021670354530215263 -0.0512533076107502 0.071428582072258
			vertex 0.02148766629397869 -0.05137743428349495 -0.0714285671710968
			vertex 0.020574091002345085 -0.051998164504766464 -0.0714285671710968
		endloop
	endfacet
	facet normal -0.5619992302824144 0.8271377546466935 0
		outer loop
			vertex 0.021670354530215263 -0.0512533076107502 0.071428582072258
			vertex 0.020574091002345085 -0.051998164504766464 -0.0714285671710968
			vertex 0.020574091002345085 -0.051998164504766464 0.071428582072258
		endloop
	endfacet
	facet normal -0.6127210270482966 0.7902992743340214 0
		outer loop
			vertex 0.020411549136042595 -0.052124183624982834 -0.0714285671710968
			vertex 0.020411549136042595 -0.052124183624982834 0.071428582072258
			vertex 0.020574091002345085 -0.051998164504766464 0.071428582072258
		endloop
	endfacet
	facet normal -0.6127210270482966 0.7902992743340214 0
		outer loop
			vertex 0.020411549136042595 -0.052124183624982834 -0.0714285671710968
			vertex 0.020574091002345085 -0.051998164504766464 0.071428582072258
			vertex 0.020574091002345085 -0.051998164504766464 -0.0714285671710968
		endloop
	endfacet
	facet normal -0.6126437529452776 0.7903591790933572 -1.2958506910886376e-8
		outer loop
			vertex 0.019519207999110222 -0.05281588062644005 -0.0714285671710968
			vertex 0.020046664401888847 -0.052407022565603256 0.071428582072258
			vertex 0.020411549136042595 -0.052124183624982834 0.071428582072258
		endloop
	endfacet
	facet normal -0.6126450488533784 0.7903581745736813 0
		outer loop
			vertex 0.019519207999110222 -0.05281588062644005 -0.0714285671710968
			vertex 0.020411549136042595 -0.052124183624982834 0.071428582072258
			vertex 0.020411549136042595 -0.052124183624982834 -0.0714285671710968
		endloop
	endfacet
	facet normal -0.6126661743154016 0.7903417987489436 1.195682111767937e-7
		outer loop
			vertex 0.020046664401888847 -0.052407022565603256 0.071428582072258
			vertex 0.019519207999110222 -0.05281588062644005 -0.0714285671710968
			vertex 0.016882074996829033 -0.05486016348004341 -0.0714285671710968
		endloop
	endfacet
	facet normal -0.6126628027437205 0.7903444123508491 0
		outer loop
			vertex 0.020046664401888847 -0.052407022565603256 0.071428582072258
			vertex 0.016882074996829033 -0.05486016348004341 -0.0714285671710968
			vertex 0.016882074996829033 -0.05486016348004341 0.071428582072258
		endloop
	endfacet
	facet normal -0.7899818985808448 0.6131301655558988 -1.3530156130798991e-8
		outer loop
			vertex 0.01613721065223217 -0.055819880217313766 -0.0714285671710968
			vertex 0.0165096502751112 -0.055340010672807693 0.071428582072258
			vertex 0.016882074996829033 -0.05486016348004341 0.071428582072258
		endloop
	endfacet
	facet normal -0.7899828740906377 0.6131289086672521 0
		outer loop
			vertex 0.01613721065223217 -0.055819880217313766 -0.0714285671710968
			vertex 0.016882074996829033 -0.05486016348004341 0.071428582072258
			vertex 0.016882074996829033 -0.05486016348004341 -0.0714285671710968
		endloop
	endfacet
	facet normal -0.7899809621228525 0.6131313721246469 0
		outer loop
			vertex 0.015503746457397938 -0.05663605406880379 -0.0714285671710968
			vertex 0.015503746457397938 -0.05663605406880379 0.071428582072258
			vertex 0.0165096502751112 -0.055340010672807693 0.071428582072258
		endloop
	endfacet
	facet normal -0.7899792644581047 0.6131335594519607 -3.179790857492938e-8
		outer loop
			vertex 0.015503746457397938 -0.05663605406880379 -0.0714285671710968
			vertex 0.0165096502751112 -0.055340010672807693 0.071428582072258
			vertex 0.01613721065223217 -0.055819880217313766 -0.0714285671710968
		endloop
	endfacet
	facet normal -0.7899864182363017 0.6131243422032592 0
		outer loop
			vertex 0.01427507121115923 -0.05821915343403816 -0.0714285671710968
			vertex 0.01427507121115923 -0.05821915343403816 0.071428582072258
			vertex 0.015503746457397938 -0.05663605406880379 0.071428582072258
		endloop
	endfacet
	facet normal -0.7899864182363017 0.6131243422032592 0
		outer loop
			vertex 0.01427507121115923 -0.05821915343403816 -0.0714285671710968
			vertex 0.015503746457397938 -0.05663605406880379 0.071428582072258
			vertex 0.015503746457397938 -0.05663605406880379 -0.0714285671710968
		endloop
	endfacet
	facet normal -0.9798800224136636 0.199587428648477 -2.962190446519871e-7
		outer loop
			vertex 0.014023941941559315 -0.05945229157805443 -0.0714285671710968
			vertex 0.014149484224617481 -0.058835726231336594 0.071428582072258
			vertex 0.01427507121115923 -0.05821915343403816 0.071428582072258
		endloop
	endfacet
	facet normal -0.9798867332467646 0.19955447879459998 0
		outer loop
			vertex 0.014023941941559315 -0.05945229157805443 -0.0714285671710968
			vertex 0.01427507121115923 -0.05821915343403816 0.071428582072258
			vertex 0.01427507121115923 -0.05821915343403816 -0.0714285671710968
		endloop
	endfacet
	facet normal -0.9798868582389836 0.19955386503531844 0
		outer loop
			vertex 0.013413590379059315 -0.06244925037026405 -0.0714285671710968
			vertex 0.013413590379059315 -0.06244925037026405 0.071428582072258
			vertex 0.014149484224617481 -0.058835726231336594 0.071428582072258
		endloop
	endfacet
	facet normal -0.9798855034026878 0.19956051769132788 -1.7525583355481025e-7
		outer loop
			vertex 0.013413590379059315 -0.06244925037026405 -0.0714285671710968
			vertex 0.014149484224617481 -0.058835726231336594 0.071428582072258
			vertex 0.014023941941559315 -0.05945229157805443 -0.0714285671710968
		endloop
	endfacet
	facet normal -0.9798566910493148 0.19970194041593078 0
		outer loop
			vertex 0.013396081514656544 -0.06253515928983688 -0.0714285671710968
			vertex 0.013396081514656544 -0.06253515928983688 0.071428582072258
			vertex 0.013413590379059315 -0.06244925037026405 0.071428582072258
		endloop
	endfacet
	facet normal -0.9798566910493148 0.19970194041593078 0
		outer loop
			vertex 0.013396081514656544 -0.06253515928983688 -0.0714285671710968
			vertex 0.013413590379059315 -0.06244925037026405 0.071428582072258
			vertex 0.013413590379059315 -0.06244925037026405 -0.0714285671710968
		endloop
	endfacet
	facet normal -0.9997185752371842 -0.023722780733373954 1.0427876880502675e-7
		outer loop
			vertex 0.013429504819214344 -0.06394430249929428 -0.0714285671710968
			vertex 0.01341280061751604 -0.06323973089456558 0.071428582072258
			vertex 0.013396081514656544 -0.06253515928983688 0.071428582072258
		endloop
	endfacet
	facet normal -0.9997188258997568 -0.023712215029642308 0
		outer loop
			vertex 0.013429504819214344 -0.06394430249929428 -0.0714285671710968
			vertex 0.013396081514656544 -0.06253515928983688 0.071428582072258
			vertex 0.013396081514656544 -0.06253515928983688 -0.0714285671710968
		endloop
	endfacet
	facet normal -0.9997186755155977 -0.023718554452835005 8.342302341190393e-8
		outer loop
			vertex 0.01341280061751604 -0.06323973089456558 0.071428582072258
			vertex 0.013429504819214344 -0.06394430249929428 -0.0714285671710968
			vertex 0.013513085432350636 -0.06746716052293777 -0.0714285671710968
		endloop
	endfacet
	facet normal -0.999718742357961 -0.023715736931769267 0
		outer loop
			vertex 0.01341280061751604 -0.06323973089456558 0.071428582072258
			vertex 0.013513085432350636 -0.06746716052293777 -0.0714285671710968
			vertex 0.013513085432350636 -0.06746716052293777 0.071428582072258
		endloop
	endfacet
	facet normal -0.9970165267285496 -0.07718837626285545 2.0799384638992182e-7
		outer loop
			vertex 0.01354935485869646 -0.06793602555990219 -0.0714285671710968
			vertex 0.013531235046684742 -0.06770159304141998 0.071428582072258
			vertex 0.013513085432350636 -0.06746716052293777 0.071428582072258
		endloop
	endfacet
	facet normal -0.9970214018310161 -0.07712538032914962 0
		outer loop
			vertex 0.01354935485869646 -0.06793602555990219 -0.0714285671710968
			vertex 0.013513085432350636 -0.06746716052293777 0.071428582072258
			vertex 0.013513085432350636 -0.06746716052293777 -0.0714285671710968
		endloop
	endfacet
	facet normal -0.9970183640381048 -0.07716464067662479 1.688100534113873e-7
		outer loop
			vertex 0.013531235046684742 -0.06770159304141998 0.071428582072258
			vertex 0.01354935485869646 -0.06793602555990219 -0.0714285671710968
			vertex 0.013640073128044605 -0.06910816580057144 -0.0714285671710968
		endloop
	endfacet
	facet normal -0.9970196829391021 -0.07714759770733368 0
		outer loop
			vertex 0.013531235046684742 -0.06770159304141998 0.071428582072258
			vertex 0.013640073128044605 -0.06910816580057144 -0.0714285671710968
			vertex 0.013640073128044605 -0.06910816580057144 0.071428582072258
		endloop
	endfacet
	facet normal -0.9976413820624513 -0.06864162582953821 0
		outer loop
			vertex 0.013696950860321522 -0.06993483006954193 -0.0714285671710968
			vertex 0.013696950860321522 -0.06993483006954193 0.071428582072258
			vertex 0.013640073128044605 -0.06910816580057144 0.071428582072258
		endloop
	endfacet
	facet normal -0.9976413820624513 -0.06864162582953821 0
		outer loop
			vertex 0.013696950860321522 -0.06993483006954193 -0.0714285671710968
			vertex 0.013640073128044605 -0.06910816580057144 0.071428582072258
			vertex 0.013640073128044605 -0.06910816580057144 -0.0714285671710968
		endloop
	endfacet
	facet normal 1 0 0
		outer loop
			vertex 0.06597268581390381 -0.03525015339255333 0.071428582072258
			vertex 0.06597268581390381 -0.03552441671490669 0.071428582072258
			vertex 0.06597268581390381 -0.03552441671490669 0.036283206194639206
		endloop
	endfacet
	facet normal 1 0 0
		outer loop
			vertex 0.06597268581390381 -0.03525015339255333 0.071428582072258
			vertex 0.06597268581390381 -0.03552441671490669 0.036283206194639206
			vertex 0.06597268581390381 -0.03525015339255333 0.03600309416651726
		endloop
	endfacet
	facet normal 1 0 0
		outer loop
			vertex 0.06597268581390381 -0.03552441671490669 -0.0714285671710968
			vertex 0.06597268581390381 -0.03525015339255333 -0.0714285671710968
			vertex 0.06597268581390381 -0.03525015339255333 0.03600309416651726
		endloop
	endfacet
	facet normal 1 0 0
		outer loop
			vertex 0.06597268581390381 -0.03552441671490669 -0.0714285671710968
			vertex 0.06597268581390381 -0.03525015339255333 0.03600309416651726
			vertex 0.06597268581390381 -0.03552441671490669 0.036283206194639206
		endloop
	endfacet
	facet normal 1 0 0
		outer loop
			vertex 0.06597268581390381 -0.014298172667622566 0.071428582072258
			vertex 0.06597268581390381 -0.03525015339255333 0.071428582072258
			vertex 0.06597268581390381 -0.03525015339255333 0.03600309416651726
		endloop
	endfacet
	facet normal 1 0 0
		outer loop
			vertex 0.06597268581390381 -0.014298172667622566 0.071428582072258
			vertex 0.06597268581390381 -0.03525015339255333 0.03600309416651726
			vertex 0.06597268581390381 -0.014298172667622566 0.014603598043322563
		endloop
	endfacet
	facet normal 1 0 0
		outer loop
			vertex 0.06597268581390381 -0.03525015339255333 -0.0714285671710968
			vertex 0.06597268581390381 -0.014298172667622566 -0.0714285671710968
			vertex 0.06597268581390381 -0.014298172667622566 0.014603598043322563
		endloop
	endfacet
	facet normal 1 0 0
		outer loop
			vertex 0.06597268581390381 -0.03525015339255333 -0.0714285671710968
			vertex 0.06597268581390381 -0.014298172667622566 0.014603598043322563
			vertex 0.06597268581390381 -0.03525015339255333 0.03600309416651726
		endloop
	endfacet
	facet normal 1 0 0
		outer loop
			vertex 0.06597268581390381 -0.01035592146217823 0.071428582072258
			vertex 0.06597268581390381 -0.014298172667622566 0.071428582072258
			vertex 0.06597268581390381 -0.014298172667622566 0.014603598043322563
		endloop
	endfacet
	facet normal 1 0 0
		outer loop
			vertex 0.06597268581390381 -0.01035592146217823 0.071428582072258
			vertex 0.06597268581390381 -0.014298172667622566 0.014603598043322563
			vertex 0.06597268581390381 -0.01035592146217823 0.010577095672488213
		endloop
	endfacet
	facet normal 1 0 0
		outer loop
			vertex 0.06597268581390381 -0.014298172667622566 -0.0714285671710968
			vertex 0.06597268581390381 -0.01035592146217823 -0.0714285671710968
			vertex 0.06597268581390381 -0.01035592146217823 0.010577095672488213
		endloop
	endfacet
	facet normal 1 0 0
		outer loop
			vertex 0.06597268581390381 -0.014298172667622566 -0.0714285671710968
			vertex 0.06597268581390381 -0.01035592146217823 0.010577095672488213
			vertex 0.06597268581390381 -0.014298172667622566 0.014603598043322563
		endloop
	endfacet
	facet normal 1 0 0
		outer loop
			vertex 0.06597268581390381 -0.0052660428918898106 0.071428582072258
			vertex 0.06597268581390381 -0.01035592146217823 0.071428582072258
			vertex 0.06597268581390381 -0.01035592146217823 0.010577095672488213
		endloop
	endfacet
	facet normal 1 0 0
		outer loop
			vertex 0.06597268581390381 -0.0052660428918898106 0.071428582072258
			vertex 0.06597268581390381 -0.01035592146217823 0.010577095672488213
			vertex 0.06597268581390381 -0.0052660428918898106 0.005378556903451681
		endloop
	endfacet
	facet normal 1 0 0
		outer loop
			vertex 0.06597268581390381 -0.01035592146217823 -0.0714285671710968
			vertex 0.06597268581390381 -0.0052660428918898106 -0.0714285671710968
			vertex 0.06597268581390381 -0.0052660428918898106 0.005378556903451681
		endloop
	endfacet
	facet normal 1 0 0
		outer loop
			vertex 0.06597268581390381 -0.01035592146217823 -0.0714285671710968
			vertex 0.06597268581390381 -0.0052660428918898106 0.005378556903451681
			vertex 0.06597268581390381 -0.01035592146217823 0.010577095672488213
		endloop
	endfacet
	facet normal 1 0 0
		outer loop
			vertex 0.06597268581390381 -0.0013886264059692621 0.071428582072258
			vertex 0.06597268581390381 -0.0052660428918898106 0.071428582072258
			vertex 0.06597268581390381 -0.0052660428918898106 0.005378556903451681
		endloop
	endfacet
	facet normal 1 0 0
		outer loop
			vertex 0.06597268581390381 -0.0013886264059692621 0.071428582072258
			vertex 0.06597268581390381 -0.0052660428918898106 0.005378556903451681
			vertex 0.06597268581390381 -0.0013886264059692621 0.0014183351304382086
		endloop
	endfacet
	facet normal 1 0 0
		outer loop
			vertex 0.06597268581390381 -0.0052660428918898106 -0.0714285671710968
			vertex 0.06597268581390381 -0.0013886264059692621 -0.0714285671710968
			vertex 0.06597268581390381 -0.0013886264059692621 0.0014183351304382086
		endloop
	endfacet
	facet normal 1 0 0
		outer loop
			vertex 0.06597268581390381 -0.0052660428918898106 -0.0714285671710968
			vertex 0.06597268581390381 -0.0013886264059692621 0.0014183351304382086
			vertex 0.06597268581390381 -0.0052660428918898106 0.005378556903451681
		endloop
	endfacet
	facet normal 1 0 0
		outer loop
			vertex 0.06597268581390381 0.0030688473489135504 0.071428582072258
			vertex 0.06597268581390381 -0.0013886264059692621 0.071428582072258
			vertex 0.06597268581390381 -0.0013886264059692621 0.0014183351304382086
		endloop
	endfacet
	facet normal 1 0 0
		outer loop
			vertex 0.06597268581390381 0.0030688473489135504 0.071428582072258
			vertex 0.06597268581390381 -0.0013886264059692621 0.0014183351304382086
			vertex 0.06597268581390381 0.0030688473489135504 -0.0031343570444732904
		endloop
	endfacet
	facet normal 1 0 0
		outer loop
			vertex 0.06597268581390381 -0.0013886264059692621 -0.0714285671710968
			vertex 0.06597268581390381 0.0030688473489135504 -0.0714285671710968
			vertex 0.06597268581390381 0.0030688473489135504 -0.0031343570444732904
		endloop
	endfacet
	facet normal 1 0 0
		outer loop
			vertex 0.06597268581390381 -0.0013886264059692621 -0.0714285671710968
			vertex 0.06597268581390381 0.0030688473489135504 -0.0031343570444732904
			vertex 0.06597268581390381 -0.0013886264059692621 0.0014183351304382086
		endloop
	endfacet
	facet normal 1 0 0
		outer loop
			vertex 0.06597268581390381 0.00922408513724804 0.071428582072258
			vertex 0.06597268581390381 0.0030688473489135504 0.071428582072258
			vertex 0.06597268581390381 0.0030688473489135504 -0.0031343570444732904
		endloop
	endfacet
	facet normal 1 0 0
		outer loop
			vertex 0.06597268581390381 0.00922408513724804 0.071428582072258
			vertex 0.06597268581390381 0.0030688473489135504 -0.0031343570444732904
			vertex 0.06597268581390381 0.00922408513724804 -0.009421097114682198
		endloop
	endfacet
	facet normal 1 0 0
		outer loop
			vertex 0.06597268581390381 0.0030688473489135504 -0.0714285671710968
			vertex 0.06597268581390381 0.00922408513724804 -0.0714285671710968
			vertex 0.06597268581390381 0.00922408513724804 -0.009421097114682198
		endloop
	endfacet
	facet normal 1 0 0
		outer loop
			vertex 0.06597268581390381 0.0030688473489135504 -0.0714285671710968
			vertex 0.06597268581390381 0.00922408513724804 -0.009421097114682198
			vertex 0.06597268581390381 0.0030688473489135504 -0.0031343570444732904
		endloop
	endfacet
	facet normal 1 0 0
		outer loop
			vertex 0.06597268581390381 0.020665956661105156 0.071428582072258
			vertex 0.06597268581390381 0.00922408513724804 0.071428582072258
			vertex 0.06597268581390381 0.00922408513724804 -0.009421097114682198
		endloop
	endfacet
	facet normal 1 0 0
		outer loop
			vertex 0.06597268581390381 0.020665956661105156 0.071428582072258
			vertex 0.06597268581390381 0.00922408513724804 -0.009421097114682198
			vertex 0.06597268581390381 0.020665956661105156 -0.02110736258327961
		endloop
	endfacet
	facet normal 1 0 0
		outer loop
			vertex 0.06597268581390381 0.00922408513724804 -0.0714285671710968
			vertex 0.06597268581390381 0.020665956661105156 -0.0714285671710968
			vertex 0.06597268581390381 0.020665956661105156 -0.02110736258327961
		endloop
	endfacet
	facet normal 1 0 0
		outer loop
			vertex 0.06597268581390381 0.00922408513724804 -0.0714285671710968
			vertex 0.06597268581390381 0.020665956661105156 -0.02110736258327961
			vertex 0.06597268581390381 0.00922408513724804 -0.009421097114682198
		endloop
	endfacet
	facet normal -0.4868988695619413 0.8734583509356952 0
		outer loop
			vertex 0.04896176978945732 0.022151870653033257 -0.0714285671710968
			vertex 0.04896176978945732 0.022151870653033257 0.071428582072258
			vertex 0.06597268581390381 0.03163440153002739 0.071428582072258
		endloop
	endfacet
	facet normal -0.4868988695619413 0.8734583509356952 0
		outer loop
			vertex 0.04896176978945732 0.022151870653033257 -0.0714285671710968
			vertex 0.06597268581390381 0.03163440153002739 0.071428582072258
			vertex 0.06597268581390381 0.03163440153002739 -0.0714285671710968
		endloop
	endfacet
	facet normal 1 0 0
		outer loop
			vertex 0.06597268581390381 0.03163440153002739 0.071428582072258
			vertex 0.06597268581390381 0.020665956661105156 0.071428582072258
			vertex 0.06597268581390381 0.020665956661105156 -0.02110736258327961
		endloop
	endfacet
	facet normal 1 0 0
		outer loop
			vertex 0.06597268581390381 0.03163440153002739 0.071428582072258
			vertex 0.06597268581390381 0.020665956661105156 -0.02110736258327961
			vertex 0.06597268581390381 0.03163440153002739 -0.03231005743145943
		endloop
	endfacet
	facet normal 1 0 0
		outer loop
			vertex 0.06597268581390381 0.020665956661105156 -0.0714285671710968
			vertex 0.06597268581390381 0.03163440153002739 -0.0714285671710968
			vertex 0.06597268581390381 0.03163440153002739 -0.03231005743145943
		endloop
	endfacet
	facet normal 1 0 0
		outer loop
			vertex 0.06597268581390381 0.020665956661105156 -0.0714285671710968
			vertex 0.06597268581390381 0.03163440153002739 -0.03231005743145943
			vertex 0.06597268581390381 0.020665956661105156 -0.02110736258327961
		endloop
	endfacet
	facet normal -0.4868979037524844 0.8734588893138798 0
		outer loop
			vertex 0.04684307798743248 0.02097083441913128 -0.0714285671710968
			vertex 0.04684307798743248 0.02097083441913128 0.071428582072258
			vertex 0.04896176978945732 0.022151870653033257 0.071428582072258
		endloop
	endfacet
	facet normal -0.4868979037524844 0.8734588893138798 0
		outer loop
			vertex 0.04684307798743248 0.02097083441913128 -0.0714285671710968
			vertex 0.04896176978945732 0.022151870653033257 0.071428582072258
			vertex 0.04896176978945732 0.022151870653033257 -0.0714285671710968
		endloop
	endfacet
	facet normal -0.544592610298028 0.8387007146823341 -3.499331915573147e-7
		outer loop
			vertex 0.039013948291540146 0.015887094661593437 -0.0714285671710968
			vertex 0.04292851313948631 0.018428994342684746 0.071428582072258
			vertex 0.04684307798743248 0.02097083441913128 0.071428582072258
		endloop
	endfacet
	facet normal -0.5445971017358696 0.8386977982449286 0
		outer loop
			vertex 0.039013948291540146 0.015887094661593437 -0.0714285671710968
			vertex 0.04684307798743248 0.02097083441913128 0.071428582072258
			vertex 0.04684307798743248 0.02097083441913128 -0.0714285671710968
		endloop
	endfacet
	facet normal -0.5445935754220161 0.8387000879986645 -3.1233614103213403e-7
		outer loop
			vertex 0.04292851313948631 0.018428994342684746 0.071428582072258
			vertex 0.039013948291540146 0.015887094661593437 -0.0714285671710968
			vertex 0.01944108121097088 0.003177834441885352 -0.0714285671710968
		endloop
	endfacet
	facet normal -0.5445949117141041 0.8386992203019551 0
		outer loop
			vertex 0.04292851313948631 0.018428994342684746 0.071428582072258
			vertex 0.01944108121097088 0.003177834441885352 -0.0714285671710968
			vertex 0.01944108121097088 0.003177834441885352 0.071428582072258
		endloop
	endfacet
	facet normal -0.5652535747917119 0.8249172056547172 -5.896053979784792e-8
		outer loop
			vertex 0.016879675909876823 0.001422686269506812 -0.0714285671710968
			vertex 0.018160371109843254 0.002300260355696082 0.071428582072258
			vertex 0.01944108121097088 0.003177834441885352 0.071428582072258
		endloop
	endfacet
	facet normal -0.5652558125060241 0.824915672313331 0
		outer loop
			vertex 0.016879675909876823 0.001422686269506812 -0.0714285671710968
			vertex 0.01944108121097088 0.003177834441885352 0.071428582072258
			vertex 0.01944108121097088 0.003177834441885352 -0.0714285671710968
		endloop
	endfacet
	facet normal -0.5652504224235444 0.8249193657261265 -1.0049045625713473e-7
		outer loop
			vertex 0.018160371109843254 0.002300260355696082 0.071428582072258
			vertex 0.016879675909876823 0.001422686269506812 -0.0714285671710968
			vertex 0.010476094670593739 -0.002965169260278344 -0.0714285671710968
		endloop
	endfacet
	facet normal -0.5652516937179293 0.8249184946096265 0
		outer loop
			vertex 0.018160371109843254 0.002300260355696082 0.071428582072258
			vertex 0.010476094670593739 -0.002965169260278344 -0.0714285671710968
			vertex 0.010476094670593739 -0.002965169260278344 0.071428582072258
		endloop
	endfacet
	facet normal -0.5637921193797335 0.8259167307454842 0
		outer loop
			vertex 0.008303460665047169 -0.004448326770216227 -0.0714285671710968
			vertex 0.008303460665047169 -0.004448326770216227 -0.027548955753445625
			vertex 0.009192672558128834 -0.0038413277361541986 0.071428582072258
		endloop
	endfacet
	facet normal -0.5638190501886141 0.8258983464351703 2.457451680599162e-7
		outer loop
			vertex 0.008303460665047169 -0.004448326770216227 -0.0714285671710968
			vertex 0.009192672558128834 -0.0038413277361541986 0.071428582072258
			vertex 0.010476094670593739 -0.002965169260278344 0.071428582072258
		endloop
	endfacet
	facet normal -0.5638080282110811 0.8259058707411716 0
		outer loop
			vertex 0.008303460665047169 -0.004448326770216227 -0.0714285671710968
			vertex 0.010476094670593739 -0.002965169260278344 0.071428582072258
			vertex 0.010476094670593739 -0.002965169260278344 -0.0714285671710968
		endloop
	endfacet
	facet normal -0.5637921193797334 0.8259167307454841 0
		outer loop
			vertex 0.008303460665047169 -0.004448326770216227 0.071428582072258
			vertex 0.009192672558128834 -0.0038413277361541986 0.071428582072258
			vertex 0.008303460665047169 -0.004448326770216227 -0.027548955753445625
		endloop
	endfacet
	facet normal -0.5638084646801999 0.8259055727835695 0
		outer loop
			vertex 0.007909220643341541 -0.004717456642538309 -0.0714285671710968
			vertex 0.008303460665047169 -0.004448326770216227 -0.027548955753445625
			vertex 0.008303460665047169 -0.004448326770216227 -0.0714285671710968
		endloop
	endfacet
	facet normal -0.5638115823955744 0.8259034444513468 0
		outer loop
			vertex 0.007909220643341541 -0.004717456642538309 -0.0714285671710968
			vertex 0.0014920952962711453 -0.009098174050450325 -0.0714285671710968
			vertex 0.0014920952962711453 -0.009098174050450325 0.071428582072258
		endloop
	endfacet
	facet normal -0.5638114019436922 0.8259035676386733 1.1883417958810108e-8
		outer loop
			vertex 0.007909220643341541 -0.004717456642538309 -0.0714285671710968
			vertex 0.0014920952962711453 -0.009098174050450325 0.071428582072258
			vertex 0.008303460665047169 -0.004448326770216227 0.071428582072258
		endloop
	endfacet
	facet normal -0.5638084646801999 0.8259055727835695 0
		outer loop
			vertex 0.007909220643341541 -0.004717456642538309 -0.0714285671710968
			vertex 0.008303460665047169 -0.004448326770216227 0.071428582072258
			vertex 0.008303460665047169 -0.004448326770216227 -0.027548955753445625
		endloop
	endfacet
	facet normal -0.5625695653306799 0.8267499526239177 0
		outer loop
			vertex -0.06453607976436615 -0.05416801944375038 -0.0714285671710968
			vertex -0.062319133430719376 -0.05265947803854942 0.010437233373522758
			vertex -0.062319133430719376 -0.05265947803854942 -0.0714285671710968
		endloop
	endfacet
	facet normal -0.5625770334441289 0.8267448708284822 0
		outer loop
			vertex -0.06453607976436615 -0.05416801944375038 -0.0714285671710968
			vertex -0.0659726932644844 -0.05514559522271156 -0.0714285671710968
			vertex -0.0659726932644844 -0.05514559522271156 0.071428582072258
		endloop
	endfacet
	facet normal -0.562572501878351 0.8267479544155695 6.667183737471965e-8
		outer loop
			vertex -0.06453607976436615 -0.05416801944375038 -0.0714285671710968
			vertex -0.0659726932644844 -0.05514559522271156 0.071428582072258
			vertex -0.062319133430719376 -0.05265947803854942 0.071428582072258
		endloop
	endfacet
	facet normal -0.5625695653306799 0.8267499526239176 0
		outer loop
			vertex -0.06453607976436615 -0.05416801944375038 -0.0714285671710968
			vertex -0.062319133430719376 -0.05265947803854942 0.071428582072258
			vertex -0.062319133430719376 -0.05265947803854942 0.010437233373522758
		endloop
	endfacet
	facet normal -0.5639799430011871 0.8257884861707567 -4.3351363767193666e-7
		outer loop
			vertex -0.006208750419318676 -0.014357613399624825 -0.0714285671710968
			vertex -0.0023583497386425734 -0.011727871373295784 0.071428582072258
			vertex 0.0014920952962711453 -0.009098174050450325 0.071428582072258
		endloop
	endfacet
	facet normal -0.5639854270462817 0.8257847407644581 0
		outer loop
			vertex -0.006208750419318676 -0.014357613399624825 -0.0714285671710968
			vertex 0.0014920952962711453 -0.009098174050450325 0.071428582072258
			vertex 0.0014920952962711453 -0.009098174050450325 -0.0714285671710968
		endloop
	endfacet
	facet normal -0.5639824482486996 0.8257867751830925 -3.344940018374467e-7
		outer loop
			vertex -0.0023583497386425734 -0.011727871373295784 0.071428582072258
			vertex -0.006208750419318676 -0.014357613399624825 -0.0714285671710968
			vertex -0.02546091563999653 -0.0275061447173357 -0.0714285671710968
		endloop
	endfacet
	facet normal -0.5639838587230495 0.8257858118785159 0
		outer loop
			vertex -0.0023583497386425734 -0.011727871373295784 0.071428582072258
			vertex -0.02546091563999653 -0.0275061447173357 -0.0714285671710968
			vertex -0.02546091563999653 -0.0275061447173357 0.071428582072258
		endloop
	endfacet
	facet normal -0.5638807624524411 0.8258562137176506 -3.415770971920273e-9
		outer loop
			vertex -0.0344146229326725 -0.03361958637833595 -0.0714285671710968
			vertex -0.02993776835501194 -0.030562864616513252 0.071428582072258
			vertex -0.02546091563999653 -0.0275061447173357 0.071428582072258
		endloop
	endfacet
	facet normal -0.5638807996227946 0.8258561883383557 0
		outer loop
			vertex -0.0344146229326725 -0.03361958637833595 -0.0714285671710968
			vertex -0.02546091563999653 -0.0275061447173357 0.071428582072258
			vertex -0.02546091563999653 -0.0275061447173357 -0.0714285671710968
		endloop
	endfacet
	facet normal -0.5638797474385812 0.8258569067511632 -5.005312934109247e-8
		outer loop
			vertex -0.02993776835501194 -0.030562864616513252 0.071428582072258
			vertex -0.0344146229326725 -0.03361958637833595 -0.0714285671710968
			vertex -0.05679892376065254 -0.048903170973062515 -0.0714285671710968
		endloop
	endfacet
	facet normal -0.5638799289976887 0.8258567827859511 0
		outer loop
			vertex -0.02993776835501194 -0.030562864616513252 0.071428582072258
			vertex -0.05679892376065254 -0.048903170973062515 -0.0714285671710968
			vertex -0.05679892376065254 -0.048903170973062515 0.071428582072258
		endloop
	endfacet
	facet normal -0.5625699131037997 0.8267497159784112 0
		outer loop
			vertex -0.062319133430719376 -0.05265947803854942 -0.0714285671710968
			vertex -0.062319133430719376 -0.05265947803854942 0.010437233373522758
			vertex -0.060667481273412704 -0.05153559520840645 0.071428582072258
		endloop
	endfacet
	facet normal -0.5625737869185526 0.8267470799900746 6.552515274978178e-8
		outer loop
			vertex -0.062319133430719376 -0.05265947803854942 -0.0714285671710968
			vertex -0.060667481273412704 -0.05153559520840645 0.071428582072258
			vertex -0.05679892376065254 -0.048903170973062515 0.071428582072258
		endloop
	endfacet
	facet normal -0.5625726278732578 0.8267478686805169 0
		outer loop
			vertex -0.062319133430719376 -0.05265947803854942 -0.0714285671710968
			vertex -0.05679892376065254 -0.048903170973062515 0.071428582072258
			vertex -0.05679892376065254 -0.048903170973062515 -0.0714285671710968
		endloop
	endfacet
	facet normal -0.5625699131037997 0.8267497159784111 0
		outer loop
			vertex -0.062319133430719376 -0.05265947803854942 0.071428582072258
			vertex -0.060667481273412704 -0.05153559520840645 0.071428582072258
			vertex -0.062319133430719376 -0.05265947803854942 0.010437233373522758
		endloop
	endfacet
	facet normal -1 0 0
		outer loop
			vertex -0.0659726932644844 -0.05514559522271156 -0.0714285671710968
			vertex -0.0659726932644844 -0.055153604596853256 -0.0714285671710968
			vertex -0.0659726932644844 -0.055153604596853256 -0.05633163824677467
		endloop
	endfacet
	facet normal -1 0 0
		outer loop
			vertex -0.0659726932644844 -0.05514559522271156 -0.0714285671710968
			vertex -0.0659726932644844 -0.055153604596853256 -0.05633163824677467
			vertex -0.0659726932644844 -0.05514559522271156 -0.05632345750927925
		endloop
	endfacet
	facet normal -1 0 0
		outer loop
			vertex -0.0659726932644844 -0.055153604596853256 0.071428582072258
			vertex -0.0659726932644844 -0.05514559522271156 0.071428582072258
			vertex -0.0659726932644844 -0.05514559522271156 -0.05632345750927925
		endloop
	endfacet
	facet normal -1 0 0
		outer loop
			vertex -0.0659726932644844 -0.055153604596853256 0.071428582072258
			vertex -0.0659726932644844 -0.05514559522271156 -0.05632345750927925
			vertex -0.0659726932644844 -0.055153604596853256 -0.05633163824677467
		endloop
	endfacet
	facet normal -1 0 0
		outer loop
			vertex -0.0659726932644844 -0.055153604596853256 -0.0714285671710968
			vertex -0.0659726932644844 -0.055166859179735184 -0.0714285671710968
			vertex -0.0659726932644844 -0.055166859179735184 -0.05634516850113869
		endloop
	endfacet
	facet normal -1 0 0
		outer loop
			vertex -0.0659726932644844 -0.055153604596853256 -0.0714285671710968
			vertex -0.0659726932644844 -0.055166859179735184 -0.05634516850113869
			vertex -0.0659726932644844 -0.055153604596853256 -0.05633163824677467
		endloop
	endfacet
	facet normal -1 0 0
		outer loop
			vertex -0.0659726932644844 -0.055166859179735184 0.071428582072258
			vertex -0.0659726932644844 -0.055153604596853256 0.071428582072258
			vertex -0.0659726932644844 -0.055153604596853256 -0.05633163824677467
		endloop
	endfacet
	facet normal -1 0 0
		outer loop
			vertex -0.0659726932644844 -0.055166859179735184 0.071428582072258
			vertex -0.0659726932644844 -0.055153604596853256 -0.05633163824677467
			vertex -0.0659726932644844 -0.055166859179735184 -0.05634516850113869
		endloop
	endfacet
	facet normal -1 0 0
		outer loop
			vertex -0.0659726932644844 -0.055166859179735184 -0.0714285671710968
			vertex -0.0659726932644844 -0.05517430230975151 -0.0714285671710968
			vertex -0.0659726932644844 -0.05517430230975151 -0.056352753192186356
		endloop
	endfacet
	facet normal -1 0 0
		outer loop
			vertex -0.0659726932644844 -0.055166859179735184 -0.0714285671710968
			vertex -0.0659726932644844 -0.05517430230975151 -0.056352753192186356
			vertex -0.0659726932644844 -0.055166859179735184 -0.05634516850113869
		endloop
	endfacet
	facet normal -1 0 0
		outer loop
			vertex -0.0659726932644844 -0.05517430230975151 0.071428582072258
			vertex -0.0659726932644844 -0.055166859179735184 0.071428582072258
			vertex -0.0659726932644844 -0.055166859179735184 -0.05634516850113869
		endloop
	endfacet
	facet normal -1 0 0
		outer loop
			vertex -0.0659726932644844 -0.05517430230975151 0.071428582072258
			vertex -0.0659726932644844 -0.055166859179735184 -0.05634516850113869
			vertex -0.0659726932644844 -0.05517430230975151 -0.056352753192186356
		endloop
	endfacet
	facet normal -1 0 0
		outer loop
			vertex -0.0659726932644844 -0.05517430230975151 -0.0714285671710968
			vertex -0.0659726932644844 -0.06993483006954193 -0.0714285671710968
			vertex -0.0659726932644844 -0.05517430230975151 -0.056352753192186356
		endloop
	endfacet
	facet normal -1 0 0
		outer loop
			vertex -0.0659726932644844 -0.06993483006954193 -0.0714285671710968
			vertex -0.0659726932644844 -0.06993483006954193 0.071428582072258
			vertex -0.0659726932644844 -0.05517430230975151 0.071428582072258
		endloop
	endfacet
	facet normal -1 0 0
		outer loop
			vertex -0.0659726932644844 -0.06993483006954193 -0.0714285671710968
			vertex -0.0659726932644844 -0.05517430230975151 0.071428582072258
			vertex -0.0659726932644844 -0.05517430230975151 -0.056352753192186356
		endloop
	endfacet
	facet normal 0 -1 0
		outer loop
			vertex 0.02795572392642498 -0.06993483006954193 0.030267639085650444
			vertex 0.06597268581390381 -0.06993483006954193 0.071428582072258
			vertex 0.02795572392642498 -0.06993483006954193 0.071428582072258
		endloop
	endfacet
	facet normal 0 -1 0
		outer loop
			vertex 0.02795572392642498 -0.06993483006954193 -0.0714285671710968
			vertex 0.06597268581390381 -0.06993483006954193 -0.0714285671710968
			vertex 0.06597268581390381 -0.06993483006954193 0.071428582072258
		endloop
	endfacet
	facet normal 0 -1 0
		outer loop
			vertex 0.02795572392642498 -0.06993483006954193 -0.0714285671710968
			vertex 0.06597268581390381 -0.06993483006954193 0.071428582072258
			vertex 0.02795572392642498 -0.06993483006954193 0.030267639085650444
		endloop
	endfacet
	facet normal 0 -1 0
		outer loop
			vertex 0.026026664301753044 -0.06993483006954193 0.02817906253039837
			vertex 0.02795572392642498 -0.06993483006954193 0.030267639085650444
			vertex 0.02795572392642498 -0.06993483006954193 0.071428582072258
		endloop
	endfacet
	facet normal 0 -1 0
		outer loop
			vertex 0.026026664301753044 -0.06993483006954193 0.02817906253039837
			vertex 0.02795572392642498 -0.06993483006954193 0.071428582072258
			vertex 0.026026664301753044 -0.06993483006954193 0.071428582072258
		endloop
	endfacet
	facet normal 0 -1 0
		outer loop
			vertex 0.026026664301753044 -0.06993483006954193 -0.0714285671710968
			vertex 0.02795572392642498 -0.06993483006954193 -0.0714285671710968
			vertex 0.02795572392642498 -0.06993483006954193 0.030267639085650444
		endloop
	endfacet
	facet normal 0 -1 0
		outer loop
			vertex 0.026026664301753044 -0.06993483006954193 -0.0714285671710968
			vertex 0.02795572392642498 -0.06993483006954193 0.030267639085650444
			vertex 0.026026664301753044 -0.06993483006954193 0.02817906253039837
		endloop
	endfacet
	facet normal 0 -1 0
		outer loop
			vertex 0.016273660585284233 -0.06993483006954193 0.017619503661990166
			vertex 0.026026664301753044 -0.06993483006954193 0.02817906253039837
			vertex 0.026026664301753044 -0.06993483006954193 0.071428582072258
		endloop
	endfacet
	facet normal 0 -1 0
		outer loop
			vertex 0.016273660585284233 -0.06993483006954193 0.017619503661990166
			vertex 0.026026664301753044 -0.06993483006954193 0.071428582072258
			vertex 0.016273660585284233 -0.06993483006954193 0.071428582072258
		endloop
	endfacet
	facet normal 0 -1 0
		outer loop
			vertex 0.016273660585284233 -0.06993483006954193 -0.0714285671710968
			vertex 0.026026664301753044 -0.06993483006954193 -0.0714285671710968
			vertex 0.026026664301753044 -0.06993483006954193 0.02817906253039837
		endloop
	endfacet
	facet normal 0 -1 0
		outer loop
			vertex 0.016273660585284233 -0.06993483006954193 -0.0714285671710968
			vertex 0.026026664301753044 -0.06993483006954193 0.02817906253039837
			vertex 0.016273660585284233 -0.06993483006954193 0.017619503661990166
		endloop
	endfacet
	facet normal 0 -1 0
		outer loop
			vertex 0.013696950860321522 -0.06993483006954193 0.014829708263278008
			vertex 0.013704043813049793 -0.06993483006954193 0.014837367460131645
			vertex 0.013704043813049793 -0.06993483006954193 0.071428582072258
		endloop
	endfacet
	facet normal 0 -1 0
		outer loop
			vertex 0.013696950860321522 -0.06993483006954193 0.014829708263278008
			vertex 0.013704043813049793 -0.06993483006954193 0.071428582072258
			vertex 0.013696950860321522 -0.06993483006954193 0.071428582072258
		endloop
	endfacet
	facet normal 0 -1 0
		outer loop
			vertex 0.013696950860321522 -0.06993483006954193 -0.0714285671710968
			vertex 0.013704043813049793 -0.06993483006954193 -0.0714285671710968
			vertex 0.013704043813049793 -0.06993483006954193 0.014837367460131645
		endloop
	endfacet
	facet normal 0 -1 0
		outer loop
			vertex 0.013696950860321522 -0.06993483006954193 -0.0714285671710968
			vertex 0.013704043813049793 -0.06993483006954193 0.014837367460131645
			vertex 0.013696950860321522 -0.06993483006954193 0.014829708263278008
		endloop
	endfacet
	facet normal 0 -1 0
		outer loop
			vertex 0.013704043813049793 -0.06993483006954193 0.014837367460131645
			vertex 0.016273660585284233 -0.06993483006954193 0.017619503661990166
			vertex 0.016273660585284233 -0.06993483006954193 0.071428582072258
		endloop
	endfacet
	facet normal 0 -1 0
		outer loop
			vertex 0.013704043813049793 -0.06993483006954193 0.014837367460131645
			vertex 0.016273660585284233 -0.06993483006954193 0.071428582072258
			vertex 0.013704043813049793 -0.06993483006954193 0.071428582072258
		endloop
	endfacet
	facet normal 0 -1 0
		outer loop
			vertex 0.013704043813049793 -0.06993483006954193 -0.0714285671710968
			vertex 0.016273660585284233 -0.06993483006954193 -0.0714285671710968
			vertex 0.016273660585284233 -0.06993483006954193 0.017619503661990166
		endloop
	endfacet
	facet normal 0 -1 0
		outer loop
			vertex 0.013704043813049793 -0.06993483006954193 -0.0714285671710968
			vertex 0.016273660585284233 -0.06993483006954193 0.017619503661990166
			vertex 0.013704043813049793 -0.06993483006954193 0.014837367460131645
		endloop
	endfacet
	facet normal 0 -1 0
		outer loop
			vertex -0.014090183191001415 -0.06993483006954193 -0.015255408361554146
			vertex -0.013754027895629406 -0.06993483006954193 -0.01489146240055561
			vertex -0.013754027895629406 -0.06993483006954193 0.071428582072258
		endloop
	endfacet
	facet normal 0 -1 0
		outer loop
			vertex -0.014090183191001415 -0.06993483006954193 -0.015255408361554146
			vertex -0.013754027895629406 -0.06993483006954193 0.071428582072258
			vertex -0.014090183191001415 -0.06993483006954193 0.071428582072258
		endloop
	endfacet
	facet normal 0 -1 0
		outer loop
			vertex -0.014090183191001415 -0.06993483006954193 -0.0714285671710968
			vertex -0.013754027895629406 -0.06993483006954193 -0.0714285671710968
			vertex -0.013754027895629406 -0.06993483006954193 -0.01489146240055561
		endloop
	endfacet
	facet normal 0 -1 0
		outer loop
			vertex -0.014090183191001415 -0.06993483006954193 -0.0714285671710968
			vertex -0.013754027895629406 -0.06993483006954193 -0.01489146240055561
			vertex -0.014090183191001415 -0.06993483006954193 -0.015255408361554146
		endloop
	endfacet
	facet normal 0 -1 0
		outer loop
			vertex -0.01550650130957365 -0.06993483006954193 -0.01678885705769062
			vertex -0.014090183191001415 -0.06993483006954193 -0.015255408361554146
			vertex -0.014090183191001415 -0.06993483006954193 0.071428582072258
		endloop
	endfacet
	facet normal 0 -1 0
		outer loop
			vertex -0.01550650130957365 -0.06993483006954193 -0.01678885705769062
			vertex -0.014090183191001415 -0.06993483006954193 0.071428582072258
			vertex -0.01550650130957365 -0.06993483006954193 0.071428582072258
		endloop
	endfacet
	facet normal 0 -1 0
		outer loop
			vertex -0.01550650130957365 -0.06993483006954193 -0.0714285671710968
			vertex -0.014090183191001415 -0.06993483006954193 -0.0714285671710968
			vertex -0.014090183191001415 -0.06993483006954193 -0.015255408361554146
		endloop
	endfacet
	facet normal 0 -1 0
		outer loop
			vertex -0.01550650130957365 -0.06993483006954193 -0.0714285671710968
			vertex -0.014090183191001415 -0.06993483006954193 -0.015255408361554146
			vertex -0.01550650130957365 -0.06993483006954193 -0.01678885705769062
		endloop
	endfacet
	facet normal 0 -1 0
		outer loop
			vertex -0.018875526264309883 -0.06993483006954193 -0.020436512306332588
			vertex -0.01550650130957365 -0.06993483006954193 -0.01678885705769062
			vertex -0.01550650130957365 -0.06993483006954193 0.071428582072258
		endloop
	endfacet
	facet normal 0 -1 0
		outer loop
			vertex -0.018875526264309883 -0.06993483006954193 -0.020436512306332588
			vertex -0.01550650130957365 -0.06993483006954193 0.071428582072258
			vertex -0.018875526264309883 -0.06993483006954193 0.071428582072258
		endloop
	endfacet
	facet normal 0 -1 0
		outer loop
			vertex -0.018875526264309883 -0.06993483006954193 -0.0714285671710968
			vertex -0.01550650130957365 -0.06993483006954193 -0.0714285671710968
			vertex -0.01550650130957365 -0.06993483006954193 -0.01678885705769062
		endloop
	endfacet
	facet normal 0 -1 0
		outer loop
			vertex -0.018875526264309883 -0.06993483006954193 -0.0714285671710968
			vertex -0.01550650130957365 -0.06993483006954193 -0.01678885705769062
			vertex -0.018875526264309883 -0.06993483006954193 -0.020436512306332588
		endloop
	endfacet
	facet normal 0 -1 0
		outer loop
			vertex -0.024681301787495613 -0.06993483006954193 -0.026722388342022896
			vertex -0.018875526264309883 -0.06993483006954193 -0.020436512306332588
			vertex -0.018875526264309883 -0.06993483006954193 0.071428582072258
		endloop
	endfacet
	facet normal 0 -1 0
		outer loop
			vertex -0.024681301787495613 -0.06993483006954193 -0.026722388342022896
			vertex -0.018875526264309883 -0.06993483006954193 0.071428582072258
			vertex -0.024681301787495613 -0.06993483006954193 0.071428582072258
		endloop
	endfacet
	facet normal 0 -1 0
		outer loop
			vertex -0.024681301787495613 -0.06993483006954193 -0.0714285671710968
			vertex -0.018875526264309883 -0.06993483006954193 -0.0714285671710968
			vertex -0.018875526264309883 -0.06993483006954193 -0.020436512306332588
		endloop
	endfacet
	facet normal 0 -1 0
		outer loop
			vertex -0.024681301787495613 -0.06993483006954193 -0.0714285671710968
			vertex -0.018875526264309883 -0.06993483006954193 -0.020436512306332588
			vertex -0.024681301787495613 -0.06993483006954193 -0.026722388342022896
		endloop
	endfacet
	facet normal 0 -1 0
		outer loop
			vertex -0.04024195298552513 -0.06993483006954193 -0.043569911271333694
			vertex -0.024681301787495613 -0.06993483006954193 -0.026722388342022896
			vertex -0.024681301787495613 -0.06993483006954193 0.071428582072258
		endloop
	endfacet
	facet normal 0 -1 0
		outer loop
			vertex -0.04024195298552513 -0.06993483006954193 -0.043569911271333694
			vertex -0.024681301787495613 -0.06993483006954193 0.071428582072258
			vertex -0.04024195298552513 -0.06993483006954193 0.071428582072258
		endloop
	endfacet
	facet normal 0 -1 0
		outer loop
			vertex -0.04024195298552513 -0.06993483006954193 -0.0714285671710968
			vertex -0.024681301787495613 -0.06993483006954193 -0.0714285671710968
			vertex -0.024681301787495613 -0.06993483006954193 -0.026722388342022896
		endloop
	endfacet
	facet normal 0 -1 0
		outer loop
			vertex -0.04024195298552513 -0.06993483006954193 -0.0714285671710968
			vertex -0.024681301787495613 -0.06993483006954193 -0.026722388342022896
			vertex -0.04024195298552513 -0.06993483006954193 -0.043569911271333694
		endloop
	endfacet
	facet normal 0 -1 0
		outer loop
			vertex -0.04031778499484062 -0.06993483006954193 -0.043652016669511795
			vertex -0.04024195298552513 -0.06993483006954193 -0.043569911271333694
			vertex -0.04024195298552513 -0.06993483006954193 0.071428582072258
		endloop
	endfacet
	facet normal 0 -1 0
		outer loop
			vertex -0.04031778499484062 -0.06993483006954193 -0.043652016669511795
			vertex -0.04024195298552513 -0.06993483006954193 0.071428582072258
			vertex -0.04031778499484062 -0.06993483006954193 0.071428582072258
		endloop
	endfacet
	facet normal 0 -1 0
		outer loop
			vertex -0.04031778499484062 -0.06993483006954193 -0.0714285671710968
			vertex -0.04024195298552513 -0.06993483006954193 -0.0714285671710968
			vertex -0.04024195298552513 -0.06993483006954193 -0.043569911271333694
		endloop
	endfacet
	facet normal 0 -1 0
		outer loop
			vertex -0.04031778499484062 -0.06993483006954193 -0.0714285671710968
			vertex -0.04024195298552513 -0.06993483006954193 -0.043569911271333694
			vertex -0.04031778499484062 -0.06993483006954193 -0.043652016669511795
		endloop
	endfacet
	facet normal 0 -1 0
		outer loop
			vertex -0.06235845759510994 -0.06993483006954193 -0.06751544773578644
			vertex -0.04031778499484062 -0.06993483006954193 -0.043652016669511795
			vertex -0.04031778499484062 -0.06993483006954193 0.071428582072258
		endloop
	endfacet
	facet normal 0 -1 0
		outer loop
			vertex -0.06235845759510994 -0.06993483006954193 -0.06751544773578644
			vertex -0.04031778499484062 -0.06993483006954193 0.071428582072258
			vertex -0.06235845759510994 -0.06993483006954193 0.071428582072258
		endloop
	endfacet
	facet normal 0 -1 0
		outer loop
			vertex -0.06235845759510994 -0.06993483006954193 -0.0714285671710968
			vertex -0.04031778499484062 -0.06993483006954193 -0.0714285671710968
			vertex -0.04031778499484062 -0.06993483006954193 -0.043652016669511795
		endloop
	endfacet
	facet normal 0 -1 0
		outer loop
			vertex -0.06235845759510994 -0.06993483006954193 -0.0714285671710968
			vertex -0.04031778499484062 -0.06993483006954193 -0.043652016669511795
			vertex -0.06235845759510994 -0.06993483006954193 -0.06751544773578644
		endloop
	endfacet
	facet normal 0 -1 0
		outer loop
			vertex -0.0659726932644844 -0.06993483006954193 0.071428582072258
			vertex -0.0659726932644844 -0.06993483006954193 -0.0714285671710968
			vertex -0.06235845759510994 -0.06993483006954193 -0.06751544773578644
		endloop
	endfacet
	facet normal 0 -1 0
		outer loop
			vertex -0.0659726932644844 -0.06993483006954193 0.071428582072258
			vertex -0.06235845759510994 -0.06993483006954193 -0.06751544773578644
			vertex -0.06235845759510994 -0.06993483006954193 0.071428582072258
		endloop
	endfacet
	facet normal 0 -1 0
		outer loop
			vertex -0.0659726932644844 -0.06993483006954193 -0.0714285671710968
			vertex -0.06235845759510994 -0.06993483006954193 -0.0714285671710968
			vertex -0.06235845759510994 -0.06993483006954193 -0.06751544773578644
		endloop
	endfacet
	facet normal 0 0 1
		outer loop
			vertex 0.02795572392642498 -0.06993483006954193 0.071428582072258
			vertex 0.06597268581390381 -0.06993483006954193 0.071428582072258
			vertex 0.06597268581390381 -0.04412121698260307 0.071428582072258
		endloop
	endfacet
	facet normal 0 0 1
		outer loop
			vertex 0.026026664301753044 -0.06993483006954193 0.071428582072258
			vertex 0.02795572392642498 -0.06993483006954193 0.071428582072258
			vertex 0.06597268581390381 -0.04412121698260307 0.071428582072258
		endloop
	endfacet
	facet normal 0 0 1
		outer loop
			vertex 0.026026664301753044 -0.06993483006954193 0.071428582072258
			vertex 0.06597268581390381 -0.04412121698260307 0.071428582072258
			vertex 0.06597268581390381 -0.043304067105054855 0.071428582072258
		endloop
	endfacet
	facet normal 0 0 1
		outer loop
			vertex 0.016273660585284233 -0.06993483006954193 0.071428582072258
			vertex 0.026026664301753044 -0.06993483006954193 0.071428582072258
			vertex 0.06597268581390381 -0.043304067105054855 0.071428582072258
		endloop
	endfacet
	facet normal 0 0 1
		outer loop
			vertex 0.016273660585284233 -0.06993483006954193 0.071428582072258
			vertex 0.06597268581390381 -0.043304067105054855 0.071428582072258
			vertex 0.06597268581390381 -0.03552441671490669 0.071428582072258
		endloop
	endfacet
	facet normal 0 0 1
		outer loop
			vertex 0.020411549136042595 -0.052124183624982834 0.071428582072258
			vertex 0.021853087469935417 -0.05112915858626366 0.071428582072258
			vertex 0.020574091002345085 -0.051998164504766464 0.071428582072258
		endloop
	endfacet
	facet normal 0 0 1
		outer loop
			vertex 0.015503746457397938 -0.05663605406880379 0.071428582072258
			vertex 0.023748068138957024 -0.0498211570084095 0.071428582072258
			vertex 0.020411549136042595 -0.052124183624982834 0.071428582072258
		endloop
	endfacet
	facet normal 0 0 1
		outer loop
			vertex 0.015503746457397938 -0.05663605406880379 0.071428582072258
			vertex 0.020411549136042595 -0.052124183624982834 0.071428582072258
			vertex 0.016882074996829033 -0.05486016348004341 0.071428582072258
		endloop
	endfacet
	facet normal 0 0 1
		outer loop
			vertex 0.013413590379059315 -0.06244925037026405 0.071428582072258
			vertex 0.029089106246829033 -0.04540615901350975 0.071428582072258
			vertex 0.015503746457397938 -0.05663605406880379 0.071428582072258
		endloop
	endfacet
	facet normal 0 0 1
		outer loop
			vertex 0.013413590379059315 -0.06244925037026405 0.071428582072258
			vertex 0.015503746457397938 -0.05663605406880379 0.071428582072258
			vertex 0.01427507121115923 -0.05821915343403816 0.071428582072258
		endloop
	endfacet
	facet normal 0 0 1
		outer loop
			vertex 0.013696950860321522 -0.06993483006954193 0.071428582072258
			vertex 0.013704043813049793 -0.06993483006954193 0.071428582072258
			vertex 0.013640073128044605 -0.06910816580057144 0.071428582072258
		endloop
	endfacet
	facet normal 0 0 1
		outer loop
			vertex 0.013704043813049793 -0.06993483006954193 0.071428582072258
			vertex 0.016273660585284233 -0.06993483006954193 0.071428582072258
			vertex 0.023083699867129326 -0.06521973013877869 0.071428582072258
		endloop
	endfacet
	facet normal 0 0 1
		outer loop
			vertex 0.013704043813049793 -0.06993483006954193 0.071428582072258
			vertex 0.023083699867129326 -0.06521973013877869 0.071428582072258
			vertex 0.03377709910273552 -0.04030917212367058 0.071428582072258
		endloop
	endfacet
	facet normal 0 0 1
		outer loop
			vertex 0.013704043813049793 -0.06993483006954193 0.071428582072258
			vertex 0.03377709910273552 -0.04030917212367058 0.071428582072258
			vertex 0.013413590379059315 -0.06244925037026405 0.071428582072258
		endloop
	endfacet
	facet normal 0 0 1
		outer loop
			vertex 0.013704043813049793 -0.06993483006954193 0.071428582072258
			vertex 0.013413590379059315 -0.06244925037026405 0.071428582072258
			vertex 0.013396081514656544 -0.06253515928983688 0.071428582072258
		endloop
	endfacet
	facet normal 0 0 1
		outer loop
			vertex 0.013704043813049793 -0.06993483006954193 0.071428582072258
			vertex 0.013396081514656544 -0.06253515928983688 0.071428582072258
			vertex 0.013513085432350636 -0.06746716052293777 0.071428582072258
		endloop
	endfacet
	facet normal 0 0 1
		outer loop
			vertex 0.023083699867129326 -0.06521973013877869 0.071428582072258
			vertex 0.04818044230341911 -0.0478433333337307 0.071428582072258
			vertex 0.03534909710288048 -0.03664715960621834 0.071428582072258
		endloop
	endfacet
	facet normal 0 0 1
		outer loop
			vertex 0.04818044230341911 -0.0478433333337307 0.071428582072258
			vertex 0.06597268581390381 -0.03552441671490669 0.071428582072258
			vertex 0.06597268581390381 -0.03525015339255333 0.071428582072258
		endloop
	endfacet
	facet normal 0 0 1
		outer loop
			vertex 0.04818044230341911 -0.0478433333337307 0.071428582072258
			vertex 0.06597268581390381 -0.03525015339255333 0.071428582072258
			vertex 0.033748071640729904 -0.03525015339255333 0.071428582072258
		endloop
	endfacet
	facet normal 0 0 1
		outer loop
			vertex 0.06597268581390381 -0.03525015339255333 0.071428582072258
			vertex 0.06597268581390381 -0.014298172667622566 0.071428582072258
			vertex 0.03143308684229851 -0.03525015339255333 0.071428582072258
		endloop
	endfacet
	facet normal 0 0 1
		outer loop
			vertex 0.06597268581390381 -0.014298172667622566 0.071428582072258
			vertex 0.06597268581390381 -0.01035592146217823 0.071428582072258
			vertex 0.026072097942233086 -0.03850216791033745 0.071428582072258
		endloop
	endfacet
	facet normal 0 0 1
		outer loop
			vertex 0.06597268581390381 -0.01035592146217823 0.071428582072258
			vertex 0.06597268581390381 -0.0052660428918898106 0.071428582072258
			vertex 0.013709080405533314 -0.047223154455423355 0.071428582072258
		endloop
	endfacet
	facet normal 0 0 1
		outer loop
			vertex 0.06597268581390381 -0.0052660428918898106 0.071428582072258
			vertex 0.06597268581390381 -0.0013886264059692621 0.071428582072258
			vertex -0.002091931877657771 -0.059908170253038406 0.071428582072258
		endloop
	endfacet
	facet normal 0 0 1
		outer loop
			vertex -0.014090183191001415 -0.06993483006954193 0.071428582072258
			vertex -0.013754027895629406 -0.06993483006954193 0.071428582072258
			vertex 0.06597268581390381 -0.0013886264059692621 0.071428582072258
		endloop
	endfacet
	facet normal 0 0 1
		outer loop
			vertex -0.014090183191001415 -0.06993483006954193 0.071428582072258
			vertex 0.06597268581390381 -0.0013886264059692621 0.071428582072258
			vertex 0.06597268581390381 0.0030688473489135504 0.071428582072258
		endloop
	endfacet
	facet normal 0 0 1
		outer loop
			vertex -0.01550650130957365 -0.06993483006954193 0.071428582072258
			vertex -0.014090183191001415 -0.06993483006954193 0.071428582072258
			vertex 0.06597268581390381 0.0030688473489135504 0.071428582072258
		endloop
	endfacet
	facet normal 0 0 1
		outer loop
			vertex -0.01550650130957365 -0.06993483006954193 0.071428582072258
			vertex 0.06597268581390381 0.0030688473489135504 0.071428582072258
			vertex 0.06597268581390381 0.00922408513724804 0.071428582072258
		endloop
	endfacet
	facet normal 0 0 1
		outer loop
			vertex -0.018875526264309883 -0.06993483006954193 0.071428582072258
			vertex -0.01550650130957365 -0.06993483006954193 0.071428582072258
			vertex 0.06597268581390381 0.00922408513724804 0.071428582072258
		endloop
	endfacet
	facet normal 0 0 1
		outer loop
			vertex -0.018875526264309883 -0.06993483006954193 0.071428582072258
			vertex 0.06597268581390381 0.00922408513724804 0.071428582072258
			vertex 0.06597268581390381 0.020665956661105156 0.071428582072258
		endloop
	endfacet
	facet normal 0 0 1
		outer loop
			vertex -0.024681301787495613 -0.06993483006954193 0.071428582072258
			vertex -0.018875526264309883 -0.06993483006954193 0.071428582072258
			vertex 0.06597268581390381 0.020665956661105156 0.071428582072258
		endloop
	endfacet
	facet normal 0 0 1
		outer loop
			vertex -0.024681301787495613 -0.06993483006954193 0.071428582072258
			vertex 0.06597268581390381 0.020665956661105156 0.071428582072258
			vertex 0.06597268581390381 0.03163440153002739 0.071428582072258
		endloop
	endfacet
	facet normal 0 0 1
		outer loop
			vertex -0.024681301787495613 -0.06993483006954193 0.071428582072258
			vertex 0.06597268581390381 0.03163440153002739 0.071428582072258
			vertex 0.04896176978945732 0.022151870653033257 0.071428582072258
		endloop
	endfacet
	facet normal 0 0 1
		outer loop
			vertex 0.008303460665047169 -0.004448326770216227 0.071428582072258
			vertex 0.00828042346984148 -0.00446968013420701 0.071428582072258
			vertex 0.010476094670593739 -0.002965169260278344 0.071428582072258
		endloop
	endfacet
	facet normal 0 0 1
		outer loop
			vertex -0.04024195298552513 -0.06993483006954193 0.071428582072258
			vertex -0.024681301787495613 -0.06993483006954193 0.071428582072258
			vertex 0.04896176978945732 0.022151870653033257 0.071428582072258
		endloop
	endfacet
	facet normal 0 0 1
		outer loop
			vertex -0.04024195298552513 -0.06993483006954193 0.071428582072258
			vertex 0.04896176978945732 0.022151870653033257 0.071428582072258
			vertex 0.04684307798743248 0.02097083441913128 0.071428582072258
		endloop
	endfacet
	facet normal 0 0 1
		outer loop
			vertex -0.04024195298552513 -0.06993483006954193 0.071428582072258
			vertex 0.04684307798743248 0.02097083441913128 0.071428582072258
			vertex 0.01944108121097088 0.003177834441885352 0.071428582072258
		endloop
	endfacet
	facet normal 0 0 1
		outer loop
			vertex -0.04024195298552513 -0.06993483006954193 0.071428582072258
			vertex 0.01944108121097088 0.003177834441885352 0.071428582072258
			vertex 0.00828042346984148 -0.00446968013420701 0.071428582072258
		endloop
	endfacet
	facet normal 0 0 1
		outer loop
			vertex -0.04024195298552513 -0.06993483006954193 0.071428582072258
			vertex 0.00828042346984148 -0.00446968013420701 0.071428582072258
			vertex -0.01790209300816059 -0.028734559193253517 0.071428582072258
		endloop
	endfacet
	facet normal 0 0 1
		outer loop
			vertex -0.04031778499484062 -0.06993483006954193 0.071428582072258
			vertex -0.04024195298552513 -0.06993483006954193 0.071428582072258
			vertex -0.01790209300816059 -0.028734559193253517 0.071428582072258
		endloop
	endfacet
	facet normal 0 0 1
		outer loop
			vertex -0.04031778499484062 -0.06993483006954193 0.071428582072258
			vertex -0.01790209300816059 -0.028734559193253517 0.071428582072258
			vertex -0.018160918727517128 -0.028974385932087898 0.071428582072258
		endloop
	endfacet
	facet normal 0 0 1
		outer loop
			vertex -0.06235845759510994 -0.06993483006954193 0.071428582072258
			vertex -0.04031778499484062 -0.06993483006954193 0.071428582072258
			vertex -0.018160918727517128 -0.028974385932087898 0.071428582072258
		endloop
	endfacet
	facet normal 0 0 1
		outer loop
			vertex -0.0659726932644844 -0.05514559522271156 0.071428582072258
			vertex -0.0659726932644844 -0.055153604596853256 0.071428582072258
			vertex -0.062319133430719376 -0.05265947803854942 0.071428582072258
		endloop
	endfacet
	facet normal 0 0 1
		outer loop
			vertex -0.0659726932644844 -0.055153604596853256 0.071428582072258
			vertex -0.0659726932644844 -0.055166859179735184 0.071428582072258
			vertex -0.05679892376065254 -0.048903170973062515 0.071428582072258
		endloop
	endfacet
	facet normal 0 0 1
		outer loop
			vertex -0.0659726932644844 -0.055153604596853256 0.071428582072258
			vertex -0.05679892376065254 -0.048903170973062515 0.071428582072258
			vertex -0.062319133430719376 -0.05265947803854942 0.071428582072258
		endloop
	endfacet
	facet normal 0 0 1
		outer loop
			vertex -0.0659726932644844 -0.055166859179735184 0.071428582072258
			vertex -0.0659726932644844 -0.05517430230975151 0.071428582072258
			vertex -0.02682962454855442 -0.028440939262509346 0.071428582072258
		endloop
	endfacet
	facet normal 0 0 1
		outer loop
			vertex -0.0659726932644844 -0.055166859179735184 0.071428582072258
			vertex -0.02682962454855442 -0.028440939262509346 0.071428582072258
			vertex -0.026828939095139503 -0.028440216556191444 0.071428582072258
		endloop
	endfacet
	facet normal 0 0 1
		outer loop
			vertex -0.026828939095139503 -0.028440216556191444 0.071428582072258
			vertex -0.02682962454855442 -0.028440939262509346 0.071428582072258
			vertex -0.02546091563999653 -0.0275061447173357 0.071428582072258
		endloop
	endfacet
	facet normal 0 0 1
		outer loop
			vertex -0.0659726932644844 -0.05517430230975151 0.071428582072258
			vertex -0.0659726932644844 -0.06993483006954193 0.071428582072258
			vertex -0.02682962454855442 -0.028440939262509346 0.071428582072258
		endloop
	endfacet
	facet normal 0 0 1
		outer loop
			vertex -0.0659726932644844 -0.06993483006954193 0.071428582072258
			vertex -0.06235845759510994 -0.06993483006954193 0.071428582072258
			vertex 0.008303460665047169 -0.004448326770216227 0.071428582072258
		endloop
	endfacet
	facet normal 0 0 1
		outer loop
			vertex -0.0659726932644844 -0.06993483006954193 0.071428582072258
			vertex 0.008303460665047169 -0.004448326770216227 0.071428582072258
			vertex 0.0014920952962711453 -0.009098174050450325 0.071428582072258
		endloop
	endfacet
	facet normal 0 0 1
		outer loop
			vertex -0.0659726932644844 -0.06993483006954193 0.071428582072258
			vertex 0.0014920952962711453 -0.009098174050450325 0.071428582072258
			vertex -0.02682962454855442 -0.028440939262509346 0.071428582072258
		endloop
	endfacet
	facet normal 0 0 -1
		outer loop
			vertex 0.06597268581390381 -0.04412121698260307 -0.0714285671710968
			vertex 0.06597268581390381 -0.06993483006954193 -0.0714285671710968
			vertex 0.05112924799323082 -0.0541999526321888 -0.0714285671710968
		endloop
	endfacet
	facet normal 0 0 -1
		outer loop
			vertex 0.06597268581390381 -0.06993483006954193 -0.0714285671710968
			vertex 0.02795572392642498 -0.06993483006954193 -0.0714285671710968
			vertex 0.05112924799323082 -0.0541999526321888 -0.0714285671710968
		endloop
	endfacet
	facet normal 0 0 -1
		outer loop
			vertex 0.06597268581390381 -0.043304067105054855 -0.0714285671710968
			vertex 0.06597268581390381 -0.04412121698260307 -0.0714285671710968
			vertex 0.05112924799323082 -0.0541999526321888 -0.0714285671710968
		endloop
	endfacet
	facet normal 0 0 -1
		outer loop
			vertex 0.06597268581390381 -0.043304067105054855 -0.0714285671710968
			vertex 0.05112924799323082 -0.0541999526321888 -0.0714285671710968
			vertex 0.050549980252981186 -0.053585898131132126 -0.0714285671710968
		endloop
	endfacet
	facet normal 0 0 -1
		outer loop
			vertex 0.02795572392642498 -0.06993483006954193 -0.0714285671710968
			vertex 0.026026664301753044 -0.06993483006954193 -0.0714285671710968
			vertex 0.050549980252981186 -0.053585898131132126 -0.0714285671710968
		endloop
	endfacet
	facet normal 0 0 -1
		outer loop
			vertex 0.02795572392642498 -0.06993483006954193 -0.0714285671710968
			vertex 0.050549980252981186 -0.053585898131132126 -0.0714285671710968
			vertex 0.05112924799323082 -0.0541999526321888 -0.0714285671710968
		endloop
	endfacet
	facet normal 0 0 -1
		outer loop
			vertex 0.06597268581390381 -0.03552441671490669 -0.0714285671710968
			vertex 0.06597268581390381 -0.043304067105054855 -0.0714285671710968
			vertex 0.050549980252981186 -0.053585898131132126 -0.0714285671710968
		endloop
	endfacet
	facet normal 0 0 -1
		outer loop
			vertex 0.06597268581390381 -0.03552441671490669 -0.0714285671710968
			vertex 0.050549980252981186 -0.053585898131132126 -0.0714285671710968
			vertex 0.04633691534399986 -0.04911976680159569 -0.0714285671710968
		endloop
	endfacet
	facet normal 0 0 -1
		outer loop
			vertex 0.026026664301753044 -0.06993483006954193 -0.0714285671710968
			vertex 0.016273660585284233 -0.06993483006954193 -0.0714285671710968
			vertex 0.04633691534399986 -0.04911976680159569 -0.0714285671710968
		endloop
	endfacet
	facet normal 0 0 -1
		outer loop
			vertex 0.026026664301753044 -0.06993483006954193 -0.0714285671710968
			vertex 0.04633691534399986 -0.04911976680159569 -0.0714285671710968
			vertex 0.050549980252981186 -0.053585898131132126 -0.0714285671710968
		endloop
	endfacet
	facet normal 0 0 -1
		outer loop
			vertex 0.020574091002345085 -0.051998164504766464 -0.0714285671710968
			vertex 0.021853087469935417 -0.05112915858626366 -0.0714285671710968
			vertex 0.020411549136042595 -0.052124183624982834 -0.0714285671710968
		endloop
	endfacet
	facet normal 0 0 -1
		outer loop
			vertex 0.016882074996829033 -0.05486016348004341 -0.0714285671710968
			vertex 0.020411549136042595 -0.052124183624982834 -0.0714285671710968
			vertex 0.023748068138957024 -0.0498211570084095 -0.0714285671710968
		endloop
	endfacet
	facet normal 0 0 -1
		outer loop
			vertex 0.016882074996829033 -0.05486016348004341 -0.0714285671710968
			vertex 0.023748068138957024 -0.0498211570084095 -0.0714285671710968
			vertex 0.015503746457397938 -0.05663605406880379 -0.0714285671710968
		endloop
	endfacet
	facet normal 0 0 -1
		outer loop
			vertex 0.01427507121115923 -0.05821915343403816 -0.0714285671710968
			vertex 0.015503746457397938 -0.05663605406880379 -0.0714285671710968
			vertex 0.029089106246829033 -0.04540615901350975 -0.0714285671710968
		endloop
	endfacet
	facet normal 0 0 -1
		outer loop
			vertex 0.01427507121115923 -0.05821915343403816 -0.0714285671710968
			vertex 0.029089106246829033 -0.04540615901350975 -0.0714285671710968
			vertex 0.013413590379059315 -0.06244925037026405 -0.0714285671710968
		endloop
	endfacet
	facet normal 0 0 -1
		outer loop
			vertex 0.013704043813049793 -0.06993483006954193 -0.0714285671710968
			vertex 0.013696950860321522 -0.06993483006954193 -0.0714285671710968
			vertex 0.013640073128044605 -0.06910816580057144 -0.0714285671710968
		endloop
	endfacet
	facet normal 0 0 -1
		outer loop
			vertex 0.016273660585284233 -0.06993483006954193 -0.0714285671710968
			vertex 0.013704043813049793 -0.06993483006954193 -0.0714285671710968
			vertex 0.013513085432350636 -0.06746716052293777 -0.0714285671710968
		endloop
	endfacet
	facet normal 0 0 -1
		outer loop
			vertex 0.016273660585284233 -0.06993483006954193 -0.0714285671710968
			vertex 0.013513085432350636 -0.06746716052293777 -0.0714285671710968
			vertex 0.013396081514656544 -0.06253515928983688 -0.0714285671710968
		endloop
	endfacet
	facet normal 0 0 -1
		outer loop
			vertex 0.016273660585284233 -0.06993483006954193 -0.0714285671710968
			vertex 0.013396081514656544 -0.06253515928983688 -0.0714285671710968
			vertex 0.013413590379059315 -0.06244925037026405 -0.0714285671710968
		endloop
	endfacet
	facet normal 0 0 -1
		outer loop
			vertex 0.016273660585284233 -0.06993483006954193 -0.0714285671710968
			vertex 0.013413590379059315 -0.06244925037026405 -0.0714285671710968
			vertex 0.03377709910273552 -0.04030917212367058 -0.0714285671710968
		endloop
	endfacet
	facet normal 0 0 -1
		outer loop
			vertex 0.016273660585284233 -0.06993483006954193 -0.0714285671710968
			vertex 0.03377709910273552 -0.04030917212367058 -0.0714285671710968
			vertex 0.023083699867129326 -0.06521973013877869 -0.0714285671710968
		endloop
	endfacet
	facet normal 0 0 -1
		outer loop
			vertex 0.04818044230341911 -0.0478433333337307 -0.0714285671710968
			vertex 0.04633691534399986 -0.04911976680159569 -0.0714285671710968
			vertex 0.035105716437101364 -0.03721409663558006 -0.0714285671710968
		endloop
	endfacet
	facet normal 0 0 -1
		outer loop
			vertex 0.04818044230341911 -0.0478433333337307 -0.0714285671710968
			vertex 0.035105716437101364 -0.03721409663558006 -0.0714285671710968
			vertex 0.03534909710288048 -0.03664715960621834 -0.0714285671710968
		endloop
	endfacet
	facet normal 0 0 -1
		outer loop
			vertex 0.035105716437101364 -0.03721409663558006 -0.0714285671710968
			vertex 0.04633691534399986 -0.04911976680159569 -0.0714285671710968
			vertex 0.023083699867129326 -0.06521973013877869 -0.0714285671710968
		endloop
	endfacet
	facet normal 0 0 -1
		outer loop
			vertex 0.06597268581390381 -0.03525015339255333 -0.0714285671710968
			vertex 0.06597268581390381 -0.03552441671490669 -0.0714285671710968
			vertex 0.04818044230341911 -0.0478433333337307 -0.0714285671710968
		endloop
	endfacet
	facet normal 0 0 -1
		outer loop
			vertex 0.06597268581390381 -0.03525015339255333 -0.0714285671710968
			vertex 0.04818044230341911 -0.0478433333337307 -0.0714285671710968
			vertex 0.033748071640729904 -0.03525015339255333 -0.0714285671710968
		endloop
	endfacet
	facet normal 0 0 -1
		outer loop
			vertex 0.06597268581390381 -0.014298172667622566 -0.0714285671710968
			vertex 0.06597268581390381 -0.03525015339255333 -0.0714285671710968
			vertex 0.03325306996703148 -0.03525015339255333 -0.0714285671710968
		endloop
	endfacet
	facet normal 0 0 -1
		outer loop
			vertex 0.06597268581390381 -0.014298172667622566 -0.0714285671710968
			vertex 0.03325306996703148 -0.03525015339255333 -0.0714285671710968
			vertex 0.032590653747320175 -0.034547965973615646 -0.0714285671710968
		endloop
	endfacet
	facet normal 0 0 -1
		outer loop
			vertex 0.03143308684229851 -0.03525015339255333 -0.0714285671710968
			vertex 0.032590653747320175 -0.034547965973615646 -0.0714285671710968
			vertex 0.03325306996703148 -0.03525015339255333 -0.0714285671710968
		endloop
	endfacet
	facet normal 0 0 -1
		outer loop
			vertex 0.06597268581390381 -0.01035592146217823 -0.0714285671710968
			vertex 0.06597268581390381 -0.014298172667622566 -0.0714285671710968
			vertex 0.032590653747320175 -0.034547965973615646 -0.0714285671710968
		endloop
	endfacet
	facet normal 0 0 -1
		outer loop
			vertex 0.06597268581390381 -0.01035592146217823 -0.0714285671710968
			vertex 0.032590653747320175 -0.034547965973615646 -0.0714285671710968
			vertex 0.03222585842013359 -0.03416125103831291 -0.0714285671710968
		endloop
	endfacet
	facet normal 0 0 -1
		outer loop
			vertex 0.026072097942233086 -0.03850216791033745 -0.0714285671710968
			vertex 0.03222585842013359 -0.03416125103831291 -0.0714285671710968
			vertex 0.032590653747320175 -0.034547965973615646 -0.0714285671710968
		endloop
	endfacet
	facet normal 0 0 -1
		outer loop
			vertex 0.06597268581390381 -0.0052660428918898106 -0.0714285671710968
			vertex 0.06597268581390381 -0.01035592146217823 -0.0714285671710968
			vertex 0.03222585842013359 -0.03416125103831291 -0.0714285671710968
		endloop
	endfacet
	facet normal 0 0 -1
		outer loop
			vertex 0.06597268581390381 -0.0052660428918898106 -0.0714285671710968
			vertex 0.03222585842013359 -0.03416125103831291 -0.0714285671710968
			vertex 0.031257789582014084 -0.033135075122117996 -0.0714285671710968
		endloop
	endfacet
	facet normal 0 0 -1
		outer loop
			vertex 0.013709080405533314 -0.047223154455423355 -0.0714285671710968
			vertex 0.031257789582014084 -0.033135075122117996 -0.0714285671710968
			vertex 0.03222585842013359 -0.03416125103831291 -0.0714285671710968
		endloop
	endfacet
	facet normal 0 0 -1
		outer loop
			vertex 0.06597268581390381 -0.0013886264059692621 -0.0714285671710968
			vertex 0.06597268581390381 -0.0052660428918898106 -0.0714285671710968
			vertex 0.031257789582014084 -0.033135075122117996 -0.0714285671710968
		endloop
	endfacet
	facet normal 0 0 -1
		outer loop
			vertex 0.06597268581390381 -0.0013886264059692621 -0.0714285671710968
			vertex 0.031257789582014084 -0.033135075122117996 -0.0714285671710968
			vertex 0.030268220230937004 -0.03208605572581291 -0.0714285671710968
		endloop
	endfacet
	facet normal 0 0 -1
		outer loop
			vertex -0.002091931877657771 -0.059908170253038406 -0.0714285671710968
			vertex 0.030268220230937004 -0.03208605572581291 -0.0714285671710968
			vertex 0.031257789582014084 -0.033135075122117996 -0.0714285671710968
		endloop
	endfacet
	facet normal 0 0 -1
		outer loop
			vertex 0.06597268581390381 0.0030688473489135504 -0.0714285671710968
			vertex 0.06597268581390381 -0.0013886264059692621 -0.0714285671710968
			vertex 0.030268220230937004 -0.03208605572581291 -0.0714285671710968
		endloop
	endfacet
	facet normal 0 0 -1
		outer loop
			vertex 0.06597268581390381 0.0030688473489135504 -0.0714285671710968
			vertex 0.030268220230937004 -0.03208605572581291 -0.0714285671710968
			vertex 0.028950436040759087 -0.03068912960588932 -0.0714285671710968
		endloop
	endfacet
	facet normal 0 0 -1
		outer loop
			vertex -0.013754027895629406 -0.06993483006954193 -0.0714285671710968
			vertex -0.014090183191001415 -0.06993483006954193 -0.0714285671710968
			vertex 0.028950436040759087 -0.03068912960588932 -0.0714285671710968
		endloop
	endfacet
	facet normal 0 0 -1
		outer loop
			vertex -0.013754027895629406 -0.06993483006954193 -0.0714285671710968
			vertex 0.028950436040759087 -0.03068912960588932 -0.0714285671710968
			vertex 0.030268220230937004 -0.03208605572581291 -0.0714285671710968
		endloop
	endfacet
	facet normal 0 0 -1
		outer loop
			vertex 0.06597268581390381 0.00922408513724804 -0.0714285671710968
			vertex 0.06597268581390381 0.0030688473489135504 -0.0714285671710968
			vertex 0.028950436040759087 -0.03068912960588932 -0.0714285671710968
		endloop
	endfacet
	facet normal 0 0 -1
		outer loop
			vertex 0.06597268581390381 0.00922408513724804 -0.0714285671710968
			vertex 0.028950436040759087 -0.03068912960588932 -0.0714285671710968
			vertex 0.027008486911654472 -0.02863052673637867 -0.0714285671710968
		endloop
	endfacet
	facet normal 0 0 -1
		outer loop
			vertex -0.014090183191001415 -0.06993483006954193 -0.0714285671710968
			vertex -0.01550650130957365 -0.06993483006954193 -0.0714285671710968
			vertex 0.027008486911654472 -0.02863052673637867 -0.0714285671710968
		endloop
	endfacet
	facet normal 0 0 -1
		outer loop
			vertex -0.014090183191001415 -0.06993483006954193 -0.0714285671710968
			vertex 0.027008486911654472 -0.02863052673637867 -0.0714285671710968
			vertex 0.028950436040759087 -0.03068912960588932 -0.0714285671710968
		endloop
	endfacet
	facet normal 0 0 -1
		outer loop
			vertex 0.06597268581390381 0.020665956661105156 -0.0714285671710968
			vertex 0.06597268581390381 0.00922408513724804 -0.0714285671710968
			vertex 0.027008486911654472 -0.02863052673637867 -0.0714285671710968
		endloop
	endfacet
	facet normal 0 0 -1
		outer loop
			vertex 0.06597268581390381 0.020665956661105156 -0.0714285671710968
			vertex 0.027008486911654472 -0.02863052673637867 -0.0714285671710968
			vertex 0.023394254967570305 -0.02479923702776432 -0.0714285671710968
		endloop
	endfacet
	facet normal 0 0 -1
		outer loop
			vertex -0.01550650130957365 -0.06993483006954193 -0.0714285671710968
			vertex -0.018875526264309883 -0.06993483006954193 -0.0714285671710968
			vertex 0.023394254967570305 -0.02479923702776432 -0.0714285671710968
		endloop
	endfacet
	facet normal 0 0 -1
		outer loop
			vertex -0.01550650130957365 -0.06993483006954193 -0.0714285671710968
			vertex 0.023394254967570305 -0.02479923702776432 -0.0714285671710968
			vertex 0.027008486911654472 -0.02863052673637867 -0.0714285671710968
		endloop
	endfacet
	facet normal 0 0 -1
		outer loop
			vertex 0.06597268581390381 0.03163440153002739 -0.0714285671710968
			vertex 0.06597268581390381 0.020665956661105156 -0.0714285671710968
			vertex 0.023394254967570305 -0.02479923702776432 -0.0714285671710968
		endloop
	endfacet
	facet normal 0 0 -1
		outer loop
			vertex 0.06597268581390381 0.03163440153002739 -0.0714285671710968
			vertex 0.023394254967570305 -0.02479923702776432 -0.0714285671710968
			vertex 0.01691068522632122 -0.017926299944519997 -0.0714285671710968
		endloop
	endfacet
	facet normal 0 0 -1
		outer loop
			vertex 0.06597268581390381 0.03163440153002739 -0.0714285671710968
			vertex 0.01691068522632122 -0.017926299944519997 -0.0714285671710968
			vertex 0.04896176978945732 0.022151870653033257 -0.0714285671710968
		endloop
	endfacet
	facet normal 0 0 -1
		outer loop
			vertex -0.018875526264309883 -0.06993483006954193 -0.0714285671710968
			vertex -0.024681301787495613 -0.06993483006954193 -0.0714285671710968
			vertex 0.01691068522632122 -0.017926299944519997 -0.0714285671710968
		endloop
	endfacet
	facet normal 0 0 -1
		outer loop
			vertex -0.018875526264309883 -0.06993483006954193 -0.0714285671710968
			vertex 0.01691068522632122 -0.017926299944519997 -0.0714285671710968
			vertex 0.023394254967570305 -0.02479923702776432 -0.0714285671710968
		endloop
	endfacet
	facet normal 0 0 -1
		outer loop
			vertex 0.00828042346984148 -0.00446968013420701 -0.0714285671710968
			vertex 0.008303460665047169 -0.004448326770216227 -0.0714285671710968
			vertex 0.010476094670593739 -0.002965169260278344 -0.0714285671710968
		endloop
	endfacet
	facet normal 0 0 -1
		outer loop
			vertex 0.04896176978945732 0.022151870653033257 -0.0714285671710968
			vertex 0.01691068522632122 -0.017926299944519997 -0.0714285671710968
			vertex 0.006112110801041126 -0.00647919112816453 -0.0714285671710968
		endloop
	endfacet
	facet normal 0 0 -1
		outer loop
			vertex 0.04896176978945732 0.022151870653033257 -0.0714285671710968
			vertex 0.006112110801041126 -0.00647919112816453 -0.0714285671710968
			vertex 0.00828042346984148 -0.00446968013420701 -0.0714285671710968
		endloop
	endfacet
	facet normal 0 0 -1
		outer loop
			vertex 0.04896176978945732 0.022151870653033257 -0.0714285671710968
			vertex 0.00828042346984148 -0.00446968013420701 -0.0714285671710968
			vertex 0.01944108121097088 0.003177834441885352 -0.0714285671710968
		endloop
	endfacet
	facet normal 0 0 -1
		outer loop
			vertex 0.04896176978945732 0.022151870653033257 -0.0714285671710968
			vertex 0.01944108121097088 0.003177834441885352 -0.0714285671710968
			vertex 0.04684307798743248 0.02097083441913128 -0.0714285671710968
		endloop
	endfacet
	facet normal 0 0 -1
		outer loop
			vertex -0.024681301787495613 -0.06993483006954193 -0.0714285671710968
			vertex -0.04024195298552513 -0.06993483006954193 -0.0714285671710968
			vertex -0.01790209300816059 -0.028734559193253517 -0.0714285671710968
		endloop
	endfacet
	facet normal 0 0 -1
		outer loop
			vertex -0.024681301787495613 -0.06993483006954193 -0.0714285671710968
			vertex -0.01790209300816059 -0.028734559193253517 -0.0714285671710968
			vertex 0.006112110801041126 -0.00647919112816453 -0.0714285671710968
		endloop
	endfacet
	facet normal 0 0 -1
		outer loop
			vertex -0.024681301787495613 -0.06993483006954193 -0.0714285671710968
			vertex 0.006112110801041126 -0.00647919112816453 -0.0714285671710968
			vertex 0.01691068522632122 -0.017926299944519997 -0.0714285671710968
		endloop
	endfacet
	facet normal 0 0 -1
		outer loop
			vertex -0.04024195298552513 -0.06993483006954193 -0.0714285671710968
			vertex -0.04031778499484062 -0.06993483006954193 -0.0714285671710968
			vertex -0.018160918727517128 -0.028974385932087898 -0.0714285671710968
		endloop
	endfacet
	facet normal 0 0 -1
		outer loop
			vertex -0.04024195298552513 -0.06993483006954193 -0.0714285671710968
			vertex -0.018160918727517128 -0.028974385932087898 -0.0714285671710968
			vertex -0.01790209300816059 -0.028734559193253517 -0.0714285671710968
		endloop
	endfacet
	facet normal 0 0 -1
		outer loop
			vertex -0.04031778499484062 -0.06993483006954193 -0.0714285671710968
			vertex -0.06235845759510994 -0.06993483006954193 -0.0714285671710968
			vertex -0.018160918727517128 -0.028974385932087898 -0.0714285671710968
		endloop
	endfacet
	facet normal 0 0 -1
		outer loop
			vertex -0.0659726932644844 -0.055153604596853256 -0.0714285671710968
			vertex -0.0659726932644844 -0.05514559522271156 -0.0714285671710968
			vertex -0.062319133430719376 -0.05265947803854942 -0.0714285671710968
		endloop
	endfacet
	facet normal 0 0 -1
		outer loop
			vertex -0.0659726932644844 -0.055166859179735184 -0.0714285671710968
			vertex -0.0659726932644844 -0.055153604596853256 -0.0714285671710968
			vertex -0.062319133430719376 -0.05265947803854942 -0.0714285671710968
		endloop
	endfacet
	facet normal 0 0 -1
		outer loop
			vertex -0.0659726932644844 -0.055166859179735184 -0.0714285671710968
			vertex -0.062319133430719376 -0.05265947803854942 -0.0714285671710968
			vertex -0.05679892376065254 -0.048903170973062515 -0.0714285671710968
		endloop
	endfacet
	facet normal 0 0 -1
		outer loop
			vertex -0.0659726932644844 -0.05517430230975151 -0.0714285671710968
			vertex -0.0659726932644844 -0.055166859179735184 -0.0714285671710968
			vertex -0.02546091563999653 -0.0275061447173357 -0.0714285671710968
		endloop
	endfacet
	facet normal 0 0 -1
		outer loop
			vertex 0.008303460665047169 -0.004448326770216227 -0.0714285671710968
			vertex 0.006112110801041126 -0.00647919112816453 -0.0714285671710968
			vertex 0.005805176682770252 -0.0061537944711744785 -0.0714285671710968
		endloop
	endfacet
	facet normal 0 0 -1
		outer loop
			vertex -0.06235845759510994 -0.06993483006954193 -0.0714285671710968
			vertex -0.0659726932644844 -0.06993483006954193 -0.0714285671710968
			vertex -0.0659726932644844 -0.05517430230975151 -0.0714285671710968
		endloop
	endfacet
	facet normal 0 0 -1
		outer loop
			vertex -0.06235845759510994 -0.06993483006954193 -0.0714285671710968
			vertex -0.0659726932644844 -0.05517430230975151 -0.0714285671710968
			vertex 0.0014920952962711453 -0.009098174050450325 -0.0714285671710968
		endloop
	endfacet
	facet normal 0 0 -1
		outer loop
			vertex -0.06235845759510994 -0.06993483006954193 -0.0714285671710968
			vertex 0.0014920952962711453 -0.009098174050450325 -0.0714285671710968
			vertex 0.005805176682770252 -0.0061537944711744785 -0.0714285671710968
		endloop
	endfacet
	facet normal 0 0 -1
		outer loop
			vertex -0.06235845759510994 -0.06993483006954193 -0.0714285671710968
			vertex 0.005805176682770252 -0.0061537944711744785 -0.0714285671710968
			vertex 0.006112110801041126 -0.00647919112816453 -0.0714285671710968
		endloop
	endfacet
endsolid exported
