solid exported
	facet normal 0 0 1
		outer loop
			vertex 0.01944108121097088 0.003177834441885352 0.0714285746216774
			vertex 0.033748071640729904 -0.03525015339255333 0.0714285746216774
			vertex 0.04684307798743248 0.02097083441913128 0.0714285746216774
		endloop
	endfacet
	facet normal 0 0 1
		outer loop
			vertex -0.05679892376065254 -0.048903170973062515 0.0714285746216774
			vertex -0.026848549023270607 -0.06993483006954193 0.0714285746216774
			vertex -0.02026117779314518 -0.06993483006954193 0.0714285746216774
		endloop
	endfacet
	facet normal 0 0 1
		outer loop
			vertex -0.05679892376065254 -0.048903170973062515 0.0714285746216774
			vertex -0.02026117779314518 -0.06993483006954193 0.0714285746216774
			vertex -0.02546091563999653 -0.0275061447173357 0.0714285746216774
		endloop
	endfacet
	facet normal 0 0 1
		outer loop
			vertex 0.020574091002345085 -0.051998164504766464 0.0714285746216774
			vertex 0.013396081514656544 -0.06253515928983688 0.0714285746216774
			vertex 0.013513085432350636 -0.06746716052293777 0.0714285746216774
		endloop
	endfacet
	facet normal 0 0 1
		outer loop
			vertex -0.02546091563999653 -0.0275061447173357 0.0714285746216774
			vertex 0.013709080405533314 -0.047223154455423355 0.0714285746216774
			vertex 0.0014920952962711453 -0.009098174050450325 0.0714285746216774
		endloop
	endfacet
	facet normal 0 0 1
		outer loop
			vertex 0.016882074996829033 -0.05486016348004341 0.0714285746216774
			vertex 0.013396081514656544 -0.06253515928983688 0.0714285746216774
			vertex 0.020574091002345085 -0.051998164504766464 0.0714285746216774
		endloop
	endfacet
	facet normal 0 0 1
		outer loop
			vertex -0.046966802328825 -0.06993483006954193 0.0714285746216774
			vertex -0.05679892376065254 -0.048903170973062515 0.0714285746216774
			vertex -0.0659726932644844 -0.05514559522271156 0.0714285746216774
		endloop
	endfacet
	facet normal 0 0 1
		outer loop
			vertex -0.046966802328825 -0.06993483006954193 0.0714285746216774
			vertex -0.0659726932644844 -0.05514559522271156 0.0714285746216774
			vertex -0.0659726932644844 -0.06993483006954193 0.0714285746216774
		endloop
	endfacet
	facet normal 0 0 1
		outer loop
			vertex 0.0014920952962711453 -0.009098174050450325 0.0714285746216774
			vertex 0.026072097942233086 -0.03850216791033745 0.0714285746216774
			vertex 0.010476094670593739 -0.002965169260278344 0.0714285746216774
		endloop
	endfacet
	facet normal 0 0 1
		outer loop
			vertex 0.010476094670593739 -0.002965169260278344 0.0714285746216774
			vertex 0.03143308684229851 -0.03525015339255333 0.0714285746216774
			vertex 0.01944108121097088 0.003177834441885352 0.0714285746216774
		endloop
	endfacet
	facet normal 0 0 1
		outer loop
			vertex 0.026072097942233086 -0.03850216791033745 0.0714285746216774
			vertex 0.03143308684229851 -0.03525015339255333 0.0714285746216774
			vertex 0.010476094670593739 -0.002965169260278344 0.0714285746216774
		endloop
	endfacet
	facet normal 0 0 1
		outer loop
			vertex 0.013696950860321522 -0.06993483006954193 0.0714285746216774
			vertex 0.01608155481517315 -0.06993483006954193 0.0714285746216774
			vertex 0.013640073128044605 -0.06910816580057144 0.0714285746216774
		endloop
	endfacet
	facet normal 0 0 1
		outer loop
			vertex 0.06597268581390381 0.0008892395999282598 0.0714285746216774
			vertex 0.04684307798743248 0.02097083441913128 0.0714285746216774
			vertex 0.03534909710288048 -0.03664715960621834 0.0714285746216774
		endloop
	endfacet
	facet normal 0 0 1
		outer loop
			vertex 0.06597268581390381 0.0008892395999282598 0.0714285746216774
			vertex 0.03534909710288048 -0.03664715960621834 0.0714285746216774
			vertex 0.06597268581390381 -0.03820717707276344 0.0714285746216774
		endloop
	endfacet
	facet normal 0 0 1
		outer loop
			vertex 0.01608155481517315 -0.06993483006954193 0.0714285746216774
			vertex 0.045906420797109604 -0.06993483006954193 0.0714285746216774
			vertex 0.023748068138957024 -0.0498211570084095 0.0714285746216774
		endloop
	endfacet
	facet normal 0 0 1
		outer loop
			vertex 0.01608155481517315 -0.06993483006954193 0.0714285746216774
			vertex 0.023748068138957024 -0.0498211570084095 0.0714285746216774
			vertex 0.013640073128044605 -0.06910816580057144 0.0714285746216774
		endloop
	endfacet
	facet normal 0 0 1
		outer loop
			vertex 0.06597268581390381 -0.058965880423784256 0.0714285746216774
			vertex 0.06597268581390381 -0.04675402119755745 0.0714285746216774
			vertex 0.03534909710288048 -0.03664715960621834 0.0714285746216774
		endloop
	endfacet
	facet normal 0 0 1
		outer loop
			vertex 0.023748068138957024 -0.0498211570084095 0.0714285746216774
			vertex 0.021853087469935417 -0.05112915858626366 0.0714285746216774
			vertex 0.013640073128044605 -0.06910816580057144 0.0714285746216774
		endloop
	endfacet
	facet normal 0 0 1
		outer loop
			vertex 0.021853087469935417 -0.05112915858626366 0.0714285746216774
			vertex 0.013513085432350636 -0.06746716052293777 0.0714285746216774
			vertex 0.013640073128044605 -0.06910816580057144 0.0714285746216774
		endloop
	endfacet
	facet normal 0 0 1
		outer loop
			vertex 0.021853087469935417 -0.05112915858626366 0.0714285746216774
			vertex 0.020574091002345085 -0.051998164504766464 0.0714285746216774
			vertex 0.013513085432350636 -0.06746716052293777 0.0714285746216774
		endloop
	endfacet
	facet normal 0 0 1
		outer loop
			vertex 0.016882074996829033 -0.05486016348004341 0.0714285746216774
			vertex 0.01427507121115923 -0.05821915343403816 0.0714285746216774
			vertex 0.013396081514656544 -0.06253515928983688 0.0714285746216774
		endloop
	endfacet
	facet normal 0 0 1
		outer loop
			vertex 0.04785607382655144 -0.06993483006954193 0.0714285746216774
			vertex 0.023748068138957024 -0.0498211570084095 0.0714285746216774
			vertex 0.045906420797109604 -0.06993483006954193 0.0714285746216774
		endloop
	endfacet
	facet normal 0 0 1
		outer loop
			vertex 0.051748257130384445 -0.06993483006954193 0.0714285746216774
			vertex 0.029089106246829033 -0.04540615901350975 0.0714285746216774
			vertex 0.023748068138957024 -0.0498211570084095 0.0714285746216774
		endloop
	endfacet
	facet normal 0 0 1
		outer loop
			vertex 0.051748257130384445 -0.06993483006954193 0.0714285746216774
			vertex 0.023748068138957024 -0.0498211570084095 0.0714285746216774
			vertex 0.04785607382655144 -0.06993483006954193 0.0714285746216774
		endloop
	endfacet
	facet normal 0 0 1
		outer loop
			vertex 0.05857930704951286 -0.06993483006954193 0.0714285746216774
			vertex 0.029089106246829033 -0.04540615901350975 0.0714285746216774
			vertex 0.051748257130384445 -0.06993483006954193 0.0714285746216774
		endloop
	endfacet
	facet normal 0 0 1
		outer loop
			vertex 0.029089106246829033 -0.04540615901350975 0.0714285746216774
			vertex 0.05857930704951286 -0.06993483006954193 0.0714285746216774
			vertex 0.061052482575178146 -0.06993483006954193 0.0714285746216774
		endloop
	endfacet
	facet normal 0 0 1
		outer loop
			vertex 0.029089106246829033 -0.04540615901350975 0.0714285746216774
			vertex 0.061052482575178146 -0.06993483006954193 0.0714285746216774
			vertex 0.03377709910273552 -0.04030917212367058 0.0714285746216774
		endloop
	endfacet
	facet normal 0 0 1
		outer loop
			vertex 0.061052482575178146 -0.06993483006954193 0.0714285746216774
			vertex 0.06597268581390381 -0.06993483006954193 0.0714285746216774
			vertex 0.06597268581390381 -0.060309093445539474 0.0714285746216774
		endloop
	endfacet
	facet normal 0 0 1
		outer loop
			vertex 0.061052482575178146 -0.06993483006954193 0.0714285746216774
			vertex 0.06597268581390381 -0.060309093445539474 0.0714285746216774
			vertex 0.03377709910273552 -0.04030917212367058 0.0714285746216774
		endloop
	endfacet
	facet normal 0 0 1
		outer loop
			vertex 0.06597268581390381 -0.060309093445539474 0.0714285746216774
			vertex 0.06597268581390381 -0.058965880423784256 0.0714285746216774
			vertex 0.03534909710288048 -0.03664715960621834 0.0714285746216774
		endloop
	endfacet
	facet normal 0 0 1
		outer loop
			vertex 0.06597268581390381 -0.060309093445539474 0.0714285746216774
			vertex 0.03534909710288048 -0.03664715960621834 0.0714285746216774
			vertex 0.03377709910273552 -0.04030917212367058 0.0714285746216774
		endloop
	endfacet
	facet normal 0 0 1
		outer loop
			vertex 0.06597268581390381 -0.04675402119755745 0.0714285746216774
			vertex 0.06597268581390381 -0.03820717707276344 0.0714285746216774
			vertex 0.03534909710288048 -0.03664715960621834 0.0714285746216774
		endloop
	endfacet
	facet normal 0 0 1
		outer loop
			vertex 0.06597268581390381 0.03163440153002739 0.0714285746216774
			vertex 0.04684307798743248 0.02097083441913128 0.0714285746216774
			vertex 0.06597268581390381 0.0008892395999282598 0.0714285746216774
		endloop
	endfacet
	facet normal 0 0 1
		outer loop
			vertex 0.04684307798743248 0.02097083441913128 0.0714285746216774
			vertex 0.033748071640729904 -0.03525015339255333 0.0714285746216774
			vertex 0.03534909710288048 -0.03664715960621834 0.0714285746216774
		endloop
	endfacet
	facet normal 0 0 1
		outer loop
			vertex 0.01944108121097088 0.003177834441885352 0.0714285746216774
			vertex 0.03143308684229851 -0.03525015339255333 0.0714285746216774
			vertex 0.033748071640729904 -0.03525015339255333 0.0714285746216774
		endloop
	endfacet
	facet normal 0 0 1
		outer loop
			vertex 0.013709080405533314 -0.047223154455423355 0.0714285746216774
			vertex 0.026072097942233086 -0.03850216791033745 0.0714285746216774
			vertex 0.0014920952962711453 -0.009098174050450325 0.0714285746216774
		endloop
	endfacet
	facet normal 0 0 1
		outer loop
			vertex -0.002091931877657771 -0.059908170253038406 0.0714285746216774
			vertex 0.013709080405533314 -0.047223154455423355 0.0714285746216774
			vertex -0.02546091563999653 -0.0275061447173357 0.0714285746216774
		endloop
	endfacet
	facet normal 0 0 1
		outer loop
			vertex -0.013754027895629406 -0.06993483006954193 0.0714285746216774
			vertex -0.002091931877657771 -0.059908170253038406 0.0714285746216774
			vertex -0.02546091563999653 -0.0275061447173357 0.0714285746216774
		endloop
	endfacet
	facet normal 0 0 1
		outer loop
			vertex -0.013754027895629406 -0.06993483006954193 0.0714285746216774
			vertex -0.02546091563999653 -0.0275061447173357 0.0714285746216774
			vertex -0.02026117779314518 -0.06993483006954193 0.0714285746216774
		endloop
	endfacet
	facet normal 0 0 1
		outer loop
			vertex -0.046966802328825 -0.06993483006954193 0.0714285746216774
			vertex -0.026848549023270607 -0.06993483006954193 0.0714285746216774
			vertex -0.05679892376065254 -0.048903170973062515 0.0714285746216774
		endloop
	endfacet
	facet normal 1 0 0
		outer loop
			vertex 0.06597268581390381 -0.04412121698260307 0.0714285746216774
			vertex 0.06597268581390381 -0.06993483006954193 0.0714285746216774
			vertex 0.06597268581390381 -0.04412121698260307 0.04506358876824379
		endloop
	endfacet
	facet normal 1 0 0
		outer loop
			vertex 0.06597268581390381 -0.06993483006954193 0.0714285746216774
			vertex 0.06597268581390381 -0.06993483006954193 -0.0714285597205162
			vertex 0.06597268581390381 -0.04412121698260307 -0.0714285597205162
		endloop
	endfacet
	facet normal 1 0 0
		outer loop
			vertex 0.06597268581390381 -0.06993483006954193 0.0714285746216774
			vertex 0.06597268581390381 -0.04412121698260307 -0.0714285597205162
			vertex 0.06597268581390381 -0.04412121698260307 0.04506358876824379
		endloop
	endfacet
	facet normal 1 0 0
		outer loop
			vertex 0.06597268581390381 -0.043304067105054855 0.0714285746216774
			vertex 0.06597268581390381 -0.04412121698260307 0.0714285746216774
			vertex 0.06597268581390381 -0.04412121698260307 0.04506358876824379
		endloop
	endfacet
	facet normal 1 0 0
		outer loop
			vertex 0.06597268581390381 -0.043304067105054855 0.0714285746216774
			vertex 0.06597268581390381 -0.04412121698260307 0.04506358876824379
			vertex 0.06597268581390381 -0.043304067105054855 0.04422897472977638
		endloop
	endfacet
	facet normal 1 0 0
		outer loop
			vertex 0.06597268581390381 -0.04412121698260307 -0.0714285597205162
			vertex 0.06597268581390381 -0.043304067105054855 -0.0714285597205162
			vertex 0.06597268581390381 -0.043304067105054855 0.04422897472977638
		endloop
	endfacet
	facet normal 1 0 0
		outer loop
			vertex 0.06597268581390381 -0.04412121698260307 -0.0714285597205162
			vertex 0.06597268581390381 -0.043304067105054855 0.04422897472977638
			vertex 0.06597268581390381 -0.04412121698260307 0.04506358876824379
		endloop
	endfacet
	facet normal 1 0 0
		outer loop
			vertex 0.06597268581390381 -0.03552441671490669 0.0714285746216774
			vertex 0.06597268581390381 -0.043304067105054855 0.0714285746216774
			vertex 0.06597268581390381 -0.043304067105054855 0.04422897472977638
		endloop
	endfacet
	facet normal 1 0 0
		outer loop
			vertex 0.06597268581390381 -0.03552441671490669 0.0714285746216774
			vertex 0.06597268581390381 -0.043304067105054855 0.04422897472977638
			vertex 0.06597268581390381 -0.03552441671490669 0.03628319874405861
		endloop
	endfacet
	facet normal 1 0 0
		outer loop
			vertex 0.06597268581390381 -0.043304067105054855 -0.0714285597205162
			vertex 0.06597268581390381 -0.03552441671490669 -0.0714285597205162
			vertex 0.06597268581390381 -0.03552441671490669 0.03628319874405861
		endloop
	endfacet
	facet normal 1 0 0
		outer loop
			vertex 0.06597268581390381 -0.043304067105054855 -0.0714285597205162
			vertex 0.06597268581390381 -0.03552441671490669 0.03628319874405861
			vertex 0.06597268581390381 -0.043304067105054855 0.04422897472977638
		endloop
	endfacet
	facet normal 0.6519367478659993 -0.7582733522826082 0
		outer loop
			vertex -0.013754027895629406 -0.06993483006954193 -0.0714285597205162
			vertex -0.002091931877657771 -0.059908170253038406 -0.0714285597205162
			vertex -0.002091931877657771 -0.059908170253038406 0.0714285746216774
		endloop
	endfacet
	facet normal 0.6519367478659993 -0.7582733522826082 0
		outer loop
			vertex -0.013754027895629406 -0.06993483006954193 -0.0714285597205162
			vertex -0.002091931877657771 -0.059908170253038406 0.0714285746216774
			vertex -0.013754027895629406 -0.06993483006954193 0.0714285746216774
		endloop
	endfacet
	facet normal 0.6260284859258377 -0.7798001890288327 0
		outer loop
			vertex 0.0001653406652621925 -0.0580960176885128 -0.0714285597205162
			vertex -0.002091931877657771 -0.059908170253038406 0.0714285746216774
			vertex -0.002091931877657771 -0.059908170253038406 -0.0714285597205162
		endloop
	endfacet
	facet normal 0.6260237231473 -0.7798040125934161 0
		outer loop
			vertex 0.0001653406652621925 -0.0580960176885128 -0.0714285597205162
			vertex 0.013709080405533314 -0.047223154455423355 -0.0714285597205162
			vertex 0.013709080405533314 -0.047223154455423355 0.0714285746216774
		endloop
	endfacet
	facet normal 0.6260244035440208 -0.779803466372997 -1.0607867844264775e-7
		outer loop
			vertex 0.0001653406652621925 -0.0580960176885128 -0.0714285597205162
			vertex 0.013709080405533314 -0.047223154455423355 0.0714285746216774
			vertex -0.002091931877657771 -0.059908170253038406 0.0714285746216774
		endloop
	endfacet
	facet normal 0.5764287288832703 -0.8171474288756082 0
		outer loop
			vertex 0.01547521073371172 -0.04597729817032814 -0.0714285597205162
			vertex 0.013709080405533314 -0.047223154455423355 0.0714285746216774
			vertex 0.013709080405533314 -0.047223154455423355 -0.0714285597205162
		endloop
	endfacet
	facet normal 0.5764245227367645 -0.8171503959417101 0
		outer loop
			vertex 0.01547521073371172 -0.04597729817032814 -0.0714285597205162
			vertex 0.026072097942233086 -0.03850216791033745 -0.0714285597205162
			vertex 0.026072097942233086 -0.03850216791033745 0.0714285746216774
		endloop
	endfacet
	facet normal 0.5764251236125256 -0.8171499720787367 -6.67509092175434e-8
		outer loop
			vertex 0.01547521073371172 -0.04597729817032814 -0.0714285597205162
			vertex 0.026072097942233086 -0.03850216791033745 0.0714285746216774
			vertex 0.013709080405533314 -0.047223154455423355 0.0714285746216774
		endloop
	endfacet
	facet normal 0.5186486081594842 -0.8549874977180836 0
		outer loop
			vertex 0.026837943121790886 -0.03803759440779686 -0.0714285597205162
			vertex 0.026072097942233086 -0.03850216791033745 0.0714285746216774
			vertex 0.026072097942233086 -0.03850216791033745 -0.0714285597205162
		endloop
	endfacet
	facet normal 0.5186426145126544 -0.8549911335279906 0
		outer loop
			vertex 0.026837943121790886 -0.03803759440779686 -0.0714285597205162
			vertex 0.03143308684229851 -0.03525015339255333 -0.0714285597205162
			vertex 0.03143308684229851 -0.03525015339255333 0.0714285746216774
		endloop
	endfacet
	facet normal 0.5186434707409945 -0.854990614134292 -3.767590329894366e-8
		outer loop
			vertex 0.026837943121790886 -0.03803759440779686 -0.0714285597205162
			vertex 0.03143308684229851 -0.03525015339255333 0.0714285746216774
			vertex 0.026072097942233086 -0.03850216791033745 0.0714285746216774
		endloop
	endfacet
	facet normal 0 -1 0
		outer loop
			vertex 0.031763773411512375 -0.03525015339255333 -0.0714285597205162
			vertex 0.03143308684229851 -0.03525015339255333 0.0714285746216774
			vertex 0.03143308684229851 -0.03525015339255333 -0.0714285597205162
		endloop
	endfacet
	facet normal 0 -1 0
		outer loop
			vertex 0.031763773411512375 -0.03525015339255333 -0.0714285597205162
			vertex 0.033748071640729904 -0.03525015339255333 -0.0714285597205162
			vertex 0.033748071640729904 -0.03525015339255333 0.0714285746216774
		endloop
	endfacet
	facet normal 0 -1 0
		outer loop
			vertex 0.031763773411512375 -0.03525015339255333 -0.0714285597205162
			vertex 0.033748071640729904 -0.03525015339255333 0.0714285746216774
			vertex 0.03143308684229851 -0.03525015339255333 0.0714285746216774
		endloop
	endfacet
	facet normal -0.6574405139314865 -0.753506450298538 0
		outer loop
			vertex 0.033976804465055466 -0.03544972464442253 -0.0714285597205162
			vertex 0.033748071640729904 -0.03525015339255333 0.0714285746216774
			vertex 0.033748071640729904 -0.03525015339255333 -0.0714285597205162
		endloop
	endfacet
	facet normal -0.6574712078309801 -0.7534796685201747 0
		outer loop
			vertex 0.033976804465055466 -0.03544972464442253 -0.0714285597205162
			vertex 0.03534909710288048 -0.03664715960621834 -0.0714285597205162
			vertex 0.03534909710288048 -0.03664715960621834 0.0714285746216774
		endloop
	endfacet
	facet normal -0.6574668229029079 -0.753483494697761 -7.41930276817284e-8
		outer loop
			vertex 0.033976804465055466 -0.03544972464442253 -0.0714285597205162
			vertex 0.03534909710288048 -0.03664715960621834 0.0714285746216774
			vertex 0.033748071640729904 -0.03525015339255333 0.0714285746216774
		endloop
	endfacet
	facet normal -0.9189086205447249 0.39447046415237624 0
		outer loop
			vertex 0.035124521702528 -0.037170302122831345 -0.0714285597205162
			vertex 0.03534909710288048 -0.03664715960621834 0.0714285746216774
			vertex 0.03534909710288048 -0.03664715960621834 -0.0714285597205162
		endloop
	endfacet
	facet normal -0.9189124618662259 0.3944615157742925 0
		outer loop
			vertex 0.035124521702528 -0.037170302122831345 -0.0714285597205162
			vertex 0.03377709910273552 -0.04030917212367058 -0.0714285597205162
			vertex 0.03377709910273552 -0.04030917212367058 0.0714285746216774
		endloop
	endfacet
	facet normal -0.9189119131116127 0.3944627941156874 3.3263664743208464e-8
		outer loop
			vertex 0.035124521702528 -0.037170302122831345 -0.0714285597205162
			vertex 0.03377709910273552 -0.04030917212367058 0.0714285746216774
			vertex 0.03534909710288048 -0.03664715960621834 0.0714285746216774
		endloop
	endfacet
	facet normal -0.7360270699517854 0.6769521048775828 0
		outer loop
			vertex 0.033107396215200424 -0.041037317365407944 -0.0714285597205162
			vertex 0.03377709910273552 -0.04030917212367058 0.0714285746216774
			vertex 0.03377709910273552 -0.04030917212367058 -0.0714285597205162
		endloop
	endfacet
	facet normal -0.7360186713027564 0.676961236330209 0
		outer loop
			vertex 0.033107396215200424 -0.041037317365407944 -0.0714285597205162
			vertex 0.029089106246829033 -0.04540615901350975 -0.0714285597205162
			vertex 0.029089106246829033 -0.04540615901350975 0.0714285746216774
		endloop
	endfacet
	facet normal -0.736019871111975 0.6769599318484858 -7.364179238580197e-8
		outer loop
			vertex 0.033107396215200424 -0.041037317365407944 -0.0714285597205162
			vertex 0.029089106246829033 -0.04540615901350975 0.0714285746216774
			vertex 0.03377709910273552 -0.04030917212367058 0.0714285746216774
		endloop
	endfacet
	facet normal -0.6371249266125397 0.7707605515910672 0
		outer loop
			vertex 0.028326092287898064 -0.04603688046336174 -0.0714285597205162
			vertex 0.029089106246829033 -0.04540615901350975 0.0714285746216774
			vertex 0.029089106246829033 -0.04540615901350975 -0.0714285597205162
		endloop
	endfacet
	facet normal -0.6371246381827966 0.7707607900123363 0
		outer loop
			vertex 0.028326092287898064 -0.04603688046336174 -0.0714285597205162
			vertex 0.023748068138957024 -0.0498211570084095 -0.0714285597205162
			vertex 0.023748068138957024 -0.0498211570084095 0.0714285746216774
		endloop
	endfacet
	facet normal -0.6371246793875218 0.7707607559517724 -2.2227158721086277e-9
		outer loop
			vertex 0.028326092287898064 -0.04603688046336174 -0.0714285597205162
			vertex 0.023748068138957024 -0.0498211570084095 0.0714285746216774
			vertex 0.029089106246829033 -0.04540615901350975 0.0714285746216774
		endloop
	endfacet
	facet normal -0.5680504816571397 0.8229937121807747 0
		outer loop
			vertex 0.0234773438423872 -0.05000801756978035 -0.0714285597205162
			vertex 0.023748068138957024 -0.0498211570084095 0.0714285746216774
			vertex 0.023748068138957024 -0.0498211570084095 -0.0714285597205162
		endloop
	endfacet
	facet normal -0.5680639891029503 0.8229843888461331 0
		outer loop
			vertex 0.0234773438423872 -0.05000801756978035 -0.0714285597205162
			vertex 0.021853087469935417 -0.05112915858626366 -0.0714285597205162
			vertex 0.021853087469935417 -0.05112915858626366 0.0714285746216774
		endloop
	endfacet
	facet normal -0.5680620594048992 0.822985720814562 3.239354349347541e-8
		outer loop
			vertex 0.0234773438423872 -0.05000801756978035 -0.0714285597205162
			vertex 0.021853087469935417 -0.05112915858626366 0.0714285746216774
			vertex 0.023748068138957024 -0.0498211570084095 0.0714285746216774
		endloop
	endfacet
	facet normal -0.5619714257642632 0.8271566457597263 0
		outer loop
			vertex 0.021670354530215263 -0.0512533076107502 -0.0714285597205162
			vertex 0.021853087469935417 -0.05112915858626366 0.0714285746216774
			vertex 0.021853087469935417 -0.05112915858626366 -0.0714285597205162
		endloop
	endfacet
	facet normal -0.5619992302824144 0.8271377546466935 0
		outer loop
			vertex 0.021670354530215263 -0.0512533076107502 -0.0714285597205162
			vertex 0.020574091002345085 -0.051998164504766464 -0.0714285597205162
			vertex 0.020574091002345085 -0.051998164504766464 0.0714285746216774
		endloop
	endfacet
	facet normal -0.5619952579085432 0.8271404536644961 4.4556056935189314e-8
		outer loop
			vertex 0.021670354530215263 -0.0512533076107502 -0.0714285597205162
			vertex 0.020574091002345085 -0.051998164504766464 0.0714285746216774
			vertex 0.021853087469935417 -0.05112915858626366 0.0714285746216774
		endloop
	endfacet
	facet normal -0.6127210270482966 0.7902992743340214 0
		outer loop
			vertex 0.020411549136042595 -0.052124183624982834 -0.0714285597205162
			vertex 0.020411549136042595 -0.052124183624982834 0.027400139719247818
			vertex 0.020574091002345085 -0.051998164504766464 0.0714285746216774
		endloop
	endfacet
	facet normal -0.6127210270482966 0.7902992743340215 0
		outer loop
			vertex 0.020411549136042595 -0.052124183624982834 -0.0714285597205162
			vertex 0.020574091002345085 -0.051998164504766464 0.0714285746216774
			vertex 0.020574091002345085 -0.051998164504766464 -0.0714285597205162
		endloop
	endfacet
	facet normal -0.6127210270482966 0.7902992743340215 0
		outer loop
			vertex 0.020411549136042595 -0.052124183624982834 0.0714285746216774
			vertex 0.020574091002345085 -0.051998164504766464 0.0714285746216774
			vertex 0.020411549136042595 -0.052124183624982834 0.027400139719247818
		endloop
	endfacet
	facet normal -0.6126437529452776 0.7903591790933573 0
		outer loop
			vertex 0.020046664401888847 -0.052407022565603256 -0.0714285597205162
			vertex 0.020411549136042595 -0.052124183624982834 0.027400139719247818
			vertex 0.020411549136042595 -0.052124183624982834 -0.0714285597205162
		endloop
	endfacet
	facet normal -0.6126628027437205 0.7903444123508493 0
		outer loop
			vertex 0.020046664401888847 -0.052407022565603256 -0.0714285597205162
			vertex 0.016882074996829033 -0.05486016348004341 -0.0714285597205162
			vertex 0.016882074996829033 -0.05486016348004341 0.0714285746216774
		endloop
	endfacet
	facet normal -0.6126608333834969 0.7903459389645996 6.984051021519836e-8
		outer loop
			vertex 0.020046664401888847 -0.052407022565603256 -0.0714285597205162
			vertex 0.016882074996829033 -0.05486016348004341 0.0714285746216774
			vertex 0.020411549136042595 -0.052124183624982834 0.0714285746216774
		endloop
	endfacet
	facet normal -0.6126437529452777 0.7903591790933573 0
		outer loop
			vertex 0.020046664401888847 -0.052407022565603256 -0.0714285597205162
			vertex 0.020411549136042595 -0.052124183624982834 0.0714285746216774
			vertex 0.020411549136042595 -0.052124183624982834 0.027400139719247818
		endloop
	endfacet
	facet normal -0.7899818985808449 0.6131301655558988 0
		outer loop
			vertex 0.0165096502751112 -0.055340010672807693 -0.0714285597205162
			vertex 0.016882074996829033 -0.05486016348004341 0.0714285746216774
			vertex 0.016882074996829033 -0.05486016348004341 -0.0714285597205162
		endloop
	endfacet
	facet normal -0.7899812151545853 0.6131310461091373 0
		outer loop
			vertex 0.015503746457397938 -0.05663605406880379 -0.0714285597205162
			vertex 0.015503746457397938 -0.05663605406880379 0.0714285746216774
			vertex 0.016882074996829033 -0.05486016348004341 0.0714285746216774
		endloop
	endfacet
	facet normal -0.7899809621228525 0.613131372124647 -6.494101523905424e-9
		outer loop
			vertex 0.015503746457397938 -0.05663605406880379 -0.0714285597205162
			vertex 0.016882074996829033 -0.05486016348004341 0.0714285746216774
			vertex 0.0165096502751112 -0.055340010672807693 -0.0714285597205162
		endloop
	endfacet
	facet normal -0.7899864182363018 0.6131243422032592 0
		outer loop
			vertex 0.01427507121115923 -0.05821915343403816 -0.0714285597205162
			vertex 0.01427507121115923 -0.05821915343403816 0.0714285746216774
			vertex 0.015503746457397938 -0.05663605406880379 0.0714285746216774
		endloop
	endfacet
	facet normal -0.7899864182363018 0.6131243422032592 0
		outer loop
			vertex 0.01427507121115923 -0.05821915343403816 -0.0714285597205162
			vertex 0.015503746457397938 -0.05663605406880379 0.0714285746216774
			vertex 0.015503746457397938 -0.05663605406880379 -0.0714285597205162
		endloop
	endfacet
	facet normal -0.9798800224137063 0.1995874286484857 0
		outer loop
			vertex 0.014149484224617481 -0.058835726231336594 -0.0714285597205162
			vertex 0.01427507121115923 -0.05821915343403816 0.0714285746216774
			vertex 0.01427507121115923 -0.05821915343403816 -0.0714285597205162
		endloop
	endfacet
	facet normal -0.9798858619246362 0.19955875726264893 0
		outer loop
			vertex 0.013413590379059315 -0.06244925037026405 -0.0714285597205162
			vertex 0.013413590379059315 -0.06244925037026405 0.0714285746216774
			vertex 0.01427507121115923 -0.05821915343403816 0.0714285746216774
		endloop
	endfacet
	facet normal -0.9798868582389726 0.19955386503531622 1.5087031987808832e-7
		outer loop
			vertex 0.013413590379059315 -0.06244925037026405 -0.0714285597205162
			vertex 0.01427507121115923 -0.05821915343403816 0.0714285746216774
			vertex 0.014149484224617481 -0.058835726231336594 -0.0714285597205162
		endloop
	endfacet
	facet normal -0.9798566910493148 0.19970194041593078 0
		outer loop
			vertex 0.013396081514656544 -0.06253515928983688 -0.0714285597205162
			vertex 0.013396081514656544 -0.06253515928983688 0.0714285746216774
			vertex 0.013413590379059315 -0.06244925037026405 0.0714285746216774
		endloop
	endfacet
	facet normal -0.9798566910493148 0.19970194041593078 0
		outer loop
			vertex 0.013396081514656544 -0.06253515928983688 -0.0714285597205162
			vertex 0.013413590379059315 -0.06244925037026405 0.0714285746216774
			vertex 0.013413590379059315 -0.06244925037026405 -0.0714285597205162
		endloop
	endfacet
	facet normal -0.9997185752371897 -0.023722780733374086 0
		outer loop
			vertex 0.01341280061751604 -0.06323973089456558 -0.0714285597205162
			vertex 0.013396081514656544 -0.06253515928983688 0.0714285746216774
			vertex 0.013396081514656544 -0.06253515928983688 -0.0714285597205162
		endloop
	endfacet
	facet normal -0.999718742357961 -0.023715736931769267 0
		outer loop
			vertex 0.01341280061751604 -0.06323973089456558 -0.0714285597205162
			vertex 0.013513085432350636 -0.06746716052293777 -0.0714285597205162
			vertex 0.013513085432350636 -0.06746716052293777 0.0714285746216774
		endloop
	endfacet
	facet normal -0.9997187184865998 -0.02371674318935764 -2.979394132120855e-8
		outer loop
			vertex 0.01341280061751604 -0.06323973089456558 -0.0714285597205162
			vertex 0.013513085432350636 -0.06746716052293777 0.0714285746216774
			vertex 0.013396081514656544 -0.06253515928983688 0.0714285746216774
		endloop
	endfacet
	facet normal -0.9970165267285711 -0.07718837626285711 0
		outer loop
			vertex 0.013531235046684742 -0.06770159304141998 -0.0714285597205162
			vertex 0.013513085432350636 -0.06746716052293777 0.0714285746216774
			vertex 0.013513085432350636 -0.06746716052293777 -0.0714285597205162
		endloop
	endfacet
	facet normal -0.9970196829391021 -0.07714759770733368 0
		outer loop
			vertex 0.013531235046684742 -0.06770159304141998 -0.0714285597205162
			vertex 0.013640073128044605 -0.06910816580057144 -0.0714285597205162
			vertex 0.013640073128044605 -0.06910816580057144 0.0714285746216774
		endloop
	endfacet
	facet normal -0.9970192321466324 -0.07715342331832266 -5.770246720938257e-8
		outer loop
			vertex 0.013531235046684742 -0.06770159304141998 -0.0714285597205162
			vertex 0.013640073128044605 -0.06910816580057144 0.0714285746216774
			vertex 0.013513085432350636 -0.06746716052293777 0.0714285746216774
		endloop
	endfacet
	facet normal -0.9976413820624513 -0.06864162582953821 0
		outer loop
			vertex 0.013696950860321522 -0.06993483006954193 -0.0714285597205162
			vertex 0.013696950860321522 -0.06993483006954193 0.0004092795425094664
			vertex 0.013640073128044605 -0.06910816580057144 0.0714285746216774
		endloop
	endfacet
	facet normal -0.9976413820624513 -0.06864162582953821 0
		outer loop
			vertex 0.013696950860321522 -0.06993483006954193 -0.0714285597205162
			vertex 0.013640073128044605 -0.06910816580057144 0.0714285746216774
			vertex 0.013640073128044605 -0.06910816580057144 -0.0714285597205162
		endloop
	endfacet
	facet normal -0.9976413820624512 -0.06864162582953821 0
		outer loop
			vertex 0.013696950860321522 -0.06993483006954193 0.0714285746216774
			vertex 0.013640073128044605 -0.06910816580057144 0.0714285746216774
			vertex 0.013696950860321522 -0.06993483006954193 0.0004092795425094664
		endloop
	endfacet
	facet normal 1 0 0
		outer loop
			vertex 0.06597268581390381 -0.03525015339255333 0.0714285746216774
			vertex 0.06597268581390381 -0.03552441671490669 0.0714285746216774
			vertex 0.06597268581390381 -0.03552441671490669 0.03628319874405861
		endloop
	endfacet
	facet normal 1 0 0
		outer loop
			vertex 0.06597268581390381 -0.03525015339255333 0.0714285746216774
			vertex 0.06597268581390381 -0.03552441671490669 0.03628319874405861
			vertex 0.06597268581390381 -0.03525015339255333 0.03600308671593666
		endloop
	endfacet
	facet normal 1 0 0
		outer loop
			vertex 0.06597268581390381 -0.03552441671490669 -0.0714285597205162
			vertex 0.06597268581390381 -0.03525015339255333 -0.0714285597205162
			vertex 0.06597268581390381 -0.03525015339255333 0.03600308671593666
		endloop
	endfacet
	facet normal 1 0 0
		outer loop
			vertex 0.06597268581390381 -0.03552441671490669 -0.0714285597205162
			vertex 0.06597268581390381 -0.03525015339255333 0.03600308671593666
			vertex 0.06597268581390381 -0.03552441671490669 0.03628319874405861
		endloop
	endfacet
	facet normal 1 0 0
		outer loop
			vertex 0.06597268581390381 -0.014298172667622566 0.0714285746216774
			vertex 0.06597268581390381 -0.03525015339255333 0.0714285746216774
			vertex 0.06597268581390381 -0.03525015339255333 0.03600308671593666
		endloop
	endfacet
	facet normal 1 0 0
		outer loop
			vertex 0.06597268581390381 -0.014298172667622566 0.0714285746216774
			vertex 0.06597268581390381 -0.03525015339255333 0.03600308671593666
			vertex 0.06597268581390381 -0.014298172667622566 0.014603589661419392
		endloop
	endfacet
	facet normal 1 0 0
		outer loop
			vertex 0.06597268581390381 -0.03525015339255333 -0.0714285597205162
			vertex 0.06597268581390381 -0.014298172667622566 -0.0714285597205162
			vertex 0.06597268581390381 -0.014298172667622566 0.014603589661419392
		endloop
	endfacet
	facet normal 1 0 0
		outer loop
			vertex 0.06597268581390381 -0.03525015339255333 -0.0714285597205162
			vertex 0.06597268581390381 -0.014298172667622566 0.014603589661419392
			vertex 0.06597268581390381 -0.03525015339255333 0.03600308671593666
		endloop
	endfacet
	facet normal 1 0 0
		outer loop
			vertex 0.06597268581390381 -0.01035592146217823 0.0714285746216774
			vertex 0.06597268581390381 -0.014298172667622566 0.0714285746216774
			vertex 0.06597268581390381 -0.014298172667622566 0.014603589661419392
		endloop
	endfacet
	facet normal 1 0 0
		outer loop
			vertex 0.06597268581390381 -0.01035592146217823 0.0714285746216774
			vertex 0.06597268581390381 -0.014298172667622566 0.014603589661419392
			vertex 0.06597268581390381 -0.01035592146217823 0.010577087290585041
		endloop
	endfacet
	facet normal 1 0 0
		outer loop
			vertex 0.06597268581390381 -0.014298172667622566 -0.0714285597205162
			vertex 0.06597268581390381 -0.01035592146217823 -0.0714285597205162
			vertex 0.06597268581390381 -0.01035592146217823 0.010577087290585041
		endloop
	endfacet
	facet normal 1 0 0
		outer loop
			vertex 0.06597268581390381 -0.014298172667622566 -0.0714285597205162
			vertex 0.06597268581390381 -0.01035592146217823 0.010577087290585041
			vertex 0.06597268581390381 -0.014298172667622566 0.014603589661419392
		endloop
	endfacet
	facet normal 1 0 0
		outer loop
			vertex 0.06597268581390381 -0.0052660428918898106 0.0714285746216774
			vertex 0.06597268581390381 -0.01035592146217823 0.0714285746216774
			vertex 0.06597268581390381 -0.01035592146217823 0.010577087290585041
		endloop
	endfacet
	facet normal 1 0 0
		outer loop
			vertex 0.06597268581390381 -0.0052660428918898106 0.0714285746216774
			vertex 0.06597268581390381 -0.01035592146217823 0.010577087290585041
			vertex 0.06597268581390381 -0.0052660428918898106 0.00537854852154851
		endloop
	endfacet
	facet normal 1 0 0
		outer loop
			vertex 0.06597268581390381 -0.01035592146217823 -0.0714285597205162
			vertex 0.06597268581390381 -0.0052660428918898106 -0.0714285597205162
			vertex 0.06597268581390381 -0.0052660428918898106 0.00537854852154851
		endloop
	endfacet
	facet normal 1 0 0
		outer loop
			vertex 0.06597268581390381 -0.01035592146217823 -0.0714285597205162
			vertex 0.06597268581390381 -0.0052660428918898106 0.00537854852154851
			vertex 0.06597268581390381 -0.01035592146217823 0.010577087290585041
		endloop
	endfacet
	facet normal 1 0 0
		outer loop
			vertex 0.06597268581390381 -0.0013886264059692621 0.0714285746216774
			vertex 0.06597268581390381 -0.0052660428918898106 0.0714285746216774
			vertex 0.06597268581390381 -0.0052660428918898106 0.00537854852154851
		endloop
	endfacet
	facet normal 1 0 0
		outer loop
			vertex 0.06597268581390381 -0.0013886264059692621 0.0714285746216774
			vertex 0.06597268581390381 -0.0052660428918898106 0.00537854852154851
			vertex 0.06597268581390381 -0.0013886264059692621 0.0014182968297973275
		endloop
	endfacet
	facet normal 1 0 0
		outer loop
			vertex 0.06597268581390381 -0.0052660428918898106 -0.0714285597205162
			vertex 0.06597268581390381 -0.0013886264059692621 -0.0714285597205162
			vertex 0.06597268581390381 -0.0013886264059692621 0.0014182968297973275
		endloop
	endfacet
	facet normal 1 0 0
		outer loop
			vertex 0.06597268581390381 -0.0052660428918898106 -0.0714285597205162
			vertex 0.06597268581390381 -0.0013886264059692621 0.0014182968297973275
			vertex 0.06597268581390381 -0.0052660428918898106 0.00537854852154851
		endloop
	endfacet
	facet normal 1 0 0
		outer loop
			vertex 0.06597268581390381 0.0030688473489135504 0.0714285746216774
			vertex 0.06597268581390381 -0.0013886264059692621 0.0714285746216774
			vertex 0.06597268581390381 -0.0013886264059692621 0.0014182968297973275
		endloop
	endfacet
	facet normal 1 0 0
		outer loop
			vertex 0.06597268581390381 0.0030688473489135504 0.0714285746216774
			vertex 0.06597268581390381 -0.0013886264059692621 0.0014182968297973275
			vertex 0.06597268581390381 0.0030688473489135504 -0.0031343656592071056
		endloop
	endfacet
	facet normal 1 0 0
		outer loop
			vertex 0.06597268581390381 -0.0013886264059692621 -0.0714285597205162
			vertex 0.06597268581390381 0.0030688473489135504 -0.0714285597205162
			vertex 0.06597268581390381 0.0030688473489135504 -0.0031343656592071056
		endloop
	endfacet
	facet normal 1 0 0
		outer loop
			vertex 0.06597268581390381 -0.0013886264059692621 -0.0714285597205162
			vertex 0.06597268581390381 0.0030688473489135504 -0.0031343656592071056
			vertex 0.06597268581390381 -0.0013886264059692621 0.0014182968297973275
		endloop
	endfacet
	facet normal 1 0 0
		outer loop
			vertex 0.06597268581390381 0.00922408513724804 0.0714285746216774
			vertex 0.06597268581390381 0.0030688473489135504 0.0714285746216774
			vertex 0.06597268581390381 0.0030688473489135504 -0.0031343656592071056
		endloop
	endfacet
	facet normal 1 0 0
		outer loop
			vertex 0.06597268581390381 0.00922408513724804 0.0714285746216774
			vertex 0.06597268581390381 0.0030688473489135504 -0.0031343656592071056
			vertex 0.06597268581390381 0.00922408513724804 -0.009421075694262981
		endloop
	endfacet
	facet normal 1 0 0
		outer loop
			vertex 0.06597268581390381 0.0030688473489135504 -0.0714285597205162
			vertex 0.06597268581390381 0.00922408513724804 -0.0714285597205162
			vertex 0.06597268581390381 0.00922408513724804 -0.009421075694262981
		endloop
	endfacet
	facet normal 1 0 0
		outer loop
			vertex 0.06597268581390381 0.0030688473489135504 -0.0714285597205162
			vertex 0.06597268581390381 0.00922408513724804 -0.009421075694262981
			vertex 0.06597268581390381 0.0030688473489135504 -0.0031343656592071056
		endloop
	endfacet
	facet normal 1 0 0
		outer loop
			vertex 0.06597268581390381 0.020665956661105156 0.0714285746216774
			vertex 0.06597268581390381 0.00922408513724804 0.0714285746216774
			vertex 0.06597268581390381 0.00922408513724804 -0.009421075694262981
		endloop
	endfacet
	facet normal 1 0 0
		outer loop
			vertex 0.06597268581390381 0.020665956661105156 0.0714285746216774
			vertex 0.06597268581390381 0.00922408513724804 -0.009421075694262981
			vertex 0.06597268581390381 0.020665956661105156 -0.021107371896505356
		endloop
	endfacet
	facet normal 1 0 0
		outer loop
			vertex 0.06597268581390381 0.00922408513724804 -0.0714285597205162
			vertex 0.06597268581390381 0.020665956661105156 -0.0714285597205162
			vertex 0.06597268581390381 0.020665956661105156 -0.021107371896505356
		endloop
	endfacet
	facet normal 1 0 0
		outer loop
			vertex 0.06597268581390381 0.00922408513724804 -0.0714285597205162
			vertex 0.06597268581390381 0.020665956661105156 -0.021107371896505356
			vertex 0.06597268581390381 0.00922408513724804 -0.009421075694262981
		endloop
	endfacet
	facet normal -0.4868988695619412 0.873458350935695 0
		outer loop
			vertex 0.04896176978945732 0.022151870653033257 -0.0714285597205162
			vertex 0.04896176978945732 0.022151870653033257 0.0714285746216774
			vertex 0.06597268581390381 0.03163440153002739 0.0714285746216774
		endloop
	endfacet
	facet normal -0.4868988695619412 0.873458350935695 0
		outer loop
			vertex 0.04896176978945732 0.022151870653033257 -0.0714285597205162
			vertex 0.06597268581390381 0.03163440153002739 0.0714285746216774
			vertex 0.06597268581390381 0.03163440153002739 -0.0714285597205162
		endloop
	endfacet
	facet normal 1 0 0
		outer loop
			vertex 0.06597268581390381 0.03163440153002739 0.0714285746216774
			vertex 0.06597268581390381 0.020665956661105156 0.0714285746216774
			vertex 0.06597268581390381 0.020665956661105156 -0.021107371896505356
		endloop
	endfacet
	facet normal 1 0 0
		outer loop
			vertex 0.06597268581390381 0.03163440153002739 0.0714285746216774
			vertex 0.06597268581390381 0.020665956661105156 -0.021107371896505356
			vertex 0.06597268581390381 0.03163440153002739 -0.032310064882040024
		endloop
	endfacet
	facet normal 1 0 0
		outer loop
			vertex 0.06597268581390381 0.020665956661105156 -0.0714285597205162
			vertex 0.06597268581390381 0.03163440153002739 -0.0714285597205162
			vertex 0.06597268581390381 0.03163440153002739 -0.032310064882040024
		endloop
	endfacet
	facet normal 1 0 0
		outer loop
			vertex 0.06597268581390381 0.020665956661105156 -0.0714285597205162
			vertex 0.06597268581390381 0.03163440153002739 -0.032310064882040024
			vertex 0.06597268581390381 0.020665956661105156 -0.021107371896505356
		endloop
	endfacet
	facet normal -0.4868979037524844 0.8734588893138798 0
		outer loop
			vertex 0.04684307798743248 0.02097083441913128 -0.0714285597205162
			vertex 0.04684307798743248 0.02097083441913128 0.0714285746216774
			vertex 0.04896176978945732 0.022151870653033257 0.0714285746216774
		endloop
	endfacet
	facet normal -0.4868979037524844 0.8734588893138798 0
		outer loop
			vertex 0.04684307798743248 0.02097083441913128 -0.0714285597205162
			vertex 0.04896176978945732 0.022151870653033257 0.0714285746216774
			vertex 0.04896176978945732 0.022151870653033257 -0.0714285597205162
		endloop
	endfacet
	facet normal -0.5445926102980614 0.8387007146823855 0
		outer loop
			vertex 0.04292851313948631 0.018428994342684746 -0.0714285597205162
			vertex 0.04684307798743248 0.02097083441913128 0.0714285746216774
			vertex 0.04684307798743248 0.02097083441913128 -0.0714285597205162
		endloop
	endfacet
	facet normal -0.5445949117141041 0.838699220301955 0
		outer loop
			vertex 0.04292851313948631 0.018428994342684746 -0.0714285597205162
			vertex 0.01944108121097088 0.003177834441885352 -0.0714285597205162
			vertex 0.01944108121097088 0.003177834441885352 0.0714285746216774
		endloop
	endfacet
	facet normal -0.5445945829416493 0.8386994337845981 7.684515461851724e-8
		outer loop
			vertex 0.04292851313948631 0.018428994342684746 -0.0714285597205162
			vertex 0.01944108121097088 0.003177834441885352 0.0714285746216774
			vertex 0.04684307798743248 0.02097083441913128 0.0714285746216774
		endloop
	endfacet
	facet normal -0.5652535747917129 0.8249172056547187 0
		outer loop
			vertex 0.018160371109843254 0.002300260355696082 -0.0714285597205162
			vertex 0.01944108121097088 0.003177834441885352 0.0714285746216774
			vertex 0.01944108121097088 0.003177834441885352 -0.0714285597205162
		endloop
	endfacet
	facet normal -0.5652516937179293 0.8249184946096264 0
		outer loop
			vertex 0.018160371109843254 0.002300260355696082 -0.0714285597205162
			vertex 0.010476094670593739 -0.002965169260278344 -0.0714285597205162
			vertex 0.010476094670593739 -0.002965169260278344 0.0714285746216774
		endloop
	endfacet
	facet normal -0.5652519624428207 0.8249183104735521 -2.1241584502687858e-8
		outer loop
			vertex 0.018160371109843254 0.002300260355696082 -0.0714285597205162
			vertex 0.010476094670593739 -0.002965169260278344 0.0714285746216774
			vertex 0.01944108121097088 0.003177834441885352 0.0714285746216774
		endloop
	endfacet
	facet normal -0.5638190501886312 0.8258983464351953 0
		outer loop
			vertex 0.009192672558128834 -0.0038413277361541986 -0.0714285597205162
			vertex 0.010476094670593739 -0.002965169260278344 0.0714285746216774
			vertex 0.010476094670593739 -0.002965169260278344 -0.0714285597205162
		endloop
	endfacet
	facet normal -0.5638080282110811 0.8259058707411717 0
		outer loop
			vertex 0.008303460665047169 -0.004448326770216227 -0.0714285597205162
			vertex 0.008303460665047169 -0.004448326770216227 0.0714285746216774
			vertex 0.010476094670593739 -0.002965169260278344 0.0714285746216774
		endloop
	endfacet
	facet normal -0.5637921193796981 0.8259167307454323 -3.546981756416819e-7
		outer loop
			vertex 0.008303460665047169 -0.004448326770216227 -0.0714285597205162
			vertex 0.010476094670593739 -0.002965169260278344 0.0714285746216774
			vertex 0.009192672558128834 -0.0038413277361541986 -0.0714285597205162
		endloop
	endfacet
	facet normal -0.5638114019436922 0.8259035676386732 0
		outer loop
			vertex 0.0014920952962711453 -0.009098174050450325 -0.0714285597205162
			vertex 0.0014920952962711453 -0.009098174050450325 0.0714285746216774
			vertex 0.008303460665047169 -0.004448326770216227 0.0714285746216774
		endloop
	endfacet
	facet normal -0.5638114019436922 0.8259035676386732 0
		outer loop
			vertex 0.0014920952962711453 -0.009098174050450325 -0.0714285597205162
			vertex 0.008303460665047169 -0.004448326770216227 0.0714285746216774
			vertex 0.008303460665047169 -0.004448326770216227 -0.0714285597205162
		endloop
	endfacet
	facet normal -0.5625725018783522 0.8267479544155713 0
		outer loop
			vertex -0.0659726932644844 -0.05514559522271156 -0.0714285597205162
			vertex -0.0659726932644844 -0.05514559522271156 0.0714285746216774
			vertex -0.062319133430719376 -0.05265947803854942 0.0714285746216774
		endloop
	endfacet
	facet normal -0.5625725018783522 0.8267479544155713 0
		outer loop
			vertex -0.0659726932644844 -0.05514559522271156 -0.0714285597205162
			vertex -0.062319133430719376 -0.05265947803854942 0.0714285746216774
			vertex -0.062319133430719376 -0.05265947803854942 -0.0714285597205162
		endloop
	endfacet
	facet normal -0.5639799430012401 0.8257884861708343 0
		outer loop
			vertex -0.0023583497386425734 -0.011727871373295784 -0.0714285597205162
			vertex 0.0014920952962711453 -0.009098174050450325 0.0714285746216774
			vertex 0.0014920952962711453 -0.009098174050450325 -0.0714285597205162
		endloop
	endfacet
	facet normal -0.5639838587230493 0.8257858118785159 0
		outer loop
			vertex -0.0023583497386425734 -0.011727871373295784 -0.0714285597205162
			vertex -0.02546091563999653 -0.0275061447173357 -0.0714285597205162
			vertex -0.02546091563999653 -0.0275061447173357 0.0714285746216774
		endloop
	endfacet
	facet normal -0.5639832993343789 0.8257861939218231 1.3265908940893335e-7
		outer loop
			vertex -0.0023583497386425734 -0.011727871373295784 -0.0714285597205162
			vertex -0.02546091563999653 -0.0275061447173357 0.0714285746216774
			vertex 0.0014920952962711453 -0.009098174050450325 0.0714285746216774
		endloop
	endfacet
	facet normal -0.5638807624524411 0.8258562137176506 0
		outer loop
			vertex -0.02993776835501194 -0.030562864616513252 -0.0714285597205162
			vertex -0.02546091563999653 -0.0275061447173357 0.0714285746216774
			vertex -0.02546091563999653 -0.0275061447173357 -0.0714285597205162
		endloop
	endfacet
	facet normal -0.5638799289976887 0.8258567827859513 0
		outer loop
			vertex -0.02993776835501194 -0.030562864616513252 -0.0714285597205162
			vertex -0.05679892376065254 -0.048903170973062515 -0.0714285597205162
			vertex -0.05679892376065254 -0.048903170973062515 0.0714285746216774
		endloop
	endfacet
	facet normal -0.5638800480626099 0.8258567014905842 -3.282442497113812e-8
		outer loop
			vertex -0.02993776835501194 -0.030562864616513252 -0.0714285597205162
			vertex -0.05679892376065254 -0.048903170973062515 0.0714285746216774
			vertex -0.02546091563999653 -0.0275061447173357 0.0714285746216774
		endloop
	endfacet
	facet normal -0.5625737869185539 0.8267470799900764 0
		outer loop
			vertex -0.060667481273412704 -0.05153559520840645 -0.0714285597205162
			vertex -0.05679892376065254 -0.048903170973062515 0.0714285746216774
			vertex -0.05679892376065254 -0.048903170973062515 -0.0714285597205162
		endloop
	endfacet
	facet normal -0.5625726278732578 0.8267478686805169 0
		outer loop
			vertex -0.062319133430719376 -0.05265947803854942 -0.0714285597205162
			vertex -0.062319133430719376 -0.05265947803854942 0.0714285746216774
			vertex -0.05679892376065254 -0.048903170973062515 0.0714285746216774
		endloop
	endfacet
	facet normal -0.5625699131037931 0.8267497159784014 -1.5347581237449256e-7
		outer loop
			vertex -0.062319133430719376 -0.05265947803854942 -0.0714285597205162
			vertex -0.05679892376065254 -0.048903170973062515 0.0714285746216774
			vertex -0.060667481273412704 -0.05153559520840645 -0.0714285597205162
		endloop
	endfacet
	facet normal -1 0 0
		outer loop
			vertex -0.0659726932644844 -0.05514559522271156 -0.0714285597205162
			vertex -0.0659726932644844 -0.055153604596853256 -0.0714285597205162
			vertex -0.0659726932644844 -0.055153604596853256 -0.05633163079619408
		endloop
	endfacet
	facet normal -1 0 0
		outer loop
			vertex -0.0659726932644844 -0.05514559522271156 -0.0714285597205162
			vertex -0.0659726932644844 -0.055153604596853256 -0.05633163079619408
			vertex -0.0659726932644844 -0.05514559522271156 -0.05632343515753746
		endloop
	endfacet
	facet normal -1 0 0
		outer loop
			vertex -0.0659726932644844 -0.055153604596853256 0.0714285746216774
			vertex -0.0659726932644844 -0.05514559522271156 0.0714285746216774
			vertex -0.0659726932644844 -0.05514559522271156 -0.05632343515753746
		endloop
	endfacet
	facet normal -1 0 0
		outer loop
			vertex -0.0659726932644844 -0.055153604596853256 0.0714285746216774
			vertex -0.0659726932644844 -0.05514559522271156 -0.05632343515753746
			vertex -0.0659726932644844 -0.055153604596853256 -0.05633163079619408
		endloop
	endfacet
	facet normal -1 0 0
		outer loop
			vertex -0.0659726932644844 -0.055153604596853256 -0.0714285597205162
			vertex -0.0659726932644844 -0.055166859179735184 -0.0714285597205162
			vertex -0.0659726932644844 -0.055166859179735184 -0.05634516105055809
		endloop
	endfacet
	facet normal -1 0 0
		outer loop
			vertex -0.0659726932644844 -0.055153604596853256 -0.0714285597205162
			vertex -0.0659726932644844 -0.055166859179735184 -0.05634516105055809
			vertex -0.0659726932644844 -0.055153604596853256 -0.05633163079619408
		endloop
	endfacet
	facet normal -1 0 0
		outer loop
			vertex -0.0659726932644844 -0.055166859179735184 0.0714285746216774
			vertex -0.0659726932644844 -0.055153604596853256 0.0714285746216774
			vertex -0.0659726932644844 -0.055153604596853256 -0.05633163079619408
		endloop
	endfacet
	facet normal -1 0 0
		outer loop
			vertex -0.0659726932644844 -0.055166859179735184 0.0714285746216774
			vertex -0.0659726932644844 -0.055153604596853256 -0.05633163079619408
			vertex -0.0659726932644844 -0.055166859179735184 -0.05634516105055809
		endloop
	endfacet
	facet normal -1 0 0
		outer loop
			vertex -0.0659726932644844 -0.055166859179735184 -0.0714285597205162
			vertex -0.0659726932644844 -0.05517430230975151 -0.0714285597205162
			vertex -0.0659726932644844 -0.05517430230975151 -0.05635276064276695
		endloop
	endfacet
	facet normal -1 0 0
		outer loop
			vertex -0.0659726932644844 -0.055166859179735184 -0.0714285597205162
			vertex -0.0659726932644844 -0.05517430230975151 -0.05635276064276695
			vertex -0.0659726932644844 -0.055166859179735184 -0.05634516105055809
		endloop
	endfacet
	facet normal -1 0 0
		outer loop
			vertex -0.0659726932644844 -0.05517430230975151 0.0714285746216774
			vertex -0.0659726932644844 -0.055166859179735184 0.0714285746216774
			vertex -0.0659726932644844 -0.055166859179735184 -0.05634516105055809
		endloop
	endfacet
	facet normal -1 0 0
		outer loop
			vertex -0.0659726932644844 -0.05517430230975151 0.0714285746216774
			vertex -0.0659726932644844 -0.055166859179735184 -0.05634516105055809
			vertex -0.0659726932644844 -0.05517430230975151 -0.05635276064276695
		endloop
	endfacet
	facet normal -1 0 0
		outer loop
			vertex -0.0659726932644844 -0.05517430230975151 -0.0714285597205162
			vertex -0.0659726932644844 -0.06993483006954193 -0.0714285597205162
			vertex -0.0659726932644844 -0.05517430230975151 -0.05635276064276695
		endloop
	endfacet
	facet normal -1 0 0
		outer loop
			vertex -0.0659726932644844 -0.06993483006954193 -0.0714285597205162
			vertex -0.0659726932644844 -0.06993483006954193 0.0714285746216774
			vertex -0.0659726932644844 -0.05517430230975151 0.0714285746216774
		endloop
	endfacet
	facet normal -1 0 0
		outer loop
			vertex -0.0659726932644844 -0.06993483006954193 -0.0714285597205162
			vertex -0.0659726932644844 -0.05517430230975151 0.0714285746216774
			vertex -0.0659726932644844 -0.05517430230975151 -0.05635276064276695
		endloop
	endfacet
	facet normal 0 -1 0
		outer loop
			vertex 0.02795572392642498 -0.06993483006954193 0.030267629772424698
			vertex 0.06597268581390381 -0.06993483006954193 0.0714285746216774
			vertex 0.02795572392642498 -0.06993483006954193 0.0714285746216774
		endloop
	endfacet
	facet normal 0 -1 0
		outer loop
			vertex 0.02795572392642498 -0.06993483006954193 -0.0714285597205162
			vertex 0.06597268581390381 -0.06993483006954193 -0.0714285597205162
			vertex 0.06597268581390381 -0.06993483006954193 0.0714285746216774
		endloop
	endfacet
	facet normal 0 -1 0
		outer loop
			vertex 0.02795572392642498 -0.06993483006954193 -0.0714285597205162
			vertex 0.06597268581390381 -0.06993483006954193 0.0714285746216774
			vertex 0.02795572392642498 -0.06993483006954193 0.030267629772424698
		endloop
	endfacet
	facet normal 0 -1 0
		outer loop
			vertex 0.026026664301753044 -0.06993483006954193 0.028179053217172623
			vertex 0.02795572392642498 -0.06993483006954193 0.030267629772424698
			vertex 0.02795572392642498 -0.06993483006954193 0.0714285746216774
		endloop
	endfacet
	facet normal 0 -1 0
		outer loop
			vertex 0.026026664301753044 -0.06993483006954193 0.028179053217172623
			vertex 0.02795572392642498 -0.06993483006954193 0.0714285746216774
			vertex 0.026026664301753044 -0.06993483006954193 0.0714285746216774
		endloop
	endfacet
	facet normal 0 -1 0
		outer loop
			vertex 0.026026664301753044 -0.06993483006954193 -0.0714285597205162
			vertex 0.02795572392642498 -0.06993483006954193 -0.0714285597205162
			vertex 0.02795572392642498 -0.06993483006954193 0.030267629772424698
		endloop
	endfacet
	facet normal 0 -1 0
		outer loop
			vertex 0.026026664301753044 -0.06993483006954193 -0.0714285597205162
			vertex 0.02795572392642498 -0.06993483006954193 0.030267629772424698
			vertex 0.026026664301753044 -0.06993483006954193 0.028179053217172623
		endloop
	endfacet
	facet normal 0 -1 0
		outer loop
			vertex 0.016273660585284233 -0.06993483006954193 0.01761949434876442
			vertex 0.026026664301753044 -0.06993483006954193 0.028179053217172623
			vertex 0.026026664301753044 -0.06993483006954193 0.0714285746216774
		endloop
	endfacet
	facet normal 0 -1 0
		outer loop
			vertex 0.016273660585284233 -0.06993483006954193 0.01761949434876442
			vertex 0.026026664301753044 -0.06993483006954193 0.0714285746216774
			vertex 0.016273660585284233 -0.06993483006954193 0.0714285746216774
		endloop
	endfacet
	facet normal 0 -1 0
		outer loop
			vertex 0.016273660585284233 -0.06993483006954193 -0.0714285597205162
			vertex 0.026026664301753044 -0.06993483006954193 -0.0714285597205162
			vertex 0.026026664301753044 -0.06993483006954193 0.028179053217172623
		endloop
	endfacet
	facet normal 0 -1 0
		outer loop
			vertex 0.016273660585284233 -0.06993483006954193 -0.0714285597205162
			vertex 0.026026664301753044 -0.06993483006954193 0.028179053217172623
			vertex 0.016273660585284233 -0.06993483006954193 0.01761949434876442
		endloop
	endfacet
	facet normal 0 -1 0
		outer loop
			vertex 0.013696950860321522 -0.06993483006954193 0.014829670079052448
			vertex 0.013704043813049793 -0.06993483006954193 0.014837388880550861
			vertex 0.013704043813049793 -0.06993483006954193 0.0714285746216774
		endloop
	endfacet
	facet normal 0 -1 0
		outer loop
			vertex 0.013696950860321522 -0.06993483006954193 0.014829670079052448
			vertex 0.013704043813049793 -0.06993483006954193 0.0714285746216774
			vertex 0.013696950860321522 -0.06993483006954193 0.0714285746216774
		endloop
	endfacet
	facet normal 0 -1 0
		outer loop
			vertex 0.013696950860321522 -0.06993483006954193 -0.0714285597205162
			vertex 0.013704043813049793 -0.06993483006954193 -0.0714285597205162
			vertex 0.013704043813049793 -0.06993483006954193 0.014837388880550861
		endloop
	endfacet
	facet normal 0 -1 0
		outer loop
			vertex 0.013696950860321522 -0.06993483006954193 -0.0714285597205162
			vertex 0.013704043813049793 -0.06993483006954193 0.014837388880550861
			vertex 0.013696950860321522 -0.06993483006954193 0.014829670079052448
		endloop
	endfacet
	facet normal 0 -1 0
		outer loop
			vertex 0.013704043813049793 -0.06993483006954193 0.014837388880550861
			vertex 0.016273660585284233 -0.06993483006954193 0.01761949434876442
			vertex 0.016273660585284233 -0.06993483006954193 0.0714285746216774
		endloop
	endfacet
	facet normal 0 -1 0
		outer loop
			vertex 0.013704043813049793 -0.06993483006954193 0.014837388880550861
			vertex 0.016273660585284233 -0.06993483006954193 0.0714285746216774
			vertex 0.013704043813049793 -0.06993483006954193 0.0714285746216774
		endloop
	endfacet
	facet normal 0 -1 0
		outer loop
			vertex 0.013704043813049793 -0.06993483006954193 -0.0714285597205162
			vertex 0.016273660585284233 -0.06993483006954193 -0.0714285597205162
			vertex 0.016273660585284233 -0.06993483006954193 0.01761949434876442
		endloop
	endfacet
	facet normal 0 -1 0
		outer loop
			vertex 0.013704043813049793 -0.06993483006954193 -0.0714285597205162
			vertex 0.016273660585284233 -0.06993483006954193 0.01761949434876442
			vertex 0.013704043813049793 -0.06993483006954193 0.014837388880550861
		endloop
	endfacet
	facet normal 0 -1 0
		outer loop
			vertex -0.014090183191001415 -0.06993483006954193 -0.01525538694113493
			vertex -0.013754027895629406 -0.06993483006954193 -0.014891470782458782
			vertex -0.013754027895629406 -0.06993483006954193 0.0714285746216774
		endloop
	endfacet
	facet normal 0 -1 0
		outer loop
			vertex -0.014090183191001415 -0.06993483006954193 -0.01525538694113493
			vertex -0.013754027895629406 -0.06993483006954193 0.0714285746216774
			vertex -0.014090183191001415 -0.06993483006954193 0.0714285746216774
		endloop
	endfacet
	facet normal 0 -1 0
		outer loop
			vertex -0.014090183191001415 -0.06993483006954193 -0.0714285597205162
			vertex -0.013754027895629406 -0.06993483006954193 -0.0714285597205162
			vertex -0.013754027895629406 -0.06993483006954193 -0.014891470782458782
		endloop
	endfacet
	facet normal 0 -1 0
		outer loop
			vertex -0.014090183191001415 -0.06993483006954193 -0.0714285597205162
			vertex -0.013754027895629406 -0.06993483006954193 -0.014891470782458782
			vertex -0.014090183191001415 -0.06993483006954193 -0.01525538694113493
		endloop
	endfacet
	facet normal 0 -1 0
		outer loop
			vertex -0.01550650130957365 -0.06993483006954193 -0.016788866370916367
			vertex -0.014090183191001415 -0.06993483006954193 -0.01525538694113493
			vertex -0.014090183191001415 -0.06993483006954193 0.0714285746216774
		endloop
	endfacet
	facet normal 0 -1 0
		outer loop
			vertex -0.01550650130957365 -0.06993483006954193 -0.016788866370916367
			vertex -0.014090183191001415 -0.06993483006954193 0.0714285746216774
			vertex -0.01550650130957365 -0.06993483006954193 0.0714285746216774
		endloop
	endfacet
	facet normal 0 -1 0
		outer loop
			vertex -0.01550650130957365 -0.06993483006954193 -0.0714285597205162
			vertex -0.014090183191001415 -0.06993483006954193 -0.0714285597205162
			vertex -0.014090183191001415 -0.06993483006954193 -0.01525538694113493
		endloop
	endfacet
	facet normal 0 -1 0
		outer loop
			vertex -0.01550650130957365 -0.06993483006954193 -0.0714285597205162
			vertex -0.014090183191001415 -0.06993483006954193 -0.01525538694113493
			vertex -0.01550650130957365 -0.06993483006954193 -0.016788866370916367
		endloop
	endfacet
	facet normal 0 -1 0
		outer loop
			vertex -0.018875526264309883 -0.06993483006954193 -0.020436521619558334
			vertex -0.01550650130957365 -0.06993483006954193 -0.016788866370916367
			vertex -0.01550650130957365 -0.06993483006954193 0.0714285746216774
		endloop
	endfacet
	facet normal 0 -1 0
		outer loop
			vertex -0.018875526264309883 -0.06993483006954193 -0.020436521619558334
			vertex -0.01550650130957365 -0.06993483006954193 0.0714285746216774
			vertex -0.018875526264309883 -0.06993483006954193 0.0714285746216774
		endloop
	endfacet
	facet normal 0 -1 0
		outer loop
			vertex -0.018875526264309883 -0.06993483006954193 -0.0714285597205162
			vertex -0.01550650130957365 -0.06993483006954193 -0.0714285597205162
			vertex -0.01550650130957365 -0.06993483006954193 -0.016788866370916367
		endloop
	endfacet
	facet normal 0 -1 0
		outer loop
			vertex -0.018875526264309883 -0.06993483006954193 -0.0714285597205162
			vertex -0.01550650130957365 -0.06993483006954193 -0.016788866370916367
			vertex -0.018875526264309883 -0.06993483006954193 -0.020436521619558334
		endloop
	endfacet
	facet normal 0 -1 0
		outer loop
			vertex -0.024681301787495613 -0.06993483006954193 -0.026722397655248642
			vertex -0.018875526264309883 -0.06993483006954193 -0.020436521619558334
			vertex -0.018875526264309883 -0.06993483006954193 0.0714285746216774
		endloop
	endfacet
	facet normal 0 -1 0
		outer loop
			vertex -0.024681301787495613 -0.06993483006954193 -0.026722397655248642
			vertex -0.018875526264309883 -0.06993483006954193 0.0714285746216774
			vertex -0.024681301787495613 -0.06993483006954193 0.0714285746216774
		endloop
	endfacet
	facet normal 0 -1 0
		outer loop
			vertex -0.024681301787495613 -0.06993483006954193 -0.0714285597205162
			vertex -0.018875526264309883 -0.06993483006954193 -0.0714285597205162
			vertex -0.018875526264309883 -0.06993483006954193 -0.020436521619558334
		endloop
	endfacet
	facet normal 0 -1 0
		outer loop
			vertex -0.024681301787495613 -0.06993483006954193 -0.0714285597205162
			vertex -0.018875526264309883 -0.06993483006954193 -0.020436521619558334
			vertex -0.024681301787495613 -0.06993483006954193 -0.026722397655248642
		endloop
	endfacet
	facet normal 0 -1 0
		outer loop
			vertex -0.04024195298552513 -0.06993483006954193 -0.043569888919591904
			vertex -0.024681301787495613 -0.06993483006954193 -0.026722397655248642
			vertex -0.024681301787495613 -0.06993483006954193 0.0714285746216774
		endloop
	endfacet
	facet normal 0 -1 0
		outer loop
			vertex -0.04024195298552513 -0.06993483006954193 -0.043569888919591904
			vertex -0.024681301787495613 -0.06993483006954193 0.0714285746216774
			vertex -0.04024195298552513 -0.06993483006954193 0.0714285746216774
		endloop
	endfacet
	facet normal 0 -1 0
		outer loop
			vertex -0.04024195298552513 -0.06993483006954193 -0.0714285597205162
			vertex -0.024681301787495613 -0.06993483006954193 -0.0714285597205162
			vertex -0.024681301787495613 -0.06993483006954193 -0.026722397655248642
		endloop
	endfacet
	facet normal 0 -1 0
		outer loop
			vertex -0.04024195298552513 -0.06993483006954193 -0.0714285597205162
			vertex -0.024681301787495613 -0.06993483006954193 -0.026722397655248642
			vertex -0.04024195298552513 -0.06993483006954193 -0.043569888919591904
		endloop
	endfacet
	facet normal 0 -1 0
		outer loop
			vertex -0.04031778499484062 -0.06993483006954193 -0.04365202412009239
			vertex -0.04024195298552513 -0.06993483006954193 -0.043569888919591904
			vertex -0.04024195298552513 -0.06993483006954193 0.0714285746216774
		endloop
	endfacet
	facet normal 0 -1 0
		outer loop
			vertex -0.04031778499484062 -0.06993483006954193 -0.04365202412009239
			vertex -0.04024195298552513 -0.06993483006954193 0.0714285746216774
			vertex -0.04031778499484062 -0.06993483006954193 0.0714285746216774
		endloop
	endfacet
	facet normal 0 -1 0
		outer loop
			vertex -0.04031778499484062 -0.06993483006954193 -0.0714285597205162
			vertex -0.04024195298552513 -0.06993483006954193 -0.0714285597205162
			vertex -0.04024195298552513 -0.06993483006954193 -0.043569888919591904
		endloop
	endfacet
	facet normal 0 -1 0
		outer loop
			vertex -0.04031778499484062 -0.06993483006954193 -0.0714285597205162
			vertex -0.04024195298552513 -0.06993483006954193 -0.043569888919591904
			vertex -0.04031778499484062 -0.06993483006954193 -0.04365202412009239
		endloop
	endfacet
	facet normal 0 -1 0
		outer loop
			vertex -0.06235845759510994 -0.06993483006954193 -0.06751545518636703
			vertex -0.04031778499484062 -0.06993483006954193 -0.04365202412009239
			vertex -0.04031778499484062 -0.06993483006954193 0.0714285746216774
		endloop
	endfacet
	facet normal 0 -1 0
		outer loop
			vertex -0.06235845759510994 -0.06993483006954193 -0.06751545518636703
			vertex -0.04031778499484062 -0.06993483006954193 0.0714285746216774
			vertex -0.06235845759510994 -0.06993483006954193 0.0714285746216774
		endloop
	endfacet
	facet normal 0 -1 0
		outer loop
			vertex -0.06235845759510994 -0.06993483006954193 -0.0714285597205162
			vertex -0.04031778499484062 -0.06993483006954193 -0.0714285597205162
			vertex -0.04031778499484062 -0.06993483006954193 -0.04365202412009239
		endloop
	endfacet
	facet normal 0 -1 0
		outer loop
			vertex -0.06235845759510994 -0.06993483006954193 -0.0714285597205162
			vertex -0.04031778499484062 -0.06993483006954193 -0.04365202412009239
			vertex -0.06235845759510994 -0.06993483006954193 -0.06751545518636703
		endloop
	endfacet
	facet normal 0 -1 0
		outer loop
			vertex -0.0659726932644844 -0.06993483006954193 0.0714285746216774
			vertex -0.0659726932644844 -0.06993483006954193 -0.0714285597205162
			vertex -0.06235845759510994 -0.06993483006954193 -0.06751545518636703
		endloop
	endfacet
	facet normal 0 -1 0
		outer loop
			vertex -0.0659726932644844 -0.06993483006954193 0.0714285746216774
			vertex -0.06235845759510994 -0.06993483006954193 -0.06751545518636703
			vertex -0.06235845759510994 -0.06993483006954193 0.0714285746216774
		endloop
	endfacet
	facet normal 0 -1 0
		outer loop
			vertex -0.0659726932644844 -0.06993483006954193 -0.0714285597205162
			vertex -0.06235845759510994 -0.06993483006954193 -0.0714285597205162
			vertex -0.06235845759510994 -0.06993483006954193 -0.06751545518636703
		endloop
	endfacet
	facet normal 0 0 -1
		outer loop
			vertex 0.06597268581390381 -0.04412121698260307 -0.0714285597205162
			vertex 0.06597268581390381 -0.06993483006954193 -0.0714285597205162
			vertex 0.05112924799323082 -0.0541999526321888 -0.0714285597205162
		endloop
	endfacet
	facet normal 0 0 -1
		outer loop
			vertex 0.06597268581390381 -0.06993483006954193 -0.0714285597205162
			vertex 0.02795572392642498 -0.06993483006954193 -0.0714285597205162
			vertex 0.05112924799323082 -0.0541999526321888 -0.0714285597205162
		endloop
	endfacet
	facet normal 0 0 -1
		outer loop
			vertex 0.06597268581390381 -0.043304067105054855 -0.0714285597205162
			vertex 0.06597268581390381 -0.04412121698260307 -0.0714285597205162
			vertex 0.05112924799323082 -0.0541999526321888 -0.0714285597205162
		endloop
	endfacet
	facet normal 0 0 -1
		outer loop
			vertex 0.06597268581390381 -0.043304067105054855 -0.0714285597205162
			vertex 0.05112924799323082 -0.0541999526321888 -0.0714285597205162
			vertex 0.050549980252981186 -0.053585898131132126 -0.0714285597205162
		endloop
	endfacet
	facet normal 0 0 -1
		outer loop
			vertex 0.02795572392642498 -0.06993483006954193 -0.0714285597205162
			vertex 0.026026664301753044 -0.06993483006954193 -0.0714285597205162
			vertex 0.050549980252981186 -0.053585898131132126 -0.0714285597205162
		endloop
	endfacet
	facet normal 0 0 -1
		outer loop
			vertex 0.02795572392642498 -0.06993483006954193 -0.0714285597205162
			vertex 0.050549980252981186 -0.053585898131132126 -0.0714285597205162
			vertex 0.05112924799323082 -0.0541999526321888 -0.0714285597205162
		endloop
	endfacet
	facet normal 0 0 -1
		outer loop
			vertex 0.06597268581390381 -0.03552441671490669 -0.0714285597205162
			vertex 0.06597268581390381 -0.043304067105054855 -0.0714285597205162
			vertex 0.050549980252981186 -0.053585898131132126 -0.0714285597205162
		endloop
	endfacet
	facet normal 0 0 -1
		outer loop
			vertex 0.06597268581390381 -0.03552441671490669 -0.0714285597205162
			vertex 0.050549980252981186 -0.053585898131132126 -0.0714285597205162
			vertex 0.04633691534399986 -0.04911976680159569 -0.0714285597205162
		endloop
	endfacet
	facet normal 0 0 -1
		outer loop
			vertex 0.026026664301753044 -0.06993483006954193 -0.0714285597205162
			vertex 0.016273660585284233 -0.06993483006954193 -0.0714285597205162
			vertex 0.04633691534399986 -0.04911976680159569 -0.0714285597205162
		endloop
	endfacet
	facet normal 0 0 -1
		outer loop
			vertex 0.026026664301753044 -0.06993483006954193 -0.0714285597205162
			vertex 0.04633691534399986 -0.04911976680159569 -0.0714285597205162
			vertex 0.050549980252981186 -0.053585898131132126 -0.0714285597205162
		endloop
	endfacet
	facet normal 0 0 -1
		outer loop
			vertex 0.020574091002345085 -0.051998164504766464 -0.0714285597205162
			vertex 0.021853087469935417 -0.05112915858626366 -0.0714285597205162
			vertex 0.020411549136042595 -0.052124183624982834 -0.0714285597205162
		endloop
	endfacet
	facet normal 0 0 -1
		outer loop
			vertex 0.016882074996829033 -0.05486016348004341 -0.0714285597205162
			vertex 0.020411549136042595 -0.052124183624982834 -0.0714285597205162
			vertex 0.023748068138957024 -0.0498211570084095 -0.0714285597205162
		endloop
	endfacet
	facet normal 0 0 -1
		outer loop
			vertex 0.016882074996829033 -0.05486016348004341 -0.0714285597205162
			vertex 0.023748068138957024 -0.0498211570084095 -0.0714285597205162
			vertex 0.015503746457397938 -0.05663605406880379 -0.0714285597205162
		endloop
	endfacet
	facet normal 0 0 -1
		outer loop
			vertex 0.01427507121115923 -0.05821915343403816 -0.0714285597205162
			vertex 0.015503746457397938 -0.05663605406880379 -0.0714285597205162
			vertex 0.029089106246829033 -0.04540615901350975 -0.0714285597205162
		endloop
	endfacet
	facet normal 0 0 -1
		outer loop
			vertex 0.01427507121115923 -0.05821915343403816 -0.0714285597205162
			vertex 0.029089106246829033 -0.04540615901350975 -0.0714285597205162
			vertex 0.013413590379059315 -0.06244925037026405 -0.0714285597205162
		endloop
	endfacet
	facet normal 0 0 -1
		outer loop
			vertex 0.013704043813049793 -0.06993483006954193 -0.0714285597205162
			vertex 0.013696950860321522 -0.06993483006954193 -0.0714285597205162
			vertex 0.013640073128044605 -0.06910816580057144 -0.0714285597205162
		endloop
	endfacet
	facet normal 0 0 -1
		outer loop
			vertex 0.016273660585284233 -0.06993483006954193 -0.0714285597205162
			vertex 0.013704043813049793 -0.06993483006954193 -0.0714285597205162
			vertex 0.013513085432350636 -0.06746716052293777 -0.0714285597205162
		endloop
	endfacet
	facet normal 0 0 -1
		outer loop
			vertex 0.016273660585284233 -0.06993483006954193 -0.0714285597205162
			vertex 0.013513085432350636 -0.06746716052293777 -0.0714285597205162
			vertex 0.013396081514656544 -0.06253515928983688 -0.0714285597205162
		endloop
	endfacet
	facet normal 0 0 -1
		outer loop
			vertex 0.016273660585284233 -0.06993483006954193 -0.0714285597205162
			vertex 0.013396081514656544 -0.06253515928983688 -0.0714285597205162
			vertex 0.013413590379059315 -0.06244925037026405 -0.0714285597205162
		endloop
	endfacet
	facet normal 0 0 -1
		outer loop
			vertex 0.016273660585284233 -0.06993483006954193 -0.0714285597205162
			vertex 0.013413590379059315 -0.06244925037026405 -0.0714285597205162
			vertex 0.03377709910273552 -0.04030917212367058 -0.0714285597205162
		endloop
	endfacet
	facet normal 0 0 -1
		outer loop
			vertex 0.016273660585284233 -0.06993483006954193 -0.0714285597205162
			vertex 0.03377709910273552 -0.04030917212367058 -0.0714285597205162
			vertex 0.023083699867129326 -0.06521973013877869 -0.0714285597205162
		endloop
	endfacet
	facet normal 0 0 -1
		outer loop
			vertex 0.04818044230341911 -0.0478433333337307 -0.0714285597205162
			vertex 0.04633691534399986 -0.04911976680159569 -0.0714285597205162
			vertex 0.035105716437101364 -0.03721409663558006 -0.0714285597205162
		endloop
	endfacet
	facet normal 0 0 -1
		outer loop
			vertex 0.04818044230341911 -0.0478433333337307 -0.0714285597205162
			vertex 0.035105716437101364 -0.03721409663558006 -0.0714285597205162
			vertex 0.03534909710288048 -0.03664715960621834 -0.0714285597205162
		endloop
	endfacet
	facet normal 0 0 -1
		outer loop
			vertex 0.035105716437101364 -0.03721409663558006 -0.0714285597205162
			vertex 0.04633691534399986 -0.04911976680159569 -0.0714285597205162
			vertex 0.023083699867129326 -0.06521973013877869 -0.0714285597205162
		endloop
	endfacet
	facet normal 0 0 -1
		outer loop
			vertex 0.06597268581390381 -0.03525015339255333 -0.0714285597205162
			vertex 0.06597268581390381 -0.03552441671490669 -0.0714285597205162
			vertex 0.04818044230341911 -0.0478433333337307 -0.0714285597205162
		endloop
	endfacet
	facet normal 0 0 -1
		outer loop
			vertex 0.06597268581390381 -0.03525015339255333 -0.0714285597205162
			vertex 0.04818044230341911 -0.0478433333337307 -0.0714285597205162
			vertex 0.033748071640729904 -0.03525015339255333 -0.0714285597205162
		endloop
	endfacet
	facet normal 0 0 -1
		outer loop
			vertex 0.06597268581390381 -0.014298172667622566 -0.0714285597205162
			vertex 0.06597268581390381 -0.03525015339255333 -0.0714285597205162
			vertex 0.03325306996703148 -0.03525015339255333 -0.0714285597205162
		endloop
	endfacet
	facet normal 0 0 -1
		outer loop
			vertex 0.06597268581390381 -0.014298172667622566 -0.0714285597205162
			vertex 0.03325306996703148 -0.03525015339255333 -0.0714285597205162
			vertex 0.032590653747320175 -0.034547965973615646 -0.0714285597205162
		endloop
	endfacet
	facet normal 0 0 -1
		outer loop
			vertex 0.03143308684229851 -0.03525015339255333 -0.0714285597205162
			vertex 0.032590653747320175 -0.034547965973615646 -0.0714285597205162
			vertex 0.03325306996703148 -0.03525015339255333 -0.0714285597205162
		endloop
	endfacet
	facet normal 0 0 -1
		outer loop
			vertex 0.06597268581390381 -0.01035592146217823 -0.0714285597205162
			vertex 0.06597268581390381 -0.014298172667622566 -0.0714285597205162
			vertex 0.032590653747320175 -0.034547965973615646 -0.0714285597205162
		endloop
	endfacet
	facet normal 0 0 -1
		outer loop
			vertex 0.06597268581390381 -0.01035592146217823 -0.0714285597205162
			vertex 0.032590653747320175 -0.034547965973615646 -0.0714285597205162
			vertex 0.03222585842013359 -0.03416125103831291 -0.0714285597205162
		endloop
	endfacet
	facet normal 0 0 -1
		outer loop
			vertex 0.026072097942233086 -0.03850216791033745 -0.0714285597205162
			vertex 0.03222585842013359 -0.03416125103831291 -0.0714285597205162
			vertex 0.032590653747320175 -0.034547965973615646 -0.0714285597205162
		endloop
	endfacet
	facet normal 0 0 -1
		outer loop
			vertex 0.06597268581390381 -0.0052660428918898106 -0.0714285597205162
			vertex 0.06597268581390381 -0.01035592146217823 -0.0714285597205162
			vertex 0.03222585842013359 -0.03416125103831291 -0.0714285597205162
		endloop
	endfacet
	facet normal 0 0 -1
		outer loop
			vertex 0.06597268581390381 -0.0052660428918898106 -0.0714285597205162
			vertex 0.03222585842013359 -0.03416125103831291 -0.0714285597205162
			vertex 0.031257789582014084 -0.033135075122117996 -0.0714285597205162
		endloop
	endfacet
	facet normal 0 0 -1
		outer loop
			vertex 0.013709080405533314 -0.047223154455423355 -0.0714285597205162
			vertex 0.031257789582014084 -0.033135075122117996 -0.0714285597205162
			vertex 0.03222585842013359 -0.03416125103831291 -0.0714285597205162
		endloop
	endfacet
	facet normal 0 0 -1
		outer loop
			vertex 0.06597268581390381 -0.0013886264059692621 -0.0714285597205162
			vertex 0.06597268581390381 -0.0052660428918898106 -0.0714285597205162
			vertex 0.031257789582014084 -0.033135075122117996 -0.0714285597205162
		endloop
	endfacet
	facet normal 0 0 -1
		outer loop
			vertex 0.06597268581390381 -0.0013886264059692621 -0.0714285597205162
			vertex 0.031257789582014084 -0.033135075122117996 -0.0714285597205162
			vertex 0.030268220230937004 -0.03208605572581291 -0.0714285597205162
		endloop
	endfacet
	facet normal 0 0 -1
		outer loop
			vertex -0.002091931877657771 -0.059908170253038406 -0.0714285597205162
			vertex 0.030268220230937004 -0.03208605572581291 -0.0714285597205162
			vertex 0.031257789582014084 -0.033135075122117996 -0.0714285597205162
		endloop
	endfacet
	facet normal 0 0 -1
		outer loop
			vertex 0.06597268581390381 0.0030688473489135504 -0.0714285597205162
			vertex 0.06597268581390381 -0.0013886264059692621 -0.0714285597205162
			vertex 0.030268220230937004 -0.03208605572581291 -0.0714285597205162
		endloop
	endfacet
	facet normal 0 0 -1
		outer loop
			vertex 0.06597268581390381 0.0030688473489135504 -0.0714285597205162
			vertex 0.030268220230937004 -0.03208605572581291 -0.0714285597205162
			vertex 0.028950436040759087 -0.03068912960588932 -0.0714285597205162
		endloop
	endfacet
	facet normal 0 0 -1
		outer loop
			vertex -0.013754027895629406 -0.06993483006954193 -0.0714285597205162
			vertex -0.014090183191001415 -0.06993483006954193 -0.0714285597205162
			vertex 0.028950436040759087 -0.03068912960588932 -0.0714285597205162
		endloop
	endfacet
	facet normal 0 0 -1
		outer loop
			vertex -0.013754027895629406 -0.06993483006954193 -0.0714285597205162
			vertex 0.028950436040759087 -0.03068912960588932 -0.0714285597205162
			vertex 0.030268220230937004 -0.03208605572581291 -0.0714285597205162
		endloop
	endfacet
	facet normal 0 0 -1
		outer loop
			vertex 0.06597268581390381 0.00922408513724804 -0.0714285597205162
			vertex 0.06597268581390381 0.0030688473489135504 -0.0714285597205162
			vertex 0.028950436040759087 -0.03068912960588932 -0.0714285597205162
		endloop
	endfacet
	facet normal 0 0 -1
		outer loop
			vertex 0.06597268581390381 0.00922408513724804 -0.0714285597205162
			vertex 0.028950436040759087 -0.03068912960588932 -0.0714285597205162
			vertex 0.027008486911654472 -0.02863052673637867 -0.0714285597205162
		endloop
	endfacet
	facet normal 0 0 -1
		outer loop
			vertex -0.014090183191001415 -0.06993483006954193 -0.0714285597205162
			vertex -0.01550650130957365 -0.06993483006954193 -0.0714285597205162
			vertex 0.027008486911654472 -0.02863052673637867 -0.0714285597205162
		endloop
	endfacet
	facet normal 0 0 -1
		outer loop
			vertex -0.014090183191001415 -0.06993483006954193 -0.0714285597205162
			vertex 0.027008486911654472 -0.02863052673637867 -0.0714285597205162
			vertex 0.028950436040759087 -0.03068912960588932 -0.0714285597205162
		endloop
	endfacet
	facet normal 0 0 -1
		outer loop
			vertex 0.06597268581390381 0.020665956661105156 -0.0714285597205162
			vertex 0.06597268581390381 0.00922408513724804 -0.0714285597205162
			vertex 0.027008486911654472 -0.02863052673637867 -0.0714285597205162
		endloop
	endfacet
	facet normal 0 0 -1
		outer loop
			vertex 0.06597268581390381 0.020665956661105156 -0.0714285597205162
			vertex 0.027008486911654472 -0.02863052673637867 -0.0714285597205162
			vertex 0.023394254967570305 -0.02479923702776432 -0.0714285597205162
		endloop
	endfacet
	facet normal 0 0 -1
		outer loop
			vertex -0.01550650130957365 -0.06993483006954193 -0.0714285597205162
			vertex -0.018875526264309883 -0.06993483006954193 -0.0714285597205162
			vertex 0.023394254967570305 -0.02479923702776432 -0.0714285597205162
		endloop
	endfacet
	facet normal 0 0 -1
		outer loop
			vertex -0.01550650130957365 -0.06993483006954193 -0.0714285597205162
			vertex 0.023394254967570305 -0.02479923702776432 -0.0714285597205162
			vertex 0.027008486911654472 -0.02863052673637867 -0.0714285597205162
		endloop
	endfacet
	facet normal 0 0 -1
		outer loop
			vertex 0.06597268581390381 0.03163440153002739 -0.0714285597205162
			vertex 0.06597268581390381 0.020665956661105156 -0.0714285597205162
			vertex 0.023394254967570305 -0.02479923702776432 -0.0714285597205162
		endloop
	endfacet
	facet normal 0 0 -1
		outer loop
			vertex 0.06597268581390381 0.03163440153002739 -0.0714285597205162
			vertex 0.023394254967570305 -0.02479923702776432 -0.0714285597205162
			vertex 0.01691068522632122 -0.017926299944519997 -0.0714285597205162
		endloop
	endfacet
	facet normal 0 0 -1
		outer loop
			vertex 0.06597268581390381 0.03163440153002739 -0.0714285597205162
			vertex 0.01691068522632122 -0.017926299944519997 -0.0714285597205162
			vertex 0.04896176978945732 0.022151870653033257 -0.0714285597205162
		endloop
	endfacet
	facet normal 0 0 -1
		outer loop
			vertex -0.018875526264309883 -0.06993483006954193 -0.0714285597205162
			vertex -0.024681301787495613 -0.06993483006954193 -0.0714285597205162
			vertex 0.01691068522632122 -0.017926299944519997 -0.0714285597205162
		endloop
	endfacet
	facet normal 0 0 -1
		outer loop
			vertex -0.018875526264309883 -0.06993483006954193 -0.0714285597205162
			vertex 0.01691068522632122 -0.017926299944519997 -0.0714285597205162
			vertex 0.023394254967570305 -0.02479923702776432 -0.0714285597205162
		endloop
	endfacet
	facet normal 0 0 -1
		outer loop
			vertex 0.00828042346984148 -0.00446968013420701 -0.0714285597205162
			vertex 0.008303460665047169 -0.004448326770216227 -0.0714285597205162
			vertex 0.010476094670593739 -0.002965169260278344 -0.0714285597205162
		endloop
	endfacet
	facet normal 0 0 -1
		outer loop
			vertex 0.04896176978945732 0.022151870653033257 -0.0714285597205162
			vertex 0.01691068522632122 -0.017926299944519997 -0.0714285597205162
			vertex 0.006112110801041126 -0.00647919112816453 -0.0714285597205162
		endloop
	endfacet
	facet normal 0 0 -1
		outer loop
			vertex 0.04896176978945732 0.022151870653033257 -0.0714285597205162
			vertex 0.006112110801041126 -0.00647919112816453 -0.0714285597205162
			vertex 0.00828042346984148 -0.00446968013420701 -0.0714285597205162
		endloop
	endfacet
	facet normal 0 0 -1
		outer loop
			vertex 0.04896176978945732 0.022151870653033257 -0.0714285597205162
			vertex 0.00828042346984148 -0.00446968013420701 -0.0714285597205162
			vertex 0.01944108121097088 0.003177834441885352 -0.0714285597205162
		endloop
	endfacet
	facet normal 0 0 -1
		outer loop
			vertex 0.04896176978945732 0.022151870653033257 -0.0714285597205162
			vertex 0.01944108121097088 0.003177834441885352 -0.0714285597205162
			vertex 0.04684307798743248 0.02097083441913128 -0.0714285597205162
		endloop
	endfacet
	facet normal 0 0 -1
		outer loop
			vertex -0.024681301787495613 -0.06993483006954193 -0.0714285597205162
			vertex -0.04024195298552513 -0.06993483006954193 -0.0714285597205162
			vertex -0.01790209300816059 -0.028734559193253517 -0.0714285597205162
		endloop
	endfacet
	facet normal 0 0 -1
		outer loop
			vertex -0.024681301787495613 -0.06993483006954193 -0.0714285597205162
			vertex -0.01790209300816059 -0.028734559193253517 -0.0714285597205162
			vertex 0.006112110801041126 -0.00647919112816453 -0.0714285597205162
		endloop
	endfacet
	facet normal 0 0 -1
		outer loop
			vertex -0.024681301787495613 -0.06993483006954193 -0.0714285597205162
			vertex 0.006112110801041126 -0.00647919112816453 -0.0714285597205162
			vertex 0.01691068522632122 -0.017926299944519997 -0.0714285597205162
		endloop
	endfacet
	facet normal 0 0 -1
		outer loop
			vertex -0.04024195298552513 -0.06993483006954193 -0.0714285597205162
			vertex -0.04031778499484062 -0.06993483006954193 -0.0714285597205162
			vertex -0.018160918727517128 -0.028974385932087898 -0.0714285597205162
		endloop
	endfacet
	facet normal 0 0 -1
		outer loop
			vertex -0.04024195298552513 -0.06993483006954193 -0.0714285597205162
			vertex -0.018160918727517128 -0.028974385932087898 -0.0714285597205162
			vertex -0.01790209300816059 -0.028734559193253517 -0.0714285597205162
		endloop
	endfacet
	facet normal 0 0 -1
		outer loop
			vertex -0.04031778499484062 -0.06993483006954193 -0.0714285597205162
			vertex -0.06235845759510994 -0.06993483006954193 -0.0714285597205162
			vertex -0.018160918727517128 -0.028974385932087898 -0.0714285597205162
		endloop
	endfacet
	facet normal 0 0 -1
		outer loop
			vertex -0.0659726932644844 -0.055153604596853256 -0.0714285597205162
			vertex -0.0659726932644844 -0.05514559522271156 -0.0714285597205162
			vertex -0.062319133430719376 -0.05265947803854942 -0.0714285597205162
		endloop
	endfacet
	facet normal 0 0 -1
		outer loop
			vertex -0.0659726932644844 -0.055166859179735184 -0.0714285597205162
			vertex -0.0659726932644844 -0.055153604596853256 -0.0714285597205162
			vertex -0.062319133430719376 -0.05265947803854942 -0.0714285597205162
		endloop
	endfacet
	facet normal 0 0 -1
		outer loop
			vertex -0.0659726932644844 -0.055166859179735184 -0.0714285597205162
			vertex -0.062319133430719376 -0.05265947803854942 -0.0714285597205162
			vertex -0.05679892376065254 -0.048903170973062515 -0.0714285597205162
		endloop
	endfacet
	facet normal 0 0 -1
		outer loop
			vertex -0.0659726932644844 -0.05517430230975151 -0.0714285597205162
			vertex -0.0659726932644844 -0.055166859179735184 -0.0714285597205162
			vertex -0.02546091563999653 -0.0275061447173357 -0.0714285597205162
		endloop
	endfacet
	facet normal 0 0 -1
		outer loop
			vertex 0.008303460665047169 -0.004448326770216227 -0.0714285597205162
			vertex 0.006112110801041126 -0.00647919112816453 -0.0714285597205162
			vertex 0.005805176682770252 -0.0061537944711744785 -0.0714285597205162
		endloop
	endfacet
	facet normal 0 0 -1
		outer loop
			vertex -0.06235845759510994 -0.06993483006954193 -0.0714285597205162
			vertex -0.0659726932644844 -0.06993483006954193 -0.0714285597205162
			vertex -0.0659726932644844 -0.05517430230975151 -0.0714285597205162
		endloop
	endfacet
	facet normal 0 0 -1
		outer loop
			vertex -0.06235845759510994 -0.06993483006954193 -0.0714285597205162
			vertex -0.0659726932644844 -0.05517430230975151 -0.0714285597205162
			vertex 0.0014920952962711453 -0.009098174050450325 -0.0714285597205162
		endloop
	endfacet
	facet normal 0 0 -1
		outer loop
			vertex -0.06235845759510994 -0.06993483006954193 -0.0714285597205162
			vertex 0.0014920952962711453 -0.009098174050450325 -0.0714285597205162
			vertex 0.005805176682770252 -0.0061537944711744785 -0.0714285597205162
		endloop
	endfacet
	facet normal 0 0 -1
		outer loop
			vertex -0.06235845759510994 -0.06993483006954193 -0.0714285597205162
			vertex 0.005805176682770252 -0.0061537944711744785 -0.0714285597205162
			vertex 0.006112110801041126 -0.00647919112816453 -0.0714285597205162
		endloop
	endfacet
endsolid exported
