solid exported
	facet normal 0.7807851028869599 -0.6247996663809926 0
		outer loop
			vertex -0.0659727230668068 0.05719686672091484 0.0714285671710968
			vertex -0.0659727230668068 0.05719686672091484 -0.071428582072258
			vertex -0.06342247873544693 0.06038379669189453 -0.071428582072258
		endloop
	endfacet
	facet normal 0.7807838435296822 -0.624801240142026 -5.7589942166521916e-8
		outer loop
			vertex -0.0659727230668068 0.05719686672091484 0.0714285671710968
			vertex -0.06342247873544693 0.06038379669189453 -0.071428582072258
			vertex -0.06403759866952896 0.05961509793996811 0.0714285671710968
		endloop
	endfacet
	facet normal 0.7807816831917972 -0.624803939802061 -8.141858648004186e-8
		outer loop
			vertex -0.06403759866952896 0.05961509793996811 0.0714285671710968
			vertex -0.06342247873544693 0.06038379669189453 -0.071428582072258
			vertex -0.06280732899904251 0.061152514070272446 -0.071428582072258
		endloop
	endfacet
	facet normal 0.7807853738848763 -0.6247993277264741 0
		outer loop
			vertex -0.06403759866952896 0.05961509793996811 0.0714285671710968
			vertex -0.06280732899904251 0.061152514070272446 -0.071428582072258
			vertex -0.06280732899904251 0.061152514070272446 0.0714285671710968
		endloop
	endfacet
	facet normal 0.7527509240570095 -0.6583054354411169 0
		outer loop
			vertex -0.05512707307934761 0.06993484497070312 -0.071428582072258
			vertex -0.05512707307934761 0.06993484497070312 -0.038608651608228683
			vertex -0.05615231767296791 0.06876251101493835 0.0714285671710968
		endloop
	endfacet
	facet normal 0.7527598078109821 -0.6582952770181112 1.4711958812806564e-7
		outer loop
			vertex -0.05512707307934761 0.06993484497070312 -0.071428582072258
			vertex -0.05615231767296791 0.06876251101493835 0.0714285671710968
			vertex -0.06280732899904251 0.061152514070272446 0.0714285671710968
		endloop
	endfacet
	facet normal 0.7527586219340929 -0.6582966330643698 0
		outer loop
			vertex -0.05512707307934761 0.06993484497070312 -0.071428582072258
			vertex -0.06280732899904251 0.061152514070272446 0.0714285671710968
			vertex -0.06280732899904251 0.061152514070272446 -0.071428582072258
		endloop
	endfacet
	facet normal 0.7527509240570095 -0.6583054354411169 0
		outer loop
			vertex -0.05615231767296791 0.06876251101493835 0.0714285671710968
			vertex -0.05512707307934761 0.06993484497070312 -0.038608651608228683
			vertex -0.05512707307934761 0.06993484497070312 0.0714285671710968
		endloop
	endfacet
	facet normal -1 0 0
		outer loop
			vertex -0.0659727230668068 0.057644788175821304 -0.071428582072258
			vertex -0.0659727230668068 0.05719686672091484 -0.071428582072258
			vertex -0.0659727230668068 0.05719686672091484 0.058418530970811844
		endloop
	endfacet
	facet normal -1 0 0
		outer loop
			vertex -0.0659727230668068 0.057644788175821304 -0.071428582072258
			vertex -0.0659727230668068 0.05719686672091484 0.058418530970811844
			vertex -0.0659727230668068 0.057644788175821304 0.05887599661946297
		endloop
	endfacet
	facet normal -1 0 0
		outer loop
			vertex -0.0659727230668068 0.05719686672091484 0.0714285671710968
			vertex -0.0659727230668068 0.057644788175821304 0.0714285671710968
			vertex -0.0659727230668068 0.057644788175821304 0.05887599661946297
		endloop
	endfacet
	facet normal -1 0 0
		outer loop
			vertex -0.0659727230668068 0.05719686672091484 0.0714285671710968
			vertex -0.0659727230668068 0.057644788175821304 0.05887599661946297
			vertex -0.0659727230668068 0.05719686672091484 0.058418530970811844
		endloop
	endfacet
	facet normal -1 0 0
		outer loop
			vertex -0.0659727230668068 0.05764644593000412 -0.071428582072258
			vertex -0.0659727230668068 0.057644788175821304 -0.071428582072258
			vertex -0.0659727230668068 0.057644788175821304 0.05887599661946297
		endloop
	endfacet
	facet normal -1 0 0
		outer loop
			vertex -0.0659727230668068 0.05764644593000412 -0.071428582072258
			vertex -0.0659727230668068 0.057644788175821304 0.05887599661946297
			vertex -0.0659727230668068 0.05764644593000412 0.058877695351839066
		endloop
	endfacet
	facet normal -1 0 0
		outer loop
			vertex -0.0659727230668068 0.057644788175821304 0.0714285671710968
			vertex -0.0659727230668068 0.05764644593000412 0.0714285671710968
			vertex -0.0659727230668068 0.05764644593000412 0.058877695351839066
		endloop
	endfacet
	facet normal -1 0 0
		outer loop
			vertex -0.0659727230668068 0.057644788175821304 0.0714285671710968
			vertex -0.0659727230668068 0.05764644593000412 0.058877695351839066
			vertex -0.0659727230668068 0.057644788175821304 0.05887599661946297
		endloop
	endfacet
	facet normal -1 0 0
		outer loop
			vertex -0.0659727230668068 0.06993484497070312 -0.071428582072258
			vertex -0.0659727230668068 0.05764644593000412 -0.071428582072258
			vertex -0.0659727230668068 0.05764644593000412 0.058877695351839066
		endloop
	endfacet
	facet normal -1 0 0
		outer loop
			vertex -0.0659727230668068 0.06993484497070312 -0.071428582072258
			vertex -0.0659727230668068 0.05764644593000412 0.058877695351839066
			vertex -0.0659727230668068 0.06993484497070312 0.0714285671710968
		endloop
	endfacet
	facet normal -1 0 0
		outer loop
			vertex -0.0659727230668068 0.05764644593000412 0.0714285671710968
			vertex -0.0659727230668068 0.06993484497070312 0.0714285671710968
			vertex -0.0659727230668068 0.05764644593000412 0.058877695351839066
		endloop
	endfacet
	facet normal 0 1 0
		outer loop
			vertex -0.055779505521059036 0.06993484497070312 0.060392383486032486
			vertex -0.05512707307934761 0.06993484497070312 0.059686023741960526
			vertex -0.05512707307934761 0.06993484497070312 -0.071428582072258
		endloop
	endfacet
	facet normal 0 1 0
		outer loop
			vertex -0.055779505521059036 0.06993484497070312 0.060392383486032486
			vertex -0.05512707307934761 0.06993484497070312 -0.071428582072258
			vertex -0.055779505521059036 0.06993484497070312 -0.071428582072258
		endloop
	endfacet
	facet normal 0 1 0
		outer loop
			vertex -0.055779505521059036 0.06993484497070312 0.0714285671710968
			vertex -0.05512707307934761 0.06993484497070312 0.0714285671710968
			vertex -0.05512707307934761 0.06993484497070312 0.059686023741960526
		endloop
	endfacet
	facet normal 0 1 0
		outer loop
			vertex -0.055779505521059036 0.06993484497070312 0.0714285671710968
			vertex -0.05512707307934761 0.06993484497070312 0.059686023741960526
			vertex -0.055779505521059036 0.06993484497070312 0.060392383486032486
		endloop
	endfacet
	facet normal 0 1 0
		outer loop
			vertex -0.05849290266633034 0.06993484497070312 0.06333017349243164
			vertex -0.055779505521059036 0.06993484497070312 0.060392383486032486
			vertex -0.055779505521059036 0.06993484497070312 -0.071428582072258
		endloop
	endfacet
	facet normal 0 1 0
		outer loop
			vertex -0.05849290266633034 0.06993484497070312 0.06333017349243164
			vertex -0.055779505521059036 0.06993484497070312 -0.071428582072258
			vertex -0.05849290266633034 0.06993484497070312 -0.071428582072258
		endloop
	endfacet
	facet normal 0 1 0
		outer loop
			vertex -0.05849290266633034 0.06993484497070312 0.0714285671710968
			vertex -0.055779505521059036 0.06993484497070312 0.0714285671710968
			vertex -0.055779505521059036 0.06993484497070312 0.060392383486032486
		endloop
	endfacet
	facet normal 0 1 0
		outer loop
			vertex -0.05849290266633034 0.06993484497070312 0.0714285671710968
			vertex -0.055779505521059036 0.06993484497070312 0.060392383486032486
			vertex -0.05849290266633034 0.06993484497070312 0.06333017349243164
		endloop
	endfacet
	facet normal 0 1 0
		outer loop
			vertex -0.05849713459610939 0.06993484497070312 0.06333477795124054
			vertex -0.05849290266633034 0.06993484497070312 0.06333017349243164
			vertex -0.05849290266633034 0.06993484497070312 -0.071428582072258
		endloop
	endfacet
	facet normal 0 1 0
		outer loop
			vertex -0.05849713459610939 0.06993484497070312 0.06333477795124054
			vertex -0.05849290266633034 0.06993484497070312 -0.071428582072258
			vertex -0.05849713459610939 0.06993484497070312 -0.071428582072258
		endloop
	endfacet
	facet normal 0 1 0
		outer loop
			vertex -0.05849713459610939 0.06993484497070312 0.0714285671710968
			vertex -0.05849290266633034 0.06993484497070312 0.0714285671710968
			vertex -0.05849290266633034 0.06993484497070312 0.06333017349243164
		endloop
	endfacet
	facet normal 0 1 0
		outer loop
			vertex -0.05849713459610939 0.06993484497070312 0.0714285671710968
			vertex -0.05849290266633034 0.06993484497070312 0.06333017349243164
			vertex -0.05849713459610939 0.06993484497070312 0.06333477795124054
		endloop
	endfacet
	facet normal 0 1 0
		outer loop
			vertex -0.0659727230668068 0.06993484497070312 -0.071428582072258
			vertex -0.0659727230668068 0.06993484497070312 0.0714285671710968
			vertex -0.05849713459610939 0.06993484497070312 0.06333477795124054
		endloop
	endfacet
	facet normal 0 1 0
		outer loop
			vertex -0.0659727230668068 0.06993484497070312 -0.071428582072258
			vertex -0.05849713459610939 0.06993484497070312 0.06333477795124054
			vertex -0.05849713459610939 0.06993484497070312 -0.071428582072258
		endloop
	endfacet
	facet normal 0 1 0
		outer loop
			vertex -0.0659727230668068 0.06993484497070312 0.0714285671710968
			vertex -0.05849713459610939 0.06993484497070312 0.0714285671710968
			vertex -0.05849713459610939 0.06993484497070312 0.06333477795124054
		endloop
	endfacet
	facet normal 0 0 1
		outer loop
			vertex -0.05512707307934761 0.06993484497070312 0.0714285671710968
			vertex -0.055779505521059036 0.06993484497070312 0.0714285671710968
			vertex -0.06280732899904251 0.061152514070272446 0.0714285671710968
		endloop
	endfacet
	facet normal 0 0 1
		outer loop
			vertex -0.0659727230668068 0.057644788175821304 0.0714285671710968
			vertex -0.0659727230668068 0.05719686672091484 0.0714285671710968
			vertex -0.055779505521059036 0.06993484497070312 0.0714285671710968
		endloop
	endfacet
	facet normal 0 0 1
		outer loop
			vertex -0.0659727230668068 0.057644788175821304 0.0714285671710968
			vertex -0.055779505521059036 0.06993484497070312 0.0714285671710968
			vertex -0.05849290266633034 0.06993484497070312 0.0714285671710968
		endloop
	endfacet
	facet normal 0 0 1
		outer loop
			vertex -0.0659727230668068 0.05764644593000412 0.0714285671710968
			vertex -0.0659727230668068 0.057644788175821304 0.0714285671710968
			vertex -0.05849290266633034 0.06993484497070312 0.0714285671710968
		endloop
	endfacet
	facet normal 0 0 1
		outer loop
			vertex -0.0659727230668068 0.05764644593000412 0.0714285671710968
			vertex -0.05849290266633034 0.06993484497070312 0.0714285671710968
			vertex -0.05849713459610939 0.06993484497070312 0.0714285671710968
		endloop
	endfacet
	facet normal 0 0 1
		outer loop
			vertex -0.0659727230668068 0.06993484497070312 0.0714285671710968
			vertex -0.0659727230668068 0.05764644593000412 0.0714285671710968
			vertex -0.05849713459610939 0.06993484497070312 0.0714285671710968
		endloop
	endfacet
	facet normal 0 0 -1
		outer loop
			vertex -0.060344550758600235 0.06396868079900742 -0.071428582072258
			vertex -0.06045772507786751 0.06408867239952087 -0.071428582072258
			vertex -0.055779505521059036 0.06993484497070312 -0.071428582072258
		endloop
	endfacet
	facet normal 0 0 -1
		outer loop
			vertex -0.060344550758600235 0.06396868079900742 -0.071428582072258
			vertex -0.055779505521059036 0.06993484497070312 -0.071428582072258
			vertex -0.05512707307934761 0.06993484497070312 -0.071428582072258
		endloop
	endfacet
	facet normal 0 0 -1
		outer loop
			vertex -0.06280732899904251 0.061152514070272446 -0.071428582072258
			vertex -0.06045772507786751 0.06408867239952087 -0.071428582072258
			vertex -0.060344550758600235 0.06396868079900742 -0.071428582072258
		endloop
	endfacet
	facet normal 0 0 -1
		outer loop
			vertex -0.06045772507786751 0.06408867239952087 -0.071428582072258
			vertex -0.06142613664269447 0.06511522084474564 -0.071428582072258
			vertex -0.05849290266633034 0.06993484497070312 -0.071428582072258
		endloop
	endfacet
	facet normal 0 0 -1
		outer loop
			vertex -0.06045772507786751 0.06408867239952087 -0.071428582072258
			vertex -0.05849290266633034 0.06993484497070312 -0.071428582072258
			vertex -0.055779505521059036 0.06993484497070312 -0.071428582072258
		endloop
	endfacet
	facet normal 0 0 -1
		outer loop
			vertex -0.0659727230668068 0.05719686672091484 -0.071428582072258
			vertex -0.0659727230668068 0.057644788175821304 -0.071428582072258
			vertex -0.06142613664269447 0.06511522084474564 -0.071428582072258
		endloop
	endfacet
	facet normal 0 0 -1
		outer loop
			vertex -0.0659727230668068 0.05719686672091484 -0.071428582072258
			vertex -0.06142613664269447 0.06511522084474564 -0.071428582072258
			vertex -0.06045772507786751 0.06408867239952087 -0.071428582072258
		endloop
	endfacet
	facet normal 0 0 -1
		outer loop
			vertex -0.06142613664269447 0.06511522084474564 -0.071428582072258
			vertex -0.06142795458436012 0.06511715054512024 -0.071428582072258
			vertex -0.05849713459610939 0.06993484497070312 -0.071428582072258
		endloop
	endfacet
	facet normal 0 0 -1
		outer loop
			vertex -0.06142613664269447 0.06511522084474564 -0.071428582072258
			vertex -0.05849713459610939 0.06993484497070312 -0.071428582072258
			vertex -0.05849290266633034 0.06993484497070312 -0.071428582072258
		endloop
	endfacet
	facet normal 0 0 -1
		outer loop
			vertex -0.0659727230668068 0.057644788175821304 -0.071428582072258
			vertex -0.0659727230668068 0.05764644593000412 -0.071428582072258
			vertex -0.06142795458436012 0.06511715054512024 -0.071428582072258
		endloop
	endfacet
	facet normal 0 0 -1
		outer loop
			vertex -0.0659727230668068 0.057644788175821304 -0.071428582072258
			vertex -0.06142795458436012 0.06511715054512024 -0.071428582072258
			vertex -0.06142613664269447 0.06511522084474564 -0.071428582072258
		endloop
	endfacet
	facet normal 0 0 -1
		outer loop
			vertex -0.06142795458436012 0.06511715054512024 -0.071428582072258
			vertex -0.0659727230668068 0.06993484497070312 -0.071428582072258
			vertex -0.05849713459610939 0.06993484497070312 -0.071428582072258
		endloop
	endfacet
	facet normal 0 0 -1
		outer loop
			vertex -0.0659727230668068 0.05764644593000412 -0.071428582072258
			vertex -0.0659727230668068 0.06993484497070312 -0.071428582072258
			vertex -0.06142795458436012 0.06511715054512024 -0.071428582072258
		endloop
	endfacet
endsolid exported
