solid exported
	facet normal 0.7807876028180697 -0.6247965423124656 0
		outer loop
			vertex -0.0659727230668068 0.05719686672091484 0.0714285671710968
			vertex -0.0659727230668068 0.05719686672091484 -0.0714285671710968
			vertex -0.06465276330709457 0.058846376836299896 -0.0714285671710968
		endloop
	endfacet
	facet normal 0.7807798813740034 -0.6248061914238396 -1.8275812678454442e-7
		outer loop
			vertex -0.0659727230668068 0.05719686672091484 0.0714285671710968
			vertex -0.06465276330709457 0.058846376836299896 -0.0714285671710968
			vertex -0.0652678832411766 0.05807765945792198 0.0714285671710968
		endloop
	endfacet
	facet normal 0.7807821748587601 -0.6248033253935191 -1.57460576729666e-7
		outer loop
			vertex -0.0652678832411766 0.05807765945792198 0.0714285671710968
			vertex -0.06465276330709457 0.058846376836299896 -0.0714285671710968
			vertex -0.06280732899904251 0.061152514070272446 -0.0714285671710968
		endloop
	endfacet
	facet normal 0.7807857436639718 -0.6247988656288507 0
		outer loop
			vertex -0.0652678832411766 0.05807765945792198 0.0714285671710968
			vertex -0.06280732899904251 0.061152514070272446 -0.0714285671710968
			vertex -0.06280732899904251 0.061152514070272446 0.0714285671710968
		endloop
	endfacet
	facet normal 0.7527600054520326 -0.6582950510157592 1.2347488919967664e-7
		outer loop
			vertex -0.05748330429196358 0.06724050641059875 -0.0714285671710968
			vertex -0.05881432071328163 0.06571851670742035 0.0714285671710968
			vertex -0.06280732899904251 0.061152514070272446 0.0714285671710968
		endloop
	endfacet
	facet normal 0.7527585696871714 -0.658296692808436 0
		outer loop
			vertex -0.05748330429196358 0.06724050641059875 -0.0714285671710968
			vertex -0.06280732899904251 0.061152514070272446 0.0714285671710968
			vertex -0.06280732899904251 0.061152514070272446 -0.0714285671710968
		endloop
	endfacet
	facet normal 0.7527587399886233 -0.6582964980696244 9.626761195182771e-8
		outer loop
			vertex -0.05881432071328163 0.06571851670742035 0.0714285671710968
			vertex -0.05748330429196358 0.06724050641059875 -0.0714285671710968
			vertex -0.05512707307934761 0.06993484497070312 -0.0714285671710968
		endloop
	endfacet
	facet normal 0.7527571236783074 -0.6582983463077829 0
		outer loop
			vertex -0.05881432071328163 0.06571851670742035 0.0714285671710968
			vertex -0.05512707307934761 0.06993484497070312 -0.0714285671710968
			vertex -0.05512707307934761 0.06993484497070312 0.0714285671710968
		endloop
	endfacet
	facet normal -1 0 0
		outer loop
			vertex -0.0659727230668068 0.057644788175821304 -0.0714285671710968
			vertex -0.0659727230668068 0.05719686672091484 -0.0714285671710968
			vertex -0.0659727230668068 0.05719686672091484 0.058418527245521545
		endloop
	endfacet
	facet normal -1 0 0
		outer loop
			vertex -0.0659727230668068 0.057644788175821304 -0.0714285671710968
			vertex -0.0659727230668068 0.05719686672091484 0.058418527245521545
			vertex -0.0659727230668068 0.057644788175821304 0.05887600779533386
		endloop
	endfacet
	facet normal -1 0 0
		outer loop
			vertex -0.0659727230668068 0.05719686672091484 0.0714285671710968
			vertex -0.0659727230668068 0.057644788175821304 0.0714285671710968
			vertex -0.0659727230668068 0.057644788175821304 0.05887600779533386
		endloop
	endfacet
	facet normal -1 0 0
		outer loop
			vertex -0.0659727230668068 0.05719686672091484 0.0714285671710968
			vertex -0.0659727230668068 0.057644788175821304 0.05887600779533386
			vertex -0.0659727230668068 0.05719686672091484 0.058418527245521545
		endloop
	endfacet
	facet normal -1 0 0
		outer loop
			vertex -0.0659727230668068 0.05764644593000412 -0.0714285671710968
			vertex -0.0659727230668068 0.057644788175821304 -0.0714285671710968
			vertex -0.0659727230668068 0.057644788175821304 0.05887600779533386
		endloop
	endfacet
	facet normal -1 0 0
		outer loop
			vertex -0.0659727230668068 0.05764644593000412 -0.0714285671710968
			vertex -0.0659727230668068 0.057644788175821304 0.05887600779533386
			vertex -0.0659727230668068 0.05764644593000412 0.058877695351839066
		endloop
	endfacet
	facet normal -1 0 0
		outer loop
			vertex -0.0659727230668068 0.057644788175821304 0.0714285671710968
			vertex -0.0659727230668068 0.05764644593000412 0.0714285671710968
			vertex -0.0659727230668068 0.05764644593000412 0.058877695351839066
		endloop
	endfacet
	facet normal -1 0 0
		outer loop
			vertex -0.0659727230668068 0.057644788175821304 0.0714285671710968
			vertex -0.0659727230668068 0.05764644593000412 0.058877695351839066
			vertex -0.0659727230668068 0.057644788175821304 0.05887600779533386
		endloop
	endfacet
	facet normal -1 0 0
		outer loop
			vertex -0.0659727230668068 0.06993484497070312 -0.0714285671710968
			vertex -0.0659727230668068 0.05764644593000412 -0.0714285671710968
			vertex -0.0659727230668068 0.05764644593000412 0.058877695351839066
		endloop
	endfacet
	facet normal -1 0 0
		outer loop
			vertex -0.0659727230668068 0.06993484497070312 -0.0714285671710968
			vertex -0.0659727230668068 0.05764644593000412 0.058877695351839066
			vertex -0.0659727230668068 0.06993484497070312 0.0714285671710968
		endloop
	endfacet
	facet normal -1 0 0
		outer loop
			vertex -0.0659727230668068 0.05764644593000412 0.0714285671710968
			vertex -0.0659727230668068 0.06993484497070312 0.0714285671710968
			vertex -0.0659727230668068 0.05764644593000412 0.058877695351839066
		endloop
	endfacet
	facet normal 0 1 0
		outer loop
			vertex -0.055779505521059036 0.06993484497070312 0.06039239093661308
			vertex -0.05512707307934761 0.06993484497070312 0.05968602001667023
			vertex -0.05512707307934761 0.06993484497070312 -0.0714285671710968
		endloop
	endfacet
	facet normal 0 1 0
		outer loop
			vertex -0.055779505521059036 0.06993484497070312 0.06039239093661308
			vertex -0.05512707307934761 0.06993484497070312 -0.0714285671710968
			vertex -0.055779505521059036 0.06993484497070312 -0.0714285671710968
		endloop
	endfacet
	facet normal 0 1 0
		outer loop
			vertex -0.055779505521059036 0.06993484497070312 0.0714285671710968
			vertex -0.05512707307934761 0.06993484497070312 0.0714285671710968
			vertex -0.05512707307934761 0.06993484497070312 0.05968602001667023
		endloop
	endfacet
	facet normal 0 1 0
		outer loop
			vertex -0.055779505521059036 0.06993484497070312 0.0714285671710968
			vertex -0.05512707307934761 0.06993484497070312 0.05968602001667023
			vertex -0.055779505521059036 0.06993484497070312 0.06039239093661308
		endloop
	endfacet
	facet normal 0 1 0
		outer loop
			vertex -0.05849290266633034 0.06993484497070312 0.06333016604185104
			vertex -0.055779505521059036 0.06993484497070312 0.06039239093661308
			vertex -0.055779505521059036 0.06993484497070312 -0.0714285671710968
		endloop
	endfacet
	facet normal 0 1 0
		outer loop
			vertex -0.05849290266633034 0.06993484497070312 0.06333016604185104
			vertex -0.055779505521059036 0.06993484497070312 -0.0714285671710968
			vertex -0.05849290266633034 0.06993484497070312 -0.0714285671710968
		endloop
	endfacet
	facet normal 0 1 0
		outer loop
			vertex -0.05849290266633034 0.06993484497070312 0.0714285671710968
			vertex -0.055779505521059036 0.06993484497070312 0.0714285671710968
			vertex -0.055779505521059036 0.06993484497070312 0.06039239093661308
		endloop
	endfacet
	facet normal 0 1 0
		outer loop
			vertex -0.05849290266633034 0.06993484497070312 0.0714285671710968
			vertex -0.055779505521059036 0.06993484497070312 0.06039239093661308
			vertex -0.05849290266633034 0.06993484497070312 0.06333016604185104
		endloop
	endfacet
	facet normal 0 1 0
		outer loop
			vertex -0.05849713459610939 0.06993484497070312 0.06333477050065994
			vertex -0.05849290266633034 0.06993484497070312 0.06333016604185104
			vertex -0.05849290266633034 0.06993484497070312 -0.0714285671710968
		endloop
	endfacet
	facet normal 0 1 0
		outer loop
			vertex -0.05849713459610939 0.06993484497070312 0.06333477050065994
			vertex -0.05849290266633034 0.06993484497070312 -0.0714285671710968
			vertex -0.05849713459610939 0.06993484497070312 -0.0714285671710968
		endloop
	endfacet
	facet normal 0 1 0
		outer loop
			vertex -0.05849713459610939 0.06993484497070312 0.0714285671710968
			vertex -0.05849290266633034 0.06993484497070312 0.0714285671710968
			vertex -0.05849290266633034 0.06993484497070312 0.06333016604185104
		endloop
	endfacet
	facet normal 0 1 0
		outer loop
			vertex -0.05849713459610939 0.06993484497070312 0.0714285671710968
			vertex -0.05849290266633034 0.06993484497070312 0.06333016604185104
			vertex -0.05849713459610939 0.06993484497070312 0.06333477050065994
		endloop
	endfacet
	facet normal 0 1 0
		outer loop
			vertex -0.0659727230668068 0.06993484497070312 -0.0714285671710968
			vertex -0.0659727230668068 0.06993484497070312 0.0714285671710968
			vertex -0.05849713459610939 0.06993484497070312 0.06333477050065994
		endloop
	endfacet
	facet normal 0 1 0
		outer loop
			vertex -0.0659727230668068 0.06993484497070312 -0.0714285671710968
			vertex -0.05849713459610939 0.06993484497070312 0.06333477050065994
			vertex -0.05849713459610939 0.06993484497070312 -0.0714285671710968
		endloop
	endfacet
	facet normal 0 1 0
		outer loop
			vertex -0.0659727230668068 0.06993484497070312 0.0714285671710968
			vertex -0.05849713459610939 0.06993484497070312 0.0714285671710968
			vertex -0.05849713459610939 0.06993484497070312 0.06333477050065994
		endloop
	endfacet
	facet normal 0 0 1
		outer loop
			vertex -0.05512707307934761 0.06993484497070312 0.0714285671710968
			vertex -0.055779505521059036 0.06993484497070312 0.0714285671710968
			vertex -0.06280732899904251 0.061152514070272446 0.0714285671710968
		endloop
	endfacet
	facet normal 0 0 1
		outer loop
			vertex -0.0659727230668068 0.057644788175821304 0.0714285671710968
			vertex -0.0659727230668068 0.05719686672091484 0.0714285671710968
			vertex -0.055779505521059036 0.06993484497070312 0.0714285671710968
		endloop
	endfacet
	facet normal 0 0 1
		outer loop
			vertex -0.0659727230668068 0.057644788175821304 0.0714285671710968
			vertex -0.055779505521059036 0.06993484497070312 0.0714285671710968
			vertex -0.05849290266633034 0.06993484497070312 0.0714285671710968
		endloop
	endfacet
	facet normal 0 0 1
		outer loop
			vertex -0.0659727230668068 0.05764644593000412 0.0714285671710968
			vertex -0.0659727230668068 0.057644788175821304 0.0714285671710968
			vertex -0.05849290266633034 0.06993484497070312 0.0714285671710968
		endloop
	endfacet
	facet normal 0 0 1
		outer loop
			vertex -0.0659727230668068 0.05764644593000412 0.0714285671710968
			vertex -0.05849290266633034 0.06993484497070312 0.0714285671710968
			vertex -0.05849713459610939 0.06993484497070312 0.0714285671710968
		endloop
	endfacet
	facet normal 0 0 1
		outer loop
			vertex -0.0659727230668068 0.06993484497070312 0.0714285671710968
			vertex -0.0659727230668068 0.05764644593000412 0.0714285671710968
			vertex -0.05849713459610939 0.06993484497070312 0.0714285671710968
		endloop
	endfacet
	facet normal 0 0 -1
		outer loop
			vertex -0.060344550758600235 0.06396868079900742 -0.0714285671710968
			vertex -0.06045772507786751 0.06408867239952087 -0.0714285671710968
			vertex -0.055779505521059036 0.06993484497070312 -0.0714285671710968
		endloop
	endfacet
	facet normal 0 0 -1
		outer loop
			vertex -0.060344550758600235 0.06396868079900742 -0.0714285671710968
			vertex -0.055779505521059036 0.06993484497070312 -0.0714285671710968
			vertex -0.05512707307934761 0.06993484497070312 -0.0714285671710968
		endloop
	endfacet
	facet normal 0 0 -1
		outer loop
			vertex -0.06280732899904251 0.061152514070272446 -0.0714285671710968
			vertex -0.06045772507786751 0.06408867239952087 -0.0714285671710968
			vertex -0.060344550758600235 0.06396868079900742 -0.0714285671710968
		endloop
	endfacet
	facet normal 0 0 -1
		outer loop
			vertex -0.06045772507786751 0.06408867239952087 -0.0714285671710968
			vertex -0.06142613664269447 0.06511522084474564 -0.0714285671710968
			vertex -0.05849290266633034 0.06993484497070312 -0.0714285671710968
		endloop
	endfacet
	facet normal 0 0 -1
		outer loop
			vertex -0.06045772507786751 0.06408867239952087 -0.0714285671710968
			vertex -0.05849290266633034 0.06993484497070312 -0.0714285671710968
			vertex -0.055779505521059036 0.06993484497070312 -0.0714285671710968
		endloop
	endfacet
	facet normal 0 0 -1
		outer loop
			vertex -0.0659727230668068 0.05719686672091484 -0.0714285671710968
			vertex -0.0659727230668068 0.057644788175821304 -0.0714285671710968
			vertex -0.06142613664269447 0.06511522084474564 -0.0714285671710968
		endloop
	endfacet
	facet normal 0 0 -1
		outer loop
			vertex -0.0659727230668068 0.05719686672091484 -0.0714285671710968
			vertex -0.06142613664269447 0.06511522084474564 -0.0714285671710968
			vertex -0.06045772507786751 0.06408867239952087 -0.0714285671710968
		endloop
	endfacet
	facet normal 0 0 -1
		outer loop
			vertex -0.06142613664269447 0.06511522084474564 -0.0714285671710968
			vertex -0.06142795458436012 0.06511715054512024 -0.0714285671710968
			vertex -0.05849713459610939 0.06993484497070312 -0.0714285671710968
		endloop
	endfacet
	facet normal 0 0 -1
		outer loop
			vertex -0.06142613664269447 0.06511522084474564 -0.0714285671710968
			vertex -0.05849713459610939 0.06993484497070312 -0.0714285671710968
			vertex -0.05849290266633034 0.06993484497070312 -0.0714285671710968
		endloop
	endfacet
	facet normal 0 0 -1
		outer loop
			vertex -0.0659727230668068 0.057644788175821304 -0.0714285671710968
			vertex -0.0659727230668068 0.05764644593000412 -0.0714285671710968
			vertex -0.06142795458436012 0.06511715054512024 -0.0714285671710968
		endloop
	endfacet
	facet normal 0 0 -1
		outer loop
			vertex -0.0659727230668068 0.057644788175821304 -0.0714285671710968
			vertex -0.06142795458436012 0.06511715054512024 -0.0714285671710968
			vertex -0.06142613664269447 0.06511522084474564 -0.0714285671710968
		endloop
	endfacet
	facet normal 0 0 -1
		outer loop
			vertex -0.06142795458436012 0.06511715054512024 -0.0714285671710968
			vertex -0.0659727230668068 0.06993484497070312 -0.0714285671710968
			vertex -0.05849713459610939 0.06993484497070312 -0.0714285671710968
		endloop
	endfacet
	facet normal 0 0 -1
		outer loop
			vertex -0.0659727230668068 0.05764644593000412 -0.0714285671710968
			vertex -0.0659727230668068 0.06993484497070312 -0.0714285671710968
			vertex -0.06142795458436012 0.06511715054512024 -0.0714285671710968
		endloop
	endfacet
endsolid exported
