solid exported
	facet normal 0.3378459705914585 -0.6238095368164996 0.7047849047276054
		outer loop
			vertex 0.29999998211860657 0.29424700140953064 0.047239236533641815
			vertex 0.29999998211860657 0.27631255984306335 0.031365349888801575
			vertex 0.3363243341445923 0.2808241844177246 0.017946161329746246
		endloop
	endfacet
	facet normal 0.3378412700684596 -0.6238155532000655 0.704781832785314
		outer loop
			vertex 0.29999998211860657 0.29424700140953064 0.047239236533641815
			vertex 0.3363243341445923 0.2808241844177246 0.017946161329746246
			vertex 0.30243629217147827 0.2955664396286011 0.047239236533641815
		endloop
	endfacet
	facet normal 0.4317904314575229 -0.2216693910560479 0.8743109883620173
		outer loop
			vertex 0.3465624749660492 0.2875917851924896 0.014605746604502201
			vertex 0.3363243341445923 0.2808241844177246 0.017946161329746246
			vertex 0.360232412815094 0.2862107753753662 0.007504525128751993
		endloop
	endfacet
	facet normal 0.504430470697666 -0.38054387373113696 0.7750717775776845
		outer loop
			vertex 0.30243629217147827 0.2955664396286011 0.047239236533641815
			vertex 0.3363243341445923 0.2808241844177246 0.017946161329746246
			vertex 0.3465624749660492 0.2875917851924896 0.014605746604502201
		endloop
	endfacet
	facet normal 0.5044305862745425 -0.380543558915104 0.7750718569261488
		outer loop
			vertex 0.30243629217147827 0.2955664396286011 0.047239236533641815
			vertex 0.3465624749660492 0.2875917851924896 0.014605746604502201
			vertex 0.3167077600955963 0.30654698610305786 0.04334232211112976
		endloop
	endfacet
	facet normal 0.5044303028722285 -0.3805430335818827 0.7750722992963496
		outer loop
			vertex 0.30243629217147827 0.2955664396286011 0.047239236533641815
			vertex 0.3167077600955963 0.30654698610305786 0.04334232211112976
			vertex 0.31070467829704285 0.30652663111686707 0.047239236533641815
		endloop
	endfacet
	facet normal 0.010874946901401585 0.999699387106892 0.021974324744946924
		outer loop
			vertex 0.30778422951698303 0.30655840039253235 0.047239236533641815
			vertex 0.31070467829704285 0.30652663111686707 0.047239236533641815
			vertex 0.3167077600955963 0.30654698610305786 0.04334232211112976
		endloop
	endfacet
	facet normal 0.212634173478917 -0.9769816132717762 -0.017135798721254123
		outer loop
			vertex 0.360232412815094 0.2862107753753662 0.007504525128751993
			vertex 0.3363243341445923 0.2808241844177246 0.017946161329746246
			vertex 0.33071833848953247 0.2796570956707001 0.014923132956027985
		endloop
	endfacet
	facet normal 0.1557524106834063 -0.9836037516470616 0.09091120014680994
		outer loop
			vertex 0.3363243341445923 0.2808241844177246 0.017946161329746246
			vertex 0.29999998211860657 0.27631255984306335 0.031365349888801575
			vertex 0.29999998211860657 0.27572837471961975 0.025044823065400124
		endloop
	endfacet
	facet normal 0.15575148468075062 -0.983604377762552 0.09090601226588217
		outer loop
			vertex 0.3363243341445923 0.2808241844177246 0.017946161329746246
			vertex 0.29999998211860657 0.27572837471961975 0.025044823065400124
			vertex 0.33071833848953247 0.2796570956707001 0.014923132956027985
		endloop
	endfacet
	facet normal 0.21743219328104574 0.9335455886341528 0.28498399124636303
		outer loop
			vertex 0.45177677273750305 0.30498337745666504 -0.047239236533641815
			vertex 0.4442071318626404 0.3067464232444763 -0.047239236533641815
			vertex 0.3755400478839874 0.3067464232444763 0.0051511963829398155
		endloop
	endfacet
	facet normal 0.21743099461008028 0.9335464087110223 0.2849822193850424
		outer loop
			vertex 0.45177677273750305 0.30498337745666504 -0.047239236533641815
			vertex 0.3755400478839874 0.3067464232444763 0.0051511963829398155
			vertex 0.43220338225364685 0.3024260699748993 -0.023928213864564896
		endloop
	endfacet
	facet normal 0.6605418254315801 -0.5667153777420209 0.49246134618489074
		outer loop
			vertex 0.45177677273750305 0.30498337745666504 -0.047239236533641815
			vertex 0.43220338225364685 0.3024260699748993 -0.023928213864564896
			vertex 0.4186829924583435 0.2664105296134949 -0.047239236533641815
		endloop
	endfacet
	facet normal 0.43179101416641563 -0.2216720297184464 0.8743100315824143
		outer loop
			vertex 0.43220338225364685 0.3024260699748993 -0.023928213864564896
			vertex 0.3755400478839874 0.3067464232444763 0.0051511963829398155
			vertex 0.3465624749660492 0.2875917851924896 0.014605746604502201
		endloop
	endfacet
	facet normal 0.43179079224404116 -0.22166744311284678 0.874311304054269
		outer loop
			vertex 0.43220338225364685 0.3024260699748993 -0.023928213864564896
			vertex 0.3465624749660492 0.2875917851924896 0.014605746604502201
			vertex 0.360232412815094 0.2862107753753662 0.007504525128751993
		endloop
	endfacet
	facet normal 0.5044298038082133 -0.38054470801682155 0.7750718019837903
		outer loop
			vertex 0.3465624749660492 0.2875917851924896 0.014605746604502201
			vertex 0.3755400478839874 0.3067464232444763 0.0051511963829398155
			vertex 0.3167077600955963 0.30654698610305786 0.04334232211112976
		endloop
	endfacet
	facet normal 0.010881272628803562 0.9996992210879266 0.021978745691475544
		outer loop
			vertex 0.29999998211860657 0.3067464232444763 0.042540889233350754
			vertex 0.29999998211860657 0.30664312839508057 0.047239236533641815
			vertex 0.30778422951698303 0.30655840039253235 0.047239236533641815
		endloop
	endfacet
	facet normal 0.010878721740233556 0.999699155981002 0.02198296941204293
		outer loop
			vertex 0.29999998211860657 0.3067464232444763 0.042540889233350754
			vertex 0.30778422951698303 0.30655840039253235 0.047239236533641815
			vertex 0.3167077600955963 0.30654698610305786 0.04334232211112976
		endloop
	endfacet
	facet normal 0.01087890639524848 0.9996992381650412 0.02197914028982082
		outer loop
			vertex 0.29999998211860657 0.3067464232444763 0.042540889233350754
			vertex 0.3167077600955963 0.30654698610305786 0.04334232211112976
			vertex 0.3755400478839874 0.3067464232444763 0.0051511963829398155
		endloop
	endfacet
	facet normal 0 1 0
		outer loop
			vertex 0.29999998211860657 0.3067464232444763 0.042540889233350754
			vertex 0.3755400478839874 0.3067464232444763 0.0051511963829398155
			vertex 0.29999998211860657 0.3067464232444763 0.042457759380340576
		endloop
	endfacet
	facet normal 0.41121188542805504 -0.5990604009587535 0.6870454288370179
		outer loop
			vertex 0.35809236764907837 0.25174474716186523 -0.023762047290802002
			vertex 0.3966369926929474 0.25127753615379333 -0.047239236533641815
			vertex 0.4186829924583435 0.2664105296134949 -0.047239236533641815
		endloop
	endfacet
	facet normal 0.4112118957919965 -0.5990602676928893 0.6870455388333994
		outer loop
			vertex 0.35809236764907837 0.25174474716186523 -0.023762047290802002
			vertex 0.4186829924583435 0.2664105296134949 -0.047239236533641815
			vertex 0.43220338225364685 0.3024260699748993 -0.023928213864564896
		endloop
	endfacet
	facet normal 0.2126385782896039 -0.9769808760180363 -0.017123169040992245
		outer loop
			vertex 0.43220338225364685 0.3024260699748993 -0.023928213864564896
			vertex 0.360232412815094 0.2862107753753662 0.007504525128751993
			vertex 0.34398189187049866 0.2826022803783417 0.011589220724999905
		endloop
	endfacet
	facet normal 0 1 0
		outer loop
			vertex 0.4442071318626404 0.3067464232444763 -0.047239236533641815
			vertex 0.3798222541809082 0.3067464232444763 -0.047239236533641815
			vertex 0.3755400478839874 0.3067464232444763 0.0051511963829398155
		endloop
	endfacet
	facet normal 0 1 0
		outer loop
			vertex 0.3798222541809082 0.3067464232444763 -0.047239236533641815
			vertex 0.34296083450317383 0.3067464232444763 -0.047239236533641815
			vertex 0.3755400478839874 0.3067464232444763 0.0051511963829398155
		endloop
	endfacet
	facet normal 0 1 0
		outer loop
			vertex 0.29999998211860657 0.3067464232444763 -0.047239236533641815
			vertex 0.29999998211860657 0.3067464232444763 0.042457759380340576
			vertex 0.3755400478839874 0.3067464232444763 0.0051511963829398155
		endloop
	endfacet
	facet normal 0 1 0
		outer loop
			vertex 0.29999998211860657 0.3067464232444763 -0.047239236533641815
			vertex 0.3755400478839874 0.3067464232444763 0.0051511963829398155
			vertex 0.34296083450317383 0.3067464232444763 -0.047239236533641815
		endloop
	endfacet
	facet normal 0.183400264527028 -0.9296326870719508 0.3196050845947239
		outer loop
			vertex 0.3966369926929474 0.25127753615379333 -0.047239236533641815
			vertex 0.35809236764907837 0.25174474716186523 -0.023762047290802002
			vertex 0.3622142970561981 0.24448654055595398 -0.047239236533641815
		endloop
	endfacet
	facet normal 0.3637795429541895 -0.6788850355724984 0.637792719152366
		outer loop
			vertex 0.29999998211860657 0.23665951192378998 -0.031534403562545776
			vertex 0.32886654138565063 0.23737338185310364 -0.047239236533641815
			vertex 0.33044442534446716 0.23821888864040375 -0.047239236533641815
		endloop
	endfacet
	facet normal 0.36378037203304653 -0.6788828803397646 0.6377945403537751
		outer loop
			vertex 0.29999998211860657 0.23665951192378998 -0.031534403562545776
			vertex 0.33044442534446716 0.23821888864040375 -0.047239236533641815
			vertex 0.29999998211860657 0.23816171288490295 -0.029935427010059357
		endloop
	endfacet
	facet normal 0.15024123624798488 -0.9609283433853214 0.2324742777371705
		outer loop
			vertex 0.32886654138565063 0.23737338185310364 -0.047239236533641815
			vertex 0.29999998211860657 0.23665951192378998 -0.031534403562545776
			vertex 0.29999998211860657 0.2343975305557251 -0.040884263813495636
		endloop
	endfacet
	facet normal 0.15024148085205521 -0.960927997112387 0.23247555096602784
		outer loop
			vertex 0.32886654138565063 0.23737338185310364 -0.047239236533641815
			vertex 0.29999998211860657 0.2343975305557251 -0.040884263813495636
			vertex 0.31581559777259827 0.23533286154270172 -0.047239236533641815
		endloop
	endfacet
	facet normal -0.19777105703618464 -0.9457755506105128 0.257672693287767
		outer loop
			vertex 0.29999998211860657 0.2655586302280426 -0.017646359279751778
			vertex 0.33917930722236633 0.24930338561534882 -0.047239236533641815
			vertex 0.3622142970561981 0.24448654055595398 -0.047239236533641815
		endloop
	endfacet
	facet normal -0.19777092882553027 -0.9457755115605196 0.2576729350240811
		outer loop
			vertex 0.29999998211860657 0.2655586302280426 -0.017646359279751778
			vertex 0.3622142970561981 0.24448654055595398 -0.047239236533641815
			vertex 0.35809236764907837 0.25174474716186523 -0.023762047290802002
		endloop
	endfacet
	facet normal -0.19777086885452397 -0.9457754232468764 0.2576733052039323
		outer loop
			vertex 0.29999998211860657 0.2655586302280426 -0.017646359279751778
			vertex 0.35809236764907837 0.25174474716186523 -0.023762047290802002
			vertex 0.29999998211860657 0.26736393570899963 -0.011020086705684662
		endloop
	endfacet
	facet normal 0.15024090563451095 -0.9609287597246096 0.23247277046623271
		outer loop
			vertex 0.29999998211860657 0.2343975305557251 -0.040884263813495636
			vertex 0.29999998211860657 0.23286010324954987 -0.047239236533641815
			vertex 0.3100530207157135 0.2344318926334381 -0.047239236533641815
		endloop
	endfacet
	facet normal 0.15024240848824502 -0.9609279485381121 0.23247515224209778
		outer loop
			vertex 0.29999998211860657 0.2343975305557251 -0.040884263813495636
			vertex 0.3100530207157135 0.2344318926334381 -0.047239236533641815
			vertex 0.3079800307750702 0.23486948013305664 -0.044090766459703445
		endloop
	endfacet
	facet normal 0.36378506421523016 -0.6788721308720536 0.6378033058703586
		outer loop
			vertex 0.29999998211860657 0.23894329369068146 -0.029103519394993782
			vertex 0.29999998211860657 0.23816171288490295 -0.029935427010059357
			vertex 0.3049639165401459 0.2381710410118103 -0.03275678679347038
		endloop
	endfacet
	facet normal 0.1502395513680693 -0.960928821015493 0.23247339234092107
		outer loop
			vertex 0.31581559777259827 0.23533286154270172 -0.047239236533641815
			vertex 0.3079800307750702 0.23486948013305664 -0.044090766459703445
			vertex 0.3100530207157135 0.2344318926334381 -0.047239236533641815
		endloop
	endfacet
	facet normal 0.1557519925633987 -0.9836035582543716 0.0909140088318072
		outer loop
			vertex 0.29999998211860657 0.27572837471961975 0.025044823065400124
			vertex 0.29999998211860657 0.27497807145118713 0.01692725159227848
			vertex 0.30342406034469604 0.27616629004478455 0.023916592821478844
		endloop
	endfacet
	facet normal 0.5976059334353714 -0.018881349884045013 0.8015676159560058
		outer loop
			vertex 0.29999998211860657 0.24934837222099304 -0.018028168007731438
			vertex 0.3389734923839569 0.24278922379016876 -0.047239236533641815
			vertex 0.33917930722236633 0.24930338561534882 -0.047239236533641815
		endloop
	endfacet
	facet normal 0.5976059527472084 -0.018879743965214663 0.801567639384793
		outer loop
			vertex 0.29999998211860657 0.24934837222099304 -0.018028168007731438
			vertex 0.33917930722236633 0.24930338561534882 -0.047239236533641815
			vertex 0.29999998211860657 0.2655586302280426 -0.017646359279751778
		endloop
	endfacet
	facet normal 0.36378110960969684 -0.6788809507155288 0.637796173590527
		outer loop
			vertex 0.33044442534446716 0.23821888864040375 -0.047239236533641815
			vertex 0.3389734923839569 0.24278922379016876 -0.047239236533641815
			vertex 0.29999998211860657 0.24934837222099304 -0.018028168007731438
		endloop
	endfacet
	facet normal 0.36378072297185565 -0.6788813820713359 0.6377959349752765
		outer loop
			vertex 0.33044442534446716 0.23821888864040375 -0.047239236533641815
			vertex 0.29999998211860657 0.24934837222099304 -0.018028168007731438
			vertex 0.29999998211860657 0.23894329369068146 -0.029103519394993782
		endloop
	endfacet
	facet normal 0.36378584596274466 -0.678870948769282 0.6378041182010862
		outer loop
			vertex 0.33044442534446716 0.23821888864040375 -0.047239236533641815
			vertex 0.29999998211860657 0.23894329369068146 -0.029103519394993782
			vertex 0.3049639165401459 0.2381710410118103 -0.03275678679347038
		endloop
	endfacet
	facet normal 0.212636429357854 -0.9769812445818795 -0.017128824979673416
		outer loop
			vertex 0.43220338225364685 0.3024260699748993 -0.023928213864564896
			vertex 0.3611646294593811 0.28646332025527954 0.004671549890190363
			vertex 0.38556209206581116 0.2921864092350006 -0.01888880878686905
		endloop
	endfacet
	facet normal 0.15232324707725148 -0.21958202346473693 0.9636292665600056
		outer loop
			vertex 0.3444605767726898 0.25540992617607117 -0.02077205292880535
			vertex 0.35809236764907837 0.25174474716186523 -0.023762047290802002
			vertex 0.43220338225364685 0.3024260699748993 -0.023928213864564896
		endloop
	endfacet
	facet normal 0.15232360823783073 -0.2195827118346469 0.9636290526114033
		outer loop
			vertex 0.3444605767726898 0.25540992617607117 -0.02077205292880535
			vertex 0.43220338225364685 0.3024260699748993 -0.023928213864564896
			vertex 0.38556209206581116 0.2921864092350006 -0.01888880878686905
		endloop
	endfacet
	facet normal 0.21263092145572893 -0.9769822041227313 -0.01714246389460017
		outer loop
			vertex 0.3611646294593811 0.28646332025527954 0.004671549890190363
			vertex 0.34398189187049866 0.2826022803783417 0.011589220724999905
			vertex 0.33071833848953247 0.2796570956707001 0.014923132956027985
		endloop
	endfacet
	facet normal 0.21263568288743287 -0.9769814249208832 -0.01712780553823703
		outer loop
			vertex 0.3611646294593811 0.28646332025527954 0.004671549890190363
			vertex 0.33071833848953247 0.2796570956707001 0.014923132956027985
			vertex 0.29999998211860657 0.27326178550720215 -0.001641712267883122
		endloop
	endfacet
	facet normal 0.2126358614034504 -0.976981353112683 -0.01712968520795629
		outer loop
			vertex 0.3611646294593811 0.28646332025527954 0.004671549890190363
			vertex 0.29999998211860657 0.27326178550720215 -0.001641712267883122
			vertex 0.29999998211860657 0.2734020948410034 -0.009644171223044395
		endloop
	endfacet
	facet normal 0.21263581792326436 -0.9769813660399151 -0.017129487642237092
		outer loop
			vertex 0.3611646294593811 0.28646332025527954 0.004671549890190363
			vertex 0.29999998211860657 0.2734020948410034 -0.009644171223044395
			vertex 0.38556209206581116 0.2921864092350006 -0.01888880878686905
		endloop
	endfacet
	facet normal 0.15232345741198236 -0.2195822094674048 0.96362919092744
		outer loop
			vertex 0.29999998211860657 0.2734020948410034 -0.009644171223044395
			vertex 0.29999998211860657 0.26736393570899963 -0.011020086705684662
			vertex 0.3444605767726898 0.25540992617607117 -0.02077205292880535
		endloop
	endfacet
	facet normal 0.15232335677631187 -0.21958243605393538 0.96362915520288
		outer loop
			vertex 0.29999998211860657 0.2734020948410034 -0.009644171223044395
			vertex 0.3444605767726898 0.25540992617607117 -0.02077205292880535
			vertex 0.38556209206581116 0.2921864092350006 -0.01888880878686905
		endloop
	endfacet
	facet normal 0.15575387509241448 -0.9836034304021815 0.0909121669236738
		outer loop
			vertex 0.29999998211860657 0.27497807145118713 0.01692725159227848
			vertex 0.29999998211860657 0.27326178550720215 -0.001641712267883122
			vertex 0.33071833848953247 0.2796570956707001 0.014923132956027985
		endloop
	endfacet
	facet normal 0.15575391816206924 -0.9836033438983491 0.09091302903956826
		outer loop
			vertex 0.29999998211860657 0.27497807145118713 0.01692725159227848
			vertex 0.33071833848953247 0.2796570956707001 0.014923132956027985
			vertex 0.30342406034469604 0.27616629004478455 0.023916592821478844
		endloop
	endfacet
	facet normal -1 0 0
		outer loop
			vertex 0.29999998211860657 0.2844921052455902 0.03681543469429016
			vertex 0.29999998211860657 0.29670122265815735 0.04244996979832649
			vertex 0.29999998211860657 0.29229581356048584 0.03879397734999657
		endloop
	endfacet
	facet normal -1 0 0
		outer loop
			vertex 0.29999998211860657 0.29424700140953064 0.047239236533641815
			vertex 0.29999998211860657 0.30247220396995544 0.047239236533641815
			vertex 0.29999998211860657 0.29670122265815735 0.04244996979832649
		endloop
	endfacet
	facet normal -1 0 0
		outer loop
			vertex 0.29999998211860657 0.29424700140953064 0.047239236533641815
			vertex 0.29999998211860657 0.29670122265815735 0.04244996979832649
			vertex 0.29999998211860657 0.2844921052455902 0.03681543469429016
		endloop
	endfacet
	facet normal -1 0 0
		outer loop
			vertex 0.29999998211860657 0.29424700140953064 0.047239236533641815
			vertex 0.29999998211860657 0.2844921052455902 0.03681543469429016
			vertex 0.29999998211860657 0.281658411026001 0.036096978932619095
		endloop
	endfacet
	facet normal -1 0 0
		outer loop
			vertex 0.29999998211860657 0.27631255984306335 0.031365349888801575
			vertex 0.29999998211860657 0.28026720881462097 0.03486562892794609
			vertex 0.29999998211860657 0.2844921052455902 0.03681543469429016
		endloop
	endfacet
	facet normal -1 0 0
		outer loop
			vertex 0.29999998211860657 0.27631255984306335 0.031365349888801575
			vertex 0.29999998211860657 0.2844921052455902 0.03681543469429016
			vertex 0.29999998211860657 0.29229581356048584 0.03879397734999657
		endloop
	endfacet
	facet normal -1 0 0
		outer loop
			vertex 0.29999998211860657 0.27631255984306335 0.031365349888801575
			vertex 0.29999998211860657 0.29229581356048584 0.03879397734999657
			vertex 0.29999998211860657 0.27572837471961975 0.025044823065400124
		endloop
	endfacet
	facet normal -1 0 0
		outer loop
			vertex 0.29999998211860657 0.2844921052455902 0.03681543469429016
			vertex 0.29999998211860657 0.28026720881462097 0.03486562892794609
			vertex 0.29999998211860657 0.281658411026001 0.036096978932619095
		endloop
	endfacet
	facet normal -1 0 0
		outer loop
			vertex 0.29999998211860657 0.29229581356048584 0.03879397734999657
			vertex 0.29999998211860657 0.29670122265815735 0.04244996979832649
			vertex 0.29999998211860657 0.30664747953414917 0.04704020172357559
		endloop
	endfacet
	facet normal -1 0 0
		outer loop
			vertex 0.29999998211860657 0.29229581356048584 0.03879397734999657
			vertex 0.29999998211860657 0.30664747953414917 0.04704020172357559
			vertex 0.29999998211860657 0.3067464232444763 0.042540889233350754
		endloop
	endfacet
	facet normal -1 0 0
		outer loop
			vertex 0.29999998211860657 0.29229581356048584 0.03879397734999657
			vertex 0.29999998211860657 0.3067464232444763 0.042540889233350754
			vertex 0.29999998211860657 0.3067464232444763 0.042457759380340576
		endloop
	endfacet
	facet normal -1 0 0
		outer loop
			vertex 0.29999998211860657 0.30247220396995544 0.047239236533641815
			vertex 0.29999998211860657 0.30664312839508057 0.047239236533641815
			vertex 0.29999998211860657 0.30664747953414917 0.04704020172357559
		endloop
	endfacet
	facet normal -1 0 0
		outer loop
			vertex 0.29999998211860657 0.30247220396995544 0.047239236533641815
			vertex 0.29999998211860657 0.30664747953414917 0.04704020172357559
			vertex 0.29999998211860657 0.29670122265815735 0.04244996979832649
		endloop
	endfacet
	facet normal -1 0 0
		outer loop
			vertex 0.29999998211860657 0.23665951192378998 -0.031534403562545776
			vertex 0.29999998211860657 0.23816171288490295 -0.029935427010059357
			vertex 0.29999998211860657 0.2343975305557251 -0.040884263813495636
		endloop
	endfacet
	facet normal -1 0 0
		outer loop
			vertex 0.29999998211860657 0.2355555295944214 -0.047239236533641815
			vertex 0.29999998211860657 0.23286010324954987 -0.047239236533641815
			vertex 0.29999998211860657 0.2343975305557251 -0.040884263813495636
		endloop
	endfacet
	facet normal -1 0 0
		outer loop
			vertex 0.29999998211860657 0.2355555295944214 -0.047239236533641815
			vertex 0.29999998211860657 0.2343975305557251 -0.040884263813495636
			vertex 0.29999998211860657 0.23634067177772522 -0.03523227572441101
		endloop
	endfacet
	facet normal -1 0 0
		outer loop
			vertex 0.29999998211860657 0.23744390904903412 -0.047239236533641815
			vertex 0.29999998211860657 0.2355555295944214 -0.047239236533641815
			vertex 0.29999998211860657 0.23634067177772522 -0.03523227572441101
		endloop
	endfacet
	facet normal -1 0 0
		outer loop
			vertex 0.29999998211860657 0.23744390904903412 -0.047239236533641815
			vertex 0.29999998211860657 0.23634067177772522 -0.03523227572441101
			vertex 0.29999998211860657 0.23816171288490295 -0.029935427010059357
		endloop
	endfacet
	facet normal -1 0 0
		outer loop
			vertex 0.29999998211860657 0.23744390904903412 -0.047239236533641815
			vertex 0.29999998211860657 0.23816171288490295 -0.029935427010059357
			vertex 0.29999998211860657 0.23894329369068146 -0.029103519394993782
		endloop
	endfacet
	facet normal -1 0 0
		outer loop
			vertex 0.29999998211860657 0.2574961483478546 -0.047239236533641815
			vertex 0.29999998211860657 0.23744390904903412 -0.047239236533641815
			vertex 0.29999998211860657 0.23894329369068146 -0.029103519394993782
		endloop
	endfacet
	facet normal -1 0 0
		outer loop
			vertex 0.29999998211860657 0.2574961483478546 -0.047239236533641815
			vertex 0.29999998211860657 0.23894329369068146 -0.029103519394993782
			vertex 0.29999998211860657 0.24934837222099304 -0.018028168007731438
		endloop
	endfacet
	facet normal -1 0 0
		outer loop
			vertex 0.29999998211860657 0.2574961483478546 -0.047239236533641815
			vertex 0.29999998211860657 0.24934837222099304 -0.018028168007731438
			vertex 0.29999998211860657 0.2655586302280426 -0.017646359279751778
		endloop
	endfacet
	facet normal -1 0 0
		outer loop
			vertex 0.29999998211860657 0.27572837471961975 0.025044823065400124
			vertex 0.29999998211860657 0.27761662006378174 0.026611853390932083
			vertex 0.29999998211860657 0.27497807145118713 0.01692725159227848
		endloop
	endfacet
	facet normal -1 0 0
		outer loop
			vertex 0.29999998211860657 0.2740612328052521 -0.047239236533641815
			vertex 0.29999998211860657 0.2574961483478546 -0.047239236533641815
			vertex 0.29999998211860657 0.26736393570899963 -0.011020086705684662
		endloop
	endfacet
	facet normal -1 0 0
		outer loop
			vertex 0.29999998211860657 0.2740612328052521 -0.047239236533641815
			vertex 0.29999998211860657 0.26736393570899963 -0.011020086705684662
			vertex 0.29999998211860657 0.2734020948410034 -0.009644171223044395
		endloop
	endfacet
	facet normal -1 0 0
		outer loop
			vertex 0.29999998211860657 0.3067464232444763 -0.047239236533641815
			vertex 0.29999998211860657 0.2740612328052521 -0.047239236533641815
			vertex 0.29999998211860657 0.27326178550720215 -0.001641712267883122
		endloop
	endfacet
	facet normal -1 0 0
		outer loop
			vertex 0.29999998211860657 0.3067464232444763 -0.047239236533641815
			vertex 0.29999998211860657 0.27326178550720215 -0.001641712267883122
			vertex 0.29999998211860657 0.27497807145118713 0.01692725159227848
		endloop
	endfacet
	facet normal -1 0 0
		outer loop
			vertex 0.29999998211860657 0.3067464232444763 -0.047239236533641815
			vertex 0.29999998211860657 0.27497807145118713 0.01692725159227848
			vertex 0.29999998211860657 0.27761662006378174 0.026611853390932083
		endloop
	endfacet
	facet normal -1 0 0
		outer loop
			vertex 0.29999998211860657 0.3067464232444763 -0.047239236533641815
			vertex 0.29999998211860657 0.27761662006378174 0.026611853390932083
			vertex 0.29999998211860657 0.29229581356048584 0.03879397734999657
		endloop
	endfacet
	facet normal -1 0 0
		outer loop
			vertex 0.29999998211860657 0.3067464232444763 -0.047239236533641815
			vertex 0.29999998211860657 0.29229581356048584 0.03879397734999657
			vertex 0.29999998211860657 0.3067464232444763 0.042457759380340576
		endloop
	endfacet
	facet normal 0 0 1
		outer loop
			vertex 0.29999998211860657 0.30247220396995544 0.047239236533641815
			vertex 0.29999998211860657 0.29424700140953064 0.047239236533641815
			vertex 0.30243629217147827 0.2955664396286011 0.047239236533641815
		endloop
	endfacet
	facet normal 0 0 1
		outer loop
			vertex 0.29999998211860657 0.30247220396995544 0.047239236533641815
			vertex 0.30243629217147827 0.2955664396286011 0.047239236533641815
			vertex 0.31070467829704285 0.30652663111686707 0.047239236533641815
		endloop
	endfacet
	facet normal 0 0 1
		outer loop
			vertex 0.29999998211860657 0.30247220396995544 0.047239236533641815
			vertex 0.31070467829704285 0.30652663111686707 0.047239236533641815
			vertex 0.30778422951698303 0.30655840039253235 0.047239236533641815
		endloop
	endfacet
	facet normal 0 0 1
		outer loop
			vertex 0.29999998211860657 0.30664312839508057 0.047239236533641815
			vertex 0.29999998211860657 0.30247220396995544 0.047239236533641815
			vertex 0.30778422951698303 0.30655840039253235 0.047239236533641815
		endloop
	endfacet
	facet normal 0 0 -1
		outer loop
			vertex 0.31581559777259827 0.23533286154270172 -0.047239236533641815
			vertex 0.33044442534446716 0.23821888864040375 -0.047239236533641815
			vertex 0.32886654138565063 0.23737338185310364 -0.047239236533641815
		endloop
	endfacet
	facet normal 0 0 -1
		outer loop
			vertex 0.29999998211860657 0.23286010324954987 -0.047239236533641815
			vertex 0.29999998211860657 0.2355555295944214 -0.047239236533641815
			vertex 0.3100530207157135 0.2344318926334381 -0.047239236533641815
		endloop
	endfacet
	facet normal 0 0 -1
		outer loop
			vertex 0.29999998211860657 0.2355555295944214 -0.047239236533641815
			vertex 0.29999998211860657 0.23744390904903412 -0.047239236533641815
			vertex 0.31791454553604126 0.23574694991111755 -0.047239236533641815
		endloop
	endfacet
	facet normal 0 0 -1
		outer loop
			vertex 0.29999998211860657 0.2355555295944214 -0.047239236533641815
			vertex 0.31791454553604126 0.23574694991111755 -0.047239236533641815
			vertex 0.31581559777259827 0.23533286154270172 -0.047239236533641815
		endloop
	endfacet
	facet normal 0 0 -1
		outer loop
			vertex 0.29999998211860657 0.2355555295944214 -0.047239236533641815
			vertex 0.31581559777259827 0.23533286154270172 -0.047239236533641815
			vertex 0.3100530207157135 0.2344318926334381 -0.047239236533641815
		endloop
	endfacet
	facet normal 0 0 -1
		outer loop
			vertex 0.29999998211860657 0.23744390904903412 -0.047239236533641815
			vertex 0.29999998211860657 0.2574961483478546 -0.047239236533641815
			vertex 0.33917930722236633 0.24930338561534882 -0.047239236533641815
		endloop
	endfacet
	facet normal 0 0 -1
		outer loop
			vertex 0.29999998211860657 0.23744390904903412 -0.047239236533641815
			vertex 0.33917930722236633 0.24930338561534882 -0.047239236533641815
			vertex 0.3389734923839569 0.24278922379016876 -0.047239236533641815
		endloop
	endfacet
	facet normal 0 0 -1
		outer loop
			vertex 0.29999998211860657 0.23744390904903412 -0.047239236533641815
			vertex 0.3389734923839569 0.24278922379016876 -0.047239236533641815
			vertex 0.33044442534446716 0.23821888864040375 -0.047239236533641815
		endloop
	endfacet
	facet normal 0 0 -1
		outer loop
			vertex 0.29999998211860657 0.23744390904903412 -0.047239236533641815
			vertex 0.33044442534446716 0.23821888864040375 -0.047239236533641815
			vertex 0.31791454553604126 0.23574694991111755 -0.047239236533641815
		endloop
	endfacet
	facet normal 0 0 -1
		outer loop
			vertex 0.3608759045600891 0.24476641416549683 -0.047239236533641815
			vertex 0.35686954855918884 0.24886733293533325 -0.047239236533641815
			vertex 0.41491976380348206 0.2990730404853821 -0.047239236533641815
		endloop
	endfacet
	facet normal 0 0 -1
		outer loop
			vertex 0.3608759045600891 0.24476641416549683 -0.047239236533641815
			vertex 0.41491976380348206 0.2990730404853821 -0.047239236533641815
			vertex 0.44709041714668274 0.306074857711792 -0.047239236533641815
		endloop
	endfacet
	facet normal 0 0 -1
		outer loop
			vertex 0.3608759045600891 0.24476641416549683 -0.047239236533641815
			vertex 0.44709041714668274 0.306074857711792 -0.047239236533641815
			vertex 0.45177677273750305 0.30498337745666504 -0.047239236533641815
		endloop
	endfacet
	facet normal 0 0 -1
		outer loop
			vertex 0.3608759045600891 0.24476641416549683 -0.047239236533641815
			vertex 0.45177677273750305 0.30498337745666504 -0.047239236533641815
			vertex 0.4186829924583435 0.2664105296134949 -0.047239236533641815
		endloop
	endfacet
	facet normal 0 0 -1
		outer loop
			vertex 0.3608759045600891 0.24476641416549683 -0.047239236533641815
			vertex 0.4186829924583435 0.2664105296134949 -0.047239236533641815
			vertex 0.3966369926929474 0.25127753615379333 -0.047239236533641815
		endloop
	endfacet
	facet normal 0 0 -1
		outer loop
			vertex 0.3608759045600891 0.24476641416549683 -0.047239236533641815
			vertex 0.3966369926929474 0.25127753615379333 -0.047239236533641815
			vertex 0.3622142970561981 0.24448654055595398 -0.047239236533641815
		endloop
	endfacet
	facet normal 0 0 -1
		outer loop
			vertex 0.35686954855918884 0.24886733293533325 -0.047239236533641815
			vertex 0.3608759045600891 0.24476641416549683 -0.047239236533641815
			vertex 0.35383114218711853 0.2462395429611206 -0.047239236533641815
		endloop
	endfacet
	facet normal 0 0 -1
		outer loop
			vertex 0.41491976380348206 0.2990730404853821 -0.047239236533641815
			vertex 0.4237920641899109 0.3067464232444763 -0.047239236533641815
			vertex 0.4442071318626404 0.3067464232444763 -0.047239236533641815
		endloop
	endfacet
	facet normal 0 0 -1
		outer loop
			vertex 0.41491976380348206 0.2990730404853821 -0.047239236533641815
			vertex 0.4442071318626404 0.3067464232444763 -0.047239236533641815
			vertex 0.44709041714668274 0.306074857711792 -0.047239236533641815
		endloop
	endfacet
	facet normal 0 0 -1
		outer loop
			vertex 0.41902199387550354 0.3067464232444763 -0.047239236533641815
			vertex 0.4237920641899109 0.3067464232444763 -0.047239236533641815
			vertex 0.413012832403183 0.2974238097667694 -0.047239236533641815
		endloop
	endfacet
	facet normal 0 0 -1
		outer loop
			vertex 0.35686954855918884 0.24886733293533325 -0.047239236533641815
			vertex 0.32660040259361267 0.27985069155693054 -0.047239236533641815
			vertex 0.4139381945133209 0.2988594174385071 -0.047239236533641815
		endloop
	endfacet
	facet normal 0 0 -1
		outer loop
			vertex 0.35686954855918884 0.24886733293533325 -0.047239236533641815
			vertex 0.4139381945133209 0.2988594174385071 -0.047239236533641815
			vertex 0.413012832403183 0.2974238097667694 -0.047239236533641815
		endloop
	endfacet
	facet normal 0 0 -1
		outer loop
			vertex 0.29999998211860657 0.2574961483478546 -0.047239236533641815
			vertex 0.29999998211860657 0.2740612328052521 -0.047239236533641815
			vertex 0.32660040259361267 0.27985069155693054 -0.047239236533641815
		endloop
	endfacet
	facet normal 0 0 -1
		outer loop
			vertex 0.29999998211860657 0.2574961483478546 -0.047239236533641815
			vertex 0.32660040259361267 0.27985069155693054 -0.047239236533641815
			vertex 0.35686954855918884 0.24886733293533325 -0.047239236533641815
		endloop
	endfacet
	facet normal 0 0 -1
		outer loop
			vertex 0.29999998211860657 0.2574961483478546 -0.047239236533641815
			vertex 0.35686954855918884 0.24886733293533325 -0.047239236533641815
			vertex 0.35383114218711853 0.2462395429611206 -0.047239236533641815
		endloop
	endfacet
	facet normal 0 0 -1
		outer loop
			vertex 0.32660040259361267 0.27985069155693054 -0.047239236533641815
			vertex 0.3003246784210205 0.3067464232444763 -0.047239236533641815
			vertex 0.41902199387550354 0.3067464232444763 -0.047239236533641815
		endloop
	endfacet
	facet normal 0 0 -1
		outer loop
			vertex 0.32660040259361267 0.27985069155693054 -0.047239236533641815
			vertex 0.41902199387550354 0.3067464232444763 -0.047239236533641815
			vertex 0.4139381945133209 0.2988594174385071 -0.047239236533641815
		endloop
	endfacet
	facet normal 0 0 -1
		outer loop
			vertex 0.29999998211860657 0.2740612328052521 -0.047239236533641815
			vertex 0.29999998211860657 0.3067464232444763 -0.047239236533641815
			vertex 0.3003246784210205 0.3067464232444763 -0.047239236533641815
		endloop
	endfacet
	facet normal 0 0 -1
		outer loop
			vertex 0.29999998211860657 0.2740612328052521 -0.047239236533641815
			vertex 0.3003246784210205 0.3067464232444763 -0.047239236533641815
			vertex 0.32660040259361267 0.27985069155693054 -0.047239236533641815
		endloop
	endfacet
endsolid exported
