solid exported
	facet normal 0 0 1
		outer loop
			vertex 0.05595272406935692 0.06742583215236664 0.0714285746216774
			vertex 0.048921700567007065 0.06979884207248688 0.0714285746216774
			vertex 0.04352068528532982 0.06940783560276031 0.0714285746216774
		endloop
	endfacet
	facet normal 0 0 1
		outer loop
			vertex -0.0659727230668068 0.0008892395999282598 0.0714285746216774
			vertex -0.0659727230668068 -0.03820717707276344 0.0714285746216774
			vertex -0.02683030627667904 -0.040201153606176376 0.0714285746216774
		endloop
	endfacet
	facet normal 0 0 1
		outer loop
			vertex 0.023208672180771828 0.06496483087539673 0.0714285746216774
			vertex 0.037153687328100204 0.019778860732913017 0.0714285746216774
			vertex 0.046128686517477036 0.027835844084620476 0.0714285746216774
		endloop
	endfacet
	facet normal 0 0 1
		outer loop
			vertex 0.04352068528532982 0.06940783560276031 0.0714285746216774
			vertex 0.055893655866384506 0.03719085082411766 0.0714285746216774
			vertex 0.06263270229101181 0.0444568507373333 0.0714285746216774
		endloop
	endfacet
	facet normal 0 0 1
		outer loop
			vertex 0.046128686517477036 0.027835844084620476 0.0714285746216774
			vertex 0.034536685794591904 0.06767882406711578 0.0714285746216774
			vertex 0.023208672180771828 0.06496483087539673 0.0714285746216774
		endloop
	endfacet
	facet normal 0 0 1
		outer loop
			vertex 0.030552679672837257 0.014104841277003288 0.0714285746216774
			vertex 0.0015876836841925979 0.05887084826827049 0.0714285746216774
			vertex 0.020102674141526222 0.004798842128366232 0.0714285746216774
		endloop
	endfacet
	facet normal 0 0 1
		outer loop
			vertex -0.0659727230668068 -0.058965880423784256 0.0714285746216774
			vertex -0.053490299731492996 -0.0680631697177887 0.0714285746216774
			vertex -0.04120529070496559 -0.05492815747857094 0.0714285746216774
		endloop
	endfacet
	facet normal 0 0 1
		outer loop
			vertex -0.0659727230668068 -0.058965880423784256 0.0714285746216774
			vertex -0.04120529070496559 -0.05492815747857094 0.0714285746216774
			vertex -0.0659727230668068 -0.04675402119755745 0.0714285746216774
		endloop
	endfacet
	facet normal 0 0 1
		outer loop
			vertex -0.0659727230668068 -0.06993483006954193 0.0714285746216774
			vertex -0.05512707307934761 -0.06993483006954193 0.0714285746216774
			vertex -0.053490299731492996 -0.0680631697177887 0.0714285746216774
		endloop
	endfacet
	facet normal 0 0 1
		outer loop
			vertex -0.0659727230668068 -0.06993483006954193 0.0714285746216774
			vertex -0.053490299731492996 -0.0680631697177887 0.0714285746216774
			vertex -0.0659727230668068 -0.060309093445539474 0.0714285746216774
		endloop
	endfacet
	facet normal 0 0 1
		outer loop
			vertex -0.0659727230668068 -0.060309093445539474 0.0714285746216774
			vertex -0.053490299731492996 -0.0680631697177887 0.0714285746216774
			vertex -0.0659727230668068 -0.058965880423784256 0.0714285746216774
		endloop
	endfacet
	facet normal 0 0 1
		outer loop
			vertex -0.0659727230668068 -0.04675402119755745 0.0714285746216774
			vertex -0.04120529070496559 -0.05492815747857094 0.0714285746216774
			vertex -0.02683030627667904 -0.040201153606176376 0.0714285746216774
		endloop
	endfacet
	facet normal 0 0 1
		outer loop
			vertex -0.0659727230668068 -0.04675402119755745 0.0714285746216774
			vertex -0.02683030627667904 -0.040201153606176376 0.0714285746216774
			vertex -0.0659727230668068 -0.03820717707276344 0.0714285746216774
		endloop
	endfacet
	facet normal 0 0 1
		outer loop
			vertex -0.02683030627667904 -0.040201153606176376 0.0714285746216774
			vertex -0.01123431883752346 -0.024762162938714027 0.0714285746216774
			vertex -0.05553131178021431 0.03745482489466667 0.0714285746216774
		endloop
	endfacet
	facet normal 0 0 1
		outer loop
			vertex -0.01123431883752346 -0.024762162938714027 0.0714285746216774
			vertex 0.004702682141214609 -0.009469153359532356 0.0714285746216774
			vertex -0.05553131178021431 0.03745482489466667 0.0714285746216774
		endloop
	endfacet
	facet normal 0 0 1
		outer loop
			vertex 0.04352068528532982 0.06940783560276031 0.0714285746216774
			vertex 0.048921700567007065 0.06979884207248688 0.0714285746216774
			vertex 0.04785671457648277 0.06993484497070312 0.0714285746216774
		endloop
	endfacet
	facet normal 0 0 1
		outer loop
			vertex 0.06263270229101181 0.0444568507373333 0.0714285746216774
			vertex 0.05595272406935692 0.06742583215236664 0.0714285746216774
			vertex 0.04352068528532982 0.06940783560276031 0.0714285746216774
		endloop
	endfacet
	facet normal 0 0 1
		outer loop
			vertex 0.05071872100234032 0.06966182589530945 0.0714285746216774
			vertex 0.048921700567007065 0.06979884207248688 0.0714285746216774
			vertex 0.05595272406935692 0.06742583215236664 0.0714285746216774
		endloop
	endfacet
	facet normal 0 0 1
		outer loop
			vertex 0.06171467527747154 0.062327828258275986 0.0714285746216774
			vertex 0.06263270229101181 0.0444568507373333 0.0714285746216774
			vertex 0.06523966044187546 0.05572585389018059 0.0714285746216774
		endloop
	endfacet
	facet normal 0 0 1
		outer loop
			vertex 0.06263270229101181 0.0444568507373333 0.0714285746216774
			vertex 0.06531771272420883 0.047971826046705246 0.0714285746216774
			vertex 0.06558170169591904 0.04888984188437462 0.0714285746216774
		endloop
	endfacet
	facet normal 0 0 1
		outer loop
			vertex 0.06523966044187546 0.05572585389018059 0.0714285746216774
			vertex 0.06558170169591904 0.04888984188437462 0.0714285746216774
			vertex 0.0659727081656456 0.0504918210208416 0.0714285746216774
		endloop
	endfacet
	facet normal 0 0 1
		outer loop
			vertex 0.06263270229101181 0.0444568507373333 0.0714285746216774
			vertex 0.06558170169591904 0.04888984188437462 0.0714285746216774
			vertex 0.06523966044187546 0.05572585389018059 0.0714285746216774
		endloop
	endfacet
	facet normal 0 0 1
		outer loop
			vertex 0.05595272406935692 0.06742583215236664 0.0714285746216774
			vertex 0.06263270229101181 0.0444568507373333 0.0714285746216774
			vertex 0.06171467527747154 0.062327828258275986 0.0714285746216774
		endloop
	endfacet
	facet normal 0 0 1
		outer loop
			vertex 0.04352068528532982 0.06940783560276031 0.0714285746216774
			vertex 0.034536685794591904 0.06767882406711578 0.0714285746216774
			vertex 0.055893655866384506 0.03719085082411766 0.0714285746216774
		endloop
	endfacet
	facet normal 0 0 1
		outer loop
			vertex 0.034536685794591904 0.06767882406711578 0.0714285746216774
			vertex 0.046128686517477036 0.027835844084620476 0.0714285746216774
			vertex 0.055893655866384506 0.03719085082411766 0.0714285746216774
		endloop
	endfacet
	facet normal 0 0 1
		outer loop
			vertex 0.023208672180771828 0.06496483087539673 0.0714285746216774
			vertex 0.013891661539673805 0.06246481463313103 0.0714285746216774
			vertex 0.037153687328100204 0.019778860732913017 0.0714285746216774
		endloop
	endfacet
	facet normal 0 0 1
		outer loop
			vertex 0.013891661539673805 0.06246481463313103 0.0714285746216774
			vertex 0.010815674439072609 0.061585839837789536 0.0714285746216774
			vertex 0.037153687328100204 0.019778860732913017 0.0714285746216774
		endloop
	endfacet
	facet normal 0 0 1
		outer loop
			vertex 0.010815674439072609 0.061585839837789536 0.0714285746216774
			vertex 0.03410666808485985 0.017141832038760185 0.0714285746216774
			vertex 0.037153687328100204 0.019778860732913017 0.0714285746216774
		endloop
	endfacet
	facet normal 0 0 1
		outer loop
			vertex 0.030552679672837257 0.014104841277003288 0.0714285746216774
			vertex 0.03410666808485985 0.017141832038760185 0.0714285746216774
			vertex 0.010815674439072609 0.061585839837789536 0.0714285746216774
		endloop
	endfacet
	facet normal 0 0 1
		outer loop
			vertex 0.030552679672837257 0.014104841277003288 0.0714285746216774
			vertex 0.010815674439072609 0.061585839837789536 0.0714285746216774
			vertex 0.0015876836841925979 0.05887084826827049 0.0714285746216774
		endloop
	endfacet
	facet normal 0 0 1
		outer loop
			vertex 0.020102674141526222 0.004798842128366232 0.0714285746216774
			vertex 0.0015876836841925979 0.05887084826827049 0.0714285746216774
			vertex -0.02586331032216549 0.049866821616888046 0.0714285746216774
		endloop
	endfacet
	facet normal 0 0 1
		outer loop
			vertex 0.020102674141526222 0.004798842128366232 0.0714285746216774
			vertex -0.02586331032216549 0.049866821616888046 0.0714285746216774
			vertex 0.004702682141214609 -0.009469153359532356 0.0714285746216774
		endloop
	endfacet
	facet normal 0 0 1
		outer loop
			vertex -0.02586331032216549 0.049866821616888046 0.0714285746216774
			vertex -0.05553131178021431 0.03745482489466667 0.0714285746216774
			vertex 0.004702682141214609 -0.009469153359532356 0.0714285746216774
		endloop
	endfacet
	facet normal 0 0 1
		outer loop
			vertex -0.05553131178021431 0.03745482489466667 0.0714285746216774
			vertex -0.0659727230668068 0.03163440153002739 0.0714285746216774
			vertex -0.0659727230668068 0.0008892395999282598 0.0714285746216774
		endloop
	endfacet
	facet normal 0 0 1
		outer loop
			vertex -0.05553131178021431 0.03745482489466667 0.0714285746216774
			vertex -0.0659727230668068 0.0008892395999282598 0.0714285746216774
			vertex -0.02683030627667904 -0.040201153606176376 0.0714285746216774
		endloop
	endfacet
	facet normal 0.7527619203168469 -0.6582928613625499 0
		outer loop
			vertex -0.05512707307934761 -0.06993483006954193 -0.0714285597205162
			vertex -0.053490299731492996 -0.0680631697177887 -0.0714285597205162
			vertex -0.053490299731492996 -0.0680631697177887 0.0714285746216774
		endloop
	endfacet
	facet normal 0.7527619203168469 -0.6582928613625499 0
		outer loop
			vertex -0.05512707307934761 -0.06993483006954193 -0.0714285597205162
			vertex -0.053490299731492996 -0.0680631697177887 0.0714285746216774
			vertex -0.05512707307934761 -0.06993483006954193 0.0714285746216774
		endloop
	endfacet
	facet normal 0.7303460798082345 -0.683077304343179 0
		outer loop
			vertex -0.05173531547188759 -0.06618674099445343 -0.0714285597205162
			vertex -0.053490299731492996 -0.0680631697177887 0.0714285746216774
			vertex -0.053490299731492996 -0.0680631697177887 -0.0714285597205162
		endloop
	endfacet
	facet normal 0.7303425601640322 -0.6830810675264298 0
		outer loop
			vertex -0.05173531547188759 -0.06618674099445343 -0.0714285597205162
			vertex -0.04120529070496559 -0.05492815747857094 -0.0714285597205162
			vertex -0.04120529070496559 -0.05492815747857094 0.0714285746216774
		endloop
	endfacet
	facet normal 0.730343062969027 -0.6830805299326088 -7.942966258557751e-8
		outer loop
			vertex -0.05173531547188759 -0.06618674099445343 -0.0714285597205162
			vertex -0.04120529070496559 -0.05492815747857094 0.0714285746216774
			vertex -0.053490299731492996 -0.0680631697177887 0.0714285746216774
		endloop
	endfacet
	facet normal 0.7156106392193167 -0.6984994008845827 0
		outer loop
			vertex -0.03915173187851906 -0.052824292331933975 -0.0714285597205162
			vertex -0.04120529070496559 -0.05492815747857094 0.0714285746216774
			vertex -0.04120529070496559 -0.05492815747857094 -0.0714285597205162
		endloop
	endfacet
	facet normal 0.715607138199852 -0.6985029876510321 0
		outer loop
			vertex -0.03915173187851906 -0.052824292331933975 -0.0714285597205162
			vertex -0.02683030627667904 -0.040201153606176376 -0.0714285597205162
			vertex -0.02683030627667904 -0.040201153606176376 0.0714285746216774
		endloop
	endfacet
	facet normal 0.7156076383462616 -0.6985024752572309 -8.841374894966675e-8
		outer loop
			vertex -0.03915173187851906 -0.052824292331933975 -0.0714285597205162
			vertex -0.02683030627667904 -0.040201153606176376 0.0714285746216774
			vertex -0.04120529070496559 -0.05492815747857094 0.0714285746216774
		endloop
	endfacet
	facet normal 0.7035150721025957 -0.710680338355072 0
		outer loop
			vertex -0.024602284654974937 -0.037995595484972 -0.0714285597205162
			vertex -0.02683030627667904 -0.040201153606176376 0.0714285746216774
			vertex -0.02683030627667904 -0.040201153606176376 -0.0714285597205162
		endloop
	endfacet
	facet normal 0.7035216794398295 -0.7106737975739376 0
		outer loop
			vertex -0.024602284654974937 -0.037995595484972 -0.0714285597205162
			vertex -0.01123431883752346 -0.024762162938714027 -0.0714285597205162
			vertex -0.01123431883752346 -0.024762162938714027 0.0714285746216774
		endloop
	endfacet
	facet normal 0.7035207355357487 -0.7106747319774418 1.7488411304060812e-7
		outer loop
			vertex -0.024602284654974937 -0.037995595484972 -0.0714285597205162
			vertex -0.01123431883752346 -0.024762162938714027 0.0714285746216774
			vertex -0.02683030627667904 -0.040201153606176376 0.0714285746216774
		endloop
	endfacet
	facet normal 0.6923782638478616 -0.7215347113971864 0
		outer loop
			vertex -0.008957600221037865 -0.022577444091439247 -0.0714285597205162
			vertex -0.01123431883752346 -0.024762162938714027 0.0714285746216774
			vertex -0.01123431883752346 -0.024762162938714027 -0.0714285597205162
		endloop
	endfacet
	facet normal 0.6923784233252595 -0.7215345583640661 0
		outer loop
			vertex -0.008957600221037865 -0.022577444091439247 -0.0714285597205162
			vertex 0.004702682141214609 -0.009469153359532356 -0.0714285597205162
			vertex 0.004702682141214609 -0.009469153359532356 0.0714285746216774
		endloop
	endfacet
	facet normal 0.6923784005427384 -0.7215345802259788 4.184516109043544e-9
		outer loop
			vertex -0.008957600221037865 -0.022577444091439247 -0.0714285597205162
			vertex 0.004702682141214609 -0.009469153359532356 0.0714285746216774
			vertex -0.01123431883752346 -0.024762162938714027 0.0714285746216774
		endloop
	endfacet
	facet normal 0.6796280674571153 -0.7335568757257386 0
		outer loop
			vertex 0.006902689579874277 -0.007430883590131998 -0.0714285597205162
			vertex 0.004702682141214609 -0.009469153359532356 0.0714285746216774
			vertex 0.004702682141214609 -0.009469153359532356 -0.0714285597205162
		endloop
	endfacet
	facet normal 0.6796329344593576 -0.7335523665002812 0
		outer loop
			vertex 0.006902689579874277 -0.007430883590131998 -0.0714285597205162
			vertex 0.020102674141526222 0.004798842128366232 -0.0714285597205162
			vertex 0.020102674141526222 0.004798842128366232 0.0714285746216774
		endloop
	endfacet
	facet normal 0.679632239176101 -0.7335530106764369 1.1939078876344417e-7
		outer loop
			vertex 0.006902689579874277 -0.007430883590131998 -0.0714285597205162
			vertex 0.020102674141526222 0.004798842128366232 0.0714285746216774
			vertex 0.004702682141214609 -0.009469153359532356 0.0714285746216774
		endloop
	endfacet
	facet normal 0.665044630821619 -0.7468036147578133 0
		outer loop
			vertex 0.021595532074570656 0.006128264125436544 -0.0714285597205162
			vertex 0.020102674141526222 0.004798842128366232 0.0714285746216774
			vertex 0.020102674141526222 0.004798842128366232 -0.0714285597205162
		endloop
	endfacet
	facet normal 0.6650467311622827 -0.7468017443541242 0
		outer loop
			vertex 0.021595532074570656 0.006128264125436544 -0.0714285597205162
			vertex 0.030552679672837257 0.014104841277003288 -0.0714285597205162
			vertex 0.030552679672837257 0.014104841277003288 0.0714285746216774
		endloop
	endfacet
	facet normal 0.6650464311145823 -0.7468020115544388 3.37324102588599e-8
		outer loop
			vertex 0.021595532074570656 0.006128264125436544 -0.0714285597205162
			vertex 0.030552679672837257 0.014104841277003288 0.0714285746216774
			vertex 0.020102674141526222 0.004798842128366232 0.0714285746216774
		endloop
	endfacet
	facet normal 0.6496605342093 -0.7602244341580233 0
		outer loop
			vertex 0.031060362234711647 0.014538688585162163 -0.0714285597205162
			vertex 0.030552679672837257 0.014104841277003288 0.0714285746216774
			vertex 0.030552679672837257 0.014104841277003288 -0.0714285597205162
		endloop
	endfacet
	facet normal 0.6496431883038404 -0.7602392570042809 0
		outer loop
			vertex 0.031060362234711647 0.014538688585162163 -0.0714285597205162
			vertex 0.03410666808485985 0.017141832038760185 -0.0714285597205162
			vertex 0.03410666808485985 0.017141832038760185 0.0714285746216774
		endloop
	endfacet
	facet normal 0.6496456662056944 -0.7602371395690634 -9.142304722326056e-8
		outer loop
			vertex 0.031060362234711647 0.014538688585162163 -0.0714285597205162
			vertex 0.03410666808485985 0.017141832038760185 0.0714285746216774
			vertex 0.030552679672837257 0.014104841277003288 0.0714285746216774
		endloop
	endfacet
	facet normal 0.6543824371242389 -0.7561637560630248 0
		outer loop
			vertex 0.034541960805654526 0.017518533393740654 -0.0714285597205162
			vertex 0.03410666808485985 0.017141832038760185 0.0714285746216774
			vertex 0.03410666808485985 0.017141832038760185 -0.0714285597205162
		endloop
	endfacet
	facet normal 0.6544064403957242 -0.7561429830188188 0
		outer loop
			vertex 0.034541960805654526 0.017518533393740654 -0.0714285597205162
			vertex 0.037153687328100204 0.019778860732913017 -0.0714285597205162
			vertex 0.037153687328100204 0.019778860732913017 0.0714285746216774
		endloop
	endfacet
	facet normal 0.6544030114445154 -0.756145950602354 1.0964235762174865e-7
		outer loop
			vertex 0.034541960805654526 0.017518533393740654 -0.0714285597205162
			vertex 0.037153687328100204 0.019778860732913017 0.0714285746216774
			vertex 0.03410666808485985 0.017141832038760185 0.0714285746216774
		endloop
	endfacet
	facet normal 0.668024823670142 -0.7441389890070776 0
		outer loop
			vertex 0.03843584284186363 0.020929871127009392 -0.0714285597205162
			vertex 0.037153687328100204 0.019778860732913017 0.0714285746216774
			vertex 0.037153687328100204 0.019778860732913017 -0.0714285597205162
		endloop
	endfacet
	facet normal 0.6680243338254009 -0.7441394287478182 0
		outer loop
			vertex 0.03843584284186363 0.020929871127009392 -0.0714285597205162
			vertex 0.046128686517477036 0.027835844084620476 -0.0714285597205162
			vertex 0.046128686517477036 0.027835844084620476 0.0714285746216774
		endloop
	endfacet
	facet normal 0.6680244038039714 -0.7441393659270745 -6.80520832478184e-9
		outer loop
			vertex 0.03843584284186363 0.020929871127009392 -0.0714285597205162
			vertex 0.046128686517477036 0.027835844084620476 0.0714285746216774
			vertex 0.037153687328100204 0.019778860732913017 0.0714285746216774
		endloop
	endfacet
	facet normal 0.6917914336826287 -0.7220973703617355 0
		outer loop
			vertex 0.04752367362380028 0.02917228452861309 -0.0714285597205162
			vertex 0.046128686517477036 0.027835844084620476 0.0714285746216774
			vertex 0.046128686517477036 0.027835844084620476 -0.0714285597205162
		endloop
	endfacet
	facet normal 0.6917806295973555 -0.722107720851873 0
		outer loop
			vertex 0.04820111021399498 0.029821230098605156 -0.0714285597205162
			vertex 0.04820111021399498 0.029821230098605156 0.0714285746216774
			vertex 0.046128686517477036 0.027835844084620476 0.0714285746216774
		endloop
	endfacet
	facet normal 0.6917583802070331 -0.7221290351543544 -6.189910093670796e-7
		outer loop
			vertex 0.04820111021399498 0.029821230098605156 -0.0714285597205162
			vertex 0.046128686517477036 0.027835844084620476 0.0714285746216774
			vertex 0.04752367362380028 0.02917228452861309 -0.0714285597205162
		endloop
	endfacet
	facet normal 0.6917878113898873 -0.7221008406118842 0
		outer loop
			vertex 0.055893655866384506 0.03719085082411766 -0.0714285597205162
			vertex 0.055893655866384506 0.03719085082411766 0.0714285746216774
			vertex 0.04820111021399498 0.029821230098605156 0.0714285746216774
		endloop
	endfacet
	facet normal 0.6917878113898873 -0.7221008406118842 0
		outer loop
			vertex 0.055893655866384506 0.03719085082411766 -0.0714285597205162
			vertex 0.04820111021399498 0.029821230098605156 0.0714285746216774
			vertex 0.04820111021399498 0.029821230098605156 -0.0714285597205162
		endloop
	endfacet
	facet normal 0.7331832351233231 -0.6800311343858442 0
		outer loop
			vertex 0.056856419891119 0.03822886571288109 -0.0714285597205162
			vertex 0.055893655866384506 0.03719085082411766 0.0714285746216774
			vertex 0.055893655866384506 0.03719085082411766 -0.0714285597205162
		endloop
	endfacet
	facet normal 0.7331932063984186 -0.680020383585085 0
		outer loop
			vertex 0.059489693492650986 0.041068073362112045 -0.0714285597205162
			vertex 0.059489693492650986 0.041068073362112045 0.0714285746216774
			vertex 0.055893655866384506 0.03719085082411766 0.0714285746216774
		endloop
	endfacet
	facet normal 0.7331968519269403 -0.6800164529806503 1.984450126644853e-7
		outer loop
			vertex 0.059489693492650986 0.041068073362112045 -0.0714285597205162
			vertex 0.055893655866384506 0.03719085082411766 0.0714285746216774
			vertex 0.056856419891119 0.03822886571288109 -0.0714285597205162
		endloop
	endfacet
	facet normal 0.733193940861218 -0.6800195916915901 0
		outer loop
			vertex 0.06263270229101181 0.0444568507373333 -0.0714285597205162
			vertex 0.06263270229101181 0.0444568507373333 0.0714285746216774
			vertex 0.059489693492650986 0.041068073362112045 0.0714285746216774
		endloop
	endfacet
	facet normal 0.733193940861218 -0.6800195916915901 0
		outer loop
			vertex 0.06263270229101181 0.0444568507373333 -0.0714285597205162
			vertex 0.059489693492650986 0.041068073362112045 0.0714285746216774
			vertex 0.059489693492650986 0.041068073362112045 -0.0714285597205162
		endloop
	endfacet
	facet normal 0.7946428836256271 -0.6070771676674622 0
		outer loop
			vertex 0.06301631778478622 0.044958990067243576 -0.0714285597205162
			vertex 0.06263270229101181 0.0444568507373333 0.0714285746216774
			vertex 0.06263270229101181 0.0444568507373333 -0.0714285597205162
		endloop
	endfacet
	facet normal 0.7946808033772288 -0.6070275288186873 0
		outer loop
			vertex 0.06301631778478622 0.044958990067243576 -0.0714285597205162
			vertex 0.06531771272420883 0.047971826046705246 -0.0714285597205162
			vertex 0.06531771272420883 0.047971826046705246 0.0714285746216774
		endloop
	endfacet
	facet normal 0.7946753862381141 -0.6070346205178487 2.3683173465861706e-7
		outer loop
			vertex 0.06301631778478622 0.044958990067243576 -0.0714285597205162
			vertex 0.06531771272420883 0.047971826046705246 0.0714285746216774
			vertex 0.06263270229101181 0.0444568507373333 0.0714285746216774
		endloop
	endfacet
	facet normal 0.9610859744981736 -0.27624943370601895 0
		outer loop
			vertex 0.06535541266202927 0.04810298606753349 -0.0714285597205162
			vertex 0.06531771272420883 0.047971826046705246 0.0714285746216774
			vertex 0.06531771272420883 0.047971826046705246 -0.0714285597205162
		endloop
	endfacet
	facet normal 0.9610472502988499 -0.27638412163693465 0
		outer loop
			vertex 0.06535541266202927 0.04810298606753349 -0.0714285597205162
			vertex 0.06558170169591904 0.04888984188437462 -0.0714285597205162
			vertex 0.06558170169591904 0.04888984188437462 0.0714285746216774
		endloop
	endfacet
	facet normal 0.9610527839205293 -0.2763648793146249 -1.1475192483862117e-7
		outer loop
			vertex 0.06535541266202927 0.04810298606753349 -0.0714285597205162
			vertex 0.06558170169591904 0.04888984188437462 0.0714285746216774
			vertex 0.06531771272420883 0.047971826046705246 0.0714285746216774
		endloop
	endfacet
	facet normal 0.9714855192559027 -0.23709889471714027 0
		outer loop
			vertex 0.06563755124807358 0.04911867901682854 -0.0714285597205162
			vertex 0.06558170169591904 0.04888984188437462 0.0714285746216774
			vertex 0.06558170169591904 0.04888984188437462 -0.0714285597205162
		endloop
	endfacet
	facet normal 0.9714805469860425 -0.23711926709506312 0
		outer loop
			vertex 0.06563755124807358 0.04911867901682854 -0.0714285597205162
			vertex 0.0659727081656456 0.0504918210208416 -0.0714285597205162
			vertex 0.0659727081656456 0.0504918210208416 0.0714285746216774
		endloop
	endfacet
	facet normal 0.9714812572804883 -0.23711635699107977 -2.9638324554959137e-8
		outer loop
			vertex 0.06563755124807358 0.04911867901682854 -0.0714285597205162
			vertex 0.0659727081656456 0.0504918210208416 0.0714285746216774
			vertex 0.06558170169591904 0.04888984188437462 0.0714285746216774
		endloop
	endfacet
	facet normal 0.9903283550855858 0.1387434651199041 0
		outer loop
			vertex 0.06586795300245285 0.05123954638838768 -0.0714285597205162
			vertex 0.0659727081656456 0.0504918210208416 0.0714285746216774
			vertex 0.0659727081656456 0.0504918210208416 -0.0714285597205162
		endloop
	endfacet
	facet normal 0.9903353099536307 0.13869381334092132 0
		outer loop
			vertex 0.06529100984334946 0.05535944923758507 -0.0714285597205162
			vertex 0.06529100984334946 0.05535944923758507 0.0714285746216774
			vertex 0.0659727081656456 0.0504918210208416 0.0714285746216774
		endloop
	endfacet
	facet normal 0.9903365719432449 0.13868480187678964 -3.130732916501124e-7
		outer loop
			vertex 0.06529100984334946 0.05535944923758507 -0.0714285597205162
			vertex 0.0659727081656456 0.0504918210208416 0.0714285746216774
			vertex 0.06586795300245285 0.05123954638838768 -0.0714285597205162
		endloop
	endfacet
	facet normal 0.9903221602098583 0.13878767595604424 0
		outer loop
			vertex 0.06523966044187546 0.05572585389018059 -0.0714285597205162
			vertex 0.06523966044187546 0.05572585389018059 0.0714285746216774
			vertex 0.06529100984334946 0.05535944923758507 0.0714285746216774
		endloop
	endfacet
	facet normal 0.9903221602098583 0.13878767595604424 0
		outer loop
			vertex 0.06523966044187546 0.05572585389018059 -0.0714285597205162
			vertex 0.06529100984334946 0.05535944923758507 0.0714285746216774
			vertex 0.06529100984334946 0.05535944923758507 -0.0714285597205162
		endloop
	endfacet
	facet normal 0.8821460601636434 0.4709759320153862 0
		outer loop
			vertex 0.06473612040281296 0.05666899308562279 -0.0714285597205162
			vertex 0.06523966044187546 0.05572585389018059 0.0714285746216774
			vertex 0.06523966044187546 0.05572585389018059 -0.0714285597205162
		endloop
	endfacet
	facet normal 0.8821327898739209 0.47100078665460104 0
		outer loop
			vertex 0.06473612040281296 0.05666899308562279 -0.0714285597205162
			vertex 0.06171467527747154 0.062327828258275986 -0.0714285597205162
			vertex 0.06171467527747154 0.062327828258275986 0.0714285746216774
		endloop
	endfacet
	facet normal 0.8821346856480112 0.47099723606052313 1.8074143902400004e-7
		outer loop
			vertex 0.06473612040281296 0.05666899308562279 -0.0714285597205162
			vertex 0.06171467527747154 0.062327828258275986 0.0714285746216774
			vertex 0.06523966044187546 0.05572585389018059 0.0714285746216774
		endloop
	endfacet
	facet normal 0.6626087096265685 0.7489657521722967 0
		outer loop
			vertex 0.061158087104558945 0.06282024085521698 -0.0714285597205162
			vertex 0.061158087104558945 0.06282024085521698 -0.025160696357488632
			vertex 0.06171467527747154 0.062327828258275986 0.0714285746216774
		endloop
	endfacet
	facet normal 0.6626087096265685 0.7489657521722967 0
		outer loop
			vertex 0.061158087104558945 0.06282024085521698 -0.0714285597205162
			vertex 0.06171467527747154 0.062327828258275986 0.0714285746216774
			vertex 0.06171467527747154 0.062327828258275986 -0.0714285597205162
		endloop
	endfacet
	facet normal 0.6626087096265685 0.7489657521722967 0
		outer loop
			vertex 0.061158087104558945 0.06282024085521698 0.0714285746216774
			vertex 0.06171467527747154 0.062327828258275986 0.0714285746216774
			vertex 0.061158087104558945 0.06282024085521698 -0.025160696357488632
		endloop
	endfacet
	facet normal 0.6627382622956817 0.7488511171716982 0
		outer loop
			vertex 0.0608915351331234 0.06305614113807678 -0.0714285597205162
			vertex 0.061158087104558945 0.06282024085521698 -0.025160696357488632
			vertex 0.061158087104558945 0.06282024085521698 -0.0714285597205162
		endloop
	endfacet
	facet normal 0.662637068107651 0.7489406625158609 0
		outer loop
			vertex 0.0608915351331234 0.06305614113807678 -0.0714285597205162
			vertex 0.05595272406935692 0.06742583215236664 -0.0714285597205162
			vertex 0.05595272406935692 0.06742583215236664 0.0714285746216774
		endloop
	endfacet
	facet normal 0.6626422508586478 0.7489360769631029 3.1943855556083857e-7
		outer loop
			vertex 0.0608915351331234 0.06305614113807678 -0.0714285597205162
			vertex 0.05595272406935692 0.06742583215236664 0.0714285746216774
			vertex 0.061158087104558945 0.06282024085521698 0.0714285746216774
		endloop
	endfacet
	facet normal 0.6627382622956817 0.7488511171716982 0
		outer loop
			vertex 0.0608915351331234 0.06305614113807678 -0.0714285597205162
			vertex 0.061158087104558945 0.06282024085521698 0.0714285746216774
			vertex 0.061158087104558945 0.06282024085521698 -0.025160696357488632
		endloop
	endfacet
	facet normal 0.39289715925143637 0.9195824173243806 0
		outer loop
			vertex 0.05520504340529442 0.06774528324604034 -0.0714285597205162
			vertex 0.05595272406935692 0.06742583215236664 0.0714285746216774
			vertex 0.05595272406935692 0.06742583215236664 -0.0714285597205162
		endloop
	endfacet
	facet normal 0.39285108955227915 0.9196020995178226 0
		outer loop
			vertex 0.05520504340529442 0.06774528324604034 -0.0714285597205162
			vertex 0.05071872100234032 0.06966182589530945 -0.0714285597205162
			vertex 0.05071872100234032 0.06966182589530945 0.0714285746216774
		endloop
	endfacet
	facet normal 0.39285767081916834 0.9195992879936773 2.443986516987048e-7
		outer loop
			vertex 0.05520504340529442 0.06774528324604034 -0.0714285597205162
			vertex 0.05071872100234032 0.06966182589530945 0.0714285746216774
			vertex 0.05595272406935692 0.06742583215236664 0.0714285746216774
		endloop
	endfacet
	facet normal 0.07599276114312092 0.997108369363052 0
		outer loop
			vertex 0.05046200379729271 0.06968139111995697 -0.0714285597205162
			vertex 0.05071872100234032 0.06966182589530945 0.0714285746216774
			vertex 0.05071872100234032 0.06966182589530945 -0.0714285597205162
		endloop
	endfacet
	facet normal 0.07603112294977572 0.9971054449470208 0
		outer loop
			vertex 0.05046200379729271 0.06968139111995697 -0.0714285597205162
			vertex 0.048921700567007065 0.06979884207248688 -0.0714285597205162
			vertex 0.048921700567007065 0.06979884207248688 0.0714285746216774
		endloop
	endfacet
	facet normal 0.07602564271234862 0.9971058628100482 -5.943214429868415e-8
		outer loop
			vertex 0.05046200379729271 0.06968139111995697 -0.0714285597205162
			vertex 0.048921700567007065 0.06979884207248688 0.0714285746216774
			vertex 0.05071872100234032 0.06966182589530945 0.0714285746216774
		endloop
	endfacet
	facet normal 0.1265932409584386 0.9919547123450945 0
		outer loop
			vertex 0.04876955971121788 0.06981825828552246 -0.0714285597205162
			vertex 0.048921700567007065 0.06979884207248688 0.0714285746216774
			vertex 0.048921700567007065 0.06979884207248688 -0.0714285597205162
		endloop
	endfacet
	facet normal 0.1266888374114189 0.9919425076461555 0
		outer loop
			vertex 0.04876955971121788 0.06981825828552246 -0.0714285597205162
			vertex 0.04785671457648277 0.06993484497070312 -0.0714285597205162
			vertex 0.04785671457648277 0.06993484497070312 0.0714285746216774
		endloop
	endfacet
	facet normal 0.1266751809913325 0.9919442517202293 -8.868673242730357e-8
		outer loop
			vertex 0.04876955971121788 0.06981825828552246 -0.0714285597205162
			vertex 0.04785671457648277 0.06993484497070312 0.0714285746216774
			vertex 0.048921700567007065 0.06979884207248688 0.0714285746216774
		endloop
	endfacet
	facet normal -0.1229001902308226 0.9924190361138926 0
		outer loop
			vertex 0.04784708842635155 0.06993365287780762 -0.0714285597205162
			vertex 0.04784708842635155 0.06993365287780762 0.069206602871418
			vertex 0.04785671457648277 0.06993484497070312 0.0714285746216774
		endloop
	endfacet
	facet normal -0.1229001902308226 0.9924190361138926 0
		outer loop
			vertex 0.04784708842635155 0.06993365287780762 -0.0714285597205162
			vertex 0.04785671457648277 0.06993484497070312 0.0714285746216774
			vertex 0.04785671457648277 0.06993484497070312 -0.0714285597205162
		endloop
	endfacet
	facet normal -0.12290019023082262 0.9924190361138926 0
		outer loop
			vertex 0.04784708842635155 0.06993365287780762 0.0714285746216774
			vertex 0.04785671457648277 0.06993484497070312 0.0714285746216774
			vertex 0.04784708842635155 0.06993365287780762 0.069206602871418
		endloop
	endfacet
	facet normal -0.12065445157288228 0.9926945669820335 0
		outer loop
			vertex 0.047237273305654526 0.06985953450202942 -0.0714285597205162
			vertex 0.04784708842635155 0.06993365287780762 0.069206602871418
			vertex 0.04784708842635155 0.06993365287780762 -0.0714285597205162
		endloop
	endfacet
	facet normal -0.12064812884190518 0.9926953354413163 0
		outer loop
			vertex 0.047237273305654526 0.06985953450202942 -0.0714285597205162
			vertex 0.04352068528532982 0.06940783560276031 -0.0714285597205162
			vertex 0.04352068528532982 0.06940783560276031 0.0714285746216774
		endloop
	endfacet
	facet normal -0.12064902004429066 0.992695227127819 -2.3528101781885565e-8
		outer loop
			vertex 0.047237273305654526 0.06985953450202942 -0.0714285597205162
			vertex 0.04352068528532982 0.06940783560276031 0.0714285746216774
			vertex 0.04784708842635155 0.06993365287780762 0.0714285746216774
		endloop
	endfacet
	facet normal -0.12065445157288229 0.9926945669820336 0
		outer loop
			vertex 0.047237273305654526 0.06985953450202942 -0.0714285597205162
			vertex 0.04784708842635155 0.06993365287780762 0.0714285746216774
			vertex 0.04784708842635155 0.06993365287780762 0.069206602871418
		endloop
	endfacet
	facet normal -0.18898947806816466 0.9819791123947204 0
		outer loop
			vertex 0.04223727807402611 0.0691608339548111 -0.0714285597205162
			vertex 0.04352068528532982 0.06940783560276031 0.0714285746216774
			vertex 0.04352068528532982 0.06940783560276031 -0.0714285597205162
		endloop
	endfacet
	facet normal -0.18898595161143664 0.9819797910820364 0
		outer loop
			vertex 0.04223727807402611 0.0691608339548111 -0.0714285597205162
			vertex 0.034536685794591904 0.06767882406711578 -0.0714285597205162
			vertex 0.034536685794591904 0.06767882406711578 0.0714285746216774
		endloop
	endfacet
	facet normal -0.188986455383061 0.9819796941290313 -2.8161178029705912e-8
		outer loop
			vertex 0.04223727807402611 0.0691608339548111 -0.0714285597205162
			vertex 0.034536685794591904 0.06767882406711578 0.0714285746216774
			vertex 0.04352068528532982 0.06940783560276031 0.0714285746216774
		endloop
	endfacet
	facet normal -0.23300038876157367 0.9724766417950385 0
		outer loop
			vertex 0.03291841968894005 0.06729109585285187 -0.0714285597205162
			vertex 0.034536685794591904 0.06767882406711578 0.0714285746216774
			vertex 0.034536685794591904 0.06767882406711578 -0.0714285597205162
		endloop
	endfacet
	facet normal -0.23298708499630957 0.9724798292123712 0
		outer loop
			vertex 0.03291841968894005 0.06729109585285187 -0.0714285597205162
			vertex 0.023208672180771828 0.06496483087539673 -0.0714285597205162
			vertex 0.023208672180771828 0.06496483087539673 0.0714285746216774
		endloop
	endfacet
	facet normal -0.23298898551689853 0.972479373882957 -1.3658955159630632e-7
		outer loop
			vertex 0.03291841968894005 0.06729109585285187 -0.0714285597205162
			vertex 0.023208672180771828 0.06496483087539673 0.0714285746216774
			vertex 0.034536685794591904 0.06767882406711578 0.0714285746216774
		endloop
	endfacet
	facet normal -0.25915981140078864 0.9658344538039155 0
		outer loop
			vertex 0.021877700462937355 0.06460769474506378 -0.0714285597205162
			vertex 0.023208672180771828 0.06496483087539673 0.0714285746216774
			vertex 0.023208672180771828 0.06496483087539673 -0.0714285597205162
		endloop
	endfacet
	facet normal -0.2591638581394174 0.9658333679441252 0
		outer loop
			vertex 0.020657116547226906 0.06428016722202301 -0.0714285597205162
			vertex 0.020657116547226906 0.06428016722202301 0.0714285746216774
			vertex 0.023208672180771828 0.06496483087539673 0.0714285746216774
		endloop
	endfacet
	facet normal -0.2591682708435388 0.965832183864238 8.448970068724663e-8
		outer loop
			vertex 0.020657116547226906 0.06428016722202301 -0.0714285597205162
			vertex 0.023208672180771828 0.06496483087539673 0.0714285746216774
			vertex 0.021877700462937355 0.06460769474506378 -0.0714285597205162
		endloop
	endfacet
	facet normal -0.2591592643329665 0.9658346005970152 0
		outer loop
			vertex 0.013891661539673805 0.06246481463313103 -0.0714285597205162
			vertex 0.013891661539673805 0.06246481463313103 0.0714285746216774
			vertex 0.020657116547226906 0.06428016722202301 0.0714285746216774
		endloop
	endfacet
	facet normal -0.2591592643329665 0.9658346005970152 0
		outer loop
			vertex 0.013891661539673805 0.06246481463313103 -0.0714285597205162
			vertex 0.020657116547226906 0.06428016722202301 0.0714285746216774
			vertex 0.020657116547226906 0.06428016722202301 -0.0714285597205162
		endloop
	endfacet
	facet normal -0.27477711261241217 0.9615079502450231 0
		outer loop
			vertex 0.013452256098389626 0.06233924254775047 -0.0714285597205162
			vertex 0.013891661539673805 0.06246481463313103 0.0714285746216774
			vertex 0.013891661539673805 0.06246481463313103 -0.0714285597205162
		endloop
	endfacet
	facet normal -0.27475270757737147 0.9615149243141802 0
		outer loop
			vertex 0.013452256098389626 0.06233924254775047 -0.0714285597205162
			vertex 0.010815674439072609 0.061585839837789536 -0.0714285597205162
			vertex 0.010815674439072609 0.061585839837789536 0.0714285746216774
		endloop
	endfacet
	facet normal -0.27475619387456446 0.9615139280985784 -6.959721555309986e-8
		outer loop
			vertex 0.013452256098389626 0.06233924254775047 -0.0714285597205162
			vertex 0.010815674439072609 0.061585839837789536 0.0714285746216774
			vertex 0.013891661539673805 0.06246481463313103 0.0714285746216774
		endloop
	endfacet
	facet normal -0.28224616759368265 0.9593420145488673 0
		outer loop
			vertex 0.009497398510575294 0.06119799241423607 -0.0714285597205162
			vertex 0.010815674439072609 0.061585839837789536 0.0714285746216774
			vertex 0.010815674439072609 0.061585839837789536 -0.0714285597205162
		endloop
	endfacet
	facet normal -0.28225315571759974 0.9593399585587251 0
		outer loop
			vertex 0.005430782679468393 0.060001518577337265 -0.0714285597205162
			vertex 0.005430782679468393 0.060001518577337265 0.0714285746216774
			vertex 0.010815674439072609 0.061585839837789536 0.0714285746216774
		endloop
	endfacet
	facet normal -0.28225542104993206 0.9593392920588195 9.278164118796315e-8
		outer loop
			vertex 0.005430782679468393 0.060001518577337265 -0.0714285597205162
			vertex 0.010815674439072609 0.061585839837789536 0.0714285746216774
			vertex 0.009497398510575294 0.06119799241423607 -0.0714285597205162
		endloop
	endfacet
	facet normal -0.282246064376563 0.9593420449161713 0
		outer loop
			vertex 0.0015876836841925979 0.05887084826827049 -0.0714285597205162
			vertex 0.0015876836841925979 0.05887084826827049 0.0714285746216774
			vertex 0.005430782679468393 0.060001518577337265 0.0714285746216774
		endloop
	endfacet
	facet normal -0.282246064376563 0.9593420449161713 0
		outer loop
			vertex 0.0015876836841925979 0.05887084826827049 -0.0714285597205162
			vertex 0.005430782679468393 0.060001518577337265 0.0714285746216774
			vertex 0.005430782679468393 0.060001518577337265 -0.0714285597205162
		endloop
	endfacet
	facet normal -0.31166294370703096 0.9501927223042008 0
		outer loop
			vertex -0.002333914628252387 0.05758456513285637 -0.0714285597205162
			vertex 0.0015876836841925979 0.05887084826827049 0.0714285746216774
			vertex 0.0015876836841925979 0.05887084826827049 -0.0714285597205162
		endloop
	endfacet
	facet normal -0.31166613057642256 0.9501916770060242 0
		outer loop
			vertex -0.008349424228072166 0.055611442774534225 -0.0714285597205162
			vertex -0.008349424228072166 0.055611442774534225 0.0714285746216774
			vertex 0.0015876836841925979 0.05887084826827049 0.0714285746216774
		endloop
	endfacet
	facet normal -0.3116682081373223 0.950190995556391 1.6006248227478556e-7
		outer loop
			vertex -0.008349424228072166 0.055611442774534225 -0.0714285597205162
			vertex 0.0015876836841925979 0.05887084826827049 0.0714285746216774
			vertex -0.002333914628252387 0.05758456513285637 -0.0714285597205162
		endloop
	endfacet
	facet normal -0.31166567658392513 0.950191825917001 0
		outer loop
			vertex -0.023259630426764488 0.05072085186839104 -0.0714285597205162
			vertex -0.023259630426764488 0.05072085186839104 0.0714285746216774
			vertex -0.008349424228072166 0.055611442774534225 0.0714285746216774
		endloop
	endfacet
	facet normal -0.31166567658392513 0.950191825917001 0
		outer loop
			vertex -0.023259630426764488 0.05072085186839104 -0.0714285597205162
			vertex -0.008349424228072166 0.055611442774534225 0.0714285746216774
			vertex -0.008349424228072166 0.055611442774534225 -0.0714285597205162
		endloop
	endfacet
	facet normal -0.31167084608956125 0.950190130288574 0
		outer loop
			vertex -0.02586331032216549 0.049866821616888046 -0.0714285597205162
			vertex -0.02586331032216549 0.049866821616888046 0.0714285746216774
			vertex -0.023259630426764488 0.05072085186839104 0.0714285746216774
		endloop
	endfacet
	facet normal -0.31167084608956125 0.950190130288574 0
		outer loop
			vertex -0.02586331032216549 0.049866821616888046 -0.0714285597205162
			vertex -0.023259630426764488 0.05072085186839104 0.0714285746216774
			vertex -0.023259630426764488 0.05072085186839104 -0.0714285597205162
		endloop
	endfacet
	facet normal -0.38595028282086374 0.9225195820092358 0
		outer loop
			vertex -0.030101587995886803 0.04809367284178734 -0.0714285597205162
			vertex -0.02586331032216549 0.049866821616888046 0.0714285746216774
			vertex -0.02586331032216549 0.049866821616888046 -0.0714285597205162
		endloop
	endfacet
	facet normal -0.38594870406941495 0.9225202425026453 0
		outer loop
			vertex -0.04684754088521004 0.041087787598371506 -0.0714285597205162
			vertex -0.04684754088521004 0.041087787598371506 0.0714285746216774
			vertex -0.02586331032216549 0.049866821616888046 0.0714285746216774
		endloop
	endfacet
	facet normal -0.3859483044984807 0.922520409668395 -6.896570099366472e-8
		outer loop
			vertex -0.04684754088521004 0.041087787598371506 -0.0714285597205162
			vertex -0.02586331032216549 0.049866821616888046 0.0714285746216774
			vertex -0.030101587995886803 0.04809367284178734 -0.0714285597205162
		endloop
	endfacet
	facet normal -0.3859478721197581 0.9225205905594904 0
		outer loop
			vertex -0.05553131178021431 0.03745482489466667 -0.0714285597205162
			vertex -0.05553131178021431 0.03745482489466667 0.0714285746216774
			vertex -0.04684754088521004 0.041087787598371506 0.0714285746216774
		endloop
	endfacet
	facet normal -0.3859478721197581 0.9225205905594904 0
		outer loop
			vertex -0.05553131178021431 0.03745482489466667 -0.0714285597205162
			vertex -0.04684754088521004 0.041087787598371506 0.0714285746216774
			vertex -0.04684754088521004 0.041087787598371506 -0.0714285597205162
		endloop
	endfacet
	facet normal -0.48689652243379294 0.8734596593099645 0
		outer loop
			vertex -0.05975574627518654 0.03509997949004173 -0.0714285597205162
			vertex -0.05553131178021431 0.03745482489466667 0.0714285746216774
			vertex -0.05553131178021431 0.03745482489466667 -0.0714285597205162
		endloop
	endfacet
	facet normal -0.4868978496644429 0.8734589194645287 0
		outer loop
			vertex -0.0659727230668068 0.03163440153002739 -0.0714285597205162
			vertex -0.0659727230668068 0.03163440153002739 0.0714285746216774
			vertex -0.05553131178021431 0.03745482489466667 0.0714285746216774
		endloop
	endfacet
	facet normal -0.48689875151547957 0.8734584167392632 8.639870547506638e-8
		outer loop
			vertex -0.0659727230668068 0.03163440153002739 -0.0714285597205162
			vertex -0.05553131178021431 0.03745482489466667 0.0714285746216774
			vertex -0.05975574627518654 0.03509997949004173 -0.0714285597205162
		endloop
	endfacet
	facet normal -1 0 0
		outer loop
			vertex -0.0659727230668068 -0.04412121698260307 -0.0714285597205162
			vertex -0.0659727230668068 -0.06993483006954193 -0.0714285597205162
			vertex -0.0659727230668068 -0.04412121698260307 -0.04506358131766319
		endloop
	endfacet
	facet normal -1 0 0
		outer loop
			vertex -0.0659727230668068 -0.06993483006954193 -0.0714285597205162
			vertex -0.0659727230668068 -0.06993483006954193 0.0714285746216774
			vertex -0.0659727230668068 -0.04412121698260307 0.0714285746216774
		endloop
	endfacet
	facet normal -1 0 0
		outer loop
			vertex -0.0659727230668068 -0.06993483006954193 -0.0714285597205162
			vertex -0.0659727230668068 -0.04412121698260307 0.0714285746216774
			vertex -0.0659727230668068 -0.04412121698260307 -0.04506358131766319
		endloop
	endfacet
	facet normal -1 0 0
		outer loop
			vertex -0.0659727230668068 -0.043304067105054855 -0.0714285597205162
			vertex -0.0659727230668068 -0.04412121698260307 -0.0714285597205162
			vertex -0.0659727230668068 -0.04412121698260307 -0.04506358131766319
		endloop
	endfacet
	facet normal -1 0 0
		outer loop
			vertex -0.0659727230668068 -0.043304067105054855 -0.0714285597205162
			vertex -0.0659727230668068 -0.04412121698260307 -0.04506358131766319
			vertex -0.0659727230668068 -0.043304067105054855 -0.044228967279195786
		endloop
	endfacet
	facet normal -1 0 0
		outer loop
			vertex -0.0659727230668068 -0.04412121698260307 0.0714285746216774
			vertex -0.0659727230668068 -0.043304067105054855 0.0714285746216774
			vertex -0.0659727230668068 -0.043304067105054855 -0.044228967279195786
		endloop
	endfacet
	facet normal -1 0 0
		outer loop
			vertex -0.0659727230668068 -0.04412121698260307 0.0714285746216774
			vertex -0.0659727230668068 -0.043304067105054855 -0.044228967279195786
			vertex -0.0659727230668068 -0.04412121698260307 -0.04506358131766319
		endloop
	endfacet
	facet normal -1 0 0
		outer loop
			vertex -0.0659727230668068 -0.03552441671490669 -0.0714285597205162
			vertex -0.0659727230668068 -0.043304067105054855 -0.0714285597205162
			vertex -0.0659727230668068 -0.043304067105054855 -0.044228967279195786
		endloop
	endfacet
	facet normal -1 0 0
		outer loop
			vertex -0.0659727230668068 -0.03552441671490669 -0.0714285597205162
			vertex -0.0659727230668068 -0.043304067105054855 -0.044228967279195786
			vertex -0.0659727230668068 -0.03552441671490669 -0.03628319129347801
		endloop
	endfacet
	facet normal -1 0 0
		outer loop
			vertex -0.0659727230668068 -0.043304067105054855 0.0714285746216774
			vertex -0.0659727230668068 -0.03552441671490669 0.0714285746216774
			vertex -0.0659727230668068 -0.03552441671490669 -0.03628319129347801
		endloop
	endfacet
	facet normal -1 0 0
		outer loop
			vertex -0.0659727230668068 -0.043304067105054855 0.0714285746216774
			vertex -0.0659727230668068 -0.03552441671490669 -0.03628319129347801
			vertex -0.0659727230668068 -0.043304067105054855 -0.044228967279195786
		endloop
	endfacet
	facet normal -1 0 0
		outer loop
			vertex -0.0659727230668068 -0.03525015339255333 -0.0714285597205162
			vertex -0.0659727230668068 -0.03552441671490669 -0.0714285597205162
			vertex -0.0659727230668068 -0.03552441671490669 -0.03628319129347801
		endloop
	endfacet
	facet normal -1 0 0
		outer loop
			vertex -0.0659727230668068 -0.03525015339255333 -0.0714285597205162
			vertex -0.0659727230668068 -0.03552441671490669 -0.03628319129347801
			vertex -0.0659727230668068 -0.03525015339255333 -0.036003079265356064
		endloop
	endfacet
	facet normal -1 0 0
		outer loop
			vertex -0.0659727230668068 -0.03552441671490669 0.0714285746216774
			vertex -0.0659727230668068 -0.03525015339255333 0.0714285746216774
			vertex -0.0659727230668068 -0.03525015339255333 -0.036003079265356064
		endloop
	endfacet
	facet normal -1 0 0
		outer loop
			vertex -0.0659727230668068 -0.03552441671490669 0.0714285746216774
			vertex -0.0659727230668068 -0.03525015339255333 -0.036003079265356064
			vertex -0.0659727230668068 -0.03552441671490669 -0.03628319129347801
		endloop
	endfacet
	facet normal -1 0 0
		outer loop
			vertex -0.0659727230668068 -0.014298172667622566 -0.0714285597205162
			vertex -0.0659727230668068 -0.03525015339255333 -0.0714285597205162
			vertex -0.0659727230668068 -0.03525015339255333 -0.036003079265356064
		endloop
	endfacet
	facet normal -1 0 0
		outer loop
			vertex -0.0659727230668068 -0.014298172667622566 -0.0714285597205162
			vertex -0.0659727230668068 -0.03525015339255333 -0.036003079265356064
			vertex -0.0659727230668068 -0.014298172667622566 -0.014603580348193645
		endloop
	endfacet
	facet normal -1 0 0
		outer loop
			vertex -0.0659727230668068 -0.03525015339255333 0.0714285746216774
			vertex -0.0659727230668068 -0.014298172667622566 0.0714285746216774
			vertex -0.0659727230668068 -0.014298172667622566 -0.014603580348193645
		endloop
	endfacet
	facet normal -1 0 0
		outer loop
			vertex -0.0659727230668068 -0.03525015339255333 0.0714285746216774
			vertex -0.0659727230668068 -0.014298172667622566 -0.014603580348193645
			vertex -0.0659727230668068 -0.03525015339255333 -0.036003079265356064
		endloop
	endfacet
	facet normal -1 0 0
		outer loop
			vertex -0.0659727230668068 -0.01035592146217823 -0.0714285597205162
			vertex -0.0659727230668068 -0.014298172667622566 -0.0714285597205162
			vertex -0.0659727230668068 -0.014298172667622566 -0.014603580348193645
		endloop
	endfacet
	facet normal -1 0 0
		outer loop
			vertex -0.0659727230668068 -0.01035592146217823 -0.0714285597205162
			vertex -0.0659727230668068 -0.014298172667622566 -0.014603580348193645
			vertex -0.0659727230668068 -0.01035592146217823 -0.010577077977359295
		endloop
	endfacet
	facet normal -1 0 0
		outer loop
			vertex -0.0659727230668068 -0.014298172667622566 0.0714285746216774
			vertex -0.0659727230668068 -0.01035592146217823 0.0714285746216774
			vertex -0.0659727230668068 -0.01035592146217823 -0.010577077977359295
		endloop
	endfacet
	facet normal -1 0 0
		outer loop
			vertex -0.0659727230668068 -0.014298172667622566 0.0714285746216774
			vertex -0.0659727230668068 -0.01035592146217823 -0.010577077977359295
			vertex -0.0659727230668068 -0.014298172667622566 -0.014603580348193645
		endloop
	endfacet
	facet normal -1 0 0
		outer loop
			vertex -0.0659727230668068 -0.0052660428918898106 -0.0714285597205162
			vertex -0.0659727230668068 -0.01035592146217823 -0.0714285597205162
			vertex -0.0659727230668068 -0.01035592146217823 -0.010577077977359295
		endloop
	endfacet
	facet normal -1 0 0
		outer loop
			vertex -0.0659727230668068 -0.0052660428918898106 -0.0714285597205162
			vertex -0.0659727230668068 -0.01035592146217823 -0.010577077977359295
			vertex -0.0659727230668068 -0.0052660428918898106 -0.005378540139645338
		endloop
	endfacet
	facet normal -1 0 0
		outer loop
			vertex -0.0659727230668068 -0.01035592146217823 0.0714285746216774
			vertex -0.0659727230668068 -0.0052660428918898106 0.0714285746216774
			vertex -0.0659727230668068 -0.0052660428918898106 -0.005378540139645338
		endloop
	endfacet
	facet normal -1 0 0
		outer loop
			vertex -0.0659727230668068 -0.01035592146217823 0.0714285746216774
			vertex -0.0659727230668068 -0.0052660428918898106 -0.005378540139645338
			vertex -0.0659727230668068 -0.01035592146217823 -0.010577077977359295
		endloop
	endfacet
	facet normal -1 0 0
		outer loop
			vertex -0.0659727230668068 -0.0013886264059692621 -0.0714285597205162
			vertex -0.0659727230668068 -0.0052660428918898106 -0.0714285597205162
			vertex -0.0659727230668068 -0.0052660428918898106 -0.005378540139645338
		endloop
	endfacet
	facet normal -1 0 0
		outer loop
			vertex -0.0659727230668068 -0.0013886264059692621 -0.0714285597205162
			vertex -0.0659727230668068 -0.0052660428918898106 -0.005378540139645338
			vertex -0.0659727230668068 -0.0013886264059692621 -0.0014182882150635123
		endloop
	endfacet
	facet normal -1 0 0
		outer loop
			vertex -0.0659727230668068 -0.0052660428918898106 0.0714285746216774
			vertex -0.0659727230668068 -0.0013886264059692621 0.0714285746216774
			vertex -0.0659727230668068 -0.0013886264059692621 -0.0014182882150635123
		endloop
	endfacet
	facet normal -1 0 0
		outer loop
			vertex -0.0659727230668068 -0.0052660428918898106 0.0714285746216774
			vertex -0.0659727230668068 -0.0013886264059692621 -0.0014182882150635123
			vertex -0.0659727230668068 -0.0052660428918898106 -0.005378540139645338
		endloop
	endfacet
	facet normal -1 0 0
		outer loop
			vertex -0.0659727230668068 0.0030688473489135504 -0.0714285597205162
			vertex -0.0659727230668068 -0.0013886264059692621 -0.0714285597205162
			vertex -0.0659727230668068 -0.0013886264059692621 -0.0014182882150635123
		endloop
	endfacet
	facet normal -1 0 0
		outer loop
			vertex -0.0659727230668068 0.0030688473489135504 -0.0714285597205162
			vertex -0.0659727230668068 -0.0013886264059692621 -0.0014182882150635123
			vertex -0.0659727230668068 0.0030688473489135504 0.003134403843432665
		endloop
	endfacet
	facet normal -1 0 0
		outer loop
			vertex -0.0659727230668068 -0.0013886264059692621 0.0714285746216774
			vertex -0.0659727230668068 0.0030688473489135504 0.0714285746216774
			vertex -0.0659727230668068 0.0030688473489135504 0.003134403843432665
		endloop
	endfacet
	facet normal -1 0 0
		outer loop
			vertex -0.0659727230668068 -0.0013886264059692621 0.0714285746216774
			vertex -0.0659727230668068 0.0030688473489135504 0.003134403843432665
			vertex -0.0659727230668068 -0.0013886264059692621 -0.0014182882150635123
		endloop
	endfacet
	facet normal -1 0 0
		outer loop
			vertex -0.0659727230668068 0.00922408513724804 -0.0714285597205162
			vertex -0.0659727230668068 0.0030688473489135504 -0.0714285597205162
			vertex -0.0659727230668068 0.0030688473489135504 0.003134403843432665
		endloop
	endfacet
	facet normal -1 0 0
		outer loop
			vertex -0.0659727230668068 0.00922408513724804 -0.0714285597205162
			vertex -0.0659727230668068 0.0030688473489135504 0.003134403843432665
			vertex -0.0659727230668068 0.00922408513724804 0.009421085007488728
		endloop
	endfacet
	facet normal -1 0 0
		outer loop
			vertex -0.0659727230668068 0.0030688473489135504 0.0714285746216774
			vertex -0.0659727230668068 0.00922408513724804 0.0714285746216774
			vertex -0.0659727230668068 0.00922408513724804 0.009421085007488728
		endloop
	endfacet
	facet normal -1 0 0
		outer loop
			vertex -0.0659727230668068 0.0030688473489135504 0.0714285746216774
			vertex -0.0659727230668068 0.00922408513724804 0.009421085007488728
			vertex -0.0659727230668068 0.0030688473489135504 0.003134403843432665
		endloop
	endfacet
	facet normal -1 0 0
		outer loop
			vertex -0.0659727230668068 0.020665956661105156 -0.0714285597205162
			vertex -0.0659727230668068 0.00922408513724804 -0.0714285597205162
			vertex -0.0659727230668068 0.00922408513724804 0.009421085007488728
		endloop
	endfacet
	facet normal -1 0 0
		outer loop
			vertex -0.0659727230668068 0.020665956661105156 -0.0714285597205162
			vertex -0.0659727230668068 0.00922408513724804 0.009421085007488728
			vertex -0.0659727230668068 0.020665956661105156 0.021107379347085953
		endloop
	endfacet
	facet normal -1 0 0
		outer loop
			vertex -0.0659727230668068 0.00922408513724804 0.0714285746216774
			vertex -0.0659727230668068 0.020665956661105156 0.0714285746216774
			vertex -0.0659727230668068 0.020665956661105156 0.021107379347085953
		endloop
	endfacet
	facet normal -1 0 0
		outer loop
			vertex -0.0659727230668068 0.00922408513724804 0.0714285746216774
			vertex -0.0659727230668068 0.020665956661105156 0.021107379347085953
			vertex -0.0659727230668068 0.00922408513724804 0.009421085007488728
		endloop
	endfacet
	facet normal -1 0 0
		outer loop
			vertex -0.0659727230668068 0.03163440153002739 -0.0714285597205162
			vertex -0.0659727230668068 0.020665956661105156 -0.0714285597205162
			vertex -0.0659727230668068 0.020665956661105156 0.021107379347085953
		endloop
	endfacet
	facet normal -1 0 0
		outer loop
			vertex -0.0659727230668068 0.03163440153002739 -0.0714285597205162
			vertex -0.0659727230668068 0.020665956661105156 0.021107379347085953
			vertex -0.0659727230668068 0.03163440153002739 0.03231007233262062
		endloop
	endfacet
	facet normal -1 0 0
		outer loop
			vertex -0.0659727230668068 0.020665956661105156 0.0714285746216774
			vertex -0.0659727230668068 0.03163440153002739 0.0714285746216774
			vertex -0.0659727230668068 0.03163440153002739 0.03231007233262062
		endloop
	endfacet
	facet normal -1 0 0
		outer loop
			vertex -0.0659727230668068 0.020665956661105156 0.0714285746216774
			vertex -0.0659727230668068 0.03163440153002739 0.03231007233262062
			vertex -0.0659727230668068 0.020665956661105156 0.021107379347085953
		endloop
	endfacet
	facet normal 0 -1 0
		outer loop
			vertex -0.055779505521059036 -0.06993483006954193 -0.06039237603545189
			vertex -0.05512707307934761 -0.06993483006954193 -0.059686001390218735
			vertex -0.05512707307934761 -0.06993483006954193 0.0714285746216774
		endloop
	endfacet
	facet normal 0 -1 0
		outer loop
			vertex -0.055779505521059036 -0.06993483006954193 -0.06039237603545189
			vertex -0.05512707307934761 -0.06993483006954193 0.0714285746216774
			vertex -0.055779505521059036 -0.06993483006954193 0.0714285746216774
		endloop
	endfacet
	facet normal 0 -1 0
		outer loop
			vertex -0.055779505521059036 -0.06993483006954193 -0.0714285597205162
			vertex -0.05512707307934761 -0.06993483006954193 -0.0714285597205162
			vertex -0.05512707307934761 -0.06993483006954193 -0.059686001390218735
		endloop
	endfacet
	facet normal 0 -1 0
		outer loop
			vertex -0.055779505521059036 -0.06993483006954193 -0.0714285597205162
			vertex -0.05512707307934761 -0.06993483006954193 -0.059686001390218735
			vertex -0.055779505521059036 -0.06993483006954193 -0.06039237603545189
		endloop
	endfacet
	facet normal 0 -1 0
		outer loop
			vertex -0.05849290266633034 -0.06993483006954193 -0.06333013623952866
			vertex -0.055779505521059036 -0.06993483006954193 -0.06039237603545189
			vertex -0.055779505521059036 -0.06993483006954193 0.0714285746216774
		endloop
	endfacet
	facet normal 0 -1 0
		outer loop
			vertex -0.05849290266633034 -0.06993483006954193 -0.06333013623952866
			vertex -0.055779505521059036 -0.06993483006954193 0.0714285746216774
			vertex -0.05849290266633034 -0.06993483006954193 0.0714285746216774
		endloop
	endfacet
	facet normal 0 -1 0
		outer loop
			vertex -0.05849290266633034 -0.06993483006954193 -0.0714285597205162
			vertex -0.055779505521059036 -0.06993483006954193 -0.0714285597205162
			vertex -0.055779505521059036 -0.06993483006954193 -0.06039237603545189
		endloop
	endfacet
	facet normal 0 -1 0
		outer loop
			vertex -0.05849290266633034 -0.06993483006954193 -0.0714285597205162
			vertex -0.055779505521059036 -0.06993483006954193 -0.06039237603545189
			vertex -0.05849290266633034 -0.06993483006954193 -0.06333013623952866
		endloop
	endfacet
	facet normal 0 -1 0
		outer loop
			vertex -0.05849713459610939 -0.06993483006954193 -0.06333475559949875
			vertex -0.05849290266633034 -0.06993483006954193 -0.06333013623952866
			vertex -0.05849290266633034 -0.06993483006954193 0.0714285746216774
		endloop
	endfacet
	facet normal 0 -1 0
		outer loop
			vertex -0.05849713459610939 -0.06993483006954193 -0.06333475559949875
			vertex -0.05849290266633034 -0.06993483006954193 0.0714285746216774
			vertex -0.05849713459610939 -0.06993483006954193 0.0714285746216774
		endloop
	endfacet
	facet normal 0 -1 0
		outer loop
			vertex -0.05849713459610939 -0.06993483006954193 -0.0714285597205162
			vertex -0.05849290266633034 -0.06993483006954193 -0.0714285597205162
			vertex -0.05849290266633034 -0.06993483006954193 -0.06333013623952866
		endloop
	endfacet
	facet normal 0 -1 0
		outer loop
			vertex -0.05849713459610939 -0.06993483006954193 -0.0714285597205162
			vertex -0.05849290266633034 -0.06993483006954193 -0.06333013623952866
			vertex -0.05849713459610939 -0.06993483006954193 -0.06333475559949875
		endloop
	endfacet
	facet normal 0 -1 0
		outer loop
			vertex -0.0659727230668068 -0.06993483006954193 0.0714285746216774
			vertex -0.0659727230668068 -0.06993483006954193 -0.0714285597205162
			vertex -0.05849713459610939 -0.06993483006954193 -0.06333475559949875
		endloop
	endfacet
	facet normal 0 -1 0
		outer loop
			vertex -0.0659727230668068 -0.06993483006954193 0.0714285746216774
			vertex -0.05849713459610939 -0.06993483006954193 -0.06333475559949875
			vertex -0.05849713459610939 -0.06993483006954193 0.0714285746216774
		endloop
	endfacet
	facet normal 0 -1 0
		outer loop
			vertex -0.0659727230668068 -0.06993483006954193 -0.0714285597205162
			vertex -0.05849713459610939 -0.06993483006954193 -0.0714285597205162
			vertex -0.05849713459610939 -0.06993483006954193 -0.06333475559949875
		endloop
	endfacet
	facet normal 0 0 -1
		outer loop
			vertex 0.037153687328100204 0.019778860732913017 -0.0714285597205162
			vertex 0.03410666808485985 0.017141832038760185 -0.0714285597205162
			vertex 0.030552679672837257 0.014104841277003288 -0.0714285597205162
		endloop
	endfacet
	facet normal 0 0 -1
		outer loop
			vertex 0.037153687328100204 0.019778860732913017 -0.0714285597205162
			vertex 0.030552679672837257 0.014104841277003288 -0.0714285597205162
			vertex 0.04820111021399498 0.029821230098605156 -0.0714285597205162
		endloop
	endfacet
	facet normal 0 0 -1
		outer loop
			vertex 0.037153687328100204 0.019778860732913017 -0.0714285597205162
			vertex 0.04820111021399498 0.029821230098605156 -0.0714285597205162
			vertex 0.046128686517477036 0.027835844084620476 -0.0714285597205162
		endloop
	endfacet
	facet normal 0 0 -1
		outer loop
			vertex 0.020102674141526222 0.004798842128366232 -0.0714285597205162
			vertex 0.05859043821692467 0.040457453578710556 -0.0714285597205162
			vertex 0.059489693492650986 0.041068073362112045 -0.0714285597205162
		endloop
	endfacet
	facet normal 0 0 -1
		outer loop
			vertex 0.020102674141526222 0.004798842128366232 -0.0714285597205162
			vertex 0.059489693492650986 0.041068073362112045 -0.0714285597205162
			vertex 0.055893655866384506 0.03719085082411766 -0.0714285597205162
		endloop
	endfacet
	facet normal 0 0 -1
		outer loop
			vertex 0.020102674141526222 0.004798842128366232 -0.0714285597205162
			vertex 0.055893655866384506 0.03719085082411766 -0.0714285597205162
			vertex 0.04820111021399498 0.029821230098605156 -0.0714285597205162
		endloop
	endfacet
	facet normal 0 0 -1
		outer loop
			vertex 0.006959880236536264 -0.007377865258604288 -0.0714285597205162
			vertex 0.006922865752130747 -0.007338645402342081 -0.0714285597205162
			vertex 0.05223384127020836 0.03614131733775139 -0.0714285597205162
		endloop
	endfacet
	facet normal 0 0 -1
		outer loop
			vertex 0.006959880236536264 -0.007377865258604288 -0.0714285597205162
			vertex 0.05223384127020836 0.03614131733775139 -0.0714285597205162
			vertex 0.05859043821692467 0.040457453578710556 -0.0714285597205162
		endloop
	endfacet
	facet normal 0 0 -1
		outer loop
			vertex 0.004702682141214609 -0.009469153359532356 -0.0714285597205162
			vertex 0.006922865752130747 -0.007338645402342081 -0.0714285597205162
			vertex 0.006959880236536264 -0.007377865258604288 -0.0714285597205162
		endloop
	endfacet
	facet normal 0 0 -1
		outer loop
			vertex 0.006922865752130747 -0.007338645402342081 -0.0714285597205162
			vertex 0.0066541084088385105 -0.007053765002638102 -0.0714285597205162
			vertex 0.046039994806051254 0.031935688108205795 -0.0714285597205162
		endloop
	endfacet
	facet normal 0 0 -1
		outer loop
			vertex 0.006922865752130747 -0.007338645402342081 -0.0714285597205162
			vertex 0.046039994806051254 0.031935688108205795 -0.0714285597205162
			vertex 0.05223384127020836 0.03614131733775139 -0.0714285597205162
		endloop
	endfacet
	facet normal 0 0 -1
		outer loop
			vertex -0.01123431883752346 -0.024762162938714027 -0.0714285597205162
			vertex 0.0066541084088385105 -0.007053765002638102 -0.0714285597205162
			vertex 0.006922865752130747 -0.007338645402342081 -0.0714285597205162
		endloop
	endfacet
	facet normal 0 0 -1
		outer loop
			vertex 0.0066541084088385105 -0.007053765002638102 -0.0714285597205162
			vertex 0.006099129561334848 -0.0064654224552214146 -0.0714285597205162
			vertex 0.03875216469168663 0.026987267658114433 -0.0714285597205162
		endloop
	endfacet
	facet normal 0 0 -1
		outer loop
			vertex 0.0066541084088385105 -0.007053765002638102 -0.0714285597205162
			vertex 0.03875216469168663 0.026987267658114433 -0.0714285597205162
			vertex 0.046039994806051254 0.031935688108205795 -0.0714285597205162
		endloop
	endfacet
	facet normal 0 0 -1
		outer loop
			vertex -0.02683030627667904 -0.040201153606176376 -0.0714285597205162
			vertex 0.006099129561334848 -0.0064654224552214146 -0.0714285597205162
			vertex 0.0066541084088385105 -0.007053765002638102 -0.0714285597205162
		endloop
	endfacet
	facet normal 0 0 -1
		outer loop
			vertex 0.006099129561334848 -0.0064654224552214146 -0.0714285597205162
			vertex 0.005105937365442514 -0.005412610713392496 -0.0714285597205162
			vertex 0.02959146536886692 0.0207670908421278 -0.0714285597205162
		endloop
	endfacet
	facet normal 0 0 -1
		outer loop
			vertex 0.006099129561334848 -0.0064654224552214146 -0.0714285597205162
			vertex 0.02959146536886692 0.0207670908421278 -0.0714285597205162
			vertex 0.03875216469168663 0.026987267658114433 -0.0714285597205162
		endloop
	endfacet
	facet normal 0 0 -1
		outer loop
			vertex -0.04120529070496559 -0.05492815747857094 -0.0714285597205162
			vertex 0.005105937365442514 -0.005412610713392496 -0.0714285597205162
			vertex 0.006099129561334848 -0.0064654224552214146 -0.0714285597205162
		endloop
	endfacet
	facet normal 0 0 -1
		outer loop
			vertex 0.005105937365442514 -0.005412610713392496 -0.0714285597205162
			vertex 0.003129983553662896 -0.0033179542515426874 -0.0714285597205162
			vertex 0.016300523653626442 0.011742515489459038 -0.0714285597205162
		endloop
	endfacet
	facet normal 0 0 -1
		outer loop
			vertex 0.005105937365442514 -0.005412610713392496 -0.0714285597205162
			vertex 0.016300523653626442 0.011742515489459038 -0.0714285597205162
			vertex 0.02959146536886692 0.0207670908421278 -0.0714285597205162
		endloop
	endfacet
	facet normal 0 0 -1
		outer loop
			vertex -0.053490299731492996 -0.0680631697177887 -0.0714285597205162
			vertex 0.003129983553662896 -0.0033179542515426874 -0.0714285597205162
			vertex 0.005105937365442514 -0.005412610713392496 -0.0714285597205162
		endloop
	endfacet
	facet normal 0 0 -1
		outer loop
			vertex 0.003129983553662896 -0.0033179542515426874 -0.0714285597205162
			vertex 0.00009950470848707482 -0.00010548742284299806 -0.0714285597205162
			vertex 0.0015846140449866652 0.0017504075076431036 -0.0714285597205162
		endloop
	endfacet
	facet normal 0 0 -1
		outer loop
			vertex 0.003129983553662896 -0.0033179542515426874 -0.0714285597205162
			vertex 0.0015846140449866652 0.0017504075076431036 -0.0714285597205162
			vertex 0.016300523653626442 0.011742515489459038 -0.0714285597205162
		endloop
	endfacet
	facet normal 0 0 -1
		outer loop
			vertex -0.05512707307934761 -0.06993483006954193 -0.0714285597205162
			vertex -0.055779505521059036 -0.06993483006954193 -0.0714285597205162
			vertex 0.00009950470848707482 -0.00010548742284299806 -0.0714285597205162
		endloop
	endfacet
	facet normal 0 0 -1
		outer loop
			vertex -0.05512707307934761 -0.06993483006954193 -0.0714285597205162
			vertex 0.00009950470848707482 -0.00010548742284299806 -0.0714285597205162
			vertex 0.003129983553662896 -0.0033179542515426874 -0.0714285597205162
		endloop
	endfacet
	facet normal 0 0 -1
		outer loop
			vertex 0.00009950470848707482 -0.00010548742284299806 -0.0714285597205162
			vertex -0.0003878228599205613 0.0004111060407012701 -0.0714285597205162
			vertex 0.0015846140449866652 0.0017504075076431036 -0.0714285597205162
		endloop
	endfacet
	facet normal 0 0 -1
		outer loop
			vertex -0.055779505521059036 -0.06993483006954193 -0.0714285597205162
			vertex -0.05849290266633034 -0.06993483006954193 -0.0714285597205162
			vertex -0.026449820026755333 -0.017285088077187538 -0.0714285597205162
		endloop
	endfacet
	facet normal 0 0 -1
		outer loop
			vertex -0.055779505521059036 -0.06993483006954193 -0.0714285597205162
			vertex -0.026449820026755333 -0.017285088077187538 -0.0714285597205162
			vertex -0.0003878228599205613 0.0004111060407012701 -0.0714285597205162
		endloop
	endfacet
	facet normal 0 0 -1
		outer loop
			vertex -0.055779505521059036 -0.06993483006954193 -0.0714285597205162
			vertex -0.0003878228599205613 0.0004111060407012701 -0.0714285597205162
			vertex 0.00009950470848707482 -0.00010548742284299806 -0.0714285597205162
		endloop
	endfacet
	facet normal 0 0 -1
		outer loop
			vertex -0.05849290266633034 -0.06993483006954193 -0.0714285597205162
			vertex -0.05849713459610939 -0.06993483006954193 -0.0714285597205162
			vertex -0.02648075483739376 -0.017306068912148476 -0.0714285597205162
		endloop
	endfacet
	facet normal 0 0 -1
		outer loop
			vertex -0.05849290266633034 -0.06993483006954193 -0.0714285597205162
			vertex -0.02648075483739376 -0.017306068912148476 -0.0714285597205162
			vertex -0.026449820026755333 -0.017285088077187538 -0.0714285597205162
		endloop
	endfacet
	facet normal 0 0 -1
		outer loop
			vertex -0.05849713459610939 -0.06993483006954193 -0.0714285597205162
			vertex -0.0659727230668068 -0.06993483006954193 -0.0714285597205162
			vertex -0.0659727230668068 -0.04412121698260307 -0.0714285597205162
		endloop
	endfacet
	facet normal 0 0 -1
		outer loop
			vertex -0.05849713459610939 -0.06993483006954193 -0.0714285597205162
			vertex -0.0659727230668068 -0.04412121698260307 -0.0714285597205162
			vertex -0.02648075483739376 -0.017306068912148476 -0.0714285597205162
		endloop
	endfacet
	facet normal 0 0 -1
		outer loop
			vertex 0.00028255057986825705 0.0008662769105285406 -0.0714285597205162
			vertex -0.0003878228599205613 0.0004111060407012701 -0.0714285597205162
			vertex -0.00039262103382498026 0.0004161724355071783 -0.0714285597205162
		endloop
	endfacet
	facet normal 0 0 -1
		outer loop
			vertex -0.0659727230668068 -0.04412121698260307 -0.0714285597205162
			vertex -0.0659727230668068 -0.043304067105054855 -0.0714285597205162
			vertex -0.00039262103382498026 0.0004161724355071783 -0.0714285597205162
		endloop
	endfacet
	facet normal 0 0 -1
		outer loop
			vertex -0.0659727230668068 -0.04412121698260307 -0.0714285597205162
			vertex -0.00039262103382498026 0.0004161724355071783 -0.0714285597205162
			vertex -0.0003878228599205613 0.0004111060407012701 -0.0714285597205162
		endloop
	endfacet
	facet normal 0 0 -1
		outer loop
			vertex 0.0659727081656456 0.0504918210208416 -0.0714285597205162
			vertex 0.06558170169591904 0.04888984188437462 -0.0714285597205162
			vertex 0.06531771272420883 0.047971826046705246 -0.0714285597205162
		endloop
	endfacet
	facet normal 0 0 -1
		outer loop
			vertex 0.0659727081656456 0.0504918210208416 -0.0714285597205162
			vertex 0.06531771272420883 0.047971826046705246 -0.0714285597205162
			vertex 0.06263270229101181 0.0444568507373333 -0.0714285597205162
		endloop
	endfacet
	facet normal 0 0 -1
		outer loop
			vertex 0.0659727081656456 0.0504918210208416 -0.0714285597205162
			vertex 0.06263270229101181 0.0444568507373333 -0.0714285597205162
			vertex 0.059489693492650986 0.041068073362112045 -0.0714285597205162
		endloop
	endfacet
	facet normal 0 0 -1
		outer loop
			vertex 0.0659727081656456 0.0504918210208416 -0.0714285597205162
			vertex 0.059489693492650986 0.041068073362112045 -0.0714285597205162
			vertex 0.00028255057986825705 0.0008662769105285406 -0.0714285597205162
		endloop
	endfacet
	facet normal 0 0 -1
		outer loop
			vertex 0.0659727081656456 0.0504918210208416 -0.0714285597205162
			vertex 0.00028255057986825705 0.0008662769105285406 -0.0714285597205162
			vertex -0.00039262103382498026 0.0004161724355071783 -0.0714285597205162
		endloop
	endfacet
	facet normal 0 0 -1
		outer loop
			vertex 0.0659727081656456 0.0504918210208416 -0.0714285597205162
			vertex -0.00039262103382498026 0.0004161724355071783 -0.0714285597205162
			vertex -0.005793964024633169 0.006141928490251303 -0.0714285597205162
		endloop
	endfacet
	facet normal 0 0 -1
		outer loop
			vertex 0.0659727081656456 0.0504918210208416 -0.0714285597205162
			vertex -0.005793964024633169 0.006141928490251303 -0.0714285597205162
			vertex 0.06529100984334946 0.05535944923758507 -0.0714285597205162
		endloop
	endfacet
	facet normal 0 0 -1
		outer loop
			vertex -0.0659727230668068 -0.043304067105054855 -0.0714285597205162
			vertex -0.0659727230668068 -0.03552441671490669 -0.0714285597205162
			vertex -0.005793964024633169 0.006141928490251303 -0.0714285597205162
		endloop
	endfacet
	facet normal 0 0 -1
		outer loop
			vertex -0.0659727230668068 -0.043304067105054855 -0.0714285597205162
			vertex -0.005793964024633169 0.006141928490251303 -0.0714285597205162
			vertex -0.00039262103382498026 0.0004161724355071783 -0.0714285597205162
		endloop
	endfacet
	facet normal 0 0 -1
		outer loop
			vertex -0.0659727230668068 -0.03552441671490669 -0.0714285597205162
			vertex -0.0659727230668068 -0.03525015339255333 -0.0714285597205162
			vertex -0.06557660549879074 -0.03525015339255333 -0.0714285597205162
		endloop
	endfacet
	facet normal 0 0 -1
		outer loop
			vertex 0.06529100984334946 0.05535944923758507 -0.0714285597205162
			vertex -0.005793964024633169 0.006141928490251303 -0.0714285597205162
			vertex -0.015432825312018394 0.016359670087695122 -0.0714285597205162
		endloop
	endfacet
	facet normal 0 0 -1
		outer loop
			vertex 0.06529100984334946 0.05535944923758507 -0.0714285597205162
			vertex -0.015432825312018394 0.016359670087695122 -0.0714285597205162
			vertex 0.061158087104558945 0.06282024085521698 -0.0714285597205162
		endloop
	endfacet
	facet normal 0 0 -1
		outer loop
			vertex 0.06529100984334946 0.05535944923758507 -0.0714285597205162
			vertex 0.061158087104558945 0.06282024085521698 -0.0714285597205162
			vertex 0.06171467527747154 0.062327828258275986 -0.0714285597205162
		endloop
	endfacet
	facet normal 0 0 -1
		outer loop
			vertex 0.06529100984334946 0.05535944923758507 -0.0714285597205162
			vertex 0.06171467527747154 0.062327828258275986 -0.0714285597205162
			vertex 0.06523966044187546 0.05572585389018059 -0.0714285597205162
		endloop
	endfacet
	facet normal 0 0 -1
		outer loop
			vertex -0.0659727230668068 -0.03525015339255333 -0.0714285597205162
			vertex -0.0659727230668068 -0.014298172667622566 -0.0714285597205162
			vertex -0.015432825312018394 0.016359670087695122 -0.0714285597205162
		endloop
	endfacet
	facet normal 0 0 -1
		outer loop
			vertex -0.0659727230668068 -0.03525015339255333 -0.0714285597205162
			vertex -0.015432825312018394 0.016359670087695122 -0.0714285597205162
			vertex -0.005793964024633169 0.006141928490251303 -0.0714285597205162
		endloop
	endfacet
	facet normal 0 0 -1
		outer loop
			vertex -0.0659727230668068 -0.03525015339255333 -0.0714285597205162
			vertex -0.005793964024633169 0.006141928490251303 -0.0714285597205162
			vertex -0.06557660549879074 -0.03525015339255333 -0.0714285597205162
		endloop
	endfacet
	facet normal 0 0 -1
		outer loop
			vertex 0.04777940735220909 0.06988593935966492 -0.0714285597205162
			vertex 0.04784708842635155 0.06993365287780762 -0.0714285597205162
			vertex 0.04785671457648277 0.06993484497070312 -0.0714285597205162
		endloop
	endfacet
	facet normal 0 0 -1
		outer loop
			vertex 0.04777940735220909 0.06988593935966492 -0.0714285597205162
			vertex 0.04785671457648277 0.06993484497070312 -0.0714285597205162
			vertex 0.048921700567007065 0.06979884207248688 -0.0714285597205162
		endloop
	endfacet
	facet normal 0 0 -1
		outer loop
			vertex 0.061158087104558945 0.06282024085521698 -0.0714285597205162
			vertex -0.015432825312018394 0.016359670087695122 -0.0714285597205162
			vertex -0.020494243130087852 0.021725041791796684 -0.0714285597205162
		endloop
	endfacet
	facet normal 0 0 -1
		outer loop
			vertex 0.061158087104558945 0.06282024085521698 -0.0714285597205162
			vertex -0.020494243130087852 0.021725041791796684 -0.0714285597205162
			vertex 0.04777940735220909 0.06988593935966492 -0.0714285597205162
		endloop
	endfacet
	facet normal 0 0 -1
		outer loop
			vertex 0.061158087104558945 0.06282024085521698 -0.0714285597205162
			vertex 0.04777940735220909 0.06988593935966492 -0.0714285597205162
			vertex 0.05071872100234032 0.06966182589530945 -0.0714285597205162
		endloop
	endfacet
	facet normal 0 0 -1
		outer loop
			vertex 0.061158087104558945 0.06282024085521698 -0.0714285597205162
			vertex 0.05071872100234032 0.06966182589530945 -0.0714285597205162
			vertex 0.05595272406935692 0.06742583215236664 -0.0714285597205162
		endloop
	endfacet
	facet normal 0 0 -1
		outer loop
			vertex -0.0659727230668068 -0.014298172667622566 -0.0714285597205162
			vertex -0.0659727230668068 -0.01035592146217823 -0.0714285597205162
			vertex -0.020494243130087852 0.021725041791796684 -0.0714285597205162
		endloop
	endfacet
	facet normal 0 0 -1
		outer loop
			vertex -0.0659727230668068 -0.014298172667622566 -0.0714285597205162
			vertex -0.020494243130087852 0.021725041791796684 -0.0714285597205162
			vertex -0.015432825312018394 0.016359670087695122 -0.0714285597205162
		endloop
	endfacet
	facet normal 0 0 -1
		outer loop
			vertex -0.020494243130087852 0.021725041791796684 -0.0714285597205162
			vertex -0.025604059919714928 0.027141792699694633 -0.0714285597205162
			vertex 0.020657116547226906 0.06428016722202301 -0.0714285597205162
		endloop
	endfacet
	facet normal 0 0 -1
		outer loop
			vertex -0.020494243130087852 0.021725041791796684 -0.0714285597205162
			vertex 0.020657116547226906 0.06428016722202301 -0.0714285597205162
			vertex 0.023208672180771828 0.06496483087539673 -0.0714285597205162
		endloop
	endfacet
	facet normal 0 0 -1
		outer loop
			vertex -0.020494243130087852 0.021725041791796684 -0.0714285597205162
			vertex 0.023208672180771828 0.06496483087539673 -0.0714285597205162
			vertex 0.034536685794591904 0.06767882406711578 -0.0714285597205162
		endloop
	endfacet
	facet normal 0 0 -1
		outer loop
			vertex -0.020494243130087852 0.021725041791796684 -0.0714285597205162
			vertex 0.034536685794591904 0.06767882406711578 -0.0714285597205162
			vertex 0.04352068528532982 0.06940783560276031 -0.0714285597205162
		endloop
	endfacet
	facet normal 0 0 -1
		outer loop
			vertex -0.020494243130087852 0.021725041791796684 -0.0714285597205162
			vertex 0.04352068528532982 0.06940783560276031 -0.0714285597205162
			vertex 0.04784708842635155 0.06993365287780762 -0.0714285597205162
		endloop
	endfacet
	facet normal 0 0 -1
		outer loop
			vertex -0.0659727230668068 -0.01035592146217823 -0.0714285597205162
			vertex -0.0659727230668068 -0.0052660428918898106 -0.0714285597205162
			vertex -0.025604059919714928 0.027141792699694633 -0.0714285597205162
		endloop
	endfacet
	facet normal 0 0 -1
		outer loop
			vertex -0.0659727230668068 -0.01035592146217823 -0.0714285597205162
			vertex -0.025604059919714928 0.027141792699694633 -0.0714285597205162
			vertex -0.020494243130087852 0.021725041791796684 -0.0714285597205162
		endloop
	endfacet
	facet normal 0 0 -1
		outer loop
			vertex -0.025604059919714928 0.027141792699694633 -0.0714285597205162
			vertex -0.028821608051657677 0.03055254928767681 -0.0714285597205162
			vertex 0.005430782679468393 0.060001518577337265 -0.0714285597205162
		endloop
	endfacet
	facet normal 0 0 -1
		outer loop
			vertex -0.025604059919714928 0.027141792699694633 -0.0714285597205162
			vertex 0.005430782679468393 0.060001518577337265 -0.0714285597205162
			vertex 0.010815674439072609 0.061585839837789536 -0.0714285597205162
		endloop
	endfacet
	facet normal 0 0 -1
		outer loop
			vertex -0.025604059919714928 0.027141792699694633 -0.0714285597205162
			vertex 0.010815674439072609 0.061585839837789536 -0.0714285597205162
			vertex 0.013891661539673805 0.06246481463313103 -0.0714285597205162
		endloop
	endfacet
	facet normal 0 0 -1
		outer loop
			vertex -0.025604059919714928 0.027141792699694633 -0.0714285597205162
			vertex 0.013891661539673805 0.06246481463313103 -0.0714285597205162
			vertex 0.020657116547226906 0.06428016722202301 -0.0714285597205162
		endloop
	endfacet
	facet normal 0 0 -1
		outer loop
			vertex -0.0659727230668068 -0.0052660428918898106 -0.0714285597205162
			vertex -0.0659727230668068 -0.0013886264059692621 -0.0714285597205162
			vertex -0.028821608051657677 0.03055254928767681 -0.0714285597205162
		endloop
	endfacet
	facet normal 0 0 -1
		outer loop
			vertex -0.0659727230668068 -0.0052660428918898106 -0.0714285597205162
			vertex -0.028821608051657677 0.03055254928767681 -0.0714285597205162
			vertex -0.025604059919714928 0.027141792699694633 -0.0714285597205162
		endloop
	endfacet
	facet normal 0 0 -1
		outer loop
			vertex -0.028821608051657677 0.03055254928767681 -0.0714285597205162
			vertex -0.03206302598118782 0.03398863598704338 -0.0714285597205162
			vertex -0.008349424228072166 0.055611442774534225 -0.0714285597205162
		endloop
	endfacet
	facet normal 0 0 -1
		outer loop
			vertex -0.028821608051657677 0.03055254928767681 -0.0714285597205162
			vertex -0.008349424228072166 0.055611442774534225 -0.0714285597205162
			vertex 0.0015876836841925979 0.05887084826827049 -0.0714285597205162
		endloop
	endfacet
	facet normal 0 0 -1
		outer loop
			vertex -0.028821608051657677 0.03055254928767681 -0.0714285597205162
			vertex 0.0015876836841925979 0.05887084826827049 -0.0714285597205162
			vertex 0.005430782679468393 0.060001518577337265 -0.0714285597205162
		endloop
	endfacet
	facet normal 0 0 -1
		outer loop
			vertex -0.0659727230668068 -0.0013886264059692621 -0.0714285597205162
			vertex -0.0659727230668068 0.0030688473489135504 -0.0714285597205162
			vertex -0.03206302598118782 0.03398863598704338 -0.0714285597205162
		endloop
	endfacet
	facet normal 0 0 -1
		outer loop
			vertex -0.0659727230668068 -0.0013886264059692621 -0.0714285597205162
			vertex -0.03206302598118782 0.03398863598704338 -0.0714285597205162
			vertex -0.028821608051657677 0.03055254928767681 -0.0714285597205162
		endloop
	endfacet
	facet normal 0 0 -1
		outer loop
			vertex -0.03206302598118782 0.03398863598704338 -0.0714285597205162
			vertex -0.0360892154276371 0.03825659677386284 -0.0714285597205162
			vertex -0.023259630426764488 0.05072085186839104 -0.0714285597205162
		endloop
	endfacet
	facet normal 0 0 -1
		outer loop
			vertex -0.03206302598118782 0.03398863598704338 -0.0714285597205162
			vertex -0.023259630426764488 0.05072085186839104 -0.0714285597205162
			vertex -0.008349424228072166 0.055611442774534225 -0.0714285597205162
		endloop
	endfacet
	facet normal 0 0 -1
		outer loop
			vertex -0.0659727230668068 0.0030688473489135504 -0.0714285597205162
			vertex -0.0659727230668068 0.00922408513724804 -0.0714285597205162
			vertex -0.0360892154276371 0.03825659677386284 -0.0714285597205162
		endloop
	endfacet
	facet normal 0 0 -1
		outer loop
			vertex -0.0659727230668068 0.0030688473489135504 -0.0714285597205162
			vertex -0.0360892154276371 0.03825659677386284 -0.0714285597205162
			vertex -0.03206302598118782 0.03398863598704338 -0.0714285597205162
		endloop
	endfacet
	facet normal 0 0 -1
		outer loop
			vertex -0.0360892154276371 0.03825659677386284 -0.0714285597205162
			vertex -0.04104859009385109 0.043513860553503036 -0.0714285597205162
			vertex -0.02586331032216549 0.049866821616888046 -0.0714285597205162
		endloop
	endfacet
	facet normal 0 0 -1
		outer loop
			vertex -0.0360892154276371 0.03825659677386284 -0.0714285597205162
			vertex -0.02586331032216549 0.049866821616888046 -0.0714285597205162
			vertex -0.023259630426764488 0.05072085186839104 -0.0714285597205162
		endloop
	endfacet
	facet normal 0 0 -1
		outer loop
			vertex -0.0659727230668068 0.00922408513724804 -0.0714285597205162
			vertex -0.0659727230668068 0.020665956661105156 -0.0714285597205162
			vertex -0.04684754088521004 0.041087787598371506 -0.0714285597205162
		endloop
	endfacet
	facet normal 0 0 -1
		outer loop
			vertex -0.0659727230668068 0.00922408513724804 -0.0714285597205162
			vertex -0.04684754088521004 0.041087787598371506 -0.0714285597205162
			vertex -0.04104859009385109 0.043513860553503036 -0.0714285597205162
		endloop
	endfacet
	facet normal 0 0 -1
		outer loop
			vertex -0.0659727230668068 0.00922408513724804 -0.0714285597205162
			vertex -0.04104859009385109 0.043513860553503036 -0.0714285597205162
			vertex -0.0360892154276371 0.03825659677386284 -0.0714285597205162
		endloop
	endfacet
	facet normal 0 0 -1
		outer loop
			vertex -0.0659727230668068 0.020665956661105156 -0.0714285597205162
			vertex -0.0659727230668068 0.03163440153002739 -0.0714285597205162
			vertex -0.05553131178021431 0.03745482489466667 -0.0714285597205162
		endloop
	endfacet
	facet normal 0 0 -1
		outer loop
			vertex -0.0659727230668068 0.020665956661105156 -0.0714285597205162
			vertex -0.05553131178021431 0.03745482489466667 -0.0714285597205162
			vertex -0.04684754088521004 0.041087787598371506 -0.0714285597205162
		endloop
	endfacet
endsolid exported
