solid exported
	facet normal 0 1 0
		outer loop
			vertex 0.43727782368659973 0.3067464232444763 -0.14171770215034485
			vertex 0.4035471975803375 0.3067464232444763 -0.23619616031646729
			vertex 0.3952670097351074 0.3067464232444763 -0.23619616031646729
		endloop
	endfacet
	facet normal 0 1 0
		outer loop
			vertex 0.43727782368659973 0.3067464232444763 -0.14171770215034485
			vertex 0.3952670097351074 0.3067464232444763 -0.23619616031646729
			vertex 0.3875446319580078 0.3067464232444763 -0.14171770215034485
		endloop
	endfacet
	facet normal 0 1 0
		outer loop
			vertex 0.4490147531032562 0.3067464232444763 -0.14171770215034485
			vertex 0.42942672967910767 0.3067464232444763 -0.23619616031646729
			vertex 0.4035471975803375 0.3067464232444763 -0.23619616031646729
		endloop
	endfacet
	facet normal 0 1 0
		outer loop
			vertex 0.4490147531032562 0.3067464232444763 -0.14171770215034485
			vertex 0.4035471975803375 0.3067464232444763 -0.23619616031646729
			vertex 0.43727782368659973 0.3067464232444763 -0.14171770215034485
		endloop
	endfacet
	facet normal 0 1 0
		outer loop
			vertex 0.3875446319580078 0.3067464232444763 -0.14171770215034485
			vertex 0.3952670097351074 0.3067464232444763 -0.23619616031646729
			vertex 0.29999998211860657 0.3067464232444763 -0.23619616031646729
		endloop
	endfacet
	facet normal 0 1 0
		outer loop
			vertex 0.3875446319580078 0.3067464232444763 -0.14171770215034485
			vertex 0.29999998211860657 0.3067464232444763 -0.23619616031646729
			vertex 0.29999998211860657 0.3067464232444763 -0.14171770215034485
		endloop
	endfacet
	facet normal 0.5867033457061034 -0.6780423892989854 0.44276145095410885
		outer loop
			vertex 0.4951217770576477 0.3067726492881775 -0.14171770215034485
			vertex 0.4950914680957794 0.3067464232444763 -0.14171770215034485
			vertex 0.5 0.3067464232444763 -0.14822199940681458
		endloop
	endfacet
	facet normal -0.01287755959393582 0.999913521659854 0.00266789443072042
		outer loop
			vertex 0.4587540626525879 0.30687204003334045 -0.14171770215034485
			vertex 0.43060922622680664 0.30676165223121643 -0.23619616031646729
			vertex 0.42942672967910767 0.3067464232444763 -0.23619616031646729
		endloop
	endfacet
	facet normal -0.012896796425724921 0.9999132577787965 0.0026738661424743617
		outer loop
			vertex 0.4587540626525879 0.30687204003334045 -0.14171770215034485
			vertex 0.42942672967910767 0.3067464232444763 -0.23619616031646729
			vertex 0.4490147531032562 0.3067464232444763 -0.14171770215034485
		endloop
	endfacet
	facet normal 0.003785620158673825 0.9999921235250395 -0.0011924629540050655
		outer loop
			vertex 0.48288464546203613 0.3067464232444763 -0.2025589793920517
			vertex 0.47410234808921814 0.30685222148895264 -0.14171770215034485
			vertex 0.4951217770576477 0.3067726492881775 -0.14171770215034485
		endloop
	endfacet
	facet normal 0.003786041153795821 0.9999921218302347 -0.0011925476288918283
		outer loop
			vertex 0.48288464546203613 0.3067464232444763 -0.2025589793920517
			vertex 0.4951217770576477 0.3067726492881775 -0.14171770215034485
			vertex 0.5 0.3067464232444763 -0.14822199940681458
		endloop
	endfacet
	facet normal 0.0012907710604239534 0.9999979616714534 -0.0015525987917149062
		outer loop
			vertex 0.47410234808921814 0.30685222148895264 -0.14171770215034485
			vertex 0.48288464546203613 0.3067464232444763 -0.2025589793920517
			vertex 0.44242429733276367 0.3067464232444763 -0.23619616031646729
		endloop
	endfacet
	facet normal 0.0012889432160208003 0.9999979649804583 -0.0015519859303408429
		outer loop
			vertex 0.47410234808921814 0.30685222148895264 -0.14171770215034485
			vertex 0.44242429733276367 0.3067464232444763 -0.23619616031646729
			vertex 0.43060922622680664 0.30676165223121643 -0.23619616031646729
		endloop
	endfacet
	facet normal 0.0012912519803457059 0.999997960351849 -0.001553048764672331
		outer loop
			vertex 0.47410234808921814 0.30685222148895264 -0.14171770215034485
			vertex 0.43060922622680664 0.30676165223121643 -0.23619616031646729
			vertex 0.4587540626525879 0.30687204003334045 -0.14171770215034485
		endloop
	endfacet
	facet normal 0.42847955558643136 -0.8841327323297454 0.18631849631100225
		outer loop
			vertex 0.29999998211860657 0.2045331448316574 -0.14171770215034485
			vertex 0.29999998211860657 0.19852538406848907 -0.17022618651390076
			vertex 0.33628055453300476 0.2151039093732834 -0.17499150335788727
		endloop
	endfacet
	facet normal 0.42847982746088215 -0.8841325241628433 0.18631885888586808
		outer loop
			vertex 0.29999998211860657 0.2045331448316574 -0.14171770215034485
			vertex 0.33628055453300476 0.2151039093732834 -0.17499150335788727
			vertex 0.33924034237861633 0.22355031967163086 -0.14171770215034485
		endloop
	endfacet
	facet normal 0.2835382397489715 -0.8365079503791724 -0.4688928614859591
		outer loop
			vertex 0.29999998211860657 0.21456941962242126 -0.2047995775938034
			vertex 0.30371975898742676 0.2144583761692047 -0.2023521363735199
			vertex 0.29999998211860657 0.21208754181861877 -0.2003718912601471
		endloop
	endfacet
	facet normal 0.3978406264049014 -0.8692720975741836 -0.29340902569746374
		outer loop
			vertex 0.29999998211860657 0.21208754181861877 -0.2003718912601471
			vertex 0.30371975898742676 0.2144583761692047 -0.2023521363735199
			vertex 0.3166702389717102 0.2156071662902832 -0.18819573521614075
		endloop
	endfacet
	facet normal 0.3978412549582897 -0.8692714569330954 -0.2934100714267098
		outer loop
			vertex 0.29999998211860657 0.21208754181861877 -0.2003718912601471
			vertex 0.3166702389717102 0.2156071662902832 -0.18819573521614075
			vertex 0.29999998211860657 0.20627184212207794 -0.18314200639724731
		endloop
	endfacet
	facet normal 0.30849841308777054 -0.8157540496377476 -0.48925868374709774
		outer loop
			vertex 0.29999998211860657 0.20627184212207794 -0.18314200639724731
			vertex 0.3166702389717102 0.2156071662902832 -0.18819573521614075
			vertex 0.33628055453300476 0.2151039093732834 -0.17499150335788727
		endloop
	endfacet
	facet normal 0.3084985244868455 -0.8157530797644436 -0.4892602305974445
		outer loop
			vertex 0.29999998211860657 0.20627184212207794 -0.18314200639724731
			vertex 0.33628055453300476 0.2151039093732834 -0.17499150335788727
			vertex 0.29999998211860657 0.19852538406848907 -0.17022618651390076
		endloop
	endfacet
	facet normal 0.2529929959282809 -0.966546095613183 0.04222782336498827
		outer loop
			vertex 0.43386396765708923 0.2528653144836426 -0.14171770215034485
			vertex 0.4325519800186157 0.25252190232276917 -0.14171770215034485
			vertex 0.43436357378959656 0.252907931804657 -0.14373545348644257
		endloop
	endfacet
	facet normal 0.11613797775085888 -0.8879403684307327 -0.4450549092359682
		outer loop
			vertex 0.42596685886383057 0.2507983446121216 -0.14171770215034485
			vertex 0.43436357378959656 0.252907931804657 -0.14373545348644257
			vertex 0.427572101354599 0.2510083019733429 -0.14171770215034485
		endloop
	endfacet
	facet normal 0.8377528609137853 -0.525402375721764 -0.14873630228257834
		outer loop
			vertex 0.3776298761367798 0.2364811897277832 -0.1798304170370102
			vertex 0.37537387013435364 0.23296774923801422 -0.18012627959251404
			vertex 0.37649834156036377 0.23598338663578033 -0.18444529175758362
		endloop
	endfacet
	facet normal 0.8402608143942839 -0.5416188310296381 0.024714482951166086
		outer loop
			vertex 0.3776214122772217 0.23672537505626678 -0.17419132590293884
			vertex 0.37537387013435364 0.23296774923801422 -0.18012627959251404
			vertex 0.3776298761367798 0.2364811897277832 -0.1798304170370102
		endloop
	endfacet
	facet normal 0.5424624583948546 -0.7873110328569775 0.29304576225205897
		outer loop
			vertex 0.34502744674682617 0.2263549566268921 -0.14171770215034485
			vertex 0.37537387013435364 0.23296774923801422 -0.18012627959251404
			vertex 0.3776214122772217 0.23672537505626678 -0.17419132590293884
		endloop
	endfacet
	facet normal 0.5424613274919594 -0.7873123966553702 0.29304419163061063
		outer loop
			vertex 0.34502744674682617 0.2263549566268921 -0.14171770215034485
			vertex 0.3776214122772217 0.23672537505626678 -0.17419132590293884
			vertex 0.35265305638313293 0.2316090315580368 -0.14171770215034485
		endloop
	endfacet
	facet normal 0.4284815487311085 -0.8841313445961325 0.18632049779781573
		outer loop
			vertex 0.37537387013435364 0.23296774923801422 -0.18012627959251404
			vertex 0.34502744674682617 0.2263549566268921 -0.14171770215034485
			vertex 0.33924034237861633 0.22355031967163086 -0.14171770215034485
		endloop
	endfacet
	facet normal 0.4284800430874859 -0.8841324288061302 0.18631881549945378
		outer loop
			vertex 0.37537387013435364 0.23296774923801422 -0.18012627959251404
			vertex 0.33924034237861633 0.22355031967163086 -0.14171770215034485
			vertex 0.33628055453300476 0.2151039093732834 -0.17499150335788727
		endloop
	endfacet
	facet normal 0.2835371932651073 -0.8365049838277194 -0.46889878659123446
		outer loop
			vertex 0.29999998211860657 0.21503491699695587 -0.20562997460365295
			vertex 0.3079650402069092 0.21716417372226715 -0.2046121507883072
			vertex 0.30371975898742676 0.2144583761692047 -0.2023521363735199
		endloop
	endfacet
	facet normal 0.2835524666613262 -0.8364914273225913 -0.4689137347808141
		outer loop
			vertex 0.29999998211860657 0.21503491699695587 -0.20562997460365295
			vertex 0.30371975898742676 0.2144583761692047 -0.2023521363735199
			vertex 0.29999998211860657 0.21456941962242126 -0.2047995775938034
		endloop
	endfacet
	facet normal 0.3978425902681293 -0.8692701799539938 -0.2934120440804993
		outer loop
			vertex 0.30371975898742676 0.2144583761692047 -0.2023521363735199
			vertex 0.3079650402069092 0.21716417372226715 -0.2046121507883072
			vertex 0.3312858045101166 0.22379188239574432 -0.19262653589248657
		endloop
	endfacet
	facet normal 0.3978423065173888 -0.8692707735788697 -0.293410670130651
		outer loop
			vertex 0.30371975898742676 0.2144583761692047 -0.2023521363735199
			vertex 0.3312858045101166 0.22379188239574432 -0.19262653589248657
			vertex 0.3166702389717102 0.2156071662902832 -0.18819573521614075
		endloop
	endfacet
	facet normal 0.3084988102587788 -0.815752500021051 -0.4892610170229416
		outer loop
			vertex 0.3166702389717102 0.2156071662902832 -0.18819573521614075
			vertex 0.3312858045101166 0.22379188239574432 -0.19262653589248657
			vertex 0.37649834156036377 0.23598338663578033 -0.18444529175758362
		endloop
	endfacet
	facet normal 0.3084989956012907 -0.8157533162047258 -0.48925953931833327
		outer loop
			vertex 0.3166702389717102 0.2156071662902832 -0.18819573521614075
			vertex 0.37649834156036377 0.23598338663578033 -0.18444529175758362
			vertex 0.37537387013435364 0.23296774923801422 -0.18012627959251404
		endloop
	endfacet
	facet normal 0.3084989962153864 -0.8157533262334625 -0.4892595222099836
		outer loop
			vertex 0.3166702389717102 0.2156071662902832 -0.18819573521614075
			vertex 0.37537387013435364 0.23296774923801422 -0.18012627959251404
			vertex 0.33628055453300476 0.2151039093732834 -0.17499150335788727
		endloop
	endfacet
	facet normal 0.2899256243094331 -0.9538808782632383 0.07781004082082853
		outer loop
			vertex 0.4325519800186157 0.25252190232276917 -0.14171770215034485
			vertex 0.427572101354599 0.2510083019733429 -0.14171770215034485
			vertex 0.43436357378959656 0.252907931804657 -0.14373545348644257
		endloop
	endfacet
	facet normal 0.5178624353338218 -0.7994293144509178 -0.3045180934963613
		outer loop
			vertex 0.43436357378959656 0.252907931804657 -0.14373545348644257
			vertex 0.41542038321495056 0.2577268183231354 -0.18860085308551788
			vertex 0.48288464546203613 0.3067464232444763 -0.2025589793920517
		endloop
	endfacet
	facet normal 0.06729149340278195 -0.9886129756893738 -0.13459657950418039
		outer loop
			vertex 0.43436357378959656 0.252907931804657 -0.14373545348644257
			vertex 0.386008620262146 0.2507477402687073 -0.15204386413097382
			vertex 0.41542038321495056 0.2577268183231354 -0.18860085308551788
		endloop
	endfacet
	facet normal 0.11613792061083868 -0.887938744101494 -0.4450581648724716
		outer loop
			vertex 0.3698512017726898 0.24345868825912476 -0.14171770215034485
			vertex 0.386008620262146 0.2507477402687073 -0.15204386413097382
			vertex 0.43436357378959656 0.252907931804657 -0.14373545348644257
		endloop
	endfacet
	facet normal 0.11613836814296219 -0.8879408692171434 -0.4450538082288407
		outer loop
			vertex 0.3698512017726898 0.24345868825912476 -0.14171770215034485
			vertex 0.43436357378959656 0.252907931804657 -0.14373545348644257
			vertex 0.42596685886383057 0.2507983446121216 -0.14171770215034485
		endloop
	endfacet
	facet normal 0.8377543019794184 -0.525399902383271 -0.1487369224188363
		outer loop
			vertex 0.3892273008823395 0.2545427978038788 -0.17830944061279297
			vertex 0.3776298761367798 0.2364811897277832 -0.1798304170370102
			vertex 0.37649834156036377 0.23598338663578033 -0.18444529175758362
		endloop
	endfacet
	facet normal 0.8377542473713911 -0.5254007313559724 -0.1487343016987126
		outer loop
			vertex 0.3892273008823395 0.2545427978038788 -0.17830944061279297
			vertex 0.37649834156036377 0.23598338663578033 -0.18444529175758362
			vertex 0.38268527388572693 0.2525756061077118 -0.20820870995521545
		endloop
	endfacet
	facet normal 0.8377550932215404 -0.5253993036571346 -0.1487345807065945
		outer loop
			vertex 0.3892273008823395 0.2545427978038788 -0.17830944061279297
			vertex 0.38268527388572693 0.2525756061077118 -0.20820870995521545
			vertex 0.38743311166763306 0.2569582462310791 -0.19694778323173523
		endloop
	endfacet
	facet normal -0.09264689998978702 -0.9140787309120663 0.3948121396518462
		outer loop
			vertex 0.38743311166763306 0.2569582462310791 -0.19694778323173523
			vertex 0.38268527388572693 0.2525756061077118 -0.20820870995521545
			vertex 0.41542038321495056 0.2577268183231354 -0.18860085308551788
		endloop
	endfacet
	facet normal 0.5259145130845271 -0.7422171313267102 -0.41536448438957085
		outer loop
			vertex 0.38808760046958923 0.25922146439552307 -0.21324406564235687
			vertex 0.38268527388572693 0.2525756061077118 -0.20820870995521545
			vertex 0.3854854702949524 0.25958019495010376 -0.2171797752380371
		endloop
	endfacet
	facet normal 0.42728595711903644 -0.740434770875526 -0.5188285467544905
		outer loop
			vertex 0.41542038321495056 0.2577268183231354 -0.18860085308551788
			vertex 0.38268527388572693 0.2525756061077118 -0.20820870995521545
			vertex 0.38808760046958923 0.25922146439552307 -0.21324406564235687
		endloop
	endfacet
	facet normal 0.8402598291940564 -0.541620356507405 0.024714547529071384
		outer loop
			vertex 0.386008620262146 0.2507477402687073 -0.15204386413097382
			vertex 0.3776214122772217 0.23672537505626678 -0.17419132590293884
			vertex 0.3776298761367798 0.2364811897277832 -0.1798304170370102
		endloop
	endfacet
	facet normal 0.8402623688333588 -0.5416165408698551 0.02471182265081484
		outer loop
			vertex 0.386008620262146 0.2507477402687073 -0.15204386413097382
			vertex 0.3776298761367798 0.2364811897277832 -0.1798304170370102
			vertex 0.3892273008823395 0.2545427978038788 -0.17830944061279297
		endloop
	endfacet
	facet normal 0.1697422980066683 -0.4572692441452462 -0.8729790321801841
		outer loop
			vertex 0.3711514472961426 0.26119354367256165 -0.23619616031646729
			vertex 0.37313732504844666 0.26128247380256653 -0.23585660755634308
			vertex 0.36091724038124084 0.25091391801834106 -0.23280160129070282
		endloop
	endfacet
	facet normal 0.16974879179254215 -0.4572744003854459 -0.8729750686228691
		outer loop
			vertex 0.3711514472961426 0.26119354367256165 -0.23619616031646729
			vertex 0.36091724038124084 0.25091391801834106 -0.23280160129070282
			vertex 0.36638909578323364 0.25942566990852356 -0.23619616031646729
		endloop
	endfacet
	facet normal 0.28353801631302844 -0.836504982293441 -0.46889829164065316
		outer loop
			vertex 0.35990607738494873 0.25247398018836975 -0.23619616031646729
			vertex 0.36091724038124084 0.25091391801834106 -0.23280160129070282
			vertex 0.29999998211860657 0.23108242452144623 -0.23425866663455963
		endloop
	endfacet
	facet normal 0.28353872946724223 -0.8365066680116324 -0.46889485310054224
		outer loop
			vertex 0.35990607738494873 0.25247398018836975 -0.23619616031646729
			vertex 0.29999998211860657 0.23108242452144623 -0.23425866663455963
			vertex 0.29999998211860657 0.23216846585273743 -0.23619616031646729
		endloop
	endfacet
	facet normal 0.6458379199078347 -0.602296604943972 -0.46918246011768855
		outer loop
			vertex 0.36638909578323364 0.25942566990852356 -0.23619616031646729
			vertex 0.36091724038124084 0.25091391801834106 -0.23280160129070282
			vertex 0.35990607738494873 0.25247398018836975 -0.23619616031646729
		endloop
	endfacet
	facet normal 0.5259195544540785 -0.7422160796822727 -0.41535998038316363
		outer loop
			vertex 0.38268527388572693 0.2525756061077118 -0.20820870995521545
			vertex 0.36091724038124084 0.25091391801834106 -0.23280160129070282
			vertex 0.37313732504844666 0.26128247380256653 -0.23585660755634308
		endloop
	endfacet
	facet normal 0.5259216332373747 -0.7422144858393621 -0.41536019633944693
		outer loop
			vertex 0.38268527388572693 0.2525756061077118 -0.20820870995521545
			vertex 0.37313732504844666 0.26128247380256653 -0.23585660755634308
			vertex 0.3854854702949524 0.25958019495010376 -0.2171797752380371
		endloop
	endfacet
	facet normal 0.5424627268741677 -0.7873109469780145 0.2930454959913634
		outer loop
			vertex 0.35265305638313293 0.2316090315580368 -0.14171770215034485
			vertex 0.3776214122772217 0.23672537505626678 -0.17419132590293884
			vertex 0.386008620262146 0.2507477402687073 -0.15204386413097382
		endloop
	endfacet
	facet normal 0.5424628564654422 -0.7873101566790918 0.29304737935237873
		outer loop
			vertex 0.35265305638313293 0.2316090315580368 -0.14171770215034485
			vertex 0.386008620262146 0.2507477402687073 -0.15204386413097382
			vertex 0.3698512017726898 0.24345868825912476 -0.14171770215034485
		endloop
	endfacet
	facet normal 0.28353845975743497 -0.8365065725879307 -0.46889518642824096
		outer loop
			vertex 0.29999998211860657 0.23108242452144623 -0.23425866663455963
			vertex 0.36091724038124084 0.25091391801834106 -0.23280160129070282
			vertex 0.3079650402069092 0.21716417372226715 -0.2046121507883072
		endloop
	endfacet
	facet normal 0.28353726817865077 -0.8365070343997686 -0.46889508309801264
		outer loop
			vertex 0.29999998211860657 0.23108242452144623 -0.23425866663455963
			vertex 0.3079650402069092 0.21716417372226715 -0.2046121507883072
			vertex 0.29999998211860657 0.21503491699695587 -0.20562997460365295
		endloop
	endfacet
	facet normal 0.39784233509938627 -0.8692711582088807 -0.29340949185201726
		outer loop
			vertex 0.3079650402069092 0.21716417372226715 -0.2046121507883072
			vertex 0.36091724038124084 0.25091391801834106 -0.23280160129070282
			vertex 0.38268527388572693 0.2525756061077118 -0.20820870995521545
		endloop
	endfacet
	facet normal 0.3978421173021917 -0.8692708279983511 -0.2934107654663861
		outer loop
			vertex 0.3079650402069092 0.21716417372226715 -0.2046121507883072
			vertex 0.38268527388572693 0.2525756061077118 -0.20820870995521545
			vertex 0.3312858045101166 0.22379188239574432 -0.19262653589248657
		endloop
	endfacet
	facet normal 0.3084987943712014 -0.8157530522289492 -0.4892601063347271
		outer loop
			vertex 0.3312858045101166 0.22379188239574432 -0.19262653589248657
			vertex 0.38268527388572693 0.2525756061077118 -0.20820870995521545
			vertex 0.37649834156036377 0.23598338663578033 -0.18444529175758362
		endloop
	endfacet
	facet normal 0.5865687302454082 -0.6782188701474163 0.4426695029864286
		outer loop
			vertex 0.4950914680957794 0.3067464232444763 -0.14171770215034485
			vertex 0.4362717568874359 0.25587522983551025 -0.14171770215034485
			vertex 0.43436357378959656 0.252907931804657 -0.14373545348644257
		endloop
	endfacet
	facet normal 0.5865713772993709 -0.6782215694756044 0.4426618596978588
		outer loop
			vertex 0.4950914680957794 0.3067464232444763 -0.14171770215034485
			vertex 0.43436357378959656 0.252907931804657 -0.14373545348644257
			vertex 0.5 0.3067464232444763 -0.14822199940681458
		endloop
	endfacet
	facet normal 0.7274906504851768 -0.6657162641906899 0.16606989205947637
		outer loop
			vertex 0.43386396765708923 0.2528653144836426 -0.14171770215034485
			vertex 0.43436357378959656 0.252907931804657 -0.14373545348644257
			vertex 0.435139000415802 0.2542586624622345 -0.14171770215034485
		endloop
	endfacet
	facet normal 0.8169893194803723 -0.572478421992321 0.06925971562301117
		outer loop
			vertex 0.435139000415802 0.2542586624622345 -0.14171770215034485
			vertex 0.43436357378959656 0.252907931804657 -0.14373545348644257
			vertex 0.4362717568874359 0.25587522983551025 -0.14171770215034485
		endloop
	endfacet
	facet normal 0.8377533310975072 -0.5254020602615171 -0.1487347683226211
		outer loop
			vertex 0.3956463932991028 0.2645397186279297 -0.17746758460998535
			vertex 0.3892273008823395 0.2545427978038788 -0.17830944061279297
			vertex 0.38743311166763306 0.2569582462310791 -0.19694778323173523
		endloop
	endfacet
	facet normal -0.09264657821888414 -0.914079210454388 0.3948111049089362
		outer loop
			vertex 0.3956463932991028 0.2645397186279297 -0.17746758460998535
			vertex 0.38743311166763306 0.2569582462310791 -0.19694778323173523
			vertex 0.41542038321495056 0.2577268183231354 -0.18860085308551788
		endloop
	endfacet
	facet normal -0.531727945326487 -0.6434717916057933 -0.5506445728112674
		outer loop
			vertex 0.3956463932991028 0.2645397186279297 -0.17746758460998535
			vertex 0.41542038321495056 0.2577268183231354 -0.18860085308551788
			vertex 0.3911415934562683 0.25196573138237 -0.15842384099960327
		endloop
	endfacet
	facet normal 0.614271628966444 -0.765005182596128 -0.19348756148129057
		outer loop
			vertex 0.4577854573726654 0.27211979031562805 -0.14533644914627075
			vertex 0.43436357378959656 0.252907931804657 -0.14373545348644257
			vertex 0.44720664620399475 0.26715847849845886 -0.15930548310279846
		endloop
	endfacet
	facet normal 0.6142721052111619 -0.7650046622236071 -0.19348810696162244
		outer loop
			vertex 0.5 0.3067464232444763 -0.14822199940681458
			vertex 0.4577854573726654 0.27211979031562805 -0.14533644914627075
			vertex 0.44720664620399475 0.26715847849845886 -0.15930548310279846
		endloop
	endfacet
	facet normal 0.6142720877767384 -0.7650050245364325 -0.19348672980961695
		outer loop
			vertex 0.5 0.3067464232444763 -0.14822199940681458
			vertex 0.44720664620399475 0.26715847849845886 -0.15930548310279846
			vertex 0.48288464546203613 0.3067464232444763 -0.2025589793920517
		endloop
	endfacet
	facet normal 0.43029064773258235 -0.7395726843427824 -0.5175733793848808
		outer loop
			vertex 0.42428749799728394 0.29619425535202026 -0.23619616031646729
			vertex 0.44242429733276367 0.3067464232444763 -0.23619616031646729
			vertex 0.48288464546203613 0.3067464232444763 -0.2025589793920517
		endloop
	endfacet
	facet normal 0.43029048537586195 -0.7395730589852072 -0.5175729790264059
		outer loop
			vertex 0.42428749799728394 0.29619425535202026 -0.23619616031646729
			vertex 0.48288464546203613 0.3067464232444763 -0.2025589793920517
			vertex 0.41542038321495056 0.2577268183231354 -0.18860085308551788
		endloop
	endfacet
	facet normal 0.5259157939087168 -0.7422166525679065 -0.415363718165484
		outer loop
			vertex 0.41227999329566956 0.28920817375183105 -0.23619616031646729
			vertex 0.3876414895057678 0.2592829465866089 -0.2139187604188919
			vertex 0.3854854702949524 0.25958019495010376 -0.2171797752380371
		endloop
	endfacet
	facet normal 0.5259186167177151 -0.7422167731251189 -0.41535992859381715
		outer loop
			vertex 0.41227999329566956 0.28920817375183105 -0.23619616031646729
			vertex 0.3854854702949524 0.25958019495010376 -0.2171797752380371
			vertex 0.39142125844955444 0.274428129196167 -0.23619616031646729
		endloop
	endfacet
	facet normal 0.5259361456546943 -0.7422151696533705 -0.4153405983410515
		outer loop
			vertex 0.41227999329566956 0.28920817375183105 -0.23619616031646729
			vertex 0.41271230578422546 0.2895145118236542 -0.23619616031646729
			vertex 0.38808760046958923 0.25922146439552307 -0.21324406564235687
		endloop
	endfacet
	facet normal 0.5259107946688433 -0.742216908352986 -0.4153695908534001
		outer loop
			vertex 0.41227999329566956 0.28920817375183105 -0.23619616031646729
			vertex 0.38808760046958923 0.25922146439552307 -0.21324406564235687
			vertex 0.3876414895057678 0.2592829465866089 -0.2139187604188919
		endloop
	endfacet
	facet normal 0.4272856150013108 -0.7404345844285547 -0.5188290945919138
		outer loop
			vertex 0.41271230578422546 0.2895145118236542 -0.23619616031646729
			vertex 0.42428749799728394 0.29619425535202026 -0.23619616031646729
			vertex 0.41542038321495056 0.2577268183231354 -0.18860085308551788
		endloop
	endfacet
	facet normal 0.42728633289600165 -0.7404342827222302 -0.5188289339367106
		outer loop
			vertex 0.41271230578422546 0.2895145118236542 -0.23619616031646729
			vertex 0.41542038321495056 0.2577268183231354 -0.18860085308551788
			vertex 0.38808760046958923 0.25922146439552307 -0.21324406564235687
		endloop
	endfacet
	facet normal 0.5259275954939042 -0.7422014292354644 -0.41537597756590877
		outer loop
			vertex 0.38941872119903564 0.27300912141799927 -0.23619616031646729
			vertex 0.39142125844955444 0.274428129196167 -0.23619616031646729
			vertex 0.39118272066116333 0.2738313674926758 -0.23543187975883484
		endloop
	endfacet
	facet normal 0.8402611213585156 -0.5416184960579215 0.024711387279662274
		outer loop
			vertex 0.3956463932991028 0.2645397186279297 -0.17746758460998535
			vertex 0.386008620262146 0.2507477402687073 -0.15204386413097382
			vertex 0.3892273008823395 0.2545427978038788 -0.17830944061279297
		endloop
	endfacet
	facet normal -0.5317299880464258 -0.6434704488170301 -0.5506441694155654
		outer loop
			vertex 0.3956463932991028 0.2645397186279297 -0.17746758460998535
			vertex 0.3911415934562683 0.25196573138237 -0.15842384099960327
			vertex 0.386008620262146 0.2507477402687073 -0.15204386413097382
		endloop
	endfacet
	facet normal 0.1697424769421051 -0.45726511542313225 -0.8729811600135644
		outer loop
			vertex 0.3744955062866211 0.2624348998069763 -0.23619616031646729
			vertex 0.37313732504844666 0.26128247380256653 -0.23585660755634308
			vertex 0.3711514472961426 0.26119354367256165 -0.23619616031646729
		endloop
	endfacet
	facet normal 0.5259266370025776 -0.7422093507695045 -0.4153630365372801
		outer loop
			vertex 0.3854854702949524 0.25958019495010376 -0.2171797752380371
			vertex 0.37313732504844666 0.26128247380256653 -0.23585660755634308
			vertex 0.3744955062866211 0.2624348998069763 -0.23619616031646729
		endloop
	endfacet
	facet normal 0.5259174303568062 -0.7422181157257001 -0.4153590316045691
		outer loop
			vertex 0.3854854702949524 0.25958019495010376 -0.2171797752380371
			vertex 0.3744955062866211 0.2624348998069763 -0.23619616031646729
			vertex 0.38941872119903564 0.27300912141799927 -0.23619616031646729
		endloop
	endfacet
	facet normal 0.5259249080706176 -0.742214938349157 -0.4153552411638376
		outer loop
			vertex 0.3854854702949524 0.25958019495010376 -0.2171797752380371
			vertex 0.38941872119903564 0.27300912141799927 -0.23619616031646729
			vertex 0.39118272066116333 0.2738313674926758 -0.23543187975883484
		endloop
	endfacet
	facet normal -1 0 0
		outer loop
			vertex 0.29999998211860657 0.19852538406848907 -0.17022618651390076
			vertex 0.29999998211860657 0.1998271942138672 -0.16404874622821808
			vertex 0.29999998211860657 0.20627184212207794 -0.18314200639724731
		endloop
	endfacet
	facet normal -1 0 0
		outer loop
			vertex 0.29999998211860657 0.2077607959508896 -0.18755322694778442
			vertex 0.29999998211860657 0.22092309594154358 -0.18147878348827362
			vertex 0.29999998211860657 0.21456941962242126 -0.2047995775938034
		endloop
	endfacet
	facet normal -1 0 0
		outer loop
			vertex 0.29999998211860657 0.2077607959508896 -0.18755322694778442
			vertex 0.29999998211860657 0.21456941962242126 -0.2047995775938034
			vertex 0.29999998211860657 0.21208754181861877 -0.2003718912601471
		endloop
	endfacet
	facet normal -1 0 0
		outer loop
			vertex 0.29999998211860657 0.2045331448316574 -0.14171770215034485
			vertex 0.29999998211860657 0.20748157799243927 -0.14171770215034485
			vertex 0.29999998211860657 0.22142459452152252 -0.17963801324367523
		endloop
	endfacet
	facet normal -1 0 0
		outer loop
			vertex 0.29999998211860657 0.2045331448316574 -0.14171770215034485
			vertex 0.29999998211860657 0.22142459452152252 -0.17963801324367523
			vertex 0.29999998211860657 0.22092309594154358 -0.18147878348827362
		endloop
	endfacet
	facet normal -1 0 0
		outer loop
			vertex 0.29999998211860657 0.2045331448316574 -0.14171770215034485
			vertex 0.29999998211860657 0.22092309594154358 -0.18147878348827362
			vertex 0.29999998211860657 0.2077607959508896 -0.18755322694778442
		endloop
	endfacet
	facet normal -1 0 0
		outer loop
			vertex 0.29999998211860657 0.2045331448316574 -0.14171770215034485
			vertex 0.29999998211860657 0.2077607959508896 -0.18755322694778442
			vertex 0.29999998211860657 0.1998271942138672 -0.16404874622821808
		endloop
	endfacet
	facet normal -1 0 0
		outer loop
			vertex 0.29999998211860657 0.20748157799243927 -0.14171770215034485
			vertex 0.29999998211860657 0.2293774038553238 -0.14171770215034485
			vertex 0.29999998211860657 0.22862625122070312 -0.15320470929145813
		endloop
	endfacet
	facet normal -1 0 0
		outer loop
			vertex 0.29999998211860657 0.20748157799243927 -0.14171770215034485
			vertex 0.29999998211860657 0.22862625122070312 -0.15320470929145813
			vertex 0.29999998211860657 0.22142459452152252 -0.17963801324367523
		endloop
	endfacet
	facet normal -1 0 0
		outer loop
			vertex 0.29999998211860657 0.2293774038553238 -0.14171770215034485
			vertex 0.29999998211860657 0.22963279485702515 -0.14171770215034485
			vertex 0.29999998211860657 0.22870784997940063 -0.1529051810503006
		endloop
	endfacet
	facet normal -1 0 0
		outer loop
			vertex 0.29999998211860657 0.2293774038553238 -0.14171770215034485
			vertex 0.29999998211860657 0.22870784997940063 -0.1529051810503006
			vertex 0.29999998211860657 0.22862625122070312 -0.15320470929145813
		endloop
	endfacet
	facet normal -1 0 0
		outer loop
			vertex 0.29999998211860657 0.22963279485702515 -0.14171770215034485
			vertex 0.29999998211860657 0.23175585269927979 -0.14171770215034485
			vertex 0.29999998211860657 0.22870784997940063 -0.1529051810503006
		endloop
	endfacet
	facet normal -1 0 0
		outer loop
			vertex 0.29999998211860657 0.21456941962242126 -0.2047995775938034
			vertex 0.29999998211860657 0.21516704559326172 -0.20260606706142426
			vertex 0.29999998211860657 0.21503491699695587 -0.20562997460365295
		endloop
	endfacet
	facet normal -1 0 0
		outer loop
			vertex 0.29999998211860657 0.23478126525878906 -0.23619616031646729
			vertex 0.29999998211860657 0.23216846585273743 -0.23619616031646729
			vertex 0.29999998211860657 0.23108242452144623 -0.23425866663455963
		endloop
	endfacet
	facet normal -1 0 0
		outer loop
			vertex 0.29999998211860657 0.24222059547901154 -0.23619616031646729
			vertex 0.29999998211860657 0.23478126525878906 -0.23619616031646729
			vertex 0.29999998211860657 0.23108242452144623 -0.23425866663455963
		endloop
	endfacet
	facet normal -1 0 0
		outer loop
			vertex 0.29999998211860657 0.24222059547901154 -0.23619616031646729
			vertex 0.29999998211860657 0.23108242452144623 -0.23425866663455963
			vertex 0.29999998211860657 0.21503491699695587 -0.20562997460365295
		endloop
	endfacet
	facet normal -1 0 0
		outer loop
			vertex 0.29999998211860657 0.24222059547901154 -0.23619616031646729
			vertex 0.29999998211860657 0.21503491699695587 -0.20562997460365295
			vertex 0.29999998211860657 0.21516704559326172 -0.20260606706142426
		endloop
	endfacet
	facet normal -1 0 0
		outer loop
			vertex 0.29999998211860657 0.24222059547901154 -0.23619616031646729
			vertex 0.29999998211860657 0.21516704559326172 -0.20260606706142426
			vertex 0.29999998211860657 0.22092309594154358 -0.18147878348827362
		endloop
	endfacet
	facet normal -1 0 0
		outer loop
			vertex 0.29999998211860657 0.24222059547901154 -0.23619616031646729
			vertex 0.29999998211860657 0.22092309594154358 -0.18147878348827362
			vertex 0.29999998211860657 0.22193048894405365 -0.18101385235786438
		endloop
	endfacet
	facet normal -1 0 0
		outer loop
			vertex 0.29999998211860657 0.22193048894405365 -0.18101385235786438
			vertex 0.29999998211860657 0.22092309594154358 -0.18147878348827362
			vertex 0.29999998211860657 0.22142459452152252 -0.17963801324367523
		endloop
	endfacet
	facet normal -1 0 0
		outer loop
			vertex 0.29999998211860657 0.25635048747062683 -0.23619616031646729
			vertex 0.29999998211860657 0.24222059547901154 -0.23619616031646729
			vertex 0.29999998211860657 0.22193048894405365 -0.18101385235786438
		endloop
	endfacet
	facet normal -1 0 0
		outer loop
			vertex 0.29999998211860657 0.25635048747062683 -0.23619616031646729
			vertex 0.29999998211860657 0.22193048894405365 -0.18101385235786438
			vertex 0.29999998211860657 0.24724692106246948 -0.16933025419712067
		endloop
	endfacet
	facet normal -1 0 0
		outer loop
			vertex 0.29999998211860657 0.23175585269927979 -0.14171770215034485
			vertex 0.29999998211860657 0.23432248830795288 -0.14171770215034485
			vertex 0.29999998211860657 0.24690543115139008 -0.16682198643684387
		endloop
	endfacet
	facet normal -1 0 0
		outer loop
			vertex 0.29999998211860657 0.23175585269927979 -0.14171770215034485
			vertex 0.29999998211860657 0.24690543115139008 -0.16682198643684387
			vertex 0.29999998211860657 0.24724692106246948 -0.16933025419712067
		endloop
	endfacet
	facet normal -1 0 0
		outer loop
			vertex 0.29999998211860657 0.23175585269927979 -0.14171770215034485
			vertex 0.29999998211860657 0.24724692106246948 -0.16933025419712067
			vertex 0.29999998211860657 0.22193048894405365 -0.18101385235786438
		endloop
	endfacet
	facet normal -1 0 0
		outer loop
			vertex 0.29999998211860657 0.23175585269927979 -0.14171770215034485
			vertex 0.29999998211860657 0.22193048894405365 -0.18101385235786438
			vertex 0.29999998211860657 0.22142459452152252 -0.17963801324367523
		endloop
	endfacet
	facet normal -1 0 0
		outer loop
			vertex 0.29999998211860657 0.23432248830795288 -0.14171770215034485
			vertex 0.29999998211860657 0.24348756670951843 -0.14171770215034485
			vertex 0.29999998211860657 0.24690543115139008 -0.16682198643684387
		endloop
	endfacet
	facet normal -1 0 0
		outer loop
			vertex 0.29999998211860657 0.27737414836883545 -0.23619616031646729
			vertex 0.29999998211860657 0.25635048747062683 -0.23619616031646729
			vertex 0.29999998211860657 0.24724692106246948 -0.16933025419712067
		endloop
	endfacet
	facet normal -1 0 0
		outer loop
			vertex 0.29999998211860657 0.27737414836883545 -0.23619616031646729
			vertex 0.29999998211860657 0.24724692106246948 -0.16933025419712067
			vertex 0.29999998211860657 0.27596938610076904 -0.15607476234436035
		endloop
	endfacet
	facet normal -1 0 0
		outer loop
			vertex 0.29999998211860657 0.24348756670951843 -0.14171770215034485
			vertex 0.29999998211860657 0.27571767568588257 -0.14171770215034485
			vertex 0.29999998211860657 0.27596938610076904 -0.15607476234436035
		endloop
	endfacet
	facet normal -1 0 0
		outer loop
			vertex 0.29999998211860657 0.24348756670951843 -0.14171770215034485
			vertex 0.29999998211860657 0.27596938610076904 -0.15607476234436035
			vertex 0.29999998211860657 0.24724692106246948 -0.16933025419712067
		endloop
	endfacet
	facet normal -1 0 0
		outer loop
			vertex 0.29999998211860657 0.3067464232444763 -0.23619616031646729
			vertex 0.29999998211860657 0.27737414836883545 -0.23619616031646729
			vertex 0.29999998211860657 0.27596938610076904 -0.15607476234436035
		endloop
	endfacet
	facet normal -1 0 0
		outer loop
			vertex 0.29999998211860657 0.3067464232444763 -0.23619616031646729
			vertex 0.29999998211860657 0.27596938610076904 -0.15607476234436035
			vertex 0.29999998211860657 0.3067464232444763 -0.14187107980251312
		endloop
	endfacet
	facet normal -1 0 0
		outer loop
			vertex 0.29999998211860657 0.27571767568588257 -0.14171770215034485
			vertex 0.29999998211860657 0.3067464232444763 -0.14171770215034485
			vertex 0.29999998211860657 0.3067464232444763 -0.14187107980251312
		endloop
	endfacet
	facet normal -1 0 0
		outer loop
			vertex 0.29999998211860657 0.27571767568588257 -0.14171770215034485
			vertex 0.29999998211860657 0.3067464232444763 -0.14187107980251312
			vertex 0.29999998211860657 0.27596938610076904 -0.15607476234436035
		endloop
	endfacet
	facet normal 0 0 1
		outer loop
			vertex 0.4490147531032562 0.3067464232444763 -0.14171770215034485
			vertex 0.4950914680957794 0.3067464232444763 -0.14171770215034485
			vertex 0.4951217770576477 0.3067726492881775 -0.14171770215034485
		endloop
	endfacet
	facet normal 0 0 1
		outer loop
			vertex 0.4490147531032562 0.3067464232444763 -0.14171770215034485
			vertex 0.4951217770576477 0.3067726492881775 -0.14171770215034485
			vertex 0.47410234808921814 0.30685222148895264 -0.14171770215034485
		endloop
	endfacet
	facet normal 0 0 1
		outer loop
			vertex 0.4490147531032562 0.3067464232444763 -0.14171770215034485
			vertex 0.47410234808921814 0.30685222148895264 -0.14171770215034485
			vertex 0.4587540626525879 0.30687204003334045 -0.14171770215034485
		endloop
	endfacet
	facet normal 0 0 1
		outer loop
			vertex 0.29999998211860657 0.20748157799243927 -0.14171770215034485
			vertex 0.29999998211860657 0.2045331448316574 -0.14171770215034485
			vertex 0.33924034237861633 0.22355031967163086 -0.14171770215034485
		endloop
	endfacet
	facet normal 0 0 1
		outer loop
			vertex 0.29999998211860657 0.20748157799243927 -0.14171770215034485
			vertex 0.33924034237861633 0.22355031967163086 -0.14171770215034485
			vertex 0.33657360076904297 0.22410795092582703 -0.14171770215034485
		endloop
	endfacet
	facet normal 0 0 1
		outer loop
			vertex 0.29999998211860657 0.2293774038553238 -0.14171770215034485
			vertex 0.29999998211860657 0.20748157799243927 -0.14171770215034485
			vertex 0.33657360076904297 0.22410795092582703 -0.14171770215034485
		endloop
	endfacet
	facet normal 0 0 1
		outer loop
			vertex 0.29999998211860657 0.2293774038553238 -0.14171770215034485
			vertex 0.33657360076904297 0.22410795092582703 -0.14171770215034485
			vertex 0.32443463802337646 0.2266463339328766 -0.14171770215034485
		endloop
	endfacet
	facet normal 0 0 1
		outer loop
			vertex 0.29999998211860657 0.22963279485702515 -0.14171770215034485
			vertex 0.29999998211860657 0.2293774038553238 -0.14171770215034485
			vertex 0.32443463802337646 0.2266463339328766 -0.14171770215034485
		endloop
	endfacet
	facet normal 0 0 1
		outer loop
			vertex 0.29999998211860657 0.22963279485702515 -0.14171770215034485
			vertex 0.32443463802337646 0.2266463339328766 -0.14171770215034485
			vertex 0.31856054067611694 0.22787465155124664 -0.14171770215034485
		endloop
	endfacet
	facet normal 0 0 1
		outer loop
			vertex 0.29999998211860657 0.23175585269927979 -0.14171770215034485
			vertex 0.29999998211860657 0.22963279485702515 -0.14171770215034485
			vertex 0.31856054067611694 0.22787465155124664 -0.14171770215034485
		endloop
	endfacet
	facet normal 0 0 1
		outer loop
			vertex 0.3295811414718628 0.22557015717029572 -0.14171770215034485
			vertex 0.33924034237861633 0.22355031967163086 -0.14171770215034485
			vertex 0.34502744674682617 0.2263549566268921 -0.14171770215034485
		endloop
	endfacet
	facet normal 0 0 1
		outer loop
			vertex 0.3295811414718628 0.22557015717029572 -0.14171770215034485
			vertex 0.34502744674682617 0.2263549566268921 -0.14171770215034485
			vertex 0.35265305638313293 0.2316090315580368 -0.14171770215034485
		endloop
	endfacet
	facet normal 0 0 1
		outer loop
			vertex 0.4325519800186157 0.25252190232276917 -0.14171770215034485
			vertex 0.42596685886383057 0.2507983446121216 -0.14171770215034485
			vertex 0.427572101354599 0.2510083019733429 -0.14171770215034485
		endloop
	endfacet
	facet normal 0 0 1
		outer loop
			vertex 0.29999998211860657 0.23432248830795288 -0.14171770215034485
			vertex 0.29999998211860657 0.23175585269927979 -0.14171770215034485
			vertex 0.3295811414718628 0.22557015717029572 -0.14171770215034485
		endloop
	endfacet
	facet normal 0 0 1
		outer loop
			vertex 0.29999998211860657 0.23432248830795288 -0.14171770215034485
			vertex 0.3295811414718628 0.22557015717029572 -0.14171770215034485
			vertex 0.35265305638313293 0.2316090315580368 -0.14171770215034485
		endloop
	endfacet
	facet normal 0 0 1
		outer loop
			vertex 0.29999998211860657 0.23432248830795288 -0.14171770215034485
			vertex 0.35265305638313293 0.2316090315580368 -0.14171770215034485
			vertex 0.3698512017726898 0.24345868825912476 -0.14171770215034485
		endloop
	endfacet
	facet normal 0 0 1
		outer loop
			vertex 0.29999998211860657 0.24348756670951843 -0.14171770215034485
			vertex 0.29999998211860657 0.23432248830795288 -0.14171770215034485
			vertex 0.42596685886383057 0.2507983446121216 -0.14171770215034485
		endloop
	endfacet
	facet normal 0 0 1
		outer loop
			vertex 0.29999998211860657 0.24348756670951843 -0.14171770215034485
			vertex 0.42596685886383057 0.2507983446121216 -0.14171770215034485
			vertex 0.43248993158340454 0.25250568985939026 -0.14171770215034485
		endloop
	endfacet
	facet normal 0 0 1
		outer loop
			vertex 0.4323659837245941 0.25249725580215454 -0.14171770215034485
			vertex 0.43248993158340454 0.25250568985939026 -0.14171770215034485
			vertex 0.43386396765708923 0.2528653144836426 -0.14171770215034485
		endloop
	endfacet
	facet normal 0 0 1
		outer loop
			vertex 0.4323659837245941 0.25249725580215454 -0.14171770215034485
			vertex 0.43386396765708923 0.2528653144836426 -0.14171770215034485
			vertex 0.435139000415802 0.2542586624622345 -0.14171770215034485
		endloop
	endfacet
	facet normal 0 0 1
		outer loop
			vertex 0.4323659837245941 0.25249725580215454 -0.14171770215034485
			vertex 0.435139000415802 0.2542586624622345 -0.14171770215034485
			vertex 0.4362717568874359 0.25587522983551025 -0.14171770215034485
		endloop
	endfacet
	facet normal 0 0 1
		outer loop
			vertex 0.3927498459815979 0.24980072677135468 -0.14171770215034485
			vertex 0.4323659837245941 0.25249725580215454 -0.14171770215034485
			vertex 0.4569586217403412 0.2737666368484497 -0.14171770215034485
		endloop
	endfacet
	facet normal 0 0 1
		outer loop
			vertex 0.3927498459815979 0.24980072677135468 -0.14171770215034485
			vertex 0.4569586217403412 0.2737666368484497 -0.14171770215034485
			vertex 0.4107193350791931 0.27845317125320435 -0.14171770215034485
		endloop
	endfacet
	facet normal 0 0 1
		outer loop
			vertex 0.4569586217403412 0.2737666368484497 -0.14171770215034485
			vertex 0.4950914680957794 0.3067464232444763 -0.14171770215034485
			vertex 0.42846351861953735 0.3067464232444763 -0.14171770215034485
		endloop
	endfacet
	facet normal 0 0 1
		outer loop
			vertex 0.4569586217403412 0.2737666368484497 -0.14171770215034485
			vertex 0.42846351861953735 0.3067464232444763 -0.14171770215034485
			vertex 0.4107193350791931 0.27845317125320435 -0.14171770215034485
		endloop
	endfacet
	facet normal 0 0 1
		outer loop
			vertex 0.38474321365356445 0.24925574660301208 -0.14171770215034485
			vertex 0.3927498459815979 0.24980072677135468 -0.14171770215034485
			vertex 0.42846351861953735 0.3067464232444763 -0.14171770215034485
		endloop
	endfacet
	facet normal 0 0 1
		outer loop
			vertex 0.38474321365356445 0.24925574660301208 -0.14171770215034485
			vertex 0.42846351861953735 0.3067464232444763 -0.14171770215034485
			vertex 0.4218006432056427 0.3067464232444763 -0.14171770215034485
		endloop
	endfacet
	facet normal 0 0 1
		outer loop
			vertex 0.29999998211860657 0.27571767568588257 -0.14171770215034485
			vertex 0.29999998211860657 0.24348756670951843 -0.14171770215034485
			vertex 0.38474321365356445 0.24925574660301208 -0.14171770215034485
		endloop
	endfacet
	facet normal 0 0 1
		outer loop
			vertex 0.29999998211860657 0.27571767568588257 -0.14171770215034485
			vertex 0.38474321365356445 0.24925574660301208 -0.14171770215034485
			vertex 0.4184122085571289 0.30148962140083313 -0.14171770215034485
		endloop
	endfacet
	facet normal 0 0 1
		outer loop
			vertex 0.29999998211860657 0.3067464232444763 -0.14171770215034485
			vertex 0.29999998211860657 0.27571767568588257 -0.14171770215034485
			vertex 0.4184122085571289 0.30148962140083313 -0.14171770215034485
		endloop
	endfacet
	facet normal 0 0 1
		outer loop
			vertex 0.29999998211860657 0.3067464232444763 -0.14171770215034485
			vertex 0.4184122085571289 0.30148962140083313 -0.14171770215034485
			vertex 0.4218006432056427 0.3067464232444763 -0.14171770215034485
		endloop
	endfacet
	facet normal 0 0 -1
		outer loop
			vertex 0.44242429733276367 0.3067464232444763 -0.23619616031646729
			vertex 0.42942672967910767 0.3067464232444763 -0.23619616031646729
			vertex 0.43060922622680664 0.30676165223121643 -0.23619616031646729
		endloop
	endfacet
	facet normal 0 0 -1
		outer loop
			vertex 0.35497796535491943 0.25080356001853943 -0.23619616031646729
			vertex 0.351833313703537 0.25402241945266724 -0.23619616031646729
			vertex 0.36638909578323364 0.25942566990852356 -0.23619616031646729
		endloop
	endfacet
	facet normal 0 0 -1
		outer loop
			vertex 0.35497796535491943 0.25080356001853943 -0.23619616031646729
			vertex 0.36638909578323364 0.25942566990852356 -0.23619616031646729
			vertex 0.35990607738494873 0.25247398018836975 -0.23619616031646729
		endloop
	endfacet
	facet normal 0 0 -1
		outer loop
			vertex 0.29999998211860657 0.23216846585273743 -0.23619616031646729
			vertex 0.29999998211860657 0.23478126525878906 -0.23619616031646729
			vertex 0.351833313703537 0.25402241945266724 -0.23619616031646729
		endloop
	endfacet
	facet normal 0 0 -1
		outer loop
			vertex 0.29999998211860657 0.23216846585273743 -0.23619616031646729
			vertex 0.351833313703537 0.25402241945266724 -0.23619616031646729
			vertex 0.35497796535491943 0.25080356001853943 -0.23619616031646729
		endloop
	endfacet
	facet normal 0 0 -1
		outer loop
			vertex 0.351833313703537 0.25402241945266724 -0.23619616031646729
			vertex 0.34646880626678467 0.2595134675502777 -0.23619616031646729
			vertex 0.3711514472961426 0.26119354367256165 -0.23619616031646729
		endloop
	endfacet
	facet normal 0 0 -1
		outer loop
			vertex 0.29999998211860657 0.23478126525878906 -0.23619616031646729
			vertex 0.29999998211860657 0.24222059547901154 -0.23619616031646729
			vertex 0.3365554213523865 0.2588387131690979 -0.23619616031646729
		endloop
	endfacet
	facet normal 0 0 -1
		outer loop
			vertex 0.29999998211860657 0.23478126525878906 -0.23619616031646729
			vertex 0.3365554213523865 0.2588387131690979 -0.23619616031646729
			vertex 0.34646880626678467 0.2595134675502777 -0.23619616031646729
		endloop
	endfacet
	facet normal 0 0 -1
		outer loop
			vertex 0.29999998211860657 0.23478126525878906 -0.23619616031646729
			vertex 0.34646880626678467 0.2595134675502777 -0.23619616031646729
			vertex 0.351833313703537 0.25402241945266724 -0.23619616031646729
		endloop
	endfacet
	facet normal 0 0 -1
		outer loop
			vertex 0.29999998211860657 0.24222059547901154 -0.23619616031646729
			vertex 0.29999998211860657 0.25635048747062683 -0.23619616031646729
			vertex 0.3365554213523865 0.2588387131690979 -0.23619616031646729
		endloop
	endfacet
	facet normal 0 0 -1
		outer loop
			vertex 0.39142125844955444 0.274428129196167 -0.23619616031646729
			vertex 0.39403235912323 0.2785915434360504 -0.23619616031646729
			vertex 0.41227999329566956 0.28920817375183105 -0.23619616031646729
		endloop
	endfacet
	facet normal 0 0 -1
		outer loop
			vertex 0.43703126907348633 0.3067464232444763 -0.23619616031646729
			vertex 0.44242429733276367 0.3067464232444763 -0.23619616031646729
			vertex 0.42428749799728394 0.29619425535202026 -0.23619616031646729
		endloop
	endfacet
	facet normal 0 0 -1
		outer loop
			vertex 0.43703126907348633 0.3067464232444763 -0.23619616031646729
			vertex 0.42428749799728394 0.29619425535202026 -0.23619616031646729
			vertex 0.41271230578422546 0.2895145118236542 -0.23619616031646729
		endloop
	endfacet
	facet normal 0 0 -1
		outer loop
			vertex 0.411689817905426 0.3067464232444763 -0.23619616031646729
			vertex 0.43703126907348633 0.3067464232444763 -0.23619616031646729
			vertex 0.41227999329566956 0.28920817375183105 -0.23619616031646729
		endloop
	endfacet
	facet normal 0 0 -1
		outer loop
			vertex 0.411689817905426 0.3067464232444763 -0.23619616031646729
			vertex 0.41227999329566956 0.28920817375183105 -0.23619616031646729
			vertex 0.39403235912323 0.2785915434360504 -0.23619616031646729
		endloop
	endfacet
	facet normal 0 0 -1
		outer loop
			vertex 0.4009834825992584 0.28967511653900146 -0.23619616031646729
			vertex 0.39142125844955444 0.274428129196167 -0.23619616031646729
			vertex 0.38941872119903564 0.27300912141799927 -0.23619616031646729
		endloop
	endfacet
	facet normal 0 0 -1
		outer loop
			vertex 0.4009834825992584 0.28967511653900146 -0.23619616031646729
			vertex 0.38941872119903564 0.27300912141799927 -0.23619616031646729
			vertex 0.38834264874458313 0.2820546627044678 -0.23619616031646729
		endloop
	endfacet
	facet normal 0 0 -1
		outer loop
			vertex 0.3854053318500519 0.3067464232444763 -0.23619616031646729
			vertex 0.411689817905426 0.3067464232444763 -0.23619616031646729
			vertex 0.4009834825992584 0.28967511653900146 -0.23619616031646729
		endloop
	endfacet
	facet normal 0 0 -1
		outer loop
			vertex 0.3854053318500519 0.3067464232444763 -0.23619616031646729
			vertex 0.4009834825992584 0.28967511653900146 -0.23619616031646729
			vertex 0.38834264874458313 0.2820546627044678 -0.23619616031646729
		endloop
	endfacet
	facet normal 0 0 -1
		outer loop
			vertex 0.34646880626678467 0.2595134675502777 -0.23619616031646729
			vertex 0.32393136620521545 0.28258270025253296 -0.23619616031646729
			vertex 0.3866558074951172 0.2962344288825989 -0.23619616031646729
		endloop
	endfacet
	facet normal 0 0 -1
		outer loop
			vertex 0.34646880626678467 0.2595134675502777 -0.23619616031646729
			vertex 0.3866558074951172 0.2962344288825989 -0.23619616031646729
			vertex 0.38941872119903564 0.27300912141799927 -0.23619616031646729
		endloop
	endfacet
	facet normal 0 0 -1
		outer loop
			vertex 0.34646880626678467 0.2595134675502777 -0.23619616031646729
			vertex 0.38941872119903564 0.27300912141799927 -0.23619616031646729
			vertex 0.3744955062866211 0.2624348998069763 -0.23619616031646729
		endloop
	endfacet
	facet normal 0 0 -1
		outer loop
			vertex 0.34646880626678467 0.2595134675502777 -0.23619616031646729
			vertex 0.3744955062866211 0.2624348998069763 -0.23619616031646729
			vertex 0.3711514472961426 0.26119354367256165 -0.23619616031646729
		endloop
	endfacet
	facet normal 0 0 -1
		outer loop
			vertex 0.29999998211860657 0.25635048747062683 -0.23619616031646729
			vertex 0.29999998211860657 0.27737414836883545 -0.23619616031646729
			vertex 0.32393136620521545 0.28258270025253296 -0.23619616031646729
		endloop
	endfacet
	facet normal 0 0 -1
		outer loop
			vertex 0.29999998211860657 0.25635048747062683 -0.23619616031646729
			vertex 0.32393136620521545 0.28258270025253296 -0.23619616031646729
			vertex 0.34646880626678467 0.2595134675502777 -0.23619616031646729
		endloop
	endfacet
	facet normal 0 0 -1
		outer loop
			vertex 0.32393136620521545 0.28258270025253296 -0.23619616031646729
			vertex 0.3003246784210205 0.3067464232444763 -0.23619616031646729
			vertex 0.3854053318500519 0.3067464232444763 -0.23619616031646729
		endloop
	endfacet
	facet normal 0 0 -1
		outer loop
			vertex 0.32393136620521545 0.28258270025253296 -0.23619616031646729
			vertex 0.3854053318500519 0.3067464232444763 -0.23619616031646729
			vertex 0.3866558074951172 0.2962344288825989 -0.23619616031646729
		endloop
	endfacet
	facet normal 0 0 -1
		outer loop
			vertex 0.29999998211860657 0.27737414836883545 -0.23619616031646729
			vertex 0.29999998211860657 0.3067464232444763 -0.23619616031646729
			vertex 0.3003246784210205 0.3067464232444763 -0.23619616031646729
		endloop
	endfacet
	facet normal 0 0 -1
		outer loop
			vertex 0.29999998211860657 0.27737414836883545 -0.23619616031646729
			vertex 0.3003246784210205 0.3067464232444763 -0.23619616031646729
			vertex 0.32393136620521545 0.28258270025253296 -0.23619616031646729
		endloop
	endfacet
endsolid exported
